%TF.GenerationSoftware,KiCad,Pcbnew,8.0.5*%
%TF.CreationDate,2024-10-21T10:38:41+01:00*%
%TF.ProjectId,LEXI-R422-Rev 3,4c455849-2d52-4343-9232-2d5265762033,rev?*%
%TF.SameCoordinates,Original*%
%TF.FileFunction,Copper,L3,Inr*%
%TF.FilePolarity,Positive*%
%FSLAX46Y46*%
G04 Gerber Fmt 4.6, Leading zero omitted, Abs format (unit mm)*
G04 Created by KiCad (PCBNEW 8.0.5) date 2024-10-21 10:38:41*
%MOMM*%
%LPD*%
G01*
G04 APERTURE LIST*
%TA.AperFunction,ComponentPad*%
%ADD10C,0.600000*%
%TD*%
%TA.AperFunction,ComponentPad*%
%ADD11R,2.400000X2.400000*%
%TD*%
%TA.AperFunction,ComponentPad*%
%ADD12C,2.400000*%
%TD*%
%TA.AperFunction,ViaPad*%
%ADD13C,0.600000*%
%TD*%
%TA.AperFunction,ViaPad*%
%ADD14C,0.400000*%
%TD*%
%TA.AperFunction,ViaPad*%
%ADD15C,0.500000*%
%TD*%
%TA.AperFunction,ViaPad*%
%ADD16C,0.800000*%
%TD*%
%TA.AperFunction,Conductor*%
%ADD17C,0.200000*%
%TD*%
%TA.AperFunction,Conductor*%
%ADD18C,0.250000*%
%TD*%
G04 APERTURE END LIST*
D10*
%TO.N,GND*%
%TO.C,U1*%
X26450000Y6650000D03*
X26450000Y5650000D03*
%TD*%
D11*
%TO.N,/+3V6d*%
%TO.C,BT1*%
X11750000Y19500000D03*
D12*
%TO.N,GND*%
X11750000Y-1500000D03*
X15500000Y-1500000D03*
X8000000Y-1500000D03*
%TD*%
D13*
%TO.N,GND*%
X70993000Y-993657D03*
X17653000Y-993657D03*
X51943000Y18056343D03*
X18923000Y276343D03*
X53213000Y-993657D03*
X4953000Y4086343D03*
X22733000Y276343D03*
X72263000Y14246343D03*
X13843000Y14246343D03*
X41783000Y2816343D03*
X73533000Y276343D03*
X11303000Y10436343D03*
X73533000Y2816343D03*
X11303000Y9166343D03*
X12573000Y10436343D03*
X31623000Y-993657D03*
X73533000Y12976343D03*
X29083000Y12976343D03*
X31623000Y20596343D03*
X68453000Y-993657D03*
X25273000Y10436343D03*
X8763000Y19326343D03*
X70993000Y1546343D03*
D14*
X35400000Y15200000D03*
X32400000Y15000000D03*
D13*
X13843000Y11706343D03*
X7493000Y1546343D03*
X73533000Y4086343D03*
X10033000Y11706343D03*
X18923000Y14246343D03*
X21463000Y14246343D03*
X7493000Y18056343D03*
X10033000Y14246343D03*
X22733000Y16786343D03*
X6223000Y11706343D03*
X37973000Y20596343D03*
X6223000Y18056343D03*
X13843000Y4086343D03*
D14*
X57000000Y18400000D03*
D13*
X72263000Y1546343D03*
X39243000Y19326343D03*
X32893000Y11706343D03*
X73533000Y1546343D03*
X24003000Y14246343D03*
X4953000Y-993657D03*
X15113000Y9166343D03*
X13843000Y16786343D03*
X30353000Y12976343D03*
X20193000Y6626343D03*
D14*
X27130000Y16960000D03*
D13*
X50673000Y1546343D03*
X51943000Y16786343D03*
X24003000Y-993657D03*
X6223000Y15516343D03*
X22733000Y14246343D03*
X18923000Y-993657D03*
X22733000Y18056343D03*
X15113000Y11706343D03*
X12573000Y5356343D03*
D14*
X30590000Y17150000D03*
D13*
X34163000Y11706343D03*
X25273000Y276343D03*
X6223000Y276343D03*
X51943000Y-993657D03*
X6223000Y20596343D03*
X54483000Y-993657D03*
X51943000Y19326343D03*
X41783000Y4086343D03*
D14*
X31800000Y15000000D03*
D13*
X58293000Y-993657D03*
X20193000Y11706343D03*
X72263000Y276343D03*
X72263000Y6626343D03*
X11303000Y11706343D03*
X20193000Y2816343D03*
X15113000Y4086343D03*
X11303000Y5356343D03*
D14*
X32400000Y17200000D03*
D13*
X22733000Y-993657D03*
X73533000Y14246343D03*
X73533000Y-993657D03*
X20193000Y5356343D03*
X25273000Y15516343D03*
X26543000Y12976343D03*
X8763000Y1546343D03*
X30353000Y-993657D03*
X20193000Y7896343D03*
X13843000Y2816343D03*
X57023000Y-993657D03*
X72263000Y2816343D03*
X21463000Y19326343D03*
X13843000Y18056343D03*
X24003000Y16786343D03*
X16383000Y15516343D03*
X15113000Y1546343D03*
X7493000Y19326343D03*
X10033000Y276343D03*
X18923000Y15516343D03*
X4953000Y16786343D03*
X49403000Y1546343D03*
X73533000Y11706343D03*
X11303000Y4086343D03*
X21463000Y16786343D03*
D14*
X33000000Y15000000D03*
D15*
X51400000Y10200000D03*
D13*
X7493000Y15516343D03*
X59563000Y-993657D03*
X12573000Y11706343D03*
X26543000Y11706343D03*
X58293000Y5356343D03*
X50673000Y-993657D03*
X57023000Y1546343D03*
X21463000Y276343D03*
X55753000Y1546343D03*
X72263000Y12976343D03*
D14*
X28920000Y17470000D03*
D13*
X56300000Y7300000D03*
X17653000Y14246343D03*
X21463000Y18056343D03*
X63373000Y-993657D03*
X15113000Y5356343D03*
X12573000Y4086343D03*
X32893000Y10436343D03*
X10033000Y16786343D03*
X32893000Y20596343D03*
X20193000Y4086343D03*
X10033000Y15516343D03*
X8763000Y15516343D03*
X34163000Y20596343D03*
X12573000Y2816343D03*
X13843000Y19326343D03*
X24003000Y18056343D03*
X25273000Y12976343D03*
X35433000Y19326343D03*
X21463000Y15516343D03*
X12573000Y1546343D03*
X13843000Y5356343D03*
X13843000Y9166343D03*
X24003000Y276343D03*
X55753000Y5356343D03*
X24003000Y19326343D03*
X27813000Y11706343D03*
X68453000Y276343D03*
X31623000Y12976343D03*
X32893000Y19326343D03*
X13843000Y15516343D03*
X4953000Y18056343D03*
D14*
X29990000Y17120000D03*
D13*
X7493000Y20596343D03*
D14*
X26840000Y17480000D03*
X36000000Y15200000D03*
D13*
X41783000Y1546343D03*
D14*
X28220000Y15600000D03*
D13*
X72263000Y9166343D03*
X8763000Y12976343D03*
X13843000Y6626343D03*
X15113000Y14246343D03*
D16*
X22707600Y21285200D03*
D13*
X15113000Y15516343D03*
X20193000Y276343D03*
X20193000Y1546343D03*
X70993000Y276343D03*
D14*
X31200000Y15000000D03*
D13*
X36703000Y20596343D03*
X34163000Y19326343D03*
D14*
X29340000Y17120000D03*
D13*
X69723000Y276343D03*
X64643000Y-993657D03*
X58293000Y1546343D03*
X29083000Y11706343D03*
X27813000Y12976343D03*
X11303000Y2816343D03*
X7493000Y16786343D03*
X4953000Y15516343D03*
X15113000Y12976343D03*
X34163000Y12976343D03*
X30353000Y11706343D03*
X73533000Y10436343D03*
X39243000Y20596343D03*
X35433000Y20596343D03*
X73533000Y7896343D03*
X48133000Y19326343D03*
X73533000Y6626343D03*
X4953000Y11706343D03*
X26543000Y10436343D03*
X25273000Y11706343D03*
X4953000Y276343D03*
X12573000Y16786343D03*
X20193000Y12976343D03*
X36703000Y19326343D03*
X16383000Y14246343D03*
X4953000Y20596343D03*
X8763000Y16786343D03*
X60833000Y-993657D03*
X8763000Y2816343D03*
X12573000Y7896343D03*
X26543000Y14246343D03*
X15113000Y2816343D03*
X25273000Y1546343D03*
X35433000Y12976343D03*
X72263000Y11706343D03*
X7493000Y14246343D03*
X4953000Y19326343D03*
X11303000Y12976343D03*
D14*
X31800000Y17200000D03*
D13*
X10033000Y12976343D03*
X17653000Y15516343D03*
X41783000Y-993657D03*
X32893000Y12976343D03*
X73533000Y9166343D03*
D14*
X31200000Y17200000D03*
D13*
X20193000Y9166343D03*
X10033000Y1546343D03*
X4953000Y1546343D03*
X6223000Y16786343D03*
X15113000Y6626343D03*
D14*
X28740000Y15350000D03*
D13*
X15113000Y10436343D03*
X13843000Y276343D03*
X20193000Y-993657D03*
X24003000Y15516343D03*
X10033000Y4086343D03*
X12573000Y14246343D03*
X22733000Y19326343D03*
X8763000Y4086343D03*
X55753000Y-993657D03*
X11303000Y14246343D03*
X72263000Y7896343D03*
X10033000Y2816343D03*
X20193000Y15516343D03*
X8763000Y20596343D03*
D14*
X34800000Y17200000D03*
D13*
X11303000Y15516343D03*
X25273000Y16786343D03*
D14*
X36600000Y17000000D03*
X36000000Y17000000D03*
D13*
X20193000Y10436343D03*
X34163000Y9166343D03*
X40513000Y1546343D03*
X31623000Y19326343D03*
D14*
X67800000Y10600000D03*
D13*
X8763000Y18056343D03*
D14*
X33000000Y17200000D03*
D13*
X73533000Y5356343D03*
X13843000Y20596343D03*
D14*
X33600000Y15000000D03*
D13*
X72263000Y-993657D03*
X72263000Y4086343D03*
D14*
X27350000Y16440000D03*
X35400000Y17000000D03*
X27740000Y15970000D03*
D13*
X49403000Y-993657D03*
X11303000Y16786343D03*
X72263000Y10436343D03*
X12573000Y9166343D03*
X12573000Y12976343D03*
X13843000Y12976343D03*
X6223000Y19326343D03*
D14*
X33600000Y17200000D03*
D13*
X69723000Y1546343D03*
X13843000Y10436343D03*
D14*
X34200000Y17200000D03*
D13*
X12573000Y6626343D03*
X31623000Y11706343D03*
X69723000Y-993657D03*
X34163000Y10436343D03*
X15113000Y7896343D03*
X21463000Y-993657D03*
X17653000Y276343D03*
X20193000Y14246343D03*
X25273000Y14246343D03*
X37973000Y19326343D03*
X62103000Y-993657D03*
D14*
X36600000Y15200000D03*
X56800000Y16200000D03*
D13*
X22733000Y15516343D03*
X12573000Y15516343D03*
X13843000Y1546343D03*
X13843000Y7896343D03*
X48133000Y20596343D03*
X35433000Y11706343D03*
X11303000Y1546343D03*
X8763000Y14246343D03*
D16*
%TO.N,/uRST*%
X56675000Y15000000D03*
X48000000Y4200000D03*
%TO.N,/uCLK*%
X46600000Y4000000D03*
X56920000Y17280000D03*
%TO.N,/uData*%
X45200000Y4000000D03*
X55800000Y19000000D03*
D15*
%TO.N,/uVDD*%
X48700000Y2400000D03*
D16*
X44000000Y4600000D03*
%TO.N,/VBAT*%
X29200000Y7200000D03*
X36200000Y4400000D03*
X39800000Y4200000D03*
X35400000Y800000D03*
X37600000Y4600000D03*
X35600000Y-1600000D03*
X36800000Y3000000D03*
X29600000Y6000000D03*
X27800000Y8400000D03*
%TO.N,/uPWRKEY*%
X64800000Y959998D03*
%TO.N,/uDTR*%
X63616429Y16235000D03*
%TO.N,/TxD*%
X69275000Y9600000D03*
%TO.N,/RxD*%
X69000000Y7200000D03*
%TO.N,/uDCD*%
X64532815Y15808952D03*
%TO.N,/RXD*%
X59148889Y11524985D03*
X41300000Y19100000D03*
X56152123Y9135421D03*
%TO.N,/TXD*%
X60000000Y11000000D03*
X57900000Y10150000D03*
X42800000Y19000000D03*
%TO.N,/VDD_EXT*%
X59200000Y6400000D03*
X36600000Y9000000D03*
X59000000Y15800000D03*
D15*
X58800000Y18600000D03*
D16*
%TO.N,/DTR*%
X46000000Y19400000D03*
X55850000Y10124985D03*
X59400000Y13400000D03*
%TO.N,/DCD*%
X44800000Y19400000D03*
%TO.N,/PWRKEY*%
X50800000Y5200000D03*
%TO.N,/Alim*%
X34200000Y-50000D03*
%TO.N,/+3V6d*%
X22750000Y8400000D03*
X69400000Y16000000D03*
X22750000Y5800000D03*
X24400000Y8600000D03*
X25000000Y4800000D03*
X22750000Y11000000D03*
X22750000Y3000000D03*
%TO.N,/+3V3_UC*%
X68500000Y3275000D03*
X67250000Y13500000D03*
X62400000Y10800000D03*
%TO.N,/Vbus*%
X58725000Y14838555D03*
X52675000Y14100000D03*
%TO.N,/U5V*%
X54450000Y7850000D03*
X51250000Y7700000D03*
%TO.N,/P99*%
X57900001Y9125000D03*
X47557087Y8427165D03*
%TO.N,/Network*%
X64246154Y20869231D03*
%TO.N,/PowerDown*%
X68660000Y14790000D03*
%TD*%
D17*
%TO.N,/TXD*%
X60000000Y11000000D02*
X59824985Y10824985D01*
D18*
%TO.N,/+3V3_UC*%
X67200000Y13450000D02*
X67250000Y13500000D01*
X62400000Y10800000D02*
X66200000Y10800000D01*
X67200000Y11800000D02*
X67200000Y13450000D01*
X66200000Y10800000D02*
X67200000Y11800000D01*
%TD*%
%TA.AperFunction,Conductor*%
%TO.N,GND*%
G36*
X74361321Y22264398D02*
G01*
X74407814Y22210742D01*
X74419200Y22158400D01*
X74419200Y-2654000D01*
X74399198Y-2722121D01*
X74345542Y-2768614D01*
X74293200Y-2780000D01*
X28282337Y-2780000D01*
X28214216Y-2759998D01*
X28167723Y-2706342D01*
X28157619Y-2636068D01*
X28187113Y-2571488D01*
X28219337Y-2544881D01*
X28331087Y-2480361D01*
X28388527Y-2447199D01*
X28586176Y-2295538D01*
X28762338Y-2119376D01*
X28913999Y-1921727D01*
X29038564Y-1705973D01*
X29082460Y-1599999D01*
X34994318Y-1599999D01*
X34994318Y-1600000D01*
X35014955Y-1756760D01*
X35014956Y-1756762D01*
X35075464Y-1902841D01*
X35171718Y-2028282D01*
X35297159Y-2124536D01*
X35443238Y-2185044D01*
X35600000Y-2205682D01*
X35756762Y-2185044D01*
X35902841Y-2124536D01*
X36028282Y-2028282D01*
X36124536Y-1902841D01*
X36185044Y-1756762D01*
X36205682Y-1600000D01*
X36185044Y-1443238D01*
X36124536Y-1297159D01*
X36028282Y-1171718D01*
X35902841Y-1075464D01*
X35756762Y-1014956D01*
X35756760Y-1014955D01*
X35600000Y-994318D01*
X35443239Y-1014955D01*
X35297160Y-1075463D01*
X35297157Y-1075465D01*
X35171718Y-1171718D01*
X35075465Y-1297157D01*
X35075463Y-1297160D01*
X35014955Y-1443239D01*
X34994318Y-1599999D01*
X29082460Y-1599999D01*
X29133902Y-1475807D01*
X29198382Y-1235165D01*
X29230900Y-988165D01*
X29230900Y-739035D01*
X29198382Y-492035D01*
X29133902Y-251393D01*
X29050482Y-49999D01*
X33594318Y-49999D01*
X33594318Y-50000D01*
X33614955Y-206760D01*
X33614956Y-206762D01*
X33675464Y-352841D01*
X33771718Y-478282D01*
X33897159Y-574536D01*
X34043238Y-635044D01*
X34200000Y-655682D01*
X34356762Y-635044D01*
X34502841Y-574536D01*
X34628282Y-478282D01*
X34724536Y-352841D01*
X34785044Y-206762D01*
X34805682Y-50000D01*
X34785044Y106762D01*
X34724536Y252841D01*
X34628282Y378282D01*
X34502841Y474536D01*
X34356762Y535044D01*
X34200000Y555682D01*
X34043238Y535044D01*
X33897159Y474536D01*
X33771718Y378282D01*
X33675465Y252842D01*
X33675463Y252839D01*
X33614955Y106760D01*
X33594318Y-49999D01*
X29050482Y-49999D01*
X29038564Y-21227D01*
X29038558Y-21218D01*
X29038557Y-21214D01*
X28961290Y112615D01*
X28913999Y194527D01*
X28762338Y392176D01*
X28586176Y568338D01*
X28388527Y719999D01*
X28249961Y800000D01*
X34794318Y800000D01*
X34794318Y799999D01*
X34814955Y643239D01*
X34875463Y497160D01*
X34875465Y497157D01*
X34971718Y371718D01*
X35097157Y275465D01*
X35097160Y275463D01*
X35243239Y214955D01*
X35400000Y194318D01*
X35556760Y214955D01*
X35702839Y275463D01*
X35702842Y275465D01*
X35828282Y371718D01*
X35924536Y497159D01*
X35985044Y643238D01*
X36005682Y800000D01*
X35985044Y956762D01*
X35983704Y959998D01*
X64194318Y959998D01*
X64194318Y959997D01*
X64214955Y803237D01*
X64275463Y657158D01*
X64275465Y657155D01*
X64371718Y531716D01*
X64497157Y435463D01*
X64497160Y435461D01*
X64643239Y374953D01*
X64800000Y354316D01*
X64956760Y374953D01*
X65102839Y435461D01*
X65102842Y435463D01*
X65228282Y531716D01*
X65324536Y657157D01*
X65385044Y803236D01*
X65405682Y959998D01*
X65385044Y1116760D01*
X65324536Y1262839D01*
X65228282Y1388280D01*
X65102841Y1484534D01*
X64956762Y1545042D01*
X64800000Y1565680D01*
X64643238Y1545042D01*
X64497159Y1484534D01*
X64371718Y1388280D01*
X64275465Y1262840D01*
X64275463Y1262837D01*
X64214955Y1116758D01*
X64194318Y959998D01*
X35983704Y959998D01*
X35924536Y1102841D01*
X35828282Y1228282D01*
X35702841Y1324536D01*
X35556762Y1385044D01*
X35400000Y1405682D01*
X35243238Y1385044D01*
X35097159Y1324536D01*
X34971718Y1228282D01*
X34886143Y1116758D01*
X34875465Y1102842D01*
X34875463Y1102839D01*
X34814955Y956760D01*
X34794318Y800000D01*
X28249961Y800000D01*
X28172773Y844564D01*
X27942607Y939902D01*
X27701965Y1004382D01*
X27701958Y1004382D01*
X27701958Y1004383D01*
X27678190Y1007511D01*
X27454965Y1036900D01*
X27205835Y1036900D01*
X27022499Y1012763D01*
X26958841Y1004383D01*
X26958839Y1004382D01*
X26958835Y1004382D01*
X26718193Y939902D01*
X26488027Y844564D01*
X26488018Y844558D01*
X26488014Y844557D01*
X26272276Y720001D01*
X26272273Y719999D01*
X26074624Y568338D01*
X26074618Y568332D01*
X26074613Y568328D01*
X25898471Y392186D01*
X25898466Y392180D01*
X25898462Y392176D01*
X25762477Y214956D01*
X25746798Y194523D01*
X25622242Y-21214D01*
X25622237Y-21225D01*
X25526898Y-251393D01*
X25526897Y-251397D01*
X25462416Y-492041D01*
X25429900Y-739032D01*
X25429900Y-988167D01*
X25462416Y-1235158D01*
X25462418Y-1235165D01*
X25526898Y-1475807D01*
X25622236Y-1705973D01*
X25622237Y-1705974D01*
X25622242Y-1705985D01*
X25746798Y-1921723D01*
X25746800Y-1921726D01*
X25746801Y-1921727D01*
X25898462Y-2119376D01*
X25898466Y-2119380D01*
X25898471Y-2119386D01*
X26074613Y-2295528D01*
X26074618Y-2295532D01*
X26074624Y-2295538D01*
X26272273Y-2447199D01*
X26272276Y-2447201D01*
X26441463Y-2544881D01*
X26490456Y-2596263D01*
X26503892Y-2665977D01*
X26477506Y-2731888D01*
X26419674Y-2773070D01*
X26378463Y-2780000D01*
X3751000Y-2780000D01*
X3682879Y-2759998D01*
X3636386Y-2706342D01*
X3625000Y-2654000D01*
X3625000Y3000000D01*
X22144318Y3000000D01*
X22144318Y2999999D01*
X22164955Y2843239D01*
X22225463Y2697160D01*
X22225465Y2697157D01*
X22321718Y2571718D01*
X22447157Y2475465D01*
X22447160Y2475463D01*
X22593239Y2414955D01*
X22750000Y2394318D01*
X22906760Y2414955D01*
X23052839Y2475463D01*
X23052842Y2475465D01*
X23121599Y2528224D01*
X23178282Y2571718D01*
X23274536Y2697159D01*
X23335044Y2843238D01*
X23345363Y2921619D01*
X23355682Y2999999D01*
X23355682Y3000000D01*
X36194318Y3000000D01*
X36194318Y2999999D01*
X36214955Y2843239D01*
X36275463Y2697160D01*
X36275465Y2697157D01*
X36371718Y2571718D01*
X36497157Y2475465D01*
X36497160Y2475463D01*
X36643239Y2414955D01*
X36800000Y2394318D01*
X36843161Y2400000D01*
X48244867Y2400000D01*
X48263303Y2271775D01*
X48317118Y2153937D01*
X48401951Y2056032D01*
X48510926Y1985998D01*
X48510933Y1985995D01*
X48635223Y1949501D01*
X48635225Y1949500D01*
X48635228Y1949500D01*
X48635232Y1949500D01*
X48764768Y1949500D01*
X48764772Y1949500D01*
X48764774Y1949500D01*
X48764776Y1949501D01*
X48889066Y1985995D01*
X48889069Y1985996D01*
X48889070Y1985996D01*
X48889073Y1985998D01*
X48998048Y2056032D01*
X48998049Y2056033D01*
X49082882Y2153937D01*
X49136697Y2271774D01*
X49155133Y2400000D01*
X49136697Y2528226D01*
X49082882Y2646063D01*
X48998049Y2743967D01*
X48889069Y2814004D01*
X48764772Y2850500D01*
X48635228Y2850500D01*
X48510931Y2814004D01*
X48401951Y2743967D01*
X48317118Y2646063D01*
X48263303Y2528226D01*
X48263303Y2528224D01*
X48244867Y2400000D01*
X36843161Y2400000D01*
X36956760Y2414955D01*
X37102839Y2475463D01*
X37102842Y2475465D01*
X37171599Y2528224D01*
X37228282Y2571718D01*
X37324536Y2697159D01*
X37385044Y2843238D01*
X37395363Y2921619D01*
X37405682Y2999999D01*
X37405682Y3000000D01*
X37390116Y3118238D01*
X37385044Y3156762D01*
X37336068Y3275000D01*
X67894318Y3275000D01*
X67894318Y3274999D01*
X67914955Y3118239D01*
X67975463Y2972160D01*
X67975465Y2972157D01*
X68071718Y2846718D01*
X68197157Y2750465D01*
X68197160Y2750463D01*
X68343239Y2689955D01*
X68500000Y2669318D01*
X68656760Y2689955D01*
X68802839Y2750463D01*
X68802842Y2750465D01*
X68928282Y2846718D01*
X69024536Y2972159D01*
X69085044Y3118238D01*
X69105682Y3275000D01*
X69085044Y3431762D01*
X69024536Y3577841D01*
X68928282Y3703282D01*
X68802841Y3799536D01*
X68656762Y3860044D01*
X68500000Y3880682D01*
X68343238Y3860044D01*
X68197159Y3799536D01*
X68071718Y3703282D01*
X67980991Y3585044D01*
X67975465Y3577842D01*
X67975463Y3577839D01*
X67914955Y3431760D01*
X67894318Y3275000D01*
X37336068Y3275000D01*
X37324536Y3302841D01*
X37228282Y3428282D01*
X37102841Y3524536D01*
X36956762Y3585044D01*
X36800000Y3605682D01*
X36643238Y3585044D01*
X36497159Y3524536D01*
X36371718Y3428282D01*
X36345657Y3394318D01*
X36275465Y3302842D01*
X36275463Y3302839D01*
X36214955Y3156760D01*
X36194318Y3000000D01*
X23355682Y3000000D01*
X23340116Y3118238D01*
X23335044Y3156762D01*
X23274536Y3302841D01*
X23178282Y3428282D01*
X23052841Y3524536D01*
X22906762Y3585044D01*
X22750000Y3605682D01*
X22593238Y3585044D01*
X22447159Y3524536D01*
X22321718Y3428282D01*
X22295657Y3394318D01*
X22225465Y3302842D01*
X22225463Y3302839D01*
X22164955Y3156760D01*
X22144318Y3000000D01*
X3625000Y3000000D01*
X3625000Y4800000D01*
X24394318Y4800000D01*
X24394318Y4799999D01*
X24414955Y4643239D01*
X24475463Y4497160D01*
X24475465Y4497157D01*
X24571718Y4371718D01*
X24697157Y4275465D01*
X24697160Y4275463D01*
X24843239Y4214955D01*
X25000000Y4194318D01*
X25156760Y4214955D01*
X25302839Y4275463D01*
X25302842Y4275465D01*
X25428282Y4371718D01*
X25449983Y4400000D01*
X35594318Y4400000D01*
X35594318Y4399999D01*
X35614955Y4243239D01*
X35675463Y4097160D01*
X35675465Y4097157D01*
X35771718Y3971718D01*
X35897157Y3875465D01*
X35897160Y3875463D01*
X36043239Y3814955D01*
X36200000Y3794318D01*
X36356760Y3814955D01*
X36502839Y3875463D01*
X36502842Y3875465D01*
X36509641Y3880682D01*
X36628282Y3971718D01*
X36724536Y4097159D01*
X36785044Y4243238D01*
X36799096Y4349974D01*
X36827818Y4414901D01*
X36887084Y4453993D01*
X36958075Y4454838D01*
X37018254Y4417168D01*
X37040425Y4381749D01*
X37075464Y4297159D01*
X37075465Y4297158D01*
X37075465Y4297157D01*
X37171718Y4171718D01*
X37297157Y4075465D01*
X37297160Y4075463D01*
X37443239Y4014955D01*
X37600000Y3994318D01*
X37756760Y4014955D01*
X37902839Y4075463D01*
X37902842Y4075465D01*
X38028282Y4171718D01*
X38049983Y4200000D01*
X39194318Y4200000D01*
X39194318Y4199999D01*
X39214955Y4043239D01*
X39275463Y3897160D01*
X39275465Y3897157D01*
X39371718Y3771718D01*
X39497157Y3675465D01*
X39497160Y3675463D01*
X39643239Y3614955D01*
X39800000Y3594318D01*
X39956760Y3614955D01*
X40102839Y3675463D01*
X40102842Y3675465D01*
X40228282Y3771718D01*
X40324536Y3897159D01*
X40385044Y4043238D01*
X40405682Y4200000D01*
X40385044Y4356762D01*
X40324536Y4502841D01*
X40249983Y4600000D01*
X43394318Y4600000D01*
X43394318Y4599999D01*
X43414955Y4443239D01*
X43475463Y4297160D01*
X43475465Y4297157D01*
X43571718Y4171718D01*
X43697157Y4075465D01*
X43697160Y4075463D01*
X43843239Y4014955D01*
X44000000Y3994318D01*
X44156760Y4014955D01*
X44302839Y4075463D01*
X44302842Y4075465D01*
X44312097Y4082566D01*
X44396792Y4147555D01*
X44463013Y4173155D01*
X44532562Y4158890D01*
X44583357Y4109289D01*
X44599273Y4040099D01*
X44598418Y4031147D01*
X44594318Y4000001D01*
X44594318Y3999999D01*
X44614955Y3843239D01*
X44675463Y3697160D01*
X44675465Y3697157D01*
X44771718Y3571718D01*
X44897157Y3475465D01*
X44897160Y3475463D01*
X45043239Y3414955D01*
X45200000Y3394318D01*
X45356760Y3414955D01*
X45502839Y3475463D01*
X45502842Y3475465D01*
X45566790Y3524534D01*
X45628282Y3571718D01*
X45724536Y3697159D01*
X45783591Y3839731D01*
X45828140Y3895012D01*
X45895503Y3917433D01*
X45964294Y3899875D01*
X46012672Y3847913D01*
X46016409Y3839731D01*
X46075463Y3697160D01*
X46075465Y3697157D01*
X46171718Y3571718D01*
X46297157Y3475465D01*
X46297160Y3475463D01*
X46443239Y3414955D01*
X46600000Y3394318D01*
X46756760Y3414955D01*
X46902839Y3475463D01*
X46902842Y3475465D01*
X46966790Y3524534D01*
X47028282Y3571718D01*
X47124536Y3697159D01*
X47185044Y3843238D01*
X47199096Y3949974D01*
X47227818Y4014901D01*
X47287084Y4053993D01*
X47358075Y4054838D01*
X47418254Y4017168D01*
X47440425Y3981749D01*
X47475464Y3897159D01*
X47475465Y3897158D01*
X47475465Y3897157D01*
X47571718Y3771718D01*
X47697157Y3675465D01*
X47697160Y3675463D01*
X47843239Y3614955D01*
X48000000Y3594318D01*
X48156760Y3614955D01*
X48302839Y3675463D01*
X48302842Y3675465D01*
X48428282Y3771718D01*
X48524536Y3897159D01*
X48585044Y4043238D01*
X48605682Y4200000D01*
X48585044Y4356762D01*
X48524536Y4502841D01*
X48428282Y4628282D01*
X48302841Y4724536D01*
X48156762Y4785044D01*
X48000000Y4805682D01*
X47843238Y4785044D01*
X47697159Y4724536D01*
X47571718Y4628282D01*
X47492111Y4524536D01*
X47475465Y4502842D01*
X47475463Y4502839D01*
X47414955Y4356760D01*
X47400903Y4250024D01*
X47372180Y4185097D01*
X47312915Y4146006D01*
X47241923Y4145161D01*
X47181745Y4182832D01*
X47159575Y4218248D01*
X47124536Y4302841D01*
X47028282Y4428282D01*
X46902841Y4524536D01*
X46756762Y4585044D01*
X46600000Y4605682D01*
X46443238Y4585044D01*
X46297159Y4524536D01*
X46171718Y4428282D01*
X46075465Y4302842D01*
X46075463Y4302839D01*
X46064643Y4276719D01*
X46016407Y4160266D01*
X45971861Y4104987D01*
X45904497Y4082566D01*
X45835706Y4100124D01*
X45787328Y4152086D01*
X45783599Y4160250D01*
X45724536Y4302841D01*
X45628282Y4428282D01*
X45502841Y4524536D01*
X45356762Y4585044D01*
X45200000Y4605682D01*
X45043238Y4585044D01*
X44897159Y4524536D01*
X44803207Y4452444D01*
X44736986Y4426844D01*
X44667438Y4441109D01*
X44616642Y4490710D01*
X44600726Y4559900D01*
X44601579Y4568835D01*
X44605682Y4600000D01*
X44585044Y4756762D01*
X44524536Y4902841D01*
X44428282Y5028282D01*
X44302841Y5124536D01*
X44156762Y5185044D01*
X44043159Y5200000D01*
X50194318Y5200000D01*
X50194318Y5199999D01*
X50214955Y5043239D01*
X50275463Y4897160D01*
X50275465Y4897157D01*
X50371718Y4771718D01*
X50497157Y4675465D01*
X50497160Y4675463D01*
X50643239Y4614955D01*
X50800000Y4594318D01*
X50956760Y4614955D01*
X51102839Y4675463D01*
X51102842Y4675465D01*
X51138514Y4702837D01*
X51228282Y4771718D01*
X51324536Y4897159D01*
X51385044Y5043238D01*
X51405682Y5200000D01*
X51385044Y5356762D01*
X51324536Y5502841D01*
X51228282Y5628282D01*
X51102841Y5724536D01*
X50956762Y5785044D01*
X50800000Y5805682D01*
X50643238Y5785044D01*
X50497159Y5724536D01*
X50371718Y5628282D01*
X50275465Y5502842D01*
X50275463Y5502839D01*
X50214955Y5356760D01*
X50194318Y5200000D01*
X44043159Y5200000D01*
X44000000Y5205682D01*
X43843238Y5185044D01*
X43697159Y5124536D01*
X43571718Y5028282D01*
X43492111Y4924536D01*
X43475465Y4902842D01*
X43475463Y4902839D01*
X43414955Y4756760D01*
X43394318Y4600000D01*
X40249983Y4600000D01*
X40228282Y4628282D01*
X40102841Y4724536D01*
X39956762Y4785044D01*
X39800000Y4805682D01*
X39643238Y4785044D01*
X39497159Y4724536D01*
X39371718Y4628282D01*
X39292111Y4524536D01*
X39275465Y4502842D01*
X39275463Y4502839D01*
X39214955Y4356760D01*
X39194318Y4200000D01*
X38049983Y4200000D01*
X38124536Y4297159D01*
X38185044Y4443238D01*
X38205682Y4600000D01*
X38185044Y4756762D01*
X38124536Y4902841D01*
X38028282Y5028282D01*
X37902841Y5124536D01*
X37756762Y5185044D01*
X37600000Y5205682D01*
X37443238Y5185044D01*
X37297159Y5124536D01*
X37171718Y5028282D01*
X37092111Y4924536D01*
X37075465Y4902842D01*
X37075463Y4902839D01*
X37014955Y4756760D01*
X37000903Y4650024D01*
X36972180Y4585097D01*
X36912915Y4546006D01*
X36841923Y4545161D01*
X36781745Y4582832D01*
X36759575Y4618248D01*
X36724536Y4702841D01*
X36628282Y4828282D01*
X36502841Y4924536D01*
X36356762Y4985044D01*
X36200000Y5005682D01*
X36043238Y4985044D01*
X35897159Y4924536D01*
X35771718Y4828282D01*
X35692111Y4724536D01*
X35675465Y4702842D01*
X35675463Y4702839D01*
X35614955Y4556760D01*
X35594318Y4400000D01*
X25449983Y4400000D01*
X25524536Y4497159D01*
X25585044Y4643238D01*
X25605682Y4800000D01*
X25585044Y4956762D01*
X25524536Y5102841D01*
X25428282Y5228282D01*
X25302841Y5324536D01*
X25156762Y5385044D01*
X25000000Y5405682D01*
X24843238Y5385044D01*
X24697159Y5324536D01*
X24571718Y5228282D01*
X24492111Y5124536D01*
X24475465Y5102842D01*
X24475463Y5102839D01*
X24414955Y4956760D01*
X24394318Y4800000D01*
X3625000Y4800000D01*
X3625000Y5800000D01*
X22144318Y5800000D01*
X22144318Y5799999D01*
X22164955Y5643239D01*
X22225463Y5497160D01*
X22225465Y5497157D01*
X22321718Y5371718D01*
X22447157Y5275465D01*
X22447160Y5275463D01*
X22593239Y5214955D01*
X22750000Y5194318D01*
X22906760Y5214955D01*
X23052839Y5275463D01*
X23052842Y5275465D01*
X23116790Y5324534D01*
X23178282Y5371718D01*
X23274536Y5497159D01*
X23335044Y5643238D01*
X23355682Y5800000D01*
X23335044Y5956762D01*
X23274536Y6102841D01*
X23178282Y6228282D01*
X23052841Y6324536D01*
X22906762Y6385044D01*
X22750000Y6405682D01*
X22593238Y6385044D01*
X22447159Y6324536D01*
X22321718Y6228282D01*
X22225465Y6102842D01*
X22225463Y6102839D01*
X22164955Y5956760D01*
X22144318Y5800000D01*
X3625000Y5800000D01*
X3625000Y7200000D01*
X28594318Y7200000D01*
X28594318Y7199999D01*
X28614955Y7043239D01*
X28675463Y6897160D01*
X28675465Y6897157D01*
X28771718Y6771718D01*
X28897157Y6675465D01*
X28897160Y6675463D01*
X28982731Y6640018D01*
X29043238Y6614956D01*
X29052878Y6613686D01*
X29073657Y6610951D01*
X29138584Y6582227D01*
X29177675Y6522962D01*
X29178518Y6451970D01*
X29157172Y6409325D01*
X29138541Y6385044D01*
X29075465Y6302842D01*
X29075463Y6302839D01*
X29014955Y6156760D01*
X28994318Y6000000D01*
X28994318Y5999999D01*
X29014955Y5843239D01*
X29075463Y5697160D01*
X29075465Y5697157D01*
X29171718Y5571718D01*
X29297157Y5475465D01*
X29297160Y5475463D01*
X29443239Y5414955D01*
X29600000Y5394318D01*
X29756760Y5414955D01*
X29902839Y5475463D01*
X29902842Y5475465D01*
X30028282Y5571718D01*
X30124536Y5697159D01*
X30185044Y5843238D01*
X30205682Y6000000D01*
X30185044Y6156762D01*
X30124536Y6302841D01*
X30049983Y6400000D01*
X58594318Y6400000D01*
X58594318Y6399999D01*
X58614955Y6243239D01*
X58675463Y6097160D01*
X58675465Y6097157D01*
X58771718Y5971718D01*
X58897157Y5875465D01*
X58897160Y5875463D01*
X59043239Y5814955D01*
X59200000Y5794318D01*
X59356760Y5814955D01*
X59502839Y5875463D01*
X59502842Y5875465D01*
X59628282Y5971718D01*
X59724536Y6097159D01*
X59785044Y6243238D01*
X59805682Y6400000D01*
X59785044Y6556762D01*
X59724536Y6702841D01*
X59628282Y6828282D01*
X59502841Y6924536D01*
X59356762Y6985044D01*
X59200000Y7005682D01*
X59043238Y6985044D01*
X58897159Y6924536D01*
X58771718Y6828282D01*
X58710135Y6748025D01*
X58675465Y6702842D01*
X58675463Y6702839D01*
X58614955Y6556760D01*
X58594318Y6400000D01*
X30049983Y6400000D01*
X30028282Y6428282D01*
X29902841Y6524536D01*
X29756762Y6585044D01*
X29726344Y6589048D01*
X29661418Y6617769D01*
X29622325Y6677034D01*
X29621480Y6748025D01*
X29642827Y6790674D01*
X29724534Y6897157D01*
X29724536Y6897159D01*
X29785044Y7043238D01*
X29805682Y7200000D01*
X29785044Y7356762D01*
X29724536Y7502841D01*
X29628282Y7628282D01*
X29534817Y7700000D01*
X50644318Y7700000D01*
X50644318Y7699999D01*
X50664955Y7543239D01*
X50725463Y7397160D01*
X50725465Y7397157D01*
X50821718Y7271718D01*
X50947157Y7175465D01*
X50947160Y7175463D01*
X51093239Y7114955D01*
X51250000Y7094318D01*
X51406760Y7114955D01*
X51552839Y7175463D01*
X51552842Y7175465D01*
X51584817Y7200000D01*
X68394318Y7200000D01*
X68394318Y7199999D01*
X68414955Y7043239D01*
X68475463Y6897160D01*
X68475465Y6897157D01*
X68571718Y6771718D01*
X68697157Y6675465D01*
X68697160Y6675463D01*
X68843239Y6614955D01*
X69000000Y6594318D01*
X69156760Y6614955D01*
X69302839Y6675463D01*
X69302842Y6675465D01*
X69304887Y6677034D01*
X69428282Y6771718D01*
X69524536Y6897159D01*
X69585044Y7043238D01*
X69605682Y7200000D01*
X69585044Y7356762D01*
X69524536Y7502841D01*
X69428282Y7628282D01*
X69302841Y7724536D01*
X69156762Y7785044D01*
X69000000Y7805682D01*
X68843238Y7785044D01*
X68697159Y7724536D01*
X68571718Y7628282D01*
X68506462Y7543238D01*
X68475465Y7502842D01*
X68475463Y7502839D01*
X68414955Y7356760D01*
X68394318Y7200000D01*
X51584817Y7200000D01*
X51678282Y7271718D01*
X51774536Y7397159D01*
X51835044Y7543238D01*
X51855682Y7700000D01*
X51835934Y7850000D01*
X53844318Y7850000D01*
X53844318Y7849999D01*
X53864955Y7693239D01*
X53925463Y7547160D01*
X53925465Y7547157D01*
X54021718Y7421718D01*
X54147157Y7325465D01*
X54147160Y7325463D01*
X54293239Y7264955D01*
X54450000Y7244318D01*
X54606760Y7264955D01*
X54752839Y7325463D01*
X54752842Y7325465D01*
X54878282Y7421718D01*
X54974536Y7547159D01*
X55035044Y7693238D01*
X55048351Y7794318D01*
X55055682Y7849999D01*
X55055682Y7850000D01*
X55048753Y7902630D01*
X55035044Y8006762D01*
X54974536Y8152841D01*
X54878282Y8278282D01*
X54752841Y8374536D01*
X54606762Y8435044D01*
X54450000Y8455682D01*
X54293238Y8435044D01*
X54147159Y8374536D01*
X54021718Y8278282D01*
X53980476Y8224534D01*
X53925465Y8152842D01*
X53925463Y8152839D01*
X53864955Y8006760D01*
X53844318Y7850000D01*
X51835934Y7850000D01*
X51835044Y7856762D01*
X51774536Y8002841D01*
X51678282Y8128282D01*
X51552841Y8224536D01*
X51406762Y8285044D01*
X51250000Y8305682D01*
X51093238Y8285044D01*
X50947159Y8224536D01*
X50821718Y8128282D01*
X50728473Y8006762D01*
X50725465Y8002842D01*
X50725463Y8002839D01*
X50664955Y7856760D01*
X50644318Y7700000D01*
X29534817Y7700000D01*
X29502841Y7724536D01*
X29356762Y7785044D01*
X29200000Y7805682D01*
X29043238Y7785044D01*
X28897159Y7724536D01*
X28771718Y7628282D01*
X28706462Y7543238D01*
X28675465Y7502842D01*
X28675463Y7502839D01*
X28614955Y7356760D01*
X28594318Y7200000D01*
X3625000Y7200000D01*
X3625000Y8400000D01*
X22144318Y8400000D01*
X22144318Y8399999D01*
X22164955Y8243239D01*
X22225463Y8097160D01*
X22225465Y8097157D01*
X22321718Y7971718D01*
X22447157Y7875465D01*
X22447160Y7875463D01*
X22593239Y7814955D01*
X22750000Y7794318D01*
X22906760Y7814955D01*
X23052839Y7875463D01*
X23052842Y7875465D01*
X23178282Y7971718D01*
X23274536Y8097159D01*
X23335044Y8243238D01*
X23355682Y8400000D01*
X23335044Y8556762D01*
X23317134Y8600000D01*
X23794318Y8600000D01*
X23794318Y8599999D01*
X23814955Y8443239D01*
X23875463Y8297160D01*
X23875465Y8297157D01*
X23971718Y8171718D01*
X24097157Y8075465D01*
X24097160Y8075463D01*
X24243239Y8014955D01*
X24400000Y7994318D01*
X24556760Y8014955D01*
X24702839Y8075463D01*
X24702842Y8075465D01*
X24828282Y8171718D01*
X24924536Y8297159D01*
X24967134Y8400000D01*
X27194318Y8400000D01*
X27194318Y8399999D01*
X27214955Y8243239D01*
X27275463Y8097160D01*
X27275465Y8097157D01*
X27371718Y7971718D01*
X27497157Y7875465D01*
X27497160Y7875463D01*
X27643239Y7814955D01*
X27800000Y7794318D01*
X27956760Y7814955D01*
X28102839Y7875463D01*
X28102842Y7875465D01*
X28228282Y7971718D01*
X28324536Y8097159D01*
X28385044Y8243238D01*
X28405682Y8400000D01*
X28385044Y8556762D01*
X28324536Y8702841D01*
X28228282Y8828282D01*
X28102841Y8924536D01*
X27956762Y8985044D01*
X27843159Y9000000D01*
X35994318Y9000000D01*
X35994318Y8999999D01*
X36014955Y8843239D01*
X36075463Y8697160D01*
X36075465Y8697157D01*
X36171718Y8571718D01*
X36297157Y8475465D01*
X36297160Y8475463D01*
X36443239Y8414955D01*
X36600000Y8394318D01*
X36756760Y8414955D01*
X36786238Y8427165D01*
X46951405Y8427165D01*
X46951405Y8427164D01*
X46972042Y8270404D01*
X47032550Y8124325D01*
X47032552Y8124322D01*
X47128805Y7998883D01*
X47254244Y7902630D01*
X47254247Y7902628D01*
X47400326Y7842120D01*
X47557087Y7821483D01*
X47713847Y7842120D01*
X47859926Y7902628D01*
X47859929Y7902630D01*
X47985369Y7998883D01*
X48081623Y8124324D01*
X48142131Y8270403D01*
X48162769Y8427165D01*
X48142131Y8583927D01*
X48081623Y8730006D01*
X47985369Y8855447D01*
X47859928Y8951701D01*
X47713849Y9012209D01*
X47557087Y9032847D01*
X47400325Y9012209D01*
X47254246Y8951701D01*
X47128805Y8855447D01*
X47103261Y8822157D01*
X47032552Y8730007D01*
X47032550Y8730004D01*
X46972042Y8583925D01*
X46951405Y8427165D01*
X36786238Y8427165D01*
X36902839Y8475463D01*
X36902842Y8475465D01*
X37028282Y8571718D01*
X37124536Y8697159D01*
X37185044Y8843238D01*
X37199323Y8951701D01*
X37205682Y8999999D01*
X37205682Y9000000D01*
X37189287Y9124534D01*
X37185044Y9156762D01*
X37124536Y9302841D01*
X37028282Y9428282D01*
X36902841Y9524536D01*
X36756762Y9585044D01*
X36600000Y9605682D01*
X36443238Y9585044D01*
X36297159Y9524536D01*
X36171718Y9428282D01*
X36075465Y9302842D01*
X36075463Y9302839D01*
X36014955Y9156760D01*
X35994318Y9000000D01*
X27843159Y9000000D01*
X27800000Y9005682D01*
X27643238Y8985044D01*
X27497159Y8924536D01*
X27371718Y8828282D01*
X27296307Y8730004D01*
X27275465Y8702842D01*
X27275463Y8702839D01*
X27214955Y8556760D01*
X27194318Y8400000D01*
X24967134Y8400000D01*
X24985044Y8443238D01*
X25005682Y8600000D01*
X24985044Y8756762D01*
X24924536Y8902841D01*
X24828282Y9028282D01*
X24702841Y9124536D01*
X24556762Y9185044D01*
X24400000Y9205682D01*
X24243238Y9185044D01*
X24097159Y9124536D01*
X23971718Y9028282D01*
X23912954Y8951699D01*
X23875465Y8902842D01*
X23875463Y8902839D01*
X23814955Y8756760D01*
X23794318Y8600000D01*
X23317134Y8600000D01*
X23274536Y8702841D01*
X23178282Y8828282D01*
X23052841Y8924536D01*
X22906762Y8985044D01*
X22750000Y9005682D01*
X22593238Y8985044D01*
X22447159Y8924536D01*
X22321718Y8828282D01*
X22246307Y8730004D01*
X22225465Y8702842D01*
X22225463Y8702839D01*
X22164955Y8556760D01*
X22144318Y8400000D01*
X3625000Y8400000D01*
X3625000Y10124985D01*
X55244318Y10124985D01*
X55244318Y10124984D01*
X55264955Y9968224D01*
X55325463Y9822145D01*
X55325465Y9822142D01*
X55421718Y9696703D01*
X55547157Y9600450D01*
X55547166Y9600445D01*
X55556744Y9596478D01*
X55612024Y9551929D01*
X55634443Y9484565D01*
X55624932Y9431853D01*
X55567078Y9292181D01*
X55546441Y9135421D01*
X55546441Y9135420D01*
X55567078Y8978660D01*
X55627586Y8832581D01*
X55627588Y8832578D01*
X55723841Y8707139D01*
X55849280Y8610886D01*
X55849283Y8610884D01*
X55995362Y8550376D01*
X56152123Y8529739D01*
X56308883Y8550376D01*
X56454962Y8610884D01*
X56454965Y8610886D01*
X56580405Y8707139D01*
X56676659Y8832580D01*
X56737167Y8978659D01*
X56757805Y9135421D01*
X56737167Y9292183D01*
X56676659Y9438262D01*
X56580405Y9563703D01*
X56454964Y9659957D01*
X56445382Y9663925D01*
X56390103Y9708469D01*
X56367679Y9775831D01*
X56377190Y9828552D01*
X56435044Y9968223D01*
X56455682Y10124985D01*
X56452389Y10150000D01*
X57294318Y10150000D01*
X57294318Y10149999D01*
X57314955Y9993239D01*
X57375463Y9847160D01*
X57375465Y9847157D01*
X57394660Y9822142D01*
X57444829Y9756760D01*
X57476746Y9715166D01*
X57474171Y9713190D01*
X57500879Y9664218D01*
X57495778Y9593405D01*
X57475034Y9561147D01*
X57476747Y9559834D01*
X57471720Y9553282D01*
X57471719Y9553282D01*
X57375803Y9428281D01*
X57375466Y9427842D01*
X57375464Y9427839D01*
X57314956Y9281760D01*
X57294319Y9125000D01*
X57294319Y9124999D01*
X57314956Y8968239D01*
X57375464Y8822160D01*
X57375466Y8822157D01*
X57471719Y8696718D01*
X57597158Y8600465D01*
X57597161Y8600463D01*
X57743240Y8539955D01*
X57900001Y8519318D01*
X58056761Y8539955D01*
X58202840Y8600463D01*
X58202843Y8600465D01*
X58328283Y8696718D01*
X58424537Y8822159D01*
X58485045Y8968238D01*
X58499161Y9075463D01*
X58505683Y9124999D01*
X58505683Y9125000D01*
X58485045Y9281760D01*
X58485045Y9281762D01*
X58424537Y9427841D01*
X58328283Y9553282D01*
X58328281Y9553282D01*
X58323255Y9559834D01*
X58325845Y9561821D01*
X58304972Y9600000D01*
X68669318Y9600000D01*
X68669318Y9599999D01*
X68689955Y9443239D01*
X68750463Y9297160D01*
X68750465Y9297157D01*
X68846718Y9171718D01*
X68972157Y9075465D01*
X68972160Y9075463D01*
X69118239Y9014955D01*
X69275000Y8994318D01*
X69431760Y9014955D01*
X69577839Y9075463D01*
X69577842Y9075465D01*
X69641790Y9124534D01*
X69703282Y9171718D01*
X69799536Y9297159D01*
X69860044Y9443238D01*
X69874353Y9551929D01*
X69880682Y9599999D01*
X69880682Y9600000D01*
X69879934Y9605682D01*
X69860044Y9756762D01*
X69799536Y9902841D01*
X69703282Y10028282D01*
X69577841Y10124536D01*
X69431762Y10185044D01*
X69275000Y10205682D01*
X69118238Y10185044D01*
X68972159Y10124536D01*
X68846718Y10028282D01*
X68750465Y9902842D01*
X68750463Y9902839D01*
X68689955Y9756760D01*
X68669318Y9600000D01*
X58304972Y9600000D01*
X58299148Y9610653D01*
X58304176Y9681471D01*
X58324972Y9713847D01*
X58323254Y9715166D01*
X58355171Y9756760D01*
X58424536Y9847159D01*
X58485044Y9993238D01*
X58505682Y10150000D01*
X58485044Y10306762D01*
X58424536Y10452841D01*
X58328282Y10578282D01*
X58202841Y10674536D01*
X58056762Y10735044D01*
X57900000Y10755682D01*
X57743238Y10735044D01*
X57597159Y10674536D01*
X57471718Y10578282D01*
X57386383Y10467071D01*
X57375465Y10452842D01*
X57375463Y10452839D01*
X57314955Y10306760D01*
X57294318Y10150000D01*
X56452389Y10150000D01*
X56435044Y10281747D01*
X56374536Y10427826D01*
X56278282Y10553267D01*
X56152841Y10649521D01*
X56006762Y10710029D01*
X55850000Y10730667D01*
X55693238Y10710029D01*
X55547159Y10649521D01*
X55421718Y10553267D01*
X55344659Y10452841D01*
X55325465Y10427827D01*
X55325463Y10427824D01*
X55264955Y10281745D01*
X55244318Y10124985D01*
X3625000Y10124985D01*
X3625000Y11000000D01*
X22144318Y11000000D01*
X22144318Y10999999D01*
X22164955Y10843239D01*
X22225463Y10697160D01*
X22225465Y10697157D01*
X22321718Y10571718D01*
X22447157Y10475465D01*
X22447160Y10475463D01*
X22593239Y10414955D01*
X22750000Y10394318D01*
X22906760Y10414955D01*
X23052839Y10475463D01*
X23052842Y10475465D01*
X23178282Y10571718D01*
X23274536Y10697159D01*
X23335044Y10843238D01*
X23355682Y11000000D01*
X23335044Y11156762D01*
X23274536Y11302841D01*
X23178282Y11428282D01*
X23052841Y11524536D01*
X23051757Y11524985D01*
X58543207Y11524985D01*
X58543207Y11524984D01*
X58563844Y11368224D01*
X58624352Y11222145D01*
X58624354Y11222142D01*
X58720607Y11096703D01*
X58846046Y11000450D01*
X58846049Y11000448D01*
X58992128Y10939940D01*
X59148889Y10919303D01*
X59148891Y10919303D01*
X59276650Y10936122D01*
X59346798Y10925182D01*
X59399896Y10878054D01*
X59411741Y10850844D01*
X59411796Y10850867D01*
X59413059Y10847817D01*
X59414799Y10843821D01*
X59414953Y10843243D01*
X59475463Y10697160D01*
X59475465Y10697157D01*
X59571718Y10571718D01*
X59697157Y10475465D01*
X59697160Y10475463D01*
X59843239Y10414955D01*
X60000000Y10394318D01*
X60156760Y10414955D01*
X60302839Y10475463D01*
X60302842Y10475465D01*
X60428282Y10571718D01*
X60524536Y10697159D01*
X60567134Y10800000D01*
X61794318Y10800000D01*
X61794318Y10799999D01*
X61814955Y10643239D01*
X61875463Y10497160D01*
X61875465Y10497157D01*
X61971718Y10371718D01*
X62097157Y10275465D01*
X62097160Y10275463D01*
X62243239Y10214955D01*
X62400000Y10194318D01*
X62556760Y10214955D01*
X62702839Y10275463D01*
X62702842Y10275465D01*
X62828282Y10371718D01*
X62845624Y10394318D01*
X62869324Y10425204D01*
X62926662Y10467071D01*
X62969286Y10474500D01*
X66242851Y10474500D01*
X66242853Y10474500D01*
X66325639Y10496682D01*
X66325641Y10496683D01*
X66325643Y10496684D01*
X66399858Y10539532D01*
X66399864Y10539537D01*
X66616009Y10755682D01*
X67395460Y11535134D01*
X67395483Y11535155D01*
X67460459Y11600131D01*
X67460462Y11600135D01*
X67460465Y11600138D01*
X67503318Y11674362D01*
X67505297Y11681747D01*
X67525501Y11757148D01*
X67525501Y11842853D01*
X67525501Y11853003D01*
X67525500Y11853016D01*
X67525500Y12892348D01*
X67545502Y12960469D01*
X67574796Y12992311D01*
X67678282Y13071718D01*
X67774536Y13197159D01*
X67835044Y13343238D01*
X67855682Y13500000D01*
X67835044Y13656762D01*
X67774536Y13802841D01*
X67678282Y13928282D01*
X67552841Y14024536D01*
X67406762Y14085044D01*
X67250000Y14105682D01*
X67093238Y14085044D01*
X66947159Y14024536D01*
X66821718Y13928282D01*
X66744986Y13828282D01*
X66725465Y13802842D01*
X66725463Y13802839D01*
X66664955Y13656760D01*
X66644318Y13500000D01*
X66644318Y13499999D01*
X66664955Y13343239D01*
X66725463Y13197160D01*
X66725465Y13197157D01*
X66821718Y13071717D01*
X66825208Y13069040D01*
X66827407Y13066027D01*
X66827557Y13065878D01*
X66827533Y13065854D01*
X66867073Y13011700D01*
X66874500Y12969080D01*
X66874500Y11987017D01*
X66854498Y11918896D01*
X66837595Y11897921D01*
X66102077Y11162404D01*
X66039765Y11128379D01*
X66012982Y11125500D01*
X62969286Y11125500D01*
X62901165Y11145502D01*
X62869324Y11174796D01*
X62828284Y11228279D01*
X62828282Y11228282D01*
X62702841Y11324536D01*
X62556762Y11385044D01*
X62400000Y11405682D01*
X62243238Y11385044D01*
X62097159Y11324536D01*
X61971718Y11228282D01*
X61908199Y11145502D01*
X61875465Y11102842D01*
X61875463Y11102839D01*
X61814955Y10956760D01*
X61794318Y10800000D01*
X60567134Y10800000D01*
X60585044Y10843238D01*
X60605682Y11000000D01*
X60585044Y11156762D01*
X60524536Y11302841D01*
X60428282Y11428282D01*
X60302841Y11524536D01*
X60156762Y11585044D01*
X60000000Y11605682D01*
X59872239Y11588862D01*
X59802091Y11599801D01*
X59748992Y11646929D01*
X59737148Y11674139D01*
X59737093Y11674117D01*
X59735804Y11677227D01*
X59734086Y11681176D01*
X59733933Y11681746D01*
X59702702Y11757144D01*
X59673425Y11827826D01*
X59577171Y11953267D01*
X59451730Y12049521D01*
X59305651Y12110029D01*
X59148889Y12130667D01*
X58992127Y12110029D01*
X58846048Y12049521D01*
X58720607Y11953267D01*
X58624353Y11827826D01*
X58563845Y11681747D01*
X58559261Y11646929D01*
X58543207Y11524985D01*
X23051757Y11524985D01*
X22906762Y11585044D01*
X22750000Y11605682D01*
X22593238Y11585044D01*
X22447159Y11524536D01*
X22321718Y11428282D01*
X22242111Y11324536D01*
X22225465Y11302842D01*
X22225463Y11302839D01*
X22164955Y11156760D01*
X22144318Y11000000D01*
X3625000Y11000000D01*
X3625000Y13400000D01*
X58794318Y13400000D01*
X58794318Y13399999D01*
X58814955Y13243239D01*
X58875463Y13097160D01*
X58875465Y13097157D01*
X58971718Y12971718D01*
X59097157Y12875465D01*
X59097160Y12875463D01*
X59243239Y12814955D01*
X59400000Y12794318D01*
X59556760Y12814955D01*
X59702839Y12875463D01*
X59702842Y12875465D01*
X59828282Y12971718D01*
X59924536Y13097159D01*
X59985044Y13243238D01*
X60005682Y13400000D01*
X59985044Y13556762D01*
X59924536Y13702841D01*
X59828282Y13828282D01*
X59702841Y13924536D01*
X59556762Y13985044D01*
X59400000Y14005682D01*
X59243238Y13985044D01*
X59097159Y13924536D01*
X58971718Y13828282D01*
X58875465Y13702842D01*
X58875463Y13702839D01*
X58814955Y13556760D01*
X58794318Y13400000D01*
X3625000Y13400000D01*
X3625000Y14100000D01*
X52069318Y14100000D01*
X52069318Y14099999D01*
X52089955Y13943239D01*
X52150463Y13797160D01*
X52150465Y13797157D01*
X52246718Y13671718D01*
X52372157Y13575465D01*
X52372160Y13575463D01*
X52518239Y13514955D01*
X52675000Y13494318D01*
X52831760Y13514955D01*
X52977839Y13575463D01*
X52977842Y13575465D01*
X53103282Y13671718D01*
X53199536Y13797159D01*
X53260044Y13943238D01*
X53280682Y14100000D01*
X53260044Y14256762D01*
X53199536Y14402841D01*
X53103282Y14528282D01*
X52977841Y14624536D01*
X52831762Y14685044D01*
X52675000Y14705682D01*
X52518238Y14685044D01*
X52372159Y14624536D01*
X52246718Y14528282D01*
X52156167Y14410273D01*
X52150465Y14402842D01*
X52150463Y14402839D01*
X52089955Y14256760D01*
X52069318Y14100000D01*
X3625000Y14100000D01*
X3625000Y15000000D01*
X56069318Y15000000D01*
X56069318Y14999999D01*
X56089955Y14843239D01*
X56150463Y14697160D01*
X56150465Y14697157D01*
X56246718Y14571718D01*
X56372157Y14475465D01*
X56372160Y14475463D01*
X56518239Y14414955D01*
X56675000Y14394318D01*
X56831760Y14414955D01*
X56977839Y14475463D01*
X56977842Y14475465D01*
X57103282Y14571718D01*
X57199536Y14697159D01*
X57258104Y14838555D01*
X58119318Y14838555D01*
X58119318Y14838554D01*
X58139955Y14681794D01*
X58200463Y14535715D01*
X58200465Y14535712D01*
X58296718Y14410273D01*
X58422157Y14314020D01*
X58422160Y14314018D01*
X58568239Y14253510D01*
X58725000Y14232873D01*
X58881760Y14253510D01*
X59027839Y14314018D01*
X59027842Y14314020D01*
X59153282Y14410273D01*
X59249536Y14535714D01*
X59310044Y14681793D01*
X59324290Y14790000D01*
X68054318Y14790000D01*
X68054318Y14789999D01*
X68074955Y14633239D01*
X68135463Y14487160D01*
X68135465Y14487157D01*
X68231718Y14361718D01*
X68357157Y14265465D01*
X68357160Y14265463D01*
X68503239Y14204955D01*
X68660000Y14184318D01*
X68816760Y14204955D01*
X68962839Y14265463D01*
X68962842Y14265465D01*
X69088282Y14361718D01*
X69184536Y14487159D01*
X69245044Y14633238D01*
X69265682Y14790000D01*
X69245044Y14946762D01*
X69184536Y15092841D01*
X69088282Y15218282D01*
X69088280Y15218282D01*
X69083254Y15224834D01*
X69085109Y15226258D01*
X69056860Y15277976D01*
X69061914Y15348792D01*
X69104451Y15405635D01*
X69170968Y15430456D01*
X69228190Y15421188D01*
X69243236Y15414956D01*
X69400000Y15394318D01*
X69556760Y15414955D01*
X69702839Y15475463D01*
X69702842Y15475465D01*
X69828282Y15571718D01*
X69924536Y15697159D01*
X69985044Y15843238D01*
X70005682Y16000000D01*
X69985044Y16156762D01*
X69924536Y16302841D01*
X69828282Y16428282D01*
X69702841Y16524536D01*
X69556762Y16585044D01*
X69400000Y16605682D01*
X69243238Y16585044D01*
X69097159Y16524536D01*
X68971718Y16428282D01*
X68898979Y16333486D01*
X68875465Y16302842D01*
X68875463Y16302839D01*
X68814955Y16156760D01*
X68794318Y16000000D01*
X68794318Y15999999D01*
X68814955Y15843239D01*
X68875463Y15697160D01*
X68875465Y15697157D01*
X68927520Y15629318D01*
X68953394Y15595598D01*
X68976746Y15565166D01*
X68974894Y15563745D01*
X69003148Y15511985D01*
X68998072Y15441170D01*
X68955516Y15384341D01*
X68888992Y15359541D01*
X68831806Y15368812D01*
X68816762Y15375044D01*
X68660000Y15395682D01*
X68503238Y15375044D01*
X68357159Y15314536D01*
X68231718Y15218282D01*
X68172720Y15141394D01*
X68135465Y15092842D01*
X68135463Y15092839D01*
X68074955Y14946760D01*
X68054318Y14790000D01*
X59324290Y14790000D01*
X59330682Y14838555D01*
X59310044Y14995317D01*
X59257250Y15122771D01*
X59249662Y15193357D01*
X59281441Y15256844D01*
X59296956Y15270949D01*
X59302838Y15275463D01*
X59302841Y15275464D01*
X59428282Y15371718D01*
X59524536Y15497159D01*
X59585044Y15643238D01*
X59605682Y15800000D01*
X59585044Y15956762D01*
X59524536Y16102841D01*
X59428282Y16228282D01*
X59419527Y16235000D01*
X63010747Y16235000D01*
X63010747Y16234999D01*
X63031384Y16078239D01*
X63091892Y15932160D01*
X63091894Y15932157D01*
X63188147Y15806718D01*
X63313586Y15710465D01*
X63313589Y15710463D01*
X63459668Y15649955D01*
X63616429Y15629318D01*
X63773189Y15649955D01*
X63806587Y15663789D01*
X63877177Y15671377D01*
X63940663Y15639596D01*
X63971211Y15595598D01*
X64008276Y15506116D01*
X64008280Y15506109D01*
X64104533Y15380670D01*
X64229972Y15284417D01*
X64229975Y15284415D01*
X64376054Y15223907D01*
X64532815Y15203270D01*
X64689575Y15223907D01*
X64835654Y15284415D01*
X64835657Y15284417D01*
X64859669Y15302842D01*
X64961097Y15380670D01*
X65057351Y15506111D01*
X65117859Y15652190D01*
X65137318Y15799999D01*
X65138497Y15808951D01*
X65138497Y15808952D01*
X65122277Y15932157D01*
X65117859Y15965714D01*
X65057351Y16111793D01*
X64961097Y16237234D01*
X64835656Y16333488D01*
X64689577Y16393996D01*
X64532815Y16414634D01*
X64376053Y16393996D01*
X64342656Y16380162D01*
X64272071Y16372573D01*
X64208583Y16404351D01*
X64178033Y16448348D01*
X64140965Y16537841D01*
X64044711Y16663282D01*
X63919270Y16759536D01*
X63773191Y16820044D01*
X63616429Y16840682D01*
X63459667Y16820044D01*
X63313588Y16759536D01*
X63188147Y16663282D01*
X63128113Y16585044D01*
X63091894Y16537842D01*
X63091892Y16537839D01*
X63031384Y16391760D01*
X63010747Y16235000D01*
X59419527Y16235000D01*
X59302841Y16324536D01*
X59156762Y16385044D01*
X59000000Y16405682D01*
X58843238Y16385044D01*
X58697159Y16324536D01*
X58571718Y16228282D01*
X58482334Y16111794D01*
X58475465Y16102842D01*
X58475463Y16102839D01*
X58414955Y15956760D01*
X58394318Y15800000D01*
X58394318Y15799999D01*
X58414955Y15643239D01*
X58467748Y15515786D01*
X58475337Y15445196D01*
X58443557Y15381709D01*
X58428043Y15367605D01*
X58422161Y15363092D01*
X58422159Y15363091D01*
X58296718Y15266837D01*
X58240335Y15193357D01*
X58200465Y15141397D01*
X58200463Y15141394D01*
X58139955Y14995315D01*
X58119318Y14838555D01*
X57258104Y14838555D01*
X57260044Y14843238D01*
X57280065Y14995315D01*
X57280682Y14999999D01*
X57280682Y15000000D01*
X57260044Y15156762D01*
X57199536Y15302841D01*
X57103282Y15428282D01*
X56977841Y15524536D01*
X56831762Y15585044D01*
X56675000Y15605682D01*
X56518238Y15585044D01*
X56372159Y15524536D01*
X56246718Y15428282D01*
X56150465Y15302842D01*
X56150463Y15302839D01*
X56089955Y15156760D01*
X56069318Y15000000D01*
X3625000Y15000000D01*
X3625000Y17280000D01*
X56314318Y17280000D01*
X56314318Y17279999D01*
X56334955Y17123239D01*
X56395463Y16977160D01*
X56395465Y16977157D01*
X56491718Y16851718D01*
X56617157Y16755465D01*
X56617160Y16755463D01*
X56763239Y16694955D01*
X56920000Y16674318D01*
X57076760Y16694955D01*
X57222839Y16755463D01*
X57222842Y16755465D01*
X57228145Y16759534D01*
X57348282Y16851718D01*
X57444536Y16977159D01*
X57505044Y17123238D01*
X57525682Y17280000D01*
X57505044Y17436762D01*
X57444536Y17582841D01*
X57348282Y17708282D01*
X57222841Y17804536D01*
X57076762Y17865044D01*
X56920000Y17885682D01*
X56763238Y17865044D01*
X56617159Y17804536D01*
X56491718Y17708282D01*
X56395465Y17582842D01*
X56395463Y17582839D01*
X56334955Y17436760D01*
X56314318Y17280000D01*
X3625000Y17280000D01*
X3625000Y20719750D01*
X10349500Y20719750D01*
X10349500Y18280249D01*
X10361132Y18221771D01*
X10361133Y18221768D01*
X10405448Y18155448D01*
X10471768Y18111133D01*
X10471771Y18111132D01*
X10530249Y18099500D01*
X10530252Y18099500D01*
X12969750Y18099500D01*
X13028228Y18111132D01*
X13028231Y18111133D01*
X13094552Y18155448D01*
X13138867Y18221769D01*
X13150500Y18280252D01*
X13150500Y19100000D01*
X40694318Y19100000D01*
X40694318Y19099999D01*
X40714955Y18943239D01*
X40775463Y18797160D01*
X40775465Y18797157D01*
X40871718Y18671718D01*
X40997157Y18575465D01*
X40997160Y18575463D01*
X41143239Y18514955D01*
X41300000Y18494318D01*
X41456760Y18514955D01*
X41602839Y18575463D01*
X41602842Y18575465D01*
X41634817Y18600000D01*
X41728282Y18671718D01*
X41824536Y18797159D01*
X41885044Y18943238D01*
X41892517Y19000000D01*
X42194318Y19000000D01*
X42194318Y18999999D01*
X42214955Y18843239D01*
X42275463Y18697160D01*
X42275465Y18697157D01*
X42371718Y18571718D01*
X42497157Y18475465D01*
X42497160Y18475463D01*
X42643239Y18414955D01*
X42800000Y18394318D01*
X42956760Y18414955D01*
X43102839Y18475463D01*
X43102842Y18475465D01*
X43127412Y18494318D01*
X43228282Y18571718D01*
X43324536Y18697159D01*
X43385044Y18843238D01*
X43405682Y19000000D01*
X43385044Y19156762D01*
X43324536Y19302841D01*
X43249983Y19400000D01*
X44194318Y19400000D01*
X44194318Y19399999D01*
X44214955Y19243239D01*
X44275463Y19097160D01*
X44275465Y19097157D01*
X44371718Y18971718D01*
X44497157Y18875465D01*
X44497160Y18875463D01*
X44643239Y18814955D01*
X44800000Y18794318D01*
X44956760Y18814955D01*
X45102839Y18875463D01*
X45102842Y18875465D01*
X45192116Y18943967D01*
X45228282Y18971718D01*
X45249983Y18999999D01*
X45300038Y19065231D01*
X45357376Y19107098D01*
X45428247Y19111320D01*
X45490150Y19076556D01*
X45499962Y19065231D01*
X45571715Y18971720D01*
X45697157Y18875465D01*
X45697160Y18875463D01*
X45843239Y18814955D01*
X46000000Y18794318D01*
X46156760Y18814955D01*
X46302839Y18875463D01*
X46302842Y18875465D01*
X46428282Y18971718D01*
X46449983Y19000000D01*
X55194318Y19000000D01*
X55194318Y18999999D01*
X55214955Y18843239D01*
X55275463Y18697160D01*
X55275465Y18697157D01*
X55371718Y18571718D01*
X55497157Y18475465D01*
X55497160Y18475463D01*
X55643239Y18414955D01*
X55800000Y18394318D01*
X55956760Y18414955D01*
X56102839Y18475463D01*
X56102842Y18475465D01*
X56127412Y18494318D01*
X56228282Y18571718D01*
X56249983Y18600000D01*
X58344867Y18600000D01*
X58363303Y18471774D01*
X58417118Y18353937D01*
X58501951Y18256032D01*
X58610926Y18185998D01*
X58610933Y18185995D01*
X58735223Y18149501D01*
X58735225Y18149500D01*
X58735228Y18149500D01*
X58735232Y18149500D01*
X58864768Y18149500D01*
X58864772Y18149500D01*
X58864774Y18149500D01*
X58864776Y18149501D01*
X58989066Y18185995D01*
X58989069Y18185996D01*
X58989070Y18185996D01*
X58989073Y18185998D01*
X59098048Y18256032D01*
X59119032Y18280249D01*
X59182882Y18353937D01*
X59236697Y18471774D01*
X59255133Y18600000D01*
X59236697Y18728226D01*
X59182882Y18846063D01*
X59098049Y18943967D01*
X58989069Y19014004D01*
X58864772Y19050500D01*
X58735228Y19050500D01*
X58610931Y19014004D01*
X58610926Y19014001D01*
X58501951Y18943967D01*
X58417118Y18846063D01*
X58363303Y18728226D01*
X58344867Y18600000D01*
X56249983Y18600000D01*
X56324536Y18697159D01*
X56385044Y18843238D01*
X56405682Y19000000D01*
X56385044Y19156762D01*
X56324536Y19302841D01*
X56228282Y19428282D01*
X56102841Y19524536D01*
X55956762Y19585044D01*
X55800000Y19605682D01*
X55643238Y19585044D01*
X55497159Y19524536D01*
X55371718Y19428282D01*
X55350017Y19400000D01*
X55275465Y19302842D01*
X55275463Y19302839D01*
X55214955Y19156760D01*
X55194318Y19000000D01*
X46449983Y19000000D01*
X46524536Y19097159D01*
X46585044Y19243238D01*
X46605682Y19400000D01*
X46585044Y19556762D01*
X46524536Y19702841D01*
X46428282Y19828282D01*
X46302841Y19924536D01*
X46156762Y19985044D01*
X46000000Y20005682D01*
X45843238Y19985044D01*
X45697159Y19924536D01*
X45571718Y19828282D01*
X45499961Y19734766D01*
X45442625Y19692901D01*
X45371754Y19688679D01*
X45309851Y19723443D01*
X45300042Y19734761D01*
X45228282Y19828282D01*
X45102841Y19924536D01*
X44956762Y19985044D01*
X44800000Y20005682D01*
X44643238Y19985044D01*
X44497159Y19924536D01*
X44371718Y19828282D01*
X44277644Y19705682D01*
X44275465Y19702842D01*
X44275463Y19702839D01*
X44214955Y19556760D01*
X44194318Y19400000D01*
X43249983Y19400000D01*
X43228282Y19428282D01*
X43102841Y19524536D01*
X42956762Y19585044D01*
X42800000Y19605682D01*
X42643238Y19585044D01*
X42497159Y19524536D01*
X42371718Y19428282D01*
X42350017Y19400000D01*
X42275465Y19302842D01*
X42275463Y19302839D01*
X42214955Y19156760D01*
X42194318Y19000000D01*
X41892517Y19000000D01*
X41905682Y19100000D01*
X41885044Y19256762D01*
X41824536Y19402841D01*
X41728282Y19528282D01*
X41602841Y19624536D01*
X41456762Y19685044D01*
X41300000Y19705682D01*
X41143238Y19685044D01*
X40997159Y19624536D01*
X40871718Y19528282D01*
X40806401Y19443159D01*
X40775465Y19402842D01*
X40775463Y19402839D01*
X40714955Y19256760D01*
X40694318Y19100000D01*
X13150500Y19100000D01*
X13150500Y20719748D01*
X13138867Y20778231D01*
X13094552Y20844552D01*
X13057618Y20869231D01*
X63640472Y20869231D01*
X63640472Y20869230D01*
X63661109Y20712470D01*
X63721617Y20566391D01*
X63721619Y20566388D01*
X63817872Y20440949D01*
X63943311Y20344696D01*
X63943314Y20344694D01*
X64089393Y20284186D01*
X64246154Y20263549D01*
X64402914Y20284186D01*
X64548993Y20344694D01*
X64548996Y20344696D01*
X64674436Y20440949D01*
X64770690Y20566390D01*
X64831198Y20712469D01*
X64851836Y20869231D01*
X64831198Y21025993D01*
X64770690Y21172072D01*
X64674436Y21297513D01*
X64548995Y21393767D01*
X64402916Y21454275D01*
X64246154Y21474913D01*
X64089392Y21454275D01*
X63943313Y21393767D01*
X63817872Y21297513D01*
X63721619Y21172073D01*
X63721617Y21172070D01*
X63661109Y21025991D01*
X63640472Y20869231D01*
X13057618Y20869231D01*
X13028231Y20888867D01*
X12969748Y20900500D01*
X10530252Y20900500D01*
X10471769Y20888867D01*
X10405448Y20844552D01*
X10361133Y20778231D01*
X10361132Y20778228D01*
X10349500Y20719750D01*
X3625000Y20719750D01*
X3625000Y22158400D01*
X3645002Y22226521D01*
X3698658Y22273014D01*
X3751000Y22284400D01*
X74293200Y22284400D01*
X74361321Y22264398D01*
G37*
%TD.AperFunction*%
%TD*%
M02*
