%TF.GenerationSoftware,KiCad,Pcbnew,8.0.5*%
%TF.CreationDate,2024-10-21T10:38:41+01:00*%
%TF.ProjectId,LEXI-R422-Rev 3,4c455849-2d52-4343-9232-2d5265762033,rev?*%
%TF.SameCoordinates,Original*%
%TF.FileFunction,Legend,Top*%
%TF.FilePolarity,Positive*%
%FSLAX46Y46*%
G04 Gerber Fmt 4.6, Leading zero omitted, Abs format (unit mm)*
G04 Created by KiCad (PCBNEW 8.0.5) date 2024-10-21 10:38:41*
%MOMM*%
%LPD*%
G01*
G04 APERTURE LIST*
%ADD10C,0.200000*%
%ADD11C,0.100000*%
%ADD12C,0.300000*%
%ADD13C,0.150000*%
%ADD14C,0.450000*%
%ADD15C,0.120000*%
%ADD16C,0.127000*%
G04 APERTURE END LIST*
D10*
X46510047Y-1200000D02*
G75*
G02*
X45889953Y-1200000I-310047J0D01*
G01*
X45889953Y-1200000D02*
G75*
G02*
X46510047Y-1200000I310047J0D01*
G01*
X24400000Y7600000D02*
G75*
G02*
X24000000Y7600000I-200000J0D01*
G01*
X24000000Y7600000D02*
G75*
G02*
X24400000Y7600000I200000J0D01*
G01*
D11*
X18525200Y9338800D02*
X22640000Y9338800D01*
X22640000Y5681200D01*
X18525200Y5681200D01*
X18525200Y9338800D01*
D10*
X72868094Y-1527780D02*
X72868094Y-2527780D01*
X72868094Y-2527780D02*
X72487142Y-2527780D01*
X72487142Y-2527780D02*
X72391904Y-2480161D01*
X72391904Y-2480161D02*
X72344285Y-2432542D01*
X72344285Y-2432542D02*
X72296666Y-2337304D01*
X72296666Y-2337304D02*
X72296666Y-2194447D01*
X72296666Y-2194447D02*
X72344285Y-2099209D01*
X72344285Y-2099209D02*
X72391904Y-2051590D01*
X72391904Y-2051590D02*
X72487142Y-2003971D01*
X72487142Y-2003971D02*
X72868094Y-2003971D01*
X71296666Y-1623019D02*
X71344285Y-1575400D01*
X71344285Y-1575400D02*
X71487142Y-1527780D01*
X71487142Y-1527780D02*
X71582380Y-1527780D01*
X71582380Y-1527780D02*
X71725237Y-1575400D01*
X71725237Y-1575400D02*
X71820475Y-1670638D01*
X71820475Y-1670638D02*
X71868094Y-1765876D01*
X71868094Y-1765876D02*
X71915713Y-1956352D01*
X71915713Y-1956352D02*
X71915713Y-2099209D01*
X71915713Y-2099209D02*
X71868094Y-2289685D01*
X71868094Y-2289685D02*
X71820475Y-2384923D01*
X71820475Y-2384923D02*
X71725237Y-2480161D01*
X71725237Y-2480161D02*
X71582380Y-2527780D01*
X71582380Y-2527780D02*
X71487142Y-2527780D01*
X71487142Y-2527780D02*
X71344285Y-2480161D01*
X71344285Y-2480161D02*
X71296666Y-2432542D01*
X70534761Y-2051590D02*
X70391904Y-2003971D01*
X70391904Y-2003971D02*
X70344285Y-1956352D01*
X70344285Y-1956352D02*
X70296666Y-1861114D01*
X70296666Y-1861114D02*
X70296666Y-1718257D01*
X70296666Y-1718257D02*
X70344285Y-1623019D01*
X70344285Y-1623019D02*
X70391904Y-1575400D01*
X70391904Y-1575400D02*
X70487142Y-1527780D01*
X70487142Y-1527780D02*
X70868094Y-1527780D01*
X70868094Y-1527780D02*
X70868094Y-2527780D01*
X70868094Y-2527780D02*
X70534761Y-2527780D01*
X70534761Y-2527780D02*
X70439523Y-2480161D01*
X70439523Y-2480161D02*
X70391904Y-2432542D01*
X70391904Y-2432542D02*
X70344285Y-2337304D01*
X70344285Y-2337304D02*
X70344285Y-2242066D01*
X70344285Y-2242066D02*
X70391904Y-2146828D01*
X70391904Y-2146828D02*
X70439523Y-2099209D01*
X70439523Y-2099209D02*
X70534761Y-2051590D01*
X70534761Y-2051590D02*
X70868094Y-2051590D01*
X69106189Y-1623019D02*
X69058570Y-1575400D01*
X69058570Y-1575400D02*
X69106189Y-1527780D01*
X69106189Y-1527780D02*
X69153808Y-1575400D01*
X69153808Y-1575400D02*
X69106189Y-1623019D01*
X69106189Y-1623019D02*
X69106189Y-1527780D01*
X69106189Y-2146828D02*
X69058570Y-2099209D01*
X69058570Y-2099209D02*
X69106189Y-2051590D01*
X69106189Y-2051590D02*
X69153808Y-2099209D01*
X69153808Y-2099209D02*
X69106189Y-2146828D01*
X69106189Y-2146828D02*
X69106189Y-2051590D01*
X67439523Y-2194447D02*
X67439523Y-1527780D01*
X67677618Y-2575400D02*
X67915713Y-1861114D01*
X67915713Y-1861114D02*
X67296666Y-1861114D01*
X66868094Y-1527780D02*
X66677618Y-1527780D01*
X66677618Y-1527780D02*
X66582380Y-1575400D01*
X66582380Y-1575400D02*
X66534761Y-1623019D01*
X66534761Y-1623019D02*
X66439523Y-1765876D01*
X66439523Y-1765876D02*
X66391904Y-1956352D01*
X66391904Y-1956352D02*
X66391904Y-2337304D01*
X66391904Y-2337304D02*
X66439523Y-2432542D01*
X66439523Y-2432542D02*
X66487142Y-2480161D01*
X66487142Y-2480161D02*
X66582380Y-2527780D01*
X66582380Y-2527780D02*
X66772856Y-2527780D01*
X66772856Y-2527780D02*
X66868094Y-2480161D01*
X66868094Y-2480161D02*
X66915713Y-2432542D01*
X66915713Y-2432542D02*
X66963332Y-2337304D01*
X66963332Y-2337304D02*
X66963332Y-2099209D01*
X66963332Y-2099209D02*
X66915713Y-2003971D01*
X66915713Y-2003971D02*
X66868094Y-1956352D01*
X66868094Y-1956352D02*
X66772856Y-1908733D01*
X66772856Y-1908733D02*
X66582380Y-1908733D01*
X66582380Y-1908733D02*
X66487142Y-1956352D01*
X66487142Y-1956352D02*
X66439523Y-2003971D01*
X66439523Y-2003971D02*
X66391904Y-2099209D01*
X65772856Y-2527780D02*
X65677618Y-2527780D01*
X65677618Y-2527780D02*
X65582380Y-2480161D01*
X65582380Y-2480161D02*
X65534761Y-2432542D01*
X65534761Y-2432542D02*
X65487142Y-2337304D01*
X65487142Y-2337304D02*
X65439523Y-2146828D01*
X65439523Y-2146828D02*
X65439523Y-1908733D01*
X65439523Y-1908733D02*
X65487142Y-1718257D01*
X65487142Y-1718257D02*
X65534761Y-1623019D01*
X65534761Y-1623019D02*
X65582380Y-1575400D01*
X65582380Y-1575400D02*
X65677618Y-1527780D01*
X65677618Y-1527780D02*
X65772856Y-1527780D01*
X65772856Y-1527780D02*
X65868094Y-1575400D01*
X65868094Y-1575400D02*
X65915713Y-1623019D01*
X65915713Y-1623019D02*
X65963332Y-1718257D01*
X65963332Y-1718257D02*
X66010951Y-1908733D01*
X66010951Y-1908733D02*
X66010951Y-2146828D01*
X66010951Y-2146828D02*
X65963332Y-2337304D01*
X65963332Y-2337304D02*
X65915713Y-2432542D01*
X65915713Y-2432542D02*
X65868094Y-2480161D01*
X65868094Y-2480161D02*
X65772856Y-2527780D01*
X65058570Y-2432542D02*
X65010951Y-2480161D01*
X65010951Y-2480161D02*
X64915713Y-2527780D01*
X64915713Y-2527780D02*
X64677618Y-2527780D01*
X64677618Y-2527780D02*
X64582380Y-2480161D01*
X64582380Y-2480161D02*
X64534761Y-2432542D01*
X64534761Y-2432542D02*
X64487142Y-2337304D01*
X64487142Y-2337304D02*
X64487142Y-2242066D01*
X64487142Y-2242066D02*
X64534761Y-2099209D01*
X64534761Y-2099209D02*
X65106189Y-1527780D01*
X65106189Y-1527780D02*
X64487142Y-1527780D01*
X64058570Y-1908733D02*
X63296666Y-1908733D01*
X62391904Y-2194447D02*
X62391904Y-1527780D01*
X62629999Y-2575400D02*
X62868094Y-1861114D01*
X62868094Y-1861114D02*
X62249047Y-1861114D01*
X61677618Y-2527780D02*
X61582380Y-2527780D01*
X61582380Y-2527780D02*
X61487142Y-2480161D01*
X61487142Y-2480161D02*
X61439523Y-2432542D01*
X61439523Y-2432542D02*
X61391904Y-2337304D01*
X61391904Y-2337304D02*
X61344285Y-2146828D01*
X61344285Y-2146828D02*
X61344285Y-1908733D01*
X61344285Y-1908733D02*
X61391904Y-1718257D01*
X61391904Y-1718257D02*
X61439523Y-1623019D01*
X61439523Y-1623019D02*
X61487142Y-1575400D01*
X61487142Y-1575400D02*
X61582380Y-1527780D01*
X61582380Y-1527780D02*
X61677618Y-1527780D01*
X61677618Y-1527780D02*
X61772856Y-1575400D01*
X61772856Y-1575400D02*
X61820475Y-1623019D01*
X61820475Y-1623019D02*
X61868094Y-1718257D01*
X61868094Y-1718257D02*
X61915713Y-1908733D01*
X61915713Y-1908733D02*
X61915713Y-2146828D01*
X61915713Y-2146828D02*
X61868094Y-2337304D01*
X61868094Y-2337304D02*
X61820475Y-2432542D01*
X61820475Y-2432542D02*
X61772856Y-2480161D01*
X61772856Y-2480161D02*
X61677618Y-2527780D01*
X60725237Y-2527780D02*
X60629999Y-2527780D01*
X60629999Y-2527780D02*
X60534761Y-2480161D01*
X60534761Y-2480161D02*
X60487142Y-2432542D01*
X60487142Y-2432542D02*
X60439523Y-2337304D01*
X60439523Y-2337304D02*
X60391904Y-2146828D01*
X60391904Y-2146828D02*
X60391904Y-1908733D01*
X60391904Y-1908733D02*
X60439523Y-1718257D01*
X60439523Y-1718257D02*
X60487142Y-1623019D01*
X60487142Y-1623019D02*
X60534761Y-1575400D01*
X60534761Y-1575400D02*
X60629999Y-1527780D01*
X60629999Y-1527780D02*
X60725237Y-1527780D01*
X60725237Y-1527780D02*
X60820475Y-1575400D01*
X60820475Y-1575400D02*
X60868094Y-1623019D01*
X60868094Y-1623019D02*
X60915713Y-1718257D01*
X60915713Y-1718257D02*
X60963332Y-1908733D01*
X60963332Y-1908733D02*
X60963332Y-2146828D01*
X60963332Y-2146828D02*
X60915713Y-2337304D01*
X60915713Y-2337304D02*
X60868094Y-2432542D01*
X60868094Y-2432542D02*
X60820475Y-2480161D01*
X60820475Y-2480161D02*
X60725237Y-2527780D01*
X59772856Y-2527780D02*
X59677618Y-2527780D01*
X59677618Y-2527780D02*
X59582380Y-2480161D01*
X59582380Y-2480161D02*
X59534761Y-2432542D01*
X59534761Y-2432542D02*
X59487142Y-2337304D01*
X59487142Y-2337304D02*
X59439523Y-2146828D01*
X59439523Y-2146828D02*
X59439523Y-1908733D01*
X59439523Y-1908733D02*
X59487142Y-1718257D01*
X59487142Y-1718257D02*
X59534761Y-1623019D01*
X59534761Y-1623019D02*
X59582380Y-1575400D01*
X59582380Y-1575400D02*
X59677618Y-1527780D01*
X59677618Y-1527780D02*
X59772856Y-1527780D01*
X59772856Y-1527780D02*
X59868094Y-1575400D01*
X59868094Y-1575400D02*
X59915713Y-1623019D01*
X59915713Y-1623019D02*
X59963332Y-1718257D01*
X59963332Y-1718257D02*
X60010951Y-1908733D01*
X60010951Y-1908733D02*
X60010951Y-2146828D01*
X60010951Y-2146828D02*
X59963332Y-2337304D01*
X59963332Y-2337304D02*
X59915713Y-2432542D01*
X59915713Y-2432542D02*
X59868094Y-2480161D01*
X59868094Y-2480161D02*
X59772856Y-2527780D01*
X58820475Y-2527780D02*
X58725237Y-2527780D01*
X58725237Y-2527780D02*
X58629999Y-2480161D01*
X58629999Y-2480161D02*
X58582380Y-2432542D01*
X58582380Y-2432542D02*
X58534761Y-2337304D01*
X58534761Y-2337304D02*
X58487142Y-2146828D01*
X58487142Y-2146828D02*
X58487142Y-1908733D01*
X58487142Y-1908733D02*
X58534761Y-1718257D01*
X58534761Y-1718257D02*
X58582380Y-1623019D01*
X58582380Y-1623019D02*
X58629999Y-1575400D01*
X58629999Y-1575400D02*
X58725237Y-1527780D01*
X58725237Y-1527780D02*
X58820475Y-1527780D01*
X58820475Y-1527780D02*
X58915713Y-1575400D01*
X58915713Y-1575400D02*
X58963332Y-1623019D01*
X58963332Y-1623019D02*
X59010951Y-1718257D01*
X59010951Y-1718257D02*
X59058570Y-1908733D01*
X59058570Y-1908733D02*
X59058570Y-2146828D01*
X59058570Y-2146828D02*
X59010951Y-2337304D01*
X59010951Y-2337304D02*
X58963332Y-2432542D01*
X58963332Y-2432542D02*
X58915713Y-2480161D01*
X58915713Y-2480161D02*
X58820475Y-2527780D01*
X58058570Y-1908733D02*
X57296666Y-1908733D01*
X56629999Y-2527780D02*
X56534761Y-2527780D01*
X56534761Y-2527780D02*
X56439523Y-2480161D01*
X56439523Y-2480161D02*
X56391904Y-2432542D01*
X56391904Y-2432542D02*
X56344285Y-2337304D01*
X56344285Y-2337304D02*
X56296666Y-2146828D01*
X56296666Y-2146828D02*
X56296666Y-1908733D01*
X56296666Y-1908733D02*
X56344285Y-1718257D01*
X56344285Y-1718257D02*
X56391904Y-1623019D01*
X56391904Y-1623019D02*
X56439523Y-1575400D01*
X56439523Y-1575400D02*
X56534761Y-1527780D01*
X56534761Y-1527780D02*
X56629999Y-1527780D01*
X56629999Y-1527780D02*
X56725237Y-1575400D01*
X56725237Y-1575400D02*
X56772856Y-1623019D01*
X56772856Y-1623019D02*
X56820475Y-1718257D01*
X56820475Y-1718257D02*
X56868094Y-1908733D01*
X56868094Y-1908733D02*
X56868094Y-2146828D01*
X56868094Y-2146828D02*
X56820475Y-2337304D01*
X56820475Y-2337304D02*
X56772856Y-2432542D01*
X56772856Y-2432542D02*
X56725237Y-2480161D01*
X56725237Y-2480161D02*
X56629999Y-2527780D01*
X55963332Y-2527780D02*
X55344285Y-2527780D01*
X55344285Y-2527780D02*
X55677618Y-2146828D01*
X55677618Y-2146828D02*
X55534761Y-2146828D01*
X55534761Y-2146828D02*
X55439523Y-2099209D01*
X55439523Y-2099209D02*
X55391904Y-2051590D01*
X55391904Y-2051590D02*
X55344285Y-1956352D01*
X55344285Y-1956352D02*
X55344285Y-1718257D01*
X55344285Y-1718257D02*
X55391904Y-1623019D01*
X55391904Y-1623019D02*
X55439523Y-1575400D01*
X55439523Y-1575400D02*
X55534761Y-1527780D01*
X55534761Y-1527780D02*
X55820475Y-1527780D01*
X55820475Y-1527780D02*
X55915713Y-1575400D01*
X55915713Y-1575400D02*
X55963332Y-1623019D01*
X31795715Y1522219D02*
X31462382Y2522219D01*
X31462382Y2522219D02*
X31129049Y1522219D01*
X30938572Y1522219D02*
X30367144Y1522219D01*
X30652858Y2522219D02*
X30652858Y1522219D01*
X29271905Y1998409D02*
X28938572Y1998409D01*
X28795715Y2522219D02*
X29271905Y2522219D01*
X29271905Y2522219D02*
X29271905Y1522219D01*
X29271905Y1522219D02*
X28795715Y1522219D01*
X28224286Y2522219D02*
X28319524Y2474600D01*
X28319524Y2474600D02*
X28367143Y2379361D01*
X28367143Y2379361D02*
X28367143Y1522219D01*
X27462381Y2474600D02*
X27557619Y2522219D01*
X27557619Y2522219D02*
X27748095Y2522219D01*
X27748095Y2522219D02*
X27843333Y2474600D01*
X27843333Y2474600D02*
X27890952Y2379361D01*
X27890952Y2379361D02*
X27890952Y1998409D01*
X27890952Y1998409D02*
X27843333Y1903171D01*
X27843333Y1903171D02*
X27748095Y1855552D01*
X27748095Y1855552D02*
X27557619Y1855552D01*
X27557619Y1855552D02*
X27462381Y1903171D01*
X27462381Y1903171D02*
X27414762Y1998409D01*
X27414762Y1998409D02*
X27414762Y2093647D01*
X27414762Y2093647D02*
X27890952Y2188885D01*
X26557619Y2474600D02*
X26652857Y2522219D01*
X26652857Y2522219D02*
X26843333Y2522219D01*
X26843333Y2522219D02*
X26938571Y2474600D01*
X26938571Y2474600D02*
X26986190Y2426980D01*
X26986190Y2426980D02*
X27033809Y2331742D01*
X27033809Y2331742D02*
X27033809Y2046028D01*
X27033809Y2046028D02*
X26986190Y1950790D01*
X26986190Y1950790D02*
X26938571Y1903171D01*
X26938571Y1903171D02*
X26843333Y1855552D01*
X26843333Y1855552D02*
X26652857Y1855552D01*
X26652857Y1855552D02*
X26557619Y1903171D01*
X26271904Y1855552D02*
X25890952Y1855552D01*
X26129047Y1522219D02*
X26129047Y2379361D01*
X26129047Y2379361D02*
X26081428Y2474600D01*
X26081428Y2474600D02*
X25986190Y2522219D01*
X25986190Y2522219D02*
X25890952Y2522219D01*
X25557618Y2522219D02*
X25557618Y1855552D01*
X25557618Y2046028D02*
X25509999Y1950790D01*
X25509999Y1950790D02*
X25462380Y1903171D01*
X25462380Y1903171D02*
X25367142Y1855552D01*
X25367142Y1855552D02*
X25271904Y1855552D01*
X24795713Y2522219D02*
X24890951Y2474600D01*
X24890951Y2474600D02*
X24938570Y2426980D01*
X24938570Y2426980D02*
X24986189Y2331742D01*
X24986189Y2331742D02*
X24986189Y2046028D01*
X24986189Y2046028D02*
X24938570Y1950790D01*
X24938570Y1950790D02*
X24890951Y1903171D01*
X24890951Y1903171D02*
X24795713Y1855552D01*
X24795713Y1855552D02*
X24652856Y1855552D01*
X24652856Y1855552D02*
X24557618Y1903171D01*
X24557618Y1903171D02*
X24509999Y1950790D01*
X24509999Y1950790D02*
X24462380Y2046028D01*
X24462380Y2046028D02*
X24462380Y2331742D01*
X24462380Y2331742D02*
X24509999Y2426980D01*
X24509999Y2426980D02*
X24557618Y2474600D01*
X24557618Y2474600D02*
X24652856Y2522219D01*
X24652856Y2522219D02*
X24795713Y2522219D01*
X24033808Y1855552D02*
X24033808Y2522219D01*
X24033808Y1950790D02*
X23986189Y1903171D01*
X23986189Y1903171D02*
X23890951Y1855552D01*
X23890951Y1855552D02*
X23748094Y1855552D01*
X23748094Y1855552D02*
X23652856Y1903171D01*
X23652856Y1903171D02*
X23605237Y1998409D01*
X23605237Y1998409D02*
X23605237Y2522219D01*
X20986188Y1522219D02*
X20652855Y2522219D01*
X20652855Y2522219D02*
X20319522Y1522219D01*
X19605236Y2474600D02*
X19700474Y2522219D01*
X19700474Y2522219D02*
X19890950Y2522219D01*
X19890950Y2522219D02*
X19986188Y2474600D01*
X19986188Y2474600D02*
X20033807Y2379361D01*
X20033807Y2379361D02*
X20033807Y1998409D01*
X20033807Y1998409D02*
X19986188Y1903171D01*
X19986188Y1903171D02*
X19890950Y1855552D01*
X19890950Y1855552D02*
X19700474Y1855552D01*
X19700474Y1855552D02*
X19605236Y1903171D01*
X19605236Y1903171D02*
X19557617Y1998409D01*
X19557617Y1998409D02*
X19557617Y2093647D01*
X19557617Y2093647D02*
X20033807Y2188885D01*
X19129045Y2522219D02*
X19129045Y1855552D01*
X19129045Y2046028D02*
X19081426Y1950790D01*
X19081426Y1950790D02*
X19033807Y1903171D01*
X19033807Y1903171D02*
X18938569Y1855552D01*
X18938569Y1855552D02*
X18843331Y1855552D01*
X18509997Y2426980D02*
X18462378Y2474600D01*
X18462378Y2474600D02*
X18509997Y2522219D01*
X18509997Y2522219D02*
X18557616Y2474600D01*
X18557616Y2474600D02*
X18509997Y2426980D01*
X18509997Y2426980D02*
X18509997Y2522219D01*
X16795712Y1522219D02*
X17271902Y1522219D01*
X17271902Y1522219D02*
X17319521Y1998409D01*
X17319521Y1998409D02*
X17271902Y1950790D01*
X17271902Y1950790D02*
X17176664Y1903171D01*
X17176664Y1903171D02*
X16938569Y1903171D01*
X16938569Y1903171D02*
X16843331Y1950790D01*
X16843331Y1950790D02*
X16795712Y1998409D01*
X16795712Y1998409D02*
X16748093Y2093647D01*
X16748093Y2093647D02*
X16748093Y2331742D01*
X16748093Y2331742D02*
X16795712Y2426980D01*
X16795712Y2426980D02*
X16843331Y2474600D01*
X16843331Y2474600D02*
X16938569Y2522219D01*
X16938569Y2522219D02*
X17176664Y2522219D01*
X17176664Y2522219D02*
X17271902Y2474600D01*
X17271902Y2474600D02*
X17319521Y2426980D01*
X16319521Y2426980D02*
X16271902Y2474600D01*
X16271902Y2474600D02*
X16319521Y2522219D01*
X16319521Y2522219D02*
X16367140Y2474600D01*
X16367140Y2474600D02*
X16319521Y2426980D01*
X16319521Y2426980D02*
X16319521Y2522219D01*
X15652855Y1522219D02*
X15557617Y1522219D01*
X15557617Y1522219D02*
X15462379Y1569838D01*
X15462379Y1569838D02*
X15414760Y1617457D01*
X15414760Y1617457D02*
X15367141Y1712695D01*
X15367141Y1712695D02*
X15319522Y1903171D01*
X15319522Y1903171D02*
X15319522Y2141266D01*
X15319522Y2141266D02*
X15367141Y2331742D01*
X15367141Y2331742D02*
X15414760Y2426980D01*
X15414760Y2426980D02*
X15462379Y2474600D01*
X15462379Y2474600D02*
X15557617Y2522219D01*
X15557617Y2522219D02*
X15652855Y2522219D01*
X15652855Y2522219D02*
X15748093Y2474600D01*
X15748093Y2474600D02*
X15795712Y2426980D01*
X15795712Y2426980D02*
X15843331Y2331742D01*
X15843331Y2331742D02*
X15890950Y2141266D01*
X15890950Y2141266D02*
X15890950Y1903171D01*
X15890950Y1903171D02*
X15843331Y1712695D01*
X15843331Y1712695D02*
X15795712Y1617457D01*
X15795712Y1617457D02*
X15748093Y1569838D01*
X15748093Y1569838D02*
X15652855Y1522219D01*
D12*
X29018571Y19078328D02*
X29732857Y19078328D01*
X29732857Y19078328D02*
X29732857Y17578328D01*
X27875714Y19078328D02*
X27875714Y18292614D01*
X27875714Y18292614D02*
X27947142Y18149757D01*
X27947142Y18149757D02*
X28089999Y18078328D01*
X28089999Y18078328D02*
X28375714Y18078328D01*
X28375714Y18078328D02*
X28518571Y18149757D01*
X27875714Y19006900D02*
X28018571Y19078328D01*
X28018571Y19078328D02*
X28375714Y19078328D01*
X28375714Y19078328D02*
X28518571Y19006900D01*
X28518571Y19006900D02*
X28589999Y18864042D01*
X28589999Y18864042D02*
X28589999Y18721185D01*
X28589999Y18721185D02*
X28518571Y18578328D01*
X28518571Y18578328D02*
X28375714Y18506900D01*
X28375714Y18506900D02*
X28018571Y18506900D01*
X28018571Y18506900D02*
X27875714Y18435471D01*
X27161428Y19078328D02*
X27161428Y17578328D01*
X27161428Y18149757D02*
X27018571Y18078328D01*
X27018571Y18078328D02*
X26732856Y18078328D01*
X26732856Y18078328D02*
X26589999Y18149757D01*
X26589999Y18149757D02*
X26518571Y18221185D01*
X26518571Y18221185D02*
X26447142Y18364042D01*
X26447142Y18364042D02*
X26447142Y18792614D01*
X26447142Y18792614D02*
X26518571Y18935471D01*
X26518571Y18935471D02*
X26589999Y19006900D01*
X26589999Y19006900D02*
X26732856Y19078328D01*
X26732856Y19078328D02*
X27018571Y19078328D01*
X27018571Y19078328D02*
X27161428Y19006900D01*
X25232856Y19006900D02*
X25375713Y19078328D01*
X25375713Y19078328D02*
X25661428Y19078328D01*
X25661428Y19078328D02*
X25804285Y19006900D01*
X25804285Y19006900D02*
X25875713Y18864042D01*
X25875713Y18864042D02*
X25875713Y18292614D01*
X25875713Y18292614D02*
X25804285Y18149757D01*
X25804285Y18149757D02*
X25661428Y18078328D01*
X25661428Y18078328D02*
X25375713Y18078328D01*
X25375713Y18078328D02*
X25232856Y18149757D01*
X25232856Y18149757D02*
X25161428Y18292614D01*
X25161428Y18292614D02*
X25161428Y18435471D01*
X25161428Y18435471D02*
X25875713Y18578328D01*
X24304285Y19078328D02*
X24447142Y19006900D01*
X24447142Y19006900D02*
X24518571Y18864042D01*
X24518571Y18864042D02*
X24518571Y17578328D01*
D11*
X21822380Y4856109D02*
X21822380Y4356109D01*
X21822380Y4356109D02*
X21631904Y4356109D01*
X21631904Y4356109D02*
X21584285Y4379919D01*
X21584285Y4379919D02*
X21560475Y4403728D01*
X21560475Y4403728D02*
X21536666Y4451347D01*
X21536666Y4451347D02*
X21536666Y4522776D01*
X21536666Y4522776D02*
X21560475Y4570395D01*
X21560475Y4570395D02*
X21584285Y4594204D01*
X21584285Y4594204D02*
X21631904Y4618014D01*
X21631904Y4618014D02*
X21822380Y4618014D01*
X21108094Y4856109D02*
X21108094Y4594204D01*
X21108094Y4594204D02*
X21131904Y4546585D01*
X21131904Y4546585D02*
X21179523Y4522776D01*
X21179523Y4522776D02*
X21274761Y4522776D01*
X21274761Y4522776D02*
X21322380Y4546585D01*
X21108094Y4832300D02*
X21155713Y4856109D01*
X21155713Y4856109D02*
X21274761Y4856109D01*
X21274761Y4856109D02*
X21322380Y4832300D01*
X21322380Y4832300D02*
X21346189Y4784680D01*
X21346189Y4784680D02*
X21346189Y4737061D01*
X21346189Y4737061D02*
X21322380Y4689442D01*
X21322380Y4689442D02*
X21274761Y4665633D01*
X21274761Y4665633D02*
X21155713Y4665633D01*
X21155713Y4665633D02*
X21108094Y4641823D01*
X20893808Y4832300D02*
X20846189Y4856109D01*
X20846189Y4856109D02*
X20750951Y4856109D01*
X20750951Y4856109D02*
X20703332Y4832300D01*
X20703332Y4832300D02*
X20679523Y4784680D01*
X20679523Y4784680D02*
X20679523Y4760871D01*
X20679523Y4760871D02*
X20703332Y4713252D01*
X20703332Y4713252D02*
X20750951Y4689442D01*
X20750951Y4689442D02*
X20822380Y4689442D01*
X20822380Y4689442D02*
X20869999Y4665633D01*
X20869999Y4665633D02*
X20893808Y4618014D01*
X20893808Y4618014D02*
X20893808Y4594204D01*
X20893808Y4594204D02*
X20869999Y4546585D01*
X20869999Y4546585D02*
X20822380Y4522776D01*
X20822380Y4522776D02*
X20750951Y4522776D01*
X20750951Y4522776D02*
X20703332Y4546585D01*
X20489046Y4832300D02*
X20441427Y4856109D01*
X20441427Y4856109D02*
X20346189Y4856109D01*
X20346189Y4856109D02*
X20298570Y4832300D01*
X20298570Y4832300D02*
X20274761Y4784680D01*
X20274761Y4784680D02*
X20274761Y4760871D01*
X20274761Y4760871D02*
X20298570Y4713252D01*
X20298570Y4713252D02*
X20346189Y4689442D01*
X20346189Y4689442D02*
X20417618Y4689442D01*
X20417618Y4689442D02*
X20465237Y4665633D01*
X20465237Y4665633D02*
X20489046Y4618014D01*
X20489046Y4618014D02*
X20489046Y4594204D01*
X20489046Y4594204D02*
X20465237Y4546585D01*
X20465237Y4546585D02*
X20417618Y4522776D01*
X20417618Y4522776D02*
X20346189Y4522776D01*
X20346189Y4522776D02*
X20298570Y4546585D01*
X19869999Y4832300D02*
X19917618Y4856109D01*
X19917618Y4856109D02*
X20012856Y4856109D01*
X20012856Y4856109D02*
X20060475Y4832300D01*
X20060475Y4832300D02*
X20084284Y4784680D01*
X20084284Y4784680D02*
X20084284Y4594204D01*
X20084284Y4594204D02*
X20060475Y4546585D01*
X20060475Y4546585D02*
X20012856Y4522776D01*
X20012856Y4522776D02*
X19917618Y4522776D01*
X19917618Y4522776D02*
X19869999Y4546585D01*
X19869999Y4546585D02*
X19846189Y4594204D01*
X19846189Y4594204D02*
X19846189Y4641823D01*
X19846189Y4641823D02*
X20084284Y4689442D01*
X19417618Y4856109D02*
X19417618Y4356109D01*
X19417618Y4832300D02*
X19465237Y4856109D01*
X19465237Y4856109D02*
X19560475Y4856109D01*
X19560475Y4856109D02*
X19608094Y4832300D01*
X19608094Y4832300D02*
X19631904Y4808490D01*
X19631904Y4808490D02*
X19655713Y4760871D01*
X19655713Y4760871D02*
X19655713Y4618014D01*
X19655713Y4618014D02*
X19631904Y4570395D01*
X19631904Y4570395D02*
X19608094Y4546585D01*
X19608094Y4546585D02*
X19560475Y4522776D01*
X19560475Y4522776D02*
X19465237Y4522776D01*
X19465237Y4522776D02*
X19417618Y4546585D01*
D10*
X30448571Y3852008D02*
X30496190Y3899628D01*
X30496190Y3899628D02*
X30639047Y3947247D01*
X30639047Y3947247D02*
X30734285Y3947247D01*
X30734285Y3947247D02*
X30877142Y3899628D01*
X30877142Y3899628D02*
X30972380Y3804389D01*
X30972380Y3804389D02*
X31019999Y3709151D01*
X31019999Y3709151D02*
X31067618Y3518675D01*
X31067618Y3518675D02*
X31067618Y3375818D01*
X31067618Y3375818D02*
X31019999Y3185342D01*
X31019999Y3185342D02*
X30972380Y3090104D01*
X30972380Y3090104D02*
X30877142Y2994866D01*
X30877142Y2994866D02*
X30734285Y2947247D01*
X30734285Y2947247D02*
X30639047Y2947247D01*
X30639047Y2947247D02*
X30496190Y2994866D01*
X30496190Y2994866D02*
X30448571Y3042485D01*
X29877142Y3947247D02*
X29972380Y3899628D01*
X29972380Y3899628D02*
X30019999Y3852008D01*
X30019999Y3852008D02*
X30067618Y3756770D01*
X30067618Y3756770D02*
X30067618Y3471056D01*
X30067618Y3471056D02*
X30019999Y3375818D01*
X30019999Y3375818D02*
X29972380Y3328199D01*
X29972380Y3328199D02*
X29877142Y3280580D01*
X29877142Y3280580D02*
X29734285Y3280580D01*
X29734285Y3280580D02*
X29639047Y3328199D01*
X29639047Y3328199D02*
X29591428Y3375818D01*
X29591428Y3375818D02*
X29543809Y3471056D01*
X29543809Y3471056D02*
X29543809Y3756770D01*
X29543809Y3756770D02*
X29591428Y3852008D01*
X29591428Y3852008D02*
X29639047Y3899628D01*
X29639047Y3899628D02*
X29734285Y3947247D01*
X29734285Y3947247D02*
X29877142Y3947247D01*
X29115237Y3947247D02*
X29115237Y3280580D01*
X29115237Y3375818D02*
X29067618Y3328199D01*
X29067618Y3328199D02*
X28972380Y3280580D01*
X28972380Y3280580D02*
X28829523Y3280580D01*
X28829523Y3280580D02*
X28734285Y3328199D01*
X28734285Y3328199D02*
X28686666Y3423437D01*
X28686666Y3423437D02*
X28686666Y3947247D01*
X28686666Y3423437D02*
X28639047Y3328199D01*
X28639047Y3328199D02*
X28543809Y3280580D01*
X28543809Y3280580D02*
X28400952Y3280580D01*
X28400952Y3280580D02*
X28305713Y3328199D01*
X28305713Y3328199D02*
X28258094Y3423437D01*
X28258094Y3423437D02*
X28258094Y3947247D01*
X27781904Y3947247D02*
X27781904Y3280580D01*
X27781904Y3375818D02*
X27734285Y3328199D01*
X27734285Y3328199D02*
X27639047Y3280580D01*
X27639047Y3280580D02*
X27496190Y3280580D01*
X27496190Y3280580D02*
X27400952Y3328199D01*
X27400952Y3328199D02*
X27353333Y3423437D01*
X27353333Y3423437D02*
X27353333Y3947247D01*
X27353333Y3423437D02*
X27305714Y3328199D01*
X27305714Y3328199D02*
X27210476Y3280580D01*
X27210476Y3280580D02*
X27067619Y3280580D01*
X27067619Y3280580D02*
X26972380Y3328199D01*
X26972380Y3328199D02*
X26924761Y3423437D01*
X26924761Y3423437D02*
X26924761Y3947247D01*
X25210476Y3947247D02*
X25686666Y3947247D01*
X25686666Y3947247D02*
X25686666Y2947247D01*
X24877142Y3423437D02*
X24543809Y3423437D01*
X24400952Y3947247D02*
X24877142Y3947247D01*
X24877142Y3947247D02*
X24877142Y2947247D01*
X24877142Y2947247D02*
X24400952Y2947247D01*
X24067618Y2947247D02*
X23400952Y3947247D01*
X23400952Y2947247D02*
X24067618Y3947247D01*
X23019999Y3947247D02*
X23019999Y2947247D01*
D12*
X34408571Y-326900D02*
X35551429Y-326900D01*
X34980000Y-898328D02*
X34980000Y244528D01*
D11*
X49616666Y7021509D02*
X49592857Y6997700D01*
X49592857Y6997700D02*
X49521428Y6973890D01*
X49521428Y6973890D02*
X49473809Y6973890D01*
X49473809Y6973890D02*
X49402381Y6997700D01*
X49402381Y6997700D02*
X49354762Y7045319D01*
X49354762Y7045319D02*
X49330952Y7092938D01*
X49330952Y7092938D02*
X49307143Y7188176D01*
X49307143Y7188176D02*
X49307143Y7259604D01*
X49307143Y7259604D02*
X49330952Y7354842D01*
X49330952Y7354842D02*
X49354762Y7402461D01*
X49354762Y7402461D02*
X49402381Y7450080D01*
X49402381Y7450080D02*
X49473809Y7473890D01*
X49473809Y7473890D02*
X49521428Y7473890D01*
X49521428Y7473890D02*
X49592857Y7450080D01*
X49592857Y7450080D02*
X49616666Y7426271D01*
X50092857Y6973890D02*
X49807143Y6973890D01*
X49950000Y6973890D02*
X49950000Y7473890D01*
X49950000Y7473890D02*
X49902381Y7402461D01*
X49902381Y7402461D02*
X49854762Y7354842D01*
X49854762Y7354842D02*
X49807143Y7331033D01*
X47116666Y4221509D02*
X47092857Y4197700D01*
X47092857Y4197700D02*
X47021428Y4173890D01*
X47021428Y4173890D02*
X46973809Y4173890D01*
X46973809Y4173890D02*
X46902381Y4197700D01*
X46902381Y4197700D02*
X46854762Y4245319D01*
X46854762Y4245319D02*
X46830952Y4292938D01*
X46830952Y4292938D02*
X46807143Y4388176D01*
X46807143Y4388176D02*
X46807143Y4459604D01*
X46807143Y4459604D02*
X46830952Y4554842D01*
X46830952Y4554842D02*
X46854762Y4602461D01*
X46854762Y4602461D02*
X46902381Y4650080D01*
X46902381Y4650080D02*
X46973809Y4673890D01*
X46973809Y4673890D02*
X47021428Y4673890D01*
X47021428Y4673890D02*
X47092857Y4650080D01*
X47092857Y4650080D02*
X47116666Y4626271D01*
X47307143Y4626271D02*
X47330952Y4650080D01*
X47330952Y4650080D02*
X47378571Y4673890D01*
X47378571Y4673890D02*
X47497619Y4673890D01*
X47497619Y4673890D02*
X47545238Y4650080D01*
X47545238Y4650080D02*
X47569047Y4626271D01*
X47569047Y4626271D02*
X47592857Y4578652D01*
X47592857Y4578652D02*
X47592857Y4531033D01*
X47592857Y4531033D02*
X47569047Y4459604D01*
X47569047Y4459604D02*
X47283333Y4173890D01*
X47283333Y4173890D02*
X47592857Y4173890D01*
X45716666Y4221509D02*
X45692857Y4197700D01*
X45692857Y4197700D02*
X45621428Y4173890D01*
X45621428Y4173890D02*
X45573809Y4173890D01*
X45573809Y4173890D02*
X45502381Y4197700D01*
X45502381Y4197700D02*
X45454762Y4245319D01*
X45454762Y4245319D02*
X45430952Y4292938D01*
X45430952Y4292938D02*
X45407143Y4388176D01*
X45407143Y4388176D02*
X45407143Y4459604D01*
X45407143Y4459604D02*
X45430952Y4554842D01*
X45430952Y4554842D02*
X45454762Y4602461D01*
X45454762Y4602461D02*
X45502381Y4650080D01*
X45502381Y4650080D02*
X45573809Y4673890D01*
X45573809Y4673890D02*
X45621428Y4673890D01*
X45621428Y4673890D02*
X45692857Y4650080D01*
X45692857Y4650080D02*
X45716666Y4626271D01*
X45883333Y4673890D02*
X46192857Y4673890D01*
X46192857Y4673890D02*
X46026190Y4483414D01*
X46026190Y4483414D02*
X46097619Y4483414D01*
X46097619Y4483414D02*
X46145238Y4459604D01*
X46145238Y4459604D02*
X46169047Y4435795D01*
X46169047Y4435795D02*
X46192857Y4388176D01*
X46192857Y4388176D02*
X46192857Y4269128D01*
X46192857Y4269128D02*
X46169047Y4221509D01*
X46169047Y4221509D02*
X46145238Y4197700D01*
X46145238Y4197700D02*
X46097619Y4173890D01*
X46097619Y4173890D02*
X45954762Y4173890D01*
X45954762Y4173890D02*
X45907143Y4197700D01*
X45907143Y4197700D02*
X45883333Y4221509D01*
X50016666Y5021509D02*
X49992857Y4997700D01*
X49992857Y4997700D02*
X49921428Y4973890D01*
X49921428Y4973890D02*
X49873809Y4973890D01*
X49873809Y4973890D02*
X49802381Y4997700D01*
X49802381Y4997700D02*
X49754762Y5045319D01*
X49754762Y5045319D02*
X49730952Y5092938D01*
X49730952Y5092938D02*
X49707143Y5188176D01*
X49707143Y5188176D02*
X49707143Y5259604D01*
X49707143Y5259604D02*
X49730952Y5354842D01*
X49730952Y5354842D02*
X49754762Y5402461D01*
X49754762Y5402461D02*
X49802381Y5450080D01*
X49802381Y5450080D02*
X49873809Y5473890D01*
X49873809Y5473890D02*
X49921428Y5473890D01*
X49921428Y5473890D02*
X49992857Y5450080D01*
X49992857Y5450080D02*
X50016666Y5426271D01*
X50445238Y5307223D02*
X50445238Y4973890D01*
X50326190Y5497700D02*
X50207143Y5140557D01*
X50207143Y5140557D02*
X50516666Y5140557D01*
X37516666Y8621509D02*
X37492857Y8597700D01*
X37492857Y8597700D02*
X37421428Y8573890D01*
X37421428Y8573890D02*
X37373809Y8573890D01*
X37373809Y8573890D02*
X37302381Y8597700D01*
X37302381Y8597700D02*
X37254762Y8645319D01*
X37254762Y8645319D02*
X37230952Y8692938D01*
X37230952Y8692938D02*
X37207143Y8788176D01*
X37207143Y8788176D02*
X37207143Y8859604D01*
X37207143Y8859604D02*
X37230952Y8954842D01*
X37230952Y8954842D02*
X37254762Y9002461D01*
X37254762Y9002461D02*
X37302381Y9050080D01*
X37302381Y9050080D02*
X37373809Y9073890D01*
X37373809Y9073890D02*
X37421428Y9073890D01*
X37421428Y9073890D02*
X37492857Y9050080D01*
X37492857Y9050080D02*
X37516666Y9026271D01*
X37683333Y9073890D02*
X38016666Y9073890D01*
X38016666Y9073890D02*
X37802381Y8573890D01*
X29716666Y8001509D02*
X29692857Y7977700D01*
X29692857Y7977700D02*
X29621428Y7953890D01*
X29621428Y7953890D02*
X29573809Y7953890D01*
X29573809Y7953890D02*
X29502381Y7977700D01*
X29502381Y7977700D02*
X29454762Y8025319D01*
X29454762Y8025319D02*
X29430952Y8072938D01*
X29430952Y8072938D02*
X29407143Y8168176D01*
X29407143Y8168176D02*
X29407143Y8239604D01*
X29407143Y8239604D02*
X29430952Y8334842D01*
X29430952Y8334842D02*
X29454762Y8382461D01*
X29454762Y8382461D02*
X29502381Y8430080D01*
X29502381Y8430080D02*
X29573809Y8453890D01*
X29573809Y8453890D02*
X29621428Y8453890D01*
X29621428Y8453890D02*
X29692857Y8430080D01*
X29692857Y8430080D02*
X29716666Y8406271D01*
X30002381Y8239604D02*
X29954762Y8263414D01*
X29954762Y8263414D02*
X29930952Y8287223D01*
X29930952Y8287223D02*
X29907143Y8334842D01*
X29907143Y8334842D02*
X29907143Y8358652D01*
X29907143Y8358652D02*
X29930952Y8406271D01*
X29930952Y8406271D02*
X29954762Y8430080D01*
X29954762Y8430080D02*
X30002381Y8453890D01*
X30002381Y8453890D02*
X30097619Y8453890D01*
X30097619Y8453890D02*
X30145238Y8430080D01*
X30145238Y8430080D02*
X30169047Y8406271D01*
X30169047Y8406271D02*
X30192857Y8358652D01*
X30192857Y8358652D02*
X30192857Y8334842D01*
X30192857Y8334842D02*
X30169047Y8287223D01*
X30169047Y8287223D02*
X30145238Y8263414D01*
X30145238Y8263414D02*
X30097619Y8239604D01*
X30097619Y8239604D02*
X30002381Y8239604D01*
X30002381Y8239604D02*
X29954762Y8215795D01*
X29954762Y8215795D02*
X29930952Y8191985D01*
X29930952Y8191985D02*
X29907143Y8144366D01*
X29907143Y8144366D02*
X29907143Y8049128D01*
X29907143Y8049128D02*
X29930952Y8001509D01*
X29930952Y8001509D02*
X29954762Y7977700D01*
X29954762Y7977700D02*
X30002381Y7953890D01*
X30002381Y7953890D02*
X30097619Y7953890D01*
X30097619Y7953890D02*
X30145238Y7977700D01*
X30145238Y7977700D02*
X30169047Y8001509D01*
X30169047Y8001509D02*
X30192857Y8049128D01*
X30192857Y8049128D02*
X30192857Y8144366D01*
X30192857Y8144366D02*
X30169047Y8191985D01*
X30169047Y8191985D02*
X30145238Y8215795D01*
X30145238Y8215795D02*
X30097619Y8239604D01*
X40716666Y4221509D02*
X40692857Y4197700D01*
X40692857Y4197700D02*
X40621428Y4173890D01*
X40621428Y4173890D02*
X40573809Y4173890D01*
X40573809Y4173890D02*
X40502381Y4197700D01*
X40502381Y4197700D02*
X40454762Y4245319D01*
X40454762Y4245319D02*
X40430952Y4292938D01*
X40430952Y4292938D02*
X40407143Y4388176D01*
X40407143Y4388176D02*
X40407143Y4459604D01*
X40407143Y4459604D02*
X40430952Y4554842D01*
X40430952Y4554842D02*
X40454762Y4602461D01*
X40454762Y4602461D02*
X40502381Y4650080D01*
X40502381Y4650080D02*
X40573809Y4673890D01*
X40573809Y4673890D02*
X40621428Y4673890D01*
X40621428Y4673890D02*
X40692857Y4650080D01*
X40692857Y4650080D02*
X40716666Y4626271D01*
X40954762Y4173890D02*
X41050000Y4173890D01*
X41050000Y4173890D02*
X41097619Y4197700D01*
X41097619Y4197700D02*
X41121428Y4221509D01*
X41121428Y4221509D02*
X41169047Y4292938D01*
X41169047Y4292938D02*
X41192857Y4388176D01*
X41192857Y4388176D02*
X41192857Y4578652D01*
X41192857Y4578652D02*
X41169047Y4626271D01*
X41169047Y4626271D02*
X41145238Y4650080D01*
X41145238Y4650080D02*
X41097619Y4673890D01*
X41097619Y4673890D02*
X41002381Y4673890D01*
X41002381Y4673890D02*
X40954762Y4650080D01*
X40954762Y4650080D02*
X40930952Y4626271D01*
X40930952Y4626271D02*
X40907143Y4578652D01*
X40907143Y4578652D02*
X40907143Y4459604D01*
X40907143Y4459604D02*
X40930952Y4411985D01*
X40930952Y4411985D02*
X40954762Y4388176D01*
X40954762Y4388176D02*
X41002381Y4364366D01*
X41002381Y4364366D02*
X41097619Y4364366D01*
X41097619Y4364366D02*
X41145238Y4388176D01*
X41145238Y4388176D02*
X41169047Y4411985D01*
X41169047Y4411985D02*
X41192857Y4459604D01*
X29418571Y6421509D02*
X29394762Y6397700D01*
X29394762Y6397700D02*
X29323333Y6373890D01*
X29323333Y6373890D02*
X29275714Y6373890D01*
X29275714Y6373890D02*
X29204286Y6397700D01*
X29204286Y6397700D02*
X29156667Y6445319D01*
X29156667Y6445319D02*
X29132857Y6492938D01*
X29132857Y6492938D02*
X29109048Y6588176D01*
X29109048Y6588176D02*
X29109048Y6659604D01*
X29109048Y6659604D02*
X29132857Y6754842D01*
X29132857Y6754842D02*
X29156667Y6802461D01*
X29156667Y6802461D02*
X29204286Y6850080D01*
X29204286Y6850080D02*
X29275714Y6873890D01*
X29275714Y6873890D02*
X29323333Y6873890D01*
X29323333Y6873890D02*
X29394762Y6850080D01*
X29394762Y6850080D02*
X29418571Y6826271D01*
X29894762Y6373890D02*
X29609048Y6373890D01*
X29751905Y6373890D02*
X29751905Y6873890D01*
X29751905Y6873890D02*
X29704286Y6802461D01*
X29704286Y6802461D02*
X29656667Y6754842D01*
X29656667Y6754842D02*
X29609048Y6731033D01*
X30204285Y6873890D02*
X30251904Y6873890D01*
X30251904Y6873890D02*
X30299523Y6850080D01*
X30299523Y6850080D02*
X30323333Y6826271D01*
X30323333Y6826271D02*
X30347142Y6778652D01*
X30347142Y6778652D02*
X30370952Y6683414D01*
X30370952Y6683414D02*
X30370952Y6564366D01*
X30370952Y6564366D02*
X30347142Y6469128D01*
X30347142Y6469128D02*
X30323333Y6421509D01*
X30323333Y6421509D02*
X30299523Y6397700D01*
X30299523Y6397700D02*
X30251904Y6373890D01*
X30251904Y6373890D02*
X30204285Y6373890D01*
X30204285Y6373890D02*
X30156666Y6397700D01*
X30156666Y6397700D02*
X30132857Y6421509D01*
X30132857Y6421509D02*
X30109047Y6469128D01*
X30109047Y6469128D02*
X30085238Y6564366D01*
X30085238Y6564366D02*
X30085238Y6683414D01*
X30085238Y6683414D02*
X30109047Y6778652D01*
X30109047Y6778652D02*
X30132857Y6826271D01*
X30132857Y6826271D02*
X30156666Y6850080D01*
X30156666Y6850080D02*
X30204285Y6873890D01*
X38878571Y8621509D02*
X38854762Y8597700D01*
X38854762Y8597700D02*
X38783333Y8573890D01*
X38783333Y8573890D02*
X38735714Y8573890D01*
X38735714Y8573890D02*
X38664286Y8597700D01*
X38664286Y8597700D02*
X38616667Y8645319D01*
X38616667Y8645319D02*
X38592857Y8692938D01*
X38592857Y8692938D02*
X38569048Y8788176D01*
X38569048Y8788176D02*
X38569048Y8859604D01*
X38569048Y8859604D02*
X38592857Y8954842D01*
X38592857Y8954842D02*
X38616667Y9002461D01*
X38616667Y9002461D02*
X38664286Y9050080D01*
X38664286Y9050080D02*
X38735714Y9073890D01*
X38735714Y9073890D02*
X38783333Y9073890D01*
X38783333Y9073890D02*
X38854762Y9050080D01*
X38854762Y9050080D02*
X38878571Y9026271D01*
X39354762Y8573890D02*
X39069048Y8573890D01*
X39211905Y8573890D02*
X39211905Y9073890D01*
X39211905Y9073890D02*
X39164286Y9002461D01*
X39164286Y9002461D02*
X39116667Y8954842D01*
X39116667Y8954842D02*
X39069048Y8931033D01*
X39830952Y8573890D02*
X39545238Y8573890D01*
X39688095Y8573890D02*
X39688095Y9073890D01*
X39688095Y9073890D02*
X39640476Y9002461D01*
X39640476Y9002461D02*
X39592857Y8954842D01*
X39592857Y8954842D02*
X39545238Y8931033D01*
X35078571Y8621509D02*
X35054762Y8597700D01*
X35054762Y8597700D02*
X34983333Y8573890D01*
X34983333Y8573890D02*
X34935714Y8573890D01*
X34935714Y8573890D02*
X34864286Y8597700D01*
X34864286Y8597700D02*
X34816667Y8645319D01*
X34816667Y8645319D02*
X34792857Y8692938D01*
X34792857Y8692938D02*
X34769048Y8788176D01*
X34769048Y8788176D02*
X34769048Y8859604D01*
X34769048Y8859604D02*
X34792857Y8954842D01*
X34792857Y8954842D02*
X34816667Y9002461D01*
X34816667Y9002461D02*
X34864286Y9050080D01*
X34864286Y9050080D02*
X34935714Y9073890D01*
X34935714Y9073890D02*
X34983333Y9073890D01*
X34983333Y9073890D02*
X35054762Y9050080D01*
X35054762Y9050080D02*
X35078571Y9026271D01*
X35554762Y8573890D02*
X35269048Y8573890D01*
X35411905Y8573890D02*
X35411905Y9073890D01*
X35411905Y9073890D02*
X35364286Y9002461D01*
X35364286Y9002461D02*
X35316667Y8954842D01*
X35316667Y8954842D02*
X35269048Y8931033D01*
X35745238Y9026271D02*
X35769047Y9050080D01*
X35769047Y9050080D02*
X35816666Y9073890D01*
X35816666Y9073890D02*
X35935714Y9073890D01*
X35935714Y9073890D02*
X35983333Y9050080D01*
X35983333Y9050080D02*
X36007142Y9026271D01*
X36007142Y9026271D02*
X36030952Y8978652D01*
X36030952Y8978652D02*
X36030952Y8931033D01*
X36030952Y8931033D02*
X36007142Y8859604D01*
X36007142Y8859604D02*
X35721428Y8573890D01*
X35721428Y8573890D02*
X36030952Y8573890D01*
X46871152Y-1738909D02*
X46871152Y-1238909D01*
X46871152Y-1238909D02*
X46990200Y-1238909D01*
X46990200Y-1238909D02*
X47061628Y-1262719D01*
X47061628Y-1262719D02*
X47109247Y-1310338D01*
X47109247Y-1310338D02*
X47133057Y-1357957D01*
X47133057Y-1357957D02*
X47156866Y-1453195D01*
X47156866Y-1453195D02*
X47156866Y-1524623D01*
X47156866Y-1524623D02*
X47133057Y-1619861D01*
X47133057Y-1619861D02*
X47109247Y-1667480D01*
X47109247Y-1667480D02*
X47061628Y-1715100D01*
X47061628Y-1715100D02*
X46990200Y-1738909D01*
X46990200Y-1738909D02*
X46871152Y-1738909D01*
X47633057Y-1738909D02*
X47347343Y-1738909D01*
X47490200Y-1738909D02*
X47490200Y-1238909D01*
X47490200Y-1238909D02*
X47442581Y-1310338D01*
X47442581Y-1310338D02*
X47394962Y-1357957D01*
X47394962Y-1357957D02*
X47347343Y-1381766D01*
X64952380Y20526271D02*
X64904761Y20550080D01*
X64904761Y20550080D02*
X64857142Y20597700D01*
X64857142Y20597700D02*
X64785714Y20669128D01*
X64785714Y20669128D02*
X64738095Y20692938D01*
X64738095Y20692938D02*
X64690476Y20692938D01*
X64714285Y20573890D02*
X64666666Y20597700D01*
X64666666Y20597700D02*
X64619047Y20645319D01*
X64619047Y20645319D02*
X64595238Y20740557D01*
X64595238Y20740557D02*
X64595238Y20907223D01*
X64595238Y20907223D02*
X64619047Y21002461D01*
X64619047Y21002461D02*
X64666666Y21050080D01*
X64666666Y21050080D02*
X64714285Y21073890D01*
X64714285Y21073890D02*
X64809523Y21073890D01*
X64809523Y21073890D02*
X64857142Y21050080D01*
X64857142Y21050080D02*
X64904761Y21002461D01*
X64904761Y21002461D02*
X64928571Y20907223D01*
X64928571Y20907223D02*
X64928571Y20740557D01*
X64928571Y20740557D02*
X64904761Y20645319D01*
X64904761Y20645319D02*
X64857142Y20597700D01*
X64857142Y20597700D02*
X64809523Y20573890D01*
X64809523Y20573890D02*
X64714285Y20573890D01*
X65214286Y20859604D02*
X65166667Y20883414D01*
X65166667Y20883414D02*
X65142857Y20907223D01*
X65142857Y20907223D02*
X65119048Y20954842D01*
X65119048Y20954842D02*
X65119048Y20978652D01*
X65119048Y20978652D02*
X65142857Y21026271D01*
X65142857Y21026271D02*
X65166667Y21050080D01*
X65166667Y21050080D02*
X65214286Y21073890D01*
X65214286Y21073890D02*
X65309524Y21073890D01*
X65309524Y21073890D02*
X65357143Y21050080D01*
X65357143Y21050080D02*
X65380952Y21026271D01*
X65380952Y21026271D02*
X65404762Y20978652D01*
X65404762Y20978652D02*
X65404762Y20954842D01*
X65404762Y20954842D02*
X65380952Y20907223D01*
X65380952Y20907223D02*
X65357143Y20883414D01*
X65357143Y20883414D02*
X65309524Y20859604D01*
X65309524Y20859604D02*
X65214286Y20859604D01*
X65214286Y20859604D02*
X65166667Y20835795D01*
X65166667Y20835795D02*
X65142857Y20811985D01*
X65142857Y20811985D02*
X65119048Y20764366D01*
X65119048Y20764366D02*
X65119048Y20669128D01*
X65119048Y20669128D02*
X65142857Y20621509D01*
X65142857Y20621509D02*
X65166667Y20597700D01*
X65166667Y20597700D02*
X65214286Y20573890D01*
X65214286Y20573890D02*
X65309524Y20573890D01*
X65309524Y20573890D02*
X65357143Y20597700D01*
X65357143Y20597700D02*
X65380952Y20621509D01*
X65380952Y20621509D02*
X65404762Y20669128D01*
X65404762Y20669128D02*
X65404762Y20764366D01*
X65404762Y20764366D02*
X65380952Y20811985D01*
X65380952Y20811985D02*
X65357143Y20835795D01*
X65357143Y20835795D02*
X65309524Y20859604D01*
X37795238Y21673890D02*
X37795238Y21316747D01*
X37795238Y21316747D02*
X37771429Y21245319D01*
X37771429Y21245319D02*
X37723810Y21197700D01*
X37723810Y21197700D02*
X37652381Y21173890D01*
X37652381Y21173890D02*
X37604762Y21173890D01*
X38295238Y21173890D02*
X38009524Y21173890D01*
X38152381Y21173890D02*
X38152381Y21673890D01*
X38152381Y21673890D02*
X38104762Y21602461D01*
X38104762Y21602461D02*
X38057143Y21554842D01*
X38057143Y21554842D02*
X38009524Y21531033D01*
X38771428Y21173890D02*
X38485714Y21173890D01*
X38628571Y21173890D02*
X38628571Y21673890D01*
X38628571Y21673890D02*
X38580952Y21602461D01*
X38580952Y21602461D02*
X38533333Y21554842D01*
X38533333Y21554842D02*
X38485714Y21531033D01*
X66891666Y3003890D02*
X66725000Y3241985D01*
X66605952Y3003890D02*
X66605952Y3503890D01*
X66605952Y3503890D02*
X66796428Y3503890D01*
X66796428Y3503890D02*
X66844047Y3480080D01*
X66844047Y3480080D02*
X66867857Y3456271D01*
X66867857Y3456271D02*
X66891666Y3408652D01*
X66891666Y3408652D02*
X66891666Y3337223D01*
X66891666Y3337223D02*
X66867857Y3289604D01*
X66867857Y3289604D02*
X66844047Y3265795D01*
X66844047Y3265795D02*
X66796428Y3241985D01*
X66796428Y3241985D02*
X66605952Y3241985D01*
X67320238Y3503890D02*
X67225000Y3503890D01*
X67225000Y3503890D02*
X67177381Y3480080D01*
X67177381Y3480080D02*
X67153571Y3456271D01*
X67153571Y3456271D02*
X67105952Y3384842D01*
X67105952Y3384842D02*
X67082143Y3289604D01*
X67082143Y3289604D02*
X67082143Y3099128D01*
X67082143Y3099128D02*
X67105952Y3051509D01*
X67105952Y3051509D02*
X67129762Y3027700D01*
X67129762Y3027700D02*
X67177381Y3003890D01*
X67177381Y3003890D02*
X67272619Y3003890D01*
X67272619Y3003890D02*
X67320238Y3027700D01*
X67320238Y3027700D02*
X67344047Y3051509D01*
X67344047Y3051509D02*
X67367857Y3099128D01*
X67367857Y3099128D02*
X67367857Y3218176D01*
X67367857Y3218176D02*
X67344047Y3265795D01*
X67344047Y3265795D02*
X67320238Y3289604D01*
X67320238Y3289604D02*
X67272619Y3313414D01*
X67272619Y3313414D02*
X67177381Y3313414D01*
X67177381Y3313414D02*
X67129762Y3289604D01*
X67129762Y3289604D02*
X67105952Y3265795D01*
X67105952Y3265795D02*
X67082143Y3218176D01*
D13*
X51138095Y4345180D02*
X51709523Y4345180D01*
X51423809Y3345180D02*
X51423809Y4345180D01*
X52042857Y3345180D02*
X52042857Y4345180D01*
X52042857Y4345180D02*
X52423809Y4345180D01*
X52423809Y4345180D02*
X52519047Y4297561D01*
X52519047Y4297561D02*
X52566666Y4249942D01*
X52566666Y4249942D02*
X52614285Y4154704D01*
X52614285Y4154704D02*
X52614285Y4011847D01*
X52614285Y4011847D02*
X52566666Y3916609D01*
X52566666Y3916609D02*
X52519047Y3868990D01*
X52519047Y3868990D02*
X52423809Y3821371D01*
X52423809Y3821371D02*
X52042857Y3821371D01*
X53471428Y4011847D02*
X53471428Y3345180D01*
X53233333Y4392800D02*
X52995238Y3678514D01*
X52995238Y3678514D02*
X53614285Y3678514D01*
D11*
X64077380Y7456271D02*
X64029761Y7480080D01*
X64029761Y7480080D02*
X63982142Y7527700D01*
X63982142Y7527700D02*
X63910714Y7599128D01*
X63910714Y7599128D02*
X63863095Y7622938D01*
X63863095Y7622938D02*
X63815476Y7622938D01*
X63839285Y7503890D02*
X63791666Y7527700D01*
X63791666Y7527700D02*
X63744047Y7575319D01*
X63744047Y7575319D02*
X63720238Y7670557D01*
X63720238Y7670557D02*
X63720238Y7837223D01*
X63720238Y7837223D02*
X63744047Y7932461D01*
X63744047Y7932461D02*
X63791666Y7980080D01*
X63791666Y7980080D02*
X63839285Y8003890D01*
X63839285Y8003890D02*
X63934523Y8003890D01*
X63934523Y8003890D02*
X63982142Y7980080D01*
X63982142Y7980080D02*
X64029761Y7932461D01*
X64029761Y7932461D02*
X64053571Y7837223D01*
X64053571Y7837223D02*
X64053571Y7670557D01*
X64053571Y7670557D02*
X64029761Y7575319D01*
X64029761Y7575319D02*
X63982142Y7527700D01*
X63982142Y7527700D02*
X63934523Y7503890D01*
X63934523Y7503890D02*
X63839285Y7503890D01*
X64505952Y8003890D02*
X64267857Y8003890D01*
X64267857Y8003890D02*
X64244048Y7765795D01*
X64244048Y7765795D02*
X64267857Y7789604D01*
X64267857Y7789604D02*
X64315476Y7813414D01*
X64315476Y7813414D02*
X64434524Y7813414D01*
X64434524Y7813414D02*
X64482143Y7789604D01*
X64482143Y7789604D02*
X64505952Y7765795D01*
X64505952Y7765795D02*
X64529762Y7718176D01*
X64529762Y7718176D02*
X64529762Y7599128D01*
X64529762Y7599128D02*
X64505952Y7551509D01*
X64505952Y7551509D02*
X64482143Y7527700D01*
X64482143Y7527700D02*
X64434524Y7503890D01*
X64434524Y7503890D02*
X64315476Y7503890D01*
X64315476Y7503890D02*
X64267857Y7527700D01*
X64267857Y7527700D02*
X64244048Y7551509D01*
X63416666Y16473890D02*
X63250000Y16711985D01*
X63130952Y16473890D02*
X63130952Y16973890D01*
X63130952Y16973890D02*
X63321428Y16973890D01*
X63321428Y16973890D02*
X63369047Y16950080D01*
X63369047Y16950080D02*
X63392857Y16926271D01*
X63392857Y16926271D02*
X63416666Y16878652D01*
X63416666Y16878652D02*
X63416666Y16807223D01*
X63416666Y16807223D02*
X63392857Y16759604D01*
X63392857Y16759604D02*
X63369047Y16735795D01*
X63369047Y16735795D02*
X63321428Y16711985D01*
X63321428Y16711985D02*
X63130952Y16711985D01*
X63583333Y16973890D02*
X63916666Y16973890D01*
X63916666Y16973890D02*
X63702381Y16473890D01*
X25019047Y8473890D02*
X25019047Y8069128D01*
X25019047Y8069128D02*
X25042857Y8021509D01*
X25042857Y8021509D02*
X25066666Y7997700D01*
X25066666Y7997700D02*
X25114285Y7973890D01*
X25114285Y7973890D02*
X25209523Y7973890D01*
X25209523Y7973890D02*
X25257142Y7997700D01*
X25257142Y7997700D02*
X25280952Y8021509D01*
X25280952Y8021509D02*
X25304761Y8069128D01*
X25304761Y8069128D02*
X25304761Y8473890D01*
X25804762Y7973890D02*
X25519048Y7973890D01*
X25661905Y7973890D02*
X25661905Y8473890D01*
X25661905Y8473890D02*
X25614286Y8402461D01*
X25614286Y8402461D02*
X25566667Y8354842D01*
X25566667Y8354842D02*
X25519048Y8331033D01*
X60078571Y21021509D02*
X60054762Y20997700D01*
X60054762Y20997700D02*
X59983333Y20973890D01*
X59983333Y20973890D02*
X59935714Y20973890D01*
X59935714Y20973890D02*
X59864286Y20997700D01*
X59864286Y20997700D02*
X59816667Y21045319D01*
X59816667Y21045319D02*
X59792857Y21092938D01*
X59792857Y21092938D02*
X59769048Y21188176D01*
X59769048Y21188176D02*
X59769048Y21259604D01*
X59769048Y21259604D02*
X59792857Y21354842D01*
X59792857Y21354842D02*
X59816667Y21402461D01*
X59816667Y21402461D02*
X59864286Y21450080D01*
X59864286Y21450080D02*
X59935714Y21473890D01*
X59935714Y21473890D02*
X59983333Y21473890D01*
X59983333Y21473890D02*
X60054762Y21450080D01*
X60054762Y21450080D02*
X60078571Y21426271D01*
X60554762Y20973890D02*
X60269048Y20973890D01*
X60411905Y20973890D02*
X60411905Y21473890D01*
X60411905Y21473890D02*
X60364286Y21402461D01*
X60364286Y21402461D02*
X60316667Y21354842D01*
X60316667Y21354842D02*
X60269048Y21331033D01*
X60983333Y21473890D02*
X60888095Y21473890D01*
X60888095Y21473890D02*
X60840476Y21450080D01*
X60840476Y21450080D02*
X60816666Y21426271D01*
X60816666Y21426271D02*
X60769047Y21354842D01*
X60769047Y21354842D02*
X60745238Y21259604D01*
X60745238Y21259604D02*
X60745238Y21069128D01*
X60745238Y21069128D02*
X60769047Y21021509D01*
X60769047Y21021509D02*
X60792857Y20997700D01*
X60792857Y20997700D02*
X60840476Y20973890D01*
X60840476Y20973890D02*
X60935714Y20973890D01*
X60935714Y20973890D02*
X60983333Y20997700D01*
X60983333Y20997700D02*
X61007142Y21021509D01*
X61007142Y21021509D02*
X61030952Y21069128D01*
X61030952Y21069128D02*
X61030952Y21188176D01*
X61030952Y21188176D02*
X61007142Y21235795D01*
X61007142Y21235795D02*
X60983333Y21259604D01*
X60983333Y21259604D02*
X60935714Y21283414D01*
X60935714Y21283414D02*
X60840476Y21283414D01*
X60840476Y21283414D02*
X60792857Y21259604D01*
X60792857Y21259604D02*
X60769047Y21235795D01*
X60769047Y21235795D02*
X60745238Y21188176D01*
X66103571Y12821509D02*
X66079762Y12797700D01*
X66079762Y12797700D02*
X66008333Y12773890D01*
X66008333Y12773890D02*
X65960714Y12773890D01*
X65960714Y12773890D02*
X65889286Y12797700D01*
X65889286Y12797700D02*
X65841667Y12845319D01*
X65841667Y12845319D02*
X65817857Y12892938D01*
X65817857Y12892938D02*
X65794048Y12988176D01*
X65794048Y12988176D02*
X65794048Y13059604D01*
X65794048Y13059604D02*
X65817857Y13154842D01*
X65817857Y13154842D02*
X65841667Y13202461D01*
X65841667Y13202461D02*
X65889286Y13250080D01*
X65889286Y13250080D02*
X65960714Y13273890D01*
X65960714Y13273890D02*
X66008333Y13273890D01*
X66008333Y13273890D02*
X66079762Y13250080D01*
X66079762Y13250080D02*
X66103571Y13226271D01*
X66579762Y12773890D02*
X66294048Y12773890D01*
X66436905Y12773890D02*
X66436905Y13273890D01*
X66436905Y13273890D02*
X66389286Y13202461D01*
X66389286Y13202461D02*
X66341667Y13154842D01*
X66341667Y13154842D02*
X66294048Y13131033D01*
X66746428Y13273890D02*
X67079761Y13273890D01*
X67079761Y13273890D02*
X66865476Y12773890D01*
X14491543Y18882595D02*
X14562971Y18858785D01*
X14562971Y18858785D02*
X14586781Y18834976D01*
X14586781Y18834976D02*
X14610590Y18787357D01*
X14610590Y18787357D02*
X14610590Y18715928D01*
X14610590Y18715928D02*
X14586781Y18668309D01*
X14586781Y18668309D02*
X14562971Y18644500D01*
X14562971Y18644500D02*
X14515352Y18620690D01*
X14515352Y18620690D02*
X14324876Y18620690D01*
X14324876Y18620690D02*
X14324876Y19120690D01*
X14324876Y19120690D02*
X14491543Y19120690D01*
X14491543Y19120690D02*
X14539162Y19096880D01*
X14539162Y19096880D02*
X14562971Y19073071D01*
X14562971Y19073071D02*
X14586781Y19025452D01*
X14586781Y19025452D02*
X14586781Y18977833D01*
X14586781Y18977833D02*
X14562971Y18930214D01*
X14562971Y18930214D02*
X14539162Y18906404D01*
X14539162Y18906404D02*
X14491543Y18882595D01*
X14491543Y18882595D02*
X14324876Y18882595D01*
X14753448Y19120690D02*
X15039162Y19120690D01*
X14896305Y18620690D02*
X14896305Y19120690D01*
X15467733Y18620690D02*
X15182019Y18620690D01*
X15324876Y18620690D02*
X15324876Y19120690D01*
X15324876Y19120690D02*
X15277257Y19049261D01*
X15277257Y19049261D02*
X15229638Y19001642D01*
X15229638Y19001642D02*
X15182019Y18977833D01*
D14*
X14699600Y19761342D02*
X14699600Y22047057D01*
X15842457Y20904199D02*
X13556742Y20904199D01*
D11*
X67916666Y6773890D02*
X67750000Y7011985D01*
X67630952Y6773890D02*
X67630952Y7273890D01*
X67630952Y7273890D02*
X67821428Y7273890D01*
X67821428Y7273890D02*
X67869047Y7250080D01*
X67869047Y7250080D02*
X67892857Y7226271D01*
X67892857Y7226271D02*
X67916666Y7178652D01*
X67916666Y7178652D02*
X67916666Y7107223D01*
X67916666Y7107223D02*
X67892857Y7059604D01*
X67892857Y7059604D02*
X67869047Y7035795D01*
X67869047Y7035795D02*
X67821428Y7011985D01*
X67821428Y7011985D02*
X67630952Y7011985D01*
X68202381Y7059604D02*
X68154762Y7083414D01*
X68154762Y7083414D02*
X68130952Y7107223D01*
X68130952Y7107223D02*
X68107143Y7154842D01*
X68107143Y7154842D02*
X68107143Y7178652D01*
X68107143Y7178652D02*
X68130952Y7226271D01*
X68130952Y7226271D02*
X68154762Y7250080D01*
X68154762Y7250080D02*
X68202381Y7273890D01*
X68202381Y7273890D02*
X68297619Y7273890D01*
X68297619Y7273890D02*
X68345238Y7250080D01*
X68345238Y7250080D02*
X68369047Y7226271D01*
X68369047Y7226271D02*
X68392857Y7178652D01*
X68392857Y7178652D02*
X68392857Y7154842D01*
X68392857Y7154842D02*
X68369047Y7107223D01*
X68369047Y7107223D02*
X68345238Y7083414D01*
X68345238Y7083414D02*
X68297619Y7059604D01*
X68297619Y7059604D02*
X68202381Y7059604D01*
X68202381Y7059604D02*
X68154762Y7035795D01*
X68154762Y7035795D02*
X68130952Y7011985D01*
X68130952Y7011985D02*
X68107143Y6964366D01*
X68107143Y6964366D02*
X68107143Y6869128D01*
X68107143Y6869128D02*
X68130952Y6821509D01*
X68130952Y6821509D02*
X68154762Y6797700D01*
X68154762Y6797700D02*
X68202381Y6773890D01*
X68202381Y6773890D02*
X68297619Y6773890D01*
X68297619Y6773890D02*
X68345238Y6797700D01*
X68345238Y6797700D02*
X68369047Y6821509D01*
X68369047Y6821509D02*
X68392857Y6869128D01*
X68392857Y6869128D02*
X68392857Y6964366D01*
X68392857Y6964366D02*
X68369047Y7011985D01*
X68369047Y7011985D02*
X68345238Y7035795D01*
X68345238Y7035795D02*
X68297619Y7059604D01*
X57116666Y10573890D02*
X56950000Y10811985D01*
X56830952Y10573890D02*
X56830952Y11073890D01*
X56830952Y11073890D02*
X57021428Y11073890D01*
X57021428Y11073890D02*
X57069047Y11050080D01*
X57069047Y11050080D02*
X57092857Y11026271D01*
X57092857Y11026271D02*
X57116666Y10978652D01*
X57116666Y10978652D02*
X57116666Y10907223D01*
X57116666Y10907223D02*
X57092857Y10859604D01*
X57092857Y10859604D02*
X57069047Y10835795D01*
X57069047Y10835795D02*
X57021428Y10811985D01*
X57021428Y10811985D02*
X56830952Y10811985D01*
X57354762Y10573890D02*
X57450000Y10573890D01*
X57450000Y10573890D02*
X57497619Y10597700D01*
X57497619Y10597700D02*
X57521428Y10621509D01*
X57521428Y10621509D02*
X57569047Y10692938D01*
X57569047Y10692938D02*
X57592857Y10788176D01*
X57592857Y10788176D02*
X57592857Y10978652D01*
X57592857Y10978652D02*
X57569047Y11026271D01*
X57569047Y11026271D02*
X57545238Y11050080D01*
X57545238Y11050080D02*
X57497619Y11073890D01*
X57497619Y11073890D02*
X57402381Y11073890D01*
X57402381Y11073890D02*
X57354762Y11050080D01*
X57354762Y11050080D02*
X57330952Y11026271D01*
X57330952Y11026271D02*
X57307143Y10978652D01*
X57307143Y10978652D02*
X57307143Y10859604D01*
X57307143Y10859604D02*
X57330952Y10811985D01*
X57330952Y10811985D02*
X57354762Y10788176D01*
X57354762Y10788176D02*
X57402381Y10764366D01*
X57402381Y10764366D02*
X57497619Y10764366D01*
X57497619Y10764366D02*
X57545238Y10788176D01*
X57545238Y10788176D02*
X57569047Y10811985D01*
X57569047Y10811985D02*
X57592857Y10859604D01*
X60937380Y19126271D02*
X60889761Y19150080D01*
X60889761Y19150080D02*
X60842142Y19197700D01*
X60842142Y19197700D02*
X60770714Y19269128D01*
X60770714Y19269128D02*
X60723095Y19292938D01*
X60723095Y19292938D02*
X60675476Y19292938D01*
X60699285Y19173890D02*
X60651666Y19197700D01*
X60651666Y19197700D02*
X60604047Y19245319D01*
X60604047Y19245319D02*
X60580238Y19340557D01*
X60580238Y19340557D02*
X60580238Y19507223D01*
X60580238Y19507223D02*
X60604047Y19602461D01*
X60604047Y19602461D02*
X60651666Y19650080D01*
X60651666Y19650080D02*
X60699285Y19673890D01*
X60699285Y19673890D02*
X60794523Y19673890D01*
X60794523Y19673890D02*
X60842142Y19650080D01*
X60842142Y19650080D02*
X60889761Y19602461D01*
X60889761Y19602461D02*
X60913571Y19507223D01*
X60913571Y19507223D02*
X60913571Y19340557D01*
X60913571Y19340557D02*
X60889761Y19245319D01*
X60889761Y19245319D02*
X60842142Y19197700D01*
X60842142Y19197700D02*
X60794523Y19173890D01*
X60794523Y19173890D02*
X60699285Y19173890D01*
X61389762Y19173890D02*
X61104048Y19173890D01*
X61246905Y19173890D02*
X61246905Y19673890D01*
X61246905Y19673890D02*
X61199286Y19602461D01*
X61199286Y19602461D02*
X61151667Y19554842D01*
X61151667Y19554842D02*
X61104048Y19531033D01*
X69206666Y18733890D02*
X69040000Y18971985D01*
X68920952Y18733890D02*
X68920952Y19233890D01*
X68920952Y19233890D02*
X69111428Y19233890D01*
X69111428Y19233890D02*
X69159047Y19210080D01*
X69159047Y19210080D02*
X69182857Y19186271D01*
X69182857Y19186271D02*
X69206666Y19138652D01*
X69206666Y19138652D02*
X69206666Y19067223D01*
X69206666Y19067223D02*
X69182857Y19019604D01*
X69182857Y19019604D02*
X69159047Y18995795D01*
X69159047Y18995795D02*
X69111428Y18971985D01*
X69111428Y18971985D02*
X68920952Y18971985D01*
X69397143Y19186271D02*
X69420952Y19210080D01*
X69420952Y19210080D02*
X69468571Y19233890D01*
X69468571Y19233890D02*
X69587619Y19233890D01*
X69587619Y19233890D02*
X69635238Y19210080D01*
X69635238Y19210080D02*
X69659047Y19186271D01*
X69659047Y19186271D02*
X69682857Y19138652D01*
X69682857Y19138652D02*
X69682857Y19091033D01*
X69682857Y19091033D02*
X69659047Y19019604D01*
X69659047Y19019604D02*
X69373333Y18733890D01*
X69373333Y18733890D02*
X69682857Y18733890D01*
X64964880Y5446271D02*
X64917261Y5470080D01*
X64917261Y5470080D02*
X64869642Y5517700D01*
X64869642Y5517700D02*
X64798214Y5589128D01*
X64798214Y5589128D02*
X64750595Y5612938D01*
X64750595Y5612938D02*
X64702976Y5612938D01*
X64726785Y5493890D02*
X64679166Y5517700D01*
X64679166Y5517700D02*
X64631547Y5565319D01*
X64631547Y5565319D02*
X64607738Y5660557D01*
X64607738Y5660557D02*
X64607738Y5827223D01*
X64607738Y5827223D02*
X64631547Y5922461D01*
X64631547Y5922461D02*
X64679166Y5970080D01*
X64679166Y5970080D02*
X64726785Y5993890D01*
X64726785Y5993890D02*
X64822023Y5993890D01*
X64822023Y5993890D02*
X64869642Y5970080D01*
X64869642Y5970080D02*
X64917261Y5922461D01*
X64917261Y5922461D02*
X64941071Y5827223D01*
X64941071Y5827223D02*
X64941071Y5660557D01*
X64941071Y5660557D02*
X64917261Y5565319D01*
X64917261Y5565319D02*
X64869642Y5517700D01*
X64869642Y5517700D02*
X64822023Y5493890D01*
X64822023Y5493890D02*
X64726785Y5493890D01*
X65131548Y5946271D02*
X65155357Y5970080D01*
X65155357Y5970080D02*
X65202976Y5993890D01*
X65202976Y5993890D02*
X65322024Y5993890D01*
X65322024Y5993890D02*
X65369643Y5970080D01*
X65369643Y5970080D02*
X65393452Y5946271D01*
X65393452Y5946271D02*
X65417262Y5898652D01*
X65417262Y5898652D02*
X65417262Y5851033D01*
X65417262Y5851033D02*
X65393452Y5779604D01*
X65393452Y5779604D02*
X65107738Y5493890D01*
X65107738Y5493890D02*
X65417262Y5493890D01*
X62614880Y9626271D02*
X62567261Y9650080D01*
X62567261Y9650080D02*
X62519642Y9697700D01*
X62519642Y9697700D02*
X62448214Y9769128D01*
X62448214Y9769128D02*
X62400595Y9792938D01*
X62400595Y9792938D02*
X62352976Y9792938D01*
X62376785Y9673890D02*
X62329166Y9697700D01*
X62329166Y9697700D02*
X62281547Y9745319D01*
X62281547Y9745319D02*
X62257738Y9840557D01*
X62257738Y9840557D02*
X62257738Y10007223D01*
X62257738Y10007223D02*
X62281547Y10102461D01*
X62281547Y10102461D02*
X62329166Y10150080D01*
X62329166Y10150080D02*
X62376785Y10173890D01*
X62376785Y10173890D02*
X62472023Y10173890D01*
X62472023Y10173890D02*
X62519642Y10150080D01*
X62519642Y10150080D02*
X62567261Y10102461D01*
X62567261Y10102461D02*
X62591071Y10007223D01*
X62591071Y10007223D02*
X62591071Y9840557D01*
X62591071Y9840557D02*
X62567261Y9745319D01*
X62567261Y9745319D02*
X62519642Y9697700D01*
X62519642Y9697700D02*
X62472023Y9673890D01*
X62472023Y9673890D02*
X62376785Y9673890D01*
X63019643Y10173890D02*
X62924405Y10173890D01*
X62924405Y10173890D02*
X62876786Y10150080D01*
X62876786Y10150080D02*
X62852976Y10126271D01*
X62852976Y10126271D02*
X62805357Y10054842D01*
X62805357Y10054842D02*
X62781548Y9959604D01*
X62781548Y9959604D02*
X62781548Y9769128D01*
X62781548Y9769128D02*
X62805357Y9721509D01*
X62805357Y9721509D02*
X62829167Y9697700D01*
X62829167Y9697700D02*
X62876786Y9673890D01*
X62876786Y9673890D02*
X62972024Y9673890D01*
X62972024Y9673890D02*
X63019643Y9697700D01*
X63019643Y9697700D02*
X63043452Y9721509D01*
X63043452Y9721509D02*
X63067262Y9769128D01*
X63067262Y9769128D02*
X63067262Y9888176D01*
X63067262Y9888176D02*
X63043452Y9935795D01*
X63043452Y9935795D02*
X63019643Y9959604D01*
X63019643Y9959604D02*
X62972024Y9983414D01*
X62972024Y9983414D02*
X62876786Y9983414D01*
X62876786Y9983414D02*
X62829167Y9959604D01*
X62829167Y9959604D02*
X62805357Y9935795D01*
X62805357Y9935795D02*
X62781548Y9888176D01*
X42478571Y4221509D02*
X42454762Y4197700D01*
X42454762Y4197700D02*
X42383333Y4173890D01*
X42383333Y4173890D02*
X42335714Y4173890D01*
X42335714Y4173890D02*
X42264286Y4197700D01*
X42264286Y4197700D02*
X42216667Y4245319D01*
X42216667Y4245319D02*
X42192857Y4292938D01*
X42192857Y4292938D02*
X42169048Y4388176D01*
X42169048Y4388176D02*
X42169048Y4459604D01*
X42169048Y4459604D02*
X42192857Y4554842D01*
X42192857Y4554842D02*
X42216667Y4602461D01*
X42216667Y4602461D02*
X42264286Y4650080D01*
X42264286Y4650080D02*
X42335714Y4673890D01*
X42335714Y4673890D02*
X42383333Y4673890D01*
X42383333Y4673890D02*
X42454762Y4650080D01*
X42454762Y4650080D02*
X42478571Y4626271D01*
X42954762Y4173890D02*
X42669048Y4173890D01*
X42811905Y4173890D02*
X42811905Y4673890D01*
X42811905Y4673890D02*
X42764286Y4602461D01*
X42764286Y4602461D02*
X42716667Y4554842D01*
X42716667Y4554842D02*
X42669048Y4531033D01*
X43407142Y4673890D02*
X43169047Y4673890D01*
X43169047Y4673890D02*
X43145238Y4435795D01*
X43145238Y4435795D02*
X43169047Y4459604D01*
X43169047Y4459604D02*
X43216666Y4483414D01*
X43216666Y4483414D02*
X43335714Y4483414D01*
X43335714Y4483414D02*
X43383333Y4459604D01*
X43383333Y4459604D02*
X43407142Y4435795D01*
X43407142Y4435795D02*
X43430952Y4388176D01*
X43430952Y4388176D02*
X43430952Y4269128D01*
X43430952Y4269128D02*
X43407142Y4221509D01*
X43407142Y4221509D02*
X43383333Y4197700D01*
X43383333Y4197700D02*
X43335714Y4173890D01*
X43335714Y4173890D02*
X43216666Y4173890D01*
X43216666Y4173890D02*
X43169047Y4197700D01*
X43169047Y4197700D02*
X43145238Y4221509D01*
X69430952Y20573890D02*
X69430952Y21073890D01*
X69430952Y21073890D02*
X69550000Y21073890D01*
X69550000Y21073890D02*
X69621428Y21050080D01*
X69621428Y21050080D02*
X69669047Y21002461D01*
X69669047Y21002461D02*
X69692857Y20954842D01*
X69692857Y20954842D02*
X69716666Y20859604D01*
X69716666Y20859604D02*
X69716666Y20788176D01*
X69716666Y20788176D02*
X69692857Y20692938D01*
X69692857Y20692938D02*
X69669047Y20645319D01*
X69669047Y20645319D02*
X69621428Y20597700D01*
X69621428Y20597700D02*
X69550000Y20573890D01*
X69550000Y20573890D02*
X69430952Y20573890D01*
X69907143Y21026271D02*
X69930952Y21050080D01*
X69930952Y21050080D02*
X69978571Y21073890D01*
X69978571Y21073890D02*
X70097619Y21073890D01*
X70097619Y21073890D02*
X70145238Y21050080D01*
X70145238Y21050080D02*
X70169047Y21026271D01*
X70169047Y21026271D02*
X70192857Y20978652D01*
X70192857Y20978652D02*
X70192857Y20931033D01*
X70192857Y20931033D02*
X70169047Y20859604D01*
X70169047Y20859604D02*
X69883333Y20573890D01*
X69883333Y20573890D02*
X70192857Y20573890D01*
X64427380Y14146271D02*
X64379761Y14170080D01*
X64379761Y14170080D02*
X64332142Y14217700D01*
X64332142Y14217700D02*
X64260714Y14289128D01*
X64260714Y14289128D02*
X64213095Y14312938D01*
X64213095Y14312938D02*
X64165476Y14312938D01*
X64189285Y14193890D02*
X64141666Y14217700D01*
X64141666Y14217700D02*
X64094047Y14265319D01*
X64094047Y14265319D02*
X64070238Y14360557D01*
X64070238Y14360557D02*
X64070238Y14527223D01*
X64070238Y14527223D02*
X64094047Y14622461D01*
X64094047Y14622461D02*
X64141666Y14670080D01*
X64141666Y14670080D02*
X64189285Y14693890D01*
X64189285Y14693890D02*
X64284523Y14693890D01*
X64284523Y14693890D02*
X64332142Y14670080D01*
X64332142Y14670080D02*
X64379761Y14622461D01*
X64379761Y14622461D02*
X64403571Y14527223D01*
X64403571Y14527223D02*
X64403571Y14360557D01*
X64403571Y14360557D02*
X64379761Y14265319D01*
X64379761Y14265319D02*
X64332142Y14217700D01*
X64332142Y14217700D02*
X64284523Y14193890D01*
X64284523Y14193890D02*
X64189285Y14193890D01*
X64832143Y14527223D02*
X64832143Y14193890D01*
X64713095Y14717700D02*
X64594048Y14360557D01*
X64594048Y14360557D02*
X64903571Y14360557D01*
X68316666Y16373890D02*
X68150000Y16611985D01*
X68030952Y16373890D02*
X68030952Y16873890D01*
X68030952Y16873890D02*
X68221428Y16873890D01*
X68221428Y16873890D02*
X68269047Y16850080D01*
X68269047Y16850080D02*
X68292857Y16826271D01*
X68292857Y16826271D02*
X68316666Y16778652D01*
X68316666Y16778652D02*
X68316666Y16707223D01*
X68316666Y16707223D02*
X68292857Y16659604D01*
X68292857Y16659604D02*
X68269047Y16635795D01*
X68269047Y16635795D02*
X68221428Y16611985D01*
X68221428Y16611985D02*
X68030952Y16611985D01*
X68769047Y16873890D02*
X68530952Y16873890D01*
X68530952Y16873890D02*
X68507143Y16635795D01*
X68507143Y16635795D02*
X68530952Y16659604D01*
X68530952Y16659604D02*
X68578571Y16683414D01*
X68578571Y16683414D02*
X68697619Y16683414D01*
X68697619Y16683414D02*
X68745238Y16659604D01*
X68745238Y16659604D02*
X68769047Y16635795D01*
X68769047Y16635795D02*
X68792857Y16588176D01*
X68792857Y16588176D02*
X68792857Y16469128D01*
X68792857Y16469128D02*
X68769047Y16421509D01*
X68769047Y16421509D02*
X68745238Y16397700D01*
X68745238Y16397700D02*
X68697619Y16373890D01*
X68697619Y16373890D02*
X68578571Y16373890D01*
X68578571Y16373890D02*
X68530952Y16397700D01*
X68530952Y16397700D02*
X68507143Y16421509D01*
X51350880Y-1543728D02*
X51303261Y-1519919D01*
X51303261Y-1519919D02*
X51255642Y-1472300D01*
X51255642Y-1472300D02*
X51184214Y-1400871D01*
X51184214Y-1400871D02*
X51136595Y-1377061D01*
X51136595Y-1377061D02*
X51088976Y-1377061D01*
X51112785Y-1496109D02*
X51065166Y-1472300D01*
X51065166Y-1472300D02*
X51017547Y-1424680D01*
X51017547Y-1424680D02*
X50993738Y-1329442D01*
X50993738Y-1329442D02*
X50993738Y-1162776D01*
X50993738Y-1162776D02*
X51017547Y-1067538D01*
X51017547Y-1067538D02*
X51065166Y-1019919D01*
X51065166Y-1019919D02*
X51112785Y-996109D01*
X51112785Y-996109D02*
X51208023Y-996109D01*
X51208023Y-996109D02*
X51255642Y-1019919D01*
X51255642Y-1019919D02*
X51303261Y-1067538D01*
X51303261Y-1067538D02*
X51327071Y-1162776D01*
X51327071Y-1162776D02*
X51327071Y-1329442D01*
X51327071Y-1329442D02*
X51303261Y-1424680D01*
X51303261Y-1424680D02*
X51255642Y-1472300D01*
X51255642Y-1472300D02*
X51208023Y-1496109D01*
X51208023Y-1496109D02*
X51112785Y-1496109D01*
X51493738Y-996109D02*
X51803262Y-996109D01*
X51803262Y-996109D02*
X51636595Y-1186585D01*
X51636595Y-1186585D02*
X51708024Y-1186585D01*
X51708024Y-1186585D02*
X51755643Y-1210395D01*
X51755643Y-1210395D02*
X51779452Y-1234204D01*
X51779452Y-1234204D02*
X51803262Y-1281823D01*
X51803262Y-1281823D02*
X51803262Y-1400871D01*
X51803262Y-1400871D02*
X51779452Y-1448490D01*
X51779452Y-1448490D02*
X51755643Y-1472300D01*
X51755643Y-1472300D02*
X51708024Y-1496109D01*
X51708024Y-1496109D02*
X51565167Y-1496109D01*
X51565167Y-1496109D02*
X51517548Y-1472300D01*
X51517548Y-1472300D02*
X51493738Y-1448490D01*
D15*
%TO.C,C1*%
X47890000Y6259420D02*
X47890000Y6540580D01*
X48910000Y6259420D02*
X48910000Y6540580D01*
%TO.C,C2*%
X46290000Y6259420D02*
X46290000Y6540580D01*
X47310000Y6259420D02*
X47310000Y6540580D01*
%TO.C,C3*%
X44690000Y6259420D02*
X44690000Y6540580D01*
X45710000Y6259420D02*
X45710000Y6540580D01*
%TO.C,C4*%
X49340000Y3209420D02*
X49340000Y3490580D01*
X50360000Y3209420D02*
X50360000Y3490580D01*
%TO.C,C6*%
X36065000Y3560000D02*
X36065000Y-2760000D01*
X36065000Y-2760000D02*
X44250000Y-2760000D01*
X44250000Y3560000D02*
X36065000Y3560000D01*
%TO.C,C7*%
X36990000Y6584420D02*
X36990000Y6865580D01*
X38010000Y6584420D02*
X38010000Y6865580D01*
%TO.C,C8*%
X31884420Y8684800D02*
X32165580Y8684800D01*
X31884420Y7664800D02*
X32165580Y7664800D01*
%TO.C,C9*%
X40359420Y6010000D02*
X40640580Y6010000D01*
X40359420Y4990000D02*
X40640580Y4990000D01*
%TO.C,C10*%
X31884420Y7110000D02*
X32165580Y7110000D01*
X31884420Y6090000D02*
X32165580Y6090000D01*
%TO.C,C11*%
X40359420Y8010000D02*
X40640580Y8010000D01*
X40359420Y6990000D02*
X40640580Y6990000D01*
%TO.C,C12*%
X34990000Y6584420D02*
X34990000Y6865580D01*
X36010000Y6584420D02*
X36010000Y6865580D01*
%TO.C,Q8*%
X61987500Y21160000D02*
X63662500Y21160000D01*
X63012500Y18040000D02*
X63662500Y18040000D01*
X64312500Y21160000D02*
X63662500Y21160000D01*
X64312500Y18040000D02*
X63662500Y18040000D01*
D16*
%TO.C,J11*%
X40275000Y9175000D02*
X40275000Y21825000D01*
X49295000Y9175000D02*
X43295000Y9175000D01*
X49795000Y21825000D02*
X42795000Y21825000D01*
X55725000Y21825000D02*
X54025000Y21825000D01*
X55725000Y18500000D02*
X55725000Y21825000D01*
X55725000Y9175000D02*
X54025000Y9175000D01*
X55725000Y9175000D02*
X55725000Y10420000D01*
D10*
X56895000Y12745000D02*
G75*
G02*
X56695000Y12745000I-100000J0D01*
G01*
X56695000Y12745000D02*
G75*
G02*
X56895000Y12745000I100000J0D01*
G01*
D15*
%TO.C,R6*%
X66737742Y2322500D02*
X67212258Y2322500D01*
X66737742Y1277500D02*
X67212258Y1277500D01*
%TO.C,TP4*%
X57050000Y3800000D02*
G75*
G02*
X55150000Y3800000I-950000J0D01*
G01*
X55150000Y3800000D02*
G75*
G02*
X57050000Y3800000I950000J0D01*
G01*
%TO.C,Q5*%
X64750000Y10160000D02*
X65400000Y10160000D01*
X64750000Y7040000D02*
X65400000Y7040000D01*
X66050000Y10160000D02*
X65400000Y10160000D01*
X67075000Y7040000D02*
X65400000Y7040000D01*
%TO.C,R7*%
X61537258Y16422500D02*
X61062742Y16422500D01*
X61537258Y15377500D02*
X61062742Y15377500D01*
%TO.C,U1*%
X25440000Y7290000D02*
X27440000Y7290000D01*
X25450000Y5010000D02*
X27450000Y5010000D01*
X25080000Y7220000D02*
X24800000Y7220000D01*
X25080000Y7500000D01*
X25080000Y7220000D01*
G36*
X25080000Y7220000D02*
G01*
X24800000Y7220000D01*
X25080000Y7500000D01*
X25080000Y7220000D01*
G37*
%TO.C,C16*%
X58240580Y21600000D02*
X57959420Y21600000D01*
X58240580Y20580000D02*
X57959420Y20580000D01*
%TO.C,C17*%
X66659420Y12390000D02*
X66940580Y12390000D01*
X66659420Y11370000D02*
X66940580Y11370000D01*
%TO.C,R8*%
X67162742Y6322500D02*
X67637258Y6322500D01*
X67162742Y5277500D02*
X67637258Y5277500D01*
%TO.C,R9*%
X57077500Y12537742D02*
X57077500Y13012258D01*
X58122500Y12537742D02*
X58122500Y13012258D01*
%TO.C,Q1*%
X58037500Y19940000D02*
X59712500Y19940000D01*
X59062500Y16820000D02*
X59712500Y16820000D01*
X60362500Y19940000D02*
X59712500Y19940000D01*
X60362500Y16820000D02*
X59712500Y16820000D01*
%TO.C,R2*%
X67437258Y18922500D02*
X66962742Y18922500D01*
X67437258Y17877500D02*
X66962742Y17877500D01*
%TO.C,Q2*%
X62062500Y6110000D02*
X63737500Y6110000D01*
X63087500Y2990000D02*
X63737500Y2990000D01*
X64387500Y6110000D02*
X63737500Y6110000D01*
X64387500Y2990000D02*
X63737500Y2990000D01*
%TO.C,Q6*%
X59725000Y10210000D02*
X61400000Y10210000D01*
X60750000Y7090000D02*
X61400000Y7090000D01*
X62050000Y10210000D02*
X61400000Y10210000D01*
X62050000Y7090000D02*
X61400000Y7090000D01*
%TO.C,C15*%
X42490000Y6765580D02*
X42490000Y6484420D01*
X43510000Y6765580D02*
X43510000Y6484420D01*
%TO.C,TP1*%
X18550000Y21830000D02*
X34550000Y21830000D01*
X34550000Y9830000D01*
X18550000Y9830000D01*
X18550000Y21830000D01*
%TO.C,D2*%
X65915000Y21760000D02*
X65915000Y19840000D01*
X65915000Y19840000D02*
X68600000Y19840000D01*
X68600000Y21760000D02*
X65915000Y21760000D01*
%TO.C,Q4*%
X61525000Y14960000D02*
X63200000Y14960000D01*
X62550000Y11840000D02*
X63200000Y11840000D01*
X63850000Y14960000D02*
X63200000Y14960000D01*
X63850000Y11840000D02*
X63200000Y11840000D01*
%TO.C,R5*%
X66387500Y15422742D02*
X66387500Y15897258D01*
X67432500Y15422742D02*
X67432500Y15897258D01*
%TO.C,Q3*%
X52550000Y2760000D02*
X53200000Y2760000D01*
X52550000Y-360000D02*
X53200000Y-360000D01*
X53850000Y2760000D02*
X53200000Y2760000D01*
X54875000Y-360000D02*
X53200000Y-360000D01*
%TD*%
M02*
