%TF.GenerationSoftware,KiCad,Pcbnew,8.0.5*%
%TF.CreationDate,2024-09-13T15:02:39+03:00*%
%TF.ProjectId,LEXI-R422,4c455849-2d52-4343-9232-2e6b69636164,rev?*%
%TF.SameCoordinates,Original*%
%TF.FileFunction,Legend,Bot*%
%TF.FilePolarity,Positive*%
%FSLAX46Y46*%
G04 Gerber Fmt 4.6, Leading zero omitted, Abs format (unit mm)*
G04 Created by KiCad (PCBNEW 8.0.5) date 2024-09-13 15:02:39*
%MOMM*%
%LPD*%
G01*
G04 APERTURE LIST*
%ADD10C,0.200000*%
%ADD11C,0.300000*%
%ADD12C,0.100000*%
%ADD13C,0.150000*%
%ADD14C,0.120000*%
G04 APERTURE END LIST*
D10*
X33253847Y20269200D02*
G75*
G02*
X32633753Y20269200I-310047J0D01*
G01*
X32633753Y20269200D02*
G75*
G02*
X33253847Y20269200I310047J0D01*
G01*
D11*
X30828571Y1093100D02*
X31971429Y1093100D01*
X31400000Y521671D02*
X31400000Y1664528D01*
D12*
X33083333Y621509D02*
X33107142Y597700D01*
X33107142Y597700D02*
X33178571Y573890D01*
X33178571Y573890D02*
X33226190Y573890D01*
X33226190Y573890D02*
X33297618Y597700D01*
X33297618Y597700D02*
X33345237Y645319D01*
X33345237Y645319D02*
X33369047Y692938D01*
X33369047Y692938D02*
X33392856Y788176D01*
X33392856Y788176D02*
X33392856Y859604D01*
X33392856Y859604D02*
X33369047Y954842D01*
X33369047Y954842D02*
X33345237Y1002461D01*
X33345237Y1002461D02*
X33297618Y1050080D01*
X33297618Y1050080D02*
X33226190Y1073890D01*
X33226190Y1073890D02*
X33178571Y1073890D01*
X33178571Y1073890D02*
X33107142Y1050080D01*
X33107142Y1050080D02*
X33083333Y1026271D01*
X32630952Y1073890D02*
X32869047Y1073890D01*
X32869047Y1073890D02*
X32892856Y835795D01*
X32892856Y835795D02*
X32869047Y859604D01*
X32869047Y859604D02*
X32821428Y883414D01*
X32821428Y883414D02*
X32702380Y883414D01*
X32702380Y883414D02*
X32654761Y859604D01*
X32654761Y859604D02*
X32630952Y835795D01*
X32630952Y835795D02*
X32607142Y788176D01*
X32607142Y788176D02*
X32607142Y669128D01*
X32607142Y669128D02*
X32630952Y621509D01*
X32630952Y621509D02*
X32654761Y597700D01*
X32654761Y597700D02*
X32702380Y573890D01*
X32702380Y573890D02*
X32821428Y573890D01*
X32821428Y573890D02*
X32869047Y597700D01*
X32869047Y597700D02*
X32892856Y621509D01*
X26804761Y19873890D02*
X26804761Y19516747D01*
X26804761Y19516747D02*
X26828570Y19445319D01*
X26828570Y19445319D02*
X26876189Y19397700D01*
X26876189Y19397700D02*
X26947618Y19373890D01*
X26947618Y19373890D02*
X26995237Y19373890D01*
X26304761Y19373890D02*
X26590475Y19373890D01*
X26447618Y19373890D02*
X26447618Y19873890D01*
X26447618Y19873890D02*
X26495237Y19802461D01*
X26495237Y19802461D02*
X26542856Y19754842D01*
X26542856Y19754842D02*
X26590475Y19731033D01*
X26114285Y19826271D02*
X26090476Y19850080D01*
X26090476Y19850080D02*
X26042857Y19873890D01*
X26042857Y19873890D02*
X25923809Y19873890D01*
X25923809Y19873890D02*
X25876190Y19850080D01*
X25876190Y19850080D02*
X25852381Y19826271D01*
X25852381Y19826271D02*
X25828571Y19778652D01*
X25828571Y19778652D02*
X25828571Y19731033D01*
X25828571Y19731033D02*
X25852381Y19659604D01*
X25852381Y19659604D02*
X26138095Y19373890D01*
X26138095Y19373890D02*
X25828571Y19373890D01*
D13*
X71427933Y10755980D02*
X71427933Y10041695D01*
X71427933Y10041695D02*
X71475552Y9898838D01*
X71475552Y9898838D02*
X71570790Y9803600D01*
X71570790Y9803600D02*
X71713647Y9755980D01*
X71713647Y9755980D02*
X71808885Y9755980D01*
X71046980Y10755980D02*
X70427933Y10755980D01*
X70427933Y10755980D02*
X70761266Y10375028D01*
X70761266Y10375028D02*
X70618409Y10375028D01*
X70618409Y10375028D02*
X70523171Y10327409D01*
X70523171Y10327409D02*
X70475552Y10279790D01*
X70475552Y10279790D02*
X70427933Y10184552D01*
X70427933Y10184552D02*
X70427933Y9946457D01*
X70427933Y9946457D02*
X70475552Y9851219D01*
X70475552Y9851219D02*
X70523171Y9803600D01*
X70523171Y9803600D02*
X70618409Y9755980D01*
X70618409Y9755980D02*
X70904123Y9755980D01*
X70904123Y9755980D02*
X70999361Y9803600D01*
X70999361Y9803600D02*
X71046980Y9851219D01*
X35209523Y18145180D02*
X35209523Y19145180D01*
X35209523Y19145180D02*
X34876190Y18430895D01*
X34876190Y18430895D02*
X34542857Y19145180D01*
X34542857Y19145180D02*
X34542857Y18145180D01*
X33542857Y18145180D02*
X34114285Y18145180D01*
X33828571Y18145180D02*
X33828571Y19145180D01*
X33828571Y19145180D02*
X33923809Y19002323D01*
X33923809Y19002323D02*
X34019047Y18907085D01*
X34019047Y18907085D02*
X34114285Y18859466D01*
D12*
X32083333Y14173890D02*
X32249999Y14411985D01*
X32369047Y14173890D02*
X32369047Y14673890D01*
X32369047Y14673890D02*
X32178571Y14673890D01*
X32178571Y14673890D02*
X32130952Y14650080D01*
X32130952Y14650080D02*
X32107142Y14626271D01*
X32107142Y14626271D02*
X32083333Y14578652D01*
X32083333Y14578652D02*
X32083333Y14507223D01*
X32083333Y14507223D02*
X32107142Y14459604D01*
X32107142Y14459604D02*
X32130952Y14435795D01*
X32130952Y14435795D02*
X32178571Y14411985D01*
X32178571Y14411985D02*
X32369047Y14411985D01*
X31654761Y14507223D02*
X31654761Y14173890D01*
X31773809Y14697700D02*
X31892856Y14340557D01*
X31892856Y14340557D02*
X31583333Y14340557D01*
X40683333Y20773890D02*
X40849999Y21011985D01*
X40969047Y20773890D02*
X40969047Y21273890D01*
X40969047Y21273890D02*
X40778571Y21273890D01*
X40778571Y21273890D02*
X40730952Y21250080D01*
X40730952Y21250080D02*
X40707142Y21226271D01*
X40707142Y21226271D02*
X40683333Y21178652D01*
X40683333Y21178652D02*
X40683333Y21107223D01*
X40683333Y21107223D02*
X40707142Y21059604D01*
X40707142Y21059604D02*
X40730952Y21035795D01*
X40730952Y21035795D02*
X40778571Y21011985D01*
X40778571Y21011985D02*
X40969047Y21011985D01*
X40207142Y20773890D02*
X40492856Y20773890D01*
X40349999Y20773890D02*
X40349999Y21273890D01*
X40349999Y21273890D02*
X40397618Y21202461D01*
X40397618Y21202461D02*
X40445237Y21154842D01*
X40445237Y21154842D02*
X40492856Y21131033D01*
X34816665Y8585795D02*
X34983332Y8585795D01*
X34983332Y8323890D02*
X34983332Y8823890D01*
X34983332Y8823890D02*
X34745237Y8823890D01*
X34388094Y8585795D02*
X34316666Y8561985D01*
X34316666Y8561985D02*
X34292856Y8538176D01*
X34292856Y8538176D02*
X34269047Y8490557D01*
X34269047Y8490557D02*
X34269047Y8419128D01*
X34269047Y8419128D02*
X34292856Y8371509D01*
X34292856Y8371509D02*
X34316666Y8347700D01*
X34316666Y8347700D02*
X34364285Y8323890D01*
X34364285Y8323890D02*
X34554761Y8323890D01*
X34554761Y8323890D02*
X34554761Y8823890D01*
X34554761Y8823890D02*
X34388094Y8823890D01*
X34388094Y8823890D02*
X34340475Y8800080D01*
X34340475Y8800080D02*
X34316666Y8776271D01*
X34316666Y8776271D02*
X34292856Y8728652D01*
X34292856Y8728652D02*
X34292856Y8681033D01*
X34292856Y8681033D02*
X34316666Y8633414D01*
X34316666Y8633414D02*
X34340475Y8609604D01*
X34340475Y8609604D02*
X34388094Y8585795D01*
X34388094Y8585795D02*
X34554761Y8585795D01*
X33792856Y8323890D02*
X34078570Y8323890D01*
X33935713Y8323890D02*
X33935713Y8823890D01*
X33935713Y8823890D02*
X33983332Y8752461D01*
X33983332Y8752461D02*
X34030951Y8704842D01*
X34030951Y8704842D02*
X34078570Y8681033D01*
D13*
X13566733Y10298780D02*
X13566733Y9584495D01*
X13566733Y9584495D02*
X13614352Y9441638D01*
X13614352Y9441638D02*
X13709590Y9346400D01*
X13709590Y9346400D02*
X13852447Y9298780D01*
X13852447Y9298780D02*
X13947685Y9298780D01*
X13138161Y10203542D02*
X13090542Y10251161D01*
X13090542Y10251161D02*
X12995304Y10298780D01*
X12995304Y10298780D02*
X12757209Y10298780D01*
X12757209Y10298780D02*
X12661971Y10251161D01*
X12661971Y10251161D02*
X12614352Y10203542D01*
X12614352Y10203542D02*
X12566733Y10108304D01*
X12566733Y10108304D02*
X12566733Y10013066D01*
X12566733Y10013066D02*
X12614352Y9870209D01*
X12614352Y9870209D02*
X13185780Y9298780D01*
X13185780Y9298780D02*
X12566733Y9298780D01*
D12*
X29721428Y13221509D02*
X29745237Y13197700D01*
X29745237Y13197700D02*
X29816666Y13173890D01*
X29816666Y13173890D02*
X29864285Y13173890D01*
X29864285Y13173890D02*
X29935713Y13197700D01*
X29935713Y13197700D02*
X29983332Y13245319D01*
X29983332Y13245319D02*
X30007142Y13292938D01*
X30007142Y13292938D02*
X30030951Y13388176D01*
X30030951Y13388176D02*
X30030951Y13459604D01*
X30030951Y13459604D02*
X30007142Y13554842D01*
X30007142Y13554842D02*
X29983332Y13602461D01*
X29983332Y13602461D02*
X29935713Y13650080D01*
X29935713Y13650080D02*
X29864285Y13673890D01*
X29864285Y13673890D02*
X29816666Y13673890D01*
X29816666Y13673890D02*
X29745237Y13650080D01*
X29745237Y13650080D02*
X29721428Y13626271D01*
X29245237Y13173890D02*
X29530951Y13173890D01*
X29388094Y13173890D02*
X29388094Y13673890D01*
X29388094Y13673890D02*
X29435713Y13602461D01*
X29435713Y13602461D02*
X29483332Y13554842D01*
X29483332Y13554842D02*
X29530951Y13531033D01*
X29078571Y13673890D02*
X28769047Y13673890D01*
X28769047Y13673890D02*
X28935714Y13483414D01*
X28935714Y13483414D02*
X28864285Y13483414D01*
X28864285Y13483414D02*
X28816666Y13459604D01*
X28816666Y13459604D02*
X28792857Y13435795D01*
X28792857Y13435795D02*
X28769047Y13388176D01*
X28769047Y13388176D02*
X28769047Y13269128D01*
X28769047Y13269128D02*
X28792857Y13221509D01*
X28792857Y13221509D02*
X28816666Y13197700D01*
X28816666Y13197700D02*
X28864285Y13173890D01*
X28864285Y13173890D02*
X29007142Y13173890D01*
X29007142Y13173890D02*
X29054761Y13197700D01*
X29054761Y13197700D02*
X29078571Y13221509D01*
X34721428Y13221509D02*
X34745237Y13197700D01*
X34745237Y13197700D02*
X34816666Y13173890D01*
X34816666Y13173890D02*
X34864285Y13173890D01*
X34864285Y13173890D02*
X34935713Y13197700D01*
X34935713Y13197700D02*
X34983332Y13245319D01*
X34983332Y13245319D02*
X35007142Y13292938D01*
X35007142Y13292938D02*
X35030951Y13388176D01*
X35030951Y13388176D02*
X35030951Y13459604D01*
X35030951Y13459604D02*
X35007142Y13554842D01*
X35007142Y13554842D02*
X34983332Y13602461D01*
X34983332Y13602461D02*
X34935713Y13650080D01*
X34935713Y13650080D02*
X34864285Y13673890D01*
X34864285Y13673890D02*
X34816666Y13673890D01*
X34816666Y13673890D02*
X34745237Y13650080D01*
X34745237Y13650080D02*
X34721428Y13626271D01*
X34245237Y13173890D02*
X34530951Y13173890D01*
X34388094Y13173890D02*
X34388094Y13673890D01*
X34388094Y13673890D02*
X34435713Y13602461D01*
X34435713Y13602461D02*
X34483332Y13554842D01*
X34483332Y13554842D02*
X34530951Y13531033D01*
X33816666Y13507223D02*
X33816666Y13173890D01*
X33935714Y13697700D02*
X34054761Y13340557D01*
X34054761Y13340557D02*
X33745238Y13340557D01*
D14*
%TO.C,C5*%
X26900000Y10130000D02*
X26900000Y1945000D01*
X26900000Y1945000D02*
X33220000Y1945000D01*
X33220000Y1945000D02*
X33220000Y10130000D01*
%TO.C,J12*%
X28375000Y21235800D02*
X28375000Y21035800D01*
X28375000Y18435800D02*
X28375000Y18235800D01*
X28375000Y18235800D02*
X29175000Y18235800D01*
X29175000Y21235800D02*
X28375000Y21235800D01*
X29175000Y18235800D02*
X29175000Y17735800D01*
X30575000Y18235800D02*
X30575000Y17735800D01*
X30575000Y18235800D02*
X31175000Y18235800D01*
X31175000Y18235800D02*
X31375000Y18435800D01*
X31375000Y21235800D02*
X30575000Y21235800D01*
X31375000Y21035800D02*
X31375000Y21235800D01*
%TO.C,J3*%
X61225000Y21170000D02*
X61225000Y20600000D01*
X61225000Y19080000D02*
X61225000Y18060000D01*
X61225000Y16540000D02*
X61225000Y15520000D01*
X61225000Y14000000D02*
X61225000Y12980000D01*
X61225000Y11460000D02*
X61225000Y10440000D01*
X61225000Y8920000D02*
X61225000Y7900000D01*
X61225000Y6380000D02*
X61225000Y5360000D01*
X61225000Y3840000D02*
X61225000Y2820000D01*
X61225000Y1300000D02*
X61225000Y730000D01*
X66425000Y21170000D02*
X61225000Y21170000D01*
X66425000Y21170000D02*
X66425000Y20600000D01*
X66425000Y19080000D02*
X66425000Y18060000D01*
X66425000Y16540000D02*
X66425000Y15520000D01*
X66425000Y14000000D02*
X66425000Y12980000D01*
X66425000Y11460000D02*
X66425000Y10440000D01*
X66425000Y8920000D02*
X66425000Y7900000D01*
X66425000Y6380000D02*
X66425000Y5360000D01*
X66425000Y3840000D02*
X66425000Y2820000D01*
X66425000Y1300000D02*
X66425000Y730000D01*
X66425000Y730000D02*
X61225000Y730000D01*
X67865000Y20600000D02*
X66425000Y20600000D01*
D13*
%TO.C,M1*%
X35900000Y19750000D02*
X52100000Y19750000D01*
X35900000Y3550000D02*
X35900000Y19750000D01*
X35900000Y3550000D02*
X52100000Y3550000D01*
X36500000Y19150000D02*
X37500000Y19150000D01*
X36500000Y18150000D02*
X36500000Y19150000D01*
X36500000Y18150000D02*
X37500000Y19150000D01*
X52100000Y3550000D02*
X52100000Y19750000D01*
D14*
%TO.C,R4*%
X32462258Y16672500D02*
X31987742Y16672500D01*
X32462258Y15627500D02*
X31987742Y15627500D01*
%TO.C,R1*%
X43212258Y21722500D02*
X42737742Y21722500D01*
X43212258Y20677500D02*
X42737742Y20677500D01*
%TO.C,FB1*%
X33515000Y4740000D02*
X33515000Y7260000D01*
X33665000Y7260000D02*
X33515000Y7260000D01*
X33665000Y4740000D02*
X33515000Y4740000D01*
X35135000Y7260000D02*
X35285000Y7260000D01*
X35135000Y4740000D02*
X35285000Y4740000D01*
X35285000Y4740000D02*
X35285000Y7260000D01*
%TO.C,J2*%
X16185000Y1210000D02*
X17625000Y1210000D01*
X17625000Y13460000D02*
X22825000Y13460000D01*
X17625000Y12890000D02*
X17625000Y13460000D01*
X17625000Y10350000D02*
X17625000Y11370000D01*
X17625000Y7810000D02*
X17625000Y8830000D01*
X17625000Y5270000D02*
X17625000Y6290000D01*
X17625000Y2730000D02*
X17625000Y3750000D01*
X17625000Y640000D02*
X17625000Y1210000D01*
X17625000Y640000D02*
X22825000Y640000D01*
X22825000Y12890000D02*
X22825000Y13460000D01*
X22825000Y10350000D02*
X22825000Y11370000D01*
X22825000Y7810000D02*
X22825000Y8830000D01*
X22825000Y5270000D02*
X22825000Y6290000D01*
X22825000Y2730000D02*
X22825000Y3750000D01*
X22825000Y640000D02*
X22825000Y1210000D01*
%TO.C,C13*%
X29365000Y15234420D02*
X29365000Y15515580D01*
X30385000Y15234420D02*
X30385000Y15515580D01*
%TO.C,C14*%
X33990000Y15234420D02*
X33990000Y15515580D01*
X35010000Y15234420D02*
X35010000Y15515580D01*
%TD*%
M02*
