%TF.GenerationSoftware,KiCad,Pcbnew,8.0.5*%
%TF.CreationDate,2024-09-13T15:02:39+03:00*%
%TF.ProjectId,LEXI-R422,4c455849-2d52-4343-9232-2e6b69636164,rev?*%
%TF.SameCoordinates,Original*%
%TF.FileFunction,Soldermask,Top*%
%TF.FilePolarity,Negative*%
%FSLAX46Y46*%
G04 Gerber Fmt 4.6, Leading zero omitted, Abs format (unit mm)*
G04 Created by KiCad (PCBNEW 8.0.5) date 2024-09-13 15:02:39*
%MOMM*%
%LPD*%
G01*
G04 APERTURE LIST*
G04 Aperture macros list*
%AMRoundRect*
0 Rectangle with rounded corners*
0 $1 Rounding radius*
0 $2 $3 $4 $5 $6 $7 $8 $9 X,Y pos of 4 corners*
0 Add a 4 corners polygon primitive as box body*
4,1,4,$2,$3,$4,$5,$6,$7,$8,$9,$2,$3,0*
0 Add four circle primitives for the rounded corners*
1,1,$1+$1,$2,$3*
1,1,$1+$1,$4,$5*
1,1,$1+$1,$6,$7*
1,1,$1+$1,$8,$9*
0 Add four rect primitives between the rounded corners*
20,1,$1+$1,$2,$3,$4,$5,0*
20,1,$1+$1,$4,$5,$6,$7,0*
20,1,$1+$1,$6,$7,$8,$9,0*
20,1,$1+$1,$8,$9,$2,$3,0*%
G04 Aperture macros list end*
%ADD10C,0.010000*%
%ADD11RoundRect,0.225000X0.250000X-0.225000X0.250000X0.225000X-0.250000X0.225000X-0.250000X-0.225000X0*%
%ADD12RoundRect,0.250001X-0.837499X-1.399999X0.837499X-1.399999X0.837499X1.399999X-0.837499X1.399999X0*%
%ADD13RoundRect,0.225000X-0.225000X-0.250000X0.225000X-0.250000X0.225000X0.250000X-0.225000X0.250000X0*%
%ADD14RoundRect,0.150000X-0.587500X-0.150000X0.587500X-0.150000X0.587500X0.150000X-0.587500X0.150000X0*%
%ADD15R,1.150000X0.650000*%
%ADD16R,1.300000X0.450000*%
%ADD17R,1.700000X1.400000*%
%ADD18R,0.800000X0.540000*%
%ADD19R,0.600000X0.200000*%
%ADD20R,0.150000X0.250000*%
%ADD21R,0.200000X0.600000*%
%ADD22C,1.500000*%
%ADD23RoundRect,0.200000X-0.200000X-0.275000X0.200000X-0.275000X0.200000X0.275000X-0.200000X0.275000X0*%
%ADD24RoundRect,0.062500X-0.187500X-0.062500X0.187500X-0.062500X0.187500X0.062500X-0.187500X0.062500X0*%
%ADD25R,0.900000X1.600000*%
%ADD26R,2.400000X2.400000*%
%ADD27C,2.400000*%
%ADD28C,2.500000*%
%ADD29C,2.000000*%
%ADD30RoundRect,0.200000X0.200000X0.275000X-0.200000X0.275000X-0.200000X-0.275000X0.200000X-0.275000X0*%
%ADD31R,1.700000X1.700000*%
%ADD32O,1.700000X1.700000*%
%ADD33RoundRect,0.225000X-0.250000X0.225000X-0.250000X-0.225000X0.250000X-0.225000X0.250000X0.225000X0*%
%ADD34C,0.500000*%
%ADD35RoundRect,0.243750X-0.243750X-0.456250X0.243750X-0.456250X0.243750X0.456250X-0.243750X0.456250X0*%
%ADD36RoundRect,0.150000X0.587500X0.150000X-0.587500X0.150000X-0.587500X-0.150000X0.587500X-0.150000X0*%
G04 APERTURE END LIST*
D10*
%TO.C,D1*%
X46975000Y-800700D02*
X46524564Y-800700D01*
X46524564Y100000D01*
X46975000Y100000D01*
X46975000Y-800700D01*
G36*
X46975000Y-800700D02*
G01*
X46524564Y-800700D01*
X46524564Y100000D01*
X46975000Y100000D01*
X46975000Y-800700D01*
G37*
X46975000Y1100083D02*
X46524855Y1100083D01*
X46524855Y2000000D01*
X46975000Y2000000D01*
X46975000Y1100083D01*
G36*
X46975000Y1100083D02*
G01*
X46524855Y1100083D01*
X46524855Y2000000D01*
X46975000Y2000000D01*
X46975000Y1100083D01*
G37*
X47625000Y1100565D02*
X47174746Y1100565D01*
X47174746Y2000000D01*
X47625000Y2000000D01*
X47625000Y1100565D01*
G36*
X47625000Y1100565D02*
G01*
X47174746Y1100565D01*
X47174746Y2000000D01*
X47625000Y2000000D01*
X47625000Y1100565D01*
G37*
X47625000Y-800820D02*
X47174869Y-800820D01*
X47174869Y100000D01*
X47625000Y100000D01*
X47625000Y-800820D01*
G36*
X47625000Y-800820D02*
G01*
X47174869Y-800820D01*
X47174869Y100000D01*
X47625000Y100000D01*
X47625000Y-800820D01*
G37*
X48275000Y1100308D02*
X47825262Y1100308D01*
X47825262Y2000000D01*
X48275000Y2000000D01*
X48275000Y1100308D01*
G36*
X48275000Y1100308D02*
G01*
X47825262Y1100308D01*
X47825262Y2000000D01*
X48275000Y2000000D01*
X48275000Y1100308D01*
G37*
X48275000Y-801810D02*
X47825551Y-801810D01*
X47825551Y100000D01*
X48275000Y100000D01*
X48275000Y-801810D01*
G36*
X48275000Y-801810D02*
G01*
X47825551Y-801810D01*
X47825551Y100000D01*
X48275000Y100000D01*
X48275000Y-801810D01*
G37*
%TD*%
D11*
%TO.C,C1*%
X48400000Y5625000D03*
X48400000Y7175000D03*
%TD*%
%TO.C,C2*%
X46800000Y5625000D03*
X46800000Y7175000D03*
%TD*%
%TO.C,C3*%
X45200000Y5625000D03*
X45200000Y7175000D03*
%TD*%
%TO.C,C4*%
X54200000Y5425000D03*
X54200000Y6975000D03*
%TD*%
D12*
%TO.C,C6*%
X37412500Y400000D03*
X43787500Y400000D03*
%TD*%
D11*
%TO.C,C7*%
X37500000Y5950000D03*
X37500000Y7500000D03*
%TD*%
D13*
%TO.C,C8*%
X31250000Y8174800D03*
X32800000Y8174800D03*
%TD*%
%TO.C,C9*%
X39725000Y5500000D03*
X41275000Y5500000D03*
%TD*%
%TO.C,C10*%
X31250000Y6600000D03*
X32800000Y6600000D03*
%TD*%
%TO.C,C11*%
X39725000Y7500000D03*
X41275000Y7500000D03*
%TD*%
D11*
%TO.C,C12*%
X35500000Y5950000D03*
X35500000Y7500000D03*
%TD*%
D14*
%TO.C,Q8*%
X62725000Y20550000D03*
X62725000Y18650000D03*
X64600000Y19600000D03*
%TD*%
D15*
%TO.C,J11*%
X55295000Y12745000D03*
X55295000Y15285000D03*
X55295000Y17825000D03*
X55295000Y11475000D03*
X55295000Y14015000D03*
X55295000Y16555000D03*
D16*
X53125000Y9230000D03*
X51125000Y9230000D03*
X53125000Y21770000D03*
X51125000Y21770000D03*
D17*
X41565000Y21605000D03*
X41565000Y9395000D03*
D18*
X42145000Y12960000D03*
X42145000Y18040000D03*
%TD*%
D19*
%TO.C,U2*%
X60425000Y13425000D03*
D20*
X60650000Y13600000D03*
D19*
X60425000Y13025000D03*
X60425000Y12625000D03*
X60425000Y12225000D03*
X60425000Y11825000D03*
D21*
X61075000Y11825000D03*
D19*
X61725000Y11825000D03*
X61725000Y12225000D03*
X61725000Y12625000D03*
X61725000Y13025000D03*
X61725000Y13425000D03*
D21*
X61075000Y13425000D03*
%TD*%
D22*
%TO.C,TP4*%
X56800000Y3800000D03*
%TD*%
D23*
%TO.C,R3*%
X60300000Y15725000D03*
X61950000Y15725000D03*
%TD*%
D24*
%TO.C,U1*%
X25500000Y6900000D03*
X25500000Y6400000D03*
X25500000Y5900000D03*
X25500000Y5400000D03*
X27400000Y5400000D03*
X27400000Y5900000D03*
X27400000Y6400000D03*
X27400000Y6900000D03*
D25*
X26450000Y6150000D03*
%TD*%
D26*
%TO.C,BT1*%
X11750000Y19500000D03*
D27*
X11750000Y-1500000D03*
X15500000Y-1500000D03*
X8000000Y-1500000D03*
%TD*%
D28*
%TO.C,H1*%
X27330400Y-863600D03*
%TD*%
D29*
%TO.C,FID1*%
X73400000Y19400000D03*
%TD*%
D30*
%TO.C,R2*%
X68025000Y18400000D03*
X66375000Y18400000D03*
%TD*%
D31*
%TO.C,J1*%
X4800000Y21100000D03*
D32*
X7340000Y21100000D03*
%TD*%
D29*
%TO.C,FID4*%
X6223000Y2794000D03*
%TD*%
D33*
%TO.C,C15*%
X43000000Y7400000D03*
X43000000Y5850000D03*
%TD*%
D34*
%TO.C,TP1*%
X71689600Y5511800D03*
%TD*%
D35*
%TO.C,D2*%
X66662500Y20800000D03*
X68537500Y20800000D03*
%TD*%
D36*
%TO.C,Q3*%
X54137500Y250000D03*
X54137500Y2150000D03*
X52262500Y1200000D03*
%TD*%
M02*
