%TF.GenerationSoftware,KiCad,Pcbnew,8.0.5*%
%TF.CreationDate,2024-09-13T15:02:39+03:00*%
%TF.ProjectId,LEXI-R422,4c455849-2d52-4343-9232-2e6b69636164,rev?*%
%TF.SameCoordinates,Original*%
%TF.FileFunction,Copper,L3,Inr*%
%TF.FilePolarity,Positive*%
%FSLAX46Y46*%
G04 Gerber Fmt 4.6, Leading zero omitted, Abs format (unit mm)*
G04 Created by KiCad (PCBNEW 8.0.5) date 2024-09-13 15:02:39*
%MOMM*%
%LPD*%
G01*
G04 APERTURE LIST*
%TA.AperFunction,ComponentPad*%
%ADD10C,0.600000*%
%TD*%
%TA.AperFunction,ComponentPad*%
%ADD11R,2.400000X2.400000*%
%TD*%
%TA.AperFunction,ComponentPad*%
%ADD12C,2.400000*%
%TD*%
%TA.AperFunction,ComponentPad*%
%ADD13R,1.700000X1.700000*%
%TD*%
%TA.AperFunction,ComponentPad*%
%ADD14O,1.700000X1.700000*%
%TD*%
%TA.AperFunction,ViaPad*%
%ADD15C,0.400000*%
%TD*%
%TA.AperFunction,ViaPad*%
%ADD16C,0.800000*%
%TD*%
%TA.AperFunction,Conductor*%
%ADD17C,0.250000*%
%TD*%
%TA.AperFunction,Conductor*%
%ADD18C,0.200000*%
%TD*%
G04 APERTURE END LIST*
D10*
%TO.N,GND*%
%TO.C,U1*%
X26450000Y6650000D03*
X26450000Y5650000D03*
%TD*%
D11*
%TO.N,/+3V6d*%
%TO.C,BT1*%
X11750000Y19500000D03*
D12*
%TO.N,GND*%
X11750000Y-1500000D03*
X15500000Y-1500000D03*
X8000000Y-1500000D03*
%TD*%
D13*
%TO.N,/+3V6*%
%TO.C,J1*%
X4800000Y21100000D03*
D14*
%TO.N,/+3V6d*%
X7340000Y21100000D03*
%TD*%
D15*
%TO.N,GND*%
X22833000Y15636343D03*
X72333000Y9636343D03*
X13833000Y17136343D03*
X70833000Y-863657D03*
X15333000Y20136343D03*
X21333000Y15636343D03*
X10833000Y5136343D03*
X72333000Y6636343D03*
X72333000Y3636343D03*
X22833000Y17136343D03*
X35400000Y15200000D03*
X24333000Y18636343D03*
X25833000Y21636343D03*
X32400000Y15000000D03*
X15333000Y5136343D03*
X34833000Y12636343D03*
X36333000Y11136343D03*
X57333000Y-2363657D03*
X55833000Y-2363657D03*
X18333000Y-2363657D03*
X73833000Y-863657D03*
X15333000Y9636343D03*
X10833000Y636343D03*
X27333000Y21636343D03*
X15333000Y8136343D03*
X36333000Y18636343D03*
X25833000Y9636343D03*
X13833000Y21636343D03*
X29000000Y17400000D03*
X73833000Y6636343D03*
X21333000Y-2363657D03*
X73833000Y5136343D03*
X18333000Y-863657D03*
X13833000Y20136343D03*
X4833000Y12636343D03*
X69333000Y636343D03*
X73833000Y3636343D03*
X4833000Y636343D03*
X25833000Y17136343D03*
X36333000Y21636343D03*
X60333000Y-2363657D03*
X34833000Y11136343D03*
X36333000Y20136343D03*
X27333000Y11136343D03*
X4833000Y2136343D03*
X7833000Y636343D03*
X58833000Y-2363657D03*
X70833000Y2136343D03*
X25833000Y18636343D03*
X15333000Y11136343D03*
X9333000Y17136343D03*
X30333000Y12636343D03*
X4833000Y-863657D03*
X73833000Y2136343D03*
X28800000Y18000000D03*
X31800000Y15000000D03*
X49833000Y2136343D03*
X37833000Y21636343D03*
X15333000Y12636343D03*
X27333000Y14136343D03*
X63333000Y-2363657D03*
X72333000Y11136343D03*
D16*
X18135600Y16179800D03*
D15*
X45333000Y-2363657D03*
X12333000Y21636343D03*
X9333000Y636343D03*
X13833000Y14136343D03*
X49833000Y-2363657D03*
X15333000Y18636343D03*
X32400000Y17200000D03*
X30333000Y636343D03*
X4833000Y3636343D03*
X24333000Y20136343D03*
X73833000Y11136343D03*
X73833000Y9636343D03*
X30600000Y17000000D03*
X24333000Y636343D03*
X48333000Y-2363657D03*
X51333000Y18636343D03*
X33333000Y12636343D03*
X39333000Y20136343D03*
X13833000Y18636343D03*
X7833000Y18636343D03*
X24333000Y-2363657D03*
X25833000Y20136343D03*
X33000000Y15000000D03*
X31833000Y12636343D03*
X21333000Y14136343D03*
X40833000Y-2363657D03*
X43833000Y-2363657D03*
X72333000Y636343D03*
X61833000Y-2363657D03*
X33333000Y18636343D03*
X33333000Y11136343D03*
X58833000Y2136343D03*
X45333000Y21636343D03*
X24333000Y21636343D03*
X28833000Y12636343D03*
X15333000Y14136343D03*
X37833000Y20136343D03*
X24333000Y14136343D03*
X55833000Y6636343D03*
X39333000Y21636343D03*
X72333000Y14136343D03*
X30333000Y-863657D03*
X46833000Y-2363657D03*
X9333000Y18636343D03*
X72333000Y2136343D03*
X58833000Y3636343D03*
X33333000Y-2363657D03*
X46833000Y21636343D03*
X69333000Y-2363657D03*
X13833000Y9636343D03*
X73833000Y12636343D03*
X13833000Y11136343D03*
X25833000Y12636343D03*
X27333000Y15636343D03*
X7833000Y2136343D03*
X36000000Y15200000D03*
D16*
X22707600Y21285200D03*
D15*
X15333000Y3636343D03*
X24333000Y17136343D03*
X31833000Y21636343D03*
X31200000Y15000000D03*
X55833000Y2136343D03*
X4833000Y5136343D03*
X51333000Y17136343D03*
X19833000Y14136343D03*
X67833000Y-2363657D03*
X4833000Y-2363657D03*
X39333000Y2136343D03*
X22833000Y-863657D03*
X16833000Y14136343D03*
X51333000Y15636343D03*
X7833000Y3636343D03*
X24333000Y-863657D03*
X52833000Y-2363657D03*
X72333000Y8136343D03*
X72333000Y-2363657D03*
X28800000Y15600000D03*
X18333000Y14136343D03*
X64833000Y-2363657D03*
X48333000Y20136343D03*
X25833000Y14136343D03*
X22833000Y14136343D03*
X31800000Y17200000D03*
X39333000Y-2363657D03*
X33333000Y21636343D03*
X4833000Y11136343D03*
X69333000Y-863657D03*
X42333000Y-2363657D03*
X33333000Y9636343D03*
X13833000Y12636343D03*
X31200000Y17200000D03*
X15333000Y21636343D03*
X25833000Y11136343D03*
X19833000Y-863657D03*
X48333000Y21636343D03*
X21333000Y-863657D03*
X34833000Y20136343D03*
X54333000Y-2363657D03*
X58833000Y5136343D03*
X13833000Y15636343D03*
X36333000Y12636343D03*
X37833000Y-2363657D03*
X70833000Y-2363657D03*
X6333000Y636343D03*
X19833000Y15636343D03*
X31833000Y-2363657D03*
X28800000Y16800000D03*
X27333000Y12636343D03*
X67833000Y636343D03*
X34800000Y17200000D03*
X30800000Y18200000D03*
X64833000Y-863657D03*
X34833000Y18636343D03*
X19833000Y-2363657D03*
X36600000Y17000000D03*
X36000000Y17000000D03*
X57333000Y2136343D03*
X10833000Y3636343D03*
X30333000Y-2363657D03*
X22833000Y-2363657D03*
X13833000Y5136343D03*
X73833000Y8136343D03*
X33000000Y17200000D03*
X27333000Y17136343D03*
X22833000Y18636343D03*
X4833000Y14136343D03*
X33600000Y15000000D03*
X70833000Y636343D03*
X9333000Y2136343D03*
X66333000Y-2363657D03*
X35400000Y17000000D03*
X25833000Y15636343D03*
X73833000Y-2363657D03*
X72333000Y12636343D03*
X9333000Y3636343D03*
X30800000Y17600000D03*
X40833000Y2136343D03*
X33333000Y20136343D03*
X34833000Y21636343D03*
X33600000Y17200000D03*
X72333000Y-863657D03*
X34200000Y17200000D03*
X73833000Y636343D03*
X28800000Y16200000D03*
X64833000Y21636343D03*
X36600000Y15200000D03*
X24333000Y15636343D03*
X10833000Y2136343D03*
X42333000Y3636343D03*
X73833000Y14136343D03*
X34833000Y9636343D03*
X15333000Y15636343D03*
X51333000Y-2363657D03*
D16*
%TO.N,/uRST*%
X56675000Y15000000D03*
X48000000Y4200000D03*
%TO.N,/uCLK*%
X46600000Y4000000D03*
X56920000Y17280000D03*
%TO.N,/uData*%
X45200000Y4000000D03*
X55800000Y19000000D03*
%TO.N,/uVDD*%
X44000000Y4600000D03*
%TO.N,/VBAT*%
X29200000Y7200000D03*
X36200000Y4400000D03*
X69400000Y16000000D03*
X39800000Y4200000D03*
X35400000Y800000D03*
X37600000Y4600000D03*
X35600000Y-1600000D03*
X36800000Y3000000D03*
X29600000Y6000000D03*
X27800000Y8400000D03*
%TO.N,/uPWRKEY*%
X69000000Y11200000D03*
%TO.N,/uDTR*%
X63275000Y16125000D03*
%TO.N,/TxD*%
X69275000Y9600000D03*
%TO.N,/RxD*%
X69000000Y7200000D03*
%TO.N,/uDCD*%
X64625000Y16025000D03*
%TO.N,/RXD*%
X59148889Y11524985D03*
X41300000Y19100000D03*
%TO.N,/TXD*%
X60000000Y11000000D03*
X42800000Y19000000D03*
%TO.N,/VDD_EXT*%
X64002158Y7796763D03*
X36600000Y9000000D03*
X59000000Y15800000D03*
%TO.N,/DTR*%
X46000000Y19400000D03*
X59400000Y13400000D03*
%TO.N,/DCD*%
X58952785Y12505571D03*
X44800000Y19400000D03*
%TO.N,/PWRKEY*%
X50800000Y5200000D03*
%TO.N,/Alim*%
X32800000Y0D03*
X26400000Y3400000D03*
%TO.N,/+3V6d*%
X25000000Y4800000D03*
X20400000Y4800000D03*
%TO.N,/+3V3_UC*%
X68500000Y3275000D03*
X67250000Y13500000D03*
X63525000Y14300000D03*
%TO.N,/Vbus*%
X58800000Y14600000D03*
X52675000Y14100000D03*
%TO.N,/U5V*%
X58600000Y7800000D03*
X51800000Y8275000D03*
%TO.N,/P99*%
X47400000Y15200000D03*
X57800000Y10000000D03*
%TO.N,/Network*%
X54200000Y21000000D03*
%TD*%
D17*
%TO.N,/RXD*%
X45075015Y11524985D02*
X59148889Y11524985D01*
X41300000Y19100000D02*
X41300000Y19700000D01*
X41300000Y19700000D02*
X41600000Y20000000D01*
X43200000Y20000000D02*
X43800000Y19400000D01*
X43800000Y12800000D02*
X45075015Y11524985D01*
X41600000Y20000000D02*
X43200000Y20000000D01*
X43800000Y19400000D02*
X43800000Y12800000D01*
D18*
%TO.N,/TXD*%
X44175015Y10824985D02*
X43200000Y11800000D01*
X43200000Y11800000D02*
X43200000Y18600000D01*
X59824985Y10824985D02*
X44175015Y10824985D01*
X43200000Y18600000D02*
X42800000Y19000000D01*
X60000000Y11000000D02*
X59824985Y10824985D01*
D17*
%TO.N,/VDD_EXT*%
X59800000Y9000000D02*
X62800000Y9000000D01*
X64002158Y7797842D02*
X64002158Y7796763D01*
X62800000Y9000000D02*
X64002158Y7797842D01*
X61600000Y15000000D02*
X60800000Y15800000D01*
X60600000Y9000000D02*
X61600000Y10000000D01*
X36600000Y9000000D02*
X59800000Y9000000D01*
X61600000Y10000000D02*
X61600000Y15000000D01*
X59800000Y9000000D02*
X60600000Y9000000D01*
X60800000Y15800000D02*
X59000000Y15800000D01*
D18*
%TO.N,/DTR*%
X46600000Y13400000D02*
X46000000Y14000000D01*
X46000000Y14000000D02*
X46000000Y19400000D01*
X59400000Y13400000D02*
X46600000Y13400000D01*
%TO.N,/DCD*%
X58952785Y12505571D02*
X45894429Y12505571D01*
X44800000Y13600000D02*
X44800000Y19400000D01*
X45894429Y12505571D02*
X44800000Y13600000D01*
D17*
%TO.N,/+3V6d*%
X25000000Y4800000D02*
X20400000Y4800000D01*
D18*
%TO.N,/Vbus*%
X58300000Y14100000D02*
X58800000Y14600000D01*
X52675000Y14100000D02*
X58300000Y14100000D01*
%TD*%
%TA.AperFunction,Conductor*%
%TO.N,GND*%
G36*
X6892473Y22264398D02*
G01*
X6938966Y22210742D01*
X6949070Y22140468D01*
X6919576Y22075888D01*
X6883750Y22047279D01*
X6753550Y21977685D01*
X6593590Y21846410D01*
X6462315Y21686450D01*
X6462313Y21686447D01*
X6364768Y21503954D01*
X6304698Y21305927D01*
X6284417Y21100003D01*
X6284417Y21099996D01*
X6304698Y20894072D01*
X6364768Y20696045D01*
X6462313Y20513552D01*
X6593590Y20353590D01*
X6753552Y20222313D01*
X6936045Y20124768D01*
X7134072Y20064698D01*
X7339997Y20044417D01*
X7340000Y20044417D01*
X7340003Y20044417D01*
X7545927Y20064698D01*
X7743954Y20124768D01*
X7926447Y20222313D01*
X7926448Y20222314D01*
X7926450Y20222315D01*
X8086410Y20353590D01*
X8217685Y20513550D01*
X8315232Y20696046D01*
X8322422Y20719750D01*
X10349500Y20719750D01*
X10349500Y18280249D01*
X10361132Y18221771D01*
X10361133Y18221768D01*
X10405448Y18155448D01*
X10471768Y18111133D01*
X10471771Y18111132D01*
X10530249Y18099500D01*
X10530252Y18099500D01*
X12969750Y18099500D01*
X13028228Y18111132D01*
X13028231Y18111133D01*
X13094552Y18155448D01*
X13138867Y18221769D01*
X13150500Y18280252D01*
X13150500Y20719748D01*
X13138867Y20778231D01*
X13094552Y20844552D01*
X13028231Y20888867D01*
X12969748Y20900500D01*
X10530252Y20900500D01*
X10471769Y20888867D01*
X10405448Y20844552D01*
X10361133Y20778231D01*
X10361132Y20778228D01*
X10349500Y20719750D01*
X8322422Y20719750D01*
X8375300Y20894066D01*
X8385734Y21000000D01*
X53594318Y21000000D01*
X53594318Y20999999D01*
X53614955Y20843239D01*
X53675463Y20697160D01*
X53675465Y20697157D01*
X53771718Y20571718D01*
X53897157Y20475465D01*
X53897160Y20475463D01*
X54043239Y20414955D01*
X54200000Y20394318D01*
X54356760Y20414955D01*
X54502839Y20475463D01*
X54502842Y20475465D01*
X54628282Y20571718D01*
X54724536Y20697159D01*
X54785044Y20843238D01*
X54805682Y21000000D01*
X54785044Y21156762D01*
X54724536Y21302841D01*
X54628282Y21428282D01*
X54502841Y21524536D01*
X54356762Y21585044D01*
X54200000Y21605682D01*
X54043238Y21585044D01*
X53897159Y21524536D01*
X53771718Y21428282D01*
X53677832Y21305927D01*
X53675465Y21302842D01*
X53675463Y21302839D01*
X53614955Y21156760D01*
X53594318Y21000000D01*
X8385734Y21000000D01*
X8395583Y21100000D01*
X8389993Y21156760D01*
X8375301Y21305927D01*
X8375300Y21305928D01*
X8375300Y21305934D01*
X8315232Y21503954D01*
X8217685Y21686450D01*
X8086410Y21846410D01*
X7926450Y21977685D01*
X7796250Y22047278D01*
X7745603Y22097031D01*
X7729894Y22166267D01*
X7754110Y22233006D01*
X7810564Y22276058D01*
X7855648Y22284400D01*
X74293200Y22284400D01*
X74361321Y22264398D01*
X74407814Y22210742D01*
X74419200Y22158400D01*
X74419200Y-2654000D01*
X74399198Y-2722121D01*
X74345542Y-2768614D01*
X74293200Y-2780000D01*
X28282337Y-2780000D01*
X28214216Y-2759998D01*
X28167723Y-2706342D01*
X28157619Y-2636068D01*
X28187113Y-2571488D01*
X28219337Y-2544881D01*
X28331087Y-2480361D01*
X28388527Y-2447199D01*
X28586176Y-2295538D01*
X28762338Y-2119376D01*
X28913999Y-1921727D01*
X29038564Y-1705973D01*
X29082460Y-1599999D01*
X34994318Y-1599999D01*
X34994318Y-1600000D01*
X35014955Y-1756760D01*
X35014956Y-1756762D01*
X35075464Y-1902841D01*
X35171718Y-2028282D01*
X35297159Y-2124536D01*
X35443238Y-2185044D01*
X35600000Y-2205682D01*
X35756762Y-2185044D01*
X35902841Y-2124536D01*
X36028282Y-2028282D01*
X36124536Y-1902841D01*
X36185044Y-1756762D01*
X36205682Y-1600000D01*
X36185044Y-1443238D01*
X36124536Y-1297159D01*
X36028282Y-1171718D01*
X35902841Y-1075464D01*
X35756762Y-1014956D01*
X35756760Y-1014955D01*
X35600000Y-994318D01*
X35443239Y-1014955D01*
X35297160Y-1075463D01*
X35297157Y-1075465D01*
X35171718Y-1171718D01*
X35075465Y-1297157D01*
X35075463Y-1297160D01*
X35014955Y-1443239D01*
X34994318Y-1599999D01*
X29082460Y-1599999D01*
X29133902Y-1475807D01*
X29198382Y-1235165D01*
X29230900Y-988165D01*
X29230900Y-739035D01*
X29198382Y-492035D01*
X29133902Y-251393D01*
X29038564Y-21227D01*
X29038558Y-21218D01*
X29038557Y-21214D01*
X29026309Y0D01*
X32194318Y0D01*
X32214955Y-156760D01*
X32254154Y-251393D01*
X32275464Y-302841D01*
X32371718Y-428282D01*
X32497159Y-524536D01*
X32643238Y-585044D01*
X32800000Y-605682D01*
X32956762Y-585044D01*
X33102841Y-524536D01*
X33228282Y-428282D01*
X33324536Y-302841D01*
X33385044Y-156762D01*
X33405682Y0D01*
X33385044Y156762D01*
X33324536Y302841D01*
X33228282Y428282D01*
X33102841Y524536D01*
X32956762Y585044D01*
X32800000Y605682D01*
X32643238Y585044D01*
X32497159Y524536D01*
X32371718Y428282D01*
X32275465Y302842D01*
X32275463Y302839D01*
X32214955Y156760D01*
X32194318Y0D01*
X29026309Y0D01*
X28935804Y156760D01*
X28913999Y194527D01*
X28762338Y392176D01*
X28586176Y568338D01*
X28388527Y719999D01*
X28249961Y800000D01*
X34794318Y800000D01*
X34794318Y799999D01*
X34814955Y643239D01*
X34875463Y497160D01*
X34875465Y497157D01*
X34971718Y371718D01*
X35097157Y275465D01*
X35097160Y275463D01*
X35243239Y214955D01*
X35400000Y194318D01*
X35556760Y214955D01*
X35702839Y275463D01*
X35702842Y275465D01*
X35828282Y371718D01*
X35924536Y497159D01*
X35985044Y643238D01*
X36005682Y800000D01*
X35985044Y956762D01*
X35924536Y1102841D01*
X35828282Y1228282D01*
X35702841Y1324536D01*
X35556762Y1385044D01*
X35400000Y1405682D01*
X35243238Y1385044D01*
X35097159Y1324536D01*
X34971718Y1228282D01*
X34875465Y1102842D01*
X34875463Y1102839D01*
X34814955Y956760D01*
X34794318Y800000D01*
X28249961Y800000D01*
X28172773Y844564D01*
X27942607Y939902D01*
X27701965Y1004382D01*
X27701958Y1004382D01*
X27701958Y1004383D01*
X27678190Y1007511D01*
X27454965Y1036900D01*
X27205835Y1036900D01*
X27022499Y1012763D01*
X26958841Y1004383D01*
X26958839Y1004382D01*
X26958835Y1004382D01*
X26718193Y939902D01*
X26488027Y844564D01*
X26488018Y844558D01*
X26488014Y844557D01*
X26272276Y720001D01*
X26272273Y719999D01*
X26074624Y568338D01*
X26074618Y568332D01*
X26074613Y568328D01*
X25898471Y392186D01*
X25898466Y392180D01*
X25898462Y392176D01*
X25762477Y214956D01*
X25746798Y194523D01*
X25622242Y-21214D01*
X25622237Y-21225D01*
X25622236Y-21227D01*
X25526898Y-251393D01*
X25526897Y-251397D01*
X25462416Y-492041D01*
X25429900Y-739032D01*
X25429900Y-988167D01*
X25462416Y-1235158D01*
X25462418Y-1235165D01*
X25526898Y-1475807D01*
X25622236Y-1705973D01*
X25622237Y-1705974D01*
X25622242Y-1705985D01*
X25746798Y-1921723D01*
X25746800Y-1921726D01*
X25746801Y-1921727D01*
X25898462Y-2119376D01*
X25898466Y-2119380D01*
X25898471Y-2119386D01*
X26074613Y-2295528D01*
X26074618Y-2295532D01*
X26074624Y-2295538D01*
X26272273Y-2447199D01*
X26272276Y-2447201D01*
X26441463Y-2544881D01*
X26490456Y-2596263D01*
X26503892Y-2665977D01*
X26477506Y-2731888D01*
X26419674Y-2773070D01*
X26378463Y-2780000D01*
X3751000Y-2780000D01*
X3682879Y-2759998D01*
X3636386Y-2706342D01*
X3625000Y-2654000D01*
X3625000Y3400000D01*
X25794318Y3400000D01*
X25794318Y3399999D01*
X25814955Y3243239D01*
X25875463Y3097160D01*
X25875465Y3097157D01*
X25971718Y2971718D01*
X26097157Y2875465D01*
X26097160Y2875463D01*
X26243239Y2814955D01*
X26400000Y2794318D01*
X26556760Y2814955D01*
X26702839Y2875463D01*
X26702842Y2875465D01*
X26828282Y2971718D01*
X26849983Y3000000D01*
X36194318Y3000000D01*
X36194318Y2999999D01*
X36214955Y2843239D01*
X36275463Y2697160D01*
X36275465Y2697157D01*
X36371718Y2571718D01*
X36497157Y2475465D01*
X36497160Y2475463D01*
X36643239Y2414955D01*
X36800000Y2394318D01*
X36956760Y2414955D01*
X37102839Y2475463D01*
X37102842Y2475465D01*
X37228282Y2571718D01*
X37324536Y2697159D01*
X37385044Y2843238D01*
X37401959Y2971718D01*
X37405682Y2999999D01*
X37405682Y3000000D01*
X37390116Y3118238D01*
X37385044Y3156762D01*
X37336068Y3275000D01*
X67894318Y3275000D01*
X67894318Y3274999D01*
X67914955Y3118239D01*
X67975463Y2972160D01*
X67975465Y2972157D01*
X68071718Y2846718D01*
X68197157Y2750465D01*
X68197160Y2750463D01*
X68343239Y2689955D01*
X68500000Y2669318D01*
X68656760Y2689955D01*
X68802839Y2750463D01*
X68802842Y2750465D01*
X68928282Y2846718D01*
X69024536Y2972159D01*
X69085044Y3118238D01*
X69095363Y3196619D01*
X69105682Y3274999D01*
X69105682Y3275000D01*
X69102017Y3302842D01*
X69085044Y3431762D01*
X69024536Y3577841D01*
X68928282Y3703282D01*
X68802841Y3799536D01*
X68656762Y3860044D01*
X68500000Y3880682D01*
X68343238Y3860044D01*
X68197159Y3799536D01*
X68071718Y3703282D01*
X67980991Y3585044D01*
X67975465Y3577842D01*
X67975463Y3577839D01*
X67914955Y3431760D01*
X67894318Y3275000D01*
X37336068Y3275000D01*
X37324536Y3302841D01*
X37228282Y3428282D01*
X37102841Y3524536D01*
X36956762Y3585044D01*
X36800000Y3605682D01*
X36643238Y3585044D01*
X36497159Y3524536D01*
X36371718Y3428282D01*
X36350017Y3400000D01*
X36275465Y3302842D01*
X36275463Y3302839D01*
X36214955Y3156760D01*
X36194318Y3000000D01*
X26849983Y3000000D01*
X26924536Y3097159D01*
X26985044Y3243238D01*
X27005682Y3400000D01*
X26985044Y3556762D01*
X26924536Y3702841D01*
X26828282Y3828282D01*
X26702841Y3924536D01*
X26556762Y3985044D01*
X26400000Y4005682D01*
X26243238Y3985044D01*
X26097159Y3924536D01*
X25971718Y3828282D01*
X25875802Y3703281D01*
X25875465Y3702842D01*
X25875463Y3702839D01*
X25814955Y3556760D01*
X25794318Y3400000D01*
X3625000Y3400000D01*
X3625000Y4800000D01*
X19794318Y4800000D01*
X19794318Y4799999D01*
X19814955Y4643239D01*
X19875463Y4497160D01*
X19875465Y4497157D01*
X19971718Y4371718D01*
X20097157Y4275465D01*
X20097160Y4275463D01*
X20243239Y4214955D01*
X20400000Y4194318D01*
X20556760Y4214955D01*
X20702839Y4275463D01*
X20702842Y4275465D01*
X20731113Y4297158D01*
X20828282Y4371718D01*
X20828284Y4371720D01*
X20869324Y4425204D01*
X20926662Y4467071D01*
X20969286Y4474500D01*
X24430714Y4474500D01*
X24498835Y4454498D01*
X24530676Y4425204D01*
X24571715Y4371720D01*
X24697157Y4275465D01*
X24697160Y4275463D01*
X24843239Y4214955D01*
X25000000Y4194318D01*
X25156760Y4214955D01*
X25302839Y4275463D01*
X25302842Y4275465D01*
X25428282Y4371718D01*
X25449983Y4400000D01*
X35594318Y4400000D01*
X35594318Y4399999D01*
X35614955Y4243239D01*
X35675463Y4097160D01*
X35675465Y4097157D01*
X35771718Y3971718D01*
X35897157Y3875465D01*
X35897160Y3875463D01*
X36043239Y3814955D01*
X36200000Y3794318D01*
X36356760Y3814955D01*
X36502839Y3875463D01*
X36502842Y3875465D01*
X36509641Y3880682D01*
X36628282Y3971718D01*
X36724536Y4097159D01*
X36785044Y4243238D01*
X36799096Y4349974D01*
X36827818Y4414901D01*
X36887084Y4453993D01*
X36958075Y4454838D01*
X37018254Y4417168D01*
X37040425Y4381749D01*
X37075464Y4297159D01*
X37075465Y4297158D01*
X37075465Y4297157D01*
X37171718Y4171718D01*
X37297157Y4075465D01*
X37297160Y4075463D01*
X37443239Y4014955D01*
X37600000Y3994318D01*
X37756760Y4014955D01*
X37902839Y4075463D01*
X37902842Y4075465D01*
X38028282Y4171718D01*
X38049983Y4200000D01*
X39194318Y4200000D01*
X39194318Y4199999D01*
X39214955Y4043239D01*
X39275463Y3897160D01*
X39275465Y3897157D01*
X39371718Y3771718D01*
X39497157Y3675465D01*
X39497160Y3675463D01*
X39643239Y3614955D01*
X39800000Y3594318D01*
X39956760Y3614955D01*
X40102839Y3675463D01*
X40102842Y3675465D01*
X40228282Y3771718D01*
X40324536Y3897159D01*
X40385044Y4043238D01*
X40405682Y4200000D01*
X40385044Y4356762D01*
X40324536Y4502841D01*
X40249983Y4600000D01*
X43394318Y4600000D01*
X43394318Y4599999D01*
X43414955Y4443239D01*
X43475463Y4297160D01*
X43475465Y4297157D01*
X43571718Y4171718D01*
X43697157Y4075465D01*
X43697160Y4075463D01*
X43843239Y4014955D01*
X44000000Y3994318D01*
X44156760Y4014955D01*
X44302839Y4075463D01*
X44302842Y4075465D01*
X44312097Y4082566D01*
X44396792Y4147555D01*
X44463013Y4173155D01*
X44532562Y4158890D01*
X44583357Y4109289D01*
X44599273Y4040099D01*
X44598418Y4031147D01*
X44594318Y4000001D01*
X44594318Y3999999D01*
X44614955Y3843239D01*
X44675463Y3697160D01*
X44675465Y3697157D01*
X44771718Y3571718D01*
X44897157Y3475465D01*
X44897160Y3475463D01*
X45043239Y3414955D01*
X45200000Y3394318D01*
X45356760Y3414955D01*
X45502839Y3475463D01*
X45502842Y3475465D01*
X45566790Y3524534D01*
X45628282Y3571718D01*
X45724536Y3697159D01*
X45783591Y3839731D01*
X45828140Y3895012D01*
X45895503Y3917433D01*
X45964294Y3899875D01*
X46012672Y3847913D01*
X46016405Y3839739D01*
X46026671Y3814956D01*
X46075463Y3697160D01*
X46075465Y3697157D01*
X46171718Y3571718D01*
X46297157Y3475465D01*
X46297160Y3475463D01*
X46443239Y3414955D01*
X46600000Y3394318D01*
X46756760Y3414955D01*
X46902839Y3475463D01*
X46902842Y3475465D01*
X46966790Y3524534D01*
X47028282Y3571718D01*
X47124536Y3697159D01*
X47185044Y3843238D01*
X47199096Y3949974D01*
X47227818Y4014901D01*
X47287084Y4053993D01*
X47358075Y4054838D01*
X47418254Y4017168D01*
X47440425Y3981749D01*
X47475464Y3897159D01*
X47475465Y3897158D01*
X47475465Y3897157D01*
X47571718Y3771718D01*
X47697157Y3675465D01*
X47697160Y3675463D01*
X47843239Y3614955D01*
X48000000Y3594318D01*
X48156760Y3614955D01*
X48302839Y3675463D01*
X48302842Y3675465D01*
X48428282Y3771718D01*
X48524536Y3897159D01*
X48585044Y4043238D01*
X48605682Y4200000D01*
X48585044Y4356762D01*
X48524536Y4502841D01*
X48428282Y4628282D01*
X48302841Y4724536D01*
X48156762Y4785044D01*
X48000000Y4805682D01*
X47843238Y4785044D01*
X47697159Y4724536D01*
X47571718Y4628282D01*
X47492111Y4524536D01*
X47475465Y4502842D01*
X47475463Y4502839D01*
X47414955Y4356760D01*
X47400903Y4250024D01*
X47372180Y4185097D01*
X47312915Y4146006D01*
X47241923Y4145161D01*
X47181745Y4182832D01*
X47159575Y4218248D01*
X47124536Y4302841D01*
X47028282Y4428282D01*
X46902841Y4524536D01*
X46756762Y4585044D01*
X46600000Y4605682D01*
X46443238Y4585044D01*
X46297159Y4524536D01*
X46171718Y4428282D01*
X46075465Y4302842D01*
X46075463Y4302839D01*
X46064643Y4276719D01*
X46016407Y4160266D01*
X45971861Y4104987D01*
X45904497Y4082566D01*
X45835706Y4100124D01*
X45787328Y4152086D01*
X45783599Y4160250D01*
X45724536Y4302841D01*
X45628282Y4428282D01*
X45502841Y4524536D01*
X45356762Y4585044D01*
X45200000Y4605682D01*
X45043238Y4585044D01*
X44897159Y4524536D01*
X44803207Y4452444D01*
X44736986Y4426844D01*
X44667438Y4441109D01*
X44616642Y4490710D01*
X44600726Y4559900D01*
X44601579Y4568835D01*
X44605682Y4600000D01*
X44585044Y4756762D01*
X44524536Y4902841D01*
X44428282Y5028282D01*
X44302841Y5124536D01*
X44156762Y5185044D01*
X44043159Y5200000D01*
X50194318Y5200000D01*
X50194318Y5199999D01*
X50214955Y5043239D01*
X50275463Y4897160D01*
X50275465Y4897157D01*
X50371718Y4771718D01*
X50497157Y4675465D01*
X50497160Y4675463D01*
X50643239Y4614955D01*
X50800000Y4594318D01*
X50956760Y4614955D01*
X51102839Y4675463D01*
X51102842Y4675465D01*
X51138514Y4702837D01*
X51228282Y4771718D01*
X51324536Y4897159D01*
X51385044Y5043238D01*
X51405682Y5200000D01*
X51385044Y5356762D01*
X51324536Y5502841D01*
X51228282Y5628282D01*
X51102841Y5724536D01*
X50956762Y5785044D01*
X50800000Y5805682D01*
X50643238Y5785044D01*
X50497159Y5724536D01*
X50371718Y5628282D01*
X50275465Y5502842D01*
X50275463Y5502839D01*
X50214955Y5356760D01*
X50194318Y5200000D01*
X44043159Y5200000D01*
X44000000Y5205682D01*
X43843238Y5185044D01*
X43697159Y5124536D01*
X43571718Y5028282D01*
X43492111Y4924536D01*
X43475465Y4902842D01*
X43475463Y4902839D01*
X43414955Y4756760D01*
X43394318Y4600000D01*
X40249983Y4600000D01*
X40228282Y4628282D01*
X40102841Y4724536D01*
X39956762Y4785044D01*
X39800000Y4805682D01*
X39643238Y4785044D01*
X39497159Y4724536D01*
X39371718Y4628282D01*
X39292111Y4524536D01*
X39275465Y4502842D01*
X39275463Y4502839D01*
X39214955Y4356760D01*
X39194318Y4200000D01*
X38049983Y4200000D01*
X38124536Y4297159D01*
X38185044Y4443238D01*
X38205682Y4600000D01*
X38185044Y4756762D01*
X38124536Y4902841D01*
X38028282Y5028282D01*
X37902841Y5124536D01*
X37756762Y5185044D01*
X37600000Y5205682D01*
X37443238Y5185044D01*
X37297159Y5124536D01*
X37171718Y5028282D01*
X37092111Y4924536D01*
X37075465Y4902842D01*
X37075463Y4902839D01*
X37014955Y4756760D01*
X37000903Y4650024D01*
X36972180Y4585097D01*
X36912915Y4546006D01*
X36841923Y4545161D01*
X36781745Y4582832D01*
X36759575Y4618248D01*
X36724536Y4702841D01*
X36628282Y4828282D01*
X36502841Y4924536D01*
X36356762Y4985044D01*
X36200000Y5005682D01*
X36043238Y4985044D01*
X35897159Y4924536D01*
X35771718Y4828282D01*
X35692111Y4724536D01*
X35675465Y4702842D01*
X35675463Y4702839D01*
X35614955Y4556760D01*
X35594318Y4400000D01*
X25449983Y4400000D01*
X25524536Y4497159D01*
X25585044Y4643238D01*
X25605682Y4800000D01*
X25585044Y4956762D01*
X25524536Y5102841D01*
X25428282Y5228282D01*
X25302841Y5324536D01*
X25156762Y5385044D01*
X25000000Y5405682D01*
X24843238Y5385044D01*
X24697159Y5324536D01*
X24571718Y5228282D01*
X24571716Y5228280D01*
X24571715Y5228279D01*
X24530676Y5174796D01*
X24473338Y5132929D01*
X24430714Y5125500D01*
X20969286Y5125500D01*
X20901165Y5145502D01*
X20869324Y5174796D01*
X20828284Y5228279D01*
X20828282Y5228282D01*
X20702841Y5324536D01*
X20556762Y5385044D01*
X20400000Y5405682D01*
X20243238Y5385044D01*
X20097159Y5324536D01*
X19971718Y5228282D01*
X19892851Y5125500D01*
X19875465Y5102842D01*
X19875463Y5102839D01*
X19814955Y4956760D01*
X19794318Y4800000D01*
X3625000Y4800000D01*
X3625000Y7200000D01*
X28594318Y7200000D01*
X28594318Y7199999D01*
X28614955Y7043239D01*
X28675463Y6897160D01*
X28675465Y6897157D01*
X28771718Y6771718D01*
X28897157Y6675465D01*
X28897160Y6675463D01*
X28982731Y6640018D01*
X29043238Y6614956D01*
X29052878Y6613686D01*
X29073657Y6610951D01*
X29138584Y6582227D01*
X29177675Y6522962D01*
X29178518Y6451970D01*
X29157172Y6409325D01*
X29075465Y6302842D01*
X29075463Y6302839D01*
X29014955Y6156760D01*
X28994318Y6000000D01*
X28994318Y5999999D01*
X29014955Y5843239D01*
X29075463Y5697160D01*
X29075465Y5697157D01*
X29171718Y5571718D01*
X29297157Y5475465D01*
X29297160Y5475463D01*
X29443239Y5414955D01*
X29600000Y5394318D01*
X29756760Y5414955D01*
X29902839Y5475463D01*
X29902842Y5475465D01*
X30028282Y5571718D01*
X30124536Y5697159D01*
X30185044Y5843238D01*
X30205682Y6000000D01*
X30185044Y6156762D01*
X30124536Y6302841D01*
X30028282Y6428282D01*
X29902841Y6524536D01*
X29756762Y6585044D01*
X29726344Y6589048D01*
X29661418Y6617769D01*
X29622325Y6677034D01*
X29621480Y6748025D01*
X29642827Y6790674D01*
X29724534Y6897157D01*
X29724536Y6897159D01*
X29785044Y7043238D01*
X29805682Y7200000D01*
X29785044Y7356762D01*
X29724536Y7502841D01*
X29628282Y7628282D01*
X29502841Y7724536D01*
X29356762Y7785044D01*
X29200000Y7805682D01*
X29043238Y7785044D01*
X28897159Y7724536D01*
X28771718Y7628282D01*
X28675465Y7502842D01*
X28675463Y7502839D01*
X28614955Y7356760D01*
X28594318Y7200000D01*
X3625000Y7200000D01*
X3625000Y8400000D01*
X27194318Y8400000D01*
X27194318Y8399999D01*
X27214955Y8243239D01*
X27275463Y8097160D01*
X27275465Y8097157D01*
X27371718Y7971718D01*
X27497157Y7875465D01*
X27497160Y7875463D01*
X27643239Y7814955D01*
X27800000Y7794318D01*
X27956760Y7814955D01*
X28102839Y7875463D01*
X28102842Y7875465D01*
X28228282Y7971718D01*
X28324536Y8097159D01*
X28385044Y8243238D01*
X28405682Y8400000D01*
X28385044Y8556762D01*
X28324536Y8702841D01*
X28228282Y8828282D01*
X28102841Y8924536D01*
X27956762Y8985044D01*
X27843159Y9000000D01*
X35994318Y9000000D01*
X35994318Y8999999D01*
X36014955Y8843239D01*
X36075463Y8697160D01*
X36075465Y8697157D01*
X36171718Y8571718D01*
X36297157Y8475465D01*
X36297160Y8475463D01*
X36443239Y8414955D01*
X36600000Y8394318D01*
X36756760Y8414955D01*
X36902839Y8475463D01*
X36902842Y8475465D01*
X37028282Y8571718D01*
X37028284Y8571720D01*
X37069324Y8625204D01*
X37126662Y8667071D01*
X37169286Y8674500D01*
X51126929Y8674500D01*
X51195050Y8654498D01*
X51241543Y8600842D01*
X51251647Y8530568D01*
X51243338Y8500282D01*
X51214955Y8431760D01*
X51194318Y8275000D01*
X51194318Y8274999D01*
X51214955Y8118239D01*
X51275463Y7972160D01*
X51275465Y7972157D01*
X51371718Y7846718D01*
X51497157Y7750465D01*
X51497160Y7750463D01*
X51643239Y7689955D01*
X51800000Y7669318D01*
X51956760Y7689955D01*
X52102839Y7750463D01*
X52102842Y7750465D01*
X52167398Y7800000D01*
X57994318Y7800000D01*
X57994318Y7799999D01*
X58014955Y7643239D01*
X58075463Y7497160D01*
X58075465Y7497157D01*
X58171718Y7371718D01*
X58297157Y7275465D01*
X58297160Y7275463D01*
X58443239Y7214955D01*
X58600000Y7194318D01*
X58756760Y7214955D01*
X58902839Y7275463D01*
X58902842Y7275465D01*
X59028282Y7371718D01*
X59124536Y7497159D01*
X59185044Y7643238D01*
X59199160Y7750463D01*
X59205682Y7799999D01*
X59205682Y7800000D01*
X59191492Y7907785D01*
X59185044Y7956762D01*
X59124536Y8102841D01*
X59028282Y8228282D01*
X58902841Y8324536D01*
X58756762Y8385044D01*
X58600000Y8405682D01*
X58443238Y8385044D01*
X58297159Y8324536D01*
X58171718Y8228282D01*
X58087279Y8118238D01*
X58075465Y8102842D01*
X58075463Y8102839D01*
X58014955Y7956760D01*
X57994318Y7800000D01*
X52167398Y7800000D01*
X52228282Y7846718D01*
X52324536Y7972159D01*
X52385044Y8118238D01*
X52399531Y8228281D01*
X52405682Y8274999D01*
X52405682Y8275000D01*
X52399160Y8324536D01*
X52385044Y8431762D01*
X52356661Y8500282D01*
X52349073Y8570872D01*
X52380853Y8634359D01*
X52441911Y8670586D01*
X52473071Y8674500D01*
X59757147Y8674500D01*
X60557147Y8674500D01*
X60642853Y8674500D01*
X62612982Y8674500D01*
X62681103Y8654498D01*
X62702078Y8637595D01*
X63369574Y7970097D01*
X63403599Y7907785D01*
X63405400Y7864557D01*
X63396476Y7796765D01*
X63396476Y7796761D01*
X63417113Y7640002D01*
X63477621Y7493923D01*
X63477623Y7493920D01*
X63573876Y7368481D01*
X63699315Y7272228D01*
X63699318Y7272226D01*
X63845397Y7211718D01*
X64002158Y7191081D01*
X64069907Y7200000D01*
X68394318Y7200000D01*
X68394318Y7199999D01*
X68414955Y7043239D01*
X68475463Y6897160D01*
X68475465Y6897157D01*
X68571718Y6771718D01*
X68697157Y6675465D01*
X68697160Y6675463D01*
X68843239Y6614955D01*
X69000000Y6594318D01*
X69156760Y6614955D01*
X69302839Y6675463D01*
X69302842Y6675465D01*
X69304887Y6677034D01*
X69428282Y6771718D01*
X69524536Y6897159D01*
X69585044Y7043238D01*
X69605682Y7200000D01*
X69585044Y7356762D01*
X69524536Y7502841D01*
X69428282Y7628282D01*
X69302841Y7724536D01*
X69156762Y7785044D01*
X69000000Y7805682D01*
X68843238Y7785044D01*
X68697159Y7724536D01*
X68571718Y7628282D01*
X68475465Y7502842D01*
X68475463Y7502839D01*
X68414955Y7356760D01*
X68394318Y7200000D01*
X64069907Y7200000D01*
X64158918Y7211718D01*
X64304997Y7272226D01*
X64305000Y7272228D01*
X64309216Y7275463D01*
X64430440Y7368481D01*
X64526694Y7493922D01*
X64587202Y7640001D01*
X64607840Y7796763D01*
X64587202Y7953525D01*
X64526694Y8099604D01*
X64430440Y8225045D01*
X64304999Y8321299D01*
X64158920Y8381807D01*
X64002158Y8402445D01*
X63936269Y8393770D01*
X63866123Y8404709D01*
X63830731Y8429594D01*
X62999862Y9260465D01*
X62925639Y9303318D01*
X62842853Y9325500D01*
X62842851Y9325500D01*
X61690016Y9325500D01*
X61621895Y9345502D01*
X61575402Y9399158D01*
X61565298Y9469432D01*
X61594792Y9534012D01*
X61600921Y9540595D01*
X61660326Y9600000D01*
X68669318Y9600000D01*
X68669318Y9599999D01*
X68689955Y9443239D01*
X68750463Y9297160D01*
X68750465Y9297157D01*
X68846718Y9171718D01*
X68972157Y9075465D01*
X68972160Y9075463D01*
X69118239Y9014955D01*
X69275000Y8994318D01*
X69431760Y9014955D01*
X69577839Y9075463D01*
X69577842Y9075465D01*
X69703282Y9171718D01*
X69799536Y9297159D01*
X69860044Y9443238D01*
X69880682Y9600000D01*
X69860044Y9756762D01*
X69799536Y9902841D01*
X69703282Y10028282D01*
X69577841Y10124536D01*
X69431762Y10185044D01*
X69275000Y10205682D01*
X69118238Y10185044D01*
X68972159Y10124536D01*
X68846718Y10028282D01*
X68750464Y9902841D01*
X68750463Y9902839D01*
X68689955Y9756760D01*
X68669318Y9600000D01*
X61660326Y9600000D01*
X61795450Y9735124D01*
X61795473Y9735145D01*
X61860459Y9800131D01*
X61860462Y9800135D01*
X61860465Y9800138D01*
X61903318Y9874362D01*
X61910949Y9902841D01*
X61925501Y9957148D01*
X61925501Y10042853D01*
X61925501Y10053003D01*
X61925500Y10053016D01*
X61925500Y11200000D01*
X68394318Y11200000D01*
X68394318Y11199999D01*
X68414955Y11043239D01*
X68475463Y10897160D01*
X68475465Y10897157D01*
X68571718Y10771718D01*
X68697157Y10675465D01*
X68697160Y10675463D01*
X68843239Y10614955D01*
X69000000Y10594318D01*
X69156760Y10614955D01*
X69302839Y10675463D01*
X69302842Y10675465D01*
X69428282Y10771718D01*
X69524536Y10897159D01*
X69585044Y11043238D01*
X69605682Y11200000D01*
X69585044Y11356762D01*
X69524536Y11502841D01*
X69428282Y11628282D01*
X69302841Y11724536D01*
X69156762Y11785044D01*
X69000000Y11805682D01*
X68843238Y11785044D01*
X68697159Y11724536D01*
X68571718Y11628282D01*
X68509433Y11547110D01*
X68475465Y11502842D01*
X68475463Y11502839D01*
X68414955Y11356760D01*
X68394318Y11200000D01*
X61925500Y11200000D01*
X61925500Y13500000D01*
X66644318Y13500000D01*
X66644318Y13499999D01*
X66664955Y13343239D01*
X66725463Y13197160D01*
X66725465Y13197157D01*
X66821718Y13071718D01*
X66947157Y12975465D01*
X66947160Y12975463D01*
X67093239Y12914955D01*
X67250000Y12894318D01*
X67406760Y12914955D01*
X67552839Y12975463D01*
X67552842Y12975465D01*
X67567896Y12987016D01*
X67678282Y13071718D01*
X67774536Y13197159D01*
X67835044Y13343238D01*
X67855682Y13500000D01*
X67835044Y13656762D01*
X67774536Y13802841D01*
X67678282Y13928282D01*
X67552841Y14024536D01*
X67406762Y14085044D01*
X67250000Y14105682D01*
X67093238Y14085044D01*
X66947159Y14024536D01*
X66821718Y13928282D01*
X66735170Y13815490D01*
X66725465Y13802842D01*
X66725463Y13802839D01*
X66664955Y13656760D01*
X66644318Y13500000D01*
X61925500Y13500000D01*
X61925500Y14300000D01*
X62919318Y14300000D01*
X62919318Y14299999D01*
X62939955Y14143239D01*
X63000463Y13997160D01*
X63000465Y13997157D01*
X63096718Y13871718D01*
X63222157Y13775465D01*
X63222160Y13775463D01*
X63368239Y13714955D01*
X63525000Y13694318D01*
X63681760Y13714955D01*
X63827839Y13775463D01*
X63827842Y13775465D01*
X63829401Y13776661D01*
X63953282Y13871718D01*
X64049536Y13997159D01*
X64110044Y14143238D01*
X64130682Y14300000D01*
X64110044Y14456762D01*
X64049536Y14602841D01*
X63953282Y14728282D01*
X63827841Y14824536D01*
X63681762Y14885044D01*
X63525000Y14905682D01*
X63368238Y14885044D01*
X63222159Y14824536D01*
X63096718Y14728282D01*
X63000743Y14603204D01*
X63000465Y14602842D01*
X63000463Y14602839D01*
X62939955Y14456760D01*
X62919318Y14300000D01*
X61925500Y14300000D01*
X61925500Y15042850D01*
X61925500Y15042853D01*
X61917751Y15071774D01*
X61903318Y15125639D01*
X61860465Y15199862D01*
X60999862Y16060465D01*
X60925639Y16103318D01*
X60844719Y16125000D01*
X62669318Y16125000D01*
X62669318Y16124999D01*
X62689955Y15968239D01*
X62750463Y15822160D01*
X62750465Y15822157D01*
X62846718Y15696718D01*
X62972157Y15600465D01*
X62972160Y15600463D01*
X63118239Y15539955D01*
X63275000Y15519318D01*
X63431760Y15539955D01*
X63577839Y15600463D01*
X63577842Y15600465D01*
X63584641Y15605682D01*
X63703282Y15696718D01*
X63799536Y15822159D01*
X63812881Y15854377D01*
X63857428Y15909657D01*
X63924791Y15932078D01*
X63993583Y15914520D01*
X64041961Y15862558D01*
X64045698Y15854376D01*
X64100463Y15722160D01*
X64100465Y15722157D01*
X64196718Y15596718D01*
X64322157Y15500465D01*
X64322160Y15500463D01*
X64468239Y15439955D01*
X64625000Y15419318D01*
X64781760Y15439955D01*
X64927839Y15500463D01*
X64927842Y15500465D01*
X64930936Y15502839D01*
X65053282Y15596718D01*
X65149536Y15722159D01*
X65210044Y15868238D01*
X65227391Y16000000D01*
X68794318Y16000000D01*
X68794318Y15999999D01*
X68814955Y15843239D01*
X68875463Y15697160D01*
X68875465Y15697157D01*
X68971718Y15571718D01*
X69097157Y15475465D01*
X69097160Y15475463D01*
X69243239Y15414955D01*
X69400000Y15394318D01*
X69556760Y15414955D01*
X69702839Y15475463D01*
X69702842Y15475465D01*
X69828282Y15571718D01*
X69924536Y15697159D01*
X69985044Y15843238D01*
X69999990Y15956762D01*
X70005682Y15999999D01*
X70005682Y16000000D01*
X69992143Y16102841D01*
X69985044Y16156762D01*
X69924536Y16302841D01*
X69828282Y16428282D01*
X69702841Y16524536D01*
X69556762Y16585044D01*
X69400000Y16605682D01*
X69243238Y16585044D01*
X69097159Y16524536D01*
X68971718Y16428282D01*
X68894648Y16327842D01*
X68875465Y16302842D01*
X68875463Y16302839D01*
X68814955Y16156760D01*
X68794318Y16000000D01*
X65227391Y16000000D01*
X65230682Y16025000D01*
X65210044Y16181762D01*
X65149536Y16327841D01*
X65053282Y16453282D01*
X64927841Y16549536D01*
X64781762Y16610044D01*
X64625000Y16630682D01*
X64468238Y16610044D01*
X64322159Y16549536D01*
X64196718Y16453282D01*
X64100465Y16327842D01*
X64100461Y16327835D01*
X64087118Y16295622D01*
X64042570Y16240341D01*
X63975206Y16217921D01*
X63906415Y16235480D01*
X63858037Y16287442D01*
X63854313Y16295596D01*
X63799536Y16427841D01*
X63703282Y16553282D01*
X63577841Y16649536D01*
X63431762Y16710044D01*
X63275000Y16730682D01*
X63118238Y16710044D01*
X62972159Y16649536D01*
X62846718Y16553282D01*
X62750802Y16428281D01*
X62750465Y16427842D01*
X62750463Y16427839D01*
X62689955Y16281760D01*
X62669318Y16125000D01*
X60844719Y16125000D01*
X60842853Y16125500D01*
X60842851Y16125500D01*
X59569286Y16125500D01*
X59501165Y16145502D01*
X59469324Y16174796D01*
X59428284Y16228279D01*
X59428282Y16228282D01*
X59302841Y16324536D01*
X59156762Y16385044D01*
X59000000Y16405682D01*
X58843238Y16385044D01*
X58697159Y16324536D01*
X58571718Y16228282D01*
X58475830Y16103318D01*
X58475465Y16102842D01*
X58475463Y16102839D01*
X58414955Y15956760D01*
X58394318Y15800000D01*
X58394318Y15799999D01*
X58414955Y15643239D01*
X58475463Y15497160D01*
X58475465Y15497157D01*
X58571720Y15371715D01*
X58581646Y15364099D01*
X58623512Y15306760D01*
X58627731Y15235889D01*
X58592965Y15173987D01*
X58553159Y15147732D01*
X58497159Y15124536D01*
X58371718Y15028282D01*
X58350017Y15000000D01*
X58275465Y14902842D01*
X58275463Y14902839D01*
X58214955Y14756760D01*
X58194318Y14600000D01*
X58194318Y14599999D01*
X58201829Y14542946D01*
X58190889Y14472797D01*
X58143761Y14419699D01*
X58076907Y14400500D01*
X57227404Y14400500D01*
X57159283Y14420502D01*
X57112790Y14474158D01*
X57102686Y14544432D01*
X57127442Y14603204D01*
X57199531Y14697152D01*
X57199532Y14697154D01*
X57199536Y14697159D01*
X57260044Y14843238D01*
X57280682Y15000000D01*
X57260044Y15156762D01*
X57199536Y15302841D01*
X57103282Y15428282D01*
X56977841Y15524536D01*
X56831762Y15585044D01*
X56675000Y15605682D01*
X56518238Y15585044D01*
X56372159Y15524536D01*
X56246718Y15428282D01*
X56153471Y15306760D01*
X56150465Y15302842D01*
X56150463Y15302839D01*
X56089955Y15156760D01*
X56069318Y15000000D01*
X56069318Y14999999D01*
X56089955Y14843239D01*
X56150463Y14697160D01*
X56150468Y14697152D01*
X56222558Y14603204D01*
X56248159Y14536984D01*
X56233894Y14467435D01*
X56184293Y14416639D01*
X56122596Y14400500D01*
X53263469Y14400500D01*
X53195348Y14420502D01*
X53163507Y14449796D01*
X53103284Y14528279D01*
X53103282Y14528282D01*
X52977841Y14624536D01*
X52831762Y14685044D01*
X52675000Y14705682D01*
X52518238Y14685044D01*
X52372159Y14624536D01*
X52246718Y14528282D01*
X52181462Y14443238D01*
X52150465Y14402842D01*
X52150463Y14402839D01*
X52089955Y14256760D01*
X52069318Y14100000D01*
X52069318Y14099999D01*
X52089955Y13943239D01*
X52118338Y13874718D01*
X52125927Y13804128D01*
X52094147Y13740641D01*
X52033089Y13704414D01*
X52001929Y13700500D01*
X46776661Y13700500D01*
X46708540Y13720502D01*
X46687566Y13737405D01*
X46337405Y14087566D01*
X46303379Y14149878D01*
X46300500Y14176661D01*
X46300500Y15200000D01*
X46794318Y15200000D01*
X46794318Y15199999D01*
X46814955Y15043239D01*
X46875463Y14897160D01*
X46875465Y14897157D01*
X46971718Y14771718D01*
X47097157Y14675465D01*
X47097160Y14675463D01*
X47243239Y14614955D01*
X47400000Y14594318D01*
X47556760Y14614955D01*
X47702839Y14675463D01*
X47702842Y14675465D01*
X47731105Y14697152D01*
X47828282Y14771718D01*
X47924536Y14897159D01*
X47985044Y15043238D01*
X48005682Y15200000D01*
X47985044Y15356762D01*
X47924536Y15502841D01*
X47828282Y15628282D01*
X47702841Y15724536D01*
X47556762Y15785044D01*
X47400000Y15805682D01*
X47243238Y15785044D01*
X47097159Y15724536D01*
X46971718Y15628282D01*
X46875465Y15502842D01*
X46875463Y15502839D01*
X46814955Y15356760D01*
X46794318Y15200000D01*
X46300500Y15200000D01*
X46300500Y17280000D01*
X56314318Y17280000D01*
X56314318Y17279999D01*
X56334955Y17123239D01*
X56395463Y16977160D01*
X56395465Y16977157D01*
X56491718Y16851718D01*
X56617157Y16755465D01*
X56617160Y16755463D01*
X56763239Y16694955D01*
X56920000Y16674318D01*
X57076760Y16694955D01*
X57222839Y16755463D01*
X57222842Y16755465D01*
X57348282Y16851718D01*
X57444536Y16977159D01*
X57505044Y17123238D01*
X57525682Y17280000D01*
X57505044Y17436762D01*
X57444536Y17582841D01*
X57348282Y17708282D01*
X57222841Y17804536D01*
X57076762Y17865044D01*
X56920000Y17885682D01*
X56763238Y17865044D01*
X56617159Y17804536D01*
X56491718Y17708282D01*
X56395465Y17582842D01*
X56395463Y17582839D01*
X56334955Y17436760D01*
X56314318Y17280000D01*
X46300500Y17280000D01*
X46300500Y18811531D01*
X46320502Y18879652D01*
X46349796Y18911493D01*
X46428279Y18971715D01*
X46428281Y18971717D01*
X46428282Y18971718D01*
X46449983Y19000000D01*
X55194318Y19000000D01*
X55194318Y18999999D01*
X55214955Y18843239D01*
X55275463Y18697160D01*
X55275465Y18697157D01*
X55371718Y18571718D01*
X55497157Y18475465D01*
X55497160Y18475463D01*
X55643239Y18414955D01*
X55800000Y18394318D01*
X55956760Y18414955D01*
X56102839Y18475463D01*
X56102842Y18475465D01*
X56127412Y18494318D01*
X56228282Y18571718D01*
X56324536Y18697159D01*
X56385044Y18843238D01*
X56401958Y18971716D01*
X56405682Y18999999D01*
X56405682Y19000000D01*
X56391582Y19107098D01*
X56385044Y19156762D01*
X56324536Y19302841D01*
X56228282Y19428282D01*
X56102841Y19524536D01*
X55956762Y19585044D01*
X55800000Y19605682D01*
X55643238Y19585044D01*
X55497159Y19524536D01*
X55371718Y19428282D01*
X55350017Y19400000D01*
X55275465Y19302842D01*
X55275463Y19302839D01*
X55214955Y19156760D01*
X55194318Y19000000D01*
X46449983Y19000000D01*
X46524536Y19097159D01*
X46585044Y19243238D01*
X46605682Y19400000D01*
X46585044Y19556762D01*
X46524536Y19702841D01*
X46428282Y19828282D01*
X46302841Y19924536D01*
X46156762Y19985044D01*
X46000000Y20005682D01*
X45843238Y19985044D01*
X45697159Y19924536D01*
X45571718Y19828282D01*
X45499961Y19734766D01*
X45442625Y19692901D01*
X45371754Y19688679D01*
X45309851Y19723443D01*
X45300042Y19734761D01*
X45228282Y19828282D01*
X45102841Y19924536D01*
X44956762Y19985044D01*
X44800000Y20005682D01*
X44643238Y19985044D01*
X44497159Y19924536D01*
X44371718Y19828282D01*
X44275465Y19702842D01*
X44275463Y19702839D01*
X44254494Y19652214D01*
X44209945Y19596933D01*
X44142582Y19574512D01*
X44073791Y19592070D01*
X44048993Y19611333D01*
X43399862Y20260465D01*
X43325639Y20303318D01*
X43242853Y20325500D01*
X41642853Y20325500D01*
X41557147Y20325500D01*
X41474361Y20303318D01*
X41400138Y20260465D01*
X41400136Y20260463D01*
X41400131Y20260459D01*
X41039540Y19899868D01*
X41039532Y19899858D01*
X40998208Y19828282D01*
X40996682Y19825639D01*
X40996680Y19825633D01*
X40996680Y19825632D01*
X40989848Y19800136D01*
X40974500Y19742855D01*
X40974500Y19669285D01*
X40954498Y19601164D01*
X40925203Y19569322D01*
X40871718Y19528282D01*
X40794987Y19428283D01*
X40775465Y19402842D01*
X40775463Y19402839D01*
X40714955Y19256760D01*
X40694318Y19100000D01*
X40694318Y19099999D01*
X40714955Y18943239D01*
X40775463Y18797160D01*
X40775465Y18797157D01*
X40871718Y18671718D01*
X40997157Y18575465D01*
X40997160Y18575463D01*
X41143239Y18514955D01*
X41300000Y18494318D01*
X41456760Y18514955D01*
X41602839Y18575463D01*
X41602842Y18575465D01*
X41728282Y18671718D01*
X41824536Y18797159D01*
X41885044Y18943238D01*
X41905682Y19100000D01*
X41885044Y19256762D01*
X41824536Y19402841D01*
X41776082Y19465988D01*
X41771625Y19471797D01*
X41746025Y19538017D01*
X41760290Y19607566D01*
X41809891Y19658361D01*
X41871588Y19674500D01*
X42321412Y19674500D01*
X42389533Y19654498D01*
X42436026Y19600842D01*
X42446130Y19530568D01*
X42416636Y19465988D01*
X42398115Y19448537D01*
X42371718Y19428282D01*
X42352197Y19402841D01*
X42275465Y19302842D01*
X42275463Y19302839D01*
X42214955Y19156760D01*
X42194318Y19000000D01*
X42194318Y18999999D01*
X42214955Y18843239D01*
X42275463Y18697160D01*
X42275465Y18697157D01*
X42371718Y18571718D01*
X42497157Y18475465D01*
X42497160Y18475463D01*
X42643239Y18414955D01*
X42789947Y18395641D01*
X42854874Y18366918D01*
X42893965Y18307653D01*
X42899500Y18270719D01*
X42899500Y11760434D01*
X42919977Y11684013D01*
X42952154Y11628282D01*
X42952155Y11628281D01*
X42959539Y11615490D01*
X42959545Y11615482D01*
X43934555Y10640474D01*
X43960073Y10614956D01*
X43990502Y10584526D01*
X43990505Y10584524D01*
X44059029Y10544962D01*
X44135449Y10524485D01*
X44135453Y10524485D01*
X57190035Y10524485D01*
X57258156Y10504483D01*
X57304649Y10450827D01*
X57314753Y10380553D01*
X57289997Y10321781D01*
X57275464Y10302841D01*
X57275463Y10302839D01*
X57214955Y10156760D01*
X57194318Y10000000D01*
X57194318Y9999999D01*
X57214955Y9843239D01*
X57275463Y9697160D01*
X57275465Y9697157D01*
X57371719Y9571716D01*
X57398115Y9551463D01*
X57439983Y9494126D01*
X57444205Y9423255D01*
X57409442Y9361351D01*
X57346729Y9328070D01*
X57321412Y9325500D01*
X37169286Y9325500D01*
X37101165Y9345502D01*
X37069324Y9374796D01*
X37028284Y9428279D01*
X37028282Y9428282D01*
X36902841Y9524536D01*
X36756762Y9585044D01*
X36600000Y9605682D01*
X36443238Y9585044D01*
X36297159Y9524536D01*
X36171718Y9428282D01*
X36108199Y9345502D01*
X36075465Y9302842D01*
X36075463Y9302839D01*
X36014955Y9156760D01*
X35994318Y9000000D01*
X27843159Y9000000D01*
X27800000Y9005682D01*
X27643238Y8985044D01*
X27497159Y8924536D01*
X27371718Y8828282D01*
X27275465Y8702842D01*
X27275463Y8702839D01*
X27214955Y8556760D01*
X27194318Y8400000D01*
X3625000Y8400000D01*
X3625000Y19990290D01*
X3645002Y20058411D01*
X3698658Y20104904D01*
X3768932Y20115008D01*
X3821002Y20095055D01*
X3871768Y20061133D01*
X3871771Y20061132D01*
X3930249Y20049500D01*
X3930252Y20049500D01*
X5669750Y20049500D01*
X5728228Y20061132D01*
X5728231Y20061133D01*
X5733569Y20064700D01*
X5794552Y20105448D01*
X5838867Y20171769D01*
X5850500Y20230252D01*
X5850500Y21969748D01*
X5838867Y22028231D01*
X5798663Y22088398D01*
X5777449Y22156150D01*
X5796232Y22224617D01*
X5849049Y22272061D01*
X5903429Y22284400D01*
X6824352Y22284400D01*
X6892473Y22264398D01*
G37*
%TD.AperFunction*%
%TD*%
M02*
