%TF.GenerationSoftware,KiCad,Pcbnew,8.0.5*%
%TF.CreationDate,2024-09-13T15:02:39+03:00*%
%TF.ProjectId,LEXI-R422,4c455849-2d52-4343-9232-2e6b69636164,rev?*%
%TF.SameCoordinates,Original*%
%TF.FileFunction,Copper,L4,Bot*%
%TF.FilePolarity,Positive*%
%FSLAX46Y46*%
G04 Gerber Fmt 4.6, Leading zero omitted, Abs format (unit mm)*
G04 Created by KiCad (PCBNEW 8.0.5) date 2024-09-13 15:02:39*
%MOMM*%
%LPD*%
G01*
G04 APERTURE LIST*
G04 Aperture macros list*
%AMRoundRect*
0 Rectangle with rounded corners*
0 $1 Rounding radius*
0 $2 $3 $4 $5 $6 $7 $8 $9 X,Y pos of 4 corners*
0 Add a 4 corners polygon primitive as box body*
4,1,4,$2,$3,$4,$5,$6,$7,$8,$9,$2,$3,0*
0 Add four circle primitives for the rounded corners*
1,1,$1+$1,$2,$3*
1,1,$1+$1,$4,$5*
1,1,$1+$1,$6,$7*
1,1,$1+$1,$8,$9*
0 Add four rect primitives between the rounded corners*
20,1,$1+$1,$2,$3,$4,$5,0*
20,1,$1+$1,$4,$5,$6,$7,0*
20,1,$1+$1,$6,$7,$8,$9,0*
20,1,$1+$1,$8,$9,$2,$3,0*%
%AMRotRect*
0 Rectangle, with rotation*
0 The origin of the aperture is its center*
0 $1 length*
0 $2 width*
0 $3 Rotation angle, in degrees counterclockwise*
0 Add horizontal line*
21,1,$1,$2,0,0,$3*%
G04 Aperture macros list end*
%TA.AperFunction,ComponentPad*%
%ADD10C,0.600000*%
%TD*%
%TA.AperFunction,SMDPad,CuDef*%
%ADD11R,0.900000X1.600000*%
%TD*%
%TA.AperFunction,ComponentPad*%
%ADD12R,2.400000X2.400000*%
%TD*%
%TA.AperFunction,ComponentPad*%
%ADD13C,2.400000*%
%TD*%
%TA.AperFunction,ComponentPad*%
%ADD14R,1.700000X1.700000*%
%TD*%
%TA.AperFunction,ComponentPad*%
%ADD15O,1.700000X1.700000*%
%TD*%
%TA.AperFunction,SMDPad,CuDef*%
%ADD16RoundRect,0.250001X1.399999X-0.837499X1.399999X0.837499X-1.399999X0.837499X-1.399999X-0.837499X0*%
%TD*%
%TA.AperFunction,SMDPad,CuDef*%
%ADD17R,1.000000X1.000000*%
%TD*%
%TA.AperFunction,SMDPad,CuDef*%
%ADD18R,1.050000X2.200000*%
%TD*%
%TA.AperFunction,SMDPad,CuDef*%
%ADD19R,3.150000X1.000000*%
%TD*%
%TA.AperFunction,SMDPad,CuDef*%
%ADD20R,0.600000X0.600000*%
%TD*%
%TA.AperFunction,SMDPad,CuDef*%
%ADD21RotRect,5.100000X5.100000X170.000000*%
%TD*%
%TA.AperFunction,SMDPad,CuDef*%
%ADD22C,1.000000*%
%TD*%
%TA.AperFunction,SMDPad,CuDef*%
%ADD23RoundRect,0.200000X-0.200000X-0.275000X0.200000X-0.275000X0.200000X0.275000X-0.200000X0.275000X0*%
%TD*%
%TA.AperFunction,SMDPad,CuDef*%
%ADD24R,0.950000X1.200000*%
%TD*%
%TA.AperFunction,SMDPad,CuDef*%
%ADD25RoundRect,0.225000X-0.250000X0.225000X-0.250000X-0.225000X0.250000X-0.225000X0.250000X0.225000X0*%
%TD*%
%TA.AperFunction,SMDPad,CuDef*%
%ADD26RotRect,5.100000X5.100000X165.000000*%
%TD*%
%TA.AperFunction,SMDPad,CuDef*%
%ADD27RotRect,5.100000X5.100000X125.000000*%
%TD*%
%TA.AperFunction,ViaPad*%
%ADD28C,0.400000*%
%TD*%
%TA.AperFunction,ViaPad*%
%ADD29C,0.800000*%
%TD*%
%TA.AperFunction,Conductor*%
%ADD30C,0.250000*%
%TD*%
%TA.AperFunction,Conductor*%
%ADD31C,1.000000*%
%TD*%
%TA.AperFunction,Conductor*%
%ADD32C,0.200000*%
%TD*%
%TA.AperFunction,Conductor*%
%ADD33C,0.625000*%
%TD*%
G04 APERTURE END LIST*
D10*
%TO.P,U1,9,PAD*%
%TO.N,GND*%
X26450000Y6650000D03*
D11*
X26450000Y6150000D03*
D10*
X26450000Y5650000D03*
%TD*%
D12*
%TO.P,BT1,1,+*%
%TO.N,/+3V6d*%
X11750000Y19500000D03*
D13*
%TO.P,BT1,2,-*%
%TO.N,GND*%
X11750000Y-1500000D03*
%TO.P,BT1,3,-*%
X15500000Y-1500000D03*
%TO.P,BT1,4,-*%
X8000000Y-1500000D03*
%TD*%
D14*
%TO.P,J1,1,Pin_1*%
%TO.N,/+3V6*%
X4800000Y21100000D03*
D15*
%TO.P,J1,2,Pin_2*%
%TO.N,/+3V6d*%
X7340000Y21100000D03*
%TD*%
D16*
%TO.P,C5,1*%
%TO.N,/VBAT*%
X30060000Y3292500D03*
%TO.P,C5,2*%
%TO.N,GND*%
X30060000Y9667500D03*
%TD*%
D17*
%TO.P,J12,1,Pin_1*%
%TO.N,/RF_OUT1*%
X29875000Y18235800D03*
D18*
%TO.P,J12,2,Pin_2*%
%TO.N,GND*%
X31350000Y19735800D03*
D17*
X29875000Y21235800D03*
D18*
X28400000Y19735800D03*
%TD*%
D19*
%TO.P,J3,1,Pin_1*%
%TO.N,/uDTR*%
X66350000Y19840000D03*
%TO.P,J3,2,Pin_2*%
%TO.N,/uDCD*%
X66350000Y17300000D03*
%TO.P,J3,3,Pin_3*%
%TO.N,unconnected-(J3-Pin_3-Pad3)*%
X66350000Y14760000D03*
%TO.P,J3,4,Pin_4*%
%TO.N,/uPWRKEY*%
X66350000Y12220000D03*
%TO.P,J3,5,Pin_5*%
%TO.N,/TxD*%
X66350000Y9680000D03*
%TO.P,J3,6,Pin_6*%
%TO.N,/RxD*%
X66350000Y7140000D03*
%TO.P,J3,7,Pin_7*%
%TO.N,/Alim*%
X66350000Y4600000D03*
%TO.P,J3,8,Pin_8*%
%TO.N,/+3V3_UC*%
X66350000Y2060000D03*
%TO.P,J3,9,Pin_9*%
%TO.N,/D-*%
X61300000Y19840000D03*
%TO.P,J3,10,Pin_10*%
%TO.N,/D+*%
X61300000Y17300000D03*
%TO.P,J3,11,Pin_11*%
%TO.N,/Vbus*%
X61300000Y14760000D03*
%TO.P,J3,12,Pin_12*%
%TO.N,/U5V*%
X61300000Y12220000D03*
%TO.P,J3,13,Pin_13*%
%TO.N,/P99*%
X61300000Y9680000D03*
%TO.P,J3,14,Pin_14*%
%TO.N,/VDD_EXT*%
X61300000Y7140000D03*
%TO.P,J3,15,Pin_15*%
%TO.N,GND*%
X61300000Y4600000D03*
%TO.P,J3,16,Pin_16*%
X61300000Y2060000D03*
%TD*%
D20*
%TO.P,M1,A2,GND*%
%TO.N,GND*%
X37700000Y17050000D03*
%TO.P,M1,A3,ANT*%
%TO.N,/RF_OUT*%
X37700000Y16150000D03*
%TO.P,M1,A4,GND*%
%TO.N,GND*%
X37700000Y15250000D03*
%TO.P,M1,A5,ANT_DET*%
%TO.N,unconnected-(M1A-ANT_DET-PadA5)*%
X37700000Y14350000D03*
%TO.P,M1,A6,RSVD*%
%TO.N,unconnected-(M1A-RSVD-PadA6)*%
X37700000Y13450000D03*
%TO.P,M1,A7,RSVD*%
%TO.N,unconnected-(M1A-RSVD-PadA7)*%
X37700000Y12550000D03*
%TO.P,M1,A8,RSVD*%
%TO.N,unconnected-(M1A-RSVD-PadA8)*%
X37700000Y11650000D03*
%TO.P,M1,A9,RFCTRL1*%
%TO.N,unconnected-(M1A-RFCTRL1-PadA9)*%
X37700000Y10750000D03*
%TO.P,M1,A10,RFCTRL2*%
%TO.N,unconnected-(M1A-RFCTRL2-PadA10)*%
X37700000Y9850000D03*
%TO.P,M1,A11,V_INT*%
%TO.N,/VDD_EXT*%
X37700000Y8950000D03*
%TO.P,M1,A12,VCC*%
%TO.N,/VBAT_F*%
X37700000Y8050000D03*
%TO.P,M1,A13,VCC*%
X37700000Y7150000D03*
%TO.P,M1,A14,VCC*%
X37700000Y6250000D03*
%TO.P,M1,B1,GND*%
%TO.N,GND*%
X38600000Y17950000D03*
%TO.P,M1,B15,RSVD*%
%TO.N,unconnected-(M1A-RSVD-PadB15)*%
X38600000Y5350000D03*
%TO.P,M1,C1,RSVD*%
%TO.N,unconnected-(M1A-RSVD-PadC1)*%
X39500000Y17950000D03*
%TO.P,M1,C3,GND*%
%TO.N,GND*%
X39500000Y16150000D03*
%TO.P,M1,C5,RSVD*%
%TO.N,unconnected-(M1B-RSVD-PadC5)*%
X39500000Y14350000D03*
%TO.P,M1,C6,RSVD*%
%TO.N,unconnected-(M1B-RSVD-PadC6)*%
X39500000Y13450000D03*
%TO.P,M1,C7,GND*%
%TO.N,GND*%
X39500000Y12550000D03*
%TO.P,M1,C8,GND*%
X39500000Y11650000D03*
%TO.P,M1,C9,GND*%
X39500000Y10750000D03*
%TO.P,M1,C10,GND*%
X39500000Y9850000D03*
%TO.P,M1,C11,GND*%
X39500000Y8950000D03*
%TO.P,M1,C13,GND*%
X39500000Y7150000D03*
%TO.P,M1,C15,RSVD*%
%TO.N,unconnected-(M1A-RSVD-PadC15)*%
X39500000Y5350000D03*
%TO.P,M1,D1,GND*%
%TO.N,GND*%
X40400000Y17950000D03*
%TO.P,M1,D15,RSVD*%
%TO.N,unconnected-(M1A-RSVD-PadD15)*%
X40400000Y5350000D03*
%TO.P,M1,E1,RXD*%
%TO.N,/RXD*%
X41300000Y17950000D03*
%TO.P,M1,E3,RSVD*%
%TO.N,unconnected-(M1B-RSVD-PadE3)*%
X41300000Y16150000D03*
%TO.P,M1,E5,RSVD*%
%TO.N,unconnected-(M1B-RSVD-PadE5)*%
X41300000Y14350000D03*
%TO.P,M1,E6,GND*%
%TO.N,GND*%
X41300000Y13450000D03*
%TO.P,M1,E7,GND*%
X41300000Y12550000D03*
%TO.P,M1,E8,GND*%
X41300000Y11650000D03*
%TO.P,M1,E9,GND*%
X41300000Y10750000D03*
%TO.P,M1,E10,GND*%
X41300000Y9850000D03*
%TO.P,M1,E11,GND*%
X41300000Y8950000D03*
%TO.P,M1,E13,GND*%
X41300000Y7150000D03*
%TO.P,M1,E15,RSVD*%
%TO.N,unconnected-(M1A-RSVD-PadE15)*%
X41300000Y5350000D03*
%TO.P,M1,F1,TXD*%
%TO.N,/TXD*%
X42200000Y17950000D03*
%TO.P,M1,F3,RSVD*%
%TO.N,unconnected-(M1B-RSVD-PadF3)*%
X42200000Y16150000D03*
%TO.P,M1,F5,RSVD*%
%TO.N,unconnected-(M1B-RSVD-PadF5)*%
X42200000Y14350000D03*
%TO.P,M1,F6,GND*%
%TO.N,GND*%
X42200000Y13450000D03*
%TO.P,M1,F7,GND*%
X42200000Y12550000D03*
%TO.P,M1,F8,GND*%
X42200000Y11650000D03*
%TO.P,M1,F9,GND*%
X42200000Y10750000D03*
%TO.P,M1,F10,GND*%
X42200000Y9850000D03*
%TO.P,M1,F11,GND*%
X42200000Y8950000D03*
%TO.P,M1,F13,GND*%
X42200000Y7150000D03*
%TO.P,M1,F15,RSVD*%
%TO.N,unconnected-(M1A-RSVD-PadF15)*%
X42200000Y5350000D03*
%TO.P,M1,G1,CTS*%
%TO.N,unconnected-(M1A-CTS-PadG1)*%
X43100000Y17950000D03*
%TO.P,M1,G3,RSVD*%
%TO.N,unconnected-(M1B-RSVD-PadG3)*%
X43100000Y16150000D03*
%TO.P,M1,G5,RSVD*%
%TO.N,unconnected-(M1B-RSVD-PadG5)*%
X43100000Y14350000D03*
%TO.P,M1,G6,GND*%
%TO.N,GND*%
X43100000Y13450000D03*
%TO.P,M1,G7,GND*%
X43100000Y12550000D03*
%TO.P,M1,G8,GND*%
X43100000Y11650000D03*
%TO.P,M1,G9,GND*%
X43100000Y10750000D03*
%TO.P,M1,G10,GND*%
X43100000Y9850000D03*
%TO.P,M1,G11,GND*%
X43100000Y8950000D03*
%TO.P,M1,G13,GND*%
X43100000Y7150000D03*
%TO.P,M1,G15,RSVD*%
%TO.N,unconnected-(M1A-RSVD-PadG15)*%
X43100000Y5350000D03*
%TO.P,M1,H1,RTS*%
%TO.N,Net-(M1A-RTS)*%
X44000000Y17950000D03*
%TO.P,M1,H3,RSVD*%
%TO.N,unconnected-(M1B-RSVD-PadH3)*%
X44000000Y16150000D03*
%TO.P,M1,H5,RSVD*%
%TO.N,unconnected-(M1B-RSVD-PadH5)*%
X44000000Y14350000D03*
%TO.P,M1,H6,GND*%
%TO.N,GND*%
X44000000Y13450000D03*
%TO.P,M1,H7,GND*%
X44000000Y12550000D03*
%TO.P,M1,H8,GND*%
X44000000Y11650000D03*
%TO.P,M1,H9,GND*%
X44000000Y10750000D03*
%TO.P,M1,H10,GND*%
X44000000Y9850000D03*
%TO.P,M1,H11,GND*%
X44000000Y8950000D03*
%TO.P,M1,H13,GND*%
X44000000Y7150000D03*
%TO.P,M1,H15,VSIM*%
%TO.N,/uVDD*%
X44000000Y5350000D03*
%TO.P,M1,J1,DCD*%
%TO.N,/DCD*%
X44900000Y17950000D03*
%TO.P,M1,J3,RSVD*%
%TO.N,unconnected-(M1B-RSVD-PadJ3)*%
X44900000Y16150000D03*
%TO.P,M1,J5,RSVD*%
%TO.N,/P99*%
X44900000Y14350000D03*
%TO.P,M1,J6,GND*%
%TO.N,GND*%
X44900000Y13450000D03*
%TO.P,M1,J7,GND*%
X44900000Y12550000D03*
%TO.P,M1,J8,GND*%
X44900000Y11650000D03*
%TO.P,M1,J9,GND*%
X44900000Y10750000D03*
%TO.P,M1,J10,GND*%
X44900000Y9850000D03*
%TO.P,M1,J11,GND*%
X44900000Y8950000D03*
%TO.P,M1,J13,GND*%
X44900000Y7150000D03*
%TO.P,M1,J15,SIM_IO*%
%TO.N,/uData*%
X44900000Y5350000D03*
%TO.P,M1,K1,DTR*%
%TO.N,/DTR*%
X45800000Y17950000D03*
%TO.P,M1,K3,RSVD*%
%TO.N,unconnected-(M1B-RSVD-PadK3)*%
X45800000Y16150000D03*
%TO.P,M1,K5,RSVD*%
%TO.N,unconnected-(M1B-RSVD-PadK5)*%
X45800000Y14350000D03*
%TO.P,M1,K6,GND*%
%TO.N,GND*%
X45800000Y13450000D03*
%TO.P,M1,K7,GND*%
X45800000Y12550000D03*
%TO.P,M1,K8,GND*%
X45800000Y11650000D03*
%TO.P,M1,K9,GND*%
X45800000Y10750000D03*
%TO.P,M1,K10,GND*%
X45800000Y9850000D03*
%TO.P,M1,K11,GND*%
X45800000Y8950000D03*
%TO.P,M1,K13,GND*%
X45800000Y7150000D03*
%TO.P,M1,K15,SIM_CLK*%
%TO.N,/uCLK*%
X45800000Y5350000D03*
%TO.P,M1,L1,RI*%
%TO.N,unconnected-(M1A-RI-PadL1)*%
X46700000Y17950000D03*
%TO.P,M1,L3,GND*%
%TO.N,GND*%
X46700000Y16150000D03*
%TO.P,M1,L5,GND*%
X46700000Y14350000D03*
%TO.P,M1,L6,GND*%
X46700000Y13450000D03*
%TO.P,M1,L7,GND*%
X46700000Y12550000D03*
%TO.P,M1,L8,GND*%
X46700000Y11650000D03*
%TO.P,M1,L9,GND*%
X46700000Y10750000D03*
%TO.P,M1,L10,GND*%
X46700000Y9850000D03*
%TO.P,M1,L11,GND*%
X46700000Y8950000D03*
%TO.P,M1,L13,GND*%
X46700000Y7150000D03*
%TO.P,M1,L15,SIM_RST*%
%TO.N,/uRST*%
X46700000Y5350000D03*
%TO.P,M1,M1,DSR*%
%TO.N,unconnected-(M1A-DSR-PadM1)*%
X47600000Y17950000D03*
%TO.P,M1,M15,GPIO6*%
%TO.N,unconnected-(M1A-GPIO6-PadM15)*%
X47600000Y5350000D03*
%TO.P,M1,N1,SCL*%
%TO.N,unconnected-(M1A-SCL-PadN1)*%
X48500000Y17950000D03*
%TO.P,M1,N3,GND*%
%TO.N,GND*%
X48500000Y16150000D03*
%TO.P,M1,N5,GND*%
X48500000Y14350000D03*
%TO.P,M1,N6*%
%TO.N,N/C*%
X48500000Y13450000D03*
%TO.P,M1,N7,GND*%
%TO.N,GND*%
X48500000Y12550000D03*
%TO.P,M1,N8,GND*%
X48500000Y11650000D03*
%TO.P,M1,N9,GND*%
X48500000Y10750000D03*
%TO.P,M1,N10,GND*%
X48500000Y9850000D03*
%TO.P,M1,N11,GND*%
X48500000Y8950000D03*
%TO.P,M1,N13,GND*%
X48500000Y7150000D03*
%TO.P,M1,N15,RSVD*%
%TO.N,unconnected-(M1A-RSVD-PadN15)*%
X48500000Y5350000D03*
%TO.P,M1,P1,SDA*%
%TO.N,unconnected-(M1A-SDA-PadP1)*%
X49400000Y17950000D03*
%TO.P,M1,P15,PWR_CTRL*%
%TO.N,/PWRKEY*%
X49400000Y5350000D03*
%TO.P,M1,R2,GPIO1*%
%TO.N,/Network*%
X50300000Y17050000D03*
%TO.P,M1,R3,GPIO2*%
%TO.N,unconnected-(M1A-GPIO2-PadR3)*%
X50300000Y16150000D03*
%TO.P,M1,R4,GPIO3*%
%TO.N,unconnected-(M1A-GPIO3-PadR4)*%
X50300000Y15250000D03*
%TO.P,M1,R5,GPIO4*%
%TO.N,unconnected-(M1A-GPIO4-PadR5)*%
X50300000Y14350000D03*
%TO.P,M1,R6,GPIO5*%
%TO.N,unconnected-(M1A-GPIO5-PadR6)*%
X50300000Y13450000D03*
%TO.P,M1,R7,USB_3V3*%
%TO.N,/Vbus*%
X50300000Y12550000D03*
%TO.P,M1,R8,USB_D-*%
%TO.N,/D+*%
X50300000Y11650000D03*
%TO.P,M1,R9,USB_D+*%
%TO.N,/D-*%
X50300000Y10750000D03*
%TO.P,M1,R10,USB_5V0*%
%TO.N,/U5V*%
X50300000Y9850000D03*
%TO.P,M1,R11,RSVD*%
%TO.N,unconnected-(M1A-RSVD-PadR11)*%
X50300000Y8950000D03*
%TO.P,M1,R12,RSVD*%
%TO.N,unconnected-(M1A-RSVD-PadR12)*%
X50300000Y8050000D03*
%TO.P,M1,R13,RSVD*%
%TO.N,unconnected-(M1A-RSVD-PadR13)*%
X50300000Y7150000D03*
%TO.P,M1,R14,RSVD*%
%TO.N,unconnected-(M1A-RSVD-PadR14)*%
X50300000Y6250000D03*
%TD*%
D21*
%TO.P,J5,1,Pin_1*%
%TO.N,unconnected-(J5-Pin_1-Pad1)*%
X18897600Y19431000D03*
%TD*%
D22*
%TO.P,FID2,*%
%TO.N,*%
X66776600Y-1092200D03*
%TD*%
D23*
%TO.P,R4,1*%
%TO.N,/RF_OUT1*%
X31400000Y16150000D03*
%TO.P,R4,2*%
%TO.N,/RF_OUT*%
X33050000Y16150000D03*
%TD*%
%TO.P,R1,1*%
%TO.N,GND*%
X42150000Y21200000D03*
%TO.P,R1,2*%
%TO.N,Net-(M1A-RTS)*%
X43800000Y21200000D03*
%TD*%
D24*
%TO.P,FB1,1*%
%TO.N,/VBAT_F*%
X34400000Y7150000D03*
%TO.P,FB1,2*%
%TO.N,/VBAT*%
X34400000Y4850000D03*
%TD*%
D19*
%TO.P,J2,1,Pin_1*%
%TO.N,GND*%
X17700000Y1970000D03*
%TO.P,J2,2,Pin_2*%
X17700000Y4510000D03*
%TO.P,J2,3,Pin_3*%
X17700000Y7050000D03*
%TO.P,J2,4,Pin_4*%
X17700000Y9590000D03*
%TO.P,J2,5,Pin_5*%
X17700000Y12130000D03*
%TO.P,J2,6,Pin_6*%
%TO.N,/+3V6*%
X22750000Y1970000D03*
%TO.P,J2,7,Pin_7*%
X22750000Y4510000D03*
%TO.P,J2,8,Pin_8*%
X22750000Y7050000D03*
%TO.P,J2,9,Pin_9*%
X22750000Y9590000D03*
%TO.P,J2,10,Pin_10*%
X22750000Y12130000D03*
%TD*%
D25*
%TO.P,C13,1*%
%TO.N,/RF_OUT1*%
X29875000Y16150000D03*
%TO.P,C13,2*%
%TO.N,GND*%
X29875000Y14600000D03*
%TD*%
D26*
%TO.P,J6,1,Pin_1*%
%TO.N,unconnected-(J6-Pin_1-Pad1)*%
X71805800Y19227800D03*
%TD*%
D27*
%TO.P,J4,1,Pin_1*%
%TO.N,unconnected-(J4-Pin_1-Pad1)*%
X7467600Y7950200D03*
%TD*%
D22*
%TO.P,FID3,*%
%TO.N,*%
X6197600Y13309600D03*
%TD*%
D25*
%TO.P,C14,1*%
%TO.N,/RF_OUT*%
X34500000Y16150000D03*
%TO.P,C14,2*%
%TO.N,GND*%
X34500000Y14600000D03*
%TD*%
D28*
%TO.N,GND*%
X22833000Y15636343D03*
X72333000Y9636343D03*
X13833000Y17136343D03*
X70833000Y-863657D03*
X15333000Y20136343D03*
X21333000Y15636343D03*
X10833000Y5136343D03*
X72333000Y6636343D03*
X72333000Y3636343D03*
X22833000Y17136343D03*
X35400000Y15200000D03*
X24333000Y18636343D03*
X25833000Y21636343D03*
X32400000Y15000000D03*
X15333000Y5136343D03*
X34833000Y12636343D03*
X36333000Y11136343D03*
X57333000Y-2363657D03*
X55833000Y-2363657D03*
X18333000Y-2363657D03*
X73833000Y-863657D03*
X15333000Y9636343D03*
X10833000Y636343D03*
X27333000Y21636343D03*
X15333000Y8136343D03*
X36333000Y18636343D03*
X25833000Y9636343D03*
X13833000Y21636343D03*
X29000000Y17400000D03*
X73833000Y6636343D03*
X21333000Y-2363657D03*
X73833000Y5136343D03*
X18333000Y-863657D03*
X13833000Y20136343D03*
X4833000Y12636343D03*
X69333000Y636343D03*
X73833000Y3636343D03*
X4833000Y636343D03*
X25833000Y17136343D03*
X36333000Y21636343D03*
X60333000Y-2363657D03*
X34833000Y11136343D03*
X36333000Y20136343D03*
X27333000Y11136343D03*
X4833000Y2136343D03*
X7833000Y636343D03*
X58833000Y-2363657D03*
X70833000Y2136343D03*
X25833000Y18636343D03*
X15333000Y11136343D03*
X9333000Y17136343D03*
X30333000Y12636343D03*
X4833000Y-863657D03*
X73833000Y2136343D03*
X28800000Y18000000D03*
X31800000Y15000000D03*
X49833000Y2136343D03*
X37833000Y21636343D03*
X15333000Y12636343D03*
X27333000Y14136343D03*
X63333000Y-2363657D03*
X72333000Y11136343D03*
D29*
X18135600Y16179800D03*
D28*
X45333000Y-2363657D03*
X12333000Y21636343D03*
X9333000Y636343D03*
X13833000Y14136343D03*
X49833000Y-2363657D03*
X15333000Y18636343D03*
X32400000Y17200000D03*
X30333000Y636343D03*
X4833000Y3636343D03*
X24333000Y20136343D03*
X73833000Y11136343D03*
X73833000Y9636343D03*
X30600000Y17000000D03*
X24333000Y636343D03*
X48333000Y-2363657D03*
X51333000Y18636343D03*
X33333000Y12636343D03*
X39333000Y20136343D03*
X13833000Y18636343D03*
X7833000Y18636343D03*
X24333000Y-2363657D03*
X25833000Y20136343D03*
X33000000Y15000000D03*
X31833000Y12636343D03*
X21333000Y14136343D03*
X40833000Y-2363657D03*
X43833000Y-2363657D03*
X72333000Y636343D03*
X61833000Y-2363657D03*
X33333000Y18636343D03*
X33333000Y11136343D03*
X58833000Y2136343D03*
X45333000Y21636343D03*
X24333000Y21636343D03*
X28833000Y12636343D03*
X15333000Y14136343D03*
X37833000Y20136343D03*
X24333000Y14136343D03*
X55833000Y6636343D03*
X39333000Y21636343D03*
X72333000Y14136343D03*
X30333000Y-863657D03*
X46833000Y-2363657D03*
X9333000Y18636343D03*
X72333000Y2136343D03*
X58833000Y3636343D03*
X33333000Y-2363657D03*
X46833000Y21636343D03*
X69333000Y-2363657D03*
X13833000Y9636343D03*
X73833000Y12636343D03*
X13833000Y11136343D03*
X25833000Y12636343D03*
X27333000Y15636343D03*
X7833000Y2136343D03*
X36000000Y15200000D03*
D29*
X22707600Y21285200D03*
D28*
X15333000Y3636343D03*
X24333000Y17136343D03*
X31833000Y21636343D03*
X31200000Y15000000D03*
X55833000Y2136343D03*
X4833000Y5136343D03*
X51333000Y17136343D03*
X19833000Y14136343D03*
X67833000Y-2363657D03*
X4833000Y-2363657D03*
X39333000Y2136343D03*
X22833000Y-863657D03*
X16833000Y14136343D03*
X51333000Y15636343D03*
X7833000Y3636343D03*
X24333000Y-863657D03*
X52833000Y-2363657D03*
X72333000Y8136343D03*
X72333000Y-2363657D03*
X28800000Y15600000D03*
X18333000Y14136343D03*
X64833000Y-2363657D03*
X48333000Y20136343D03*
X25833000Y14136343D03*
X22833000Y14136343D03*
X31800000Y17200000D03*
X39333000Y-2363657D03*
X33333000Y21636343D03*
X4833000Y11136343D03*
X69333000Y-863657D03*
X42333000Y-2363657D03*
X33333000Y9636343D03*
X13833000Y12636343D03*
X31200000Y17200000D03*
X15333000Y21636343D03*
X25833000Y11136343D03*
X19833000Y-863657D03*
X48333000Y21636343D03*
X21333000Y-863657D03*
X34833000Y20136343D03*
X54333000Y-2363657D03*
X58833000Y5136343D03*
X13833000Y15636343D03*
X36333000Y12636343D03*
X37833000Y-2363657D03*
X70833000Y-2363657D03*
X6333000Y636343D03*
X19833000Y15636343D03*
X31833000Y-2363657D03*
X28800000Y16800000D03*
X27333000Y12636343D03*
X67833000Y636343D03*
X34800000Y17200000D03*
X30800000Y18200000D03*
X64833000Y-863657D03*
X34833000Y18636343D03*
X19833000Y-2363657D03*
X36600000Y17000000D03*
X36000000Y17000000D03*
X57333000Y2136343D03*
X10833000Y3636343D03*
X30333000Y-2363657D03*
X22833000Y-2363657D03*
X13833000Y5136343D03*
X73833000Y8136343D03*
X33000000Y17200000D03*
X27333000Y17136343D03*
X22833000Y18636343D03*
X4833000Y14136343D03*
X33600000Y15000000D03*
X70833000Y636343D03*
X9333000Y2136343D03*
X66333000Y-2363657D03*
X35400000Y17000000D03*
X25833000Y15636343D03*
X73833000Y-2363657D03*
X72333000Y12636343D03*
X9333000Y3636343D03*
X30800000Y17600000D03*
X40833000Y2136343D03*
X33333000Y20136343D03*
X34833000Y21636343D03*
X33600000Y17200000D03*
X72333000Y-863657D03*
X34200000Y17200000D03*
X73833000Y636343D03*
X28800000Y16200000D03*
X64833000Y21636343D03*
X36600000Y15200000D03*
X24333000Y15636343D03*
X10833000Y2136343D03*
X42333000Y3636343D03*
X73833000Y14136343D03*
X34833000Y9636343D03*
X15333000Y15636343D03*
X51333000Y-2363657D03*
D29*
%TO.N,/uRST*%
X56675000Y15000000D03*
X48000000Y4200000D03*
%TO.N,/uCLK*%
X46600000Y4000000D03*
X56920000Y17280000D03*
%TO.N,/uData*%
X45200000Y4000000D03*
X55800000Y19000000D03*
%TO.N,/uVDD*%
X44000000Y4600000D03*
%TO.N,/VBAT*%
X29200000Y7200000D03*
X36200000Y4400000D03*
X69400000Y16000000D03*
X39800000Y4200000D03*
X35400000Y800000D03*
X37600000Y4600000D03*
X35600000Y-1600000D03*
X36800000Y3000000D03*
X29600000Y6000000D03*
X27800000Y8400000D03*
%TO.N,/uPWRKEY*%
X69000000Y11200000D03*
%TO.N,/uDTR*%
X63275000Y16125000D03*
%TO.N,/TxD*%
X69275000Y9600000D03*
%TO.N,/RxD*%
X69000000Y7200000D03*
%TO.N,/uDCD*%
X64625000Y16025000D03*
%TO.N,/RXD*%
X59148889Y11524985D03*
X41300000Y19100000D03*
%TO.N,/TXD*%
X60000000Y11000000D03*
X42800000Y19000000D03*
%TO.N,/VDD_EXT*%
X64002158Y7796763D03*
X36600000Y9000000D03*
X59000000Y15800000D03*
%TO.N,/DTR*%
X46000000Y19400000D03*
X59400000Y13400000D03*
%TO.N,/DCD*%
X58952785Y12505571D03*
X44800000Y19400000D03*
%TO.N,/PWRKEY*%
X50800000Y5200000D03*
%TO.N,/Alim*%
X32800000Y0D03*
X26400000Y3400000D03*
%TO.N,/+3V6d*%
X25000000Y4800000D03*
X20400000Y4800000D03*
%TO.N,/+3V3_UC*%
X68500000Y3275000D03*
X67250000Y13500000D03*
X63525000Y14300000D03*
%TO.N,/Vbus*%
X58800000Y14600000D03*
X52675000Y14100000D03*
%TO.N,/U5V*%
X58600000Y7800000D03*
X51800000Y8275000D03*
%TO.N,/P99*%
X47400000Y15200000D03*
X57800000Y10000000D03*
%TO.N,/Network*%
X54200000Y21000000D03*
%TD*%
D30*
%TO.N,/uRST*%
X47425305Y4200000D02*
X48000000Y4200000D01*
X46700000Y5350000D02*
X46700000Y4925305D01*
X53000000Y10400000D02*
X54600000Y12000000D01*
X55000000Y14800000D02*
X56475000Y14800000D01*
X53000000Y5800000D02*
X53000000Y10400000D01*
X56475000Y14800000D02*
X56675000Y15000000D01*
X54600000Y12000000D02*
X54600000Y14400000D01*
X48000000Y4200000D02*
X51400000Y4200000D01*
X51400000Y4200000D02*
X53000000Y5800000D01*
X46700000Y4925305D02*
X47425305Y4200000D01*
X54600000Y14400000D02*
X55000000Y14800000D01*
%TO.N,/uCLK*%
X53600000Y10200000D02*
X55050000Y11650000D01*
X45800000Y4800000D02*
X46600000Y4000000D01*
X57400000Y16800000D02*
X56920000Y17280000D01*
X57400000Y14400000D02*
X57400000Y16800000D01*
X55050000Y13450000D02*
X55600000Y14000000D01*
X46600000Y4000000D02*
X47125000Y3475000D01*
X45800000Y5350000D02*
X45800000Y4800000D01*
X47125000Y3475000D02*
X51675000Y3475000D01*
X55050000Y11650000D02*
X55050000Y13450000D01*
X57000000Y14000000D02*
X57400000Y14400000D01*
X51675000Y3475000D02*
X53600000Y5400000D01*
X53600000Y5400000D02*
X53600000Y10200000D01*
X55600000Y14000000D02*
X57000000Y14000000D01*
%TO.N,/uData*%
X54200000Y5000000D02*
X54200000Y9800000D01*
X57600000Y19000000D02*
X55800000Y19000000D01*
X58000000Y18600000D02*
X57600000Y19000000D01*
X52225000Y3025000D02*
X54200000Y5000000D01*
X55600000Y11200000D02*
X55600000Y13000000D01*
X56000000Y13400000D02*
X57200000Y13400000D01*
X44900000Y5350000D02*
X44900000Y4300000D01*
X58000000Y14200000D02*
X58000000Y18600000D01*
X46175000Y3025000D02*
X52225000Y3025000D01*
X57200000Y13400000D02*
X58000000Y14200000D01*
X45200000Y4000000D02*
X46175000Y3025000D01*
X54200000Y9800000D02*
X55600000Y11200000D01*
X55600000Y13000000D02*
X56000000Y13400000D01*
X44900000Y4300000D02*
X45200000Y4000000D01*
%TO.N,/uVDD*%
X44000000Y5350000D02*
X44000000Y4600000D01*
%TO.N,/VBAT*%
X29200000Y7200000D02*
X31400000Y7200000D01*
X31400000Y7200000D02*
X31800000Y6800000D01*
X31800000Y5032500D02*
X30060000Y3292500D01*
D31*
X34092500Y3292500D02*
X30060000Y3292500D01*
D30*
X27800000Y8400000D02*
X27800000Y5552500D01*
D31*
X34400000Y4850000D02*
X34400000Y3600000D01*
D30*
X30060000Y5540000D02*
X30060000Y3292500D01*
X27800000Y5552500D02*
X30060000Y3292500D01*
X29600000Y6000000D02*
X30060000Y5540000D01*
D31*
X34400000Y3600000D02*
X34092500Y3292500D01*
D30*
X31800000Y6800000D02*
X31800000Y5032500D01*
D32*
%TO.N,/uPWRKEY*%
X68170000Y12220000D02*
X66350000Y12220000D01*
X69000000Y11200000D02*
X69000000Y11390000D01*
X69000000Y11390000D02*
X68170000Y12220000D01*
D31*
%TO.N,/+3V6*%
X4800000Y21100000D02*
X4800000Y17831400D01*
X12600000Y10031400D02*
X12600000Y2600000D01*
X22750000Y1150000D02*
X22750000Y1970000D01*
X22750000Y2005000D02*
X22750000Y12130000D01*
X14800000Y400000D02*
X22000000Y400000D01*
X12600000Y2600000D02*
X14800000Y400000D01*
X22000000Y400000D02*
X22750000Y1150000D01*
X4800000Y17831400D02*
X12600000Y10031400D01*
D32*
%TO.N,/uDTR*%
X63325000Y16125000D02*
X64000000Y16800000D01*
X64000000Y18000000D02*
X64600000Y18600000D01*
X64600000Y18600000D02*
X65800000Y18600000D01*
X64000000Y16800000D02*
X64000000Y18000000D01*
X65800000Y18600000D02*
X66350000Y19150000D01*
X63275000Y16125000D02*
X63325000Y16125000D01*
X66350000Y19150000D02*
X66350000Y19840000D01*
%TO.N,/TxD*%
X66430000Y9600000D02*
X66350000Y9680000D01*
X69275000Y9600000D02*
X66430000Y9600000D01*
%TO.N,/RxD*%
X69000000Y7200000D02*
X66410000Y7200000D01*
X66410000Y7200000D02*
X66350000Y7140000D01*
%TO.N,/uDCD*%
X65900000Y17300000D02*
X66350000Y17300000D01*
X64625000Y16025000D02*
X65900000Y17300000D01*
D33*
%TO.N,/RF_OUT*%
X34500000Y16150000D02*
X33050000Y16150000D01*
X34500000Y16150000D02*
X37700000Y16150000D01*
D30*
%TO.N,/RXD*%
X41300000Y17950000D02*
X41300000Y19100000D01*
%TO.N,/TXD*%
X42200000Y18400000D02*
X42800000Y19000000D01*
X42200000Y17950000D02*
X42200000Y18400000D01*
%TO.N,/VDD_EXT*%
X63345395Y7140000D02*
X64002158Y7796763D01*
X36650000Y8950000D02*
X36600000Y9000000D01*
X61300000Y7140000D02*
X63345395Y7140000D01*
X37700000Y8950000D02*
X36650000Y8950000D01*
%TO.N,/DTR*%
X45800000Y17950000D02*
X45800000Y19200000D01*
X45800000Y19200000D02*
X46000000Y19400000D01*
%TO.N,/DCD*%
X44900000Y19300000D02*
X44800000Y19400000D01*
X44900000Y17950000D02*
X44900000Y19300000D01*
%TO.N,/PWRKEY*%
X49400000Y5350000D02*
X50650000Y5350000D01*
X50650000Y5350000D02*
X50800000Y5200000D01*
%TO.N,/Alim*%
X63900000Y3450000D02*
X63900000Y725000D01*
X32850000Y-50000D02*
X32800000Y0D01*
X63900000Y725000D02*
X63125000Y-50000D01*
X66350000Y4600000D02*
X65050000Y4600000D01*
X65050000Y4600000D02*
X63900000Y3450000D01*
X63125000Y-50000D02*
X32850000Y-50000D01*
D31*
%TO.N,/+3V6d*%
X10150000Y21100000D02*
X7340000Y21100000D01*
X11750000Y19500000D02*
X10150000Y21100000D01*
D32*
%TO.N,/+3V3_UC*%
X64325000Y13500000D02*
X67250000Y13500000D01*
X68500000Y2650000D02*
X68500000Y3275000D01*
X66350000Y2060000D02*
X67910000Y2060000D01*
X63525000Y14300000D02*
X64325000Y13500000D01*
X67910000Y2060000D02*
X68500000Y2650000D01*
D33*
%TO.N,/RF_OUT1*%
X31400000Y16150000D02*
X29875000Y16150000D01*
X29875000Y16150000D02*
X29875000Y18229600D01*
D32*
%TO.N,/D+*%
X50300000Y11650000D02*
X50750001Y11650000D01*
X63600000Y18600000D02*
X63400000Y18400000D01*
X63400000Y18400000D02*
X61600000Y18400000D01*
X62775000Y21425000D02*
X63600000Y20600000D01*
X61600000Y18400000D02*
X61300000Y18100000D01*
X50750001Y11650000D02*
X50975001Y11425000D01*
X63600000Y20600000D02*
X63600000Y18600000D01*
X50975001Y11425000D02*
X52506800Y11425000D01*
X55956800Y21425000D02*
X62775000Y21425000D01*
X61300000Y18100000D02*
X61300000Y17300000D01*
X53375000Y12293200D02*
X53375000Y18843200D01*
X53375000Y18843200D02*
X55956800Y21425000D01*
X52506800Y11425000D02*
X53375000Y12293200D01*
%TO.N,/D-*%
X52693200Y10975000D02*
X53825000Y12106800D01*
X53825000Y12106800D02*
X53825000Y18656800D01*
X56143200Y20975000D02*
X58225000Y20975000D01*
X50300000Y10750000D02*
X50750001Y10750000D01*
X53825000Y18656800D02*
X56143200Y20975000D01*
X50750001Y10750000D02*
X50975001Y10975000D01*
X58225000Y20975000D02*
X59360000Y19840000D01*
X59360000Y19840000D02*
X61300000Y19840000D01*
X50975001Y10975000D02*
X52693200Y10975000D01*
%TO.N,/Vbus*%
X52600000Y14025000D02*
X52675000Y14100000D01*
X58960000Y14760000D02*
X61300000Y14760000D01*
X51750000Y12550000D02*
X52600000Y13400000D01*
X50300000Y12550000D02*
X51750000Y12550000D01*
X58800000Y14600000D02*
X58960000Y14760000D01*
X52600000Y13400000D02*
X52600000Y14025000D01*
D31*
%TO.N,/VBAT_F*%
X37700000Y7150000D02*
X37700000Y7950000D01*
X37700000Y7150000D02*
X37700000Y6250000D01*
X37700000Y7150000D02*
X34400000Y7150000D01*
D30*
%TO.N,Net-(M1A-RTS)*%
X44000000Y17950000D02*
X44000000Y21000000D01*
X44000000Y21000000D02*
X43800000Y21200000D01*
%TO.N,/U5V*%
X51200000Y9500000D02*
X51200000Y8800000D01*
X50850000Y9850000D02*
X51200000Y9500000D01*
X51600000Y8600000D02*
X51800000Y8400000D01*
X50300000Y9850000D02*
X50850000Y9850000D01*
X64000000Y8800000D02*
X63600000Y8400000D01*
X61300000Y12220000D02*
X63180000Y12220000D01*
X51800000Y8400000D02*
X51800000Y8275000D01*
X64000000Y11400000D02*
X64000000Y8800000D01*
X63600000Y8400000D02*
X59200000Y8400000D01*
X63180000Y12220000D02*
X64000000Y11400000D01*
X51400000Y8600000D02*
X51600000Y8600000D01*
X51200000Y8800000D02*
X51400000Y8600000D01*
X59200000Y8400000D02*
X58600000Y7800000D01*
%TO.N,/P99*%
X44900000Y14900000D02*
X45000000Y15000000D01*
X61300000Y9680000D02*
X58720000Y9680000D01*
X47200000Y15000000D02*
X47400000Y15200000D01*
X44900000Y14350000D02*
X44900000Y14900000D01*
X58720000Y9680000D02*
X58400000Y10000000D01*
X58400000Y10000000D02*
X57800000Y10000000D01*
X45000000Y15000000D02*
X47200000Y15000000D01*
%TO.N,/Network*%
X51000000Y21000000D02*
X54200000Y21000000D01*
X50300000Y17050000D02*
X50300000Y20300000D01*
X50300000Y20300000D02*
X51000000Y21000000D01*
%TD*%
%TA.AperFunction,Conductor*%
%TO.N,GND*%
G36*
X53698835Y20654498D02*
G01*
X53730676Y20625204D01*
X53771715Y20571720D01*
X53897157Y20475465D01*
X53897160Y20475463D01*
X54043239Y20414955D01*
X54208188Y20393240D01*
X54207906Y20391102D01*
X54265078Y20374316D01*
X54311571Y20320660D01*
X54321675Y20250386D01*
X54292181Y20185806D01*
X54286052Y20179223D01*
X53190489Y19083660D01*
X53134540Y19027711D01*
X53098617Y18965489D01*
X53094977Y18959185D01*
X53074500Y18882765D01*
X53074500Y14773070D01*
X53054498Y14704949D01*
X53000842Y14658456D01*
X52930568Y14648352D01*
X52900284Y14656661D01*
X52831762Y14685044D01*
X52675000Y14705682D01*
X52518238Y14685044D01*
X52372159Y14624536D01*
X52246718Y14528282D01*
X52177132Y14437595D01*
X52150465Y14402842D01*
X52150463Y14402839D01*
X52089955Y14256760D01*
X52069318Y14100000D01*
X52069318Y14099999D01*
X52089955Y13943239D01*
X52150463Y13797160D01*
X52150465Y13797157D01*
X52246723Y13671711D01*
X52252557Y13665878D01*
X52251444Y13664765D01*
X52287788Y13614977D01*
X52291999Y13544106D01*
X52258305Y13483276D01*
X51662434Y12887405D01*
X51600122Y12853379D01*
X51573339Y12850500D01*
X50905255Y12850500D01*
X50837134Y12870502D01*
X50795945Y12918036D01*
X50795761Y12917913D01*
X50794779Y12919381D01*
X50790641Y12924158D01*
X50788870Y12928224D01*
X50788867Y12928227D01*
X50788867Y12928231D01*
X50787685Y12929998D01*
X50786295Y12934438D01*
X50784120Y12939690D01*
X50784590Y12939884D01*
X50766471Y12997751D01*
X50785254Y13066218D01*
X50787686Y13070002D01*
X50788833Y13071718D01*
X50788867Y13071769D01*
X50800500Y13130252D01*
X50800500Y13769748D01*
X50788867Y13828231D01*
X50787685Y13829998D01*
X50786297Y13834433D01*
X50784118Y13839694D01*
X50784588Y13839889D01*
X50766471Y13897751D01*
X50785254Y13966218D01*
X50787686Y13970002D01*
X50788867Y13971769D01*
X50800500Y14030252D01*
X50800500Y14669748D01*
X50788867Y14728231D01*
X50787685Y14729998D01*
X50786297Y14734433D01*
X50784118Y14739694D01*
X50784588Y14739889D01*
X50766471Y14797751D01*
X50785254Y14866218D01*
X50787686Y14870002D01*
X50788867Y14871769D01*
X50800500Y14930252D01*
X50800500Y15569748D01*
X50788867Y15628231D01*
X50787685Y15629998D01*
X50786297Y15634433D01*
X50784118Y15639694D01*
X50784588Y15639889D01*
X50766471Y15697751D01*
X50785254Y15766218D01*
X50787686Y15770002D01*
X50788867Y15771769D01*
X50800500Y15830252D01*
X50800500Y16469748D01*
X50788867Y16528231D01*
X50787685Y16529998D01*
X50786297Y16534433D01*
X50784118Y16539694D01*
X50784588Y16539889D01*
X50766471Y16597751D01*
X50785254Y16666218D01*
X50787686Y16670002D01*
X50788867Y16671769D01*
X50800500Y16730252D01*
X50800500Y17369748D01*
X50788867Y17428231D01*
X50744552Y17494552D01*
X50681495Y17536685D01*
X50635970Y17591162D01*
X50625500Y17641449D01*
X50625500Y20112983D01*
X50645502Y20181104D01*
X50662405Y20202078D01*
X51097922Y20637595D01*
X51160234Y20671621D01*
X51187017Y20674500D01*
X53630714Y20674500D01*
X53698835Y20654498D01*
G37*
%TD.AperFunction*%
%TA.AperFunction,Conductor*%
G36*
X6892473Y22264398D02*
G01*
X6938966Y22210742D01*
X6949070Y22140468D01*
X6919576Y22075888D01*
X6883750Y22047279D01*
X6753550Y21977685D01*
X6593590Y21846410D01*
X6462315Y21686450D01*
X6462313Y21686447D01*
X6364768Y21503954D01*
X6304698Y21305927D01*
X6284417Y21100003D01*
X6284417Y21099996D01*
X6304698Y20894072D01*
X6364768Y20696045D01*
X6462313Y20513552D01*
X6590714Y20357095D01*
X6593590Y20353590D01*
X6606676Y20342851D01*
X6753552Y20222313D01*
X6936045Y20124768D01*
X7134072Y20064698D01*
X7339997Y20044417D01*
X7340000Y20044417D01*
X7340003Y20044417D01*
X7545927Y20064698D01*
X7743954Y20124768D01*
X7926447Y20222313D01*
X7926448Y20222314D01*
X7926450Y20222315D01*
X8086410Y20353590D01*
X8086412Y20353592D01*
X8086416Y20353595D01*
X8090788Y20357967D01*
X8091659Y20357095D01*
X8144957Y20393402D01*
X8183681Y20399500D01*
X9807653Y20399500D01*
X9875774Y20379498D01*
X9896748Y20362595D01*
X10312595Y19946748D01*
X10346621Y19884436D01*
X10349500Y19857653D01*
X10349500Y18280249D01*
X10361132Y18221771D01*
X10361133Y18221768D01*
X10405448Y18155448D01*
X10471768Y18111133D01*
X10471771Y18111132D01*
X10530249Y18099500D01*
X10530252Y18099500D01*
X12969750Y18099500D01*
X13028228Y18111132D01*
X13028231Y18111133D01*
X13051229Y18126500D01*
X13094552Y18155448D01*
X13138867Y18221769D01*
X13150500Y18280252D01*
X13150500Y20719748D01*
X13138867Y20778231D01*
X13094552Y20844552D01*
X13028231Y20888867D01*
X12969748Y20900500D01*
X12969747Y20900500D01*
X11392347Y20900500D01*
X11324226Y20920502D01*
X11303252Y20937405D01*
X10965157Y21275500D01*
X10596543Y21644114D01*
X10481811Y21720775D01*
X10354328Y21773580D01*
X10218994Y21800500D01*
X8183681Y21800500D01*
X8115560Y21820502D01*
X8091064Y21842309D01*
X8090788Y21842033D01*
X8086416Y21846404D01*
X8086412Y21846406D01*
X8086410Y21846410D01*
X7926450Y21977685D01*
X7796250Y22047278D01*
X7745603Y22097031D01*
X7729894Y22166267D01*
X7754110Y22233006D01*
X7810564Y22276058D01*
X7855648Y22284400D01*
X16457639Y22284400D01*
X16525760Y22264398D01*
X16572253Y22210742D01*
X16582357Y22140468D01*
X16581725Y22136522D01*
X15743879Y17384858D01*
X15742654Y17377912D01*
X15743955Y17318296D01*
X15776080Y17245288D01*
X15776079Y17245288D01*
X15833697Y17190130D01*
X15833701Y17190128D01*
X15889268Y17168519D01*
X15889276Y17168517D01*
X20950687Y16276054D01*
X20950688Y16276054D01*
X21010303Y16277355D01*
X21083312Y16309480D01*
X21138470Y16367098D01*
X21160082Y16422673D01*
X21571431Y18755550D01*
X29174500Y18755550D01*
X29174500Y17716049D01*
X29186132Y17657571D01*
X29186133Y17657568D01*
X29230448Y17591247D01*
X29306003Y17540762D01*
X29351530Y17486285D01*
X29362000Y17435998D01*
X29362000Y16765938D01*
X29341998Y16697817D01*
X29325095Y16676843D01*
X29276471Y16628219D01*
X29254473Y16585044D01*
X29215281Y16508126D01*
X29199500Y16408488D01*
X29199500Y15891512D01*
X29215281Y15791874D01*
X29215281Y15791872D01*
X29215282Y15791872D01*
X29276471Y15671780D01*
X29371780Y15576471D01*
X29461096Y15530963D01*
X29491874Y15515281D01*
X29591512Y15499500D01*
X29591515Y15499500D01*
X30158485Y15499500D01*
X30158488Y15499500D01*
X30258126Y15515281D01*
X30320282Y15546951D01*
X30378219Y15576471D01*
X30401843Y15600095D01*
X30464155Y15634121D01*
X30490938Y15637000D01*
X30819417Y15637000D01*
X30887538Y15616998D01*
X30908512Y15600095D01*
X30961655Y15546951D01*
X30961657Y15546949D01*
X31074694Y15489355D01*
X31074696Y15489354D01*
X31168481Y15474500D01*
X31168483Y15474500D01*
X31168484Y15474500D01*
X31631516Y15474500D01*
X31725302Y15489353D01*
X31838342Y15546949D01*
X31928050Y15636657D01*
X31947738Y15675299D01*
X31985646Y15749696D01*
X32000500Y15843481D01*
X32000499Y16456518D01*
X32000499Y16456519D01*
X32449500Y16456519D01*
X32449500Y16456518D01*
X32449500Y16456515D01*
X32449500Y15843483D01*
X32464353Y15749697D01*
X32521949Y15636657D01*
X32611657Y15546949D01*
X32724694Y15489355D01*
X32724696Y15489354D01*
X32818481Y15474500D01*
X32818483Y15474500D01*
X32818484Y15474500D01*
X33281516Y15474500D01*
X33375302Y15489353D01*
X33488342Y15546949D01*
X33541488Y15600095D01*
X33603800Y15634121D01*
X33630583Y15637000D01*
X33884062Y15637000D01*
X33952183Y15616998D01*
X33973157Y15600095D01*
X33996778Y15576473D01*
X33996780Y15576471D01*
X34086096Y15530963D01*
X34116874Y15515281D01*
X34216512Y15499500D01*
X34216515Y15499500D01*
X34783485Y15499500D01*
X34783488Y15499500D01*
X34883126Y15515281D01*
X34945282Y15546951D01*
X35003219Y15576471D01*
X35026843Y15600095D01*
X35089155Y15634121D01*
X35115938Y15637000D01*
X37767538Y15637000D01*
X37798168Y15645207D01*
X37830778Y15649500D01*
X38019750Y15649500D01*
X38078228Y15661132D01*
X38078231Y15661133D01*
X38094165Y15671780D01*
X38144552Y15705448D01*
X38188867Y15771769D01*
X38200500Y15830252D01*
X38200500Y16019222D01*
X38204793Y16051832D01*
X38206686Y16058899D01*
X38213000Y16082462D01*
X38213000Y16217538D01*
X38204792Y16248167D01*
X38200500Y16280777D01*
X38200500Y16469746D01*
X38200500Y16469748D01*
X38200500Y16469750D01*
X40799500Y16469750D01*
X40799500Y15830249D01*
X40811132Y15771771D01*
X40811133Y15771768D01*
X40855448Y15705448D01*
X40921768Y15661133D01*
X40921771Y15661132D01*
X40980249Y15649500D01*
X40980252Y15649500D01*
X41619750Y15649500D01*
X41678228Y15661132D01*
X41678229Y15661132D01*
X41678231Y15661133D01*
X41678232Y15661133D01*
X41678235Y15661135D01*
X41680004Y15662317D01*
X41684441Y15663706D01*
X41689694Y15665882D01*
X41689888Y15665411D01*
X41747758Y15683528D01*
X41816224Y15664741D01*
X41819996Y15662317D01*
X41821764Y15661135D01*
X41821771Y15661132D01*
X41880249Y15649500D01*
X41880252Y15649500D01*
X42519750Y15649500D01*
X42578228Y15661132D01*
X42578229Y15661132D01*
X42578231Y15661133D01*
X42578232Y15661133D01*
X42578235Y15661135D01*
X42580004Y15662317D01*
X42584441Y15663706D01*
X42589694Y15665882D01*
X42589888Y15665411D01*
X42647758Y15683528D01*
X42716224Y15664741D01*
X42719996Y15662317D01*
X42721764Y15661135D01*
X42721771Y15661132D01*
X42780249Y15649500D01*
X42780252Y15649500D01*
X43419750Y15649500D01*
X43478228Y15661132D01*
X43478229Y15661132D01*
X43478231Y15661133D01*
X43478232Y15661133D01*
X43478235Y15661135D01*
X43480004Y15662317D01*
X43484441Y15663706D01*
X43489694Y15665882D01*
X43489888Y15665411D01*
X43547758Y15683528D01*
X43616224Y15664741D01*
X43619996Y15662317D01*
X43621764Y15661135D01*
X43621771Y15661132D01*
X43680249Y15649500D01*
X43680252Y15649500D01*
X44319750Y15649500D01*
X44378228Y15661132D01*
X44378229Y15661132D01*
X44378231Y15661133D01*
X44378232Y15661133D01*
X44378235Y15661135D01*
X44380004Y15662317D01*
X44384441Y15663706D01*
X44389694Y15665882D01*
X44389888Y15665411D01*
X44447758Y15683528D01*
X44516224Y15664741D01*
X44519996Y15662317D01*
X44521764Y15661135D01*
X44521771Y15661132D01*
X44580249Y15649500D01*
X44580252Y15649500D01*
X45219750Y15649500D01*
X45278228Y15661132D01*
X45278229Y15661132D01*
X45278231Y15661133D01*
X45278232Y15661133D01*
X45278235Y15661135D01*
X45280004Y15662317D01*
X45284441Y15663706D01*
X45289694Y15665882D01*
X45289888Y15665411D01*
X45347758Y15683528D01*
X45416224Y15664741D01*
X45419996Y15662317D01*
X45421764Y15661135D01*
X45421771Y15661132D01*
X45480249Y15649500D01*
X45480252Y15649500D01*
X46119750Y15649500D01*
X46178228Y15661132D01*
X46178231Y15661133D01*
X46194165Y15671780D01*
X46244552Y15705448D01*
X46288867Y15771769D01*
X46300500Y15830252D01*
X46300500Y16469748D01*
X46288867Y16528231D01*
X46244552Y16594552D01*
X46178231Y16638867D01*
X46119748Y16650500D01*
X45480252Y16650500D01*
X45421769Y16638867D01*
X45421768Y16638866D01*
X45420002Y16637686D01*
X45415566Y16636297D01*
X45410306Y16634118D01*
X45410110Y16634588D01*
X45352249Y16616471D01*
X45283782Y16635254D01*
X45279998Y16637686D01*
X45278231Y16638867D01*
X45219748Y16650500D01*
X44580252Y16650500D01*
X44521769Y16638867D01*
X44521768Y16638866D01*
X44520002Y16637686D01*
X44515566Y16636297D01*
X44510306Y16634118D01*
X44510110Y16634588D01*
X44452249Y16616471D01*
X44383782Y16635254D01*
X44379998Y16637686D01*
X44378231Y16638867D01*
X44319748Y16650500D01*
X43680252Y16650500D01*
X43621769Y16638867D01*
X43621768Y16638866D01*
X43620002Y16637686D01*
X43615566Y16636297D01*
X43610306Y16634118D01*
X43610110Y16634588D01*
X43552249Y16616471D01*
X43483782Y16635254D01*
X43479998Y16637686D01*
X43478231Y16638867D01*
X43419748Y16650500D01*
X42780252Y16650500D01*
X42721769Y16638867D01*
X42721768Y16638866D01*
X42720002Y16637686D01*
X42715566Y16636297D01*
X42710306Y16634118D01*
X42710110Y16634588D01*
X42652249Y16616471D01*
X42583782Y16635254D01*
X42579998Y16637686D01*
X42578231Y16638867D01*
X42519748Y16650500D01*
X41880252Y16650500D01*
X41821769Y16638867D01*
X41821768Y16638866D01*
X41820002Y16637686D01*
X41815566Y16636297D01*
X41810306Y16634118D01*
X41810110Y16634588D01*
X41752249Y16616471D01*
X41683782Y16635254D01*
X41679998Y16637686D01*
X41678231Y16638867D01*
X41619748Y16650500D01*
X40980252Y16650500D01*
X40921769Y16638867D01*
X40855448Y16594552D01*
X40815277Y16534433D01*
X40811133Y16528231D01*
X40811132Y16528228D01*
X40799500Y16469750D01*
X38200500Y16469750D01*
X38188867Y16528231D01*
X38144552Y16594552D01*
X38078231Y16638867D01*
X38019748Y16650500D01*
X38019747Y16650500D01*
X37830778Y16650500D01*
X37798168Y16654793D01*
X37792653Y16656270D01*
X37767538Y16663000D01*
X37767537Y16663000D01*
X35115938Y16663000D01*
X35047817Y16683002D01*
X35026843Y16699905D01*
X35016704Y16710044D01*
X35003220Y16723528D01*
X34883126Y16784719D01*
X34783488Y16800500D01*
X34216512Y16800500D01*
X34116874Y16784719D01*
X34010821Y16730682D01*
X33996780Y16723528D01*
X33973157Y16699905D01*
X33910845Y16665879D01*
X33884062Y16663000D01*
X33630583Y16663000D01*
X33562462Y16683002D01*
X33541488Y16699905D01*
X33488344Y16753048D01*
X33488342Y16753050D01*
X33483602Y16755465D01*
X33375304Y16810646D01*
X33281519Y16825500D01*
X32818482Y16825499D01*
X32724696Y16810646D01*
X32682214Y16789000D01*
X32611657Y16753050D01*
X32521949Y16663342D01*
X32486899Y16594551D01*
X32464354Y16550304D01*
X32449500Y16456519D01*
X32000499Y16456519D01*
X31985646Y16550304D01*
X31928050Y16663342D01*
X31838342Y16753050D01*
X31725304Y16810646D01*
X31631519Y16825500D01*
X31168482Y16825499D01*
X31074696Y16810646D01*
X31032214Y16789000D01*
X30961657Y16753050D01*
X30908512Y16699905D01*
X30846200Y16665879D01*
X30819417Y16663000D01*
X30514000Y16663000D01*
X30445879Y16683002D01*
X30399386Y16736658D01*
X30388000Y16789000D01*
X30388000Y17435998D01*
X30408002Y17504119D01*
X30443997Y17540762D01*
X30519551Y17591247D01*
X30543487Y17627068D01*
X30563867Y17657569D01*
X30575500Y17716052D01*
X30575500Y18269750D01*
X38999500Y18269750D01*
X38999500Y17630249D01*
X39011132Y17571771D01*
X39011133Y17571768D01*
X39055448Y17505448D01*
X39121768Y17461133D01*
X39121771Y17461132D01*
X39180249Y17449500D01*
X39180252Y17449500D01*
X39819750Y17449500D01*
X39878228Y17461132D01*
X39878231Y17461133D01*
X39887884Y17467583D01*
X39944552Y17505448D01*
X39988867Y17571769D01*
X40000500Y17630252D01*
X40000500Y18269748D01*
X39988867Y18328231D01*
X39944552Y18394552D01*
X39878231Y18438867D01*
X39819748Y18450500D01*
X39180252Y18450500D01*
X39121769Y18438867D01*
X39055448Y18394552D01*
X39032053Y18359539D01*
X39011133Y18328231D01*
X39011132Y18328228D01*
X38999500Y18269750D01*
X30575500Y18269750D01*
X30575500Y18755548D01*
X30563867Y18814031D01*
X30519552Y18880352D01*
X30453231Y18924667D01*
X30394748Y18936300D01*
X29355252Y18936300D01*
X29296769Y18924667D01*
X29230448Y18880352D01*
X29205649Y18843238D01*
X29186133Y18814031D01*
X29186132Y18814028D01*
X29174500Y18755550D01*
X21571431Y18755550D01*
X22052546Y21484088D01*
X22051245Y21543703D01*
X22019120Y21616712D01*
X21961502Y21671870D01*
X21905927Y21693482D01*
X19972971Y22034314D01*
X19909360Y22065841D01*
X19872890Y22126755D01*
X19875143Y22197716D01*
X19915402Y22256194D01*
X19980886Y22283624D01*
X19994852Y22284400D01*
X69613080Y22284400D01*
X69681201Y22264398D01*
X69727694Y22210742D01*
X69737798Y22140468D01*
X69734787Y22125791D01*
X68626301Y17988866D01*
X68483921Y17457496D01*
X68480020Y17397996D01*
X68480021Y17397994D01*
X68505660Y17322465D01*
X68558252Y17262494D01*
X68558253Y17262493D01*
X68611732Y17236120D01*
X73576103Y15905921D01*
X73635603Y15902020D01*
X73635605Y15902021D01*
X73711134Y15927660D01*
X73711136Y15927661D01*
X73771106Y15980253D01*
X73797479Y16033732D01*
X73840217Y16193232D01*
X74171493Y17429570D01*
X74208445Y17490193D01*
X74272305Y17521214D01*
X74342800Y17512786D01*
X74397547Y17467583D01*
X74419164Y17399957D01*
X74419200Y17396959D01*
X74419200Y-2654000D01*
X74399198Y-2722121D01*
X74345542Y-2768614D01*
X74293200Y-2780000D01*
X28282337Y-2780000D01*
X28214216Y-2759998D01*
X28167723Y-2706342D01*
X28157619Y-2636068D01*
X28187113Y-2571488D01*
X28219337Y-2544881D01*
X28331087Y-2480361D01*
X28388527Y-2447199D01*
X28586176Y-2295538D01*
X28762338Y-2119376D01*
X28913999Y-1921727D01*
X29038564Y-1705973D01*
X29082460Y-1599999D01*
X34994318Y-1599999D01*
X34994318Y-1600000D01*
X35014955Y-1756760D01*
X35014956Y-1756762D01*
X35075464Y-1902841D01*
X35171718Y-2028282D01*
X35297159Y-2124536D01*
X35443238Y-2185044D01*
X35600000Y-2205682D01*
X35756762Y-2185044D01*
X35902841Y-2124536D01*
X36028282Y-2028282D01*
X36124536Y-1902841D01*
X36185044Y-1756762D01*
X36205682Y-1600000D01*
X36185044Y-1443238D01*
X36124536Y-1297159D01*
X36028282Y-1171718D01*
X35924647Y-1092196D01*
X65771259Y-1092196D01*
X65771259Y-1092203D01*
X65790574Y-1288324D01*
X65790574Y-1288326D01*
X65847786Y-1476928D01*
X65913569Y-1599999D01*
X65940690Y-1650738D01*
X66065717Y-1803083D01*
X66218062Y-1928110D01*
X66391873Y-2021014D01*
X66580468Y-2078224D01*
X66580472Y-2078224D01*
X66580474Y-2078225D01*
X66776597Y-2097541D01*
X66776600Y-2097541D01*
X66776603Y-2097541D01*
X66972724Y-2078225D01*
X66972726Y-2078225D01*
X66972727Y-2078224D01*
X66972732Y-2078224D01*
X67161327Y-2021014D01*
X67335138Y-1928110D01*
X67487483Y-1803083D01*
X67612510Y-1650738D01*
X67705414Y-1476927D01*
X67762624Y-1288332D01*
X67762625Y-1288324D01*
X67781941Y-1092203D01*
X67781941Y-1092196D01*
X67762625Y-896075D01*
X67762625Y-896073D01*
X67762624Y-896070D01*
X67762624Y-896068D01*
X67705414Y-707473D01*
X67612510Y-533662D01*
X67487483Y-381317D01*
X67335138Y-256290D01*
X67325976Y-251393D01*
X67161328Y-163386D01*
X66972725Y-106174D01*
X66776603Y-86859D01*
X66776597Y-86859D01*
X66580475Y-106174D01*
X66580473Y-106174D01*
X66391871Y-163386D01*
X66218061Y-256290D01*
X66065717Y-381317D01*
X65940690Y-533661D01*
X65847786Y-707471D01*
X65790574Y-896073D01*
X65790574Y-896075D01*
X65771259Y-1092196D01*
X35924647Y-1092196D01*
X35902841Y-1075464D01*
X35756762Y-1014956D01*
X35756760Y-1014955D01*
X35600000Y-994318D01*
X35443239Y-1014955D01*
X35297160Y-1075463D01*
X35297157Y-1075465D01*
X35171718Y-1171718D01*
X35075465Y-1297157D01*
X35075463Y-1297160D01*
X35014955Y-1443239D01*
X34994318Y-1599999D01*
X29082460Y-1599999D01*
X29133902Y-1475807D01*
X29198382Y-1235165D01*
X29230900Y-988165D01*
X29230900Y-739035D01*
X29198382Y-492035D01*
X29133902Y-251393D01*
X29038564Y-21227D01*
X29038558Y-21218D01*
X29038557Y-21214D01*
X29026309Y0D01*
X32194318Y0D01*
X32214955Y-156760D01*
X32254154Y-251393D01*
X32275464Y-302841D01*
X32371718Y-428282D01*
X32497159Y-524536D01*
X32643238Y-585044D01*
X32800000Y-605682D01*
X32956762Y-585044D01*
X33102841Y-524536D01*
X33228282Y-428282D01*
X33230955Y-424798D01*
X33233963Y-422601D01*
X33234122Y-422443D01*
X33234146Y-422467D01*
X33288291Y-382930D01*
X33330919Y-375500D01*
X63167851Y-375500D01*
X63167853Y-375500D01*
X63250639Y-353318D01*
X63324862Y-310465D01*
X64095455Y460129D01*
X64095478Y460150D01*
X64160459Y525131D01*
X64160467Y525141D01*
X64203316Y599358D01*
X64203319Y599366D01*
X64205061Y605868D01*
X64205066Y605886D01*
X64225501Y682148D01*
X64225501Y767853D01*
X64225501Y778003D01*
X64225500Y778016D01*
X64225500Y3262982D01*
X64245502Y3331103D01*
X64262404Y3352077D01*
X64772921Y3862595D01*
X64835234Y3896620D01*
X64862017Y3899500D01*
X67944747Y3899500D01*
X67944748Y3899500D01*
X67950912Y3900107D01*
X67951050Y3898703D01*
X68014663Y3893000D01*
X68070723Y3849437D01*
X68094331Y3782481D01*
X68077993Y3713390D01*
X68068473Y3699053D01*
X67975468Y3577847D01*
X67975463Y3577839D01*
X67914955Y3431760D01*
X67894318Y3275000D01*
X67894318Y3274999D01*
X67914955Y3118239D01*
X67975463Y2972160D01*
X67975468Y2972152D01*
X67982335Y2963204D01*
X68007936Y2896984D01*
X67993671Y2827435D01*
X67944070Y2776639D01*
X67882373Y2760500D01*
X64755252Y2760500D01*
X64696769Y2748867D01*
X64630448Y2704552D01*
X64599922Y2658867D01*
X64586133Y2638231D01*
X64586132Y2638228D01*
X64574500Y2579750D01*
X64574500Y1540249D01*
X64586132Y1481771D01*
X64586133Y1481768D01*
X64630448Y1415448D01*
X64696768Y1371133D01*
X64696771Y1371132D01*
X64755249Y1359500D01*
X64755252Y1359500D01*
X67944750Y1359500D01*
X68003228Y1371132D01*
X68003231Y1371133D01*
X68024050Y1385044D01*
X68069552Y1415448D01*
X68113867Y1481769D01*
X68125500Y1540252D01*
X68125500Y1798338D01*
X68145502Y1866459D01*
X68162405Y1887433D01*
X68740454Y2465482D01*
X68740462Y2465492D01*
X68754466Y2489748D01*
X68780021Y2534011D01*
X68800500Y2610438D01*
X68800500Y2686531D01*
X68820502Y2754652D01*
X68849796Y2786493D01*
X68928279Y2846715D01*
X68928280Y2846716D01*
X68928282Y2846718D01*
X69024536Y2972159D01*
X69085044Y3118238D01*
X69095363Y3196619D01*
X69105682Y3274999D01*
X69105682Y3275000D01*
X69090255Y3392177D01*
X69085044Y3431762D01*
X69024536Y3577841D01*
X68928282Y3703282D01*
X68802841Y3799536D01*
X68656762Y3860044D01*
X68500000Y3880682D01*
X68343238Y3860044D01*
X68260419Y3825739D01*
X68189834Y3818151D01*
X68126347Y3849930D01*
X68090119Y3910988D01*
X68092653Y3981939D01*
X68107437Y4012146D01*
X68113867Y4021769D01*
X68125500Y4080252D01*
X68125500Y5119748D01*
X68113867Y5178231D01*
X68069552Y5244552D01*
X68003231Y5288867D01*
X67944748Y5300500D01*
X64755252Y5300500D01*
X64696769Y5288867D01*
X64630448Y5244552D01*
X64596749Y5194118D01*
X64586133Y5178231D01*
X64586132Y5178228D01*
X64574500Y5119750D01*
X64574500Y4637017D01*
X64554498Y4568896D01*
X64537595Y4547921D01*
X64086833Y4097160D01*
X63639537Y3649864D01*
X63639532Y3649858D01*
X63597954Y3577842D01*
X63596682Y3575639D01*
X63596680Y3575633D01*
X63596680Y3575632D01*
X63591623Y3556763D01*
X63591624Y3556763D01*
X63574500Y3492853D01*
X63574500Y912017D01*
X63554498Y843896D01*
X63537595Y822921D01*
X63027077Y312404D01*
X62964765Y278379D01*
X62937982Y275500D01*
X36009954Y275500D01*
X35941833Y295502D01*
X35895340Y349158D01*
X35885236Y419432D01*
X35909991Y478203D01*
X35924531Y497152D01*
X35924532Y497154D01*
X35924536Y497159D01*
X35985044Y643238D01*
X36005682Y800000D01*
X35985044Y956762D01*
X35924536Y1102841D01*
X35828282Y1228282D01*
X35702841Y1324536D01*
X35556762Y1385044D01*
X35400000Y1405682D01*
X35243238Y1385044D01*
X35097159Y1324536D01*
X34971718Y1228282D01*
X34906663Y1143500D01*
X34875465Y1102842D01*
X34875463Y1102839D01*
X34814955Y956760D01*
X34794318Y800000D01*
X34794318Y799999D01*
X34814955Y643239D01*
X34875463Y497160D01*
X34875468Y497152D01*
X34890009Y478203D01*
X34915609Y411983D01*
X34901344Y342434D01*
X34851742Y291639D01*
X34790046Y275500D01*
X33407652Y275500D01*
X33339531Y295502D01*
X33307689Y324796D01*
X33294155Y342434D01*
X33228282Y428282D01*
X33102841Y524536D01*
X32956762Y585044D01*
X32800000Y605682D01*
X32643238Y585044D01*
X32497159Y524536D01*
X32371718Y428282D01*
X32305845Y342434D01*
X32275465Y302842D01*
X32275463Y302839D01*
X32214955Y156760D01*
X32194318Y0D01*
X29026309Y0D01*
X28935804Y156760D01*
X28913999Y194527D01*
X28762338Y392176D01*
X28586176Y568338D01*
X28388527Y719999D01*
X28172773Y844564D01*
X27942607Y939902D01*
X27701965Y1004382D01*
X27701958Y1004382D01*
X27701958Y1004383D01*
X27678190Y1007511D01*
X27454965Y1036900D01*
X27205835Y1036900D01*
X27022499Y1012763D01*
X26958841Y1004383D01*
X26958839Y1004382D01*
X26958835Y1004382D01*
X26718193Y939902D01*
X26488027Y844564D01*
X26488018Y844558D01*
X26488014Y844557D01*
X26272276Y720001D01*
X26272273Y719999D01*
X26074624Y568338D01*
X26074618Y568332D01*
X26074613Y568328D01*
X25898471Y392186D01*
X25898466Y392180D01*
X25898462Y392176D01*
X25811143Y278379D01*
X25746798Y194523D01*
X25622242Y-21214D01*
X25622237Y-21225D01*
X25622236Y-21227D01*
X25563352Y-163386D01*
X25526898Y-251393D01*
X25526897Y-251397D01*
X25462416Y-492041D01*
X25429900Y-739032D01*
X25429900Y-988167D01*
X25462416Y-1235158D01*
X25462418Y-1235165D01*
X25526898Y-1475807D01*
X25622236Y-1705973D01*
X25622237Y-1705974D01*
X25622242Y-1705985D01*
X25746798Y-1921723D01*
X25746800Y-1921726D01*
X25746801Y-1921727D01*
X25898462Y-2119376D01*
X25898466Y-2119380D01*
X25898471Y-2119386D01*
X26074613Y-2295528D01*
X26074618Y-2295532D01*
X26074624Y-2295538D01*
X26272273Y-2447199D01*
X26272276Y-2447201D01*
X26441463Y-2544881D01*
X26490456Y-2596263D01*
X26503892Y-2665977D01*
X26477506Y-2731888D01*
X26419674Y-2773070D01*
X26378463Y-2780000D01*
X3751000Y-2780000D01*
X3682879Y-2759998D01*
X3636386Y-2706342D01*
X3625000Y-2654000D01*
X3625000Y8243028D01*
X3645002Y8311149D01*
X3698658Y8357642D01*
X3768932Y8367746D01*
X3833512Y8338252D01*
X3854213Y8315299D01*
X6688470Y4267561D01*
X6731540Y4226331D01*
X6731546Y4226327D01*
X6805879Y4197421D01*
X6805886Y4197420D01*
X6885629Y4199160D01*
X6920942Y4214698D01*
X6940208Y4223175D01*
X6940210Y4223176D01*
X6940215Y4223179D01*
X11150238Y7171070D01*
X11191468Y7214140D01*
X11191472Y7214146D01*
X11220378Y7288479D01*
X11220379Y7288486D01*
X11220306Y7291818D01*
X11218640Y7368229D01*
X11194625Y7422808D01*
X8246731Y11632836D01*
X8203657Y11674070D01*
X8203654Y11674070D01*
X8203653Y11674072D01*
X8129320Y11702978D01*
X8129317Y11702978D01*
X8129316Y11702979D01*
X8129313Y11702978D01*
X8129313Y11702979D01*
X8124314Y11702869D01*
X8049571Y11701240D01*
X7994992Y11677225D01*
X7994987Y11677221D01*
X7994984Y11677220D01*
X6448441Y10594318D01*
X3823268Y8756152D01*
X3755997Y8733465D01*
X3687136Y8750750D01*
X3638552Y8802520D01*
X3625000Y8859366D01*
X3625000Y13309603D01*
X5192259Y13309603D01*
X5192259Y13309596D01*
X5211574Y13113475D01*
X5211574Y13113473D01*
X5268786Y12924871D01*
X5361690Y12751061D01*
X5486717Y12598717D01*
X5639061Y12473690D01*
X5812871Y12380786D01*
X6001474Y12323574D01*
X6197597Y12304259D01*
X6197600Y12304259D01*
X6197603Y12304259D01*
X6393724Y12323574D01*
X6393726Y12323574D01*
X6582328Y12380786D01*
X6756138Y12473690D01*
X6788222Y12500021D01*
X6908483Y12598717D01*
X7033510Y12751062D01*
X7122760Y12918036D01*
X7126413Y12924871D01*
X7126414Y12924873D01*
X7183624Y13113468D01*
X7183624Y13113470D01*
X7183625Y13113473D01*
X7183625Y13113475D01*
X7202941Y13309596D01*
X7202941Y13309603D01*
X7183625Y13505724D01*
X7183625Y13505726D01*
X7183624Y13505727D01*
X7183624Y13505732D01*
X7126414Y13694327D01*
X7033510Y13868138D01*
X6908483Y14020483D01*
X6756138Y14145510D01*
X6582327Y14238414D01*
X6393732Y14295624D01*
X6393726Y14295624D01*
X6393725Y14295625D01*
X6197603Y14314941D01*
X6197597Y14314941D01*
X6001475Y14295625D01*
X6001473Y14295625D01*
X6001470Y14295624D01*
X6001468Y14295624D01*
X5812873Y14238414D01*
X5639062Y14145510D01*
X5486717Y14020483D01*
X5400615Y13915568D01*
X5361690Y13868138D01*
X5268786Y13694328D01*
X5211574Y13505726D01*
X5211574Y13505724D01*
X5192259Y13309603D01*
X3625000Y13309603D01*
X3625000Y19990290D01*
X3645002Y20058411D01*
X3698658Y20104904D01*
X3768932Y20115008D01*
X3821002Y20095055D01*
X3871768Y20061133D01*
X3871771Y20061132D01*
X3930249Y20049500D01*
X3930252Y20049500D01*
X3973500Y20049500D01*
X4041621Y20029498D01*
X4088114Y19975842D01*
X4099500Y19923500D01*
X4099500Y17762402D01*
X4126420Y17627071D01*
X4126421Y17627068D01*
X4179225Y17499589D01*
X4255885Y17384858D01*
X4255890Y17384852D01*
X11862595Y9778148D01*
X11896621Y9715836D01*
X11899500Y9689053D01*
X11899500Y2531002D01*
X11926420Y2395671D01*
X11926421Y2395668D01*
X11979225Y2268189D01*
X12055885Y2153458D01*
X12055890Y2153452D01*
X13204960Y1004383D01*
X14353457Y-144114D01*
X14468189Y-220775D01*
X14595672Y-273580D01*
X14731006Y-300500D01*
X22068994Y-300500D01*
X22204328Y-273580D01*
X22331811Y-220775D01*
X22446543Y-144114D01*
X23294114Y703457D01*
X23370775Y818189D01*
X23423580Y945671D01*
X23440019Y1028318D01*
X23450500Y1081007D01*
X23450500Y1143500D01*
X23470502Y1211621D01*
X23524158Y1258114D01*
X23576500Y1269500D01*
X24344750Y1269500D01*
X24403228Y1281132D01*
X24403231Y1281133D01*
X24469552Y1325448D01*
X24513867Y1391769D01*
X24525500Y1450252D01*
X24525500Y2489748D01*
X24513867Y2548231D01*
X24469552Y2614552D01*
X24403231Y2658867D01*
X24344748Y2670500D01*
X24344747Y2670500D01*
X23576500Y2670500D01*
X23508379Y2690502D01*
X23461886Y2744158D01*
X23450500Y2796500D01*
X23450500Y3400000D01*
X25794318Y3400000D01*
X25794318Y3399999D01*
X25814955Y3243239D01*
X25875463Y3097160D01*
X25875465Y3097157D01*
X25971718Y2971718D01*
X26097157Y2875465D01*
X26097160Y2875463D01*
X26243239Y2814955D01*
X26400000Y2794318D01*
X26556760Y2814955D01*
X26702839Y2875463D01*
X26702842Y2875465D01*
X26755100Y2915564D01*
X26828282Y2971718D01*
X26924536Y3097159D01*
X26985044Y3243238D01*
X27005682Y3400000D01*
X26985044Y3556762D01*
X26924536Y3702841D01*
X26828282Y3828282D01*
X26702841Y3924536D01*
X26556762Y3985044D01*
X26400000Y4005682D01*
X26243238Y3985044D01*
X26097159Y3924536D01*
X25971718Y3828282D01*
X25875802Y3703281D01*
X25875465Y3702842D01*
X25875463Y3702839D01*
X25814955Y3556760D01*
X25794318Y3400000D01*
X23450500Y3400000D01*
X23450500Y3683500D01*
X23470502Y3751621D01*
X23524158Y3798114D01*
X23576500Y3809500D01*
X24344750Y3809500D01*
X24403228Y3821132D01*
X24403231Y3821133D01*
X24410126Y3825740D01*
X24469552Y3865448D01*
X24513867Y3931769D01*
X24525500Y3990252D01*
X24525500Y4157995D01*
X24545502Y4226116D01*
X24599158Y4272609D01*
X24669432Y4282713D01*
X24699718Y4274404D01*
X24843239Y4214955D01*
X25000000Y4194318D01*
X25156760Y4214955D01*
X25302839Y4275463D01*
X25302842Y4275465D01*
X25312288Y4282713D01*
X25428282Y4371718D01*
X25524536Y4497159D01*
X25585044Y4643238D01*
X25605682Y4800000D01*
X25585044Y4956762D01*
X25524536Y5102841D01*
X25428282Y5228282D01*
X25302841Y5324536D01*
X25156762Y5385044D01*
X25000000Y5405682D01*
X24843238Y5385044D01*
X24697159Y5324536D01*
X24571718Y5228282D01*
X24571716Y5228280D01*
X24571715Y5228279D01*
X24571531Y5228039D01*
X24571319Y5227884D01*
X24565878Y5222443D01*
X24565029Y5223291D01*
X24514193Y5186172D01*
X24443322Y5181950D01*
X24414761Y5194281D01*
X24414694Y5194118D01*
X24403235Y5198863D01*
X24403231Y5198867D01*
X24344748Y5210500D01*
X24344747Y5210500D01*
X23576500Y5210500D01*
X23508379Y5230502D01*
X23461886Y5284158D01*
X23450500Y5336500D01*
X23450500Y6223500D01*
X23470502Y6291621D01*
X23524158Y6338114D01*
X23576500Y6349500D01*
X24344750Y6349500D01*
X24403228Y6361132D01*
X24403231Y6361133D01*
X24425244Y6375842D01*
X24469552Y6405448D01*
X24513867Y6471769D01*
X24525500Y6530252D01*
X24525500Y7569748D01*
X24513867Y7628231D01*
X24469552Y7694552D01*
X24403231Y7738867D01*
X24344748Y7750500D01*
X24344747Y7750500D01*
X23576500Y7750500D01*
X23508379Y7770502D01*
X23461886Y7824158D01*
X23450500Y7876500D01*
X23450500Y8400000D01*
X27194318Y8400000D01*
X27194318Y8399999D01*
X27214955Y8243239D01*
X27275463Y8097160D01*
X27275465Y8097157D01*
X27371720Y7971715D01*
X27425204Y7930676D01*
X27467071Y7873338D01*
X27474500Y7830714D01*
X27474500Y5595353D01*
X27474500Y5509647D01*
X27496682Y5426861D01*
X27496683Y5426859D01*
X27496684Y5426856D01*
X27539532Y5352641D01*
X27539537Y5352635D01*
X28304564Y4587608D01*
X28338589Y4525296D01*
X28333524Y4454480D01*
X28316849Y4423694D01*
X28299362Y4400000D01*
X28257206Y4342882D01*
X28257206Y4342881D01*
X28212355Y4214703D01*
X28212354Y4214699D01*
X28209500Y4184264D01*
X28209500Y2400743D01*
X28209501Y2400728D01*
X28212354Y2370304D01*
X28212356Y2370295D01*
X28257206Y2242118D01*
X28257208Y2242114D01*
X28337849Y2132849D01*
X28447114Y2052208D01*
X28447118Y2052206D01*
X28575296Y2007355D01*
X28575300Y2007354D01*
X28605735Y2004500D01*
X31514256Y2004500D01*
X31514271Y2004501D01*
X31535567Y2006498D01*
X31544698Y2007354D01*
X31544704Y2007356D01*
X31672881Y2052206D01*
X31672885Y2052208D01*
X31782150Y2132849D01*
X31862791Y2242114D01*
X31862793Y2242118D01*
X31907644Y2370296D01*
X31907645Y2370300D01*
X31907646Y2370302D01*
X31910500Y2400735D01*
X31910500Y2466000D01*
X31930502Y2534121D01*
X31984158Y2580614D01*
X32036500Y2592000D01*
X34161497Y2592000D01*
X34296828Y2618920D01*
X34296831Y2618921D01*
X34343921Y2638426D01*
X34424311Y2671725D01*
X34539043Y2748386D01*
X34790657Y3000000D01*
X36194318Y3000000D01*
X36194318Y2999999D01*
X36214955Y2843239D01*
X36275463Y2697160D01*
X36275465Y2697157D01*
X36371718Y2571718D01*
X36497157Y2475465D01*
X36497160Y2475463D01*
X36643239Y2414955D01*
X36800000Y2394318D01*
X36956760Y2414955D01*
X37102839Y2475463D01*
X37102842Y2475465D01*
X37121456Y2489748D01*
X37228282Y2571718D01*
X37324536Y2697159D01*
X37385044Y2843238D01*
X37402016Y2972152D01*
X37405682Y2999999D01*
X37405682Y3000000D01*
X37390116Y3118238D01*
X37385044Y3156762D01*
X37324536Y3302841D01*
X37228282Y3428282D01*
X37102841Y3524536D01*
X36956762Y3585044D01*
X36800000Y3605682D01*
X36643238Y3585044D01*
X36497159Y3524536D01*
X36371718Y3428282D01*
X36313244Y3352077D01*
X36275465Y3302842D01*
X36275463Y3302839D01*
X36214955Y3156760D01*
X36194318Y3000000D01*
X34790657Y3000000D01*
X34944114Y3153457D01*
X35020775Y3268189D01*
X35073580Y3395672D01*
X35100500Y3531006D01*
X35100500Y3668994D01*
X35100500Y4918993D01*
X35077921Y5032504D01*
X35075500Y5057086D01*
X35075500Y5469746D01*
X35075500Y5469748D01*
X35063867Y5528231D01*
X35019552Y5594552D01*
X34953231Y5638867D01*
X34894748Y5650500D01*
X33905252Y5650500D01*
X33846769Y5638867D01*
X33780448Y5594552D01*
X33750345Y5549500D01*
X33736133Y5528231D01*
X33736132Y5528228D01*
X33724500Y5469750D01*
X33724500Y5057086D01*
X33722079Y5032504D01*
X33699500Y4918996D01*
X33699500Y4119000D01*
X33679498Y4050879D01*
X33625842Y4004386D01*
X33573500Y3993000D01*
X32036499Y3993000D01*
X31968378Y4013002D01*
X31921885Y4066658D01*
X31910499Y4119000D01*
X31910499Y4184256D01*
X31910499Y4184264D01*
X31907646Y4214698D01*
X31862793Y4342882D01*
X31852549Y4356762D01*
X31803152Y4423694D01*
X31778794Y4490381D01*
X31794357Y4559651D01*
X31815436Y4587610D01*
X31995450Y4767624D01*
X31995473Y4767645D01*
X32060459Y4832631D01*
X32060462Y4832635D01*
X32060465Y4832638D01*
X32103318Y4906862D01*
X32106570Y4918996D01*
X32125500Y4989643D01*
X32125501Y4989647D01*
X32125501Y5085503D01*
X32125500Y5085516D01*
X32125500Y6842851D01*
X32125500Y6842853D01*
X32103318Y6925638D01*
X32060465Y6999862D01*
X31999862Y7060465D01*
X31841331Y7218996D01*
X33699500Y7218996D01*
X33699500Y7081004D01*
X33722079Y6967495D01*
X33724500Y6942913D01*
X33724500Y6530249D01*
X33736132Y6471771D01*
X33736133Y6471768D01*
X33780448Y6405448D01*
X33846768Y6361133D01*
X33846771Y6361132D01*
X33905249Y6349500D01*
X33905252Y6349500D01*
X34894750Y6349500D01*
X34953228Y6361132D01*
X34953231Y6361133D01*
X35019555Y6405450D01*
X35026700Y6412595D01*
X35089012Y6446621D01*
X35115795Y6449500D01*
X36873500Y6449500D01*
X36941621Y6429498D01*
X36988114Y6375842D01*
X36999500Y6323500D01*
X36999500Y6181004D01*
X37026420Y6045671D01*
X37026421Y6045668D01*
X37079225Y5918189D01*
X37155885Y5803458D01*
X37155890Y5803452D01*
X37253452Y5705890D01*
X37253458Y5705885D01*
X37368189Y5629225D01*
X37495668Y5576421D01*
X37495671Y5576420D01*
X37631004Y5549500D01*
X37631007Y5549500D01*
X37768995Y5549500D01*
X37904328Y5576420D01*
X37904335Y5576422D01*
X37925283Y5585099D01*
X37995873Y5592688D01*
X38059360Y5560908D01*
X38095586Y5499849D01*
X38099500Y5468690D01*
X38099500Y5229136D01*
X38079498Y5161015D01*
X38025842Y5114522D01*
X37955568Y5104418D01*
X37911499Y5123010D01*
X37909995Y5120405D01*
X37902847Y5124531D01*
X37902841Y5124536D01*
X37756762Y5185044D01*
X37600000Y5205682D01*
X37443238Y5185044D01*
X37297159Y5124536D01*
X37171718Y5028282D01*
X37077464Y4905447D01*
X37075465Y4902842D01*
X37075463Y4902839D01*
X37014955Y4756760D01*
X37000903Y4650024D01*
X36972180Y4585097D01*
X36912915Y4546006D01*
X36841923Y4545161D01*
X36781745Y4582832D01*
X36759575Y4618248D01*
X36724536Y4702841D01*
X36628282Y4828282D01*
X36502841Y4924536D01*
X36356762Y4985044D01*
X36200000Y5005682D01*
X36043238Y4985044D01*
X35897159Y4924536D01*
X35771718Y4828282D01*
X35675465Y4702842D01*
X35675463Y4702839D01*
X35614955Y4556760D01*
X35594318Y4400000D01*
X35594318Y4399999D01*
X35614955Y4243239D01*
X35675463Y4097160D01*
X35675465Y4097157D01*
X35771718Y3971718D01*
X35897157Y3875465D01*
X35897160Y3875463D01*
X36043239Y3814955D01*
X36200000Y3794318D01*
X36356760Y3814955D01*
X36502839Y3875463D01*
X36502842Y3875465D01*
X36530412Y3896620D01*
X36628282Y3971718D01*
X36724536Y4097159D01*
X36785044Y4243238D01*
X36799096Y4349974D01*
X36827818Y4414901D01*
X36887084Y4453993D01*
X36958075Y4454838D01*
X37018254Y4417168D01*
X37040425Y4381749D01*
X37075464Y4297159D01*
X37075465Y4297158D01*
X37075465Y4297157D01*
X37171718Y4171718D01*
X37297157Y4075465D01*
X37297160Y4075463D01*
X37443239Y4014955D01*
X37600000Y3994318D01*
X37756760Y4014955D01*
X37902839Y4075463D01*
X37902842Y4075465D01*
X37909082Y4080253D01*
X38028282Y4171718D01*
X38124536Y4297159D01*
X38185044Y4443238D01*
X38205682Y4600000D01*
X38191588Y4707054D01*
X38202527Y4777202D01*
X38249655Y4830301D01*
X38316510Y4849500D01*
X38919750Y4849500D01*
X38978228Y4861132D01*
X38978229Y4861132D01*
X38978231Y4861133D01*
X38978232Y4861133D01*
X38978235Y4861135D01*
X38980004Y4862317D01*
X38984441Y4863706D01*
X38989694Y4865882D01*
X38989888Y4865411D01*
X39047758Y4883528D01*
X39116224Y4864741D01*
X39119996Y4862317D01*
X39121764Y4861135D01*
X39121771Y4861132D01*
X39180249Y4849500D01*
X39288831Y4849500D01*
X39356952Y4829498D01*
X39403445Y4775842D01*
X39413549Y4705568D01*
X39384055Y4640988D01*
X39377173Y4634505D01*
X39377557Y4634122D01*
X39371723Y4628288D01*
X39371719Y4628283D01*
X39371718Y4628282D01*
X39292111Y4524536D01*
X39275465Y4502842D01*
X39275463Y4502839D01*
X39214955Y4356760D01*
X39194318Y4200000D01*
X39194318Y4199999D01*
X39214955Y4043239D01*
X39275463Y3897160D01*
X39275465Y3897157D01*
X39371718Y3771718D01*
X39497157Y3675465D01*
X39497160Y3675463D01*
X39643239Y3614955D01*
X39800000Y3594318D01*
X39956760Y3614955D01*
X40102839Y3675463D01*
X40102842Y3675465D01*
X40228282Y3771718D01*
X40324536Y3897159D01*
X40385044Y4043238D01*
X40403610Y4184264D01*
X40405682Y4199999D01*
X40405682Y4200000D01*
X40402215Y4226331D01*
X40385044Y4356762D01*
X40324536Y4502841D01*
X40228282Y4628282D01*
X40228278Y4628284D01*
X40228276Y4628288D01*
X40222443Y4634122D01*
X40224928Y4636607D01*
X40192608Y4680846D01*
X40188369Y4751716D01*
X40223118Y4813628D01*
X40285823Y4846924D01*
X40311169Y4849500D01*
X40719750Y4849500D01*
X40778228Y4861132D01*
X40778229Y4861132D01*
X40778231Y4861133D01*
X40778232Y4861133D01*
X40778235Y4861135D01*
X40780004Y4862317D01*
X40784441Y4863706D01*
X40789694Y4865882D01*
X40789888Y4865411D01*
X40847758Y4883528D01*
X40916224Y4864741D01*
X40919996Y4862317D01*
X40921764Y4861135D01*
X40921771Y4861132D01*
X40980249Y4849500D01*
X40980252Y4849500D01*
X41619750Y4849500D01*
X41678228Y4861132D01*
X41678229Y4861132D01*
X41678231Y4861133D01*
X41678232Y4861133D01*
X41678235Y4861135D01*
X41680004Y4862317D01*
X41684441Y4863706D01*
X41689694Y4865882D01*
X41689888Y4865411D01*
X41747758Y4883528D01*
X41816224Y4864741D01*
X41819996Y4862317D01*
X41821764Y4861135D01*
X41821771Y4861132D01*
X41880249Y4849500D01*
X41880252Y4849500D01*
X42519750Y4849500D01*
X42578228Y4861132D01*
X42578229Y4861132D01*
X42578231Y4861133D01*
X42578232Y4861133D01*
X42578235Y4861135D01*
X42580004Y4862317D01*
X42584441Y4863706D01*
X42589694Y4865882D01*
X42589888Y4865411D01*
X42647758Y4883528D01*
X42716224Y4864741D01*
X42719996Y4862317D01*
X42721764Y4861135D01*
X42721771Y4861132D01*
X42780249Y4849500D01*
X43283490Y4849500D01*
X43351611Y4829498D01*
X43398104Y4775842D01*
X43408411Y4707054D01*
X43400010Y4643238D01*
X43394318Y4600000D01*
X43394318Y4599999D01*
X43414955Y4443239D01*
X43475463Y4297160D01*
X43475465Y4297157D01*
X43571718Y4171718D01*
X43697157Y4075465D01*
X43697160Y4075463D01*
X43843239Y4014955D01*
X44000000Y3994318D01*
X44156760Y4014955D01*
X44302839Y4075463D01*
X44302842Y4075465D01*
X44331115Y4097159D01*
X44396792Y4147555D01*
X44463013Y4173155D01*
X44532562Y4158890D01*
X44583357Y4109289D01*
X44599273Y4040099D01*
X44598418Y4031147D01*
X44594318Y4000001D01*
X44594318Y3999998D01*
X44614955Y3843239D01*
X44675463Y3697160D01*
X44675465Y3697157D01*
X44771718Y3571718D01*
X44897157Y3475465D01*
X44897160Y3475463D01*
X45043239Y3414955D01*
X45200000Y3394318D01*
X45200002Y3394318D01*
X45266839Y3403117D01*
X45336988Y3392177D01*
X45372380Y3367291D01*
X45975135Y2764537D01*
X45975141Y2764532D01*
X46049356Y2721684D01*
X46049359Y2721683D01*
X46049361Y2721682D01*
X46132147Y2699500D01*
X46132149Y2699500D01*
X52267851Y2699500D01*
X52267853Y2699500D01*
X52350639Y2721682D01*
X52350641Y2721683D01*
X52350643Y2721684D01*
X52424858Y2764532D01*
X52424868Y2764540D01*
X54395450Y4735124D01*
X54395473Y4735145D01*
X54460459Y4800131D01*
X54460467Y4800141D01*
X54488963Y4849498D01*
X54488964Y4849500D01*
X54503316Y4874357D01*
X54503317Y4874360D01*
X54503318Y4874361D01*
X54525500Y4957147D01*
X54525500Y5042853D01*
X54525500Y9612982D01*
X54545502Y9681103D01*
X54562405Y9702077D01*
X55860459Y11000131D01*
X55860467Y11000141D01*
X55890586Y11052310D01*
X55903318Y11074361D01*
X55925500Y11157147D01*
X55925500Y11242853D01*
X55925500Y12812983D01*
X55945502Y12881104D01*
X55962405Y12902078D01*
X56097922Y13037595D01*
X56160234Y13071621D01*
X56187017Y13074500D01*
X57242851Y13074500D01*
X57242853Y13074500D01*
X57325639Y13096682D01*
X57325641Y13096683D01*
X57325643Y13096684D01*
X57399858Y13139532D01*
X57399868Y13139540D01*
X58260459Y14000131D01*
X58260467Y14000141D01*
X58291432Y14053774D01*
X58342815Y14102767D01*
X58412528Y14116203D01*
X58477254Y14090737D01*
X58497152Y14075468D01*
X58497160Y14075463D01*
X58643239Y14014955D01*
X58800000Y13994318D01*
X58800002Y13994318D01*
X58831147Y13998418D01*
X58901296Y13987478D01*
X58954394Y13940349D01*
X58973583Y13871995D01*
X58952771Y13804118D01*
X58947555Y13796793D01*
X58884760Y13714955D01*
X58875465Y13702842D01*
X58875463Y13702839D01*
X58814955Y13556760D01*
X58794318Y13400000D01*
X58794318Y13399999D01*
X58814955Y13243239D01*
X58817927Y13236066D01*
X58825515Y13165476D01*
X58793734Y13101989D01*
X58749738Y13071443D01*
X58649944Y13030107D01*
X58524503Y12933853D01*
X58428250Y12808413D01*
X58428248Y12808410D01*
X58367740Y12662331D01*
X58347103Y12505571D01*
X58347103Y12505570D01*
X58367740Y12348810D01*
X58428248Y12202731D01*
X58428250Y12202728D01*
X58524505Y12077286D01*
X58607868Y12013320D01*
X58649735Y11955982D01*
X58653957Y11885111D01*
X58631128Y11836656D01*
X58624357Y11827831D01*
X58624352Y11827824D01*
X58563844Y11681745D01*
X58543207Y11524985D01*
X58543207Y11524984D01*
X58563844Y11368224D01*
X58624352Y11222145D01*
X58624354Y11222142D01*
X58720607Y11096703D01*
X58846046Y11000450D01*
X58846049Y11000448D01*
X58992128Y10939940D01*
X59148889Y10919303D01*
X59148891Y10919303D01*
X59276650Y10936122D01*
X59346798Y10925182D01*
X59399896Y10878054D01*
X59411741Y10850844D01*
X59411796Y10850867D01*
X59413059Y10847817D01*
X59414799Y10843821D01*
X59414953Y10843243D01*
X59475463Y10697160D01*
X59475465Y10697157D01*
X59571720Y10571715D01*
X59608464Y10543521D01*
X59650331Y10486183D01*
X59654553Y10415312D01*
X59619789Y10353409D01*
X59601763Y10338795D01*
X59580448Y10324552D01*
X59536133Y10258231D01*
X59536132Y10258228D01*
X59524500Y10199750D01*
X59524500Y10131500D01*
X59504498Y10063379D01*
X59450842Y10016886D01*
X59398500Y10005500D01*
X58907017Y10005500D01*
X58838896Y10025502D01*
X58817926Y10042400D01*
X58599862Y10260465D01*
X58525639Y10303318D01*
X58442853Y10325500D01*
X58442851Y10325500D01*
X58369286Y10325500D01*
X58301165Y10345502D01*
X58269324Y10374796D01*
X58228284Y10428279D01*
X58228282Y10428282D01*
X58102841Y10524536D01*
X57956762Y10585044D01*
X57800000Y10605682D01*
X57643238Y10585044D01*
X57497159Y10524536D01*
X57371718Y10428282D01*
X57275830Y10303318D01*
X57275465Y10302842D01*
X57275463Y10302839D01*
X57214955Y10156760D01*
X57194318Y10000000D01*
X57194318Y9999999D01*
X57214955Y9843239D01*
X57275463Y9697160D01*
X57275465Y9697157D01*
X57371718Y9571718D01*
X57497157Y9475465D01*
X57497160Y9475463D01*
X57643239Y9414955D01*
X57800000Y9394318D01*
X57956760Y9414955D01*
X58102839Y9475463D01*
X58102847Y9475468D01*
X58219647Y9565092D01*
X58285867Y9590693D01*
X58355416Y9576428D01*
X58385446Y9554226D01*
X58459530Y9480142D01*
X58459532Y9480140D01*
X58459534Y9480139D01*
X58459535Y9480138D01*
X58479367Y9460306D01*
X58520136Y9419536D01*
X58520141Y9419532D01*
X58594357Y9376683D01*
X58626479Y9368076D01*
X58677147Y9354500D01*
X58762853Y9354500D01*
X59398500Y9354500D01*
X59466621Y9334498D01*
X59513114Y9280842D01*
X59524500Y9228500D01*
X59524500Y9160249D01*
X59536132Y9101771D01*
X59536133Y9101768D01*
X59580448Y9035448D01*
X59646768Y8991133D01*
X59646771Y8991132D01*
X59705249Y8979500D01*
X59705252Y8979500D01*
X62894750Y8979500D01*
X62953228Y8991132D01*
X62953231Y8991133D01*
X62957998Y8994318D01*
X63019552Y9035448D01*
X63063867Y9101769D01*
X63075500Y9160252D01*
X63075500Y10199748D01*
X63063867Y10258231D01*
X63019552Y10324552D01*
X62953231Y10368867D01*
X62894748Y10380500D01*
X60537058Y10380500D01*
X60468937Y10400502D01*
X60422444Y10454158D01*
X60412340Y10524432D01*
X60437095Y10583204D01*
X60445624Y10594318D01*
X60524536Y10697159D01*
X60585044Y10843238D01*
X60605682Y11000000D01*
X60585044Y11156762D01*
X60524536Y11302841D01*
X60513827Y11316796D01*
X60488227Y11383015D01*
X60502491Y11452564D01*
X60552092Y11503360D01*
X60613790Y11519500D01*
X62894750Y11519500D01*
X62953228Y11531132D01*
X62953231Y11531133D01*
X63019552Y11575448D01*
X63063867Y11641769D01*
X63070761Y11652087D01*
X63073905Y11649985D01*
X63104809Y11688328D01*
X63172174Y11710742D01*
X63240964Y11693178D01*
X63265755Y11673918D01*
X63637596Y11302076D01*
X63671620Y11239766D01*
X63674500Y11212983D01*
X63674500Y8987017D01*
X63654498Y8918896D01*
X63637595Y8897922D01*
X63502078Y8762405D01*
X63439766Y8728379D01*
X63412983Y8725500D01*
X59242853Y8725500D01*
X59157147Y8725500D01*
X59074361Y8703318D01*
X59063695Y8697160D01*
X59024212Y8674364D01*
X59000138Y8660465D01*
X58772379Y8432706D01*
X58710069Y8398683D01*
X58666843Y8396881D01*
X58600000Y8405682D01*
X58443238Y8385044D01*
X58297159Y8324536D01*
X58171718Y8228282D01*
X58087279Y8118238D01*
X58075465Y8102842D01*
X58075463Y8102839D01*
X58014955Y7956760D01*
X57994318Y7800000D01*
X57994318Y7799999D01*
X58014955Y7643239D01*
X58075463Y7497160D01*
X58075465Y7497157D01*
X58171718Y7371718D01*
X58297157Y7275465D01*
X58297160Y7275463D01*
X58443239Y7214955D01*
X58600000Y7194318D01*
X58756760Y7214955D01*
X58902839Y7275463D01*
X58902842Y7275465D01*
X59028282Y7371718D01*
X59124536Y7497159D01*
X59185044Y7643238D01*
X59205682Y7800000D01*
X59196881Y7866841D01*
X59207819Y7936986D01*
X59232708Y7972381D01*
X59297922Y8037595D01*
X59360234Y8071621D01*
X59387017Y8074500D01*
X59606335Y8074500D01*
X59674456Y8054498D01*
X59720949Y8000842D01*
X59731053Y7930568D01*
X59701559Y7865988D01*
X59654555Y7832092D01*
X59646773Y7828867D01*
X59646769Y7828867D01*
X59580448Y7784552D01*
X59540346Y7724536D01*
X59536133Y7718231D01*
X59536132Y7718228D01*
X59524500Y7659750D01*
X59524500Y6620249D01*
X59536132Y6561771D01*
X59536133Y6561768D01*
X59580448Y6495448D01*
X59646768Y6451133D01*
X59646771Y6451132D01*
X59705249Y6439500D01*
X59705252Y6439500D01*
X62894750Y6439500D01*
X62953228Y6451132D01*
X62953231Y6451133D01*
X62954484Y6451970D01*
X63019552Y6495448D01*
X63063867Y6561769D01*
X63075500Y6620252D01*
X63075500Y6688500D01*
X63095502Y6756621D01*
X63149158Y6803114D01*
X63201500Y6814500D01*
X63388246Y6814500D01*
X63388248Y6814500D01*
X63471034Y6836682D01*
X63471036Y6836683D01*
X63471038Y6836684D01*
X63545253Y6879532D01*
X63545259Y6879537D01*
X63665585Y6999863D01*
X63829776Y7164054D01*
X63892087Y7198078D01*
X63935315Y7199880D01*
X64002156Y7191081D01*
X64002158Y7191081D01*
X64158918Y7211718D01*
X64304997Y7272226D01*
X64305005Y7272231D01*
X64371797Y7323482D01*
X64438017Y7349082D01*
X64507566Y7334817D01*
X64558362Y7285215D01*
X64574500Y7223519D01*
X64574500Y6620249D01*
X64586132Y6561771D01*
X64586133Y6561768D01*
X64630448Y6495448D01*
X64696768Y6451133D01*
X64696771Y6451132D01*
X64755249Y6439500D01*
X64755252Y6439500D01*
X67944750Y6439500D01*
X68003228Y6451132D01*
X68003231Y6451133D01*
X68004484Y6451970D01*
X68069552Y6495448D01*
X68113867Y6561769D01*
X68125500Y6620252D01*
X68125500Y6773500D01*
X68145502Y6841621D01*
X68199158Y6888114D01*
X68251500Y6899500D01*
X68411531Y6899500D01*
X68479652Y6879498D01*
X68511493Y6850204D01*
X68571715Y6771720D01*
X68697157Y6675465D01*
X68697160Y6675463D01*
X68843239Y6614955D01*
X69000000Y6594318D01*
X69156760Y6614955D01*
X69302839Y6675463D01*
X69302842Y6675465D01*
X69304887Y6677034D01*
X69428282Y6771718D01*
X69524536Y6897159D01*
X69585044Y7043238D01*
X69605682Y7200000D01*
X69585044Y7356762D01*
X69524536Y7502841D01*
X69428282Y7628282D01*
X69302841Y7724536D01*
X69156762Y7785044D01*
X69000000Y7805682D01*
X68843238Y7785044D01*
X68697159Y7724536D01*
X68571718Y7628282D01*
X68571716Y7628280D01*
X68571715Y7628279D01*
X68511493Y7549796D01*
X68454156Y7507929D01*
X68411531Y7500500D01*
X68251500Y7500500D01*
X68183379Y7520502D01*
X68136886Y7574158D01*
X68125500Y7626500D01*
X68125500Y7659746D01*
X68125500Y7659748D01*
X68113867Y7718231D01*
X68069552Y7784552D01*
X68003231Y7828867D01*
X67944748Y7840500D01*
X64755252Y7840500D01*
X64755249Y7840499D01*
X64755246Y7840499D01*
X64737938Y7837056D01*
X64667223Y7843382D01*
X64611155Y7886935D01*
X64588431Y7944189D01*
X64587202Y7953523D01*
X64587202Y7953525D01*
X64526694Y8099604D01*
X64430440Y8225045D01*
X64304999Y8321299D01*
X64250554Y8343850D01*
X64195277Y8388395D01*
X64172855Y8455758D01*
X64190412Y8524549D01*
X64209680Y8549352D01*
X64260458Y8600130D01*
X64260460Y8600133D01*
X64260465Y8600138D01*
X64285126Y8642853D01*
X64303318Y8674362D01*
X64325500Y8757147D01*
X64325500Y9132758D01*
X64345502Y9200879D01*
X64399158Y9247372D01*
X64469432Y9257476D01*
X64534012Y9227982D01*
X64572396Y9168256D01*
X64575079Y9157340D01*
X64586132Y9101771D01*
X64586133Y9101768D01*
X64630448Y9035448D01*
X64696768Y8991133D01*
X64696771Y8991132D01*
X64755249Y8979500D01*
X64755252Y8979500D01*
X67944750Y8979500D01*
X68003228Y8991132D01*
X68003231Y8991133D01*
X68007998Y8994318D01*
X68069552Y9035448D01*
X68113867Y9101769D01*
X68125500Y9160252D01*
X68125500Y9173500D01*
X68145502Y9241621D01*
X68199158Y9288114D01*
X68251500Y9299500D01*
X68686531Y9299500D01*
X68754652Y9279498D01*
X68786493Y9250204D01*
X68846715Y9171720D01*
X68972157Y9075465D01*
X68972160Y9075463D01*
X69118239Y9014955D01*
X69275000Y8994318D01*
X69431760Y9014955D01*
X69577839Y9075463D01*
X69577842Y9075465D01*
X69612125Y9101771D01*
X69703282Y9171718D01*
X69799536Y9297159D01*
X69860044Y9443238D01*
X69871500Y9530253D01*
X69880682Y9599999D01*
X69880682Y9600000D01*
X69878973Y9612982D01*
X69860044Y9756762D01*
X69799536Y9902841D01*
X69703282Y10028282D01*
X69577841Y10124536D01*
X69431762Y10185044D01*
X69275000Y10205682D01*
X69118238Y10185044D01*
X68972159Y10124536D01*
X68846718Y10028282D01*
X68846716Y10028280D01*
X68846715Y10028279D01*
X68786493Y9949796D01*
X68729156Y9907929D01*
X68686531Y9900500D01*
X68251500Y9900500D01*
X68183379Y9920502D01*
X68136886Y9974158D01*
X68125500Y10026500D01*
X68125500Y10199746D01*
X68125500Y10199748D01*
X68113867Y10258231D01*
X68069552Y10324552D01*
X68003231Y10368867D01*
X67944748Y10380500D01*
X64755252Y10380500D01*
X64696769Y10368867D01*
X64630448Y10324552D01*
X64607695Y10290500D01*
X64586133Y10258231D01*
X64586132Y10258228D01*
X64575079Y10202659D01*
X64542171Y10139750D01*
X64480476Y10104618D01*
X64409582Y10108418D01*
X64351996Y10149944D01*
X64326001Y10216011D01*
X64325500Y10227241D01*
X64325500Y11442852D01*
X64325500Y11442853D01*
X64314087Y11485448D01*
X64303318Y11525639D01*
X64260465Y11599862D01*
X63379862Y12480465D01*
X63305639Y12523318D01*
X63222853Y12545500D01*
X63222851Y12545500D01*
X63201500Y12545500D01*
X63133379Y12565502D01*
X63086886Y12619158D01*
X63075500Y12671500D01*
X63075500Y12739746D01*
X63075500Y12739748D01*
X63063867Y12798231D01*
X63019552Y12864552D01*
X62953231Y12908867D01*
X62894748Y12920500D01*
X62894747Y12920500D01*
X60039933Y12920500D01*
X59971812Y12940502D01*
X59925319Y12994158D01*
X59915215Y13064432D01*
X59923524Y13094718D01*
X59924534Y13097156D01*
X59924536Y13097159D01*
X59985044Y13243238D01*
X60005682Y13400000D01*
X59985044Y13556762D01*
X59924536Y13702841D01*
X59828282Y13828282D01*
X59825966Y13830058D01*
X59821433Y13833538D01*
X59779566Y13890876D01*
X59775344Y13961747D01*
X59810108Y14023650D01*
X59872821Y14056931D01*
X59898137Y14059500D01*
X62891725Y14059500D01*
X62959846Y14039498D01*
X62994589Y14003060D01*
X62995437Y14003711D01*
X63000463Y13997160D01*
X63000464Y13997159D01*
X63057356Y13923016D01*
X63096718Y13871718D01*
X63222157Y13775465D01*
X63222160Y13775463D01*
X63368239Y13714955D01*
X63525000Y13694318D01*
X63525002Y13694318D01*
X63623083Y13707230D01*
X63693231Y13696290D01*
X63728623Y13671404D01*
X64084540Y13315489D01*
X64084540Y13315488D01*
X64140482Y13259545D01*
X64140490Y13259539D01*
X64209014Y13219977D01*
X64285434Y13199500D01*
X64285438Y13199500D01*
X64364562Y13199500D01*
X66661531Y13199500D01*
X66729652Y13179498D01*
X66761493Y13150204D01*
X66782211Y13123204D01*
X66807812Y13056984D01*
X66793548Y12987435D01*
X66743946Y12936639D01*
X66682249Y12920500D01*
X64755252Y12920500D01*
X64696769Y12908867D01*
X64630448Y12864552D01*
X64595990Y12812983D01*
X64586133Y12798231D01*
X64586132Y12798228D01*
X64574500Y12739750D01*
X64574500Y11700249D01*
X64586132Y11641771D01*
X64586133Y11641768D01*
X64630448Y11575448D01*
X64696768Y11531133D01*
X64696771Y11531132D01*
X64755249Y11519500D01*
X64755252Y11519500D01*
X67944750Y11519500D01*
X68003228Y11531132D01*
X68003231Y11531133D01*
X68069551Y11575447D01*
X68069552Y11575448D01*
X68112440Y11639634D01*
X68166917Y11685162D01*
X68237360Y11694010D01*
X68301404Y11663368D01*
X68306300Y11658727D01*
X68412043Y11552984D01*
X68446069Y11490672D01*
X68441004Y11419857D01*
X68439360Y11415681D01*
X68436800Y11409498D01*
X68414955Y11356760D01*
X68394318Y11200000D01*
X68394318Y11199999D01*
X68414955Y11043239D01*
X68475463Y10897160D01*
X68475465Y10897157D01*
X68571718Y10771718D01*
X68697157Y10675465D01*
X68697160Y10675463D01*
X68843239Y10614955D01*
X69000000Y10594318D01*
X69156760Y10614955D01*
X69302839Y10675463D01*
X69302842Y10675465D01*
X69428282Y10771718D01*
X69524536Y10897159D01*
X69585044Y11043238D01*
X69596467Y11130004D01*
X69605682Y11199999D01*
X69605682Y11200000D01*
X69596234Y11271764D01*
X69585044Y11356762D01*
X69524536Y11502841D01*
X69428282Y11628282D01*
X69302841Y11724536D01*
X69156762Y11785044D01*
X69053101Y11798690D01*
X68988175Y11827412D01*
X68980465Y11834504D01*
X68354511Y12460460D01*
X68319861Y12480465D01*
X68285989Y12500021D01*
X68218886Y12518001D01*
X68158266Y12554952D01*
X68127245Y12618812D01*
X68125500Y12639707D01*
X68125500Y12739746D01*
X68125500Y12739748D01*
X68113867Y12798231D01*
X68069552Y12864552D01*
X68003231Y12908867D01*
X67944748Y12920500D01*
X67944747Y12920500D01*
X67817751Y12920500D01*
X67749630Y12940502D01*
X67703137Y12994158D01*
X67693033Y13064432D01*
X67717788Y13123204D01*
X67723197Y13130252D01*
X67774536Y13197159D01*
X67835044Y13343238D01*
X67855682Y13500000D01*
X67835044Y13656762D01*
X67774536Y13802841D01*
X67733135Y13856796D01*
X67707534Y13923016D01*
X67721798Y13992565D01*
X67771400Y14043361D01*
X67833097Y14059500D01*
X67944750Y14059500D01*
X68003228Y14071132D01*
X68003231Y14071133D01*
X68016226Y14079816D01*
X68069552Y14115448D01*
X68113867Y14181769D01*
X68125500Y14240252D01*
X68125500Y15279748D01*
X68113867Y15338231D01*
X68069552Y15404552D01*
X68003231Y15448867D01*
X67944748Y15460500D01*
X67944747Y15460500D01*
X65204261Y15460500D01*
X65136140Y15480502D01*
X65089647Y15534158D01*
X65079543Y15604432D01*
X65104298Y15663204D01*
X65149536Y15722159D01*
X65210044Y15868238D01*
X65227391Y16000000D01*
X68794318Y16000000D01*
X68794318Y15999999D01*
X68814955Y15843239D01*
X68875463Y15697160D01*
X68875465Y15697157D01*
X68971718Y15571718D01*
X69097157Y15475465D01*
X69097160Y15475463D01*
X69243239Y15414955D01*
X69400000Y15394318D01*
X69556760Y15414955D01*
X69702839Y15475463D01*
X69702842Y15475465D01*
X69828282Y15571718D01*
X69924536Y15697159D01*
X69985044Y15843238D01*
X69999990Y15956762D01*
X70005682Y15999999D01*
X70005682Y16000000D01*
X69994826Y16082462D01*
X69985044Y16156762D01*
X69924536Y16302841D01*
X69828282Y16428282D01*
X69702841Y16524536D01*
X69556762Y16585044D01*
X69400000Y16605682D01*
X69243238Y16585044D01*
X69097159Y16524536D01*
X68971718Y16428282D01*
X68875465Y16302842D01*
X68875463Y16302839D01*
X68814955Y16156760D01*
X68794318Y16000000D01*
X65227391Y16000000D01*
X65230682Y16025000D01*
X65217769Y16123084D01*
X65228708Y16193232D01*
X65253596Y16228625D01*
X65587566Y16562595D01*
X65649878Y16596621D01*
X65676661Y16599500D01*
X67944750Y16599500D01*
X68003228Y16611132D01*
X68003231Y16611133D01*
X68011220Y16616471D01*
X68069552Y16655448D01*
X68113867Y16721769D01*
X68125500Y16780252D01*
X68125500Y17819748D01*
X68113867Y17878231D01*
X68069552Y17944552D01*
X68003231Y17988867D01*
X67944748Y18000500D01*
X64755252Y18000500D01*
X64750974Y17999649D01*
X64680260Y18005974D01*
X64624191Y18049526D01*
X64600569Y18116478D01*
X64616893Y18185572D01*
X64637293Y18212322D01*
X64687566Y18262595D01*
X64749878Y18296621D01*
X64776661Y18299500D01*
X65839565Y18299500D01*
X65915985Y18319977D01*
X65915988Y18319978D01*
X65915989Y18319979D01*
X65984511Y18359540D01*
X66040460Y18415489D01*
X66590460Y18965489D01*
X66595662Y18974500D01*
X66630021Y19034011D01*
X66633264Y19046112D01*
X66670215Y19106734D01*
X66734076Y19137756D01*
X66754970Y19139500D01*
X67944750Y19139500D01*
X68003228Y19151132D01*
X68003231Y19151133D01*
X68011655Y19156762D01*
X68069552Y19195448D01*
X68113867Y19261769D01*
X68125500Y19320252D01*
X68125500Y20359748D01*
X68113867Y20418231D01*
X68069552Y20484552D01*
X68003231Y20528867D01*
X67944748Y20540500D01*
X64755252Y20540500D01*
X64696769Y20528867D01*
X64630448Y20484552D01*
X64591083Y20425639D01*
X64586133Y20418231D01*
X64586132Y20418228D01*
X64574500Y20359750D01*
X64574500Y19320249D01*
X64586132Y19261771D01*
X64586133Y19261768D01*
X64630448Y19195448D01*
X64696768Y19151133D01*
X64696772Y19151132D01*
X64702067Y19150079D01*
X64764977Y19117172D01*
X64800109Y19055477D01*
X64796309Y18984582D01*
X64754783Y18926996D01*
X64688717Y18901001D01*
X64677486Y18900500D01*
X64560438Y18900500D01*
X64560434Y18900499D01*
X64484014Y18880022D01*
X64484008Y18880020D01*
X64474213Y18874364D01*
X64474209Y18874362D01*
X64415492Y18840462D01*
X64415489Y18840460D01*
X64115593Y18540564D01*
X64053283Y18506541D01*
X63982468Y18511605D01*
X63925632Y18554152D01*
X63900821Y18620672D01*
X63900500Y18629661D01*
X63900500Y20639562D01*
X63900499Y20639565D01*
X63891909Y20671621D01*
X63880021Y20715989D01*
X63840460Y20784511D01*
X63784511Y20840460D01*
X62959511Y21665460D01*
X62948408Y21671870D01*
X62890989Y21705021D01*
X62814562Y21725500D01*
X55996362Y21725500D01*
X55917238Y21725500D01*
X55840812Y21705022D01*
X55840807Y21705019D01*
X55783378Y21671862D01*
X55772289Y21665460D01*
X55020775Y20913946D01*
X54958465Y20879923D01*
X54887650Y20884987D01*
X54830814Y20927534D01*
X54806835Y20991821D01*
X54806760Y20991812D01*
X54806716Y20992140D01*
X54806003Y20994054D01*
X54805831Y20998867D01*
X54792516Y21100003D01*
X54785044Y21156762D01*
X54724536Y21302841D01*
X54628282Y21428282D01*
X54502841Y21524536D01*
X54356762Y21585044D01*
X54200000Y21605682D01*
X54043238Y21585044D01*
X53897159Y21524536D01*
X53771718Y21428282D01*
X53771716Y21428280D01*
X53771715Y21428279D01*
X53730676Y21374796D01*
X53673338Y21332929D01*
X53630714Y21325500D01*
X50957147Y21325500D01*
X50874362Y21303318D01*
X50826180Y21275500D01*
X50800138Y21260465D01*
X50800136Y21260463D01*
X50800133Y21260461D01*
X50039540Y20499868D01*
X50039532Y20499858D01*
X49996681Y20425638D01*
X49993821Y20414961D01*
X49993820Y20414956D01*
X49974500Y20342853D01*
X49974500Y20342851D01*
X49974500Y18543453D01*
X49954498Y18475332D01*
X49900842Y18428839D01*
X49830568Y18418735D01*
X49789794Y18434359D01*
X49789694Y18434118D01*
X49780676Y18437853D01*
X49778499Y18438687D01*
X49778231Y18438867D01*
X49719748Y18450500D01*
X49080252Y18450500D01*
X49021769Y18438867D01*
X49020002Y18437686D01*
X49015566Y18436297D01*
X49010306Y18434118D01*
X49010110Y18434588D01*
X48952249Y18416471D01*
X48883782Y18435254D01*
X48879998Y18437686D01*
X48878231Y18438867D01*
X48819748Y18450500D01*
X48180252Y18450500D01*
X48121769Y18438867D01*
X48120002Y18437686D01*
X48115566Y18436297D01*
X48110306Y18434118D01*
X48110110Y18434588D01*
X48052249Y18416471D01*
X47983782Y18435254D01*
X47979998Y18437686D01*
X47978231Y18438867D01*
X47919748Y18450500D01*
X47280252Y18450500D01*
X47221769Y18438867D01*
X47220002Y18437686D01*
X47215566Y18436297D01*
X47210306Y18434118D01*
X47210110Y18434588D01*
X47152249Y18416471D01*
X47083782Y18435254D01*
X47079998Y18437686D01*
X47078231Y18438867D01*
X47019748Y18450500D01*
X46380252Y18450500D01*
X46321769Y18438867D01*
X46321501Y18438688D01*
X46320834Y18438479D01*
X46310306Y18434118D01*
X46309915Y18435060D01*
X46253752Y18417473D01*
X46185284Y18436255D01*
X46137840Y18489071D01*
X46125500Y18543453D01*
X46125500Y18717816D01*
X46145502Y18785937D01*
X46199158Y18832430D01*
X46203281Y18834224D01*
X46302835Y18875461D01*
X46302838Y18875462D01*
X46302841Y18875464D01*
X46428282Y18971718D01*
X46524536Y19097159D01*
X46585044Y19243238D01*
X46605682Y19400000D01*
X46585044Y19556762D01*
X46524536Y19702841D01*
X46428282Y19828282D01*
X46302841Y19924536D01*
X46156762Y19985044D01*
X46000000Y20005682D01*
X45843238Y19985044D01*
X45697159Y19924536D01*
X45571718Y19828282D01*
X45499961Y19734766D01*
X45442625Y19692901D01*
X45371754Y19688679D01*
X45309851Y19723443D01*
X45300042Y19734761D01*
X45228282Y19828282D01*
X45102841Y19924536D01*
X44956762Y19985044D01*
X44800000Y20005682D01*
X44643238Y19985044D01*
X44499714Y19925594D01*
X44429129Y19918006D01*
X44365642Y19949785D01*
X44329414Y20010843D01*
X44325500Y20042004D01*
X44325500Y20651402D01*
X44339233Y20708604D01*
X44385644Y20799692D01*
X44385646Y20799696D01*
X44400500Y20893481D01*
X44400499Y21506518D01*
X44385646Y21600304D01*
X44328050Y21713342D01*
X44238342Y21803050D01*
X44125304Y21860646D01*
X44031519Y21875500D01*
X43568482Y21875499D01*
X43474696Y21860646D01*
X43446745Y21846404D01*
X43361657Y21803050D01*
X43271949Y21713342D01*
X43247551Y21665457D01*
X43214354Y21600304D01*
X43199500Y21506519D01*
X43199500Y21506518D01*
X43199500Y21506515D01*
X43199500Y20893483D01*
X43214353Y20799697D01*
X43271949Y20686657D01*
X43361657Y20596949D01*
X43474694Y20539354D01*
X43528241Y20530873D01*
X43568211Y20524542D01*
X43632364Y20494130D01*
X43669891Y20433862D01*
X43674500Y20400094D01*
X43674500Y18543453D01*
X43654498Y18475332D01*
X43600842Y18428839D01*
X43530568Y18418735D01*
X43489794Y18434359D01*
X43489694Y18434118D01*
X43480676Y18437853D01*
X43478499Y18438687D01*
X43478231Y18438867D01*
X43419748Y18450500D01*
X43419747Y18450500D01*
X43390771Y18450500D01*
X43322650Y18470502D01*
X43276157Y18524158D01*
X43266053Y18594432D01*
X43290808Y18653203D01*
X43324531Y18697153D01*
X43324534Y18697157D01*
X43324536Y18697159D01*
X43385044Y18843238D01*
X43405682Y19000000D01*
X43385044Y19156762D01*
X43324536Y19302841D01*
X43228282Y19428282D01*
X43102841Y19524536D01*
X42956762Y19585044D01*
X42800000Y19605682D01*
X42643238Y19585044D01*
X42497159Y19524536D01*
X42371718Y19428282D01*
X42350017Y19400000D01*
X42275465Y19302842D01*
X42275463Y19302839D01*
X42214955Y19156760D01*
X42194318Y19000000D01*
X42194318Y18999998D01*
X42203117Y18933157D01*
X42192177Y18863008D01*
X42167290Y18827617D01*
X42051621Y18711948D01*
X41989309Y18677922D01*
X41918494Y18682987D01*
X41861658Y18725534D01*
X41836847Y18792054D01*
X41846117Y18849261D01*
X41850758Y18860465D01*
X41885044Y18943238D01*
X41898588Y19046112D01*
X41905682Y19099999D01*
X41905682Y19100000D01*
X41893116Y19195448D01*
X41885044Y19256762D01*
X41824536Y19402841D01*
X41728282Y19528282D01*
X41602841Y19624536D01*
X41456762Y19685044D01*
X41300000Y19705682D01*
X41143238Y19685044D01*
X40997159Y19624536D01*
X40871718Y19528282D01*
X40792365Y19424867D01*
X40775465Y19402842D01*
X40775463Y19402839D01*
X40714955Y19256760D01*
X40694318Y19100000D01*
X40694318Y19099999D01*
X40714955Y18943239D01*
X40775463Y18797160D01*
X40775465Y18797157D01*
X40871718Y18671717D01*
X40917726Y18636414D01*
X40959593Y18579075D01*
X40963814Y18508204D01*
X40929049Y18446302D01*
X40911024Y18431688D01*
X40855448Y18394552D01*
X40811133Y18328231D01*
X40811132Y18328228D01*
X40799500Y18269750D01*
X40799500Y17630249D01*
X40811132Y17571771D01*
X40811133Y17571768D01*
X40855448Y17505448D01*
X40921768Y17461133D01*
X40921771Y17461132D01*
X40980249Y17449500D01*
X40980252Y17449500D01*
X41619750Y17449500D01*
X41678228Y17461132D01*
X41678229Y17461132D01*
X41678231Y17461133D01*
X41678232Y17461133D01*
X41678235Y17461135D01*
X41680004Y17462317D01*
X41684441Y17463706D01*
X41689694Y17465882D01*
X41689888Y17465411D01*
X41747758Y17483528D01*
X41816224Y17464741D01*
X41819996Y17462317D01*
X41821764Y17461135D01*
X41821771Y17461132D01*
X41880249Y17449500D01*
X41880252Y17449500D01*
X42519750Y17449500D01*
X42578228Y17461132D01*
X42578229Y17461132D01*
X42578231Y17461133D01*
X42578232Y17461133D01*
X42578235Y17461135D01*
X42580004Y17462317D01*
X42584441Y17463706D01*
X42589694Y17465882D01*
X42589888Y17465411D01*
X42647758Y17483528D01*
X42716224Y17464741D01*
X42719996Y17462317D01*
X42721764Y17461135D01*
X42721771Y17461132D01*
X42780249Y17449500D01*
X42780252Y17449500D01*
X43419750Y17449500D01*
X43478228Y17461132D01*
X43478229Y17461132D01*
X43478231Y17461133D01*
X43478232Y17461133D01*
X43478235Y17461135D01*
X43480004Y17462317D01*
X43484441Y17463706D01*
X43489694Y17465882D01*
X43489888Y17465411D01*
X43547758Y17483528D01*
X43616224Y17464741D01*
X43619996Y17462317D01*
X43621764Y17461135D01*
X43621771Y17461132D01*
X43680249Y17449500D01*
X43680252Y17449500D01*
X44319750Y17449500D01*
X44378228Y17461132D01*
X44378229Y17461132D01*
X44378231Y17461133D01*
X44378232Y17461133D01*
X44378235Y17461135D01*
X44380004Y17462317D01*
X44384441Y17463706D01*
X44389694Y17465882D01*
X44389888Y17465411D01*
X44447758Y17483528D01*
X44516224Y17464741D01*
X44519996Y17462317D01*
X44521764Y17461135D01*
X44521771Y17461132D01*
X44580249Y17449500D01*
X44580252Y17449500D01*
X45219750Y17449500D01*
X45278228Y17461132D01*
X45278229Y17461132D01*
X45278231Y17461133D01*
X45278232Y17461133D01*
X45278235Y17461135D01*
X45280004Y17462317D01*
X45284441Y17463706D01*
X45289694Y17465882D01*
X45289888Y17465411D01*
X45347758Y17483528D01*
X45416224Y17464741D01*
X45419996Y17462317D01*
X45421764Y17461135D01*
X45421771Y17461132D01*
X45480249Y17449500D01*
X45480252Y17449500D01*
X46119750Y17449500D01*
X46178228Y17461132D01*
X46178229Y17461132D01*
X46178231Y17461133D01*
X46178232Y17461133D01*
X46178235Y17461135D01*
X46180004Y17462317D01*
X46184441Y17463706D01*
X46189694Y17465882D01*
X46189888Y17465411D01*
X46247758Y17483528D01*
X46316224Y17464741D01*
X46319996Y17462317D01*
X46321764Y17461135D01*
X46321771Y17461132D01*
X46380249Y17449500D01*
X46380252Y17449500D01*
X47019750Y17449500D01*
X47078228Y17461132D01*
X47078229Y17461132D01*
X47078231Y17461133D01*
X47078232Y17461133D01*
X47078235Y17461135D01*
X47080004Y17462317D01*
X47084441Y17463706D01*
X47089694Y17465882D01*
X47089888Y17465411D01*
X47147758Y17483528D01*
X47216224Y17464741D01*
X47219996Y17462317D01*
X47221764Y17461135D01*
X47221771Y17461132D01*
X47280249Y17449500D01*
X47280252Y17449500D01*
X47919750Y17449500D01*
X47978228Y17461132D01*
X47978229Y17461132D01*
X47978231Y17461133D01*
X47978232Y17461133D01*
X47978235Y17461135D01*
X47980004Y17462317D01*
X47984441Y17463706D01*
X47989694Y17465882D01*
X47989888Y17465411D01*
X48047758Y17483528D01*
X48116224Y17464741D01*
X48119996Y17462317D01*
X48121764Y17461135D01*
X48121771Y17461132D01*
X48180249Y17449500D01*
X48180252Y17449500D01*
X48819750Y17449500D01*
X48878228Y17461132D01*
X48878229Y17461132D01*
X48878231Y17461133D01*
X48878232Y17461133D01*
X48878235Y17461135D01*
X48880004Y17462317D01*
X48884441Y17463706D01*
X48889694Y17465882D01*
X48889888Y17465411D01*
X48947758Y17483528D01*
X49016224Y17464741D01*
X49019996Y17462317D01*
X49021764Y17461135D01*
X49021771Y17461132D01*
X49080249Y17449500D01*
X49673500Y17449500D01*
X49741621Y17429498D01*
X49788114Y17375842D01*
X49799500Y17323500D01*
X49799500Y16730249D01*
X49811132Y16671771D01*
X49811135Y16671764D01*
X49812317Y16669996D01*
X49813706Y16665558D01*
X49815882Y16660306D01*
X49815411Y16660111D01*
X49833528Y16602242D01*
X49814741Y16533776D01*
X49812317Y16530004D01*
X49811135Y16528235D01*
X49811132Y16528228D01*
X49799500Y16469750D01*
X49799500Y15830249D01*
X49811132Y15771771D01*
X49811135Y15771764D01*
X49812317Y15769996D01*
X49813706Y15765558D01*
X49815882Y15760306D01*
X49815411Y15760111D01*
X49833528Y15702242D01*
X49814741Y15633776D01*
X49812317Y15630004D01*
X49811135Y15628235D01*
X49811132Y15628228D01*
X49799500Y15569750D01*
X49799500Y14930249D01*
X49811132Y14871771D01*
X49811135Y14871764D01*
X49812317Y14869996D01*
X49813706Y14865558D01*
X49815882Y14860306D01*
X49815411Y14860111D01*
X49833528Y14802242D01*
X49814741Y14733776D01*
X49812317Y14730004D01*
X49811135Y14728235D01*
X49811132Y14728228D01*
X49799500Y14669750D01*
X49799500Y14030249D01*
X49811132Y13971771D01*
X49811135Y13971764D01*
X49812317Y13969996D01*
X49813706Y13965558D01*
X49815882Y13960306D01*
X49815411Y13960111D01*
X49833528Y13902242D01*
X49814741Y13833776D01*
X49812317Y13830004D01*
X49811135Y13828235D01*
X49811132Y13828228D01*
X49799500Y13769750D01*
X49799500Y13130249D01*
X49811132Y13071771D01*
X49811135Y13071764D01*
X49812317Y13069996D01*
X49813706Y13065558D01*
X49815882Y13060306D01*
X49815411Y13060111D01*
X49833528Y13002242D01*
X49814741Y12933776D01*
X49812317Y12930004D01*
X49811135Y12928235D01*
X49811132Y12928228D01*
X49799500Y12869750D01*
X49799500Y12230249D01*
X49811132Y12171771D01*
X49811135Y12171764D01*
X49812317Y12169996D01*
X49813706Y12165558D01*
X49815882Y12160306D01*
X49815411Y12160111D01*
X49833528Y12102242D01*
X49814741Y12033776D01*
X49812317Y12030004D01*
X49811135Y12028235D01*
X49811132Y12028228D01*
X49799500Y11969750D01*
X49799500Y11330249D01*
X49811132Y11271771D01*
X49811135Y11271764D01*
X49812317Y11269996D01*
X49813706Y11265558D01*
X49815882Y11260306D01*
X49815411Y11260111D01*
X49833528Y11202242D01*
X49814741Y11133776D01*
X49812317Y11130004D01*
X49811135Y11128235D01*
X49811132Y11128228D01*
X49799500Y11069750D01*
X49799500Y10430249D01*
X49811132Y10371771D01*
X49811135Y10371764D01*
X49812317Y10369996D01*
X49813706Y10365558D01*
X49815882Y10360306D01*
X49815411Y10360111D01*
X49833528Y10302242D01*
X49814741Y10233776D01*
X49812317Y10230004D01*
X49811135Y10228235D01*
X49811132Y10228228D01*
X49799500Y10169750D01*
X49799500Y9530249D01*
X49811132Y9471771D01*
X49811135Y9471764D01*
X49812317Y9469996D01*
X49813706Y9465558D01*
X49815882Y9460306D01*
X49815411Y9460111D01*
X49833528Y9402242D01*
X49814741Y9333776D01*
X49812317Y9330004D01*
X49811135Y9328235D01*
X49811132Y9328228D01*
X49799500Y9269750D01*
X49799500Y8630249D01*
X49811132Y8571771D01*
X49811135Y8571764D01*
X49812317Y8569996D01*
X49813706Y8565558D01*
X49815882Y8560306D01*
X49815411Y8560111D01*
X49833528Y8502242D01*
X49814741Y8433776D01*
X49812317Y8430004D01*
X49811135Y8428235D01*
X49811132Y8428228D01*
X49799500Y8369750D01*
X49799500Y7730249D01*
X49811132Y7671771D01*
X49811135Y7671764D01*
X49812317Y7669996D01*
X49813706Y7665558D01*
X49815882Y7660306D01*
X49815411Y7660111D01*
X49833528Y7602242D01*
X49814741Y7533776D01*
X49812317Y7530004D01*
X49811135Y7528235D01*
X49811132Y7528228D01*
X49799500Y7469750D01*
X49799500Y6830249D01*
X49811132Y6771771D01*
X49811135Y6771764D01*
X49812317Y6769996D01*
X49813706Y6765558D01*
X49815882Y6760306D01*
X49815411Y6760111D01*
X49833528Y6702242D01*
X49814741Y6633776D01*
X49812317Y6630004D01*
X49811135Y6628235D01*
X49811132Y6628228D01*
X49799500Y6569750D01*
X49799500Y5976500D01*
X49779498Y5908379D01*
X49725842Y5861886D01*
X49673500Y5850500D01*
X49080252Y5850500D01*
X49021769Y5838867D01*
X49021768Y5838866D01*
X49020002Y5837686D01*
X49015566Y5836297D01*
X49010306Y5834118D01*
X49010110Y5834588D01*
X48952249Y5816471D01*
X48883782Y5835254D01*
X48879998Y5837686D01*
X48878231Y5838867D01*
X48819748Y5850500D01*
X48180252Y5850500D01*
X48121769Y5838867D01*
X48121768Y5838866D01*
X48120002Y5837686D01*
X48115566Y5836297D01*
X48110306Y5834118D01*
X48110110Y5834588D01*
X48052249Y5816471D01*
X47983782Y5835254D01*
X47979998Y5837686D01*
X47978231Y5838867D01*
X47919748Y5850500D01*
X47280252Y5850500D01*
X47221769Y5838867D01*
X47221768Y5838866D01*
X47220002Y5837686D01*
X47215566Y5836297D01*
X47210306Y5834118D01*
X47210110Y5834588D01*
X47152249Y5816471D01*
X47083782Y5835254D01*
X47079998Y5837686D01*
X47078231Y5838867D01*
X47019748Y5850500D01*
X46380252Y5850500D01*
X46321769Y5838867D01*
X46321768Y5838866D01*
X46320002Y5837686D01*
X46315566Y5836297D01*
X46310306Y5834118D01*
X46310110Y5834588D01*
X46252249Y5816471D01*
X46183782Y5835254D01*
X46179998Y5837686D01*
X46178231Y5838867D01*
X46119748Y5850500D01*
X45480252Y5850500D01*
X45421769Y5838867D01*
X45421768Y5838866D01*
X45420002Y5837686D01*
X45415566Y5836297D01*
X45410306Y5834118D01*
X45410110Y5834588D01*
X45352249Y5816471D01*
X45283782Y5835254D01*
X45279998Y5837686D01*
X45278231Y5838867D01*
X45219748Y5850500D01*
X44580252Y5850500D01*
X44521769Y5838867D01*
X44521768Y5838866D01*
X44520002Y5837686D01*
X44515566Y5836297D01*
X44510306Y5834118D01*
X44510110Y5834588D01*
X44452249Y5816471D01*
X44383782Y5835254D01*
X44379998Y5837686D01*
X44378231Y5838867D01*
X44319748Y5850500D01*
X43680252Y5850500D01*
X43621769Y5838867D01*
X43621768Y5838866D01*
X43620002Y5837686D01*
X43615566Y5836297D01*
X43610306Y5834118D01*
X43610110Y5834588D01*
X43552249Y5816471D01*
X43483782Y5835254D01*
X43479998Y5837686D01*
X43478231Y5838867D01*
X43419748Y5850500D01*
X42780252Y5850500D01*
X42721769Y5838867D01*
X42721768Y5838866D01*
X42720002Y5837686D01*
X42715566Y5836297D01*
X42710306Y5834118D01*
X42710110Y5834588D01*
X42652249Y5816471D01*
X42583782Y5835254D01*
X42579998Y5837686D01*
X42578231Y5838867D01*
X42519748Y5850500D01*
X41880252Y5850500D01*
X41821769Y5838867D01*
X41821768Y5838866D01*
X41820002Y5837686D01*
X41815566Y5836297D01*
X41810306Y5834118D01*
X41810110Y5834588D01*
X41752249Y5816471D01*
X41683782Y5835254D01*
X41679998Y5837686D01*
X41678231Y5838867D01*
X41619748Y5850500D01*
X40980252Y5850500D01*
X40921769Y5838867D01*
X40921768Y5838866D01*
X40920002Y5837686D01*
X40915566Y5836297D01*
X40910306Y5834118D01*
X40910110Y5834588D01*
X40852249Y5816471D01*
X40783782Y5835254D01*
X40779998Y5837686D01*
X40778231Y5838867D01*
X40719748Y5850500D01*
X40080252Y5850500D01*
X40021769Y5838867D01*
X40021768Y5838866D01*
X40020002Y5837686D01*
X40015566Y5836297D01*
X40010306Y5834118D01*
X40010110Y5834588D01*
X39952249Y5816471D01*
X39883782Y5835254D01*
X39879998Y5837686D01*
X39878231Y5838867D01*
X39819748Y5850500D01*
X39180252Y5850500D01*
X39121769Y5838867D01*
X39121768Y5838866D01*
X39120002Y5837686D01*
X39115566Y5836297D01*
X39110306Y5834118D01*
X39110110Y5834588D01*
X39052249Y5816471D01*
X38983782Y5835254D01*
X38979998Y5837686D01*
X38978231Y5838867D01*
X38919748Y5850500D01*
X38481310Y5850500D01*
X38413189Y5870502D01*
X38366696Y5924158D01*
X38356592Y5994432D01*
X38364901Y6024717D01*
X38373577Y6045664D01*
X38373578Y6045668D01*
X38373580Y6045672D01*
X38400500Y6181007D01*
X38400500Y7218993D01*
X38400500Y8018993D01*
X38373580Y8154328D01*
X38320775Y8281811D01*
X38244114Y8396542D01*
X38213256Y8427399D01*
X38179232Y8489709D01*
X38184296Y8560525D01*
X38185945Y8564717D01*
X38188864Y8571765D01*
X38188867Y8571769D01*
X38200500Y8630252D01*
X38200500Y9269748D01*
X38188867Y9328231D01*
X38187685Y9329998D01*
X38186297Y9334433D01*
X38184118Y9339694D01*
X38184588Y9339889D01*
X38166471Y9397751D01*
X38185254Y9466218D01*
X38187686Y9470002D01*
X38188867Y9471769D01*
X38200500Y9530252D01*
X38200500Y10169748D01*
X38188867Y10228231D01*
X38187685Y10229998D01*
X38186297Y10234433D01*
X38184118Y10239694D01*
X38184588Y10239889D01*
X38166471Y10297751D01*
X38185254Y10366218D01*
X38187686Y10370002D01*
X38188690Y10371504D01*
X38188867Y10371769D01*
X38200500Y10430252D01*
X38200500Y11069748D01*
X38188867Y11128231D01*
X38187685Y11129998D01*
X38186297Y11134433D01*
X38184118Y11139694D01*
X38184588Y11139889D01*
X38166471Y11197751D01*
X38185254Y11266218D01*
X38187686Y11270002D01*
X38188867Y11271769D01*
X38200500Y11330252D01*
X38200500Y11969748D01*
X38188867Y12028231D01*
X38187685Y12029998D01*
X38186297Y12034433D01*
X38184118Y12039694D01*
X38184588Y12039889D01*
X38166471Y12097751D01*
X38185254Y12166218D01*
X38187686Y12170002D01*
X38188867Y12171769D01*
X38200500Y12230252D01*
X38200500Y12869748D01*
X38188867Y12928231D01*
X38187685Y12929998D01*
X38186297Y12934433D01*
X38184118Y12939694D01*
X38184588Y12939889D01*
X38166471Y12997751D01*
X38185254Y13066218D01*
X38187686Y13070002D01*
X38188833Y13071718D01*
X38188867Y13071769D01*
X38200500Y13130252D01*
X38200500Y13769748D01*
X38188867Y13828231D01*
X38187685Y13829998D01*
X38186297Y13834433D01*
X38184118Y13839694D01*
X38184588Y13839889D01*
X38166471Y13897751D01*
X38185254Y13966218D01*
X38187686Y13970002D01*
X38188867Y13971769D01*
X38200500Y14030252D01*
X38200500Y14669748D01*
X38200500Y14669750D01*
X38999500Y14669750D01*
X38999500Y14030249D01*
X39011132Y13971771D01*
X39011135Y13971764D01*
X39012317Y13969996D01*
X39013706Y13965558D01*
X39015882Y13960306D01*
X39015411Y13960111D01*
X39033528Y13902242D01*
X39014741Y13833776D01*
X39012317Y13830004D01*
X39011135Y13828235D01*
X39011132Y13828228D01*
X38999500Y13769750D01*
X38999500Y13130249D01*
X39011132Y13071771D01*
X39011133Y13071768D01*
X39055448Y13005448D01*
X39121768Y12961133D01*
X39121771Y12961132D01*
X39180249Y12949500D01*
X39180252Y12949500D01*
X39819750Y12949500D01*
X39878228Y12961132D01*
X39878231Y12961133D01*
X39894072Y12971718D01*
X39944552Y13005448D01*
X39988867Y13071769D01*
X40000500Y13130252D01*
X40000500Y13769748D01*
X40000500Y13769750D01*
X47999500Y13769750D01*
X47999500Y13130249D01*
X48011132Y13071771D01*
X48011133Y13071768D01*
X48055448Y13005448D01*
X48121768Y12961133D01*
X48121771Y12961132D01*
X48180249Y12949500D01*
X48180252Y12949500D01*
X48819750Y12949500D01*
X48878228Y12961132D01*
X48878231Y12961133D01*
X48894072Y12971718D01*
X48944552Y13005448D01*
X48988867Y13071769D01*
X49000500Y13130252D01*
X49000500Y13769748D01*
X48988867Y13828231D01*
X48944552Y13894552D01*
X48878231Y13938867D01*
X48819748Y13950500D01*
X48180252Y13950500D01*
X48121769Y13938867D01*
X48055448Y13894552D01*
X48017262Y13837404D01*
X48011133Y13828231D01*
X48011132Y13828228D01*
X47999500Y13769750D01*
X40000500Y13769750D01*
X39988867Y13828231D01*
X39987685Y13829998D01*
X39986297Y13834433D01*
X39984118Y13839694D01*
X39984588Y13839889D01*
X39966471Y13897751D01*
X39985254Y13966218D01*
X39987686Y13970002D01*
X39988867Y13971769D01*
X40000500Y14030252D01*
X40000500Y14669748D01*
X40000500Y14669750D01*
X40799500Y14669750D01*
X40799500Y14030249D01*
X40811132Y13971771D01*
X40811133Y13971768D01*
X40855448Y13905448D01*
X40921768Y13861133D01*
X40921771Y13861132D01*
X40980249Y13849500D01*
X40980252Y13849500D01*
X41619750Y13849500D01*
X41678228Y13861132D01*
X41678229Y13861132D01*
X41678231Y13861133D01*
X41678232Y13861133D01*
X41678235Y13861135D01*
X41680004Y13862317D01*
X41684441Y13863706D01*
X41689694Y13865882D01*
X41689888Y13865411D01*
X41747758Y13883528D01*
X41816224Y13864741D01*
X41819996Y13862317D01*
X41821764Y13861135D01*
X41821771Y13861132D01*
X41880249Y13849500D01*
X41880252Y13849500D01*
X42519750Y13849500D01*
X42578228Y13861132D01*
X42578229Y13861132D01*
X42578231Y13861133D01*
X42578232Y13861133D01*
X42578235Y13861135D01*
X42580004Y13862317D01*
X42584441Y13863706D01*
X42589694Y13865882D01*
X42589888Y13865411D01*
X42647758Y13883528D01*
X42716224Y13864741D01*
X42719996Y13862317D01*
X42721764Y13861135D01*
X42721771Y13861132D01*
X42780249Y13849500D01*
X42780252Y13849500D01*
X43419750Y13849500D01*
X43478228Y13861132D01*
X43478229Y13861132D01*
X43478231Y13861133D01*
X43478232Y13861133D01*
X43478235Y13861135D01*
X43480004Y13862317D01*
X43484441Y13863706D01*
X43489694Y13865882D01*
X43489888Y13865411D01*
X43547758Y13883528D01*
X43616224Y13864741D01*
X43619996Y13862317D01*
X43621764Y13861135D01*
X43621771Y13861132D01*
X43680249Y13849500D01*
X43680252Y13849500D01*
X44319750Y13849500D01*
X44378228Y13861132D01*
X44378229Y13861132D01*
X44378231Y13861133D01*
X44378232Y13861133D01*
X44378235Y13861135D01*
X44380004Y13862317D01*
X44384441Y13863706D01*
X44389694Y13865882D01*
X44389888Y13865411D01*
X44447758Y13883528D01*
X44516224Y13864741D01*
X44519996Y13862317D01*
X44521764Y13861135D01*
X44521771Y13861132D01*
X44580249Y13849500D01*
X44580252Y13849500D01*
X45219750Y13849500D01*
X45278228Y13861132D01*
X45278229Y13861132D01*
X45278231Y13861133D01*
X45278232Y13861133D01*
X45278235Y13861135D01*
X45280004Y13862317D01*
X45284441Y13863706D01*
X45289694Y13865882D01*
X45289888Y13865411D01*
X45347758Y13883528D01*
X45416224Y13864741D01*
X45419996Y13862317D01*
X45421764Y13861135D01*
X45421771Y13861132D01*
X45480249Y13849500D01*
X45480252Y13849500D01*
X46119750Y13849500D01*
X46178228Y13861132D01*
X46178231Y13861133D01*
X46185338Y13865882D01*
X46244552Y13905448D01*
X46288867Y13971769D01*
X46300500Y14030252D01*
X46300500Y14548500D01*
X46320502Y14616621D01*
X46374158Y14663114D01*
X46426500Y14674500D01*
X47074423Y14674500D01*
X47122641Y14664909D01*
X47243239Y14614955D01*
X47400000Y14594318D01*
X47556760Y14614955D01*
X47702839Y14675463D01*
X47702842Y14675465D01*
X47710093Y14681029D01*
X47828282Y14771718D01*
X47924536Y14897159D01*
X47985044Y15043238D01*
X48005682Y15200000D01*
X47985044Y15356762D01*
X47924536Y15502841D01*
X47828282Y15628282D01*
X47702841Y15724536D01*
X47556762Y15785044D01*
X47400000Y15805682D01*
X47243238Y15785044D01*
X47097159Y15724536D01*
X46971718Y15628282D01*
X46885010Y15515281D01*
X46875465Y15502842D01*
X46875461Y15502835D01*
X46834224Y15403281D01*
X46789676Y15348000D01*
X46722312Y15325580D01*
X46717816Y15325500D01*
X44957147Y15325500D01*
X44874362Y15303318D01*
X44826117Y15275464D01*
X44800138Y15260465D01*
X44800136Y15260463D01*
X44800131Y15260459D01*
X44639540Y15099868D01*
X44639532Y15099858D01*
X44596680Y15025636D01*
X44589811Y15000002D01*
X44589812Y15000002D01*
X44574500Y14942855D01*
X44573422Y14934663D01*
X44571974Y14934853D01*
X44554498Y14875332D01*
X44500842Y14828839D01*
X44430568Y14818735D01*
X44389794Y14834359D01*
X44389694Y14834118D01*
X44380676Y14837853D01*
X44378499Y14838687D01*
X44378231Y14838867D01*
X44319748Y14850500D01*
X43680252Y14850500D01*
X43621769Y14838867D01*
X43620002Y14837686D01*
X43615566Y14836297D01*
X43610306Y14834118D01*
X43610110Y14834588D01*
X43552249Y14816471D01*
X43483782Y14835254D01*
X43479998Y14837686D01*
X43478231Y14838867D01*
X43419748Y14850500D01*
X42780252Y14850500D01*
X42721769Y14838867D01*
X42720002Y14837686D01*
X42715566Y14836297D01*
X42710306Y14834118D01*
X42710110Y14834588D01*
X42652249Y14816471D01*
X42583782Y14835254D01*
X42579998Y14837686D01*
X42578231Y14838867D01*
X42519748Y14850500D01*
X41880252Y14850500D01*
X41821769Y14838867D01*
X41820002Y14837686D01*
X41815566Y14836297D01*
X41810306Y14834118D01*
X41810110Y14834588D01*
X41752249Y14816471D01*
X41683782Y14835254D01*
X41679998Y14837686D01*
X41678231Y14838867D01*
X41619748Y14850500D01*
X40980252Y14850500D01*
X40921769Y14838867D01*
X40855448Y14794552D01*
X40815277Y14734433D01*
X40811133Y14728231D01*
X40811132Y14728228D01*
X40799500Y14669750D01*
X40000500Y14669750D01*
X39988867Y14728231D01*
X39944552Y14794552D01*
X39878231Y14838867D01*
X39819748Y14850500D01*
X39180252Y14850500D01*
X39121769Y14838867D01*
X39055448Y14794552D01*
X39015277Y14734433D01*
X39011133Y14728231D01*
X39011132Y14728228D01*
X38999500Y14669750D01*
X38200500Y14669750D01*
X38188867Y14728231D01*
X38144552Y14794552D01*
X38078231Y14838867D01*
X38019748Y14850500D01*
X37380252Y14850500D01*
X37321769Y14838867D01*
X37255448Y14794552D01*
X37215277Y14734433D01*
X37211133Y14728231D01*
X37211132Y14728228D01*
X37199500Y14669750D01*
X37199500Y14030249D01*
X37211132Y13971771D01*
X37211135Y13971764D01*
X37212317Y13969996D01*
X37213706Y13965558D01*
X37215882Y13960306D01*
X37215411Y13960111D01*
X37233528Y13902242D01*
X37214741Y13833776D01*
X37212317Y13830004D01*
X37211135Y13828235D01*
X37211132Y13828228D01*
X37199500Y13769750D01*
X37199500Y13130249D01*
X37211132Y13071771D01*
X37211135Y13071764D01*
X37212317Y13069996D01*
X37213706Y13065558D01*
X37215882Y13060306D01*
X37215411Y13060111D01*
X37233528Y13002242D01*
X37214741Y12933776D01*
X37212317Y12930004D01*
X37211135Y12928235D01*
X37211132Y12928228D01*
X37199500Y12869750D01*
X37199500Y12230249D01*
X37211132Y12171771D01*
X37211135Y12171764D01*
X37212317Y12169996D01*
X37213706Y12165558D01*
X37215882Y12160306D01*
X37215411Y12160111D01*
X37233528Y12102242D01*
X37214741Y12033776D01*
X37212317Y12030004D01*
X37211135Y12028235D01*
X37211132Y12028228D01*
X37199500Y11969750D01*
X37199500Y11330249D01*
X37211132Y11271771D01*
X37211135Y11271764D01*
X37212317Y11269996D01*
X37213706Y11265558D01*
X37215882Y11260306D01*
X37215411Y11260111D01*
X37233528Y11202242D01*
X37214741Y11133776D01*
X37212317Y11130004D01*
X37211135Y11128235D01*
X37211132Y11128228D01*
X37199500Y11069750D01*
X37199500Y10430249D01*
X37211132Y10371771D01*
X37211135Y10371764D01*
X37212317Y10369996D01*
X37213706Y10365558D01*
X37215882Y10360306D01*
X37215411Y10360111D01*
X37233528Y10302242D01*
X37214741Y10233776D01*
X37212317Y10230004D01*
X37211135Y10228235D01*
X37211132Y10228228D01*
X37199500Y10169750D01*
X37199500Y9552404D01*
X37179498Y9484283D01*
X37125842Y9437790D01*
X37055568Y9427686D01*
X36996796Y9452442D01*
X36994731Y9454025D01*
X36902841Y9524536D01*
X36756762Y9585044D01*
X36600000Y9605682D01*
X36443238Y9585044D01*
X36297159Y9524536D01*
X36171718Y9428282D01*
X36094944Y9328228D01*
X36075465Y9302842D01*
X36075463Y9302839D01*
X36014955Y9156760D01*
X35994318Y9000000D01*
X35994318Y8999999D01*
X36014955Y8843239D01*
X36075463Y8697160D01*
X36075465Y8697157D01*
X36171718Y8571718D01*
X36297157Y8475465D01*
X36297160Y8475463D01*
X36443239Y8414955D01*
X36600000Y8394318D01*
X36756760Y8414955D01*
X36902839Y8475463D01*
X36902842Y8475465D01*
X36921405Y8489709D01*
X36924888Y8492381D01*
X36991107Y8517981D01*
X37060656Y8503716D01*
X37111452Y8454115D01*
X37127368Y8384925D01*
X37106357Y8322417D01*
X37079224Y8281809D01*
X37026421Y8154331D01*
X37026420Y8154328D01*
X36999500Y8018995D01*
X36999500Y7976500D01*
X36979498Y7908379D01*
X36925842Y7861886D01*
X36873500Y7850500D01*
X35115795Y7850500D01*
X35047674Y7870502D01*
X35026700Y7887405D01*
X35019555Y7894549D01*
X35019553Y7894550D01*
X35019552Y7894552D01*
X34953231Y7938867D01*
X34894748Y7950500D01*
X33905252Y7950500D01*
X33846769Y7938867D01*
X33780448Y7894552D01*
X33761362Y7865988D01*
X33736133Y7828231D01*
X33736132Y7828228D01*
X33724500Y7769750D01*
X33724500Y7357086D01*
X33722079Y7332504D01*
X33699500Y7218996D01*
X31841331Y7218996D01*
X31599862Y7460465D01*
X31525639Y7503318D01*
X31442853Y7525500D01*
X31442851Y7525500D01*
X29769286Y7525500D01*
X29701165Y7545502D01*
X29669324Y7574796D01*
X29631276Y7624380D01*
X29628282Y7628282D01*
X29502841Y7724536D01*
X29356762Y7785044D01*
X29200000Y7805682D01*
X29043238Y7785044D01*
X28897159Y7724536D01*
X28771718Y7628282D01*
X28694944Y7528228D01*
X28675465Y7502842D01*
X28675463Y7502839D01*
X28614955Y7356760D01*
X28594318Y7200000D01*
X28594318Y7199999D01*
X28614955Y7043239D01*
X28675463Y6897160D01*
X28675465Y6897157D01*
X28771718Y6771718D01*
X28897157Y6675465D01*
X28897160Y6675463D01*
X28982731Y6640018D01*
X29043238Y6614956D01*
X29052878Y6613686D01*
X29073657Y6610951D01*
X29138584Y6582227D01*
X29177675Y6522962D01*
X29178518Y6451970D01*
X29157172Y6409325D01*
X29131480Y6375842D01*
X29075465Y6302842D01*
X29075463Y6302839D01*
X29014955Y6156760D01*
X28994318Y6000000D01*
X28994318Y5999999D01*
X29014955Y5843239D01*
X29075463Y5697160D01*
X29075465Y5697157D01*
X29171718Y5571718D01*
X29297157Y5475465D01*
X29297160Y5475463D01*
X29443239Y5414955D01*
X29600000Y5394318D01*
X29608259Y5394318D01*
X29608259Y5390801D01*
X29662541Y5382172D01*
X29715499Y5334886D01*
X29734500Y5268349D01*
X29734500Y4706499D01*
X29714498Y4638378D01*
X29660842Y4591885D01*
X29608500Y4580499D01*
X29284517Y4580499D01*
X29216396Y4600501D01*
X29195422Y4617404D01*
X28162405Y5650421D01*
X28128379Y5712733D01*
X28125500Y5739516D01*
X28125500Y7830714D01*
X28145502Y7898835D01*
X28174796Y7930676D01*
X28228279Y7971715D01*
X28228280Y7971716D01*
X28228282Y7971718D01*
X28324536Y8097159D01*
X28385044Y8243238D01*
X28398289Y8343847D01*
X28405682Y8399999D01*
X28405682Y8400000D01*
X28395467Y8477592D01*
X28385044Y8556762D01*
X28324536Y8702841D01*
X28228282Y8828282D01*
X28102841Y8924536D01*
X27956762Y8985044D01*
X27800000Y9005682D01*
X27643238Y8985044D01*
X27497159Y8924536D01*
X27371718Y8828282D01*
X27275802Y8703281D01*
X27275465Y8702842D01*
X27275463Y8702839D01*
X27214955Y8556760D01*
X27194318Y8400000D01*
X23450500Y8400000D01*
X23450500Y8763500D01*
X23470502Y8831621D01*
X23524158Y8878114D01*
X23576500Y8889500D01*
X24344750Y8889500D01*
X24403228Y8901132D01*
X24403231Y8901133D01*
X24406498Y8903316D01*
X24469552Y8945448D01*
X24513867Y9011769D01*
X24525500Y9070252D01*
X24525500Y10109748D01*
X24513867Y10168231D01*
X24469552Y10234552D01*
X24403231Y10278867D01*
X24344748Y10290500D01*
X24344747Y10290500D01*
X23576500Y10290500D01*
X23508379Y10310502D01*
X23461886Y10364158D01*
X23450500Y10416500D01*
X23450500Y11303500D01*
X23470502Y11371621D01*
X23524158Y11418114D01*
X23576500Y11429500D01*
X24344750Y11429500D01*
X24403228Y11441132D01*
X24403231Y11441133D01*
X24469553Y11485449D01*
X24492305Y11519500D01*
X24513867Y11551769D01*
X24525500Y11610252D01*
X24525500Y12649748D01*
X24513867Y12708231D01*
X24469552Y12774552D01*
X24403231Y12818867D01*
X24344748Y12830500D01*
X21155252Y12830500D01*
X21096769Y12818867D01*
X21030448Y12774552D01*
X21007191Y12739746D01*
X20986133Y12708231D01*
X20986132Y12708228D01*
X20974500Y12649750D01*
X20974500Y11610249D01*
X20986132Y11551771D01*
X20986133Y11551768D01*
X21030447Y11485449D01*
X21096768Y11441133D01*
X21096771Y11441132D01*
X21155249Y11429500D01*
X21155252Y11429500D01*
X21923500Y11429500D01*
X21991621Y11409498D01*
X22038114Y11355842D01*
X22049500Y11303500D01*
X22049500Y10416500D01*
X22029498Y10348379D01*
X21975842Y10301886D01*
X21923500Y10290500D01*
X21155252Y10290500D01*
X21096769Y10278867D01*
X21030448Y10234552D01*
X21007191Y10199746D01*
X20986133Y10168231D01*
X20986132Y10168228D01*
X20974500Y10109750D01*
X20974500Y9070249D01*
X20986132Y9011771D01*
X20986133Y9011768D01*
X21030448Y8945448D01*
X21096768Y8901133D01*
X21096771Y8901132D01*
X21155249Y8889500D01*
X21155252Y8889500D01*
X21923500Y8889500D01*
X21991621Y8869498D01*
X22038114Y8815842D01*
X22049500Y8763500D01*
X22049500Y7876500D01*
X22029498Y7808379D01*
X21975842Y7761886D01*
X21923500Y7750500D01*
X21155252Y7750500D01*
X21096769Y7738867D01*
X21030448Y7694552D01*
X21007191Y7659746D01*
X20986133Y7628231D01*
X20986132Y7628228D01*
X20974500Y7569750D01*
X20974500Y6530249D01*
X20986132Y6471771D01*
X20986133Y6471768D01*
X21030448Y6405448D01*
X21096768Y6361133D01*
X21096771Y6361132D01*
X21155249Y6349500D01*
X21155252Y6349500D01*
X21923500Y6349500D01*
X21991621Y6329498D01*
X22038114Y6275842D01*
X22049500Y6223500D01*
X22049500Y5336500D01*
X22029498Y5268379D01*
X21975842Y5221886D01*
X21923500Y5210500D01*
X21155252Y5210500D01*
X21096769Y5198867D01*
X21065886Y5178231D01*
X21032326Y5155807D01*
X20964573Y5134592D01*
X20896106Y5153375D01*
X20862361Y5183869D01*
X20828282Y5228282D01*
X20702841Y5324536D01*
X20556762Y5385044D01*
X20400000Y5405682D01*
X20243238Y5385044D01*
X20097159Y5324536D01*
X19971718Y5228282D01*
X19888439Y5119750D01*
X19875465Y5102842D01*
X19875463Y5102839D01*
X19814955Y4956760D01*
X19794318Y4800000D01*
X19794318Y4799999D01*
X19814955Y4643239D01*
X19875463Y4497160D01*
X19875465Y4497157D01*
X19971718Y4371718D01*
X20097157Y4275465D01*
X20097160Y4275463D01*
X20243239Y4214955D01*
X20400000Y4194318D01*
X20556760Y4214955D01*
X20702839Y4275463D01*
X20702841Y4275464D01*
X20731116Y4297160D01*
X20771797Y4328375D01*
X20838017Y4353975D01*
X20907566Y4339710D01*
X20958361Y4290109D01*
X20974500Y4228412D01*
X20974500Y3990249D01*
X20986132Y3931771D01*
X20986133Y3931768D01*
X21030448Y3865448D01*
X21096768Y3821133D01*
X21096771Y3821132D01*
X21155249Y3809500D01*
X21155252Y3809500D01*
X21923500Y3809500D01*
X21991621Y3789498D01*
X22038114Y3735842D01*
X22049500Y3683500D01*
X22049500Y2796500D01*
X22029498Y2728379D01*
X21975842Y2681886D01*
X21923500Y2670500D01*
X21155252Y2670500D01*
X21096769Y2658867D01*
X21030448Y2614552D01*
X21001827Y2571718D01*
X20986133Y2548231D01*
X20986132Y2548228D01*
X20974500Y2489750D01*
X20974500Y1450249D01*
X20986132Y1391771D01*
X20986133Y1391768D01*
X21030450Y1325444D01*
X21039222Y1316673D01*
X21036343Y1313794D01*
X21067275Y1276777D01*
X21076116Y1206333D01*
X21045468Y1142292D01*
X20985063Y1104986D01*
X20951740Y1100500D01*
X15142347Y1100500D01*
X15074226Y1120502D01*
X15053252Y1137405D01*
X13337405Y2853252D01*
X13303379Y2915564D01*
X13300500Y2942347D01*
X13300500Y10100389D01*
X13300499Y10100397D01*
X13299659Y10104618D01*
X13295478Y10125638D01*
X13273580Y10235728D01*
X13220775Y10363211D01*
X13144114Y10477943D01*
X5537405Y18084652D01*
X5503379Y18146964D01*
X5500500Y18173747D01*
X5500500Y19923500D01*
X5520502Y19991621D01*
X5574158Y20038114D01*
X5626500Y20049500D01*
X5669750Y20049500D01*
X5728228Y20061132D01*
X5728231Y20061133D01*
X5733569Y20064700D01*
X5794552Y20105448D01*
X5838867Y20171769D01*
X5850500Y20230252D01*
X5850500Y21969748D01*
X5838867Y22028231D01*
X5798663Y22088398D01*
X5777449Y22156150D01*
X5796232Y22224617D01*
X5849049Y22272061D01*
X5903429Y22284400D01*
X6824352Y22284400D01*
X6892473Y22264398D01*
G37*
%TD.AperFunction*%
%TD*%
M02*
