%TF.GenerationSoftware,KiCad,Pcbnew,8.0.5*%
%TF.CreationDate,2024-09-13T15:02:38+03:00*%
%TF.ProjectId,LEXI-R422,4c455849-2d52-4343-9232-2e6b69636164,rev?*%
%TF.SameCoordinates,Original*%
%TF.FileFunction,Copper,L1,Top*%
%TF.FilePolarity,Positive*%
%FSLAX46Y46*%
G04 Gerber Fmt 4.6, Leading zero omitted, Abs format (unit mm)*
G04 Created by KiCad (PCBNEW 8.0.5) date 2024-09-13 15:02:38*
%MOMM*%
%LPD*%
G01*
G04 APERTURE LIST*
G04 Aperture macros list*
%AMRoundRect*
0 Rectangle with rounded corners*
0 $1 Rounding radius*
0 $2 $3 $4 $5 $6 $7 $8 $9 X,Y pos of 4 corners*
0 Add a 4 corners polygon primitive as box body*
4,1,4,$2,$3,$4,$5,$6,$7,$8,$9,$2,$3,0*
0 Add four circle primitives for the rounded corners*
1,1,$1+$1,$2,$3*
1,1,$1+$1,$4,$5*
1,1,$1+$1,$6,$7*
1,1,$1+$1,$8,$9*
0 Add four rect primitives between the rounded corners*
20,1,$1+$1,$2,$3,$4,$5,0*
20,1,$1+$1,$4,$5,$6,$7,0*
20,1,$1+$1,$6,$7,$8,$9,0*
20,1,$1+$1,$8,$9,$2,$3,0*%
G04 Aperture macros list end*
%TA.AperFunction,SMDPad,CuDef*%
%ADD10RoundRect,0.225000X0.250000X-0.225000X0.250000X0.225000X-0.250000X0.225000X-0.250000X-0.225000X0*%
%TD*%
%TA.AperFunction,SMDPad,CuDef*%
%ADD11RoundRect,0.250001X-0.837499X-1.399999X0.837499X-1.399999X0.837499X1.399999X-0.837499X1.399999X0*%
%TD*%
%TA.AperFunction,SMDPad,CuDef*%
%ADD12RoundRect,0.225000X-0.225000X-0.250000X0.225000X-0.250000X0.225000X0.250000X-0.225000X0.250000X0*%
%TD*%
%TA.AperFunction,SMDPad,CuDef*%
%ADD13R,0.350000X0.800000*%
%TD*%
%TA.AperFunction,SMDPad,CuDef*%
%ADD14RoundRect,0.150000X-0.587500X-0.150000X0.587500X-0.150000X0.587500X0.150000X-0.587500X0.150000X0*%
%TD*%
%TA.AperFunction,SMDPad,CuDef*%
%ADD15R,1.150000X0.650000*%
%TD*%
%TA.AperFunction,SMDPad,CuDef*%
%ADD16R,1.300000X0.450000*%
%TD*%
%TA.AperFunction,SMDPad,CuDef*%
%ADD17R,1.700000X1.400000*%
%TD*%
%TA.AperFunction,SMDPad,CuDef*%
%ADD18R,0.800000X0.540000*%
%TD*%
%TA.AperFunction,SMDPad,CuDef*%
%ADD19R,0.600000X0.200000*%
%TD*%
%TA.AperFunction,SMDPad,CuDef*%
%ADD20R,0.150000X0.250000*%
%TD*%
%TA.AperFunction,SMDPad,CuDef*%
%ADD21R,0.200000X0.600000*%
%TD*%
%TA.AperFunction,SMDPad,CuDef*%
%ADD22C,1.500000*%
%TD*%
%TA.AperFunction,SMDPad,CuDef*%
%ADD23RoundRect,0.200000X-0.200000X-0.275000X0.200000X-0.275000X0.200000X0.275000X-0.200000X0.275000X0*%
%TD*%
%TA.AperFunction,SMDPad,CuDef*%
%ADD24RoundRect,0.062500X-0.187500X-0.062500X0.187500X-0.062500X0.187500X0.062500X-0.187500X0.062500X0*%
%TD*%
%TA.AperFunction,ComponentPad*%
%ADD25C,0.600000*%
%TD*%
%TA.AperFunction,SMDPad,CuDef*%
%ADD26R,0.900000X1.600000*%
%TD*%
%TA.AperFunction,ComponentPad*%
%ADD27R,2.400000X2.400000*%
%TD*%
%TA.AperFunction,ComponentPad*%
%ADD28C,2.400000*%
%TD*%
%TA.AperFunction,SMDPad,CuDef*%
%ADD29C,1.000000*%
%TD*%
%TA.AperFunction,SMDPad,CuDef*%
%ADD30RoundRect,0.200000X0.200000X0.275000X-0.200000X0.275000X-0.200000X-0.275000X0.200000X-0.275000X0*%
%TD*%
%TA.AperFunction,ComponentPad*%
%ADD31R,1.700000X1.700000*%
%TD*%
%TA.AperFunction,ComponentPad*%
%ADD32O,1.700000X1.700000*%
%TD*%
%TA.AperFunction,SMDPad,CuDef*%
%ADD33RoundRect,0.225000X-0.250000X0.225000X-0.250000X-0.225000X0.250000X-0.225000X0.250000X0.225000X0*%
%TD*%
%TA.AperFunction,SMDPad,CuDef*%
%ADD34C,0.500000*%
%TD*%
%TA.AperFunction,SMDPad,CuDef*%
%ADD35RoundRect,0.243750X-0.243750X-0.456250X0.243750X-0.456250X0.243750X0.456250X-0.243750X0.456250X0*%
%TD*%
%TA.AperFunction,SMDPad,CuDef*%
%ADD36RoundRect,0.150000X0.587500X0.150000X-0.587500X0.150000X-0.587500X-0.150000X0.587500X-0.150000X0*%
%TD*%
%TA.AperFunction,ViaPad*%
%ADD37C,0.400000*%
%TD*%
%TA.AperFunction,ViaPad*%
%ADD38C,0.800000*%
%TD*%
%TA.AperFunction,Conductor*%
%ADD39C,0.250000*%
%TD*%
%TA.AperFunction,Conductor*%
%ADD40C,0.200000*%
%TD*%
%TA.AperFunction,Conductor*%
%ADD41C,1.000000*%
%TD*%
G04 APERTURE END LIST*
D10*
%TO.P,C1,1*%
%TO.N,/uRST*%
X48400000Y5625000D03*
%TO.P,C1,2*%
%TO.N,GND*%
X48400000Y7175000D03*
%TD*%
%TO.P,C2,1*%
%TO.N,/uCLK*%
X46800000Y5625000D03*
%TO.P,C2,2*%
%TO.N,GND*%
X46800000Y7175000D03*
%TD*%
%TO.P,C3,1*%
%TO.N,/uData*%
X45200000Y5625000D03*
%TO.P,C3,2*%
%TO.N,GND*%
X45200000Y7175000D03*
%TD*%
%TO.P,C4,1*%
%TO.N,GND*%
X54200000Y5425000D03*
%TO.P,C4,2*%
%TO.N,/uVDD*%
X54200000Y6975000D03*
%TD*%
D11*
%TO.P,C6,1*%
%TO.N,/VBAT*%
X37412500Y400000D03*
%TO.P,C6,2*%
%TO.N,GND*%
X43787500Y400000D03*
%TD*%
D10*
%TO.P,C7,1*%
%TO.N,/VBAT*%
X37500000Y5950000D03*
%TO.P,C7,2*%
%TO.N,GND*%
X37500000Y7500000D03*
%TD*%
D12*
%TO.P,C8,1*%
%TO.N,/VBAT*%
X31250000Y8174800D03*
%TO.P,C8,2*%
%TO.N,GND*%
X32800000Y8174800D03*
%TD*%
%TO.P,C9,1*%
%TO.N,/VBAT*%
X39725000Y5500000D03*
%TO.P,C9,2*%
%TO.N,GND*%
X41275000Y5500000D03*
%TD*%
%TO.P,C10,1*%
%TO.N,/VBAT*%
X31250000Y6600000D03*
%TO.P,C10,2*%
%TO.N,GND*%
X32800000Y6600000D03*
%TD*%
%TO.P,C11,1*%
%TO.N,/VBAT*%
X39725000Y7500000D03*
%TO.P,C11,2*%
%TO.N,GND*%
X41275000Y7500000D03*
%TD*%
D10*
%TO.P,C12,1*%
%TO.N,/VBAT*%
X35500000Y5950000D03*
%TO.P,C12,2*%
%TO.N,GND*%
X35500000Y7500000D03*
%TD*%
D13*
%TO.P,D1,1*%
%TO.N,unconnected-(D1-Pad1)*%
X46750000Y-350000D03*
%TO.P,D1,2*%
%TO.N,GND*%
X47400000Y-350000D03*
%TO.P,D1,3*%
%TO.N,unconnected-(D1-Pad3)*%
X48050000Y-350000D03*
%TO.P,D1,4*%
%TO.N,/uRST*%
X48050000Y1550000D03*
%TO.P,D1,5*%
%TO.N,/uCLK*%
X47400000Y1550000D03*
%TO.P,D1,6*%
%TO.N,/uData*%
X46750000Y1550000D03*
%TD*%
D14*
%TO.P,Q8,1,B*%
%TO.N,/Network*%
X62725000Y20550000D03*
%TO.P,Q8,2,E*%
%TO.N,GND*%
X62725000Y18650000D03*
%TO.P,Q8,3,C*%
%TO.N,Net-(Q8-C)*%
X64600000Y19600000D03*
%TD*%
D15*
%TO.P,J11,C1,VCC*%
%TO.N,/uVDD*%
X55295000Y12745000D03*
%TO.P,J11,C2,RST*%
%TO.N,/uRST*%
X55295000Y15285000D03*
%TO.P,J11,C3,CLK*%
%TO.N,/uCLK*%
X55295000Y17825000D03*
%TO.P,J11,C5,GND*%
%TO.N,GND*%
X55295000Y11475000D03*
%TO.P,J11,C6,VPP*%
%TO.N,unconnected-(J11-VPP-PadC6)*%
X55295000Y14015000D03*
%TO.P,J11,C7,I/O*%
%TO.N,/uData*%
X55295000Y16555000D03*
D16*
%TO.P,J11,G1,GND*%
%TO.N,GND*%
X53125000Y9230000D03*
%TO.P,J11,G2,GND*%
X51125000Y9230000D03*
%TO.P,J11,G3,GND*%
X53125000Y21770000D03*
%TO.P,J11,G4,GND*%
X51125000Y21770000D03*
D17*
%TO.P,J11,G5,GND*%
X41565000Y21605000D03*
%TO.P,J11,G6,GND*%
X41565000Y9395000D03*
D18*
%TO.P,J11,X1*%
%TO.N,N/C*%
X42145000Y12960000D03*
%TO.P,J11,X2*%
X42145000Y18040000D03*
%TD*%
D19*
%TO.P,U2,1,VCCA*%
%TO.N,/VDD_EXT*%
X60425000Y13425000D03*
D20*
X60650000Y13600000D03*
D19*
%TO.P,U2,2,A1*%
%TO.N,/DTR*%
X60425000Y13025000D03*
%TO.P,U2,3,A2*%
%TO.N,/DCD*%
X60425000Y12625000D03*
%TO.P,U2,4,A3*%
%TO.N,/RXD*%
X60425000Y12225000D03*
%TO.P,U2,5,A4*%
%TO.N,/TXD*%
X60425000Y11825000D03*
D21*
%TO.P,U2,6,GND*%
%TO.N,GND*%
X61075000Y11825000D03*
D19*
%TO.P,U2,7,B4*%
%TO.N,/RxD*%
X61725000Y11825000D03*
%TO.P,U2,8,B3*%
%TO.N,/TxD*%
X61725000Y12225000D03*
%TO.P,U2,9,B2*%
%TO.N,/uDCD*%
X61725000Y12625000D03*
%TO.P,U2,10,B1*%
%TO.N,/uDTR*%
X61725000Y13025000D03*
%TO.P,U2,11,VCCB*%
%TO.N,/+3V3_UC*%
X61725000Y13425000D03*
D21*
%TO.P,U2,12,OE*%
%TO.N,Net-(U2-OE)*%
X61075000Y13425000D03*
%TD*%
D22*
%TO.P,TP4,1,1*%
%TO.N,/PWRKEY*%
X56800000Y3800000D03*
%TD*%
D23*
%TO.P,R3,1*%
%TO.N,/VDD_EXT*%
X60300000Y15725000D03*
%TO.P,R3,2*%
%TO.N,Net-(U2-OE)*%
X61950000Y15725000D03*
%TD*%
D24*
%TO.P,U1,1,VIN*%
%TO.N,/+3V6d*%
X25500000Y6900000D03*
%TO.P,U1,2,VIN*%
X25500000Y6400000D03*
%TO.P,U1,3,ON*%
%TO.N,/Alim*%
X25500000Y5900000D03*
%TO.P,U1,4,VBIAS*%
%TO.N,/+3V6d*%
X25500000Y5400000D03*
%TO.P,U1,5,GND*%
%TO.N,GND*%
X27400000Y5400000D03*
%TO.P,U1,6,CT*%
%TO.N,unconnected-(U1-CT-Pad6)*%
X27400000Y5900000D03*
%TO.P,U1,7,VOUT*%
%TO.N,/VBAT*%
X27400000Y6400000D03*
%TO.P,U1,8,VOUT*%
X27400000Y6900000D03*
D25*
%TO.P,U1,9,PAD*%
%TO.N,GND*%
X26450000Y6650000D03*
D26*
X26450000Y6150000D03*
D25*
X26450000Y5650000D03*
%TD*%
D27*
%TO.P,BT1,1,+*%
%TO.N,/+3V6d*%
X11750000Y19500000D03*
D28*
%TO.P,BT1,2,-*%
%TO.N,GND*%
X11750000Y-1500000D03*
%TO.P,BT1,3,-*%
X15500000Y-1500000D03*
%TO.P,BT1,4,-*%
X8000000Y-1500000D03*
%TD*%
D29*
%TO.P,FID1,*%
%TO.N,*%
X73400000Y19400000D03*
%TD*%
D30*
%TO.P,R2,1*%
%TO.N,Net-(D2-K)*%
X68025000Y18400000D03*
%TO.P,R2,2*%
%TO.N,Net-(Q8-C)*%
X66375000Y18400000D03*
%TD*%
D31*
%TO.P,J1,1,Pin_1*%
%TO.N,/+3V6*%
X4800000Y21100000D03*
D32*
%TO.P,J1,2,Pin_2*%
%TO.N,/+3V6d*%
X7340000Y21100000D03*
%TD*%
D29*
%TO.P,FID4,*%
%TO.N,*%
X6223000Y2794000D03*
%TD*%
D33*
%TO.P,C15,1*%
%TO.N,/uVDD*%
X43000000Y7400000D03*
%TO.P,C15,2*%
%TO.N,GND*%
X43000000Y5850000D03*
%TD*%
D34*
%TO.P,TP1,1,1*%
%TO.N,unconnected-(TP1-Pad1)*%
X71689600Y5511800D03*
%TD*%
D35*
%TO.P,D2,1,K*%
%TO.N,Net-(D2-K)*%
X66662500Y20800000D03*
%TO.P,D2,2,A*%
%TO.N,/VBAT*%
X68537500Y20800000D03*
%TD*%
D36*
%TO.P,Q3,1,B*%
%TO.N,/uPWRKEY*%
X54137500Y250000D03*
%TO.P,Q3,2,E*%
%TO.N,GND*%
X54137500Y2150000D03*
%TO.P,Q3,3,C*%
%TO.N,/PWRKEY*%
X52262500Y1200000D03*
%TD*%
D37*
%TO.N,GND*%
X22833000Y15636343D03*
X72333000Y9636343D03*
X13833000Y17136343D03*
X70833000Y-863657D03*
X15333000Y20136343D03*
X21333000Y15636343D03*
X10833000Y5136343D03*
X72333000Y6636343D03*
X72333000Y3636343D03*
X22833000Y17136343D03*
X35400000Y15200000D03*
X24333000Y18636343D03*
X25833000Y21636343D03*
X32400000Y15000000D03*
X15333000Y5136343D03*
X34833000Y12636343D03*
X36333000Y11136343D03*
X57333000Y-2363657D03*
X55833000Y-2363657D03*
X18333000Y-2363657D03*
X73833000Y-863657D03*
X15333000Y9636343D03*
X10833000Y636343D03*
X27333000Y21636343D03*
X15333000Y8136343D03*
X36333000Y18636343D03*
X25833000Y9636343D03*
X13833000Y21636343D03*
X29000000Y17400000D03*
X73833000Y6636343D03*
X21333000Y-2363657D03*
X73833000Y5136343D03*
X18333000Y-863657D03*
X13833000Y20136343D03*
X4833000Y12636343D03*
X69333000Y636343D03*
X73833000Y3636343D03*
X4833000Y636343D03*
X25833000Y17136343D03*
X36333000Y21636343D03*
X60333000Y-2363657D03*
X34833000Y11136343D03*
X36333000Y20136343D03*
X27333000Y11136343D03*
X4833000Y2136343D03*
X7833000Y636343D03*
X58833000Y-2363657D03*
X70833000Y2136343D03*
X25833000Y18636343D03*
X15333000Y11136343D03*
X9333000Y17136343D03*
X30333000Y12636343D03*
X4833000Y-863657D03*
X73833000Y2136343D03*
X28800000Y18000000D03*
X31800000Y15000000D03*
X49833000Y2136343D03*
X37833000Y21636343D03*
X15333000Y12636343D03*
X27333000Y14136343D03*
X63333000Y-2363657D03*
X72333000Y11136343D03*
D38*
X18135600Y16179800D03*
D37*
X45333000Y-2363657D03*
X12333000Y21636343D03*
X9333000Y636343D03*
X13833000Y14136343D03*
X49833000Y-2363657D03*
X15333000Y18636343D03*
X32400000Y17200000D03*
X30333000Y636343D03*
X4833000Y3636343D03*
X24333000Y20136343D03*
X73833000Y11136343D03*
X73833000Y9636343D03*
X30600000Y17000000D03*
X24333000Y636343D03*
X48333000Y-2363657D03*
X51333000Y18636343D03*
X33333000Y12636343D03*
X39333000Y20136343D03*
X13833000Y18636343D03*
X7833000Y18636343D03*
X24333000Y-2363657D03*
X25833000Y20136343D03*
X33000000Y15000000D03*
X31833000Y12636343D03*
X21333000Y14136343D03*
X40833000Y-2363657D03*
X43833000Y-2363657D03*
X72333000Y636343D03*
X61833000Y-2363657D03*
X33333000Y18636343D03*
X33333000Y11136343D03*
X58833000Y2136343D03*
X45333000Y21636343D03*
X24333000Y21636343D03*
X28833000Y12636343D03*
X15333000Y14136343D03*
X37833000Y20136343D03*
X24333000Y14136343D03*
X55833000Y6636343D03*
X39333000Y21636343D03*
X72333000Y14136343D03*
X30333000Y-863657D03*
X46833000Y-2363657D03*
X9333000Y18636343D03*
X72333000Y2136343D03*
X58833000Y3636343D03*
X33333000Y-2363657D03*
X46833000Y21636343D03*
X69333000Y-2363657D03*
X13833000Y9636343D03*
X73833000Y12636343D03*
X13833000Y11136343D03*
X25833000Y12636343D03*
X27333000Y15636343D03*
X7833000Y2136343D03*
X36000000Y15200000D03*
D38*
X22707600Y21285200D03*
D37*
X15333000Y3636343D03*
X24333000Y17136343D03*
X31833000Y21636343D03*
X31200000Y15000000D03*
X55833000Y2136343D03*
X4833000Y5136343D03*
X51333000Y17136343D03*
X19833000Y14136343D03*
X67833000Y-2363657D03*
X4833000Y-2363657D03*
X39333000Y2136343D03*
X22833000Y-863657D03*
X16833000Y14136343D03*
X51333000Y15636343D03*
X7833000Y3636343D03*
X24333000Y-863657D03*
X52833000Y-2363657D03*
X72333000Y8136343D03*
X72333000Y-2363657D03*
X28800000Y15600000D03*
X18333000Y14136343D03*
X64833000Y-2363657D03*
X48333000Y20136343D03*
X25833000Y14136343D03*
X22833000Y14136343D03*
X31800000Y17200000D03*
X39333000Y-2363657D03*
X33333000Y21636343D03*
X4833000Y11136343D03*
X69333000Y-863657D03*
X42333000Y-2363657D03*
X33333000Y9636343D03*
X13833000Y12636343D03*
X31200000Y17200000D03*
X15333000Y21636343D03*
X25833000Y11136343D03*
X19833000Y-863657D03*
X48333000Y21636343D03*
X21333000Y-863657D03*
X34833000Y20136343D03*
X54333000Y-2363657D03*
X58833000Y5136343D03*
X13833000Y15636343D03*
X36333000Y12636343D03*
X37833000Y-2363657D03*
X70833000Y-2363657D03*
X6333000Y636343D03*
X19833000Y15636343D03*
X31833000Y-2363657D03*
X28800000Y16800000D03*
X27333000Y12636343D03*
X67833000Y636343D03*
X34800000Y17200000D03*
X30800000Y18200000D03*
X64833000Y-863657D03*
X34833000Y18636343D03*
X19833000Y-2363657D03*
X36600000Y17000000D03*
X36000000Y17000000D03*
X57333000Y2136343D03*
X10833000Y3636343D03*
X30333000Y-2363657D03*
X22833000Y-2363657D03*
X13833000Y5136343D03*
X73833000Y8136343D03*
X33000000Y17200000D03*
X27333000Y17136343D03*
X22833000Y18636343D03*
X4833000Y14136343D03*
X33600000Y15000000D03*
X70833000Y636343D03*
X9333000Y2136343D03*
X66333000Y-2363657D03*
X35400000Y17000000D03*
X25833000Y15636343D03*
X73833000Y-2363657D03*
X72333000Y12636343D03*
X9333000Y3636343D03*
X30800000Y17600000D03*
X40833000Y2136343D03*
X33333000Y20136343D03*
X34833000Y21636343D03*
X33600000Y17200000D03*
X72333000Y-863657D03*
X34200000Y17200000D03*
X73833000Y636343D03*
X28800000Y16200000D03*
X64833000Y21636343D03*
X36600000Y15200000D03*
X24333000Y15636343D03*
X10833000Y2136343D03*
X42333000Y3636343D03*
X73833000Y14136343D03*
X34833000Y9636343D03*
X15333000Y15636343D03*
X51333000Y-2363657D03*
D38*
%TO.N,/uRST*%
X56675000Y15000000D03*
X48000000Y4200000D03*
%TO.N,/uCLK*%
X46600000Y4000000D03*
X56920000Y17280000D03*
%TO.N,/uData*%
X45200000Y4000000D03*
X55800000Y19000000D03*
%TO.N,/uVDD*%
X44000000Y4600000D03*
%TO.N,/VBAT*%
X29200000Y7200000D03*
X36200000Y4400000D03*
X69400000Y16000000D03*
X39800000Y4200000D03*
X35400000Y800000D03*
X37600000Y4600000D03*
X35600000Y-1600000D03*
X36800000Y3000000D03*
X29600000Y6000000D03*
X27800000Y8400000D03*
%TO.N,/uPWRKEY*%
X69000000Y11200000D03*
%TO.N,/uDTR*%
X63275000Y16125000D03*
%TO.N,/TxD*%
X69275000Y9600000D03*
%TO.N,/RxD*%
X69000000Y7200000D03*
%TO.N,/uDCD*%
X64625000Y16025000D03*
%TO.N,/RXD*%
X59148889Y11524985D03*
X41300000Y19100000D03*
%TO.N,/TXD*%
X60000000Y11000000D03*
X42800000Y19000000D03*
%TO.N,/VDD_EXT*%
X64002158Y7796763D03*
X36600000Y9000000D03*
X59000000Y15800000D03*
%TO.N,/DTR*%
X46000000Y19400000D03*
X59400000Y13400000D03*
%TO.N,/DCD*%
X58952785Y12505571D03*
X44800000Y19400000D03*
%TO.N,/PWRKEY*%
X50800000Y5200000D03*
%TO.N,/Alim*%
X32800000Y0D03*
X26400000Y3400000D03*
%TO.N,/+3V6d*%
X25000000Y4800000D03*
X20400000Y4800000D03*
%TO.N,/+3V3_UC*%
X68500000Y3275000D03*
X67250000Y13500000D03*
X63525000Y14300000D03*
%TO.N,/Vbus*%
X58800000Y14600000D03*
X52675000Y14100000D03*
%TO.N,/U5V*%
X58600000Y7800000D03*
X51800000Y8275000D03*
%TO.N,/P99*%
X47400000Y15200000D03*
X57800000Y10000000D03*
%TO.N,/Network*%
X54200000Y21000000D03*
%TD*%
D39*
%TO.N,/uRST*%
X48050000Y3050000D02*
X48000000Y3100000D01*
X48000000Y5225000D02*
X48400000Y5625000D01*
X48050000Y1550000D02*
X48050000Y3050000D01*
X56600000Y15000000D02*
X56315000Y15285000D01*
X48000000Y3100000D02*
X48000000Y4200000D01*
X56315000Y15285000D02*
X55295000Y15285000D01*
X48000000Y4200000D02*
X48000000Y5225000D01*
X56675000Y15000000D02*
X56600000Y15000000D01*
%TO.N,/uCLK*%
X47400000Y3200000D02*
X46600000Y4000000D01*
X56920000Y17280000D02*
X56375000Y17825000D01*
X46600000Y4000000D02*
X46600000Y5425000D01*
X46600000Y5425000D02*
X46800000Y5625000D01*
X47400000Y1550000D02*
X47400000Y3200000D01*
X56375000Y17825000D02*
X55295000Y17825000D01*
%TO.N,/uData*%
X45800000Y2000000D02*
X46250000Y1550000D01*
X55015000Y16555000D02*
X55295000Y16555000D01*
X45800000Y3400000D02*
X45800000Y2000000D01*
X54395000Y17175000D02*
X55015000Y16555000D01*
X46250000Y1550000D02*
X46750000Y1550000D01*
X45200000Y4000000D02*
X45200000Y5625000D01*
X45200000Y4000000D02*
X45800000Y3400000D01*
X54920000Y19000000D02*
X54395000Y18475000D01*
X54395000Y18475000D02*
X54395000Y17175000D01*
X55800000Y19000000D02*
X54920000Y19000000D01*
%TO.N,/uVDD*%
X43000000Y7425000D02*
X43975000Y7425000D01*
X44600000Y10000000D02*
X53400000Y10000000D01*
X54600000Y12745000D02*
X55295000Y12745000D01*
X54200000Y11000000D02*
X54200000Y12345000D01*
X44000000Y4600000D02*
X44000000Y7400000D01*
X53400000Y10000000D02*
X54200000Y10800000D01*
X44000000Y7400000D02*
X44000000Y9400000D01*
X54200000Y12345000D02*
X54600000Y12745000D01*
X54200000Y10800000D02*
X54200000Y11000000D01*
X43975000Y7425000D02*
X44000000Y7400000D01*
X54200000Y6975000D02*
X54200000Y11000000D01*
X44000000Y9400000D02*
X44600000Y10000000D01*
%TO.N,/VBAT*%
X30650000Y6000000D02*
X31250000Y6600000D01*
X37412500Y400000D02*
X35600000Y-1412500D01*
X28900000Y6900000D02*
X29200000Y7200000D01*
X39725000Y5500000D02*
X39725000Y4275000D01*
X35600000Y-1412500D02*
X35600000Y-1600000D01*
X30174800Y8174800D02*
X31250000Y8174800D01*
X69400000Y19937500D02*
X69400000Y16000000D01*
X68537500Y20800000D02*
X69400000Y19937500D01*
X27400000Y8000000D02*
X27800000Y8400000D01*
X37500000Y4700000D02*
X37600000Y4600000D01*
X27400000Y6900000D02*
X27400000Y8000000D01*
X39725000Y4275000D02*
X39800000Y4200000D01*
X29200000Y7200000D02*
X30174800Y8174800D01*
X36200000Y4400000D02*
X35500000Y5100000D01*
X35800000Y400000D02*
X35400000Y800000D01*
X37412500Y2387500D02*
X36800000Y3000000D01*
X35500000Y5100000D02*
X35500000Y5950000D01*
X27400000Y6400000D02*
X28000000Y6400000D01*
X27400000Y6900000D02*
X28900000Y6900000D01*
X37500000Y5950000D02*
X37500000Y4700000D01*
X29600000Y6000000D02*
X30650000Y6000000D01*
X39725000Y7500000D02*
X39725000Y5500000D01*
X29400000Y6000000D02*
X29600000Y6000000D01*
X37412500Y400000D02*
X35800000Y400000D01*
X28000000Y6400000D02*
X28400000Y6000000D01*
X28400000Y6000000D02*
X29400000Y6000000D01*
X37412500Y400000D02*
X37412500Y2387500D01*
%TO.N,/uPWRKEY*%
X66600000Y3400000D02*
X66600000Y1200000D01*
X70000000Y5800000D02*
X68400000Y4200000D01*
X65650000Y250000D02*
X54137500Y250000D01*
X70000000Y10200000D02*
X70000000Y5800000D01*
X66600000Y1200000D02*
X65650000Y250000D01*
X68400000Y4200000D02*
X67400000Y4200000D01*
X69000000Y11200000D02*
X70000000Y10200000D01*
X67400000Y4200000D02*
X66600000Y3400000D01*
D40*
%TO.N,/uDTR*%
X64100000Y13425000D02*
X63475000Y13425000D01*
X64350000Y14875000D02*
X64350000Y13675000D01*
X63475000Y13425000D02*
X63075000Y13025000D01*
X64350000Y13675000D02*
X64100000Y13425000D01*
X63275000Y15950000D02*
X64350000Y14875000D01*
X63075000Y13025000D02*
X61725000Y13025000D01*
X63275000Y15950000D02*
X63275000Y16125000D01*
%TO.N,/TxD*%
X63600000Y12225000D02*
X61725000Y12225000D01*
X66225000Y9600000D02*
X63600000Y12225000D01*
X69275000Y9600000D02*
X66225000Y9600000D01*
%TO.N,/RxD*%
X69000000Y7200000D02*
X66350000Y7200000D01*
X66350000Y7200000D02*
X61725000Y11825000D01*
%TO.N,/uDCD*%
X61725000Y12625000D02*
X64350000Y12625000D01*
X64950000Y15800000D02*
X64725000Y16025000D01*
X64350000Y12625000D02*
X64950000Y13225000D01*
X64725000Y16025000D02*
X64625000Y16025000D01*
X64950000Y13225000D02*
X64950000Y15800000D01*
%TO.N,/RXD*%
X59200000Y11576096D02*
X59148889Y11524985D01*
X59925000Y12225000D02*
X59300000Y11600000D01*
X60425000Y12225000D02*
X59925000Y12225000D01*
X59200000Y11600000D02*
X59200000Y11576096D01*
X59300000Y11600000D02*
X59200000Y11600000D01*
%TO.N,/TXD*%
X60425000Y11425000D02*
X60000000Y11000000D01*
X60425000Y11825000D02*
X60425000Y11425000D01*
%TO.N,/VDD_EXT*%
X60225000Y14625000D02*
X60025000Y14625000D01*
X60300000Y15725000D02*
X60025000Y15450000D01*
D39*
X60225000Y15800000D02*
X60300000Y15725000D01*
X59000000Y15800000D02*
X60225000Y15800000D01*
D40*
X60025000Y15450000D02*
X60025000Y14625000D01*
X60650000Y14200000D02*
X60225000Y14625000D01*
X60650000Y13600000D02*
X60650000Y14200000D01*
%TO.N,/DTR*%
X59775000Y13025000D02*
X59400000Y13400000D01*
X60425000Y13025000D02*
X59775000Y13025000D01*
%TO.N,/DCD*%
X60425000Y12625000D02*
X59025000Y12625000D01*
X59025000Y12625000D02*
X58952785Y12552785D01*
X58952785Y12552785D02*
X58952785Y12505571D01*
D39*
%TO.N,/PWRKEY*%
X51600000Y5200000D02*
X50800000Y5200000D01*
X52262500Y1200000D02*
X52262500Y3800000D01*
X52262500Y3800000D02*
X52262500Y4537500D01*
X56800000Y3800000D02*
X52262500Y3800000D01*
X52262500Y4537500D02*
X51600000Y5200000D01*
%TO.N,/Alim*%
X24500000Y5900000D02*
X23800000Y5200000D01*
X25000000Y3400000D02*
X26400000Y3400000D01*
X25500000Y5900000D02*
X24500000Y5900000D01*
X23800000Y4600000D02*
X25000000Y3400000D01*
X23800000Y5200000D02*
X23800000Y4600000D01*
D40*
%TO.N,Net-(U2-OE)*%
X61075000Y14300000D02*
X61400000Y14625000D01*
X61075000Y13425000D02*
X61075000Y14300000D01*
X61675000Y14625000D02*
X61950000Y14900000D01*
X61400000Y14625000D02*
X61675000Y14625000D01*
X61950000Y14900000D02*
X61950000Y15725000D01*
D39*
%TO.N,/+3V6d*%
X25500000Y6400000D02*
X23600000Y6400000D01*
X25500000Y6900000D02*
X24300000Y6900000D01*
X20400000Y4800000D02*
X20400000Y6200000D01*
X24400000Y7600000D02*
X23600000Y6800000D01*
D41*
X20600000Y6400000D02*
X23600000Y6400000D01*
X14400000Y6400000D02*
X20600000Y6400000D01*
D39*
X23600000Y6800000D02*
X23600000Y6400000D01*
X25500000Y6900000D02*
X25500000Y7500000D01*
X24300000Y6900000D02*
X23800000Y6400000D01*
D41*
X11750000Y9050000D02*
X14400000Y6400000D01*
D39*
X25400000Y7600000D02*
X24400000Y7600000D01*
X20400000Y6200000D02*
X20600000Y6400000D01*
X25500000Y7500000D02*
X25400000Y7600000D01*
X25000000Y4900000D02*
X25000000Y4800000D01*
D41*
X11750000Y19500000D02*
X11750000Y9050000D01*
X23600000Y6400000D02*
X23800000Y6400000D01*
D39*
X25500000Y5400000D02*
X25000000Y4900000D01*
%TO.N,/+3V3_UC*%
X69300000Y13500000D02*
X70300000Y13500000D01*
X70800000Y4400000D02*
X69675000Y3275000D01*
X70800000Y13000000D02*
X70800000Y4400000D01*
D40*
X63400000Y14300000D02*
X63525000Y14300000D01*
D39*
X70300000Y13500000D02*
X70800000Y13000000D01*
D40*
X69300000Y13500000D02*
X67250000Y13500000D01*
D39*
X69675000Y3275000D02*
X68500000Y3275000D01*
D40*
X61725000Y13425000D02*
X62525000Y13425000D01*
X62525000Y13425000D02*
X63400000Y14300000D01*
D39*
%TO.N,Net-(D2-K)*%
X66662500Y20800000D02*
X67400000Y20062500D01*
X67400000Y19600000D02*
X68025000Y18975000D01*
X67400000Y20062500D02*
X67400000Y19600000D01*
X68025000Y18975000D02*
X68025000Y18400000D01*
%TO.N,/Network*%
X54200000Y21000000D02*
X54650000Y20550000D01*
X54650000Y20550000D02*
X62725000Y20550000D01*
%TO.N,Net-(Q8-C)*%
X65000000Y18400000D02*
X66375000Y18400000D01*
X64600000Y19600000D02*
X64600000Y18800000D01*
X64600000Y18800000D02*
X65000000Y18400000D01*
%TD*%
%TA.AperFunction,Conductor*%
%TO.N,GND*%
G36*
X32600000Y15900000D02*
G01*
X35400000Y15900000D01*
X35400000Y12800000D01*
X27500000Y12800000D01*
X27500000Y17900000D01*
X32600000Y17900000D01*
X32600000Y15900000D01*
G37*
%TD.AperFunction*%
%TD*%
%TA.AperFunction,Conductor*%
%TO.N,GND*%
G36*
X6892473Y22264398D02*
G01*
X6938966Y22210742D01*
X6949070Y22140468D01*
X6919576Y22075888D01*
X6883750Y22047279D01*
X6753550Y21977685D01*
X6593590Y21846410D01*
X6462315Y21686450D01*
X6462313Y21686447D01*
X6364768Y21503954D01*
X6304698Y21305927D01*
X6284417Y21100003D01*
X6284417Y21099996D01*
X6304698Y20894072D01*
X6364768Y20696045D01*
X6462313Y20513552D01*
X6593590Y20353590D01*
X6753552Y20222313D01*
X6936045Y20124768D01*
X7134072Y20064698D01*
X7339997Y20044417D01*
X7340000Y20044417D01*
X7340003Y20044417D01*
X7545927Y20064698D01*
X7631224Y20090572D01*
X7743954Y20124768D01*
X7872568Y20193514D01*
X7926447Y20222313D01*
X7926448Y20222314D01*
X7926450Y20222315D01*
X8086410Y20353590D01*
X8217685Y20513550D01*
X8315232Y20696046D01*
X8322422Y20719750D01*
X10349500Y20719750D01*
X10349500Y18280249D01*
X10361132Y18221771D01*
X10361133Y18221768D01*
X10405448Y18155448D01*
X10471768Y18111133D01*
X10471771Y18111132D01*
X10530249Y18099500D01*
X10530252Y18099500D01*
X10923500Y18099500D01*
X10991621Y18079498D01*
X11038114Y18025842D01*
X11049500Y17973500D01*
X11049500Y8981002D01*
X11076420Y8845671D01*
X11076421Y8845668D01*
X11129225Y8718189D01*
X11205885Y8603458D01*
X11205890Y8603452D01*
X13953452Y5855890D01*
X13953458Y5855885D01*
X14068189Y5779225D01*
X14195668Y5726421D01*
X14195671Y5726420D01*
X14331002Y5699500D01*
X14331006Y5699500D01*
X14331007Y5699500D01*
X19948500Y5699500D01*
X20016621Y5679498D01*
X20063114Y5625842D01*
X20074500Y5573500D01*
X20074500Y5369285D01*
X20054498Y5301164D01*
X20025203Y5269322D01*
X20022010Y5266872D01*
X19980248Y5234827D01*
X19971718Y5228282D01*
X19881462Y5110657D01*
X19875465Y5102842D01*
X19875463Y5102839D01*
X19814955Y4956760D01*
X19794318Y4800000D01*
X19794318Y4799999D01*
X19814955Y4643239D01*
X19875463Y4497160D01*
X19875465Y4497157D01*
X19971718Y4371718D01*
X20097157Y4275465D01*
X20097160Y4275463D01*
X20243239Y4214955D01*
X20400000Y4194318D01*
X20556760Y4214955D01*
X20702839Y4275463D01*
X20702842Y4275465D01*
X20828282Y4371718D01*
X20924536Y4497159D01*
X20985044Y4643238D01*
X20997243Y4735899D01*
X21005682Y4799999D01*
X21005682Y4800000D01*
X21001059Y4835113D01*
X20985044Y4956762D01*
X20924536Y5102841D01*
X20828282Y5228282D01*
X20774796Y5269322D01*
X20732929Y5326659D01*
X20725500Y5369285D01*
X20725500Y5573500D01*
X20745502Y5641621D01*
X20799158Y5688114D01*
X20851500Y5699500D01*
X23531007Y5699500D01*
X23534982Y5699500D01*
X23603103Y5679498D01*
X23649596Y5625842D01*
X23659700Y5555568D01*
X23630206Y5490988D01*
X23624077Y5484405D01*
X23539540Y5399868D01*
X23539532Y5399858D01*
X23496684Y5325643D01*
X23496680Y5325633D01*
X23492919Y5311596D01*
X23482370Y5272224D01*
X23474500Y5242853D01*
X23474500Y4642853D01*
X23474500Y4557147D01*
X23496682Y4474361D01*
X23496683Y4474359D01*
X23496684Y4474356D01*
X23539532Y4400141D01*
X23539540Y4400131D01*
X24800131Y3139540D01*
X24800141Y3139532D01*
X24874356Y3096684D01*
X24874359Y3096683D01*
X24874361Y3096682D01*
X24957147Y3074500D01*
X25042853Y3074500D01*
X25830714Y3074500D01*
X25898835Y3054498D01*
X25930676Y3025204D01*
X25971715Y2971720D01*
X26097157Y2875465D01*
X26097160Y2875463D01*
X26243239Y2814955D01*
X26400000Y2794318D01*
X26556760Y2814955D01*
X26702839Y2875463D01*
X26702842Y2875465D01*
X26828282Y2971718D01*
X26924536Y3097159D01*
X26985044Y3243238D01*
X27005682Y3400000D01*
X26985044Y3556762D01*
X26924536Y3702841D01*
X26828282Y3828282D01*
X26702841Y3924536D01*
X26556762Y3985044D01*
X26400000Y4005682D01*
X26243238Y3985044D01*
X26097159Y3924536D01*
X25971718Y3828282D01*
X25971716Y3828280D01*
X25971715Y3828279D01*
X25930676Y3774796D01*
X25873338Y3732929D01*
X25830714Y3725500D01*
X25187017Y3725500D01*
X25118896Y3745502D01*
X25097927Y3762399D01*
X24877834Y3982492D01*
X24843812Y4044800D01*
X24848876Y4115616D01*
X24891423Y4172452D01*
X24957943Y4197263D01*
X24983377Y4196506D01*
X24999998Y4194318D01*
X25000000Y4194318D01*
X25156760Y4214955D01*
X25302839Y4275463D01*
X25302842Y4275465D01*
X25428282Y4371718D01*
X25524536Y4497159D01*
X25585044Y4643238D01*
X25605682Y4800000D01*
X25588296Y4932056D01*
X25599235Y5002202D01*
X25646363Y5055301D01*
X25707349Y5072820D01*
X25707244Y5073895D01*
X25713098Y5074471D01*
X25713198Y5074500D01*
X25713388Y5074500D01*
X25713405Y5074501D01*
X25790117Y5089760D01*
X25877112Y5147887D01*
X25917749Y5208706D01*
X25935240Y5234883D01*
X25950500Y5311599D01*
X25950499Y5488400D01*
X25935240Y5565117D01*
X25925297Y5579996D01*
X25904081Y5647748D01*
X25922862Y5716215D01*
X25925298Y5720004D01*
X25935239Y5734881D01*
X25935240Y5734883D01*
X25948220Y5800139D01*
X25950500Y5811599D01*
X25950499Y5988400D01*
X25935240Y6065117D01*
X25925297Y6079998D01*
X25904081Y6147748D01*
X25922862Y6216215D01*
X25925298Y6220004D01*
X25935239Y6234881D01*
X25935240Y6234883D01*
X25949809Y6308127D01*
X25950500Y6311599D01*
X25950499Y6488400D01*
X25935240Y6565117D01*
X25925297Y6579998D01*
X25904081Y6647748D01*
X25922862Y6716215D01*
X25925298Y6720004D01*
X25935239Y6734881D01*
X25935240Y6734883D01*
X25938003Y6748773D01*
X25950500Y6811599D01*
X25950499Y6988400D01*
X25950498Y6988403D01*
X26949500Y6988403D01*
X26949500Y6811602D01*
X26949501Y6811593D01*
X26964759Y6734885D01*
X26964759Y6734883D01*
X26964760Y6734883D01*
X26974705Y6719998D01*
X26995918Y6652246D01*
X26977134Y6583780D01*
X26974703Y6579998D01*
X26964760Y6565117D01*
X26964759Y6565116D01*
X26949500Y6488403D01*
X26949500Y6311602D01*
X26949501Y6311593D01*
X26964759Y6234885D01*
X26964759Y6234883D01*
X26964760Y6234883D01*
X26974705Y6219998D01*
X26995918Y6152246D01*
X26977134Y6083780D01*
X26974703Y6079998D01*
X26964760Y6065117D01*
X26964759Y6065116D01*
X26949500Y5988403D01*
X26949500Y5811602D01*
X26949501Y5811593D01*
X26964759Y5734882D01*
X27022887Y5647887D01*
X27109882Y5589760D01*
X27109883Y5589759D01*
X27186597Y5574500D01*
X27186599Y5574500D01*
X27613397Y5574500D01*
X27613406Y5574501D01*
X27690117Y5589759D01*
X27777112Y5647887D01*
X27829586Y5726421D01*
X27835240Y5734883D01*
X27850500Y5811599D01*
X27850500Y5811600D01*
X27850564Y5811921D01*
X27883472Y5874830D01*
X27945167Y5909962D01*
X28016062Y5906162D01*
X28063238Y5876435D01*
X28139534Y5800139D01*
X28139535Y5800138D01*
X28156185Y5783488D01*
X28200136Y5739536D01*
X28200141Y5739532D01*
X28274357Y5696683D01*
X28306338Y5688114D01*
X28357147Y5674500D01*
X29030714Y5674500D01*
X29098835Y5654498D01*
X29130676Y5625204D01*
X29171715Y5571720D01*
X29297157Y5475465D01*
X29297160Y5475463D01*
X29443239Y5414955D01*
X29600000Y5394318D01*
X29756760Y5414955D01*
X29902839Y5475463D01*
X29902842Y5475465D01*
X29914493Y5484405D01*
X30028282Y5571718D01*
X30028284Y5571720D01*
X30069324Y5625204D01*
X30126662Y5667071D01*
X30169286Y5674500D01*
X30692851Y5674500D01*
X30692853Y5674500D01*
X30775639Y5696682D01*
X30775641Y5696683D01*
X30775643Y5696684D01*
X30849858Y5739532D01*
X30849859Y5739533D01*
X30849862Y5739535D01*
X30997923Y5887596D01*
X31060233Y5921620D01*
X31087017Y5924500D01*
X31508485Y5924500D01*
X31508488Y5924500D01*
X31608126Y5940281D01*
X31668173Y5970876D01*
X31728219Y6001471D01*
X31823528Y6096780D01*
X31846206Y6141288D01*
X31880446Y6208488D01*
X34824500Y6208488D01*
X34824500Y5691512D01*
X34840281Y5591874D01*
X34840281Y5591872D01*
X34840282Y5591872D01*
X34901471Y5471780D01*
X34996778Y5376473D01*
X34996781Y5376471D01*
X35089374Y5329292D01*
X35096537Y5325643D01*
X35105703Y5320973D01*
X35157318Y5272224D01*
X35174500Y5208706D01*
X35174500Y5142853D01*
X35174500Y5057147D01*
X35196682Y4974361D01*
X35196683Y4974359D01*
X35196684Y4974356D01*
X35239532Y4900141D01*
X35239537Y4900135D01*
X35567291Y4572380D01*
X35601316Y4510068D01*
X35603117Y4466839D01*
X35594318Y4400001D01*
X35594318Y4399999D01*
X35614955Y4243239D01*
X35675463Y4097160D01*
X35675465Y4097157D01*
X35771718Y3971718D01*
X35897157Y3875465D01*
X35897160Y3875463D01*
X36043239Y3814955D01*
X36200000Y3794318D01*
X36356760Y3814955D01*
X36502839Y3875463D01*
X36502842Y3875465D01*
X36509641Y3880682D01*
X36628282Y3971718D01*
X36724536Y4097159D01*
X36785044Y4243238D01*
X36799096Y4349974D01*
X36827818Y4414901D01*
X36887084Y4453993D01*
X36958075Y4454838D01*
X37018254Y4417168D01*
X37040425Y4381749D01*
X37075464Y4297159D01*
X37075465Y4297158D01*
X37075465Y4297157D01*
X37171718Y4171718D01*
X37297157Y4075465D01*
X37297160Y4075463D01*
X37443239Y4014955D01*
X37600000Y3994318D01*
X37756760Y4014955D01*
X37902839Y4075463D01*
X37902842Y4075465D01*
X38028282Y4171718D01*
X38124536Y4297159D01*
X38185044Y4443238D01*
X38200040Y4557147D01*
X38205682Y4599999D01*
X38205682Y4600000D01*
X38199990Y4643238D01*
X38185044Y4756762D01*
X38124536Y4902841D01*
X38028282Y5028282D01*
X37904016Y5123633D01*
X37862150Y5180970D01*
X37857928Y5251841D01*
X37892691Y5313744D01*
X37923518Y5335862D01*
X38003219Y5376471D01*
X38098528Y5471780D01*
X38122573Y5518971D01*
X38159719Y5591874D01*
X38175500Y5691512D01*
X38175500Y6208488D01*
X38159719Y6308126D01*
X38098528Y6428220D01*
X38003220Y6523528D01*
X37883126Y6584719D01*
X37783488Y6600500D01*
X37216512Y6600500D01*
X37116874Y6584719D01*
X36998758Y6524536D01*
X36996780Y6523528D01*
X36901471Y6428219D01*
X36883983Y6393896D01*
X36840281Y6308126D01*
X36824500Y6208488D01*
X36824500Y5691512D01*
X36840281Y5591874D01*
X36840281Y5591872D01*
X36840282Y5591872D01*
X36901471Y5471780D01*
X36996778Y5376473D01*
X36996781Y5376471D01*
X37089374Y5329292D01*
X37096537Y5325643D01*
X37105703Y5320973D01*
X37157318Y5272224D01*
X37174500Y5208706D01*
X37174500Y5074678D01*
X37154498Y5006557D01*
X37148462Y4997974D01*
X37075468Y4902847D01*
X37075463Y4902839D01*
X37014955Y4756760D01*
X37000903Y4650024D01*
X36972180Y4585097D01*
X36912915Y4546006D01*
X36841923Y4545161D01*
X36781745Y4582832D01*
X36759575Y4618248D01*
X36724536Y4702841D01*
X36628282Y4828282D01*
X36502841Y4924536D01*
X36356762Y4985044D01*
X36200000Y5005682D01*
X36133158Y4996881D01*
X36063013Y5007819D01*
X36027620Y5032705D01*
X35914281Y5146045D01*
X35880257Y5208356D01*
X35885323Y5279172D01*
X35927869Y5336008D01*
X35946175Y5347406D01*
X36003218Y5376471D01*
X36003221Y5376473D01*
X36098528Y5471780D01*
X36122573Y5518971D01*
X36159719Y5591874D01*
X36175500Y5691512D01*
X36175500Y6208488D01*
X36159719Y6308126D01*
X36098528Y6428220D01*
X36003220Y6523528D01*
X35883126Y6584719D01*
X35783488Y6600500D01*
X35216512Y6600500D01*
X35116874Y6584719D01*
X34998758Y6524536D01*
X34996780Y6523528D01*
X34901471Y6428219D01*
X34883983Y6393896D01*
X34840281Y6308126D01*
X34824500Y6208488D01*
X31880446Y6208488D01*
X31884719Y6216874D01*
X31900500Y6316512D01*
X31900500Y6883488D01*
X31884719Y6983126D01*
X31823528Y7103220D01*
X31728220Y7198528D01*
X31608126Y7259719D01*
X31587712Y7262952D01*
X31523562Y7293363D01*
X31486035Y7353632D01*
X31487049Y7424621D01*
X31526282Y7483793D01*
X31587712Y7511847D01*
X31608126Y7515081D01*
X31668173Y7545676D01*
X31728219Y7576271D01*
X31823528Y7671580D01*
X31827099Y7678588D01*
X31880548Y7783488D01*
X39074500Y7783488D01*
X39074500Y7216512D01*
X39090281Y7116874D01*
X39090281Y7116872D01*
X39090282Y7116872D01*
X39151471Y6996780D01*
X39246778Y6901473D01*
X39246783Y6901469D01*
X39330704Y6858709D01*
X39382319Y6809960D01*
X39399500Y6746443D01*
X39399500Y6253555D01*
X39379498Y6185434D01*
X39330703Y6141288D01*
X39246780Y6098528D01*
X39246778Y6098526D01*
X39151471Y6003219D01*
X39138420Y5977604D01*
X39090281Y5883126D01*
X39074500Y5783488D01*
X39074500Y5216512D01*
X39090281Y5116874D01*
X39090281Y5116872D01*
X39090282Y5116872D01*
X39151471Y4996780D01*
X39246778Y4901473D01*
X39246783Y4901469D01*
X39330704Y4858709D01*
X39382319Y4809960D01*
X39399500Y4746443D01*
X39399500Y4707259D01*
X39379498Y4639138D01*
X39373462Y4630555D01*
X39275468Y4502847D01*
X39275463Y4502839D01*
X39214955Y4356760D01*
X39194318Y4200000D01*
X39194318Y4199999D01*
X39214955Y4043239D01*
X39275463Y3897160D01*
X39275465Y3897157D01*
X39371718Y3771718D01*
X39497157Y3675465D01*
X39497160Y3675463D01*
X39643239Y3614955D01*
X39800000Y3594318D01*
X39956760Y3614955D01*
X40102839Y3675463D01*
X40102842Y3675465D01*
X40125499Y3692850D01*
X40228282Y3771718D01*
X40324536Y3897159D01*
X40385044Y4043238D01*
X40400451Y4160268D01*
X40405682Y4199999D01*
X40405682Y4200000D01*
X40399990Y4243238D01*
X40385044Y4356762D01*
X40324536Y4502841D01*
X40228282Y4628282D01*
X40162754Y4678562D01*
X40120889Y4735899D01*
X40116667Y4806770D01*
X40151431Y4868673D01*
X40182257Y4890791D01*
X40203218Y4901471D01*
X40203221Y4901473D01*
X40298528Y4996780D01*
X40314579Y5028282D01*
X40359719Y5116874D01*
X40375500Y5216512D01*
X40375500Y5783488D01*
X40359719Y5883126D01*
X40298528Y6003220D01*
X40203220Y6098528D01*
X40119297Y6141288D01*
X40067682Y6190036D01*
X40050500Y6253555D01*
X40050500Y6746443D01*
X40070502Y6814564D01*
X40119296Y6858709D01*
X40203216Y6901469D01*
X40203221Y6901473D01*
X40298528Y6996780D01*
X40359719Y7116874D01*
X40375500Y7216512D01*
X40375500Y7658488D01*
X42324500Y7658488D01*
X42324500Y7141512D01*
X42340281Y7041874D01*
X42340281Y7041872D01*
X42340282Y7041872D01*
X42401471Y6921780D01*
X42496780Y6826471D01*
X42616872Y6765282D01*
X42616874Y6765281D01*
X42716512Y6749500D01*
X42716515Y6749500D01*
X43283485Y6749500D01*
X43283488Y6749500D01*
X43383126Y6765281D01*
X43491297Y6820397D01*
X43561074Y6833501D01*
X43626859Y6806801D01*
X43667765Y6748773D01*
X43674500Y6708130D01*
X43674500Y5169285D01*
X43654498Y5101164D01*
X43625203Y5069322D01*
X43571718Y5028282D01*
X43516838Y4956760D01*
X43475465Y4902842D01*
X43475463Y4902839D01*
X43414955Y4756760D01*
X43394318Y4600000D01*
X43394318Y4599999D01*
X43414955Y4443239D01*
X43475463Y4297160D01*
X43475465Y4297157D01*
X43571718Y4171718D01*
X43697157Y4075465D01*
X43697160Y4075463D01*
X43843239Y4014955D01*
X44000000Y3994318D01*
X44156760Y4014955D01*
X44302839Y4075463D01*
X44302842Y4075465D01*
X44312097Y4082566D01*
X44396792Y4147555D01*
X44463013Y4173155D01*
X44532562Y4158890D01*
X44583357Y4109289D01*
X44599273Y4040099D01*
X44598418Y4031147D01*
X44594318Y4000001D01*
X44594318Y3999999D01*
X44614955Y3843239D01*
X44675463Y3697160D01*
X44675465Y3697157D01*
X44771718Y3571718D01*
X44897157Y3475465D01*
X44897160Y3475463D01*
X45043239Y3414955D01*
X45200000Y3394318D01*
X45200002Y3394318D01*
X45266839Y3403117D01*
X45336988Y3392177D01*
X45372380Y3367291D01*
X45437595Y3302077D01*
X45471620Y3239765D01*
X45474500Y3212983D01*
X45474500Y2042853D01*
X45474500Y1957147D01*
X45496682Y1874361D01*
X45496683Y1874359D01*
X45496684Y1874356D01*
X45539532Y1800141D01*
X45539540Y1800131D01*
X46050131Y1289540D01*
X46050141Y1289532D01*
X46124356Y1246684D01*
X46124359Y1246683D01*
X46124361Y1246682D01*
X46207147Y1224500D01*
X46252347Y1224500D01*
X46320468Y1204498D01*
X46366961Y1150842D01*
X46375926Y1123082D01*
X46386132Y1071771D01*
X46386133Y1071768D01*
X46422904Y1016738D01*
X46430448Y1005448D01*
X46452453Y990744D01*
X46496768Y961133D01*
X46496771Y961132D01*
X46555249Y949500D01*
X46555252Y949500D01*
X46944750Y949500D01*
X47003228Y961132D01*
X47003229Y961132D01*
X47003231Y961133D01*
X47003232Y961133D01*
X47003235Y961135D01*
X47005004Y962317D01*
X47009441Y963706D01*
X47014694Y965882D01*
X47014888Y965411D01*
X47072758Y983528D01*
X47141224Y964741D01*
X47144996Y962317D01*
X47146764Y961135D01*
X47146771Y961132D01*
X47205249Y949500D01*
X47205252Y949500D01*
X47594750Y949500D01*
X47653228Y961132D01*
X47653229Y961132D01*
X47653231Y961133D01*
X47653232Y961133D01*
X47653235Y961135D01*
X47655004Y962317D01*
X47659441Y963706D01*
X47664694Y965882D01*
X47664888Y965411D01*
X47722758Y983528D01*
X47791224Y964741D01*
X47794996Y962317D01*
X47796764Y961135D01*
X47796771Y961132D01*
X47855249Y949500D01*
X47855252Y949500D01*
X48244750Y949500D01*
X48303228Y961132D01*
X48303231Y961133D01*
X48336747Y983528D01*
X48369552Y1005448D01*
X48413867Y1071769D01*
X48425500Y1130252D01*
X48425500Y1969748D01*
X48413867Y2028231D01*
X48396734Y2053870D01*
X48375520Y2121620D01*
X48375500Y2123871D01*
X48375500Y2999412D01*
X48375501Y2999430D01*
X48375501Y3092853D01*
X48375500Y3092856D01*
X48353320Y3175632D01*
X48353319Y3175632D01*
X48353318Y3175639D01*
X48342381Y3194580D01*
X48325500Y3257582D01*
X48325500Y3630714D01*
X48345502Y3698835D01*
X48374796Y3730676D01*
X48428279Y3771715D01*
X48428280Y3771716D01*
X48428282Y3771718D01*
X48524536Y3897159D01*
X48585044Y4043238D01*
X48600451Y4160268D01*
X48605682Y4199999D01*
X48605682Y4200000D01*
X48599990Y4243238D01*
X48585044Y4356762D01*
X48524536Y4502841D01*
X48428282Y4628282D01*
X48374796Y4669322D01*
X48332929Y4726659D01*
X48325500Y4769285D01*
X48325500Y4848500D01*
X48345502Y4916621D01*
X48399158Y4963114D01*
X48451500Y4974500D01*
X48683485Y4974500D01*
X48683488Y4974500D01*
X48783126Y4990281D01*
X48857709Y5028283D01*
X48903219Y5051471D01*
X48998528Y5146780D01*
X49003517Y5156571D01*
X49025645Y5200000D01*
X50194318Y5200000D01*
X50194318Y5199999D01*
X50214955Y5043239D01*
X50275463Y4897160D01*
X50275465Y4897157D01*
X50371718Y4771718D01*
X50497157Y4675465D01*
X50497160Y4675463D01*
X50643239Y4614955D01*
X50800000Y4594318D01*
X50956760Y4614955D01*
X51102839Y4675463D01*
X51102842Y4675465D01*
X51111875Y4682396D01*
X51228282Y4771718D01*
X51228284Y4771720D01*
X51269324Y4825204D01*
X51326662Y4867071D01*
X51369286Y4874500D01*
X51412983Y4874500D01*
X51481104Y4854498D01*
X51502078Y4837595D01*
X51900095Y4439578D01*
X51934121Y4377266D01*
X51937000Y4350483D01*
X51937000Y1826500D01*
X51916998Y1758379D01*
X51863342Y1711886D01*
X51811000Y1700500D01*
X51641740Y1700500D01*
X51573607Y1690573D01*
X51573605Y1690572D01*
X51468517Y1639198D01*
X51468514Y1639196D01*
X51385803Y1556485D01*
X51385801Y1556482D01*
X51334427Y1451394D01*
X51324500Y1383261D01*
X51324500Y1016738D01*
X51334427Y948605D01*
X51385801Y843517D01*
X51385803Y843514D01*
X51468514Y760803D01*
X51468517Y760801D01*
X51573605Y709427D01*
X51641738Y699500D01*
X51641740Y699500D01*
X52883261Y699500D01*
X52951394Y709427D01*
X53056482Y760801D01*
X53056485Y760803D01*
X53139196Y843514D01*
X53139198Y843517D01*
X53190572Y948605D01*
X53190573Y948607D01*
X53200500Y1016740D01*
X53200500Y1383260D01*
X53190573Y1451393D01*
X53139198Y1556483D01*
X53056483Y1639198D01*
X52951393Y1690573D01*
X52883260Y1700500D01*
X52883255Y1700500D01*
X52714000Y1700500D01*
X52645879Y1720502D01*
X52599386Y1774158D01*
X52588000Y1826500D01*
X52588000Y3348500D01*
X52608002Y3416621D01*
X52661658Y3463114D01*
X52714000Y3474500D01*
X55820701Y3474500D01*
X55888822Y3454498D01*
X55931823Y3407896D01*
X56005864Y3269374D01*
X56124643Y3124643D01*
X56269374Y3005864D01*
X56434499Y2917603D01*
X56434503Y2917601D01*
X56613665Y2863253D01*
X56613676Y2863251D01*
X56799997Y2844901D01*
X56800000Y2844901D01*
X56800003Y2844901D01*
X56986323Y2863251D01*
X56986334Y2863253D01*
X57165496Y2917601D01*
X57165500Y2917603D01*
X57330625Y3005864D01*
X57389885Y3054498D01*
X57475357Y3124643D01*
X57594136Y3269375D01*
X57682396Y3434499D01*
X57682398Y3434503D01*
X57736746Y3613665D01*
X57736748Y3613676D01*
X57755099Y3799996D01*
X57755099Y3800003D01*
X57736748Y3986323D01*
X57736746Y3986334D01*
X57732600Y4000000D01*
X57709709Y4075464D01*
X57682398Y4165496D01*
X57682396Y4165500D01*
X57682396Y4165501D01*
X57594136Y4330625D01*
X57475357Y4475357D01*
X57330625Y4594136D01*
X57165501Y4682396D01*
X57165498Y4682396D01*
X57165496Y4682398D01*
X56986334Y4736746D01*
X56986331Y4736747D01*
X56986325Y4736747D01*
X56986323Y4736748D01*
X56800003Y4755099D01*
X56799997Y4755099D01*
X56613676Y4736748D01*
X56613672Y4736747D01*
X56613669Y4736747D01*
X56613666Y4736746D01*
X56613665Y4736746D01*
X56434503Y4682398D01*
X56434499Y4682396D01*
X56269375Y4594136D01*
X56124643Y4475357D01*
X56027631Y4357148D01*
X56005864Y4330625D01*
X55931823Y4192104D01*
X55882071Y4141456D01*
X55820701Y4125500D01*
X52714000Y4125500D01*
X52645879Y4145502D01*
X52599386Y4199158D01*
X52588000Y4251500D01*
X52588000Y4580351D01*
X52588000Y4580353D01*
X52565818Y4663138D01*
X52557330Y4677839D01*
X52529144Y4726659D01*
X52522965Y4737362D01*
X52462362Y4797965D01*
X51799862Y5460465D01*
X51725639Y5503318D01*
X51642853Y5525500D01*
X51642851Y5525500D01*
X51369286Y5525500D01*
X51301165Y5545502D01*
X51269324Y5574796D01*
X51228284Y5628279D01*
X51228282Y5628282D01*
X51102841Y5724536D01*
X50956762Y5785044D01*
X50800000Y5805682D01*
X50643238Y5785044D01*
X50497159Y5724536D01*
X50371718Y5628282D01*
X50275830Y5503318D01*
X50275465Y5502842D01*
X50275463Y5502839D01*
X50214955Y5356760D01*
X50194318Y5200000D01*
X49025645Y5200000D01*
X49059719Y5266874D01*
X49075500Y5366512D01*
X49075500Y5883488D01*
X49059719Y5983126D01*
X48998528Y6103220D01*
X48903220Y6198528D01*
X48783126Y6259719D01*
X48683488Y6275500D01*
X48116512Y6275500D01*
X48016874Y6259719D01*
X47931493Y6216215D01*
X47896780Y6198528D01*
X47801471Y6103219D01*
X47782057Y6065116D01*
X47740281Y5983126D01*
X47724500Y5883488D01*
X47724500Y5883484D01*
X47724449Y5883162D01*
X47694036Y5819009D01*
X47633768Y5781482D01*
X47562779Y5782496D01*
X47503607Y5821729D01*
X47475551Y5883162D01*
X47475500Y5883484D01*
X47475500Y5883488D01*
X47459719Y5983126D01*
X47398528Y6103220D01*
X47303220Y6198528D01*
X47183126Y6259719D01*
X47083488Y6275500D01*
X46516512Y6275500D01*
X46416874Y6259719D01*
X46331493Y6216215D01*
X46296780Y6198528D01*
X46201471Y6103219D01*
X46182057Y6065116D01*
X46140281Y5983126D01*
X46124500Y5883488D01*
X46124500Y5883484D01*
X46124449Y5883162D01*
X46094036Y5819009D01*
X46033768Y5781482D01*
X45962779Y5782496D01*
X45903607Y5821729D01*
X45875551Y5883162D01*
X45875500Y5883484D01*
X45875500Y5883488D01*
X45859719Y5983126D01*
X45798528Y6103220D01*
X45703220Y6198528D01*
X45583126Y6259719D01*
X45483488Y6275500D01*
X44916512Y6275500D01*
X44816874Y6259719D01*
X44731493Y6216215D01*
X44696780Y6198528D01*
X44601471Y6103219D01*
X44563767Y6029219D01*
X44515019Y5977604D01*
X44446104Y5960538D01*
X44378902Y5983439D01*
X44334750Y6039036D01*
X44325500Y6086422D01*
X44325500Y8275000D01*
X51194318Y8275000D01*
X51194318Y8274999D01*
X51214955Y8118239D01*
X51275463Y7972160D01*
X51275465Y7972157D01*
X51371718Y7846718D01*
X51497157Y7750465D01*
X51497160Y7750463D01*
X51643239Y7689955D01*
X51800000Y7669318D01*
X51956760Y7689955D01*
X52102839Y7750463D01*
X52102842Y7750465D01*
X52112826Y7758126D01*
X52228282Y7846718D01*
X52324536Y7972159D01*
X52385044Y8118238D01*
X52399531Y8228281D01*
X52405682Y8274999D01*
X52405682Y8275000D01*
X52398025Y8333158D01*
X52385044Y8431762D01*
X52324536Y8577841D01*
X52228282Y8703282D01*
X52102841Y8799536D01*
X51956762Y8860044D01*
X51800000Y8880682D01*
X51643238Y8860044D01*
X51497159Y8799536D01*
X51371718Y8703282D01*
X51295121Y8603458D01*
X51275465Y8577842D01*
X51275463Y8577839D01*
X51214955Y8431760D01*
X51194318Y8275000D01*
X44325500Y8275000D01*
X44325500Y9212983D01*
X44345502Y9281104D01*
X44362405Y9302078D01*
X44697922Y9637595D01*
X44760234Y9671621D01*
X44787017Y9674500D01*
X53442851Y9674500D01*
X53442853Y9674500D01*
X53525639Y9696682D01*
X53525641Y9696683D01*
X53525643Y9696684D01*
X53599858Y9739532D01*
X53599868Y9739540D01*
X53659405Y9799077D01*
X53721717Y9833103D01*
X53792532Y9828038D01*
X53849368Y9785491D01*
X53874179Y9718971D01*
X53874500Y9709982D01*
X53874500Y7716293D01*
X53854498Y7648172D01*
X53805703Y7604027D01*
X53696780Y7548528D01*
X53696778Y7548526D01*
X53601471Y7453219D01*
X53570876Y7393173D01*
X53540281Y7333126D01*
X53524500Y7233488D01*
X53524500Y6716512D01*
X53540281Y6616874D01*
X53540281Y6616872D01*
X53540282Y6616872D01*
X53601471Y6496780D01*
X53696780Y6401471D01*
X53773453Y6362405D01*
X53816874Y6340281D01*
X53916512Y6324500D01*
X53916515Y6324500D01*
X54483485Y6324500D01*
X54483488Y6324500D01*
X54583126Y6340281D01*
X54647188Y6372922D01*
X54703219Y6401471D01*
X54798528Y6496780D01*
X54812670Y6524536D01*
X54859719Y6616874D01*
X54875500Y6716512D01*
X54875500Y7233488D01*
X54859719Y7333126D01*
X54798528Y7453220D01*
X54703220Y7548528D01*
X54594296Y7604027D01*
X54542682Y7652774D01*
X54525500Y7716293D01*
X54525500Y7800000D01*
X57994318Y7800000D01*
X57994318Y7799999D01*
X58014955Y7643239D01*
X58075463Y7497160D01*
X58075465Y7497157D01*
X58171718Y7371718D01*
X58297157Y7275465D01*
X58297160Y7275463D01*
X58443239Y7214955D01*
X58600000Y7194318D01*
X58756760Y7214955D01*
X58902839Y7275463D01*
X58902842Y7275465D01*
X58926167Y7293363D01*
X59028282Y7371718D01*
X59124536Y7497159D01*
X59185044Y7643238D01*
X59199160Y7750463D01*
X59205256Y7796763D01*
X63396476Y7796763D01*
X63396476Y7796762D01*
X63417113Y7640002D01*
X63477621Y7493923D01*
X63477623Y7493920D01*
X63573876Y7368481D01*
X63699315Y7272228D01*
X63699318Y7272226D01*
X63845397Y7211718D01*
X64002158Y7191081D01*
X64158918Y7211718D01*
X64304997Y7272226D01*
X64305000Y7272228D01*
X64309216Y7275463D01*
X64430440Y7368481D01*
X64526694Y7493922D01*
X64587202Y7640001D01*
X64606297Y7785044D01*
X64607840Y7796762D01*
X64607840Y7796763D01*
X64599454Y7860463D01*
X64587202Y7953525D01*
X64526694Y8099604D01*
X64430440Y8225045D01*
X64304999Y8321299D01*
X64158920Y8381807D01*
X64002158Y8402445D01*
X63845396Y8381807D01*
X63699317Y8321299D01*
X63573876Y8225045D01*
X63477622Y8099604D01*
X63437698Y8003220D01*
X63417113Y7953523D01*
X63396476Y7796763D01*
X59205256Y7796763D01*
X59205682Y7799999D01*
X59205682Y7800000D01*
X59199531Y7846718D01*
X59185044Y7956762D01*
X59124536Y8102841D01*
X59028282Y8228282D01*
X58902841Y8324536D01*
X58756762Y8385044D01*
X58600000Y8405682D01*
X58443238Y8385044D01*
X58297159Y8324536D01*
X58171718Y8228282D01*
X58087279Y8118238D01*
X58075465Y8102842D01*
X58075463Y8102839D01*
X58014955Y7956760D01*
X57994318Y7800000D01*
X54525500Y7800000D01*
X54525500Y10000000D01*
X57194318Y10000000D01*
X57194318Y9999999D01*
X57214955Y9843239D01*
X57275463Y9697160D01*
X57275465Y9697157D01*
X57371718Y9571718D01*
X57497157Y9475465D01*
X57497160Y9475463D01*
X57643239Y9414955D01*
X57800000Y9394318D01*
X57956760Y9414955D01*
X58102839Y9475463D01*
X58102842Y9475465D01*
X58228282Y9571718D01*
X58324536Y9697159D01*
X58385044Y9843238D01*
X58405682Y10000000D01*
X58385044Y10156762D01*
X58324536Y10302841D01*
X58228282Y10428282D01*
X58102841Y10524536D01*
X57956762Y10585044D01*
X57800000Y10605682D01*
X57643238Y10585044D01*
X57497159Y10524536D01*
X57371718Y10428282D01*
X57321169Y10362405D01*
X57275465Y10302842D01*
X57275463Y10302839D01*
X57214955Y10156760D01*
X57194318Y10000000D01*
X54525500Y10000000D01*
X54525500Y12100728D01*
X54545502Y12168849D01*
X54599158Y12215342D01*
X54669432Y12225446D01*
X54676079Y12224307D01*
X54700241Y12219501D01*
X54700251Y12219500D01*
X54700252Y12219500D01*
X54700253Y12219500D01*
X55889750Y12219500D01*
X55948228Y12231132D01*
X55948231Y12231133D01*
X56014552Y12275448D01*
X56058867Y12341769D01*
X56070500Y12400252D01*
X56070500Y13089748D01*
X56058867Y13148231D01*
X56014552Y13214552D01*
X55948231Y13258867D01*
X55948229Y13258867D01*
X55936824Y13263592D01*
X55881544Y13308141D01*
X55859124Y13375505D01*
X55876683Y13444296D01*
X55928646Y13492673D01*
X55936824Y13496408D01*
X55948230Y13501132D01*
X55970463Y13515988D01*
X56014552Y13545448D01*
X56058867Y13611769D01*
X56070500Y13670252D01*
X56070500Y14359748D01*
X56058867Y14418231D01*
X56058863Y14418235D01*
X56058098Y14420086D01*
X56057627Y14424464D01*
X56056446Y14430402D01*
X56056977Y14430507D01*
X56050506Y14490676D01*
X56082283Y14554164D01*
X56143340Y14590394D01*
X56214291Y14587863D01*
X56251209Y14568272D01*
X56372157Y14475465D01*
X56372160Y14475463D01*
X56518239Y14414955D01*
X56675000Y14394318D01*
X56831760Y14414955D01*
X56977839Y14475463D01*
X56977842Y14475465D01*
X56989683Y14484551D01*
X57103282Y14571718D01*
X57199536Y14697159D01*
X57260044Y14843238D01*
X57280682Y15000000D01*
X57260044Y15156762D01*
X57199536Y15302841D01*
X57103282Y15428282D01*
X56977841Y15524536D01*
X56831762Y15585044D01*
X56675000Y15605682D01*
X56518238Y15585044D01*
X56518232Y15585041D01*
X56517232Y15584774D01*
X56516347Y15584795D01*
X56510050Y15583966D01*
X56509920Y15584948D01*
X56448676Y15586406D01*
X56448616Y15586180D01*
X56447682Y15586430D01*
X56446256Y15586464D01*
X56442710Y15587762D01*
X56440642Y15588315D01*
X56440639Y15588318D01*
X56357853Y15610500D01*
X56357851Y15610500D01*
X56175255Y15610500D01*
X56107134Y15630502D01*
X56065945Y15678036D01*
X56065761Y15677913D01*
X56064779Y15679381D01*
X56060641Y15684158D01*
X56058870Y15688224D01*
X56058867Y15688227D01*
X56058867Y15688231D01*
X56014552Y15754552D01*
X55948231Y15798867D01*
X55948229Y15798867D01*
X55936824Y15803592D01*
X55881544Y15848141D01*
X55859124Y15915505D01*
X55876683Y15984296D01*
X55928646Y16032673D01*
X55936824Y16036408D01*
X55948230Y16041132D01*
X55970236Y16055836D01*
X56014552Y16085448D01*
X56058867Y16151769D01*
X56070500Y16210252D01*
X56070500Y16899748D01*
X56058867Y16958231D01*
X56014552Y17024552D01*
X55948231Y17068867D01*
X55948229Y17068867D01*
X55936824Y17073592D01*
X55881544Y17118141D01*
X55859124Y17185505D01*
X55876683Y17254296D01*
X55928646Y17302673D01*
X55936824Y17306408D01*
X55948230Y17311132D01*
X55970236Y17325836D01*
X56014552Y17355448D01*
X56058867Y17421769D01*
X56065761Y17432087D01*
X56066696Y17431461D01*
X56103400Y17477003D01*
X56170765Y17499420D01*
X56175255Y17499500D01*
X56187982Y17499500D01*
X56256103Y17479498D01*
X56277086Y17462587D01*
X56287299Y17452372D01*
X56321318Y17390056D01*
X56323117Y17346839D01*
X56314318Y17280001D01*
X56314318Y17279999D01*
X56334955Y17123239D01*
X56395463Y16977160D01*
X56395465Y16977157D01*
X56491718Y16851718D01*
X56617157Y16755465D01*
X56617160Y16755463D01*
X56763239Y16694955D01*
X56920000Y16674318D01*
X57076760Y16694955D01*
X57222839Y16755463D01*
X57222842Y16755465D01*
X57348282Y16851718D01*
X57444536Y16977159D01*
X57505044Y17123238D01*
X57525682Y17280000D01*
X57505044Y17436762D01*
X57444536Y17582841D01*
X57348282Y17708282D01*
X57222841Y17804536D01*
X57076762Y17865044D01*
X56920000Y17885682D01*
X56853158Y17876881D01*
X56783013Y17887819D01*
X56747621Y17912705D01*
X56574862Y18085465D01*
X56500639Y18128318D01*
X56417853Y18150500D01*
X56417851Y18150500D01*
X56175255Y18150500D01*
X56107134Y18170502D01*
X56065946Y18218035D01*
X56065762Y18217912D01*
X56064780Y18219380D01*
X56060641Y18224158D01*
X56058870Y18228225D01*
X56058867Y18228228D01*
X56058867Y18228231D01*
X56024310Y18279947D01*
X56003095Y18347698D01*
X56021877Y18416165D01*
X56074694Y18463609D01*
X56080855Y18466357D01*
X56102837Y18475462D01*
X56102838Y18475463D01*
X56102841Y18475464D01*
X56228282Y18571718D01*
X56324536Y18697159D01*
X56385044Y18843238D01*
X56405682Y19000000D01*
X56385044Y19156762D01*
X56324536Y19302841D01*
X56228282Y19428282D01*
X56102841Y19524536D01*
X55956762Y19585044D01*
X55800000Y19605682D01*
X55643238Y19585044D01*
X55497159Y19524536D01*
X55371718Y19428282D01*
X55371716Y19428280D01*
X55371715Y19428279D01*
X55330676Y19374796D01*
X55273338Y19332929D01*
X55230714Y19325500D01*
X54962853Y19325500D01*
X54877147Y19325500D01*
X54794361Y19303318D01*
X54720138Y19260465D01*
X54720136Y19260463D01*
X54720131Y19260459D01*
X54134540Y18674868D01*
X54134537Y18674864D01*
X54134535Y18674862D01*
X54134534Y18674860D01*
X54091681Y18600638D01*
X54091681Y18600637D01*
X54084937Y18575466D01*
X54083933Y18571718D01*
X54069500Y18517853D01*
X54069500Y17217853D01*
X54069500Y17132147D01*
X54091682Y17049361D01*
X54091683Y17049359D01*
X54091684Y17049356D01*
X54134532Y16975141D01*
X54134540Y16975131D01*
X54482595Y16627077D01*
X54516621Y16564765D01*
X54519500Y16537982D01*
X54519500Y16210249D01*
X54531132Y16151771D01*
X54531133Y16151768D01*
X54575448Y16085448D01*
X54641771Y16041131D01*
X54653177Y16036407D01*
X54708457Y15991857D01*
X54730875Y15924493D01*
X54713315Y15855702D01*
X54661351Y15807326D01*
X54653177Y15803593D01*
X54641771Y15798868D01*
X54641769Y15798867D01*
X54575448Y15754552D01*
X54546730Y15711573D01*
X54531133Y15688231D01*
X54531132Y15688228D01*
X54519500Y15629750D01*
X54519500Y14940249D01*
X54531132Y14881771D01*
X54531133Y14881768D01*
X54575448Y14815448D01*
X54641771Y14771131D01*
X54653177Y14766407D01*
X54708457Y14721857D01*
X54730875Y14654493D01*
X54713315Y14585702D01*
X54661351Y14537326D01*
X54653177Y14533593D01*
X54641771Y14528868D01*
X54641769Y14528867D01*
X54575448Y14484552D01*
X54531133Y14418231D01*
X54531132Y14418228D01*
X54519500Y14359750D01*
X54519500Y13670249D01*
X54531132Y13611771D01*
X54531133Y13611768D01*
X54575448Y13545448D01*
X54641771Y13501131D01*
X54653177Y13496407D01*
X54708457Y13451857D01*
X54730875Y13384493D01*
X54713315Y13315702D01*
X54661351Y13267326D01*
X54653177Y13263593D01*
X54641771Y13258868D01*
X54641769Y13258867D01*
X54575448Y13214552D01*
X54535321Y13154498D01*
X54531133Y13148231D01*
X54531130Y13148224D01*
X54527182Y13128374D01*
X54494274Y13065465D01*
X54466604Y13043839D01*
X54464895Y13042852D01*
X54400138Y13005465D01*
X54400136Y13005463D01*
X54400131Y13005459D01*
X53939540Y12544868D01*
X53939532Y12544858D01*
X53896680Y12470636D01*
X53887613Y12436799D01*
X53887614Y12436799D01*
X53874500Y12387855D01*
X53874500Y10987017D01*
X53854498Y10918896D01*
X53837595Y10897922D01*
X53302078Y10362405D01*
X53239766Y10328379D01*
X53212983Y10325500D01*
X44642853Y10325500D01*
X44557147Y10325500D01*
X44474361Y10303318D01*
X44400138Y10260465D01*
X44400136Y10260463D01*
X44400131Y10260459D01*
X43739540Y9599868D01*
X43739532Y9599858D01*
X43696684Y9525643D01*
X43696679Y9525631D01*
X43688885Y9496544D01*
X43688886Y9496544D01*
X43674500Y9442853D01*
X43674500Y8091869D01*
X43654498Y8023748D01*
X43600842Y7977255D01*
X43530568Y7967151D01*
X43491299Y7979602D01*
X43383126Y8034719D01*
X43283488Y8050500D01*
X42716512Y8050500D01*
X42616874Y8034719D01*
X42508703Y7979603D01*
X42496780Y7973528D01*
X42401471Y7878219D01*
X42378282Y7832708D01*
X42340281Y7758126D01*
X42324500Y7658488D01*
X40375500Y7658488D01*
X40375500Y7783488D01*
X40359719Y7883126D01*
X40298528Y8003220D01*
X40203220Y8098528D01*
X40083126Y8159719D01*
X39983488Y8175500D01*
X39466512Y8175500D01*
X39366874Y8159719D01*
X39255247Y8102842D01*
X39246780Y8098528D01*
X39151471Y8003219D01*
X39135421Y7971718D01*
X39090281Y7883126D01*
X39074500Y7783488D01*
X31880548Y7783488D01*
X31884719Y7791674D01*
X31900500Y7891312D01*
X31900500Y8458288D01*
X31884719Y8557926D01*
X31823528Y8678020D01*
X31728220Y8773328D01*
X31608126Y8834519D01*
X31508488Y8850300D01*
X30991512Y8850300D01*
X30891874Y8834519D01*
X30771780Y8773328D01*
X30676472Y8678020D01*
X30676471Y8678018D01*
X30620973Y8569097D01*
X30572224Y8517482D01*
X30508706Y8500300D01*
X30131947Y8500300D01*
X30049162Y8478118D01*
X29988079Y8442852D01*
X29974938Y8435265D01*
X29372379Y7832706D01*
X29310069Y7798683D01*
X29266843Y7796881D01*
X29200000Y7805682D01*
X29043238Y7785044D01*
X28897159Y7724536D01*
X28771718Y7628282D01*
X28706165Y7542851D01*
X28675465Y7502842D01*
X28675463Y7502839D01*
X28614955Y7356760D01*
X28612098Y7335053D01*
X28583375Y7270126D01*
X28524110Y7231035D01*
X28487176Y7225500D01*
X27851500Y7225500D01*
X27783379Y7245502D01*
X27736886Y7299158D01*
X27725500Y7351500D01*
X27725500Y7674010D01*
X27745502Y7742131D01*
X27799158Y7788624D01*
X27835053Y7798932D01*
X27956760Y7814955D01*
X28102839Y7875463D01*
X28102842Y7875465D01*
X28106431Y7878219D01*
X28228282Y7971718D01*
X28324536Y8097159D01*
X28385044Y8243238D01*
X28405682Y8400000D01*
X28385044Y8556762D01*
X28324536Y8702841D01*
X28228282Y8828282D01*
X28102841Y8924536D01*
X27956762Y8985044D01*
X27843159Y9000000D01*
X35994318Y9000000D01*
X35994318Y8999999D01*
X36014955Y8843239D01*
X36075463Y8697160D01*
X36075465Y8697157D01*
X36171718Y8571718D01*
X36297157Y8475465D01*
X36297160Y8475463D01*
X36443239Y8414955D01*
X36600000Y8394318D01*
X36756760Y8414955D01*
X36902839Y8475463D01*
X36902842Y8475465D01*
X36906297Y8478116D01*
X37028282Y8571718D01*
X37124536Y8697159D01*
X37185044Y8843238D01*
X37203181Y8981002D01*
X37205682Y8999999D01*
X37205682Y9000000D01*
X37190016Y9118994D01*
X37185044Y9156762D01*
X37124536Y9302841D01*
X37028282Y9428282D01*
X36902841Y9524536D01*
X36756762Y9585044D01*
X36600000Y9605682D01*
X36443238Y9585044D01*
X36297159Y9524536D01*
X36171718Y9428282D01*
X36075465Y9302842D01*
X36075463Y9302839D01*
X36014955Y9156760D01*
X35994318Y9000000D01*
X27843159Y9000000D01*
X27800000Y9005682D01*
X27643238Y8985044D01*
X27497159Y8924536D01*
X27371718Y8828282D01*
X27275802Y8703281D01*
X27275465Y8702842D01*
X27275463Y8702839D01*
X27214955Y8556760D01*
X27194318Y8400000D01*
X27194318Y8399998D01*
X27203117Y8333158D01*
X27192177Y8263009D01*
X27167290Y8227618D01*
X27139540Y8199868D01*
X27139532Y8199858D01*
X27125469Y8175500D01*
X27096682Y8125639D01*
X27096680Y8125633D01*
X27096680Y8125632D01*
X27089705Y8099605D01*
X27089706Y8099605D01*
X27074500Y8042853D01*
X27074500Y7253945D01*
X27054498Y7185824D01*
X27030822Y7161724D01*
X27031662Y7160885D01*
X27022891Y7152114D01*
X27022888Y7152112D01*
X26990220Y7103220D01*
X26964760Y7065117D01*
X26964759Y7065116D01*
X26949500Y6988403D01*
X25950498Y6988403D01*
X25935240Y7065117D01*
X25877112Y7152112D01*
X25877105Y7152116D01*
X25868338Y7160885D01*
X25870179Y7162726D01*
X25835976Y7203644D01*
X25825500Y7253945D01*
X25825500Y7542851D01*
X25825500Y7542853D01*
X25803318Y7625638D01*
X25801793Y7628279D01*
X25776795Y7671578D01*
X25760465Y7699862D01*
X25699862Y7760465D01*
X25599862Y7860465D01*
X25525639Y7903318D01*
X25442853Y7925500D01*
X24442853Y7925500D01*
X24357147Y7925500D01*
X24274361Y7903318D01*
X24274356Y7903315D01*
X24226119Y7875465D01*
X24200138Y7860465D01*
X23477076Y7137403D01*
X23414766Y7103380D01*
X23387983Y7100500D01*
X14742347Y7100500D01*
X14674226Y7120502D01*
X14653252Y7137405D01*
X12487405Y9303252D01*
X12453379Y9365564D01*
X12450500Y9392347D01*
X12450500Y13249750D01*
X41544500Y13249750D01*
X41544500Y12670249D01*
X41556132Y12611771D01*
X41556133Y12611768D01*
X41600448Y12545448D01*
X41666768Y12501133D01*
X41666771Y12501132D01*
X41725249Y12489500D01*
X41725252Y12489500D01*
X42564750Y12489500D01*
X42623228Y12501132D01*
X42623231Y12501133D01*
X42629873Y12505571D01*
X42689552Y12545448D01*
X42733867Y12611769D01*
X42745500Y12670252D01*
X42745500Y13249748D01*
X42733867Y13308231D01*
X42689552Y13374552D01*
X42623231Y13418867D01*
X42564748Y13430500D01*
X41725252Y13430500D01*
X41666769Y13418867D01*
X41600448Y13374552D01*
X41567672Y13325500D01*
X41556133Y13308231D01*
X41556132Y13308228D01*
X41544500Y13249750D01*
X12450500Y13249750D01*
X12450500Y14100000D01*
X52069318Y14100000D01*
X52069318Y14099999D01*
X52089955Y13943239D01*
X52150463Y13797160D01*
X52150465Y13797157D01*
X52246718Y13671718D01*
X52372157Y13575465D01*
X52372160Y13575463D01*
X52518239Y13514955D01*
X52675000Y13494318D01*
X52831760Y13514955D01*
X52977839Y13575463D01*
X52977842Y13575465D01*
X53025153Y13611768D01*
X53103282Y13671718D01*
X53199536Y13797159D01*
X53260044Y13943238D01*
X53270747Y14024536D01*
X53280682Y14099999D01*
X53280682Y14100000D01*
X53268059Y14195879D01*
X53260044Y14256762D01*
X53199536Y14402841D01*
X53103282Y14528282D01*
X52977841Y14624536D01*
X52831762Y14685044D01*
X52675000Y14705682D01*
X52518238Y14685044D01*
X52372159Y14624536D01*
X52246718Y14528282D01*
X52150465Y14402842D01*
X52150463Y14402839D01*
X52089955Y14256760D01*
X52069318Y14100000D01*
X12450500Y14100000D01*
X12450500Y15200000D01*
X46794318Y15200000D01*
X46794318Y15199999D01*
X46814955Y15043239D01*
X46875463Y14897160D01*
X46875465Y14897157D01*
X46971718Y14771718D01*
X47097157Y14675465D01*
X47097160Y14675463D01*
X47243239Y14614955D01*
X47400000Y14594318D01*
X47556760Y14614955D01*
X47702839Y14675463D01*
X47702842Y14675465D01*
X47715326Y14685044D01*
X47828282Y14771718D01*
X47924536Y14897159D01*
X47985044Y15043238D01*
X48005682Y15200000D01*
X47985044Y15356762D01*
X47924536Y15502841D01*
X47828282Y15628282D01*
X47702841Y15724536D01*
X47556762Y15785044D01*
X47400000Y15805682D01*
X47243238Y15785044D01*
X47097159Y15724536D01*
X46971718Y15628282D01*
X46875465Y15502842D01*
X46875463Y15502839D01*
X46814955Y15356760D01*
X46794318Y15200000D01*
X12450500Y15200000D01*
X12450500Y17973500D01*
X12470502Y18041621D01*
X12524158Y18088114D01*
X12576500Y18099500D01*
X12969750Y18099500D01*
X13028228Y18111132D01*
X13028231Y18111133D01*
X13053948Y18128317D01*
X13094552Y18155448D01*
X13138867Y18221769D01*
X13150500Y18280252D01*
X13150500Y19100000D01*
X40694318Y19100000D01*
X40694318Y19099999D01*
X40714955Y18943239D01*
X40775463Y18797160D01*
X40775465Y18797157D01*
X40845017Y18706515D01*
X40871718Y18671718D01*
X40997159Y18575464D01*
X40997160Y18575463D01*
X41143239Y18514955D01*
X41300000Y18494318D01*
X41410361Y18508847D01*
X41480510Y18497908D01*
X41533608Y18450779D01*
X41552798Y18382425D01*
X41550386Y18359346D01*
X41544501Y18329758D01*
X41544500Y18329746D01*
X41544500Y17750249D01*
X41556132Y17691771D01*
X41556133Y17691768D01*
X41600448Y17625448D01*
X41666768Y17581133D01*
X41666771Y17581132D01*
X41725249Y17569500D01*
X41725252Y17569500D01*
X42564750Y17569500D01*
X42623228Y17581132D01*
X42623231Y17581133D01*
X42625789Y17582842D01*
X42689552Y17625448D01*
X42733867Y17691769D01*
X42745500Y17750252D01*
X42745500Y18276643D01*
X42765502Y18344764D01*
X42819158Y18391257D01*
X42855053Y18401565D01*
X42956760Y18414955D01*
X43102839Y18475463D01*
X43102842Y18475465D01*
X43127412Y18494318D01*
X43228282Y18571718D01*
X43324536Y18697159D01*
X43385044Y18843238D01*
X43405682Y19000000D01*
X43385044Y19156762D01*
X43324536Y19302841D01*
X43249983Y19400000D01*
X44194318Y19400000D01*
X44194318Y19399999D01*
X44214955Y19243239D01*
X44275463Y19097160D01*
X44275465Y19097157D01*
X44371718Y18971718D01*
X44497157Y18875465D01*
X44497160Y18875463D01*
X44643239Y18814955D01*
X44800000Y18794318D01*
X44956760Y18814955D01*
X45102839Y18875463D01*
X45102842Y18875465D01*
X45152203Y18913341D01*
X45228282Y18971718D01*
X45228284Y18971720D01*
X45300038Y19065231D01*
X45357376Y19107098D01*
X45428247Y19111320D01*
X45490150Y19076556D01*
X45499962Y19065231D01*
X45571715Y18971720D01*
X45697157Y18875465D01*
X45697160Y18875463D01*
X45843239Y18814955D01*
X46000000Y18794318D01*
X46156760Y18814955D01*
X46302839Y18875463D01*
X46302842Y18875465D01*
X46352203Y18913341D01*
X46428282Y18971718D01*
X46524536Y19097159D01*
X46585044Y19243238D01*
X46602364Y19374796D01*
X46605682Y19399999D01*
X46605682Y19400000D01*
X46589287Y19524534D01*
X46585044Y19556762D01*
X46524536Y19702841D01*
X46462828Y19783261D01*
X63662000Y19783261D01*
X63662000Y19416738D01*
X63671927Y19348605D01*
X63723301Y19243517D01*
X63723303Y19243514D01*
X63806014Y19160803D01*
X63806017Y19160801D01*
X63911105Y19109427D01*
X63979238Y19099500D01*
X63979240Y19099500D01*
X64148500Y19099500D01*
X64216621Y19079498D01*
X64263114Y19025842D01*
X64274500Y18973500D01*
X64274500Y18842853D01*
X64274500Y18757147D01*
X64296682Y18674361D01*
X64296683Y18674359D01*
X64296684Y18674356D01*
X64339532Y18600141D01*
X64339537Y18600135D01*
X64440806Y18498867D01*
X64739534Y18200139D01*
X64739535Y18200138D01*
X64769171Y18170502D01*
X64800136Y18139536D01*
X64800141Y18139532D01*
X64874357Y18096683D01*
X64886308Y18093481D01*
X64957147Y18074500D01*
X65042852Y18074500D01*
X65674026Y18074500D01*
X65742147Y18054498D01*
X65786293Y18005703D01*
X65846949Y17886658D01*
X65846951Y17886655D01*
X65936657Y17796949D01*
X66028313Y17750249D01*
X66049696Y17739354D01*
X66143481Y17724500D01*
X66143483Y17724500D01*
X66143484Y17724500D01*
X66606516Y17724500D01*
X66700302Y17739353D01*
X66813342Y17796949D01*
X66903050Y17886657D01*
X66947298Y17973500D01*
X66960646Y17999696D01*
X66975500Y18093481D01*
X66975499Y18706518D01*
X66960646Y18800304D01*
X66903050Y18913342D01*
X66813342Y19003050D01*
X66700304Y19060646D01*
X66606519Y19075500D01*
X66143482Y19075499D01*
X66049696Y19060646D01*
X65993177Y19031848D01*
X65936657Y19003050D01*
X65846951Y18913344D01*
X65846949Y18913341D01*
X65786293Y18794297D01*
X65737544Y18742682D01*
X65674026Y18725500D01*
X65187017Y18725500D01*
X65118896Y18745502D01*
X65097922Y18762405D01*
X64975922Y18884405D01*
X64941896Y18946717D01*
X64946961Y19017532D01*
X64989508Y19074368D01*
X65056028Y19099179D01*
X65065017Y19099500D01*
X65220761Y19099500D01*
X65288894Y19109427D01*
X65393982Y19160801D01*
X65393985Y19160803D01*
X65476696Y19243514D01*
X65476698Y19243517D01*
X65528072Y19348605D01*
X65528073Y19348607D01*
X65538000Y19416740D01*
X65538000Y19783260D01*
X65528073Y19851393D01*
X65476698Y19956483D01*
X65393983Y20039198D01*
X65288893Y20090573D01*
X65220760Y20100500D01*
X63979240Y20100500D01*
X63911107Y20090573D01*
X63911105Y20090572D01*
X63806017Y20039198D01*
X63806014Y20039196D01*
X63723303Y19956485D01*
X63723301Y19956482D01*
X63671927Y19851394D01*
X63662000Y19783261D01*
X46462828Y19783261D01*
X46428282Y19828282D01*
X46302841Y19924536D01*
X46156762Y19985044D01*
X46000000Y20005682D01*
X45843238Y19985044D01*
X45697159Y19924536D01*
X45571718Y19828282D01*
X45499961Y19734766D01*
X45442625Y19692901D01*
X45371754Y19688679D01*
X45309851Y19723443D01*
X45300042Y19734761D01*
X45228282Y19828282D01*
X45102841Y19924536D01*
X44956762Y19985044D01*
X44800000Y20005682D01*
X44643238Y19985044D01*
X44497159Y19924536D01*
X44371718Y19828282D01*
X44277644Y19705682D01*
X44275465Y19702842D01*
X44275463Y19702839D01*
X44214955Y19556760D01*
X44194318Y19400000D01*
X43249983Y19400000D01*
X43228282Y19428282D01*
X43102841Y19524536D01*
X42956762Y19585044D01*
X42800000Y19605682D01*
X42643238Y19585044D01*
X42497159Y19524536D01*
X42371718Y19428282D01*
X42292851Y19325500D01*
X42275465Y19302842D01*
X42275463Y19302839D01*
X42214955Y19156760D01*
X42194318Y19000000D01*
X42194318Y18999999D01*
X42214955Y18843239D01*
X42247925Y18763643D01*
X42271588Y18706516D01*
X42278625Y18689529D01*
X42276724Y18688741D01*
X42290850Y18630492D01*
X42267622Y18563403D01*
X42211811Y18519521D01*
X42164993Y18510500D01*
X41860078Y18510500D01*
X41791957Y18530502D01*
X41745464Y18584158D01*
X41735360Y18654432D01*
X41760115Y18713204D01*
X41784898Y18745502D01*
X41824536Y18797159D01*
X41885044Y18943238D01*
X41905682Y19100000D01*
X41885044Y19256762D01*
X41824536Y19402841D01*
X41728282Y19528282D01*
X41602841Y19624536D01*
X41456762Y19685044D01*
X41300000Y19705682D01*
X41143238Y19685044D01*
X40997159Y19624536D01*
X40871718Y19528282D01*
X40786132Y19416744D01*
X40775465Y19402842D01*
X40775463Y19402839D01*
X40714955Y19256760D01*
X40694318Y19100000D01*
X13150500Y19100000D01*
X13150500Y20719748D01*
X13138867Y20778231D01*
X13094552Y20844552D01*
X13028231Y20888867D01*
X12969748Y20900500D01*
X10530252Y20900500D01*
X10471769Y20888867D01*
X10405448Y20844552D01*
X10376610Y20801393D01*
X10361133Y20778231D01*
X10361132Y20778228D01*
X10349500Y20719750D01*
X8322422Y20719750D01*
X8375300Y20894066D01*
X8375442Y20895502D01*
X8385734Y21000000D01*
X53594318Y21000000D01*
X53594318Y20999999D01*
X53614955Y20843239D01*
X53675463Y20697160D01*
X53675465Y20697157D01*
X53771718Y20571718D01*
X53897157Y20475465D01*
X53897160Y20475463D01*
X54043239Y20414955D01*
X54200000Y20394318D01*
X54200002Y20394318D01*
X54266839Y20403117D01*
X54336988Y20392177D01*
X54372379Y20367292D01*
X54450135Y20289537D01*
X54450141Y20289532D01*
X54524356Y20246684D01*
X54524359Y20246683D01*
X54524361Y20246682D01*
X54607147Y20224500D01*
X61765128Y20224500D01*
X61833249Y20204498D01*
X61854223Y20187595D01*
X61931014Y20110803D01*
X61931017Y20110801D01*
X62036105Y20059427D01*
X62104238Y20049500D01*
X62104240Y20049500D01*
X63345761Y20049500D01*
X63413894Y20059427D01*
X63518982Y20110801D01*
X63518985Y20110803D01*
X63601696Y20193514D01*
X63601698Y20193517D01*
X63653072Y20298605D01*
X63653073Y20298607D01*
X63663000Y20366740D01*
X63663000Y20733260D01*
X63653073Y20801393D01*
X63601698Y20906483D01*
X63518983Y20989198D01*
X63413893Y21040573D01*
X63345760Y21050500D01*
X62104240Y21050500D01*
X62036107Y21040573D01*
X62036105Y21040572D01*
X61931017Y20989198D01*
X61931014Y20989196D01*
X61854223Y20912405D01*
X61791911Y20878379D01*
X61765128Y20875500D01*
X54931682Y20875500D01*
X54863561Y20895502D01*
X54817068Y20949158D01*
X54807760Y20991943D01*
X54806760Y20991812D01*
X54785044Y21156760D01*
X54785044Y21156762D01*
X54724536Y21302841D01*
X54719223Y21309765D01*
X65974500Y21309765D01*
X65974500Y20290234D01*
X65977314Y20260222D01*
X66021543Y20133822D01*
X66101070Y20026070D01*
X66208822Y19946543D01*
X66335223Y19902314D01*
X66335221Y19902314D01*
X66365234Y19899500D01*
X66948500Y19899500D01*
X67016621Y19879498D01*
X67063114Y19825842D01*
X67074500Y19773500D01*
X67074500Y19642853D01*
X67074500Y19557147D01*
X67096682Y19474361D01*
X67096683Y19474359D01*
X67096684Y19474356D01*
X67139532Y19400141D01*
X67139537Y19400135D01*
X67475889Y19063782D01*
X67509914Y19001470D01*
X67504849Y18930654D01*
X67499060Y18917484D01*
X67470034Y18860518D01*
X67439354Y18800304D01*
X67424500Y18706519D01*
X67424500Y18706518D01*
X67424500Y18706515D01*
X67424500Y18093483D01*
X67439353Y17999697D01*
X67496949Y17886657D01*
X67586657Y17796949D01*
X67678313Y17750249D01*
X67699696Y17739354D01*
X67793481Y17724500D01*
X67793483Y17724500D01*
X67793484Y17724500D01*
X68256516Y17724500D01*
X68350302Y17739353D01*
X68463342Y17796949D01*
X68553050Y17886657D01*
X68597298Y17973500D01*
X68610646Y17999696D01*
X68625500Y18093481D01*
X68625499Y18706518D01*
X68610646Y18800304D01*
X68553050Y18913342D01*
X68463342Y19003050D01*
X68384850Y19043043D01*
X68333235Y19091790D01*
X68332071Y19094137D01*
X68323243Y19109427D01*
X68285465Y19174862D01*
X68224862Y19235465D01*
X67762405Y19697922D01*
X67728379Y19760234D01*
X67725500Y19787017D01*
X67725500Y19982670D01*
X67745502Y20050791D01*
X67799158Y20097284D01*
X67869432Y20107388D01*
X67934012Y20077894D01*
X67952878Y20057492D01*
X67976067Y20026071D01*
X68083822Y19946543D01*
X68210223Y19902314D01*
X68210221Y19902314D01*
X68240234Y19899500D01*
X68240236Y19899500D01*
X68834765Y19899500D01*
X68864775Y19902314D01*
X68871596Y19904701D01*
X68942500Y19908319D01*
X69002305Y19874866D01*
X69037595Y19839576D01*
X69071621Y19777264D01*
X69074500Y19750481D01*
X69074500Y16569285D01*
X69054498Y16501164D01*
X69025203Y16469322D01*
X68971718Y16428282D01*
X68894808Y16328050D01*
X68875465Y16302842D01*
X68875463Y16302839D01*
X68814955Y16156760D01*
X68794318Y16000000D01*
X68794318Y15999999D01*
X68814955Y15843239D01*
X68875463Y15697160D01*
X68875465Y15697157D01*
X68971718Y15571718D01*
X69097157Y15475465D01*
X69097160Y15475463D01*
X69243239Y15414955D01*
X69400000Y15394318D01*
X69556760Y15414955D01*
X69702839Y15475463D01*
X69702842Y15475465D01*
X69728706Y15495311D01*
X69828282Y15571718D01*
X69924536Y15697159D01*
X69985044Y15843238D01*
X69999990Y15956762D01*
X70005682Y15999999D01*
X70005682Y16000000D01*
X70001532Y16031519D01*
X69985044Y16156762D01*
X69924536Y16302841D01*
X69828282Y16428282D01*
X69774796Y16469322D01*
X69732929Y16526659D01*
X69725500Y16569285D01*
X69725500Y19980350D01*
X69725500Y19980353D01*
X69713251Y20026070D01*
X69709734Y20039196D01*
X69707511Y20047487D01*
X69703318Y20063139D01*
X69660465Y20137362D01*
X69262403Y20535423D01*
X69228380Y20597734D01*
X69225500Y20624517D01*
X69225500Y21309759D01*
X69225500Y21309764D01*
X69222686Y21339774D01*
X69178455Y21466179D01*
X69098930Y21573930D01*
X68991179Y21653455D01*
X68991177Y21653455D01*
X68991177Y21653456D01*
X68896893Y21686447D01*
X68864777Y21697685D01*
X68864776Y21697685D01*
X68864774Y21697686D01*
X68834764Y21700500D01*
X68240236Y21700500D01*
X68210226Y21697686D01*
X68210223Y21697685D01*
X68210222Y21697685D01*
X68083822Y21653456D01*
X68083821Y21653455D01*
X67976070Y21573930D01*
X67939615Y21524536D01*
X67896543Y21466177D01*
X67852314Y21339777D01*
X67849500Y21309765D01*
X67849500Y20377518D01*
X67829498Y20309397D01*
X67775842Y20262904D01*
X67705568Y20252800D01*
X67640988Y20282294D01*
X67634405Y20288423D01*
X67589496Y20333331D01*
X67589486Y20333338D01*
X67387402Y20535422D01*
X67353379Y20597733D01*
X67350500Y20624516D01*
X67350500Y21309759D01*
X67350500Y21309764D01*
X67347686Y21339774D01*
X67303455Y21466179D01*
X67223930Y21573930D01*
X67116179Y21653455D01*
X67116177Y21653455D01*
X67116177Y21653456D01*
X67021893Y21686447D01*
X66989777Y21697685D01*
X66989776Y21697685D01*
X66989774Y21697686D01*
X66959764Y21700500D01*
X66365236Y21700500D01*
X66335226Y21697686D01*
X66335223Y21697685D01*
X66335222Y21697685D01*
X66208822Y21653456D01*
X66208821Y21653455D01*
X66101070Y21573930D01*
X66064615Y21524536D01*
X66021543Y21466177D01*
X65977314Y21339777D01*
X65974500Y21309765D01*
X54719223Y21309765D01*
X54628282Y21428282D01*
X54502841Y21524536D01*
X54356762Y21585044D01*
X54200000Y21605682D01*
X54043238Y21585044D01*
X53897159Y21524536D01*
X53771718Y21428282D01*
X53677832Y21305927D01*
X53675465Y21302842D01*
X53675463Y21302839D01*
X53614955Y21156760D01*
X53594318Y21000000D01*
X8385734Y21000000D01*
X8395583Y21099996D01*
X8395583Y21100003D01*
X8375301Y21305927D01*
X8375300Y21305928D01*
X8375300Y21305934D01*
X8315232Y21503954D01*
X8217685Y21686450D01*
X8086410Y21846410D01*
X7926450Y21977685D01*
X7796250Y22047278D01*
X7745603Y22097031D01*
X7729894Y22166267D01*
X7754110Y22233006D01*
X7810564Y22276058D01*
X7855648Y22284400D01*
X74293200Y22284400D01*
X74361321Y22264398D01*
X74407814Y22210742D01*
X74419200Y22158400D01*
X74419200Y20087344D01*
X74399198Y20019223D01*
X74345542Y19972730D01*
X74275268Y19962626D01*
X74210688Y19992120D01*
X74195804Y20007406D01*
X74110883Y20110883D01*
X73958538Y20235910D01*
X73784727Y20328814D01*
X73596132Y20386024D01*
X73596126Y20386024D01*
X73596125Y20386025D01*
X73400003Y20405341D01*
X73399997Y20405341D01*
X73203875Y20386025D01*
X73203873Y20386025D01*
X73203870Y20386024D01*
X73203868Y20386024D01*
X73015273Y20328814D01*
X72841462Y20235910D01*
X72689117Y20110883D01*
X72585843Y19985044D01*
X72564090Y19958538D01*
X72471186Y19784728D01*
X72413974Y19596126D01*
X72413974Y19596124D01*
X72394659Y19400003D01*
X72394659Y19399996D01*
X72413974Y19203875D01*
X72413974Y19203873D01*
X72471186Y19015271D01*
X72564090Y18841461D01*
X72689117Y18689117D01*
X72841461Y18564090D01*
X73015271Y18471186D01*
X73203874Y18413974D01*
X73399997Y18394659D01*
X73400000Y18394659D01*
X73400003Y18394659D01*
X73596124Y18413974D01*
X73596126Y18413974D01*
X73784728Y18471186D01*
X73958538Y18564090D01*
X74110883Y18689117D01*
X74195801Y18792589D01*
X74254478Y18832558D01*
X74325450Y18834458D01*
X74386182Y18797687D01*
X74417393Y18733919D01*
X74419200Y18712655D01*
X74419200Y-2654000D01*
X74399198Y-2722121D01*
X74345542Y-2768614D01*
X74293200Y-2780000D01*
X28282337Y-2780000D01*
X28214216Y-2759998D01*
X28167723Y-2706342D01*
X28157619Y-2636068D01*
X28187113Y-2571488D01*
X28219337Y-2544881D01*
X28331087Y-2480361D01*
X28388527Y-2447199D01*
X28586176Y-2295538D01*
X28762338Y-2119376D01*
X28913999Y-1921727D01*
X29038564Y-1705973D01*
X29133902Y-1475807D01*
X29198382Y-1235165D01*
X29230900Y-988165D01*
X29230900Y-739035D01*
X29198382Y-492035D01*
X29133902Y-251393D01*
X29038564Y-21227D01*
X29038558Y-21218D01*
X29038557Y-21214D01*
X29026309Y0D01*
X32194318Y0D01*
X32214955Y-156760D01*
X32254154Y-251393D01*
X32275464Y-302841D01*
X32371718Y-428282D01*
X32497159Y-524536D01*
X32643238Y-585044D01*
X32800000Y-605682D01*
X32956762Y-585044D01*
X33102841Y-524536D01*
X33228282Y-428282D01*
X33324536Y-302841D01*
X33385044Y-156762D01*
X33405682Y0D01*
X33385044Y156762D01*
X33324536Y302841D01*
X33228282Y428282D01*
X33102841Y524536D01*
X32956762Y585044D01*
X32800000Y605682D01*
X32643238Y585044D01*
X32497159Y524536D01*
X32371718Y428282D01*
X32275465Y302842D01*
X32275463Y302839D01*
X32214955Y156760D01*
X32194318Y0D01*
X29026309Y0D01*
X28961290Y112615D01*
X28913999Y194527D01*
X28762338Y392176D01*
X28586176Y568338D01*
X28388527Y719999D01*
X28249961Y800000D01*
X34794318Y800000D01*
X34794318Y799999D01*
X34814955Y643239D01*
X34875463Y497160D01*
X34875465Y497157D01*
X34971718Y371718D01*
X35097157Y275465D01*
X35097160Y275463D01*
X35243239Y214955D01*
X35400000Y194318D01*
X35400003Y194318D01*
X35466841Y203117D01*
X35536989Y192177D01*
X35572380Y167292D01*
X35600135Y139537D01*
X35600141Y139532D01*
X35674357Y96683D01*
X35706479Y88076D01*
X35757147Y74500D01*
X35998501Y74500D01*
X36066622Y54498D01*
X36113115Y842D01*
X36124500Y-51498D01*
X36124500Y-240572D01*
X36124500Y-375481D01*
X36104498Y-443602D01*
X36087595Y-464576D01*
X35581709Y-970462D01*
X35519397Y-1004488D01*
X35509062Y-1006289D01*
X35443239Y-1014955D01*
X35297160Y-1075463D01*
X35297157Y-1075465D01*
X35171718Y-1171718D01*
X35075465Y-1297157D01*
X35075463Y-1297160D01*
X35014955Y-1443239D01*
X34994318Y-1599999D01*
X34994318Y-1600000D01*
X35014955Y-1756760D01*
X35014956Y-1756762D01*
X35075464Y-1902841D01*
X35171718Y-2028282D01*
X35297159Y-2124536D01*
X35443238Y-2185044D01*
X35600000Y-2205682D01*
X35756762Y-2185044D01*
X35902841Y-2124536D01*
X36028282Y-2028282D01*
X36124536Y-1902841D01*
X36185044Y-1756762D01*
X36205682Y-1600000D01*
X36197636Y-1538886D01*
X36208575Y-1468739D01*
X36255703Y-1415640D01*
X36324057Y-1396450D01*
X36364172Y-1403511D01*
X36490302Y-1447646D01*
X36520735Y-1450500D01*
X38304264Y-1450499D01*
X38334698Y-1447646D01*
X38462882Y-1402793D01*
X38572150Y-1322150D01*
X38615537Y-1263363D01*
X38652791Y-1212885D01*
X38652793Y-1212881D01*
X38667197Y-1171718D01*
X38697646Y-1084698D01*
X38700500Y-1054265D01*
X38700500Y69748D01*
X46374500Y69748D01*
X46374500Y-769748D01*
X46386133Y-828231D01*
X46430448Y-894552D01*
X46496769Y-938867D01*
X46555252Y-950500D01*
X46555253Y-950500D01*
X46944747Y-950500D01*
X46944748Y-950500D01*
X47003231Y-938867D01*
X47069552Y-894552D01*
X47113867Y-828231D01*
X47125500Y-769748D01*
X47125500Y69748D01*
X47674500Y69748D01*
X47674500Y-769748D01*
X47686133Y-828231D01*
X47730448Y-894552D01*
X47796769Y-938867D01*
X47855252Y-950500D01*
X47855253Y-950500D01*
X48244747Y-950500D01*
X48244748Y-950500D01*
X48303231Y-938867D01*
X48369552Y-894552D01*
X48413867Y-828231D01*
X48425500Y-769748D01*
X48425500Y69748D01*
X48413867Y128231D01*
X48369552Y194552D01*
X48303231Y238867D01*
X48244748Y250500D01*
X47855252Y250500D01*
X47796769Y238867D01*
X47730448Y194552D01*
X47705197Y156762D01*
X47686133Y128231D01*
X47686132Y128228D01*
X47675445Y74500D01*
X47674500Y69748D01*
X47125500Y69748D01*
X47113867Y128231D01*
X47069552Y194552D01*
X47003231Y238867D01*
X46944748Y250500D01*
X46555252Y250500D01*
X46496769Y238867D01*
X46430448Y194552D01*
X46405197Y156762D01*
X46386133Y128231D01*
X46386132Y128228D01*
X46375445Y74500D01*
X46374500Y69748D01*
X38700500Y69748D01*
X38700500Y433261D01*
X53199500Y433261D01*
X53199500Y66738D01*
X53209427Y-1394D01*
X53260801Y-106482D01*
X53260803Y-106485D01*
X53343514Y-189196D01*
X53343517Y-189198D01*
X53448607Y-240573D01*
X53516740Y-250500D01*
X53516745Y-250500D01*
X54758255Y-250500D01*
X54758260Y-250500D01*
X54826393Y-240573D01*
X54931483Y-189198D01*
X54963921Y-156760D01*
X55008277Y-112405D01*
X55070589Y-78379D01*
X55097372Y-75500D01*
X65692851Y-75500D01*
X65692853Y-75500D01*
X65775639Y-53318D01*
X65849862Y-10465D01*
X66293588Y433261D01*
X66860459Y1000131D01*
X66860467Y1000141D01*
X66903315Y1074356D01*
X66903318Y1074361D01*
X66925500Y1157147D01*
X66925500Y1242853D01*
X66925500Y3212983D01*
X66945502Y3281104D01*
X66962405Y3302078D01*
X67497922Y3837595D01*
X67560234Y3871621D01*
X67587017Y3874500D01*
X67947596Y3874500D01*
X68015717Y3854498D01*
X68062210Y3800842D01*
X68072314Y3730568D01*
X68047558Y3671796D01*
X67975468Y3577847D01*
X67975463Y3577839D01*
X67914955Y3431760D01*
X67894318Y3275000D01*
X67894318Y3274999D01*
X67914955Y3118239D01*
X67975463Y2972160D01*
X67975465Y2972157D01*
X68071718Y2846718D01*
X68197157Y2750465D01*
X68197160Y2750463D01*
X68343239Y2689955D01*
X68500000Y2669318D01*
X68656760Y2689955D01*
X68802839Y2750463D01*
X68802842Y2750465D01*
X68859582Y2794003D01*
X68928282Y2846718D01*
X68928284Y2846720D01*
X68969324Y2900204D01*
X69026662Y2942071D01*
X69069286Y2949500D01*
X69717851Y2949500D01*
X69717853Y2949500D01*
X69800639Y2971682D01*
X69800641Y2971683D01*
X69800643Y2971684D01*
X69874858Y3014532D01*
X69874868Y3014540D01*
X71060459Y4200131D01*
X71060467Y4200141D01*
X71103315Y4274356D01*
X71103318Y4274361D01*
X71125500Y4357147D01*
X71125500Y4442853D01*
X71125500Y5137053D01*
X71145502Y5205174D01*
X71199158Y5251667D01*
X71269432Y5261771D01*
X71334012Y5232277D01*
X71346725Y5219565D01*
X71391550Y5167832D01*
X71500526Y5097798D01*
X71500533Y5097795D01*
X71624823Y5061301D01*
X71624825Y5061300D01*
X71624828Y5061300D01*
X71624832Y5061300D01*
X71754368Y5061300D01*
X71754372Y5061300D01*
X71754374Y5061300D01*
X71754376Y5061301D01*
X71878666Y5097795D01*
X71878669Y5097796D01*
X71878670Y5097796D01*
X71878673Y5097798D01*
X71987648Y5167832D01*
X71999032Y5180970D01*
X72072482Y5265737D01*
X72126297Y5383574D01*
X72144733Y5511800D01*
X72126297Y5640026D01*
X72072482Y5757863D01*
X71987649Y5855767D01*
X71878669Y5925804D01*
X71754372Y5962300D01*
X71624828Y5962300D01*
X71500531Y5925804D01*
X71500526Y5925801D01*
X71423711Y5876435D01*
X71391551Y5855767D01*
X71353283Y5811602D01*
X71346726Y5804035D01*
X71287000Y5765650D01*
X71216004Y5765649D01*
X71156277Y5804032D01*
X71126783Y5868612D01*
X71125500Y5886546D01*
X71125500Y13042852D01*
X71125500Y13042853D01*
X71112934Y13089750D01*
X71110949Y13097160D01*
X71103319Y13125634D01*
X71103318Y13125639D01*
X71081891Y13162750D01*
X71060465Y13199862D01*
X70999862Y13260465D01*
X70989496Y13270831D01*
X70989486Y13270838D01*
X70499862Y13760465D01*
X70425639Y13803318D01*
X70342853Y13825500D01*
X69257147Y13825500D01*
X69179864Y13804792D01*
X69147258Y13800500D01*
X67838469Y13800500D01*
X67770348Y13820502D01*
X67738507Y13849796D01*
X67678284Y13928279D01*
X67678282Y13928282D01*
X67552841Y14024536D01*
X67406762Y14085044D01*
X67250000Y14105682D01*
X67093238Y14085044D01*
X66947159Y14024536D01*
X66821718Y13928282D01*
X66761494Y13849796D01*
X66725465Y13802842D01*
X66725463Y13802839D01*
X66664955Y13656760D01*
X66644318Y13500000D01*
X66644318Y13499999D01*
X66664955Y13343239D01*
X66725463Y13197160D01*
X66725465Y13197157D01*
X66821718Y13071718D01*
X66947157Y12975465D01*
X66947160Y12975463D01*
X67093239Y12914955D01*
X67250000Y12894318D01*
X67406760Y12914955D01*
X67552839Y12975463D01*
X67552842Y12975465D01*
X67591939Y13005465D01*
X67678282Y13071718D01*
X67678284Y13071720D01*
X67738507Y13150204D01*
X67795844Y13192071D01*
X67838469Y13199500D01*
X69147258Y13199500D01*
X69179864Y13195207D01*
X69257147Y13174500D01*
X70112983Y13174500D01*
X70181104Y13154498D01*
X70202078Y13137595D01*
X70437595Y12902078D01*
X70471621Y12839766D01*
X70474500Y12812983D01*
X70474500Y10490018D01*
X70454498Y10421897D01*
X70400842Y10375404D01*
X70330568Y10365300D01*
X70265988Y10394794D01*
X70259405Y10400923D01*
X70189495Y10470832D01*
X70189485Y10470839D01*
X69632706Y11027618D01*
X69598682Y11089928D01*
X69596881Y11133154D01*
X69605682Y11200000D01*
X69585044Y11356762D01*
X69524536Y11502841D01*
X69428282Y11628282D01*
X69302841Y11724536D01*
X69156762Y11785044D01*
X69000000Y11805682D01*
X68843238Y11785044D01*
X68697159Y11724536D01*
X68571718Y11628282D01*
X68475465Y11502842D01*
X68475463Y11502839D01*
X68414955Y11356760D01*
X68394318Y11200000D01*
X68394318Y11199999D01*
X68414955Y11043239D01*
X68475463Y10897160D01*
X68475465Y10897157D01*
X68571718Y10771718D01*
X68697157Y10675465D01*
X68697160Y10675463D01*
X68843239Y10614955D01*
X69000000Y10594318D01*
X69000002Y10594318D01*
X69066842Y10603117D01*
X69136991Y10592177D01*
X69172382Y10567290D01*
X69323193Y10416479D01*
X69357219Y10354167D01*
X69352154Y10283352D01*
X69309607Y10226516D01*
X69250545Y10202462D01*
X69118238Y10185044D01*
X68972159Y10124536D01*
X68846718Y10028282D01*
X68846716Y10028280D01*
X68846715Y10028279D01*
X68786493Y9949796D01*
X68729156Y9907929D01*
X68686531Y9900500D01*
X66401661Y9900500D01*
X66333540Y9920502D01*
X66312566Y9937405D01*
X64140566Y12109405D01*
X64106540Y12171717D01*
X64111605Y12242532D01*
X64154152Y12299368D01*
X64220672Y12324179D01*
X64229661Y12324500D01*
X64389565Y12324500D01*
X64465985Y12344977D01*
X64465988Y12344978D01*
X64465989Y12344979D01*
X64534511Y12384540D01*
X64590460Y12440489D01*
X65190460Y13040489D01*
X65216733Y13085996D01*
X65216733Y13085995D01*
X65230018Y13109005D01*
X65230019Y13109007D01*
X65230021Y13109011D01*
X65234172Y13124500D01*
X65250499Y13185434D01*
X65250500Y13185438D01*
X65250500Y15839560D01*
X65250500Y15839562D01*
X65230021Y15915989D01*
X65230020Y15915989D01*
X65227883Y15923967D01*
X65230604Y15924696D01*
X65224039Y15974544D01*
X65230682Y16025000D01*
X65217477Y16125304D01*
X65210044Y16181762D01*
X65149536Y16327841D01*
X65053282Y16453282D01*
X64927841Y16549536D01*
X64781762Y16610044D01*
X64625000Y16630682D01*
X64468238Y16610044D01*
X64322159Y16549536D01*
X64196718Y16453282D01*
X64100465Y16327842D01*
X64100461Y16327835D01*
X64087118Y16295622D01*
X64042570Y16240341D01*
X63975206Y16217921D01*
X63906415Y16235480D01*
X63858037Y16287442D01*
X63854313Y16295596D01*
X63799536Y16427841D01*
X63703282Y16553282D01*
X63577841Y16649536D01*
X63431762Y16710044D01*
X63275000Y16730682D01*
X63118238Y16710044D01*
X62972159Y16649536D01*
X62846718Y16553282D01*
X62750464Y16427841D01*
X62695698Y16295624D01*
X62687336Y16275436D01*
X62642787Y16220156D01*
X62575424Y16197735D01*
X62506633Y16215293D01*
X62481831Y16234560D01*
X62478051Y16238339D01*
X62478050Y16238342D01*
X62388342Y16328050D01*
X62275304Y16385646D01*
X62181519Y16400500D01*
X61718482Y16400499D01*
X61624696Y16385646D01*
X61623515Y16385044D01*
X61511657Y16328050D01*
X61421949Y16238342D01*
X61383307Y16162502D01*
X61364354Y16125304D01*
X61349500Y16031519D01*
X61349500Y16031518D01*
X61349500Y16031515D01*
X61349500Y15418483D01*
X61364353Y15324697D01*
X61421949Y15211657D01*
X61421951Y15211655D01*
X61493012Y15140595D01*
X61527038Y15078283D01*
X61521973Y15007468D01*
X61479426Y14950632D01*
X61412906Y14925821D01*
X61403917Y14925500D01*
X61360438Y14925500D01*
X61360434Y14925499D01*
X61284013Y14905022D01*
X61284011Y14905021D01*
X61230908Y14874362D01*
X61215489Y14865460D01*
X60901594Y14551565D01*
X60839283Y14517541D01*
X60768468Y14522605D01*
X60723405Y14551565D01*
X60620477Y14654493D01*
X60440562Y14834408D01*
X60406540Y14896717D01*
X60411604Y14967532D01*
X60454151Y15024368D01*
X60520671Y15049179D01*
X60529641Y15049500D01*
X60531512Y15049500D01*
X60625302Y15064353D01*
X60738342Y15121949D01*
X60828050Y15211657D01*
X60874510Y15302841D01*
X60885646Y15324696D01*
X60900500Y15418481D01*
X60900499Y16031518D01*
X60885646Y16125304D01*
X60828050Y16238342D01*
X60738342Y16328050D01*
X60625304Y16385646D01*
X60531519Y16400500D01*
X60068482Y16400499D01*
X59974696Y16385646D01*
X59973515Y16385044D01*
X59861657Y16328050D01*
X59771950Y16238343D01*
X59749508Y16194297D01*
X59700759Y16142682D01*
X59637241Y16125500D01*
X59569286Y16125500D01*
X59501165Y16145502D01*
X59469324Y16174796D01*
X59428284Y16228279D01*
X59428282Y16228282D01*
X59302841Y16324536D01*
X59156762Y16385044D01*
X59000000Y16405682D01*
X58843238Y16385044D01*
X58697159Y16324536D01*
X58571718Y16228282D01*
X58492699Y16125302D01*
X58475465Y16102842D01*
X58475463Y16102839D01*
X58414955Y15956760D01*
X58394318Y15800000D01*
X58394318Y15799999D01*
X58414955Y15643239D01*
X58475463Y15497160D01*
X58475465Y15497157D01*
X58571720Y15371715D01*
X58581646Y15364099D01*
X58623512Y15306760D01*
X58627731Y15235889D01*
X58592965Y15173987D01*
X58553159Y15147732D01*
X58497159Y15124536D01*
X58371718Y15028282D01*
X58304168Y14940249D01*
X58275465Y14902842D01*
X58275463Y14902839D01*
X58214955Y14756760D01*
X58194318Y14600000D01*
X58194318Y14599999D01*
X58214955Y14443239D01*
X58275463Y14297160D01*
X58275465Y14297157D01*
X58371718Y14171718D01*
X58497157Y14075465D01*
X58497160Y14075463D01*
X58643239Y14014955D01*
X58800000Y13994318D01*
X58800002Y13994318D01*
X58831147Y13998418D01*
X58901296Y13987478D01*
X58954394Y13940349D01*
X58973583Y13871995D01*
X58952771Y13804118D01*
X58947555Y13796793D01*
X58880796Y13709789D01*
X58875465Y13702842D01*
X58875463Y13702839D01*
X58814955Y13556760D01*
X58794318Y13400000D01*
X58794318Y13399999D01*
X58814955Y13243239D01*
X58817927Y13236066D01*
X58825515Y13165476D01*
X58793734Y13101989D01*
X58749738Y13071443D01*
X58649944Y13030107D01*
X58524503Y12933853D01*
X58428250Y12808413D01*
X58428248Y12808410D01*
X58367740Y12662331D01*
X58347103Y12505571D01*
X58347103Y12505570D01*
X58367740Y12348810D01*
X58428248Y12202731D01*
X58428250Y12202728D01*
X58524505Y12077286D01*
X58607868Y12013320D01*
X58649735Y11955982D01*
X58653957Y11885111D01*
X58631128Y11836656D01*
X58624357Y11827831D01*
X58624352Y11827824D01*
X58563844Y11681745D01*
X58543207Y11524985D01*
X58543207Y11524984D01*
X58563844Y11368224D01*
X58624352Y11222145D01*
X58624354Y11222142D01*
X58720607Y11096703D01*
X58846046Y11000450D01*
X58846049Y11000448D01*
X58992128Y10939940D01*
X59148889Y10919303D01*
X59148891Y10919303D01*
X59276650Y10936122D01*
X59346798Y10925182D01*
X59399896Y10878054D01*
X59411741Y10850844D01*
X59411796Y10850867D01*
X59413059Y10847817D01*
X59414799Y10843821D01*
X59414953Y10843243D01*
X59475463Y10697160D01*
X59475465Y10697157D01*
X59571718Y10571718D01*
X59697157Y10475465D01*
X59697160Y10475463D01*
X59843239Y10414955D01*
X60000000Y10394318D01*
X60156760Y10414955D01*
X60302839Y10475463D01*
X60302842Y10475465D01*
X60366790Y10524534D01*
X60428282Y10571718D01*
X60524536Y10697159D01*
X60585044Y10843238D01*
X60605682Y11000000D01*
X60592769Y11098083D01*
X60603708Y11168231D01*
X60628596Y11203624D01*
X60665454Y11240482D01*
X60665462Y11240492D01*
X60705019Y11309007D01*
X60705022Y11309012D01*
X60725500Y11385438D01*
X60725500Y11419745D01*
X60745502Y11487866D01*
X60793036Y11529054D01*
X60792913Y11529239D01*
X60794381Y11530220D01*
X60799158Y11534359D01*
X60803224Y11536129D01*
X60803229Y11536132D01*
X60803231Y11536133D01*
X60869552Y11580448D01*
X60913867Y11646769D01*
X60925500Y11705252D01*
X60925500Y11944748D01*
X60914426Y12000420D01*
X60914426Y12049581D01*
X60925500Y12105252D01*
X60925500Y12344748D01*
X60914426Y12400420D01*
X60914426Y12449581D01*
X60925500Y12505252D01*
X60925500Y12744748D01*
X60919698Y12773919D01*
X60926026Y12844633D01*
X60969581Y12900700D01*
X61036533Y12924319D01*
X61043277Y12924500D01*
X61106723Y12924500D01*
X61174844Y12904498D01*
X61221337Y12850842D01*
X61231441Y12780568D01*
X61230302Y12773919D01*
X61224500Y12744753D01*
X61224500Y12505246D01*
X61235573Y12449581D01*
X61235573Y12400419D01*
X61224500Y12344753D01*
X61224500Y12105246D01*
X61235573Y12049581D01*
X61235573Y12000419D01*
X61224500Y11944753D01*
X61224500Y11705249D01*
X61236132Y11646771D01*
X61236133Y11646768D01*
X61280448Y11580448D01*
X61346768Y11536133D01*
X61346771Y11536132D01*
X61405249Y11524500D01*
X61405252Y11524500D01*
X61548339Y11524500D01*
X61616460Y11504498D01*
X61637434Y11487595D01*
X66165482Y6959545D01*
X66165492Y6959537D01*
X66234007Y6919980D01*
X66234014Y6919977D01*
X66269484Y6910473D01*
X66310438Y6899500D01*
X66389562Y6899500D01*
X68411531Y6899500D01*
X68479652Y6879498D01*
X68511493Y6850204D01*
X68571715Y6771720D01*
X68697157Y6675465D01*
X68697160Y6675463D01*
X68843239Y6614955D01*
X69000000Y6594318D01*
X69156760Y6614955D01*
X69302839Y6675463D01*
X69302842Y6675465D01*
X69360882Y6720000D01*
X69428282Y6771718D01*
X69428284Y6771720D01*
X69448538Y6798116D01*
X69505876Y6839983D01*
X69576747Y6844204D01*
X69638650Y6809439D01*
X69671931Y6746726D01*
X69674500Y6721411D01*
X69674500Y5987016D01*
X69654498Y5918895D01*
X69637595Y5897921D01*
X68302078Y4562405D01*
X68239766Y4528379D01*
X68212983Y4525500D01*
X67442853Y4525500D01*
X67357147Y4525500D01*
X67274361Y4503318D01*
X67270630Y4501164D01*
X67215479Y4469322D01*
X67200138Y4460465D01*
X67200136Y4460463D01*
X67200131Y4460459D01*
X66339540Y3599868D01*
X66339532Y3599858D01*
X66296683Y3525641D01*
X66296681Y3525637D01*
X66295456Y3521063D01*
X66274500Y3442853D01*
X66274500Y1387017D01*
X66254498Y1318896D01*
X66237595Y1297922D01*
X65552078Y612405D01*
X65489766Y578379D01*
X65462983Y575500D01*
X55097372Y575500D01*
X55029251Y595502D01*
X55008277Y612405D01*
X54931485Y689196D01*
X54931483Y689198D01*
X54826393Y740573D01*
X54758260Y750500D01*
X53516740Y750500D01*
X53448607Y740573D01*
X53448605Y740572D01*
X53343517Y689198D01*
X53343514Y689196D01*
X53260803Y606485D01*
X53260801Y606482D01*
X53209427Y501394D01*
X53199500Y433261D01*
X38700500Y433261D01*
X38700499Y1854264D01*
X38697646Y1884698D01*
X38652793Y2012882D01*
X38641466Y2028229D01*
X38572150Y2122150D01*
X38462885Y2202791D01*
X38462884Y2202791D01*
X38462882Y2202793D01*
X38334698Y2247646D01*
X38304265Y2250500D01*
X37863999Y2250499D01*
X37795879Y2270501D01*
X37749386Y2324156D01*
X37738000Y2376499D01*
X37738000Y2430352D01*
X37738000Y2430353D01*
X37715818Y2513138D01*
X37715818Y2513139D01*
X37681997Y2571718D01*
X37672965Y2587362D01*
X37612362Y2647965D01*
X37601995Y2658332D01*
X37601985Y2658339D01*
X37432706Y2827618D01*
X37398682Y2889928D01*
X37396881Y2933154D01*
X37405682Y3000000D01*
X37385044Y3156762D01*
X37324536Y3302841D01*
X37228282Y3428282D01*
X37102841Y3524536D01*
X36956762Y3585044D01*
X36800000Y3605682D01*
X36643238Y3585044D01*
X36497159Y3524536D01*
X36371718Y3428282D01*
X36275465Y3302842D01*
X36275463Y3302839D01*
X36214955Y3156760D01*
X36194318Y3000000D01*
X36194318Y2999999D01*
X36214955Y2843239D01*
X36275463Y2697160D01*
X36275465Y2697157D01*
X36371718Y2571718D01*
X36497162Y2475461D01*
X36502393Y2472442D01*
X36551386Y2421060D01*
X36564823Y2351346D01*
X36538436Y2285435D01*
X36481008Y2244394D01*
X36362118Y2202793D01*
X36362116Y2202791D01*
X36362114Y2202791D01*
X36252849Y2122150D01*
X36172208Y2012885D01*
X36172206Y2012881D01*
X36127355Y1884703D01*
X36127354Y1884699D01*
X36124500Y1854265D01*
X36124500Y1213426D01*
X36104498Y1145305D01*
X36050842Y1098812D01*
X35980568Y1088708D01*
X35915988Y1118202D01*
X35898537Y1136723D01*
X35891952Y1145305D01*
X35828282Y1228282D01*
X35702841Y1324536D01*
X35556762Y1385044D01*
X35400000Y1405682D01*
X35243238Y1385044D01*
X35097159Y1324536D01*
X34971718Y1228282D01*
X34887251Y1118202D01*
X34875465Y1102842D01*
X34875463Y1102839D01*
X34814955Y956760D01*
X34794318Y800000D01*
X28249961Y800000D01*
X28172773Y844564D01*
X27942607Y939902D01*
X27701965Y1004382D01*
X27701958Y1004382D01*
X27701958Y1004383D01*
X27678190Y1007511D01*
X27454965Y1036900D01*
X27205835Y1036900D01*
X27052689Y1016738D01*
X26958841Y1004383D01*
X26958839Y1004382D01*
X26958835Y1004382D01*
X26718193Y939902D01*
X26488027Y844564D01*
X26488018Y844558D01*
X26488014Y844557D01*
X26281801Y725500D01*
X26272273Y719999D01*
X26074624Y568338D01*
X26074618Y568332D01*
X26074613Y568328D01*
X25898471Y392186D01*
X25898466Y392180D01*
X25898462Y392176D01*
X25746820Y194552D01*
X25746798Y194523D01*
X25622242Y-21214D01*
X25622237Y-21225D01*
X25622236Y-21227D01*
X25552661Y-189196D01*
X25526898Y-251393D01*
X25526897Y-251397D01*
X25462416Y-492041D01*
X25429900Y-739032D01*
X25429900Y-988167D01*
X25462416Y-1235158D01*
X25462418Y-1235165D01*
X25526898Y-1475807D01*
X25622236Y-1705973D01*
X25622237Y-1705974D01*
X25622242Y-1705985D01*
X25746798Y-1921723D01*
X25746800Y-1921726D01*
X25746801Y-1921727D01*
X25898462Y-2119376D01*
X25898466Y-2119380D01*
X25898471Y-2119386D01*
X26074613Y-2295528D01*
X26074618Y-2295532D01*
X26074624Y-2295538D01*
X26272273Y-2447199D01*
X26272276Y-2447201D01*
X26441463Y-2544881D01*
X26490456Y-2596263D01*
X26503892Y-2665977D01*
X26477506Y-2731888D01*
X26419674Y-2773070D01*
X26378463Y-2780000D01*
X3751000Y-2780000D01*
X3682879Y-2759998D01*
X3636386Y-2706342D01*
X3625000Y-2654000D01*
X3625000Y2794003D01*
X5217659Y2794003D01*
X5217659Y2793996D01*
X5236974Y2597875D01*
X5236974Y2597873D01*
X5294186Y2409271D01*
X5387090Y2235461D01*
X5512117Y2083117D01*
X5664461Y1958090D01*
X5838271Y1865186D01*
X6026874Y1807974D01*
X6222997Y1788659D01*
X6223000Y1788659D01*
X6223003Y1788659D01*
X6419124Y1807974D01*
X6419126Y1807974D01*
X6607728Y1865186D01*
X6781538Y1958090D01*
X6843782Y2009173D01*
X6933883Y2083117D01*
X7058910Y2235462D01*
X7151814Y2409273D01*
X7209024Y2597868D01*
X7209024Y2597870D01*
X7209025Y2597873D01*
X7209025Y2597875D01*
X7228341Y2793996D01*
X7228341Y2794003D01*
X7209025Y2990124D01*
X7209025Y2990126D01*
X7209024Y2990127D01*
X7209024Y2990132D01*
X7151814Y3178727D01*
X7058910Y3352538D01*
X6933883Y3504883D01*
X6781538Y3629910D01*
X6607727Y3722814D01*
X6419132Y3780024D01*
X6419126Y3780024D01*
X6419125Y3780025D01*
X6223003Y3799341D01*
X6222997Y3799341D01*
X6026875Y3780025D01*
X6026873Y3780025D01*
X6026870Y3780024D01*
X6026868Y3780024D01*
X5838273Y3722814D01*
X5664462Y3629910D01*
X5512117Y3504883D01*
X5425928Y3399862D01*
X5387090Y3352538D01*
X5294186Y3178728D01*
X5236974Y2990126D01*
X5236974Y2990124D01*
X5217659Y2794003D01*
X3625000Y2794003D01*
X3625000Y19990290D01*
X3645002Y20058411D01*
X3698658Y20104904D01*
X3768932Y20115008D01*
X3821002Y20095055D01*
X3871768Y20061133D01*
X3871771Y20061132D01*
X3930249Y20049500D01*
X3930252Y20049500D01*
X5669750Y20049500D01*
X5728228Y20061132D01*
X5728231Y20061133D01*
X5753315Y20077894D01*
X5794552Y20105448D01*
X5838867Y20171769D01*
X5850500Y20230252D01*
X5850500Y21969748D01*
X5838867Y22028231D01*
X5798663Y22088398D01*
X5777449Y22156150D01*
X5796232Y22224617D01*
X5849049Y22272061D01*
X5903429Y22284400D01*
X6824352Y22284400D01*
X6892473Y22264398D01*
G37*
%TD.AperFunction*%
%TD*%
M02*
