M48
; DRILL file {KiCad 8.0.5} date 2024-09-13T15:02:41+0300
; FORMAT={-:-/ absolute / inch / decimal}
; #@! TF.CreationDate,2024-09-13T15:02:41+03:00
; #@! TF.GenerationSoftware,Kicad,Pcbnew,8.0.5
; #@! TF.FileFunction,Plated,1,4,PTH
FMAT,2
INCH
; #@! TA.AperFunction,Plated,PTH,ViaDrill
T1C0.0079
; #@! TA.AperFunction,Plated,PTH,ComponentDrill
T2C0.0098
; #@! TA.AperFunction,Plated,PTH,ViaDrill
T3C0.0157
; #@! TA.AperFunction,Plated,PTH,ComponentDrill
T4C0.0394
; #@! TA.AperFunction,Plated,PTH,ComponentDrill
T5C0.0472
%
G90
G05
T1
X0.1903Y0.5565
X0.1903Y0.4975
X0.1903Y0.4384
X0.1903Y0.2022
X0.1903Y0.1432
X0.1903Y0.0841
X0.1903Y0.0251
X0.1903Y-0.034
X0.1903Y-0.0931
X0.2493Y0.0251
X0.3084Y0.7337
X0.3084Y0.1432
X0.3084Y0.0841
X0.3084Y0.0251
X0.3674Y0.7337
X0.3674Y0.6747
X0.3674Y0.1432
X0.3674Y0.0841
X0.3674Y0.0251
X0.4265Y0.2022
X0.4265Y0.1432
X0.4265Y0.0841
X0.4265Y0.0251
X0.4856Y0.8518
X0.5446Y0.8518
X0.5446Y0.7928
X0.5446Y0.7337
X0.5446Y0.6747
X0.5446Y0.6156
X0.5446Y0.5565
X0.5446Y0.4975
X0.5446Y0.4384
X0.5446Y0.3794
X0.5446Y0.2022
X0.6037Y0.8518
X0.6037Y0.7928
X0.6037Y0.7337
X0.6037Y0.6156
X0.6037Y0.5565
X0.6037Y0.4975
X0.6037Y0.4384
X0.6037Y0.3794
X0.6037Y0.3203
X0.6037Y0.2022
X0.6037Y0.1432
X0.6627Y0.5565
X0.7218Y0.5565
X0.7218Y-0.034
X0.7218Y-0.0931
X0.7808Y0.6156
X0.7808Y0.5565
X0.7808Y-0.034
X0.7808Y-0.0931
X0.8399Y0.6156
X0.8399Y0.5565
X0.8399Y-0.034
X0.8399Y-0.0931
X0.8989Y0.7337
X0.8989Y0.6747
X0.8989Y0.6156
X0.8989Y0.5565
X0.8989Y-0.034
X0.8989Y-0.0931
X0.958Y0.8518
X0.958Y0.7928
X0.958Y0.7337
X0.958Y0.6747
X0.958Y0.6156
X0.958Y0.5565
X0.958Y0.0251
X0.958Y-0.034
X0.958Y-0.0931
X1.017Y0.8518
X1.017Y0.7928
X1.017Y0.7337
X1.017Y0.6747
X1.017Y0.6156
X1.017Y0.5565
X1.017Y0.4975
X1.017Y0.4384
X1.017Y0.3794
X1.0761Y0.8518
X1.0761Y0.6747
X1.0761Y0.6156
X1.0761Y0.5565
X1.0761Y0.4975
X1.0761Y0.4384
X1.1339Y0.7087
X1.1339Y0.6614
X1.1339Y0.6378
X1.1339Y0.6142
X1.1352Y0.4975
X1.1417Y0.685
X1.1942Y0.4975
X1.1942Y0.0251
X1.1942Y-0.034
X1.1942Y-0.0931
X1.2047Y0.6693
X1.2126Y0.7165
X1.2126Y0.6929
X1.2283Y0.6772
X1.2283Y0.5906
X1.252Y0.6772
X1.252Y0.5906
X1.2533Y0.8518
X1.2533Y0.4975
X1.2533Y-0.0931
X1.2756Y0.6772
X1.2756Y0.5906
X1.2992Y0.6772
X1.2992Y0.5906
X1.3123Y0.8518
X1.3123Y0.7928
X1.3123Y0.7337
X1.3123Y0.4975
X1.3123Y0.4384
X1.3123Y0.3794
X1.3123Y-0.0931
X1.3228Y0.6772
X1.3228Y0.5906
X1.3465Y0.6772
X1.3701Y0.6772
X1.3714Y0.8518
X1.3714Y0.7928
X1.3714Y0.7337
X1.3714Y0.4975
X1.3714Y0.4384
X1.3714Y0.3794
X1.3937Y0.6693
X1.3937Y0.5984
X1.4173Y0.6693
X1.4173Y0.5984
X1.4304Y0.8518
X1.4304Y0.7928
X1.4304Y0.7337
X1.4304Y0.4975
X1.4304Y0.4384
X1.4409Y0.6693
X1.4409Y0.5984
X1.4895Y0.8518
X1.4895Y0.7928
X1.4895Y-0.0931
X1.5485Y0.8518
X1.5485Y0.7928
X1.5485Y0.0841
X1.5485Y-0.0931
X1.6076Y0.0841
X1.6076Y-0.0931
X1.6667Y0.1432
X1.6667Y-0.0931
X1.7257Y-0.0931
X1.7848Y0.8518
X1.7848Y-0.0931
X1.8438Y0.8518
X1.8438Y-0.0931
X1.9029Y0.8518
X1.9029Y0.7928
X1.9029Y-0.0931
X1.9619Y0.0841
X1.9619Y-0.0931
X2.021Y0.7337
X2.021Y0.6747
X2.021Y0.6156
X2.021Y-0.0931
X2.08Y-0.0931
X2.1391Y-0.0931
X2.1981Y0.2613
X2.1981Y0.0841
X2.1981Y-0.0931
X2.2572Y0.0841
X2.2572Y-0.0931
X2.3163Y0.2022
X2.3163Y0.1432
X2.3163Y0.0841
X2.3163Y-0.0931
X2.3753Y-0.0931
X2.4344Y-0.0931
X2.4934Y-0.0931
X2.5525Y0.8518
X2.5525Y-0.034
X2.5525Y-0.0931
X2.6115Y-0.0931
X2.6706Y0.0251
X2.6706Y-0.0931
X2.7296Y0.0251
X2.7296Y-0.034
X2.7296Y-0.0931
X2.7887Y0.0841
X2.7887Y0.0251
X2.7887Y-0.034
X2.7887Y-0.0931
X2.8478Y0.5565
X2.8478Y0.4975
X2.8478Y0.4384
X2.8478Y0.3794
X2.8478Y0.3203
X2.8478Y0.2613
X2.8478Y0.1432
X2.8478Y0.0841
X2.8478Y0.0251
X2.8478Y-0.034
X2.8478Y-0.0931
X2.9068Y0.5565
X2.9068Y0.4975
X2.9068Y0.4384
X2.9068Y0.3794
X2.9068Y0.3203
X2.9068Y0.2613
X2.9068Y0.2022
X2.9068Y0.1432
X2.9068Y0.0841
X2.9068Y0.0251
X2.9068Y-0.034
X2.9068Y-0.0931
T2
X1.0413Y0.2618
X1.0413Y0.2224
T3
X0.714Y0.637
X0.8031Y0.189
X0.894Y0.838
X0.9843Y0.189
X1.0394Y0.1339
X1.0945Y0.3307
X1.1496Y0.2835
X1.1654Y0.2362
X1.2913Y0.0
X1.3937Y0.0315
X1.4016Y-0.063
X1.4252Y0.1732
X1.4409Y0.3543
X1.4488Y0.1181
X1.4803Y0.1811
X1.5669Y0.1654
X1.626Y0.752
X1.685Y0.748
X1.7323Y0.1811
X1.7638Y0.7638
X1.7795Y0.1575
X1.811Y0.7638
X1.8346Y0.1575
X1.8661Y0.5984
X1.8898Y0.1654
X2.0Y0.2047
X2.0394Y0.3258
X2.0738Y0.5551
X2.1339Y0.8268
X2.1969Y0.748
X2.2313Y0.5906
X2.2409Y0.6803
X2.2756Y0.3937
X2.3071Y0.3071
X2.315Y0.5748
X2.321Y0.4923
X2.3228Y0.622
X2.3287Y0.4537
X2.3386Y0.5276
X2.3622Y0.4331
X2.4911Y0.6348
X2.501Y0.563
X2.5198Y0.307
X2.5443Y0.6309
X2.6476Y0.5315
X2.6969Y0.1289
X2.7165Y0.4409
X2.7165Y0.2835
X2.7274Y0.378
X2.7323Y0.6299
T4
X0.189Y0.8307
X0.289Y0.8307
T5
X0.315Y-0.0591
X0.4626Y0.7677
X0.4626Y-0.0591
X0.6102Y-0.0591
M30
