%TF.GenerationSoftware,KiCad,Pcbnew,8.0.5*%
%TF.CreationDate,2025-03-27T16:57:56+00:00*%
%TF.ProjectId,UC_V4_4904-30028-06,55435f56-345f-4343-9930-342d33303032,rev?*%
%TF.SameCoordinates,Original*%
%TF.FileFunction,Copper,L2,Inr*%
%TF.FilePolarity,Positive*%
%FSLAX46Y46*%
G04 Gerber Fmt 4.6, Leading zero omitted, Abs format (unit mm)*
G04 Created by KiCad (PCBNEW 8.0.5) date 2025-03-27 16:57:56*
%MOMM*%
%LPD*%
G01*
G04 APERTURE LIST*
%TA.AperFunction,ComponentPad*%
%ADD10R,1.700000X1.700000*%
%TD*%
%TA.AperFunction,ComponentPad*%
%ADD11O,1.700000X1.700000*%
%TD*%
%TA.AperFunction,ComponentPad*%
%ADD12R,2.400000X2.400000*%
%TD*%
%TA.AperFunction,ComponentPad*%
%ADD13C,2.400000*%
%TD*%
%TA.AperFunction,ViaPad*%
%ADD14C,0.800000*%
%TD*%
G04 APERTURE END LIST*
D10*
%TO.N,GND*%
%TO.C,J4*%
X133418200Y-92198200D03*
D11*
%TO.N,/SWDIO*%
X130878200Y-92198200D03*
%TO.N,/SWCLK*%
X128338200Y-92198200D03*
%TO.N,/+3V3*%
X125798200Y-92198200D03*
%TD*%
D12*
%TO.N,/Uext*%
%TO.C,BT1*%
X181618200Y-96648200D03*
D13*
%TO.N,GND*%
X202618200Y-96648200D03*
X202618200Y-92898200D03*
X202618200Y-100398200D03*
%TD*%
D10*
%TO.N,/+5V*%
%TO.C,J3*%
X101108200Y-110148200D03*
D11*
X101108200Y-107608200D03*
%TO.N,GND*%
X103648200Y-110148200D03*
X103648200Y-107608200D03*
X106188200Y-110148200D03*
X106188200Y-107608200D03*
%TD*%
D14*
%TO.N,GND*%
X103648200Y-90638200D03*
X152728200Y-107608200D03*
X121428200Y-113498200D03*
X168925400Y-99595600D03*
X123968200Y-118578200D03*
X126508200Y-118578200D03*
X106188200Y-118578200D03*
X187468200Y-90638200D03*
X174742000Y-117578800D03*
X177282000Y-117553400D03*
X108728200Y-116038200D03*
X106188200Y-113498200D03*
X202708200Y-100798200D03*
X106188200Y-103338200D03*
X111268200Y-110958200D03*
X116348200Y-118578200D03*
X123968200Y-113498200D03*
X111268200Y-108418200D03*
X116348200Y-116038200D03*
X197628200Y-93178200D03*
X121428200Y-105878200D03*
X120182800Y-103685000D03*
X174768200Y-95718200D03*
X197628200Y-90638200D03*
X168823800Y-110568400D03*
X126508200Y-105878200D03*
X106188200Y-116038200D03*
X112715200Y-91340600D03*
X111268200Y-116038200D03*
X107393200Y-98798200D03*
X121428200Y-118578200D03*
X106188200Y-93178200D03*
X141018200Y-90898200D03*
X169688200Y-93178200D03*
X116348200Y-103338200D03*
X145854400Y-94956800D03*
X111268200Y-100798200D03*
X108728200Y-105878200D03*
X134128200Y-116038200D03*
X121428200Y-110958200D03*
X101108200Y-118578200D03*
X111268200Y-105878200D03*
X118888200Y-108418200D03*
X126508200Y-108418200D03*
X103648200Y-105878200D03*
X202818200Y-108448200D03*
X157030400Y-94118600D03*
X106188200Y-105878200D03*
X164302600Y-118671000D03*
X150756600Y-102805400D03*
X135194200Y-97766800D03*
X190008200Y-90638200D03*
X123568200Y-100123200D03*
X200168200Y-95718200D03*
X111268200Y-118578200D03*
X200168200Y-93178200D03*
X190008200Y-95718200D03*
X130309600Y-103694400D03*
X113808200Y-105878200D03*
X123968200Y-105878200D03*
X113808200Y-116038200D03*
X118693200Y-93798200D03*
X103648200Y-103338200D03*
X202708200Y-110958200D03*
X116348200Y-110958200D03*
X131588200Y-118578200D03*
X113808200Y-103338200D03*
X145709800Y-106016000D03*
X190008200Y-118578200D03*
X121368200Y-95298200D03*
X108728200Y-100798200D03*
X121428200Y-108418200D03*
X129048200Y-118578200D03*
X171490800Y-118086800D03*
X202708200Y-113498200D03*
X164759800Y-111584400D03*
X108728200Y-110958200D03*
X174768200Y-98258200D03*
X118888200Y-116038200D03*
X123968200Y-108418200D03*
X108728200Y-113498200D03*
X113808200Y-108418200D03*
X126508200Y-116038200D03*
X161568200Y-94898200D03*
X106188200Y-90638200D03*
X118888200Y-118578200D03*
X142577800Y-100392400D03*
X156166800Y-99071600D03*
X116348200Y-90638200D03*
X107693200Y-91673200D03*
X167503000Y-118594800D03*
X126508200Y-110958200D03*
X172228200Y-93178200D03*
X116348200Y-108418200D03*
X190008200Y-116038200D03*
X200168200Y-113498200D03*
X184928200Y-110958200D03*
X123493200Y-102598200D03*
X118888200Y-110958200D03*
X113808200Y-110958200D03*
X103648200Y-100798200D03*
X126508200Y-113498200D03*
X103648200Y-98258200D03*
X118328600Y-95836400D03*
X202708200Y-103338200D03*
X171287600Y-114607000D03*
X109895800Y-97182600D03*
X164686200Y-97958500D03*
X103648200Y-93178200D03*
X118888200Y-113498200D03*
X116348200Y-113498200D03*
X117515800Y-105818600D03*
X187468200Y-93178200D03*
X108728200Y-93178200D03*
X108728200Y-108418200D03*
X143212800Y-103135600D03*
X113808200Y-118578200D03*
X166055200Y-117578800D03*
X130716000Y-101052800D03*
X103648200Y-113498200D03*
X123318200Y-92448200D03*
X111268200Y-93178200D03*
X108728200Y-118578200D03*
X136668200Y-90638200D03*
X197628200Y-116038200D03*
X164683600Y-110212800D03*
X197628200Y-95718200D03*
X113808200Y-113498200D03*
X106188200Y-100798200D03*
X123968200Y-110958200D03*
X121478200Y-91467600D03*
X111268200Y-113498200D03*
%TO.N,/OSC_OUT*%
X150993000Y-97614400D03*
%TO.N,/OSC_IN*%
X150477200Y-96734800D03*
%TO.N,/VDDA*%
X146235400Y-101738600D03*
%TO.N,Net-(U1A-VCAP)*%
X136177000Y-103643600D03*
%TO.N,/SDAT7*%
X157068200Y-115668200D03*
X132458200Y-107378200D03*
X138796136Y-97468464D03*
X139838200Y-112208200D03*
%TO.N,/uDTR*%
X183318200Y-106428200D03*
X179498200Y-114018200D03*
%TO.N,/uDCD*%
X178508200Y-113228200D03*
X182388200Y-107168200D03*
%TO.N,/uPWRKEY*%
X180838200Y-106968200D03*
X178768200Y-111438200D03*
%TO.N,/Alim*%
X157088200Y-118978200D03*
X172678200Y-113478200D03*
X144288200Y-109638200D03*
X143271400Y-108536400D03*
%TO.N,/uStatus*%
X177698200Y-112348200D03*
X181678200Y-108028200D03*
%TO.N,/SD_D2*%
X139301200Y-94702800D03*
X131528800Y-95642600D03*
%TO.N,/SD_D3*%
X139885400Y-95490200D03*
X133306800Y-95515600D03*
%TO.N,/SD_CMD*%
X141239400Y-97055600D03*
X132875000Y-96353800D03*
%TO.N,/SD_CLK*%
X140604400Y-96242800D03*
X134018000Y-97547600D03*
%TO.N,/SD_D1*%
X129458011Y-98913011D03*
X127490200Y-99605000D03*
%TO.N,/SYN*%
X140428200Y-117628200D03*
X161388200Y-117318200D03*
%TO.N,/SCL*%
X158638400Y-116486600D03*
X129065000Y-100951200D03*
X142508200Y-116028200D03*
X130538200Y-98716000D03*
%TO.N,/SDAT2*%
X167598200Y-112788200D03*
X142198200Y-110968200D03*
%TO.N,/SCS*%
X160388200Y-116938200D03*
X139078200Y-113168200D03*
%TO.N,/SDAT3*%
X142331600Y-112219400D03*
X166578200Y-113278200D03*
%TO.N,/SDAT4*%
X165558200Y-113618200D03*
X137258200Y-110108200D03*
%TO.N,/SDAT5*%
X164848200Y-117228200D03*
X140978200Y-113218200D03*
%TO.N,/SDAT6*%
X131444197Y-110888200D03*
X163688200Y-117418200D03*
%TO.N,/+3V3*%
X150318200Y-92898200D03*
X138107400Y-91121400D03*
X138166000Y-102770600D03*
X169738200Y-117604200D03*
X129352200Y-105412200D03*
X170652600Y-115699200D03*
X132528394Y-97702259D03*
X186248200Y-114175200D03*
X160899000Y-99519400D03*
X169382600Y-113286200D03*
X130139600Y-102211800D03*
X161229200Y-91950200D03*
X146184600Y-102856200D03*
%TO.N,/RS485_RxD*%
X153668200Y-118382700D03*
X139501227Y-98283332D03*
%TO.N,/IRQ2*%
X150688200Y-111736800D03*
X163668200Y-110718200D03*
%TO.N,/READY*%
X179542600Y-117909000D03*
X147183000Y-115597600D03*
%TO.N,/SCLK*%
X155278200Y-106358200D03*
X149738200Y-106728200D03*
%TO.N,/MISO*%
X157266800Y-107012400D03*
X165848200Y-109788200D03*
%TO.N,/MOSI*%
X167028200Y-109728200D03*
X151247000Y-109349200D03*
%TO.N,/SS*%
X167655400Y-106479000D03*
X150147000Y-101789400D03*
%TO.N,/RS485_TxD*%
X155728200Y-118798200D03*
X131638200Y-112117800D03*
X138648600Y-99240000D03*
%TO.N,/RS485_DE*%
X146268200Y-111388200D03*
X161638200Y-109968200D03*
X148378200Y-110388200D03*
X140520400Y-100417800D03*
%TO.N,/NRST*%
X161119800Y-97903200D03*
%TO.N,/OSC32_IN*%
X150891400Y-93829800D03*
%TO.N,/OSC32_OUT*%
X151145400Y-94972800D03*
%TO.N,/Magnet*%
X137785000Y-114708600D03*
X138893200Y-107348200D03*
X129678200Y-114888200D03*
X141790400Y-98843000D03*
X135676800Y-106910800D03*
%TO.N,/BT_RxD*%
X149558200Y-104338200D03*
X147128200Y-107248200D03*
X173658200Y-105108200D03*
X152568200Y-103898200D03*
%TO.N,/BT_TxD*%
X142814200Y-107444200D03*
X149621400Y-105437600D03*
X172608200Y-105518200D03*
X152498200Y-105018200D03*
%TO.N,/LED3*%
X177308200Y-104618200D03*
X142476200Y-95210800D03*
%TO.N,/LED2*%
X143162000Y-96201400D03*
X177178200Y-105728200D03*
%TO.N,/LED1*%
X143949400Y-97141200D03*
X175328200Y-105208200D03*
%TO.N,/VBAT*%
X148978600Y-94499600D03*
%TO.N,/SDAe*%
X148013400Y-92289800D03*
%TO.N,/SCLe*%
X145125600Y-91670800D03*
%TO.N,/StartMasura*%
X162608200Y-110368200D03*
X141493400Y-107596600D03*
%TO.N,/Main*%
X137269200Y-92747000D03*
X120343200Y-95802500D03*
X126728200Y-94474200D03*
%TO.N,/BT_RTS*%
X176618200Y-98148200D03*
X175808200Y-109708200D03*
%TO.N,/BT_CTS*%
X165518200Y-91548200D03*
X174608200Y-109908200D03*
%TO.N,/Mains*%
X180398200Y-100968200D03*
X183008200Y-101188200D03*
X146286200Y-98385800D03*
X170938200Y-108538200D03*
%TO.N,/+3V3_SD*%
X114891800Y-97039600D03*
X128443200Y-97623200D03*
%TD*%
%TA.AperFunction,Conductor*%
%TO.N,GND*%
G36*
X204486454Y-88419569D02*
G01*
X204554569Y-88439588D01*
X204601049Y-88493254D01*
X204612423Y-88545546D01*
X204615145Y-103198881D01*
X204618173Y-119504268D01*
X204618177Y-119522177D01*
X204598188Y-119590301D01*
X204544541Y-119636804D01*
X204492177Y-119648200D01*
X157572653Y-119648200D01*
X157504532Y-119628198D01*
X157458039Y-119574542D01*
X157447935Y-119504268D01*
X157477429Y-119439688D01*
X157495946Y-119422239D01*
X157516482Y-119406482D01*
X157612736Y-119281041D01*
X157673244Y-119134962D01*
X157693882Y-118978200D01*
X157692505Y-118967744D01*
X157673244Y-118821439D01*
X157668913Y-118810981D01*
X157612736Y-118675359D01*
X157516482Y-118549918D01*
X157391041Y-118453664D01*
X157244962Y-118393156D01*
X157244960Y-118393155D01*
X157088200Y-118372518D01*
X156931439Y-118393155D01*
X156785360Y-118453663D01*
X156785357Y-118453665D01*
X156659918Y-118549918D01*
X156563665Y-118675357D01*
X156563661Y-118675364D01*
X156556979Y-118691496D01*
X156512429Y-118746776D01*
X156445065Y-118769194D01*
X156376274Y-118751633D01*
X156327898Y-118699670D01*
X156315651Y-118659723D01*
X156313244Y-118641438D01*
X156252736Y-118495359D01*
X156156482Y-118369918D01*
X156031041Y-118273664D01*
X156002554Y-118261864D01*
X155884960Y-118213155D01*
X155728200Y-118192518D01*
X155571439Y-118213155D01*
X155425360Y-118273663D01*
X155425357Y-118273665D01*
X155299918Y-118369918D01*
X155203665Y-118495357D01*
X155203663Y-118495360D01*
X155143155Y-118641439D01*
X155122518Y-118798199D01*
X155122518Y-118798200D01*
X155143155Y-118954960D01*
X155193592Y-119076724D01*
X155203664Y-119101041D01*
X155299918Y-119226482D01*
X155425359Y-119322736D01*
X155571438Y-119383244D01*
X155648946Y-119393448D01*
X155678037Y-119397278D01*
X155729885Y-119420214D01*
X155759311Y-119401304D01*
X155778363Y-119397278D01*
X155795206Y-119395060D01*
X155884962Y-119383244D01*
X156031041Y-119322736D01*
X156156482Y-119226482D01*
X156252736Y-119101041D01*
X156259419Y-119084906D01*
X156303965Y-119029627D01*
X156371328Y-119007205D01*
X156440120Y-119024762D01*
X156488499Y-119076724D01*
X156500749Y-119116679D01*
X156503155Y-119134960D01*
X156503156Y-119134962D01*
X156563664Y-119281041D01*
X156659918Y-119406482D01*
X156680451Y-119422238D01*
X156722318Y-119479575D01*
X156726540Y-119550446D01*
X156691776Y-119612349D01*
X156629063Y-119645630D01*
X156603747Y-119648200D01*
X155794809Y-119648200D01*
X155726688Y-119628198D01*
X155724826Y-119626049D01*
X155681005Y-119646695D01*
X155661591Y-119648200D01*
X99744162Y-119648200D01*
X99676041Y-119628198D01*
X99629548Y-119574542D01*
X99618162Y-119522238D01*
X99618126Y-119401304D01*
X99617327Y-116746309D01*
X101339700Y-116746309D01*
X101339700Y-116988890D01*
X101371360Y-117229382D01*
X101434144Y-117463695D01*
X101434145Y-117463697D01*
X101434146Y-117463700D01*
X101526976Y-117687812D01*
X101526977Y-117687813D01*
X101526982Y-117687824D01*
X101648261Y-117897885D01*
X101648263Y-117897888D01*
X101648264Y-117897889D01*
X101795935Y-118090338D01*
X101795939Y-118090342D01*
X101795944Y-118090348D01*
X101967451Y-118261855D01*
X101967456Y-118261859D01*
X101967462Y-118261865D01*
X102159911Y-118409536D01*
X102159914Y-118409538D01*
X102369975Y-118530817D01*
X102369979Y-118530818D01*
X102369988Y-118530824D01*
X102594100Y-118623654D01*
X102828411Y-118686438D01*
X102828415Y-118686438D01*
X102828417Y-118686439D01*
X102890402Y-118694599D01*
X103068912Y-118718100D01*
X103068919Y-118718100D01*
X103311481Y-118718100D01*
X103311488Y-118718100D01*
X103528837Y-118689485D01*
X103551982Y-118686439D01*
X103551982Y-118686438D01*
X103551989Y-118686438D01*
X103786300Y-118623654D01*
X104010412Y-118530824D01*
X104220489Y-118409536D01*
X104255464Y-118382699D01*
X153062518Y-118382699D01*
X153062518Y-118382700D01*
X153083155Y-118539460D01*
X153139449Y-118675364D01*
X153143664Y-118685541D01*
X153239918Y-118810982D01*
X153365359Y-118907236D01*
X153511438Y-118967744D01*
X153668200Y-118988382D01*
X153824962Y-118967744D01*
X153971041Y-118907236D01*
X154096482Y-118810982D01*
X154192736Y-118685541D01*
X154253244Y-118539462D01*
X154273882Y-118382700D01*
X154253244Y-118225938D01*
X154192736Y-118079859D01*
X154096482Y-117954418D01*
X153971041Y-117858164D01*
X153942839Y-117846482D01*
X153824960Y-117797655D01*
X153668200Y-117777018D01*
X153511439Y-117797655D01*
X153365360Y-117858163D01*
X153365357Y-117858165D01*
X153239918Y-117954418D01*
X153143665Y-118079857D01*
X153143663Y-118079860D01*
X153083155Y-118225939D01*
X153062518Y-118382699D01*
X104255464Y-118382699D01*
X104412938Y-118261865D01*
X104584465Y-118090338D01*
X104732136Y-117897889D01*
X104853424Y-117687812D01*
X104878116Y-117628199D01*
X139822518Y-117628199D01*
X139822518Y-117628200D01*
X139843155Y-117784960D01*
X139900699Y-117923882D01*
X139903664Y-117931041D01*
X139999918Y-118056482D01*
X140125359Y-118152736D01*
X140271438Y-118213244D01*
X140428200Y-118233882D01*
X140584962Y-118213244D01*
X140731041Y-118152736D01*
X140856482Y-118056482D01*
X140952736Y-117931041D01*
X141013244Y-117784962D01*
X141033882Y-117628200D01*
X141013244Y-117471438D01*
X140952736Y-117325359D01*
X140856482Y-117199918D01*
X140731041Y-117103664D01*
X140703563Y-117092282D01*
X140584960Y-117043155D01*
X140428200Y-117022518D01*
X140271439Y-117043155D01*
X140125360Y-117103663D01*
X140125357Y-117103665D01*
X139999918Y-117199918D01*
X139903665Y-117325357D01*
X139903663Y-117325360D01*
X139843155Y-117471439D01*
X139822518Y-117628199D01*
X104878116Y-117628199D01*
X104946254Y-117463700D01*
X105009038Y-117229389D01*
X105040700Y-116988888D01*
X105040700Y-116746312D01*
X105009038Y-116505811D01*
X104946254Y-116271500D01*
X104853424Y-116047388D01*
X104853418Y-116047379D01*
X104853417Y-116047375D01*
X104842346Y-116028199D01*
X141902518Y-116028199D01*
X141902518Y-116028200D01*
X141923155Y-116184960D01*
X141972829Y-116304882D01*
X141983664Y-116331041D01*
X142079918Y-116456482D01*
X142205359Y-116552736D01*
X142351438Y-116613244D01*
X142508200Y-116633882D01*
X142664962Y-116613244D01*
X142811041Y-116552736D01*
X142897233Y-116486599D01*
X158032718Y-116486599D01*
X158032718Y-116486600D01*
X158053355Y-116643360D01*
X158101298Y-116759103D01*
X158113864Y-116789441D01*
X158210118Y-116914882D01*
X158335559Y-117011136D01*
X158481638Y-117071644D01*
X158638400Y-117092282D01*
X158795162Y-117071644D01*
X158941241Y-117011136D01*
X159036295Y-116938199D01*
X159782518Y-116938199D01*
X159782518Y-116938200D01*
X159803155Y-117094960D01*
X159858838Y-117229389D01*
X159863664Y-117241041D01*
X159959918Y-117366482D01*
X160085359Y-117462736D01*
X160231438Y-117523244D01*
X160388200Y-117543882D01*
X160544962Y-117523244D01*
X160666008Y-117473104D01*
X160736595Y-117465516D01*
X160800082Y-117497295D01*
X160830631Y-117541294D01*
X160863664Y-117621041D01*
X160959918Y-117746482D01*
X161085359Y-117842736D01*
X161231438Y-117903244D01*
X161388200Y-117923882D01*
X161544962Y-117903244D01*
X161691041Y-117842736D01*
X161816482Y-117746482D01*
X161912736Y-117621041D01*
X161973244Y-117474962D01*
X161980717Y-117418199D01*
X163082518Y-117418199D01*
X163082518Y-117418200D01*
X163103155Y-117574960D01*
X163125208Y-117628199D01*
X163163664Y-117721041D01*
X163259918Y-117846482D01*
X163385359Y-117942736D01*
X163531438Y-118003244D01*
X163688200Y-118023882D01*
X163844962Y-118003244D01*
X163991041Y-117942736D01*
X164116482Y-117846482D01*
X164212736Y-117721041D01*
X164220164Y-117703107D01*
X164264711Y-117647828D01*
X164332074Y-117625407D01*
X164400866Y-117642965D01*
X164412778Y-117652219D01*
X164413366Y-117651454D01*
X164419917Y-117656480D01*
X164419918Y-117656482D01*
X164545359Y-117752736D01*
X164691438Y-117813244D01*
X164848200Y-117833882D01*
X165004962Y-117813244D01*
X165151041Y-117752736D01*
X165276482Y-117656482D01*
X165316600Y-117604199D01*
X169132518Y-117604199D01*
X169132518Y-117604200D01*
X169153155Y-117760960D01*
X169188580Y-117846482D01*
X169213664Y-117907041D01*
X169309918Y-118032482D01*
X169435359Y-118128736D01*
X169581438Y-118189244D01*
X169738200Y-118209882D01*
X169894962Y-118189244D01*
X170041041Y-118128736D01*
X170166482Y-118032482D01*
X170261234Y-117908999D01*
X178936918Y-117908999D01*
X178936918Y-117909000D01*
X178957555Y-118065760D01*
X179017253Y-118209882D01*
X179018064Y-118211841D01*
X179114318Y-118337282D01*
X179239759Y-118433536D01*
X179385838Y-118494044D01*
X179542600Y-118514682D01*
X179699362Y-118494044D01*
X179845441Y-118433536D01*
X179970882Y-118337282D01*
X180067136Y-118211841D01*
X180127644Y-118065762D01*
X180148282Y-117909000D01*
X180141589Y-117858165D01*
X180129194Y-117764012D01*
X180127644Y-117752238D01*
X180067136Y-117606159D01*
X179970882Y-117480718D01*
X179845441Y-117384464D01*
X179802027Y-117366481D01*
X179699360Y-117323955D01*
X179542600Y-117303318D01*
X179385839Y-117323955D01*
X179239760Y-117384463D01*
X179239757Y-117384465D01*
X179114318Y-117480718D01*
X179018065Y-117606157D01*
X179018063Y-117606160D01*
X178957555Y-117752239D01*
X178936918Y-117908999D01*
X170261234Y-117908999D01*
X170262736Y-117907041D01*
X170323244Y-117760962D01*
X170343882Y-117604200D01*
X170323244Y-117447438D01*
X170262736Y-117301359D01*
X170166482Y-117175918D01*
X170041041Y-117079664D01*
X170021185Y-117071439D01*
X169894960Y-117019155D01*
X169738200Y-116998518D01*
X169581439Y-117019155D01*
X169435360Y-117079663D01*
X169435357Y-117079665D01*
X169309918Y-117175918D01*
X169213665Y-117301357D01*
X169213663Y-117301360D01*
X169153155Y-117447439D01*
X169132518Y-117604199D01*
X165316600Y-117604199D01*
X165372736Y-117531041D01*
X165433244Y-117384962D01*
X165453882Y-117228200D01*
X165433244Y-117071438D01*
X165372736Y-116925359D01*
X165293817Y-116822509D01*
X200094900Y-116822509D01*
X200094900Y-117065090D01*
X200126560Y-117305582D01*
X200189344Y-117539895D01*
X200189345Y-117539897D01*
X200189346Y-117539900D01*
X200282176Y-117764012D01*
X200282177Y-117764013D01*
X200282182Y-117764024D01*
X200403461Y-117974085D01*
X200403463Y-117974088D01*
X200403464Y-117974089D01*
X200551135Y-118166538D01*
X200551139Y-118166542D01*
X200551144Y-118166548D01*
X200722651Y-118338055D01*
X200722656Y-118338059D01*
X200722662Y-118338065D01*
X200915111Y-118485736D01*
X200915114Y-118485738D01*
X201125175Y-118607017D01*
X201125179Y-118607018D01*
X201125188Y-118607024D01*
X201349300Y-118699854D01*
X201583611Y-118762638D01*
X201583615Y-118762638D01*
X201583617Y-118762639D01*
X201645602Y-118770799D01*
X201824112Y-118794300D01*
X201824119Y-118794300D01*
X202066681Y-118794300D01*
X202066688Y-118794300D01*
X202284037Y-118765685D01*
X202307182Y-118762639D01*
X202307182Y-118762638D01*
X202307189Y-118762638D01*
X202541500Y-118699854D01*
X202765612Y-118607024D01*
X202975689Y-118485736D01*
X203168138Y-118338065D01*
X203339665Y-118166538D01*
X203487336Y-117974089D01*
X203608624Y-117764012D01*
X203701454Y-117539900D01*
X203764238Y-117305589D01*
X203795900Y-117065088D01*
X203795900Y-116822512D01*
X203764238Y-116582011D01*
X203701454Y-116347700D01*
X203608624Y-116123588D01*
X203608618Y-116123579D01*
X203608617Y-116123575D01*
X203487338Y-115913514D01*
X203487336Y-115913511D01*
X203339665Y-115721062D01*
X203339659Y-115721056D01*
X203339655Y-115721051D01*
X203168148Y-115549544D01*
X203168142Y-115549539D01*
X203168138Y-115549535D01*
X202975689Y-115401864D01*
X202975688Y-115401863D01*
X202975685Y-115401861D01*
X202765624Y-115280582D01*
X202765616Y-115280578D01*
X202765612Y-115280576D01*
X202541500Y-115187746D01*
X202541497Y-115187745D01*
X202541495Y-115187744D01*
X202307182Y-115124960D01*
X202066690Y-115093300D01*
X202066688Y-115093300D01*
X201824112Y-115093300D01*
X201824109Y-115093300D01*
X201583617Y-115124960D01*
X201349304Y-115187744D01*
X201349300Y-115187746D01*
X201223346Y-115239918D01*
X201125186Y-115280577D01*
X201125175Y-115280582D01*
X200915114Y-115401861D01*
X200722662Y-115549535D01*
X200722651Y-115549544D01*
X200551144Y-115721051D01*
X200551135Y-115721062D01*
X200403461Y-115913514D01*
X200282182Y-116123575D01*
X200282177Y-116123586D01*
X200282176Y-116123588D01*
X200228471Y-116253244D01*
X200189346Y-116347700D01*
X200189344Y-116347704D01*
X200126560Y-116582017D01*
X200094900Y-116822509D01*
X165293817Y-116822509D01*
X165276482Y-116799918D01*
X165151041Y-116703664D01*
X165005460Y-116643362D01*
X165004960Y-116643155D01*
X164848200Y-116622518D01*
X164691439Y-116643155D01*
X164545360Y-116703663D01*
X164545357Y-116703665D01*
X164419918Y-116799918D01*
X164323665Y-116925357D01*
X164323662Y-116925362D01*
X164316234Y-116943295D01*
X164271683Y-116998574D01*
X164204319Y-117020992D01*
X164135528Y-117003431D01*
X164123621Y-116994180D01*
X164123034Y-116994946D01*
X164116482Y-116989919D01*
X164116482Y-116989918D01*
X163991041Y-116893664D01*
X163981998Y-116889918D01*
X163844960Y-116833155D01*
X163688200Y-116812518D01*
X163531439Y-116833155D01*
X163385360Y-116893663D01*
X163385357Y-116893665D01*
X163259918Y-116989918D01*
X163163665Y-117115357D01*
X163163663Y-117115360D01*
X163103155Y-117261439D01*
X163082518Y-117418199D01*
X161980717Y-117418199D01*
X161993882Y-117318200D01*
X161973244Y-117161438D01*
X161912736Y-117015359D01*
X161816482Y-116889918D01*
X161691041Y-116793664D01*
X161680849Y-116789442D01*
X161544960Y-116733155D01*
X161388200Y-116712518D01*
X161231437Y-116733156D01*
X161110392Y-116783294D01*
X161039803Y-116790883D01*
X160976316Y-116759103D01*
X160945768Y-116715106D01*
X160912736Y-116635359D01*
X160816482Y-116509918D01*
X160691041Y-116413664D01*
X160544962Y-116353156D01*
X160544960Y-116353155D01*
X160388200Y-116332518D01*
X160231439Y-116353155D01*
X160085360Y-116413663D01*
X160085357Y-116413665D01*
X159959918Y-116509918D01*
X159863665Y-116635357D01*
X159863663Y-116635360D01*
X159803155Y-116781439D01*
X159782518Y-116938199D01*
X159036295Y-116938199D01*
X159066682Y-116914882D01*
X159162936Y-116789441D01*
X159223444Y-116643362D01*
X159244082Y-116486600D01*
X159223444Y-116329838D01*
X159162936Y-116183759D01*
X159066682Y-116058318D01*
X158941241Y-115962064D01*
X158824032Y-115913514D01*
X158795160Y-115901555D01*
X158638400Y-115880918D01*
X158481639Y-115901555D01*
X158335560Y-115962063D01*
X158335557Y-115962065D01*
X158210118Y-116058318D01*
X158113865Y-116183757D01*
X158113863Y-116183760D01*
X158053355Y-116329839D01*
X158032718Y-116486599D01*
X142897233Y-116486599D01*
X142936482Y-116456482D01*
X143032736Y-116331041D01*
X143093244Y-116184962D01*
X143113882Y-116028200D01*
X143093244Y-115871438D01*
X143032736Y-115725359D01*
X142936482Y-115599918D01*
X142933460Y-115597599D01*
X146577318Y-115597599D01*
X146577318Y-115597600D01*
X146597955Y-115754360D01*
X146646451Y-115871438D01*
X146658464Y-115900441D01*
X146754718Y-116025882D01*
X146880159Y-116122136D01*
X147026238Y-116182644D01*
X147183000Y-116203282D01*
X147339762Y-116182644D01*
X147485841Y-116122136D01*
X147611282Y-116025882D01*
X147707536Y-115900441D01*
X147768044Y-115754362D01*
X147779388Y-115668199D01*
X156462518Y-115668199D01*
X156462518Y-115668200D01*
X156483155Y-115824960D01*
X156539946Y-115962064D01*
X156543664Y-115971041D01*
X156639918Y-116096482D01*
X156765359Y-116192736D01*
X156911438Y-116253244D01*
X157068200Y-116273882D01*
X157224962Y-116253244D01*
X157371041Y-116192736D01*
X157496482Y-116096482D01*
X157592736Y-115971041D01*
X157653244Y-115824962D01*
X157669801Y-115699199D01*
X170046918Y-115699199D01*
X170046918Y-115699200D01*
X170067555Y-115855960D01*
X170115223Y-115971039D01*
X170128064Y-116002041D01*
X170224318Y-116127482D01*
X170349759Y-116223736D01*
X170495838Y-116284244D01*
X170652600Y-116304882D01*
X170809362Y-116284244D01*
X170955441Y-116223736D01*
X171080882Y-116127482D01*
X171177136Y-116002041D01*
X171237644Y-115855962D01*
X171258282Y-115699200D01*
X171237644Y-115542438D01*
X171177136Y-115396359D01*
X171080882Y-115270918D01*
X170955441Y-115174664D01*
X170880601Y-115143664D01*
X170809360Y-115114155D01*
X170652600Y-115093518D01*
X170495839Y-115114155D01*
X170349760Y-115174663D01*
X170349757Y-115174665D01*
X170224318Y-115270918D01*
X170128065Y-115396357D01*
X170128063Y-115396360D01*
X170067555Y-115542439D01*
X170046918Y-115699199D01*
X157669801Y-115699199D01*
X157673882Y-115668200D01*
X157653244Y-115511438D01*
X157592736Y-115365359D01*
X157496482Y-115239918D01*
X157371041Y-115143664D01*
X157354666Y-115136881D01*
X157224960Y-115083155D01*
X157068200Y-115062518D01*
X156911439Y-115083155D01*
X156765360Y-115143663D01*
X156765357Y-115143665D01*
X156639918Y-115239918D01*
X156543665Y-115365357D01*
X156543663Y-115365360D01*
X156483155Y-115511439D01*
X156462518Y-115668199D01*
X147779388Y-115668199D01*
X147788682Y-115597600D01*
X147768044Y-115440838D01*
X147707536Y-115294759D01*
X147611282Y-115169318D01*
X147485841Y-115073064D01*
X147350733Y-115017100D01*
X147339760Y-115012555D01*
X147183000Y-114991918D01*
X147026239Y-115012555D01*
X146880160Y-115073063D01*
X146880157Y-115073065D01*
X146754718Y-115169318D01*
X146658465Y-115294757D01*
X146658463Y-115294760D01*
X146597955Y-115440839D01*
X146577318Y-115597599D01*
X142933460Y-115597599D01*
X142811041Y-115503664D01*
X142787426Y-115493882D01*
X142664960Y-115443155D01*
X142508200Y-115422518D01*
X142351439Y-115443155D01*
X142205360Y-115503663D01*
X142205357Y-115503665D01*
X142079918Y-115599918D01*
X141983665Y-115725357D01*
X141983663Y-115725360D01*
X141923155Y-115871439D01*
X141902518Y-116028199D01*
X104842346Y-116028199D01*
X104732138Y-115837314D01*
X104722660Y-115824962D01*
X104584465Y-115644862D01*
X104584459Y-115644856D01*
X104584455Y-115644851D01*
X104412948Y-115473344D01*
X104412942Y-115473339D01*
X104412938Y-115473335D01*
X104220489Y-115325664D01*
X104220488Y-115325663D01*
X104220485Y-115325661D01*
X104010424Y-115204382D01*
X104010416Y-115204378D01*
X104010412Y-115204376D01*
X103786300Y-115111546D01*
X103786297Y-115111545D01*
X103786295Y-115111544D01*
X103551982Y-115048760D01*
X103311490Y-115017100D01*
X103311488Y-115017100D01*
X103068912Y-115017100D01*
X103068909Y-115017100D01*
X102828417Y-115048760D01*
X102594104Y-115111544D01*
X102594100Y-115111546D01*
X102402180Y-115191042D01*
X102369986Y-115204377D01*
X102369975Y-115204382D01*
X102159914Y-115325661D01*
X101967462Y-115473335D01*
X101967451Y-115473344D01*
X101795944Y-115644851D01*
X101795935Y-115644862D01*
X101648261Y-115837314D01*
X101526982Y-116047375D01*
X101526977Y-116047386D01*
X101526976Y-116047388D01*
X101493800Y-116127482D01*
X101434146Y-116271500D01*
X101434144Y-116271504D01*
X101371360Y-116505817D01*
X101339700Y-116746309D01*
X99617327Y-116746309D01*
X99616768Y-114888199D01*
X129072518Y-114888199D01*
X129072518Y-114888200D01*
X129093155Y-115044960D01*
X129131231Y-115136882D01*
X129153664Y-115191041D01*
X129249918Y-115316482D01*
X129375359Y-115412736D01*
X129521438Y-115473244D01*
X129678200Y-115493882D01*
X129834962Y-115473244D01*
X129981041Y-115412736D01*
X130106482Y-115316482D01*
X130202736Y-115191041D01*
X130263244Y-115044962D01*
X130283882Y-114888200D01*
X130263244Y-114731438D01*
X130253784Y-114708599D01*
X137179318Y-114708599D01*
X137179318Y-114708600D01*
X137199955Y-114865360D01*
X137199956Y-114865362D01*
X137260464Y-115011441D01*
X137356718Y-115136882D01*
X137482159Y-115233136D01*
X137628238Y-115293644D01*
X137785000Y-115314282D01*
X137941762Y-115293644D01*
X138087841Y-115233136D01*
X138213282Y-115136882D01*
X138309536Y-115011441D01*
X138370044Y-114865362D01*
X138390682Y-114708600D01*
X138370044Y-114551838D01*
X138309536Y-114405759D01*
X138213282Y-114280318D01*
X138087841Y-114184064D01*
X138066442Y-114175200D01*
X137941760Y-114123555D01*
X137785000Y-114102918D01*
X137628239Y-114123555D01*
X137482160Y-114184063D01*
X137482157Y-114184065D01*
X137356718Y-114280318D01*
X137260465Y-114405757D01*
X137260463Y-114405760D01*
X137199955Y-114551839D01*
X137179318Y-114708599D01*
X130253784Y-114708599D01*
X130202736Y-114585359D01*
X130106482Y-114459918D01*
X129981041Y-114363664D01*
X129878141Y-114321041D01*
X129834960Y-114303155D01*
X129678200Y-114282518D01*
X129521439Y-114303155D01*
X129375360Y-114363663D01*
X129375357Y-114363665D01*
X129249918Y-114459918D01*
X129153665Y-114585357D01*
X129153663Y-114585360D01*
X129093155Y-114731439D01*
X129072518Y-114888199D01*
X99616768Y-114888199D01*
X99616251Y-113168199D01*
X138472518Y-113168199D01*
X138472518Y-113168200D01*
X138493155Y-113324960D01*
X138552713Y-113468744D01*
X138553664Y-113471041D01*
X138649918Y-113596482D01*
X138775359Y-113692736D01*
X138921438Y-113753244D01*
X139078200Y-113773882D01*
X139234962Y-113753244D01*
X139381041Y-113692736D01*
X139506482Y-113596482D01*
X139602736Y-113471041D01*
X139663244Y-113324962D01*
X139677300Y-113218199D01*
X140372518Y-113218199D01*
X140372518Y-113218200D01*
X140393155Y-113374960D01*
X140442324Y-113493663D01*
X140453664Y-113521041D01*
X140549918Y-113646482D01*
X140675359Y-113742736D01*
X140821438Y-113803244D01*
X140978200Y-113823882D01*
X141134962Y-113803244D01*
X141281041Y-113742736D01*
X141406482Y-113646482D01*
X141428184Y-113618199D01*
X164952518Y-113618199D01*
X164952518Y-113618200D01*
X164973155Y-113774960D01*
X165013500Y-113872360D01*
X165033664Y-113921041D01*
X165129918Y-114046482D01*
X165255359Y-114142736D01*
X165401438Y-114203244D01*
X165558200Y-114223882D01*
X165714962Y-114203244D01*
X165861041Y-114142736D01*
X165986482Y-114046482D01*
X166082736Y-113921041D01*
X166104554Y-113868365D01*
X166149100Y-113813087D01*
X166216463Y-113790665D01*
X166269180Y-113800176D01*
X166275357Y-113802734D01*
X166275359Y-113802736D01*
X166421438Y-113863244D01*
X166578200Y-113883882D01*
X166734962Y-113863244D01*
X166881041Y-113802736D01*
X167006482Y-113706482D01*
X167102736Y-113581041D01*
X167163244Y-113434962D01*
X167163901Y-113429970D01*
X167192618Y-113365043D01*
X167251880Y-113325948D01*
X167322871Y-113325098D01*
X167337036Y-113329999D01*
X167441438Y-113373244D01*
X167598200Y-113393882D01*
X167754962Y-113373244D01*
X167901041Y-113312736D01*
X167935625Y-113286199D01*
X168776918Y-113286199D01*
X168776918Y-113286200D01*
X168797555Y-113442960D01*
X168834040Y-113531041D01*
X168858064Y-113589041D01*
X168954318Y-113714482D01*
X169079759Y-113810736D01*
X169225838Y-113871244D01*
X169382600Y-113891882D01*
X169539362Y-113871244D01*
X169685441Y-113810736D01*
X169810882Y-113714482D01*
X169907136Y-113589041D01*
X169953048Y-113478199D01*
X172072518Y-113478199D01*
X172072518Y-113478200D01*
X172093155Y-113634960D01*
X172150699Y-113773882D01*
X172153664Y-113781041D01*
X172249918Y-113906482D01*
X172375359Y-114002736D01*
X172521438Y-114063244D01*
X172678200Y-114083882D01*
X172834962Y-114063244D01*
X172981041Y-114002736D01*
X173106482Y-113906482D01*
X173202736Y-113781041D01*
X173263244Y-113634962D01*
X173283882Y-113478200D01*
X173263244Y-113321438D01*
X173202736Y-113175359D01*
X173106482Y-113049918D01*
X172981041Y-112953664D01*
X172912710Y-112925360D01*
X172834960Y-112893155D01*
X172678200Y-112872518D01*
X172521439Y-112893155D01*
X172375360Y-112953663D01*
X172375357Y-112953665D01*
X172249918Y-113049918D01*
X172153665Y-113175357D01*
X172153663Y-113175360D01*
X172093155Y-113321439D01*
X172072518Y-113478199D01*
X169953048Y-113478199D01*
X169967644Y-113442962D01*
X169988282Y-113286200D01*
X169979103Y-113216482D01*
X169967644Y-113129439D01*
X169953886Y-113096223D01*
X169907136Y-112983359D01*
X169810882Y-112857918D01*
X169685441Y-112761664D01*
X169666128Y-112753664D01*
X169539360Y-112701155D01*
X169382600Y-112680518D01*
X169225839Y-112701155D01*
X169079760Y-112761663D01*
X169079757Y-112761665D01*
X168954318Y-112857918D01*
X168858065Y-112983357D01*
X168858063Y-112983360D01*
X168797555Y-113129439D01*
X168776918Y-113286199D01*
X167935625Y-113286199D01*
X168026482Y-113216482D01*
X168122736Y-113091041D01*
X168183244Y-112944962D01*
X168203882Y-112788200D01*
X168200388Y-112761664D01*
X168192450Y-112701364D01*
X168183244Y-112631438D01*
X168122736Y-112485359D01*
X168026482Y-112359918D01*
X167901041Y-112263664D01*
X167794179Y-112219400D01*
X167754960Y-112203155D01*
X167598200Y-112182518D01*
X167441439Y-112203155D01*
X167295360Y-112263663D01*
X167295357Y-112263665D01*
X167169918Y-112359918D01*
X167073665Y-112485357D01*
X167073663Y-112485360D01*
X167013156Y-112631438D01*
X167012498Y-112636437D01*
X166983775Y-112701364D01*
X166924509Y-112740455D01*
X166853517Y-112741299D01*
X166839358Y-112736398D01*
X166734960Y-112693155D01*
X166578200Y-112672518D01*
X166421439Y-112693155D01*
X166275360Y-112753663D01*
X166275357Y-112753665D01*
X166149918Y-112849918D01*
X166053665Y-112975357D01*
X166053661Y-112975364D01*
X166031845Y-113028033D01*
X165987297Y-113083314D01*
X165919933Y-113105734D01*
X165867219Y-113096223D01*
X165714960Y-113033155D01*
X165558200Y-113012518D01*
X165401439Y-113033155D01*
X165255360Y-113093663D01*
X165255357Y-113093665D01*
X165129918Y-113189918D01*
X165033665Y-113315357D01*
X165033663Y-113315360D01*
X164973155Y-113461439D01*
X164952518Y-113618199D01*
X141428184Y-113618199D01*
X141502736Y-113521041D01*
X141563244Y-113374962D01*
X141583882Y-113218200D01*
X141563244Y-113061438D01*
X141502736Y-112915359D01*
X141406482Y-112789918D01*
X141281041Y-112693664D01*
X141279813Y-112693155D01*
X141134960Y-112633155D01*
X140978200Y-112612518D01*
X140821439Y-112633155D01*
X140675360Y-112693663D01*
X140675357Y-112693665D01*
X140549918Y-112789918D01*
X140453665Y-112915357D01*
X140453663Y-112915360D01*
X140393155Y-113061439D01*
X140372518Y-113218199D01*
X139677300Y-113218199D01*
X139683882Y-113168200D01*
X139663244Y-113011438D01*
X139650118Y-112979751D01*
X139642529Y-112909162D01*
X139674308Y-112845675D01*
X139735365Y-112809447D01*
X139782971Y-112806611D01*
X139838200Y-112813882D01*
X139994962Y-112793244D01*
X140141041Y-112732736D01*
X140266482Y-112636482D01*
X140362736Y-112511041D01*
X140423244Y-112364962D01*
X140443882Y-112208200D01*
X140423244Y-112051438D01*
X140362736Y-111905359D01*
X140266482Y-111779918D01*
X140141041Y-111683664D01*
X140112001Y-111671635D01*
X139994960Y-111623155D01*
X139838200Y-111602518D01*
X139681439Y-111623155D01*
X139535360Y-111683663D01*
X139535357Y-111683665D01*
X139409918Y-111779918D01*
X139313665Y-111905357D01*
X139313663Y-111905360D01*
X139253155Y-112051439D01*
X139232518Y-112208199D01*
X139232518Y-112208200D01*
X139253155Y-112364960D01*
X139266281Y-112396648D01*
X139273870Y-112467238D01*
X139242090Y-112530725D01*
X139181032Y-112566952D01*
X139133427Y-112569788D01*
X139078202Y-112562518D01*
X139078200Y-112562518D01*
X138921439Y-112583155D01*
X138775360Y-112643663D01*
X138775357Y-112643665D01*
X138649918Y-112739918D01*
X138553665Y-112865357D01*
X138553663Y-112865360D01*
X138493155Y-113011439D01*
X138472518Y-113168199D01*
X99616251Y-113168199D01*
X99615081Y-109278449D01*
X100057700Y-109278449D01*
X100057700Y-111017950D01*
X100058314Y-111021039D01*
X100069333Y-111076431D01*
X100113648Y-111142752D01*
X100179969Y-111187067D01*
X100238452Y-111198700D01*
X100238453Y-111198700D01*
X101977947Y-111198700D01*
X101977948Y-111198700D01*
X102036431Y-111187067D01*
X102102752Y-111142752D01*
X102147067Y-111076431D01*
X102158700Y-111017948D01*
X102158700Y-110888196D01*
X130838515Y-110888196D01*
X130838515Y-110888200D01*
X130859152Y-111044960D01*
X130903389Y-111151756D01*
X130919661Y-111191041D01*
X131015915Y-111316482D01*
X131141356Y-111412736D01*
X131218512Y-111444695D01*
X131273792Y-111489242D01*
X131296213Y-111556606D01*
X131278655Y-111625397D01*
X131246998Y-111661065D01*
X131209918Y-111689517D01*
X131113665Y-111814957D01*
X131113663Y-111814960D01*
X131053155Y-111961039D01*
X131032518Y-112117799D01*
X131032518Y-112117800D01*
X131053155Y-112274560D01*
X131110045Y-112411903D01*
X131113664Y-112420641D01*
X131209918Y-112546082D01*
X131335359Y-112642336D01*
X131481438Y-112702844D01*
X131638200Y-112723482D01*
X131794962Y-112702844D01*
X131941041Y-112642336D01*
X132066482Y-112546082D01*
X132162736Y-112420641D01*
X132223244Y-112274562D01*
X132243882Y-112117800D01*
X132236412Y-112061063D01*
X132224851Y-111973244D01*
X132223244Y-111961038D01*
X132162736Y-111814959D01*
X132066482Y-111689518D01*
X131941041Y-111593264D01*
X131863882Y-111561303D01*
X131808604Y-111516756D01*
X131786183Y-111449393D01*
X131803742Y-111380601D01*
X131835398Y-111344934D01*
X131872479Y-111316482D01*
X131968733Y-111191041D01*
X132029241Y-111044962D01*
X132039347Y-110968199D01*
X141592518Y-110968199D01*
X141592518Y-110968200D01*
X141613155Y-111124960D01*
X141661940Y-111242736D01*
X141673664Y-111271041D01*
X141769918Y-111396482D01*
X141895359Y-111492736D01*
X141951439Y-111515965D01*
X142006719Y-111560512D01*
X142029140Y-111627876D01*
X142011582Y-111696667D01*
X141979924Y-111732335D01*
X141903320Y-111791115D01*
X141807065Y-111916557D01*
X141807063Y-111916560D01*
X141746555Y-112062639D01*
X141725918Y-112219399D01*
X141725918Y-112219400D01*
X141746555Y-112376160D01*
X141794508Y-112491927D01*
X141807064Y-112522241D01*
X141903318Y-112647682D01*
X142028759Y-112743936D01*
X142174838Y-112804444D01*
X142331600Y-112825082D01*
X142488362Y-112804444D01*
X142634441Y-112743936D01*
X142759882Y-112647682D01*
X142856136Y-112522241D01*
X142916644Y-112376162D01*
X142937282Y-112219400D01*
X142935807Y-112208200D01*
X142916644Y-112062639D01*
X142915992Y-112061063D01*
X142856136Y-111916559D01*
X142759882Y-111791118D01*
X142634441Y-111694864D01*
X142578358Y-111671633D01*
X142523080Y-111627086D01*
X142500659Y-111559722D01*
X142518218Y-111490931D01*
X142549874Y-111455265D01*
X142626482Y-111396482D01*
X142632838Y-111388199D01*
X145662518Y-111388199D01*
X145662518Y-111388200D01*
X145683155Y-111544960D01*
X145731248Y-111661065D01*
X145743664Y-111691041D01*
X145839918Y-111816482D01*
X145965359Y-111912736D01*
X146111438Y-111973244D01*
X146268200Y-111993882D01*
X146424962Y-111973244D01*
X146571041Y-111912736D01*
X146696482Y-111816482D01*
X146757625Y-111736799D01*
X150082518Y-111736799D01*
X150082518Y-111736800D01*
X150103155Y-111893560D01*
X150131808Y-111962733D01*
X150163664Y-112039641D01*
X150259918Y-112165082D01*
X150385359Y-112261336D01*
X150531438Y-112321844D01*
X150688200Y-112342482D01*
X150844962Y-112321844D01*
X150991041Y-112261336D01*
X151116482Y-112165082D01*
X151212736Y-112039641D01*
X151273244Y-111893562D01*
X151293882Y-111736800D01*
X151287857Y-111691039D01*
X151280395Y-111634356D01*
X151273244Y-111580038D01*
X151270921Y-111574430D01*
X170427700Y-111574430D01*
X170427700Y-111741969D01*
X170442218Y-111814957D01*
X170460200Y-111905359D01*
X170460385Y-111906285D01*
X170463057Y-111912736D01*
X170524497Y-112061063D01*
X170525550Y-112062639D01*
X170617573Y-112200361D01*
X170617578Y-112200367D01*
X170736032Y-112318821D01*
X170736038Y-112318826D01*
X170875337Y-112411903D01*
X171030118Y-112476016D01*
X171194433Y-112508700D01*
X171194434Y-112508700D01*
X171361966Y-112508700D01*
X171361967Y-112508700D01*
X171526282Y-112476016D01*
X171681063Y-112411903D01*
X171776402Y-112348199D01*
X177092518Y-112348199D01*
X177092518Y-112348200D01*
X177113155Y-112504960D01*
X177172273Y-112647682D01*
X177173664Y-112651041D01*
X177269918Y-112776482D01*
X177395359Y-112872736D01*
X177541438Y-112933244D01*
X177698200Y-112953882D01*
X177780072Y-112943103D01*
X177850220Y-112954042D01*
X177903319Y-113001170D01*
X177922509Y-113069524D01*
X177921440Y-113084471D01*
X177902518Y-113228199D01*
X177902518Y-113228200D01*
X177923155Y-113384960D01*
X177968182Y-113493663D01*
X177983664Y-113531041D01*
X178079918Y-113656482D01*
X178205359Y-113752736D01*
X178351438Y-113813244D01*
X178508200Y-113833882D01*
X178664962Y-113813244D01*
X178732558Y-113785244D01*
X178803144Y-113777655D01*
X178866631Y-113809433D01*
X178902860Y-113870491D01*
X178905696Y-113918099D01*
X178892518Y-114018199D01*
X178892518Y-114018200D01*
X178913155Y-114174960D01*
X178916927Y-114184065D01*
X178973664Y-114321041D01*
X179069918Y-114446482D01*
X179195359Y-114542736D01*
X179341438Y-114603244D01*
X179498200Y-114623882D01*
X179654962Y-114603244D01*
X179801041Y-114542736D01*
X179926482Y-114446482D01*
X180022736Y-114321041D01*
X180083146Y-114175199D01*
X185642518Y-114175199D01*
X185642518Y-114175200D01*
X185663155Y-114331960D01*
X185663156Y-114331962D01*
X185723664Y-114478041D01*
X185819918Y-114603482D01*
X185945359Y-114699736D01*
X186091438Y-114760244D01*
X186248200Y-114780882D01*
X186404962Y-114760244D01*
X186551041Y-114699736D01*
X186676482Y-114603482D01*
X186772736Y-114478041D01*
X186833244Y-114331962D01*
X186853882Y-114175200D01*
X186853850Y-114174960D01*
X186833244Y-114018439D01*
X186792901Y-113921041D01*
X186772736Y-113872359D01*
X186676482Y-113746918D01*
X186551041Y-113650664D01*
X186540943Y-113646481D01*
X186404960Y-113590155D01*
X186248200Y-113569518D01*
X186091439Y-113590155D01*
X185945360Y-113650663D01*
X185945357Y-113650665D01*
X185819918Y-113746918D01*
X185723665Y-113872357D01*
X185723663Y-113872360D01*
X185663155Y-114018439D01*
X185642518Y-114175199D01*
X180083146Y-114175199D01*
X180083244Y-114174962D01*
X180103882Y-114018200D01*
X180083244Y-113861438D01*
X180022736Y-113715359D01*
X179926482Y-113589918D01*
X179801041Y-113493664D01*
X179763706Y-113478199D01*
X179654960Y-113433155D01*
X179498200Y-113412518D01*
X179341439Y-113433155D01*
X179273843Y-113461155D01*
X179203253Y-113468744D01*
X179139766Y-113436965D01*
X179103539Y-113375906D01*
X179100703Y-113328303D01*
X179113882Y-113228200D01*
X179093244Y-113071438D01*
X179032736Y-112925359D01*
X178936482Y-112799918D01*
X178811041Y-112703664D01*
X178809062Y-112702844D01*
X178664960Y-112643155D01*
X178508200Y-112622518D01*
X178508198Y-112622518D01*
X178426326Y-112633296D01*
X178356178Y-112622356D01*
X178303079Y-112575228D01*
X178283890Y-112506874D01*
X178284957Y-112491944D01*
X178303882Y-112348200D01*
X178283244Y-112191438D01*
X178239473Y-112085767D01*
X178231885Y-112015179D01*
X178263664Y-111951692D01*
X178324722Y-111915465D01*
X178395674Y-111917999D01*
X178432583Y-111937586D01*
X178465359Y-111962736D01*
X178611438Y-112023244D01*
X178768200Y-112043882D01*
X178924962Y-112023244D01*
X179071041Y-111962736D01*
X179196482Y-111866482D01*
X179292736Y-111741041D01*
X179335292Y-111638301D01*
X179379839Y-111583022D01*
X179447203Y-111560601D01*
X179515994Y-111578159D01*
X179564372Y-111630121D01*
X179577700Y-111686521D01*
X179577700Y-111741969D01*
X179592218Y-111814957D01*
X179610200Y-111905359D01*
X179610385Y-111906285D01*
X179613057Y-111912736D01*
X179674497Y-112061063D01*
X179675550Y-112062639D01*
X179767573Y-112200361D01*
X179767578Y-112200367D01*
X179886032Y-112318821D01*
X179886038Y-112318826D01*
X180025337Y-112411903D01*
X180180118Y-112476016D01*
X180344433Y-112508700D01*
X180344434Y-112508700D01*
X180511966Y-112508700D01*
X180511967Y-112508700D01*
X180676282Y-112476016D01*
X180831063Y-112411903D01*
X180970362Y-112318826D01*
X181088826Y-112200362D01*
X181181903Y-112061063D01*
X181246016Y-111906282D01*
X181278700Y-111741967D01*
X181278700Y-111574433D01*
X181246016Y-111410118D01*
X181181903Y-111255337D01*
X181088826Y-111116038D01*
X181088821Y-111116032D01*
X180970367Y-110997578D01*
X180970361Y-110997573D01*
X180863933Y-110926460D01*
X180831063Y-110904497D01*
X180707114Y-110853155D01*
X180676285Y-110840385D01*
X180676283Y-110840384D01*
X180676282Y-110840384D01*
X180593568Y-110823931D01*
X180511969Y-110807700D01*
X180511967Y-110807700D01*
X180344433Y-110807700D01*
X180344430Y-110807700D01*
X180222030Y-110832047D01*
X180180118Y-110840384D01*
X180180117Y-110840384D01*
X180180114Y-110840385D01*
X180025335Y-110904498D01*
X179886038Y-110997573D01*
X179886032Y-110997578D01*
X179767578Y-111116032D01*
X179767573Y-111116038D01*
X179674496Y-111255337D01*
X179674494Y-111255342D01*
X179608067Y-111415707D01*
X179563519Y-111470988D01*
X179496155Y-111493408D01*
X179427364Y-111475849D01*
X179378986Y-111423887D01*
X179366738Y-111383936D01*
X179353244Y-111281438D01*
X179292736Y-111135359D01*
X179196482Y-111009918D01*
X179071041Y-110913664D01*
X179048913Y-110904498D01*
X178924960Y-110853155D01*
X178768200Y-110832518D01*
X178611439Y-110853155D01*
X178465360Y-110913663D01*
X178465357Y-110913665D01*
X178339918Y-111009918D01*
X178243665Y-111135357D01*
X178243663Y-111135360D01*
X178183155Y-111281439D01*
X178162518Y-111438199D01*
X178162518Y-111438200D01*
X178183155Y-111594960D01*
X178226925Y-111700630D01*
X178234514Y-111771220D01*
X178202734Y-111834707D01*
X178141676Y-111870934D01*
X178070725Y-111868400D01*
X178033814Y-111848811D01*
X178001041Y-111823664D01*
X177983703Y-111816482D01*
X177854960Y-111763155D01*
X177698200Y-111742518D01*
X177541439Y-111763155D01*
X177395360Y-111823663D01*
X177395357Y-111823665D01*
X177269918Y-111919918D01*
X177173665Y-112045357D01*
X177173663Y-112045360D01*
X177113155Y-112191439D01*
X177092518Y-112348199D01*
X171776402Y-112348199D01*
X171820362Y-112318826D01*
X171938826Y-112200362D01*
X172031903Y-112061063D01*
X172096016Y-111906282D01*
X172128700Y-111741967D01*
X172128700Y-111574433D01*
X172096016Y-111410118D01*
X172031903Y-111255337D01*
X171938826Y-111116038D01*
X171938821Y-111116032D01*
X171820367Y-110997578D01*
X171820361Y-110997573D01*
X171713933Y-110926460D01*
X171681063Y-110904497D01*
X171557114Y-110853155D01*
X171526285Y-110840385D01*
X171526283Y-110840384D01*
X171526282Y-110840384D01*
X171443568Y-110823931D01*
X171361969Y-110807700D01*
X171361967Y-110807700D01*
X171194433Y-110807700D01*
X171194430Y-110807700D01*
X171072030Y-110832047D01*
X171030118Y-110840384D01*
X171030117Y-110840384D01*
X171030114Y-110840385D01*
X170875335Y-110904498D01*
X170736038Y-110997573D01*
X170736032Y-110997578D01*
X170617578Y-111116032D01*
X170617573Y-111116038D01*
X170524498Y-111255335D01*
X170460385Y-111410114D01*
X170460384Y-111410117D01*
X170460384Y-111410118D01*
X170452572Y-111449393D01*
X170427700Y-111574430D01*
X151270921Y-111574430D01*
X151212736Y-111433959D01*
X151116482Y-111308518D01*
X150991041Y-111212264D01*
X150958293Y-111198699D01*
X150844960Y-111151755D01*
X150688200Y-111131118D01*
X150531439Y-111151755D01*
X150385360Y-111212263D01*
X150385357Y-111212265D01*
X150259918Y-111308518D01*
X150163665Y-111433957D01*
X150163663Y-111433960D01*
X150103155Y-111580039D01*
X150082518Y-111736799D01*
X146757625Y-111736799D01*
X146792736Y-111691041D01*
X146853244Y-111544962D01*
X146873882Y-111388200D01*
X146853244Y-111231438D01*
X146792736Y-111085359D01*
X146696482Y-110959918D01*
X146571041Y-110863664D01*
X146568461Y-110862595D01*
X146424960Y-110803155D01*
X146268200Y-110782518D01*
X146111439Y-110803155D01*
X145965360Y-110863663D01*
X145965357Y-110863665D01*
X145839918Y-110959918D01*
X145743665Y-111085357D01*
X145743663Y-111085360D01*
X145683155Y-111231439D01*
X145662518Y-111388199D01*
X142632838Y-111388199D01*
X142722736Y-111271041D01*
X142783244Y-111124962D01*
X142803882Y-110968200D01*
X142783244Y-110811438D01*
X142722736Y-110665359D01*
X142626482Y-110539918D01*
X142501041Y-110443664D01*
X142432710Y-110415360D01*
X142367137Y-110388199D01*
X147772518Y-110388199D01*
X147772518Y-110388200D01*
X147793155Y-110544960D01*
X147843027Y-110665360D01*
X147853664Y-110691041D01*
X147949918Y-110816482D01*
X148075359Y-110912736D01*
X148221438Y-110973244D01*
X148378200Y-110993882D01*
X148534962Y-110973244D01*
X148681041Y-110912736D01*
X148806482Y-110816482D01*
X148902736Y-110691041D01*
X148963244Y-110544962D01*
X148983882Y-110388200D01*
X148963244Y-110231438D01*
X148902736Y-110085359D01*
X148812836Y-109968199D01*
X161032518Y-109968199D01*
X161032518Y-109968200D01*
X161053155Y-110124960D01*
X161097798Y-110232736D01*
X161113664Y-110271041D01*
X161209918Y-110396482D01*
X161335359Y-110492736D01*
X161481438Y-110553244D01*
X161638200Y-110573882D01*
X161794962Y-110553244D01*
X161883330Y-110516640D01*
X161953916Y-110509051D01*
X162017404Y-110540829D01*
X162047953Y-110584829D01*
X162048174Y-110585360D01*
X162081309Y-110665357D01*
X162083664Y-110671041D01*
X162179918Y-110796482D01*
X162305359Y-110892736D01*
X162451438Y-110953244D01*
X162608200Y-110973882D01*
X162764962Y-110953244D01*
X162911041Y-110892736D01*
X162916958Y-110888195D01*
X162983177Y-110862595D01*
X163052726Y-110876859D01*
X163103523Y-110926460D01*
X163110066Y-110939930D01*
X163143664Y-111021041D01*
X163239918Y-111146482D01*
X163365359Y-111242736D01*
X163511438Y-111303244D01*
X163668200Y-111323882D01*
X163824962Y-111303244D01*
X163971041Y-111242736D01*
X164096482Y-111146482D01*
X164192736Y-111021041D01*
X164253244Y-110874962D01*
X164273882Y-110718200D01*
X164270596Y-110693244D01*
X164263563Y-110639819D01*
X164253244Y-110561438D01*
X164192736Y-110415359D01*
X164096482Y-110289918D01*
X163971041Y-110193664D01*
X163896375Y-110162736D01*
X163824960Y-110133155D01*
X163668200Y-110112518D01*
X163511439Y-110133155D01*
X163365360Y-110193663D01*
X163365354Y-110193667D01*
X163359438Y-110198207D01*
X163293217Y-110223805D01*
X163223669Y-110209539D01*
X163172874Y-110159936D01*
X163166333Y-110146469D01*
X163132736Y-110065359D01*
X163036482Y-109939918D01*
X162911041Y-109843664D01*
X162871649Y-109827347D01*
X162777137Y-109788199D01*
X165242518Y-109788199D01*
X165242518Y-109788200D01*
X165263155Y-109944960D01*
X165321310Y-110085357D01*
X165323664Y-110091041D01*
X165419918Y-110216482D01*
X165545359Y-110312736D01*
X165691438Y-110373244D01*
X165848200Y-110393882D01*
X166004962Y-110373244D01*
X166151041Y-110312736D01*
X166276482Y-110216482D01*
X166361257Y-110105999D01*
X166418594Y-110064133D01*
X166489465Y-110059911D01*
X166551368Y-110094674D01*
X166561181Y-110106000D01*
X166599915Y-110156479D01*
X166599916Y-110156480D01*
X166599918Y-110156482D01*
X166725359Y-110252736D01*
X166871438Y-110313244D01*
X167028200Y-110333882D01*
X167184962Y-110313244D01*
X167331041Y-110252736D01*
X167456482Y-110156482D01*
X167552736Y-110031041D01*
X167603619Y-109908199D01*
X174002518Y-109908199D01*
X174002518Y-109908200D01*
X174023155Y-110064960D01*
X174076467Y-110193665D01*
X174083664Y-110211041D01*
X174179918Y-110336482D01*
X174305359Y-110432736D01*
X174451438Y-110493244D01*
X174608200Y-110513882D01*
X174764962Y-110493244D01*
X174911041Y-110432736D01*
X175036482Y-110336482D01*
X175132736Y-110211041D01*
X175155932Y-110155040D01*
X175200477Y-110099762D01*
X175267840Y-110077340D01*
X175336632Y-110094897D01*
X175372300Y-110126554D01*
X175379918Y-110136482D01*
X175505359Y-110232736D01*
X175651438Y-110293244D01*
X175808200Y-110313882D01*
X175964962Y-110293244D01*
X176111041Y-110232736D01*
X176236482Y-110136482D01*
X176332736Y-110011041D01*
X176393244Y-109864962D01*
X176413882Y-109708200D01*
X176404782Y-109639082D01*
X176400343Y-109605359D01*
X176393244Y-109551438D01*
X176332736Y-109405359D01*
X176236482Y-109279918D01*
X176111041Y-109183664D01*
X176108275Y-109182518D01*
X175964960Y-109123155D01*
X175808200Y-109102518D01*
X175651439Y-109123155D01*
X175505360Y-109183663D01*
X175505357Y-109183665D01*
X175379918Y-109279918D01*
X175283665Y-109405357D01*
X175283664Y-109405359D01*
X175260467Y-109461359D01*
X175215920Y-109516638D01*
X175148557Y-109539059D01*
X175079765Y-109521500D01*
X175044097Y-109489842D01*
X175036483Y-109479919D01*
X174989235Y-109443664D01*
X174911041Y-109383664D01*
X174909813Y-109383155D01*
X174764960Y-109323155D01*
X174608200Y-109302518D01*
X174451439Y-109323155D01*
X174305360Y-109383663D01*
X174305357Y-109383665D01*
X174179918Y-109479918D01*
X174083665Y-109605357D01*
X174083663Y-109605360D01*
X174023155Y-109751439D01*
X174002518Y-109908199D01*
X167603619Y-109908199D01*
X167613244Y-109884962D01*
X167633882Y-109728200D01*
X167613244Y-109571438D01*
X167552736Y-109425359D01*
X167456482Y-109299918D01*
X167331041Y-109203664D01*
X167329813Y-109203155D01*
X167184960Y-109143155D01*
X167028200Y-109122518D01*
X166871439Y-109143155D01*
X166725360Y-109203663D01*
X166725357Y-109203665D01*
X166599915Y-109299920D01*
X166515142Y-109410399D01*
X166457804Y-109452266D01*
X166386933Y-109456488D01*
X166325030Y-109421724D01*
X166315218Y-109410399D01*
X166276484Y-109359920D01*
X166276482Y-109359919D01*
X166276482Y-109359918D01*
X166151041Y-109263664D01*
X166045553Y-109219969D01*
X166004960Y-109203155D01*
X165848200Y-109182518D01*
X165691439Y-109203155D01*
X165545360Y-109263663D01*
X165545357Y-109263665D01*
X165419918Y-109359918D01*
X165323665Y-109485357D01*
X165323663Y-109485360D01*
X165263155Y-109631439D01*
X165242518Y-109788199D01*
X162777137Y-109788199D01*
X162764960Y-109783155D01*
X162608200Y-109762518D01*
X162451437Y-109783156D01*
X162363070Y-109819758D01*
X162292480Y-109827347D01*
X162228993Y-109795567D01*
X162198445Y-109751569D01*
X162162736Y-109665359D01*
X162066482Y-109539918D01*
X161941041Y-109443664D01*
X161896852Y-109425360D01*
X161794960Y-109383155D01*
X161638200Y-109362518D01*
X161481439Y-109383155D01*
X161335360Y-109443663D01*
X161335357Y-109443665D01*
X161209918Y-109539918D01*
X161113665Y-109665357D01*
X161113663Y-109665360D01*
X161053155Y-109811439D01*
X161032518Y-109968199D01*
X148812836Y-109968199D01*
X148806482Y-109959918D01*
X148681041Y-109863664D01*
X148632760Y-109843665D01*
X148534960Y-109803155D01*
X148378200Y-109782518D01*
X148221439Y-109803155D01*
X148075360Y-109863663D01*
X148075357Y-109863665D01*
X147949918Y-109959918D01*
X147853665Y-110085357D01*
X147853663Y-110085360D01*
X147793155Y-110231439D01*
X147772518Y-110388199D01*
X142367137Y-110388199D01*
X142354960Y-110383155D01*
X142198200Y-110362518D01*
X142041439Y-110383155D01*
X141895360Y-110443663D01*
X141895357Y-110443665D01*
X141769918Y-110539918D01*
X141673665Y-110665357D01*
X141673663Y-110665360D01*
X141613155Y-110811439D01*
X141592518Y-110968199D01*
X132039347Y-110968199D01*
X132049879Y-110888200D01*
X132049879Y-110888196D01*
X132029241Y-110731439D01*
X132023758Y-110718200D01*
X131968733Y-110585359D01*
X131872479Y-110459918D01*
X131747038Y-110363664D01*
X131744272Y-110362518D01*
X131600957Y-110303155D01*
X131444197Y-110282518D01*
X131287436Y-110303155D01*
X131141357Y-110363663D01*
X131141354Y-110363665D01*
X131015915Y-110459918D01*
X130919662Y-110585357D01*
X130919660Y-110585360D01*
X130859152Y-110731439D01*
X130838515Y-110888196D01*
X102158700Y-110888196D01*
X102158700Y-110108199D01*
X136652518Y-110108199D01*
X136652518Y-110108200D01*
X136673155Y-110264960D01*
X136724203Y-110388199D01*
X136733664Y-110411041D01*
X136829918Y-110536482D01*
X136955359Y-110632736D01*
X137101438Y-110693244D01*
X137258200Y-110713882D01*
X137414962Y-110693244D01*
X137561041Y-110632736D01*
X137686482Y-110536482D01*
X137782736Y-110411041D01*
X137843244Y-110264962D01*
X137863882Y-110108200D01*
X137863592Y-110106001D01*
X137843244Y-109951439D01*
X137840562Y-109944962D01*
X137782736Y-109805359D01*
X137686482Y-109679918D01*
X137632113Y-109638199D01*
X143682518Y-109638199D01*
X143682518Y-109638200D01*
X143703155Y-109794960D01*
X143760849Y-109934244D01*
X143763664Y-109941041D01*
X143859918Y-110066482D01*
X143985359Y-110162736D01*
X144131438Y-110223244D01*
X144288200Y-110243882D01*
X144444962Y-110223244D01*
X144591041Y-110162736D01*
X144716482Y-110066482D01*
X144812736Y-109941041D01*
X144873244Y-109794962D01*
X144893882Y-109638200D01*
X144873244Y-109481438D01*
X144818469Y-109349199D01*
X150641318Y-109349199D01*
X150641318Y-109349200D01*
X150661955Y-109505960D01*
X150703128Y-109605359D01*
X150722464Y-109652041D01*
X150818718Y-109777482D01*
X150944159Y-109873736D01*
X151090238Y-109934244D01*
X151247000Y-109954882D01*
X151403762Y-109934244D01*
X151549841Y-109873736D01*
X151675282Y-109777482D01*
X151771536Y-109652041D01*
X151832044Y-109505962D01*
X151852682Y-109349200D01*
X151832044Y-109192438D01*
X151771536Y-109046359D01*
X151675282Y-108920918D01*
X151549841Y-108824664D01*
X151403762Y-108764156D01*
X151403760Y-108764155D01*
X151247000Y-108743518D01*
X151090239Y-108764155D01*
X150944160Y-108824663D01*
X150944157Y-108824665D01*
X150818718Y-108920918D01*
X150722465Y-109046357D01*
X150722463Y-109046360D01*
X150661955Y-109192439D01*
X150641318Y-109349199D01*
X144818469Y-109349199D01*
X144812736Y-109335359D01*
X144716482Y-109209918D01*
X144591041Y-109113664D01*
X144564133Y-109102518D01*
X144444960Y-109053155D01*
X144288200Y-109032518D01*
X144131439Y-109053155D01*
X143985360Y-109113663D01*
X143985357Y-109113665D01*
X143859918Y-109209918D01*
X143763665Y-109335357D01*
X143763663Y-109335360D01*
X143703155Y-109481439D01*
X143682518Y-109638199D01*
X137632113Y-109638199D01*
X137561041Y-109583664D01*
X137531528Y-109571439D01*
X137414960Y-109523155D01*
X137258200Y-109502518D01*
X137101439Y-109523155D01*
X136955360Y-109583663D01*
X136955357Y-109583665D01*
X136829918Y-109679918D01*
X136733665Y-109805357D01*
X136733663Y-109805360D01*
X136673155Y-109951439D01*
X136652518Y-110108199D01*
X102158700Y-110108199D01*
X102158700Y-109278452D01*
X102147067Y-109219969D01*
X102102752Y-109153648D01*
X102036431Y-109109333D01*
X102036428Y-109109332D01*
X101977950Y-109097700D01*
X101977948Y-109097700D01*
X100238452Y-109097700D01*
X100238449Y-109097700D01*
X100179971Y-109109332D01*
X100179968Y-109109333D01*
X100113648Y-109153648D01*
X100069333Y-109219968D01*
X100069332Y-109219971D01*
X100057700Y-109278449D01*
X99615081Y-109278449D01*
X99614579Y-107608196D01*
X100052617Y-107608196D01*
X100052617Y-107608203D01*
X100072898Y-107814127D01*
X100072899Y-107814133D01*
X100072900Y-107814134D01*
X100119797Y-107968734D01*
X100132968Y-108012154D01*
X100225336Y-108184962D01*
X100230515Y-108194650D01*
X100361790Y-108354610D01*
X100521750Y-108485885D01*
X100704246Y-108583432D01*
X100902266Y-108643500D01*
X100902270Y-108643500D01*
X100902272Y-108643501D01*
X101108197Y-108663783D01*
X101108200Y-108663783D01*
X101108203Y-108663783D01*
X101314127Y-108643501D01*
X101314128Y-108643500D01*
X101314134Y-108643500D01*
X101512154Y-108583432D01*
X101694650Y-108485885D01*
X101854610Y-108354610D01*
X101985885Y-108194650D01*
X102083432Y-108012154D01*
X102143500Y-107814134D01*
X102145738Y-107791418D01*
X102163783Y-107608203D01*
X102163783Y-107608196D01*
X102143501Y-107402272D01*
X102143500Y-107402270D01*
X102143500Y-107402266D01*
X102136199Y-107378199D01*
X131852518Y-107378199D01*
X131852518Y-107378200D01*
X131873155Y-107534960D01*
X131931776Y-107676482D01*
X131933664Y-107681041D01*
X132029918Y-107806482D01*
X132155359Y-107902736D01*
X132301438Y-107963244D01*
X132458200Y-107983882D01*
X132614962Y-107963244D01*
X132761041Y-107902736D01*
X132886482Y-107806482D01*
X132982736Y-107681041D01*
X133043244Y-107534962D01*
X133063882Y-107378200D01*
X133059932Y-107348200D01*
X133043244Y-107221439D01*
X133040015Y-107213642D01*
X132982736Y-107075359D01*
X132886482Y-106949918D01*
X132835501Y-106910799D01*
X135071118Y-106910799D01*
X135071118Y-106910800D01*
X135091755Y-107067560D01*
X135143068Y-107191439D01*
X135152264Y-107213641D01*
X135248518Y-107339082D01*
X135373959Y-107435336D01*
X135520038Y-107495844D01*
X135676800Y-107516482D01*
X135833562Y-107495844D01*
X135979641Y-107435336D01*
X136093200Y-107348199D01*
X138287518Y-107348199D01*
X138287518Y-107348200D01*
X138308155Y-107504960D01*
X138350919Y-107608200D01*
X138368664Y-107651041D01*
X138464918Y-107776482D01*
X138590359Y-107872736D01*
X138736438Y-107933244D01*
X138893200Y-107953882D01*
X139049962Y-107933244D01*
X139196041Y-107872736D01*
X139321482Y-107776482D01*
X139417736Y-107651041D01*
X139440287Y-107596599D01*
X140887718Y-107596599D01*
X140887718Y-107596600D01*
X140908355Y-107753360D01*
X140957802Y-107872734D01*
X140968864Y-107899441D01*
X141065118Y-108024882D01*
X141190559Y-108121136D01*
X141336638Y-108181644D01*
X141493400Y-108202282D01*
X141650162Y-108181644D01*
X141796241Y-108121136D01*
X141921682Y-108024882D01*
X142017936Y-107899441D01*
X142070676Y-107772113D01*
X142115223Y-107716835D01*
X142182587Y-107694414D01*
X142251378Y-107711972D01*
X142287047Y-107743630D01*
X142289663Y-107747039D01*
X142289664Y-107747041D01*
X142385918Y-107872482D01*
X142511359Y-107968736D01*
X142657438Y-108029244D01*
X142664677Y-108030197D01*
X142729605Y-108058918D01*
X142768698Y-108118183D01*
X142769544Y-108189174D01*
X142750927Y-108226366D01*
X142750995Y-108226405D01*
X142750344Y-108227532D01*
X142748199Y-108231818D01*
X142746869Y-108233550D01*
X142746863Y-108233560D01*
X142686355Y-108379639D01*
X142665718Y-108536399D01*
X142665718Y-108536400D01*
X142686355Y-108693160D01*
X142740826Y-108824663D01*
X142746864Y-108839241D01*
X142843118Y-108964682D01*
X142968559Y-109060936D01*
X143114638Y-109121444D01*
X143271400Y-109142082D01*
X143428162Y-109121444D01*
X143574241Y-109060936D01*
X143699682Y-108964682D01*
X143795936Y-108839241D01*
X143856444Y-108693162D01*
X143876845Y-108538199D01*
X170332518Y-108538199D01*
X170332518Y-108538200D01*
X170353155Y-108694960D01*
X170412918Y-108839239D01*
X170413664Y-108841041D01*
X170509918Y-108966482D01*
X170635359Y-109062736D01*
X170781438Y-109123244D01*
X170938200Y-109143882D01*
X171094962Y-109123244D01*
X171241041Y-109062736D01*
X171366482Y-108966482D01*
X171462736Y-108841041D01*
X171523244Y-108694962D01*
X171543882Y-108538200D01*
X171523244Y-108381438D01*
X171462736Y-108235359D01*
X171366482Y-108109918D01*
X171241041Y-108013664D01*
X171236696Y-108011864D01*
X171094960Y-107953155D01*
X170938200Y-107932518D01*
X170781439Y-107953155D01*
X170635360Y-108013663D01*
X170635357Y-108013665D01*
X170509918Y-108109918D01*
X170413665Y-108235357D01*
X170413663Y-108235360D01*
X170353155Y-108381439D01*
X170332518Y-108538199D01*
X143876845Y-108538199D01*
X143877082Y-108536400D01*
X143856444Y-108379638D01*
X143795936Y-108233559D01*
X143699682Y-108108118D01*
X143574241Y-108011864D01*
X143428162Y-107951356D01*
X143428161Y-107951355D01*
X143428157Y-107951354D01*
X143428159Y-107951354D01*
X143420915Y-107950401D01*
X143355989Y-107921676D01*
X143316899Y-107862410D01*
X143316057Y-107791418D01*
X143334672Y-107754234D01*
X143334605Y-107754195D01*
X143335263Y-107753053D01*
X143337406Y-107748772D01*
X143338736Y-107747041D01*
X143399244Y-107600962D01*
X143419882Y-107444200D01*
X143419728Y-107443034D01*
X143399244Y-107287439D01*
X143398458Y-107285540D01*
X143382991Y-107248199D01*
X146522518Y-107248199D01*
X146522518Y-107248200D01*
X146543155Y-107404960D01*
X146597822Y-107536936D01*
X146603664Y-107551041D01*
X146699918Y-107676482D01*
X146825359Y-107772736D01*
X146971438Y-107833244D01*
X147128200Y-107853882D01*
X147284962Y-107833244D01*
X147431041Y-107772736D01*
X147556482Y-107676482D01*
X147652736Y-107551041D01*
X147713244Y-107404962D01*
X147733882Y-107248200D01*
X147713244Y-107091438D01*
X147652736Y-106945359D01*
X147556482Y-106819918D01*
X147431041Y-106723664D01*
X147418302Y-106718387D01*
X147284960Y-106663155D01*
X147128200Y-106642518D01*
X146971439Y-106663155D01*
X146825360Y-106723663D01*
X146825357Y-106723665D01*
X146699918Y-106819918D01*
X146603665Y-106945357D01*
X146603663Y-106945360D01*
X146543155Y-107091439D01*
X146522518Y-107248199D01*
X143382991Y-107248199D01*
X143338736Y-107141359D01*
X143242482Y-107015918D01*
X143117041Y-106919664D01*
X143095642Y-106910800D01*
X142970960Y-106859155D01*
X142814200Y-106838518D01*
X142657439Y-106859155D01*
X142511360Y-106919663D01*
X142511357Y-106919665D01*
X142385918Y-107015918D01*
X142289665Y-107141357D01*
X142289661Y-107141364D01*
X142236923Y-107268684D01*
X142192375Y-107323965D01*
X142125011Y-107346385D01*
X142056220Y-107328826D01*
X142020552Y-107297169D01*
X142017936Y-107293760D01*
X142017936Y-107293759D01*
X141921682Y-107168318D01*
X141796241Y-107072064D01*
X141785373Y-107067562D01*
X141650160Y-107011555D01*
X141493400Y-106990918D01*
X141336639Y-107011555D01*
X141190560Y-107072063D01*
X141190557Y-107072065D01*
X141065118Y-107168318D01*
X140968865Y-107293757D01*
X140968863Y-107293760D01*
X140908355Y-107439839D01*
X140887718Y-107596599D01*
X139440287Y-107596599D01*
X139478244Y-107504962D01*
X139498882Y-107348200D01*
X139497681Y-107339081D01*
X139482194Y-107221439D01*
X139478244Y-107191438D01*
X139417736Y-107045359D01*
X139321482Y-106919918D01*
X139196041Y-106823664D01*
X139186998Y-106819918D01*
X139049960Y-106763155D01*
X138893200Y-106742518D01*
X138736439Y-106763155D01*
X138590360Y-106823663D01*
X138590357Y-106823665D01*
X138464918Y-106919918D01*
X138368665Y-107045357D01*
X138368663Y-107045360D01*
X138308155Y-107191439D01*
X138287518Y-107348199D01*
X136093200Y-107348199D01*
X136105082Y-107339082D01*
X136201336Y-107213641D01*
X136261844Y-107067562D01*
X136282482Y-106910800D01*
X136261844Y-106754038D01*
X136201336Y-106607959D01*
X136105082Y-106482518D01*
X135979641Y-106386264D01*
X135972136Y-106383155D01*
X135833560Y-106325755D01*
X135676800Y-106305118D01*
X135520039Y-106325755D01*
X135373960Y-106386263D01*
X135373957Y-106386265D01*
X135248518Y-106482518D01*
X135152265Y-106607957D01*
X135152263Y-106607960D01*
X135091755Y-106754039D01*
X135071118Y-106910799D01*
X132835501Y-106910799D01*
X132761041Y-106853664D01*
X132724476Y-106838518D01*
X132614960Y-106793155D01*
X132458200Y-106772518D01*
X132301439Y-106793155D01*
X132155360Y-106853663D01*
X132155357Y-106853665D01*
X132029918Y-106949918D01*
X131933665Y-107075357D01*
X131933663Y-107075360D01*
X131873155Y-107221439D01*
X131852518Y-107378199D01*
X102136199Y-107378199D01*
X102083432Y-107204246D01*
X101985885Y-107021750D01*
X101854610Y-106861790D01*
X101694650Y-106730515D01*
X101694648Y-106730514D01*
X101694647Y-106730513D01*
X101512154Y-106632968D01*
X101375668Y-106591566D01*
X101314134Y-106572900D01*
X101314133Y-106572899D01*
X101314127Y-106572898D01*
X101108203Y-106552617D01*
X101108197Y-106552617D01*
X100902272Y-106572898D01*
X100704245Y-106632968D01*
X100521752Y-106730513D01*
X100361790Y-106861790D01*
X100230513Y-107021752D01*
X100132968Y-107204245D01*
X100072898Y-107402272D01*
X100052617Y-107608196D01*
X99614579Y-107608196D01*
X99613919Y-105412199D01*
X128746518Y-105412199D01*
X128746518Y-105412200D01*
X128767155Y-105568960D01*
X128789905Y-105623882D01*
X128827664Y-105715041D01*
X128923918Y-105840482D01*
X129049359Y-105936736D01*
X129195438Y-105997244D01*
X129352200Y-106017882D01*
X129508962Y-105997244D01*
X129655041Y-105936736D01*
X129780482Y-105840482D01*
X129876736Y-105715041D01*
X129937244Y-105568962D01*
X129957882Y-105412200D01*
X129957729Y-105411041D01*
X129938498Y-105264962D01*
X129937244Y-105255438D01*
X129876736Y-105109359D01*
X129780482Y-104983918D01*
X129655041Y-104887664D01*
X129611243Y-104869522D01*
X129508960Y-104827155D01*
X129352200Y-104806518D01*
X129195439Y-104827155D01*
X129049360Y-104887663D01*
X129049357Y-104887665D01*
X128923918Y-104983918D01*
X128827665Y-105109357D01*
X128827663Y-105109360D01*
X128767155Y-105255439D01*
X128746518Y-105412199D01*
X99613919Y-105412199D01*
X99613596Y-104338199D01*
X148952518Y-104338199D01*
X148952518Y-104338200D01*
X148973155Y-104494960D01*
X149024203Y-104618199D01*
X149033664Y-104641041D01*
X149129918Y-104766482D01*
X149189480Y-104812185D01*
X149231346Y-104869522D01*
X149235568Y-104940393D01*
X149200804Y-105002296D01*
X149195814Y-105006620D01*
X149193123Y-105009311D01*
X149096865Y-105134757D01*
X149096863Y-105134760D01*
X149036355Y-105280839D01*
X149015718Y-105437599D01*
X149015718Y-105437600D01*
X149036355Y-105594360D01*
X149093672Y-105732734D01*
X149096864Y-105740441D01*
X149193118Y-105865882D01*
X149318559Y-105962136D01*
X149397206Y-105994712D01*
X149452485Y-106039259D01*
X149474906Y-106106622D01*
X149457348Y-106175414D01*
X149425690Y-106211082D01*
X149309920Y-106299915D01*
X149213665Y-106425357D01*
X149213663Y-106425360D01*
X149153155Y-106571439D01*
X149132518Y-106728199D01*
X149132518Y-106728200D01*
X149153155Y-106884960D01*
X149209816Y-107021750D01*
X149213664Y-107031041D01*
X149309918Y-107156482D01*
X149435359Y-107252736D01*
X149581438Y-107313244D01*
X149738200Y-107333882D01*
X149894962Y-107313244D01*
X150041041Y-107252736D01*
X150166482Y-107156482D01*
X150262736Y-107031041D01*
X150270458Y-107012399D01*
X156661118Y-107012399D01*
X156661118Y-107012400D01*
X156681755Y-107169160D01*
X156730748Y-107287438D01*
X156742264Y-107315241D01*
X156838518Y-107440682D01*
X156963959Y-107536936D01*
X157110038Y-107597444D01*
X157266800Y-107618082D01*
X157423562Y-107597444D01*
X157569641Y-107536936D01*
X157695082Y-107440682D01*
X157791336Y-107315241D01*
X157851844Y-107169162D01*
X157872482Y-107012400D01*
X157872355Y-107011439D01*
X157858643Y-106907281D01*
X157851844Y-106855638D01*
X157791336Y-106709559D01*
X157695082Y-106584118D01*
X157569641Y-106487864D01*
X157548242Y-106479000D01*
X157548240Y-106478999D01*
X167049718Y-106478999D01*
X167049718Y-106479000D01*
X167070355Y-106635760D01*
X167119348Y-106754038D01*
X167130864Y-106781841D01*
X167227118Y-106907282D01*
X167352559Y-107003536D01*
X167498638Y-107064044D01*
X167655400Y-107084682D01*
X167812162Y-107064044D01*
X167958241Y-107003536D01*
X168004293Y-106968199D01*
X180232518Y-106968199D01*
X180232518Y-106968200D01*
X180253155Y-107124960D01*
X180304203Y-107248199D01*
X180313664Y-107271041D01*
X180409918Y-107396482D01*
X180535359Y-107492736D01*
X180681438Y-107553244D01*
X180838200Y-107573882D01*
X180994962Y-107553244D01*
X180994967Y-107553241D01*
X181002938Y-107551107D01*
X181003544Y-107553370D01*
X181062114Y-107547060D01*
X181125608Y-107578824D01*
X181161851Y-107639873D01*
X181159334Y-107710825D01*
X181156181Y-107719281D01*
X181093155Y-107871439D01*
X181072518Y-108028199D01*
X181072518Y-108028200D01*
X181093155Y-108184960D01*
X181114032Y-108235360D01*
X181153664Y-108331041D01*
X181249918Y-108456482D01*
X181375359Y-108552736D01*
X181521438Y-108613244D01*
X181678200Y-108633882D01*
X181834962Y-108613244D01*
X181981041Y-108552736D01*
X182106482Y-108456482D01*
X182202736Y-108331041D01*
X182263244Y-108184962D01*
X182283882Y-108028200D01*
X182283445Y-108024881D01*
X182269154Y-107916328D01*
X182280093Y-107846179D01*
X182327222Y-107793081D01*
X182380387Y-107777813D01*
X182380012Y-107774960D01*
X182388200Y-107773882D01*
X182544962Y-107753244D01*
X182691041Y-107692736D01*
X182816482Y-107596482D01*
X182912736Y-107471041D01*
X182973244Y-107324962D01*
X182993882Y-107168200D01*
X182991126Y-107147269D01*
X183002064Y-107077124D01*
X183049191Y-107024024D01*
X183117545Y-107004833D01*
X183153184Y-107012142D01*
X183153462Y-107011107D01*
X183161434Y-107013242D01*
X183161438Y-107013244D01*
X183318200Y-107033882D01*
X183474962Y-107013244D01*
X183621041Y-106952736D01*
X183746482Y-106856482D01*
X183842736Y-106731041D01*
X183903244Y-106584962D01*
X183923882Y-106428200D01*
X183903244Y-106271438D01*
X183842736Y-106125359D01*
X183746482Y-105999918D01*
X183621041Y-105903664D01*
X183597602Y-105893955D01*
X183474960Y-105843155D01*
X183318200Y-105822518D01*
X183161439Y-105843155D01*
X183015360Y-105903663D01*
X183015357Y-105903665D01*
X182889918Y-105999918D01*
X182793665Y-106125357D01*
X182793663Y-106125360D01*
X182733155Y-106271439D01*
X182712518Y-106428199D01*
X182712518Y-106428201D01*
X182715273Y-106449130D01*
X182704333Y-106519279D01*
X182657204Y-106572377D01*
X182588850Y-106591566D01*
X182553215Y-106584258D01*
X182552938Y-106585293D01*
X182544963Y-106583156D01*
X182388200Y-106562518D01*
X182231439Y-106583155D01*
X182085360Y-106643663D01*
X182085357Y-106643665D01*
X181959918Y-106739918D01*
X181863665Y-106865357D01*
X181863663Y-106865360D01*
X181803155Y-107011439D01*
X181782518Y-107168199D01*
X181782518Y-107168200D01*
X181797246Y-107280072D01*
X181786307Y-107350221D01*
X181739178Y-107403319D01*
X181686012Y-107418586D01*
X181686388Y-107421440D01*
X181521436Y-107443156D01*
X181513462Y-107445293D01*
X181512856Y-107443034D01*
X181454250Y-107449333D01*
X181390764Y-107417551D01*
X181354539Y-107356491D01*
X181357077Y-107285540D01*
X181360218Y-107277118D01*
X181362735Y-107271042D01*
X181362736Y-107271041D01*
X181423244Y-107124962D01*
X181443882Y-106968200D01*
X181440596Y-106943244D01*
X181432923Y-106884960D01*
X181423244Y-106811438D01*
X181362736Y-106665359D01*
X181266482Y-106539918D01*
X181141041Y-106443664D01*
X181103706Y-106428199D01*
X180994960Y-106383155D01*
X180838200Y-106362518D01*
X180681439Y-106383155D01*
X180535360Y-106443663D01*
X180535357Y-106443665D01*
X180409918Y-106539918D01*
X180313665Y-106665357D01*
X180313663Y-106665360D01*
X180253155Y-106811439D01*
X180232518Y-106968199D01*
X168004293Y-106968199D01*
X168083682Y-106907282D01*
X168179936Y-106781841D01*
X168240444Y-106635762D01*
X168261082Y-106479000D01*
X168240444Y-106322238D01*
X168179936Y-106176159D01*
X168083682Y-106050718D01*
X167958241Y-105954464D01*
X167938969Y-105946481D01*
X167812160Y-105893955D01*
X167655400Y-105873318D01*
X167498639Y-105893955D01*
X167352560Y-105954463D01*
X167352557Y-105954465D01*
X167227118Y-106050718D01*
X167130865Y-106176157D01*
X167130863Y-106176160D01*
X167070355Y-106322239D01*
X167049718Y-106478999D01*
X157548240Y-106478999D01*
X157423560Y-106427355D01*
X157266800Y-106406718D01*
X157110039Y-106427355D01*
X156963960Y-106487863D01*
X156963957Y-106487865D01*
X156838518Y-106584118D01*
X156742265Y-106709557D01*
X156742263Y-106709560D01*
X156681755Y-106855639D01*
X156661118Y-107012399D01*
X150270458Y-107012399D01*
X150323244Y-106884962D01*
X150343882Y-106728200D01*
X150323244Y-106571438D01*
X150262736Y-106425359D01*
X150211202Y-106358199D01*
X154672518Y-106358199D01*
X154672518Y-106358200D01*
X154693155Y-106514960D01*
X154746467Y-106643665D01*
X154753664Y-106661041D01*
X154849918Y-106786482D01*
X154975359Y-106882736D01*
X155121438Y-106943244D01*
X155278200Y-106963882D01*
X155434962Y-106943244D01*
X155581041Y-106882736D01*
X155706482Y-106786482D01*
X155802736Y-106661041D01*
X155863244Y-106514962D01*
X155883882Y-106358200D01*
X155880680Y-106333882D01*
X155863244Y-106201439D01*
X155850673Y-106171088D01*
X155802736Y-106055359D01*
X155706482Y-105929918D01*
X155581041Y-105833664D01*
X155554133Y-105822518D01*
X155434960Y-105773155D01*
X155278200Y-105752518D01*
X155121439Y-105773155D01*
X154975360Y-105833663D01*
X154975357Y-105833665D01*
X154849918Y-105929918D01*
X154753665Y-106055357D01*
X154753663Y-106055360D01*
X154693155Y-106201439D01*
X154672518Y-106358199D01*
X150211202Y-106358199D01*
X150166482Y-106299918D01*
X150041041Y-106203664D01*
X150035669Y-106201439D01*
X150011936Y-106191608D01*
X149962394Y-106171087D01*
X149907114Y-106126539D01*
X149884693Y-106059176D01*
X149902251Y-105990385D01*
X149933907Y-105954718D01*
X150049682Y-105865882D01*
X150145936Y-105740441D01*
X150206444Y-105594362D01*
X150227082Y-105437600D01*
X150225470Y-105425359D01*
X150211737Y-105321041D01*
X150206444Y-105280838D01*
X150145936Y-105134759D01*
X150056497Y-105018199D01*
X151892518Y-105018199D01*
X151892518Y-105018200D01*
X151913155Y-105174960D01*
X151964915Y-105299918D01*
X151973664Y-105321041D01*
X152069918Y-105446482D01*
X152195359Y-105542736D01*
X152341438Y-105603244D01*
X152498200Y-105623882D01*
X152654962Y-105603244D01*
X152801041Y-105542736D01*
X152833018Y-105518199D01*
X172002518Y-105518199D01*
X172002518Y-105518200D01*
X172023155Y-105674960D01*
X172080699Y-105813882D01*
X172083664Y-105821041D01*
X172179918Y-105946482D01*
X172305359Y-106042736D01*
X172451438Y-106103244D01*
X172608200Y-106123882D01*
X172764962Y-106103244D01*
X172911041Y-106042736D01*
X173036482Y-105946482D01*
X173132736Y-105821041D01*
X173183697Y-105698008D01*
X173228243Y-105642731D01*
X173295606Y-105620309D01*
X173348323Y-105629820D01*
X173355354Y-105632732D01*
X173355359Y-105632736D01*
X173501438Y-105693244D01*
X173658200Y-105713882D01*
X173814962Y-105693244D01*
X173961041Y-105632736D01*
X174086482Y-105536482D01*
X174182736Y-105411041D01*
X174243244Y-105264962D01*
X174250717Y-105208199D01*
X174722518Y-105208199D01*
X174722518Y-105208200D01*
X174743155Y-105364960D01*
X174762723Y-105412200D01*
X174803664Y-105511041D01*
X174899918Y-105636482D01*
X175025359Y-105732736D01*
X175171438Y-105793244D01*
X175328200Y-105813882D01*
X175484962Y-105793244D01*
X175631041Y-105732736D01*
X175636954Y-105728199D01*
X176572518Y-105728199D01*
X176572518Y-105728200D01*
X176593155Y-105884960D01*
X176638616Y-105994711D01*
X176653664Y-106031041D01*
X176749918Y-106156482D01*
X176875359Y-106252736D01*
X177021438Y-106313244D01*
X177178200Y-106333882D01*
X177334962Y-106313244D01*
X177481041Y-106252736D01*
X177606482Y-106156482D01*
X177702736Y-106031041D01*
X177763244Y-105884962D01*
X177783882Y-105728200D01*
X177763244Y-105571438D01*
X177702736Y-105425359D01*
X177691750Y-105411042D01*
X177608962Y-105303150D01*
X177583361Y-105236930D01*
X177597626Y-105167381D01*
X177632218Y-105126486D01*
X177736482Y-105046482D01*
X177832736Y-104921041D01*
X177893244Y-104774962D01*
X177913882Y-104618200D01*
X177911817Y-104602518D01*
X177893244Y-104461439D01*
X177891327Y-104456809D01*
X177832736Y-104315359D01*
X177736482Y-104189918D01*
X177611041Y-104093664D01*
X177558453Y-104071881D01*
X177464960Y-104033155D01*
X177308200Y-104012518D01*
X177151439Y-104033155D01*
X177005360Y-104093663D01*
X177005357Y-104093665D01*
X176879918Y-104189918D01*
X176783665Y-104315357D01*
X176783663Y-104315360D01*
X176723155Y-104461439D01*
X176702518Y-104618199D01*
X176702518Y-104618200D01*
X176723155Y-104774960D01*
X176780134Y-104912518D01*
X176783664Y-104921041D01*
X176877438Y-105043250D01*
X176903038Y-105109469D01*
X176888773Y-105179018D01*
X176854179Y-105219915D01*
X176749920Y-105299915D01*
X176653665Y-105425357D01*
X176653663Y-105425360D01*
X176593155Y-105571439D01*
X176572518Y-105728199D01*
X175636954Y-105728199D01*
X175756482Y-105636482D01*
X175852736Y-105511041D01*
X175913244Y-105364962D01*
X175933882Y-105208200D01*
X175913244Y-105051438D01*
X175852736Y-104905359D01*
X175756482Y-104779918D01*
X175631041Y-104683664D01*
X175621998Y-104679918D01*
X175484960Y-104623155D01*
X175328200Y-104602518D01*
X175171439Y-104623155D01*
X175025360Y-104683663D01*
X175025357Y-104683665D01*
X174899918Y-104779918D01*
X174803665Y-104905357D01*
X174803663Y-104905360D01*
X174743155Y-105051439D01*
X174722518Y-105208199D01*
X174250717Y-105208199D01*
X174263882Y-105108200D01*
X174243244Y-104951438D01*
X174182736Y-104805359D01*
X174086482Y-104679918D01*
X173961041Y-104583664D01*
X173834636Y-104531305D01*
X173814960Y-104523155D01*
X173658200Y-104502518D01*
X173501439Y-104523155D01*
X173355360Y-104583663D01*
X173355357Y-104583665D01*
X173229918Y-104679918D01*
X173133665Y-104805357D01*
X173133663Y-104805360D01*
X173107087Y-104869522D01*
X173085747Y-104921042D01*
X173082704Y-104928388D01*
X173038155Y-104983669D01*
X172970792Y-105006090D01*
X172918077Y-104996579D01*
X172911042Y-104993665D01*
X172911041Y-104993664D01*
X172764962Y-104933156D01*
X172764960Y-104933155D01*
X172608200Y-104912518D01*
X172451439Y-104933155D01*
X172305360Y-104993663D01*
X172305357Y-104993665D01*
X172179918Y-105089918D01*
X172083665Y-105215357D01*
X172083663Y-105215360D01*
X172023155Y-105361439D01*
X172002518Y-105518199D01*
X152833018Y-105518199D01*
X152926482Y-105446482D01*
X153022736Y-105321041D01*
X153083244Y-105174962D01*
X153103882Y-105018200D01*
X153102357Y-105006620D01*
X153086697Y-104887664D01*
X153083244Y-104861438D01*
X153022736Y-104715359D01*
X152926482Y-104589918D01*
X152926480Y-104589916D01*
X152926479Y-104589915D01*
X152920097Y-104585018D01*
X152878230Y-104527680D01*
X152874008Y-104456809D01*
X152908772Y-104394906D01*
X152920098Y-104385093D01*
X152996482Y-104326482D01*
X153092736Y-104201041D01*
X153153244Y-104054962D01*
X153173882Y-103898200D01*
X153153244Y-103741438D01*
X153092736Y-103595359D01*
X152996482Y-103469918D01*
X152871041Y-103373664D01*
X152791602Y-103340759D01*
X152724960Y-103313155D01*
X152568200Y-103292518D01*
X152411439Y-103313155D01*
X152265360Y-103373663D01*
X152265357Y-103373665D01*
X152139918Y-103469918D01*
X152043665Y-103595357D01*
X152043663Y-103595360D01*
X151983155Y-103741439D01*
X151962518Y-103898199D01*
X151962518Y-103898200D01*
X151983155Y-104054960D01*
X152035545Y-104181439D01*
X152043664Y-104201041D01*
X152064845Y-104228644D01*
X152139919Y-104326483D01*
X152146301Y-104331380D01*
X152188169Y-104388718D01*
X152192391Y-104459589D01*
X152157628Y-104521492D01*
X152146303Y-104531305D01*
X152069918Y-104589917D01*
X151973665Y-104715357D01*
X151973663Y-104715360D01*
X151913155Y-104861439D01*
X151892518Y-105018199D01*
X150056497Y-105018199D01*
X150049682Y-105009318D01*
X149990119Y-104963614D01*
X149948253Y-104906277D01*
X149944031Y-104835406D01*
X149978795Y-104773503D01*
X149983786Y-104769178D01*
X149986476Y-104766488D01*
X149986478Y-104766484D01*
X149986482Y-104766482D01*
X150082736Y-104641041D01*
X150143244Y-104494962D01*
X150163882Y-104338200D01*
X150162339Y-104326483D01*
X150145825Y-104201041D01*
X150143244Y-104181438D01*
X150082736Y-104035359D01*
X149986482Y-103909918D01*
X149861041Y-103813664D01*
X149828928Y-103800362D01*
X149714960Y-103753155D01*
X149558200Y-103732518D01*
X149401439Y-103753155D01*
X149255360Y-103813663D01*
X149255357Y-103813665D01*
X149129918Y-103909918D01*
X149033665Y-104035357D01*
X149033663Y-104035360D01*
X148973155Y-104181439D01*
X148952518Y-104338199D01*
X99613596Y-104338199D01*
X99613387Y-103643599D01*
X135571318Y-103643599D01*
X135571318Y-103643600D01*
X135591955Y-103800360D01*
X135637336Y-103909918D01*
X135652464Y-103946441D01*
X135748718Y-104071882D01*
X135874159Y-104168136D01*
X136020238Y-104228644D01*
X136177000Y-104249282D01*
X136333762Y-104228644D01*
X136479841Y-104168136D01*
X136605282Y-104071882D01*
X136701536Y-103946441D01*
X136762044Y-103800362D01*
X136782682Y-103643600D01*
X136762044Y-103486838D01*
X136701536Y-103340759D01*
X136605282Y-103215318D01*
X136479841Y-103119064D01*
X136333762Y-103058556D01*
X136333760Y-103058555D01*
X136177000Y-103037918D01*
X136020239Y-103058555D01*
X135874160Y-103119063D01*
X135874157Y-103119065D01*
X135748718Y-103215318D01*
X135652465Y-103340757D01*
X135652463Y-103340760D01*
X135591955Y-103486839D01*
X135571318Y-103643599D01*
X99613387Y-103643599D01*
X99612956Y-102211799D01*
X129533918Y-102211799D01*
X129533918Y-102211800D01*
X129554555Y-102368560D01*
X129554556Y-102368562D01*
X129615064Y-102514641D01*
X129711318Y-102640082D01*
X129836759Y-102736336D01*
X129982838Y-102796844D01*
X130139600Y-102817482D01*
X130296362Y-102796844D01*
X130359723Y-102770599D01*
X137560318Y-102770599D01*
X137560318Y-102770600D01*
X137580955Y-102927360D01*
X137580956Y-102927362D01*
X137641464Y-103073441D01*
X137737718Y-103198882D01*
X137863159Y-103295136D01*
X138009238Y-103355644D01*
X138166000Y-103376282D01*
X138322762Y-103355644D01*
X138468841Y-103295136D01*
X138594282Y-103198882D01*
X138690536Y-103073441D01*
X138751044Y-102927362D01*
X138760413Y-102856199D01*
X145578918Y-102856199D01*
X145578918Y-102856200D01*
X145599555Y-103012960D01*
X145643505Y-103119063D01*
X145660064Y-103159041D01*
X145756318Y-103284482D01*
X145881759Y-103380736D01*
X146027838Y-103441244D01*
X146184600Y-103461882D01*
X146341362Y-103441244D01*
X146487441Y-103380736D01*
X146612882Y-103284482D01*
X146709136Y-103159041D01*
X146769644Y-103012962D01*
X146790282Y-102856200D01*
X146769644Y-102699438D01*
X146709136Y-102553359D01*
X146612882Y-102427918D01*
X146612880Y-102427917D01*
X146612880Y-102427916D01*
X146598462Y-102416853D01*
X146556594Y-102359515D01*
X146552372Y-102288644D01*
X146587136Y-102226741D01*
X146598453Y-102216933D01*
X146663682Y-102166882D01*
X146759936Y-102041441D01*
X146820444Y-101895362D01*
X146834394Y-101789399D01*
X149541318Y-101789399D01*
X149541318Y-101789400D01*
X149561955Y-101946160D01*
X149561956Y-101946162D01*
X149622464Y-102092241D01*
X149718718Y-102217682D01*
X149844159Y-102313936D01*
X149990238Y-102374444D01*
X150147000Y-102395082D01*
X150303762Y-102374444D01*
X150449841Y-102313936D01*
X150575282Y-102217682D01*
X150671536Y-102092241D01*
X150732044Y-101946162D01*
X150752682Y-101789400D01*
X150732044Y-101632638D01*
X150671536Y-101486559D01*
X150575282Y-101361118D01*
X150449841Y-101264864D01*
X150423715Y-101254042D01*
X150303760Y-101204355D01*
X150147000Y-101183718D01*
X149990239Y-101204355D01*
X149844160Y-101264863D01*
X149844157Y-101264865D01*
X149718718Y-101361118D01*
X149622465Y-101486557D01*
X149622463Y-101486560D01*
X149561955Y-101632639D01*
X149541318Y-101789399D01*
X146834394Y-101789399D01*
X146841082Y-101738600D01*
X146820444Y-101581838D01*
X146759936Y-101435759D01*
X146663682Y-101310318D01*
X146538241Y-101214064D01*
X146514802Y-101204355D01*
X146392160Y-101153555D01*
X146235400Y-101132918D01*
X146078639Y-101153555D01*
X145932560Y-101214063D01*
X145932557Y-101214065D01*
X145807118Y-101310318D01*
X145710865Y-101435757D01*
X145710863Y-101435760D01*
X145650355Y-101581839D01*
X145629718Y-101738599D01*
X145629718Y-101738600D01*
X145650355Y-101895360D01*
X145650356Y-101895362D01*
X145710864Y-102041441D01*
X145721298Y-102055038D01*
X145807119Y-102166883D01*
X145821537Y-102177946D01*
X145863405Y-102235283D01*
X145867627Y-102306154D01*
X145832864Y-102368057D01*
X145821539Y-102377871D01*
X145756318Y-102427917D01*
X145660065Y-102553357D01*
X145660063Y-102553360D01*
X145599555Y-102699439D01*
X145578918Y-102856199D01*
X138760413Y-102856199D01*
X138771682Y-102770600D01*
X138751044Y-102613838D01*
X138690536Y-102467759D01*
X138594282Y-102342318D01*
X138468841Y-102246064D01*
X138442814Y-102235283D01*
X138322760Y-102185555D01*
X138166000Y-102164918D01*
X138009239Y-102185555D01*
X137863160Y-102246063D01*
X137863157Y-102246065D01*
X137737718Y-102342318D01*
X137641465Y-102467757D01*
X137641463Y-102467760D01*
X137580955Y-102613839D01*
X137560318Y-102770599D01*
X130359723Y-102770599D01*
X130442441Y-102736336D01*
X130567882Y-102640082D01*
X130664136Y-102514641D01*
X130724644Y-102368562D01*
X130745282Y-102211800D01*
X130739368Y-102166882D01*
X130724644Y-102055039D01*
X130664136Y-101908960D01*
X130664136Y-101908959D01*
X130567882Y-101783518D01*
X130442441Y-101687264D01*
X130310563Y-101632638D01*
X130296360Y-101626755D01*
X130139600Y-101606118D01*
X129982839Y-101626755D01*
X129836760Y-101687263D01*
X129836757Y-101687265D01*
X129711318Y-101783518D01*
X129615065Y-101908957D01*
X129615063Y-101908960D01*
X129554555Y-102055039D01*
X129533918Y-102211799D01*
X99612956Y-102211799D01*
X99612577Y-100951199D01*
X128459318Y-100951199D01*
X128459318Y-100951200D01*
X128479955Y-101107960D01*
X128523905Y-101214063D01*
X128540464Y-101254041D01*
X128636718Y-101379482D01*
X128762159Y-101475736D01*
X128908238Y-101536244D01*
X129065000Y-101556882D01*
X129221762Y-101536244D01*
X129367841Y-101475736D01*
X129493282Y-101379482D01*
X129589536Y-101254041D01*
X129650044Y-101107962D01*
X129670682Y-100951200D01*
X129650044Y-100794438D01*
X129589536Y-100648359D01*
X129493282Y-100522918D01*
X129367841Y-100426664D01*
X129346442Y-100417800D01*
X129346440Y-100417799D01*
X139914718Y-100417799D01*
X139914718Y-100417800D01*
X139935355Y-100574560D01*
X139972965Y-100665357D01*
X139995864Y-100720641D01*
X140092118Y-100846082D01*
X140217559Y-100942336D01*
X140363638Y-101002844D01*
X140520400Y-101023482D01*
X140677162Y-101002844D01*
X140760802Y-100968199D01*
X179792518Y-100968199D01*
X179792518Y-100968200D01*
X179813155Y-101124960D01*
X179866622Y-101254039D01*
X179873664Y-101271041D01*
X179969918Y-101396482D01*
X180095359Y-101492736D01*
X180241438Y-101553244D01*
X180398200Y-101573882D01*
X180554962Y-101553244D01*
X180701041Y-101492736D01*
X180826482Y-101396482D01*
X180922736Y-101271041D01*
X180957050Y-101188199D01*
X182402518Y-101188199D01*
X182402518Y-101188200D01*
X182423155Y-101344960D01*
X182481807Y-101486557D01*
X182483664Y-101491041D01*
X182579918Y-101616482D01*
X182705359Y-101712736D01*
X182851438Y-101773244D01*
X183008200Y-101793882D01*
X183164962Y-101773244D01*
X183311041Y-101712736D01*
X183436482Y-101616482D01*
X183532736Y-101491041D01*
X183593244Y-101344962D01*
X183613882Y-101188200D01*
X183593244Y-101031438D01*
X183532736Y-100885359D01*
X183436482Y-100759918D01*
X183311041Y-100663664D01*
X183164962Y-100603156D01*
X183164960Y-100603155D01*
X183008200Y-100582518D01*
X182851439Y-100603155D01*
X182705360Y-100663663D01*
X182705357Y-100663665D01*
X182579918Y-100759918D01*
X182483665Y-100885357D01*
X182483663Y-100885360D01*
X182423155Y-101031439D01*
X182402518Y-101188199D01*
X180957050Y-101188199D01*
X180983244Y-101124962D01*
X181003882Y-100968200D01*
X180983244Y-100811438D01*
X180922736Y-100665359D01*
X180826482Y-100539918D01*
X180701041Y-100443664D01*
X180660000Y-100426664D01*
X180554960Y-100383155D01*
X180398200Y-100362518D01*
X180241439Y-100383155D01*
X180095360Y-100443663D01*
X180095357Y-100443665D01*
X179969918Y-100539918D01*
X179873665Y-100665357D01*
X179873663Y-100665360D01*
X179813155Y-100811439D01*
X179792518Y-100968199D01*
X140760802Y-100968199D01*
X140823241Y-100942336D01*
X140948682Y-100846082D01*
X141044936Y-100720641D01*
X141105444Y-100574562D01*
X141126082Y-100417800D01*
X141105444Y-100261038D01*
X141044936Y-100114959D01*
X140948682Y-99989518D01*
X140823241Y-99893264D01*
X140677162Y-99832756D01*
X140677160Y-99832755D01*
X140520400Y-99812118D01*
X140363639Y-99832755D01*
X140217560Y-99893263D01*
X140217557Y-99893265D01*
X140092118Y-99989518D01*
X139995865Y-100114957D01*
X139995863Y-100114960D01*
X139935355Y-100261039D01*
X139914718Y-100417799D01*
X129346440Y-100417799D01*
X129221760Y-100366155D01*
X129065000Y-100345518D01*
X128908239Y-100366155D01*
X128762160Y-100426663D01*
X128762157Y-100426665D01*
X128636718Y-100522918D01*
X128540465Y-100648357D01*
X128540463Y-100648360D01*
X128479955Y-100794439D01*
X128459318Y-100951199D01*
X99612577Y-100951199D01*
X99612172Y-99604999D01*
X126884518Y-99604999D01*
X126884518Y-99605000D01*
X126905155Y-99761760D01*
X126959626Y-99893263D01*
X126965664Y-99907841D01*
X127061918Y-100033282D01*
X127187359Y-100129536D01*
X127333438Y-100190044D01*
X127490200Y-100210682D01*
X127646962Y-100190044D01*
X127793041Y-100129536D01*
X127918482Y-100033282D01*
X128014736Y-99907841D01*
X128075244Y-99761762D01*
X128095882Y-99605000D01*
X128075244Y-99448238D01*
X128014736Y-99302159D01*
X127918482Y-99176718D01*
X127793041Y-99080464D01*
X127646962Y-99019956D01*
X127646960Y-99019955D01*
X127490200Y-98999318D01*
X127333439Y-99019955D01*
X127187360Y-99080463D01*
X127187357Y-99080465D01*
X127061918Y-99176718D01*
X126965665Y-99302157D01*
X126965663Y-99302160D01*
X126905155Y-99448239D01*
X126884518Y-99604999D01*
X99612172Y-99604999D01*
X99611964Y-98913010D01*
X128852329Y-98913010D01*
X128852329Y-98913011D01*
X128872966Y-99069771D01*
X128904475Y-99145839D01*
X128933475Y-99215852D01*
X129029729Y-99341293D01*
X129155170Y-99437547D01*
X129301249Y-99498055D01*
X129458011Y-99518693D01*
X129614773Y-99498055D01*
X129760852Y-99437547D01*
X129886293Y-99341293D01*
X129982547Y-99215852D01*
X129982547Y-99215850D01*
X129987574Y-99209300D01*
X129990576Y-99211603D01*
X130028878Y-99174454D01*
X130098474Y-99160424D01*
X130164269Y-99185987D01*
X130235359Y-99240536D01*
X130381438Y-99301044D01*
X130538200Y-99321682D01*
X130694962Y-99301044D01*
X130841041Y-99240536D01*
X130841741Y-99239999D01*
X138042918Y-99239999D01*
X138042918Y-99240000D01*
X138063555Y-99396760D01*
X138114062Y-99518693D01*
X138124064Y-99542841D01*
X138220318Y-99668282D01*
X138345759Y-99764536D01*
X138491838Y-99825044D01*
X138648600Y-99845682D01*
X138805362Y-99825044D01*
X138951441Y-99764536D01*
X139076882Y-99668282D01*
X139173136Y-99542841D01*
X139182846Y-99519399D01*
X160293318Y-99519399D01*
X160293318Y-99519400D01*
X160313955Y-99676160D01*
X160313956Y-99676162D01*
X160374464Y-99822241D01*
X160470718Y-99947682D01*
X160596159Y-100043936D01*
X160742238Y-100104444D01*
X160899000Y-100125082D01*
X161055762Y-100104444D01*
X161201841Y-100043936D01*
X161327282Y-99947682D01*
X161423536Y-99822241D01*
X161484044Y-99676162D01*
X161504682Y-99519400D01*
X161484044Y-99362638D01*
X161423536Y-99216559D01*
X161327282Y-99091118D01*
X161201841Y-98994864D01*
X161193677Y-98991482D01*
X161055760Y-98934355D01*
X160899000Y-98913718D01*
X160742239Y-98934355D01*
X160596160Y-98994863D01*
X160596157Y-98994865D01*
X160470718Y-99091118D01*
X160374465Y-99216557D01*
X160374463Y-99216560D01*
X160313955Y-99362639D01*
X160293318Y-99519399D01*
X139182846Y-99519399D01*
X139233644Y-99396762D01*
X139254282Y-99240000D01*
X139233644Y-99083238D01*
X139216635Y-99042176D01*
X139209046Y-98971588D01*
X139240824Y-98908101D01*
X139301882Y-98871873D01*
X139349487Y-98869037D01*
X139501227Y-98889014D01*
X139657989Y-98868376D01*
X139719254Y-98842999D01*
X141184718Y-98842999D01*
X141184718Y-98843000D01*
X141205355Y-98999760D01*
X141239933Y-99083237D01*
X141265864Y-99145841D01*
X141362118Y-99271282D01*
X141487559Y-99367536D01*
X141633638Y-99428044D01*
X141790400Y-99448682D01*
X141947162Y-99428044D01*
X142093241Y-99367536D01*
X142218682Y-99271282D01*
X142314936Y-99145841D01*
X142375444Y-98999762D01*
X142396082Y-98843000D01*
X142375444Y-98686238D01*
X142314936Y-98540159D01*
X142218682Y-98414718D01*
X142180994Y-98385799D01*
X145680518Y-98385799D01*
X145680518Y-98385800D01*
X145701155Y-98542560D01*
X145760669Y-98686238D01*
X145761664Y-98688641D01*
X145857918Y-98814082D01*
X145983359Y-98910336D01*
X146129438Y-98970844D01*
X146286200Y-98991482D01*
X146442962Y-98970844D01*
X146589041Y-98910336D01*
X146714482Y-98814082D01*
X146810736Y-98688641D01*
X146871244Y-98542562D01*
X146891882Y-98385800D01*
X146871244Y-98229038D01*
X146810736Y-98082959D01*
X146714482Y-97957518D01*
X146589041Y-97861264D01*
X146583622Y-97859019D01*
X146442960Y-97800755D01*
X146286200Y-97780118D01*
X146129439Y-97800755D01*
X145983360Y-97861263D01*
X145983357Y-97861265D01*
X145857918Y-97957518D01*
X145761665Y-98082957D01*
X145761663Y-98082960D01*
X145701155Y-98229039D01*
X145680518Y-98385799D01*
X142180994Y-98385799D01*
X142093241Y-98318464D01*
X142067837Y-98307941D01*
X141947160Y-98257955D01*
X141790400Y-98237318D01*
X141633639Y-98257955D01*
X141487560Y-98318463D01*
X141487557Y-98318465D01*
X141362118Y-98414718D01*
X141265865Y-98540157D01*
X141265863Y-98540160D01*
X141205355Y-98686239D01*
X141184718Y-98842999D01*
X139719254Y-98842999D01*
X139804068Y-98807868D01*
X139929509Y-98711614D01*
X140025763Y-98586173D01*
X140086271Y-98440094D01*
X140106909Y-98283332D01*
X140106251Y-98278337D01*
X140089118Y-98148199D01*
X140086271Y-98126570D01*
X140025763Y-97980491D01*
X139929509Y-97855050D01*
X139804068Y-97758796D01*
X139775306Y-97746882D01*
X139657987Y-97698287D01*
X139501362Y-97677667D01*
X139436435Y-97648944D01*
X139397344Y-97589679D01*
X139392887Y-97536300D01*
X139401818Y-97468464D01*
X139381180Y-97311702D01*
X139320672Y-97165623D01*
X139224418Y-97040182D01*
X139098977Y-96943928D01*
X139094125Y-96941918D01*
X138952896Y-96883419D01*
X138796136Y-96862782D01*
X138639375Y-96883419D01*
X138493296Y-96943927D01*
X138493293Y-96943929D01*
X138367854Y-97040182D01*
X138271601Y-97165621D01*
X138271599Y-97165624D01*
X138211091Y-97311703D01*
X138190454Y-97468463D01*
X138190454Y-97468464D01*
X138211091Y-97625224D01*
X138266419Y-97758796D01*
X138271600Y-97771305D01*
X138367854Y-97896746D01*
X138493295Y-97993000D01*
X138639374Y-98053508D01*
X138762149Y-98069671D01*
X138795999Y-98074128D01*
X138860926Y-98102850D01*
X138900018Y-98162116D01*
X138904475Y-98215495D01*
X138895545Y-98283330D01*
X138895545Y-98283332D01*
X138916182Y-98440092D01*
X138933191Y-98481154D01*
X138940780Y-98551744D01*
X138909001Y-98615231D01*
X138847942Y-98651458D01*
X138800336Y-98654294D01*
X138648600Y-98634318D01*
X138491839Y-98654955D01*
X138345760Y-98715463D01*
X138345757Y-98715465D01*
X138220318Y-98811718D01*
X138124065Y-98937157D01*
X138124063Y-98937160D01*
X138063555Y-99083239D01*
X138042918Y-99239999D01*
X130841741Y-99239999D01*
X130966482Y-99144282D01*
X131062736Y-99018841D01*
X131123244Y-98872762D01*
X131143882Y-98716000D01*
X131143811Y-98715464D01*
X131123244Y-98559239D01*
X131120140Y-98551744D01*
X131062736Y-98413159D01*
X130966482Y-98287718D01*
X130841041Y-98191464D01*
X130736591Y-98148199D01*
X130694960Y-98130955D01*
X130538200Y-98110318D01*
X130381439Y-98130955D01*
X130235360Y-98191463D01*
X130235357Y-98191465D01*
X130122144Y-98278337D01*
X130109918Y-98287718D01*
X130032606Y-98388474D01*
X130008637Y-98419711D01*
X130005982Y-98417673D01*
X129964807Y-98455849D01*
X129894913Y-98468309D01*
X129831939Y-98443022D01*
X129812015Y-98427734D01*
X129760852Y-98388475D01*
X129614773Y-98327967D01*
X129614771Y-98327966D01*
X129458011Y-98307329D01*
X129301250Y-98327966D01*
X129155171Y-98388474D01*
X129155168Y-98388476D01*
X129029729Y-98484729D01*
X128933476Y-98610168D01*
X128933474Y-98610171D01*
X128872966Y-98756250D01*
X128852329Y-98913010D01*
X99611964Y-98913010D01*
X99611400Y-97039599D01*
X114286118Y-97039599D01*
X114286118Y-97039600D01*
X114306755Y-97196360D01*
X114354473Y-97311560D01*
X114367264Y-97342441D01*
X114463518Y-97467882D01*
X114588959Y-97564136D01*
X114735038Y-97624644D01*
X114891800Y-97645282D01*
X115048562Y-97624644D01*
X115052051Y-97623199D01*
X127837518Y-97623199D01*
X127837518Y-97623200D01*
X127858155Y-97779960D01*
X127909203Y-97903199D01*
X127918664Y-97926041D01*
X128014918Y-98051482D01*
X128140359Y-98147736D01*
X128286438Y-98208244D01*
X128443200Y-98228882D01*
X128599962Y-98208244D01*
X128746041Y-98147736D01*
X128871482Y-98051482D01*
X128967736Y-97926041D01*
X129028244Y-97779962D01*
X129038474Y-97702258D01*
X131922712Y-97702258D01*
X131922712Y-97702259D01*
X131943349Y-97859019D01*
X131993665Y-97980491D01*
X132003858Y-98005100D01*
X132100112Y-98130541D01*
X132225553Y-98226795D01*
X132371632Y-98287303D01*
X132528394Y-98307941D01*
X132685156Y-98287303D01*
X132831235Y-98226795D01*
X132956676Y-98130541D01*
X133052930Y-98005100D01*
X133113438Y-97859021D01*
X133134076Y-97702259D01*
X133130838Y-97677667D01*
X133116596Y-97569482D01*
X133113715Y-97547599D01*
X133412318Y-97547599D01*
X133412318Y-97547600D01*
X133432955Y-97704360D01*
X133464271Y-97779962D01*
X133493464Y-97850441D01*
X133589718Y-97975882D01*
X133715159Y-98072136D01*
X133861238Y-98132644D01*
X134018000Y-98153282D01*
X134174762Y-98132644D01*
X134320841Y-98072136D01*
X134446282Y-97975882D01*
X134542536Y-97850441D01*
X134603044Y-97704362D01*
X134623682Y-97547600D01*
X134603044Y-97390838D01*
X134542536Y-97244759D01*
X134446282Y-97119318D01*
X134320841Y-97023064D01*
X134271744Y-97002727D01*
X134174760Y-96962555D01*
X134018000Y-96941918D01*
X133861239Y-96962555D01*
X133715160Y-97023063D01*
X133715157Y-97023065D01*
X133589718Y-97119318D01*
X133493465Y-97244757D01*
X133493463Y-97244760D01*
X133432955Y-97390839D01*
X133412318Y-97547599D01*
X133113715Y-97547599D01*
X133113438Y-97545497D01*
X133052930Y-97399418D01*
X132956676Y-97273977D01*
X132836208Y-97181539D01*
X132794342Y-97124202D01*
X132790120Y-97053331D01*
X132824884Y-96991428D01*
X132887597Y-96958147D01*
X132896444Y-96956658D01*
X133031762Y-96938844D01*
X133177841Y-96878336D01*
X133303282Y-96782082D01*
X133399536Y-96656641D01*
X133460044Y-96510562D01*
X133480682Y-96353800D01*
X133477158Y-96327036D01*
X133466790Y-96248282D01*
X133460811Y-96202865D01*
X133471750Y-96132718D01*
X133518878Y-96079619D01*
X133537508Y-96070014D01*
X133609641Y-96040136D01*
X133735082Y-95943882D01*
X133831336Y-95818441D01*
X133891844Y-95672362D01*
X133912482Y-95515600D01*
X133910383Y-95499660D01*
X133893309Y-95369968D01*
X133891844Y-95358838D01*
X133831336Y-95212759D01*
X133735082Y-95087318D01*
X133609641Y-94991064D01*
X133565546Y-94972799D01*
X133463560Y-94930555D01*
X133306800Y-94909918D01*
X133150039Y-94930555D01*
X133003960Y-94991063D01*
X133003957Y-94991065D01*
X132878518Y-95087318D01*
X132782265Y-95212757D01*
X132782263Y-95212760D01*
X132721755Y-95358839D01*
X132701118Y-95515599D01*
X132701118Y-95515600D01*
X132720988Y-95666533D01*
X132710048Y-95736682D01*
X132662920Y-95789780D01*
X132644286Y-95799387D01*
X132572162Y-95829262D01*
X132572157Y-95829265D01*
X132446718Y-95925518D01*
X132350465Y-96050957D01*
X132350463Y-96050960D01*
X132289955Y-96197039D01*
X132269318Y-96353799D01*
X132269318Y-96353800D01*
X132289955Y-96510560D01*
X132333905Y-96616663D01*
X132350464Y-96656641D01*
X132446718Y-96782082D01*
X132567184Y-96874519D01*
X132609051Y-96931856D01*
X132613273Y-97002727D01*
X132578509Y-97064630D01*
X132515796Y-97097911D01*
X132506927Y-97099403D01*
X132430824Y-97109422D01*
X132371632Y-97117215D01*
X132313730Y-97141199D01*
X132225554Y-97177722D01*
X132225551Y-97177724D01*
X132100112Y-97273977D01*
X132003859Y-97399416D01*
X132003857Y-97399419D01*
X131943349Y-97545498D01*
X131922712Y-97702258D01*
X129038474Y-97702258D01*
X129048882Y-97623200D01*
X129047723Y-97614400D01*
X129037441Y-97536298D01*
X129028244Y-97466438D01*
X128967736Y-97320359D01*
X128871482Y-97194918D01*
X128746041Y-97098664D01*
X128744224Y-97097911D01*
X128599960Y-97038155D01*
X128443200Y-97017518D01*
X128286439Y-97038155D01*
X128140360Y-97098663D01*
X128140357Y-97098665D01*
X128014918Y-97194918D01*
X127918665Y-97320357D01*
X127918663Y-97320360D01*
X127858155Y-97466439D01*
X127837518Y-97623199D01*
X115052051Y-97623199D01*
X115194641Y-97564136D01*
X115320082Y-97467882D01*
X115416336Y-97342441D01*
X115476844Y-97196362D01*
X115497482Y-97039600D01*
X115476844Y-96882838D01*
X115416336Y-96736759D01*
X115320082Y-96611318D01*
X115194641Y-96515064D01*
X115183773Y-96510562D01*
X115048560Y-96454555D01*
X114891800Y-96433918D01*
X114735039Y-96454555D01*
X114588960Y-96515063D01*
X114588957Y-96515065D01*
X114463518Y-96611318D01*
X114367265Y-96736757D01*
X114367263Y-96736760D01*
X114306755Y-96882839D01*
X114286118Y-97039599D01*
X99611400Y-97039599D01*
X99611028Y-95802499D01*
X119737518Y-95802499D01*
X119737518Y-95802500D01*
X119758155Y-95959260D01*
X119815045Y-96096603D01*
X119818664Y-96105341D01*
X119914918Y-96230782D01*
X120040359Y-96327036D01*
X120186438Y-96387544D01*
X120343200Y-96408182D01*
X120499962Y-96387544D01*
X120646041Y-96327036D01*
X120771482Y-96230782D01*
X120867736Y-96105341D01*
X120928244Y-95959262D01*
X120948882Y-95802500D01*
X120947636Y-95793039D01*
X120930982Y-95666533D01*
X120928244Y-95645738D01*
X120926944Y-95642599D01*
X130923118Y-95642599D01*
X130923118Y-95642600D01*
X130943755Y-95799360D01*
X130996012Y-95925518D01*
X131004264Y-95945441D01*
X131100518Y-96070882D01*
X131225959Y-96167136D01*
X131372038Y-96227644D01*
X131528800Y-96248282D01*
X131685562Y-96227644D01*
X131831641Y-96167136D01*
X131957082Y-96070882D01*
X132053336Y-95945441D01*
X132113844Y-95799362D01*
X132134482Y-95642600D01*
X132113844Y-95485838D01*
X132053336Y-95339759D01*
X131957082Y-95214318D01*
X131831641Y-95118064D01*
X131750959Y-95084644D01*
X131685560Y-95057555D01*
X131528800Y-95036918D01*
X131372039Y-95057555D01*
X131225960Y-95118063D01*
X131225957Y-95118065D01*
X131100518Y-95214318D01*
X131004265Y-95339757D01*
X131004263Y-95339760D01*
X130943755Y-95485839D01*
X130923118Y-95642599D01*
X120926944Y-95642599D01*
X120867736Y-95499659D01*
X120771482Y-95374218D01*
X120646041Y-95277964D01*
X120640436Y-95275642D01*
X120499960Y-95217455D01*
X120343200Y-95196818D01*
X120186439Y-95217455D01*
X120040360Y-95277963D01*
X120040357Y-95277965D01*
X119914918Y-95374218D01*
X119818665Y-95499657D01*
X119818663Y-95499660D01*
X119758155Y-95645739D01*
X119737518Y-95802499D01*
X99611028Y-95802499D01*
X99610629Y-94474199D01*
X126122518Y-94474199D01*
X126122518Y-94474200D01*
X126143155Y-94630960D01*
X126159310Y-94669960D01*
X126203664Y-94777041D01*
X126299918Y-94902482D01*
X126425359Y-94998736D01*
X126571438Y-95059244D01*
X126728200Y-95079882D01*
X126884962Y-95059244D01*
X127031041Y-94998736D01*
X127156482Y-94902482D01*
X127252736Y-94777041D01*
X127283488Y-94702799D01*
X138695518Y-94702799D01*
X138695518Y-94702800D01*
X138716155Y-94859560D01*
X138770626Y-94991063D01*
X138776664Y-95005641D01*
X138872918Y-95131082D01*
X138998359Y-95227336D01*
X139144438Y-95287844D01*
X139178677Y-95292351D01*
X139243603Y-95321072D01*
X139282696Y-95380337D01*
X139287153Y-95433718D01*
X139279718Y-95490197D01*
X139279718Y-95490200D01*
X139300355Y-95646960D01*
X139352612Y-95773118D01*
X139360864Y-95793041D01*
X139457118Y-95918482D01*
X139582559Y-96014736D01*
X139728638Y-96075244D01*
X139885400Y-96095882D01*
X139890877Y-96096603D01*
X139955804Y-96125325D01*
X139994896Y-96184590D01*
X139999354Y-96237965D01*
X139998718Y-96242797D01*
X139998718Y-96242800D01*
X140019355Y-96399560D01*
X140073826Y-96531063D01*
X140079864Y-96545641D01*
X140176118Y-96671082D01*
X140301559Y-96767336D01*
X140447638Y-96827844D01*
X140535100Y-96839358D01*
X140600026Y-96868080D01*
X140639118Y-96927345D01*
X140643575Y-96980726D01*
X140633718Y-97055599D01*
X140633718Y-97055600D01*
X140654355Y-97212360D01*
X140708237Y-97342441D01*
X140714864Y-97358441D01*
X140811118Y-97483882D01*
X140936559Y-97580136D01*
X141082638Y-97640644D01*
X141239400Y-97661282D01*
X141396162Y-97640644D01*
X141542241Y-97580136D01*
X141667682Y-97483882D01*
X141763936Y-97358441D01*
X141824444Y-97212362D01*
X141845082Y-97055600D01*
X141842975Y-97039599D01*
X141824444Y-96898839D01*
X141818058Y-96883420D01*
X141763936Y-96752759D01*
X141667682Y-96627318D01*
X141542241Y-96531064D01*
X141503612Y-96515063D01*
X141396160Y-96470555D01*
X141308699Y-96459041D01*
X141243772Y-96430318D01*
X141204681Y-96371053D01*
X141200224Y-96317676D01*
X141210082Y-96242800D01*
X141189444Y-96086038D01*
X141128936Y-95939959D01*
X141032682Y-95814518D01*
X140907241Y-95718264D01*
X140807296Y-95676865D01*
X140761160Y-95657755D01*
X140598921Y-95636396D01*
X140533994Y-95607673D01*
X140494903Y-95548408D01*
X140490446Y-95495028D01*
X140491082Y-95490200D01*
X140470444Y-95333438D01*
X140419645Y-95210799D01*
X141870518Y-95210799D01*
X141870518Y-95210800D01*
X141891155Y-95367560D01*
X141945872Y-95499657D01*
X141951664Y-95513641D01*
X142047918Y-95639082D01*
X142173359Y-95735336D01*
X142319438Y-95795844D01*
X142476200Y-95816482D01*
X142482889Y-95816482D01*
X142551010Y-95836484D01*
X142597503Y-95890140D01*
X142607607Y-95960414D01*
X142599298Y-95990700D01*
X142576955Y-96044639D01*
X142556318Y-96201399D01*
X142556318Y-96201400D01*
X142576955Y-96358160D01*
X142618932Y-96459500D01*
X142637464Y-96504241D01*
X142733718Y-96629682D01*
X142859159Y-96725936D01*
X143005238Y-96786444D01*
X143083619Y-96796763D01*
X143161999Y-96807082D01*
X143161999Y-96807081D01*
X143162000Y-96807082D01*
X143237357Y-96797161D01*
X143307505Y-96808100D01*
X143360604Y-96855228D01*
X143379794Y-96923582D01*
X143370212Y-96970300D01*
X143364356Y-96984437D01*
X143343718Y-97141199D01*
X143343718Y-97141200D01*
X143364355Y-97297960D01*
X143406381Y-97399418D01*
X143424864Y-97444041D01*
X143521118Y-97569482D01*
X143646559Y-97665736D01*
X143792638Y-97726244D01*
X143949400Y-97746882D01*
X144106162Y-97726244D01*
X144252241Y-97665736D01*
X144377682Y-97569482D01*
X144473936Y-97444041D01*
X144534444Y-97297962D01*
X144555082Y-97141200D01*
X144534444Y-96984438D01*
X144473936Y-96838359D01*
X144394472Y-96734799D01*
X149871518Y-96734799D01*
X149871518Y-96734800D01*
X149892155Y-96891560D01*
X149946626Y-97023063D01*
X149952664Y-97037641D01*
X150048918Y-97163082D01*
X150174359Y-97259336D01*
X150320438Y-97319844D01*
X150320439Y-97319844D01*
X150328068Y-97323004D01*
X150327045Y-97325471D01*
X150376373Y-97355529D01*
X150407403Y-97419385D01*
X150408073Y-97456743D01*
X150387318Y-97614399D01*
X150387318Y-97614400D01*
X150407955Y-97771160D01*
X150462648Y-97903199D01*
X150468464Y-97917241D01*
X150564718Y-98042682D01*
X150690159Y-98138936D01*
X150836238Y-98199444D01*
X150993000Y-98220082D01*
X151149762Y-98199444D01*
X151295841Y-98138936D01*
X151421282Y-98042682D01*
X151517536Y-97917241D01*
X151523352Y-97903199D01*
X160514118Y-97903199D01*
X160514118Y-97903200D01*
X160534755Y-98059960D01*
X160589226Y-98191463D01*
X160595264Y-98206041D01*
X160691518Y-98331482D01*
X160816959Y-98427736D01*
X160963038Y-98488244D01*
X161119800Y-98508882D01*
X161276562Y-98488244D01*
X161422641Y-98427736D01*
X161548082Y-98331482D01*
X161644336Y-98206041D01*
X161704844Y-98059962D01*
X161725482Y-97903200D01*
X161721876Y-97875813D01*
X161708118Y-97771305D01*
X161704844Y-97746438D01*
X161644336Y-97600359D01*
X161548082Y-97474918D01*
X161422641Y-97378664D01*
X161373819Y-97358441D01*
X161276560Y-97318155D01*
X161119800Y-97297518D01*
X160963039Y-97318155D01*
X160816960Y-97378663D01*
X160816957Y-97378665D01*
X160691518Y-97474918D01*
X160595265Y-97600357D01*
X160595263Y-97600360D01*
X160534755Y-97746439D01*
X160514118Y-97903199D01*
X151523352Y-97903199D01*
X151578044Y-97771162D01*
X151598682Y-97614400D01*
X151596833Y-97600359D01*
X151579393Y-97467882D01*
X151578044Y-97457638D01*
X151517536Y-97311559D01*
X151421282Y-97186118D01*
X151295841Y-97089864D01*
X151149762Y-97029356D01*
X151149760Y-97029355D01*
X151142132Y-97026196D01*
X151143152Y-97023732D01*
X151093809Y-96993651D01*
X151064987Y-96934309D01*
X169868900Y-96934309D01*
X169868900Y-97176890D01*
X169900560Y-97417382D01*
X169963344Y-97651695D01*
X169963345Y-97651697D01*
X169963346Y-97651700D01*
X170056176Y-97875812D01*
X170056177Y-97875813D01*
X170056182Y-97875824D01*
X170177461Y-98085885D01*
X170177463Y-98085888D01*
X170177464Y-98085889D01*
X170325135Y-98278338D01*
X170325139Y-98278342D01*
X170325144Y-98278348D01*
X170496651Y-98449855D01*
X170496656Y-98449859D01*
X170496662Y-98449865D01*
X170674304Y-98586174D01*
X170689114Y-98597538D01*
X170899175Y-98718817D01*
X170899179Y-98718818D01*
X170899188Y-98718824D01*
X171123300Y-98811654D01*
X171357611Y-98874438D01*
X171357615Y-98874438D01*
X171357617Y-98874439D01*
X171419602Y-98882599D01*
X171598112Y-98906100D01*
X171598119Y-98906100D01*
X171840681Y-98906100D01*
X171840688Y-98906100D01*
X172058037Y-98877485D01*
X172081182Y-98874439D01*
X172081182Y-98874438D01*
X172081189Y-98874438D01*
X172315500Y-98811654D01*
X172539612Y-98718824D01*
X172749689Y-98597536D01*
X172942138Y-98449865D01*
X173113665Y-98278338D01*
X173213524Y-98148199D01*
X176012518Y-98148199D01*
X176012518Y-98148200D01*
X176033155Y-98304960D01*
X176089130Y-98440094D01*
X176093664Y-98451041D01*
X176189918Y-98576482D01*
X176315359Y-98672736D01*
X176461438Y-98733244D01*
X176618200Y-98753882D01*
X176774962Y-98733244D01*
X176921041Y-98672736D01*
X177046482Y-98576482D01*
X177142736Y-98451041D01*
X177203244Y-98304962D01*
X177223882Y-98148200D01*
X177203244Y-97991438D01*
X177142736Y-97845359D01*
X177046482Y-97719918D01*
X176921041Y-97623664D01*
X176919919Y-97623199D01*
X176774960Y-97563155D01*
X176618200Y-97542518D01*
X176461439Y-97563155D01*
X176315360Y-97623663D01*
X176315357Y-97623665D01*
X176189918Y-97719918D01*
X176093665Y-97845357D01*
X176093663Y-97845360D01*
X176033155Y-97991439D01*
X176012518Y-98148199D01*
X173213524Y-98148199D01*
X173261336Y-98085889D01*
X173382624Y-97875812D01*
X173475454Y-97651700D01*
X173538238Y-97417389D01*
X173569900Y-97176888D01*
X173569900Y-96934312D01*
X173542467Y-96725934D01*
X173538239Y-96693817D01*
X173538238Y-96693815D01*
X173538238Y-96693811D01*
X173475454Y-96459500D01*
X173382624Y-96235388D01*
X173382618Y-96235379D01*
X173382617Y-96235375D01*
X173261338Y-96025314D01*
X173261336Y-96025311D01*
X173113665Y-95832862D01*
X173113659Y-95832856D01*
X173113655Y-95832851D01*
X172942148Y-95661344D01*
X172942142Y-95661339D01*
X172942138Y-95661335D01*
X172749689Y-95513664D01*
X172749688Y-95513663D01*
X172749685Y-95513661D01*
X172602094Y-95428449D01*
X180217700Y-95428449D01*
X180217700Y-97867950D01*
X180229255Y-97926042D01*
X180229333Y-97926431D01*
X180273648Y-97992752D01*
X180339969Y-98037067D01*
X180398452Y-98048700D01*
X180398453Y-98048700D01*
X182837947Y-98048700D01*
X182837948Y-98048700D01*
X182896431Y-98037067D01*
X182962752Y-97992752D01*
X183007067Y-97926431D01*
X183018700Y-97867948D01*
X183018700Y-95428452D01*
X183007067Y-95369969D01*
X182962752Y-95303648D01*
X182896431Y-95259333D01*
X182896428Y-95259332D01*
X182837950Y-95247700D01*
X182837948Y-95247700D01*
X180398452Y-95247700D01*
X180398449Y-95247700D01*
X180339971Y-95259332D01*
X180339968Y-95259333D01*
X180273648Y-95303648D01*
X180229333Y-95369968D01*
X180229332Y-95369971D01*
X180217700Y-95428449D01*
X172602094Y-95428449D01*
X172539624Y-95392382D01*
X172539616Y-95392378D01*
X172539612Y-95392376D01*
X172315500Y-95299546D01*
X172315497Y-95299545D01*
X172315495Y-95299544D01*
X172081182Y-95236760D01*
X171840690Y-95205100D01*
X171840688Y-95205100D01*
X171598112Y-95205100D01*
X171598109Y-95205100D01*
X171357617Y-95236760D01*
X171123304Y-95299544D01*
X171123300Y-95299546D01*
X170943026Y-95374218D01*
X170899186Y-95392377D01*
X170899175Y-95392382D01*
X170689114Y-95513661D01*
X170496662Y-95661335D01*
X170496651Y-95661344D01*
X170325144Y-95832851D01*
X170325135Y-95832862D01*
X170177461Y-96025314D01*
X170056182Y-96235375D01*
X170056177Y-96235386D01*
X170056176Y-96235388D01*
X169999982Y-96371053D01*
X169963346Y-96459500D01*
X169963344Y-96459504D01*
X169900560Y-96693817D01*
X169868900Y-96934309D01*
X151064987Y-96934309D01*
X151062791Y-96929788D01*
X151062126Y-96892456D01*
X151063393Y-96882838D01*
X151082882Y-96734800D01*
X151062244Y-96578038D01*
X151001736Y-96431959D01*
X150905482Y-96306518D01*
X150780041Y-96210264D01*
X150758642Y-96201400D01*
X150633960Y-96149755D01*
X150477200Y-96129118D01*
X150320439Y-96149755D01*
X150174360Y-96210263D01*
X150174357Y-96210265D01*
X150048918Y-96306518D01*
X149952665Y-96431957D01*
X149952663Y-96431960D01*
X149892155Y-96578039D01*
X149871518Y-96734799D01*
X144394472Y-96734799D01*
X144377682Y-96712918D01*
X144252241Y-96616664D01*
X144158993Y-96578039D01*
X144106160Y-96556155D01*
X143949400Y-96535518D01*
X143949398Y-96535518D01*
X143874041Y-96545438D01*
X143803892Y-96534498D01*
X143750794Y-96487369D01*
X143731605Y-96419015D01*
X143741188Y-96372297D01*
X143747044Y-96358162D01*
X143767682Y-96201400D01*
X143747044Y-96044638D01*
X143686536Y-95898559D01*
X143590282Y-95773118D01*
X143464841Y-95676864D01*
X143453973Y-95672362D01*
X143318760Y-95616355D01*
X143162000Y-95595718D01*
X143155311Y-95595718D01*
X143087190Y-95575716D01*
X143040697Y-95522060D01*
X143030593Y-95451786D01*
X143038902Y-95421500D01*
X143061244Y-95367562D01*
X143081882Y-95210800D01*
X143061244Y-95054038D01*
X143000736Y-94907959D01*
X142904482Y-94782518D01*
X142779041Y-94686264D01*
X142739678Y-94669959D01*
X142632960Y-94625755D01*
X142476200Y-94605118D01*
X142319439Y-94625755D01*
X142173360Y-94686263D01*
X142173357Y-94686265D01*
X142047918Y-94782518D01*
X141951665Y-94907957D01*
X141951663Y-94907960D01*
X141891155Y-95054039D01*
X141870518Y-95210799D01*
X140419645Y-95210799D01*
X140409936Y-95187359D01*
X140313682Y-95061918D01*
X140188241Y-94965664D01*
X140097028Y-94927882D01*
X140042160Y-94905155D01*
X140007921Y-94900648D01*
X139942994Y-94871925D01*
X139903903Y-94812660D01*
X139899446Y-94759279D01*
X139906882Y-94702800D01*
X139886244Y-94546038D01*
X139867008Y-94499599D01*
X148372918Y-94499599D01*
X148372918Y-94499600D01*
X148393555Y-94656360D01*
X148445812Y-94782518D01*
X148454064Y-94802441D01*
X148550318Y-94927882D01*
X148675759Y-95024136D01*
X148821838Y-95084644D01*
X148978600Y-95105282D01*
X149135362Y-95084644D01*
X149281441Y-95024136D01*
X149406882Y-94927882D01*
X149503136Y-94802441D01*
X149563644Y-94656362D01*
X149584282Y-94499600D01*
X149582976Y-94489683D01*
X149571164Y-94399957D01*
X149563644Y-94342838D01*
X149503136Y-94196759D01*
X149406882Y-94071318D01*
X149281441Y-93975064D01*
X149220123Y-93949665D01*
X149135360Y-93914555D01*
X148978600Y-93893918D01*
X148821839Y-93914555D01*
X148675760Y-93975063D01*
X148675757Y-93975065D01*
X148550318Y-94071318D01*
X148454065Y-94196757D01*
X148454063Y-94196760D01*
X148393555Y-94342839D01*
X148372918Y-94499599D01*
X139867008Y-94499599D01*
X139825736Y-94399959D01*
X139729482Y-94274518D01*
X139604041Y-94178264D01*
X139587374Y-94171360D01*
X139457960Y-94117755D01*
X139301200Y-94097118D01*
X139144439Y-94117755D01*
X138998360Y-94178263D01*
X138998357Y-94178265D01*
X138872918Y-94274518D01*
X138776665Y-94399957D01*
X138776663Y-94399960D01*
X138716155Y-94546039D01*
X138695518Y-94702799D01*
X127283488Y-94702799D01*
X127313244Y-94630962D01*
X127333882Y-94474200D01*
X127330467Y-94448264D01*
X127313244Y-94317439D01*
X127311371Y-94312915D01*
X127252736Y-94171359D01*
X127156482Y-94045918D01*
X127031041Y-93949664D01*
X126896459Y-93893918D01*
X126884960Y-93889155D01*
X126728200Y-93868518D01*
X126571439Y-93889155D01*
X126425360Y-93949663D01*
X126425357Y-93949665D01*
X126299918Y-94045918D01*
X126203665Y-94171357D01*
X126203663Y-94171360D01*
X126143155Y-94317439D01*
X126122518Y-94474199D01*
X99610629Y-94474199D01*
X99609944Y-92198196D01*
X124742617Y-92198196D01*
X124742617Y-92198203D01*
X124762898Y-92404127D01*
X124822968Y-92602154D01*
X124897417Y-92741438D01*
X124920515Y-92784650D01*
X125051790Y-92944610D01*
X125211750Y-93075885D01*
X125394246Y-93173432D01*
X125592266Y-93233500D01*
X125592270Y-93233500D01*
X125592272Y-93233501D01*
X125798197Y-93253783D01*
X125798200Y-93253783D01*
X125798203Y-93253783D01*
X126004127Y-93233501D01*
X126004128Y-93233500D01*
X126004134Y-93233500D01*
X126202154Y-93173432D01*
X126384650Y-93075885D01*
X126544610Y-92944610D01*
X126675885Y-92784650D01*
X126773432Y-92602154D01*
X126833500Y-92404134D01*
X126844494Y-92292518D01*
X126853783Y-92198203D01*
X126853783Y-92198196D01*
X127282617Y-92198196D01*
X127282617Y-92198203D01*
X127302898Y-92404127D01*
X127362968Y-92602154D01*
X127437417Y-92741438D01*
X127460515Y-92784650D01*
X127591790Y-92944610D01*
X127751750Y-93075885D01*
X127934246Y-93173432D01*
X128132266Y-93233500D01*
X128132270Y-93233500D01*
X128132272Y-93233501D01*
X128338197Y-93253783D01*
X128338200Y-93253783D01*
X128338203Y-93253783D01*
X128544127Y-93233501D01*
X128544128Y-93233500D01*
X128544134Y-93233500D01*
X128742154Y-93173432D01*
X128924650Y-93075885D01*
X129084610Y-92944610D01*
X129215885Y-92784650D01*
X129313432Y-92602154D01*
X129373500Y-92404134D01*
X129384494Y-92292518D01*
X129393783Y-92198203D01*
X129393783Y-92198196D01*
X129822617Y-92198196D01*
X129822617Y-92198203D01*
X129842898Y-92404127D01*
X129902968Y-92602154D01*
X129977417Y-92741438D01*
X130000515Y-92784650D01*
X130131790Y-92944610D01*
X130291750Y-93075885D01*
X130474246Y-93173432D01*
X130672266Y-93233500D01*
X130672270Y-93233500D01*
X130672272Y-93233501D01*
X130878197Y-93253783D01*
X130878200Y-93253783D01*
X130878203Y-93253783D01*
X131084127Y-93233501D01*
X131084128Y-93233500D01*
X131084134Y-93233500D01*
X131282154Y-93173432D01*
X131464650Y-93075885D01*
X131624610Y-92944610D01*
X131755885Y-92784650D01*
X131776010Y-92746999D01*
X136663518Y-92746999D01*
X136663518Y-92747000D01*
X136684155Y-92903760D01*
X136684156Y-92903762D01*
X136744664Y-93049841D01*
X136840918Y-93175282D01*
X136966359Y-93271536D01*
X137112438Y-93332044D01*
X137269200Y-93352682D01*
X137425962Y-93332044D01*
X137572041Y-93271536D01*
X137697482Y-93175282D01*
X137793736Y-93049841D01*
X137854244Y-92903762D01*
X137854976Y-92898199D01*
X149712518Y-92898199D01*
X149712518Y-92898200D01*
X149733155Y-93054960D01*
X149782228Y-93173431D01*
X149793664Y-93201041D01*
X149889918Y-93326482D01*
X150015359Y-93422736D01*
X150161438Y-93483244D01*
X150210610Y-93489717D01*
X150275537Y-93518439D01*
X150314629Y-93577703D01*
X150315474Y-93648695D01*
X150310574Y-93662854D01*
X150306356Y-93673037D01*
X150285718Y-93829799D01*
X150285718Y-93829800D01*
X150306355Y-93986560D01*
X150306356Y-93986562D01*
X150366864Y-94132641D01*
X150463118Y-94258082D01*
X150588559Y-94354336D01*
X150645141Y-94377773D01*
X150700422Y-94422320D01*
X150722843Y-94489683D01*
X150705285Y-94558474D01*
X150696886Y-94570885D01*
X150620865Y-94669957D01*
X150620863Y-94669960D01*
X150560355Y-94816039D01*
X150539718Y-94972799D01*
X150539718Y-94972800D01*
X150560355Y-95129560D01*
X150614109Y-95259332D01*
X150620864Y-95275641D01*
X150717118Y-95401082D01*
X150842559Y-95497336D01*
X150988638Y-95557844D01*
X151145400Y-95578482D01*
X151302162Y-95557844D01*
X151448241Y-95497336D01*
X151573682Y-95401082D01*
X151669936Y-95275641D01*
X151730444Y-95129562D01*
X151751082Y-94972800D01*
X151750142Y-94965663D01*
X151739633Y-94885839D01*
X151730444Y-94816038D01*
X151669936Y-94669959D01*
X151573682Y-94544518D01*
X151448241Y-94448264D01*
X151391656Y-94424826D01*
X151336377Y-94380279D01*
X151313956Y-94312915D01*
X151331514Y-94244124D01*
X151339902Y-94231730D01*
X151415936Y-94132641D01*
X151476444Y-93986562D01*
X151497082Y-93829800D01*
X151476444Y-93673038D01*
X151415936Y-93526959D01*
X151319682Y-93401518D01*
X151194241Y-93305264D01*
X151048162Y-93244756D01*
X151048160Y-93244755D01*
X150998988Y-93238282D01*
X150934061Y-93209559D01*
X150894970Y-93150294D01*
X150894125Y-93079302D01*
X150899021Y-93065157D01*
X150903244Y-93054962D01*
X150923882Y-92898200D01*
X150903244Y-92741438D01*
X150842736Y-92595359D01*
X150746482Y-92469918D01*
X150621041Y-92373664D01*
X150474962Y-92313156D01*
X150474960Y-92313155D01*
X150318200Y-92292518D01*
X150161439Y-92313155D01*
X150015360Y-92373663D01*
X150015357Y-92373665D01*
X149889918Y-92469918D01*
X149793665Y-92595357D01*
X149793663Y-92595360D01*
X149733155Y-92741439D01*
X149712518Y-92898199D01*
X137854976Y-92898199D01*
X137874882Y-92747000D01*
X137854244Y-92590238D01*
X137793736Y-92444159D01*
X137697482Y-92318718D01*
X137659794Y-92289799D01*
X147407718Y-92289799D01*
X147407718Y-92289800D01*
X147428355Y-92446560D01*
X147487869Y-92590238D01*
X147488864Y-92592641D01*
X147585118Y-92718082D01*
X147710559Y-92814336D01*
X147856638Y-92874844D01*
X148013400Y-92895482D01*
X148170162Y-92874844D01*
X148316241Y-92814336D01*
X148441682Y-92718082D01*
X148537936Y-92592641D01*
X148598444Y-92446562D01*
X148619082Y-92289800D01*
X148598444Y-92133038D01*
X148537936Y-91986959D01*
X148509729Y-91950199D01*
X160623518Y-91950199D01*
X160623518Y-91950200D01*
X160644155Y-92106960D01*
X160691999Y-92222464D01*
X160704664Y-92253041D01*
X160800918Y-92378482D01*
X160926359Y-92474736D01*
X161072438Y-92535244D01*
X161229200Y-92555882D01*
X161385962Y-92535244D01*
X161532041Y-92474736D01*
X161657482Y-92378482D01*
X161753736Y-92253041D01*
X161814244Y-92106962D01*
X161834882Y-91950200D01*
X161814244Y-91793438D01*
X161753736Y-91647359D01*
X161677648Y-91548199D01*
X164912518Y-91548199D01*
X164912518Y-91548200D01*
X164933155Y-91704960D01*
X164983939Y-91827562D01*
X164993664Y-91851041D01*
X165089918Y-91976482D01*
X165215359Y-92072736D01*
X165361438Y-92133244D01*
X165518200Y-92153882D01*
X165674962Y-92133244D01*
X165821041Y-92072736D01*
X165946482Y-91976482D01*
X166042736Y-91851041D01*
X166103244Y-91704962D01*
X166123882Y-91548200D01*
X166103244Y-91391438D01*
X166042736Y-91245359D01*
X165946482Y-91119918D01*
X165821041Y-91023664D01*
X165678543Y-90964639D01*
X165674960Y-90963155D01*
X165518200Y-90942518D01*
X165361439Y-90963155D01*
X165215360Y-91023663D01*
X165215357Y-91023665D01*
X165089918Y-91119918D01*
X164993665Y-91245357D01*
X164993663Y-91245360D01*
X164933155Y-91391439D01*
X164912518Y-91548199D01*
X161677648Y-91548199D01*
X161657482Y-91521918D01*
X161532041Y-91425664D01*
X161449413Y-91391438D01*
X161385960Y-91365155D01*
X161229200Y-91344518D01*
X161072439Y-91365155D01*
X160926360Y-91425663D01*
X160926357Y-91425665D01*
X160800918Y-91521918D01*
X160704665Y-91647357D01*
X160704663Y-91647360D01*
X160644155Y-91793439D01*
X160623518Y-91950199D01*
X148509729Y-91950199D01*
X148441682Y-91861518D01*
X148316241Y-91765264D01*
X148174238Y-91706444D01*
X148170160Y-91704755D01*
X148013400Y-91684118D01*
X147856639Y-91704755D01*
X147710560Y-91765263D01*
X147710557Y-91765265D01*
X147585118Y-91861518D01*
X147488865Y-91986957D01*
X147488863Y-91986960D01*
X147428355Y-92133039D01*
X147407718Y-92289799D01*
X137659794Y-92289799D01*
X137572041Y-92222464D01*
X137506549Y-92195336D01*
X137425960Y-92161955D01*
X137269200Y-92141318D01*
X137112439Y-92161955D01*
X136966360Y-92222463D01*
X136966357Y-92222465D01*
X136840918Y-92318718D01*
X136744665Y-92444157D01*
X136744663Y-92444160D01*
X136684155Y-92590239D01*
X136663518Y-92746999D01*
X131776010Y-92746999D01*
X131853432Y-92602154D01*
X131913500Y-92404134D01*
X131924494Y-92292518D01*
X131933783Y-92198203D01*
X131933783Y-92198196D01*
X131913501Y-91992272D01*
X131913500Y-91992270D01*
X131913500Y-91992266D01*
X131853432Y-91794246D01*
X131755885Y-91611750D01*
X131624610Y-91451790D01*
X131464650Y-91320515D01*
X131464648Y-91320514D01*
X131464647Y-91320513D01*
X131282154Y-91222968D01*
X131084127Y-91162898D01*
X130878203Y-91142617D01*
X130878197Y-91142617D01*
X130672272Y-91162898D01*
X130474245Y-91222968D01*
X130291752Y-91320513D01*
X130131790Y-91451790D01*
X130000513Y-91611752D01*
X129902968Y-91794245D01*
X129842898Y-91992272D01*
X129822617Y-92198196D01*
X129393783Y-92198196D01*
X129373501Y-91992272D01*
X129373500Y-91992270D01*
X129373500Y-91992266D01*
X129313432Y-91794246D01*
X129215885Y-91611750D01*
X129084610Y-91451790D01*
X128924650Y-91320515D01*
X128924648Y-91320514D01*
X128924647Y-91320513D01*
X128742154Y-91222968D01*
X128544127Y-91162898D01*
X128338203Y-91142617D01*
X128338197Y-91142617D01*
X128132272Y-91162898D01*
X127934245Y-91222968D01*
X127751752Y-91320513D01*
X127591790Y-91451790D01*
X127460513Y-91611752D01*
X127362968Y-91794245D01*
X127302898Y-91992272D01*
X127282617Y-92198196D01*
X126853783Y-92198196D01*
X126833501Y-91992272D01*
X126833500Y-91992270D01*
X126833500Y-91992266D01*
X126773432Y-91794246D01*
X126675885Y-91611750D01*
X126544610Y-91451790D01*
X126384650Y-91320515D01*
X126384648Y-91320514D01*
X126384647Y-91320513D01*
X126202154Y-91222968D01*
X126004127Y-91162898D01*
X125798203Y-91142617D01*
X125798197Y-91142617D01*
X125592272Y-91162898D01*
X125394245Y-91222968D01*
X125211752Y-91320513D01*
X125051790Y-91451790D01*
X124920513Y-91611752D01*
X124822968Y-91794245D01*
X124762898Y-91992272D01*
X124742617Y-92198196D01*
X99609944Y-92198196D01*
X99609620Y-91121399D01*
X137501718Y-91121399D01*
X137501718Y-91121400D01*
X137522355Y-91278160D01*
X137569277Y-91391438D01*
X137582864Y-91424241D01*
X137679118Y-91549682D01*
X137804559Y-91645936D01*
X137950638Y-91706444D01*
X138107400Y-91727082D01*
X138264162Y-91706444D01*
X138350217Y-91670799D01*
X144519918Y-91670799D01*
X144519918Y-91670800D01*
X144540555Y-91827560D01*
X144550281Y-91851039D01*
X144601064Y-91973641D01*
X144697318Y-92099082D01*
X144822759Y-92195336D01*
X144968838Y-92255844D01*
X145125600Y-92276482D01*
X145282362Y-92255844D01*
X145428441Y-92195336D01*
X145553882Y-92099082D01*
X145650136Y-91973641D01*
X145710644Y-91827562D01*
X145731282Y-91670800D01*
X145710644Y-91514038D01*
X145650136Y-91367959D01*
X145553882Y-91242518D01*
X145428441Y-91146264D01*
X145419637Y-91142617D01*
X145282360Y-91085755D01*
X145125600Y-91065118D01*
X144968839Y-91085755D01*
X144822760Y-91146263D01*
X144822757Y-91146265D01*
X144697318Y-91242518D01*
X144601065Y-91367957D01*
X144601063Y-91367960D01*
X144540555Y-91514039D01*
X144519918Y-91670799D01*
X138350217Y-91670799D01*
X138410241Y-91645936D01*
X138535682Y-91549682D01*
X138631936Y-91424241D01*
X138692444Y-91278162D01*
X138713082Y-91121400D01*
X138692444Y-90964638D01*
X138631936Y-90818559D01*
X138535682Y-90693118D01*
X138410241Y-90596864D01*
X138264162Y-90536356D01*
X138264160Y-90536355D01*
X138107400Y-90515718D01*
X137950639Y-90536355D01*
X137804560Y-90596863D01*
X137804557Y-90596865D01*
X137679118Y-90693118D01*
X137582865Y-90818557D01*
X137582863Y-90818560D01*
X137522355Y-90964639D01*
X137501718Y-91121399D01*
X99609620Y-91121399D01*
X99608837Y-88520264D01*
X99628819Y-88452141D01*
X99682460Y-88405632D01*
X99734864Y-88394230D01*
X204486454Y-88419569D01*
G37*
%TD.AperFunction*%
%TD*%
M02*
