%TF.GenerationSoftware,KiCad,Pcbnew,8.0.5*%
%TF.CreationDate,2024-11-08T09:24:58+00:00*%
%TF.ProjectId,Main_V44,4d61696e-5f56-4343-942e-6b696361645f,rev?*%
%TF.SameCoordinates,Original*%
%TF.FileFunction,Profile,NP*%
%FSLAX46Y46*%
G04 Gerber Fmt 4.6, Leading zero omitted, Abs format (unit mm)*
G04 Created by KiCad (PCBNEW 8.0.5) date 2024-11-08 09:24:58*
%MOMM*%
%LPD*%
G01*
G04 APERTURE LIST*
%TA.AperFunction,Profile*%
%ADD10C,0.100000*%
%TD*%
G04 APERTURE END LIST*
D10*
X63900000Y5050000D02*
X64520000Y4430000D01*
X39830000Y4430000D02*
X39550000Y4710000D01*
X187000000Y16000000D02*
X187000000Y6000000D01*
X31550000Y4710000D02*
X31550000Y16000000D01*
X64520000Y4430000D02*
X66450000Y4430000D01*
X193000000Y6000000D02*
X187000000Y6000000D01*
X187000000Y-77000000D02*
X0Y-77000000D01*
X0Y16000000D02*
X31550000Y16000000D01*
X74920000Y4900000D02*
X74920000Y16000000D01*
X42980000Y4430000D02*
X39830000Y4430000D01*
X187000000Y16000000D02*
X149000000Y16000000D01*
X74920000Y16000000D02*
X149000000Y16000000D01*
X193000000Y6000000D02*
X193000000Y-60000000D01*
X0Y16000000D02*
X0Y0D01*
X0Y-77000000D02*
X0Y0D01*
X66450000Y4430000D02*
X66920000Y4900000D01*
X31550000Y4710000D02*
X39550000Y4710000D01*
X43600000Y5050000D02*
X42980000Y4430000D01*
X187000000Y-60000000D02*
X193000000Y-60000000D01*
X66920000Y4900000D02*
X74920000Y4900000D01*
X187000000Y-60000000D02*
X187000000Y-77000000D01*
%TO.C,J7*%
X52700000Y6000000D02*
X52700000Y12950000D01*
X63400000Y13450000D02*
X53200000Y13450000D01*
X50800000Y6000000D02*
X50800000Y12950000D01*
X50300000Y13450000D02*
X44100000Y13450000D01*
X52700000Y12950000D02*
X53200000Y13450000D01*
X63900000Y12950000D02*
X63400000Y13450000D01*
X63900000Y5050000D02*
X63900000Y12950000D01*
X50800000Y12950000D02*
X50300000Y13450000D01*
X43600000Y12950000D02*
X44100000Y13450000D01*
X43600000Y5050000D02*
X43600000Y12950000D01*
X52700000Y6000000D02*
G75*
G02*
X50800000Y6000000I-950000J0D01*
G01*
%TD*%
M02*
