%TF.GenerationSoftware,KiCad,Pcbnew,8.0.5*%
%TF.CreationDate,2024-11-08T09:24:58+00:00*%
%TF.ProjectId,Main_V44,4d61696e-5f56-4343-942e-6b696361645f,rev?*%
%TF.SameCoordinates,Original*%
%TF.FileFunction,Soldermask,Top*%
%TF.FilePolarity,Negative*%
%FSLAX46Y46*%
G04 Gerber Fmt 4.6, Leading zero omitted, Abs format (unit mm)*
G04 Created by KiCad (PCBNEW 8.0.5) date 2024-11-08 09:24:58*
%MOMM*%
%LPD*%
G01*
G04 APERTURE LIST*
G04 Aperture macros list*
%AMRoundRect*
0 Rectangle with rounded corners*
0 $1 Rounding radius*
0 $2 $3 $4 $5 $6 $7 $8 $9 X,Y pos of 4 corners*
0 Add a 4 corners polygon primitive as box body*
4,1,4,$2,$3,$4,$5,$6,$7,$8,$9,$2,$3,0*
0 Add four circle primitives for the rounded corners*
1,1,$1+$1,$2,$3*
1,1,$1+$1,$4,$5*
1,1,$1+$1,$6,$7*
1,1,$1+$1,$8,$9*
0 Add four rect primitives between the rounded corners*
20,1,$1+$1,$2,$3,$4,$5,0*
20,1,$1+$1,$4,$5,$6,$7,0*
20,1,$1+$1,$6,$7,$8,$9,0*
20,1,$1+$1,$8,$9,$2,$3,0*%
G04 Aperture macros list end*
%ADD10C,0.500000*%
%ADD11R,5.100000X5.100000*%
%ADD12RoundRect,0.225000X0.225000X0.250000X-0.225000X0.250000X-0.225000X-0.250000X0.225000X-0.250000X0*%
%ADD13RoundRect,0.250000X0.325000X0.650000X-0.325000X0.650000X-0.325000X-0.650000X0.325000X-0.650000X0*%
%ADD14R,3.000000X3.000000*%
%ADD15C,3.000000*%
%ADD16C,5.500000*%
%ADD17C,3.600000*%
%ADD18C,1.300000*%
%ADD19R,3.000000X1.000000*%
%ADD20C,1.200000*%
%ADD21R,2.000000X0.700000*%
%ADD22R,5.200000X3.000000*%
%ADD23R,5.000000X3.000000*%
%ADD24RoundRect,0.250000X0.650000X-0.325000X0.650000X0.325000X-0.650000X0.325000X-0.650000X-0.325000X0*%
%ADD25RoundRect,0.250002X-1.699998X-1.699998X1.699998X-1.699998X1.699998X1.699998X-1.699998X1.699998X0*%
%ADD26C,3.900000*%
%ADD27RoundRect,0.200000X0.275000X-0.200000X0.275000X0.200000X-0.275000X0.200000X-0.275000X-0.200000X0*%
%ADD28R,1.700000X1.700000*%
%ADD29O,1.700000X1.700000*%
%ADD30RoundRect,0.200000X-0.200000X-0.275000X0.200000X-0.275000X0.200000X0.275000X-0.200000X0.275000X0*%
%ADD31C,1.400000*%
%ADD32RoundRect,0.325000X-0.325000X-1.925000X0.325000X-1.925000X0.325000X1.925000X-0.325000X1.925000X0*%
%ADD33RoundRect,0.300001X-0.599999X-1.649999X0.599999X-1.649999X0.599999X1.649999X-0.599999X1.649999X0*%
%ADD34R,1.803400X0.711200*%
%ADD35RoundRect,0.225000X0.250000X-0.225000X0.250000X0.225000X-0.250000X0.225000X-0.250000X-0.225000X0*%
%ADD36C,2.600000*%
%ADD37C,3.200000*%
%ADD38RoundRect,0.200000X0.200000X-1.350000X0.200000X1.350000X-0.200000X1.350000X-0.200000X-1.350000X0*%
%ADD39C,2.400000*%
%ADD40C,2.000000*%
%ADD41R,0.340000X0.700000*%
%ADD42R,0.700000X4.300000*%
%ADD43RoundRect,0.225000X-0.250000X0.225000X-0.250000X-0.225000X0.250000X-0.225000X0.250000X0.225000X0*%
%ADD44RoundRect,0.200000X-0.275000X0.200000X-0.275000X-0.200000X0.275000X-0.200000X0.275000X0.200000X0*%
%ADD45RoundRect,0.225000X-0.225000X-0.250000X0.225000X-0.250000X0.225000X0.250000X-0.225000X0.250000X0*%
%ADD46R,1.350000X1.350000*%
%ADD47C,1.350000*%
%ADD48R,1.800000X1.800000*%
%ADD49C,1.800000*%
%ADD50RoundRect,0.150000X-0.587500X-0.150000X0.587500X-0.150000X0.587500X0.150000X-0.587500X0.150000X0*%
%ADD51RoundRect,0.200000X0.200000X0.275000X-0.200000X0.275000X-0.200000X-0.275000X0.200000X-0.275000X0*%
G04 APERTURE END LIST*
D10*
%TO.C,TP1*%
X124950000Y-31650000D03*
%TD*%
D11*
%TO.C,J30*%
X112699800Y-35255200D03*
%TD*%
D12*
%TO.C,C56*%
X57300000Y-24200000D03*
X55750000Y-24200000D03*
%TD*%
D13*
%TO.C,C2*%
X119788200Y-20193000D03*
X116838200Y-20193000D03*
%TD*%
D14*
%TO.C,J27*%
X87800000Y-2667000D03*
D15*
X82720000Y-2667000D03*
%TD*%
D16*
%TO.C,H1*%
X4000000Y-4000000D03*
D17*
X4000000Y-4000000D03*
%TD*%
D12*
%TO.C,C58*%
X97879200Y-28067000D03*
X96329200Y-28067000D03*
%TD*%
D18*
%TO.C,J2*%
X19675000Y-5765000D03*
X19675000Y-21005000D03*
D19*
X17155000Y-22275000D03*
X17155000Y-19735000D03*
X17155000Y-17195000D03*
X17155000Y-14655000D03*
X17155000Y-12115000D03*
X17155000Y-9575000D03*
X17155000Y-7035000D03*
X17155000Y-4495000D03*
X22195000Y-22275000D03*
X22195000Y-19735000D03*
X22195000Y-17195000D03*
X22195000Y-14655000D03*
X22195000Y-12115000D03*
X22195000Y-9575000D03*
X22195000Y-7035000D03*
X22195000Y-4495000D03*
%TD*%
D20*
%TO.C,U17*%
X61400000Y-50800000D03*
X61400000Y-41650000D03*
D21*
X65000000Y-30000000D03*
X65000000Y-31000000D03*
X65000000Y-32000000D03*
X65000000Y-33000000D03*
X65000000Y-34000000D03*
X65000000Y-35000000D03*
X65000000Y-36000000D03*
X65000000Y-37000000D03*
X65000000Y-38000000D03*
X65000000Y-39000000D03*
X65000000Y-40000000D03*
X65000000Y-43000000D03*
X65000000Y-44000000D03*
X65000000Y-45000000D03*
X65000000Y-46000000D03*
X65000000Y-47000000D03*
X65000000Y-48000000D03*
X65000000Y-49000000D03*
X57800000Y-30000000D03*
X57800000Y-31000000D03*
X57800000Y-32000000D03*
X57800000Y-33000000D03*
X57800000Y-34000000D03*
X57800000Y-35000000D03*
X57800000Y-36000000D03*
X57800000Y-37000000D03*
X57800000Y-38000000D03*
X57800000Y-39000000D03*
X57800000Y-40000000D03*
X57800000Y-43000000D03*
X57800000Y-44000000D03*
X57800000Y-45000000D03*
X57800000Y-46000000D03*
X57800000Y-47000000D03*
X57800000Y-48000000D03*
X57800000Y-49000000D03*
D22*
X61400000Y-27000000D03*
D23*
X61400000Y-52000000D03*
%TD*%
D24*
%TO.C,C13*%
X114071400Y-7444000D03*
X114071400Y-4494000D03*
%TD*%
D25*
%TO.C,J23*%
X184000000Y-22800000D03*
%TD*%
D26*
%TO.C,J26*%
X184000000Y-51260000D03*
%TD*%
D27*
%TO.C,R49*%
X15367000Y-42354000D03*
X15367000Y-40704000D03*
%TD*%
D11*
%TO.C,J29*%
X105867200Y-14147800D03*
%TD*%
D28*
%TO.C,J5*%
X116680000Y3085000D03*
D29*
X116680000Y5625000D03*
X119220000Y3085000D03*
X119220000Y5625000D03*
X121760000Y3085000D03*
X121760000Y5625000D03*
%TD*%
D30*
%TO.C,R47*%
X97445000Y-13080000D03*
X99095000Y-13080000D03*
%TD*%
D24*
%TO.C,C9*%
X114681000Y-20575800D03*
X114681000Y-17625800D03*
%TD*%
D31*
%TO.C,J3*%
X63275000Y-5715000D03*
X63275000Y-13335000D03*
D19*
X65795000Y-4445000D03*
X65795000Y-6985000D03*
X65795000Y-9525000D03*
X65795000Y-12065000D03*
X65795000Y-14605000D03*
X60755000Y-4445000D03*
X60755000Y-6985000D03*
X60755000Y-9525000D03*
X60755000Y-12065000D03*
X60755000Y-14605000D03*
%TD*%
D32*
%TO.C,J1*%
X153349000Y12400400D03*
X155849000Y12400400D03*
X158349000Y12400400D03*
X160849000Y12400400D03*
D33*
X150249000Y7050400D03*
X163949000Y7050400D03*
%TD*%
D34*
%TO.C,L2*%
X114122200Y-8928100D03*
X114122200Y-10020300D03*
%TD*%
D35*
%TO.C,C55*%
X40200000Y-24200000D03*
X40200000Y-22650000D03*
%TD*%
D20*
%TO.C,U15*%
X89400000Y-50800000D03*
X89400000Y-41650000D03*
D21*
X93000000Y-30000000D03*
X93000000Y-31000000D03*
X93000000Y-32000000D03*
X93000000Y-33000000D03*
X93000000Y-34000000D03*
X93000000Y-35000000D03*
X93000000Y-36000000D03*
X93000000Y-37000000D03*
X93000000Y-38000000D03*
X93000000Y-39000000D03*
X93000000Y-40000000D03*
X93000000Y-43000000D03*
X93000000Y-44000000D03*
X93000000Y-45000000D03*
X93000000Y-46000000D03*
X93000000Y-47000000D03*
X93000000Y-48000000D03*
X93000000Y-49000000D03*
X85800000Y-30000000D03*
X85800000Y-31000000D03*
X85800000Y-32000000D03*
X85800000Y-33000000D03*
X85800000Y-34000000D03*
X85800000Y-35000000D03*
X85800000Y-36000000D03*
X85800000Y-37000000D03*
X85800000Y-38000000D03*
X85800000Y-39000000D03*
X85800000Y-40000000D03*
X85800000Y-43000000D03*
X85800000Y-44000000D03*
X85800000Y-45000000D03*
X85800000Y-46000000D03*
X85800000Y-47000000D03*
X85800000Y-48000000D03*
X85800000Y-49000000D03*
D22*
X89400000Y-27000000D03*
D23*
X89400000Y-52000000D03*
%TD*%
D14*
%TO.C,J28*%
X106451400Y-2717800D03*
D15*
X101371400Y-2717800D03*
%TD*%
D24*
%TO.C,C8*%
X112318800Y-20601200D03*
X112318800Y-17651200D03*
%TD*%
D36*
%TO.C,H12*%
X178714400Y-74091800D03*
%TD*%
%TO.C,H8*%
X173355000Y6096000D03*
%TD*%
D12*
%TO.C,C51*%
X103111600Y14782800D03*
X101561600Y14782800D03*
%TD*%
D37*
%TO.C,H9*%
X56125000Y-1610000D03*
%TD*%
D38*
%TO.C,K1*%
X82407600Y-14689600D03*
X85607600Y-14689600D03*
X87807600Y-14689600D03*
X90007600Y-14689600D03*
X90007600Y-9389600D03*
X87807600Y-9389600D03*
X85607600Y-9389600D03*
X82407600Y-9389600D03*
%TD*%
D34*
%TO.C,L1*%
X114706400Y-21882100D03*
X114706400Y-22974300D03*
%TD*%
D37*
%TO.C,H4*%
X184000000Y-66000000D03*
%TD*%
D11*
%TO.C,J31*%
X12649200Y-35763200D03*
%TD*%
D27*
%TO.C,R50*%
X15367000Y-52488600D03*
X15367000Y-50838600D03*
%TD*%
D39*
%TO.C,C52*%
X187881600Y-12598400D03*
X165381600Y-12598400D03*
%TD*%
D40*
%TO.C,FID3*%
X183464200Y-72771000D03*
%TD*%
%TO.C,FID4*%
X28117800Y6756400D03*
%TD*%
D27*
%TO.C,R24*%
X119176800Y-10731000D03*
X119176800Y-9081000D03*
%TD*%
D41*
%TO.C,U1*%
X118279800Y-22059200D03*
X117779800Y-22059200D03*
X117279800Y-22059200D03*
X117279800Y-23559200D03*
X117779800Y-23559200D03*
X118279800Y-23559200D03*
%TD*%
D20*
%TO.C,U19*%
X32400000Y-41650000D03*
X32400000Y-50800000D03*
D21*
X36000000Y-30000000D03*
X36000000Y-31000000D03*
X36000000Y-32000000D03*
X36000000Y-33000000D03*
X36000000Y-34000000D03*
X36000000Y-35000000D03*
X36000000Y-36000000D03*
X36000000Y-37000000D03*
X36000000Y-38000000D03*
X36000000Y-39000000D03*
X36000000Y-40000000D03*
X36000000Y-43000000D03*
X36000000Y-44000000D03*
X36000000Y-45000000D03*
X36000000Y-46000000D03*
X36000000Y-47000000D03*
X36000000Y-48000000D03*
X36000000Y-49000000D03*
X28800000Y-30000000D03*
X28800000Y-31000000D03*
X28800000Y-32000000D03*
X28800000Y-33000000D03*
X28800000Y-34000000D03*
X28800000Y-35000000D03*
X28800000Y-36000000D03*
X28800000Y-37000000D03*
X28800000Y-38000000D03*
X28800000Y-39000000D03*
X28800000Y-40000000D03*
X28800000Y-43000000D03*
X28800000Y-44000000D03*
X28800000Y-45000000D03*
X28800000Y-46000000D03*
X28800000Y-47000000D03*
X28800000Y-48000000D03*
X28800000Y-49000000D03*
D22*
X32400000Y-27000000D03*
D23*
X32400000Y-52000000D03*
%TD*%
D42*
%TO.C,J7*%
X63250000Y10000000D03*
X62250000Y10000000D03*
X61250000Y10000000D03*
X60250000Y10000000D03*
X59250000Y10000000D03*
X58250000Y10000000D03*
X57250000Y10000000D03*
X56250000Y10000000D03*
X55250000Y10000000D03*
X54250000Y10000000D03*
X53250000Y10000000D03*
X50250000Y10000000D03*
X49250000Y10000000D03*
X48250000Y10000000D03*
X47250000Y10000000D03*
X46250000Y10000000D03*
X45250000Y10000000D03*
X44250000Y10000000D03*
%TD*%
D20*
%TO.C,U16*%
X75410000Y-50780000D03*
X75410000Y-41630000D03*
D21*
X79010000Y-29980000D03*
X79010000Y-30980000D03*
X79010000Y-31980000D03*
X79010000Y-32980000D03*
X79010000Y-33980000D03*
X79010000Y-34980000D03*
X79010000Y-35980000D03*
X79010000Y-36980000D03*
X79010000Y-37980000D03*
X79010000Y-38980000D03*
X79010000Y-39980000D03*
X79010000Y-42980000D03*
X79010000Y-43980000D03*
X79010000Y-44980000D03*
X79010000Y-45980000D03*
X79010000Y-46980000D03*
X79010000Y-47980000D03*
X79010000Y-48980000D03*
X71810000Y-29980000D03*
X71810000Y-30980000D03*
X71810000Y-31980000D03*
X71810000Y-32980000D03*
X71810000Y-33980000D03*
X71810000Y-34980000D03*
X71810000Y-35980000D03*
X71810000Y-36980000D03*
X71810000Y-37980000D03*
X71810000Y-38980000D03*
X71810000Y-39980000D03*
X71810000Y-42980000D03*
X71810000Y-43980000D03*
X71810000Y-44980000D03*
X71810000Y-45980000D03*
X71810000Y-46980000D03*
X71810000Y-47980000D03*
X71810000Y-48980000D03*
D22*
X75410000Y-26980000D03*
D23*
X75410000Y-51980000D03*
%TD*%
D43*
%TO.C,C57*%
X14450000Y-26950000D03*
X14450000Y-28500000D03*
%TD*%
D30*
%TO.C,R71*%
X11722600Y13004800D03*
X13372600Y13004800D03*
%TD*%
D24*
%TO.C,C14*%
X111582200Y-7444000D03*
X111582200Y-4494000D03*
%TD*%
D37*
%TO.C,H7*%
X96283000Y-41500200D03*
%TD*%
D30*
%TO.C,R72*%
X11722600Y11328400D03*
X13372600Y11328400D03*
%TD*%
D44*
%TO.C,R23*%
X119989600Y-25057600D03*
X119989600Y-26707600D03*
%TD*%
D20*
%TO.C,U18*%
X47400000Y-50800000D03*
X47400000Y-41650000D03*
D21*
X51000000Y-30000000D03*
X51000000Y-31000000D03*
X51000000Y-32000000D03*
X51000000Y-33000000D03*
X51000000Y-34000000D03*
X51000000Y-35000000D03*
X51000000Y-36000000D03*
X51000000Y-37000000D03*
X51000000Y-38000000D03*
X51000000Y-39000000D03*
X51000000Y-40000000D03*
X51000000Y-43000000D03*
X51000000Y-44000000D03*
X51000000Y-45000000D03*
X51000000Y-46000000D03*
X51000000Y-47000000D03*
X51000000Y-48000000D03*
X51000000Y-49000000D03*
X43800000Y-30000000D03*
X43800000Y-31000000D03*
X43800000Y-32000000D03*
X43800000Y-33000000D03*
X43800000Y-34000000D03*
X43800000Y-35000000D03*
X43800000Y-36000000D03*
X43800000Y-37000000D03*
X43800000Y-38000000D03*
X43800000Y-39000000D03*
X43800000Y-40000000D03*
X43800000Y-43000000D03*
X43800000Y-44000000D03*
X43800000Y-45000000D03*
X43800000Y-46000000D03*
X43800000Y-47000000D03*
X43800000Y-48000000D03*
X43800000Y-49000000D03*
D22*
X47400000Y-27000000D03*
D23*
X47400000Y-52000000D03*
%TD*%
D41*
%TO.C,U8*%
X117543200Y-9003600D03*
X117043200Y-9003600D03*
X116543200Y-9003600D03*
X116543200Y-10503600D03*
X117043200Y-10503600D03*
X117543200Y-10503600D03*
%TD*%
D45*
%TO.C,C3*%
X114312400Y-24485600D03*
X115862400Y-24485600D03*
%TD*%
D46*
%TO.C,PS2*%
X154510000Y-250000D03*
D47*
X126570000Y-250000D03*
X126570000Y-15490000D03*
X151970000Y-15490000D03*
X154510000Y-15490000D03*
%TD*%
D28*
%TO.C,J13*%
X85877000Y-22377800D03*
D29*
X88417000Y-22377800D03*
X90957000Y-22377800D03*
X93497000Y-22377800D03*
X96037000Y-22377800D03*
X98577000Y-22377800D03*
%TD*%
D17*
%TO.C,H6*%
X4000000Y-66000000D03*
D16*
X4000000Y-66000000D03*
%TD*%
D48*
%TO.C,PS1*%
X144830000Y-69327500D03*
D49*
X165150000Y-69327500D03*
X154990000Y-23607500D03*
X144830000Y-23607500D03*
%TD*%
D37*
%TO.C,H3*%
X94000000Y-4000000D03*
%TD*%
D27*
%TO.C,R25*%
X119176800Y-13829800D03*
X119176800Y-12179800D03*
%TD*%
D45*
%TO.C,C12*%
X113537400Y-11303000D03*
X115087400Y-11303000D03*
%TD*%
D26*
%TO.C,J24*%
X184000000Y-32400000D03*
%TD*%
D50*
%TO.C,Q1*%
X76913500Y-10607000D03*
X76913500Y-12507000D03*
X78788500Y-11557000D03*
%TD*%
D36*
%TO.C,H10*%
X129032000Y-41478200D03*
%TD*%
D35*
%TO.C,C5*%
X110261400Y-20536200D03*
X110261400Y-18986200D03*
%TD*%
D37*
%TO.C,H5*%
X94000000Y-66000000D03*
%TD*%
%TO.C,H2*%
X184000000Y-4000000D03*
%TD*%
D51*
%TO.C,R26*%
X121271800Y-23571200D03*
X119621800Y-23571200D03*
%TD*%
D37*
%TO.C,H11*%
X39411400Y-41500200D03*
%TD*%
D30*
%TO.C,R73*%
X11671800Y9601200D03*
X13321800Y9601200D03*
%TD*%
D27*
%TO.C,R48*%
X15367000Y-47434000D03*
X15367000Y-45784000D03*
%TD*%
D28*
%TO.C,J4*%
X30505400Y-9169400D03*
D29*
X30505400Y-11709400D03*
X30505400Y-14249400D03*
X30505400Y-16789400D03*
X30505400Y-19329400D03*
X30505400Y-21869400D03*
%TD*%
D26*
%TO.C,J25*%
X184000000Y-42400000D03*
%TD*%
D28*
%TO.C,J15*%
X18925000Y-32180000D03*
D29*
X18925000Y-34720000D03*
X18925000Y-37260000D03*
X18925000Y-39800000D03*
X18925000Y-42340000D03*
X18925000Y-44880000D03*
X18925000Y-47420000D03*
X18925000Y-49960000D03*
X18925000Y-52500000D03*
%TD*%
D20*
%TO.C,U14*%
X104400000Y-39650000D03*
X104400000Y-48800000D03*
D21*
X108000000Y-28000000D03*
X108000000Y-29000000D03*
X108000000Y-30000000D03*
X108000000Y-31000000D03*
X108000000Y-32000000D03*
X108000000Y-33000000D03*
X108000000Y-34000000D03*
X108000000Y-35000000D03*
X108000000Y-36000000D03*
X108000000Y-37000000D03*
X108000000Y-38000000D03*
X108000000Y-41000000D03*
X108000000Y-42000000D03*
X108000000Y-43000000D03*
X108000000Y-44000000D03*
X108000000Y-45000000D03*
X108000000Y-46000000D03*
X108000000Y-47000000D03*
X100800000Y-28000000D03*
X100800000Y-29000000D03*
X100800000Y-30000000D03*
X100800000Y-31000000D03*
X100800000Y-32000000D03*
X100800000Y-33000000D03*
X100800000Y-34000000D03*
X100800000Y-35000000D03*
X100800000Y-36000000D03*
X100800000Y-37000000D03*
X100800000Y-38000000D03*
X100800000Y-41000000D03*
X100800000Y-42000000D03*
X100800000Y-43000000D03*
X100800000Y-44000000D03*
X100800000Y-45000000D03*
X100800000Y-46000000D03*
X100800000Y-47000000D03*
D22*
X104400000Y-25000000D03*
D23*
X104400000Y-50000000D03*
%TD*%
D13*
%TO.C,C11*%
X119127800Y-7112000D03*
X116177800Y-7112000D03*
%TD*%
D28*
%TO.C,J21*%
X83352400Y14071600D03*
D29*
X85892400Y14071600D03*
X88432400Y14071600D03*
%TD*%
M02*
