M48
; DRILL file {KiCad 8.0.5} date 2024-11-08T09:24:44+0000
; FORMAT={-:-/ absolute / inch / decimal}
; #@! TF.CreationDate,2024-11-08T09:24:44+00:00
; #@! TF.GenerationSoftware,Kicad,Pcbnew,8.0.5
; #@! TF.FileFunction,Plated,1,4,PTH
FMAT,2
INCH
; #@! TA.AperFunction,Plated,PTH,ViaDrill
T1C0.0157
; #@! TA.AperFunction,Plated,PTH,ViaDrill
T2C0.0315
; #@! TA.AperFunction,Plated,PTH,ComponentDrill
T3C0.0354
; #@! TA.AperFunction,Plated,PTH,ComponentDrill
T4C0.0394
; #@! TA.AperFunction,Plated,PTH,ComponentDrill
T5C0.0472
; #@! TA.AperFunction,Plated,PTH,ComponentDrill
T6C0.0598
; #@! TA.AperFunction,Plated,PTH,ComponentDrill
T7C0.0827
; #@! TA.AperFunction,Plated,PTH,ComponentDrill
T8C0.1260
%
G90
G05
T1
X0.072Y-1.44
X0.076Y-2.146
X0.1006Y0.5768
X0.1006Y0.4768
X0.1006Y0.3768
X0.1006Y0.2768
X0.1006Y0.1768
X0.1006Y0.0768
X0.1006Y-0.0232
X0.1006Y-0.3232
X0.1006Y-0.4232
X0.1006Y-0.5232
X0.1006Y-0.9232
X0.1006Y-1.0232
X0.1006Y-1.1232
X0.1006Y-1.2232
X0.1006Y-1.5232
X0.1006Y-1.6232
X0.1006Y-1.7232
X0.1006Y-1.8232
X0.1006Y-1.9232
X0.1006Y-2.2232
X0.1006Y-2.3232
X0.1006Y-2.4232
X0.1006Y-2.8232
X0.1006Y-2.9232
X0.15Y-0.789
X0.2006Y0.5768
X0.2006Y0.4768
X0.2006Y0.3768
X0.2006Y0.2768
X0.2006Y0.1768
X0.2006Y0.0768
X0.2006Y-0.0232
X0.2006Y-0.3232
X0.2006Y-0.4232
X0.2006Y-0.5232
X0.2006Y-0.9232
X0.2006Y-1.0232
X0.2006Y-1.1232
X0.2006Y-1.2232
X0.2006Y-1.5232
X0.2006Y-1.6232
X0.2006Y-1.7232
X0.2006Y-1.8232
X0.2006Y-1.9232
X0.2006Y-2.2232
X0.2006Y-2.3232
X0.2006Y-2.4232
X0.2006Y-2.8232
X0.2006Y-2.9232
X0.235Y-0.604
X0.263Y-1.318
X0.271Y-2.022
X0.3006Y0.5768
X0.3006Y0.4768
X0.3006Y0.3768
X0.3006Y0.2768
X0.3006Y0.1768
X0.3006Y0.0768
X0.3006Y-0.0232
X0.3006Y-0.1232
X0.3006Y-0.2232
X0.3006Y-0.3232
X0.3006Y-0.4232
X0.3006Y-0.5232
X0.3006Y-0.7232
X0.3006Y-0.8232
X0.3006Y-0.9232
X0.3006Y-1.0232
X0.3006Y-1.1232
X0.3006Y-1.2232
X0.3006Y-1.4232
X0.3006Y-1.5232
X0.3006Y-1.6232
X0.3006Y-1.7232
X0.3006Y-1.8232
X0.3006Y-1.9232
X0.3006Y-2.1232
X0.3006Y-2.2232
X0.3006Y-2.3232
X0.3006Y-2.4232
X0.3006Y-2.5232
X0.3006Y-2.6232
X0.3006Y-2.7232
X0.3006Y-2.8232
X0.3006Y-2.9232
X0.4006Y0.5768
X0.4006Y-2.0232
X0.4006Y-2.1232
X0.4006Y-2.2232
X0.4006Y-2.3232
X0.4006Y-2.4232
X0.4006Y-2.5232
X0.4006Y-2.6232
X0.4006Y-2.7232
X0.4006Y-2.8232
X0.4006Y-2.9232
X0.5006Y0.5768
X0.5006Y0.2768
X0.5006Y0.1768
X0.5006Y0.0768
X0.5006Y-0.9232
X0.5006Y-1.0232
X0.5006Y-1.1232
X0.5006Y-1.2232
X0.5006Y-2.2232
X0.5006Y-2.4232
X0.5006Y-2.5232
X0.5006Y-2.6232
X0.5006Y-2.7232
X0.5006Y-2.8232
X0.5006Y-2.9232
X0.572Y-1.006
X0.5758Y-1.2539
X0.6006Y0.5768
X0.6006Y0.4768
X0.6006Y0.2768
X0.6006Y0.1768
X0.6006Y0.0768
X0.6006Y-0.3232
X0.6006Y-0.4232
X0.6006Y-0.5232
X0.6006Y-0.6232
X0.6006Y-0.7232
X0.6006Y-0.8232
X0.6006Y-0.9232
X0.6006Y-1.7232
X0.6006Y-1.9232
X0.6006Y-2.1232
X0.6006Y-2.2232
X0.6006Y-2.3232
X0.6006Y-2.4232
X0.6006Y-2.5232
X0.6006Y-2.6232
X0.6006Y-2.7232
X0.6006Y-2.8232
X0.6006Y-2.9232
X0.7006Y0.5768
X0.7006Y0.4768
X0.7006Y0.2768
X0.7006Y0.1768
X0.7006Y0.0768
X0.7006Y-0.2232
X0.7006Y-0.3232
X0.7006Y-0.4232
X0.7006Y-0.5232
X0.7006Y-0.6232
X0.7006Y-0.7232
X0.7006Y-0.8232
X0.7006Y-0.9232
X0.7006Y-1.0232
X0.7006Y-1.1232
X0.7006Y-2.1232
X0.7006Y-2.2232
X0.7006Y-2.3232
X0.7006Y-2.4232
X0.7006Y-2.5232
X0.7006Y-2.6232
X0.7006Y-2.7232
X0.7006Y-2.8232
X0.7006Y-2.9232
X0.8006Y0.5768
X0.8006Y0.4768
X0.8006Y0.2768
X0.8006Y0.1768
X0.8006Y0.0768
X0.8006Y-0.3232
X0.8006Y-0.4232
X0.8006Y-0.5232
X0.8006Y-0.6232
X0.8006Y-0.7232
X0.8006Y-0.9232
X0.8006Y-1.0232
X0.8006Y-1.1232
X0.8006Y-1.4232
X0.8006Y-1.5232
X0.8006Y-1.6232
X0.8006Y-1.7232
X0.8006Y-1.8232
X0.8006Y-1.9232
X0.8006Y-2.0232
X0.8006Y-2.1232
X0.8006Y-2.2232
X0.8006Y-2.3232
X0.8006Y-2.4232
X0.8006Y-2.5232
X0.8006Y-2.6232
X0.8006Y-2.7232
X0.8006Y-2.8232
X0.8006Y-2.9232
X0.9006Y0.5768
X0.9006Y0.0768
X0.9006Y-0.2232
X0.9006Y-0.3232
X0.9006Y-0.4232
X0.9006Y-0.5232
X0.9006Y-0.7232
X0.9006Y-0.8232
X0.9006Y-0.9232
X0.9006Y-1.0232
X0.9006Y-1.1232
X0.9006Y-1.2232
X0.9006Y-1.3232
X0.9006Y-1.4232
X0.9006Y-1.5232
X0.9006Y-1.6232
X0.9006Y-1.7232
X0.9006Y-1.8232
X0.9006Y-1.9232
X0.9006Y-2.0232
X0.9006Y-2.1232
X0.9006Y-2.2232
X0.9006Y-2.3232
X0.9006Y-2.4232
X0.9006Y-2.5232
X0.9006Y-2.6232
X0.9006Y-2.7232
X0.9006Y-2.8232
X0.9006Y-2.9232
X0.9941Y-0.1831
X1.0006Y0.5768
X1.0006Y0.4768
X1.0006Y0.3768
X1.0006Y0.2768
X1.0006Y0.0768
X1.0006Y-0.5232
X1.0006Y-0.7232
X1.0006Y-0.8232
X1.0006Y-0.9232
X1.0006Y-1.0232
X1.0006Y-1.1232
X1.0006Y-1.2232
X1.0006Y-1.3232
X1.0006Y-1.4232
X1.0006Y-1.5232
X1.0006Y-1.6232
X1.0006Y-1.8232
X1.0006Y-1.9232
X1.0006Y-2.0232
X1.0006Y-2.1232
X1.0006Y-2.2232
X1.0006Y-2.3232
X1.0006Y-2.4232
X1.0006Y-2.5232
X1.0006Y-2.6232
X1.0006Y-2.7232
X1.0006Y-2.8232
X1.0006Y-2.9232
X1.002Y-0.28
X1.012Y-0.377
X1.062Y-1.235
X1.1006Y0.5768
X1.1006Y0.3768
X1.1006Y0.0768
X1.1006Y-0.2232
X1.1006Y-0.3232
X1.1006Y-0.7232
X1.1006Y-0.8232
X1.1006Y-0.9232
X1.1006Y-1.0232
X1.1006Y-1.1232
X1.1006Y-1.6232
X1.1006Y-2.1232
X1.1006Y-2.2232
X1.1006Y-2.3232
X1.1006Y-2.4232
X1.1006Y-2.5232
X1.1006Y-2.6232
X1.1006Y-2.7232
X1.1006Y-2.8232
X1.1006Y-2.9232
X1.2Y-1.26
X1.2006Y0.5768
X1.2006Y0.4768
X1.2006Y0.3768
X1.2006Y0.2768
X1.2006Y0.0768
X1.2006Y-0.2232
X1.2006Y-0.9232
X1.2006Y-1.6232
X1.2006Y-1.7232
X1.2006Y-2.2232
X1.2006Y-2.3232
X1.2006Y-2.4232
X1.2006Y-2.5232
X1.2006Y-2.6232
X1.2006Y-2.7232
X1.2006Y-2.8232
X1.2006Y-2.9232
X1.251Y-1.851
X1.255Y-1.772
X1.263Y-1.928
X1.3006Y0.0768
X1.3006Y-0.2232
X1.3006Y-0.3232
X1.3006Y-0.4232
X1.3006Y-0.5232
X1.3006Y-0.6232
X1.3006Y-0.7232
X1.3006Y-0.8232
X1.3006Y-0.9232
X1.3006Y-2.2232
X1.3006Y-2.3232
X1.3006Y-2.4232
X1.3006Y-2.5232
X1.3006Y-2.6232
X1.3006Y-2.7232
X1.3006Y-2.8232
X1.3006Y-2.9232
X1.4006Y0.0768
X1.4006Y-0.2232
X1.4006Y-0.3232
X1.4006Y-0.4232
X1.4006Y-0.5232
X1.4006Y-0.6232
X1.4006Y-0.7232
X1.4006Y-0.8232
X1.4006Y-0.9232
X1.4006Y-1.6232
X1.4006Y-2.0232
X1.4006Y-2.1232
X1.4006Y-2.2232
X1.4006Y-2.3232
X1.4006Y-2.4232
X1.4006Y-2.5232
X1.4006Y-2.6232
X1.4006Y-2.7232
X1.4006Y-2.8232
X1.4006Y-2.9232
X1.487Y-0.145
X1.5006Y0.0768
X1.5006Y-0.2232
X1.5006Y-0.3232
X1.5006Y-0.4232
X1.5006Y-0.5232
X1.5006Y-0.6232
X1.5006Y-0.7232
X1.5006Y-0.8232
X1.5006Y-1.0232
X1.5006Y-1.1232
X1.5006Y-2.0232
X1.5006Y-2.1232
X1.5006Y-2.2232
X1.5006Y-2.3232
X1.5006Y-2.4232
X1.5006Y-2.5232
X1.5006Y-2.6232
X1.5006Y-2.7232
X1.5006Y-2.8232
X1.5006Y-2.9232
X1.5226Y-0.9026
X1.524Y-1.183
X1.535Y-1.772
X1.535Y-1.85
X1.549Y-1.929
X1.5581Y-1.4213
X1.578Y-1.04
X1.6006Y0.0768
X1.6006Y-0.4232
X1.6006Y-0.5232
X1.6006Y-0.6232
X1.6006Y-0.7232
X1.6006Y-0.8232
X1.6006Y-1.1232
X1.6006Y-1.2232
X1.6006Y-1.7232
X1.6006Y-2.0232
X1.6006Y-2.1232
X1.6006Y-2.2232
X1.6006Y-2.3232
X1.6006Y-2.4232
X1.6006Y-2.5232
X1.6006Y-2.6232
X1.6006Y-2.7232
X1.6006Y-2.8232
X1.6006Y-2.9232
X1.658Y0.086
X1.686Y-0.2205
X1.688Y-0.1713
X1.689Y-0.0768
X1.689Y-0.124
X1.689Y-0.3041
X1.6909Y-0.0335
X1.6919Y-0.2628
X1.7006Y-0.4232
X1.7006Y-0.6232
X1.7006Y-0.7232
X1.7006Y-0.8232
X1.7006Y-0.9232
X1.7006Y-1.0232
X1.7006Y-2.0232
X1.7006Y-2.1232
X1.7006Y-2.2232
X1.7006Y-2.3232
X1.7006Y-2.4232
X1.7006Y-2.5232
X1.7006Y-2.6232
X1.7006Y-2.7232
X1.7006Y-2.8232
X1.7006Y-2.9232
X1.721Y-1.14
X1.7264Y-1.626
X1.79Y-1.26
X1.792Y-1.93
X1.8006Y-0.5232
X1.8006Y-0.6232
X1.8006Y-0.7232
X1.8006Y-0.8232
X1.8006Y-0.9232
X1.8006Y-1.6232
X1.8006Y-2.2232
X1.8006Y-2.3232
X1.8006Y-2.4232
X1.8006Y-2.5232
X1.8006Y-2.6232
X1.8006Y-2.7232
X1.8006Y-2.8232
X1.8006Y-2.9232
X1.803Y-1.851
X1.804Y-1.77
X1.9006Y-0.8232
X1.9006Y-0.9232
X1.9006Y-1.7232
X1.9006Y-1.9232
X1.9006Y-2.2232
X1.9006Y-2.3232
X1.9006Y-2.4232
X1.9006Y-2.5232
X1.9006Y-2.6232
X1.9006Y-2.7232
X1.9006Y-2.8232
X1.9006Y-2.9232
X1.995Y-1.137
X2.0006Y-0.3232
X2.0006Y-0.4232
X2.0006Y-0.5232
X2.0006Y-0.6232
X2.0006Y-0.9232
X2.0006Y-1.0232
X2.0006Y-2.0232
X2.0006Y-2.1232
X2.0006Y-2.2232
X2.0006Y-2.3232
X2.0006Y-2.4232
X2.0006Y-2.5232
X2.0006Y-2.6232
X2.0006Y-2.7232
X2.0006Y-2.8232
X2.0006Y-2.9232
X2.005Y0.152
X2.0059Y-1.6289
X2.036Y0.054
X2.064Y-0.094
X2.065Y-0.021
X2.083Y-1.931
X2.088Y-1.852
X2.0994Y-0.9469
X2.1006Y-0.3232
X2.1006Y-1.0232
X2.1006Y-1.1232
X2.1006Y-1.2232
X2.1006Y-1.6232
X2.1006Y-2.0232
X2.1006Y-2.1232
X2.1006Y-2.2232
X2.1006Y-2.3232
X2.1006Y-2.4232
X2.1006Y-2.5232
X2.1006Y-2.6232
X2.1006Y-2.7232
X2.1006Y-2.8232
X2.1006Y-2.9232
X2.101Y0.111
X2.1027Y-1.7717
X2.1043Y-1.4183
X2.1536Y0.0734
X2.158Y-0.225
X2.2006Y-0.3232
X2.2006Y-0.4232
X2.2006Y-0.5232
X2.2006Y-0.6232
X2.2006Y-0.7232
X2.2006Y-1.0232
X2.2006Y-1.1232
X2.2006Y-1.4232
X2.2006Y-1.6232
X2.2006Y-1.7232
X2.2006Y-1.9232
X2.2006Y-2.0232
X2.2006Y-2.1232
X2.2006Y-2.2232
X2.2006Y-2.4232
X2.2006Y-2.5232
X2.2006Y-2.6232
X2.2006Y-2.7232
X2.2006Y-2.8232
X2.2006Y-2.9232
X2.203Y-1.183
X2.204Y-1.226
X2.2756Y-1.628
X2.294Y-0.158
X2.3006Y-2.5232
X2.3006Y-2.6232
X2.3006Y-2.7232
X2.3006Y-2.8232
X2.3006Y-2.9232
X2.339Y-0.101
X2.351Y-1.93
X2.352Y-2.42
X2.3538Y-1.2598
X2.354Y-1.851
X2.37Y-1.77
X2.389Y-0.098
X2.4006Y-0.7232
X2.4006Y-0.9232
X2.4006Y-2.2232
X2.4006Y-2.3232
X2.4006Y-2.5232
X2.4006Y-2.6232
X2.4006Y-2.7232
X2.4006Y-2.8232
X2.4006Y-2.9232
X2.44Y-0.078
X2.485Y-1.928
X2.496Y-0.085
X2.5006Y-0.3232
X2.5006Y-0.4232
X2.5006Y-0.7232
X2.5006Y-0.9232
X2.5006Y-1.6232
X2.5006Y-2.5232
X2.5006Y-2.6232
X2.5006Y-2.7232
X2.5006Y-2.8232
X2.5006Y-2.9232
X2.533Y-2.42
X2.553Y-0.084
X2.562Y-1.6319
X2.6006Y-2.0232
X2.6006Y-2.1232
X2.6006Y-2.2232
X2.6006Y-2.6232
X2.6006Y-2.7232
X2.6006Y-2.8232
X2.6006Y-2.9232
X2.635Y-1.85
X2.6388Y-1.4272
X2.655Y-1.77
X2.6959Y-0.2628
X2.6978Y-0.5551
X2.6988Y-0.1644
X2.6998Y-0.3593
X2.7006Y-1.0232
X2.7006Y-1.1232
X2.7006Y-1.4232
X2.7006Y-1.6232
X2.7006Y-2.0232
X2.7006Y-2.2232
X2.7006Y-2.3232
X2.7006Y-2.5232
X2.7006Y-2.6232
X2.7006Y-2.7232
X2.7006Y-2.8232
X2.7006Y-2.9232
X2.701Y-2.1254
X2.7018Y-0.4675
X2.711Y-0.08
X2.725Y0.055
X2.725Y0.006
X2.735Y-0.035
X2.7425Y-1.9291
X2.748Y-1.85
X2.7508Y-0.9563
X2.8006Y-0.2232
X2.8006Y-0.3232
X2.8006Y-1.0232
X2.8006Y-2.5232
X2.8006Y-2.6232
X2.8006Y-2.7232
X2.8006Y-2.8232
X2.8006Y-2.9232
X2.809Y-0.438
X2.811Y-2.39
X2.826Y-1.141
X2.8287Y-1.6368
X2.9006Y-0.3232
X2.9006Y-0.9232
X2.9006Y-1.6232
X2.9006Y-2.6232
X2.9006Y-2.7232
X2.9006Y-2.8232
X2.9006Y-2.9232
X2.9039Y-1.7709
X2.918Y-1.272
X2.929Y-0.488
X2.938Y-0.405
X2.982Y0.527
X3.0006Y0.5768
X3.0006Y-0.9232
X3.0006Y-2.2232
X3.0006Y-2.4232
X3.0006Y-2.6232
X3.0006Y-2.7232
X3.0006Y-2.8232
X3.0006Y-2.9232
X3.001Y-0.33
X3.006Y0.392
X3.024Y-1.927
X3.0307Y-2.1358
X3.033Y0.179
X3.033Y-1.77
X3.034Y-1.85
X3.0358Y-2.5224
X3.065Y-2.2244
X3.094Y0.159
X3.1006Y-0.0232
X3.1006Y-0.9232
X3.1006Y-1.0232
X3.1006Y-2.7232
X3.1006Y-2.8232
X3.1006Y-2.9232
X3.101Y-2.594
X3.107Y-1.148
X3.1102Y-1.6319
X3.117Y0.467
X3.1368Y-2.1909
X3.15Y0.352
X3.1644Y-2.4734
X3.1803Y-2.2949
X3.188Y0.169
X3.2006Y-0.7232
X3.2006Y-0.9232
X3.2006Y-1.0232
X3.2006Y-1.1232
X3.2006Y-1.6232
X3.2006Y-2.7232
X3.2006Y-2.9232
X3.211Y0.416
X3.224Y-2.842
X3.24Y0.276
X3.2421Y-1.4124
X3.258Y0.318
X3.2591Y-2.3075
X3.266Y-2.492
X3.278Y-1.93
X3.2923Y-1.4272
X3.295Y0.457
X3.3006Y-0.2232
X3.3006Y-0.9232
X3.3006Y-1.1232
X3.3006Y-1.7232
X3.3006Y-2.9232
X3.3035Y-1.8559
X3.309Y0.492
X3.314Y-2.411
X3.317Y-0.822
X3.321Y-2.839
X3.327Y0.245
X3.366Y-1.052
X3.376Y-2.844
X3.378Y-1.6378
X3.38Y-1.132
X3.4006Y-0.2232
X3.4006Y-2.6232
X3.4006Y-2.9232
X3.431Y-2.538
X3.453Y-1.772
X3.454Y-1.849
X3.461Y-2.838
X3.473Y-1.271
X3.49Y0.222
X3.5006Y-0.2232
X3.5006Y-0.4232
X3.5006Y-2.5232
X3.5006Y-2.6232
X3.5006Y-2.7232
X3.5006Y-2.9232
X3.535Y-2.1374
X3.541Y0.226
X3.6006Y-0.0232
X3.6006Y-0.1232
X3.6006Y-0.2232
X3.6006Y-0.4232
X3.6006Y-1.6232
X3.6006Y-2.5232
X3.6006Y-2.6232
X3.6006Y-2.7232
X3.6006Y-2.8232
X3.6006Y-2.9232
X3.601Y0.192
X3.603Y0.565
X3.62Y0.228
X3.653Y0.434
X3.661Y-1.139
X3.6614Y-1.6299
X3.686Y-0.515
X3.6909Y-2.3114
X3.692Y0.327
X3.6988Y-2.4075
X3.7006Y-0.0232
X3.7006Y-0.4232
X3.7006Y-1.0232
X3.7006Y-2.0232
X3.7006Y-2.7232
X3.7006Y-2.8232
X3.7006Y-2.9232
X3.724Y-1.929
X3.726Y-1.772
X3.7323Y-1.2559
X3.734Y-1.85
X3.737Y-1.098
X3.7461Y-1.4951
X3.752Y0.338
X3.765Y0.301
X3.7726Y-2.3789
X3.8006Y-0.0232
X3.8006Y-0.1232
X3.8006Y-0.2232
X3.8006Y-0.4232
X3.8006Y-0.6232
X3.8006Y-1.0232
X3.8006Y-2.5232
X3.8006Y-2.6232
X3.8006Y-2.7232
X3.8006Y-2.8232
X3.8006Y-2.9232
X3.806Y-1.77
X3.8061Y-1.3346
X3.83Y0.294
X3.863Y-1.778
X3.883Y0.308
X3.9Y-1.198
X3.9006Y-0.1232
X3.9006Y-0.2232
X3.9006Y-0.6232
X3.9006Y-1.3232
X3.9006Y-1.4232
X3.9006Y-1.5232
X3.9006Y-1.6232
X3.9006Y-2.5232
X3.9006Y-2.6232
X3.9006Y-2.7232
X3.9006Y-2.8232
X3.9006Y-2.9232
X3.92Y-1.956
X3.927Y0.031
X3.929Y-1.899
X3.937Y-1.049
X3.945Y0.349
X3.9516Y-2.1354
X3.977Y0.54
X4.0006Y-0.6232
X4.0006Y-2.8232
X4.0006Y-2.9232
X4.016Y-0.467
X4.035Y-1.42
X4.044Y-1.337
X4.0642Y-1.2433
X4.075Y-2.528
X4.084Y-0.159
X4.1006Y0.2768
X4.1006Y-1.4232
X4.1006Y-1.6232
X4.1006Y-1.7232
X4.1006Y-2.8232
X4.1006Y-2.9232
X4.136Y-2.206
X4.147Y-2.059
X4.168Y-1.417
X4.176Y-1.336
X4.2006Y0.5768
X4.2006Y0.4768
X4.2006Y0.3768
X4.2006Y0.2768
X4.2006Y0.0768
X4.2006Y-0.3232
X4.2006Y-0.4232
X4.2006Y-0.7232
X4.2006Y-2.8232
X4.2006Y-2.9232
X4.214Y-2.304
X4.219Y-2.591
X4.257Y-1.051
X4.3006Y0.5768
X4.3006Y0.4768
X4.3006Y0.3768
X4.3006Y0.2768
X4.3006Y0.0768
X4.3006Y-0.0232
X4.3006Y-0.1232
X4.3006Y-0.3232
X4.3006Y-0.4232
X4.3006Y-0.9232
X4.333Y-0.649
X4.335Y-0.689
X4.335Y-0.855
X4.369Y-0.132
X4.371Y-0.648
X4.373Y-0.857
X4.3953Y0.222
X4.4006Y0.5768
X4.4006Y0.4768
X4.4006Y-0.0232
X4.4006Y-0.2232
X4.4006Y-0.4232
X4.4006Y-0.9232
X4.4006Y-1.0232
X4.4006Y-1.1232
X4.404Y-0.132
X4.41Y-0.647
X4.411Y-0.858
X4.437Y0.1075
X4.443Y-0.132
X4.448Y-0.857
X4.449Y-0.648
X4.469Y0.177
X4.49Y-0.25
X4.49Y-0.646
X4.491Y-0.133
X4.5006Y0.5768
X4.5006Y0.0768
X4.5006Y-0.0232
X4.5006Y-1.0232
X4.5006Y-1.1232
X4.534Y-0.648
X4.536Y-0.133
X4.575Y-0.647
X4.581Y-0.731
X4.582Y-0.178
X4.582Y-0.688
X4.583Y-0.223
X4.6006Y0.5768
X4.6006Y0.3768
X4.6006Y-0.0232
X4.6006Y-1.0232
X4.6006Y-1.1232
X4.607Y-0.509
X4.645Y-0.557
X4.647Y-0.969
X4.663Y-0.103
X4.666Y0.506
X4.668Y0.586
X4.67Y0.051
X4.7006Y0.3768
X4.712Y-0.199
X4.718Y-0.722
X4.724Y-1.093
X4.75Y0.587
X4.759Y-0.36
X4.781Y-0.884
X4.8Y-0.041
X4.8006Y-0.2232
X4.8006Y-0.4232
X4.8006Y-0.5232
X4.8006Y-0.7232
X4.8006Y-0.8232
X4.8006Y-1.0232
X4.8006Y-1.1232
X4.806Y-0.114
X4.825Y0.273
X4.843Y0.587
X4.88Y-0.117
X4.9006Y-0.0232
X4.948Y0.06
X4.953Y0.138
X4.987Y-0.119
X6.037Y0.358
X6.127Y0.362
X6.234Y0.366
X6.331Y0.364
X6.4715Y-2.2392
X6.533Y-1.965
X6.6142Y-2.4833
T2
X7.35Y-1.455
T3
X4.9831Y-0.0098
X4.9831Y-0.6098
X5.9831Y-0.6098
X6.0831Y-0.0098
X6.0831Y-0.6098
T4
X0.7451Y-1.2669
X0.7451Y-1.3669
X0.7451Y-1.4669
X0.7451Y-1.5669
X0.7451Y-1.6669
X0.7451Y-1.7669
X0.7451Y-1.8669
X0.7451Y-1.9669
X0.7451Y-2.0669
X1.201Y-0.361
X1.201Y-0.461
X1.201Y-0.561
X1.201Y-0.661
X1.201Y-0.761
X1.201Y-0.861
X3.2816Y0.554
X3.381Y-0.881
X3.3816Y0.554
X3.481Y-0.881
X3.4816Y0.554
X3.581Y-0.881
X3.681Y-0.881
X3.781Y-0.881
X3.881Y-0.881
X4.5937Y0.2215
X4.5937Y0.1215
X4.6937Y0.2215
X4.6937Y0.1215
X4.7937Y0.2215
X4.7937Y0.1215
T5
X5.702Y-0.9294
X5.702Y-2.7294
X6.102Y-0.9294
X6.502Y-2.7294
X6.5111Y-0.496
X7.3969Y-0.496
T6
X3.2567Y-0.105
X3.4567Y-0.105
X3.991Y-0.107
X4.191Y-0.107
T7
X7.2441Y-0.8976
X7.2441Y-1.2756
X7.2441Y-1.6693
X7.2441Y-2.0181
T8
X0.1575Y-0.1575
X0.1575Y-2.5984
M30
