%TF.GenerationSoftware,KiCad,Pcbnew,8.0.4*%
%TF.CreationDate,2024-09-18T10:43:36+01:00*%
%TF.ProjectId,Main_V44,4d61696e-5f56-4343-942e-6b696361645f,rev?*%
%TF.SameCoordinates,Original*%
%TF.FileFunction,Paste,Top*%
%TF.FilePolarity,Positive*%
%FSLAX46Y46*%
G04 Gerber Fmt 4.6, Leading zero omitted, Abs format (unit mm)*
G04 Created by KiCad (PCBNEW 8.0.4) date 2024-09-18 10:43:36*
%MOMM*%
%LPD*%
G01*
G04 APERTURE LIST*
G04 Aperture macros list*
%AMRoundRect*
0 Rectangle with rounded corners*
0 $1 Rounding radius*
0 $2 $3 $4 $5 $6 $7 $8 $9 X,Y pos of 4 corners*
0 Add a 4 corners polygon primitive as box body*
4,1,4,$2,$3,$4,$5,$6,$7,$8,$9,$2,$3,0*
0 Add four circle primitives for the rounded corners*
1,1,$1+$1,$2,$3*
1,1,$1+$1,$4,$5*
1,1,$1+$1,$6,$7*
1,1,$1+$1,$8,$9*
0 Add four rect primitives between the rounded corners*
20,1,$1+$1,$2,$3,$4,$5,0*
20,1,$1+$1,$4,$5,$6,$7,0*
20,1,$1+$1,$6,$7,$8,$9,0*
20,1,$1+$1,$8,$9,$2,$3,0*%
G04 Aperture macros list end*
%ADD10R,5.100000X5.100000*%
%ADD11RoundRect,0.225000X0.225000X0.250000X-0.225000X0.250000X-0.225000X-0.250000X0.225000X-0.250000X0*%
%ADD12RoundRect,0.250000X0.325000X0.650000X-0.325000X0.650000X-0.325000X-0.650000X0.325000X-0.650000X0*%
%ADD13R,3.000000X1.000000*%
%ADD14R,2.000000X0.700000*%
%ADD15R,5.200000X3.000000*%
%ADD16R,5.000000X3.000000*%
%ADD17RoundRect,0.250000X0.650000X-0.325000X0.650000X0.325000X-0.650000X0.325000X-0.650000X-0.325000X0*%
%ADD18RoundRect,0.200000X0.275000X-0.200000X0.275000X0.200000X-0.275000X0.200000X-0.275000X-0.200000X0*%
%ADD19RoundRect,0.200000X-0.200000X-0.275000X0.200000X-0.275000X0.200000X0.275000X-0.200000X0.275000X0*%
%ADD20RoundRect,0.325000X-0.325000X-1.925000X0.325000X-1.925000X0.325000X1.925000X-0.325000X1.925000X0*%
%ADD21RoundRect,0.300001X-0.599999X-1.649999X0.599999X-1.649999X0.599999X1.649999X-0.599999X1.649999X0*%
%ADD22R,1.803400X0.711200*%
%ADD23RoundRect,0.225000X0.250000X-0.225000X0.250000X0.225000X-0.250000X0.225000X-0.250000X-0.225000X0*%
%ADD24RoundRect,0.200000X0.200000X-1.350000X0.200000X1.350000X-0.200000X1.350000X-0.200000X-1.350000X0*%
%ADD25R,0.340000X0.700000*%
%ADD26C,0.500000*%
%ADD27RoundRect,0.225000X-0.250000X0.225000X-0.250000X-0.225000X0.250000X-0.225000X0.250000X0.225000X0*%
%ADD28RoundRect,0.200000X-0.275000X0.200000X-0.275000X-0.200000X0.275000X-0.200000X0.275000X0.200000X0*%
%ADD29RoundRect,0.225000X-0.225000X-0.250000X0.225000X-0.250000X0.225000X0.250000X-0.225000X0.250000X0*%
%ADD30RoundRect,0.150000X-0.587500X-0.150000X0.587500X-0.150000X0.587500X0.150000X-0.587500X0.150000X0*%
%ADD31RoundRect,0.200000X0.200000X0.275000X-0.200000X0.275000X-0.200000X-0.275000X0.200000X-0.275000X0*%
G04 APERTURE END LIST*
D10*
%TO.C,J30*%
X112699800Y-35255200D03*
%TD*%
D11*
%TO.C,C56*%
X57300000Y-24200000D03*
X55750000Y-24200000D03*
%TD*%
D12*
%TO.C,C2*%
X119788200Y-20193000D03*
X116838200Y-20193000D03*
%TD*%
D11*
%TO.C,C58*%
X97879200Y-28067000D03*
X96329200Y-28067000D03*
%TD*%
D13*
%TO.C,J2*%
X17155000Y-22275000D03*
X17155000Y-19735000D03*
X17155000Y-17195000D03*
X17155000Y-14655000D03*
X17155000Y-12115000D03*
X17155000Y-9575000D03*
X17155000Y-7035000D03*
X17155000Y-4495000D03*
X22195000Y-22275000D03*
X22195000Y-19735000D03*
X22195000Y-17195000D03*
X22195000Y-14655000D03*
X22195000Y-12115000D03*
X22195000Y-9575000D03*
X22195000Y-7035000D03*
X22195000Y-4495000D03*
%TD*%
D14*
%TO.C,U17*%
X65000000Y-30000000D03*
X65000000Y-31000000D03*
X65000000Y-32000000D03*
X65000000Y-33000000D03*
X65000000Y-34000000D03*
X65000000Y-35000000D03*
X65000000Y-36000000D03*
X65000000Y-37000000D03*
X65000000Y-38000000D03*
X65000000Y-39000000D03*
X65000000Y-40000000D03*
X65000000Y-43000000D03*
X65000000Y-44000000D03*
X65000000Y-45000000D03*
X65000000Y-46000000D03*
X65000000Y-47000000D03*
X65000000Y-48000000D03*
X65000000Y-49000000D03*
X57800000Y-30000000D03*
X57800000Y-31000000D03*
X57800000Y-32000000D03*
X57800000Y-33000000D03*
X57800000Y-34000000D03*
X57800000Y-35000000D03*
X57800000Y-36000000D03*
X57800000Y-37000000D03*
X57800000Y-38000000D03*
X57800000Y-39000000D03*
X57800000Y-40000000D03*
X57800000Y-43000000D03*
X57800000Y-44000000D03*
X57800000Y-45000000D03*
X57800000Y-46000000D03*
X57800000Y-47000000D03*
X57800000Y-48000000D03*
X57800000Y-49000000D03*
D15*
X61400000Y-27000000D03*
D16*
X61400000Y-52000000D03*
%TD*%
D17*
%TO.C,C13*%
X114071400Y-7444000D03*
X114071400Y-4494000D03*
%TD*%
D18*
%TO.C,R49*%
X15367000Y-42354000D03*
X15367000Y-40704000D03*
%TD*%
D10*
%TO.C,J29*%
X105867200Y-14147800D03*
%TD*%
D19*
%TO.C,R47*%
X97445000Y-13080000D03*
X99095000Y-13080000D03*
%TD*%
D17*
%TO.C,C9*%
X114681000Y-20575800D03*
X114681000Y-17625800D03*
%TD*%
D13*
%TO.C,J3*%
X65795000Y-4445000D03*
X65795000Y-6985000D03*
X65795000Y-9525000D03*
X65795000Y-12065000D03*
X65795000Y-14605000D03*
X60755000Y-4445000D03*
X60755000Y-6985000D03*
X60755000Y-9525000D03*
X60755000Y-12065000D03*
X60755000Y-14605000D03*
%TD*%
D20*
%TO.C,J1*%
X153349000Y12400400D03*
X155849000Y12400400D03*
X158349000Y12400400D03*
X160849000Y12400400D03*
D21*
X150249000Y7050400D03*
X163949000Y7050400D03*
%TD*%
D22*
%TO.C,L2*%
X114122200Y-8928100D03*
X114122200Y-10020300D03*
%TD*%
D23*
%TO.C,C55*%
X40200000Y-24200000D03*
X40200000Y-22650000D03*
%TD*%
D14*
%TO.C,U15*%
X93000000Y-30000000D03*
X93000000Y-31000000D03*
X93000000Y-32000000D03*
X93000000Y-33000000D03*
X93000000Y-34000000D03*
X93000000Y-35000000D03*
X93000000Y-36000000D03*
X93000000Y-37000000D03*
X93000000Y-38000000D03*
X93000000Y-39000000D03*
X93000000Y-40000000D03*
X93000000Y-43000000D03*
X93000000Y-44000000D03*
X93000000Y-45000000D03*
X93000000Y-46000000D03*
X93000000Y-47000000D03*
X93000000Y-48000000D03*
X93000000Y-49000000D03*
X85800000Y-30000000D03*
X85800000Y-31000000D03*
X85800000Y-32000000D03*
X85800000Y-33000000D03*
X85800000Y-34000000D03*
X85800000Y-35000000D03*
X85800000Y-36000000D03*
X85800000Y-37000000D03*
X85800000Y-38000000D03*
X85800000Y-39000000D03*
X85800000Y-40000000D03*
X85800000Y-43000000D03*
X85800000Y-44000000D03*
X85800000Y-45000000D03*
X85800000Y-46000000D03*
X85800000Y-47000000D03*
X85800000Y-48000000D03*
X85800000Y-49000000D03*
D15*
X89400000Y-27000000D03*
D16*
X89400000Y-52000000D03*
%TD*%
D17*
%TO.C,C8*%
X112318800Y-20601200D03*
X112318800Y-17651200D03*
%TD*%
D11*
%TO.C,C51*%
X103111600Y14782800D03*
X101561600Y14782800D03*
%TD*%
D24*
%TO.C,K1*%
X82407600Y-14689600D03*
X85607600Y-14689600D03*
X87807600Y-14689600D03*
X90007600Y-14689600D03*
X90007600Y-9389600D03*
X87807600Y-9389600D03*
X85607600Y-9389600D03*
X82407600Y-9389600D03*
%TD*%
D22*
%TO.C,L1*%
X114706400Y-21882100D03*
X114706400Y-22974300D03*
%TD*%
D10*
%TO.C,J31*%
X12649200Y-35763200D03*
%TD*%
D18*
%TO.C,R50*%
X15367000Y-52488600D03*
X15367000Y-50838600D03*
%TD*%
%TO.C,R24*%
X119176800Y-10731000D03*
X119176800Y-9081000D03*
%TD*%
D25*
%TO.C,U1*%
X118279800Y-22059200D03*
X117779800Y-22059200D03*
X117279800Y-22059200D03*
X117279800Y-23559200D03*
X117779800Y-23559200D03*
X118279800Y-23559200D03*
%TD*%
D14*
%TO.C,U19*%
X36000000Y-30000000D03*
X36000000Y-31000000D03*
X36000000Y-32000000D03*
X36000000Y-33000000D03*
X36000000Y-34000000D03*
X36000000Y-35000000D03*
X36000000Y-36000000D03*
X36000000Y-37000000D03*
X36000000Y-38000000D03*
X36000000Y-39000000D03*
X36000000Y-40000000D03*
X36000000Y-43000000D03*
X36000000Y-44000000D03*
X36000000Y-45000000D03*
X36000000Y-46000000D03*
X36000000Y-47000000D03*
X36000000Y-48000000D03*
X36000000Y-49000000D03*
X28800000Y-30000000D03*
X28800000Y-31000000D03*
X28800000Y-32000000D03*
X28800000Y-33000000D03*
X28800000Y-34000000D03*
X28800000Y-35000000D03*
X28800000Y-36000000D03*
X28800000Y-37000000D03*
X28800000Y-38000000D03*
X28800000Y-39000000D03*
X28800000Y-40000000D03*
X28800000Y-43000000D03*
X28800000Y-44000000D03*
X28800000Y-45000000D03*
X28800000Y-46000000D03*
X28800000Y-47000000D03*
X28800000Y-48000000D03*
X28800000Y-49000000D03*
D15*
X32400000Y-27000000D03*
D16*
X32400000Y-52000000D03*
%TD*%
D26*
%TO.C,TP1*%
X124866400Y-33147000D03*
%TD*%
D14*
%TO.C,U16*%
X79010000Y-29980000D03*
X79010000Y-30980000D03*
X79010000Y-31980000D03*
X79010000Y-32980000D03*
X79010000Y-33980000D03*
X79010000Y-34980000D03*
X79010000Y-35980000D03*
X79010000Y-36980000D03*
X79010000Y-37980000D03*
X79010000Y-38980000D03*
X79010000Y-39980000D03*
X79010000Y-42980000D03*
X79010000Y-43980000D03*
X79010000Y-44980000D03*
X79010000Y-45980000D03*
X79010000Y-46980000D03*
X79010000Y-47980000D03*
X79010000Y-48980000D03*
X71810000Y-29980000D03*
X71810000Y-30980000D03*
X71810000Y-31980000D03*
X71810000Y-32980000D03*
X71810000Y-33980000D03*
X71810000Y-34980000D03*
X71810000Y-35980000D03*
X71810000Y-36980000D03*
X71810000Y-37980000D03*
X71810000Y-38980000D03*
X71810000Y-39980000D03*
X71810000Y-42980000D03*
X71810000Y-43980000D03*
X71810000Y-44980000D03*
X71810000Y-45980000D03*
X71810000Y-46980000D03*
X71810000Y-47980000D03*
X71810000Y-48980000D03*
D15*
X75410000Y-26980000D03*
D16*
X75410000Y-51980000D03*
%TD*%
D27*
%TO.C,C57*%
X14450000Y-26950000D03*
X14450000Y-28500000D03*
%TD*%
D19*
%TO.C,R71*%
X11722600Y13004800D03*
X13372600Y13004800D03*
%TD*%
D17*
%TO.C,C14*%
X111582200Y-7444000D03*
X111582200Y-4494000D03*
%TD*%
D19*
%TO.C,R72*%
X11722600Y11328400D03*
X13372600Y11328400D03*
%TD*%
D28*
%TO.C,R23*%
X119989600Y-25057600D03*
X119989600Y-26707600D03*
%TD*%
D14*
%TO.C,U18*%
X51000000Y-30000000D03*
X51000000Y-31000000D03*
X51000000Y-32000000D03*
X51000000Y-33000000D03*
X51000000Y-34000000D03*
X51000000Y-35000000D03*
X51000000Y-36000000D03*
X51000000Y-37000000D03*
X51000000Y-38000000D03*
X51000000Y-39000000D03*
X51000000Y-40000000D03*
X51000000Y-43000000D03*
X51000000Y-44000000D03*
X51000000Y-45000000D03*
X51000000Y-46000000D03*
X51000000Y-47000000D03*
X51000000Y-48000000D03*
X51000000Y-49000000D03*
X43800000Y-30000000D03*
X43800000Y-31000000D03*
X43800000Y-32000000D03*
X43800000Y-33000000D03*
X43800000Y-34000000D03*
X43800000Y-35000000D03*
X43800000Y-36000000D03*
X43800000Y-37000000D03*
X43800000Y-38000000D03*
X43800000Y-39000000D03*
X43800000Y-40000000D03*
X43800000Y-43000000D03*
X43800000Y-44000000D03*
X43800000Y-45000000D03*
X43800000Y-46000000D03*
X43800000Y-47000000D03*
X43800000Y-48000000D03*
X43800000Y-49000000D03*
D15*
X47400000Y-27000000D03*
D16*
X47400000Y-52000000D03*
%TD*%
D25*
%TO.C,U8*%
X117543200Y-9003600D03*
X117043200Y-9003600D03*
X116543200Y-9003600D03*
X116543200Y-10503600D03*
X117043200Y-10503600D03*
X117543200Y-10503600D03*
%TD*%
D29*
%TO.C,C3*%
X114312400Y-24485600D03*
X115862400Y-24485600D03*
%TD*%
D18*
%TO.C,R25*%
X119176800Y-13829800D03*
X119176800Y-12179800D03*
%TD*%
D29*
%TO.C,C12*%
X113537400Y-11303000D03*
X115087400Y-11303000D03*
%TD*%
D30*
%TO.C,Q1*%
X76913500Y-10607000D03*
X76913500Y-12507000D03*
X78788500Y-11557000D03*
%TD*%
D23*
%TO.C,C5*%
X110261400Y-20536200D03*
X110261400Y-18986200D03*
%TD*%
D31*
%TO.C,R26*%
X121271800Y-23571200D03*
X119621800Y-23571200D03*
%TD*%
D19*
%TO.C,R73*%
X11671800Y9601200D03*
X13321800Y9601200D03*
%TD*%
D18*
%TO.C,R48*%
X15367000Y-47434000D03*
X15367000Y-45784000D03*
%TD*%
D14*
%TO.C,U14*%
X108000000Y-28000000D03*
X108000000Y-29000000D03*
X108000000Y-30000000D03*
X108000000Y-31000000D03*
X108000000Y-32000000D03*
X108000000Y-33000000D03*
X108000000Y-34000000D03*
X108000000Y-35000000D03*
X108000000Y-36000000D03*
X108000000Y-37000000D03*
X108000000Y-38000000D03*
X108000000Y-41000000D03*
X108000000Y-42000000D03*
X108000000Y-43000000D03*
X108000000Y-44000000D03*
X108000000Y-45000000D03*
X108000000Y-46000000D03*
X108000000Y-47000000D03*
X100800000Y-28000000D03*
X100800000Y-29000000D03*
X100800000Y-30000000D03*
X100800000Y-31000000D03*
X100800000Y-32000000D03*
X100800000Y-33000000D03*
X100800000Y-34000000D03*
X100800000Y-35000000D03*
X100800000Y-36000000D03*
X100800000Y-37000000D03*
X100800000Y-38000000D03*
X100800000Y-41000000D03*
X100800000Y-42000000D03*
X100800000Y-43000000D03*
X100800000Y-44000000D03*
X100800000Y-45000000D03*
X100800000Y-46000000D03*
X100800000Y-47000000D03*
D15*
X104400000Y-25000000D03*
D16*
X104400000Y-50000000D03*
%TD*%
D12*
%TO.C,C11*%
X119127800Y-7112000D03*
X116177800Y-7112000D03*
%TD*%
M02*
