%TF.GenerationSoftware,KiCad,Pcbnew,8.0.4*%
%TF.CreationDate,2024-09-18T10:43:36+01:00*%
%TF.ProjectId,Main_V44,4d61696e-5f56-4343-942e-6b696361645f,rev?*%
%TF.SameCoordinates,Original*%
%TF.FileFunction,Legend,Top*%
%TF.FilePolarity,Positive*%
%FSLAX46Y46*%
G04 Gerber Fmt 4.6, Leading zero omitted, Abs format (unit mm)*
G04 Created by KiCad (PCBNEW 8.0.4) date 2024-09-18 10:43:36*
%MOMM*%
%LPD*%
G01*
G04 APERTURE LIST*
%ADD10C,0.100000*%
%ADD11C,0.500000*%
%ADD12C,0.300000*%
%ADD13C,0.200000*%
%ADD14C,0.150000*%
%ADD15C,0.120000*%
%ADD16C,0.127000*%
G04 APERTURE END LIST*
D10*
X135661400Y12039600D02*
X139776200Y12039600D01*
X139776200Y8382000D01*
X135661400Y8382000D01*
X135661400Y12039600D01*
D11*
X185461495Y-37399276D02*
X185271019Y-37304038D01*
X185271019Y-37304038D02*
X184985305Y-37304038D01*
X184985305Y-37304038D02*
X184699590Y-37399276D01*
X184699590Y-37399276D02*
X184509114Y-37589752D01*
X184509114Y-37589752D02*
X184413876Y-37780228D01*
X184413876Y-37780228D02*
X184318638Y-38161180D01*
X184318638Y-38161180D02*
X184318638Y-38446895D01*
X184318638Y-38446895D02*
X184413876Y-38827847D01*
X184413876Y-38827847D02*
X184509114Y-39018323D01*
X184509114Y-39018323D02*
X184699590Y-39208800D01*
X184699590Y-39208800D02*
X184985305Y-39304038D01*
X184985305Y-39304038D02*
X185175781Y-39304038D01*
X185175781Y-39304038D02*
X185461495Y-39208800D01*
X185461495Y-39208800D02*
X185556733Y-39113561D01*
X185556733Y-39113561D02*
X185556733Y-38446895D01*
X185556733Y-38446895D02*
X185175781Y-38446895D01*
X186413876Y-39304038D02*
X186413876Y-37970704D01*
X186413876Y-38351657D02*
X186509114Y-38161180D01*
X186509114Y-38161180D02*
X186604352Y-38065942D01*
X186604352Y-38065942D02*
X186794828Y-37970704D01*
X186794828Y-37970704D02*
X186985305Y-37970704D01*
X188509114Y-39304038D02*
X188509114Y-38256419D01*
X188509114Y-38256419D02*
X188413876Y-38065942D01*
X188413876Y-38065942D02*
X188223400Y-37970704D01*
X188223400Y-37970704D02*
X187842447Y-37970704D01*
X187842447Y-37970704D02*
X187651971Y-38065942D01*
X188509114Y-39208800D02*
X188318638Y-39304038D01*
X188318638Y-39304038D02*
X187842447Y-39304038D01*
X187842447Y-39304038D02*
X187651971Y-39208800D01*
X187651971Y-39208800D02*
X187556733Y-39018323D01*
X187556733Y-39018323D02*
X187556733Y-38827847D01*
X187556733Y-38827847D02*
X187651971Y-38637371D01*
X187651971Y-38637371D02*
X187842447Y-38542133D01*
X187842447Y-38542133D02*
X188318638Y-38542133D01*
X188318638Y-38542133D02*
X188509114Y-38446895D01*
X189271019Y-37970704D02*
X189747209Y-39304038D01*
X190223400Y-37970704D02*
X189747209Y-39304038D01*
X189747209Y-39304038D02*
X189556733Y-39780228D01*
X189556733Y-39780228D02*
X189461495Y-39875466D01*
X189461495Y-39875466D02*
X189271019Y-39970704D01*
D12*
X81930515Y4174471D02*
X82787658Y4174471D01*
X82359086Y2674471D02*
X82359086Y4174471D01*
X83859086Y2745900D02*
X83716229Y2674471D01*
X83716229Y2674471D02*
X83430515Y2674471D01*
X83430515Y2674471D02*
X83287657Y2745900D01*
X83287657Y2745900D02*
X83216229Y2888757D01*
X83216229Y2888757D02*
X83216229Y3460185D01*
X83216229Y3460185D02*
X83287657Y3603042D01*
X83287657Y3603042D02*
X83430515Y3674471D01*
X83430515Y3674471D02*
X83716229Y3674471D01*
X83716229Y3674471D02*
X83859086Y3603042D01*
X83859086Y3603042D02*
X83930515Y3460185D01*
X83930515Y3460185D02*
X83930515Y3317328D01*
X83930515Y3317328D02*
X83216229Y3174471D01*
X84573371Y2674471D02*
X84573371Y3674471D01*
X84573371Y3531614D02*
X84644800Y3603042D01*
X84644800Y3603042D02*
X84787657Y3674471D01*
X84787657Y3674471D02*
X85001943Y3674471D01*
X85001943Y3674471D02*
X85144800Y3603042D01*
X85144800Y3603042D02*
X85216229Y3460185D01*
X85216229Y3460185D02*
X85216229Y2674471D01*
X85216229Y3460185D02*
X85287657Y3603042D01*
X85287657Y3603042D02*
X85430514Y3674471D01*
X85430514Y3674471D02*
X85644800Y3674471D01*
X85644800Y3674471D02*
X85787657Y3603042D01*
X85787657Y3603042D02*
X85859086Y3460185D01*
X85859086Y3460185D02*
X85859086Y2674471D01*
X86573371Y3674471D02*
X86573371Y2174471D01*
X86573371Y3603042D02*
X86716229Y3674471D01*
X86716229Y3674471D02*
X87001943Y3674471D01*
X87001943Y3674471D02*
X87144800Y3603042D01*
X87144800Y3603042D02*
X87216229Y3531614D01*
X87216229Y3531614D02*
X87287657Y3388757D01*
X87287657Y3388757D02*
X87287657Y2960185D01*
X87287657Y2960185D02*
X87216229Y2817328D01*
X87216229Y2817328D02*
X87144800Y2745900D01*
X87144800Y2745900D02*
X87001943Y2674471D01*
X87001943Y2674471D02*
X86716229Y2674471D01*
X86716229Y2674471D02*
X86573371Y2745900D01*
X87859086Y4031614D02*
X87930514Y4103042D01*
X87930514Y4103042D02*
X88073372Y4174471D01*
X88073372Y4174471D02*
X88430514Y4174471D01*
X88430514Y4174471D02*
X88573372Y4103042D01*
X88573372Y4103042D02*
X88644800Y4031614D01*
X88644800Y4031614D02*
X88716229Y3888757D01*
X88716229Y3888757D02*
X88716229Y3745900D01*
X88716229Y3745900D02*
X88644800Y3531614D01*
X88644800Y3531614D02*
X87787657Y2674471D01*
X87787657Y2674471D02*
X88716229Y2674471D01*
D11*
X184347219Y-27944019D02*
X184632933Y-28039257D01*
X184632933Y-28039257D02*
X184728171Y-28134495D01*
X184728171Y-28134495D02*
X184823409Y-28324971D01*
X184823409Y-28324971D02*
X184823409Y-28610685D01*
X184823409Y-28610685D02*
X184728171Y-28801161D01*
X184728171Y-28801161D02*
X184632933Y-28896400D01*
X184632933Y-28896400D02*
X184442457Y-28991638D01*
X184442457Y-28991638D02*
X183680552Y-28991638D01*
X183680552Y-28991638D02*
X183680552Y-26991638D01*
X183680552Y-26991638D02*
X184347219Y-26991638D01*
X184347219Y-26991638D02*
X184537695Y-27086876D01*
X184537695Y-27086876D02*
X184632933Y-27182114D01*
X184632933Y-27182114D02*
X184728171Y-27372590D01*
X184728171Y-27372590D02*
X184728171Y-27563066D01*
X184728171Y-27563066D02*
X184632933Y-27753542D01*
X184632933Y-27753542D02*
X184537695Y-27848780D01*
X184537695Y-27848780D02*
X184347219Y-27944019D01*
X184347219Y-27944019D02*
X183680552Y-27944019D01*
X185966266Y-28991638D02*
X185775790Y-28896400D01*
X185775790Y-28896400D02*
X185680552Y-28705923D01*
X185680552Y-28705923D02*
X185680552Y-26991638D01*
X187585314Y-28991638D02*
X187585314Y-27944019D01*
X187585314Y-27944019D02*
X187490076Y-27753542D01*
X187490076Y-27753542D02*
X187299600Y-27658304D01*
X187299600Y-27658304D02*
X186918647Y-27658304D01*
X186918647Y-27658304D02*
X186728171Y-27753542D01*
X187585314Y-28896400D02*
X187394838Y-28991638D01*
X187394838Y-28991638D02*
X186918647Y-28991638D01*
X186918647Y-28991638D02*
X186728171Y-28896400D01*
X186728171Y-28896400D02*
X186632933Y-28705923D01*
X186632933Y-28705923D02*
X186632933Y-28515447D01*
X186632933Y-28515447D02*
X186728171Y-28324971D01*
X186728171Y-28324971D02*
X186918647Y-28229733D01*
X186918647Y-28229733D02*
X187394838Y-28229733D01*
X187394838Y-28229733D02*
X187585314Y-28134495D01*
X189394838Y-28896400D02*
X189204362Y-28991638D01*
X189204362Y-28991638D02*
X188823409Y-28991638D01*
X188823409Y-28991638D02*
X188632933Y-28896400D01*
X188632933Y-28896400D02*
X188537695Y-28801161D01*
X188537695Y-28801161D02*
X188442457Y-28610685D01*
X188442457Y-28610685D02*
X188442457Y-28039257D01*
X188442457Y-28039257D02*
X188537695Y-27848780D01*
X188537695Y-27848780D02*
X188632933Y-27753542D01*
X188632933Y-27753542D02*
X188823409Y-27658304D01*
X188823409Y-27658304D02*
X189204362Y-27658304D01*
X189204362Y-27658304D02*
X189394838Y-27753542D01*
X190251981Y-28991638D02*
X190251981Y-26991638D01*
X190442457Y-28229733D02*
X191013886Y-28991638D01*
X191013886Y-27658304D02*
X190251981Y-28420209D01*
X189226866Y-33512838D02*
X188274485Y-33512838D01*
X188274485Y-33512838D02*
X188274485Y-31512838D01*
X189798295Y-31703314D02*
X189893533Y-31608076D01*
X189893533Y-31608076D02*
X190084009Y-31512838D01*
X190084009Y-31512838D02*
X190560200Y-31512838D01*
X190560200Y-31512838D02*
X190750676Y-31608076D01*
X190750676Y-31608076D02*
X190845914Y-31703314D01*
X190845914Y-31703314D02*
X190941152Y-31893790D01*
X190941152Y-31893790D02*
X190941152Y-32084266D01*
X190941152Y-32084266D02*
X190845914Y-32369980D01*
X190845914Y-32369980D02*
X189703057Y-33512838D01*
X189703057Y-33512838D02*
X190941152Y-33512838D01*
D12*
X100167715Y4352271D02*
X101024858Y4352271D01*
X100596286Y2852271D02*
X100596286Y4352271D01*
X102096286Y2923700D02*
X101953429Y2852271D01*
X101953429Y2852271D02*
X101667715Y2852271D01*
X101667715Y2852271D02*
X101524857Y2923700D01*
X101524857Y2923700D02*
X101453429Y3066557D01*
X101453429Y3066557D02*
X101453429Y3637985D01*
X101453429Y3637985D02*
X101524857Y3780842D01*
X101524857Y3780842D02*
X101667715Y3852271D01*
X101667715Y3852271D02*
X101953429Y3852271D01*
X101953429Y3852271D02*
X102096286Y3780842D01*
X102096286Y3780842D02*
X102167715Y3637985D01*
X102167715Y3637985D02*
X102167715Y3495128D01*
X102167715Y3495128D02*
X101453429Y3352271D01*
X102810571Y2852271D02*
X102810571Y3852271D01*
X102810571Y3709414D02*
X102882000Y3780842D01*
X102882000Y3780842D02*
X103024857Y3852271D01*
X103024857Y3852271D02*
X103239143Y3852271D01*
X103239143Y3852271D02*
X103382000Y3780842D01*
X103382000Y3780842D02*
X103453429Y3637985D01*
X103453429Y3637985D02*
X103453429Y2852271D01*
X103453429Y3637985D02*
X103524857Y3780842D01*
X103524857Y3780842D02*
X103667714Y3852271D01*
X103667714Y3852271D02*
X103882000Y3852271D01*
X103882000Y3852271D02*
X104024857Y3780842D01*
X104024857Y3780842D02*
X104096286Y3637985D01*
X104096286Y3637985D02*
X104096286Y2852271D01*
X104810571Y3852271D02*
X104810571Y2352271D01*
X104810571Y3780842D02*
X104953429Y3852271D01*
X104953429Y3852271D02*
X105239143Y3852271D01*
X105239143Y3852271D02*
X105382000Y3780842D01*
X105382000Y3780842D02*
X105453429Y3709414D01*
X105453429Y3709414D02*
X105524857Y3566557D01*
X105524857Y3566557D02*
X105524857Y3137985D01*
X105524857Y3137985D02*
X105453429Y2995128D01*
X105453429Y2995128D02*
X105382000Y2923700D01*
X105382000Y2923700D02*
X105239143Y2852271D01*
X105239143Y2852271D02*
X104953429Y2852271D01*
X104953429Y2852271D02*
X104810571Y2923700D01*
X106953429Y2852271D02*
X106096286Y2852271D01*
X106524857Y2852271D02*
X106524857Y4352271D01*
X106524857Y4352271D02*
X106382000Y4137985D01*
X106382000Y4137985D02*
X106239143Y3995128D01*
X106239143Y3995128D02*
X106096286Y3923700D01*
D11*
X184398067Y-18393619D02*
X184683781Y-18488857D01*
X184683781Y-18488857D02*
X184779019Y-18584095D01*
X184779019Y-18584095D02*
X184874257Y-18774571D01*
X184874257Y-18774571D02*
X184874257Y-19060285D01*
X184874257Y-19060285D02*
X184779019Y-19250761D01*
X184779019Y-19250761D02*
X184683781Y-19346000D01*
X184683781Y-19346000D02*
X184493305Y-19441238D01*
X184493305Y-19441238D02*
X183731400Y-19441238D01*
X183731400Y-19441238D02*
X183731400Y-17441238D01*
X183731400Y-17441238D02*
X184398067Y-17441238D01*
X184398067Y-17441238D02*
X184588543Y-17536476D01*
X184588543Y-17536476D02*
X184683781Y-17631714D01*
X184683781Y-17631714D02*
X184779019Y-17822190D01*
X184779019Y-17822190D02*
X184779019Y-18012666D01*
X184779019Y-18012666D02*
X184683781Y-18203142D01*
X184683781Y-18203142D02*
X184588543Y-18298380D01*
X184588543Y-18298380D02*
X184398067Y-18393619D01*
X184398067Y-18393619D02*
X183731400Y-18393619D01*
X185731400Y-19441238D02*
X185731400Y-18107904D01*
X185731400Y-18488857D02*
X185826638Y-18298380D01*
X185826638Y-18298380D02*
X185921876Y-18203142D01*
X185921876Y-18203142D02*
X186112352Y-18107904D01*
X186112352Y-18107904D02*
X186302829Y-18107904D01*
X187255209Y-19441238D02*
X187064733Y-19346000D01*
X187064733Y-19346000D02*
X186969495Y-19250761D01*
X186969495Y-19250761D02*
X186874257Y-19060285D01*
X186874257Y-19060285D02*
X186874257Y-18488857D01*
X186874257Y-18488857D02*
X186969495Y-18298380D01*
X186969495Y-18298380D02*
X187064733Y-18203142D01*
X187064733Y-18203142D02*
X187255209Y-18107904D01*
X187255209Y-18107904D02*
X187540924Y-18107904D01*
X187540924Y-18107904D02*
X187731400Y-18203142D01*
X187731400Y-18203142D02*
X187826638Y-18298380D01*
X187826638Y-18298380D02*
X187921876Y-18488857D01*
X187921876Y-18488857D02*
X187921876Y-19060285D01*
X187921876Y-19060285D02*
X187826638Y-19250761D01*
X187826638Y-19250761D02*
X187731400Y-19346000D01*
X187731400Y-19346000D02*
X187540924Y-19441238D01*
X187540924Y-19441238D02*
X187255209Y-19441238D01*
X188588543Y-18107904D02*
X188969495Y-19441238D01*
X188969495Y-19441238D02*
X189350448Y-18488857D01*
X189350448Y-18488857D02*
X189731400Y-19441238D01*
X189731400Y-19441238D02*
X190112352Y-18107904D01*
X190874257Y-18107904D02*
X190874257Y-19441238D01*
X190874257Y-18298380D02*
X190969495Y-18203142D01*
X190969495Y-18203142D02*
X191159971Y-18107904D01*
X191159971Y-18107904D02*
X191445686Y-18107904D01*
X191445686Y-18107904D02*
X191636162Y-18203142D01*
X191636162Y-18203142D02*
X191731400Y-18393619D01*
X191731400Y-18393619D02*
X191731400Y-19441238D01*
X188566466Y-23810038D02*
X187614085Y-23810038D01*
X187614085Y-23810038D02*
X187614085Y-21810038D01*
X190280752Y-23810038D02*
X189137895Y-23810038D01*
X189709323Y-23810038D02*
X189709323Y-21810038D01*
X189709323Y-21810038D02*
X189518847Y-22095752D01*
X189518847Y-22095752D02*
X189328371Y-22286228D01*
X189328371Y-22286228D02*
X189137895Y-22381466D01*
X189125266Y-43190238D02*
X188172885Y-43190238D01*
X188172885Y-43190238D02*
X188172885Y-41190238D01*
X189601457Y-41190238D02*
X190839552Y-41190238D01*
X190839552Y-41190238D02*
X190172885Y-41952142D01*
X190172885Y-41952142D02*
X190458600Y-41952142D01*
X190458600Y-41952142D02*
X190649076Y-42047380D01*
X190649076Y-42047380D02*
X190744314Y-42142619D01*
X190744314Y-42142619D02*
X190839552Y-42333095D01*
X190839552Y-42333095D02*
X190839552Y-42809285D01*
X190839552Y-42809285D02*
X190744314Y-42999761D01*
X190744314Y-42999761D02*
X190649076Y-43095000D01*
X190649076Y-43095000D02*
X190458600Y-43190238D01*
X190458600Y-43190238D02*
X189887171Y-43190238D01*
X189887171Y-43190238D02*
X189696695Y-43095000D01*
X189696695Y-43095000D02*
X189601457Y-42999761D01*
D12*
X122252028Y-32174328D02*
X121537742Y-32174328D01*
X121537742Y-32174328D02*
X121537742Y-30674328D01*
X123394886Y-32174328D02*
X123394886Y-31388614D01*
X123394886Y-31388614D02*
X123323457Y-31245757D01*
X123323457Y-31245757D02*
X123180600Y-31174328D01*
X123180600Y-31174328D02*
X122894886Y-31174328D01*
X122894886Y-31174328D02*
X122752028Y-31245757D01*
X123394886Y-32102900D02*
X123252028Y-32174328D01*
X123252028Y-32174328D02*
X122894886Y-32174328D01*
X122894886Y-32174328D02*
X122752028Y-32102900D01*
X122752028Y-32102900D02*
X122680600Y-31960042D01*
X122680600Y-31960042D02*
X122680600Y-31817185D01*
X122680600Y-31817185D02*
X122752028Y-31674328D01*
X122752028Y-31674328D02*
X122894886Y-31602900D01*
X122894886Y-31602900D02*
X123252028Y-31602900D01*
X123252028Y-31602900D02*
X123394886Y-31531471D01*
X124109171Y-32174328D02*
X124109171Y-30674328D01*
X124109171Y-31245757D02*
X124252029Y-31174328D01*
X124252029Y-31174328D02*
X124537743Y-31174328D01*
X124537743Y-31174328D02*
X124680600Y-31245757D01*
X124680600Y-31245757D02*
X124752029Y-31317185D01*
X124752029Y-31317185D02*
X124823457Y-31460042D01*
X124823457Y-31460042D02*
X124823457Y-31888614D01*
X124823457Y-31888614D02*
X124752029Y-32031471D01*
X124752029Y-32031471D02*
X124680600Y-32102900D01*
X124680600Y-32102900D02*
X124537743Y-32174328D01*
X124537743Y-32174328D02*
X124252029Y-32174328D01*
X124252029Y-32174328D02*
X124109171Y-32102900D01*
X126037743Y-32102900D02*
X125894886Y-32174328D01*
X125894886Y-32174328D02*
X125609172Y-32174328D01*
X125609172Y-32174328D02*
X125466314Y-32102900D01*
X125466314Y-32102900D02*
X125394886Y-31960042D01*
X125394886Y-31960042D02*
X125394886Y-31388614D01*
X125394886Y-31388614D02*
X125466314Y-31245757D01*
X125466314Y-31245757D02*
X125609172Y-31174328D01*
X125609172Y-31174328D02*
X125894886Y-31174328D01*
X125894886Y-31174328D02*
X126037743Y-31245757D01*
X126037743Y-31245757D02*
X126109172Y-31388614D01*
X126109172Y-31388614D02*
X126109172Y-31531471D01*
X126109172Y-31531471D02*
X125394886Y-31674328D01*
X126966314Y-32174328D02*
X126823457Y-32102900D01*
X126823457Y-32102900D02*
X126752028Y-31960042D01*
X126752028Y-31960042D02*
X126752028Y-30674328D01*
D11*
X93345096Y12140705D02*
X93345096Y14140705D01*
X93345096Y14140705D02*
X94011763Y12712134D01*
X94011763Y12712134D02*
X94678429Y14140705D01*
X94678429Y14140705D02*
X94678429Y12140705D01*
X95535572Y12712134D02*
X96487953Y12712134D01*
X95345096Y12140705D02*
X96011762Y14140705D01*
X96011762Y14140705D02*
X96678429Y12140705D01*
X97345096Y12140705D02*
X97345096Y14140705D01*
X98297477Y12140705D02*
X98297477Y14140705D01*
X98297477Y14140705D02*
X99440334Y12140705D01*
X99440334Y12140705D02*
X99440334Y14140705D01*
X77059379Y10920817D02*
X77726045Y8920817D01*
X77726045Y8920817D02*
X78392712Y10920817D01*
X78773665Y10920817D02*
X79916522Y10920817D01*
X79345093Y8920817D02*
X79345093Y10920817D01*
X82106999Y9968436D02*
X82773666Y9968436D01*
X83059380Y8920817D02*
X82106999Y8920817D01*
X82106999Y8920817D02*
X82106999Y10920817D01*
X82106999Y10920817D02*
X83059380Y10920817D01*
X84202237Y8920817D02*
X84011761Y9016056D01*
X84011761Y9016056D02*
X83916523Y9206532D01*
X83916523Y9206532D02*
X83916523Y10920817D01*
X85726047Y9016056D02*
X85535571Y8920817D01*
X85535571Y8920817D02*
X85154618Y8920817D01*
X85154618Y8920817D02*
X84964142Y9016056D01*
X84964142Y9016056D02*
X84868904Y9206532D01*
X84868904Y9206532D02*
X84868904Y9968436D01*
X84868904Y9968436D02*
X84964142Y10158913D01*
X84964142Y10158913D02*
X85154618Y10254151D01*
X85154618Y10254151D02*
X85535571Y10254151D01*
X85535571Y10254151D02*
X85726047Y10158913D01*
X85726047Y10158913D02*
X85821285Y9968436D01*
X85821285Y9968436D02*
X85821285Y9777960D01*
X85821285Y9777960D02*
X84868904Y9587484D01*
X87535571Y9016056D02*
X87345095Y8920817D01*
X87345095Y8920817D02*
X86964142Y8920817D01*
X86964142Y8920817D02*
X86773666Y9016056D01*
X86773666Y9016056D02*
X86678428Y9111294D01*
X86678428Y9111294D02*
X86583190Y9301770D01*
X86583190Y9301770D02*
X86583190Y9873198D01*
X86583190Y9873198D02*
X86678428Y10063675D01*
X86678428Y10063675D02*
X86773666Y10158913D01*
X86773666Y10158913D02*
X86964142Y10254151D01*
X86964142Y10254151D02*
X87345095Y10254151D01*
X87345095Y10254151D02*
X87535571Y10158913D01*
X88107000Y10254151D02*
X88868904Y10254151D01*
X88392714Y10920817D02*
X88392714Y9206532D01*
X88392714Y9206532D02*
X88487952Y9016056D01*
X88487952Y9016056D02*
X88678428Y8920817D01*
X88678428Y8920817D02*
X88868904Y8920817D01*
X89535571Y8920817D02*
X89535571Y10254151D01*
X89535571Y9873198D02*
X89630809Y10063675D01*
X89630809Y10063675D02*
X89726047Y10158913D01*
X89726047Y10158913D02*
X89916523Y10254151D01*
X89916523Y10254151D02*
X90107000Y10254151D01*
X91059380Y8920817D02*
X90868904Y9016056D01*
X90868904Y9016056D02*
X90773666Y9111294D01*
X90773666Y9111294D02*
X90678428Y9301770D01*
X90678428Y9301770D02*
X90678428Y9873198D01*
X90678428Y9873198D02*
X90773666Y10063675D01*
X90773666Y10063675D02*
X90868904Y10158913D01*
X90868904Y10158913D02*
X91059380Y10254151D01*
X91059380Y10254151D02*
X91345095Y10254151D01*
X91345095Y10254151D02*
X91535571Y10158913D01*
X91535571Y10158913D02*
X91630809Y10063675D01*
X91630809Y10063675D02*
X91726047Y9873198D01*
X91726047Y9873198D02*
X91726047Y9301770D01*
X91726047Y9301770D02*
X91630809Y9111294D01*
X91630809Y9111294D02*
X91535571Y9016056D01*
X91535571Y9016056D02*
X91345095Y8920817D01*
X91345095Y8920817D02*
X91059380Y8920817D01*
X92583190Y10254151D02*
X92583190Y8920817D01*
X92583190Y10063675D02*
X92678428Y10158913D01*
X92678428Y10158913D02*
X92868904Y10254151D01*
X92868904Y10254151D02*
X93154619Y10254151D01*
X93154619Y10254151D02*
X93345095Y10158913D01*
X93345095Y10158913D02*
X93440333Y9968436D01*
X93440333Y9968436D02*
X93440333Y8920817D01*
X95916524Y9682722D02*
X97440334Y9682722D01*
X99630810Y10920817D02*
X100297476Y8920817D01*
X100297476Y8920817D02*
X100964143Y10920817D01*
X102392715Y9016056D02*
X102202239Y8920817D01*
X102202239Y8920817D02*
X101821286Y8920817D01*
X101821286Y8920817D02*
X101630810Y9016056D01*
X101630810Y9016056D02*
X101535572Y9206532D01*
X101535572Y9206532D02*
X101535572Y9968436D01*
X101535572Y9968436D02*
X101630810Y10158913D01*
X101630810Y10158913D02*
X101821286Y10254151D01*
X101821286Y10254151D02*
X102202239Y10254151D01*
X102202239Y10254151D02*
X102392715Y10158913D01*
X102392715Y10158913D02*
X102487953Y9968436D01*
X102487953Y9968436D02*
X102487953Y9777960D01*
X102487953Y9777960D02*
X101535572Y9587484D01*
X103345096Y8920817D02*
X103345096Y10254151D01*
X103345096Y9873198D02*
X103440334Y10063675D01*
X103440334Y10063675D02*
X103535572Y10158913D01*
X103535572Y10158913D02*
X103726048Y10254151D01*
X103726048Y10254151D02*
X103916525Y10254151D01*
X104583191Y9111294D02*
X104678429Y9016056D01*
X104678429Y9016056D02*
X104583191Y8920817D01*
X104583191Y8920817D02*
X104487953Y9016056D01*
X104487953Y9016056D02*
X104583191Y9111294D01*
X104583191Y9111294D02*
X104583191Y8920817D01*
X107916525Y10254151D02*
X107916525Y8920817D01*
X107440334Y11016056D02*
X106964144Y9587484D01*
X106964144Y9587484D02*
X108202239Y9587484D01*
X108964144Y9111294D02*
X109059382Y9016056D01*
X109059382Y9016056D02*
X108964144Y8920817D01*
X108964144Y8920817D02*
X108868906Y9016056D01*
X108868906Y9016056D02*
X108964144Y9111294D01*
X108964144Y9111294D02*
X108964144Y8920817D01*
X110773668Y10254151D02*
X110773668Y8920817D01*
X110297477Y11016056D02*
X109821287Y9587484D01*
X109821287Y9587484D02*
X111059382Y9587484D01*
D10*
X136414819Y12448490D02*
X136414819Y12948490D01*
X136414819Y12948490D02*
X136605295Y12948490D01*
X136605295Y12948490D02*
X136652914Y12924680D01*
X136652914Y12924680D02*
X136676724Y12900871D01*
X136676724Y12900871D02*
X136700533Y12853252D01*
X136700533Y12853252D02*
X136700533Y12781823D01*
X136700533Y12781823D02*
X136676724Y12734204D01*
X136676724Y12734204D02*
X136652914Y12710395D01*
X136652914Y12710395D02*
X136605295Y12686585D01*
X136605295Y12686585D02*
X136414819Y12686585D01*
X137129105Y12448490D02*
X137129105Y12710395D01*
X137129105Y12710395D02*
X137105295Y12758014D01*
X137105295Y12758014D02*
X137057676Y12781823D01*
X137057676Y12781823D02*
X136962438Y12781823D01*
X136962438Y12781823D02*
X136914819Y12758014D01*
X137129105Y12472300D02*
X137081486Y12448490D01*
X137081486Y12448490D02*
X136962438Y12448490D01*
X136962438Y12448490D02*
X136914819Y12472300D01*
X136914819Y12472300D02*
X136891010Y12519919D01*
X136891010Y12519919D02*
X136891010Y12567538D01*
X136891010Y12567538D02*
X136914819Y12615157D01*
X136914819Y12615157D02*
X136962438Y12638966D01*
X136962438Y12638966D02*
X137081486Y12638966D01*
X137081486Y12638966D02*
X137129105Y12662776D01*
X137343391Y12472300D02*
X137391010Y12448490D01*
X137391010Y12448490D02*
X137486248Y12448490D01*
X137486248Y12448490D02*
X137533867Y12472300D01*
X137533867Y12472300D02*
X137557676Y12519919D01*
X137557676Y12519919D02*
X137557676Y12543728D01*
X137557676Y12543728D02*
X137533867Y12591347D01*
X137533867Y12591347D02*
X137486248Y12615157D01*
X137486248Y12615157D02*
X137414819Y12615157D01*
X137414819Y12615157D02*
X137367200Y12638966D01*
X137367200Y12638966D02*
X137343391Y12686585D01*
X137343391Y12686585D02*
X137343391Y12710395D01*
X137343391Y12710395D02*
X137367200Y12758014D01*
X137367200Y12758014D02*
X137414819Y12781823D01*
X137414819Y12781823D02*
X137486248Y12781823D01*
X137486248Y12781823D02*
X137533867Y12758014D01*
X137748153Y12472300D02*
X137795772Y12448490D01*
X137795772Y12448490D02*
X137891010Y12448490D01*
X137891010Y12448490D02*
X137938629Y12472300D01*
X137938629Y12472300D02*
X137962438Y12519919D01*
X137962438Y12519919D02*
X137962438Y12543728D01*
X137962438Y12543728D02*
X137938629Y12591347D01*
X137938629Y12591347D02*
X137891010Y12615157D01*
X137891010Y12615157D02*
X137819581Y12615157D01*
X137819581Y12615157D02*
X137771962Y12638966D01*
X137771962Y12638966D02*
X137748153Y12686585D01*
X137748153Y12686585D02*
X137748153Y12710395D01*
X137748153Y12710395D02*
X137771962Y12758014D01*
X137771962Y12758014D02*
X137819581Y12781823D01*
X137819581Y12781823D02*
X137891010Y12781823D01*
X137891010Y12781823D02*
X137938629Y12758014D01*
X138367200Y12472300D02*
X138319581Y12448490D01*
X138319581Y12448490D02*
X138224343Y12448490D01*
X138224343Y12448490D02*
X138176724Y12472300D01*
X138176724Y12472300D02*
X138152915Y12519919D01*
X138152915Y12519919D02*
X138152915Y12710395D01*
X138152915Y12710395D02*
X138176724Y12758014D01*
X138176724Y12758014D02*
X138224343Y12781823D01*
X138224343Y12781823D02*
X138319581Y12781823D01*
X138319581Y12781823D02*
X138367200Y12758014D01*
X138367200Y12758014D02*
X138391010Y12710395D01*
X138391010Y12710395D02*
X138391010Y12662776D01*
X138391010Y12662776D02*
X138152915Y12615157D01*
X138819581Y12448490D02*
X138819581Y12948490D01*
X138819581Y12472300D02*
X138771962Y12448490D01*
X138771962Y12448490D02*
X138676724Y12448490D01*
X138676724Y12448490D02*
X138629105Y12472300D01*
X138629105Y12472300D02*
X138605295Y12496109D01*
X138605295Y12496109D02*
X138581486Y12543728D01*
X138581486Y12543728D02*
X138581486Y12686585D01*
X138581486Y12686585D02*
X138605295Y12734204D01*
X138605295Y12734204D02*
X138629105Y12758014D01*
X138629105Y12758014D02*
X138676724Y12781823D01*
X138676724Y12781823D02*
X138771962Y12781823D01*
X138771962Y12781823D02*
X138819581Y12758014D01*
D11*
X187214190Y-52054838D02*
X187214190Y-50054838D01*
X187214190Y-50054838D02*
X188357047Y-52054838D01*
X188357047Y-52054838D02*
X188357047Y-50054838D01*
X190166571Y-50721504D02*
X190166571Y-52054838D01*
X189309428Y-50721504D02*
X189309428Y-51769123D01*
X189309428Y-51769123D02*
X189404666Y-51959600D01*
X189404666Y-51959600D02*
X189595142Y-52054838D01*
X189595142Y-52054838D02*
X189880857Y-52054838D01*
X189880857Y-52054838D02*
X190071333Y-51959600D01*
X190071333Y-51959600D02*
X190166571Y-51864361D01*
X191404666Y-52054838D02*
X191214190Y-51959600D01*
X191214190Y-51959600D02*
X191118952Y-51769123D01*
X191118952Y-51769123D02*
X191118952Y-50054838D01*
X192452285Y-52054838D02*
X192261809Y-51959600D01*
X192261809Y-51959600D02*
X192166571Y-51769123D01*
X192166571Y-51769123D02*
X192166571Y-50054838D01*
D13*
X129133152Y6558180D02*
X129133152Y7558180D01*
X129133152Y7558180D02*
X129514104Y7558180D01*
X129514104Y7558180D02*
X129609342Y7510561D01*
X129609342Y7510561D02*
X129656961Y7462942D01*
X129656961Y7462942D02*
X129704580Y7367704D01*
X129704580Y7367704D02*
X129704580Y7224847D01*
X129704580Y7224847D02*
X129656961Y7129609D01*
X129656961Y7129609D02*
X129609342Y7081990D01*
X129609342Y7081990D02*
X129514104Y7034371D01*
X129514104Y7034371D02*
X129133152Y7034371D01*
X130704580Y6653419D02*
X130656961Y6605800D01*
X130656961Y6605800D02*
X130514104Y6558180D01*
X130514104Y6558180D02*
X130418866Y6558180D01*
X130418866Y6558180D02*
X130276009Y6605800D01*
X130276009Y6605800D02*
X130180771Y6701038D01*
X130180771Y6701038D02*
X130133152Y6796276D01*
X130133152Y6796276D02*
X130085533Y6986752D01*
X130085533Y6986752D02*
X130085533Y7129609D01*
X130085533Y7129609D02*
X130133152Y7320085D01*
X130133152Y7320085D02*
X130180771Y7415323D01*
X130180771Y7415323D02*
X130276009Y7510561D01*
X130276009Y7510561D02*
X130418866Y7558180D01*
X130418866Y7558180D02*
X130514104Y7558180D01*
X130514104Y7558180D02*
X130656961Y7510561D01*
X130656961Y7510561D02*
X130704580Y7462942D01*
X131466485Y7081990D02*
X131609342Y7034371D01*
X131609342Y7034371D02*
X131656961Y6986752D01*
X131656961Y6986752D02*
X131704580Y6891514D01*
X131704580Y6891514D02*
X131704580Y6748657D01*
X131704580Y6748657D02*
X131656961Y6653419D01*
X131656961Y6653419D02*
X131609342Y6605800D01*
X131609342Y6605800D02*
X131514104Y6558180D01*
X131514104Y6558180D02*
X131133152Y6558180D01*
X131133152Y6558180D02*
X131133152Y7558180D01*
X131133152Y7558180D02*
X131466485Y7558180D01*
X131466485Y7558180D02*
X131561723Y7510561D01*
X131561723Y7510561D02*
X131609342Y7462942D01*
X131609342Y7462942D02*
X131656961Y7367704D01*
X131656961Y7367704D02*
X131656961Y7272466D01*
X131656961Y7272466D02*
X131609342Y7177228D01*
X131609342Y7177228D02*
X131561723Y7129609D01*
X131561723Y7129609D02*
X131466485Y7081990D01*
X131466485Y7081990D02*
X131133152Y7081990D01*
X132895057Y6653419D02*
X132942676Y6605800D01*
X132942676Y6605800D02*
X132895057Y6558180D01*
X132895057Y6558180D02*
X132847438Y6605800D01*
X132847438Y6605800D02*
X132895057Y6653419D01*
X132895057Y6653419D02*
X132895057Y6558180D01*
X132895057Y7177228D02*
X132942676Y7129609D01*
X132942676Y7129609D02*
X132895057Y7081990D01*
X132895057Y7081990D02*
X132847438Y7129609D01*
X132847438Y7129609D02*
X132895057Y7177228D01*
X132895057Y7177228D02*
X132895057Y7081990D01*
X134561723Y7224847D02*
X134561723Y6558180D01*
X134323628Y7605800D02*
X134085533Y6891514D01*
X134085533Y6891514D02*
X134704580Y6891514D01*
X135133152Y6558180D02*
X135323628Y6558180D01*
X135323628Y6558180D02*
X135418866Y6605800D01*
X135418866Y6605800D02*
X135466485Y6653419D01*
X135466485Y6653419D02*
X135561723Y6796276D01*
X135561723Y6796276D02*
X135609342Y6986752D01*
X135609342Y6986752D02*
X135609342Y7367704D01*
X135609342Y7367704D02*
X135561723Y7462942D01*
X135561723Y7462942D02*
X135514104Y7510561D01*
X135514104Y7510561D02*
X135418866Y7558180D01*
X135418866Y7558180D02*
X135228390Y7558180D01*
X135228390Y7558180D02*
X135133152Y7510561D01*
X135133152Y7510561D02*
X135085533Y7462942D01*
X135085533Y7462942D02*
X135037914Y7367704D01*
X135037914Y7367704D02*
X135037914Y7129609D01*
X135037914Y7129609D02*
X135085533Y7034371D01*
X135085533Y7034371D02*
X135133152Y6986752D01*
X135133152Y6986752D02*
X135228390Y6939133D01*
X135228390Y6939133D02*
X135418866Y6939133D01*
X135418866Y6939133D02*
X135514104Y6986752D01*
X135514104Y6986752D02*
X135561723Y7034371D01*
X135561723Y7034371D02*
X135609342Y7129609D01*
X136228390Y7558180D02*
X136323628Y7558180D01*
X136323628Y7558180D02*
X136418866Y7510561D01*
X136418866Y7510561D02*
X136466485Y7462942D01*
X136466485Y7462942D02*
X136514104Y7367704D01*
X136514104Y7367704D02*
X136561723Y7177228D01*
X136561723Y7177228D02*
X136561723Y6939133D01*
X136561723Y6939133D02*
X136514104Y6748657D01*
X136514104Y6748657D02*
X136466485Y6653419D01*
X136466485Y6653419D02*
X136418866Y6605800D01*
X136418866Y6605800D02*
X136323628Y6558180D01*
X136323628Y6558180D02*
X136228390Y6558180D01*
X136228390Y6558180D02*
X136133152Y6605800D01*
X136133152Y6605800D02*
X136085533Y6653419D01*
X136085533Y6653419D02*
X136037914Y6748657D01*
X136037914Y6748657D02*
X135990295Y6939133D01*
X135990295Y6939133D02*
X135990295Y7177228D01*
X135990295Y7177228D02*
X136037914Y7367704D01*
X136037914Y7367704D02*
X136085533Y7462942D01*
X136085533Y7462942D02*
X136133152Y7510561D01*
X136133152Y7510561D02*
X136228390Y7558180D01*
X137466485Y7558180D02*
X136990295Y7558180D01*
X136990295Y7558180D02*
X136942676Y7081990D01*
X136942676Y7081990D02*
X136990295Y7129609D01*
X136990295Y7129609D02*
X137085533Y7177228D01*
X137085533Y7177228D02*
X137323628Y7177228D01*
X137323628Y7177228D02*
X137418866Y7129609D01*
X137418866Y7129609D02*
X137466485Y7081990D01*
X137466485Y7081990D02*
X137514104Y6986752D01*
X137514104Y6986752D02*
X137514104Y6748657D01*
X137514104Y6748657D02*
X137466485Y6653419D01*
X137466485Y6653419D02*
X137418866Y6605800D01*
X137418866Y6605800D02*
X137323628Y6558180D01*
X137323628Y6558180D02*
X137085533Y6558180D01*
X137085533Y6558180D02*
X136990295Y6605800D01*
X136990295Y6605800D02*
X136942676Y6653419D01*
X137942676Y6939133D02*
X138704581Y6939133D01*
X139085533Y7558180D02*
X139704580Y7558180D01*
X139704580Y7558180D02*
X139371247Y7177228D01*
X139371247Y7177228D02*
X139514104Y7177228D01*
X139514104Y7177228D02*
X139609342Y7129609D01*
X139609342Y7129609D02*
X139656961Y7081990D01*
X139656961Y7081990D02*
X139704580Y6986752D01*
X139704580Y6986752D02*
X139704580Y6748657D01*
X139704580Y6748657D02*
X139656961Y6653419D01*
X139656961Y6653419D02*
X139609342Y6605800D01*
X139609342Y6605800D02*
X139514104Y6558180D01*
X139514104Y6558180D02*
X139228390Y6558180D01*
X139228390Y6558180D02*
X139133152Y6605800D01*
X139133152Y6605800D02*
X139085533Y6653419D01*
X140323628Y7558180D02*
X140418866Y7558180D01*
X140418866Y7558180D02*
X140514104Y7510561D01*
X140514104Y7510561D02*
X140561723Y7462942D01*
X140561723Y7462942D02*
X140609342Y7367704D01*
X140609342Y7367704D02*
X140656961Y7177228D01*
X140656961Y7177228D02*
X140656961Y6939133D01*
X140656961Y6939133D02*
X140609342Y6748657D01*
X140609342Y6748657D02*
X140561723Y6653419D01*
X140561723Y6653419D02*
X140514104Y6605800D01*
X140514104Y6605800D02*
X140418866Y6558180D01*
X140418866Y6558180D02*
X140323628Y6558180D01*
X140323628Y6558180D02*
X140228390Y6605800D01*
X140228390Y6605800D02*
X140180771Y6653419D01*
X140180771Y6653419D02*
X140133152Y6748657D01*
X140133152Y6748657D02*
X140085533Y6939133D01*
X140085533Y6939133D02*
X140085533Y7177228D01*
X140085533Y7177228D02*
X140133152Y7367704D01*
X140133152Y7367704D02*
X140180771Y7462942D01*
X140180771Y7462942D02*
X140228390Y7510561D01*
X140228390Y7510561D02*
X140323628Y7558180D01*
X141276009Y7558180D02*
X141371247Y7558180D01*
X141371247Y7558180D02*
X141466485Y7510561D01*
X141466485Y7510561D02*
X141514104Y7462942D01*
X141514104Y7462942D02*
X141561723Y7367704D01*
X141561723Y7367704D02*
X141609342Y7177228D01*
X141609342Y7177228D02*
X141609342Y6939133D01*
X141609342Y6939133D02*
X141561723Y6748657D01*
X141561723Y6748657D02*
X141514104Y6653419D01*
X141514104Y6653419D02*
X141466485Y6605800D01*
X141466485Y6605800D02*
X141371247Y6558180D01*
X141371247Y6558180D02*
X141276009Y6558180D01*
X141276009Y6558180D02*
X141180771Y6605800D01*
X141180771Y6605800D02*
X141133152Y6653419D01*
X141133152Y6653419D02*
X141085533Y6748657D01*
X141085533Y6748657D02*
X141037914Y6939133D01*
X141037914Y6939133D02*
X141037914Y7177228D01*
X141037914Y7177228D02*
X141085533Y7367704D01*
X141085533Y7367704D02*
X141133152Y7462942D01*
X141133152Y7462942D02*
X141180771Y7510561D01*
X141180771Y7510561D02*
X141276009Y7558180D01*
X141990295Y7462942D02*
X142037914Y7510561D01*
X142037914Y7510561D02*
X142133152Y7558180D01*
X142133152Y7558180D02*
X142371247Y7558180D01*
X142371247Y7558180D02*
X142466485Y7510561D01*
X142466485Y7510561D02*
X142514104Y7462942D01*
X142514104Y7462942D02*
X142561723Y7367704D01*
X142561723Y7367704D02*
X142561723Y7272466D01*
X142561723Y7272466D02*
X142514104Y7129609D01*
X142514104Y7129609D02*
X141942676Y6558180D01*
X141942676Y6558180D02*
X142561723Y6558180D01*
X142895057Y7558180D02*
X143561723Y7558180D01*
X143561723Y7558180D02*
X143133152Y6558180D01*
X143942676Y6939133D02*
X144704581Y6939133D01*
X145371247Y7558180D02*
X145466485Y7558180D01*
X145466485Y7558180D02*
X145561723Y7510561D01*
X145561723Y7510561D02*
X145609342Y7462942D01*
X145609342Y7462942D02*
X145656961Y7367704D01*
X145656961Y7367704D02*
X145704580Y7177228D01*
X145704580Y7177228D02*
X145704580Y6939133D01*
X145704580Y6939133D02*
X145656961Y6748657D01*
X145656961Y6748657D02*
X145609342Y6653419D01*
X145609342Y6653419D02*
X145561723Y6605800D01*
X145561723Y6605800D02*
X145466485Y6558180D01*
X145466485Y6558180D02*
X145371247Y6558180D01*
X145371247Y6558180D02*
X145276009Y6605800D01*
X145276009Y6605800D02*
X145228390Y6653419D01*
X145228390Y6653419D02*
X145180771Y6748657D01*
X145180771Y6748657D02*
X145133152Y6939133D01*
X145133152Y6939133D02*
X145133152Y7177228D01*
X145133152Y7177228D02*
X145180771Y7367704D01*
X145180771Y7367704D02*
X145228390Y7462942D01*
X145228390Y7462942D02*
X145276009Y7510561D01*
X145276009Y7510561D02*
X145371247Y7558180D01*
X146561723Y7558180D02*
X146371247Y7558180D01*
X146371247Y7558180D02*
X146276009Y7510561D01*
X146276009Y7510561D02*
X146228390Y7462942D01*
X146228390Y7462942D02*
X146133152Y7320085D01*
X146133152Y7320085D02*
X146085533Y7129609D01*
X146085533Y7129609D02*
X146085533Y6748657D01*
X146085533Y6748657D02*
X146133152Y6653419D01*
X146133152Y6653419D02*
X146180771Y6605800D01*
X146180771Y6605800D02*
X146276009Y6558180D01*
X146276009Y6558180D02*
X146466485Y6558180D01*
X146466485Y6558180D02*
X146561723Y6605800D01*
X146561723Y6605800D02*
X146609342Y6653419D01*
X146609342Y6653419D02*
X146656961Y6748657D01*
X146656961Y6748657D02*
X146656961Y6986752D01*
X146656961Y6986752D02*
X146609342Y7081990D01*
X146609342Y7081990D02*
X146561723Y7129609D01*
X146561723Y7129609D02*
X146466485Y7177228D01*
X146466485Y7177228D02*
X146276009Y7177228D01*
X146276009Y7177228D02*
X146180771Y7129609D01*
X146180771Y7129609D02*
X146133152Y7081990D01*
X146133152Y7081990D02*
X146085533Y6986752D01*
D11*
X185944143Y-46857275D02*
X186229857Y-46952513D01*
X186229857Y-46952513D02*
X186325095Y-47047751D01*
X186325095Y-47047751D02*
X186420333Y-47238227D01*
X186420333Y-47238227D02*
X186420333Y-47523941D01*
X186420333Y-47523941D02*
X186325095Y-47714417D01*
X186325095Y-47714417D02*
X186229857Y-47809656D01*
X186229857Y-47809656D02*
X186039381Y-47904894D01*
X186039381Y-47904894D02*
X185277476Y-47904894D01*
X185277476Y-47904894D02*
X185277476Y-45904894D01*
X185277476Y-45904894D02*
X185944143Y-45904894D01*
X185944143Y-45904894D02*
X186134619Y-46000132D01*
X186134619Y-46000132D02*
X186229857Y-46095370D01*
X186229857Y-46095370D02*
X186325095Y-46285846D01*
X186325095Y-46285846D02*
X186325095Y-46476322D01*
X186325095Y-46476322D02*
X186229857Y-46666798D01*
X186229857Y-46666798D02*
X186134619Y-46762036D01*
X186134619Y-46762036D02*
X185944143Y-46857275D01*
X185944143Y-46857275D02*
X185277476Y-46857275D01*
X187563190Y-47904894D02*
X187372714Y-47809656D01*
X187372714Y-47809656D02*
X187277476Y-47619179D01*
X187277476Y-47619179D02*
X187277476Y-45904894D01*
X189182238Y-46571560D02*
X189182238Y-47904894D01*
X188325095Y-46571560D02*
X188325095Y-47619179D01*
X188325095Y-47619179D02*
X188420333Y-47809656D01*
X188420333Y-47809656D02*
X188610809Y-47904894D01*
X188610809Y-47904894D02*
X188896524Y-47904894D01*
X188896524Y-47904894D02*
X189087000Y-47809656D01*
X189087000Y-47809656D02*
X189182238Y-47714417D01*
X190896524Y-47809656D02*
X190706048Y-47904894D01*
X190706048Y-47904894D02*
X190325095Y-47904894D01*
X190325095Y-47904894D02*
X190134619Y-47809656D01*
X190134619Y-47809656D02*
X190039381Y-47619179D01*
X190039381Y-47619179D02*
X190039381Y-46857275D01*
X190039381Y-46857275D02*
X190134619Y-46666798D01*
X190134619Y-46666798D02*
X190325095Y-46571560D01*
X190325095Y-46571560D02*
X190706048Y-46571560D01*
X190706048Y-46571560D02*
X190896524Y-46666798D01*
X190896524Y-46666798D02*
X190991762Y-46857275D01*
X190991762Y-46857275D02*
X190991762Y-47047751D01*
X190991762Y-47047751D02*
X190039381Y-47238227D01*
D14*
X111940276Y-31220019D02*
X111940276Y-31934304D01*
X111940276Y-31934304D02*
X111892657Y-32077161D01*
X111892657Y-32077161D02*
X111797419Y-32172400D01*
X111797419Y-32172400D02*
X111654562Y-32220019D01*
X111654562Y-32220019D02*
X111559324Y-32220019D01*
X112321229Y-31220019D02*
X112940276Y-31220019D01*
X112940276Y-31220019D02*
X112606943Y-31600971D01*
X112606943Y-31600971D02*
X112749800Y-31600971D01*
X112749800Y-31600971D02*
X112845038Y-31648590D01*
X112845038Y-31648590D02*
X112892657Y-31696209D01*
X112892657Y-31696209D02*
X112940276Y-31791447D01*
X112940276Y-31791447D02*
X112940276Y-32029542D01*
X112940276Y-32029542D02*
X112892657Y-32124780D01*
X112892657Y-32124780D02*
X112845038Y-32172400D01*
X112845038Y-32172400D02*
X112749800Y-32220019D01*
X112749800Y-32220019D02*
X112464086Y-32220019D01*
X112464086Y-32220019D02*
X112368848Y-32172400D01*
X112368848Y-32172400D02*
X112321229Y-32124780D01*
X113559324Y-31220019D02*
X113654562Y-31220019D01*
X113654562Y-31220019D02*
X113749800Y-31267638D01*
X113749800Y-31267638D02*
X113797419Y-31315257D01*
X113797419Y-31315257D02*
X113845038Y-31410495D01*
X113845038Y-31410495D02*
X113892657Y-31600971D01*
X113892657Y-31600971D02*
X113892657Y-31839066D01*
X113892657Y-31839066D02*
X113845038Y-32029542D01*
X113845038Y-32029542D02*
X113797419Y-32124780D01*
X113797419Y-32124780D02*
X113749800Y-32172400D01*
X113749800Y-32172400D02*
X113654562Y-32220019D01*
X113654562Y-32220019D02*
X113559324Y-32220019D01*
X113559324Y-32220019D02*
X113464086Y-32172400D01*
X113464086Y-32172400D02*
X113416467Y-32124780D01*
X113416467Y-32124780D02*
X113368848Y-32029542D01*
X113368848Y-32029542D02*
X113321229Y-31839066D01*
X113321229Y-31839066D02*
X113321229Y-31600971D01*
X113321229Y-31600971D02*
X113368848Y-31410495D01*
X113368848Y-31410495D02*
X113416467Y-31315257D01*
X113416467Y-31315257D02*
X113464086Y-31267638D01*
X113464086Y-31267638D02*
X113559324Y-31220019D01*
D10*
X59103571Y-23428490D02*
X59079762Y-23452300D01*
X59079762Y-23452300D02*
X59008333Y-23476109D01*
X59008333Y-23476109D02*
X58960714Y-23476109D01*
X58960714Y-23476109D02*
X58889286Y-23452300D01*
X58889286Y-23452300D02*
X58841667Y-23404680D01*
X58841667Y-23404680D02*
X58817857Y-23357061D01*
X58817857Y-23357061D02*
X58794048Y-23261823D01*
X58794048Y-23261823D02*
X58794048Y-23190395D01*
X58794048Y-23190395D02*
X58817857Y-23095157D01*
X58817857Y-23095157D02*
X58841667Y-23047538D01*
X58841667Y-23047538D02*
X58889286Y-22999919D01*
X58889286Y-22999919D02*
X58960714Y-22976109D01*
X58960714Y-22976109D02*
X59008333Y-22976109D01*
X59008333Y-22976109D02*
X59079762Y-22999919D01*
X59079762Y-22999919D02*
X59103571Y-23023728D01*
X59555952Y-22976109D02*
X59317857Y-22976109D01*
X59317857Y-22976109D02*
X59294048Y-23214204D01*
X59294048Y-23214204D02*
X59317857Y-23190395D01*
X59317857Y-23190395D02*
X59365476Y-23166585D01*
X59365476Y-23166585D02*
X59484524Y-23166585D01*
X59484524Y-23166585D02*
X59532143Y-23190395D01*
X59532143Y-23190395D02*
X59555952Y-23214204D01*
X59555952Y-23214204D02*
X59579762Y-23261823D01*
X59579762Y-23261823D02*
X59579762Y-23380871D01*
X59579762Y-23380871D02*
X59555952Y-23428490D01*
X59555952Y-23428490D02*
X59532143Y-23452300D01*
X59532143Y-23452300D02*
X59484524Y-23476109D01*
X59484524Y-23476109D02*
X59365476Y-23476109D01*
X59365476Y-23476109D02*
X59317857Y-23452300D01*
X59317857Y-23452300D02*
X59294048Y-23428490D01*
X60008333Y-22976109D02*
X59913095Y-22976109D01*
X59913095Y-22976109D02*
X59865476Y-22999919D01*
X59865476Y-22999919D02*
X59841666Y-23023728D01*
X59841666Y-23023728D02*
X59794047Y-23095157D01*
X59794047Y-23095157D02*
X59770238Y-23190395D01*
X59770238Y-23190395D02*
X59770238Y-23380871D01*
X59770238Y-23380871D02*
X59794047Y-23428490D01*
X59794047Y-23428490D02*
X59817857Y-23452300D01*
X59817857Y-23452300D02*
X59865476Y-23476109D01*
X59865476Y-23476109D02*
X59960714Y-23476109D01*
X59960714Y-23476109D02*
X60008333Y-23452300D01*
X60008333Y-23452300D02*
X60032142Y-23428490D01*
X60032142Y-23428490D02*
X60055952Y-23380871D01*
X60055952Y-23380871D02*
X60055952Y-23261823D01*
X60055952Y-23261823D02*
X60032142Y-23214204D01*
X60032142Y-23214204D02*
X60008333Y-23190395D01*
X60008333Y-23190395D02*
X59960714Y-23166585D01*
X59960714Y-23166585D02*
X59865476Y-23166585D01*
X59865476Y-23166585D02*
X59817857Y-23190395D01*
X59817857Y-23190395D02*
X59794047Y-23214204D01*
X59794047Y-23214204D02*
X59770238Y-23261823D01*
X117527916Y-17596490D02*
X117504107Y-17620300D01*
X117504107Y-17620300D02*
X117432678Y-17644109D01*
X117432678Y-17644109D02*
X117385059Y-17644109D01*
X117385059Y-17644109D02*
X117313631Y-17620300D01*
X117313631Y-17620300D02*
X117266012Y-17572680D01*
X117266012Y-17572680D02*
X117242202Y-17525061D01*
X117242202Y-17525061D02*
X117218393Y-17429823D01*
X117218393Y-17429823D02*
X117218393Y-17358395D01*
X117218393Y-17358395D02*
X117242202Y-17263157D01*
X117242202Y-17263157D02*
X117266012Y-17215538D01*
X117266012Y-17215538D02*
X117313631Y-17167919D01*
X117313631Y-17167919D02*
X117385059Y-17144109D01*
X117385059Y-17144109D02*
X117432678Y-17144109D01*
X117432678Y-17144109D02*
X117504107Y-17167919D01*
X117504107Y-17167919D02*
X117527916Y-17191728D01*
X117718393Y-17191728D02*
X117742202Y-17167919D01*
X117742202Y-17167919D02*
X117789821Y-17144109D01*
X117789821Y-17144109D02*
X117908869Y-17144109D01*
X117908869Y-17144109D02*
X117956488Y-17167919D01*
X117956488Y-17167919D02*
X117980297Y-17191728D01*
X117980297Y-17191728D02*
X118004107Y-17239347D01*
X118004107Y-17239347D02*
X118004107Y-17286966D01*
X118004107Y-17286966D02*
X117980297Y-17358395D01*
X117980297Y-17358395D02*
X117694583Y-17644109D01*
X117694583Y-17644109D02*
X118004107Y-17644109D01*
X91687838Y324690D02*
X91687838Y-32452D01*
X91687838Y-32452D02*
X91664029Y-103880D01*
X91664029Y-103880D02*
X91616410Y-151500D01*
X91616410Y-151500D02*
X91544981Y-175309D01*
X91544981Y-175309D02*
X91497362Y-175309D01*
X91902124Y277071D02*
X91925933Y300880D01*
X91925933Y300880D02*
X91973552Y324690D01*
X91973552Y324690D02*
X92092600Y324690D01*
X92092600Y324690D02*
X92140219Y300880D01*
X92140219Y300880D02*
X92164028Y277071D01*
X92164028Y277071D02*
X92187838Y229452D01*
X92187838Y229452D02*
X92187838Y181833D01*
X92187838Y181833D02*
X92164028Y110404D01*
X92164028Y110404D02*
X91878314Y-175309D01*
X91878314Y-175309D02*
X92187838Y-175309D01*
X92354504Y324690D02*
X92687837Y324690D01*
X92687837Y324690D02*
X92473552Y-175309D01*
D14*
X3238095Y-704819D02*
X3238095Y295180D01*
X3238095Y-181009D02*
X3809523Y-181009D01*
X3809523Y-704819D02*
X3809523Y295180D01*
X4809523Y-704819D02*
X4238095Y-704819D01*
X4523809Y-704819D02*
X4523809Y295180D01*
X4523809Y295180D02*
X4428571Y152323D01*
X4428571Y152323D02*
X4333333Y57085D01*
X4333333Y57085D02*
X4238095Y9466D01*
D10*
X93807690Y-27388428D02*
X93831500Y-27412237D01*
X93831500Y-27412237D02*
X93855309Y-27483666D01*
X93855309Y-27483666D02*
X93855309Y-27531285D01*
X93855309Y-27531285D02*
X93831500Y-27602713D01*
X93831500Y-27602713D02*
X93783880Y-27650332D01*
X93783880Y-27650332D02*
X93736261Y-27674142D01*
X93736261Y-27674142D02*
X93641023Y-27697951D01*
X93641023Y-27697951D02*
X93569595Y-27697951D01*
X93569595Y-27697951D02*
X93474357Y-27674142D01*
X93474357Y-27674142D02*
X93426738Y-27650332D01*
X93426738Y-27650332D02*
X93379119Y-27602713D01*
X93379119Y-27602713D02*
X93355309Y-27531285D01*
X93355309Y-27531285D02*
X93355309Y-27483666D01*
X93355309Y-27483666D02*
X93379119Y-27412237D01*
X93379119Y-27412237D02*
X93402928Y-27388428D01*
X93355309Y-26936047D02*
X93355309Y-27174142D01*
X93355309Y-27174142D02*
X93593404Y-27197951D01*
X93593404Y-27197951D02*
X93569595Y-27174142D01*
X93569595Y-27174142D02*
X93545785Y-27126523D01*
X93545785Y-27126523D02*
X93545785Y-27007475D01*
X93545785Y-27007475D02*
X93569595Y-26959856D01*
X93569595Y-26959856D02*
X93593404Y-26936047D01*
X93593404Y-26936047D02*
X93641023Y-26912237D01*
X93641023Y-26912237D02*
X93760071Y-26912237D01*
X93760071Y-26912237D02*
X93807690Y-26936047D01*
X93807690Y-26936047D02*
X93831500Y-26959856D01*
X93831500Y-26959856D02*
X93855309Y-27007475D01*
X93855309Y-27007475D02*
X93855309Y-27126523D01*
X93855309Y-27126523D02*
X93831500Y-27174142D01*
X93831500Y-27174142D02*
X93807690Y-27197951D01*
X93569595Y-26626523D02*
X93545785Y-26674142D01*
X93545785Y-26674142D02*
X93521976Y-26697952D01*
X93521976Y-26697952D02*
X93474357Y-26721761D01*
X93474357Y-26721761D02*
X93450547Y-26721761D01*
X93450547Y-26721761D02*
X93402928Y-26697952D01*
X93402928Y-26697952D02*
X93379119Y-26674142D01*
X93379119Y-26674142D02*
X93355309Y-26626523D01*
X93355309Y-26626523D02*
X93355309Y-26531285D01*
X93355309Y-26531285D02*
X93379119Y-26483666D01*
X93379119Y-26483666D02*
X93402928Y-26459857D01*
X93402928Y-26459857D02*
X93450547Y-26436047D01*
X93450547Y-26436047D02*
X93474357Y-26436047D01*
X93474357Y-26436047D02*
X93521976Y-26459857D01*
X93521976Y-26459857D02*
X93545785Y-26483666D01*
X93545785Y-26483666D02*
X93569595Y-26531285D01*
X93569595Y-26531285D02*
X93569595Y-26626523D01*
X93569595Y-26626523D02*
X93593404Y-26674142D01*
X93593404Y-26674142D02*
X93617214Y-26697952D01*
X93617214Y-26697952D02*
X93664833Y-26721761D01*
X93664833Y-26721761D02*
X93760071Y-26721761D01*
X93760071Y-26721761D02*
X93807690Y-26697952D01*
X93807690Y-26697952D02*
X93831500Y-26674142D01*
X93831500Y-26674142D02*
X93855309Y-26626523D01*
X93855309Y-26626523D02*
X93855309Y-26531285D01*
X93855309Y-26531285D02*
X93831500Y-26483666D01*
X93831500Y-26483666D02*
X93807690Y-26459857D01*
X93807690Y-26459857D02*
X93760071Y-26436047D01*
X93760071Y-26436047D02*
X93664833Y-26436047D01*
X93664833Y-26436047D02*
X93617214Y-26459857D01*
X93617214Y-26459857D02*
X93593404Y-26483666D01*
X93593404Y-26483666D02*
X93569595Y-26531285D01*
D14*
X19341666Y-24499819D02*
X19341666Y-25214104D01*
X19341666Y-25214104D02*
X19294047Y-25356961D01*
X19294047Y-25356961D02*
X19198809Y-25452200D01*
X19198809Y-25452200D02*
X19055952Y-25499819D01*
X19055952Y-25499819D02*
X18960714Y-25499819D01*
X19770238Y-24595057D02*
X19817857Y-24547438D01*
X19817857Y-24547438D02*
X19913095Y-24499819D01*
X19913095Y-24499819D02*
X20151190Y-24499819D01*
X20151190Y-24499819D02*
X20246428Y-24547438D01*
X20246428Y-24547438D02*
X20294047Y-24595057D01*
X20294047Y-24595057D02*
X20341666Y-24690295D01*
X20341666Y-24690295D02*
X20341666Y-24785533D01*
X20341666Y-24785533D02*
X20294047Y-24928390D01*
X20294047Y-24928390D02*
X19722619Y-25499819D01*
X19722619Y-25499819D02*
X20341666Y-25499819D01*
D10*
X54770952Y-27036109D02*
X54770952Y-27440871D01*
X54770952Y-27440871D02*
X54794762Y-27488490D01*
X54794762Y-27488490D02*
X54818571Y-27512300D01*
X54818571Y-27512300D02*
X54866190Y-27536109D01*
X54866190Y-27536109D02*
X54961428Y-27536109D01*
X54961428Y-27536109D02*
X55009047Y-27512300D01*
X55009047Y-27512300D02*
X55032857Y-27488490D01*
X55032857Y-27488490D02*
X55056666Y-27440871D01*
X55056666Y-27440871D02*
X55056666Y-27036109D01*
X55556667Y-27536109D02*
X55270953Y-27536109D01*
X55413810Y-27536109D02*
X55413810Y-27036109D01*
X55413810Y-27036109D02*
X55366191Y-27107538D01*
X55366191Y-27107538D02*
X55318572Y-27155157D01*
X55318572Y-27155157D02*
X55270953Y-27178966D01*
X55723333Y-27036109D02*
X56056666Y-27036109D01*
X56056666Y-27036109D02*
X55842381Y-27536109D01*
X113622971Y-2667690D02*
X113599162Y-2691500D01*
X113599162Y-2691500D02*
X113527733Y-2715309D01*
X113527733Y-2715309D02*
X113480114Y-2715309D01*
X113480114Y-2715309D02*
X113408686Y-2691500D01*
X113408686Y-2691500D02*
X113361067Y-2643880D01*
X113361067Y-2643880D02*
X113337257Y-2596261D01*
X113337257Y-2596261D02*
X113313448Y-2501023D01*
X113313448Y-2501023D02*
X113313448Y-2429595D01*
X113313448Y-2429595D02*
X113337257Y-2334357D01*
X113337257Y-2334357D02*
X113361067Y-2286738D01*
X113361067Y-2286738D02*
X113408686Y-2239119D01*
X113408686Y-2239119D02*
X113480114Y-2215309D01*
X113480114Y-2215309D02*
X113527733Y-2215309D01*
X113527733Y-2215309D02*
X113599162Y-2239119D01*
X113599162Y-2239119D02*
X113622971Y-2262928D01*
X114099162Y-2715309D02*
X113813448Y-2715309D01*
X113956305Y-2715309D02*
X113956305Y-2215309D01*
X113956305Y-2215309D02*
X113908686Y-2286738D01*
X113908686Y-2286738D02*
X113861067Y-2334357D01*
X113861067Y-2334357D02*
X113813448Y-2358166D01*
X114265828Y-2215309D02*
X114575352Y-2215309D01*
X114575352Y-2215309D02*
X114408685Y-2405785D01*
X114408685Y-2405785D02*
X114480114Y-2405785D01*
X114480114Y-2405785D02*
X114527733Y-2429595D01*
X114527733Y-2429595D02*
X114551542Y-2453404D01*
X114551542Y-2453404D02*
X114575352Y-2501023D01*
X114575352Y-2501023D02*
X114575352Y-2620071D01*
X114575352Y-2620071D02*
X114551542Y-2667690D01*
X114551542Y-2667690D02*
X114527733Y-2691500D01*
X114527733Y-2691500D02*
X114480114Y-2715309D01*
X114480114Y-2715309D02*
X114337257Y-2715309D01*
X114337257Y-2715309D02*
X114289638Y-2691500D01*
X114289638Y-2691500D02*
X114265828Y-2667690D01*
D14*
X179124076Y-22543419D02*
X179124076Y-23257704D01*
X179124076Y-23257704D02*
X179076457Y-23400561D01*
X179076457Y-23400561D02*
X178981219Y-23495800D01*
X178981219Y-23495800D02*
X178838362Y-23543419D01*
X178838362Y-23543419D02*
X178743124Y-23543419D01*
X179552648Y-22638657D02*
X179600267Y-22591038D01*
X179600267Y-22591038D02*
X179695505Y-22543419D01*
X179695505Y-22543419D02*
X179933600Y-22543419D01*
X179933600Y-22543419D02*
X180028838Y-22591038D01*
X180028838Y-22591038D02*
X180076457Y-22638657D01*
X180076457Y-22638657D02*
X180124076Y-22733895D01*
X180124076Y-22733895D02*
X180124076Y-22829133D01*
X180124076Y-22829133D02*
X180076457Y-22971990D01*
X180076457Y-22971990D02*
X179505029Y-23543419D01*
X179505029Y-23543419D02*
X180124076Y-23543419D01*
X180457410Y-22543419D02*
X181076457Y-22543419D01*
X181076457Y-22543419D02*
X180743124Y-22924371D01*
X180743124Y-22924371D02*
X180885981Y-22924371D01*
X180885981Y-22924371D02*
X180981219Y-22971990D01*
X180981219Y-22971990D02*
X181028838Y-23019609D01*
X181028838Y-23019609D02*
X181076457Y-23114847D01*
X181076457Y-23114847D02*
X181076457Y-23352942D01*
X181076457Y-23352942D02*
X181028838Y-23448180D01*
X181028838Y-23448180D02*
X180981219Y-23495800D01*
X180981219Y-23495800D02*
X180885981Y-23543419D01*
X180885981Y-23543419D02*
X180600267Y-23543419D01*
X180600267Y-23543419D02*
X180505029Y-23495800D01*
X180505029Y-23495800D02*
X180457410Y-23448180D01*
X179022476Y-54217219D02*
X179022476Y-54931504D01*
X179022476Y-54931504D02*
X178974857Y-55074361D01*
X178974857Y-55074361D02*
X178879619Y-55169600D01*
X178879619Y-55169600D02*
X178736762Y-55217219D01*
X178736762Y-55217219D02*
X178641524Y-55217219D01*
X179451048Y-54312457D02*
X179498667Y-54264838D01*
X179498667Y-54264838D02*
X179593905Y-54217219D01*
X179593905Y-54217219D02*
X179832000Y-54217219D01*
X179832000Y-54217219D02*
X179927238Y-54264838D01*
X179927238Y-54264838D02*
X179974857Y-54312457D01*
X179974857Y-54312457D02*
X180022476Y-54407695D01*
X180022476Y-54407695D02*
X180022476Y-54502933D01*
X180022476Y-54502933D02*
X179974857Y-54645790D01*
X179974857Y-54645790D02*
X179403429Y-55217219D01*
X179403429Y-55217219D02*
X180022476Y-55217219D01*
X180879619Y-54217219D02*
X180689143Y-54217219D01*
X180689143Y-54217219D02*
X180593905Y-54264838D01*
X180593905Y-54264838D02*
X180546286Y-54312457D01*
X180546286Y-54312457D02*
X180451048Y-54455314D01*
X180451048Y-54455314D02*
X180403429Y-54645790D01*
X180403429Y-54645790D02*
X180403429Y-55026742D01*
X180403429Y-55026742D02*
X180451048Y-55121980D01*
X180451048Y-55121980D02*
X180498667Y-55169600D01*
X180498667Y-55169600D02*
X180593905Y-55217219D01*
X180593905Y-55217219D02*
X180784381Y-55217219D01*
X180784381Y-55217219D02*
X180879619Y-55169600D01*
X180879619Y-55169600D02*
X180927238Y-55121980D01*
X180927238Y-55121980D02*
X180974857Y-55026742D01*
X180974857Y-55026742D02*
X180974857Y-54788647D01*
X180974857Y-54788647D02*
X180927238Y-54693409D01*
X180927238Y-54693409D02*
X180879619Y-54645790D01*
X180879619Y-54645790D02*
X180784381Y-54598171D01*
X180784381Y-54598171D02*
X180593905Y-54598171D01*
X180593905Y-54598171D02*
X180498667Y-54645790D01*
X180498667Y-54645790D02*
X180451048Y-54693409D01*
X180451048Y-54693409D02*
X180403429Y-54788647D01*
D10*
X15147171Y-39672309D02*
X14980505Y-39434214D01*
X14861457Y-39672309D02*
X14861457Y-39172309D01*
X14861457Y-39172309D02*
X15051933Y-39172309D01*
X15051933Y-39172309D02*
X15099552Y-39196119D01*
X15099552Y-39196119D02*
X15123362Y-39219928D01*
X15123362Y-39219928D02*
X15147171Y-39267547D01*
X15147171Y-39267547D02*
X15147171Y-39338976D01*
X15147171Y-39338976D02*
X15123362Y-39386595D01*
X15123362Y-39386595D02*
X15099552Y-39410404D01*
X15099552Y-39410404D02*
X15051933Y-39434214D01*
X15051933Y-39434214D02*
X14861457Y-39434214D01*
X15575743Y-39338976D02*
X15575743Y-39672309D01*
X15456695Y-39148500D02*
X15337648Y-39505642D01*
X15337648Y-39505642D02*
X15647171Y-39505642D01*
X15861457Y-39672309D02*
X15956695Y-39672309D01*
X15956695Y-39672309D02*
X16004314Y-39648500D01*
X16004314Y-39648500D02*
X16028123Y-39624690D01*
X16028123Y-39624690D02*
X16075742Y-39553261D01*
X16075742Y-39553261D02*
X16099552Y-39458023D01*
X16099552Y-39458023D02*
X16099552Y-39267547D01*
X16099552Y-39267547D02*
X16075742Y-39219928D01*
X16075742Y-39219928D02*
X16051933Y-39196119D01*
X16051933Y-39196119D02*
X16004314Y-39172309D01*
X16004314Y-39172309D02*
X15909076Y-39172309D01*
X15909076Y-39172309D02*
X15861457Y-39196119D01*
X15861457Y-39196119D02*
X15837647Y-39219928D01*
X15837647Y-39219928D02*
X15813838Y-39267547D01*
X15813838Y-39267547D02*
X15813838Y-39386595D01*
X15813838Y-39386595D02*
X15837647Y-39434214D01*
X15837647Y-39434214D02*
X15861457Y-39458023D01*
X15861457Y-39458023D02*
X15909076Y-39481833D01*
X15909076Y-39481833D02*
X16004314Y-39481833D01*
X16004314Y-39481833D02*
X16051933Y-39458023D01*
X16051933Y-39458023D02*
X16075742Y-39434214D01*
X16075742Y-39434214D02*
X16099552Y-39386595D01*
D14*
X113484066Y14108780D02*
X113484066Y13394495D01*
X113484066Y13394495D02*
X113436447Y13251638D01*
X113436447Y13251638D02*
X113341209Y13156400D01*
X113341209Y13156400D02*
X113198352Y13108780D01*
X113198352Y13108780D02*
X113103114Y13108780D01*
X114436447Y14108780D02*
X113960257Y14108780D01*
X113960257Y14108780D02*
X113912638Y13632590D01*
X113912638Y13632590D02*
X113960257Y13680209D01*
X113960257Y13680209D02*
X114055495Y13727828D01*
X114055495Y13727828D02*
X114293590Y13727828D01*
X114293590Y13727828D02*
X114388828Y13680209D01*
X114388828Y13680209D02*
X114436447Y13632590D01*
X114436447Y13632590D02*
X114484066Y13537352D01*
X114484066Y13537352D02*
X114484066Y13299257D01*
X114484066Y13299257D02*
X114436447Y13204019D01*
X114436447Y13204019D02*
X114388828Y13156400D01*
X114388828Y13156400D02*
X114293590Y13108780D01*
X114293590Y13108780D02*
X114055495Y13108780D01*
X114055495Y13108780D02*
X113960257Y13156400D01*
X113960257Y13156400D02*
X113912638Y13204019D01*
D10*
X96388571Y-14836109D02*
X96221905Y-14598014D01*
X96102857Y-14836109D02*
X96102857Y-14336109D01*
X96102857Y-14336109D02*
X96293333Y-14336109D01*
X96293333Y-14336109D02*
X96340952Y-14359919D01*
X96340952Y-14359919D02*
X96364762Y-14383728D01*
X96364762Y-14383728D02*
X96388571Y-14431347D01*
X96388571Y-14431347D02*
X96388571Y-14502776D01*
X96388571Y-14502776D02*
X96364762Y-14550395D01*
X96364762Y-14550395D02*
X96340952Y-14574204D01*
X96340952Y-14574204D02*
X96293333Y-14598014D01*
X96293333Y-14598014D02*
X96102857Y-14598014D01*
X96817143Y-14502776D02*
X96817143Y-14836109D01*
X96698095Y-14312300D02*
X96579048Y-14669442D01*
X96579048Y-14669442D02*
X96888571Y-14669442D01*
X97031428Y-14336109D02*
X97364761Y-14336109D01*
X97364761Y-14336109D02*
X97150476Y-14836109D01*
X114877066Y-15774090D02*
X114853257Y-15797900D01*
X114853257Y-15797900D02*
X114781828Y-15821709D01*
X114781828Y-15821709D02*
X114734209Y-15821709D01*
X114734209Y-15821709D02*
X114662781Y-15797900D01*
X114662781Y-15797900D02*
X114615162Y-15750280D01*
X114615162Y-15750280D02*
X114591352Y-15702661D01*
X114591352Y-15702661D02*
X114567543Y-15607423D01*
X114567543Y-15607423D02*
X114567543Y-15535995D01*
X114567543Y-15535995D02*
X114591352Y-15440757D01*
X114591352Y-15440757D02*
X114615162Y-15393138D01*
X114615162Y-15393138D02*
X114662781Y-15345519D01*
X114662781Y-15345519D02*
X114734209Y-15321709D01*
X114734209Y-15321709D02*
X114781828Y-15321709D01*
X114781828Y-15321709D02*
X114853257Y-15345519D01*
X114853257Y-15345519D02*
X114877066Y-15369328D01*
X115115162Y-15821709D02*
X115210400Y-15821709D01*
X115210400Y-15821709D02*
X115258019Y-15797900D01*
X115258019Y-15797900D02*
X115281828Y-15774090D01*
X115281828Y-15774090D02*
X115329447Y-15702661D01*
X115329447Y-15702661D02*
X115353257Y-15607423D01*
X115353257Y-15607423D02*
X115353257Y-15416947D01*
X115353257Y-15416947D02*
X115329447Y-15369328D01*
X115329447Y-15369328D02*
X115305638Y-15345519D01*
X115305638Y-15345519D02*
X115258019Y-15321709D01*
X115258019Y-15321709D02*
X115162781Y-15321709D01*
X115162781Y-15321709D02*
X115115162Y-15345519D01*
X115115162Y-15345519D02*
X115091352Y-15369328D01*
X115091352Y-15369328D02*
X115067543Y-15416947D01*
X115067543Y-15416947D02*
X115067543Y-15535995D01*
X115067543Y-15535995D02*
X115091352Y-15583614D01*
X115091352Y-15583614D02*
X115115162Y-15607423D01*
X115115162Y-15607423D02*
X115162781Y-15631233D01*
X115162781Y-15631233D02*
X115258019Y-15631233D01*
X115258019Y-15631233D02*
X115305638Y-15607423D01*
X115305638Y-15607423D02*
X115329447Y-15583614D01*
X115329447Y-15583614D02*
X115353257Y-15535995D01*
D14*
X62941666Y-1129819D02*
X62941666Y-1844104D01*
X62941666Y-1844104D02*
X62894047Y-1986961D01*
X62894047Y-1986961D02*
X62798809Y-2082200D01*
X62798809Y-2082200D02*
X62655952Y-2129819D01*
X62655952Y-2129819D02*
X62560714Y-2129819D01*
X63322619Y-1129819D02*
X63941666Y-1129819D01*
X63941666Y-1129819D02*
X63608333Y-1510771D01*
X63608333Y-1510771D02*
X63751190Y-1510771D01*
X63751190Y-1510771D02*
X63846428Y-1558390D01*
X63846428Y-1558390D02*
X63894047Y-1606009D01*
X63894047Y-1606009D02*
X63941666Y-1701247D01*
X63941666Y-1701247D02*
X63941666Y-1939342D01*
X63941666Y-1939342D02*
X63894047Y-2034580D01*
X63894047Y-2034580D02*
X63846428Y-2082200D01*
X63846428Y-2082200D02*
X63751190Y-2129819D01*
X63751190Y-2129819D02*
X63465476Y-2129819D01*
X63465476Y-2129819D02*
X63370238Y-2082200D01*
X63370238Y-2082200D02*
X63322619Y-2034580D01*
X165300066Y11924380D02*
X165300066Y11210095D01*
X165300066Y11210095D02*
X165252447Y11067238D01*
X165252447Y11067238D02*
X165157209Y10972000D01*
X165157209Y10972000D02*
X165014352Y10924380D01*
X165014352Y10924380D02*
X164919114Y10924380D01*
X166300066Y10924380D02*
X165728638Y10924380D01*
X166014352Y10924380D02*
X166014352Y11924380D01*
X166014352Y11924380D02*
X165919114Y11781523D01*
X165919114Y11781523D02*
X165823876Y11686285D01*
X165823876Y11686285D02*
X165728638Y11638666D01*
D10*
X112387866Y-10132109D02*
X112149771Y-10132109D01*
X112149771Y-10132109D02*
X112149771Y-9632109D01*
X112530724Y-9679728D02*
X112554533Y-9655919D01*
X112554533Y-9655919D02*
X112602152Y-9632109D01*
X112602152Y-9632109D02*
X112721200Y-9632109D01*
X112721200Y-9632109D02*
X112768819Y-9655919D01*
X112768819Y-9655919D02*
X112792628Y-9679728D01*
X112792628Y-9679728D02*
X112816438Y-9727347D01*
X112816438Y-9727347D02*
X112816438Y-9774966D01*
X112816438Y-9774966D02*
X112792628Y-9846395D01*
X112792628Y-9846395D02*
X112506914Y-10132109D01*
X112506914Y-10132109D02*
X112816438Y-10132109D01*
X37528571Y-23878490D02*
X37504762Y-23902300D01*
X37504762Y-23902300D02*
X37433333Y-23926109D01*
X37433333Y-23926109D02*
X37385714Y-23926109D01*
X37385714Y-23926109D02*
X37314286Y-23902300D01*
X37314286Y-23902300D02*
X37266667Y-23854680D01*
X37266667Y-23854680D02*
X37242857Y-23807061D01*
X37242857Y-23807061D02*
X37219048Y-23711823D01*
X37219048Y-23711823D02*
X37219048Y-23640395D01*
X37219048Y-23640395D02*
X37242857Y-23545157D01*
X37242857Y-23545157D02*
X37266667Y-23497538D01*
X37266667Y-23497538D02*
X37314286Y-23449919D01*
X37314286Y-23449919D02*
X37385714Y-23426109D01*
X37385714Y-23426109D02*
X37433333Y-23426109D01*
X37433333Y-23426109D02*
X37504762Y-23449919D01*
X37504762Y-23449919D02*
X37528571Y-23473728D01*
X37980952Y-23426109D02*
X37742857Y-23426109D01*
X37742857Y-23426109D02*
X37719048Y-23664204D01*
X37719048Y-23664204D02*
X37742857Y-23640395D01*
X37742857Y-23640395D02*
X37790476Y-23616585D01*
X37790476Y-23616585D02*
X37909524Y-23616585D01*
X37909524Y-23616585D02*
X37957143Y-23640395D01*
X37957143Y-23640395D02*
X37980952Y-23664204D01*
X37980952Y-23664204D02*
X38004762Y-23711823D01*
X38004762Y-23711823D02*
X38004762Y-23830871D01*
X38004762Y-23830871D02*
X37980952Y-23878490D01*
X37980952Y-23878490D02*
X37957143Y-23902300D01*
X37957143Y-23902300D02*
X37909524Y-23926109D01*
X37909524Y-23926109D02*
X37790476Y-23926109D01*
X37790476Y-23926109D02*
X37742857Y-23902300D01*
X37742857Y-23902300D02*
X37719048Y-23878490D01*
X38457142Y-23426109D02*
X38219047Y-23426109D01*
X38219047Y-23426109D02*
X38195238Y-23664204D01*
X38195238Y-23664204D02*
X38219047Y-23640395D01*
X38219047Y-23640395D02*
X38266666Y-23616585D01*
X38266666Y-23616585D02*
X38385714Y-23616585D01*
X38385714Y-23616585D02*
X38433333Y-23640395D01*
X38433333Y-23640395D02*
X38457142Y-23664204D01*
X38457142Y-23664204D02*
X38480952Y-23711823D01*
X38480952Y-23711823D02*
X38480952Y-23830871D01*
X38480952Y-23830871D02*
X38457142Y-23878490D01*
X38457142Y-23878490D02*
X38433333Y-23902300D01*
X38433333Y-23902300D02*
X38385714Y-23926109D01*
X38385714Y-23926109D02*
X38266666Y-23926109D01*
X38266666Y-23926109D02*
X38219047Y-23902300D01*
X38219047Y-23902300D02*
X38195238Y-23878490D01*
X84260952Y-27596109D02*
X84260952Y-28000871D01*
X84260952Y-28000871D02*
X84284762Y-28048490D01*
X84284762Y-28048490D02*
X84308571Y-28072300D01*
X84308571Y-28072300D02*
X84356190Y-28096109D01*
X84356190Y-28096109D02*
X84451428Y-28096109D01*
X84451428Y-28096109D02*
X84499047Y-28072300D01*
X84499047Y-28072300D02*
X84522857Y-28048490D01*
X84522857Y-28048490D02*
X84546666Y-28000871D01*
X84546666Y-28000871D02*
X84546666Y-27596109D01*
X85046667Y-28096109D02*
X84760953Y-28096109D01*
X84903810Y-28096109D02*
X84903810Y-27596109D01*
X84903810Y-27596109D02*
X84856191Y-27667538D01*
X84856191Y-27667538D02*
X84808572Y-27715157D01*
X84808572Y-27715157D02*
X84760953Y-27738966D01*
X85499047Y-27596109D02*
X85260952Y-27596109D01*
X85260952Y-27596109D02*
X85237143Y-27834204D01*
X85237143Y-27834204D02*
X85260952Y-27810395D01*
X85260952Y-27810395D02*
X85308571Y-27786585D01*
X85308571Y-27786585D02*
X85427619Y-27786585D01*
X85427619Y-27786585D02*
X85475238Y-27810395D01*
X85475238Y-27810395D02*
X85499047Y-27834204D01*
X85499047Y-27834204D02*
X85522857Y-27881823D01*
X85522857Y-27881823D02*
X85522857Y-28000871D01*
X85522857Y-28000871D02*
X85499047Y-28048490D01*
X85499047Y-28048490D02*
X85475238Y-28072300D01*
X85475238Y-28072300D02*
X85427619Y-28096109D01*
X85427619Y-28096109D02*
X85308571Y-28096109D01*
X85308571Y-28096109D02*
X85260952Y-28072300D01*
X85260952Y-28072300D02*
X85237143Y-28048490D01*
X109729638Y629490D02*
X109729638Y272347D01*
X109729638Y272347D02*
X109705829Y200919D01*
X109705829Y200919D02*
X109658210Y153300D01*
X109658210Y153300D02*
X109586781Y129490D01*
X109586781Y129490D02*
X109539162Y129490D01*
X109943924Y581871D02*
X109967733Y605680D01*
X109967733Y605680D02*
X110015352Y629490D01*
X110015352Y629490D02*
X110134400Y629490D01*
X110134400Y629490D02*
X110182019Y605680D01*
X110182019Y605680D02*
X110205828Y581871D01*
X110205828Y581871D02*
X110229638Y534252D01*
X110229638Y534252D02*
X110229638Y486633D01*
X110229638Y486633D02*
X110205828Y415204D01*
X110205828Y415204D02*
X109920114Y129490D01*
X109920114Y129490D02*
X110229638Y129490D01*
X110515352Y415204D02*
X110467733Y439014D01*
X110467733Y439014D02*
X110443923Y462823D01*
X110443923Y462823D02*
X110420114Y510442D01*
X110420114Y510442D02*
X110420114Y534252D01*
X110420114Y534252D02*
X110443923Y581871D01*
X110443923Y581871D02*
X110467733Y605680D01*
X110467733Y605680D02*
X110515352Y629490D01*
X110515352Y629490D02*
X110610590Y629490D01*
X110610590Y629490D02*
X110658209Y605680D01*
X110658209Y605680D02*
X110682018Y581871D01*
X110682018Y581871D02*
X110705828Y534252D01*
X110705828Y534252D02*
X110705828Y510442D01*
X110705828Y510442D02*
X110682018Y462823D01*
X110682018Y462823D02*
X110658209Y439014D01*
X110658209Y439014D02*
X110610590Y415204D01*
X110610590Y415204D02*
X110515352Y415204D01*
X110515352Y415204D02*
X110467733Y391395D01*
X110467733Y391395D02*
X110443923Y367585D01*
X110443923Y367585D02*
X110420114Y319966D01*
X110420114Y319966D02*
X110420114Y224728D01*
X110420114Y224728D02*
X110443923Y177109D01*
X110443923Y177109D02*
X110467733Y153300D01*
X110467733Y153300D02*
X110515352Y129490D01*
X110515352Y129490D02*
X110610590Y129490D01*
X110610590Y129490D02*
X110658209Y153300D01*
X110658209Y153300D02*
X110682018Y177109D01*
X110682018Y177109D02*
X110705828Y224728D01*
X110705828Y224728D02*
X110705828Y319966D01*
X110705828Y319966D02*
X110682018Y367585D01*
X110682018Y367585D02*
X110658209Y391395D01*
X110658209Y391395D02*
X110610590Y415204D01*
X112184666Y-15774090D02*
X112160857Y-15797900D01*
X112160857Y-15797900D02*
X112089428Y-15821709D01*
X112089428Y-15821709D02*
X112041809Y-15821709D01*
X112041809Y-15821709D02*
X111970381Y-15797900D01*
X111970381Y-15797900D02*
X111922762Y-15750280D01*
X111922762Y-15750280D02*
X111898952Y-15702661D01*
X111898952Y-15702661D02*
X111875143Y-15607423D01*
X111875143Y-15607423D02*
X111875143Y-15535995D01*
X111875143Y-15535995D02*
X111898952Y-15440757D01*
X111898952Y-15440757D02*
X111922762Y-15393138D01*
X111922762Y-15393138D02*
X111970381Y-15345519D01*
X111970381Y-15345519D02*
X112041809Y-15321709D01*
X112041809Y-15321709D02*
X112089428Y-15321709D01*
X112089428Y-15321709D02*
X112160857Y-15345519D01*
X112160857Y-15345519D02*
X112184666Y-15369328D01*
X112470381Y-15535995D02*
X112422762Y-15512185D01*
X112422762Y-15512185D02*
X112398952Y-15488376D01*
X112398952Y-15488376D02*
X112375143Y-15440757D01*
X112375143Y-15440757D02*
X112375143Y-15416947D01*
X112375143Y-15416947D02*
X112398952Y-15369328D01*
X112398952Y-15369328D02*
X112422762Y-15345519D01*
X112422762Y-15345519D02*
X112470381Y-15321709D01*
X112470381Y-15321709D02*
X112565619Y-15321709D01*
X112565619Y-15321709D02*
X112613238Y-15345519D01*
X112613238Y-15345519D02*
X112637047Y-15369328D01*
X112637047Y-15369328D02*
X112660857Y-15416947D01*
X112660857Y-15416947D02*
X112660857Y-15440757D01*
X112660857Y-15440757D02*
X112637047Y-15488376D01*
X112637047Y-15488376D02*
X112613238Y-15512185D01*
X112613238Y-15512185D02*
X112565619Y-15535995D01*
X112565619Y-15535995D02*
X112470381Y-15535995D01*
X112470381Y-15535995D02*
X112422762Y-15559804D01*
X112422762Y-15559804D02*
X112398952Y-15583614D01*
X112398952Y-15583614D02*
X112375143Y-15631233D01*
X112375143Y-15631233D02*
X112375143Y-15726471D01*
X112375143Y-15726471D02*
X112398952Y-15774090D01*
X112398952Y-15774090D02*
X112422762Y-15797900D01*
X112422762Y-15797900D02*
X112470381Y-15821709D01*
X112470381Y-15821709D02*
X112565619Y-15821709D01*
X112565619Y-15821709D02*
X112613238Y-15797900D01*
X112613238Y-15797900D02*
X112637047Y-15774090D01*
X112637047Y-15774090D02*
X112660857Y-15726471D01*
X112660857Y-15726471D02*
X112660857Y-15631233D01*
X112660857Y-15631233D02*
X112637047Y-15583614D01*
X112637047Y-15583614D02*
X112613238Y-15559804D01*
X112613238Y-15559804D02*
X112565619Y-15535995D01*
X102015171Y13174309D02*
X101991362Y13150500D01*
X101991362Y13150500D02*
X101919933Y13126690D01*
X101919933Y13126690D02*
X101872314Y13126690D01*
X101872314Y13126690D02*
X101800886Y13150500D01*
X101800886Y13150500D02*
X101753267Y13198119D01*
X101753267Y13198119D02*
X101729457Y13245738D01*
X101729457Y13245738D02*
X101705648Y13340976D01*
X101705648Y13340976D02*
X101705648Y13412404D01*
X101705648Y13412404D02*
X101729457Y13507642D01*
X101729457Y13507642D02*
X101753267Y13555261D01*
X101753267Y13555261D02*
X101800886Y13602880D01*
X101800886Y13602880D02*
X101872314Y13626690D01*
X101872314Y13626690D02*
X101919933Y13626690D01*
X101919933Y13626690D02*
X101991362Y13602880D01*
X101991362Y13602880D02*
X102015171Y13579071D01*
X102467552Y13626690D02*
X102229457Y13626690D01*
X102229457Y13626690D02*
X102205648Y13388595D01*
X102205648Y13388595D02*
X102229457Y13412404D01*
X102229457Y13412404D02*
X102277076Y13436214D01*
X102277076Y13436214D02*
X102396124Y13436214D01*
X102396124Y13436214D02*
X102443743Y13412404D01*
X102443743Y13412404D02*
X102467552Y13388595D01*
X102467552Y13388595D02*
X102491362Y13340976D01*
X102491362Y13340976D02*
X102491362Y13221928D01*
X102491362Y13221928D02*
X102467552Y13174309D01*
X102467552Y13174309D02*
X102443743Y13150500D01*
X102443743Y13150500D02*
X102396124Y13126690D01*
X102396124Y13126690D02*
X102277076Y13126690D01*
X102277076Y13126690D02*
X102229457Y13150500D01*
X102229457Y13150500D02*
X102205648Y13174309D01*
X102967552Y13126690D02*
X102681838Y13126690D01*
X102824695Y13126690D02*
X102824695Y13626690D01*
X102824695Y13626690D02*
X102777076Y13555261D01*
X102777076Y13555261D02*
X102729457Y13507642D01*
X102729457Y13507642D02*
X102681838Y13483833D01*
X79691752Y-16431309D02*
X79691752Y-15931309D01*
X79977466Y-16431309D02*
X79763181Y-16145595D01*
X79977466Y-15931309D02*
X79691752Y-16217023D01*
X80453657Y-16431309D02*
X80167943Y-16431309D01*
X80310800Y-16431309D02*
X80310800Y-15931309D01*
X80310800Y-15931309D02*
X80263181Y-16002738D01*
X80263181Y-16002738D02*
X80215562Y-16050357D01*
X80215562Y-16050357D02*
X80167943Y-16074166D01*
X116147066Y-22667009D02*
X115908971Y-22667009D01*
X115908971Y-22667009D02*
X115908971Y-22167009D01*
X116575638Y-22667009D02*
X116289924Y-22667009D01*
X116432781Y-22667009D02*
X116432781Y-22167009D01*
X116432781Y-22167009D02*
X116385162Y-22238438D01*
X116385162Y-22238438D02*
X116337543Y-22286057D01*
X116337543Y-22286057D02*
X116289924Y-22309866D01*
X112782509Y-21378199D02*
X112901557Y-21378199D01*
X112853938Y-21497247D02*
X112901557Y-21378199D01*
X112901557Y-21378199D02*
X112853938Y-21259152D01*
X112996795Y-21449628D02*
X112901557Y-21378199D01*
X112901557Y-21378199D02*
X112996795Y-21306771D01*
D14*
X11889676Y-31728019D02*
X11889676Y-32442304D01*
X11889676Y-32442304D02*
X11842057Y-32585161D01*
X11842057Y-32585161D02*
X11746819Y-32680400D01*
X11746819Y-32680400D02*
X11603962Y-32728019D01*
X11603962Y-32728019D02*
X11508724Y-32728019D01*
X12270629Y-31728019D02*
X12889676Y-31728019D01*
X12889676Y-31728019D02*
X12556343Y-32108971D01*
X12556343Y-32108971D02*
X12699200Y-32108971D01*
X12699200Y-32108971D02*
X12794438Y-32156590D01*
X12794438Y-32156590D02*
X12842057Y-32204209D01*
X12842057Y-32204209D02*
X12889676Y-32299447D01*
X12889676Y-32299447D02*
X12889676Y-32537542D01*
X12889676Y-32537542D02*
X12842057Y-32632780D01*
X12842057Y-32632780D02*
X12794438Y-32680400D01*
X12794438Y-32680400D02*
X12699200Y-32728019D01*
X12699200Y-32728019D02*
X12413486Y-32728019D01*
X12413486Y-32728019D02*
X12318248Y-32680400D01*
X12318248Y-32680400D02*
X12270629Y-32632780D01*
X13842057Y-32728019D02*
X13270629Y-32728019D01*
X13556343Y-32728019D02*
X13556343Y-31728019D01*
X13556343Y-31728019D02*
X13461105Y-31870876D01*
X13461105Y-31870876D02*
X13365867Y-31966114D01*
X13365867Y-31966114D02*
X13270629Y-32013733D01*
D10*
X15020171Y-49832309D02*
X14853505Y-49594214D01*
X14734457Y-49832309D02*
X14734457Y-49332309D01*
X14734457Y-49332309D02*
X14924933Y-49332309D01*
X14924933Y-49332309D02*
X14972552Y-49356119D01*
X14972552Y-49356119D02*
X14996362Y-49379928D01*
X14996362Y-49379928D02*
X15020171Y-49427547D01*
X15020171Y-49427547D02*
X15020171Y-49498976D01*
X15020171Y-49498976D02*
X14996362Y-49546595D01*
X14996362Y-49546595D02*
X14972552Y-49570404D01*
X14972552Y-49570404D02*
X14924933Y-49594214D01*
X14924933Y-49594214D02*
X14734457Y-49594214D01*
X15472552Y-49332309D02*
X15234457Y-49332309D01*
X15234457Y-49332309D02*
X15210648Y-49570404D01*
X15210648Y-49570404D02*
X15234457Y-49546595D01*
X15234457Y-49546595D02*
X15282076Y-49522785D01*
X15282076Y-49522785D02*
X15401124Y-49522785D01*
X15401124Y-49522785D02*
X15448743Y-49546595D01*
X15448743Y-49546595D02*
X15472552Y-49570404D01*
X15472552Y-49570404D02*
X15496362Y-49618023D01*
X15496362Y-49618023D02*
X15496362Y-49737071D01*
X15496362Y-49737071D02*
X15472552Y-49784690D01*
X15472552Y-49784690D02*
X15448743Y-49808500D01*
X15448743Y-49808500D02*
X15401124Y-49832309D01*
X15401124Y-49832309D02*
X15282076Y-49832309D01*
X15282076Y-49832309D02*
X15234457Y-49808500D01*
X15234457Y-49808500D02*
X15210648Y-49784690D01*
X15805885Y-49332309D02*
X15853504Y-49332309D01*
X15853504Y-49332309D02*
X15901123Y-49356119D01*
X15901123Y-49356119D02*
X15924933Y-49379928D01*
X15924933Y-49379928D02*
X15948742Y-49427547D01*
X15948742Y-49427547D02*
X15972552Y-49522785D01*
X15972552Y-49522785D02*
X15972552Y-49641833D01*
X15972552Y-49641833D02*
X15948742Y-49737071D01*
X15948742Y-49737071D02*
X15924933Y-49784690D01*
X15924933Y-49784690D02*
X15901123Y-49808500D01*
X15901123Y-49808500D02*
X15853504Y-49832309D01*
X15853504Y-49832309D02*
X15805885Y-49832309D01*
X15805885Y-49832309D02*
X15758266Y-49808500D01*
X15758266Y-49808500D02*
X15734457Y-49784690D01*
X15734457Y-49784690D02*
X15710647Y-49737071D01*
X15710647Y-49737071D02*
X15686838Y-49641833D01*
X15686838Y-49641833D02*
X15686838Y-49522785D01*
X15686838Y-49522785D02*
X15710647Y-49427547D01*
X15710647Y-49427547D02*
X15734457Y-49379928D01*
X15734457Y-49379928D02*
X15758266Y-49356119D01*
X15758266Y-49356119D02*
X15805885Y-49332309D01*
X168853109Y-17476971D02*
X168829300Y-17453162D01*
X168829300Y-17453162D02*
X168805490Y-17381733D01*
X168805490Y-17381733D02*
X168805490Y-17334114D01*
X168805490Y-17334114D02*
X168829300Y-17262686D01*
X168829300Y-17262686D02*
X168876919Y-17215067D01*
X168876919Y-17215067D02*
X168924538Y-17191257D01*
X168924538Y-17191257D02*
X169019776Y-17167448D01*
X169019776Y-17167448D02*
X169091204Y-17167448D01*
X169091204Y-17167448D02*
X169186442Y-17191257D01*
X169186442Y-17191257D02*
X169234061Y-17215067D01*
X169234061Y-17215067D02*
X169281680Y-17262686D01*
X169281680Y-17262686D02*
X169305490Y-17334114D01*
X169305490Y-17334114D02*
X169305490Y-17381733D01*
X169305490Y-17381733D02*
X169281680Y-17453162D01*
X169281680Y-17453162D02*
X169257871Y-17476971D01*
X169305490Y-17929352D02*
X169305490Y-17691257D01*
X169305490Y-17691257D02*
X169067395Y-17667448D01*
X169067395Y-17667448D02*
X169091204Y-17691257D01*
X169091204Y-17691257D02*
X169115014Y-17738876D01*
X169115014Y-17738876D02*
X169115014Y-17857924D01*
X169115014Y-17857924D02*
X169091204Y-17905543D01*
X169091204Y-17905543D02*
X169067395Y-17929352D01*
X169067395Y-17929352D02*
X169019776Y-17953162D01*
X169019776Y-17953162D02*
X168900728Y-17953162D01*
X168900728Y-17953162D02*
X168853109Y-17929352D01*
X168853109Y-17929352D02*
X168829300Y-17905543D01*
X168829300Y-17905543D02*
X168805490Y-17857924D01*
X168805490Y-17857924D02*
X168805490Y-17738876D01*
X168805490Y-17738876D02*
X168829300Y-17691257D01*
X168829300Y-17691257D02*
X168853109Y-17667448D01*
X169257871Y-18143638D02*
X169281680Y-18167447D01*
X169281680Y-18167447D02*
X169305490Y-18215066D01*
X169305490Y-18215066D02*
X169305490Y-18334114D01*
X169305490Y-18334114D02*
X169281680Y-18381733D01*
X169281680Y-18381733D02*
X169257871Y-18405542D01*
X169257871Y-18405542D02*
X169210252Y-18429352D01*
X169210252Y-18429352D02*
X169162633Y-18429352D01*
X169162633Y-18429352D02*
X169091204Y-18405542D01*
X169091204Y-18405542D02*
X168805490Y-18119828D01*
X168805490Y-18119828D02*
X168805490Y-18429352D01*
X120658771Y-10690909D02*
X120492105Y-10452814D01*
X120373057Y-10690909D02*
X120373057Y-10190909D01*
X120373057Y-10190909D02*
X120563533Y-10190909D01*
X120563533Y-10190909D02*
X120611152Y-10214719D01*
X120611152Y-10214719D02*
X120634962Y-10238528D01*
X120634962Y-10238528D02*
X120658771Y-10286147D01*
X120658771Y-10286147D02*
X120658771Y-10357576D01*
X120658771Y-10357576D02*
X120634962Y-10405195D01*
X120634962Y-10405195D02*
X120611152Y-10429004D01*
X120611152Y-10429004D02*
X120563533Y-10452814D01*
X120563533Y-10452814D02*
X120373057Y-10452814D01*
X120849248Y-10238528D02*
X120873057Y-10214719D01*
X120873057Y-10214719D02*
X120920676Y-10190909D01*
X120920676Y-10190909D02*
X121039724Y-10190909D01*
X121039724Y-10190909D02*
X121087343Y-10214719D01*
X121087343Y-10214719D02*
X121111152Y-10238528D01*
X121111152Y-10238528D02*
X121134962Y-10286147D01*
X121134962Y-10286147D02*
X121134962Y-10333766D01*
X121134962Y-10333766D02*
X121111152Y-10405195D01*
X121111152Y-10405195D02*
X120825438Y-10690909D01*
X120825438Y-10690909D02*
X121134962Y-10690909D01*
X121563533Y-10357576D02*
X121563533Y-10690909D01*
X121444485Y-10167100D02*
X121325438Y-10524242D01*
X121325438Y-10524242D02*
X121634961Y-10524242D01*
X119348847Y-21585309D02*
X119348847Y-21990071D01*
X119348847Y-21990071D02*
X119372657Y-22037690D01*
X119372657Y-22037690D02*
X119396466Y-22061500D01*
X119396466Y-22061500D02*
X119444085Y-22085309D01*
X119444085Y-22085309D02*
X119539323Y-22085309D01*
X119539323Y-22085309D02*
X119586942Y-22061500D01*
X119586942Y-22061500D02*
X119610752Y-22037690D01*
X119610752Y-22037690D02*
X119634561Y-21990071D01*
X119634561Y-21990071D02*
X119634561Y-21585309D01*
X120134562Y-22085309D02*
X119848848Y-22085309D01*
X119991705Y-22085309D02*
X119991705Y-21585309D01*
X119991705Y-21585309D02*
X119944086Y-21656738D01*
X119944086Y-21656738D02*
X119896467Y-21704357D01*
X119896467Y-21704357D02*
X119848848Y-21728166D01*
X25590952Y-27536109D02*
X25590952Y-27940871D01*
X25590952Y-27940871D02*
X25614762Y-27988490D01*
X25614762Y-27988490D02*
X25638571Y-28012300D01*
X25638571Y-28012300D02*
X25686190Y-28036109D01*
X25686190Y-28036109D02*
X25781428Y-28036109D01*
X25781428Y-28036109D02*
X25829047Y-28012300D01*
X25829047Y-28012300D02*
X25852857Y-27988490D01*
X25852857Y-27988490D02*
X25876666Y-27940871D01*
X25876666Y-27940871D02*
X25876666Y-27536109D01*
X26376667Y-28036109D02*
X26090953Y-28036109D01*
X26233810Y-28036109D02*
X26233810Y-27536109D01*
X26233810Y-27536109D02*
X26186191Y-27607538D01*
X26186191Y-27607538D02*
X26138572Y-27655157D01*
X26138572Y-27655157D02*
X26090953Y-27678966D01*
X26614762Y-28036109D02*
X26710000Y-28036109D01*
X26710000Y-28036109D02*
X26757619Y-28012300D01*
X26757619Y-28012300D02*
X26781428Y-27988490D01*
X26781428Y-27988490D02*
X26829047Y-27917061D01*
X26829047Y-27917061D02*
X26852857Y-27821823D01*
X26852857Y-27821823D02*
X26852857Y-27631347D01*
X26852857Y-27631347D02*
X26829047Y-27583728D01*
X26829047Y-27583728D02*
X26805238Y-27559919D01*
X26805238Y-27559919D02*
X26757619Y-27536109D01*
X26757619Y-27536109D02*
X26662381Y-27536109D01*
X26662381Y-27536109D02*
X26614762Y-27559919D01*
X26614762Y-27559919D02*
X26590952Y-27583728D01*
X26590952Y-27583728D02*
X26567143Y-27631347D01*
X26567143Y-27631347D02*
X26567143Y-27750395D01*
X26567143Y-27750395D02*
X26590952Y-27798014D01*
X26590952Y-27798014D02*
X26614762Y-27821823D01*
X26614762Y-27821823D02*
X26662381Y-27845633D01*
X26662381Y-27845633D02*
X26757619Y-27845633D01*
X26757619Y-27845633D02*
X26805238Y-27821823D01*
X26805238Y-27821823D02*
X26829047Y-27798014D01*
X26829047Y-27798014D02*
X26852857Y-27750395D01*
X58083333Y6773890D02*
X58083333Y6416747D01*
X58083333Y6416747D02*
X58059524Y6345319D01*
X58059524Y6345319D02*
X58011905Y6297700D01*
X58011905Y6297700D02*
X57940476Y6273890D01*
X57940476Y6273890D02*
X57892857Y6273890D01*
X58273809Y6773890D02*
X58607142Y6773890D01*
X58607142Y6773890D02*
X58392857Y6273890D01*
X69970952Y-27436109D02*
X69970952Y-27840871D01*
X69970952Y-27840871D02*
X69994762Y-27888490D01*
X69994762Y-27888490D02*
X70018571Y-27912300D01*
X70018571Y-27912300D02*
X70066190Y-27936109D01*
X70066190Y-27936109D02*
X70161428Y-27936109D01*
X70161428Y-27936109D02*
X70209047Y-27912300D01*
X70209047Y-27912300D02*
X70232857Y-27888490D01*
X70232857Y-27888490D02*
X70256666Y-27840871D01*
X70256666Y-27840871D02*
X70256666Y-27436109D01*
X70756667Y-27936109D02*
X70470953Y-27936109D01*
X70613810Y-27936109D02*
X70613810Y-27436109D01*
X70613810Y-27436109D02*
X70566191Y-27507538D01*
X70566191Y-27507538D02*
X70518572Y-27555157D01*
X70518572Y-27555157D02*
X70470953Y-27578966D01*
X71185238Y-27436109D02*
X71090000Y-27436109D01*
X71090000Y-27436109D02*
X71042381Y-27459919D01*
X71042381Y-27459919D02*
X71018571Y-27483728D01*
X71018571Y-27483728D02*
X70970952Y-27555157D01*
X70970952Y-27555157D02*
X70947143Y-27650395D01*
X70947143Y-27650395D02*
X70947143Y-27840871D01*
X70947143Y-27840871D02*
X70970952Y-27888490D01*
X70970952Y-27888490D02*
X70994762Y-27912300D01*
X70994762Y-27912300D02*
X71042381Y-27936109D01*
X71042381Y-27936109D02*
X71137619Y-27936109D01*
X71137619Y-27936109D02*
X71185238Y-27912300D01*
X71185238Y-27912300D02*
X71209047Y-27888490D01*
X71209047Y-27888490D02*
X71232857Y-27840871D01*
X71232857Y-27840871D02*
X71232857Y-27721823D01*
X71232857Y-27721823D02*
X71209047Y-27674204D01*
X71209047Y-27674204D02*
X71185238Y-27650395D01*
X71185238Y-27650395D02*
X71137619Y-27626585D01*
X71137619Y-27626585D02*
X71042381Y-27626585D01*
X71042381Y-27626585D02*
X70994762Y-27650395D01*
X70994762Y-27650395D02*
X70970952Y-27674204D01*
X70970952Y-27674204D02*
X70947143Y-27721823D01*
X12937371Y-25248290D02*
X12913562Y-25272100D01*
X12913562Y-25272100D02*
X12842133Y-25295909D01*
X12842133Y-25295909D02*
X12794514Y-25295909D01*
X12794514Y-25295909D02*
X12723086Y-25272100D01*
X12723086Y-25272100D02*
X12675467Y-25224480D01*
X12675467Y-25224480D02*
X12651657Y-25176861D01*
X12651657Y-25176861D02*
X12627848Y-25081623D01*
X12627848Y-25081623D02*
X12627848Y-25010195D01*
X12627848Y-25010195D02*
X12651657Y-24914957D01*
X12651657Y-24914957D02*
X12675467Y-24867338D01*
X12675467Y-24867338D02*
X12723086Y-24819719D01*
X12723086Y-24819719D02*
X12794514Y-24795909D01*
X12794514Y-24795909D02*
X12842133Y-24795909D01*
X12842133Y-24795909D02*
X12913562Y-24819719D01*
X12913562Y-24819719D02*
X12937371Y-24843528D01*
X13389752Y-24795909D02*
X13151657Y-24795909D01*
X13151657Y-24795909D02*
X13127848Y-25034004D01*
X13127848Y-25034004D02*
X13151657Y-25010195D01*
X13151657Y-25010195D02*
X13199276Y-24986385D01*
X13199276Y-24986385D02*
X13318324Y-24986385D01*
X13318324Y-24986385D02*
X13365943Y-25010195D01*
X13365943Y-25010195D02*
X13389752Y-25034004D01*
X13389752Y-25034004D02*
X13413562Y-25081623D01*
X13413562Y-25081623D02*
X13413562Y-25200671D01*
X13413562Y-25200671D02*
X13389752Y-25248290D01*
X13389752Y-25248290D02*
X13365943Y-25272100D01*
X13365943Y-25272100D02*
X13318324Y-25295909D01*
X13318324Y-25295909D02*
X13199276Y-25295909D01*
X13199276Y-25295909D02*
X13151657Y-25272100D01*
X13151657Y-25272100D02*
X13127848Y-25248290D01*
X13580228Y-24795909D02*
X13913561Y-24795909D01*
X13913561Y-24795909D02*
X13699276Y-25295909D01*
X14867771Y13108890D02*
X14701105Y13346985D01*
X14582057Y13108890D02*
X14582057Y13608890D01*
X14582057Y13608890D02*
X14772533Y13608890D01*
X14772533Y13608890D02*
X14820152Y13585080D01*
X14820152Y13585080D02*
X14843962Y13561271D01*
X14843962Y13561271D02*
X14867771Y13513652D01*
X14867771Y13513652D02*
X14867771Y13442223D01*
X14867771Y13442223D02*
X14843962Y13394604D01*
X14843962Y13394604D02*
X14820152Y13370795D01*
X14820152Y13370795D02*
X14772533Y13346985D01*
X14772533Y13346985D02*
X14582057Y13346985D01*
X15034438Y13608890D02*
X15367771Y13608890D01*
X15367771Y13608890D02*
X15153486Y13108890D01*
X15820152Y13108890D02*
X15534438Y13108890D01*
X15677295Y13108890D02*
X15677295Y13608890D01*
X15677295Y13608890D02*
X15629676Y13537461D01*
X15629676Y13537461D02*
X15582057Y13489842D01*
X15582057Y13489842D02*
X15534438Y13466033D01*
X110981371Y-2642290D02*
X110957562Y-2666100D01*
X110957562Y-2666100D02*
X110886133Y-2689909D01*
X110886133Y-2689909D02*
X110838514Y-2689909D01*
X110838514Y-2689909D02*
X110767086Y-2666100D01*
X110767086Y-2666100D02*
X110719467Y-2618480D01*
X110719467Y-2618480D02*
X110695657Y-2570861D01*
X110695657Y-2570861D02*
X110671848Y-2475623D01*
X110671848Y-2475623D02*
X110671848Y-2404195D01*
X110671848Y-2404195D02*
X110695657Y-2308957D01*
X110695657Y-2308957D02*
X110719467Y-2261338D01*
X110719467Y-2261338D02*
X110767086Y-2213719D01*
X110767086Y-2213719D02*
X110838514Y-2189909D01*
X110838514Y-2189909D02*
X110886133Y-2189909D01*
X110886133Y-2189909D02*
X110957562Y-2213719D01*
X110957562Y-2213719D02*
X110981371Y-2237528D01*
X111457562Y-2689909D02*
X111171848Y-2689909D01*
X111314705Y-2689909D02*
X111314705Y-2189909D01*
X111314705Y-2189909D02*
X111267086Y-2261338D01*
X111267086Y-2261338D02*
X111219467Y-2308957D01*
X111219467Y-2308957D02*
X111171848Y-2332766D01*
X111886133Y-2356576D02*
X111886133Y-2689909D01*
X111767085Y-2166100D02*
X111648038Y-2523242D01*
X111648038Y-2523242D02*
X111957561Y-2523242D01*
X14816971Y11076890D02*
X14650305Y11314985D01*
X14531257Y11076890D02*
X14531257Y11576890D01*
X14531257Y11576890D02*
X14721733Y11576890D01*
X14721733Y11576890D02*
X14769352Y11553080D01*
X14769352Y11553080D02*
X14793162Y11529271D01*
X14793162Y11529271D02*
X14816971Y11481652D01*
X14816971Y11481652D02*
X14816971Y11410223D01*
X14816971Y11410223D02*
X14793162Y11362604D01*
X14793162Y11362604D02*
X14769352Y11338795D01*
X14769352Y11338795D02*
X14721733Y11314985D01*
X14721733Y11314985D02*
X14531257Y11314985D01*
X14983638Y11576890D02*
X15316971Y11576890D01*
X15316971Y11576890D02*
X15102686Y11076890D01*
X15483638Y11529271D02*
X15507447Y11553080D01*
X15507447Y11553080D02*
X15555066Y11576890D01*
X15555066Y11576890D02*
X15674114Y11576890D01*
X15674114Y11576890D02*
X15721733Y11553080D01*
X15721733Y11553080D02*
X15745542Y11529271D01*
X15745542Y11529271D02*
X15769352Y11481652D01*
X15769352Y11481652D02*
X15769352Y11434033D01*
X15769352Y11434033D02*
X15745542Y11362604D01*
X15745542Y11362604D02*
X15459828Y11076890D01*
X15459828Y11076890D02*
X15769352Y11076890D01*
X121266221Y-27183709D02*
X121099555Y-26945614D01*
X120980507Y-27183709D02*
X120980507Y-26683709D01*
X120980507Y-26683709D02*
X121170983Y-26683709D01*
X121170983Y-26683709D02*
X121218602Y-26707519D01*
X121218602Y-26707519D02*
X121242412Y-26731328D01*
X121242412Y-26731328D02*
X121266221Y-26778947D01*
X121266221Y-26778947D02*
X121266221Y-26850376D01*
X121266221Y-26850376D02*
X121242412Y-26897995D01*
X121242412Y-26897995D02*
X121218602Y-26921804D01*
X121218602Y-26921804D02*
X121170983Y-26945614D01*
X121170983Y-26945614D02*
X120980507Y-26945614D01*
X121456698Y-26731328D02*
X121480507Y-26707519D01*
X121480507Y-26707519D02*
X121528126Y-26683709D01*
X121528126Y-26683709D02*
X121647174Y-26683709D01*
X121647174Y-26683709D02*
X121694793Y-26707519D01*
X121694793Y-26707519D02*
X121718602Y-26731328D01*
X121718602Y-26731328D02*
X121742412Y-26778947D01*
X121742412Y-26778947D02*
X121742412Y-26826566D01*
X121742412Y-26826566D02*
X121718602Y-26897995D01*
X121718602Y-26897995D02*
X121432888Y-27183709D01*
X121432888Y-27183709D02*
X121742412Y-27183709D01*
X121909078Y-26683709D02*
X122218602Y-26683709D01*
X122218602Y-26683709D02*
X122051935Y-26874185D01*
X122051935Y-26874185D02*
X122123364Y-26874185D01*
X122123364Y-26874185D02*
X122170983Y-26897995D01*
X122170983Y-26897995D02*
X122194792Y-26921804D01*
X122194792Y-26921804D02*
X122218602Y-26969423D01*
X122218602Y-26969423D02*
X122218602Y-27088471D01*
X122218602Y-27088471D02*
X122194792Y-27136090D01*
X122194792Y-27136090D02*
X122170983Y-27159900D01*
X122170983Y-27159900D02*
X122123364Y-27183709D01*
X122123364Y-27183709D02*
X121980507Y-27183709D01*
X121980507Y-27183709D02*
X121932888Y-27159900D01*
X121932888Y-27159900D02*
X121909078Y-27136090D01*
X41860952Y-26856109D02*
X41860952Y-27260871D01*
X41860952Y-27260871D02*
X41884762Y-27308490D01*
X41884762Y-27308490D02*
X41908571Y-27332300D01*
X41908571Y-27332300D02*
X41956190Y-27356109D01*
X41956190Y-27356109D02*
X42051428Y-27356109D01*
X42051428Y-27356109D02*
X42099047Y-27332300D01*
X42099047Y-27332300D02*
X42122857Y-27308490D01*
X42122857Y-27308490D02*
X42146666Y-27260871D01*
X42146666Y-27260871D02*
X42146666Y-26856109D01*
X42646667Y-27356109D02*
X42360953Y-27356109D01*
X42503810Y-27356109D02*
X42503810Y-26856109D01*
X42503810Y-26856109D02*
X42456191Y-26927538D01*
X42456191Y-26927538D02*
X42408572Y-26975157D01*
X42408572Y-26975157D02*
X42360953Y-26998966D01*
X42932381Y-27070395D02*
X42884762Y-27046585D01*
X42884762Y-27046585D02*
X42860952Y-27022776D01*
X42860952Y-27022776D02*
X42837143Y-26975157D01*
X42837143Y-26975157D02*
X42837143Y-26951347D01*
X42837143Y-26951347D02*
X42860952Y-26903728D01*
X42860952Y-26903728D02*
X42884762Y-26879919D01*
X42884762Y-26879919D02*
X42932381Y-26856109D01*
X42932381Y-26856109D02*
X43027619Y-26856109D01*
X43027619Y-26856109D02*
X43075238Y-26879919D01*
X43075238Y-26879919D02*
X43099047Y-26903728D01*
X43099047Y-26903728D02*
X43122857Y-26951347D01*
X43122857Y-26951347D02*
X43122857Y-26975157D01*
X43122857Y-26975157D02*
X43099047Y-27022776D01*
X43099047Y-27022776D02*
X43075238Y-27046585D01*
X43075238Y-27046585D02*
X43027619Y-27070395D01*
X43027619Y-27070395D02*
X42932381Y-27070395D01*
X42932381Y-27070395D02*
X42884762Y-27094204D01*
X42884762Y-27094204D02*
X42860952Y-27118014D01*
X42860952Y-27118014D02*
X42837143Y-27165633D01*
X42837143Y-27165633D02*
X42837143Y-27260871D01*
X42837143Y-27260871D02*
X42860952Y-27308490D01*
X42860952Y-27308490D02*
X42884762Y-27332300D01*
X42884762Y-27332300D02*
X42932381Y-27356109D01*
X42932381Y-27356109D02*
X43027619Y-27356109D01*
X43027619Y-27356109D02*
X43075238Y-27332300D01*
X43075238Y-27332300D02*
X43099047Y-27308490D01*
X43099047Y-27308490D02*
X43122857Y-27260871D01*
X43122857Y-27260871D02*
X43122857Y-27165633D01*
X43122857Y-27165633D02*
X43099047Y-27118014D01*
X43099047Y-27118014D02*
X43075238Y-27094204D01*
X43075238Y-27094204D02*
X43027619Y-27070395D01*
X115138247Y-8362109D02*
X115138247Y-8766871D01*
X115138247Y-8766871D02*
X115162057Y-8814490D01*
X115162057Y-8814490D02*
X115185866Y-8838300D01*
X115185866Y-8838300D02*
X115233485Y-8862109D01*
X115233485Y-8862109D02*
X115328723Y-8862109D01*
X115328723Y-8862109D02*
X115376342Y-8838300D01*
X115376342Y-8838300D02*
X115400152Y-8814490D01*
X115400152Y-8814490D02*
X115423961Y-8766871D01*
X115423961Y-8766871D02*
X115423961Y-8362109D01*
X115733486Y-8576395D02*
X115685867Y-8552585D01*
X115685867Y-8552585D02*
X115662057Y-8528776D01*
X115662057Y-8528776D02*
X115638248Y-8481157D01*
X115638248Y-8481157D02*
X115638248Y-8457347D01*
X115638248Y-8457347D02*
X115662057Y-8409728D01*
X115662057Y-8409728D02*
X115685867Y-8385919D01*
X115685867Y-8385919D02*
X115733486Y-8362109D01*
X115733486Y-8362109D02*
X115828724Y-8362109D01*
X115828724Y-8362109D02*
X115876343Y-8385919D01*
X115876343Y-8385919D02*
X115900152Y-8409728D01*
X115900152Y-8409728D02*
X115923962Y-8457347D01*
X115923962Y-8457347D02*
X115923962Y-8481157D01*
X115923962Y-8481157D02*
X115900152Y-8528776D01*
X115900152Y-8528776D02*
X115876343Y-8552585D01*
X115876343Y-8552585D02*
X115828724Y-8576395D01*
X115828724Y-8576395D02*
X115733486Y-8576395D01*
X115733486Y-8576395D02*
X115685867Y-8600204D01*
X115685867Y-8600204D02*
X115662057Y-8624014D01*
X115662057Y-8624014D02*
X115638248Y-8671633D01*
X115638248Y-8671633D02*
X115638248Y-8766871D01*
X115638248Y-8766871D02*
X115662057Y-8814490D01*
X115662057Y-8814490D02*
X115685867Y-8838300D01*
X115685867Y-8838300D02*
X115733486Y-8862109D01*
X115733486Y-8862109D02*
X115828724Y-8862109D01*
X115828724Y-8862109D02*
X115876343Y-8838300D01*
X115876343Y-8838300D02*
X115900152Y-8814490D01*
X115900152Y-8814490D02*
X115923962Y-8766871D01*
X115923962Y-8766871D02*
X115923962Y-8671633D01*
X115923962Y-8671633D02*
X115900152Y-8624014D01*
X115900152Y-8624014D02*
X115876343Y-8600204D01*
X115876343Y-8600204D02*
X115828724Y-8576395D01*
X112262116Y-24684090D02*
X112238307Y-24707900D01*
X112238307Y-24707900D02*
X112166878Y-24731709D01*
X112166878Y-24731709D02*
X112119259Y-24731709D01*
X112119259Y-24731709D02*
X112047831Y-24707900D01*
X112047831Y-24707900D02*
X112000212Y-24660280D01*
X112000212Y-24660280D02*
X111976402Y-24612661D01*
X111976402Y-24612661D02*
X111952593Y-24517423D01*
X111952593Y-24517423D02*
X111952593Y-24445995D01*
X111952593Y-24445995D02*
X111976402Y-24350757D01*
X111976402Y-24350757D02*
X112000212Y-24303138D01*
X112000212Y-24303138D02*
X112047831Y-24255519D01*
X112047831Y-24255519D02*
X112119259Y-24231709D01*
X112119259Y-24231709D02*
X112166878Y-24231709D01*
X112166878Y-24231709D02*
X112238307Y-24255519D01*
X112238307Y-24255519D02*
X112262116Y-24279328D01*
X112428783Y-24231709D02*
X112738307Y-24231709D01*
X112738307Y-24231709D02*
X112571640Y-24422185D01*
X112571640Y-24422185D02*
X112643069Y-24422185D01*
X112643069Y-24422185D02*
X112690688Y-24445995D01*
X112690688Y-24445995D02*
X112714497Y-24469804D01*
X112714497Y-24469804D02*
X112738307Y-24517423D01*
X112738307Y-24517423D02*
X112738307Y-24636471D01*
X112738307Y-24636471D02*
X112714497Y-24684090D01*
X112714497Y-24684090D02*
X112690688Y-24707900D01*
X112690688Y-24707900D02*
X112643069Y-24731709D01*
X112643069Y-24731709D02*
X112500212Y-24731709D01*
X112500212Y-24731709D02*
X112452593Y-24707900D01*
X112452593Y-24707900D02*
X112428783Y-24684090D01*
D14*
X158119914Y992980D02*
X158119914Y1992980D01*
X158119914Y1992980D02*
X158500866Y1992980D01*
X158500866Y1992980D02*
X158596104Y1945361D01*
X158596104Y1945361D02*
X158643723Y1897742D01*
X158643723Y1897742D02*
X158691342Y1802504D01*
X158691342Y1802504D02*
X158691342Y1659647D01*
X158691342Y1659647D02*
X158643723Y1564409D01*
X158643723Y1564409D02*
X158596104Y1516790D01*
X158596104Y1516790D02*
X158500866Y1469171D01*
X158500866Y1469171D02*
X158119914Y1469171D01*
X159072295Y1040600D02*
X159215152Y992980D01*
X159215152Y992980D02*
X159453247Y992980D01*
X159453247Y992980D02*
X159548485Y1040600D01*
X159548485Y1040600D02*
X159596104Y1088219D01*
X159596104Y1088219D02*
X159643723Y1183457D01*
X159643723Y1183457D02*
X159643723Y1278695D01*
X159643723Y1278695D02*
X159596104Y1373933D01*
X159596104Y1373933D02*
X159548485Y1421552D01*
X159548485Y1421552D02*
X159453247Y1469171D01*
X159453247Y1469171D02*
X159262771Y1516790D01*
X159262771Y1516790D02*
X159167533Y1564409D01*
X159167533Y1564409D02*
X159119914Y1612028D01*
X159119914Y1612028D02*
X159072295Y1707266D01*
X159072295Y1707266D02*
X159072295Y1802504D01*
X159072295Y1802504D02*
X159119914Y1897742D01*
X159119914Y1897742D02*
X159167533Y1945361D01*
X159167533Y1945361D02*
X159262771Y1992980D01*
X159262771Y1992980D02*
X159500866Y1992980D01*
X159500866Y1992980D02*
X159643723Y1945361D01*
X160024676Y1897742D02*
X160072295Y1945361D01*
X160072295Y1945361D02*
X160167533Y1992980D01*
X160167533Y1992980D02*
X160405628Y1992980D01*
X160405628Y1992980D02*
X160500866Y1945361D01*
X160500866Y1945361D02*
X160548485Y1897742D01*
X160548485Y1897742D02*
X160596104Y1802504D01*
X160596104Y1802504D02*
X160596104Y1707266D01*
X160596104Y1707266D02*
X160548485Y1564409D01*
X160548485Y1564409D02*
X159977057Y992980D01*
X159977057Y992980D02*
X160596104Y992980D01*
D10*
X84954838Y-19716309D02*
X84954838Y-20073452D01*
X84954838Y-20073452D02*
X84931029Y-20144880D01*
X84931029Y-20144880D02*
X84883410Y-20192500D01*
X84883410Y-20192500D02*
X84811981Y-20216309D01*
X84811981Y-20216309D02*
X84764362Y-20216309D01*
X85454838Y-20216309D02*
X85169124Y-20216309D01*
X85311981Y-20216309D02*
X85311981Y-19716309D01*
X85311981Y-19716309D02*
X85264362Y-19787738D01*
X85264362Y-19787738D02*
X85216743Y-19835357D01*
X85216743Y-19835357D02*
X85169124Y-19859166D01*
X85621504Y-19716309D02*
X85931028Y-19716309D01*
X85931028Y-19716309D02*
X85764361Y-19906785D01*
X85764361Y-19906785D02*
X85835790Y-19906785D01*
X85835790Y-19906785D02*
X85883409Y-19930595D01*
X85883409Y-19930595D02*
X85907218Y-19954404D01*
X85907218Y-19954404D02*
X85931028Y-20002023D01*
X85931028Y-20002023D02*
X85931028Y-20121071D01*
X85931028Y-20121071D02*
X85907218Y-20168690D01*
X85907218Y-20168690D02*
X85883409Y-20192500D01*
X85883409Y-20192500D02*
X85835790Y-20216309D01*
X85835790Y-20216309D02*
X85692933Y-20216309D01*
X85692933Y-20216309D02*
X85645314Y-20192500D01*
X85645314Y-20192500D02*
X85621504Y-20168690D01*
D14*
X3238095Y-62704819D02*
X3238095Y-61704819D01*
X3238095Y-62181009D02*
X3809523Y-62181009D01*
X3809523Y-62704819D02*
X3809523Y-61704819D01*
X4714285Y-61704819D02*
X4523809Y-61704819D01*
X4523809Y-61704819D02*
X4428571Y-61752438D01*
X4428571Y-61752438D02*
X4380952Y-61800057D01*
X4380952Y-61800057D02*
X4285714Y-61942914D01*
X4285714Y-61942914D02*
X4238095Y-62133390D01*
X4238095Y-62133390D02*
X4238095Y-62514342D01*
X4238095Y-62514342D02*
X4285714Y-62609580D01*
X4285714Y-62609580D02*
X4333333Y-62657200D01*
X4333333Y-62657200D02*
X4428571Y-62704819D01*
X4428571Y-62704819D02*
X4619047Y-62704819D01*
X4619047Y-62704819D02*
X4714285Y-62657200D01*
X4714285Y-62657200D02*
X4761904Y-62609580D01*
X4761904Y-62609580D02*
X4809523Y-62514342D01*
X4809523Y-62514342D02*
X4809523Y-62276247D01*
X4809523Y-62276247D02*
X4761904Y-62181009D01*
X4761904Y-62181009D02*
X4714285Y-62133390D01*
X4714285Y-62133390D02*
X4619047Y-62085771D01*
X4619047Y-62085771D02*
X4428571Y-62085771D01*
X4428571Y-62085771D02*
X4333333Y-62133390D01*
X4333333Y-62133390D02*
X4285714Y-62181009D01*
X4285714Y-62181009D02*
X4238095Y-62276247D01*
D10*
X133031109Y-70389642D02*
X132531109Y-70389642D01*
X132531109Y-70389642D02*
X132531109Y-70199166D01*
X132531109Y-70199166D02*
X132554919Y-70151547D01*
X132554919Y-70151547D02*
X132578728Y-70127737D01*
X132578728Y-70127737D02*
X132626347Y-70103928D01*
X132626347Y-70103928D02*
X132697776Y-70103928D01*
X132697776Y-70103928D02*
X132745395Y-70127737D01*
X132745395Y-70127737D02*
X132769204Y-70151547D01*
X132769204Y-70151547D02*
X132793014Y-70199166D01*
X132793014Y-70199166D02*
X132793014Y-70389642D01*
X133007300Y-69913451D02*
X133031109Y-69842023D01*
X133031109Y-69842023D02*
X133031109Y-69722975D01*
X133031109Y-69722975D02*
X133007300Y-69675356D01*
X133007300Y-69675356D02*
X132983490Y-69651547D01*
X132983490Y-69651547D02*
X132935871Y-69627737D01*
X132935871Y-69627737D02*
X132888252Y-69627737D01*
X132888252Y-69627737D02*
X132840633Y-69651547D01*
X132840633Y-69651547D02*
X132816823Y-69675356D01*
X132816823Y-69675356D02*
X132793014Y-69722975D01*
X132793014Y-69722975D02*
X132769204Y-69818213D01*
X132769204Y-69818213D02*
X132745395Y-69865832D01*
X132745395Y-69865832D02*
X132721585Y-69889642D01*
X132721585Y-69889642D02*
X132673966Y-69913451D01*
X132673966Y-69913451D02*
X132626347Y-69913451D01*
X132626347Y-69913451D02*
X132578728Y-69889642D01*
X132578728Y-69889642D02*
X132554919Y-69865832D01*
X132554919Y-69865832D02*
X132531109Y-69818213D01*
X132531109Y-69818213D02*
X132531109Y-69699166D01*
X132531109Y-69699166D02*
X132554919Y-69627737D01*
X133031109Y-69151547D02*
X133031109Y-69437261D01*
X133031109Y-69294404D02*
X132531109Y-69294404D01*
X132531109Y-69294404D02*
X132602538Y-69342023D01*
X132602538Y-69342023D02*
X132650157Y-69389642D01*
X132650157Y-69389642D02*
X132673966Y-69437261D01*
X120633371Y-13434109D02*
X120466705Y-13196014D01*
X120347657Y-13434109D02*
X120347657Y-12934109D01*
X120347657Y-12934109D02*
X120538133Y-12934109D01*
X120538133Y-12934109D02*
X120585752Y-12957919D01*
X120585752Y-12957919D02*
X120609562Y-12981728D01*
X120609562Y-12981728D02*
X120633371Y-13029347D01*
X120633371Y-13029347D02*
X120633371Y-13100776D01*
X120633371Y-13100776D02*
X120609562Y-13148395D01*
X120609562Y-13148395D02*
X120585752Y-13172204D01*
X120585752Y-13172204D02*
X120538133Y-13196014D01*
X120538133Y-13196014D02*
X120347657Y-13196014D01*
X120823848Y-12981728D02*
X120847657Y-12957919D01*
X120847657Y-12957919D02*
X120895276Y-12934109D01*
X120895276Y-12934109D02*
X121014324Y-12934109D01*
X121014324Y-12934109D02*
X121061943Y-12957919D01*
X121061943Y-12957919D02*
X121085752Y-12981728D01*
X121085752Y-12981728D02*
X121109562Y-13029347D01*
X121109562Y-13029347D02*
X121109562Y-13076966D01*
X121109562Y-13076966D02*
X121085752Y-13148395D01*
X121085752Y-13148395D02*
X120800038Y-13434109D01*
X120800038Y-13434109D02*
X121109562Y-13434109D01*
X121561942Y-12934109D02*
X121323847Y-12934109D01*
X121323847Y-12934109D02*
X121300038Y-13172204D01*
X121300038Y-13172204D02*
X121323847Y-13148395D01*
X121323847Y-13148395D02*
X121371466Y-13124585D01*
X121371466Y-13124585D02*
X121490514Y-13124585D01*
X121490514Y-13124585D02*
X121538133Y-13148395D01*
X121538133Y-13148395D02*
X121561942Y-13172204D01*
X121561942Y-13172204D02*
X121585752Y-13219823D01*
X121585752Y-13219823D02*
X121585752Y-13338871D01*
X121585752Y-13338871D02*
X121561942Y-13386490D01*
X121561942Y-13386490D02*
X121538133Y-13410300D01*
X121538133Y-13410300D02*
X121490514Y-13434109D01*
X121490514Y-13434109D02*
X121371466Y-13434109D01*
X121371466Y-13434109D02*
X121323847Y-13410300D01*
X121323847Y-13410300D02*
X121300038Y-13386490D01*
X113699171Y-12827690D02*
X113675362Y-12851500D01*
X113675362Y-12851500D02*
X113603933Y-12875309D01*
X113603933Y-12875309D02*
X113556314Y-12875309D01*
X113556314Y-12875309D02*
X113484886Y-12851500D01*
X113484886Y-12851500D02*
X113437267Y-12803880D01*
X113437267Y-12803880D02*
X113413457Y-12756261D01*
X113413457Y-12756261D02*
X113389648Y-12661023D01*
X113389648Y-12661023D02*
X113389648Y-12589595D01*
X113389648Y-12589595D02*
X113413457Y-12494357D01*
X113413457Y-12494357D02*
X113437267Y-12446738D01*
X113437267Y-12446738D02*
X113484886Y-12399119D01*
X113484886Y-12399119D02*
X113556314Y-12375309D01*
X113556314Y-12375309D02*
X113603933Y-12375309D01*
X113603933Y-12375309D02*
X113675362Y-12399119D01*
X113675362Y-12399119D02*
X113699171Y-12422928D01*
X114175362Y-12875309D02*
X113889648Y-12875309D01*
X114032505Y-12875309D02*
X114032505Y-12375309D01*
X114032505Y-12375309D02*
X113984886Y-12446738D01*
X113984886Y-12446738D02*
X113937267Y-12494357D01*
X113937267Y-12494357D02*
X113889648Y-12518166D01*
X114365838Y-12422928D02*
X114389647Y-12399119D01*
X114389647Y-12399119D02*
X114437266Y-12375309D01*
X114437266Y-12375309D02*
X114556314Y-12375309D01*
X114556314Y-12375309D02*
X114603933Y-12399119D01*
X114603933Y-12399119D02*
X114627742Y-12422928D01*
X114627742Y-12422928D02*
X114651552Y-12470547D01*
X114651552Y-12470547D02*
X114651552Y-12518166D01*
X114651552Y-12518166D02*
X114627742Y-12589595D01*
X114627742Y-12589595D02*
X114342028Y-12875309D01*
X114342028Y-12875309D02*
X114651552Y-12875309D01*
D14*
X178819276Y-31814419D02*
X178819276Y-32528704D01*
X178819276Y-32528704D02*
X178771657Y-32671561D01*
X178771657Y-32671561D02*
X178676419Y-32766800D01*
X178676419Y-32766800D02*
X178533562Y-32814419D01*
X178533562Y-32814419D02*
X178438324Y-32814419D01*
X179247848Y-31909657D02*
X179295467Y-31862038D01*
X179295467Y-31862038D02*
X179390705Y-31814419D01*
X179390705Y-31814419D02*
X179628800Y-31814419D01*
X179628800Y-31814419D02*
X179724038Y-31862038D01*
X179724038Y-31862038D02*
X179771657Y-31909657D01*
X179771657Y-31909657D02*
X179819276Y-32004895D01*
X179819276Y-32004895D02*
X179819276Y-32100133D01*
X179819276Y-32100133D02*
X179771657Y-32242990D01*
X179771657Y-32242990D02*
X179200229Y-32814419D01*
X179200229Y-32814419D02*
X179819276Y-32814419D01*
X180676419Y-32147752D02*
X180676419Y-32814419D01*
X180438324Y-31766800D02*
X180200229Y-32481085D01*
X180200229Y-32481085D02*
X180819276Y-32481085D01*
D10*
X77701780Y-9620928D02*
X77654161Y-9597119D01*
X77654161Y-9597119D02*
X77606542Y-9549500D01*
X77606542Y-9549500D02*
X77535114Y-9478071D01*
X77535114Y-9478071D02*
X77487495Y-9454261D01*
X77487495Y-9454261D02*
X77439876Y-9454261D01*
X77463685Y-9573309D02*
X77416066Y-9549500D01*
X77416066Y-9549500D02*
X77368447Y-9501880D01*
X77368447Y-9501880D02*
X77344638Y-9406642D01*
X77344638Y-9406642D02*
X77344638Y-9239976D01*
X77344638Y-9239976D02*
X77368447Y-9144738D01*
X77368447Y-9144738D02*
X77416066Y-9097119D01*
X77416066Y-9097119D02*
X77463685Y-9073309D01*
X77463685Y-9073309D02*
X77558923Y-9073309D01*
X77558923Y-9073309D02*
X77606542Y-9097119D01*
X77606542Y-9097119D02*
X77654161Y-9144738D01*
X77654161Y-9144738D02*
X77677971Y-9239976D01*
X77677971Y-9239976D02*
X77677971Y-9406642D01*
X77677971Y-9406642D02*
X77654161Y-9501880D01*
X77654161Y-9501880D02*
X77606542Y-9549500D01*
X77606542Y-9549500D02*
X77558923Y-9573309D01*
X77558923Y-9573309D02*
X77463685Y-9573309D01*
X78154162Y-9573309D02*
X77868448Y-9573309D01*
X78011305Y-9573309D02*
X78011305Y-9073309D01*
X78011305Y-9073309D02*
X77963686Y-9144738D01*
X77963686Y-9144738D02*
X77916067Y-9192357D01*
X77916067Y-9192357D02*
X77868448Y-9216166D01*
X108781066Y-19761890D02*
X108757257Y-19785700D01*
X108757257Y-19785700D02*
X108685828Y-19809509D01*
X108685828Y-19809509D02*
X108638209Y-19809509D01*
X108638209Y-19809509D02*
X108566781Y-19785700D01*
X108566781Y-19785700D02*
X108519162Y-19738080D01*
X108519162Y-19738080D02*
X108495352Y-19690461D01*
X108495352Y-19690461D02*
X108471543Y-19595223D01*
X108471543Y-19595223D02*
X108471543Y-19523795D01*
X108471543Y-19523795D02*
X108495352Y-19428557D01*
X108495352Y-19428557D02*
X108519162Y-19380938D01*
X108519162Y-19380938D02*
X108566781Y-19333319D01*
X108566781Y-19333319D02*
X108638209Y-19309509D01*
X108638209Y-19309509D02*
X108685828Y-19309509D01*
X108685828Y-19309509D02*
X108757257Y-19333319D01*
X108757257Y-19333319D02*
X108781066Y-19357128D01*
X109233447Y-19309509D02*
X108995352Y-19309509D01*
X108995352Y-19309509D02*
X108971543Y-19547604D01*
X108971543Y-19547604D02*
X108995352Y-19523795D01*
X108995352Y-19523795D02*
X109042971Y-19499985D01*
X109042971Y-19499985D02*
X109162019Y-19499985D01*
X109162019Y-19499985D02*
X109209638Y-19523795D01*
X109209638Y-19523795D02*
X109233447Y-19547604D01*
X109233447Y-19547604D02*
X109257257Y-19595223D01*
X109257257Y-19595223D02*
X109257257Y-19714271D01*
X109257257Y-19714271D02*
X109233447Y-19761890D01*
X109233447Y-19761890D02*
X109209638Y-19785700D01*
X109209638Y-19785700D02*
X109162019Y-19809509D01*
X109162019Y-19809509D02*
X109042971Y-19809509D01*
X109042971Y-19809509D02*
X108995352Y-19785700D01*
X108995352Y-19785700D02*
X108971543Y-19761890D01*
D14*
X183238095Y-254819D02*
X183238095Y745180D01*
X183238095Y268990D02*
X183809523Y268990D01*
X183809523Y-254819D02*
X183809523Y745180D01*
X184238095Y649942D02*
X184285714Y697561D01*
X184285714Y697561D02*
X184380952Y745180D01*
X184380952Y745180D02*
X184619047Y745180D01*
X184619047Y745180D02*
X184714285Y697561D01*
X184714285Y697561D02*
X184761904Y649942D01*
X184761904Y649942D02*
X184809523Y554704D01*
X184809523Y554704D02*
X184809523Y459466D01*
X184809523Y459466D02*
X184761904Y316609D01*
X184761904Y316609D02*
X184190476Y-254819D01*
X184190476Y-254819D02*
X184809523Y-254819D01*
D10*
X121203421Y-25227309D02*
X121036755Y-24989214D01*
X120917707Y-25227309D02*
X120917707Y-24727309D01*
X120917707Y-24727309D02*
X121108183Y-24727309D01*
X121108183Y-24727309D02*
X121155802Y-24751119D01*
X121155802Y-24751119D02*
X121179612Y-24774928D01*
X121179612Y-24774928D02*
X121203421Y-24822547D01*
X121203421Y-24822547D02*
X121203421Y-24893976D01*
X121203421Y-24893976D02*
X121179612Y-24941595D01*
X121179612Y-24941595D02*
X121155802Y-24965404D01*
X121155802Y-24965404D02*
X121108183Y-24989214D01*
X121108183Y-24989214D02*
X120917707Y-24989214D01*
X121393898Y-24774928D02*
X121417707Y-24751119D01*
X121417707Y-24751119D02*
X121465326Y-24727309D01*
X121465326Y-24727309D02*
X121584374Y-24727309D01*
X121584374Y-24727309D02*
X121631993Y-24751119D01*
X121631993Y-24751119D02*
X121655802Y-24774928D01*
X121655802Y-24774928D02*
X121679612Y-24822547D01*
X121679612Y-24822547D02*
X121679612Y-24870166D01*
X121679612Y-24870166D02*
X121655802Y-24941595D01*
X121655802Y-24941595D02*
X121370088Y-25227309D01*
X121370088Y-25227309D02*
X121679612Y-25227309D01*
X122108183Y-24727309D02*
X122012945Y-24727309D01*
X122012945Y-24727309D02*
X121965326Y-24751119D01*
X121965326Y-24751119D02*
X121941516Y-24774928D01*
X121941516Y-24774928D02*
X121893897Y-24846357D01*
X121893897Y-24846357D02*
X121870088Y-24941595D01*
X121870088Y-24941595D02*
X121870088Y-25132071D01*
X121870088Y-25132071D02*
X121893897Y-25179690D01*
X121893897Y-25179690D02*
X121917707Y-25203500D01*
X121917707Y-25203500D02*
X121965326Y-25227309D01*
X121965326Y-25227309D02*
X122060564Y-25227309D01*
X122060564Y-25227309D02*
X122108183Y-25203500D01*
X122108183Y-25203500D02*
X122131992Y-25179690D01*
X122131992Y-25179690D02*
X122155802Y-25132071D01*
X122155802Y-25132071D02*
X122155802Y-25013023D01*
X122155802Y-25013023D02*
X122131992Y-24965404D01*
X122131992Y-24965404D02*
X122108183Y-24941595D01*
X122108183Y-24941595D02*
X122060564Y-24917785D01*
X122060564Y-24917785D02*
X121965326Y-24917785D01*
X121965326Y-24917785D02*
X121917707Y-24941595D01*
X121917707Y-24941595D02*
X121893897Y-24965404D01*
X121893897Y-24965404D02*
X121870088Y-25013023D01*
X14562971Y9324290D02*
X14396305Y9562385D01*
X14277257Y9324290D02*
X14277257Y9824290D01*
X14277257Y9824290D02*
X14467733Y9824290D01*
X14467733Y9824290D02*
X14515352Y9800480D01*
X14515352Y9800480D02*
X14539162Y9776671D01*
X14539162Y9776671D02*
X14562971Y9729052D01*
X14562971Y9729052D02*
X14562971Y9657623D01*
X14562971Y9657623D02*
X14539162Y9610004D01*
X14539162Y9610004D02*
X14515352Y9586195D01*
X14515352Y9586195D02*
X14467733Y9562385D01*
X14467733Y9562385D02*
X14277257Y9562385D01*
X14729638Y9824290D02*
X15062971Y9824290D01*
X15062971Y9824290D02*
X14848686Y9324290D01*
X15205828Y9824290D02*
X15515352Y9824290D01*
X15515352Y9824290D02*
X15348685Y9633814D01*
X15348685Y9633814D02*
X15420114Y9633814D01*
X15420114Y9633814D02*
X15467733Y9610004D01*
X15467733Y9610004D02*
X15491542Y9586195D01*
X15491542Y9586195D02*
X15515352Y9538576D01*
X15515352Y9538576D02*
X15515352Y9419528D01*
X15515352Y9419528D02*
X15491542Y9371909D01*
X15491542Y9371909D02*
X15467733Y9348100D01*
X15467733Y9348100D02*
X15420114Y9324290D01*
X15420114Y9324290D02*
X15277257Y9324290D01*
X15277257Y9324290D02*
X15229638Y9348100D01*
X15229638Y9348100D02*
X15205828Y9371909D01*
X14969371Y-44523709D02*
X14802705Y-44285614D01*
X14683657Y-44523709D02*
X14683657Y-44023709D01*
X14683657Y-44023709D02*
X14874133Y-44023709D01*
X14874133Y-44023709D02*
X14921752Y-44047519D01*
X14921752Y-44047519D02*
X14945562Y-44071328D01*
X14945562Y-44071328D02*
X14969371Y-44118947D01*
X14969371Y-44118947D02*
X14969371Y-44190376D01*
X14969371Y-44190376D02*
X14945562Y-44237995D01*
X14945562Y-44237995D02*
X14921752Y-44261804D01*
X14921752Y-44261804D02*
X14874133Y-44285614D01*
X14874133Y-44285614D02*
X14683657Y-44285614D01*
X15397943Y-44190376D02*
X15397943Y-44523709D01*
X15278895Y-43999900D02*
X15159848Y-44357042D01*
X15159848Y-44357042D02*
X15469371Y-44357042D01*
X15731276Y-44237995D02*
X15683657Y-44214185D01*
X15683657Y-44214185D02*
X15659847Y-44190376D01*
X15659847Y-44190376D02*
X15636038Y-44142757D01*
X15636038Y-44142757D02*
X15636038Y-44118947D01*
X15636038Y-44118947D02*
X15659847Y-44071328D01*
X15659847Y-44071328D02*
X15683657Y-44047519D01*
X15683657Y-44047519D02*
X15731276Y-44023709D01*
X15731276Y-44023709D02*
X15826514Y-44023709D01*
X15826514Y-44023709D02*
X15874133Y-44047519D01*
X15874133Y-44047519D02*
X15897942Y-44071328D01*
X15897942Y-44071328D02*
X15921752Y-44118947D01*
X15921752Y-44118947D02*
X15921752Y-44142757D01*
X15921752Y-44142757D02*
X15897942Y-44190376D01*
X15897942Y-44190376D02*
X15874133Y-44214185D01*
X15874133Y-44214185D02*
X15826514Y-44237995D01*
X15826514Y-44237995D02*
X15731276Y-44237995D01*
X15731276Y-44237995D02*
X15683657Y-44261804D01*
X15683657Y-44261804D02*
X15659847Y-44285614D01*
X15659847Y-44285614D02*
X15636038Y-44333233D01*
X15636038Y-44333233D02*
X15636038Y-44428471D01*
X15636038Y-44428471D02*
X15659847Y-44476090D01*
X15659847Y-44476090D02*
X15683657Y-44499900D01*
X15683657Y-44499900D02*
X15731276Y-44523709D01*
X15731276Y-44523709D02*
X15826514Y-44523709D01*
X15826514Y-44523709D02*
X15874133Y-44499900D01*
X15874133Y-44499900D02*
X15897942Y-44476090D01*
X15897942Y-44476090D02*
X15921752Y-44428471D01*
X15921752Y-44428471D02*
X15921752Y-44333233D01*
X15921752Y-44333233D02*
X15897942Y-44285614D01*
X15897942Y-44285614D02*
X15874133Y-44261804D01*
X15874133Y-44261804D02*
X15826514Y-44237995D01*
X30338733Y-6125509D02*
X30338733Y-6482652D01*
X30338733Y-6482652D02*
X30314924Y-6554080D01*
X30314924Y-6554080D02*
X30267305Y-6601700D01*
X30267305Y-6601700D02*
X30195876Y-6625509D01*
X30195876Y-6625509D02*
X30148257Y-6625509D01*
X30791114Y-6292176D02*
X30791114Y-6625509D01*
X30672066Y-6101700D02*
X30553019Y-6458842D01*
X30553019Y-6458842D02*
X30862542Y-6458842D01*
D14*
X179860676Y-45454219D02*
X179860676Y-46168504D01*
X179860676Y-46168504D02*
X179813057Y-46311361D01*
X179813057Y-46311361D02*
X179717819Y-46406600D01*
X179717819Y-46406600D02*
X179574962Y-46454219D01*
X179574962Y-46454219D02*
X179479724Y-46454219D01*
X180289248Y-45549457D02*
X180336867Y-45501838D01*
X180336867Y-45501838D02*
X180432105Y-45454219D01*
X180432105Y-45454219D02*
X180670200Y-45454219D01*
X180670200Y-45454219D02*
X180765438Y-45501838D01*
X180765438Y-45501838D02*
X180813057Y-45549457D01*
X180813057Y-45549457D02*
X180860676Y-45644695D01*
X180860676Y-45644695D02*
X180860676Y-45739933D01*
X180860676Y-45739933D02*
X180813057Y-45882790D01*
X180813057Y-45882790D02*
X180241629Y-46454219D01*
X180241629Y-46454219D02*
X180860676Y-46454219D01*
X181765438Y-45454219D02*
X181289248Y-45454219D01*
X181289248Y-45454219D02*
X181241629Y-45930409D01*
X181241629Y-45930409D02*
X181289248Y-45882790D01*
X181289248Y-45882790D02*
X181384486Y-45835171D01*
X181384486Y-45835171D02*
X181622581Y-45835171D01*
X181622581Y-45835171D02*
X181717819Y-45882790D01*
X181717819Y-45882790D02*
X181765438Y-45930409D01*
X181765438Y-45930409D02*
X181813057Y-46025647D01*
X181813057Y-46025647D02*
X181813057Y-46263742D01*
X181813057Y-46263742D02*
X181765438Y-46358980D01*
X181765438Y-46358980D02*
X181717819Y-46406600D01*
X181717819Y-46406600D02*
X181622581Y-46454219D01*
X181622581Y-46454219D02*
X181384486Y-46454219D01*
X181384486Y-46454219D02*
X181289248Y-46406600D01*
X181289248Y-46406600D02*
X181241629Y-46358980D01*
D10*
X18442038Y-29494909D02*
X18442038Y-29852052D01*
X18442038Y-29852052D02*
X18418229Y-29923480D01*
X18418229Y-29923480D02*
X18370610Y-29971100D01*
X18370610Y-29971100D02*
X18299181Y-29994909D01*
X18299181Y-29994909D02*
X18251562Y-29994909D01*
X18942038Y-29994909D02*
X18656324Y-29994909D01*
X18799181Y-29994909D02*
X18799181Y-29494909D01*
X18799181Y-29494909D02*
X18751562Y-29566338D01*
X18751562Y-29566338D02*
X18703943Y-29613957D01*
X18703943Y-29613957D02*
X18656324Y-29637766D01*
X19394418Y-29494909D02*
X19156323Y-29494909D01*
X19156323Y-29494909D02*
X19132514Y-29733004D01*
X19132514Y-29733004D02*
X19156323Y-29709195D01*
X19156323Y-29709195D02*
X19203942Y-29685385D01*
X19203942Y-29685385D02*
X19322990Y-29685385D01*
X19322990Y-29685385D02*
X19370609Y-29709195D01*
X19370609Y-29709195D02*
X19394418Y-29733004D01*
X19394418Y-29733004D02*
X19418228Y-29780623D01*
X19418228Y-29780623D02*
X19418228Y-29899671D01*
X19418228Y-29899671D02*
X19394418Y-29947290D01*
X19394418Y-29947290D02*
X19370609Y-29971100D01*
X19370609Y-29971100D02*
X19322990Y-29994909D01*
X19322990Y-29994909D02*
X19203942Y-29994909D01*
X19203942Y-29994909D02*
X19156323Y-29971100D01*
X19156323Y-29971100D02*
X19132514Y-29947290D01*
X99350952Y-24916109D02*
X99350952Y-25320871D01*
X99350952Y-25320871D02*
X99374762Y-25368490D01*
X99374762Y-25368490D02*
X99398571Y-25392300D01*
X99398571Y-25392300D02*
X99446190Y-25416109D01*
X99446190Y-25416109D02*
X99541428Y-25416109D01*
X99541428Y-25416109D02*
X99589047Y-25392300D01*
X99589047Y-25392300D02*
X99612857Y-25368490D01*
X99612857Y-25368490D02*
X99636666Y-25320871D01*
X99636666Y-25320871D02*
X99636666Y-24916109D01*
X100136667Y-25416109D02*
X99850953Y-25416109D01*
X99993810Y-25416109D02*
X99993810Y-24916109D01*
X99993810Y-24916109D02*
X99946191Y-24987538D01*
X99946191Y-24987538D02*
X99898572Y-25035157D01*
X99898572Y-25035157D02*
X99850953Y-25058966D01*
X100565238Y-25082776D02*
X100565238Y-25416109D01*
X100446190Y-24892300D02*
X100327143Y-25249442D01*
X100327143Y-25249442D02*
X100636666Y-25249442D01*
X120506371Y-7188890D02*
X120482562Y-7212700D01*
X120482562Y-7212700D02*
X120411133Y-7236509D01*
X120411133Y-7236509D02*
X120363514Y-7236509D01*
X120363514Y-7236509D02*
X120292086Y-7212700D01*
X120292086Y-7212700D02*
X120244467Y-7165080D01*
X120244467Y-7165080D02*
X120220657Y-7117461D01*
X120220657Y-7117461D02*
X120196848Y-7022223D01*
X120196848Y-7022223D02*
X120196848Y-6950795D01*
X120196848Y-6950795D02*
X120220657Y-6855557D01*
X120220657Y-6855557D02*
X120244467Y-6807938D01*
X120244467Y-6807938D02*
X120292086Y-6760319D01*
X120292086Y-6760319D02*
X120363514Y-6736509D01*
X120363514Y-6736509D02*
X120411133Y-6736509D01*
X120411133Y-6736509D02*
X120482562Y-6760319D01*
X120482562Y-6760319D02*
X120506371Y-6784128D01*
X120982562Y-7236509D02*
X120696848Y-7236509D01*
X120839705Y-7236509D02*
X120839705Y-6736509D01*
X120839705Y-6736509D02*
X120792086Y-6807938D01*
X120792086Y-6807938D02*
X120744467Y-6855557D01*
X120744467Y-6855557D02*
X120696848Y-6879366D01*
X121458752Y-7236509D02*
X121173038Y-7236509D01*
X121315895Y-7236509D02*
X121315895Y-6736509D01*
X121315895Y-6736509D02*
X121268276Y-6807938D01*
X121268276Y-6807938D02*
X121220657Y-6855557D01*
X121220657Y-6855557D02*
X121173038Y-6879366D01*
D15*
%TO.C,C56*%
X56665580Y-23690000D02*
X56384420Y-23690000D01*
X56665580Y-24710000D02*
X56384420Y-24710000D01*
%TO.C,C2*%
X119024452Y-21103000D02*
X117601948Y-21103000D01*
X119024452Y-19283000D02*
X117601948Y-19283000D01*
%TO.C,J27*%
X90340000Y1143000D02*
X80180000Y1143000D01*
X80180000Y-127000D02*
X90340000Y-127000D01*
X80180000Y-6477000D02*
X90340000Y-6477000D01*
X80180000Y1143000D02*
X80180000Y-6477000D01*
X90340000Y-6477000D02*
X90340000Y1143000D01*
%TO.C,C58*%
X97244780Y-28577000D02*
X96963620Y-28577000D01*
X97244780Y-27557000D02*
X96963620Y-27557000D01*
%TO.C,J2*%
X22275000Y-23605000D02*
X17075000Y-23605000D01*
X22275000Y-13895000D02*
X22275000Y-12875000D01*
X17075000Y-23035000D02*
X15715000Y-23035000D01*
X17075000Y-11355000D02*
X17075000Y-10335000D01*
X22275000Y-21515000D02*
X22275000Y-20495000D01*
X17075000Y-8815000D02*
X17075000Y-7795000D01*
X17075000Y-6275000D02*
X17075000Y-5255000D01*
X17075000Y-18975000D02*
X17075000Y-17955000D01*
X22275000Y-3165000D02*
X17075000Y-3165000D01*
X22275000Y-6275000D02*
X22275000Y-5255000D01*
X17075000Y-16435000D02*
X17075000Y-15415000D01*
X22275000Y-3735000D02*
X22275000Y-3165000D01*
X17075000Y-3735000D02*
X17075000Y-3165000D01*
X22275000Y-8815000D02*
X22275000Y-7795000D01*
X17075000Y-13895000D02*
X17075000Y-12875000D01*
X22275000Y-11355000D02*
X22275000Y-10335000D01*
X17075000Y-23605000D02*
X17075000Y-23035000D01*
X17075000Y-21515000D02*
X17075000Y-20495000D01*
X22275000Y-18975000D02*
X22275000Y-17955000D01*
X22275000Y-16435000D02*
X22275000Y-15415000D01*
X22275000Y-23605000D02*
X22275000Y-23035000D01*
%TO.C,C13*%
X114981400Y-6680252D02*
X114981400Y-5257748D01*
X113161400Y-6680252D02*
X113161400Y-5257748D01*
%TO.C,R49*%
X14844500Y-41766258D02*
X14844500Y-41291742D01*
X15889500Y-41766258D02*
X15889500Y-41291742D01*
%TO.C,J5*%
X116720000Y9725000D02*
X116720000Y15725000D01*
X122140000Y15725000D02*
X122140000Y9725000D01*
X117060000Y15725000D02*
X117060000Y9725000D01*
X116680000Y1815000D02*
X115410000Y1815000D01*
X115410000Y1815000D02*
X115410000Y3085000D01*
X119600000Y4127929D02*
X119600000Y4582071D01*
X120490000Y7065000D02*
X120490000Y9725000D01*
X116300000Y6667929D02*
X116300000Y7065000D01*
X116600000Y9725000D02*
X116600000Y15725000D01*
X121380000Y9725000D02*
X121380000Y15725000D01*
X115350000Y9725000D02*
X115350000Y7065000D01*
X118840000Y15725000D02*
X119600000Y15725000D01*
X119600000Y6667929D02*
X119600000Y7065000D01*
X116480000Y9725000D02*
X116480000Y15725000D01*
X116960000Y9725000D02*
X116960000Y15725000D01*
X122140000Y4127929D02*
X122140000Y4582071D01*
X116300000Y15725000D02*
X117060000Y15725000D01*
X116840000Y9725000D02*
X116840000Y15725000D01*
X117950000Y7065000D02*
X117950000Y9725000D01*
X116360000Y9725000D02*
X116360000Y15725000D01*
X118840000Y4127929D02*
X118840000Y4582071D01*
X121380000Y4127929D02*
X121380000Y4582071D01*
X121380000Y15725000D02*
X122140000Y15725000D01*
X116300000Y4195000D02*
X116300000Y4582071D01*
X119600000Y15725000D02*
X119600000Y9725000D01*
X123090000Y9725000D02*
X115350000Y9725000D01*
X117060000Y6667929D02*
X117060000Y7065000D01*
X116300000Y9725000D02*
X116300000Y15725000D01*
X122140000Y6667929D02*
X122140000Y7065000D01*
X117060000Y4195000D02*
X117060000Y4582071D01*
X115350000Y7065000D02*
X123090000Y7065000D01*
X121380000Y6667929D02*
X121380000Y7065000D01*
X123090000Y7065000D02*
X123090000Y9725000D01*
X118840000Y9725000D02*
X118840000Y15725000D01*
X118840000Y6667929D02*
X118840000Y7065000D01*
%TO.C,R47*%
X98032742Y-12557500D02*
X98507258Y-12557500D01*
X98032742Y-13602500D02*
X98507258Y-13602500D01*
%TO.C,C9*%
X113771000Y-19812052D02*
X113771000Y-18389548D01*
X115591000Y-19812052D02*
X115591000Y-18389548D01*
%TO.C,J3*%
X65875000Y-3115000D02*
X65875000Y-3685000D01*
X60675000Y-10285000D02*
X60675000Y-11305000D01*
X60675000Y-7745000D02*
X60675000Y-8765000D01*
X65875000Y-5205000D02*
X65875000Y-6225000D01*
X65875000Y-7745000D02*
X65875000Y-8765000D01*
X60675000Y-3115000D02*
X60675000Y-3685000D01*
X60675000Y-5205000D02*
X60675000Y-6225000D01*
X65875000Y-10285000D02*
X65875000Y-11305000D01*
X60675000Y-15935000D02*
X65875000Y-15935000D01*
X60675000Y-15365000D02*
X60675000Y-15935000D01*
X60675000Y-12825000D02*
X60675000Y-13845000D01*
X60675000Y-3115000D02*
X65875000Y-3115000D01*
X65875000Y-12825000D02*
X65875000Y-13845000D01*
X65875000Y-15365000D02*
X65875000Y-15935000D01*
X65875000Y-3685000D02*
X67235000Y-3685000D01*
%TO.C,C55*%
X39690000Y-23565580D02*
X39690000Y-23284420D01*
X40710000Y-23565580D02*
X40710000Y-23284420D01*
%TO.C,J28*%
X98831400Y1092200D02*
X98831400Y-6527800D01*
X98831400Y-177800D02*
X108991400Y-177800D01*
X98831400Y-6527800D02*
X108991400Y-6527800D01*
X108991400Y-6527800D02*
X108991400Y1092200D01*
X108991400Y1092200D02*
X98831400Y1092200D01*
%TO.C,C8*%
X111408800Y-19837452D02*
X111408800Y-18414948D01*
X113228800Y-19837452D02*
X113228800Y-18414948D01*
%TO.C,C51*%
X102477180Y15292800D02*
X102196020Y15292800D01*
X102477180Y14272800D02*
X102196020Y14272800D01*
%TO.C,K1*%
X80757600Y-12039600D02*
X80757600Y-8439600D01*
X91657600Y-15639600D02*
X91657600Y-8439600D01*
%TO.C,R50*%
X15889500Y-51900858D02*
X15889500Y-51426342D01*
X14844500Y-51900858D02*
X14844500Y-51426342D01*
%TO.C,C52*%
X188751600Y-11413400D02*
X188751600Y-8978400D01*
X164511600Y-11413400D02*
X164511600Y-8978400D01*
X164511600Y-16218400D02*
X164511600Y-13783400D01*
X188751600Y-16218400D02*
X188751600Y-13783400D01*
X188751600Y-8978400D02*
X164511600Y-8978400D01*
X188751600Y-16218400D02*
X164511600Y-16218400D01*
%TO.C,R24*%
X118654300Y-10143258D02*
X118654300Y-9668742D01*
X119699300Y-10143258D02*
X119699300Y-9668742D01*
%TO.C,U1*%
X118679800Y-21909200D02*
X118679800Y-23459200D01*
X116879800Y-23459200D02*
X116879800Y-22159200D01*
%TO.C,TP1*%
X132866400Y-36147000D02*
X116866400Y-36147000D01*
X116866400Y-30147000D01*
X132866400Y-30147000D01*
X132866400Y-36147000D01*
%TO.C,C57*%
X13940000Y-27584420D02*
X13940000Y-27865580D01*
X14960000Y-27584420D02*
X14960000Y-27865580D01*
%TO.C,R71*%
X12310342Y12482300D02*
X12784858Y12482300D01*
X12310342Y13527300D02*
X12784858Y13527300D01*
%TO.C,C14*%
X112492200Y-6680252D02*
X112492200Y-5257748D01*
X110672200Y-6680252D02*
X110672200Y-5257748D01*
%TO.C,R72*%
X12310342Y11850900D02*
X12784858Y11850900D01*
X12310342Y10805900D02*
X12784858Y10805900D01*
%TO.C,R23*%
X120512100Y-25645342D02*
X120512100Y-26119858D01*
X119467100Y-25645342D02*
X119467100Y-26119858D01*
%TO.C,U8*%
X117943200Y-8853600D02*
X117943200Y-10403600D01*
X116143200Y-10403600D02*
X116143200Y-9103600D01*
%TO.C,C3*%
X114946820Y-23975600D02*
X115227980Y-23975600D01*
X114946820Y-24995600D02*
X115227980Y-24995600D01*
D16*
%TO.C,PS2*%
X124710000Y-18020000D02*
X124710000Y2280000D01*
X124710000Y-18020000D02*
X156510000Y-18020000D01*
X124710000Y2280000D02*
X156510000Y2280000D01*
X156510000Y-18020000D02*
X156510000Y2280000D01*
D13*
X157278200Y-205600D02*
G75*
G02*
X157078200Y-205600I-100000J0D01*
G01*
X157078200Y-205600D02*
G75*
G02*
X157278200Y-205600I100000J0D01*
G01*
D15*
%TO.C,J13*%
X87147000Y-21047800D02*
X99907000Y-21047800D01*
X87147000Y-23707800D02*
X87147000Y-21047800D01*
X87147000Y-23707800D02*
X99907000Y-23707800D01*
X84547000Y-22377800D02*
X84547000Y-21047800D01*
X99907000Y-23707800D02*
X99907000Y-21047800D01*
X84547000Y-21047800D02*
X85877000Y-21047800D01*
D16*
%TO.C,PS1*%
X174990000Y-72707500D02*
X134990000Y-72707500D01*
X174990000Y-20207500D02*
X174990000Y-72707500D01*
X134990000Y-20207500D02*
X174990000Y-20207500D01*
X134990000Y-72707500D02*
X134990000Y-20207500D01*
D13*
X144930000Y-73457500D02*
G75*
G02*
X144730000Y-73457500I-100000J0D01*
G01*
X144730000Y-73457500D02*
G75*
G02*
X144930000Y-73457500I100000J0D01*
G01*
D15*
%TO.C,R25*%
X118654300Y-13242058D02*
X118654300Y-12767542D01*
X119699300Y-13242058D02*
X119699300Y-12767542D01*
%TO.C,C12*%
X114171820Y-11813000D02*
X114452980Y-11813000D01*
X114171820Y-10793000D02*
X114452980Y-10793000D01*
%TO.C,Q1*%
X77851000Y-9997000D02*
X78501000Y-9997000D01*
X77851000Y-9997000D02*
X76176000Y-9997000D01*
X77851000Y-13117000D02*
X77201000Y-13117000D01*
X77851000Y-13117000D02*
X78501000Y-13117000D01*
%TO.C,C5*%
X110771400Y-19901780D02*
X110771400Y-19620620D01*
X109751400Y-19901780D02*
X109751400Y-19620620D01*
%TO.C,R26*%
X120684058Y-23048700D02*
X120209542Y-23048700D01*
X120684058Y-24093700D02*
X120209542Y-24093700D01*
%TO.C,R73*%
X12259542Y10123700D02*
X12734058Y10123700D01*
X12259542Y9078700D02*
X12734058Y9078700D01*
%TO.C,R48*%
X14844500Y-46846258D02*
X14844500Y-46371742D01*
X15889500Y-46846258D02*
X15889500Y-46371742D01*
%TO.C,J4*%
X31835400Y-10439400D02*
X31835400Y-23199400D01*
X29175400Y-10439400D02*
X29175400Y-23199400D01*
X31835400Y-7839400D02*
X31835400Y-9169400D01*
X29175400Y-10439400D02*
X31835400Y-10439400D01*
X30505400Y-7839400D02*
X31835400Y-7839400D01*
X29175400Y-23199400D02*
X31835400Y-23199400D01*
%TO.C,J15*%
X17595000Y-33450000D02*
X20255000Y-33450000D01*
X17595000Y-53830000D02*
X20255000Y-53830000D01*
X20255000Y-30850000D02*
X20255000Y-32180000D01*
X17595000Y-33450000D02*
X17595000Y-53830000D01*
X18925000Y-30850000D02*
X20255000Y-30850000D01*
X20255000Y-33450000D02*
X20255000Y-53830000D01*
%TO.C,C11*%
X118364052Y-6202000D02*
X116941548Y-6202000D01*
X118364052Y-8022000D02*
X116941548Y-8022000D01*
%TD*%
M02*
