%TF.GenerationSoftware,KiCad,Pcbnew,8.0.4*%
%TF.CreationDate,2024-09-18T10:43:36+01:00*%
%TF.ProjectId,Main_V44,4d61696e-5f56-4343-942e-6b696361645f,rev?*%
%TF.SameCoordinates,Original*%
%TF.FileFunction,Soldermask,Bot*%
%TF.FilePolarity,Negative*%
%FSLAX46Y46*%
G04 Gerber Fmt 4.6, Leading zero omitted, Abs format (unit mm)*
G04 Created by KiCad (PCBNEW 8.0.4) date 2024-09-18 10:43:36*
%MOMM*%
%LPD*%
G01*
G04 APERTURE LIST*
G04 Aperture macros list*
%AMRoundRect*
0 Rectangle with rounded corners*
0 $1 Rounding radius*
0 $2 $3 $4 $5 $6 $7 $8 $9 X,Y pos of 4 corners*
0 Add a 4 corners polygon primitive as box body*
4,1,4,$2,$3,$4,$5,$6,$7,$8,$9,$2,$3,0*
0 Add four circle primitives for the rounded corners*
1,1,$1+$1,$2,$3*
1,1,$1+$1,$4,$5*
1,1,$1+$1,$6,$7*
1,1,$1+$1,$8,$9*
0 Add four rect primitives between the rounded corners*
20,1,$1+$1,$2,$3,$4,$5,0*
20,1,$1+$1,$4,$5,$6,$7,0*
20,1,$1+$1,$6,$7,$8,$9,0*
20,1,$1+$1,$8,$9,$2,$3,0*%
%AMFreePoly0*
4,1,9,3.862500,-0.866500,0.737500,-0.866500,0.737500,-0.450000,-0.737500,-0.450000,-0.737500,0.450000,0.737500,0.450000,0.737500,0.866500,3.862500,0.866500,3.862500,-0.866500,3.862500,-0.866500,$1*%
G04 Aperture macros list end*
%ADD10R,3.000000X3.000000*%
%ADD11C,3.000000*%
%ADD12C,5.500000*%
%ADD13C,3.600000*%
%ADD14C,1.300000*%
%ADD15C,1.200000*%
%ADD16RoundRect,0.250002X-1.699998X-1.699998X1.699998X-1.699998X1.699998X1.699998X-1.699998X1.699998X0*%
%ADD17C,3.900000*%
%ADD18R,1.700000X1.700000*%
%ADD19O,1.700000X1.700000*%
%ADD20C,1.400000*%
%ADD21C,2.600000*%
%ADD22C,3.200000*%
%ADD23C,2.400000*%
%ADD24R,0.700000X4.300000*%
%ADD25R,1.350000X1.350000*%
%ADD26C,1.350000*%
%ADD27R,1.800000X1.800000*%
%ADD28C,1.800000*%
%ADD29RoundRect,0.200000X0.200000X0.275000X-0.200000X0.275000X-0.200000X-0.275000X0.200000X-0.275000X0*%
%ADD30RoundRect,0.225000X0.250000X-0.225000X0.250000X0.225000X-0.250000X0.225000X-0.250000X-0.225000X0*%
%ADD31R,2.260600X7.696200*%
%ADD32RoundRect,0.200000X-0.200000X-0.275000X0.200000X-0.275000X0.200000X0.275000X-0.200000X0.275000X0*%
%ADD33C,2.500000*%
%ADD34RoundRect,0.250000X0.362500X1.425000X-0.362500X1.425000X-0.362500X-1.425000X0.362500X-1.425000X0*%
%ADD35RoundRect,0.200000X0.275000X-0.200000X0.275000X0.200000X-0.275000X0.200000X-0.275000X-0.200000X0*%
%ADD36RoundRect,0.250000X0.650000X-0.325000X0.650000X0.325000X-0.650000X0.325000X-0.650000X-0.325000X0*%
%ADD37RoundRect,0.225000X-0.225000X-0.250000X0.225000X-0.250000X0.225000X0.250000X-0.225000X0.250000X0*%
%ADD38RoundRect,0.150000X-0.150000X0.725000X-0.150000X-0.725000X0.150000X-0.725000X0.150000X0.725000X0*%
%ADD39RoundRect,0.225000X0.225000X0.250000X-0.225000X0.250000X-0.225000X-0.250000X0.225000X-0.250000X0*%
%ADD40R,1.000000X1.800000*%
%ADD41R,0.863600X1.244600*%
%ADD42C,2.000000*%
%ADD43RoundRect,0.200000X-0.275000X0.200000X-0.275000X-0.200000X0.275000X-0.200000X0.275000X0.200000X0*%
%ADD44R,1.803400X0.558800*%
%ADD45RoundRect,0.250000X-0.325000X-0.650000X0.325000X-0.650000X0.325000X0.650000X-0.325000X0.650000X0*%
%ADD46R,0.750000X0.250000*%
%ADD47RoundRect,0.150000X-0.150000X0.587500X-0.150000X-0.587500X0.150000X-0.587500X0.150000X0.587500X0*%
%ADD48RoundRect,0.225000X-0.250000X0.225000X-0.250000X-0.225000X0.250000X-0.225000X0.250000X0.225000X0*%
%ADD49R,2.500000X1.800000*%
%ADD50R,1.676400X0.558800*%
%ADD51R,0.812800X0.254000*%
%ADD52R,0.254000X0.812800*%
%ADD53R,3.505200X3.505200*%
%ADD54RoundRect,0.150000X-0.875000X-0.150000X0.875000X-0.150000X0.875000X0.150000X-0.875000X0.150000X0*%
%ADD55R,0.965200X0.304800*%
%ADD56R,0.304800X0.965200*%
%ADD57R,3.352800X3.352800*%
%ADD58RoundRect,0.150000X-0.725000X-0.150000X0.725000X-0.150000X0.725000X0.150000X-0.725000X0.150000X0*%
%ADD59RoundRect,0.150000X0.150000X-0.587500X0.150000X0.587500X-0.150000X0.587500X-0.150000X-0.587500X0*%
%ADD60RoundRect,0.250000X-0.700000X0.275000X-0.700000X-0.275000X0.700000X-0.275000X0.700000X0.275000X0*%
%ADD61R,0.900000X1.300000*%
%ADD62FreePoly0,270.000000*%
G04 APERTURE END LIST*
D10*
%TO.C,J27*%
X87800000Y-2667000D03*
D11*
X82720000Y-2667000D03*
%TD*%
D12*
%TO.C,H1*%
X4000000Y-4000000D03*
D13*
X4000000Y-4000000D03*
%TD*%
D14*
%TO.C,J2*%
X19675000Y-5765000D03*
X19675000Y-21005000D03*
%TD*%
D15*
%TO.C,U17*%
X61400000Y-50800000D03*
X61400000Y-41650000D03*
%TD*%
D16*
%TO.C,J23*%
X184000000Y-22800000D03*
%TD*%
D17*
%TO.C,J26*%
X184000000Y-51260000D03*
%TD*%
D18*
%TO.C,J5*%
X116680000Y3085000D03*
D19*
X116680000Y5625000D03*
X119220000Y3085000D03*
X119220000Y5625000D03*
X121760000Y3085000D03*
X121760000Y5625000D03*
%TD*%
D20*
%TO.C,J3*%
X63275000Y-5715000D03*
X63275000Y-13335000D03*
%TD*%
D15*
%TO.C,U15*%
X89400000Y-50800000D03*
X89400000Y-41650000D03*
%TD*%
D10*
%TO.C,J28*%
X106451400Y-2717800D03*
D11*
X101371400Y-2717800D03*
%TD*%
D21*
%TO.C,H12*%
X178714400Y-74091800D03*
%TD*%
%TO.C,H8*%
X173355000Y6096000D03*
%TD*%
D22*
%TO.C,H9*%
X56125000Y-1610000D03*
%TD*%
%TO.C,H4*%
X184000000Y-66000000D03*
%TD*%
D23*
%TO.C,C52*%
X187881600Y-12598400D03*
X165381600Y-12598400D03*
%TD*%
D15*
%TO.C,U19*%
X32400000Y-41650000D03*
X32400000Y-50800000D03*
%TD*%
D24*
%TO.C,J7*%
X63250000Y10000000D03*
X62250000Y10000000D03*
X61250000Y10000000D03*
X60250000Y10000000D03*
X59250000Y10000000D03*
X58250000Y10000000D03*
X57250000Y10000000D03*
X56250000Y10000000D03*
X55250000Y10000000D03*
X54250000Y10000000D03*
X53250000Y10000000D03*
X50250000Y10000000D03*
X49250000Y10000000D03*
X48250000Y10000000D03*
X47250000Y10000000D03*
X46250000Y10000000D03*
X45250000Y10000000D03*
X44250000Y10000000D03*
%TD*%
D15*
%TO.C,U16*%
X75410000Y-50780000D03*
X75410000Y-41630000D03*
%TD*%
D22*
%TO.C,H7*%
X96283000Y-41500200D03*
%TD*%
D15*
%TO.C,U18*%
X47400000Y-50800000D03*
X47400000Y-41650000D03*
%TD*%
D25*
%TO.C,PS2*%
X154510000Y-250000D03*
D26*
X126570000Y-250000D03*
X126570000Y-15490000D03*
X151970000Y-15490000D03*
X154510000Y-15490000D03*
%TD*%
D18*
%TO.C,J13*%
X85877000Y-22377800D03*
D19*
X88417000Y-22377800D03*
X90957000Y-22377800D03*
X93497000Y-22377800D03*
X96037000Y-22377800D03*
X98577000Y-22377800D03*
%TD*%
D13*
%TO.C,H6*%
X4000000Y-66000000D03*
D12*
X4000000Y-66000000D03*
%TD*%
D27*
%TO.C,PS1*%
X144830000Y-69327500D03*
D28*
X165150000Y-69327500D03*
X154990000Y-23607500D03*
X144830000Y-23607500D03*
%TD*%
D22*
%TO.C,H3*%
X94000000Y-4000000D03*
%TD*%
D17*
%TO.C,J24*%
X184000000Y-32400000D03*
%TD*%
D21*
%TO.C,H10*%
X129032000Y-41478200D03*
%TD*%
D22*
%TO.C,H5*%
X94000000Y-66000000D03*
%TD*%
%TO.C,H2*%
X184000000Y-4000000D03*
%TD*%
%TO.C,H11*%
X39411400Y-41500200D03*
%TD*%
D18*
%TO.C,J4*%
X30505400Y-9169400D03*
D19*
X30505400Y-11709400D03*
X30505400Y-14249400D03*
X30505400Y-16789400D03*
X30505400Y-19329400D03*
X30505400Y-21869400D03*
%TD*%
D17*
%TO.C,J25*%
X184000000Y-42400000D03*
%TD*%
D18*
%TO.C,J15*%
X18925000Y-32180000D03*
D19*
X18925000Y-34720000D03*
X18925000Y-37260000D03*
X18925000Y-39800000D03*
X18925000Y-42340000D03*
X18925000Y-44880000D03*
X18925000Y-47420000D03*
X18925000Y-49960000D03*
X18925000Y-52500000D03*
%TD*%
D15*
%TO.C,U14*%
X104400000Y-39650000D03*
X104400000Y-48800000D03*
%TD*%
D29*
%TO.C,R4*%
X130902900Y-51261200D03*
X129252900Y-51261200D03*
%TD*%
D30*
%TO.C,C24*%
X127076200Y-59398200D03*
X127076200Y-57848200D03*
%TD*%
D31*
%TO.C,RV3*%
X177481500Y-42025000D03*
X168718500Y-42025000D03*
%TD*%
D32*
%TO.C,R45*%
X96825000Y-60850000D03*
X98475000Y-60850000D03*
%TD*%
D33*
%TO.C,J19*%
X12877800Y-47472600D03*
%TD*%
%TO.C,J20*%
X12877800Y-52476400D03*
%TD*%
D18*
%TO.C,J21*%
X83352400Y14071600D03*
D19*
X85892400Y14071600D03*
X88432400Y14071600D03*
%TD*%
D34*
%TO.C,R5*%
X162690400Y-49911200D03*
X156765400Y-49911200D03*
%TD*%
%TO.C,R20*%
X139085400Y-64391200D03*
X133160400Y-64391200D03*
%TD*%
D30*
%TO.C,C1*%
X121640600Y7962600D03*
X121640600Y9512600D03*
%TD*%
%TO.C,C22*%
X125628400Y-66916600D03*
X125628400Y-65366600D03*
%TD*%
D32*
%TO.C,R32*%
X100089200Y-66573400D03*
X101739200Y-66573400D03*
%TD*%
D35*
%TO.C,R38*%
X89916000Y-57797200D03*
X89916000Y-56147200D03*
%TD*%
D36*
%TO.C,C18*%
X56710000Y-58235000D03*
X56710000Y-55285000D03*
%TD*%
D37*
%TO.C,C48*%
X102552200Y12801600D03*
X104102200Y12801600D03*
%TD*%
D38*
%TO.C,U3*%
X95278554Y-53535000D03*
X96548554Y-53535000D03*
X97818554Y-53535000D03*
X99088554Y-53535000D03*
X99088554Y-58685000D03*
X97818554Y-58685000D03*
X96548554Y-58685000D03*
X95278554Y-58685000D03*
%TD*%
D36*
%TO.C,C19*%
X66810000Y-58225000D03*
X66810000Y-55275000D03*
%TD*%
D37*
%TO.C,C15*%
X149593000Y-23799800D03*
X151143000Y-23799800D03*
%TD*%
D39*
%TO.C,C42*%
X93713600Y9398000D03*
X92163600Y9398000D03*
%TD*%
D37*
%TO.C,C4*%
X129302900Y-57061200D03*
X130852900Y-57061200D03*
%TD*%
D34*
%TO.C,R7*%
X146690400Y-49961200D03*
X140765400Y-49961200D03*
%TD*%
D40*
%TO.C,Y1*%
X86253000Y4089400D03*
X88753000Y4089400D03*
%TD*%
D41*
%TO.C,LED1*%
X4750001Y-18536700D03*
X3249999Y-18536700D03*
X3249999Y-15463300D03*
X4750001Y-15463300D03*
%TD*%
D32*
%TO.C,R37*%
X83925000Y-51100000D03*
X85575000Y-51100000D03*
%TD*%
D42*
%TO.C,FID1*%
X27203400Y11684000D03*
%TD*%
D31*
%TO.C,RV1*%
X177481500Y-10425000D03*
X168718500Y-10425000D03*
%TD*%
D33*
%TO.C,J32*%
X138379200Y-40411400D03*
%TD*%
D32*
%TO.C,R27*%
X101079800Y-55600600D03*
X102729800Y-55600600D03*
%TD*%
D39*
%TO.C,C34*%
X71133000Y-62153800D03*
X69583000Y-62153800D03*
%TD*%
D34*
%TO.C,R6*%
X154640400Y-49961200D03*
X148715400Y-49961200D03*
%TD*%
D43*
%TO.C,R42*%
X77300000Y-58475000D03*
X77300000Y-60125000D03*
%TD*%
D35*
%TO.C,R43*%
X69930000Y-57165000D03*
X69930000Y-55515000D03*
%TD*%
D39*
%TO.C,C28*%
X103162400Y-54025800D03*
X101612400Y-54025800D03*
%TD*%
D44*
%TO.C,U4*%
X123373400Y-59515000D03*
X123373400Y-60785000D03*
X123373400Y-62055000D03*
X123373400Y-63325000D03*
X107066600Y-63325000D03*
X107066600Y-62055000D03*
X107066600Y-60785000D03*
X107066600Y-59515000D03*
%TD*%
D39*
%TO.C,C29*%
X104991200Y-61112400D03*
X103441200Y-61112400D03*
%TD*%
D32*
%TO.C,R34*%
X103721400Y9474200D03*
X105371400Y9474200D03*
%TD*%
D45*
%TO.C,C53*%
X139901400Y-43840400D03*
X142851400Y-43840400D03*
%TD*%
D32*
%TO.C,R30*%
X100200000Y-60875000D03*
X101850000Y-60875000D03*
%TD*%
D39*
%TO.C,C31*%
X103162400Y-52476400D03*
X101612400Y-52476400D03*
%TD*%
D33*
%TO.C,J10*%
X179933600Y-58597800D03*
%TD*%
D32*
%TO.C,R31*%
X102984800Y-69748400D03*
X104634800Y-69748400D03*
%TD*%
D37*
%TO.C,C38*%
X89979200Y-52755800D03*
X91529200Y-52755800D03*
%TD*%
D41*
%TO.C,LED2*%
X4750001Y-36536700D03*
X3249999Y-36536700D03*
X3249999Y-33463300D03*
X4750001Y-33463300D03*
%TD*%
D46*
%TO.C,U9*%
X82753800Y11113200D03*
X82753800Y10613200D03*
X82753800Y10113200D03*
X82753800Y9613200D03*
X79653800Y9613200D03*
X79653800Y10113200D03*
X79653800Y10613200D03*
X79653800Y11113200D03*
%TD*%
D33*
%TO.C,J11*%
X100634800Y-10744200D03*
%TD*%
D44*
%TO.C,U6*%
X123473400Y-67015000D03*
X123473400Y-68285000D03*
X123473400Y-69555000D03*
X123473400Y-70825000D03*
X107166600Y-70825000D03*
X107166600Y-69555000D03*
X107166600Y-68285000D03*
X107166600Y-67015000D03*
%TD*%
D47*
%TO.C,Q3*%
X83835200Y-64492900D03*
X85735200Y-64492900D03*
X84785200Y-66367900D03*
%TD*%
D36*
%TO.C,C17*%
X66950000Y-64425000D03*
X66950000Y-61475000D03*
%TD*%
D34*
%TO.C,R12*%
X146640400Y-57861200D03*
X140715400Y-57861200D03*
%TD*%
D35*
%TO.C,R3*%
X97993200Y-49567600D03*
X97993200Y-47917600D03*
%TD*%
D37*
%TO.C,C7*%
X129477900Y-65831200D03*
X131027900Y-65831200D03*
%TD*%
D32*
%TO.C,R51*%
X102476800Y4064000D03*
X104126800Y4064000D03*
%TD*%
D33*
%TO.C,J22*%
X12877800Y-58369200D03*
%TD*%
D37*
%TO.C,C49*%
X101409200Y5638800D03*
X102959200Y5638800D03*
%TD*%
%TO.C,C45*%
X81775000Y1727200D03*
X83325000Y1727200D03*
%TD*%
D31*
%TO.C,RV2*%
X177481500Y-27325000D03*
X168718500Y-27325000D03*
%TD*%
D39*
%TO.C,C35*%
X82385200Y-60248800D03*
X80835200Y-60248800D03*
%TD*%
D35*
%TO.C,R14*%
X132477900Y-54611200D03*
X132477900Y-52961200D03*
%TD*%
D33*
%TO.C,J17*%
X78790800Y-4470400D03*
%TD*%
D48*
%TO.C,C25*%
X145135600Y7506000D03*
X145135600Y5956000D03*
%TD*%
D49*
%TO.C,D6*%
X184372000Y-37058600D03*
X180372000Y-37058600D03*
%TD*%
D37*
%TO.C,C50*%
X101409200Y7239000D03*
X102959200Y7239000D03*
%TD*%
D33*
%TO.C,J9*%
X170154600Y-61493400D03*
%TD*%
D37*
%TO.C,C37*%
X98475800Y-51231800D03*
X100025800Y-51231800D03*
%TD*%
D50*
%TO.C,PS3*%
X154508200Y-32740600D03*
X154508200Y-35280600D03*
X154508200Y-40360600D03*
X145161000Y-40360600D03*
X145161000Y-32740600D03*
%TD*%
D39*
%TO.C,C33*%
X92951600Y-59969400D03*
X91401600Y-59969400D03*
%TD*%
D34*
%TO.C,R11*%
X154590400Y-57811200D03*
X148665400Y-57811200D03*
%TD*%
D44*
%TO.C,U7*%
X123423400Y-52265000D03*
X123423400Y-53535000D03*
X123423400Y-54805000D03*
X123423400Y-56075000D03*
X107116600Y-56075000D03*
X107116600Y-54805000D03*
X107116600Y-53535000D03*
X107116600Y-52265000D03*
%TD*%
D42*
%TO.C,FID2*%
X181432200Y-68503800D03*
%TD*%
D49*
%TO.C,D5*%
X184372000Y-27609800D03*
X180372000Y-27609800D03*
%TD*%
D33*
%TO.C,J6*%
X163171100Y-45907400D03*
%TD*%
D37*
%TO.C,C46*%
X103009400Y635000D03*
X104559400Y635000D03*
%TD*%
D34*
%TO.C,R19*%
X147085400Y-64391200D03*
X141160400Y-64391200D03*
%TD*%
D32*
%TO.C,R46*%
X72925000Y-60740000D03*
X74575000Y-60740000D03*
%TD*%
D43*
%TO.C,R35*%
X80425000Y-64250000D03*
X80425000Y-65900000D03*
%TD*%
D30*
%TO.C,C23*%
X126949200Y-51956000D03*
X126949200Y-50406000D03*
%TD*%
D49*
%TO.C,D4*%
X184372000Y-17932400D03*
X180372000Y-17932400D03*
%TD*%
D34*
%TO.C,R8*%
X138740400Y-49961200D03*
X132815400Y-49961200D03*
%TD*%
D39*
%TO.C,C27*%
X105067400Y-67970400D03*
X103517400Y-67970400D03*
%TD*%
D35*
%TO.C,R41*%
X93440000Y-57195000D03*
X93440000Y-55545000D03*
%TD*%
D33*
%TO.C,J12*%
X142595600Y-27990800D03*
%TD*%
D30*
%TO.C,C20*%
X127285648Y-66942000D03*
X127285648Y-65392000D03*
%TD*%
D33*
%TO.C,J16*%
X76504800Y-11252200D03*
%TD*%
%TO.C,J8*%
X169214800Y-54457600D03*
%TD*%
D51*
%TO.C,U22*%
X85509100Y7546401D03*
X85509100Y8046400D03*
X85509100Y8546399D03*
X85509100Y9046400D03*
X85509100Y9546400D03*
X85509100Y10046401D03*
X85509100Y10546400D03*
X85509100Y11046399D03*
D52*
X86210201Y11747500D03*
X86710200Y11747500D03*
X87210199Y11747500D03*
X87710200Y11747500D03*
X88210200Y11747500D03*
X88710201Y11747500D03*
X89210200Y11747500D03*
X89710199Y11747500D03*
D51*
X90411300Y11046399D03*
X90411300Y10546400D03*
X90411300Y10046401D03*
X90411300Y9546400D03*
X90411300Y9046400D03*
X90411300Y8546399D03*
X90411300Y8046400D03*
X90411300Y7546401D03*
D52*
X89710199Y6845300D03*
X89210200Y6845300D03*
X88710201Y6845300D03*
X88210200Y6845300D03*
X87710200Y6845300D03*
X87210199Y6845300D03*
X86710200Y6845300D03*
X86210201Y6845300D03*
D53*
X87960200Y9296400D03*
%TD*%
D35*
%TO.C,R39*%
X82390000Y-56980000D03*
X82390000Y-55330000D03*
%TD*%
D54*
%TO.C,U2*%
X124990000Y5615000D03*
X124990000Y6885000D03*
X124990000Y8155000D03*
X124990000Y9425000D03*
X124990000Y10695000D03*
X124990000Y11965000D03*
X124990000Y13235000D03*
X124990000Y14505000D03*
X134290000Y14505000D03*
X134290000Y13235000D03*
X134290000Y11965000D03*
X134290000Y10695000D03*
X134290000Y9425000D03*
X134290000Y8155000D03*
X134290000Y6885000D03*
X134290000Y5615000D03*
%TD*%
D55*
%TO.C,U11*%
X99682300Y13466600D03*
X99682300Y12816599D03*
X99682300Y12166600D03*
X99682300Y11516601D03*
X99682300Y10866600D03*
D56*
X98658200Y9842500D03*
X98008199Y9842500D03*
X97358200Y9842500D03*
X96708201Y9842500D03*
X96058200Y9842500D03*
D55*
X95034100Y10866600D03*
X95034100Y11516601D03*
X95034100Y12166600D03*
X95034100Y12816599D03*
X95034100Y13466600D03*
D56*
X96058200Y14490700D03*
X96708201Y14490700D03*
X97358200Y14490700D03*
X98008199Y14490700D03*
X98658200Y14490700D03*
D57*
X97358200Y12166600D03*
%TD*%
D32*
%TO.C,R36*%
X95265000Y-51060000D03*
X96915000Y-51060000D03*
%TD*%
D29*
%TO.C,R28*%
X102552000Y-57378600D03*
X100902000Y-57378600D03*
%TD*%
D55*
%TO.C,U20*%
X99707700Y5084600D03*
X99707700Y4434599D03*
X99707700Y3784600D03*
X99707700Y3134601D03*
X99707700Y2484600D03*
D56*
X98683600Y1460500D03*
X98033599Y1460500D03*
X97383600Y1460500D03*
X96733601Y1460500D03*
X96083600Y1460500D03*
D55*
X95059500Y2484600D03*
X95059500Y3134601D03*
X95059500Y3784600D03*
X95059500Y4434599D03*
X95059500Y5084600D03*
D56*
X96083600Y6108700D03*
X96733601Y6108700D03*
X97383600Y6108700D03*
X98033599Y6108700D03*
X98683600Y6108700D03*
D57*
X97383600Y3784600D03*
%TD*%
D34*
%TO.C,R10*%
X162890400Y-57761200D03*
X156965400Y-57761200D03*
%TD*%
D32*
%TO.C,R53*%
X102451400Y2463800D03*
X104101400Y2463800D03*
%TD*%
D39*
%TO.C,C32*%
X105423000Y-59105800D03*
X103873000Y-59105800D03*
%TD*%
D58*
%TO.C,U21*%
X59135000Y-59055000D03*
X59135000Y-57785000D03*
X59135000Y-56515000D03*
X59135000Y-55245000D03*
X64285000Y-55245000D03*
X64285000Y-56515000D03*
X64285000Y-57785000D03*
X64285000Y-59055000D03*
%TD*%
D33*
%TO.C,J14*%
X155905200Y-27990800D03*
%TD*%
D29*
%TO.C,R9*%
X130902900Y-49661200D03*
X129252900Y-49661200D03*
%TD*%
D30*
%TO.C,C10*%
X137668000Y6032200D03*
X137668000Y7582200D03*
%TD*%
%TO.C,C39*%
X77825600Y-52654200D03*
X77825600Y-51104200D03*
%TD*%
D33*
%TO.C,J18*%
X12877800Y-42392600D03*
%TD*%
D35*
%TO.C,R33*%
X77724000Y9639800D03*
X77724000Y11289800D03*
%TD*%
D29*
%TO.C,R21*%
X131097900Y-62591200D03*
X129447900Y-62591200D03*
%TD*%
D59*
%TO.C,Q2*%
X87818000Y-70812900D03*
X85918000Y-70812900D03*
X86868000Y-68937900D03*
%TD*%
D38*
%TO.C,U12*%
X84418554Y-53535000D03*
X85688554Y-53535000D03*
X86958554Y-53535000D03*
X88228554Y-53535000D03*
X88228554Y-58685000D03*
X86958554Y-58685000D03*
X85688554Y-58685000D03*
X84418554Y-58685000D03*
%TD*%
D39*
%TO.C,C41*%
X86677800Y1803400D03*
X85127800Y1803400D03*
%TD*%
D59*
%TO.C,Q4*%
X84236600Y-70812900D03*
X82336600Y-70812900D03*
X83286600Y-68937900D03*
%TD*%
D32*
%TO.C,R22*%
X71755000Y-51080000D03*
X73405000Y-51080000D03*
%TD*%
D29*
%TO.C,R1*%
X130902900Y-55511200D03*
X129252900Y-55511200D03*
%TD*%
D32*
%TO.C,R40*%
X100648000Y-58978800D03*
X102298000Y-58978800D03*
%TD*%
D38*
%TO.C,U13*%
X71778554Y-53535000D03*
X73048554Y-53535000D03*
X74318554Y-53535000D03*
X75588554Y-53535000D03*
X75588554Y-58685000D03*
X74318554Y-58685000D03*
X73048554Y-58685000D03*
X71778554Y-58685000D03*
%TD*%
D39*
%TO.C,C36*%
X62624000Y-61544200D03*
X61074000Y-61544200D03*
%TD*%
D37*
%TO.C,C47*%
X102577600Y14427200D03*
X104127600Y14427200D03*
%TD*%
%TO.C,C44*%
X88404400Y1803400D03*
X89954400Y1803400D03*
%TD*%
D34*
%TO.C,R17*%
X163335400Y-64441200D03*
X157410400Y-64441200D03*
%TD*%
D39*
%TO.C,C30*%
X105042000Y-65786000D03*
X103492000Y-65786000D03*
%TD*%
D41*
%TO.C,LED3*%
X4750001Y-54536700D03*
X3249999Y-54536700D03*
X3249999Y-51463300D03*
X4750001Y-51463300D03*
%TD*%
D30*
%TO.C,C26*%
X125476000Y-59411200D03*
X125476000Y-57861200D03*
%TD*%
D60*
%TO.C,L3*%
X141579600Y-38252200D03*
X141579600Y-41402200D03*
%TD*%
D34*
%TO.C,R18*%
X155135400Y-64291200D03*
X149210400Y-64291200D03*
%TD*%
%TO.C,R13*%
X138776300Y-57861200D03*
X132851300Y-57861200D03*
%TD*%
D29*
%TO.C,R16*%
X131097900Y-64191200D03*
X129447900Y-64191200D03*
%TD*%
D32*
%TO.C,R44*%
X85331800Y-60680600D03*
X86981800Y-60680600D03*
%TD*%
D37*
%TO.C,C43*%
X82943400Y4267200D03*
X84493400Y4267200D03*
%TD*%
D35*
%TO.C,R15*%
X87090000Y-51190000D03*
X87090000Y-49540000D03*
%TD*%
D32*
%TO.C,R29*%
X103035600Y-62839600D03*
X104685600Y-62839600D03*
%TD*%
D37*
%TO.C,C6*%
X129302900Y-52961200D03*
X130852900Y-52961200D03*
%TD*%
D30*
%TO.C,C21*%
X125374400Y-51956000D03*
X125374400Y-50406000D03*
%TD*%
D35*
%TO.C,R2*%
X73660000Y-49390000D03*
X73660000Y-47740000D03*
%TD*%
D29*
%TO.C,R52*%
X105346000Y11074400D03*
X103696000Y11074400D03*
%TD*%
D61*
%TO.C,U5*%
X140028800Y7441200D03*
D62*
X141528800Y7353700D03*
D61*
X143028800Y7441200D03*
%TD*%
D30*
%TO.C,C40*%
X78841600Y12928000D03*
X78841600Y14478000D03*
%TD*%
M02*
