%TF.GenerationSoftware,KiCad,Pcbnew,8.0.4*%
%TF.CreationDate,2024-11-07T22:09:53+00:00*%
%TF.ProjectId,BG95V4,42473935-5634-42e6-9b69-6361645f7063,rev?*%
%TF.SameCoordinates,Original*%
%TF.FileFunction,Copper,L3,Inr*%
%TF.FilePolarity,Positive*%
%FSLAX46Y46*%
G04 Gerber Fmt 4.6, Leading zero omitted, Abs format (unit mm)*
G04 Created by KiCad (PCBNEW 8.0.4) date 2024-11-07 22:09:53*
%MOMM*%
%LPD*%
G01*
G04 APERTURE LIST*
%TA.AperFunction,ComponentPad*%
%ADD10R,2.400000X2.400000*%
%TD*%
%TA.AperFunction,ComponentPad*%
%ADD11C,2.400000*%
%TD*%
%TA.AperFunction,ViaPad*%
%ADD12C,0.600000*%
%TD*%
%TA.AperFunction,ViaPad*%
%ADD13C,0.800000*%
%TD*%
%TA.AperFunction,ViaPad*%
%ADD14C,1.200000*%
%TD*%
%TA.AperFunction,Conductor*%
%ADD15C,1.000000*%
%TD*%
G04 APERTURE END LIST*
D10*
%TO.N,/+3V6d*%
%TO.C,BT1*%
X11750000Y19500000D03*
D11*
%TO.N,GND*%
X11750000Y-1500000D03*
X15500000Y-1500000D03*
X8000000Y-1500000D03*
%TD*%
D12*
%TO.N,GND*%
X30022800Y15189200D03*
X22533000Y45394D03*
X12733000Y9845394D03*
X71533000Y8445394D03*
X58933000Y-1354606D03*
D13*
X39370000Y16510000D03*
D12*
X26339800Y16967200D03*
X11333000Y11245394D03*
X30933000Y18245394D03*
X70133000Y8445394D03*
X70133000Y7045394D03*
D13*
X58432288Y3644211D03*
D12*
X28524200Y17830800D03*
X5733000Y4245394D03*
X60333000Y-1354606D03*
X29533000Y14045394D03*
X32333000Y-1354606D03*
D13*
X36195000Y13335000D03*
D12*
X11333000Y12645394D03*
X70133000Y5645394D03*
X26035000Y17780000D03*
X24917400Y19862800D03*
X72933000Y11245394D03*
X72933000Y-1354606D03*
X72933000Y4245394D03*
X5733000Y11245394D03*
X72933000Y9845394D03*
X5733000Y21045394D03*
X33733000Y21045394D03*
X14133000Y18245394D03*
X5733000Y19645394D03*
D13*
X35560000Y-1270000D03*
D12*
X30124400Y17195800D03*
X29794200Y18237200D03*
X12733000Y8445394D03*
X70133000Y11245394D03*
X71533000Y1445394D03*
D13*
X60147200Y10947400D03*
D12*
X22533000Y18245394D03*
X29533000Y-1354606D03*
X8533000Y16845394D03*
X7133000Y21045394D03*
X26390600Y15240000D03*
X33733000Y19645394D03*
X70133000Y9845394D03*
X44933000Y9845394D03*
X29286200Y17221200D03*
X9933000Y45394D03*
X8533000Y21045394D03*
X70133000Y-1354606D03*
X5733000Y1445394D03*
X7133000Y1445394D03*
X25333000Y16845394D03*
X72933000Y5645394D03*
X71533000Y9845394D03*
X9933000Y15445394D03*
X8533000Y15445394D03*
X49133000Y-1354606D03*
X14133000Y9845394D03*
X57533000Y21045394D03*
X31673800Y17145000D03*
X8533000Y2845394D03*
X28371800Y15189200D03*
X70133000Y45394D03*
X57533000Y-1354606D03*
X9933000Y12645394D03*
X25333000Y15445394D03*
X32333000Y19645394D03*
X72933000Y12645394D03*
D13*
X36195000Y14478000D03*
D12*
X72933000Y7045394D03*
X18333000Y-1354606D03*
X71533000Y-1354606D03*
X43533000Y-1354606D03*
X7133000Y15445394D03*
X30911800Y17170400D03*
X8533000Y14045394D03*
X63133000Y-1354606D03*
X26339800Y21717000D03*
X12733000Y11245394D03*
X8533000Y12645394D03*
X68733000Y-1354606D03*
X23933000Y16845394D03*
X7133000Y18245394D03*
X28346400Y17170400D03*
X22533000Y-1354606D03*
X70133000Y1445394D03*
X24892000Y18923000D03*
X7133000Y16845394D03*
X8533000Y1445394D03*
X71533000Y4245394D03*
X23933000Y-1354606D03*
X29845000Y19253200D03*
X8533000Y18245394D03*
X29210000Y21717000D03*
X30933000Y-1354606D03*
X8533000Y19645394D03*
X24892000Y20751800D03*
X30933000Y19645394D03*
X14133000Y11245394D03*
X11333000Y5645394D03*
X14133000Y16845394D03*
X30933000Y21045394D03*
X71533000Y12645394D03*
D13*
X25400000Y3810000D03*
X36195000Y16637000D03*
X49430000Y13150000D03*
X36195000Y15494000D03*
D12*
X22533000Y19645394D03*
X23933000Y19645394D03*
X23933000Y21045394D03*
X9933000Y4245394D03*
X19733000Y-1354606D03*
X70133000Y15445394D03*
X72933000Y14045394D03*
X44933000Y-1354606D03*
X32333000Y21045394D03*
X72933000Y45394D03*
X21133000Y-1354606D03*
X56133000Y-1354606D03*
X33248600Y15240000D03*
X50533000Y-1354606D03*
X71533000Y2845394D03*
X25425400Y21590000D03*
X5733000Y-1354606D03*
X23933000Y18245394D03*
X29184600Y15138400D03*
X71533000Y11245394D03*
X71533000Y15445394D03*
X5733000Y18245394D03*
X29845000Y21107400D03*
X26111200Y16129000D03*
X47733000Y-1354606D03*
X72933000Y8445394D03*
X5733000Y15445394D03*
X28371800Y21742400D03*
D13*
X54250000Y6740000D03*
D12*
X68733000Y45394D03*
X47733000Y12645394D03*
X51933000Y-1354606D03*
X71533000Y14045394D03*
X22533000Y16845394D03*
X64533000Y-1354606D03*
X29870400Y20193000D03*
X9933000Y14045394D03*
X9933000Y16845394D03*
X54733000Y-1354606D03*
X72933000Y1445394D03*
X23933000Y45394D03*
X71533000Y45394D03*
X7133000Y19645394D03*
X46333000Y-1354606D03*
X70133000Y2845394D03*
X5733000Y16845394D03*
X71533000Y7045394D03*
X25146000Y18059400D03*
X72933000Y2845394D03*
X70133000Y4245394D03*
X61733000Y-1354606D03*
X5733000Y45394D03*
X30988000Y15138400D03*
X11333000Y9845394D03*
X53333000Y-1354606D03*
X23933000Y15445394D03*
X51933000Y16845394D03*
D13*
%TO.N,/uGND*%
X42675000Y10600000D03*
X34510000Y1960000D03*
X42400000Y13250000D03*
%TO.N,/uRST*%
X41540000Y719989D03*
%TO.N,/uCLK*%
X32580000Y9900000D03*
X39200000Y5700000D03*
%TO.N,/uData*%
X40130000Y720000D03*
%TO.N,/uVDD*%
X43070000Y530000D03*
%TO.N,/VBAT*%
X57960000Y830000D03*
X47233980Y10491020D03*
D14*
X28200000Y11900000D03*
D13*
%TO.N,/uStatus*%
X67825000Y16100000D03*
%TO.N,/uPWRKEY*%
X68675000Y13500000D03*
%TO.N,/uDTR*%
X63275000Y16125000D03*
%TO.N,/TxD*%
X64050000Y11275000D03*
%TO.N,/RxD*%
X64050000Y7550000D03*
%TO.N,/uDCD*%
X64625000Y16025000D03*
%TO.N,/RXD*%
X50775000Y3850000D03*
%TO.N,/TXD*%
X51800000Y2950000D03*
%TO.N,/VDD_EXT*%
X58350000Y14625000D03*
%TO.N,/DTR*%
X58975000Y13350000D03*
%TO.N,/DCD*%
X48768000Y3048000D03*
%TO.N,/PWRKEY*%
X51917600Y21234400D03*
%TO.N,/Status*%
X53695600Y16738600D03*
%TO.N,/Alim*%
X20400000Y475000D03*
X30962600Y330200D03*
%TO.N,Net-(Q1-C)*%
X15417800Y5308600D03*
%TO.N,/+3V6d*%
X19126200Y14833600D03*
X15392400Y7239000D03*
%TO.N,/+3V3_UC*%
X68500000Y3275000D03*
X67250000Y13500000D03*
X63525000Y14300000D03*
%TO.N,/T*%
X59512200Y8763000D03*
X54889400Y13182600D03*
%TO.N,/D+*%
X59283600Y18389600D03*
X44983400Y21234400D03*
%TO.N,/D-*%
X46151800Y21183600D03*
X59125498Y19659600D03*
%TD*%
D15*
%TO.N,/VBAT*%
X45825000Y11900000D02*
X47233980Y10491020D01*
X47233980Y2448420D02*
X48209200Y1473200D01*
X57316800Y1473200D02*
X57960000Y830000D01*
X48209200Y1473200D02*
X57316800Y1473200D01*
X47233980Y10491020D02*
X47233980Y2448420D01*
X28200000Y11900000D02*
X45825000Y11900000D01*
%TD*%
%TA.AperFunction,Conductor*%
%TO.N,GND*%
G36*
X74361321Y22264398D02*
G01*
X74407814Y22210742D01*
X74419200Y22158400D01*
X74419200Y-2654000D01*
X74399198Y-2722121D01*
X74345542Y-2768614D01*
X74293200Y-2780000D01*
X28282337Y-2780000D01*
X28214216Y-2759998D01*
X28167723Y-2706342D01*
X28157619Y-2636068D01*
X28187113Y-2571488D01*
X28219337Y-2544881D01*
X28331087Y-2480361D01*
X28388527Y-2447199D01*
X28586176Y-2295538D01*
X28762338Y-2119376D01*
X28913999Y-1921727D01*
X29038564Y-1705973D01*
X29133902Y-1475807D01*
X29198382Y-1235165D01*
X29230900Y-988165D01*
X29230900Y-739035D01*
X29198382Y-492035D01*
X29133902Y-251393D01*
X29038564Y-21227D01*
X29038558Y-21218D01*
X29038557Y-21214D01*
X28948399Y134944D01*
X28913999Y194527D01*
X28809894Y330200D01*
X30356918Y330200D01*
X30356918Y330199D01*
X30377555Y173439D01*
X30438063Y27360D01*
X30438065Y27357D01*
X30454865Y5463D01*
X30534318Y-98082D01*
X30659759Y-194336D01*
X30805838Y-254844D01*
X30962600Y-275482D01*
X31119362Y-254844D01*
X31265441Y-194336D01*
X31390882Y-98082D01*
X31487136Y27359D01*
X31547644Y173438D01*
X31568282Y330200D01*
X31547644Y486962D01*
X31487136Y633041D01*
X31420410Y720000D01*
X39524318Y720000D01*
X39524318Y719999D01*
X39544955Y563239D01*
X39605463Y417160D01*
X39605465Y417157D01*
X39701718Y291718D01*
X39827157Y195465D01*
X39827160Y195463D01*
X39973239Y134955D01*
X40130000Y114318D01*
X40286760Y134955D01*
X40432839Y195463D01*
X40432842Y195465D01*
X40558282Y291718D01*
X40654536Y417159D01*
X40715044Y563238D01*
X40715044Y563239D01*
X40718204Y570868D01*
X40721180Y569634D01*
X40750224Y617305D01*
X40814078Y648339D01*
X40884575Y639925D01*
X40939331Y594733D01*
X40950491Y570316D01*
X40951796Y570857D01*
X41015463Y417149D01*
X41015465Y417146D01*
X41111718Y291707D01*
X41237157Y195454D01*
X41237160Y195452D01*
X41383239Y134944D01*
X41540000Y114307D01*
X41696760Y134944D01*
X41842839Y195452D01*
X41842842Y195454D01*
X41842855Y195464D01*
X41968282Y291707D01*
X42064536Y417148D01*
X42111281Y530000D01*
X42464318Y530000D01*
X42464318Y529999D01*
X42484955Y373239D01*
X42545463Y227160D01*
X42545465Y227157D01*
X42641718Y101718D01*
X42767157Y5465D01*
X42767160Y5463D01*
X42852731Y-29981D01*
X42913238Y-55044D01*
X43070000Y-75682D01*
X43226762Y-55044D01*
X43372841Y5464D01*
X43498282Y101718D01*
X43594536Y227159D01*
X43655044Y373238D01*
X43675682Y530000D01*
X43655044Y686762D01*
X43594536Y832841D01*
X43498282Y958282D01*
X43372841Y1054536D01*
X43226762Y1115044D01*
X43070000Y1135682D01*
X42913238Y1115044D01*
X42767159Y1054536D01*
X42641718Y958282D01*
X42554458Y844562D01*
X42545465Y832842D01*
X42545463Y832839D01*
X42484955Y686760D01*
X42464318Y530000D01*
X42111281Y530000D01*
X42125044Y563227D01*
X42145682Y719989D01*
X42125044Y876751D01*
X42064536Y1022830D01*
X41968282Y1148271D01*
X41842841Y1244525D01*
X41696762Y1305033D01*
X41540000Y1325671D01*
X41383238Y1305033D01*
X41237159Y1244525D01*
X41111718Y1148271D01*
X41015471Y1022839D01*
X41015465Y1022831D01*
X41015463Y1022828D01*
X41005815Y999536D01*
X40964170Y898994D01*
X40951796Y869121D01*
X40948827Y870350D01*
X40919731Y822643D01*
X40855862Y791639D01*
X40785369Y800087D01*
X40730635Y845305D01*
X40719514Y869674D01*
X40718204Y869132D01*
X40715044Y876762D01*
X40654536Y1022841D01*
X40558282Y1148282D01*
X40432841Y1244536D01*
X40286762Y1305044D01*
X40130000Y1325682D01*
X39973238Y1305044D01*
X39827159Y1244536D01*
X39701718Y1148282D01*
X39608393Y1026658D01*
X39605465Y1022842D01*
X39605463Y1022839D01*
X39544955Y876760D01*
X39524318Y720000D01*
X31420410Y720000D01*
X31390882Y758482D01*
X31265441Y854736D01*
X31119362Y915244D01*
X30962600Y935882D01*
X30805838Y915244D01*
X30659759Y854736D01*
X30534318Y758482D01*
X30438065Y633042D01*
X30438063Y633039D01*
X30377555Y486960D01*
X30356918Y330200D01*
X28809894Y330200D01*
X28762338Y392176D01*
X28586176Y568338D01*
X28388527Y719999D01*
X28172773Y844564D01*
X27942607Y939902D01*
X27701965Y1004382D01*
X27701958Y1004382D01*
X27701958Y1004383D01*
X27678190Y1007511D01*
X27454965Y1036900D01*
X27205835Y1036900D01*
X27022499Y1012763D01*
X26958841Y1004383D01*
X26958839Y1004382D01*
X26958835Y1004382D01*
X26718193Y939902D01*
X26488027Y844564D01*
X26488018Y844558D01*
X26488014Y844557D01*
X26272276Y720001D01*
X26272273Y719999D01*
X26074624Y568338D01*
X26074618Y568332D01*
X26074613Y568328D01*
X25898471Y392186D01*
X25898466Y392180D01*
X25898462Y392176D01*
X25771839Y227157D01*
X25746798Y194523D01*
X25622242Y-21214D01*
X25622237Y-21225D01*
X25526898Y-251393D01*
X25526897Y-251397D01*
X25462416Y-492041D01*
X25429900Y-739032D01*
X25429900Y-988167D01*
X25462416Y-1235158D01*
X25462418Y-1235165D01*
X25526898Y-1475807D01*
X25622236Y-1705973D01*
X25622237Y-1705974D01*
X25622242Y-1705985D01*
X25746798Y-1921723D01*
X25746800Y-1921726D01*
X25746801Y-1921727D01*
X25898462Y-2119376D01*
X25898466Y-2119380D01*
X25898471Y-2119386D01*
X26074613Y-2295528D01*
X26074618Y-2295532D01*
X26074624Y-2295538D01*
X26272273Y-2447199D01*
X26272276Y-2447201D01*
X26441463Y-2544881D01*
X26490456Y-2596263D01*
X26503892Y-2665977D01*
X26477506Y-2731888D01*
X26419674Y-2773070D01*
X26378463Y-2780000D01*
X4300400Y-2780000D01*
X4232279Y-2759998D01*
X4185786Y-2706342D01*
X4174400Y-2654000D01*
X4174400Y475000D01*
X19794318Y475000D01*
X19794318Y474999D01*
X19814955Y318239D01*
X19875463Y172160D01*
X19875465Y172157D01*
X19919847Y114318D01*
X19971718Y46718D01*
X20097159Y-49536D01*
X20243238Y-110044D01*
X20400000Y-130682D01*
X20556762Y-110044D01*
X20702841Y-49536D01*
X20828282Y46718D01*
X20924536Y172159D01*
X20985044Y318238D01*
X21005682Y475000D01*
X20985044Y631762D01*
X20924536Y777841D01*
X20828282Y903282D01*
X20702841Y999536D01*
X20556762Y1060044D01*
X20400000Y1080682D01*
X20243238Y1060044D01*
X20097159Y999536D01*
X19971718Y903282D01*
X19892176Y799620D01*
X19875465Y777842D01*
X19875463Y777839D01*
X19814955Y631760D01*
X19794318Y475000D01*
X4174400Y475000D01*
X4174400Y1960000D01*
X33904318Y1960000D01*
X33904318Y1959999D01*
X33924955Y1803239D01*
X33985463Y1657160D01*
X33985465Y1657157D01*
X34081718Y1531718D01*
X34207157Y1435465D01*
X34207160Y1435463D01*
X34353239Y1374955D01*
X34510000Y1354318D01*
X34666760Y1374955D01*
X34812839Y1435463D01*
X34812842Y1435465D01*
X34938282Y1531718D01*
X35034536Y1657159D01*
X35095044Y1803238D01*
X35115682Y1960000D01*
X35095044Y2116762D01*
X35034536Y2262841D01*
X34938282Y2388282D01*
X34812841Y2484536D01*
X34666762Y2545044D01*
X34510000Y2565682D01*
X34353238Y2545044D01*
X34207159Y2484536D01*
X34081718Y2388282D01*
X34012973Y2298691D01*
X33985465Y2262842D01*
X33985463Y2262839D01*
X33924955Y2116760D01*
X33904318Y1960000D01*
X4174400Y1960000D01*
X4174400Y5308600D01*
X14812118Y5308600D01*
X14812118Y5308599D01*
X14832755Y5151839D01*
X14893263Y5005760D01*
X14893265Y5005757D01*
X14989518Y4880318D01*
X15114957Y4784065D01*
X15114960Y4784063D01*
X15261039Y4723555D01*
X15417800Y4702918D01*
X15574560Y4723555D01*
X15720639Y4784063D01*
X15720642Y4784065D01*
X15846082Y4880318D01*
X15942336Y5005759D01*
X16002844Y5151838D01*
X16023482Y5308600D01*
X16002844Y5465362D01*
X15942336Y5611441D01*
X15874382Y5700000D01*
X38594318Y5700000D01*
X38594318Y5699999D01*
X38614955Y5543239D01*
X38675463Y5397160D01*
X38675465Y5397157D01*
X38771718Y5271718D01*
X38897157Y5175465D01*
X38897160Y5175463D01*
X39043239Y5114955D01*
X39200000Y5094318D01*
X39356760Y5114955D01*
X39502839Y5175463D01*
X39502842Y5175465D01*
X39628282Y5271718D01*
X39724536Y5397159D01*
X39785044Y5543238D01*
X39805682Y5700000D01*
X39785044Y5856762D01*
X39724536Y6002841D01*
X39628282Y6128282D01*
X39502841Y6224536D01*
X39356762Y6285044D01*
X39200000Y6305682D01*
X39043238Y6285044D01*
X38897159Y6224536D01*
X38771718Y6128282D01*
X38675465Y6002842D01*
X38675463Y6002839D01*
X38614955Y5856760D01*
X38594318Y5700000D01*
X15874382Y5700000D01*
X15846082Y5736882D01*
X15720641Y5833136D01*
X15574562Y5893644D01*
X15417800Y5914282D01*
X15261038Y5893644D01*
X15114959Y5833136D01*
X14989518Y5736882D01*
X14961218Y5700000D01*
X14893265Y5611442D01*
X14893263Y5611439D01*
X14832755Y5465360D01*
X14812118Y5308600D01*
X4174400Y5308600D01*
X4174400Y7239000D01*
X14786718Y7239000D01*
X14786718Y7238999D01*
X14807355Y7082239D01*
X14867863Y6936160D01*
X14867865Y6936157D01*
X14964118Y6810718D01*
X15089557Y6714465D01*
X15089560Y6714463D01*
X15235639Y6653955D01*
X15392400Y6633318D01*
X15549160Y6653955D01*
X15695239Y6714463D01*
X15695242Y6714465D01*
X15820682Y6810718D01*
X15916936Y6936159D01*
X15977444Y7082238D01*
X15998082Y7239000D01*
X15977444Y7395762D01*
X15916936Y7541841D01*
X15820682Y7667282D01*
X15695241Y7763536D01*
X15549162Y7824044D01*
X15392400Y7844682D01*
X15235638Y7824044D01*
X15089559Y7763536D01*
X14964118Y7667282D01*
X14874125Y7550000D01*
X14867865Y7541842D01*
X14867863Y7541839D01*
X14807355Y7395760D01*
X14786718Y7239000D01*
X4174400Y7239000D01*
X4174400Y9900000D01*
X31974318Y9900000D01*
X31974318Y9899999D01*
X31994955Y9743239D01*
X32055463Y9597160D01*
X32055465Y9597157D01*
X32151718Y9471718D01*
X32277157Y9375465D01*
X32277160Y9375463D01*
X32423239Y9314955D01*
X32580000Y9294318D01*
X32736760Y9314955D01*
X32882839Y9375463D01*
X32882842Y9375465D01*
X33008282Y9471718D01*
X33104536Y9597159D01*
X33165044Y9743238D01*
X33185682Y9900000D01*
X33165044Y10056762D01*
X33104536Y10202841D01*
X33008282Y10328282D01*
X32882841Y10424536D01*
X32736762Y10485044D01*
X32580000Y10505682D01*
X32423238Y10485044D01*
X32277159Y10424536D01*
X32151718Y10328282D01*
X32055465Y10202842D01*
X32055463Y10202839D01*
X31994955Y10056760D01*
X31974318Y9900000D01*
X4174400Y9900000D01*
X4174400Y11900000D01*
X27394435Y11900000D01*
X27414632Y11720745D01*
X27414632Y11720742D01*
X27414633Y11720742D01*
X27474211Y11550477D01*
X27474212Y11550474D01*
X27570182Y11397739D01*
X27570183Y11397737D01*
X27697737Y11270183D01*
X27697739Y11270182D01*
X27850474Y11174212D01*
X27850477Y11174211D01*
X28020742Y11114633D01*
X28020745Y11114632D01*
X28200000Y11094435D01*
X28379255Y11114632D01*
X28549522Y11174211D01*
X28559031Y11180186D01*
X28626069Y11199500D01*
X42122596Y11199500D01*
X42190717Y11179498D01*
X42237210Y11125842D01*
X42247314Y11055568D01*
X42222558Y10996796D01*
X42150468Y10902847D01*
X42150466Y10902844D01*
X42150464Y10902841D01*
X42117323Y10822831D01*
X42089955Y10756760D01*
X42069318Y10600000D01*
X42069318Y10599999D01*
X42089955Y10443239D01*
X42150463Y10297160D01*
X42150465Y10297157D01*
X42246718Y10171718D01*
X42372157Y10075465D01*
X42372160Y10075463D01*
X42518239Y10014955D01*
X42675000Y9994318D01*
X42831760Y10014955D01*
X42977839Y10075463D01*
X42977842Y10075465D01*
X43103282Y10171718D01*
X43199536Y10297159D01*
X43260044Y10443238D01*
X43280682Y10600000D01*
X43260044Y10756762D01*
X43199536Y10902841D01*
X43127442Y10996796D01*
X43101841Y11063016D01*
X43116106Y11132565D01*
X43165707Y11183361D01*
X43227404Y11199500D01*
X45482653Y11199500D01*
X45550774Y11179498D01*
X45571748Y11162595D01*
X46496575Y10237768D01*
X46530601Y10175456D01*
X46533480Y10148673D01*
X46533480Y2379422D01*
X46560400Y2244091D01*
X46560401Y2244088D01*
X46613205Y2116609D01*
X46689865Y2001878D01*
X46689870Y2001872D01*
X47762652Y929090D01*
X47762658Y929085D01*
X47877387Y852426D01*
X47877388Y852425D01*
X47877389Y852425D01*
X47896367Y844564D01*
X47931528Y830000D01*
X47931527Y829999D01*
X48004867Y799621D01*
X48004878Y799618D01*
X48031789Y794264D01*
X48031790Y794265D01*
X48140201Y772700D01*
X48140207Y772700D01*
X56974453Y772700D01*
X57042574Y752698D01*
X57063548Y735795D01*
X57513452Y285890D01*
X57513458Y285885D01*
X57628189Y209225D01*
X57755665Y156422D01*
X57755668Y156420D01*
X57755671Y156420D01*
X57775004Y152574D01*
X57891000Y129501D01*
X57891006Y129501D01*
X58028997Y129501D01*
X58164328Y156420D01*
X58164333Y156422D01*
X58182999Y164154D01*
X58291811Y209225D01*
X58406543Y285886D01*
X58504114Y383457D01*
X58580775Y498189D01*
X58633580Y625672D01*
X58660499Y761006D01*
X58660499Y898994D01*
X58633580Y1034329D01*
X58580775Y1161811D01*
X58504114Y1276543D01*
X57763343Y2017314D01*
X57648611Y2093975D01*
X57521128Y2146780D01*
X57385794Y2173700D01*
X52128473Y2173700D01*
X52060352Y2193702D01*
X52013859Y2247358D01*
X52003755Y2317632D01*
X52033249Y2382212D01*
X52080251Y2416106D01*
X52102841Y2425464D01*
X52228282Y2521718D01*
X52324536Y2647159D01*
X52385044Y2793238D01*
X52405682Y2950000D01*
X52385044Y3106762D01*
X52324536Y3252841D01*
X52307533Y3275000D01*
X67894318Y3275000D01*
X67894318Y3274999D01*
X67914955Y3118239D01*
X67975463Y2972160D01*
X67975465Y2972157D01*
X68071718Y2846718D01*
X68197157Y2750465D01*
X68197160Y2750463D01*
X68343239Y2689955D01*
X68500000Y2669318D01*
X68656760Y2689955D01*
X68802839Y2750463D01*
X68802842Y2750465D01*
X68858585Y2793238D01*
X68928282Y2846718D01*
X69024536Y2972159D01*
X69085044Y3118238D01*
X69101643Y3244318D01*
X69105682Y3274999D01*
X69105682Y3275000D01*
X69085044Y3431760D01*
X69085044Y3431762D01*
X69024536Y3577841D01*
X68928282Y3703282D01*
X68802841Y3799536D01*
X68656762Y3860044D01*
X68500000Y3880682D01*
X68343238Y3860044D01*
X68197159Y3799536D01*
X68071718Y3703282D01*
X68017823Y3633044D01*
X67975465Y3577842D01*
X67975463Y3577839D01*
X67914955Y3431760D01*
X67894318Y3275000D01*
X52307533Y3275000D01*
X52228282Y3378282D01*
X52102841Y3474536D01*
X51956762Y3535044D01*
X51800000Y3555682D01*
X51643238Y3535044D01*
X51503326Y3477090D01*
X51432741Y3469502D01*
X51369254Y3501281D01*
X51333026Y3562339D01*
X51335560Y3633290D01*
X51338693Y3641692D01*
X51360044Y3693238D01*
X51380682Y3850000D01*
X51360044Y4006762D01*
X51299536Y4152841D01*
X51203282Y4278282D01*
X51077841Y4374536D01*
X50931762Y4435044D01*
X50775000Y4455682D01*
X50618238Y4435044D01*
X50472159Y4374536D01*
X50346718Y4278282D01*
X50250465Y4152842D01*
X50250463Y4152839D01*
X50189955Y4006760D01*
X50169318Y3850000D01*
X50169318Y3849999D01*
X50189955Y3693239D01*
X50250463Y3547160D01*
X50250465Y3547157D01*
X50346718Y3421718D01*
X50472157Y3325465D01*
X50472160Y3325463D01*
X50618239Y3264955D01*
X50775000Y3244318D01*
X50931760Y3264955D01*
X50965965Y3279123D01*
X51071670Y3322908D01*
X51142259Y3330497D01*
X51205746Y3298718D01*
X51241973Y3237660D01*
X51239439Y3166708D01*
X51236296Y3158281D01*
X51214955Y3106760D01*
X51194318Y2950000D01*
X51194318Y2949999D01*
X51214955Y2793239D01*
X51275463Y2647160D01*
X51275465Y2647157D01*
X51371718Y2521718D01*
X51497157Y2425465D01*
X51497158Y2425464D01*
X51497159Y2425464D01*
X51519748Y2416107D01*
X51575026Y2371560D01*
X51597447Y2304197D01*
X51579889Y2235406D01*
X51527926Y2187027D01*
X51471527Y2173700D01*
X48551546Y2173700D01*
X48483425Y2193702D01*
X48462456Y2210599D01*
X48374360Y2298695D01*
X48340338Y2361003D01*
X48345402Y2431819D01*
X48387948Y2488655D01*
X48454469Y2513466D01*
X48511676Y2504196D01*
X48611239Y2462955D01*
X48768000Y2442318D01*
X48924760Y2462955D01*
X49070839Y2523463D01*
X49070842Y2523465D01*
X49196282Y2619718D01*
X49292536Y2745159D01*
X49353044Y2891238D01*
X49373682Y3048000D01*
X49353044Y3204762D01*
X49292536Y3350841D01*
X49196282Y3476282D01*
X49070841Y3572536D01*
X48924762Y3633044D01*
X48768000Y3653682D01*
X48611238Y3633044D01*
X48465159Y3572536D01*
X48339718Y3476282D01*
X48243465Y3350842D01*
X48243463Y3350839D01*
X48182956Y3204762D01*
X48182187Y3201890D01*
X48180875Y3199738D01*
X48179796Y3197132D01*
X48179389Y3197300D01*
X48145235Y3141267D01*
X48081374Y3110246D01*
X48010880Y3118674D01*
X47956133Y3163877D01*
X47934516Y3231503D01*
X47934480Y3234501D01*
X47934480Y7550000D01*
X63444318Y7550000D01*
X63444318Y7549999D01*
X63464955Y7393239D01*
X63525463Y7247160D01*
X63525465Y7247157D01*
X63621718Y7121718D01*
X63747157Y7025465D01*
X63747160Y7025463D01*
X63893239Y6964955D01*
X64050000Y6944318D01*
X64206760Y6964955D01*
X64352839Y7025463D01*
X64352842Y7025465D01*
X64478282Y7121718D01*
X64574536Y7247159D01*
X64635044Y7393238D01*
X64655682Y7550000D01*
X64635044Y7706762D01*
X64574536Y7852841D01*
X64478282Y7978282D01*
X64352841Y8074536D01*
X64206762Y8135044D01*
X64050000Y8155682D01*
X63893238Y8135044D01*
X63747159Y8074536D01*
X63621718Y7978282D01*
X63525465Y7852842D01*
X63525463Y7852839D01*
X63464955Y7706760D01*
X63444318Y7550000D01*
X47934480Y7550000D01*
X47934480Y8763000D01*
X58906518Y8763000D01*
X58906518Y8762999D01*
X58927155Y8606239D01*
X58987663Y8460160D01*
X58987665Y8460157D01*
X59083918Y8334718D01*
X59209357Y8238465D01*
X59209360Y8238463D01*
X59355439Y8177955D01*
X59512200Y8157318D01*
X59668960Y8177955D01*
X59815039Y8238463D01*
X59815042Y8238465D01*
X59940482Y8334718D01*
X60036736Y8460159D01*
X60097244Y8606238D01*
X60117882Y8763000D01*
X60097244Y8919762D01*
X60036736Y9065841D01*
X59940482Y9191282D01*
X59815041Y9287536D01*
X59668962Y9348044D01*
X59512200Y9368682D01*
X59355438Y9348044D01*
X59209359Y9287536D01*
X59083918Y9191282D01*
X58987665Y9065842D01*
X58987663Y9065839D01*
X58927155Y8919760D01*
X58906518Y8763000D01*
X47934480Y8763000D01*
X47934480Y10560011D01*
X47934480Y10560013D01*
X47907560Y10695348D01*
X47854755Y10822831D01*
X47801294Y10902841D01*
X47778094Y10937563D01*
X47440657Y11275000D01*
X63444318Y11275000D01*
X63444318Y11274999D01*
X63464955Y11118239D01*
X63525463Y10972160D01*
X63525465Y10972157D01*
X63621718Y10846718D01*
X63747157Y10750465D01*
X63747160Y10750463D01*
X63893239Y10689955D01*
X64050000Y10669318D01*
X64206760Y10689955D01*
X64352839Y10750463D01*
X64352842Y10750465D01*
X64361046Y10756760D01*
X64478282Y10846718D01*
X64574536Y10972159D01*
X64635044Y11118238D01*
X64655682Y11275000D01*
X64635044Y11431762D01*
X64574536Y11577841D01*
X64478282Y11703282D01*
X64352841Y11799536D01*
X64206762Y11860044D01*
X64050000Y11880682D01*
X63893238Y11860044D01*
X63747159Y11799536D01*
X63621718Y11703282D01*
X63525465Y11577842D01*
X63525463Y11577839D01*
X63464955Y11431760D01*
X63444318Y11275000D01*
X47440657Y11275000D01*
X46271543Y12444114D01*
X46156811Y12520775D01*
X46029328Y12573580D01*
X45893994Y12600500D01*
X42911169Y12600500D01*
X42843048Y12620502D01*
X42796555Y12674158D01*
X42786451Y12744432D01*
X42815945Y12809012D01*
X42822826Y12815494D01*
X42822443Y12815878D01*
X42828276Y12821711D01*
X42828280Y12821716D01*
X42828282Y12821718D01*
X42924536Y12947159D01*
X42985044Y13093238D01*
X42996809Y13182600D01*
X54283718Y13182600D01*
X54283718Y13182599D01*
X54304355Y13025839D01*
X54364863Y12879760D01*
X54364865Y12879757D01*
X54461118Y12754318D01*
X54586557Y12658065D01*
X54586560Y12658063D01*
X54732639Y12597555D01*
X54889400Y12576918D01*
X55046160Y12597555D01*
X55192239Y12658063D01*
X55192242Y12658065D01*
X55213215Y12674158D01*
X55317682Y12754318D01*
X55413936Y12879759D01*
X55474444Y13025838D01*
X55495082Y13182600D01*
X55474444Y13339362D01*
X55413936Y13485441D01*
X55317682Y13610882D01*
X55192241Y13707136D01*
X55046162Y13767644D01*
X54889400Y13788282D01*
X54732638Y13767644D01*
X54586559Y13707136D01*
X54461118Y13610882D01*
X54376035Y13499999D01*
X54364865Y13485442D01*
X54364863Y13485439D01*
X54304355Y13339360D01*
X54283718Y13182600D01*
X42996809Y13182600D01*
X43005682Y13250000D01*
X42985044Y13406762D01*
X42924536Y13552841D01*
X42828282Y13678282D01*
X42702841Y13774536D01*
X42556762Y13835044D01*
X42400000Y13855682D01*
X42243238Y13835044D01*
X42097159Y13774536D01*
X41971718Y13678282D01*
X41920000Y13610881D01*
X41875465Y13552842D01*
X41875463Y13552839D01*
X41814955Y13406760D01*
X41794318Y13250000D01*
X41794318Y13249999D01*
X41814955Y13093239D01*
X41875463Y12947160D01*
X41875465Y12947157D01*
X41971723Y12821711D01*
X41977557Y12815878D01*
X41975071Y12813392D01*
X42007392Y12769154D01*
X42011631Y12698284D01*
X41976882Y12636372D01*
X41914177Y12603076D01*
X41888831Y12600500D01*
X28626069Y12600500D01*
X28559031Y12619814D01*
X28557936Y12620502D01*
X28549522Y12625789D01*
X28379255Y12685368D01*
X28200000Y12705565D01*
X28020745Y12685368D01*
X27850478Y12625789D01*
X27850475Y12625787D01*
X27850474Y12625787D01*
X27697739Y12529817D01*
X27697737Y12529816D01*
X27570183Y12402262D01*
X27570182Y12402260D01*
X27474212Y12249525D01*
X27474211Y12249522D01*
X27414632Y12079255D01*
X27394435Y11900000D01*
X4174400Y11900000D01*
X4174400Y14833600D01*
X18520518Y14833600D01*
X18520518Y14833599D01*
X18541155Y14676839D01*
X18601663Y14530760D01*
X18601665Y14530757D01*
X18697918Y14405318D01*
X18823357Y14309065D01*
X18823360Y14309063D01*
X18969439Y14248555D01*
X19126200Y14227918D01*
X19282960Y14248555D01*
X19429039Y14309063D01*
X19429042Y14309065D01*
X19446104Y14322157D01*
X19554482Y14405318D01*
X19650736Y14530759D01*
X19689772Y14625000D01*
X57744318Y14625000D01*
X57744318Y14624999D01*
X57764955Y14468239D01*
X57825463Y14322160D01*
X57825465Y14322157D01*
X57921718Y14196718D01*
X58047157Y14100465D01*
X58047160Y14100463D01*
X58193239Y14039955D01*
X58350000Y14019318D01*
X58350001Y14019318D01*
X58500426Y14039121D01*
X58570575Y14028181D01*
X58623673Y13981053D01*
X58642863Y13912699D01*
X58622051Y13844821D01*
X58593576Y13814237D01*
X58546718Y13778282D01*
X58482291Y13694318D01*
X58450465Y13652842D01*
X58450463Y13652839D01*
X58389955Y13506760D01*
X58369318Y13350000D01*
X58369318Y13349999D01*
X58389955Y13193239D01*
X58450463Y13047160D01*
X58450465Y13047157D01*
X58546718Y12921718D01*
X58672157Y12825465D01*
X58672160Y12825463D01*
X58818239Y12764955D01*
X58975000Y12744318D01*
X59131760Y12764955D01*
X59277839Y12825463D01*
X59277842Y12825465D01*
X59348597Y12879757D01*
X59403282Y12921718D01*
X59499536Y13047159D01*
X59560044Y13193238D01*
X59579281Y13339360D01*
X59580682Y13349999D01*
X59580682Y13350000D01*
X59560934Y13500000D01*
X66644318Y13500000D01*
X66644318Y13499999D01*
X66664955Y13343239D01*
X66725463Y13197160D01*
X66725465Y13197157D01*
X66821718Y13071718D01*
X66947157Y12975465D01*
X66947160Y12975463D01*
X67093239Y12914955D01*
X67250000Y12894318D01*
X67406760Y12914955D01*
X67552839Y12975463D01*
X67552842Y12975465D01*
X67678282Y13071718D01*
X67774536Y13197159D01*
X67835044Y13343238D01*
X67837578Y13362486D01*
X67866301Y13427413D01*
X67925566Y13466504D01*
X67996558Y13467349D01*
X68056736Y13429678D01*
X68086995Y13365453D01*
X68087422Y13362486D01*
X68089955Y13343239D01*
X68150463Y13197160D01*
X68150465Y13197157D01*
X68246718Y13071718D01*
X68372157Y12975465D01*
X68372160Y12975463D01*
X68518239Y12914955D01*
X68675000Y12894318D01*
X68831760Y12914955D01*
X68977839Y12975463D01*
X68977842Y12975465D01*
X69103282Y13071718D01*
X69199536Y13197159D01*
X69260044Y13343238D01*
X69276272Y13466504D01*
X69280682Y13499999D01*
X69280682Y13500000D01*
X69260044Y13656760D01*
X69260044Y13656762D01*
X69199536Y13802841D01*
X69103282Y13928282D01*
X68977841Y14024536D01*
X68831762Y14085044D01*
X68675000Y14105682D01*
X68518238Y14085044D01*
X68372159Y14024536D01*
X68246718Y13928282D01*
X68159208Y13814236D01*
X68150465Y13802842D01*
X68150463Y13802839D01*
X68089955Y13656760D01*
X68087422Y13637514D01*
X68058700Y13572587D01*
X67999434Y13533495D01*
X67928443Y13532650D01*
X67868264Y13570320D01*
X67838005Y13634545D01*
X67837578Y13637514D01*
X67835044Y13656760D01*
X67835044Y13656762D01*
X67774536Y13802841D01*
X67678282Y13928282D01*
X67552841Y14024536D01*
X67406762Y14085044D01*
X67250000Y14105682D01*
X67093238Y14085044D01*
X66947159Y14024536D01*
X66821718Y13928282D01*
X66734208Y13814236D01*
X66725465Y13802842D01*
X66725463Y13802839D01*
X66664955Y13656760D01*
X66644318Y13500000D01*
X59560934Y13500000D01*
X59560044Y13506760D01*
X59560044Y13506762D01*
X59499536Y13652841D01*
X59403282Y13778282D01*
X59277841Y13874536D01*
X59131762Y13935044D01*
X58975000Y13955682D01*
X58824573Y13935878D01*
X58754425Y13946817D01*
X58701326Y13993945D01*
X58682136Y14062299D01*
X58702947Y14130177D01*
X58731424Y14160763D01*
X58778280Y14196716D01*
X58802223Y14227918D01*
X58857533Y14300000D01*
X62919318Y14300000D01*
X62919318Y14299999D01*
X62939955Y14143239D01*
X63000463Y13997160D01*
X63000465Y13997157D01*
X63096718Y13871718D01*
X63222157Y13775465D01*
X63222160Y13775463D01*
X63368239Y13714955D01*
X63525000Y13694318D01*
X63681760Y13714955D01*
X63827839Y13775463D01*
X63827842Y13775465D01*
X63831513Y13778282D01*
X63953282Y13871718D01*
X64049536Y13997159D01*
X64110044Y14143238D01*
X64130682Y14300000D01*
X64110044Y14456762D01*
X64049536Y14602841D01*
X63953282Y14728282D01*
X63827841Y14824536D01*
X63681762Y14885044D01*
X63525000Y14905682D01*
X63368238Y14885044D01*
X63222159Y14824536D01*
X63096718Y14728282D01*
X63000465Y14602842D01*
X63000463Y14602839D01*
X62939955Y14456760D01*
X62919318Y14300000D01*
X58857533Y14300000D01*
X58874536Y14322159D01*
X58935044Y14468238D01*
X58945363Y14546619D01*
X58955682Y14624999D01*
X58955682Y14625000D01*
X58935044Y14781760D01*
X58935044Y14781762D01*
X58874536Y14927841D01*
X58778282Y15053282D01*
X58652841Y15149536D01*
X58506762Y15210044D01*
X58350000Y15230682D01*
X58193238Y15210044D01*
X58047159Y15149536D01*
X57921718Y15053282D01*
X57825465Y14927842D01*
X57825463Y14927839D01*
X57764955Y14781760D01*
X57744318Y14625000D01*
X19689772Y14625000D01*
X19711244Y14676838D01*
X19725057Y14781762D01*
X19731882Y14833599D01*
X19731882Y14833600D01*
X19711244Y14990360D01*
X19711244Y14990362D01*
X19650736Y15136441D01*
X19554482Y15261882D01*
X19429041Y15358136D01*
X19282962Y15418644D01*
X19126200Y15439282D01*
X18969438Y15418644D01*
X18823359Y15358136D01*
X18697918Y15261882D01*
X18611712Y15149536D01*
X18601665Y15136442D01*
X18601663Y15136439D01*
X18541155Y14990360D01*
X18520518Y14833600D01*
X4174400Y14833600D01*
X4174400Y16125000D01*
X62669318Y16125000D01*
X62669318Y16124999D01*
X62689955Y15968239D01*
X62750463Y15822160D01*
X62750465Y15822157D01*
X62846718Y15696718D01*
X62972157Y15600465D01*
X62972160Y15600463D01*
X63118239Y15539955D01*
X63275000Y15519318D01*
X63431760Y15539955D01*
X63577839Y15600463D01*
X63577842Y15600465D01*
X63703282Y15696718D01*
X63799536Y15822159D01*
X63812881Y15854377D01*
X63857428Y15909657D01*
X63924791Y15932078D01*
X63993583Y15914520D01*
X64041961Y15862558D01*
X64045698Y15854376D01*
X64100463Y15722160D01*
X64100465Y15722157D01*
X64196718Y15596718D01*
X64322157Y15500465D01*
X64322160Y15500463D01*
X64468239Y15439955D01*
X64625000Y15419318D01*
X64781760Y15439955D01*
X64927839Y15500463D01*
X64927842Y15500465D01*
X64952412Y15519318D01*
X65053282Y15596718D01*
X65149536Y15722159D01*
X65210044Y15868238D01*
X65230682Y16025000D01*
X65220808Y16100000D01*
X67219318Y16100000D01*
X67219318Y16099999D01*
X67239955Y15943239D01*
X67300463Y15797160D01*
X67300465Y15797157D01*
X67396718Y15671718D01*
X67522157Y15575465D01*
X67522160Y15575463D01*
X67668239Y15514955D01*
X67825000Y15494318D01*
X67981760Y15514955D01*
X68127839Y15575463D01*
X68127842Y15575465D01*
X68253282Y15671718D01*
X68349536Y15797159D01*
X68410044Y15943238D01*
X68430682Y16100000D01*
X68410044Y16256762D01*
X68349536Y16402841D01*
X68253282Y16528282D01*
X68127841Y16624536D01*
X67981762Y16685044D01*
X67825000Y16705682D01*
X67668238Y16685044D01*
X67522159Y16624536D01*
X67396718Y16528282D01*
X67300465Y16402842D01*
X67300463Y16402839D01*
X67239955Y16256760D01*
X67219318Y16100000D01*
X65220808Y16100000D01*
X65210044Y16181762D01*
X65149536Y16327841D01*
X65053282Y16453282D01*
X64927841Y16549536D01*
X64781762Y16610044D01*
X64625000Y16630682D01*
X64468238Y16610044D01*
X64322159Y16549536D01*
X64196718Y16453282D01*
X64158012Y16402839D01*
X64100465Y16327842D01*
X64100461Y16327835D01*
X64087118Y16295622D01*
X64042570Y16240341D01*
X63975206Y16217921D01*
X63906415Y16235480D01*
X63858037Y16287442D01*
X63854313Y16295596D01*
X63799536Y16427841D01*
X63703282Y16553282D01*
X63577841Y16649536D01*
X63431762Y16710044D01*
X63275000Y16730682D01*
X63118238Y16710044D01*
X62972159Y16649536D01*
X62846718Y16553282D01*
X62756540Y16435759D01*
X62750465Y16427842D01*
X62750463Y16427839D01*
X62689955Y16281760D01*
X62669318Y16125000D01*
X4174400Y16125000D01*
X4174400Y16738600D01*
X53089918Y16738600D01*
X53089918Y16738599D01*
X53110555Y16581839D01*
X53171063Y16435760D01*
X53171065Y16435757D01*
X53267318Y16310318D01*
X53392757Y16214065D01*
X53392760Y16214063D01*
X53538839Y16153555D01*
X53695600Y16132918D01*
X53852360Y16153555D01*
X53998439Y16214063D01*
X53998442Y16214065D01*
X54123882Y16310318D01*
X54220136Y16435759D01*
X54280644Y16581838D01*
X54301282Y16738600D01*
X54280644Y16895362D01*
X54220136Y17041441D01*
X54123882Y17166882D01*
X53998441Y17263136D01*
X53852362Y17323644D01*
X53695600Y17344282D01*
X53538838Y17323644D01*
X53392759Y17263136D01*
X53267318Y17166882D01*
X53171065Y17041442D01*
X53171063Y17041439D01*
X53110555Y16895360D01*
X53089918Y16738600D01*
X4174400Y16738600D01*
X4174400Y20719750D01*
X10349500Y20719750D01*
X10349500Y18280249D01*
X10361132Y18221771D01*
X10361133Y18221768D01*
X10405448Y18155448D01*
X10471768Y18111133D01*
X10471771Y18111132D01*
X10530249Y18099500D01*
X10530252Y18099500D01*
X12969750Y18099500D01*
X13028228Y18111132D01*
X13028231Y18111133D01*
X13094552Y18155448D01*
X13138867Y18221769D01*
X13150500Y18280252D01*
X13150500Y19659600D01*
X58519816Y19659600D01*
X58519816Y19659599D01*
X58540453Y19502839D01*
X58600961Y19356760D01*
X58600963Y19356757D01*
X58697216Y19231318D01*
X58822655Y19135065D01*
X58822662Y19135061D01*
X58910691Y19098598D01*
X58965972Y19054050D01*
X58988392Y18986686D01*
X58970833Y18917895D01*
X58939176Y18882228D01*
X58879862Y18836715D01*
X58855319Y18817883D01*
X58759065Y18692442D01*
X58759063Y18692439D01*
X58698555Y18546360D01*
X58677918Y18389600D01*
X58677918Y18389599D01*
X58698555Y18232839D01*
X58759063Y18086760D01*
X58759065Y18086757D01*
X58855318Y17961318D01*
X58980757Y17865065D01*
X58980760Y17865063D01*
X59126839Y17804555D01*
X59283600Y17783918D01*
X59440360Y17804555D01*
X59586439Y17865063D01*
X59586442Y17865065D01*
X59711882Y17961318D01*
X59808136Y18086759D01*
X59868644Y18232838D01*
X59889282Y18389600D01*
X59868644Y18546362D01*
X59808136Y18692441D01*
X59711882Y18817882D01*
X59586441Y18914136D01*
X59498404Y18950601D01*
X59443126Y18995148D01*
X59420705Y19062511D01*
X59438263Y19131303D01*
X59469922Y19166972D01*
X59553778Y19231316D01*
X59650032Y19356757D01*
X59650034Y19356759D01*
X59710542Y19502838D01*
X59731180Y19659600D01*
X59710542Y19816362D01*
X59650034Y19962441D01*
X59553780Y20087882D01*
X59428339Y20184136D01*
X59282260Y20244644D01*
X59125498Y20265282D01*
X58968736Y20244644D01*
X58822657Y20184136D01*
X58697216Y20087882D01*
X58600963Y19962442D01*
X58600961Y19962439D01*
X58540453Y19816360D01*
X58519816Y19659600D01*
X13150500Y19659600D01*
X13150500Y20719748D01*
X13138867Y20778231D01*
X13094552Y20844552D01*
X13028231Y20888867D01*
X12969748Y20900500D01*
X10530252Y20900500D01*
X10471769Y20888867D01*
X10405448Y20844552D01*
X10379767Y20806118D01*
X10361133Y20778231D01*
X10361132Y20778228D01*
X10349500Y20719750D01*
X4174400Y20719750D01*
X4174400Y21234400D01*
X44377718Y21234400D01*
X44377718Y21234399D01*
X44398355Y21077639D01*
X44458863Y20931560D01*
X44458865Y20931557D01*
X44555118Y20806118D01*
X44680557Y20709865D01*
X44680560Y20709863D01*
X44826639Y20649355D01*
X44983400Y20628718D01*
X45140160Y20649355D01*
X45286239Y20709863D01*
X45286242Y20709865D01*
X45299120Y20719746D01*
X45411682Y20806118D01*
X45448146Y20853639D01*
X45505484Y20895507D01*
X45576355Y20899729D01*
X45638258Y20864965D01*
X45648071Y20853641D01*
X45723517Y20755318D01*
X45848957Y20659065D01*
X45848960Y20659063D01*
X45995039Y20598555D01*
X46151800Y20577918D01*
X46308560Y20598555D01*
X46454639Y20659063D01*
X46454642Y20659065D01*
X46580082Y20755318D01*
X46676336Y20880759D01*
X46736844Y21026838D01*
X46757482Y21183600D01*
X46750794Y21234400D01*
X51311918Y21234400D01*
X51311918Y21234399D01*
X51332555Y21077639D01*
X51393063Y20931560D01*
X51393065Y20931557D01*
X51489318Y20806118D01*
X51614757Y20709865D01*
X51614760Y20709863D01*
X51760839Y20649355D01*
X51917600Y20628718D01*
X52074360Y20649355D01*
X52220439Y20709863D01*
X52220442Y20709865D01*
X52345882Y20806118D01*
X52442136Y20931559D01*
X52502644Y21077638D01*
X52523282Y21234400D01*
X52502644Y21391162D01*
X52442136Y21537241D01*
X52345882Y21662682D01*
X52220441Y21758936D01*
X52074362Y21819444D01*
X51917600Y21840082D01*
X51760838Y21819444D01*
X51614759Y21758936D01*
X51489318Y21662682D01*
X51393065Y21537242D01*
X51393063Y21537239D01*
X51332555Y21391160D01*
X51311918Y21234400D01*
X46750794Y21234400D01*
X46736844Y21340362D01*
X46676336Y21486441D01*
X46580082Y21611882D01*
X46454641Y21708136D01*
X46308562Y21768644D01*
X46151800Y21789282D01*
X45995038Y21768644D01*
X45848959Y21708136D01*
X45723518Y21611882D01*
X45687051Y21564358D01*
X45629715Y21522492D01*
X45558844Y21518270D01*
X45496941Y21553034D01*
X45487132Y21564352D01*
X45411682Y21662682D01*
X45286241Y21758936D01*
X45140162Y21819444D01*
X44983400Y21840082D01*
X44826638Y21819444D01*
X44680559Y21758936D01*
X44555118Y21662682D01*
X44458865Y21537242D01*
X44458863Y21537239D01*
X44398355Y21391160D01*
X44377718Y21234400D01*
X4174400Y21234400D01*
X4174400Y22158400D01*
X4194402Y22226521D01*
X4248058Y22273014D01*
X4300400Y22284400D01*
X74293200Y22284400D01*
X74361321Y22264398D01*
G37*
%TD.AperFunction*%
%TD*%
M02*
