%TF.GenerationSoftware,KiCad,Pcbnew,8.0.4*%
%TF.CreationDate,2024-11-07T22:09:53+00:00*%
%TF.ProjectId,BG95V4,42473935-5634-42e6-9b69-6361645f7063,rev?*%
%TF.SameCoordinates,Original*%
%TF.FileFunction,Legend,Bot*%
%TF.FilePolarity,Positive*%
%FSLAX46Y46*%
G04 Gerber Fmt 4.6, Leading zero omitted, Abs format (unit mm)*
G04 Created by KiCad (PCBNEW 8.0.4) date 2024-11-07 22:09:53*
%MOMM*%
%LPD*%
G01*
G04 APERTURE LIST*
%ADD10C,0.200000*%
%ADD11C,0.300000*%
%ADD12C,0.100000*%
%ADD13C,0.150000*%
%ADD14C,0.127000*%
%ADD15C,0.120000*%
G04 APERTURE END LIST*
D10*
X33253847Y20269200D02*
G75*
G02*
X32633753Y20269200I-310047J0D01*
G01*
X32633753Y20269200D02*
G75*
G02*
X33253847Y20269200I310047J0D01*
G01*
D11*
X31483371Y12059700D02*
X32626229Y12059700D01*
X32054800Y11488271D02*
X32054800Y12631128D01*
D12*
X33375552Y21406690D02*
X33375552Y21001928D01*
X33375552Y21001928D02*
X33351742Y20954309D01*
X33351742Y20954309D02*
X33327933Y20930500D01*
X33327933Y20930500D02*
X33280314Y20906690D01*
X33280314Y20906690D02*
X33185076Y20906690D01*
X33185076Y20906690D02*
X33137457Y20930500D01*
X33137457Y20930500D02*
X33113647Y20954309D01*
X33113647Y20954309D02*
X33089838Y21001928D01*
X33089838Y21001928D02*
X33089838Y21406690D01*
X32589837Y20906690D02*
X32875551Y20906690D01*
X32732694Y20906690D02*
X32732694Y21406690D01*
X32732694Y21406690D02*
X32780313Y21335261D01*
X32780313Y21335261D02*
X32827932Y21287642D01*
X32827932Y21287642D02*
X32875551Y21263833D01*
X29983333Y11521509D02*
X30007142Y11497700D01*
X30007142Y11497700D02*
X30078571Y11473890D01*
X30078571Y11473890D02*
X30126190Y11473890D01*
X30126190Y11473890D02*
X30197618Y11497700D01*
X30197618Y11497700D02*
X30245237Y11545319D01*
X30245237Y11545319D02*
X30269047Y11592938D01*
X30269047Y11592938D02*
X30292856Y11688176D01*
X30292856Y11688176D02*
X30292856Y11759604D01*
X30292856Y11759604D02*
X30269047Y11854842D01*
X30269047Y11854842D02*
X30245237Y11902461D01*
X30245237Y11902461D02*
X30197618Y11950080D01*
X30197618Y11950080D02*
X30126190Y11973890D01*
X30126190Y11973890D02*
X30078571Y11973890D01*
X30078571Y11973890D02*
X30007142Y11950080D01*
X30007142Y11950080D02*
X29983333Y11926271D01*
X29530952Y11973890D02*
X29769047Y11973890D01*
X29769047Y11973890D02*
X29792856Y11735795D01*
X29792856Y11735795D02*
X29769047Y11759604D01*
X29769047Y11759604D02*
X29721428Y11783414D01*
X29721428Y11783414D02*
X29602380Y11783414D01*
X29602380Y11783414D02*
X29554761Y11759604D01*
X29554761Y11759604D02*
X29530952Y11735795D01*
X29530952Y11735795D02*
X29507142Y11688176D01*
X29507142Y11688176D02*
X29507142Y11569128D01*
X29507142Y11569128D02*
X29530952Y11521509D01*
X29530952Y11521509D02*
X29554761Y11497700D01*
X29554761Y11497700D02*
X29602380Y11473890D01*
X29602380Y11473890D02*
X29721428Y11473890D01*
X29721428Y11473890D02*
X29769047Y11497700D01*
X29769047Y11497700D02*
X29792856Y11521509D01*
X24610961Y21127290D02*
X24610961Y20770147D01*
X24610961Y20770147D02*
X24634770Y20698719D01*
X24634770Y20698719D02*
X24682389Y20651100D01*
X24682389Y20651100D02*
X24753818Y20627290D01*
X24753818Y20627290D02*
X24801437Y20627290D01*
X24110961Y20627290D02*
X24396675Y20627290D01*
X24253818Y20627290D02*
X24253818Y21127290D01*
X24253818Y21127290D02*
X24301437Y21055861D01*
X24301437Y21055861D02*
X24349056Y21008242D01*
X24349056Y21008242D02*
X24396675Y20984433D01*
X23920485Y21079671D02*
X23896676Y21103480D01*
X23896676Y21103480D02*
X23849057Y21127290D01*
X23849057Y21127290D02*
X23730009Y21127290D01*
X23730009Y21127290D02*
X23682390Y21103480D01*
X23682390Y21103480D02*
X23658581Y21079671D01*
X23658581Y21079671D02*
X23634771Y21032052D01*
X23634771Y21032052D02*
X23634771Y20984433D01*
X23634771Y20984433D02*
X23658581Y20913004D01*
X23658581Y20913004D02*
X23944295Y20627290D01*
X23944295Y20627290D02*
X23634771Y20627290D01*
D13*
X71427933Y10755980D02*
X71427933Y10041695D01*
X71427933Y10041695D02*
X71475552Y9898838D01*
X71475552Y9898838D02*
X71570790Y9803600D01*
X71570790Y9803600D02*
X71713647Y9755980D01*
X71713647Y9755980D02*
X71808885Y9755980D01*
X71046980Y10755980D02*
X70427933Y10755980D01*
X70427933Y10755980D02*
X70761266Y10375028D01*
X70761266Y10375028D02*
X70618409Y10375028D01*
X70618409Y10375028D02*
X70523171Y10327409D01*
X70523171Y10327409D02*
X70475552Y10279790D01*
X70475552Y10279790D02*
X70427933Y10184552D01*
X70427933Y10184552D02*
X70427933Y9946457D01*
X70427933Y9946457D02*
X70475552Y9851219D01*
X70475552Y9851219D02*
X70523171Y9803600D01*
X70523171Y9803600D02*
X70618409Y9755980D01*
X70618409Y9755980D02*
X70904123Y9755980D01*
X70904123Y9755980D02*
X70999361Y9803600D01*
X70999361Y9803600D02*
X71046980Y9851219D01*
D12*
X29808333Y14493890D02*
X29974999Y14731985D01*
X30094047Y14493890D02*
X30094047Y14993890D01*
X30094047Y14993890D02*
X29903571Y14993890D01*
X29903571Y14993890D02*
X29855952Y14970080D01*
X29855952Y14970080D02*
X29832142Y14946271D01*
X29832142Y14946271D02*
X29808333Y14898652D01*
X29808333Y14898652D02*
X29808333Y14827223D01*
X29808333Y14827223D02*
X29832142Y14779604D01*
X29832142Y14779604D02*
X29855952Y14755795D01*
X29855952Y14755795D02*
X29903571Y14731985D01*
X29903571Y14731985D02*
X30094047Y14731985D01*
X29379761Y14827223D02*
X29379761Y14493890D01*
X29498809Y15017700D02*
X29617856Y14660557D01*
X29617856Y14660557D02*
X29308333Y14660557D01*
D13*
X13566733Y10298780D02*
X13566733Y9584495D01*
X13566733Y9584495D02*
X13614352Y9441638D01*
X13614352Y9441638D02*
X13709590Y9346400D01*
X13709590Y9346400D02*
X13852447Y9298780D01*
X13852447Y9298780D02*
X13947685Y9298780D01*
X13138161Y10203542D02*
X13090542Y10251161D01*
X13090542Y10251161D02*
X12995304Y10298780D01*
X12995304Y10298780D02*
X12757209Y10298780D01*
X12757209Y10298780D02*
X12661971Y10251161D01*
X12661971Y10251161D02*
X12614352Y10203542D01*
X12614352Y10203542D02*
X12566733Y10108304D01*
X12566733Y10108304D02*
X12566733Y10013066D01*
X12566733Y10013066D02*
X12614352Y9870209D01*
X12614352Y9870209D02*
X13185780Y9298780D01*
X13185780Y9298780D02*
X12566733Y9298780D01*
D12*
X9394819Y3155271D02*
X9442438Y3179080D01*
X9442438Y3179080D02*
X9490057Y3226700D01*
X9490057Y3226700D02*
X9561485Y3298128D01*
X9561485Y3298128D02*
X9609104Y3321938D01*
X9609104Y3321938D02*
X9656723Y3321938D01*
X9632914Y3202890D02*
X9680533Y3226700D01*
X9680533Y3226700D02*
X9728152Y3274319D01*
X9728152Y3274319D02*
X9751961Y3369557D01*
X9751961Y3369557D02*
X9751961Y3536223D01*
X9751961Y3536223D02*
X9728152Y3631461D01*
X9728152Y3631461D02*
X9680533Y3679080D01*
X9680533Y3679080D02*
X9632914Y3702890D01*
X9632914Y3702890D02*
X9537676Y3702890D01*
X9537676Y3702890D02*
X9490057Y3679080D01*
X9490057Y3679080D02*
X9442438Y3631461D01*
X9442438Y3631461D02*
X9418628Y3536223D01*
X9418628Y3536223D02*
X9418628Y3369557D01*
X9418628Y3369557D02*
X9442438Y3274319D01*
X9442438Y3274319D02*
X9490057Y3226700D01*
X9490057Y3226700D02*
X9537676Y3202890D01*
X9537676Y3202890D02*
X9632914Y3202890D01*
X8942437Y3202890D02*
X9228151Y3202890D01*
X9085294Y3202890D02*
X9085294Y3702890D01*
X9085294Y3702890D02*
X9132913Y3631461D01*
X9132913Y3631461D02*
X9180532Y3583842D01*
X9180532Y3583842D02*
X9228151Y3560033D01*
X25950028Y15671109D02*
X25973837Y15647300D01*
X25973837Y15647300D02*
X26045266Y15623490D01*
X26045266Y15623490D02*
X26092885Y15623490D01*
X26092885Y15623490D02*
X26164313Y15647300D01*
X26164313Y15647300D02*
X26211932Y15694919D01*
X26211932Y15694919D02*
X26235742Y15742538D01*
X26235742Y15742538D02*
X26259551Y15837776D01*
X26259551Y15837776D02*
X26259551Y15909204D01*
X26259551Y15909204D02*
X26235742Y16004442D01*
X26235742Y16004442D02*
X26211932Y16052061D01*
X26211932Y16052061D02*
X26164313Y16099680D01*
X26164313Y16099680D02*
X26092885Y16123490D01*
X26092885Y16123490D02*
X26045266Y16123490D01*
X26045266Y16123490D02*
X25973837Y16099680D01*
X25973837Y16099680D02*
X25950028Y16075871D01*
X25473837Y15623490D02*
X25759551Y15623490D01*
X25616694Y15623490D02*
X25616694Y16123490D01*
X25616694Y16123490D02*
X25664313Y16052061D01*
X25664313Y16052061D02*
X25711932Y16004442D01*
X25711932Y16004442D02*
X25759551Y15980633D01*
X25307171Y16123490D02*
X24997647Y16123490D01*
X24997647Y16123490D02*
X25164314Y15933014D01*
X25164314Y15933014D02*
X25092885Y15933014D01*
X25092885Y15933014D02*
X25045266Y15909204D01*
X25045266Y15909204D02*
X25021457Y15885395D01*
X25021457Y15885395D02*
X24997647Y15837776D01*
X24997647Y15837776D02*
X24997647Y15718728D01*
X24997647Y15718728D02*
X25021457Y15671109D01*
X25021457Y15671109D02*
X25045266Y15647300D01*
X25045266Y15647300D02*
X25092885Y15623490D01*
X25092885Y15623490D02*
X25235742Y15623490D01*
X25235742Y15623490D02*
X25283361Y15647300D01*
X25283361Y15647300D02*
X25307171Y15671109D01*
X12707133Y8308290D02*
X12873799Y8546385D01*
X12992847Y8308290D02*
X12992847Y8808290D01*
X12992847Y8808290D02*
X12802371Y8808290D01*
X12802371Y8808290D02*
X12754752Y8784480D01*
X12754752Y8784480D02*
X12730942Y8760671D01*
X12730942Y8760671D02*
X12707133Y8713052D01*
X12707133Y8713052D02*
X12707133Y8641623D01*
X12707133Y8641623D02*
X12730942Y8594004D01*
X12730942Y8594004D02*
X12754752Y8570195D01*
X12754752Y8570195D02*
X12802371Y8546385D01*
X12802371Y8546385D02*
X12992847Y8546385D01*
X12516656Y8760671D02*
X12492847Y8784480D01*
X12492847Y8784480D02*
X12445228Y8808290D01*
X12445228Y8808290D02*
X12326180Y8808290D01*
X12326180Y8808290D02*
X12278561Y8784480D01*
X12278561Y8784480D02*
X12254752Y8760671D01*
X12254752Y8760671D02*
X12230942Y8713052D01*
X12230942Y8713052D02*
X12230942Y8665433D01*
X12230942Y8665433D02*
X12254752Y8594004D01*
X12254752Y8594004D02*
X12540466Y8308290D01*
X12540466Y8308290D02*
X12230942Y8308290D01*
X32223828Y17957109D02*
X32247637Y17933300D01*
X32247637Y17933300D02*
X32319066Y17909490D01*
X32319066Y17909490D02*
X32366685Y17909490D01*
X32366685Y17909490D02*
X32438113Y17933300D01*
X32438113Y17933300D02*
X32485732Y17980919D01*
X32485732Y17980919D02*
X32509542Y18028538D01*
X32509542Y18028538D02*
X32533351Y18123776D01*
X32533351Y18123776D02*
X32533351Y18195204D01*
X32533351Y18195204D02*
X32509542Y18290442D01*
X32509542Y18290442D02*
X32485732Y18338061D01*
X32485732Y18338061D02*
X32438113Y18385680D01*
X32438113Y18385680D02*
X32366685Y18409490D01*
X32366685Y18409490D02*
X32319066Y18409490D01*
X32319066Y18409490D02*
X32247637Y18385680D01*
X32247637Y18385680D02*
X32223828Y18361871D01*
X31747637Y17909490D02*
X32033351Y17909490D01*
X31890494Y17909490D02*
X31890494Y18409490D01*
X31890494Y18409490D02*
X31938113Y18338061D01*
X31938113Y18338061D02*
X31985732Y18290442D01*
X31985732Y18290442D02*
X32033351Y18266633D01*
X31319066Y18242823D02*
X31319066Y17909490D01*
X31438114Y18433300D02*
X31557161Y18076157D01*
X31557161Y18076157D02*
X31247638Y18076157D01*
D14*
%TO.C,U1*%
X33800000Y20850000D02*
X35100000Y20850000D01*
X33800000Y19150000D02*
X33800000Y20850000D01*
X33800000Y2900000D02*
X33800000Y950000D01*
X33800000Y950000D02*
X35100000Y950000D01*
X56100000Y20850000D02*
X57400000Y20850000D01*
X56100000Y950000D02*
X57400000Y950000D01*
X57400000Y20850000D02*
X57400000Y19150000D01*
X57400000Y950000D02*
X57400000Y2900000D01*
D15*
%TO.C,C5*%
X26900000Y11015000D02*
X33220000Y11015000D01*
X26900000Y2830000D02*
X26900000Y11015000D01*
X33220000Y11015000D02*
X33220000Y2830000D01*
%TO.C,J12*%
X25881200Y21235800D02*
X25881200Y21035800D01*
X25881200Y18435800D02*
X25881200Y18235800D01*
X25881200Y18235800D02*
X26681200Y18235800D01*
X26681200Y21235800D02*
X25881200Y21235800D01*
X26681200Y18235800D02*
X26681200Y17735800D01*
X28081200Y18235800D02*
X28081200Y17735800D01*
X28081200Y18235800D02*
X28681200Y18235800D01*
X28681200Y18235800D02*
X28881200Y18435800D01*
X28881200Y21235800D02*
X28081200Y21235800D01*
X28881200Y21035800D02*
X28881200Y21235800D01*
%TO.C,J3*%
X61225000Y21170000D02*
X61225000Y20600000D01*
X61225000Y19080000D02*
X61225000Y18060000D01*
X61225000Y16540000D02*
X61225000Y15520000D01*
X61225000Y14000000D02*
X61225000Y12980000D01*
X61225000Y11460000D02*
X61225000Y10440000D01*
X61225000Y8920000D02*
X61225000Y7900000D01*
X61225000Y6380000D02*
X61225000Y5360000D01*
X61225000Y3840000D02*
X61225000Y2820000D01*
X61225000Y1300000D02*
X61225000Y730000D01*
X66425000Y21170000D02*
X61225000Y21170000D01*
X66425000Y21170000D02*
X66425000Y20600000D01*
X66425000Y19080000D02*
X66425000Y18060000D01*
X66425000Y16540000D02*
X66425000Y15520000D01*
X66425000Y14000000D02*
X66425000Y12980000D01*
X66425000Y11460000D02*
X66425000Y10440000D01*
X66425000Y8920000D02*
X66425000Y7900000D01*
X66425000Y6380000D02*
X66425000Y5360000D01*
X66425000Y3840000D02*
X66425000Y2820000D01*
X66425000Y1300000D02*
X66425000Y730000D01*
X66425000Y730000D02*
X61225000Y730000D01*
X67865000Y20600000D02*
X66425000Y20600000D01*
%TO.C,R4*%
X29487742Y16672500D02*
X29962258Y16672500D01*
X29487742Y15627500D02*
X29962258Y15627500D01*
%TO.C,J2*%
X16185000Y1210000D02*
X17625000Y1210000D01*
X17625000Y13460000D02*
X22825000Y13460000D01*
X17625000Y12890000D02*
X17625000Y13460000D01*
X17625000Y10350000D02*
X17625000Y11370000D01*
X17625000Y7810000D02*
X17625000Y8830000D01*
X17625000Y5270000D02*
X17625000Y6290000D01*
X17625000Y2730000D02*
X17625000Y3750000D01*
X17625000Y640000D02*
X17625000Y1210000D01*
X17625000Y640000D02*
X22825000Y640000D01*
X22825000Y12890000D02*
X22825000Y13460000D01*
X22825000Y10350000D02*
X22825000Y11370000D01*
X22825000Y7810000D02*
X22825000Y8830000D01*
X22825000Y5270000D02*
X22825000Y6290000D01*
X22825000Y2730000D02*
X22825000Y3750000D01*
X22825000Y640000D02*
X22825000Y1210000D01*
%TO.C,Q1*%
X10378000Y2743200D02*
X10378000Y3393200D01*
X10378000Y2743200D02*
X10378000Y2093200D01*
X13498000Y2743200D02*
X13498000Y3393200D01*
X13498000Y2743200D02*
X13498000Y1068200D01*
%TO.C,C13*%
X26865000Y15515580D02*
X26865000Y15234420D01*
X27885000Y15515580D02*
X27885000Y15234420D01*
%TO.C,R2*%
X12202900Y6587258D02*
X12202900Y6112742D01*
X13247900Y6587258D02*
X13247900Y6112742D01*
%TO.C,C14*%
X31490000Y15515580D02*
X31490000Y15234420D01*
X32510000Y15515580D02*
X32510000Y15234420D01*
%TD*%
M02*
