M48
; DRILL file {KiCad 8.0.4} date 2024-11-07T22:09:47+0000
; FORMAT={-:-/ absolute / inch / decimal}
; #@! TF.CreationDate,2024-11-07T22:09:47+00:00
; #@! TF.GenerationSoftware,Kicad,Pcbnew,8.0.4
; #@! TF.FileFunction,Plated,1,4,PTH
FMAT,2
INCH
; #@! TA.AperFunction,Plated,PTH,ViaDrill
T1C0.0118
; #@! TA.AperFunction,Plated,PTH,ViaDrill
T2C0.0157
; #@! TA.AperFunction,Plated,PTH,ComponentDrill
T3C0.0472
%
G90
G05
T1
X0.2257Y0.8286
X0.2257Y0.7734
X0.2257Y0.7183
X0.2257Y0.6632
X0.2257Y0.6081
X0.2257Y0.4427
X0.2257Y0.1671
X0.2257Y0.0569
X0.2257Y0.0018
X0.2257Y-0.0533
X0.2808Y0.8286
X0.2808Y0.7734
X0.2808Y0.7183
X0.2808Y0.6632
X0.2808Y0.6081
X0.2808Y0.0569
X0.3359Y0.8286
X0.3359Y0.7734
X0.3359Y0.7183
X0.3359Y0.6632
X0.3359Y0.6081
X0.3359Y0.553
X0.3359Y0.4979
X0.3359Y0.112
X0.3359Y0.0569
X0.3911Y0.6632
X0.3911Y0.6081
X0.3911Y0.553
X0.3911Y0.4979
X0.3911Y0.1671
X0.3911Y0.0018
X0.4462Y0.4979
X0.4462Y0.4427
X0.4462Y0.3876
X0.4462Y0.2223
X0.5013Y0.4427
X0.5013Y0.3876
X0.5013Y0.3325
X0.5564Y0.7183
X0.5564Y0.6632
X0.5564Y0.4427
X0.5564Y0.3876
X0.7218Y-0.0533
X0.7769Y-0.0533
X0.832Y-0.0533
X0.8871Y0.7734
X0.8871Y0.7183
X0.8871Y0.6632
X0.8871Y0.0018
X0.8871Y-0.0533
X0.9422Y0.8286
X0.9422Y0.7734
X0.9422Y0.7183
X0.9422Y0.6632
X0.9422Y0.6081
X0.9422Y0.0018
X0.9422Y-0.0533
X0.98Y0.817
X0.98Y0.745
X0.981Y0.782
X0.99Y0.711
X0.9974Y0.6632
X0.9974Y0.6081
X1.001Y0.85
X1.025Y0.7
X1.028Y0.635
X1.037Y0.855
X1.037Y0.668
X1.039Y0.6
X1.116Y0.676
X1.117Y0.856
X1.117Y0.598
X1.123Y0.702
X1.149Y0.596
X1.15Y0.855
X1.153Y0.678
X1.1627Y0.553
X1.1627Y-0.0533
X1.173Y0.718
X1.175Y0.831
X1.175Y0.758
X1.176Y0.795
X1.182Y0.598
X1.186Y0.677
X1.217Y0.676
X1.2178Y0.8286
X1.2178Y0.7734
X1.2178Y0.7183
X1.2178Y-0.0533
X1.22Y0.596
X1.247Y0.675
X1.273Y0.8286
X1.273Y0.7734
X1.273Y-0.0533
X1.309Y0.6
X1.3281Y0.8286
X1.3281Y0.7734
X1.7139Y-0.0533
X1.769Y0.3876
X1.769Y-0.0533
X1.8241Y-0.0533
X1.8793Y0.4979
X1.8793Y-0.0533
X1.9344Y-0.0533
X1.9895Y-0.0533
X2.0446Y0.6632
X2.0446Y-0.0533
X2.0997Y-0.0533
X2.1548Y-0.0533
X2.21Y-0.0533
X2.2651Y0.8286
X2.2651Y-0.0533
X2.3202Y-0.0533
X2.3753Y-0.0533
X2.4304Y-0.0533
X2.4856Y-0.0533
X2.5407Y-0.0533
X2.706Y0.0018
X2.706Y-0.0533
X2.7611Y0.6081
X2.7611Y0.4427
X2.7611Y0.3876
X2.7611Y0.3325
X2.7611Y0.2774
X2.7611Y0.2223
X2.7611Y0.1671
X2.7611Y0.112
X2.7611Y0.0569
X2.7611Y0.0018
X2.7611Y-0.0533
X2.8163Y0.6081
X2.8163Y0.553
X2.8163Y0.4979
X2.8163Y0.4427
X2.8163Y0.3876
X2.8163Y0.3325
X2.8163Y0.2774
X2.8163Y0.1671
X2.8163Y0.112
X2.8163Y0.0569
X2.8163Y0.0018
X2.8163Y-0.0533
X2.8714Y0.553
X2.8714Y0.4979
X2.8714Y0.4427
X2.8714Y0.3876
X2.8714Y0.3325
X2.8714Y0.2774
X2.8714Y0.2223
X2.8714Y0.1671
X2.8714Y0.112
X2.8714Y0.0569
X2.8714Y0.0018
X2.8714Y-0.0533
T2
X0.606Y0.285
X0.607Y0.209
X0.753Y0.584
X0.8031Y0.0187
X1.0Y0.15
X1.1102Y0.4685
X1.219Y0.013
X1.2827Y0.3898
X1.3587Y0.0772
X1.4Y-0.05
X1.425Y0.655
X1.425Y0.61
X1.425Y0.57
X1.425Y0.525
X1.5433Y0.2244
X1.55Y0.65
X1.5799Y0.0283
X1.6354Y0.0283
X1.6693Y0.5217
X1.6801Y0.4173
X1.6957Y0.0209
X1.771Y0.836
X1.817Y0.834
X1.8596Y0.413
X1.92Y0.12
X1.9461Y0.5177
X1.999Y0.1516
X2.0394Y0.1161
X2.044Y0.836
X2.114Y0.659
X2.1358Y0.2654
X2.161Y0.519
X2.2819Y0.0327
X2.2972Y0.5758
X2.3005Y0.1435
X2.3219Y0.5256
X2.3278Y0.774
X2.334Y0.724
X2.343Y0.345
X2.368Y0.431
X2.4911Y0.6348
X2.501Y0.563
X2.5217Y0.4439
X2.5217Y0.2972
X2.5443Y0.6309
X2.6476Y0.5315
X2.6703Y0.6339
X2.6969Y0.1289
X2.7037Y0.5315
T3
X0.315Y-0.0591
X0.4626Y0.7677
X0.4626Y-0.0591
X0.6102Y-0.0591
M30
