%TF.GenerationSoftware,KiCad,Pcbnew,8.0.5*%
%TF.CreationDate,2024-11-05T15:42:22+00:00*%
%TF.ProjectId,ADE_Main_V4,4144455f-4d61-4696-9e5f-56342e6b6963,rev?*%
%TF.SameCoordinates,Original*%
%TF.FileFunction,Copper,L3,Inr*%
%TF.FilePolarity,Positive*%
%FSLAX46Y46*%
G04 Gerber Fmt 4.6, Leading zero omitted, Abs format (unit mm)*
G04 Created by KiCad (PCBNEW 8.0.5) date 2024-11-05 15:42:22*
%MOMM*%
%LPD*%
G01*
G04 APERTURE LIST*
%TA.AperFunction,ComponentPad*%
%ADD10C,0.600000*%
%TD*%
%TA.AperFunction,ComponentPad*%
%ADD11R,1.700000X1.700000*%
%TD*%
%TA.AperFunction,ComponentPad*%
%ADD12O,1.700000X1.700000*%
%TD*%
%TA.AperFunction,ViaPad*%
%ADD13C,0.800000*%
%TD*%
G04 APERTURE END LIST*
D10*
%TO.N,/UM*%
%TO.C,U3*%
X-1180000Y36100000D03*
X-180000Y36100000D03*
%TD*%
%TO.N,/UM*%
%TO.C,U1*%
X-1180000Y24810000D03*
X-180000Y24810000D03*
%TD*%
D11*
%TO.N,/RRP*%
%TO.C,J15*%
X-6750200Y36692980D03*
D12*
%TO.N,/RRM*%
X-6750200Y34152980D03*
%TO.N,/RSP*%
X-6750200Y31612980D03*
%TO.N,/RSM*%
X-6750200Y29072980D03*
%TO.N,/RTP*%
X-6750200Y26532980D03*
%TO.N,/RTM*%
X-6750200Y23992980D03*
%TO.N,/RNP*%
X-6750200Y21452980D03*
%TO.N,/RNM*%
X-6750200Y18912980D03*
%TD*%
D13*
%TO.N,GND*%
X12877800Y28778200D03*
X-16100000Y27403599D03*
X3048000Y37363400D03*
X-18640000Y32483599D03*
X12065000Y27940000D03*
X24540000Y32483599D03*
X-2540000Y39344600D03*
X-18640000Y24863599D03*
X17246600Y26085800D03*
X-18640000Y27403599D03*
X19460000Y37563599D03*
X4430000Y37400000D03*
X3200400Y19862800D03*
X-14440000Y37200000D03*
X13843000Y27762200D03*
X-14100000Y23060000D03*
X4428453Y33111500D03*
X17018000Y27711400D03*
X-13450000Y18140000D03*
X16920000Y37563599D03*
X-18640000Y29943599D03*
X390000Y17940000D03*
X9457677Y29825500D03*
X16459200Y32664400D03*
X5540000Y38930000D03*
X-13560000Y27403599D03*
X-16100000Y32483599D03*
X13868400Y25908000D03*
X-18640000Y37563599D03*
X-18640000Y22323599D03*
X-16100000Y24863599D03*
X-18640000Y19783599D03*
X1001000Y26060000D03*
X-13560000Y24863599D03*
X-16100000Y22323599D03*
X24540000Y37563599D03*
X670000Y28320000D03*
X-16100000Y29943599D03*
X-5230000Y25880000D03*
X660000Y31690000D03*
X-13560000Y40103599D03*
X-18640000Y35023599D03*
X-16100000Y19783599D03*
X1850000Y39045500D03*
X-11020000Y40103599D03*
X-13560000Y19783599D03*
X-16100000Y35023599D03*
X-16100000Y37563599D03*
X20497800Y32283400D03*
X-14520000Y29090000D03*
%TO.N,+3V3*%
X1955800Y16967200D03*
X26797000Y27305000D03*
X25298400Y26339800D03*
X11050000Y37425000D03*
X15443200Y35737800D03*
X24587200Y34823400D03*
X11277600Y28854400D03*
X-2190000Y25740000D03*
X12166600Y29514800D03*
X-1975500Y37553372D03*
%TO.N,/AVDDOUT*%
X7863900Y30124400D03*
%TO.N,/DVDDOUT*%
X9753600Y38150800D03*
%TO.N,/REF*%
X4013200Y33985200D03*
%TO.N,/ISP*%
X1040000Y35730000D03*
X-2150000Y34820000D03*
%TO.N,/INP*%
X2550000Y23540000D03*
X-2510000Y23480000D03*
%TO.N,/UR+*%
X11970000Y26540000D03*
X3524020Y28620000D03*
%TO.N,/US+*%
X10000000Y25800000D03*
X9143911Y27833911D03*
X5100000Y29720000D03*
%TO.N,/UT+*%
X8050000Y25740000D03*
%TO.N,/ADE_Reset*%
X21717000Y33197800D03*
%TO.N,/O_IN*%
X10375000Y29850000D03*
%TO.N,Net-(U1A--)*%
X-3410000Y23230000D03*
X230000Y20824500D03*
%TO.N,Net-(U3A--)*%
X260000Y33020000D03*
X-2650000Y33470000D03*
%TO.N,Net-(U1B--)*%
X-700000Y29710000D03*
X-3390000Y29150000D03*
%TO.N,/SCLK*%
X13250000Y33950000D03*
X13225000Y31200000D03*
%TO.N,/MISO*%
X13214638Y35157566D03*
%TO.N,/MOSI*%
X15409211Y34609211D03*
%TO.N,/SS*%
X14459548Y36442005D03*
%TO.N,/RN*%
X-5934500Y22738843D03*
X-4520000Y22670000D03*
%TO.N,Net-(U3B--)*%
X309163Y38610563D03*
X-2600000Y36690000D03*
%TO.N,/UM*%
X1610000Y23910000D03*
X1625500Y35047145D03*
X2277484Y22357547D03*
%TO.N,/C+*%
X-70000Y18890000D03*
%TO.N,/UR-*%
X4230000Y29490000D03*
X13040000Y26640000D03*
%TO.N,/US-*%
X11000000Y25870000D03*
X6182300Y29546200D03*
X8393411Y29123411D03*
%TO.N,/UT-*%
X9020000Y25950000D03*
%TO.N,/C-*%
X-4765656Y20033911D03*
%TD*%
%TA.AperFunction,Conductor*%
%TO.N,+3V3*%
G36*
X-13929157Y39629398D02*
G01*
X-13920575Y39623363D01*
X-13862847Y39579067D01*
X-13862839Y39579062D01*
X-13716760Y39518554D01*
X-13560000Y39497917D01*
X-13403239Y39518554D01*
X-13257160Y39579062D01*
X-13257152Y39579067D01*
X-13199425Y39623363D01*
X-13133205Y39648963D01*
X-13122722Y39649400D01*
X-11457278Y39649400D01*
X-11389157Y39629398D01*
X-11380575Y39623363D01*
X-11322847Y39579067D01*
X-11322839Y39579062D01*
X-11176760Y39518554D01*
X-11020000Y39497917D01*
X-10863239Y39518554D01*
X-10717160Y39579062D01*
X-10717152Y39579067D01*
X-10659425Y39623363D01*
X-10593205Y39648963D01*
X-10582722Y39649400D01*
X-3249230Y39649400D01*
X-3181109Y39629398D01*
X-3134616Y39575742D01*
X-3124308Y39506954D01*
X-3125044Y39501362D01*
X-3145682Y39344600D01*
X-3125044Y39187838D01*
X-3064536Y39041759D01*
X-2968282Y38916318D01*
X-2842842Y38820065D01*
X-2842839Y38820063D01*
X-2696760Y38759555D01*
X-2540000Y38738918D01*
X-2383239Y38759555D01*
X-2237160Y38820063D01*
X-2237157Y38820065D01*
X-2111718Y38916318D01*
X-2015465Y39041757D01*
X-2015463Y39041760D01*
X-1954955Y39187839D01*
X-1934318Y39344599D01*
X-1934318Y39344600D01*
X-1955692Y39506954D01*
X-1944753Y39577103D01*
X-1897624Y39630201D01*
X-1830770Y39649400D01*
X1300972Y39649400D01*
X1369093Y39629398D01*
X1415586Y39575742D01*
X1425690Y39505468D01*
X1400935Y39446698D01*
X1333092Y39358282D01*
X1325465Y39348342D01*
X1325463Y39348339D01*
X1264955Y39202260D01*
X1244318Y39045500D01*
X1244318Y39045499D01*
X1264955Y38888739D01*
X1325463Y38742660D01*
X1325465Y38742657D01*
X1421718Y38617218D01*
X1547157Y38520965D01*
X1547160Y38520963D01*
X1693239Y38460455D01*
X1850000Y38439818D01*
X2006760Y38460455D01*
X2152839Y38520963D01*
X2152842Y38520965D01*
X2278282Y38617218D01*
X2374536Y38742659D01*
X2435044Y38888738D01*
X2455189Y39041757D01*
X2455682Y39045499D01*
X2455682Y39045500D01*
X2435044Y39202260D01*
X2435044Y39202262D01*
X2374536Y39348341D01*
X2299064Y39446698D01*
X2273465Y39512916D01*
X2287730Y39582465D01*
X2337331Y39633261D01*
X2399028Y39649400D01*
X5119927Y39649400D01*
X5188048Y39629398D01*
X5234541Y39575742D01*
X5244645Y39505468D01*
X5215151Y39440888D01*
X5196635Y39423441D01*
X5111718Y39358282D01*
X5101219Y39344599D01*
X5015465Y39232842D01*
X5015463Y39232839D01*
X4954955Y39086760D01*
X4934318Y38930000D01*
X4934318Y38929999D01*
X4954955Y38773239D01*
X5015463Y38627160D01*
X5015465Y38627157D01*
X5111718Y38501718D01*
X5237157Y38405465D01*
X5237160Y38405463D01*
X5383239Y38344955D01*
X5540000Y38324318D01*
X5696760Y38344955D01*
X5842839Y38405463D01*
X5842842Y38405465D01*
X5887612Y38439818D01*
X5968282Y38501718D01*
X6064536Y38627159D01*
X6125044Y38773238D01*
X6145682Y38930000D01*
X6125044Y39086762D01*
X6064536Y39232841D01*
X5968282Y39358282D01*
X5883367Y39423438D01*
X5841502Y39480775D01*
X5837280Y39551646D01*
X5872044Y39613549D01*
X5934756Y39646830D01*
X5960073Y39649400D01*
X27153600Y39649400D01*
X27221721Y39629398D01*
X27268214Y39575742D01*
X27279600Y39523400D01*
X27279600Y19731790D01*
X27259598Y19663669D01*
X27242695Y19642695D01*
X27186905Y19586905D01*
X27124593Y19552879D01*
X27097810Y19550000D01*
X17002190Y19550000D01*
X16934069Y19570002D01*
X16913095Y19586905D01*
X16486905Y20013095D01*
X16452879Y20075407D01*
X16450000Y20102190D01*
X16450000Y25806335D01*
X16470002Y25874456D01*
X16523658Y25920949D01*
X16593932Y25931053D01*
X16658512Y25901559D01*
X16692407Y25854556D01*
X16722064Y25782959D01*
X16722065Y25782958D01*
X16722065Y25782957D01*
X16818318Y25657518D01*
X16943757Y25561265D01*
X16943760Y25561263D01*
X17089839Y25500755D01*
X17246600Y25480118D01*
X17403360Y25500755D01*
X17549439Y25561263D01*
X17549442Y25561265D01*
X17674882Y25657518D01*
X17771136Y25782959D01*
X17831644Y25929038D01*
X17852282Y26085800D01*
X17831644Y26242562D01*
X17771136Y26388641D01*
X17674882Y26514082D01*
X17549441Y26610336D01*
X17403362Y26670844D01*
X17246600Y26691482D01*
X17089838Y26670844D01*
X16943759Y26610336D01*
X16818318Y26514082D01*
X16722064Y26388641D01*
X16692407Y26317044D01*
X16647861Y26261765D01*
X16580497Y26239344D01*
X16511706Y26256902D01*
X16463328Y26308864D01*
X16450000Y26365264D01*
X16450000Y27000000D01*
X16448605Y27053381D01*
X16447398Y27099576D01*
X16444056Y27115297D01*
X16449454Y27186086D01*
X16492268Y27242721D01*
X16558904Y27267218D01*
X16628206Y27251800D01*
X16644003Y27241462D01*
X16715153Y27186867D01*
X16715160Y27186863D01*
X16861239Y27126355D01*
X17018000Y27105718D01*
X17174760Y27126355D01*
X17320839Y27186863D01*
X17320842Y27186865D01*
X17323928Y27189233D01*
X17446282Y27283118D01*
X17542536Y27408559D01*
X17603044Y27554638D01*
X17623682Y27711400D01*
X17603044Y27868162D01*
X17542536Y28014241D01*
X17446282Y28139682D01*
X17320841Y28235936D01*
X17174762Y28296444D01*
X17018000Y28317082D01*
X16861238Y28296444D01*
X16715159Y28235936D01*
X16589718Y28139682D01*
X16495886Y28017397D01*
X16493465Y28014242D01*
X16493463Y28014239D01*
X16432955Y27868160D01*
X16413210Y27718176D01*
X16384488Y27653249D01*
X16325222Y27614157D01*
X16254231Y27613312D01*
X16203978Y27640986D01*
X16059938Y27770679D01*
X16059934Y27770683D01*
X15887464Y27870258D01*
X15698060Y27931800D01*
X15500000Y27952617D01*
X15301940Y27931800D01*
X15112536Y27870258D01*
X14940066Y27770683D01*
X14940063Y27770680D01*
X14940061Y27770679D01*
X14792069Y27637427D01*
X14675012Y27476312D01*
X14675010Y27476308D01*
X14619394Y27351393D01*
X14594008Y27294375D01*
X14552601Y27099574D01*
X14550000Y27000000D01*
X14550000Y26377335D01*
X14529998Y26309214D01*
X14476342Y26262721D01*
X14406068Y26252617D01*
X14341488Y26282111D01*
X14324037Y26300632D01*
X14323786Y26300959D01*
X14296682Y26336282D01*
X14171241Y26432536D01*
X14025162Y26493044D01*
X13868400Y26513682D01*
X13787629Y26503048D01*
X13717483Y26513987D01*
X13664384Y26561115D01*
X13645194Y26629469D01*
X13645682Y26636285D01*
X13645682Y26640000D01*
X13625044Y26796760D01*
X13625044Y26796762D01*
X13564536Y26942841D01*
X13530525Y26987164D01*
X13504926Y27053381D01*
X13519190Y27122930D01*
X13568791Y27173727D01*
X13637980Y27189643D01*
X13678701Y27180277D01*
X13686236Y27177156D01*
X13843000Y27156518D01*
X13999760Y27177155D01*
X14145839Y27237663D01*
X14145842Y27237665D01*
X14271282Y27333918D01*
X14367536Y27459359D01*
X14428044Y27605438D01*
X14448682Y27762200D01*
X14428044Y27918962D01*
X14367536Y28065041D01*
X14271282Y28190482D01*
X14145841Y28286736D01*
X13999762Y28347244D01*
X13843000Y28367882D01*
X13686238Y28347244D01*
X13558809Y28294461D01*
X13488225Y28286873D01*
X13424738Y28318652D01*
X13388510Y28379710D01*
X13391044Y28450661D01*
X13401475Y28473868D01*
X13402334Y28475357D01*
X13402336Y28475359D01*
X13462844Y28621438D01*
X13479543Y28748282D01*
X13483482Y28778199D01*
X13483482Y28778200D01*
X13474403Y28847160D01*
X13462844Y28934962D01*
X13402336Y29081041D01*
X13306082Y29206482D01*
X13180641Y29302736D01*
X13034562Y29363244D01*
X12877800Y29383882D01*
X12721038Y29363244D01*
X12574959Y29302736D01*
X12449518Y29206482D01*
X12360138Y29089999D01*
X12353265Y29081042D01*
X12353263Y29081039D01*
X12292755Y28934960D01*
X12272118Y28778200D01*
X12272118Y28778199D01*
X12285489Y28676633D01*
X12274549Y28606484D01*
X12227421Y28553386D01*
X12159067Y28534196D01*
X12144131Y28535264D01*
X12065000Y28545682D01*
X11908238Y28525044D01*
X11762159Y28464536D01*
X11636718Y28368282D01*
X11555313Y28262192D01*
X11540465Y28242842D01*
X11540463Y28242839D01*
X11479955Y28096760D01*
X11459318Y27940000D01*
X11459318Y27939999D01*
X11479955Y27783239D01*
X11540463Y27637160D01*
X11540465Y27637157D01*
X11636718Y27511718D01*
X11762157Y27415465D01*
X11762164Y27415461D01*
X11872071Y27369936D01*
X11927351Y27325388D01*
X11949772Y27258024D01*
X11932213Y27189233D01*
X11880251Y27140855D01*
X11840299Y27128606D01*
X11813238Y27125044D01*
X11667159Y27064536D01*
X11541718Y26968282D01*
X11445465Y26842842D01*
X11445463Y26842839D01*
X11384955Y26696760D01*
X11364411Y26540711D01*
X11335688Y26475784D01*
X11276423Y26436693D01*
X11205431Y26435848D01*
X11191274Y26440748D01*
X11156762Y26455044D01*
X11000000Y26475682D01*
X10843238Y26455044D01*
X10697159Y26394536D01*
X10571718Y26298282D01*
X10571717Y26298280D01*
X10571716Y26298280D01*
X10561456Y26284909D01*
X10504118Y26243043D01*
X10433246Y26238822D01*
X10384795Y26261650D01*
X10302841Y26324536D01*
X10156762Y26385044D01*
X10000000Y26405682D01*
X9843238Y26385044D01*
X9697159Y26324536D01*
X9666431Y26300958D01*
X9600214Y26275358D01*
X9530665Y26289622D01*
X9489767Y26324216D01*
X9448282Y26378282D01*
X9322841Y26474536D01*
X9176762Y26535044D01*
X9020000Y26555682D01*
X8863238Y26535044D01*
X8717159Y26474536D01*
X8591718Y26378282D01*
X8524962Y26291283D01*
X8467624Y26249416D01*
X8396753Y26245194D01*
X8360957Y26262062D01*
X8360000Y26260404D01*
X8352848Y26264532D01*
X8352844Y26264533D01*
X8352841Y26264536D01*
X8206762Y26325044D01*
X8050000Y26345682D01*
X7893238Y26325044D01*
X7747159Y26264536D01*
X7621718Y26168282D01*
X7575961Y26108651D01*
X7518625Y26066785D01*
X7447754Y26062563D01*
X7385851Y26097327D01*
X7352570Y26160039D01*
X7350000Y26185356D01*
X7350000Y27833911D01*
X8538229Y27833911D01*
X8538229Y27833910D01*
X8558866Y27677150D01*
X8619374Y27531071D01*
X8619376Y27531068D01*
X8715629Y27405629D01*
X8841068Y27309376D01*
X8841071Y27309374D01*
X8987150Y27248866D01*
X9143911Y27228229D01*
X9300671Y27248866D01*
X9446750Y27309374D01*
X9446753Y27309376D01*
X9572193Y27405629D01*
X9668447Y27531070D01*
X9728955Y27677149D01*
X9749593Y27833911D01*
X9728955Y27990673D01*
X9668447Y28136752D01*
X9572193Y28262193D01*
X9446752Y28358447D01*
X9300673Y28418955D01*
X9143911Y28439593D01*
X8987149Y28418955D01*
X8841070Y28358447D01*
X8715629Y28262193D01*
X8619376Y28136753D01*
X8619374Y28136750D01*
X8558866Y27990671D01*
X8538229Y27833911D01*
X7350000Y27833911D01*
X7350000Y27950000D01*
X4200000Y27950000D01*
X3800000Y27550000D01*
X3750000Y27500000D01*
X3750000Y27499999D01*
X3750000Y20453493D01*
X3729998Y20385372D01*
X3676342Y20338879D01*
X3606068Y20328775D01*
X3547298Y20353529D01*
X3503241Y20387336D01*
X3357162Y20447844D01*
X3200400Y20468482D01*
X3043638Y20447844D01*
X2897559Y20387336D01*
X2772118Y20291082D01*
X2695072Y20190673D01*
X2675865Y20165642D01*
X2675863Y20165639D01*
X2615355Y20019560D01*
X2594718Y19862800D01*
X2594718Y19862799D01*
X2615355Y19706039D01*
X2675863Y19559960D01*
X2675865Y19559957D01*
X2772118Y19434518D01*
X2897557Y19338265D01*
X2897560Y19338263D01*
X3043639Y19277755D01*
X3200400Y19257118D01*
X3357160Y19277755D01*
X3503239Y19338263D01*
X3503242Y19338265D01*
X3547297Y19372069D01*
X3613517Y19397669D01*
X3683065Y19383404D01*
X3733861Y19333803D01*
X3750000Y19272106D01*
X3750000Y16915400D01*
X3729998Y16847279D01*
X3676342Y16800786D01*
X3624000Y16789400D01*
X-19660600Y16789400D01*
X-19728721Y16809402D01*
X-19775214Y16863058D01*
X-19786600Y16915400D01*
X-19786600Y18140000D01*
X-14055682Y18140000D01*
X-14035044Y17983238D01*
X-13974536Y17837159D01*
X-13878282Y17711718D01*
X-13752842Y17615465D01*
X-13752839Y17615463D01*
X-13606760Y17554955D01*
X-13450000Y17534318D01*
X-13293239Y17554955D01*
X-13147160Y17615463D01*
X-13147157Y17615465D01*
X-13021718Y17711718D01*
X-12925465Y17837157D01*
X-12925463Y17837160D01*
X-12864955Y17983239D01*
X-12844318Y18139999D01*
X-12844318Y18140000D01*
X-12864955Y18296760D01*
X-12925463Y18442839D01*
X-12925465Y18442842D01*
X-12976249Y18509025D01*
X-13021718Y18568282D01*
X-13147159Y18664536D01*
X-13293238Y18725044D01*
X-13450000Y18745682D01*
X-13606762Y18725044D01*
X-13752841Y18664536D01*
X-13878282Y18568282D01*
X-13974536Y18442841D01*
X-14035044Y18296762D01*
X-14055682Y18140000D01*
X-19786600Y18140000D01*
X-19786600Y18912983D01*
X-7805783Y18912983D01*
X-7805783Y18912976D01*
X-7789306Y18745682D01*
X-7785500Y18707046D01*
X-7725432Y18509026D01*
X-7627885Y18326530D01*
X-7496610Y18166570D01*
X-7336650Y18035295D01*
X-7336648Y18035294D01*
X-7336647Y18035293D01*
X-7154154Y17937748D01*
X-6956127Y17877678D01*
X-6750203Y17857397D01*
X-6750200Y17857397D01*
X-6750197Y17857397D01*
X-6544272Y17877678D01*
X-6346245Y17937748D01*
X-6163752Y18035293D01*
X-6003790Y18166570D01*
X-5872513Y18326532D01*
X-5774968Y18509025D01*
X-5714898Y18707052D01*
X-5696880Y18890000D01*
X-675682Y18890000D01*
X-655044Y18733238D01*
X-594536Y18587159D01*
X-498282Y18461718D01*
X-372841Y18365464D01*
X-242487Y18311469D01*
X-187208Y18266923D01*
X-164787Y18199559D01*
X-174298Y18146846D01*
X-195044Y18096762D01*
X-215682Y17940000D01*
X-195044Y17783238D01*
X-134536Y17637159D01*
X-38282Y17511718D01*
X35646Y17454990D01*
X87157Y17415465D01*
X87160Y17415463D01*
X233239Y17354955D01*
X390000Y17334318D01*
X546760Y17354955D01*
X692839Y17415463D01*
X692842Y17415465D01*
X818282Y17511718D01*
X914536Y17637159D01*
X975044Y17783238D01*
X995682Y17940000D01*
X975044Y18096762D01*
X914536Y18242841D01*
X818282Y18368282D01*
X692841Y18464536D01*
X562486Y18518530D01*
X507208Y18563076D01*
X484787Y18630439D01*
X494299Y18683156D01*
X515044Y18733238D01*
X535682Y18890000D01*
X515044Y19046762D01*
X454536Y19192841D01*
X358282Y19318282D01*
X232841Y19414536D01*
X86762Y19475044D01*
X-70000Y19495682D01*
X-226762Y19475044D01*
X-372841Y19414536D01*
X-498282Y19318282D01*
X-594536Y19192841D01*
X-655044Y19046762D01*
X-675682Y18890000D01*
X-5696880Y18890000D01*
X-5694617Y18912976D01*
X-5694617Y18912983D01*
X-5714898Y19118907D01*
X-5774968Y19316934D01*
X-5872513Y19499427D01*
X-5880677Y19509375D01*
X-6003790Y19659390D01*
X-6163750Y19790665D01*
X-6346246Y19888212D01*
X-6544266Y19948280D01*
X-6544270Y19948280D01*
X-6544272Y19948281D01*
X-6750197Y19968563D01*
X-6750203Y19968563D01*
X-6956127Y19948281D01*
X-6956128Y19948280D01*
X-6956134Y19948280D01*
X-7154154Y19888212D01*
X-7336650Y19790665D01*
X-7496610Y19659390D01*
X-7627885Y19499430D01*
X-7725432Y19316934D01*
X-7785500Y19118914D01*
X-7785500Y19118908D01*
X-7785501Y19118907D01*
X-7805783Y18912983D01*
X-19786600Y18912983D01*
X-19786600Y19783599D01*
X-19245682Y19783599D01*
X-19245682Y19783598D01*
X-19238766Y19731068D01*
X-19225044Y19626837D01*
X-19164536Y19480758D01*
X-19068282Y19355317D01*
X-18967202Y19277756D01*
X-18942842Y19259064D01*
X-18942839Y19259062D01*
X-18796760Y19198554D01*
X-18640000Y19177917D01*
X-18483239Y19198554D01*
X-18337160Y19259062D01*
X-18337157Y19259064D01*
X-18211718Y19355317D01*
X-18115465Y19480756D01*
X-18115463Y19480759D01*
X-18054955Y19626838D01*
X-18034318Y19783598D01*
X-18034318Y19783599D01*
X-16705682Y19783599D01*
X-16705682Y19783598D01*
X-16698766Y19731068D01*
X-16685044Y19626837D01*
X-16624536Y19480758D01*
X-16528282Y19355317D01*
X-16427202Y19277756D01*
X-16402842Y19259064D01*
X-16402839Y19259062D01*
X-16256760Y19198554D01*
X-16100000Y19177917D01*
X-15943239Y19198554D01*
X-15797160Y19259062D01*
X-15797157Y19259064D01*
X-15671718Y19355317D01*
X-15575465Y19480756D01*
X-15575463Y19480759D01*
X-15514955Y19626838D01*
X-15494318Y19783598D01*
X-15494318Y19783599D01*
X-14165682Y19783599D01*
X-14165682Y19783598D01*
X-14158766Y19731068D01*
X-14145044Y19626837D01*
X-14084536Y19480758D01*
X-13988282Y19355317D01*
X-13887202Y19277756D01*
X-13862842Y19259064D01*
X-13862839Y19259062D01*
X-13716760Y19198554D01*
X-13560000Y19177917D01*
X-13403239Y19198554D01*
X-13257160Y19259062D01*
X-13257157Y19259064D01*
X-13131718Y19355317D01*
X-13035465Y19480756D01*
X-13035463Y19480759D01*
X-12974955Y19626838D01*
X-12954318Y19783598D01*
X-12954318Y19783599D01*
X-12974955Y19940359D01*
X-13013706Y20033911D01*
X-5371338Y20033911D01*
X-5350700Y19877149D01*
X-5290192Y19731070D01*
X-5193938Y19605629D01*
X-5068498Y19509376D01*
X-5068495Y19509374D01*
X-4922416Y19448866D01*
X-4765656Y19428229D01*
X-4608895Y19448866D01*
X-4462816Y19509374D01*
X-4462813Y19509376D01*
X-4337374Y19605629D01*
X-4241121Y19731068D01*
X-4241119Y19731071D01*
X-4180611Y19877150D01*
X-4159974Y20033910D01*
X-4159974Y20033911D01*
X-4180611Y20190671D01*
X-4241119Y20336750D01*
X-4241121Y20336753D01*
X-4265591Y20368643D01*
X-4337374Y20462193D01*
X-4462815Y20558447D01*
X-4608894Y20618955D01*
X-4765656Y20639593D01*
X-4922418Y20618955D01*
X-5068497Y20558447D01*
X-5193938Y20462193D01*
X-5290192Y20336752D01*
X-5350700Y20190673D01*
X-5371338Y20033911D01*
X-13013706Y20033911D01*
X-13035463Y20086438D01*
X-13035465Y20086441D01*
X-13131718Y20211881D01*
X-13257159Y20308135D01*
X-13403238Y20368643D01*
X-13560000Y20389281D01*
X-13716762Y20368643D01*
X-13862841Y20308135D01*
X-13988282Y20211881D01*
X-14084536Y20086440D01*
X-14145044Y19940361D01*
X-14153366Y19877150D01*
X-14165682Y19783599D01*
X-15494318Y19783599D01*
X-15514955Y19940359D01*
X-15575463Y20086438D01*
X-15575465Y20086441D01*
X-15671718Y20211881D01*
X-15797159Y20308135D01*
X-15943238Y20368643D01*
X-16100000Y20389281D01*
X-16256762Y20368643D01*
X-16402841Y20308135D01*
X-16528282Y20211881D01*
X-16624536Y20086440D01*
X-16685044Y19940361D01*
X-16693366Y19877150D01*
X-16705682Y19783599D01*
X-18034318Y19783599D01*
X-18054955Y19940359D01*
X-18115463Y20086438D01*
X-18115465Y20086441D01*
X-18211718Y20211881D01*
X-18337159Y20308135D01*
X-18483238Y20368643D01*
X-18640000Y20389281D01*
X-18796762Y20368643D01*
X-18942841Y20308135D01*
X-19068282Y20211881D01*
X-19164536Y20086440D01*
X-19225044Y19940361D01*
X-19233366Y19877150D01*
X-19245682Y19783599D01*
X-19786600Y19783599D01*
X-19786600Y22323599D01*
X-19245682Y22323599D01*
X-19225044Y22166837D01*
X-19164536Y22020758D01*
X-19068282Y21895317D01*
X-18942842Y21799064D01*
X-18942839Y21799062D01*
X-18796760Y21738554D01*
X-18640000Y21717917D01*
X-18483239Y21738554D01*
X-18337160Y21799062D01*
X-18337157Y21799064D01*
X-18211718Y21895317D01*
X-18115465Y22020756D01*
X-18115463Y22020759D01*
X-18054955Y22166838D01*
X-18034318Y22323598D01*
X-18034318Y22323599D01*
X-16705682Y22323599D01*
X-16685044Y22166837D01*
X-16624536Y22020758D01*
X-16528282Y21895317D01*
X-16402842Y21799064D01*
X-16402839Y21799062D01*
X-16256760Y21738554D01*
X-16100000Y21717917D01*
X-15943239Y21738554D01*
X-15797160Y21799062D01*
X-15797157Y21799064D01*
X-15671718Y21895317D01*
X-15575465Y22020756D01*
X-15575463Y22020759D01*
X-15514955Y22166838D01*
X-15494318Y22323598D01*
X-15494318Y22323599D01*
X-15514955Y22480359D01*
X-15575463Y22626438D01*
X-15575465Y22626441D01*
X-15581316Y22634066D01*
X-15671718Y22751881D01*
X-15797159Y22848135D01*
X-15943238Y22908643D01*
X-16100000Y22929281D01*
X-16256762Y22908643D01*
X-16402841Y22848135D01*
X-16528282Y22751881D01*
X-16624536Y22626440D01*
X-16685044Y22480361D01*
X-16705682Y22323599D01*
X-18034318Y22323599D01*
X-18054955Y22480359D01*
X-18115463Y22626438D01*
X-18115465Y22626441D01*
X-18121316Y22634066D01*
X-18211718Y22751881D01*
X-18337159Y22848135D01*
X-18483238Y22908643D01*
X-18640000Y22929281D01*
X-18796762Y22908643D01*
X-18942841Y22848135D01*
X-19068282Y22751881D01*
X-19164536Y22626440D01*
X-19225044Y22480361D01*
X-19245682Y22323599D01*
X-19786600Y22323599D01*
X-19786600Y23060000D01*
X-14705682Y23060000D01*
X-14705682Y23059999D01*
X-14699819Y23015465D01*
X-14685044Y22903238D01*
X-14624536Y22757159D01*
X-14528282Y22631718D01*
X-14402842Y22535465D01*
X-14402839Y22535463D01*
X-14256760Y22474955D01*
X-14100000Y22454318D01*
X-13943239Y22474955D01*
X-13797160Y22535463D01*
X-13797157Y22535465D01*
X-13671718Y22631718D01*
X-13575465Y22757157D01*
X-13575463Y22757160D01*
X-13514955Y22903239D01*
X-13494318Y23059999D01*
X-13494318Y23060000D01*
X-13514955Y23216760D01*
X-13575463Y23362839D01*
X-13575465Y23362842D01*
X-13671718Y23488282D01*
X-13797159Y23584536D01*
X-13943238Y23645044D01*
X-14100000Y23665682D01*
X-14256762Y23645044D01*
X-14402841Y23584536D01*
X-14528282Y23488282D01*
X-14624536Y23362841D01*
X-14685044Y23216762D01*
X-14698577Y23113966D01*
X-14705682Y23060000D01*
X-19786600Y23060000D01*
X-19786600Y23992983D01*
X-7805783Y23992983D01*
X-7805783Y23992976D01*
X-7790291Y23835682D01*
X-7785500Y23787046D01*
X-7725432Y23589026D01*
X-7627885Y23406530D01*
X-7496610Y23246570D01*
X-7336650Y23115295D01*
X-7336648Y23115294D01*
X-7336647Y23115293D01*
X-7217707Y23051718D01*
X-7154154Y23017748D01*
X-6974427Y22963229D01*
X-6956127Y22957678D01*
X-6750203Y22937397D01*
X-6750200Y22937397D01*
X-6750195Y22937397D01*
X-6668932Y22945400D01*
X-6599179Y22932171D01*
X-6547651Y22883330D01*
X-6530708Y22814385D01*
X-6531658Y22803582D01*
X-6540182Y22738843D01*
X-6535787Y22705463D01*
X-6527430Y22641981D01*
X-6538369Y22571832D01*
X-6585498Y22518734D01*
X-6653851Y22499544D01*
X-6664699Y22500141D01*
X-6704034Y22504016D01*
X-6750198Y22508563D01*
X-6750203Y22508563D01*
X-6956127Y22488281D01*
X-6956128Y22488280D01*
X-6956134Y22488280D01*
X-7154154Y22428212D01*
X-7336650Y22330665D01*
X-7496610Y22199390D01*
X-7627885Y22039430D01*
X-7725432Y21856934D01*
X-7785500Y21658914D01*
X-7785500Y21658908D01*
X-7785501Y21658907D01*
X-7805783Y21452983D01*
X-7805783Y21452976D01*
X-7795546Y21349036D01*
X-7785500Y21247046D01*
X-7725432Y21049026D01*
X-7627885Y20866530D01*
X-7496610Y20706570D01*
X-7336650Y20575295D01*
X-7336648Y20575294D01*
X-7336647Y20575293D01*
X-7154154Y20477748D01*
X-7055573Y20447844D01*
X-6956127Y20417678D01*
X-6750203Y20397397D01*
X-6750200Y20397397D01*
X-6750197Y20397397D01*
X-6544272Y20417678D01*
X-6346245Y20477748D01*
X-6163752Y20575293D01*
X-6003790Y20706570D01*
X-5907008Y20824500D01*
X-375682Y20824500D01*
X-355044Y20667738D01*
X-294536Y20521659D01*
X-198282Y20396218D01*
X-83487Y20308133D01*
X-72842Y20299965D01*
X-72839Y20299963D01*
X73239Y20239455D01*
X230000Y20218818D01*
X386760Y20239455D01*
X532839Y20299963D01*
X532842Y20299965D01*
X543487Y20308133D01*
X658282Y20396218D01*
X754536Y20521659D01*
X815044Y20667738D01*
X835682Y20824500D01*
X815044Y20981262D01*
X754536Y21127341D01*
X658282Y21252782D01*
X532841Y21349036D01*
X386762Y21409544D01*
X230000Y21430182D01*
X73238Y21409544D01*
X-72841Y21349036D01*
X-198282Y21252782D01*
X-294536Y21127341D01*
X-355044Y20981262D01*
X-375682Y20824500D01*
X-5907008Y20824500D01*
X-5872513Y20866532D01*
X-5774968Y21049025D01*
X-5714898Y21247052D01*
X-5694617Y21452976D01*
X-5694617Y21452983D01*
X-5714898Y21658907D01*
X-5774968Y21856934D01*
X-5839851Y21978321D01*
X-5854323Y22047827D01*
X-5828919Y22114123D01*
X-5776948Y22154125D01*
X-5631664Y22214304D01*
X-5631657Y22214308D01*
X-5506218Y22310561D01*
X-5409965Y22436000D01*
X-5409965Y22436001D01*
X-5409964Y22436002D01*
X-5350820Y22578786D01*
X-5306272Y22634066D01*
X-5238909Y22656487D01*
X-5170117Y22638928D01*
X-5121739Y22586966D01*
X-5109490Y22547014D01*
X-5105044Y22513238D01*
X-5044536Y22367159D01*
X-4948282Y22241718D01*
X-4834128Y22154125D01*
X-4822842Y22145465D01*
X-4822839Y22145463D01*
X-4676760Y22084955D01*
X-4520000Y22064318D01*
X-4363239Y22084955D01*
X-4217160Y22145463D01*
X-4217157Y22145465D01*
X-4091718Y22241718D01*
X-3995465Y22367157D01*
X-3995463Y22367160D01*
X-3934955Y22513239D01*
X-3920077Y22626253D01*
X-3891354Y22691180D01*
X-3832089Y22730271D01*
X-3761097Y22731116D01*
X-3718452Y22709769D01*
X-3712847Y22705468D01*
X-3712839Y22705463D01*
X-3566760Y22644955D01*
X-3410000Y22624318D01*
X-3253239Y22644955D01*
X-3107160Y22705463D01*
X-3107157Y22705465D01*
X-2981715Y22801720D01*
X-2910324Y22894759D01*
X-2852986Y22936626D01*
X-2782115Y22940848D01*
X-2762145Y22934464D01*
X-2666762Y22894956D01*
X-2510000Y22874318D01*
X-2353239Y22894955D01*
X-2207160Y22955463D01*
X-2207157Y22955465D01*
X-2081718Y23051718D01*
X-1985465Y23177157D01*
X-1985463Y23177160D01*
X-1924955Y23323239D01*
X-1904318Y23479999D01*
X-1904318Y23480000D01*
X-1924955Y23636760D01*
X-1985463Y23782839D01*
X-1985465Y23782842D01*
X-1988695Y23787052D01*
X-2081718Y23908282D01*
X-2083957Y23910000D01*
X1004318Y23910000D01*
X1004318Y23909999D01*
X1024955Y23753239D01*
X1085463Y23607160D01*
X1085465Y23607157D01*
X1181718Y23481718D01*
X1307157Y23385465D01*
X1307160Y23385463D01*
X1453239Y23324955D01*
X1610000Y23304318D01*
X1766762Y23324956D01*
X1840129Y23355345D01*
X1910719Y23362934D01*
X1974205Y23331154D01*
X2004754Y23287156D01*
X2025462Y23237162D01*
X2025468Y23237152D01*
X2119992Y23113966D01*
X2145592Y23047746D01*
X2131327Y22978197D01*
X2081725Y22927402D01*
X2068262Y22920861D01*
X1974643Y22882083D01*
X1849202Y22785829D01*
X1760324Y22670000D01*
X1752949Y22660389D01*
X1752947Y22660386D01*
X1692439Y22514307D01*
X1671802Y22357547D01*
X1671802Y22357546D01*
X1692439Y22200786D01*
X1752947Y22054707D01*
X1752949Y22054704D01*
X1849202Y21929265D01*
X1974641Y21833012D01*
X1974644Y21833010D01*
X2120723Y21772502D01*
X2277484Y21751865D01*
X2434244Y21772502D01*
X2580323Y21833010D01*
X2580326Y21833012D01*
X2611502Y21856934D01*
X2705766Y21929265D01*
X2802020Y22054706D01*
X2862528Y22200785D01*
X2883166Y22357547D01*
X2862528Y22514309D01*
X2802020Y22660388D01*
X2707491Y22783580D01*
X2681891Y22849799D01*
X2696156Y22919348D01*
X2745757Y22970144D01*
X2759228Y22976688D01*
X2852841Y23015464D01*
X2978282Y23111718D01*
X3074536Y23237159D01*
X3135044Y23383238D01*
X3155682Y23540000D01*
X3135044Y23696762D01*
X3074536Y23842841D01*
X2978282Y23968282D01*
X2852841Y24064536D01*
X2706762Y24125044D01*
X2550000Y24145682D01*
X2393238Y24125044D01*
X2319869Y24094653D01*
X2249281Y24087065D01*
X2185794Y24118844D01*
X2155245Y24162843D01*
X2134536Y24212841D01*
X2038282Y24338282D01*
X1912841Y24434536D01*
X1766762Y24495044D01*
X1610000Y24515682D01*
X1453238Y24495044D01*
X1307159Y24434536D01*
X1181718Y24338282D01*
X1120052Y24257917D01*
X1085465Y24212842D01*
X1085463Y24212839D01*
X1024955Y24066760D01*
X1004318Y23910000D01*
X-2083957Y23910000D01*
X-2207159Y24004536D01*
X-2353238Y24065044D01*
X-2510000Y24085682D01*
X-2666762Y24065044D01*
X-2812841Y24004536D01*
X-2938282Y23908282D01*
X-3009675Y23815239D01*
X-3067012Y23773373D01*
X-3137883Y23769151D01*
X-3157855Y23775535D01*
X-3253238Y23815044D01*
X-3410000Y23835682D01*
X-3566762Y23815044D01*
X-3712841Y23754536D01*
X-3838282Y23658282D01*
X-3934536Y23532841D01*
X-3995044Y23386762D01*
X-4009922Y23273744D01*
X-4038644Y23208820D01*
X-4097909Y23169728D01*
X-4168900Y23168883D01*
X-4211545Y23190228D01*
X-4217159Y23194536D01*
X-4363238Y23255044D01*
X-4520000Y23275682D01*
X-4676762Y23255044D01*
X-4822841Y23194536D01*
X-4948282Y23098282D01*
X-5044536Y22972841D01*
X-5103680Y22830054D01*
X-5148226Y22774776D01*
X-5215589Y22752355D01*
X-5284381Y22769913D01*
X-5332759Y22821875D01*
X-5345009Y22861828D01*
X-5349455Y22895603D01*
X-5409963Y23041682D01*
X-5409965Y23041685D01*
X-5414616Y23047746D01*
X-5506218Y23167125D01*
X-5631659Y23263379D01*
X-5763064Y23317808D01*
X-5818344Y23362356D01*
X-5840765Y23429720D01*
X-5825967Y23493613D01*
X-5774968Y23589025D01*
X-5714898Y23787052D01*
X-5694617Y23992976D01*
X-5694617Y23992983D01*
X-5714898Y24198907D01*
X-5719124Y24212837D01*
X-5774968Y24396934D01*
X-5836927Y24512851D01*
X-5872513Y24579427D01*
X-5872515Y24579430D01*
X-6003790Y24739390D01*
X-6089829Y24810000D01*
X-1685647Y24810000D01*
X-1665165Y24667543D01*
X-1605377Y24536627D01*
X-1516914Y24434534D01*
X-1511126Y24427855D01*
X-1463011Y24396934D01*
X-1390053Y24350047D01*
X-1251961Y24309500D01*
X-1108039Y24309500D01*
X-969946Y24350047D01*
X-848873Y24427855D01*
X-848872Y24427855D01*
X-775224Y24512851D01*
X-715498Y24551234D01*
X-644501Y24551234D01*
X-584776Y24512851D01*
X-528587Y24448006D01*
X-516914Y24434534D01*
X-511126Y24427855D01*
X-463011Y24396934D01*
X-390053Y24350047D01*
X-251961Y24309500D01*
X-108039Y24309500D01*
X30053Y24350047D01*
X151126Y24427855D01*
X156914Y24434534D01*
X245377Y24536627D01*
X305165Y24667543D01*
X325647Y24810000D01*
X305165Y24952457D01*
X245377Y25083373D01*
X151128Y25192143D01*
X30053Y25269953D01*
X-108039Y25310500D01*
X-251961Y25310500D01*
X-390053Y25269953D01*
X-511128Y25192143D01*
X-533401Y25166438D01*
X-584775Y25107149D01*
X-644501Y25068765D01*
X-715498Y25068765D01*
X-775224Y25107148D01*
X-775225Y25107149D01*
X-826601Y25166440D01*
X-848872Y25192143D01*
X-848873Y25192144D01*
X-961179Y25264318D01*
X-969947Y25269953D01*
X-1108039Y25310500D01*
X-1251961Y25310500D01*
X-1390053Y25269953D01*
X-1511128Y25192143D01*
X-1605377Y25083373D01*
X-1665165Y24952457D01*
X-1685647Y24810000D01*
X-6089829Y24810000D01*
X-6163750Y24870665D01*
X-6346246Y24968212D01*
X-6544266Y25028280D01*
X-6544270Y25028280D01*
X-6544272Y25028281D01*
X-6750197Y25048563D01*
X-6750203Y25048563D01*
X-6956127Y25028281D01*
X-6956128Y25028280D01*
X-6956134Y25028280D01*
X-7154154Y24968212D01*
X-7336650Y24870665D01*
X-7496610Y24739390D01*
X-7627885Y24579430D01*
X-7725432Y24396934D01*
X-7785500Y24198914D01*
X-7785500Y24198908D01*
X-7785501Y24198907D01*
X-7805783Y23992983D01*
X-19786600Y23992983D01*
X-19786600Y24863599D01*
X-19245682Y24863599D01*
X-19225044Y24706837D01*
X-19164536Y24560758D01*
X-19068282Y24435317D01*
X-18942842Y24339064D01*
X-18942839Y24339062D01*
X-18796760Y24278554D01*
X-18640000Y24257917D01*
X-18483239Y24278554D01*
X-18337160Y24339062D01*
X-18337157Y24339064D01*
X-18211718Y24435317D01*
X-18115465Y24560756D01*
X-18115463Y24560759D01*
X-18054955Y24706838D01*
X-18034318Y24863598D01*
X-18034318Y24863599D01*
X-16705682Y24863599D01*
X-16685044Y24706837D01*
X-16624536Y24560758D01*
X-16528282Y24435317D01*
X-16402842Y24339064D01*
X-16402839Y24339062D01*
X-16256760Y24278554D01*
X-16100000Y24257917D01*
X-15943239Y24278554D01*
X-15797160Y24339062D01*
X-15797157Y24339064D01*
X-15671718Y24435317D01*
X-15575465Y24560756D01*
X-15575463Y24560759D01*
X-15514955Y24706838D01*
X-15494318Y24863598D01*
X-15494318Y24863599D01*
X-14165682Y24863599D01*
X-14145044Y24706837D01*
X-14084536Y24560758D01*
X-13988282Y24435317D01*
X-13862842Y24339064D01*
X-13862839Y24339062D01*
X-13716760Y24278554D01*
X-13560000Y24257917D01*
X-13403239Y24278554D01*
X-13257160Y24339062D01*
X-13257157Y24339064D01*
X-13131718Y24435317D01*
X-13035465Y24560756D01*
X-13035463Y24560759D01*
X-12974955Y24706838D01*
X-12954318Y24863598D01*
X-12954318Y24863599D01*
X-12974955Y25020359D01*
X-13035463Y25166438D01*
X-13035465Y25166441D01*
X-13055187Y25192143D01*
X-13131718Y25291881D01*
X-13257159Y25388135D01*
X-13403238Y25448643D01*
X-13560000Y25469281D01*
X-13716762Y25448643D01*
X-13862841Y25388135D01*
X-13988282Y25291881D01*
X-14084536Y25166440D01*
X-14145044Y25020361D01*
X-14165682Y24863599D01*
X-15494318Y24863599D01*
X-15514955Y25020359D01*
X-15575463Y25166438D01*
X-15575465Y25166441D01*
X-15595187Y25192143D01*
X-15671718Y25291881D01*
X-15797159Y25388135D01*
X-15943238Y25448643D01*
X-16100000Y25469281D01*
X-16256762Y25448643D01*
X-16402841Y25388135D01*
X-16528282Y25291881D01*
X-16624536Y25166440D01*
X-16685044Y25020361D01*
X-16705682Y24863599D01*
X-18034318Y24863599D01*
X-18054955Y25020359D01*
X-18115463Y25166438D01*
X-18115465Y25166441D01*
X-18135187Y25192143D01*
X-18211718Y25291881D01*
X-18337159Y25388135D01*
X-18483238Y25448643D01*
X-18640000Y25469281D01*
X-18796762Y25448643D01*
X-18942841Y25388135D01*
X-19068282Y25291881D01*
X-19164536Y25166440D01*
X-19225044Y25020361D01*
X-19245682Y24863599D01*
X-19786600Y24863599D01*
X-19786600Y26532983D01*
X-7805783Y26532983D01*
X-7805783Y26532976D01*
X-7786410Y26336280D01*
X-7785500Y26327046D01*
X-7725432Y26129026D01*
X-7627885Y25946530D01*
X-7496610Y25786570D01*
X-7336650Y25655295D01*
X-7336648Y25655294D01*
X-7336647Y25655293D01*
X-7171761Y25567159D01*
X-7154154Y25557748D01*
X-7035378Y25521718D01*
X-6956127Y25497678D01*
X-6750203Y25477397D01*
X-6750200Y25477397D01*
X-6750197Y25477397D01*
X-6544272Y25497678D01*
X-6346245Y25557748D01*
X-6163752Y25655293D01*
X-6013832Y25778328D01*
X-5948484Y25806081D01*
X-5878506Y25794099D01*
X-5826115Y25746186D01*
X-5817490Y25729146D01*
X-5815044Y25723242D01*
X-5815044Y25723238D01*
X-5754536Y25577159D01*
X-5658282Y25451718D01*
X-5532842Y25355465D01*
X-5532839Y25355463D01*
X-5386760Y25294955D01*
X-5230000Y25274318D01*
X-5073239Y25294955D01*
X-4927160Y25355463D01*
X-4927157Y25355465D01*
X-4801718Y25451718D01*
X-4705465Y25577157D01*
X-4705463Y25577160D01*
X-4644955Y25723239D01*
X-4624318Y25879999D01*
X-4624318Y25880000D01*
X-4644955Y26036760D01*
X-4654581Y26060000D01*
X395318Y26060000D01*
X395318Y26059999D01*
X415955Y25903239D01*
X476463Y25757160D01*
X476465Y25757157D01*
X572718Y25631718D01*
X698157Y25535465D01*
X698160Y25535463D01*
X844239Y25474955D01*
X1001000Y25454318D01*
X1157760Y25474955D01*
X1303839Y25535463D01*
X1303842Y25535465D01*
X1429282Y25631718D01*
X1525536Y25757159D01*
X1586044Y25903238D01*
X1603301Y26034318D01*
X1606682Y26059999D01*
X1606682Y26060000D01*
X1605789Y26066785D01*
X1586044Y26216762D01*
X1525536Y26362841D01*
X1429282Y26488282D01*
X1303841Y26584536D01*
X1157762Y26645044D01*
X1001000Y26665682D01*
X844238Y26645044D01*
X698159Y26584536D01*
X572718Y26488282D01*
X488311Y26378280D01*
X476465Y26362842D01*
X476463Y26362839D01*
X415955Y26216760D01*
X395318Y26060000D01*
X-4654581Y26060000D01*
X-4705463Y26182839D01*
X-4705465Y26182842D01*
X-4707394Y26185356D01*
X-4801718Y26308282D01*
X-4927159Y26404536D01*
X-5073238Y26465044D01*
X-5230000Y26485682D01*
X-5386762Y26465044D01*
X-5520474Y26409658D01*
X-5591059Y26402070D01*
X-5654546Y26433849D01*
X-5690774Y26494907D01*
X-5693200Y26526790D01*
X-5694617Y26526790D01*
X-5694617Y26532983D01*
X-5714898Y26738907D01*
X-5774968Y26936934D01*
X-5872513Y27119427D01*
X-5872515Y27119430D01*
X-6003790Y27279390D01*
X-6163750Y27410665D01*
X-6346246Y27508212D01*
X-6544266Y27568280D01*
X-6544270Y27568280D01*
X-6544272Y27568281D01*
X-6750197Y27588563D01*
X-6750203Y27588563D01*
X-6956127Y27568281D01*
X-6956128Y27568280D01*
X-6956134Y27568280D01*
X-7154154Y27508212D01*
X-7336650Y27410665D01*
X-7496610Y27279390D01*
X-7627885Y27119430D01*
X-7725432Y26936934D01*
X-7785500Y26738914D01*
X-7785500Y26738908D01*
X-7785501Y26738907D01*
X-7805783Y26532983D01*
X-19786600Y26532983D01*
X-19786600Y27403599D01*
X-19245682Y27403599D01*
X-19225044Y27246837D01*
X-19164536Y27100758D01*
X-19068282Y26975317D01*
X-18942842Y26879064D01*
X-18942839Y26879062D01*
X-18796760Y26818554D01*
X-18640000Y26797917D01*
X-18483239Y26818554D01*
X-18337160Y26879062D01*
X-18337157Y26879064D01*
X-18211718Y26975317D01*
X-18115465Y27100756D01*
X-18115463Y27100759D01*
X-18054955Y27246838D01*
X-18034318Y27403598D01*
X-18034318Y27403599D01*
X-16705682Y27403599D01*
X-16685044Y27246837D01*
X-16624536Y27100758D01*
X-16528282Y26975317D01*
X-16402842Y26879064D01*
X-16402839Y26879062D01*
X-16256760Y26818554D01*
X-16100000Y26797917D01*
X-15943239Y26818554D01*
X-15797160Y26879062D01*
X-15797157Y26879064D01*
X-15671718Y26975317D01*
X-15575465Y27100756D01*
X-15575463Y27100759D01*
X-15514955Y27246838D01*
X-15494318Y27403598D01*
X-15494318Y27403599D01*
X-14165682Y27403599D01*
X-14145044Y27246837D01*
X-14084536Y27100758D01*
X-13988282Y26975317D01*
X-13862842Y26879064D01*
X-13862839Y26879062D01*
X-13716760Y26818554D01*
X-13560000Y26797917D01*
X-13403239Y26818554D01*
X-13257160Y26879062D01*
X-13257157Y26879064D01*
X-13131718Y26975317D01*
X-13035465Y27100756D01*
X-13035463Y27100759D01*
X-12974955Y27246838D01*
X-12954318Y27403598D01*
X-12954318Y27403599D01*
X-12974955Y27560359D01*
X-13035463Y27706438D01*
X-13035465Y27706441D01*
X-13041509Y27714318D01*
X-13131718Y27831881D01*
X-13257159Y27928135D01*
X-13403238Y27988643D01*
X-13560000Y28009281D01*
X-13716762Y27988643D01*
X-13862841Y27928135D01*
X-13988282Y27831881D01*
X-14084536Y27706440D01*
X-14145044Y27560361D01*
X-14165682Y27403599D01*
X-15494318Y27403599D01*
X-15514955Y27560359D01*
X-15575463Y27706438D01*
X-15575465Y27706441D01*
X-15581509Y27714318D01*
X-15671718Y27831881D01*
X-15797159Y27928135D01*
X-15943238Y27988643D01*
X-16100000Y28009281D01*
X-16256762Y27988643D01*
X-16402841Y27928135D01*
X-16528282Y27831881D01*
X-16624536Y27706440D01*
X-16685044Y27560361D01*
X-16705682Y27403599D01*
X-18034318Y27403599D01*
X-18054955Y27560359D01*
X-18115463Y27706438D01*
X-18115465Y27706441D01*
X-18121509Y27714318D01*
X-18211718Y27831881D01*
X-18337159Y27928135D01*
X-18483238Y27988643D01*
X-18640000Y28009281D01*
X-18796762Y27988643D01*
X-18942841Y27928135D01*
X-19068282Y27831881D01*
X-19164536Y27706440D01*
X-19225044Y27560361D01*
X-19245682Y27403599D01*
X-19786600Y27403599D01*
X-19786600Y29090000D01*
X-15125682Y29090000D01*
X-15105044Y28933238D01*
X-15044536Y28787159D01*
X-14948282Y28661718D01*
X-14822842Y28565465D01*
X-14822839Y28565463D01*
X-14676760Y28504955D01*
X-14520000Y28484318D01*
X-14363239Y28504955D01*
X-14217160Y28565463D01*
X-14217157Y28565465D01*
X-14091718Y28661718D01*
X-13995465Y28787157D01*
X-13995463Y28787160D01*
X-13934955Y28933239D01*
X-13916558Y29072983D01*
X-7805783Y29072983D01*
X-7805783Y29072976D01*
X-7787202Y28884318D01*
X-7785500Y28867046D01*
X-7725432Y28669026D01*
X-7627885Y28486530D01*
X-7496610Y28326570D01*
X-7336650Y28195295D01*
X-7336648Y28195294D01*
X-7336647Y28195293D01*
X-7227127Y28136753D01*
X-7154154Y28097748D01*
X-7046326Y28065039D01*
X-6956127Y28037678D01*
X-6750203Y28017397D01*
X-6750200Y28017397D01*
X-6750197Y28017397D01*
X-6544272Y28037678D01*
X-6346245Y28097748D01*
X-6163752Y28195293D01*
X-6011796Y28320000D01*
X64318Y28320000D01*
X64318Y28319999D01*
X84955Y28163239D01*
X145463Y28017160D01*
X145465Y28017157D01*
X241718Y27891718D01*
X367157Y27795465D01*
X367160Y27795463D01*
X513239Y27734955D01*
X670000Y27714318D01*
X826760Y27734955D01*
X972839Y27795463D01*
X972842Y27795465D01*
X1020299Y27831880D01*
X1098282Y27891718D01*
X1194536Y28017159D01*
X1255044Y28163238D01*
X1266949Y28253664D01*
X1275682Y28319999D01*
X1275682Y28320000D01*
X1256654Y28464534D01*
X1255044Y28476762D01*
X1195713Y28620000D01*
X2918338Y28620000D01*
X2918338Y28619999D01*
X2938975Y28463239D01*
X2999483Y28317160D01*
X2999485Y28317157D01*
X3095738Y28191718D01*
X3221177Y28095465D01*
X3221180Y28095463D01*
X3367259Y28034955D01*
X3524020Y28014318D01*
X3680780Y28034955D01*
X3826859Y28095463D01*
X3826862Y28095465D01*
X3828550Y28096760D01*
X3952302Y28191718D01*
X4048556Y28317159D01*
X4109064Y28463238D01*
X4129702Y28620000D01*
X4113651Y28741915D01*
X4124590Y28812061D01*
X4171718Y28865160D01*
X4222126Y28883281D01*
X4386760Y28904955D01*
X4532839Y28965463D01*
X4532842Y28965465D01*
X4534385Y28966649D01*
X4658282Y29061718D01*
X4710795Y29130155D01*
X4768132Y29172021D01*
X4839003Y29176243D01*
X4858975Y29169859D01*
X4943239Y29134955D01*
X5100000Y29114318D01*
X5256760Y29134955D01*
X5402839Y29195463D01*
X5402847Y29195468D01*
X5486460Y29259627D01*
X5552680Y29285228D01*
X5622229Y29270963D01*
X5663126Y29236369D01*
X5754015Y29117920D01*
X5879457Y29021665D01*
X5879460Y29021663D01*
X6025539Y28961155D01*
X6182300Y28940518D01*
X6339060Y28961155D01*
X6485139Y29021663D01*
X6485142Y29021665D01*
X6519830Y29048282D01*
X6610582Y29117918D01*
X6706836Y29243359D01*
X6767344Y29389438D01*
X6787982Y29546200D01*
X6767344Y29702962D01*
X6706836Y29849041D01*
X6610582Y29974482D01*
X6485141Y30070736D01*
X6355585Y30124400D01*
X7258218Y30124400D01*
X7258218Y30124399D01*
X7278855Y29967639D01*
X7339363Y29821560D01*
X7339365Y29821557D01*
X7435618Y29696118D01*
X7561057Y29599865D01*
X7561060Y29599863D01*
X7707138Y29539356D01*
X7742138Y29534748D01*
X7807064Y29506025D01*
X7846156Y29446759D01*
X7847000Y29375768D01*
X7842101Y29361614D01*
X7827129Y29325468D01*
X7808366Y29280171D01*
X7787729Y29123411D01*
X7787729Y29123410D01*
X7808366Y28966650D01*
X7868874Y28820571D01*
X7868876Y28820568D01*
X7965129Y28695129D01*
X8090568Y28598876D01*
X8090571Y28598874D01*
X8236650Y28538366D01*
X8393411Y28517729D01*
X8550171Y28538366D01*
X8696250Y28598874D01*
X8696253Y28598876D01*
X8723781Y28619999D01*
X8821693Y28695129D01*
X8917947Y28820570D01*
X8978455Y28966649D01*
X8999093Y29123411D01*
X8993872Y29163065D01*
X9004811Y29233212D01*
X9051938Y29286311D01*
X9120292Y29305502D01*
X9167011Y29295920D01*
X9300914Y29240456D01*
X9457677Y29219818D01*
X9614437Y29240455D01*
X9760516Y29300963D01*
X9760518Y29300964D01*
X9792447Y29325464D01*
X9855600Y29373922D01*
X9921820Y29399522D01*
X9991369Y29385257D01*
X10009006Y29373922D01*
X10072152Y29325468D01*
X10072160Y29325463D01*
X10218239Y29264955D01*
X10375000Y29244318D01*
X10531760Y29264955D01*
X10677839Y29325463D01*
X10677842Y29325465D01*
X10694070Y29337917D01*
X10803282Y29421718D01*
X10899536Y29547159D01*
X10960044Y29693238D01*
X10972236Y29785844D01*
X10980682Y29849999D01*
X10980682Y29850000D01*
X10960044Y30006762D01*
X10899536Y30152841D01*
X10803282Y30278282D01*
X10677841Y30374536D01*
X10531762Y30435044D01*
X10375000Y30455682D01*
X10218238Y30435044D01*
X10072159Y30374536D01*
X10040226Y30350033D01*
X9977077Y30301577D01*
X9910856Y30275977D01*
X9841308Y30290242D01*
X9823679Y30301570D01*
X9760518Y30350036D01*
X9614439Y30410544D01*
X9457677Y30431182D01*
X9300915Y30410544D01*
X9154836Y30350036D01*
X9029395Y30253782D01*
X8933142Y30128342D01*
X8933140Y30128339D01*
X8872632Y29982260D01*
X8851995Y29825500D01*
X8851995Y29825497D01*
X8857215Y29785844D01*
X8846275Y29715695D01*
X8799146Y29662597D01*
X8730792Y29643408D01*
X8684079Y29652989D01*
X8550173Y29708455D01*
X8515174Y29713062D01*
X8450248Y29741783D01*
X8411155Y29801048D01*
X8410310Y29872039D01*
X8415203Y29886181D01*
X8448944Y29967638D01*
X8469582Y30124400D01*
X8448944Y30281162D01*
X8388436Y30427241D01*
X8292182Y30552682D01*
X8166741Y30648936D01*
X8020662Y30709444D01*
X7863900Y30730082D01*
X7707138Y30709444D01*
X7561059Y30648936D01*
X7435618Y30552682D01*
X7342388Y30431182D01*
X7339365Y30427242D01*
X7339363Y30427239D01*
X7278855Y30281160D01*
X7258218Y30124400D01*
X6355585Y30124400D01*
X6339062Y30131244D01*
X6182300Y30151882D01*
X6025538Y30131244D01*
X5879459Y30070736D01*
X5796087Y30006762D01*
X5795839Y30006572D01*
X5729619Y29980971D01*
X5660070Y29995235D01*
X5619172Y30029831D01*
X5528282Y30148282D01*
X5402841Y30244536D01*
X5256762Y30305044D01*
X5100000Y30325682D01*
X4943238Y30305044D01*
X4797159Y30244536D01*
X4671718Y30148282D01*
X4631357Y30095682D01*
X4619205Y30079845D01*
X4561867Y30037978D01*
X4490996Y30033756D01*
X4471032Y30040137D01*
X4386762Y30075044D01*
X4230000Y30095682D01*
X4073238Y30075044D01*
X3927159Y30014536D01*
X3801718Y29918282D01*
X3705465Y29792842D01*
X3705463Y29792839D01*
X3644955Y29646760D01*
X3624318Y29490000D01*
X3624318Y29489999D01*
X3640368Y29368086D01*
X3629429Y29297937D01*
X3582300Y29244839D01*
X3531892Y29226718D01*
X3524021Y29225681D01*
X3524020Y29225682D01*
X3367258Y29205044D01*
X3221179Y29144536D01*
X3095738Y29048282D01*
X3013048Y28940518D01*
X2999485Y28922842D01*
X2999483Y28922839D01*
X2938975Y28776760D01*
X2918338Y28620000D01*
X1195713Y28620000D01*
X1194536Y28622841D01*
X1098282Y28748282D01*
X972841Y28844536D01*
X826762Y28905044D01*
X670000Y28925682D01*
X513238Y28905044D01*
X367159Y28844536D01*
X241718Y28748282D01*
X147477Y28625464D01*
X145465Y28622842D01*
X145463Y28622839D01*
X84955Y28476760D01*
X64318Y28320000D01*
X-6011796Y28320000D01*
X-6003790Y28326570D01*
X-5872513Y28486532D01*
X-5774968Y28669025D01*
X-5714898Y28867052D01*
X-5694617Y29072976D01*
X-5694617Y29072983D01*
X-5702202Y29150000D01*
X-3995682Y29150000D01*
X-3995682Y29149999D01*
X-3993701Y29134955D01*
X-3975044Y28993238D01*
X-3914536Y28847159D01*
X-3818282Y28721718D01*
X-3740088Y28661718D01*
X-3692842Y28625465D01*
X-3692839Y28625463D01*
X-3546760Y28564955D01*
X-3390000Y28544318D01*
X-3233239Y28564955D01*
X-3087160Y28625463D01*
X-3087157Y28625465D01*
X-2961718Y28721718D01*
X-2865465Y28847157D01*
X-2865463Y28847160D01*
X-2804955Y28993239D01*
X-2784318Y29149999D01*
X-2784318Y29150000D01*
X-2804955Y29306760D01*
X-2865463Y29452839D01*
X-2865465Y29452842D01*
X-2883951Y29476934D01*
X-2961718Y29578282D01*
X-3087159Y29674536D01*
X-3172777Y29710000D01*
X-1305682Y29710000D01*
X-1305682Y29709999D01*
X-1303797Y29695682D01*
X-1285044Y29553238D01*
X-1224536Y29407159D01*
X-1128282Y29281718D01*
X-1015873Y29195464D01*
X-1002842Y29185465D01*
X-1002839Y29185463D01*
X-856760Y29124955D01*
X-700000Y29104318D01*
X-543239Y29124955D01*
X-397160Y29185463D01*
X-397157Y29185465D01*
X-271718Y29281718D01*
X-175465Y29407157D01*
X-175463Y29407160D01*
X-114955Y29553239D01*
X-94318Y29709999D01*
X-94318Y29710000D01*
X-114955Y29866760D01*
X-175463Y30012839D01*
X-175465Y30012842D01*
X-176765Y30014536D01*
X-271718Y30138282D01*
X-397159Y30234536D01*
X-543238Y30295044D01*
X-700000Y30315682D01*
X-856762Y30295044D01*
X-1002841Y30234536D01*
X-1128282Y30138282D01*
X-1224536Y30012841D01*
X-1285044Y29866762D01*
X-1291281Y29819389D01*
X-1305682Y29710000D01*
X-3172777Y29710000D01*
X-3233238Y29735044D01*
X-3390000Y29755682D01*
X-3546762Y29735044D01*
X-3692841Y29674536D01*
X-3818282Y29578282D01*
X-3914536Y29452841D01*
X-3975044Y29306762D01*
X-3993962Y29163063D01*
X-3995682Y29150000D01*
X-5702202Y29150000D01*
X-5714898Y29278907D01*
X-5720671Y29297937D01*
X-5774968Y29476934D01*
X-5805870Y29534748D01*
X-5872513Y29659427D01*
X-5872515Y29659430D01*
X-6003790Y29819390D01*
X-6163750Y29950665D01*
X-6346246Y30048212D01*
X-6544266Y30108280D01*
X-6544270Y30108280D01*
X-6544272Y30108281D01*
X-6750197Y30128563D01*
X-6750203Y30128563D01*
X-6956127Y30108281D01*
X-6956128Y30108280D01*
X-6956134Y30108280D01*
X-7154154Y30048212D01*
X-7336650Y29950665D01*
X-7496610Y29819390D01*
X-7627885Y29659430D01*
X-7725432Y29476934D01*
X-7785500Y29278914D01*
X-7785500Y29278908D01*
X-7785501Y29278907D01*
X-7805783Y29072983D01*
X-13916558Y29072983D01*
X-13914318Y29089999D01*
X-13914318Y29090000D01*
X-13934955Y29246760D01*
X-13995463Y29392839D01*
X-13995465Y29392842D01*
X-13998823Y29397218D01*
X-14091718Y29518282D01*
X-14217159Y29614536D01*
X-14363238Y29675044D01*
X-14520000Y29695682D01*
X-14676762Y29675044D01*
X-14822841Y29614536D01*
X-14948282Y29518282D01*
X-15044536Y29392841D01*
X-15105044Y29246762D01*
X-15125682Y29090000D01*
X-19786600Y29090000D01*
X-19786600Y29943599D01*
X-19245682Y29943599D01*
X-19225044Y29786837D01*
X-19164536Y29640758D01*
X-19068282Y29515317D01*
X-18978935Y29446759D01*
X-18942842Y29419064D01*
X-18942839Y29419062D01*
X-18796760Y29358554D01*
X-18640000Y29337917D01*
X-18483239Y29358554D01*
X-18337160Y29419062D01*
X-18337157Y29419064D01*
X-18211718Y29515317D01*
X-18115465Y29640756D01*
X-18115463Y29640759D01*
X-18054955Y29786838D01*
X-18034318Y29943598D01*
X-18034318Y29943599D01*
X-16705682Y29943599D01*
X-16685044Y29786837D01*
X-16624536Y29640758D01*
X-16528282Y29515317D01*
X-16438935Y29446759D01*
X-16402842Y29419064D01*
X-16402839Y29419062D01*
X-16256760Y29358554D01*
X-16100000Y29337917D01*
X-15943239Y29358554D01*
X-15797160Y29419062D01*
X-15797157Y29419064D01*
X-15671718Y29515317D01*
X-15575465Y29640756D01*
X-15575463Y29640759D01*
X-15514955Y29786838D01*
X-15494318Y29943598D01*
X-15494318Y29943599D01*
X-15514955Y30100359D01*
X-15575463Y30246438D01*
X-15575465Y30246441D01*
X-15581098Y30253782D01*
X-15671718Y30371881D01*
X-15797159Y30468135D01*
X-15943238Y30528643D01*
X-16100000Y30549281D01*
X-16256762Y30528643D01*
X-16402841Y30468135D01*
X-16528282Y30371881D01*
X-16624536Y30246440D01*
X-16685044Y30100361D01*
X-16705682Y29943599D01*
X-18034318Y29943599D01*
X-18054955Y30100359D01*
X-18115463Y30246438D01*
X-18115465Y30246441D01*
X-18121098Y30253782D01*
X-18211718Y30371881D01*
X-18337159Y30468135D01*
X-18483238Y30528643D01*
X-18640000Y30549281D01*
X-18796762Y30528643D01*
X-18942841Y30468135D01*
X-19068282Y30371881D01*
X-19164536Y30246440D01*
X-19225044Y30100361D01*
X-19245682Y29943599D01*
X-19786600Y29943599D01*
X-19786600Y31612983D01*
X-7805783Y31612983D01*
X-7805783Y31612976D01*
X-7794936Y31502841D01*
X-7785500Y31407046D01*
X-7725432Y31209026D01*
X-7627885Y31026530D01*
X-7496610Y30866570D01*
X-7336650Y30735295D01*
X-7336648Y30735294D01*
X-7336647Y30735293D01*
X-7288287Y30709444D01*
X-7154154Y30637748D01*
X-7010983Y30594318D01*
X-6956127Y30577678D01*
X-6750203Y30557397D01*
X-6750200Y30557397D01*
X-6750197Y30557397D01*
X-6544272Y30577678D01*
X-6346245Y30637748D01*
X-6163752Y30735293D01*
X-6003790Y30866570D01*
X-5872513Y31026532D01*
X-5774968Y31209025D01*
X-5714898Y31407052D01*
X-5694617Y31612976D01*
X-5694617Y31612983D01*
X-5714898Y31818907D01*
X-5723348Y31846762D01*
X-5774968Y32016934D01*
X-5808333Y32079355D01*
X-5872513Y32199427D01*
X-5872515Y32199430D01*
X-6003790Y32359390D01*
X-6163750Y32490665D01*
X-6346246Y32588212D01*
X-6544266Y32648280D01*
X-6544270Y32648280D01*
X-6544272Y32648281D01*
X-6750197Y32668563D01*
X-6750203Y32668563D01*
X-6956127Y32648281D01*
X-6956128Y32648280D01*
X-6956134Y32648280D01*
X-7154154Y32588212D01*
X-7336650Y32490665D01*
X-7496610Y32359390D01*
X-7627885Y32199430D01*
X-7725432Y32016934D01*
X-7785500Y31818914D01*
X-7785500Y31818908D01*
X-7785501Y31818907D01*
X-7805783Y31612983D01*
X-19786600Y31612983D01*
X-19786600Y32483599D01*
X-19245682Y32483599D01*
X-19225044Y32326837D01*
X-19164536Y32180758D01*
X-19068282Y32055317D01*
X-18942842Y31959064D01*
X-18942839Y31959062D01*
X-18796760Y31898554D01*
X-18640000Y31877917D01*
X-18483239Y31898554D01*
X-18337160Y31959062D01*
X-18337157Y31959064D01*
X-18211718Y32055317D01*
X-18115465Y32180756D01*
X-18115463Y32180759D01*
X-18054955Y32326838D01*
X-18034318Y32483598D01*
X-18034318Y32483599D01*
X-16705682Y32483599D01*
X-16685044Y32326837D01*
X-16624536Y32180758D01*
X-16528282Y32055317D01*
X-16402842Y31959064D01*
X-16402839Y31959062D01*
X-16256760Y31898554D01*
X-16100000Y31877917D01*
X-15943239Y31898554D01*
X-15797160Y31959062D01*
X-15797157Y31959064D01*
X-15671718Y32055317D01*
X-15575465Y32180756D01*
X-15575463Y32180759D01*
X-15514955Y32326838D01*
X-15494318Y32483598D01*
X-15494318Y32483599D01*
X-15514955Y32640359D01*
X-15575463Y32786438D01*
X-15575465Y32786441D01*
X-15591957Y32807934D01*
X-15671718Y32911881D01*
X-15797159Y33008135D01*
X-15943238Y33068643D01*
X-16100000Y33089281D01*
X-16256762Y33068643D01*
X-16402841Y33008135D01*
X-16528282Y32911881D01*
X-16624536Y32786440D01*
X-16685044Y32640361D01*
X-16705682Y32483599D01*
X-18034318Y32483599D01*
X-18054955Y32640359D01*
X-18115463Y32786438D01*
X-18115465Y32786441D01*
X-18131957Y32807934D01*
X-18211718Y32911881D01*
X-18337159Y33008135D01*
X-18483238Y33068643D01*
X-18640000Y33089281D01*
X-18796762Y33068643D01*
X-18942841Y33008135D01*
X-19068282Y32911881D01*
X-19164536Y32786440D01*
X-19225044Y32640361D01*
X-19245682Y32483599D01*
X-19786600Y32483599D01*
X-19786600Y34152983D01*
X-7805783Y34152983D01*
X-7805783Y34152976D01*
X-7790178Y33994534D01*
X-7785500Y33947046D01*
X-7725432Y33749026D01*
X-7627885Y33566530D01*
X-7496610Y33406570D01*
X-7336650Y33275295D01*
X-7336648Y33275294D01*
X-7336647Y33275293D01*
X-7154154Y33177748D01*
X-6956127Y33117678D01*
X-6750203Y33097397D01*
X-6750200Y33097397D01*
X-6750197Y33097397D01*
X-6544272Y33117678D01*
X-6346245Y33177748D01*
X-6163752Y33275293D01*
X-6003790Y33406570D01*
X-5951735Y33470000D01*
X-3255682Y33470000D01*
X-3235044Y33313238D01*
X-3174536Y33167159D01*
X-3078282Y33041718D01*
X-2964928Y32954739D01*
X-2952842Y32945465D01*
X-2952839Y32945463D01*
X-2806760Y32884955D01*
X-2650000Y32864318D01*
X-2493239Y32884955D01*
X-2347160Y32945463D01*
X-2347157Y32945465D01*
X-2250021Y33020000D01*
X-345682Y33020000D01*
X-325044Y32863238D01*
X-264536Y32717159D01*
X-168282Y32591718D01*
X-42842Y32495465D01*
X-42839Y32495463D01*
X103239Y32434955D01*
X263574Y32413847D01*
X328501Y32385124D01*
X367592Y32325859D01*
X368437Y32254867D01*
X330766Y32194689D01*
X323841Y32188970D01*
X231718Y32118282D01*
X153951Y32016934D01*
X135465Y31992842D01*
X135463Y31992839D01*
X74955Y31846760D01*
X54318Y31690000D01*
X54318Y31689999D01*
X74955Y31533239D01*
X135463Y31387160D01*
X135465Y31387157D01*
X231718Y31261718D01*
X357157Y31165465D01*
X357160Y31165463D01*
X503239Y31104955D01*
X660000Y31084318D01*
X816760Y31104955D01*
X962839Y31165463D01*
X962842Y31165465D01*
X1007849Y31200000D01*
X12619318Y31200000D01*
X12619318Y31199999D01*
X12639955Y31043239D01*
X12700463Y30897160D01*
X12700465Y30897157D01*
X12796718Y30771718D01*
X12922157Y30675465D01*
X12922160Y30675463D01*
X13068239Y30614955D01*
X13225000Y30594318D01*
X13381760Y30614955D01*
X13527839Y30675463D01*
X13527842Y30675465D01*
X13653282Y30771718D01*
X13749536Y30897159D01*
X13810044Y31043238D01*
X13830682Y31200000D01*
X13810044Y31356762D01*
X13749536Y31502841D01*
X13653282Y31628282D01*
X13527841Y31724536D01*
X13381762Y31785044D01*
X13225000Y31805682D01*
X13068238Y31785044D01*
X12922159Y31724536D01*
X12796718Y31628282D01*
X12700465Y31502842D01*
X12700463Y31502839D01*
X12639955Y31356760D01*
X12619318Y31200000D01*
X1007849Y31200000D01*
X1088282Y31261718D01*
X1184536Y31387159D01*
X1245044Y31533238D01*
X1265682Y31690000D01*
X1245044Y31846762D01*
X1184536Y31992841D01*
X1088282Y32118282D01*
X962841Y32214536D01*
X816762Y32275044D01*
X660000Y32295682D01*
X659998Y32295681D01*
X656426Y32296152D01*
X591499Y32324874D01*
X552407Y32384139D01*
X551562Y32455131D01*
X589232Y32515310D01*
X596168Y32521037D01*
X603229Y32526455D01*
X688282Y32591718D01*
X784536Y32717159D01*
X845044Y32863238D01*
X865682Y33020000D01*
X845044Y33176762D01*
X784536Y33322841D01*
X688282Y33448282D01*
X562841Y33544536D01*
X416762Y33605044D01*
X260000Y33625682D01*
X103238Y33605044D01*
X-42841Y33544536D01*
X-168282Y33448282D01*
X-264536Y33322841D01*
X-325044Y33176762D01*
X-345682Y33020000D01*
X-2250021Y33020000D01*
X-2221718Y33041718D01*
X-2125465Y33167157D01*
X-2125463Y33167160D01*
X-2064955Y33313239D01*
X-2044318Y33469999D01*
X-2044318Y33470000D01*
X-2064955Y33626760D01*
X-2125463Y33772839D01*
X-2125465Y33772842D01*
X-2221718Y33898282D01*
X-2334992Y33985200D01*
X3407518Y33985200D01*
X3407518Y33985199D01*
X3428155Y33828439D01*
X3488663Y33682360D01*
X3488665Y33682357D01*
X3584918Y33556918D01*
X3710357Y33460665D01*
X3710364Y33460661D01*
X3775541Y33433664D01*
X3830822Y33389116D01*
X3853242Y33321752D01*
X3845053Y33276370D01*
X3845546Y33276238D01*
X3843964Y33270336D01*
X3843730Y33269036D01*
X3843408Y33268260D01*
X3822771Y33111500D01*
X3822771Y33111499D01*
X3843408Y32954739D01*
X3903916Y32808660D01*
X3903918Y32808657D01*
X4000171Y32683218D01*
X4125610Y32586965D01*
X4125613Y32586963D01*
X4271692Y32526455D01*
X4428453Y32505818D01*
X4585213Y32526455D01*
X4731292Y32586963D01*
X4731295Y32586965D01*
X4732920Y32588212D01*
X4832211Y32664400D01*
X15853518Y32664400D01*
X15853518Y32664399D01*
X15874155Y32507639D01*
X15934663Y32361560D01*
X15934665Y32361557D01*
X16030918Y32236118D01*
X16156357Y32139865D01*
X16156360Y32139863D01*
X16302439Y32079355D01*
X16459200Y32058718D01*
X16615960Y32079355D01*
X16762039Y32139863D01*
X16762042Y32139865D01*
X16887482Y32236118D01*
X16923763Y32283400D01*
X19892118Y32283400D01*
X19892118Y32283399D01*
X19912755Y32126639D01*
X19973263Y31980560D01*
X19973265Y31980557D01*
X20069518Y31855118D01*
X20194957Y31758865D01*
X20194960Y31758863D01*
X20341039Y31698355D01*
X20497800Y31677718D01*
X20654560Y31698355D01*
X20800639Y31758863D01*
X20800642Y31758865D01*
X20926082Y31855118D01*
X21022336Y31980559D01*
X21082844Y32126638D01*
X21103482Y32283400D01*
X21082844Y32440162D01*
X21064852Y32483599D01*
X23934318Y32483599D01*
X23934318Y32483598D01*
X23954955Y32326838D01*
X24015463Y32180759D01*
X24015465Y32180756D01*
X24111718Y32055317D01*
X24237157Y31959064D01*
X24237160Y31959062D01*
X24383239Y31898554D01*
X24540000Y31877917D01*
X24696760Y31898554D01*
X24842839Y31959062D01*
X24842842Y31959064D01*
X24968282Y32055317D01*
X25064536Y32180758D01*
X25125044Y32326837D01*
X25145682Y32483599D01*
X25125044Y32640361D01*
X25064536Y32786440D01*
X24968282Y32911881D01*
X24842841Y33008135D01*
X24696762Y33068643D01*
X24540000Y33089281D01*
X24383238Y33068643D01*
X24237159Y33008135D01*
X24111718Y32911881D01*
X24031957Y32807934D01*
X24015465Y32786441D01*
X24015463Y32786438D01*
X23954955Y32640359D01*
X23934318Y32483599D01*
X21064852Y32483599D01*
X21022336Y32586241D01*
X20926082Y32711682D01*
X20800641Y32807936D01*
X20654562Y32868444D01*
X20497800Y32889082D01*
X20341038Y32868444D01*
X20194959Y32807936D01*
X20069518Y32711682D01*
X19974776Y32588211D01*
X19973265Y32586242D01*
X19973263Y32586239D01*
X19912755Y32440160D01*
X19892118Y32283400D01*
X16923763Y32283400D01*
X16983736Y32361559D01*
X17044244Y32507638D01*
X17064882Y32664400D01*
X17044244Y32821162D01*
X16983736Y32967241D01*
X16887482Y33092682D01*
X16762041Y33188936D01*
X16740641Y33197800D01*
X21111318Y33197800D01*
X21111318Y33197799D01*
X21131955Y33041039D01*
X21192463Y32894960D01*
X21192465Y32894957D01*
X21288718Y32769518D01*
X21414157Y32673265D01*
X21414160Y32673263D01*
X21560239Y32612755D01*
X21717000Y32592118D01*
X21873760Y32612755D01*
X22019839Y32673263D01*
X22019842Y32673265D01*
X22069908Y32711682D01*
X22145282Y32769518D01*
X22241536Y32894959D01*
X22302044Y33041038D01*
X22322682Y33197800D01*
X22302044Y33354562D01*
X22241536Y33500641D01*
X22145282Y33626082D01*
X22019841Y33722336D01*
X21873762Y33782844D01*
X21717000Y33803482D01*
X21560238Y33782844D01*
X21414159Y33722336D01*
X21288718Y33626082D01*
X21222498Y33539782D01*
X21192465Y33500642D01*
X21192463Y33500639D01*
X21131955Y33354560D01*
X21111318Y33197800D01*
X16740641Y33197800D01*
X16615962Y33249444D01*
X16459200Y33270082D01*
X16302438Y33249444D01*
X16156359Y33188936D01*
X16030918Y33092682D01*
X15934665Y32967242D01*
X15934663Y32967239D01*
X15874155Y32821160D01*
X15853518Y32664400D01*
X4832211Y32664400D01*
X4856735Y32683218D01*
X4952989Y32808659D01*
X5013497Y32954738D01*
X5031210Y33089281D01*
X5034135Y33111499D01*
X5034135Y33111500D01*
X5023940Y33188936D01*
X5013497Y33268262D01*
X4952989Y33414341D01*
X4856735Y33539782D01*
X4731294Y33636036D01*
X4666110Y33663035D01*
X4610832Y33707581D01*
X4588410Y33774945D01*
X4596600Y33820329D01*
X4596107Y33820462D01*
X4597691Y33826375D01*
X4597925Y33827669D01*
X4598244Y33828439D01*
X4618882Y33985199D01*
X4618882Y33985200D01*
X4613752Y34024167D01*
X4598244Y34141962D01*
X4537736Y34288041D01*
X4441482Y34413482D01*
X4316041Y34509736D01*
X4169962Y34570244D01*
X4013200Y34590882D01*
X3856438Y34570244D01*
X3710359Y34509736D01*
X3584918Y34413482D01*
X3491624Y34291898D01*
X3488665Y34288042D01*
X3488663Y34288039D01*
X3428155Y34141960D01*
X3407518Y33985200D01*
X-2334992Y33985200D01*
X-2347159Y33994536D01*
X-2349928Y33996134D01*
X-2351798Y33998095D01*
X-2353711Y33999563D01*
X-2353482Y33999860D01*
X-2398926Y34047512D01*
X-2411553Y34113006D01*
X-2414015Y34106858D01*
X-2471845Y34065673D01*
X-2529508Y34059819D01*
X-2650000Y34075682D01*
X-2806762Y34055044D01*
X-2952841Y33994536D01*
X-3078282Y33898282D01*
X-3174536Y33772841D01*
X-3235044Y33626762D01*
X-3255682Y33470000D01*
X-5951735Y33470000D01*
X-5872513Y33566532D01*
X-5774968Y33749025D01*
X-5714898Y33947052D01*
X-5694617Y34152976D01*
X-5694617Y34152983D01*
X-5714898Y34358907D01*
X-5743274Y34452450D01*
X-5774968Y34556934D01*
X-5808070Y34618863D01*
X-5872513Y34739427D01*
X-5872515Y34739430D01*
X-5938637Y34820000D01*
X-2755682Y34820000D01*
X-2735044Y34663238D01*
X-2674536Y34517159D01*
X-2578282Y34391718D01*
X-2482027Y34317859D01*
X-2452840Y34295463D01*
X-2450067Y34293863D01*
X-2448193Y34291898D01*
X-2446289Y34290437D01*
X-2446516Y34290140D01*
X-2401072Y34242483D01*
X-2388445Y34176991D01*
X-2385986Y34183138D01*
X-2328157Y34224325D01*
X-2270492Y34230180D01*
X-2150002Y34214318D01*
X-2150000Y34214318D01*
X-1993239Y34234955D01*
X-1847160Y34295463D01*
X-1847157Y34295465D01*
X-1721718Y34391718D01*
X-1625465Y34517157D01*
X-1625463Y34517160D01*
X-1564955Y34663239D01*
X-1544318Y34819999D01*
X-1544318Y34820000D01*
X-1564955Y34976760D01*
X-1625463Y35122839D01*
X-1625465Y35122842D01*
X-1629585Y35128211D01*
X-1721718Y35248282D01*
X-1847159Y35344536D01*
X-1993238Y35405044D01*
X-2150000Y35425682D01*
X-2306762Y35405044D01*
X-2452841Y35344536D01*
X-2578282Y35248282D01*
X-2674536Y35122841D01*
X-2735044Y34976762D01*
X-2755682Y34820000D01*
X-5938637Y34820000D01*
X-6003790Y34899390D01*
X-6163750Y35030665D01*
X-6346246Y35128212D01*
X-6544266Y35188280D01*
X-6544270Y35188280D01*
X-6544272Y35188281D01*
X-6750197Y35208563D01*
X-6750203Y35208563D01*
X-6956127Y35188281D01*
X-6956128Y35188280D01*
X-6956134Y35188280D01*
X-7154154Y35128212D01*
X-7336650Y35030665D01*
X-7496610Y34899390D01*
X-7627885Y34739430D01*
X-7725432Y34556934D01*
X-7785500Y34358914D01*
X-7785500Y34358908D01*
X-7785501Y34358907D01*
X-7805783Y34152983D01*
X-19786600Y34152983D01*
X-19786600Y35023599D01*
X-19245682Y35023599D01*
X-19225044Y34866837D01*
X-19164536Y34720758D01*
X-19068282Y34595317D01*
X-18942842Y34499064D01*
X-18942839Y34499062D01*
X-18796760Y34438554D01*
X-18640000Y34417917D01*
X-18483239Y34438554D01*
X-18337160Y34499062D01*
X-18337157Y34499064D01*
X-18211718Y34595317D01*
X-18115465Y34720756D01*
X-18115463Y34720759D01*
X-18054955Y34866838D01*
X-18034318Y35023598D01*
X-18034318Y35023599D01*
X-16705682Y35023599D01*
X-16685044Y34866837D01*
X-16624536Y34720758D01*
X-16528282Y34595317D01*
X-16402842Y34499064D01*
X-16402839Y34499062D01*
X-16256760Y34438554D01*
X-16100000Y34417917D01*
X-15943239Y34438554D01*
X-15797160Y34499062D01*
X-15797157Y34499064D01*
X-15671718Y34595317D01*
X-15575465Y34720756D01*
X-15575463Y34720759D01*
X-15514955Y34866838D01*
X-15494318Y35023598D01*
X-15494318Y35023599D01*
X-15514955Y35180359D01*
X-15575463Y35326438D01*
X-15575465Y35326441D01*
X-15593530Y35349984D01*
X-15671718Y35451881D01*
X-15797159Y35548135D01*
X-15943238Y35608643D01*
X-16100000Y35629281D01*
X-16256762Y35608643D01*
X-16402841Y35548135D01*
X-16528282Y35451881D01*
X-16624536Y35326440D01*
X-16685044Y35180361D01*
X-16705682Y35023599D01*
X-18034318Y35023599D01*
X-18054955Y35180359D01*
X-18115463Y35326438D01*
X-18115465Y35326441D01*
X-18133530Y35349984D01*
X-18211718Y35451881D01*
X-18337159Y35548135D01*
X-18483238Y35608643D01*
X-18640000Y35629281D01*
X-18796762Y35608643D01*
X-18942841Y35548135D01*
X-19068282Y35451881D01*
X-19164536Y35326440D01*
X-19225044Y35180361D01*
X-19245682Y35023599D01*
X-19786600Y35023599D01*
X-19786600Y37563599D01*
X-19245682Y37563599D01*
X-19225044Y37406837D01*
X-19164536Y37260758D01*
X-19068282Y37135317D01*
X-18954080Y37047687D01*
X-18942842Y37039064D01*
X-18942839Y37039062D01*
X-18796760Y36978554D01*
X-18640000Y36957917D01*
X-18483239Y36978554D01*
X-18337160Y37039062D01*
X-18337157Y37039064D01*
X-18211718Y37135317D01*
X-18115465Y37260756D01*
X-18115463Y37260759D01*
X-18054955Y37406838D01*
X-18034318Y37563598D01*
X-18034318Y37563599D01*
X-16705682Y37563599D01*
X-16685044Y37406837D01*
X-16624536Y37260758D01*
X-16528282Y37135317D01*
X-16414080Y37047687D01*
X-16402842Y37039064D01*
X-16402839Y37039062D01*
X-16256760Y36978554D01*
X-16100000Y36957917D01*
X-15943239Y36978554D01*
X-15797160Y37039062D01*
X-15797157Y37039064D01*
X-15671718Y37135317D01*
X-15622085Y37200000D01*
X-15045682Y37200000D01*
X-15025044Y37043238D01*
X-14964536Y36897159D01*
X-14868282Y36771718D01*
X-14761783Y36689999D01*
X-14742842Y36675465D01*
X-14742839Y36675463D01*
X-14596760Y36614955D01*
X-14440000Y36594318D01*
X-14283239Y36614955D01*
X-14137160Y36675463D01*
X-14137157Y36675465D01*
X-14011718Y36771718D01*
X-13915465Y36897157D01*
X-13915463Y36897160D01*
X-13854955Y37043239D01*
X-13834318Y37199999D01*
X-13834318Y37200000D01*
X-13854955Y37356760D01*
X-13915463Y37502839D01*
X-13915465Y37502842D01*
X-13961417Y37562728D01*
X-7800700Y37562728D01*
X-7800700Y35823232D01*
X-7789067Y35764749D01*
X-7744752Y35698428D01*
X-7694521Y35664864D01*
X-7678431Y35654113D01*
X-7678428Y35654112D01*
X-7619950Y35642480D01*
X-7619948Y35642480D01*
X-5880449Y35642480D01*
X-5821971Y35654112D01*
X-5821968Y35654113D01*
X-5755648Y35698428D01*
X-5711333Y35764748D01*
X-5711332Y35764751D01*
X-5699700Y35823229D01*
X-5699700Y36690000D01*
X-3205682Y36690000D01*
X-3205682Y36689999D01*
X-3203768Y36675464D01*
X-3185044Y36533238D01*
X-3124536Y36387159D01*
X-3028282Y36261718D01*
X-2902842Y36165465D01*
X-2902839Y36165463D01*
X-2756760Y36104955D01*
X-2600000Y36084318D01*
X-2480878Y36100000D01*
X-1685647Y36100000D01*
X-1665165Y35957543D01*
X-1605377Y35826627D01*
X-1518836Y35726752D01*
X-1511126Y35717855D01*
X-1455489Y35682100D01*
X-1390053Y35640047D01*
X-1251961Y35599500D01*
X-1108039Y35599500D01*
X-969946Y35640047D01*
X-848873Y35717855D01*
X-848872Y35717855D01*
X-775224Y35802851D01*
X-715498Y35841234D01*
X-644501Y35841234D01*
X-584776Y35802851D01*
X-534316Y35744618D01*
X-518836Y35726752D01*
X-511126Y35717855D01*
X-455489Y35682100D01*
X-390053Y35640047D01*
X-251961Y35599500D01*
X-108039Y35599500D01*
X30053Y35640047D01*
X151126Y35717855D01*
X158836Y35726752D01*
X214794Y35791332D01*
X274521Y35829716D01*
X345517Y35829716D01*
X405243Y35791333D01*
X434736Y35726752D01*
X434941Y35725266D01*
X454955Y35573239D01*
X515463Y35427160D01*
X515465Y35427157D01*
X611718Y35301718D01*
X737157Y35205465D01*
X737160Y35205463D01*
X883238Y35144956D01*
X913268Y35141002D01*
X978195Y35112278D01*
X1017286Y35053012D01*
X1021742Y35032527D01*
X1040455Y34890384D01*
X1100963Y34744305D01*
X1100965Y34744302D01*
X1197218Y34618863D01*
X1322657Y34522610D01*
X1322660Y34522608D01*
X1468739Y34462100D01*
X1625500Y34441463D01*
X1782260Y34462100D01*
X1928339Y34522608D01*
X1928342Y34522610D01*
X2053782Y34618863D01*
X2150036Y34744304D01*
X2210544Y34890383D01*
X2231182Y35047145D01*
X2216645Y35157566D01*
X12608956Y35157566D01*
X12608956Y35157565D01*
X12629593Y35000805D01*
X12690101Y34854726D01*
X12690103Y34854723D01*
X12786356Y34729283D01*
X12902481Y34640177D01*
X12944348Y34582839D01*
X12948569Y34511968D01*
X12913804Y34450065D01*
X12902486Y34440258D01*
X12821718Y34378282D01*
X12725465Y34252842D01*
X12725463Y34252839D01*
X12664955Y34106760D01*
X12644318Y33950000D01*
X12644318Y33949999D01*
X12664955Y33793239D01*
X12725463Y33647160D01*
X12725465Y33647157D01*
X12821718Y33521718D01*
X12947157Y33425465D01*
X12947160Y33425463D01*
X13093239Y33364955D01*
X13250000Y33344318D01*
X13406760Y33364955D01*
X13552839Y33425463D01*
X13552842Y33425465D01*
X13563527Y33433664D01*
X13678282Y33521718D01*
X13774536Y33647159D01*
X13835044Y33793238D01*
X13855682Y33950000D01*
X13835044Y34106762D01*
X13774536Y34252841D01*
X13678282Y34378282D01*
X13562156Y34467388D01*
X13520290Y34524725D01*
X13516068Y34595596D01*
X13523714Y34609211D01*
X14803529Y34609211D01*
X14803529Y34609210D01*
X14824166Y34452450D01*
X14884674Y34306371D01*
X14884676Y34306368D01*
X14980929Y34180929D01*
X15106368Y34084676D01*
X15106371Y34084674D01*
X15252450Y34024166D01*
X15409211Y34003529D01*
X15565971Y34024166D01*
X15712050Y34084674D01*
X15712053Y34084676D01*
X15837493Y34180929D01*
X15933747Y34306370D01*
X15994255Y34452449D01*
X16014893Y34609211D01*
X15994255Y34765973D01*
X15933747Y34912052D01*
X15837493Y35037493D01*
X15712052Y35133747D01*
X15565973Y35194255D01*
X15409211Y35214893D01*
X15252449Y35194255D01*
X15106370Y35133747D01*
X14980929Y35037493D01*
X14884676Y34912053D01*
X14884674Y34912050D01*
X14824166Y34765971D01*
X14803529Y34609211D01*
X13523714Y34609211D01*
X13550832Y34657499D01*
X13562152Y34667308D01*
X13642920Y34729284D01*
X13739174Y34854725D01*
X13799682Y35000804D01*
X13815749Y35122842D01*
X13820320Y35157565D01*
X13820320Y35157566D01*
X13799682Y35314326D01*
X13799682Y35314328D01*
X13739174Y35460407D01*
X13642920Y35585848D01*
X13517479Y35682102D01*
X13371400Y35742610D01*
X13214638Y35763248D01*
X13057876Y35742610D01*
X12911797Y35682102D01*
X12786356Y35585848D01*
X12690103Y35460408D01*
X12690101Y35460405D01*
X12629593Y35314326D01*
X12608956Y35157566D01*
X2216645Y35157566D01*
X2210544Y35203907D01*
X2150036Y35349986D01*
X2053782Y35475427D01*
X1928341Y35571681D01*
X1782262Y35632189D01*
X1752233Y35636142D01*
X1687306Y35664864D01*
X1648214Y35724128D01*
X1643758Y35744612D01*
X1625044Y35886762D01*
X1564536Y36032841D01*
X1468282Y36158282D01*
X1342841Y36254536D01*
X1196762Y36315044D01*
X1040000Y36335682D01*
X883238Y36315044D01*
X737159Y36254536D01*
X611718Y36158282D01*
X611716Y36158280D01*
X611715Y36158279D01*
X545840Y36072429D01*
X488502Y36030562D01*
X417631Y36026340D01*
X355729Y36061104D01*
X322447Y36123817D01*
X321165Y36131173D01*
X305165Y36242457D01*
X245377Y36373373D01*
X185908Y36442005D01*
X13853866Y36442005D01*
X13853866Y36442004D01*
X13874503Y36285244D01*
X13935011Y36139165D01*
X13935013Y36139162D01*
X14031266Y36013723D01*
X14156705Y35917470D01*
X14156708Y35917468D01*
X14302787Y35856960D01*
X14459548Y35836323D01*
X14616308Y35856960D01*
X14762387Y35917468D01*
X14762390Y35917470D01*
X14887830Y36013723D01*
X14984084Y36139164D01*
X15044592Y36285243D01*
X15058010Y36387160D01*
X15065230Y36442004D01*
X15065230Y36442005D01*
X15049702Y36559953D01*
X15044592Y36598767D01*
X14984084Y36744846D01*
X14887830Y36870287D01*
X14762389Y36966541D01*
X14616310Y37027049D01*
X14459548Y37047687D01*
X14302786Y37027049D01*
X14156707Y36966541D01*
X14031266Y36870287D01*
X13955632Y36771718D01*
X13935013Y36744847D01*
X13935011Y36744844D01*
X13874503Y36598765D01*
X13853866Y36442005D01*
X185908Y36442005D01*
X151128Y36482143D01*
X30053Y36559953D01*
X-108039Y36600500D01*
X-251961Y36600500D01*
X-390053Y36559953D01*
X-511128Y36482143D01*
X-545908Y36442004D01*
X-584775Y36397149D01*
X-644501Y36358765D01*
X-715498Y36358765D01*
X-775224Y36397148D01*
X-775225Y36397149D01*
X-814093Y36442005D01*
X-848872Y36482143D01*
X-848873Y36482144D01*
X-928379Y36533239D01*
X-969947Y36559953D01*
X-1108039Y36600500D01*
X-1251961Y36600500D01*
X-1390053Y36559953D01*
X-1511128Y36482143D01*
X-1605377Y36373373D01*
X-1665165Y36242457D01*
X-1685647Y36100000D01*
X-2480878Y36100000D01*
X-2443239Y36104955D01*
X-2297160Y36165463D01*
X-2297157Y36165465D01*
X-2171718Y36261718D01*
X-2075465Y36387157D01*
X-2075463Y36387160D01*
X-2014955Y36533239D01*
X-1994318Y36689999D01*
X-1994318Y36690000D01*
X-2014955Y36846760D01*
X-2075463Y36992839D01*
X-2075465Y36992842D01*
X-2110931Y37039062D01*
X-2171718Y37118282D01*
X-2297159Y37214536D01*
X-2443238Y37275044D01*
X-2600000Y37295682D01*
X-2756762Y37275044D01*
X-2902841Y37214536D01*
X-3028282Y37118282D01*
X-3124536Y36992841D01*
X-3185044Y36846762D01*
X-3186084Y36838864D01*
X-3205682Y36690000D01*
X-5699700Y36690000D01*
X-5699700Y37363400D01*
X2442318Y37363400D01*
X2442318Y37363399D01*
X2462955Y37206639D01*
X2523463Y37060560D01*
X2523465Y37060557D01*
X2619718Y36935118D01*
X2745157Y36838865D01*
X2745160Y36838863D01*
X2891239Y36778355D01*
X3048000Y36757718D01*
X3204760Y36778355D01*
X3350839Y36838863D01*
X3350842Y36838865D01*
X3391792Y36870287D01*
X3476282Y36935118D01*
X3572536Y37060559D01*
X3630171Y37199704D01*
X3674719Y37254984D01*
X3742083Y37277405D01*
X3810874Y37259847D01*
X3859252Y37207885D01*
X3862982Y37199718D01*
X3905464Y37097159D01*
X3905465Y37097158D01*
X3905465Y37097157D01*
X4001718Y36971718D01*
X4127157Y36875465D01*
X4127160Y36875463D01*
X4273239Y36814955D01*
X4430000Y36794318D01*
X4586760Y36814955D01*
X4732839Y36875463D01*
X4732842Y36875465D01*
X4858282Y36971718D01*
X4954536Y37097159D01*
X5015044Y37243238D01*
X5035682Y37400000D01*
X5015044Y37556762D01*
X4954536Y37702841D01*
X4858282Y37828282D01*
X4732841Y37924536D01*
X4586762Y37985044D01*
X4430000Y38005682D01*
X4273238Y37985044D01*
X4127159Y37924536D01*
X4001718Y37828282D01*
X3905464Y37702841D01*
X3848681Y37565755D01*
X3847828Y37563695D01*
X3803279Y37508415D01*
X3735916Y37485994D01*
X3667124Y37503553D01*
X3618746Y37555515D01*
X3615022Y37563669D01*
X3572536Y37666241D01*
X3476282Y37791682D01*
X3350841Y37887936D01*
X3204762Y37948444D01*
X3048000Y37969082D01*
X2891238Y37948444D01*
X2745159Y37887936D01*
X2619718Y37791682D01*
X2523465Y37666242D01*
X2523463Y37666239D01*
X2462955Y37520160D01*
X2442318Y37363400D01*
X-5699700Y37363400D01*
X-5699700Y37562730D01*
X-5711332Y37621208D01*
X-5711333Y37621211D01*
X-5741419Y37666237D01*
X-5755648Y37687532D01*
X-5821969Y37731847D01*
X-5880452Y37743480D01*
X-7619948Y37743480D01*
X-7678431Y37731847D01*
X-7744752Y37687532D01*
X-7789067Y37621211D01*
X-7800700Y37562728D01*
X-13961417Y37562728D01*
X-14011718Y37628282D01*
X-14137159Y37724536D01*
X-14283238Y37785044D01*
X-14440000Y37805682D01*
X-14596762Y37785044D01*
X-14742841Y37724536D01*
X-14868282Y37628282D01*
X-14964536Y37502841D01*
X-15025044Y37356762D01*
X-15045682Y37200000D01*
X-15622085Y37200000D01*
X-15575465Y37260756D01*
X-15575463Y37260759D01*
X-15514955Y37406838D01*
X-15494318Y37563598D01*
X-15494318Y37563599D01*
X-15514955Y37720359D01*
X-15575463Y37866438D01*
X-15575465Y37866441D01*
X-15591957Y37887934D01*
X-15671718Y37991881D01*
X-15797159Y38088135D01*
X-15943238Y38148643D01*
X-16100000Y38169281D01*
X-16256762Y38148643D01*
X-16402841Y38088135D01*
X-16528282Y37991881D01*
X-16624536Y37866440D01*
X-16685044Y37720361D01*
X-16705682Y37563599D01*
X-18034318Y37563599D01*
X-18054955Y37720359D01*
X-18115463Y37866438D01*
X-18115465Y37866441D01*
X-18131957Y37887934D01*
X-18211718Y37991881D01*
X-18337159Y38088135D01*
X-18483238Y38148643D01*
X-18640000Y38169281D01*
X-18796762Y38148643D01*
X-18942841Y38088135D01*
X-19068282Y37991881D01*
X-19164536Y37866440D01*
X-19225044Y37720361D01*
X-19245682Y37563599D01*
X-19786600Y37563599D01*
X-19786600Y38610563D01*
X-296519Y38610563D01*
X-296519Y38610562D01*
X-292374Y38579081D01*
X-275881Y38453801D01*
X-215373Y38307722D01*
X-119119Y38182281D01*
X-75281Y38148643D01*
X6320Y38086028D01*
X6323Y38086026D01*
X152402Y38025518D01*
X309163Y38004881D01*
X465923Y38025518D01*
X612002Y38086026D01*
X612005Y38086028D01*
X696418Y38150800D01*
X9147918Y38150800D01*
X9147918Y38150799D01*
X9168555Y37994039D01*
X9229063Y37847960D01*
X9229065Y37847957D01*
X9325318Y37722518D01*
X9450757Y37626265D01*
X9450760Y37626263D01*
X9596839Y37565755D01*
X9753600Y37545118D01*
X9893983Y37563599D01*
X16314318Y37563599D01*
X16314318Y37563598D01*
X16334955Y37406838D01*
X16395463Y37260759D01*
X16395465Y37260756D01*
X16491718Y37135317D01*
X16617157Y37039064D01*
X16617160Y37039062D01*
X16763239Y36978554D01*
X16920000Y36957917D01*
X17076760Y36978554D01*
X17222839Y37039062D01*
X17222842Y37039064D01*
X17234080Y37047687D01*
X17348282Y37135317D01*
X17444536Y37260758D01*
X17505044Y37406837D01*
X17525682Y37563599D01*
X18854318Y37563599D01*
X18854318Y37563598D01*
X18874955Y37406838D01*
X18935463Y37260759D01*
X18935465Y37260756D01*
X19031718Y37135317D01*
X19157157Y37039064D01*
X19157160Y37039062D01*
X19303239Y36978554D01*
X19460000Y36957917D01*
X19616760Y36978554D01*
X19762839Y37039062D01*
X19762842Y37039064D01*
X19774080Y37047687D01*
X19888282Y37135317D01*
X19984536Y37260758D01*
X20045044Y37406837D01*
X20065682Y37563599D01*
X23934318Y37563599D01*
X23934318Y37563598D01*
X23954955Y37406838D01*
X24015463Y37260759D01*
X24015465Y37260756D01*
X24111718Y37135317D01*
X24237157Y37039064D01*
X24237160Y37039062D01*
X24383239Y36978554D01*
X24540000Y36957917D01*
X24696760Y36978554D01*
X24842839Y37039062D01*
X24842842Y37039064D01*
X24854080Y37047687D01*
X24968282Y37135317D01*
X25064536Y37260758D01*
X25125044Y37406837D01*
X25145682Y37563599D01*
X25125044Y37720361D01*
X25064536Y37866440D01*
X24968282Y37991881D01*
X24842841Y38088135D01*
X24696762Y38148643D01*
X24540000Y38169281D01*
X24383238Y38148643D01*
X24237159Y38088135D01*
X24111718Y37991881D01*
X24031957Y37887934D01*
X24015465Y37866441D01*
X24015463Y37866438D01*
X23954955Y37720359D01*
X23934318Y37563599D01*
X20065682Y37563599D01*
X20045044Y37720361D01*
X19984536Y37866440D01*
X19888282Y37991881D01*
X19762841Y38088135D01*
X19616762Y38148643D01*
X19460000Y38169281D01*
X19303238Y38148643D01*
X19157159Y38088135D01*
X19031718Y37991881D01*
X18951957Y37887934D01*
X18935465Y37866441D01*
X18935463Y37866438D01*
X18874955Y37720359D01*
X18854318Y37563599D01*
X17525682Y37563599D01*
X17505044Y37720361D01*
X17444536Y37866440D01*
X17348282Y37991881D01*
X17222841Y38088135D01*
X17076762Y38148643D01*
X16920000Y38169281D01*
X16763238Y38148643D01*
X16617159Y38088135D01*
X16491718Y37991881D01*
X16411957Y37887934D01*
X16395465Y37866441D01*
X16395463Y37866438D01*
X16334955Y37720359D01*
X16314318Y37563599D01*
X9893983Y37563599D01*
X9910360Y37565755D01*
X10056439Y37626263D01*
X10056442Y37626265D01*
X10181882Y37722518D01*
X10278136Y37847959D01*
X10338644Y37994038D01*
X10359282Y38150800D01*
X10338644Y38307562D01*
X10278136Y38453641D01*
X10181882Y38579082D01*
X10056441Y38675336D01*
X9910362Y38735844D01*
X9753600Y38756482D01*
X9596838Y38735844D01*
X9450759Y38675336D01*
X9325318Y38579082D01*
X9234293Y38460455D01*
X9229065Y38453642D01*
X9229063Y38453639D01*
X9168555Y38307560D01*
X9147918Y38150800D01*
X696418Y38150800D01*
X737445Y38182281D01*
X833699Y38307722D01*
X894207Y38453801D01*
X910700Y38579081D01*
X914845Y38610562D01*
X914845Y38610563D01*
X906318Y38675334D01*
X894207Y38767325D01*
X833699Y38913404D01*
X737445Y39038845D01*
X612004Y39135099D01*
X465925Y39195607D01*
X309163Y39216245D01*
X152401Y39195607D01*
X6322Y39135099D01*
X-119119Y39038845D01*
X-215373Y38913404D01*
X-275881Y38767325D01*
X-287992Y38675334D01*
X-296519Y38610563D01*
X-19786600Y38610563D01*
X-19786600Y39523400D01*
X-19766598Y39591521D01*
X-19712942Y39638014D01*
X-19660600Y39649400D01*
X-13997278Y39649400D01*
X-13929157Y39629398D01*
G37*
%TD.AperFunction*%
%TD*%
M02*
