%TF.GenerationSoftware,KiCad,Pcbnew,8.0.5*%
%TF.CreationDate,2024-11-05T15:42:22+00:00*%
%TF.ProjectId,ADE_Main_V4,4144455f-4d61-4696-9e5f-56342e6b6963,rev?*%
%TF.SameCoordinates,Original*%
%TF.FileFunction,Profile,NP*%
%FSLAX46Y46*%
G04 Gerber Fmt 4.6, Leading zero omitted, Abs format (unit mm)*
G04 Created by KiCad (PCBNEW 8.0.5) date 2024-11-05 15:42:22*
%MOMM*%
%LPD*%
G01*
G04 APERTURE LIST*
%TA.AperFunction,Profile*%
%ADD10C,0.100000*%
%TD*%
G04 APERTURE END LIST*
D10*
X3800000Y27550000D02*
X4200000Y27950000D01*
X-20000000Y42500000D02*
X-20000000Y16500000D01*
X27650000Y27950000D02*
X27650000Y40000000D01*
X-9000000Y42500000D02*
X-20000000Y42500000D01*
X-20000000Y16500000D02*
X3750000Y16500000D01*
X-9000000Y40000000D02*
X27650000Y40000000D01*
X-9000000Y42500000D02*
X-9000000Y40000000D01*
X7350000Y27950000D02*
X4200000Y27950000D01*
X3750000Y27500000D02*
X3750000Y16500000D01*
X3800000Y27550000D02*
X3750000Y27500000D01*
%TO.C,J2*%
X7350000Y27950000D02*
X7350000Y20050000D01*
X7350000Y20050000D02*
X7850000Y19550000D01*
X14050000Y19550000D02*
X7850000Y19550000D01*
X14550000Y27000000D02*
X14550000Y20050000D01*
X14550000Y20050000D02*
X14050000Y19550000D01*
X16450000Y27000000D02*
X16450000Y20050000D01*
X16450000Y20050000D02*
X16950000Y19550000D01*
X27150000Y19550000D02*
X16950000Y19550000D01*
X27650000Y27950000D02*
X27650000Y20050000D01*
X27650000Y20050000D02*
X27150000Y19550000D01*
X14550000Y27000000D02*
G75*
G02*
X16450000Y27000000I950000J0D01*
G01*
%TD*%
M02*
