M48
; DRILL file {KiCad 8.0.5} date 2024-11-05T15:42:07+0000
; FORMAT={-:-/ absolute / inch / decimal}
; #@! TF.CreationDate,2024-11-05T15:42:07+00:00
; #@! TF.GenerationSoftware,Kicad,Pcbnew,8.0.5
; #@! TF.FileFunction,Plated,1,4,PTH
FMAT,2
INCH
; #@! TA.AperFunction,Plated,PTH,ComponentDrill
T1C0.0098
; #@! TA.AperFunction,Plated,PTH,ViaDrill
T2C0.0157
; #@! TA.AperFunction,Plated,PTH,ComponentDrill
T3C0.0394
%
G90
G05
T1
X-0.0465Y1.4213
X-0.0465Y0.9768
X-0.0071Y1.4213
X-0.0071Y0.9768
T2
X-0.7339Y1.4789
X-0.7339Y1.3789
X-0.7339Y1.2789
X-0.7339Y1.1789
X-0.7339Y1.0789
X-0.7339Y0.9789
X-0.7339Y0.8789
X-0.7339Y0.7789
X-0.6339Y1.4789
X-0.6339Y1.3789
X-0.6339Y1.2789
X-0.6339Y1.1789
X-0.6339Y1.0789
X-0.6339Y0.9789
X-0.6339Y0.8789
X-0.6339Y0.7789
X-0.5717Y1.1453
X-0.5685Y1.4646
X-0.5551Y0.9079
X-0.5339Y1.5789
X-0.5339Y1.0789
X-0.5339Y0.9789
X-0.5339Y0.7789
X-0.5295Y0.7142
X-0.4339Y1.5789
X-0.2336Y0.8952
X-0.2059Y1.0189
X-0.1876Y0.7887
X-0.178Y0.8925
X-0.1343Y0.9146
X-0.1335Y1.1476
X-0.1043Y1.3177
X-0.1024Y1.4445
X-0.1Y1.549
X-0.0988Y0.9244
X-0.0862Y1.0134
X-0.0846Y1.3709
X-0.0778Y1.4785
X-0.0276Y1.1697
X-0.0028Y0.7437
X0.0091Y0.8199
X0.0102Y1.3
X0.0122Y1.5201
X0.0154Y0.7063
X0.026Y1.2476
X0.0264Y1.115
X0.0394Y1.026
X0.0409Y1.4067
X0.0634Y0.9413
X0.064Y1.3798
X0.0728Y1.5372
X0.077Y0.668
X0.0897Y0.8802
X0.1004Y0.9268
X0.12Y1.471
X0.126Y0.782
X0.1387Y1.1268
X0.158Y1.338
X0.1665Y1.161
X0.1743Y1.3036
X0.1744Y1.4724
X0.2008Y1.1701
X0.2181Y1.5327
X0.2434Y1.1632
X0.3096Y1.186
X0.3169Y1.0134
X0.3304Y1.1466
X0.3551Y1.0217
X0.36Y1.0958
X0.3723Y1.1742
X0.384Y1.502
X0.3937Y1.0157
X0.4085Y1.1752
X0.4331Y1.0185
X0.435Y1.4734
X0.444Y1.136
X0.4713Y1.0449
X0.475Y1.1
X0.479Y1.162
X0.507Y1.133
X0.5134Y1.0488
X0.5203Y1.3842
X0.5207Y1.2283
X0.5217Y1.3366
X0.545Y1.093
X0.546Y1.02
X0.5693Y1.4347
X0.6067Y1.3626
X0.608Y1.407
X0.648Y1.286
X0.6661Y1.4789
X0.67Y1.091
X0.679Y1.027
X0.7661Y1.4789
X0.807Y1.271
X0.855Y1.307
X0.9661Y1.4789
X0.9661Y1.2789
X0.968Y1.371
X0.996Y1.037
X1.055Y1.075
T3
X-0.2658Y1.4446
X-0.2658Y1.3446
X-0.2658Y1.2446
X-0.2658Y1.1446
X-0.2658Y1.0446
X-0.2658Y0.9446
X-0.2658Y0.8446
X-0.2658Y0.7446
M30
