%TF.GenerationSoftware,KiCad,Pcbnew,8.0.5*%
%TF.CreationDate,2024-11-05T15:42:22+00:00*%
%TF.ProjectId,ADE_Main_V4,4144455f-4d61-4696-9e5f-56342e6b6963,rev?*%
%TF.SameCoordinates,Original*%
%TF.FileFunction,Copper,L1,Top*%
%TF.FilePolarity,Positive*%
%FSLAX46Y46*%
G04 Gerber Fmt 4.6, Leading zero omitted, Abs format (unit mm)*
G04 Created by KiCad (PCBNEW 8.0.5) date 2024-11-05 15:42:22*
%MOMM*%
%LPD*%
G01*
G04 APERTURE LIST*
G04 Aperture macros list*
%AMRoundRect*
0 Rectangle with rounded corners*
0 $1 Rounding radius*
0 $2 $3 $4 $5 $6 $7 $8 $9 X,Y pos of 4 corners*
0 Add a 4 corners polygon primitive as box body*
4,1,4,$2,$3,$4,$5,$6,$7,$8,$9,$2,$3,0*
0 Add four circle primitives for the rounded corners*
1,1,$1+$1,$2,$3*
1,1,$1+$1,$4,$5*
1,1,$1+$1,$6,$7*
1,1,$1+$1,$8,$9*
0 Add four rect primitives between the rounded corners*
20,1,$1+$1,$2,$3,$4,$5,0*
20,1,$1+$1,$4,$5,$6,$7,0*
20,1,$1+$1,$6,$7,$8,$9,0*
20,1,$1+$1,$8,$9,$2,$3,0*%
G04 Aperture macros list end*
%TA.AperFunction,SMDPad,CuDef*%
%ADD10RoundRect,0.135000X-0.135000X-0.185000X0.135000X-0.185000X0.135000X0.185000X-0.135000X0.185000X0*%
%TD*%
%TA.AperFunction,SMDPad,CuDef*%
%ADD11RoundRect,0.135000X0.135000X0.185000X-0.135000X0.185000X-0.135000X-0.185000X0.135000X-0.185000X0*%
%TD*%
%TA.AperFunction,SMDPad,CuDef*%
%ADD12RoundRect,0.140000X0.140000X0.170000X-0.140000X0.170000X-0.140000X-0.170000X0.140000X-0.170000X0*%
%TD*%
%TA.AperFunction,SMDPad,CuDef*%
%ADD13RoundRect,0.140000X-0.140000X-0.170000X0.140000X-0.170000X0.140000X0.170000X-0.140000X0.170000X0*%
%TD*%
%TA.AperFunction,SMDPad,CuDef*%
%ADD14C,1.000000*%
%TD*%
%TA.AperFunction,SMDPad,CuDef*%
%ADD15RoundRect,0.250000X0.650000X-0.325000X0.650000X0.325000X-0.650000X0.325000X-0.650000X-0.325000X0*%
%TD*%
%TA.AperFunction,SMDPad,CuDef*%
%ADD16RoundRect,0.135000X0.185000X-0.135000X0.185000X0.135000X-0.185000X0.135000X-0.185000X-0.135000X0*%
%TD*%
%TA.AperFunction,SMDPad,CuDef*%
%ADD17RoundRect,0.140000X0.170000X-0.140000X0.170000X0.140000X-0.170000X0.140000X-0.170000X-0.140000X0*%
%TD*%
%TA.AperFunction,SMDPad,CuDef*%
%ADD18C,0.200000*%
%TD*%
%TA.AperFunction,SMDPad,CuDef*%
%ADD19RoundRect,0.135000X-0.185000X0.135000X-0.185000X-0.135000X0.185000X-0.135000X0.185000X0.135000X0*%
%TD*%
%TA.AperFunction,SMDPad,CuDef*%
%ADD20RoundRect,0.250000X-0.325000X-0.650000X0.325000X-0.650000X0.325000X0.650000X-0.325000X0.650000X0*%
%TD*%
%TA.AperFunction,SMDPad,CuDef*%
%ADD21R,0.250000X0.500000*%
%TD*%
%TA.AperFunction,ComponentPad*%
%ADD22C,0.600000*%
%TD*%
%TA.AperFunction,SMDPad,CuDef*%
%ADD23R,1.600000X0.900000*%
%TD*%
%TA.AperFunction,SMDPad,CuDef*%
%ADD24R,0.304800X0.812800*%
%TD*%
%TA.AperFunction,SMDPad,CuDef*%
%ADD25R,0.812800X0.304800*%
%TD*%
%TA.AperFunction,SMDPad,CuDef*%
%ADD26R,4.241800X4.241800*%
%TD*%
%TA.AperFunction,SMDPad,CuDef*%
%ADD27RoundRect,0.250000X0.325000X0.650000X-0.325000X0.650000X-0.325000X-0.650000X0.325000X-0.650000X0*%
%TD*%
%TA.AperFunction,ComponentPad*%
%ADD28R,1.700000X1.700000*%
%TD*%
%TA.AperFunction,ComponentPad*%
%ADD29O,1.700000X1.700000*%
%TD*%
%TA.AperFunction,ConnectorPad*%
%ADD30R,0.700000X4.300000*%
%TD*%
%TA.AperFunction,ViaPad*%
%ADD31C,0.800000*%
%TD*%
%TA.AperFunction,Conductor*%
%ADD32C,0.250000*%
%TD*%
%TA.AperFunction,Conductor*%
%ADD33C,0.200000*%
%TD*%
G04 APERTURE END LIST*
D10*
%TO.P,R25,1*%
%TO.N,/ITP*%
X-1510000Y27390000D03*
%TO.P,R25,2*%
%TO.N,Net-(U1B--)*%
X-490000Y27390000D03*
%TD*%
D11*
%TO.P,R18,1*%
%TO.N,Net-(U1B--)*%
X-3390000Y27880000D03*
%TO.P,R18,2*%
%TO.N,/RT*%
X-4410000Y27880000D03*
%TD*%
D10*
%TO.P,R5,1*%
%TO.N,Net-(C4-Pad1)*%
X-9600000Y19200000D03*
%TO.P,R5,2*%
%TO.N,/RNM*%
X-8580000Y19200000D03*
%TD*%
D12*
%TO.P,C11,1*%
%TO.N,/RR*%
X-10780000Y37080000D03*
%TO.P,C11,2*%
%TO.N,GND*%
X-11740000Y37080000D03*
%TD*%
D13*
%TO.P,C13,1*%
%TO.N,/ITP*%
X-1500000Y28710000D03*
%TO.P,C13,2*%
%TO.N,Net-(U1B--)*%
X-540000Y28710000D03*
%TD*%
D12*
%TO.P,C3,1*%
%TO.N,/RN*%
X-10780000Y21410000D03*
%TO.P,C3,2*%
%TO.N,GND*%
X-11740000Y21410000D03*
%TD*%
D14*
%TO.P,FID1,*%
%TO.N,*%
X25781000Y29210000D03*
%TD*%
D11*
%TO.P,R9,1*%
%TO.N,Net-(U3A--)*%
X-3440000Y33440000D03*
%TO.P,R9,2*%
%TO.N,/RS*%
X-4460000Y33440000D03*
%TD*%
D15*
%TO.P,C26,1*%
%TO.N,GND*%
X2410000Y18075000D03*
%TO.P,C26,2*%
%TO.N,/UM*%
X2410000Y21025000D03*
%TD*%
D16*
%TO.P,R20,1*%
%TO.N,Net-(U3B-+)*%
X1250000Y37730000D03*
%TO.P,R20,2*%
%TO.N,GND*%
X1250000Y38750000D03*
%TD*%
D17*
%TO.P,C2,1*%
%TO.N,+3V3*%
X-3860800Y25047000D03*
%TO.P,C2,2*%
%TO.N,GND*%
X-3860800Y26007000D03*
%TD*%
D12*
%TO.P,C7,1*%
%TO.N,/RT*%
X-10770000Y26480000D03*
%TO.P,C7,2*%
%TO.N,GND*%
X-11730000Y26480000D03*
%TD*%
D18*
%TO.P,TP1,1,1*%
%TO.N,unconnected-(TP1-Pad1)*%
X-16789400Y28600400D03*
%TD*%
D11*
%TO.P,R6,1*%
%TO.N,Net-(U1A--)*%
X-3430000Y21180000D03*
%TO.P,R6,2*%
%TO.N,/RN*%
X-4450000Y21180000D03*
%TD*%
D10*
%TO.P,R1,1*%
%TO.N,/ADE_Reset*%
X22654800Y34899600D03*
%TO.P,R1,2*%
%TO.N,+3V3*%
X23674800Y34899600D03*
%TD*%
D19*
%TO.P,R8,1*%
%TO.N,Net-(U3A-+)*%
X1280000Y34240000D03*
%TO.P,R8,2*%
%TO.N,GND*%
X1280000Y33220000D03*
%TD*%
D12*
%TO.P,C4,1*%
%TO.N,Net-(C4-Pad1)*%
X-10780000Y18150000D03*
%TO.P,C4,2*%
%TO.N,GND*%
X-11740000Y18150000D03*
%TD*%
D13*
%TO.P,C1,1*%
%TO.N,/ADE_Reset*%
X22684800Y33782000D03*
%TO.P,C1,2*%
%TO.N,GND*%
X23644800Y33782000D03*
%TD*%
D14*
%TO.P,FID4,*%
%TO.N,*%
X-17119600Y40767000D03*
%TD*%
D10*
%TO.P,R26,1*%
%TO.N,/IRP*%
X-1510000Y38280000D03*
%TO.P,R26,2*%
%TO.N,Net-(U3B--)*%
X-490000Y38280000D03*
%TD*%
D12*
%TO.P,C16,1*%
%TO.N,/IRP*%
X-2440000Y38310000D03*
%TO.P,C16,2*%
%TO.N,Net-(U3B--)*%
X-3400000Y38310000D03*
%TD*%
D10*
%TO.P,R4,1*%
%TO.N,/RN*%
X-9600000Y21400000D03*
%TO.P,R4,2*%
%TO.N,/RNP*%
X-8580000Y21400000D03*
%TD*%
D12*
%TO.P,C12,1*%
%TO.N,Net-(C12-Pad1)*%
X-10780000Y34170000D03*
%TO.P,C12,2*%
%TO.N,GND*%
X-11740000Y34170000D03*
%TD*%
D10*
%TO.P,R11,1*%
%TO.N,Net-(C8-Pad1)*%
X-9600000Y23980000D03*
%TO.P,R11,2*%
%TO.N,/RTM*%
X-8580000Y23980000D03*
%TD*%
%TO.P,R24,1*%
%TO.N,/ISP*%
X-1510000Y33820000D03*
%TO.P,R24,2*%
%TO.N,Net-(U3A--)*%
X-490000Y33820000D03*
%TD*%
%TO.P,R14,1*%
%TO.N,/RR*%
X-9600000Y37070000D03*
%TO.P,R14,2*%
%TO.N,/RRP*%
X-8580000Y37070000D03*
%TD*%
%TO.P,R23,1*%
%TO.N,/INP*%
X-1510000Y21090000D03*
%TO.P,R23,2*%
%TO.N,Net-(U1A--)*%
X-490000Y21090000D03*
%TD*%
D20*
%TO.P,C18,1*%
%TO.N,+3V3*%
X17092400Y34340800D03*
%TO.P,C18,2*%
%TO.N,GND*%
X20042400Y34340800D03*
%TD*%
D10*
%TO.P,R10,1*%
%TO.N,/RT*%
X-9600000Y26500000D03*
%TO.P,R10,2*%
%TO.N,/RTP*%
X-8580000Y26500000D03*
%TD*%
%TO.P,R15,1*%
%TO.N,Net-(C12-Pad1)*%
X-9600000Y34160000D03*
%TO.P,R15,2*%
%TO.N,/RRM*%
X-8580000Y34160000D03*
%TD*%
D11*
%TO.P,R21,1*%
%TO.N,Net-(C12-Pad1)*%
X-10730000Y33160000D03*
%TO.P,R21,2*%
%TO.N,GND*%
X-11750000Y33160000D03*
%TD*%
D13*
%TO.P,C6,1*%
%TO.N,/ISP*%
X-1500000Y32750000D03*
%TO.P,C6,2*%
%TO.N,Net-(U3A--)*%
X-540000Y32750000D03*
%TD*%
D11*
%TO.P,R17,1*%
%TO.N,Net-(C8-Pad1)*%
X-10720000Y22960000D03*
%TO.P,R17,2*%
%TO.N,GND*%
X-11740000Y22960000D03*
%TD*%
%TO.P,R7,1*%
%TO.N,Net-(C4-Pad1)*%
X-10730000Y19200000D03*
%TO.P,R7,2*%
%TO.N,GND*%
X-11750000Y19200000D03*
%TD*%
D21*
%TO.P,U3,1*%
%TO.N,/ISP*%
X-1430000Y35150000D03*
%TO.P,U3,2,-*%
%TO.N,Net-(U3A--)*%
X-930000Y35150000D03*
%TO.P,U3,3,+*%
%TO.N,Net-(U3A-+)*%
X-430000Y35150000D03*
%TO.P,U3,4,V-*%
%TO.N,/UM*%
X70000Y35150000D03*
%TO.P,U3,5,+*%
%TO.N,Net-(U3B-+)*%
X70000Y37050000D03*
%TO.P,U3,6,-*%
%TO.N,Net-(U3B--)*%
X-430000Y37050000D03*
%TO.P,U3,7*%
%TO.N,/IRP*%
X-930000Y37050000D03*
%TO.P,U3,8,V+*%
%TO.N,+3V3*%
X-1430000Y37050000D03*
D22*
%TO.P,U3,9,PAD*%
%TO.N,/UM*%
X-1180000Y36100000D03*
D23*
X-680000Y36100000D03*
D22*
X-180000Y36100000D03*
%TD*%
D12*
%TO.P,C9,1*%
%TO.N,/RS*%
X-10780000Y31700000D03*
%TO.P,C9,2*%
%TO.N,GND*%
X-11740000Y31700000D03*
%TD*%
%TO.P,C10,1*%
%TO.N,Net-(C10-Pad1)*%
X-10780000Y28940000D03*
%TO.P,C10,2*%
%TO.N,GND*%
X-11740000Y28940000D03*
%TD*%
D10*
%TO.P,R16,1*%
%TO.N,Net-(U1B-+)*%
X570000Y27050000D03*
%TO.P,R16,2*%
%TO.N,GND*%
X1590000Y27050000D03*
%TD*%
D24*
%TO.P,U2,1,PullHigh*%
%TO.N,+3V3*%
X10287000Y37160200D03*
%TO.P,U2,2,DGND*%
%TO.N,GND*%
X9779000Y37160200D03*
%TO.P,U2,3,DVDDOUT*%
%TO.N,/DVDDOUT*%
X9271000Y37160200D03*
%TO.P,U2,4,PM0*%
%TO.N,GND*%
X8788400Y37160200D03*
%TO.P,U2,5,PM1*%
%TO.N,/PM1*%
X8280400Y37160200D03*
%TO.P,U2,6,RESET*%
%TO.N,/ADE_Reset*%
X7772400Y37160200D03*
%TO.P,U2,7,IAP*%
%TO.N,/IRP*%
X7264400Y37160200D03*
%TO.P,U2,8,IAN*%
%TO.N,GND*%
X6781800Y37160200D03*
%TO.P,U2,9,IBP*%
%TO.N,/ISP*%
X6273800Y37160200D03*
%TO.P,U2,10,IBN*%
%TO.N,GND*%
X5765800Y37160200D03*
D25*
%TO.P,U2,11,ICP*%
%TO.N,/ITP*%
X5130800Y36525200D03*
%TO.P,U2,12,ICN*%
%TO.N,GND*%
X5130800Y36017200D03*
%TO.P,U2,13,INP*%
%TO.N,/INP*%
X5130800Y35509200D03*
%TO.P,U2,14,INN*%
%TO.N,GND*%
X5130800Y35026600D03*
%TO.P,U2,15,REFGND*%
X5130800Y34518600D03*
%TO.P,U2,16,REF*%
%TO.N,/REF*%
X5130800Y34010600D03*
%TO.P,U2,17,NC1*%
%TO.N,GND*%
X5130800Y33502600D03*
%TO.P,U2,18,NC2*%
X5130800Y33020000D03*
%TO.P,U2,19,VAN*%
%TO.N,/UR+*%
X5130800Y32512000D03*
%TO.P,U2,20,VAP*%
%TO.N,/UR-*%
X5130800Y32004000D03*
D24*
%TO.P,U2,21,VBN*%
%TO.N,/US+*%
X5765800Y31369000D03*
%TO.P,U2,22,VBP*%
%TO.N,/US-*%
X6273800Y31369000D03*
%TO.P,U2,23,VCN*%
%TO.N,/UT+*%
X6781800Y31369000D03*
%TO.P,U2,24,VCP*%
%TO.N,/UT-*%
X7264400Y31369000D03*
%TO.P,U2,25,AVDDOUT*%
%TO.N,/AVDDOUT*%
X7772400Y31369000D03*
%TO.P,U2,26,AGND*%
%TO.N,GND*%
X8280400Y31369000D03*
%TO.P,U2,27,VDD*%
%TO.N,+3V3*%
X8788400Y31369000D03*
%TO.P,U2,28,GND*%
%TO.N,GND*%
X9271000Y31369000D03*
%TO.P,U2,29,CLKIN*%
%TO.N,/O_IN*%
X9779000Y31369000D03*
%TO.P,U2,30,CLKOUT*%
%TO.N,/O_OUT*%
X10287000Y31369000D03*
D25*
%TO.P,U2,31,IRQ0*%
%TO.N,/IRQ1*%
X10922000Y32004000D03*
%TO.P,U2,32,IRQ1*%
%TO.N,/IRQ2*%
X10922000Y32512000D03*
%TO.P,U2,33,CF1*%
%TO.N,unconnected-(U2-CF1-Pad33)*%
X10922000Y33020000D03*
%TO.P,U2,34,CF2*%
%TO.N,unconnected-(U2-CF2-Pad34)*%
X10922000Y33502600D03*
%TO.P,U2,35,CF3/ZX*%
%TO.N,unconnected-(U2-CF3{slash}ZX-Pad35)*%
X10922000Y34010600D03*
%TO.P,U2,36,CF4/READY*%
%TO.N,/READY*%
X10922000Y34518600D03*
%TO.P,U2,37,SCLK*%
%TO.N,/SCLK*%
X10922000Y35026600D03*
%TO.P,U2,38,MISO*%
%TO.N,/MISO*%
X10922000Y35509200D03*
%TO.P,U2,39,MOSI*%
%TO.N,/MOSI*%
X10922000Y36017200D03*
%TO.P,U2,40,SS*%
%TO.N,/SS*%
X10922000Y36525200D03*
D26*
%TO.P,U2,41,EP*%
%TO.N,GND*%
X8026400Y34264600D03*
%TD*%
D13*
%TO.P,C5,1*%
%TO.N,/INP*%
X-1500000Y22200000D03*
%TO.P,C5,2*%
%TO.N,Net-(U1A--)*%
X-540000Y22200000D03*
%TD*%
D11*
%TO.P,R22,1*%
%TO.N,Net-(U3B--)*%
X-3440000Y36620000D03*
%TO.P,R22,2*%
%TO.N,/RR*%
X-4460000Y36620000D03*
%TD*%
D10*
%TO.P,R12,1*%
%TO.N,/RS*%
X-9600000Y31690000D03*
%TO.P,R12,2*%
%TO.N,/RSP*%
X-8580000Y31690000D03*
%TD*%
D21*
%TO.P,U1,1*%
%TO.N,/INP*%
X-1430000Y23860000D03*
%TO.P,U1,2,-*%
%TO.N,Net-(U1A--)*%
X-930000Y23860000D03*
%TO.P,U1,3,+*%
%TO.N,Net-(U1A-+)*%
X-430000Y23860000D03*
%TO.P,U1,4,V-*%
%TO.N,/UM*%
X70000Y23860000D03*
%TO.P,U1,5,+*%
%TO.N,Net-(U1B-+)*%
X70000Y25760000D03*
%TO.P,U1,6,-*%
%TO.N,Net-(U1B--)*%
X-430000Y25760000D03*
%TO.P,U1,7*%
%TO.N,/ITP*%
X-930000Y25760000D03*
%TO.P,U1,8,V+*%
%TO.N,+3V3*%
X-1430000Y25760000D03*
D22*
%TO.P,U1,9,PAD*%
%TO.N,/UM*%
X-1180000Y24810000D03*
D23*
X-680000Y24810000D03*
D22*
X-180000Y24810000D03*
%TD*%
D19*
%TO.P,R3,1*%
%TO.N,Net-(U1A-+)*%
X650000Y22680000D03*
%TO.P,R3,2*%
%TO.N,GND*%
X650000Y21660000D03*
%TD*%
D11*
%TO.P,R19,1*%
%TO.N,Net-(C10-Pad1)*%
X-10730000Y27900000D03*
%TO.P,R19,2*%
%TO.N,GND*%
X-11750000Y27900000D03*
%TD*%
%TO.P,R2,1*%
%TO.N,GND*%
X8993600Y38963600D03*
%TO.P,R2,2*%
%TO.N,/PM1*%
X7973600Y38963600D03*
%TD*%
D10*
%TO.P,R13,1*%
%TO.N,Net-(C10-Pad1)*%
X-9600000Y28930000D03*
%TO.P,R13,2*%
%TO.N,/RSM*%
X-8580000Y28930000D03*
%TD*%
D27*
%TO.P,C25,1*%
%TO.N,/C+*%
X-1105000Y18670000D03*
%TO.P,C25,2*%
%TO.N,/C-*%
X-4055000Y18670000D03*
%TD*%
D12*
%TO.P,C8,1*%
%TO.N,Net-(C8-Pad1)*%
X-10730000Y24000000D03*
%TO.P,C8,2*%
%TO.N,GND*%
X-11690000Y24000000D03*
%TD*%
D28*
%TO.P,J15,1,Pin_1*%
%TO.N,/RRP*%
X-6750200Y36692980D03*
D29*
%TO.P,J15,2,Pin_2*%
%TO.N,/RRM*%
X-6750200Y34152980D03*
%TO.P,J15,3,Pin_3*%
%TO.N,/RSP*%
X-6750200Y31612980D03*
%TO.P,J15,4,Pin_4*%
%TO.N,/RSM*%
X-6750200Y29072980D03*
%TO.P,J15,5,Pin_5*%
%TO.N,/RTP*%
X-6750200Y26532980D03*
%TO.P,J15,6,Pin_6*%
%TO.N,/RTM*%
X-6750200Y23992980D03*
%TO.P,J15,7,Pin_7*%
%TO.N,/RNP*%
X-6750200Y21452980D03*
%TO.P,J15,8,Pin_8*%
%TO.N,/RNM*%
X-6750200Y18912980D03*
%TD*%
D30*
%TO.P,J2,A1*%
%TO.N,+3V3*%
X27000000Y23000000D03*
%TO.P,J2,A2*%
X26000000Y23000000D03*
%TO.P,J2,A3*%
%TO.N,/READY*%
X25000000Y23000000D03*
%TO.P,J2,A4*%
X24000000Y23000000D03*
%TO.P,J2,A5*%
%TO.N,/IRQ2*%
X23000000Y23000000D03*
%TO.P,J2,A6*%
X22000000Y23000000D03*
%TO.P,J2,A7*%
%TO.N,/IRQ1*%
X21000000Y23000000D03*
%TO.P,J2,A8*%
X20000000Y23000000D03*
%TO.P,J2,A9*%
%TO.N,/SCLK*%
X19000000Y23000000D03*
%TO.P,J2,A10*%
X18000000Y23000000D03*
%TO.P,J2,A11*%
%TO.N,GND*%
X17000000Y23000000D03*
%TO.P,J2,A12*%
X14000000Y23000000D03*
%TO.P,J2,A13*%
%TO.N,/UR-*%
X13000000Y23000000D03*
%TO.P,J2,A14*%
%TO.N,/UR+*%
X12000000Y23000000D03*
%TO.P,J2,A15*%
%TO.N,/US-*%
X11000000Y23000000D03*
%TO.P,J2,A16*%
%TO.N,/US+*%
X10000000Y23000000D03*
%TO.P,J2,A17*%
%TO.N,/UT-*%
X9000000Y23000000D03*
%TO.P,J2,A18*%
%TO.N,/UT+*%
X8000000Y23000000D03*
%TD*%
D31*
%TO.N,GND*%
X12877800Y28778200D03*
X-16100000Y27403599D03*
X3048000Y37363400D03*
X-18640000Y32483599D03*
X12065000Y27940000D03*
X24540000Y32483599D03*
X-2540000Y39344600D03*
X-18640000Y24863599D03*
X17246600Y26085800D03*
X-18640000Y27403599D03*
X19460000Y37563599D03*
X4430000Y37400000D03*
X3200400Y19862800D03*
X-14440000Y37200000D03*
X13843000Y27762200D03*
X-14100000Y23060000D03*
X4428453Y33111500D03*
X17018000Y27711400D03*
X-13450000Y18140000D03*
X16920000Y37563599D03*
X-18640000Y29943599D03*
X390000Y17940000D03*
X9457677Y29825500D03*
X16459200Y32664400D03*
X5540000Y38930000D03*
X-13560000Y27403599D03*
X-16100000Y32483599D03*
X13868400Y25908000D03*
X-18640000Y37563599D03*
X-18640000Y22323599D03*
X-16100000Y24863599D03*
X-18640000Y19783599D03*
X1001000Y26060000D03*
X-13560000Y24863599D03*
X-16100000Y22323599D03*
X24540000Y37563599D03*
X670000Y28320000D03*
X-16100000Y29943599D03*
X-5230000Y25880000D03*
X660000Y31690000D03*
X-13560000Y40103599D03*
X-18640000Y35023599D03*
X-16100000Y19783599D03*
X1850000Y39045500D03*
X-11020000Y40103599D03*
X-13560000Y19783599D03*
X-16100000Y35023599D03*
X-16100000Y37563599D03*
X20497800Y32283400D03*
X-14520000Y29090000D03*
%TO.N,+3V3*%
X1955800Y16967200D03*
X26797000Y27305000D03*
X25298400Y26339800D03*
X11050000Y37425000D03*
X15443200Y35737800D03*
X24587200Y34823400D03*
X11277600Y28854400D03*
X-2190000Y25740000D03*
X12166600Y29514800D03*
X-1975500Y37553372D03*
%TO.N,/AVDDOUT*%
X7863900Y30124400D03*
%TO.N,/DVDDOUT*%
X9753600Y38150800D03*
%TO.N,/REF*%
X4013200Y33985200D03*
%TO.N,/ISP*%
X1040000Y35730000D03*
X-2150000Y34820000D03*
%TO.N,/INP*%
X2550000Y23540000D03*
X-2510000Y23480000D03*
%TO.N,/UR+*%
X11970000Y26540000D03*
X3524020Y28620000D03*
%TO.N,/US+*%
X10000000Y25800000D03*
X9143911Y27833911D03*
X5100000Y29720000D03*
%TO.N,/UT+*%
X8050000Y25740000D03*
%TO.N,/ADE_Reset*%
X21717000Y33197800D03*
%TO.N,/O_IN*%
X10375000Y29850000D03*
%TO.N,Net-(U1A--)*%
X-3410000Y23230000D03*
X230000Y20824500D03*
%TO.N,Net-(U3A--)*%
X260000Y33020000D03*
X-2650000Y33470000D03*
%TO.N,Net-(U1B--)*%
X-700000Y29710000D03*
X-3390000Y29150000D03*
%TO.N,/SCLK*%
X13250000Y33950000D03*
X13225000Y31200000D03*
%TO.N,/MISO*%
X13214638Y35157566D03*
%TO.N,/MOSI*%
X15409211Y34609211D03*
%TO.N,/SS*%
X14459548Y36442005D03*
%TO.N,/RN*%
X-5934500Y22738843D03*
X-4520000Y22670000D03*
%TO.N,Net-(U3B--)*%
X309163Y38610563D03*
X-2600000Y36690000D03*
%TO.N,/UM*%
X1610000Y23910000D03*
X1625500Y35047145D03*
X2277484Y22357547D03*
%TO.N,/C+*%
X-70000Y18890000D03*
%TO.N,/UR-*%
X4230000Y29490000D03*
X13040000Y26640000D03*
%TO.N,/US-*%
X11000000Y25870000D03*
X6182300Y29546200D03*
X8393411Y29123411D03*
%TO.N,/UT-*%
X9020000Y25950000D03*
%TO.N,/C-*%
X-4765656Y20033911D03*
%TD*%
D32*
%TO.N,GND*%
X-3914200Y26060400D02*
X-3860800Y26007000D01*
X390000Y17940000D02*
X2275000Y17940000D01*
X5130800Y33020000D02*
X4419600Y33020000D01*
X-5230000Y25961200D02*
X-5130800Y26060400D01*
X1380000Y28320000D02*
X670000Y28320000D01*
X-11690000Y24000000D02*
X-11690000Y23010000D01*
X9271000Y33020000D02*
X8026400Y34264600D01*
X-11750000Y33160000D02*
X-11750000Y34160000D01*
X4419600Y33102647D02*
X4428453Y33111500D01*
X-13440000Y18150000D02*
X-13450000Y18140000D01*
X-11730000Y27880000D02*
X-11750000Y27900000D01*
X8788400Y37160200D02*
X8788400Y35026600D01*
X6781800Y37986704D02*
X6781800Y37160200D01*
X940000Y18490000D02*
X390000Y17940000D01*
X1690000Y39190000D02*
X1850000Y39190000D01*
X5130800Y33020000D02*
X6781800Y33020000D01*
X6273800Y36017200D02*
X8026400Y34264600D01*
X8280400Y34010600D02*
X8026400Y34264600D01*
X-11740000Y31700000D02*
X-11740000Y33150000D01*
X8788400Y35026600D02*
X8026400Y34264600D01*
X9457677Y29842323D02*
X9271000Y30029000D01*
X-11740000Y34170000D02*
X-11740000Y37080000D01*
X-14000000Y22960000D02*
X-14100000Y23060000D01*
X-11690000Y23010000D02*
X-11740000Y22960000D01*
X1280000Y33220000D02*
X1280000Y32310000D01*
X9779000Y36017200D02*
X8026400Y34264600D01*
X2275000Y17940000D02*
X2410000Y18075000D01*
X-11740000Y19210000D02*
X-11750000Y19200000D01*
X5840000Y38930000D02*
X5540000Y38930000D01*
X1590000Y27050000D02*
X1590000Y28110000D01*
X6118504Y38651496D02*
X5840000Y38930000D01*
X14000000Y23000000D02*
X14000000Y25776400D01*
X17000000Y23000000D02*
X17000000Y25839200D01*
X1590000Y27050000D02*
X1590000Y26580000D01*
X-11740000Y22960000D02*
X-14000000Y22960000D01*
X940000Y21000000D02*
X940000Y18490000D01*
X4419600Y33020000D02*
X4419600Y33102647D01*
X9271000Y31369000D02*
X9271000Y33020000D01*
X8788400Y37160200D02*
X8788400Y38758400D01*
X9271000Y30029000D02*
X9271000Y31369000D01*
X5130800Y33502600D02*
X7264400Y33502600D01*
X650000Y21660000D02*
X650000Y21287693D01*
X9779000Y37160200D02*
X9779000Y36017200D01*
X8788400Y38758400D02*
X8993600Y38963600D01*
X6118504Y38650000D02*
X6118504Y38651496D01*
X4669800Y37160200D02*
X4430000Y37400000D01*
X17000000Y25839200D02*
X17246600Y26085800D01*
X-11690000Y24000000D02*
X-11690000Y26440000D01*
X-11750000Y27900000D02*
X-11750000Y28930000D01*
X5130800Y34518600D02*
X7772400Y34518600D01*
X-11740000Y37080000D02*
X-14320000Y37080000D01*
X1850000Y39190000D02*
X1850000Y39045500D01*
X-11690000Y26440000D02*
X-11730000Y26480000D01*
X1590000Y28110000D02*
X1380000Y28320000D01*
X-11750000Y19200000D02*
X-11750000Y18160000D01*
X8280400Y31369000D02*
X8280400Y34010600D01*
X14000000Y25776400D02*
X13868400Y25908000D01*
X-11740000Y21410000D02*
X-11740000Y19210000D01*
X5765800Y37160200D02*
X4669800Y37160200D01*
X1590000Y26580000D02*
X1070000Y26060000D01*
X-11730000Y26480000D02*
X-11730000Y27880000D01*
X937693Y21000000D02*
X940000Y21000000D01*
X-11750000Y28930000D02*
X-11740000Y28940000D01*
X7264400Y35026600D02*
X8026400Y34264600D01*
X6781800Y33020000D02*
X8026400Y34264600D01*
X-11750000Y34160000D02*
X-11740000Y34170000D01*
X-11740000Y33150000D02*
X-11750000Y33160000D01*
X-11740000Y22960000D02*
X-11740000Y21410000D01*
X650000Y21287693D02*
X937693Y21000000D01*
X6118504Y38650000D02*
X6781800Y37986704D01*
X-11750000Y18160000D02*
X-11740000Y18150000D01*
X1070000Y26060000D02*
X1001000Y26060000D01*
X7772400Y34518600D02*
X8026400Y34264600D01*
X5130800Y35026600D02*
X7264400Y35026600D01*
X-14370000Y28940000D02*
X-14520000Y29090000D01*
X9457677Y29825500D02*
X9457677Y29842323D01*
X-11740000Y28940000D02*
X-11740000Y31700000D01*
X1280000Y32310000D02*
X660000Y31690000D01*
X-5130800Y26060400D02*
X-3914200Y26060400D01*
X1250000Y38750000D02*
X1690000Y39190000D01*
X-11740000Y28940000D02*
X-14370000Y28940000D01*
X-14320000Y37080000D02*
X-14440000Y37200000D01*
X5130800Y36017200D02*
X6273800Y36017200D01*
X-11740000Y18150000D02*
X-13440000Y18150000D01*
X-5230000Y25880000D02*
X-5230000Y25961200D01*
%TO.N,+3V3*%
X10287000Y37541200D02*
X10515600Y37769800D01*
X26797000Y26568400D02*
X26797000Y27305000D01*
X-1430000Y25760000D02*
X-2170000Y25760000D01*
X26000000Y23000000D02*
X26000000Y25771400D01*
X10365600Y28854400D02*
X10030000Y29190000D01*
X11277600Y28854400D02*
X10365600Y28854400D01*
X-2883000Y25047000D02*
X-2190000Y25740000D01*
X10845800Y37769800D02*
X11050000Y37565600D01*
X23674800Y34899600D02*
X24511000Y34899600D01*
X10287000Y37160200D02*
X10287000Y37541200D01*
X26000000Y25771400D02*
X26797000Y26568400D01*
X10030000Y29190000D02*
X9210000Y29190000D01*
X17092400Y34368000D02*
X15824200Y35636200D01*
X11140800Y37515800D02*
X11050000Y37425000D01*
X26797000Y27305000D02*
X27000000Y27102000D01*
X-3860800Y25047000D02*
X-2883000Y25047000D01*
X9210000Y29190000D02*
X8788400Y29611600D01*
X8788400Y29611600D02*
X8788400Y31369000D01*
X10515600Y37769800D02*
X10845800Y37769800D01*
X26000000Y23000000D02*
X27000000Y23000000D01*
X27000000Y27102000D02*
X27000000Y23550000D01*
X17092400Y34340800D02*
X17092400Y34368000D01*
X-1975500Y37553372D02*
X-1933372Y37553372D01*
X15722600Y35737800D02*
X15443200Y35737800D01*
X-2170000Y25760000D02*
X-2190000Y25740000D01*
X-1933372Y37553372D02*
X-1430000Y37050000D01*
X24511000Y34899600D02*
X24587200Y34823400D01*
X15824200Y35636200D02*
X15722600Y35737800D01*
X11050000Y37565600D02*
X11050000Y37425000D01*
%TO.N,/AVDDOUT*%
X7772400Y31369000D02*
X7772400Y30175200D01*
X7772400Y30175200D02*
X7823200Y30124400D01*
X7823200Y30124400D02*
X7863900Y30124400D01*
%TO.N,/DVDDOUT*%
X9398000Y38150800D02*
X9753600Y38150800D01*
X9271000Y38023800D02*
X9271000Y37160200D01*
X9271000Y38023800D02*
X9398000Y38150800D01*
%TO.N,/REF*%
X4038600Y34010600D02*
X4013200Y33985200D01*
X5130800Y34010600D02*
X4038600Y34010600D01*
%TO.N,/IRP*%
X6290000Y39670000D02*
X290000Y39670000D01*
X-930000Y37560000D02*
X-1510000Y38140000D01*
X6451400Y38811400D02*
X6451400Y39508600D01*
X-1030000Y39270000D02*
X-1510000Y38790000D01*
X290000Y39670000D02*
X-110000Y39270000D01*
X6451400Y39508600D02*
X6290000Y39670000D01*
X-1510000Y38790000D02*
X-1510000Y38280000D01*
X-930000Y37050000D02*
X-930000Y37560000D01*
X-1540000Y38310000D02*
X-1510000Y38280000D01*
X7264400Y37998400D02*
X6451400Y38811400D01*
X7264400Y37160200D02*
X7264400Y37998400D01*
X-1510000Y38140000D02*
X-1510000Y38280000D01*
X-2440000Y38310000D02*
X-1540000Y38310000D01*
X-110000Y39270000D02*
X-1030000Y39270000D01*
%TO.N,/ISP*%
X2032000Y36680076D02*
X2032000Y37744400D01*
X-1500000Y32750000D02*
X-1500000Y33810000D01*
X2032000Y37744400D02*
X2437600Y38150000D01*
X1100000Y35748076D02*
X2032000Y36680076D01*
X1040000Y35730000D02*
X1058076Y35748076D01*
X-1510000Y35070000D02*
X-1430000Y35150000D01*
X-1510000Y33820000D02*
X-1510000Y34600000D01*
X1058076Y35748076D02*
X1100000Y35748076D01*
X-1730000Y34820000D02*
X-1510000Y34600000D01*
X6124208Y38150000D02*
X6273800Y38000408D01*
X-1500000Y33810000D02*
X-1510000Y33820000D01*
X-2150000Y34820000D02*
X-1730000Y34820000D01*
X2437600Y38150000D02*
X6124208Y38150000D01*
X6273800Y38000408D02*
X6273800Y37160200D01*
X-1510000Y34600000D02*
X-1510000Y35070000D01*
%TO.N,/ITP*%
X-930000Y26320000D02*
X-1530000Y26920000D01*
X-1510000Y28700000D02*
X-1500000Y28710000D01*
X5130800Y36525200D02*
X2975200Y36525200D01*
X2250000Y32290000D02*
X1950000Y31990000D01*
X445489Y30334511D02*
X-1115489Y30334511D01*
X610000Y30170000D02*
X445489Y30334511D01*
X-1510000Y27390000D02*
X-1510000Y28700000D01*
X-1115489Y30334511D02*
X-1500000Y29950000D01*
X1950000Y30730000D02*
X1390000Y30170000D01*
X-1530000Y27370000D02*
X-1510000Y27390000D01*
X2250000Y35800000D02*
X2250000Y32290000D01*
X-1530000Y26920000D02*
X-1530000Y27370000D01*
X-930000Y25760000D02*
X-930000Y26320000D01*
X1950000Y31990000D02*
X1950000Y30730000D01*
X-1500000Y29950000D02*
X-1500000Y28710000D01*
X1390000Y30170000D02*
X610000Y30170000D01*
X2975200Y36525200D02*
X2250000Y35800000D01*
%TO.N,/INP*%
X2950000Y32300000D02*
X2550000Y31900000D01*
X2550000Y31900000D02*
X2550000Y23540000D01*
X-1430000Y23160000D02*
X-2190000Y23160000D01*
X-1430000Y23860000D02*
X-1430000Y23160000D01*
X5130800Y35509200D02*
X3509200Y35509200D01*
X-1500000Y22200000D02*
X-1500000Y21100000D01*
X-2190000Y23160000D02*
X-2510000Y23480000D01*
X2950000Y34950000D02*
X2950000Y32300000D01*
X3509200Y35509200D02*
X2950000Y34950000D01*
X-1430000Y22270000D02*
X-1500000Y22200000D01*
X-1430000Y23160000D02*
X-1430000Y22270000D01*
X-1500000Y21100000D02*
X-1510000Y21090000D01*
D33*
%TO.N,/UR+*%
X3225800Y28918220D02*
X3524020Y28620000D01*
X12000000Y26510000D02*
X11970000Y26540000D01*
X4368800Y32512000D02*
X3276600Y31419800D01*
X5130800Y32512000D02*
X4368800Y32512000D01*
X3225800Y31419800D02*
X3225800Y28918220D01*
X12000000Y23000000D02*
X12000000Y26510000D01*
X3276600Y31419800D02*
X3225800Y31419800D01*
%TO.N,/US+*%
X5765800Y30225800D02*
X5270000Y29730000D01*
X5270000Y29720000D02*
X5100000Y29720000D01*
X5765800Y31369000D02*
X5765800Y30225800D01*
X5270000Y29730000D02*
X5270000Y29720000D01*
X9143911Y27833911D02*
X10000000Y26977822D01*
X10000000Y26977822D02*
X10000000Y23000000D01*
D32*
%TO.N,/PM1*%
X8280400Y38656800D02*
X7973600Y38963600D01*
X8280400Y37160200D02*
X8280400Y38656800D01*
%TO.N,/RSP*%
X-6827220Y31690000D02*
X-6750200Y31612980D01*
X-8580000Y31690000D02*
X-6827220Y31690000D01*
%TO.N,/RSM*%
X-8580000Y28930000D02*
X-6893180Y28930000D01*
X-6893180Y28930000D02*
X-6750200Y29072980D01*
%TO.N,/RTP*%
X-6783180Y26500000D02*
X-6750200Y26532980D01*
X-8580000Y26500000D02*
X-6783180Y26500000D01*
%TO.N,/RTM*%
X-6763180Y23980000D02*
X-6750200Y23992980D01*
X-8580000Y23980000D02*
X-6763180Y23980000D01*
%TO.N,/RRP*%
X-7127220Y37070000D02*
X-6750200Y36692980D01*
X-8580000Y37070000D02*
X-7127220Y37070000D01*
%TO.N,/RRM*%
X-8580000Y34160000D02*
X-6757220Y34160000D01*
X-6757220Y34160000D02*
X-6750200Y34152980D01*
%TO.N,/RNP*%
X-8580000Y21400000D02*
X-6803180Y21400000D01*
X-6803180Y21400000D02*
X-6750200Y21452980D01*
%TO.N,/RNM*%
X-7037220Y19200000D02*
X-6750200Y18912980D01*
X-8580000Y19200000D02*
X-7037220Y19200000D01*
D33*
%TO.N,/UT+*%
X8000000Y27590000D02*
X6781800Y28808200D01*
X8000000Y23000000D02*
X8000000Y27590000D01*
X6781800Y28808200D02*
X6781800Y31369000D01*
D32*
%TO.N,/ADE_Reset*%
X21717000Y36093400D02*
X21717000Y35001200D01*
X22684800Y33782000D02*
X21717000Y33782000D01*
X21158189Y39649411D02*
X21717000Y39090600D01*
X6985000Y38862000D02*
X6985000Y39243000D01*
X7772400Y37160200D02*
X7772400Y38074600D01*
X21717000Y39090600D02*
X21717000Y36093400D01*
X6985000Y39243000D02*
X6993000Y39243000D01*
X21717000Y33782000D02*
X21717000Y33197800D01*
X6993000Y39243000D02*
X7399411Y39649411D01*
X22654800Y34899600D02*
X21818600Y34899600D01*
X21818600Y34899600D02*
X21717000Y35001200D01*
X7772400Y38074600D02*
X6985000Y38862000D01*
X21717000Y35001200D02*
X21717000Y33782000D01*
X7399411Y39649411D02*
X21158189Y39649411D01*
%TO.N,/O_IN*%
X9779000Y31369000D02*
X9779000Y30446000D01*
X9779000Y30446000D02*
X10375000Y29850000D01*
%TO.N,/IRQ2*%
X15607200Y30570000D02*
X18248800Y30570000D01*
X14830000Y31330000D02*
X14847200Y31330000D01*
X18248800Y30570000D02*
X19304000Y29514800D01*
X22000000Y26260000D02*
X22000000Y23000000D01*
X10922000Y32512000D02*
X13648000Y32512000D01*
X23000000Y23000000D02*
X22000000Y23000000D01*
X13648000Y32512000D02*
X14830000Y31330000D01*
X19304000Y29514800D02*
X19304000Y27025600D01*
X19608800Y26720800D02*
X21539200Y26720800D01*
X21539200Y26720800D02*
X22000000Y26260000D01*
X19304000Y27025600D02*
X19608800Y26720800D01*
X14847200Y31330000D02*
X15607200Y30570000D01*
%TO.N,/IRQ1*%
X18658000Y29072000D02*
X18658000Y26452400D01*
X18658000Y26452400D02*
X18999200Y26111200D01*
X14270000Y31210000D02*
X14299600Y31210000D01*
X18999200Y26111200D02*
X19558000Y26111200D01*
X13476000Y32004000D02*
X14270000Y31210000D01*
X17660000Y30070000D02*
X18658000Y29072000D01*
X14299600Y31210000D02*
X15439600Y30070000D01*
X10922000Y32004000D02*
X13476000Y32004000D01*
X20000000Y25669200D02*
X20000000Y23000000D01*
X15439600Y30070000D02*
X17660000Y30070000D01*
X19558000Y26111200D02*
X20000000Y25669200D01*
X21000000Y23000000D02*
X20000000Y23000000D01*
%TO.N,Net-(U1A--)*%
X-3430000Y21900000D02*
X-3430000Y21180000D01*
X-490000Y22150000D02*
X-540000Y22200000D01*
X-3410000Y21920000D02*
X-3430000Y21900000D01*
X-490000Y21090000D02*
X-130000Y20730000D01*
X-930000Y23860000D02*
X-930000Y22920000D01*
X-490000Y21090000D02*
X-490000Y22150000D01*
X230000Y20730000D02*
X230000Y20824500D01*
X-3410000Y23230000D02*
X-3410000Y21920000D01*
X-540000Y22530000D02*
X-540000Y22200000D01*
X-130000Y20730000D02*
X230000Y20730000D01*
X-930000Y22920000D02*
X-540000Y22530000D01*
%TO.N,Net-(U3A--)*%
X-540000Y32750000D02*
X-540000Y33770000D01*
X-540000Y33770000D02*
X-490000Y33820000D01*
X-490000Y34220000D02*
X-940000Y34670000D01*
X-490000Y33820000D02*
X-490000Y34220000D01*
X-3440000Y33440000D02*
X-2680000Y33440000D01*
X-940000Y35140000D02*
X-930000Y35150000D01*
X-540000Y32750000D02*
X-270000Y33020000D01*
X-940000Y34670000D02*
X-940000Y35140000D01*
X-2680000Y33440000D02*
X-2650000Y33470000D01*
X-270000Y33020000D02*
X260000Y33020000D01*
%TO.N,Net-(U1B--)*%
X-540000Y29550000D02*
X-700000Y29710000D01*
X-430000Y27330000D02*
X-490000Y27390000D01*
X-490000Y28660000D02*
X-540000Y28710000D01*
X-3390000Y29150000D02*
X-3390000Y27880000D01*
X-540000Y28710000D02*
X-540000Y29550000D01*
X-490000Y27390000D02*
X-490000Y28660000D01*
X-430000Y25760000D02*
X-430000Y27330000D01*
%TO.N,/SCLK*%
X19000000Y23000000D02*
X18000000Y23000000D01*
X13225000Y31200000D02*
X13225000Y29701000D01*
X13225000Y29701000D02*
X13741400Y29184600D01*
X13250000Y34171800D02*
X12395200Y35026600D01*
X13741400Y29184600D02*
X17246600Y29184600D01*
X17246600Y29184600D02*
X18000000Y28431200D01*
X13250000Y33950000D02*
X13250000Y34171800D01*
X10922000Y35026600D02*
X12395200Y35026600D01*
X18000000Y28431200D02*
X18000000Y23000000D01*
%TO.N,/MISO*%
X13208000Y35102800D02*
X13214638Y35109438D01*
X12801600Y35509200D02*
X13208000Y35102800D01*
X13214638Y35109438D02*
X13214638Y35157566D01*
X10922000Y35509200D02*
X12801600Y35509200D01*
%TO.N,/MOSI*%
X13614400Y36017200D02*
X10922000Y36017200D01*
X15022389Y34609211D02*
X13614400Y36017200D01*
X15409211Y34609211D02*
X15022389Y34609211D01*
%TO.N,/SS*%
X10922000Y36525200D02*
X14224000Y36525200D01*
X14224000Y36525200D02*
X14376400Y36372800D01*
X14376400Y36372800D02*
X14445605Y36442005D01*
X14445605Y36442005D02*
X14459548Y36442005D01*
%TO.N,/READY*%
X19100800Y31140400D02*
X16052800Y31140400D01*
X24000000Y26647600D02*
X23317200Y27330400D01*
X12625000Y33025000D02*
X12375000Y33275000D01*
X20116800Y27330400D02*
X19913600Y27533600D01*
X25000000Y23000000D02*
X24000000Y23000000D01*
X14168200Y33025000D02*
X12625000Y33025000D01*
X24000000Y23000000D02*
X24000000Y26647600D01*
X19913600Y27533600D02*
X19913600Y30327600D01*
X11731400Y34518600D02*
X10922000Y34518600D01*
X12375000Y33875000D02*
X11731400Y34518600D01*
X19913600Y30327600D02*
X19100800Y31140400D01*
X12375000Y33275000D02*
X12375000Y33875000D01*
X23317200Y27330400D02*
X20116800Y27330400D01*
X16052800Y31140400D02*
X14168200Y33025000D01*
%TO.N,/RN*%
X-8891157Y22738843D02*
X-9600000Y22030000D01*
X-9610000Y21410000D02*
X-9600000Y21400000D01*
X-4450000Y21180000D02*
X-4450000Y22600000D01*
X-9600000Y22030000D02*
X-9600000Y21400000D01*
X-4450000Y22600000D02*
X-4520000Y22670000D01*
X-10780000Y21410000D02*
X-9610000Y21410000D01*
X-5934500Y22738843D02*
X-8891157Y22738843D01*
%TO.N,/RT*%
X-9540000Y26560000D02*
X-9600000Y26500000D01*
X-9540000Y27230000D02*
X-9540000Y26560000D01*
X-4420000Y27870000D02*
X-8900000Y27870000D01*
X-8900000Y27870000D02*
X-9540000Y27230000D01*
X-10750000Y26500000D02*
X-10770000Y26480000D01*
X-9600000Y26500000D02*
X-10750000Y26500000D01*
X-4410000Y27880000D02*
X-4420000Y27870000D01*
%TO.N,Net-(C4-Pad1)*%
X-10780000Y18150000D02*
X-10780000Y19150000D01*
X-9600000Y19200000D02*
X-10730000Y19200000D01*
X-10780000Y19150000D02*
X-10730000Y19200000D01*
%TO.N,Net-(U3B--)*%
X-2870000Y37220000D02*
X-3180000Y37530000D01*
X-430000Y38220000D02*
X-490000Y38280000D01*
X309163Y38679163D02*
X309163Y38610563D01*
X-3440000Y36620000D02*
X-2670000Y36620000D01*
X200000Y38790000D02*
X310000Y38680000D01*
X-3180000Y37530000D02*
X-3200000Y37530000D01*
X-2600000Y36690000D02*
X-2870000Y36960000D01*
X-2870000Y36960000D02*
X-2870000Y37220000D01*
X310000Y38680000D02*
X309163Y38679163D01*
X-3200000Y37530000D02*
X-3400000Y37730000D01*
X-3400000Y37730000D02*
X-3400000Y38310000D01*
X-2670000Y36620000D02*
X-2600000Y36690000D01*
X-430000Y37050000D02*
X-430000Y38220000D01*
X-490000Y38790000D02*
X200000Y38790000D01*
X-490000Y38280000D02*
X-490000Y38790000D01*
%TO.N,Net-(U1A-+)*%
X-430000Y23860000D02*
X-430000Y23220000D01*
X-80000Y22870000D02*
X460000Y22870000D01*
X460000Y22870000D02*
X650000Y22680000D01*
X-430000Y23220000D02*
X-80000Y22870000D01*
%TO.N,Net-(C8-Pad1)*%
X-10690000Y24040000D02*
X-10730000Y24000000D01*
X-10730000Y24000000D02*
X-10730000Y22970000D01*
X-9600000Y23980000D02*
X-9660000Y24040000D01*
X-9660000Y24040000D02*
X-10690000Y24040000D01*
X-10730000Y22970000D02*
X-10720000Y22960000D01*
%TO.N,Net-(C10-Pad1)*%
X-9600000Y28930000D02*
X-10770000Y28930000D01*
X-10770000Y28930000D02*
X-10780000Y28940000D01*
X-10780000Y27950000D02*
X-10730000Y27900000D01*
X-10780000Y28940000D02*
X-10780000Y27950000D01*
%TO.N,Net-(C12-Pad1)*%
X-9600000Y34160000D02*
X-10770000Y34160000D01*
X-10770000Y34160000D02*
X-10780000Y34170000D01*
X-10780000Y34170000D02*
X-10780000Y33210000D01*
X-10780000Y33210000D02*
X-10730000Y33160000D01*
%TO.N,Net-(U3A-+)*%
X190000Y34240000D02*
X1280000Y34240000D01*
X-430000Y34860000D02*
X190000Y34240000D01*
X-430000Y35150000D02*
X-430000Y34860000D01*
%TO.N,Net-(U1B-+)*%
X70000Y26550000D02*
X570000Y27050000D01*
X70000Y25760000D02*
X70000Y26550000D01*
%TO.N,/RS*%
X-5370000Y30370000D02*
X-9020000Y30370000D01*
X-10770000Y31690000D02*
X-10780000Y31700000D01*
X-9600000Y30950000D02*
X-9600000Y31690000D01*
X-9600000Y31690000D02*
X-10770000Y31690000D01*
X-4460000Y33440000D02*
X-4460000Y31280000D01*
X-9020000Y30370000D02*
X-9600000Y30950000D01*
X-4460000Y31280000D02*
X-5370000Y30370000D01*
%TO.N,/RR*%
X-4460000Y36620000D02*
X-4460000Y36300000D01*
X-9610000Y37080000D02*
X-9600000Y37070000D01*
X-4460000Y36300000D02*
X-5360000Y35400000D01*
X-10780000Y37080000D02*
X-9610000Y37080000D01*
X-9200000Y35400000D02*
X-9600000Y35800000D01*
X-9600000Y35800000D02*
X-9600000Y37070000D01*
X-5360000Y35400000D02*
X-9200000Y35400000D01*
%TO.N,Net-(U3B-+)*%
X1250000Y37420000D02*
X1250000Y37730000D01*
X70000Y37050000D02*
X880000Y37050000D01*
X880000Y37050000D02*
X1250000Y37420000D01*
%TO.N,/UM*%
X158200Y24810000D02*
X177800Y24790400D01*
X2152453Y22357547D02*
X1610000Y22900000D01*
X2410000Y22225031D02*
X2410000Y21025000D01*
X-180000Y24810000D02*
X158200Y24810000D01*
X1647145Y35047145D02*
X1625500Y35047145D01*
X177800Y23967800D02*
X70000Y23860000D01*
X70000Y35150000D02*
X114511Y35105489D01*
X1610000Y22900000D02*
X1610000Y23910000D01*
X-57400Y36100000D02*
X152400Y35890200D01*
X1705489Y35105489D02*
X1647145Y35047145D01*
X152400Y35232400D02*
X70000Y35150000D01*
X70000Y23860000D02*
X1560000Y23860000D01*
X177800Y24790400D02*
X177800Y23967800D01*
X2277484Y22357547D02*
X2410000Y22225031D01*
X152400Y35890200D02*
X152400Y35232400D01*
X114511Y35105489D02*
X1705489Y35105489D01*
X2277484Y22357547D02*
X2152453Y22357547D01*
X1560000Y23860000D02*
X1610000Y23910000D01*
X-180000Y36100000D02*
X-57400Y36100000D01*
D33*
%TO.N,/C+*%
X-70000Y18890000D02*
X-885000Y18890000D01*
X-885000Y18890000D02*
X-1105000Y18670000D01*
%TO.N,/UR-*%
X4530000Y30250000D02*
X4230000Y29950000D01*
X4530000Y31830000D02*
X4530000Y30250000D01*
X5130800Y32004000D02*
X4704000Y32004000D01*
X13000000Y26600000D02*
X13040000Y26640000D01*
X13000000Y23000000D02*
X13000000Y26600000D01*
X4704000Y32004000D02*
X4530000Y31830000D01*
X4230000Y29950000D02*
X4230000Y29490000D01*
%TO.N,/US-*%
X6273800Y31369000D02*
X6273800Y29546200D01*
X8393411Y29123411D02*
X8393411Y29060011D01*
X8393411Y29060011D02*
X8791711Y28661711D01*
X8791711Y28661711D02*
X9518289Y28661711D01*
X11000000Y27180000D02*
X11000000Y23000000D01*
X9518289Y28661711D02*
X11000000Y27180000D01*
%TO.N,/UT-*%
X9000000Y26610000D02*
X9000000Y26990000D01*
X9020000Y25950000D02*
X9000000Y25970000D01*
X7264400Y28865600D02*
X9000000Y27130000D01*
X9000000Y25930000D02*
X9020000Y25950000D01*
X7264400Y31369000D02*
X7264400Y28865600D01*
X9000000Y27130000D02*
X9000000Y26610000D01*
X9000000Y25970000D02*
X9000000Y26610000D01*
X9000000Y23000000D02*
X9000000Y25930000D01*
%TO.N,/C-*%
X-4765656Y20033911D02*
X-4765656Y19380656D01*
X-4765656Y19380656D02*
X-4055000Y18670000D01*
%TD*%
%TA.AperFunction,Conductor*%
%TO.N,GND*%
G36*
X-9059161Y42184620D02*
G01*
X-9012025Y42131528D01*
X-9000000Y42077809D01*
X-9000000Y40000000D01*
X-144518Y40000000D01*
X-76397Y39979998D01*
X-29904Y39926342D01*
X-19800Y39856068D01*
X-49294Y39791488D01*
X-55422Y39784905D01*
X-207923Y39632403D01*
X-270233Y39598380D01*
X-297017Y39595500D01*
X-979413Y39595500D01*
X-979429Y39595501D01*
X-987147Y39595501D01*
X-1072852Y39595501D01*
X-1155638Y39573318D01*
X-1229862Y39530465D01*
X-1229868Y39530459D01*
X-1300831Y39459496D01*
X-1300838Y39459486D01*
X-1770465Y38989862D01*
X-1813318Y38915639D01*
X-1829121Y38856661D01*
X-1829766Y38854253D01*
X-1835499Y38832857D01*
X-1835500Y38832850D01*
X-1835500Y38801231D01*
X-1855502Y38733110D01*
X-1909158Y38686617D01*
X-1979432Y38676513D01*
X-2044012Y38706007D01*
X-2050595Y38712136D01*
X-2101682Y38763223D01*
X-2101684Y38763224D01*
X-2210513Y38813972D01*
X-2260099Y38820500D01*
X-2619900Y38820499D01*
X-2619903Y38820498D01*
X-2619910Y38820498D01*
X-2638513Y38818048D01*
X-2669487Y38813972D01*
X-2778316Y38763224D01*
X-2778317Y38763223D01*
X-2778318Y38763222D01*
X-2830905Y38710636D01*
X-2893217Y38676610D01*
X-2964032Y38681675D01*
X-3009095Y38710636D01*
X-3061682Y38763223D01*
X-3061684Y38763224D01*
X-3170513Y38813972D01*
X-3220099Y38820500D01*
X-3579900Y38820499D01*
X-3579903Y38820498D01*
X-3579910Y38820498D01*
X-3598513Y38818048D01*
X-3629487Y38813972D01*
X-3738316Y38763224D01*
X-3823224Y38678316D01*
X-3873972Y38569487D01*
X-3880500Y38519901D01*
X-3880499Y38307722D01*
X-3880499Y38100101D01*
X-3880498Y38100089D01*
X-3877871Y38080137D01*
X-3873972Y38050513D01*
X-3824426Y37944262D01*
X-3823223Y37941682D01*
X-3762405Y37880864D01*
X-3728379Y37818552D01*
X-3725500Y37791769D01*
X-3725500Y37772853D01*
X-3725500Y37687147D01*
X-3703318Y37604361D01*
X-3703315Y37604356D01*
X-3662733Y37534065D01*
X-3660465Y37530138D01*
X-3485920Y37355593D01*
X-3451897Y37293284D01*
X-3456961Y37222468D01*
X-3499508Y37165632D01*
X-3566028Y37140821D01*
X-3575017Y37140500D01*
X-3614316Y37140500D01*
X-3663173Y37134068D01*
X-3770404Y37084065D01*
X-3770405Y37084064D01*
X-3770406Y37084063D01*
X-3860905Y36993565D01*
X-3923217Y36959539D01*
X-3994032Y36964604D01*
X-4039095Y36993565D01*
X-4129594Y37084064D01*
X-4208741Y37120971D01*
X-4236827Y37134068D01*
X-4285684Y37140500D01*
X-4634316Y37140500D01*
X-4683173Y37134068D01*
X-4790404Y37084065D01*
X-4874065Y37000404D01*
X-4924068Y36893173D01*
X-4930500Y36844316D01*
X-4930500Y36395684D01*
X-4929377Y36387157D01*
X-4926295Y36363744D01*
X-4937235Y36293596D01*
X-4962119Y36258206D01*
X-5347040Y35873287D01*
X-5457923Y35762404D01*
X-5520235Y35728379D01*
X-5547018Y35725500D01*
X-5573700Y35725500D01*
X-5641821Y35745502D01*
X-5688314Y35799158D01*
X-5699700Y35851500D01*
X-5699700Y37562730D01*
X-5711332Y37621208D01*
X-5711333Y37621211D01*
X-5728216Y37646478D01*
X-5755648Y37687532D01*
X-5821969Y37731847D01*
X-5880452Y37743480D01*
X-7619948Y37743480D01*
X-7678431Y37731847D01*
X-7744752Y37687532D01*
X-7789067Y37621211D01*
X-7800700Y37562728D01*
X-7800700Y37562726D01*
X-7800700Y37521500D01*
X-7820702Y37453379D01*
X-7874358Y37406886D01*
X-7926700Y37395500D01*
X-8061900Y37395500D01*
X-8130021Y37415502D01*
X-8165116Y37449234D01*
X-8165937Y37450407D01*
X-8249594Y37534064D01*
X-8295958Y37555684D01*
X-8356827Y37584068D01*
X-8405684Y37590500D01*
X-8754316Y37590500D01*
X-8803173Y37584068D01*
X-8910404Y37534065D01*
X-8910405Y37534064D01*
X-8910406Y37534063D01*
X-9000905Y37443565D01*
X-9063217Y37409539D01*
X-9134032Y37414604D01*
X-9179095Y37443565D01*
X-9269594Y37534064D01*
X-9315958Y37555684D01*
X-9376827Y37584068D01*
X-9425684Y37590500D01*
X-9774316Y37590500D01*
X-9823173Y37584068D01*
X-9930404Y37534065D01*
X-9930405Y37534064D01*
X-9930406Y37534063D01*
X-10021860Y37442610D01*
X-10024873Y37445623D01*
X-10063517Y37414830D01*
X-10111099Y37405500D01*
X-10261769Y37405500D01*
X-10329890Y37425502D01*
X-10350864Y37442405D01*
X-10441682Y37533223D01*
X-10441684Y37533224D01*
X-10550513Y37583972D01*
X-10600099Y37590500D01*
X-10959900Y37590499D01*
X-10959903Y37590498D01*
X-10959910Y37590498D01*
X-10978513Y37588048D01*
X-11009487Y37583972D01*
X-11118316Y37533224D01*
X-11203224Y37448316D01*
X-11253972Y37339487D01*
X-11260500Y37289901D01*
X-11260499Y37053404D01*
X-11260499Y36870101D01*
X-11260498Y36870089D01*
X-11257427Y36846762D01*
X-11253972Y36820513D01*
X-11207408Y36720656D01*
X-11203223Y36711682D01*
X-11118317Y36626776D01*
X-11009485Y36576027D01*
X-10972955Y36571218D01*
X-10959901Y36569500D01*
X-10959899Y36569500D01*
X-10600101Y36569500D01*
X-10600089Y36569501D01*
X-10550516Y36576027D01*
X-10550510Y36576029D01*
X-10441682Y36626776D01*
X-10441681Y36626777D01*
X-10350864Y36717595D01*
X-10288552Y36751621D01*
X-10261769Y36754500D01*
X-10124601Y36754500D01*
X-10056480Y36734498D01*
X-10023338Y36696558D01*
X-10020387Y36698625D01*
X-10014062Y36689592D01*
X-9962405Y36637935D01*
X-9928379Y36575623D01*
X-9925500Y36548840D01*
X-9925500Y35842853D01*
X-9925500Y35757147D01*
X-9903318Y35674361D01*
X-9903315Y35674356D01*
X-9877852Y35630252D01*
X-9860465Y35600138D01*
X-9460466Y35200139D01*
X-9460465Y35200138D01*
X-9429650Y35169323D01*
X-9399863Y35139536D01*
X-9399858Y35139532D01*
X-9325642Y35096683D01*
X-9325638Y35096682D01*
X-9242853Y35074500D01*
X-7619305Y35074500D01*
X-7551184Y35054498D01*
X-7504691Y35000842D01*
X-7494587Y34930568D01*
X-7521904Y34868568D01*
X-7627885Y34739430D01*
X-7725432Y34556934D01*
X-7728014Y34552103D01*
X-7777767Y34501455D01*
X-7839136Y34485500D01*
X-8061900Y34485500D01*
X-8130021Y34505502D01*
X-8165116Y34539234D01*
X-8165937Y34540407D01*
X-8249594Y34624064D01*
X-8254661Y34626427D01*
X-8356827Y34674068D01*
X-8405684Y34680500D01*
X-8754316Y34680500D01*
X-8803173Y34674068D01*
X-8910404Y34624065D01*
X-8910405Y34624064D01*
X-8910406Y34624063D01*
X-9000905Y34533565D01*
X-9063217Y34499539D01*
X-9134032Y34504604D01*
X-9179095Y34533565D01*
X-9269594Y34624064D01*
X-9274661Y34626427D01*
X-9376827Y34674068D01*
X-9425684Y34680500D01*
X-9774316Y34680500D01*
X-9823173Y34674068D01*
X-9930404Y34624065D01*
X-10014065Y34540404D01*
X-10014066Y34540400D01*
X-10014884Y34539234D01*
X-10016638Y34537831D01*
X-10021860Y34532610D01*
X-10022442Y34533192D01*
X-10070339Y34494903D01*
X-10118100Y34485500D01*
X-10254202Y34485500D01*
X-10322323Y34505502D01*
X-10348674Y34530828D01*
X-10348981Y34530522D01*
X-10441682Y34623223D01*
X-10443483Y34624063D01*
X-10550513Y34673972D01*
X-10600099Y34680500D01*
X-10959900Y34680499D01*
X-10959903Y34680498D01*
X-10959910Y34680498D01*
X-10978513Y34678048D01*
X-11009487Y34673972D01*
X-11118316Y34623224D01*
X-11203224Y34538316D01*
X-11253972Y34429487D01*
X-11260500Y34379901D01*
X-11260499Y34152983D01*
X-11260499Y33960101D01*
X-11260498Y33960089D01*
X-11258782Y33947052D01*
X-11253972Y33910513D01*
X-11214532Y33825935D01*
X-11203223Y33801682D01*
X-11142405Y33740864D01*
X-11108379Y33678552D01*
X-11105500Y33651769D01*
X-11105500Y33631159D01*
X-11125502Y33563038D01*
X-11142404Y33542064D01*
X-11144065Y33540404D01*
X-11194068Y33433173D01*
X-11200500Y33384316D01*
X-11200500Y32935684D01*
X-11194068Y32886827D01*
X-11149859Y32792022D01*
X-11144064Y32779594D01*
X-11060405Y32695935D01*
X-10953171Y32645931D01*
X-10904322Y32639500D01*
X-10904316Y32639500D01*
X-10555677Y32639500D01*
X-10506828Y32645931D01*
X-10399594Y32695935D01*
X-10315935Y32779594D01*
X-10265931Y32886828D01*
X-10259500Y32935677D01*
X-10259500Y33384322D01*
X-10265931Y33433171D01*
X-10315935Y33540405D01*
X-10377899Y33602369D01*
X-10411925Y33664681D01*
X-10406860Y33735496D01*
X-10377905Y33780554D01*
X-10365221Y33793239D01*
X-10360868Y33797591D01*
X-10298560Y33831619D01*
X-10271770Y33834500D01*
X-10118100Y33834500D01*
X-10049979Y33814498D01*
X-10014884Y33780766D01*
X-10014062Y33779592D01*
X-9930405Y33695935D01*
X-9823171Y33645931D01*
X-9774322Y33639500D01*
X-9774316Y33639500D01*
X-9425677Y33639500D01*
X-9376828Y33645931D01*
X-9269594Y33695935D01*
X-9269593Y33695936D01*
X-9179095Y33786435D01*
X-9116783Y33820461D01*
X-9045968Y33815396D01*
X-9000905Y33786435D01*
X-8910405Y33695935D01*
X-8803171Y33645931D01*
X-8754322Y33639500D01*
X-8754316Y33639500D01*
X-8405677Y33639500D01*
X-8356828Y33645931D01*
X-8249594Y33695935D01*
X-8165937Y33779592D01*
X-8165116Y33780766D01*
X-8163361Y33782168D01*
X-8158140Y33787390D01*
X-8157557Y33786807D01*
X-8109661Y33825097D01*
X-8061900Y33834500D01*
X-7844809Y33834500D01*
X-7776688Y33814498D01*
X-7730195Y33760842D01*
X-7727878Y33754715D01*
X-7727802Y33754747D01*
X-7725432Y33749026D01*
X-7627885Y33566530D01*
X-7496610Y33406570D01*
X-7336650Y33275295D01*
X-7336648Y33275294D01*
X-7336647Y33275293D01*
X-7181104Y33192153D01*
X-7154154Y33177748D01*
X-6958231Y33118316D01*
X-6956127Y33117678D01*
X-6750203Y33097397D01*
X-6750200Y33097397D01*
X-6750197Y33097397D01*
X-6544272Y33117678D01*
X-6346245Y33177748D01*
X-6163752Y33275293D01*
X-6003790Y33406570D01*
X-5872513Y33566532D01*
X-5774968Y33749025D01*
X-5714898Y33947052D01*
X-5694617Y34152976D01*
X-5694617Y34152983D01*
X-5714898Y34358907D01*
X-5721268Y34379905D01*
X-5774968Y34556934D01*
X-5802911Y34609211D01*
X-5872513Y34739427D01*
X-5879565Y34748020D01*
X-5978495Y34868568D01*
X-6006248Y34933914D01*
X-5994266Y35003892D01*
X-5946353Y35056284D01*
X-5881095Y35074500D01*
X-5317149Y35074500D01*
X-5317147Y35074500D01*
X-5234361Y35096682D01*
X-5234359Y35096683D01*
X-5234356Y35096684D01*
X-5160141Y35139532D01*
X-5160135Y35139537D01*
X-4199535Y36100138D01*
X-4194508Y36106690D01*
X-4192788Y36105370D01*
X-4149680Y36146460D01*
X-4145221Y36148648D01*
X-4129593Y36155936D01*
X-4039095Y36246435D01*
X-3976783Y36280461D01*
X-3905968Y36275396D01*
X-3860905Y36246435D01*
X-3770405Y36155935D01*
X-3663171Y36105931D01*
X-3614322Y36099500D01*
X-3614316Y36099500D01*
X-3265677Y36099500D01*
X-3216828Y36105931D01*
X-3109595Y36155935D01*
X-3092569Y36172961D01*
X-3030256Y36206985D01*
X-2959440Y36201919D01*
X-2926773Y36183827D01*
X-2902841Y36165464D01*
X-2902839Y36165463D01*
X-2756760Y36104955D01*
X-2600000Y36084318D01*
X-2443239Y36104955D01*
X-2297160Y36165463D01*
X-2297157Y36165465D01*
X-2171718Y36261718D01*
X-2075465Y36387157D01*
X-2075463Y36387160D01*
X-2014955Y36533239D01*
X-1994318Y36689999D01*
X-1994318Y36690004D01*
X-1994530Y36691616D01*
X-1994318Y36692974D01*
X-1994318Y36698258D01*
X-1993494Y36698258D01*
X-1983586Y36761764D01*
X-1936454Y36814860D01*
X-1868099Y36834045D01*
X-1800223Y36813229D01*
X-1754375Y36759021D01*
X-1746029Y36732641D01*
X-1743867Y36721769D01*
X-1700636Y36657071D01*
X-1679423Y36589322D01*
X-1680010Y36574717D01*
X-1680500Y36569743D01*
X-1680500Y36144807D01*
X-1681783Y36126874D01*
X-1685647Y36100001D01*
X-1681782Y36073117D01*
X-1680500Y36055187D01*
X-1680500Y35630253D01*
X-1680010Y35625280D01*
X-1693237Y35555527D01*
X-1700633Y35542934D01*
X-1743867Y35478231D01*
X-1746346Y35465766D01*
X-1779251Y35402858D01*
X-1840946Y35367725D01*
X-1911840Y35371523D01*
X-1918124Y35373930D01*
X-1993238Y35405044D01*
X-2150000Y35425682D01*
X-2306762Y35405044D01*
X-2452841Y35344536D01*
X-2578282Y35248282D01*
X-2674536Y35122841D01*
X-2735044Y34976762D01*
X-2743563Y34912052D01*
X-2755682Y34820000D01*
X-2755682Y34819999D01*
X-2750378Y34779714D01*
X-2735044Y34663238D01*
X-2674536Y34517159D01*
X-2578282Y34391718D01*
X-2505825Y34336120D01*
X-2452840Y34295463D01*
X-2450067Y34293863D01*
X-2448193Y34291898D01*
X-2446289Y34290437D01*
X-2446516Y34290140D01*
X-2401072Y34242483D01*
X-2387632Y34172770D01*
X-2414015Y34106858D01*
X-2471845Y34065673D01*
X-2529508Y34059819D01*
X-2650000Y34075682D01*
X-2806762Y34055044D01*
X-2952841Y33994536D01*
X-3014731Y33947046D01*
X-3024771Y33939342D01*
X-3090991Y33913741D01*
X-3154725Y33925109D01*
X-3179543Y33936682D01*
X-3216827Y33954068D01*
X-3265684Y33960500D01*
X-3614316Y33960500D01*
X-3663173Y33954068D01*
X-3770404Y33904065D01*
X-3770405Y33904064D01*
X-3770406Y33904063D01*
X-3860905Y33813565D01*
X-3923217Y33779539D01*
X-3994032Y33784604D01*
X-4039095Y33813565D01*
X-4129594Y33904064D01*
X-4129596Y33904065D01*
X-4236827Y33954068D01*
X-4285684Y33960500D01*
X-4634316Y33960500D01*
X-4683173Y33954068D01*
X-4790404Y33904065D01*
X-4874065Y33820404D01*
X-4924068Y33713173D01*
X-4930500Y33664316D01*
X-4930500Y33215684D01*
X-4924068Y33166827D01*
X-4896139Y33106934D01*
X-4874064Y33059594D01*
X-4822405Y33007935D01*
X-4788379Y32945623D01*
X-4785500Y32918840D01*
X-4785500Y31467017D01*
X-4805502Y31398896D01*
X-4822405Y31377922D01*
X-5467922Y30732405D01*
X-5530234Y30698379D01*
X-5557017Y30695500D01*
X-5877779Y30695500D01*
X-5945900Y30715502D01*
X-5992393Y30769158D01*
X-6002497Y30839432D01*
X-5975179Y30901433D01*
X-5962389Y30917017D01*
X-5872515Y31026530D01*
X-5872513Y31026532D01*
X-5774968Y31209025D01*
X-5714898Y31407052D01*
X-5694617Y31612976D01*
X-5694617Y31612983D01*
X-5714898Y31818907D01*
X-5742502Y31909905D01*
X-5774968Y32016934D01*
X-5798430Y32060828D01*
X-5872513Y32199427D01*
X-5876243Y32203972D01*
X-6003790Y32359390D01*
X-6163750Y32490665D01*
X-6346246Y32588212D01*
X-6544266Y32648280D01*
X-6544270Y32648280D01*
X-6544272Y32648281D01*
X-6750197Y32668563D01*
X-6750203Y32668563D01*
X-6956127Y32648281D01*
X-6956128Y32648280D01*
X-6956134Y32648280D01*
X-7154154Y32588212D01*
X-7336650Y32490665D01*
X-7496610Y32359390D01*
X-7627885Y32199430D01*
X-7680016Y32101900D01*
X-7690598Y32082103D01*
X-7740351Y32031455D01*
X-7801720Y32015500D01*
X-8061900Y32015500D01*
X-8130021Y32035502D01*
X-8165116Y32069234D01*
X-8165937Y32070407D01*
X-8249594Y32154064D01*
X-8274509Y32165682D01*
X-8356827Y32204068D01*
X-8405684Y32210500D01*
X-8754316Y32210500D01*
X-8803173Y32204068D01*
X-8910404Y32154065D01*
X-8910405Y32154064D01*
X-8910406Y32154063D01*
X-9000905Y32063565D01*
X-9063217Y32029539D01*
X-9134032Y32034604D01*
X-9179095Y32063565D01*
X-9269594Y32154064D01*
X-9294509Y32165682D01*
X-9376827Y32204068D01*
X-9425684Y32210500D01*
X-9774316Y32210500D01*
X-9823173Y32204068D01*
X-9930404Y32154065D01*
X-10014065Y32070404D01*
X-10014066Y32070400D01*
X-10014884Y32069234D01*
X-10016638Y32067831D01*
X-10021860Y32062610D01*
X-10022442Y32063192D01*
X-10070339Y32024903D01*
X-10118100Y32015500D01*
X-10254202Y32015500D01*
X-10322323Y32035502D01*
X-10348674Y32060828D01*
X-10348981Y32060522D01*
X-10441682Y32153223D01*
X-10443483Y32154063D01*
X-10550513Y32203972D01*
X-10600099Y32210500D01*
X-10959900Y32210499D01*
X-10959903Y32210498D01*
X-10959910Y32210498D01*
X-10978513Y32208048D01*
X-11009487Y32203972D01*
X-11118316Y32153224D01*
X-11203224Y32068316D01*
X-11253972Y31959487D01*
X-11260500Y31909901D01*
X-11260499Y31699821D01*
X-11260499Y31490101D01*
X-11260498Y31490089D01*
X-11257461Y31467017D01*
X-11253972Y31440513D01*
X-11224785Y31377922D01*
X-11203223Y31331682D01*
X-11118317Y31246776D01*
X-11009485Y31196027D01*
X-10972955Y31191218D01*
X-10959901Y31189500D01*
X-10959899Y31189500D01*
X-10600101Y31189500D01*
X-10600089Y31189501D01*
X-10550516Y31196027D01*
X-10550510Y31196029D01*
X-10441683Y31246776D01*
X-10397618Y31290842D01*
X-10360863Y31327596D01*
X-10298554Y31361620D01*
X-10271770Y31364500D01*
X-10118100Y31364500D01*
X-10049979Y31344498D01*
X-10014884Y31310766D01*
X-10014062Y31309592D01*
X-9962405Y31257935D01*
X-9928379Y31195623D01*
X-9925500Y31168840D01*
X-9925500Y30992853D01*
X-9925500Y30907147D01*
X-9903318Y30824361D01*
X-9903315Y30824356D01*
X-9860467Y30750141D01*
X-9860459Y30750131D01*
X-9219868Y30109540D01*
X-9219858Y30109532D01*
X-9145643Y30066684D01*
X-9145641Y30066683D01*
X-9145639Y30066682D01*
X-9062853Y30044500D01*
X-8977147Y30044500D01*
X-7574459Y30044500D01*
X-7506338Y30024498D01*
X-7459845Y29970842D01*
X-7449741Y29900568D01*
X-7479235Y29835988D01*
X-7494528Y29821099D01*
X-7496610Y29819390D01*
X-7627885Y29659430D01*
X-7725432Y29476934D01*
X-7750825Y29393223D01*
X-7765476Y29344925D01*
X-7804391Y29285543D01*
X-7869233Y29256627D01*
X-7886051Y29255500D01*
X-8061900Y29255500D01*
X-8130021Y29275502D01*
X-8165116Y29309234D01*
X-8165937Y29310407D01*
X-8249594Y29394064D01*
X-8249596Y29394065D01*
X-8356827Y29444068D01*
X-8405684Y29450500D01*
X-8754316Y29450500D01*
X-8803173Y29444068D01*
X-8910404Y29394065D01*
X-8910405Y29394064D01*
X-8910406Y29394063D01*
X-9000905Y29303565D01*
X-9063217Y29269539D01*
X-9134032Y29274604D01*
X-9179095Y29303565D01*
X-9269594Y29394064D01*
X-9269596Y29394065D01*
X-9376827Y29444068D01*
X-9425684Y29450500D01*
X-9774316Y29450500D01*
X-9823173Y29444068D01*
X-9930404Y29394065D01*
X-10014065Y29310404D01*
X-10014066Y29310400D01*
X-10014884Y29309234D01*
X-10016638Y29307831D01*
X-10021860Y29302610D01*
X-10022442Y29303192D01*
X-10070339Y29264903D01*
X-10118100Y29255500D01*
X-10254202Y29255500D01*
X-10322323Y29275502D01*
X-10348674Y29300828D01*
X-10348981Y29300522D01*
X-10441682Y29393223D01*
X-10443483Y29394063D01*
X-10550513Y29443972D01*
X-10600099Y29450500D01*
X-10959900Y29450499D01*
X-10959903Y29450498D01*
X-10959910Y29450498D01*
X-10978513Y29448048D01*
X-11009487Y29443972D01*
X-11118316Y29393224D01*
X-11203224Y29308316D01*
X-11253972Y29199487D01*
X-11260500Y29149901D01*
X-11260499Y28937173D01*
X-11260499Y28730101D01*
X-11260498Y28730089D01*
X-11257285Y28705684D01*
X-11253972Y28680513D01*
X-11216614Y28600399D01*
X-11203223Y28571682D01*
X-11142405Y28510864D01*
X-11108379Y28448552D01*
X-11105500Y28421769D01*
X-11105500Y28371159D01*
X-11125502Y28303038D01*
X-11142404Y28282064D01*
X-11144065Y28280404D01*
X-11194068Y28173173D01*
X-11200500Y28124316D01*
X-11200500Y27675684D01*
X-11194068Y27626827D01*
X-11151433Y27535396D01*
X-11144064Y27519594D01*
X-11060405Y27435935D01*
X-10953171Y27385931D01*
X-10904322Y27379500D01*
X-10904316Y27379500D01*
X-10555677Y27379500D01*
X-10506828Y27385931D01*
X-10399594Y27435935D01*
X-10315935Y27519594D01*
X-10265931Y27626828D01*
X-10259500Y27675677D01*
X-10259500Y28124322D01*
X-10265931Y28173171D01*
X-10315935Y28280405D01*
X-10392899Y28357369D01*
X-10426925Y28419681D01*
X-10421860Y28490496D01*
X-10392902Y28535557D01*
X-10371070Y28557390D01*
X-10360865Y28567594D01*
X-10298557Y28601620D01*
X-10271770Y28604500D01*
X-10118100Y28604500D01*
X-10049979Y28584498D01*
X-10014884Y28550766D01*
X-10014062Y28549592D01*
X-9930405Y28465935D01*
X-9823171Y28415931D01*
X-9774322Y28409500D01*
X-9774316Y28409500D01*
X-9425677Y28409500D01*
X-9376828Y28415931D01*
X-9269594Y28465935D01*
X-9269593Y28465936D01*
X-9179095Y28556435D01*
X-9116783Y28590461D01*
X-9045968Y28585396D01*
X-9000905Y28556435D01*
X-8910405Y28465935D01*
X-8877338Y28450516D01*
X-8845555Y28435695D01*
X-8792271Y28388779D01*
X-8772810Y28320501D01*
X-8793352Y28252541D01*
X-8847375Y28206476D01*
X-8898806Y28195501D01*
X-8942853Y28195501D01*
X-8993520Y28181924D01*
X-9016055Y28175886D01*
X-9025639Y28173318D01*
X-9060528Y28153174D01*
X-9060529Y28153174D01*
X-9083236Y28140063D01*
X-9099862Y28130465D01*
X-9099868Y28130459D01*
X-9170831Y28059496D01*
X-9170838Y28059486D01*
X-9800465Y27429862D01*
X-9843318Y27355639D01*
X-9861563Y27287547D01*
X-9865500Y27272853D01*
X-9865500Y27272850D01*
X-9865500Y27074600D01*
X-9885502Y27006479D01*
X-9923446Y26973345D01*
X-9921375Y26970387D01*
X-9930400Y26964066D01*
X-9930404Y26964065D01*
X-10014065Y26880404D01*
X-10014066Y26880400D01*
X-10014884Y26879234D01*
X-10016638Y26877831D01*
X-10021860Y26872610D01*
X-10022442Y26873192D01*
X-10070339Y26834903D01*
X-10118100Y26825500D01*
X-10271769Y26825500D01*
X-10339890Y26845502D01*
X-10360864Y26862405D01*
X-10431682Y26933223D01*
X-10439640Y26936934D01*
X-10540513Y26983972D01*
X-10590099Y26990500D01*
X-10949900Y26990499D01*
X-10949903Y26990498D01*
X-10949910Y26990498D01*
X-10968513Y26988048D01*
X-10999487Y26983972D01*
X-11108316Y26933224D01*
X-11193224Y26848316D01*
X-11243972Y26739487D01*
X-11250500Y26689901D01*
X-11250499Y26474536D01*
X-11250499Y26270101D01*
X-11250498Y26270089D01*
X-11248034Y26251372D01*
X-11243972Y26220513D01*
X-11196442Y26118585D01*
X-11193223Y26111682D01*
X-11108317Y26026776D01*
X-10999485Y25976027D01*
X-10962955Y25971218D01*
X-10949901Y25969500D01*
X-10949899Y25969500D01*
X-10590101Y25969500D01*
X-10590089Y25969501D01*
X-10540516Y25976027D01*
X-10540510Y25976029D01*
X-10431682Y26026776D01*
X-10346777Y26111681D01*
X-10340452Y26120715D01*
X-10336968Y26118276D01*
X-10303846Y26155440D01*
X-10237213Y26174500D01*
X-10118100Y26174500D01*
X-10049979Y26154498D01*
X-10014884Y26120766D01*
X-10014062Y26119592D01*
X-9930405Y26035935D01*
X-9823171Y25985931D01*
X-9774322Y25979500D01*
X-9774316Y25979500D01*
X-9425677Y25979500D01*
X-9376828Y25985931D01*
X-9269594Y26035935D01*
X-9269593Y26035936D01*
X-9179095Y26126435D01*
X-9116783Y26160461D01*
X-9045968Y26155396D01*
X-9000905Y26126435D01*
X-8910405Y26035935D01*
X-8803171Y25985931D01*
X-8754322Y25979500D01*
X-8754316Y25979500D01*
X-8405677Y25979500D01*
X-8356828Y25985931D01*
X-8249594Y26035935D01*
X-8165937Y26119592D01*
X-8165116Y26120766D01*
X-8163361Y26122168D01*
X-8158140Y26127390D01*
X-8157557Y26126807D01*
X-8109661Y26165097D01*
X-8061900Y26174500D01*
X-7825260Y26174500D01*
X-7757139Y26154498D01*
X-7714138Y26107897D01*
X-7627885Y25946530D01*
X-7496610Y25786570D01*
X-7336650Y25655295D01*
X-7336648Y25655294D01*
X-7336647Y25655293D01*
X-7171761Y25567159D01*
X-7154154Y25557748D01*
X-7032912Y25520970D01*
X-6956127Y25497678D01*
X-6750203Y25477397D01*
X-6750200Y25477397D01*
X-6750197Y25477397D01*
X-6544272Y25497678D01*
X-6346245Y25557748D01*
X-6163752Y25655293D01*
X-6003790Y25786570D01*
X-5872513Y25946532D01*
X-5774968Y26129025D01*
X-5714898Y26327052D01*
X-5694617Y26532976D01*
X-5694617Y26532983D01*
X-5714898Y26738907D01*
X-5725314Y26773243D01*
X-5774968Y26936934D01*
X-5798053Y26980122D01*
X-5872513Y27119427D01*
X-5877123Y27125044D01*
X-5998425Y27272853D01*
X-6003789Y27279389D01*
X-6003790Y27279390D01*
X-6054616Y27321101D01*
X-6094584Y27379777D01*
X-6096485Y27450748D01*
X-6059715Y27511480D01*
X-5995947Y27542693D01*
X-5974682Y27544500D01*
X-4921099Y27544500D01*
X-4852978Y27524498D01*
X-4833471Y27505778D01*
X-4831860Y27507390D01*
X-4740405Y27415935D01*
X-4633171Y27365931D01*
X-4584322Y27359500D01*
X-4584316Y27359500D01*
X-4235677Y27359500D01*
X-4186828Y27365931D01*
X-4079594Y27415935D01*
X-4079593Y27415936D01*
X-3989095Y27506435D01*
X-3926783Y27540461D01*
X-3855968Y27535396D01*
X-3810905Y27506435D01*
X-3720405Y27415935D01*
X-3613171Y27365931D01*
X-3564322Y27359500D01*
X-3564316Y27359500D01*
X-3215677Y27359500D01*
X-3166828Y27365931D01*
X-3059594Y27415935D01*
X-2975935Y27499594D01*
X-2925931Y27606828D01*
X-2919500Y27655677D01*
X-2919500Y28104322D01*
X-2925931Y28153171D01*
X-2975935Y28260405D01*
X-3027595Y28312065D01*
X-3061621Y28374377D01*
X-3064500Y28401160D01*
X-3064500Y28580714D01*
X-3044498Y28648835D01*
X-3015204Y28680676D01*
X-2961720Y28721715D01*
X-2865465Y28847157D01*
X-2865463Y28847160D01*
X-2804955Y28993239D01*
X-2784318Y29149999D01*
X-2784318Y29150000D01*
X-2804955Y29306760D01*
X-2865463Y29452839D01*
X-2865465Y29452842D01*
X-2961718Y29578282D01*
X-3087159Y29674536D01*
X-3233238Y29735044D01*
X-3390000Y29755682D01*
X-3546762Y29735044D01*
X-3692841Y29674536D01*
X-3818282Y29578282D01*
X-3914536Y29452841D01*
X-3975044Y29306762D01*
X-3993154Y29169200D01*
X-3995682Y29150000D01*
X-3995682Y29149999D01*
X-3986245Y29078318D01*
X-3975044Y28993238D01*
X-3914536Y28847159D01*
X-3818282Y28721718D01*
X-3818280Y28721716D01*
X-3818279Y28721715D01*
X-3764796Y28680676D01*
X-3722929Y28623338D01*
X-3715500Y28580714D01*
X-3715500Y28401160D01*
X-3735502Y28333039D01*
X-3752405Y28312065D01*
X-3810905Y28253565D01*
X-3873217Y28219539D01*
X-3944032Y28224604D01*
X-3989095Y28253565D01*
X-4079594Y28344064D01*
X-4084498Y28346351D01*
X-4186827Y28394068D01*
X-4235684Y28400500D01*
X-4584316Y28400500D01*
X-4633173Y28394068D01*
X-4740404Y28344065D01*
X-4824065Y28260404D01*
X-4824066Y28260400D01*
X-4830387Y28251375D01*
X-4833403Y28253486D01*
X-4867333Y28214959D01*
X-4934601Y28195500D01*
X-5844952Y28195500D01*
X-5913073Y28215502D01*
X-5959566Y28269158D01*
X-5969670Y28339432D01*
X-5942352Y28401433D01*
X-5872513Y28486532D01*
X-5774968Y28669025D01*
X-5714898Y28867052D01*
X-5694617Y29072976D01*
X-5694617Y29072983D01*
X-5714898Y29278907D01*
X-5721548Y29300828D01*
X-5774968Y29476934D01*
X-5778929Y29484344D01*
X-5872513Y29659427D01*
X-5879630Y29668099D01*
X-6003790Y29819390D01*
X-6005872Y29821099D01*
X-6006671Y29822272D01*
X-6008167Y29823768D01*
X-6007883Y29824051D01*
X-6045843Y29879775D01*
X-6047745Y29950746D01*
X-6010975Y30011480D01*
X-5947208Y30042692D01*
X-5925941Y30044500D01*
X-5327149Y30044500D01*
X-5327147Y30044500D01*
X-5244361Y30066682D01*
X-5244359Y30066683D01*
X-5244356Y30066684D01*
X-5170141Y30109532D01*
X-5170131Y30109540D01*
X-4199540Y31080131D01*
X-4199532Y31080141D01*
X-4170667Y31130139D01*
X-4156683Y31154359D01*
X-4150903Y31175931D01*
X-4134500Y31237147D01*
X-4134500Y32918840D01*
X-4114498Y32986961D01*
X-4097595Y33007935D01*
X-4039095Y33066435D01*
X-3976783Y33100461D01*
X-3905968Y33095396D01*
X-3860905Y33066435D01*
X-3770405Y32975935D01*
X-3663171Y32925931D01*
X-3614322Y32919500D01*
X-3614316Y32919500D01*
X-3265677Y32919500D01*
X-3216828Y32925931D01*
X-3106089Y32977570D01*
X-3035897Y32988231D01*
X-2976136Y32963339D01*
X-2971656Y32959901D01*
X-2952842Y32945465D01*
X-2952839Y32945463D01*
X-2806760Y32884955D01*
X-2650000Y32864318D01*
X-2493239Y32884955D01*
X-2347160Y32945463D01*
X-2347157Y32945465D01*
X-2221716Y33041719D01*
X-2203800Y33065068D01*
X-2146461Y33106934D01*
X-2075590Y33111155D01*
X-2013688Y33076389D01*
X-1980408Y33013676D01*
X-1978918Y32971916D01*
X-1980500Y32959901D01*
X-1980499Y32742631D01*
X-1980499Y32540101D01*
X-1980498Y32540089D01*
X-1977029Y32513743D01*
X-1973972Y32490513D01*
X-1923224Y32381685D01*
X-1923223Y32381682D01*
X-1838317Y32296776D01*
X-1729485Y32246027D01*
X-1692955Y32241218D01*
X-1679901Y32239500D01*
X-1679899Y32239500D01*
X-1320101Y32239500D01*
X-1320089Y32239501D01*
X-1270516Y32246027D01*
X-1270510Y32246029D01*
X-1161682Y32296776D01*
X-1161681Y32296777D01*
X-1109095Y32349364D01*
X-1046783Y32383390D01*
X-975968Y32378325D01*
X-930905Y32349364D01*
X-878317Y32296776D01*
X-769485Y32246027D01*
X-732955Y32241218D01*
X-719901Y32239500D01*
X-719899Y32239500D01*
X-360101Y32239500D01*
X-360089Y32239501D01*
X-310516Y32246027D01*
X-310510Y32246029D01*
X-201682Y32296776D01*
X-116777Y32381681D01*
X-116774Y32381685D01*
X-111316Y32393392D01*
X-64400Y32446678D01*
X3877Y32466140D01*
X51096Y32456553D01*
X103237Y32434956D01*
X260000Y32414318D01*
X416760Y32434955D01*
X562839Y32495463D01*
X562842Y32495465D01*
X616066Y32536305D01*
X688282Y32591718D01*
X784536Y32717159D01*
X845044Y32863238D01*
X864298Y33009487D01*
X865682Y33019999D01*
X865682Y33020000D01*
X858423Y33075138D01*
X845044Y33176762D01*
X784536Y33322841D01*
X688282Y33448282D01*
X562841Y33544536D01*
X416762Y33605044D01*
X260000Y33625682D01*
X122944Y33607638D01*
X52798Y33618577D01*
X-301Y33665705D01*
X-19500Y33732560D01*
X-19500Y33794946D01*
X502Y33863067D01*
X54158Y33909560D01*
X124432Y33919664D01*
X139106Y33916654D01*
X147144Y33914500D01*
X147147Y33914500D01*
X232853Y33914500D01*
X758841Y33914500D01*
X826962Y33894498D01*
X847931Y33877599D01*
X887078Y33838453D01*
X899596Y33825935D01*
X1006828Y33775931D01*
X1055677Y33769500D01*
X1055684Y33769500D01*
X1504322Y33769500D01*
X1553171Y33775931D01*
X1660405Y33825935D01*
X1709405Y33874935D01*
X1771717Y33908961D01*
X1842532Y33903896D01*
X1899368Y33861349D01*
X1924179Y33794829D01*
X1924500Y33785840D01*
X1924500Y32477017D01*
X1904498Y32408896D01*
X1887599Y32387926D01*
X1782255Y32282582D01*
X1689537Y32189864D01*
X1689532Y32189858D01*
X1646682Y32115639D01*
X1646681Y32115635D01*
X1624500Y32032853D01*
X1624500Y30917017D01*
X1604498Y30848896D01*
X1587595Y30827921D01*
X1292077Y30532404D01*
X1229765Y30498379D01*
X1202982Y30495500D01*
X797017Y30495500D01*
X728896Y30515502D01*
X707926Y30532400D01*
X645351Y30594976D01*
X571128Y30637829D01*
X488342Y30660011D01*
X488340Y30660011D01*
X-1064902Y30660011D01*
X-1064918Y30660012D01*
X-1072636Y30660012D01*
X-1158342Y30660012D01*
X-1241128Y30637829D01*
X-1264214Y30624500D01*
X-1315351Y30594976D01*
X-1315357Y30594970D01*
X-1386320Y30524007D01*
X-1386327Y30523997D01*
X-1760465Y30149862D01*
X-1803318Y30075639D01*
X-1820144Y30012841D01*
X-1825500Y29992853D01*
X-1825500Y29228231D01*
X-1845502Y29160110D01*
X-1862405Y29139136D01*
X-1915022Y29086518D01*
X-1923224Y29078316D01*
X-1973972Y28969487D01*
X-1980500Y28919901D01*
X-1980499Y28705684D01*
X-1980499Y28500101D01*
X-1980498Y28500089D01*
X-1977801Y28479604D01*
X-1973972Y28450513D01*
X-1923224Y28341684D01*
X-1923223Y28341682D01*
X-1872405Y28290864D01*
X-1838379Y28228552D01*
X-1835500Y28201769D01*
X-1835500Y27911160D01*
X-1855502Y27843039D01*
X-1872405Y27822065D01*
X-1912569Y27781900D01*
X-1924065Y27770404D01*
X-1974068Y27663173D01*
X-1980500Y27614316D01*
X-1980500Y27165684D01*
X-1974068Y27116827D01*
X-1929150Y27020500D01*
X-1924064Y27009594D01*
X-1892405Y26977935D01*
X-1858379Y26915623D01*
X-1855500Y26888840D01*
X-1855500Y26877147D01*
X-1833318Y26794361D01*
X-1829005Y26786891D01*
X-1801302Y26738907D01*
X-1790465Y26720138D01*
X-1495554Y26425227D01*
X-1461531Y26362917D01*
X-1466595Y26292102D01*
X-1509142Y26235266D01*
X-1568757Y26212119D01*
X-1568676Y26211708D01*
X-1571017Y26211242D01*
X-1572311Y26210740D01*
X-1574748Y26210500D01*
X-1633231Y26198867D01*
X-1648144Y26188901D01*
X-1715893Y26167687D01*
X-1784360Y26186469D01*
X-1794849Y26193704D01*
X-1887159Y26264536D01*
X-2033238Y26325044D01*
X-2190000Y26345682D01*
X-2346762Y26325044D01*
X-2492841Y26264536D01*
X-2618282Y26168282D01*
X-2714536Y26042841D01*
X-2775044Y25896762D01*
X-2795682Y25740000D01*
X-2786881Y25673158D01*
X-2797819Y25603013D01*
X-2822705Y25567620D01*
X-2948609Y25441718D01*
X-2980923Y25409404D01*
X-3043236Y25375379D01*
X-3070018Y25372500D01*
X-3342569Y25372500D01*
X-3410690Y25392502D01*
X-3431664Y25409405D01*
X-3492482Y25470223D01*
X-3492484Y25470224D01*
X-3601313Y25520972D01*
X-3650899Y25527500D01*
X-4070700Y25527499D01*
X-4070703Y25527498D01*
X-4070710Y25527498D01*
X-4089313Y25525048D01*
X-4120287Y25520972D01*
X-4229116Y25470224D01*
X-4314024Y25385316D01*
X-4364772Y25276487D01*
X-4371300Y25226901D01*
X-4371299Y24867100D01*
X-4364772Y24817513D01*
X-4328342Y24739389D01*
X-4314023Y24708682D01*
X-4229117Y24623776D01*
X-4120285Y24573027D01*
X-4083755Y24568218D01*
X-4070701Y24566500D01*
X-4070699Y24566500D01*
X-3650901Y24566500D01*
X-3650889Y24566501D01*
X-3601316Y24573027D01*
X-3601310Y24573029D01*
X-3492482Y24623776D01*
X-3492481Y24623777D01*
X-3431664Y24684595D01*
X-3369352Y24718621D01*
X-3342569Y24721500D01*
X-2840149Y24721500D01*
X-2840147Y24721500D01*
X-2757361Y24743682D01*
X-2757359Y24743683D01*
X-2757356Y24743684D01*
X-2683141Y24786532D01*
X-2683135Y24786537D01*
X-2362380Y25107291D01*
X-2300068Y25141316D01*
X-2256839Y25143117D01*
X-2190002Y25134318D01*
X-2190000Y25134318D01*
X-2033239Y25154955D01*
X-1887160Y25215463D01*
X-1887153Y25215468D01*
X-1883202Y25218500D01*
X-1816981Y25244099D01*
X-1747433Y25229833D01*
X-1696638Y25180231D01*
X-1680500Y25118536D01*
X-1680500Y24854807D01*
X-1681783Y24836874D01*
X-1685647Y24810001D01*
X-1681782Y24783117D01*
X-1680500Y24765187D01*
X-1680500Y24340253D01*
X-1680010Y24335280D01*
X-1693237Y24265527D01*
X-1700633Y24252934D01*
X-1743867Y24188231D01*
X-1755500Y24129748D01*
X-1755500Y24129746D01*
X-1755500Y23854330D01*
X-1775502Y23786209D01*
X-1829158Y23739716D01*
X-1899432Y23729612D01*
X-1964012Y23759106D01*
X-1981463Y23777626D01*
X-1985463Y23782839D01*
X-1985464Y23782841D01*
X-2081718Y23908282D01*
X-2207159Y24004536D01*
X-2353238Y24065044D01*
X-2510000Y24085682D01*
X-2666762Y24065044D01*
X-2812841Y24004536D01*
X-2938282Y23908282D01*
X-3009675Y23815239D01*
X-3067012Y23773373D01*
X-3137883Y23769151D01*
X-3157855Y23775535D01*
X-3175493Y23782841D01*
X-3253238Y23815044D01*
X-3410000Y23835682D01*
X-3566762Y23815044D01*
X-3712841Y23754536D01*
X-3838282Y23658282D01*
X-3934536Y23532841D01*
X-3995044Y23386762D01*
X-4009922Y23273744D01*
X-4038644Y23208820D01*
X-4097909Y23169728D01*
X-4168900Y23168883D01*
X-4211545Y23190228D01*
X-4217159Y23194536D01*
X-4363238Y23255044D01*
X-4520000Y23275682D01*
X-4676762Y23255044D01*
X-4822841Y23194536D01*
X-4948282Y23098282D01*
X-5044536Y22972841D01*
X-5103680Y22830054D01*
X-5148226Y22774776D01*
X-5215589Y22752355D01*
X-5284381Y22769913D01*
X-5332759Y22821875D01*
X-5345009Y22861828D01*
X-5349455Y22895603D01*
X-5409963Y23041682D01*
X-5409965Y23041685D01*
X-5427351Y23064343D01*
X-5506218Y23167125D01*
X-5631659Y23263379D01*
X-5763064Y23317808D01*
X-5818344Y23362356D01*
X-5840765Y23429720D01*
X-5825967Y23493613D01*
X-5774968Y23589025D01*
X-5714898Y23787052D01*
X-5694617Y23992976D01*
X-5694617Y23992983D01*
X-5714898Y24198907D01*
X-5716899Y24205502D01*
X-5774968Y24396934D01*
X-5805056Y24453224D01*
X-5872513Y24579427D01*
X-5908909Y24623776D01*
X-6003790Y24739390D01*
X-6163750Y24870665D01*
X-6346246Y24968212D01*
X-6544266Y25028280D01*
X-6544270Y25028280D01*
X-6544272Y25028281D01*
X-6750197Y25048563D01*
X-6750203Y25048563D01*
X-6956127Y25028281D01*
X-6956128Y25028280D01*
X-6956134Y25028280D01*
X-7154154Y24968212D01*
X-7336650Y24870665D01*
X-7496610Y24739390D01*
X-7627885Y24579430D01*
X-7725432Y24396934D01*
X-7725432Y24396933D01*
X-7726040Y24394930D01*
X-7726644Y24394007D01*
X-7727802Y24391213D01*
X-7728331Y24391432D01*
X-7764952Y24335547D01*
X-7829792Y24306628D01*
X-7846616Y24305500D01*
X-8061900Y24305500D01*
X-8130021Y24325502D01*
X-8165116Y24359234D01*
X-8165937Y24360407D01*
X-8249594Y24444064D01*
X-8264241Y24450894D01*
X-8356827Y24494068D01*
X-8405684Y24500500D01*
X-8754316Y24500500D01*
X-8803173Y24494068D01*
X-8910404Y24444065D01*
X-8910405Y24444064D01*
X-8910406Y24444063D01*
X-9000905Y24353565D01*
X-9063217Y24319539D01*
X-9134032Y24324604D01*
X-9179095Y24353565D01*
X-9269594Y24444064D01*
X-9284241Y24450894D01*
X-9376827Y24494068D01*
X-9425684Y24500500D01*
X-9774316Y24500500D01*
X-9823173Y24494068D01*
X-9930404Y24444065D01*
X-9972065Y24402403D01*
X-10034375Y24368380D01*
X-10061159Y24365500D01*
X-10251769Y24365500D01*
X-10319890Y24385502D01*
X-10340864Y24402405D01*
X-10391682Y24453223D01*
X-10391684Y24453224D01*
X-10500513Y24503972D01*
X-10550099Y24510500D01*
X-10909900Y24510499D01*
X-10909903Y24510498D01*
X-10909910Y24510498D01*
X-10928513Y24508048D01*
X-10959487Y24503972D01*
X-11068316Y24453224D01*
X-11153224Y24368316D01*
X-11203972Y24259487D01*
X-11210500Y24209901D01*
X-11210499Y23790100D01*
X-11203972Y23740513D01*
X-11157918Y23641751D01*
X-11153223Y23631682D01*
X-11092405Y23570864D01*
X-11058379Y23508552D01*
X-11055500Y23481769D01*
X-11055500Y23471159D01*
X-11075502Y23403038D01*
X-11092400Y23382068D01*
X-11134065Y23340404D01*
X-11184068Y23233173D01*
X-11190500Y23184316D01*
X-11190500Y22735684D01*
X-11184068Y22686827D01*
X-11161732Y22638928D01*
X-11134064Y22579594D01*
X-11050405Y22495935D01*
X-10943171Y22445931D01*
X-10894322Y22439500D01*
X-10894316Y22439500D01*
X-10545677Y22439500D01*
X-10496828Y22445931D01*
X-10389594Y22495935D01*
X-10305935Y22579594D01*
X-10255931Y22686828D01*
X-10249500Y22735677D01*
X-10249500Y23184322D01*
X-10255931Y23233171D01*
X-10305935Y23340405D01*
X-10362899Y23397369D01*
X-10396925Y23459681D01*
X-10391860Y23530496D01*
X-10362900Y23575559D01*
X-10306774Y23631685D01*
X-10302081Y23641751D01*
X-10255164Y23695036D01*
X-10187887Y23714500D01*
X-10147917Y23714500D01*
X-10079796Y23694498D01*
X-10033723Y23641751D01*
X-10014065Y23599596D01*
X-10014063Y23599593D01*
X-9930405Y23515935D01*
X-9823171Y23465931D01*
X-9774322Y23459500D01*
X-9774316Y23459500D01*
X-9425677Y23459500D01*
X-9376828Y23465931D01*
X-9269594Y23515935D01*
X-9269593Y23515936D01*
X-9179095Y23606435D01*
X-9116783Y23640461D01*
X-9045968Y23635396D01*
X-9000905Y23606435D01*
X-8910405Y23515935D01*
X-8803171Y23465931D01*
X-8754322Y23459500D01*
X-8754316Y23459500D01*
X-8405677Y23459500D01*
X-8356828Y23465931D01*
X-8249594Y23515935D01*
X-8165937Y23599592D01*
X-8165116Y23600766D01*
X-8163361Y23602168D01*
X-8158140Y23607390D01*
X-8157557Y23606807D01*
X-8109661Y23645097D01*
X-8061900Y23654500D01*
X-7835950Y23654500D01*
X-7767829Y23634498D01*
X-7724828Y23587896D01*
X-7627885Y23406530D01*
X-7573618Y23340405D01*
X-7516065Y23270276D01*
X-7488312Y23204928D01*
X-7500294Y23134950D01*
X-7548207Y23082559D01*
X-7613465Y23064343D01*
X-8934010Y23064343D01*
X-9016795Y23042161D01*
X-9067558Y23012853D01*
X-9091019Y22999308D01*
X-9860465Y22229862D01*
X-9903318Y22155639D01*
X-9903811Y22153799D01*
X-9906340Y22144362D01*
X-9909341Y22133161D01*
X-9925500Y22072853D01*
X-9925500Y22072852D01*
X-9925500Y21921160D01*
X-9945502Y21853039D01*
X-9962405Y21832065D01*
X-10021860Y21772610D01*
X-10024873Y21775623D01*
X-10063517Y21744830D01*
X-10111099Y21735500D01*
X-10261769Y21735500D01*
X-10329890Y21755502D01*
X-10350864Y21772405D01*
X-10441682Y21863223D01*
X-10443483Y21864063D01*
X-10550513Y21913972D01*
X-10600099Y21920500D01*
X-10959900Y21920499D01*
X-10959903Y21920498D01*
X-10959910Y21920498D01*
X-10978513Y21918048D01*
X-11009487Y21913972D01*
X-11118316Y21863224D01*
X-11203224Y21778316D01*
X-11253972Y21669487D01*
X-11260500Y21619901D01*
X-11260499Y21200100D01*
X-11253972Y21150513D01*
X-11221847Y21081621D01*
X-11203223Y21041682D01*
X-11118317Y20956776D01*
X-11009485Y20906027D01*
X-10972955Y20901218D01*
X-10959901Y20899500D01*
X-10959899Y20899500D01*
X-10600101Y20899500D01*
X-10600089Y20899501D01*
X-10550516Y20906027D01*
X-10550510Y20906029D01*
X-10441682Y20956776D01*
X-10441681Y20956777D01*
X-10350864Y21047595D01*
X-10288552Y21081621D01*
X-10261769Y21084500D01*
X-10124601Y21084500D01*
X-10056480Y21064498D01*
X-10023338Y21026558D01*
X-10020387Y21028625D01*
X-10014062Y21019592D01*
X-9930405Y20935935D01*
X-9823171Y20885931D01*
X-9774322Y20879500D01*
X-9774316Y20879500D01*
X-9425677Y20879500D01*
X-9376828Y20885931D01*
X-9269594Y20935935D01*
X-9269593Y20935936D01*
X-9179095Y21026435D01*
X-9116783Y21060461D01*
X-9045968Y21055396D01*
X-9000905Y21026435D01*
X-8910405Y20935935D01*
X-8803171Y20885931D01*
X-8754322Y20879500D01*
X-8754316Y20879500D01*
X-8405677Y20879500D01*
X-8356828Y20885931D01*
X-8249594Y20935935D01*
X-8165937Y21019592D01*
X-8165116Y21020766D01*
X-8163361Y21022168D01*
X-8158140Y21027390D01*
X-8157557Y21026807D01*
X-8109661Y21065097D01*
X-8061900Y21074500D01*
X-7814569Y21074500D01*
X-7746448Y21054498D01*
X-7703447Y21007896D01*
X-7627885Y20866530D01*
X-7496610Y20706570D01*
X-7336650Y20575295D01*
X-7336648Y20575294D01*
X-7336647Y20575293D01*
X-7171684Y20487118D01*
X-7154154Y20477748D01*
X-6985807Y20426681D01*
X-6956127Y20417678D01*
X-6750203Y20397397D01*
X-6750200Y20397397D01*
X-6750197Y20397397D01*
X-6544272Y20417678D01*
X-6346245Y20477748D01*
X-6163752Y20575293D01*
X-6003790Y20706570D01*
X-5872513Y20866532D01*
X-5774968Y21049025D01*
X-5714898Y21247052D01*
X-5694617Y21452976D01*
X-5694617Y21452983D01*
X-5714898Y21658907D01*
X-5740894Y21744604D01*
X-5774968Y21856934D01*
X-5780237Y21866792D01*
X-5839851Y21978321D01*
X-5854323Y22047827D01*
X-5828919Y22114123D01*
X-5776948Y22154125D01*
X-5631664Y22214304D01*
X-5631657Y22214308D01*
X-5506218Y22310561D01*
X-5409965Y22436000D01*
X-5409965Y22436001D01*
X-5409964Y22436002D01*
X-5350820Y22578786D01*
X-5306272Y22634066D01*
X-5238909Y22656487D01*
X-5170117Y22638928D01*
X-5121739Y22586966D01*
X-5109490Y22547014D01*
X-5105044Y22513238D01*
X-5044536Y22367159D01*
X-4948282Y22241718D01*
X-4948280Y22241716D01*
X-4948279Y22241715D01*
X-4824796Y22146963D01*
X-4782929Y22089625D01*
X-4775500Y22047001D01*
X-4775500Y21701160D01*
X-4795502Y21633039D01*
X-4812405Y21612065D01*
X-4840092Y21584377D01*
X-4864065Y21560404D01*
X-4914068Y21453173D01*
X-4920500Y21404316D01*
X-4920500Y20955684D01*
X-4914068Y20906827D01*
X-4874151Y20821225D01*
X-4859406Y20789605D01*
X-4862812Y20788016D01*
X-4846495Y20739628D01*
X-4863781Y20670768D01*
X-4915552Y20622185D01*
X-4924156Y20618235D01*
X-5068497Y20558447D01*
X-5193938Y20462193D01*
X-5290192Y20336752D01*
X-5350700Y20190673D01*
X-5371338Y20033911D01*
X-5350700Y19877149D01*
X-5290192Y19731070D01*
X-5193938Y19605629D01*
X-5193936Y19605627D01*
X-5193935Y19605626D01*
X-5115452Y19545404D01*
X-5073585Y19488067D01*
X-5066156Y19445442D01*
X-5066156Y19341094D01*
X-5066155Y19341090D01*
X-5060044Y19318282D01*
X-5045677Y19264667D01*
X-5045675Y19264663D01*
X-5045674Y19264661D01*
X-5027952Y19233966D01*
X-5027951Y19233965D01*
X-5006116Y19196145D01*
X-5006114Y19196143D01*
X-5006112Y19196140D01*
X-4867405Y19057433D01*
X-4833379Y18995121D01*
X-4830500Y18968338D01*
X-4830500Y17965734D01*
X-4827646Y17935301D01*
X-4827645Y17935299D01*
X-4827644Y17935295D01*
X-4782793Y17807118D01*
X-4782791Y17807114D01*
X-4702150Y17697849D01*
X-4592885Y17617208D01*
X-4592881Y17617206D01*
X-4464704Y17572355D01*
X-4464700Y17572354D01*
X-4434266Y17569500D01*
X-3675733Y17569500D01*
X-3645299Y17572354D01*
X-3645295Y17572355D01*
X-3517118Y17617206D01*
X-3517114Y17617208D01*
X-3407849Y17697849D01*
X-3327208Y17807114D01*
X-3327206Y17807118D01*
X-3282355Y17935295D01*
X-3282354Y17935299D01*
X-3279500Y17965733D01*
X-3279500Y19374266D01*
X-1880500Y19374266D01*
X-1880500Y17965734D01*
X-1877646Y17935301D01*
X-1877645Y17935299D01*
X-1877644Y17935295D01*
X-1832793Y17807118D01*
X-1832791Y17807114D01*
X-1752150Y17697849D01*
X-1642885Y17617208D01*
X-1642881Y17617206D01*
X-1514704Y17572355D01*
X-1514700Y17572354D01*
X-1484266Y17569500D01*
X-725733Y17569500D01*
X-695299Y17572354D01*
X-695295Y17572355D01*
X-567118Y17617206D01*
X-567114Y17617208D01*
X-457849Y17697849D01*
X-377208Y17807114D01*
X-377206Y17807118D01*
X-332355Y17935295D01*
X-332354Y17935299D01*
X-329500Y17965733D01*
X-329500Y18174806D01*
X-309498Y18242927D01*
X-255842Y18289420D01*
X-187054Y18299728D01*
X-70000Y18284318D01*
X86760Y18304955D01*
X232839Y18365463D01*
X232842Y18365465D01*
X358282Y18461718D01*
X454536Y18587159D01*
X515044Y18733238D01*
X531793Y18860461D01*
X535682Y18889999D01*
X535682Y18890000D01*
X530834Y18926827D01*
X515044Y19046762D01*
X454536Y19192841D01*
X358282Y19318282D01*
X232841Y19414536D01*
X86762Y19475044D01*
X-70000Y19495682D01*
X-226762Y19475044D01*
X-226772Y19475039D01*
X-234703Y19472915D01*
X-305680Y19474601D01*
X-364478Y19514392D01*
X-373090Y19527303D01*
X-377210Y19532885D01*
X-457850Y19642150D01*
X-457851Y19642152D01*
X-567114Y19722791D01*
X-567118Y19722793D01*
X-695295Y19767644D01*
X-695301Y19767646D01*
X-725734Y19770500D01*
X-1484266Y19770500D01*
X-1514699Y19767646D01*
X-1642882Y19722793D01*
X-1642884Y19722791D01*
X-1642885Y19722791D01*
X-1752150Y19642150D01*
X-1831301Y19534903D01*
X-1832793Y19532882D01*
X-1877646Y19404699D01*
X-1880500Y19374266D01*
X-3279500Y19374266D01*
X-3282354Y19404700D01*
X-3282355Y19404704D01*
X-3327206Y19532881D01*
X-3327208Y19532885D01*
X-3407849Y19642150D01*
X-3517114Y19722791D01*
X-3517118Y19722793D01*
X-3645295Y19767644D01*
X-3645301Y19767646D01*
X-3675734Y19770500D01*
X-3675736Y19770500D01*
X-4050977Y19770500D01*
X-4119098Y19790502D01*
X-4165591Y19844158D01*
X-4175899Y19912946D01*
X-4159974Y20033910D01*
X-4159974Y20033911D01*
X-4180611Y20190671D01*
X-4241119Y20336750D01*
X-4241121Y20336753D01*
X-4286750Y20396218D01*
X-4336367Y20460881D01*
X-4361967Y20527101D01*
X-4347702Y20596649D01*
X-4298101Y20647445D01*
X-4252849Y20662506D01*
X-4226828Y20665931D01*
X-4119594Y20715935D01*
X-4119593Y20715936D01*
X-4029095Y20806435D01*
X-3966783Y20840461D01*
X-3895968Y20835396D01*
X-3850905Y20806435D01*
X-3760405Y20715935D01*
X-3653171Y20665931D01*
X-3604322Y20659500D01*
X-3604316Y20659500D01*
X-3255677Y20659500D01*
X-3206828Y20665931D01*
X-3099594Y20715935D01*
X-3015935Y20799594D01*
X-2965931Y20906828D01*
X-2959500Y20955677D01*
X-2959500Y21404322D01*
X-2965931Y21453171D01*
X-3015935Y21560405D01*
X-3067595Y21612065D01*
X-3101621Y21674377D01*
X-3104500Y21701160D01*
X-3104500Y21785916D01*
X-3100207Y21818526D01*
X-3084500Y21877146D01*
X-3084500Y22660714D01*
X-3064498Y22728835D01*
X-3035204Y22760676D01*
X-2981717Y22801717D01*
X-2910324Y22894759D01*
X-2852986Y22936626D01*
X-2782115Y22940848D01*
X-2762145Y22934464D01*
X-2666762Y22894956D01*
X-2510001Y22874318D01*
X-2510000Y22874318D01*
X-2509998Y22874318D01*
X-2419006Y22886296D01*
X-2348857Y22875356D01*
X-2339563Y22870494D01*
X-2315641Y22856683D01*
X-2315642Y22856683D01*
X-2315638Y22856682D01*
X-2232853Y22834500D01*
X-2147147Y22834500D01*
X-1961230Y22834500D01*
X-1893109Y22814498D01*
X-1846616Y22760842D01*
X-1836512Y22690568D01*
X-1866006Y22625988D01*
X-1872121Y22619418D01*
X-1923224Y22568316D01*
X-1973972Y22459487D01*
X-1980500Y22409901D01*
X-1980499Y22199390D01*
X-1980499Y21990101D01*
X-1980498Y21990089D01*
X-1978949Y21978321D01*
X-1973972Y21940513D01*
X-1937931Y21863224D01*
X-1923223Y21831682D01*
X-1862405Y21770864D01*
X-1828379Y21708552D01*
X-1825500Y21681769D01*
X-1825500Y21621160D01*
X-1845502Y21553039D01*
X-1862405Y21532065D01*
X-1910795Y21483674D01*
X-1924065Y21470404D01*
X-1974068Y21363173D01*
X-1980500Y21314316D01*
X-1980500Y20865684D01*
X-1974068Y20816827D01*
X-1924065Y20709596D01*
X-1924064Y20709594D01*
X-1840405Y20625935D01*
X-1733171Y20575931D01*
X-1684322Y20569500D01*
X-1684316Y20569500D01*
X-1335677Y20569500D01*
X-1286828Y20575931D01*
X-1179594Y20625935D01*
X-1179593Y20625936D01*
X-1089095Y20716435D01*
X-1026783Y20750461D01*
X-955968Y20745396D01*
X-910905Y20716435D01*
X-820405Y20625935D01*
X-713171Y20575931D01*
X-664322Y20569500D01*
X-664316Y20569500D01*
X-482017Y20569500D01*
X-413896Y20549498D01*
X-392926Y20532599D01*
X-347445Y20487118D01*
X-329863Y20469536D01*
X-329858Y20469532D01*
X-255637Y20426681D01*
X-251506Y20425574D01*
X-206227Y20399430D01*
X-204834Y20401246D01*
X-198282Y20396219D01*
X-198282Y20396218D01*
X-72842Y20299965D01*
X-72839Y20299963D01*
X73239Y20239455D01*
X230000Y20218818D01*
X386760Y20239455D01*
X532839Y20299963D01*
X532842Y20299965D01*
X658282Y20396218D01*
X754536Y20521659D01*
X815044Y20667738D01*
X835682Y20824500D01*
X815044Y20981262D01*
X754536Y21127341D01*
X658282Y21252782D01*
X532841Y21349036D01*
X386762Y21409544D01*
X230000Y21430182D01*
X73238Y21409544D01*
X73235Y21409543D01*
X67982Y21408136D01*
X-2994Y21409827D01*
X-61789Y21449622D01*
X-69331Y21461568D01*
X-69611Y21461373D01*
X-75936Y21470406D01*
X-127595Y21522065D01*
X-161621Y21584377D01*
X-164500Y21611160D01*
X-164500Y21731769D01*
X-144498Y21799890D01*
X-127595Y21820864D01*
X-116777Y21831681D01*
X-116776Y21831682D01*
X-66027Y21940514D01*
X-59500Y21990094D01*
X-59500Y21990107D01*
X-59500Y22146963D01*
X-59500Y22307584D01*
X-39499Y22375704D01*
X14156Y22422197D01*
X84430Y22432302D01*
X149011Y22402809D01*
X180692Y22360837D01*
X185933Y22349598D01*
X185936Y22349593D01*
X269594Y22265935D01*
X376828Y22215931D01*
X425677Y22209500D01*
X425684Y22209500D01*
X874322Y22209500D01*
X923171Y22215931D01*
X1030405Y22265935D01*
X1114064Y22349594D01*
X1142186Y22409901D01*
X1164068Y22456827D01*
X1170500Y22505684D01*
X1170500Y22574981D01*
X1190502Y22643102D01*
X1244158Y22689595D01*
X1314432Y22699699D01*
X1379012Y22670205D01*
X1385596Y22664076D01*
X1638477Y22411194D01*
X1672502Y22348882D01*
X1674303Y22338546D01*
X1692439Y22200786D01*
X1752947Y22054707D01*
X1752952Y22054699D01*
X1792959Y22002561D01*
X1818559Y21936340D01*
X1804294Y21866792D01*
X1754692Y21815996D01*
X1704761Y21800408D01*
X1675301Y21797646D01*
X1675295Y21797644D01*
X1547118Y21752793D01*
X1547114Y21752791D01*
X1437849Y21672150D01*
X1357208Y21562885D01*
X1357206Y21562881D01*
X1312355Y21434704D01*
X1312354Y21434700D01*
X1309500Y21404266D01*
X1309500Y20645733D01*
X1312354Y20615299D01*
X1312355Y20615295D01*
X1357206Y20487118D01*
X1357208Y20487114D01*
X1437849Y20377849D01*
X1547114Y20297208D01*
X1547118Y20297206D01*
X1675295Y20252355D01*
X1675299Y20252354D01*
X1705733Y20249500D01*
X1705734Y20249500D01*
X3114266Y20249500D01*
X3144700Y20252354D01*
X3144704Y20252355D01*
X3272881Y20297206D01*
X3272885Y20297208D01*
X3382150Y20377849D01*
X3462791Y20487114D01*
X3462793Y20487118D01*
X3505071Y20607940D01*
X3546449Y20665632D01*
X3612450Y20691794D01*
X3682117Y20678121D01*
X3733333Y20628954D01*
X3750000Y20566325D01*
X3750000Y16981249D01*
X3729998Y16913128D01*
X3676342Y16866635D01*
X3623480Y16855250D01*
X2685682Y16859128D01*
X2617651Y16879411D01*
X2571380Y16933258D01*
X2561287Y16968680D01*
X2540844Y17123962D01*
X2480336Y17270041D01*
X2384082Y17395482D01*
X2258641Y17491736D01*
X2112562Y17552244D01*
X1955800Y17572882D01*
X1799038Y17552244D01*
X1652959Y17491736D01*
X1527518Y17395482D01*
X1431265Y17270042D01*
X1431263Y17270039D01*
X1370755Y17123960D01*
X1351107Y16974718D01*
X1322384Y16909791D01*
X1263119Y16870700D01*
X1225671Y16865167D01*
X-19130971Y16949357D01*
X-19199007Y16969641D01*
X-19245277Y17023488D01*
X-19256421Y17072754D01*
X-19283008Y18359901D01*
X-11260500Y18359901D01*
X-11260499Y18035295D01*
X-11260499Y17940101D01*
X-11260498Y17940089D01*
X-11259867Y17935299D01*
X-11253972Y17890513D01*
X-11215084Y17807118D01*
X-11203223Y17781682D01*
X-11118317Y17696776D01*
X-11009485Y17646027D01*
X-10972955Y17641218D01*
X-10959901Y17639500D01*
X-10959899Y17639500D01*
X-10600101Y17639500D01*
X-10600089Y17639501D01*
X-10550516Y17646027D01*
X-10550510Y17646029D01*
X-10441682Y17696776D01*
X-10356776Y17781682D01*
X-10306027Y17890514D01*
X-10299500Y17940094D01*
X-10299500Y18359898D01*
X-10299501Y18359910D01*
X-10306027Y18409483D01*
X-10306029Y18409489D01*
X-10356776Y18518317D01*
X-10397899Y18559440D01*
X-10431925Y18621752D01*
X-10426860Y18692567D01*
X-10397900Y18737630D01*
X-10315935Y18819595D01*
X-10315116Y18820766D01*
X-10313365Y18822165D01*
X-10308141Y18827390D01*
X-10307558Y18826807D01*
X-10259661Y18865097D01*
X-10211900Y18874500D01*
X-10118100Y18874500D01*
X-10049979Y18854498D01*
X-10014884Y18820766D01*
X-10014062Y18819592D01*
X-9930405Y18735935D01*
X-9823171Y18685931D01*
X-9774322Y18679500D01*
X-9774316Y18679500D01*
X-9425677Y18679500D01*
X-9376828Y18685931D01*
X-9269594Y18735935D01*
X-9269593Y18735936D01*
X-9179095Y18826435D01*
X-9116783Y18860461D01*
X-9045968Y18855396D01*
X-9000905Y18826435D01*
X-8910405Y18735935D01*
X-8803171Y18685931D01*
X-8754322Y18679500D01*
X-8754316Y18679500D01*
X-8405677Y18679500D01*
X-8356828Y18685931D01*
X-8249594Y18735935D01*
X-8165937Y18819592D01*
X-8165116Y18820766D01*
X-8163361Y18822168D01*
X-8158140Y18827390D01*
X-8157557Y18826807D01*
X-8109661Y18865097D01*
X-8061900Y18874500D01*
X-7916193Y18874500D01*
X-7848072Y18854498D01*
X-7801579Y18800842D01*
X-7790800Y18760850D01*
X-7788080Y18733239D01*
X-7785500Y18707046D01*
X-7725432Y18509026D01*
X-7627885Y18326530D01*
X-7496610Y18166570D01*
X-7336650Y18035295D01*
X-7336648Y18035294D01*
X-7336647Y18035293D01*
X-7206514Y17965735D01*
X-7154154Y17937748D01*
X-6998443Y17890514D01*
X-6956127Y17877678D01*
X-6750203Y17857397D01*
X-6750200Y17857397D01*
X-6750197Y17857397D01*
X-6544272Y17877678D01*
X-6346245Y17937748D01*
X-6163752Y18035293D01*
X-6003790Y18166570D01*
X-5872513Y18326532D01*
X-5774968Y18509025D01*
X-5714898Y18707052D01*
X-5694617Y18912976D01*
X-5694617Y18912983D01*
X-5714898Y19118907D01*
X-5738328Y19196145D01*
X-5774968Y19316934D01*
X-5827138Y19414536D01*
X-5872513Y19499427D01*
X-5895390Y19527303D01*
X-6003790Y19659390D01*
X-6163750Y19790665D01*
X-6346246Y19888212D01*
X-6544266Y19948280D01*
X-6544270Y19948280D01*
X-6544272Y19948281D01*
X-6750197Y19968563D01*
X-6750203Y19968563D01*
X-6956127Y19948281D01*
X-6956128Y19948280D01*
X-6956134Y19948280D01*
X-7154154Y19888212D01*
X-7336650Y19790665D01*
X-7496610Y19659390D01*
X-7561429Y19580407D01*
X-7568684Y19571567D01*
X-7627361Y19531598D01*
X-7666084Y19525500D01*
X-8061900Y19525500D01*
X-8130021Y19545502D01*
X-8165116Y19579234D01*
X-8165937Y19580407D01*
X-8249594Y19664064D01*
X-8249596Y19664065D01*
X-8356827Y19714068D01*
X-8405684Y19720500D01*
X-8754316Y19720500D01*
X-8803173Y19714068D01*
X-8910404Y19664065D01*
X-8910405Y19664064D01*
X-8910406Y19664063D01*
X-9000905Y19573565D01*
X-9063217Y19539539D01*
X-9134032Y19544604D01*
X-9179095Y19573565D01*
X-9269594Y19664064D01*
X-9269596Y19664065D01*
X-9376827Y19714068D01*
X-9425684Y19720500D01*
X-9774316Y19720500D01*
X-9823173Y19714068D01*
X-9930404Y19664065D01*
X-10014065Y19580404D01*
X-10014066Y19580400D01*
X-10014884Y19579234D01*
X-10016638Y19577831D01*
X-10021860Y19572610D01*
X-10022442Y19573192D01*
X-10070339Y19534903D01*
X-10118100Y19525500D01*
X-10211900Y19525500D01*
X-10280021Y19545502D01*
X-10315116Y19579234D01*
X-10315937Y19580407D01*
X-10399594Y19664064D01*
X-10399596Y19664065D01*
X-10506827Y19714068D01*
X-10555684Y19720500D01*
X-10904316Y19720500D01*
X-10953173Y19714068D01*
X-11060404Y19664065D01*
X-11144065Y19580404D01*
X-11194068Y19473173D01*
X-11200500Y19424316D01*
X-11200500Y18975684D01*
X-11194068Y18926827D01*
X-11147254Y18826435D01*
X-11144064Y18819594D01*
X-11142405Y18817935D01*
X-11140643Y18814709D01*
X-11137743Y18810567D01*
X-11138204Y18810243D01*
X-11108379Y18755623D01*
X-11105500Y18728840D01*
X-11105500Y18668231D01*
X-11125502Y18600110D01*
X-11142405Y18579136D01*
X-11203222Y18518318D01*
X-11203224Y18518316D01*
X-11253972Y18409487D01*
X-11260500Y18359901D01*
X-19283008Y18359901D01*
X-19494535Y28600400D01*
X-17094536Y28600400D01*
X-17094536Y28600399D01*
X-17091732Y28584498D01*
X-17076134Y28496037D01*
X-17032050Y28419681D01*
X-17023148Y28404262D01*
X-16941968Y28336144D01*
X-16941965Y28336142D01*
X-16842388Y28299900D01*
X-16842386Y28299900D01*
X-16736412Y28299900D01*
X-16636834Y28336142D01*
X-16636831Y28336144D01*
X-16555651Y28404262D01*
X-16502665Y28496038D01*
X-16484264Y28600399D01*
X-16484264Y28600400D01*
X-16502665Y28704761D01*
X-16555651Y28796537D01*
X-16615977Y28847157D01*
X-16636832Y28864656D01*
X-16636833Y28864656D01*
X-16636834Y28864657D01*
X-16736412Y28900900D01*
X-16736414Y28900900D01*
X-16842386Y28900900D01*
X-16842388Y28900900D01*
X-16930804Y28868719D01*
X-16941968Y28864656D01*
X-17023148Y28796538D01*
X-17076134Y28704763D01*
X-17090491Y28623338D01*
X-17094536Y28600400D01*
X-19494535Y28600400D01*
X-19745847Y40767003D01*
X-18124941Y40767003D01*
X-18124941Y40766996D01*
X-18105625Y40570875D01*
X-18105625Y40570873D01*
X-18105624Y40570870D01*
X-18105624Y40570868D01*
X-18048414Y40382273D01*
X-17955510Y40208462D01*
X-17830483Y40056117D01*
X-17704505Y39952729D01*
X-17678138Y39931090D01*
X-17504328Y39838186D01*
X-17315725Y39780974D01*
X-17119603Y39761659D01*
X-17119600Y39761659D01*
X-17119597Y39761659D01*
X-16923475Y39780974D01*
X-16923473Y39780974D01*
X-16734871Y39838186D01*
X-16561061Y39931090D01*
X-16408717Y40056117D01*
X-16283690Y40208461D01*
X-16190786Y40382271D01*
X-16133574Y40570873D01*
X-16133574Y40570875D01*
X-16114259Y40766996D01*
X-16114259Y40767003D01*
X-16133574Y40963124D01*
X-16133574Y40963126D01*
X-16190786Y41151728D01*
X-16283690Y41325538D01*
X-16408717Y41477883D01*
X-16561062Y41602910D01*
X-16734873Y41695814D01*
X-16923468Y41753024D01*
X-16923472Y41753024D01*
X-16923474Y41753025D01*
X-17119597Y41772341D01*
X-17119603Y41772341D01*
X-17315724Y41753025D01*
X-17315726Y41753025D01*
X-17315727Y41753024D01*
X-17315732Y41753024D01*
X-17504327Y41695814D01*
X-17678138Y41602910D01*
X-17830483Y41477883D01*
X-17955510Y41325538D01*
X-18048414Y41151727D01*
X-18105624Y40963132D01*
X-18105624Y40963127D01*
X-18105625Y40963126D01*
X-18105625Y40963124D01*
X-18124941Y40767003D01*
X-19745847Y40767003D01*
X-19770252Y41948515D01*
X-19751661Y42017034D01*
X-19698977Y42064625D01*
X-19645797Y42077108D01*
X-9127518Y42203800D01*
X-9059161Y42184620D01*
G37*
%TD.AperFunction*%
%TA.AperFunction,Conductor*%
G36*
X12973725Y29491947D02*
G01*
X13541535Y28924137D01*
X13541541Y28924132D01*
X13615756Y28881284D01*
X13615759Y28881283D01*
X13615761Y28881282D01*
X13698547Y28859100D01*
X17059583Y28859100D01*
X17127704Y28839098D01*
X17148678Y28822195D01*
X17637595Y28333278D01*
X17671621Y28270966D01*
X17674500Y28244183D01*
X17674500Y25462707D01*
X17654498Y25394586D01*
X17600842Y25348093D01*
X17573080Y25339128D01*
X17572721Y25339056D01*
X17571769Y25338867D01*
X17505448Y25294552D01*
X17493376Y25276485D01*
X17461133Y25228231D01*
X17461132Y25228228D01*
X17449500Y25169750D01*
X17449500Y20872493D01*
X17429498Y20804372D01*
X17375842Y20757879D01*
X17323466Y20746493D01*
X16575960Y20746707D01*
X16507849Y20766727D01*
X16461371Y20820396D01*
X16450000Y20872706D01*
X16450000Y27000000D01*
X16447398Y27099574D01*
X16447398Y27099576D01*
X16405992Y27294375D01*
X16324990Y27476308D01*
X16207932Y27637425D01*
X16187413Y27655900D01*
X16067839Y27763565D01*
X16059934Y27770683D01*
X15887464Y27870258D01*
X15698060Y27931800D01*
X15500000Y27952617D01*
X15301940Y27931800D01*
X15112536Y27870258D01*
X14940066Y27770683D01*
X14940063Y27770680D01*
X14940061Y27770679D01*
X14792069Y27637427D01*
X14675012Y27476312D01*
X14675010Y27476308D01*
X14632032Y27379777D01*
X14594008Y27294375D01*
X14552601Y27099574D01*
X14550000Y27000000D01*
X14550000Y20873320D01*
X14529998Y20805199D01*
X14476342Y20758706D01*
X14423968Y20747321D01*
X13676462Y20747534D01*
X13608349Y20767556D01*
X13561871Y20821225D01*
X13550500Y20873534D01*
X13550500Y25169746D01*
X13550500Y25169748D01*
X13538867Y25228231D01*
X13494552Y25294552D01*
X13428231Y25338867D01*
X13401918Y25344101D01*
X13339009Y25377009D01*
X13303877Y25438704D01*
X13300500Y25467680D01*
X13300500Y26020838D01*
X13320502Y26088959D01*
X13349796Y26120801D01*
X13351578Y26122168D01*
X13468282Y26211718D01*
X13564536Y26337159D01*
X13625044Y26483238D01*
X13645682Y26640000D01*
X13625044Y26796762D01*
X13564536Y26942841D01*
X13468282Y27068282D01*
X13342841Y27164536D01*
X13196762Y27225044D01*
X13040000Y27245682D01*
X12883238Y27225044D01*
X12737159Y27164536D01*
X12611718Y27068282D01*
X12611716Y27068280D01*
X12611715Y27068279D01*
X12561027Y27002221D01*
X12503689Y26960354D01*
X12432818Y26956132D01*
X12384365Y26978960D01*
X12272841Y27064536D01*
X12126762Y27125044D01*
X11970000Y27145682D01*
X11813238Y27125044D01*
X11667159Y27064536D01*
X11541718Y26968282D01*
X11541717Y26968280D01*
X11541716Y26968280D01*
X11526463Y26948401D01*
X11469126Y26906533D01*
X11398255Y26902311D01*
X11336352Y26937074D01*
X11303070Y26999786D01*
X11300500Y27025104D01*
X11300500Y27219562D01*
X11292381Y27249862D01*
X11280022Y27295988D01*
X11240460Y27364511D01*
X10291164Y28313806D01*
X10257141Y28376117D01*
X10262205Y28446932D01*
X10304752Y28503768D01*
X10371272Y28528579D01*
X10380261Y28528900D01*
X10708314Y28528900D01*
X10776435Y28508898D01*
X10808276Y28479604D01*
X10849315Y28426120D01*
X10974757Y28329865D01*
X10974760Y28329863D01*
X11120839Y28269355D01*
X11277600Y28248718D01*
X11434360Y28269355D01*
X11580439Y28329863D01*
X11580442Y28329865D01*
X11581744Y28330864D01*
X11705882Y28426118D01*
X11802136Y28551559D01*
X11862644Y28697638D01*
X11878743Y28819928D01*
X11907465Y28884854D01*
X11966730Y28923946D01*
X12020111Y28928403D01*
X12166600Y28909118D01*
X12323360Y28929755D01*
X12469439Y28990263D01*
X12469442Y28990265D01*
X12594882Y29086518D01*
X12691136Y29211959D01*
X12751644Y29358038D01*
X12759709Y29419298D01*
X12788429Y29484223D01*
X12847694Y29523316D01*
X12918686Y29524161D01*
X12973725Y29491947D01*
G37*
%TD.AperFunction*%
%TA.AperFunction,Conductor*%
G36*
X2142532Y30358038D02*
G01*
X2199368Y30315491D01*
X2224179Y30248971D01*
X2224500Y30239982D01*
X2224500Y24450894D01*
X2204498Y24382773D01*
X2150842Y24336280D01*
X2080568Y24326176D01*
X2021796Y24350932D01*
X2009448Y24360407D01*
X1912841Y24434536D01*
X1766762Y24495044D01*
X1610000Y24515682D01*
X1453238Y24495044D01*
X1307159Y24434536D01*
X1181718Y24338282D01*
X1117470Y24254552D01*
X1102311Y24234796D01*
X1044973Y24192929D01*
X1002348Y24185500D01*
X629300Y24185500D01*
X561179Y24205502D01*
X514686Y24259158D01*
X503300Y24311500D01*
X503300Y24739812D01*
X503301Y24739830D01*
X503301Y24833252D01*
X503300Y24833255D01*
X481120Y24916031D01*
X481119Y24916031D01*
X481118Y24916038D01*
X469801Y24935639D01*
X438265Y24990262D01*
X377662Y25050865D01*
X358062Y25070465D01*
X357405Y25071122D01*
X323379Y25133434D01*
X320500Y25160217D01*
X320500Y25279743D01*
X320010Y25284717D01*
X333236Y25354471D01*
X340629Y25367060D01*
X383867Y25431769D01*
X395500Y25490252D01*
X395500Y26029748D01*
X395500Y26362983D01*
X415502Y26431104D01*
X432405Y26452078D01*
X472922Y26492595D01*
X535234Y26526621D01*
X562017Y26529500D01*
X744322Y26529500D01*
X793171Y26535931D01*
X900405Y26585935D01*
X984064Y26669594D01*
X996733Y26696762D01*
X1034068Y26776827D01*
X1040500Y26825684D01*
X1040500Y27274316D01*
X1034068Y27323173D01*
X984065Y27430404D01*
X900404Y27514065D01*
X793173Y27564068D01*
X744316Y27570500D01*
X395684Y27570500D01*
X346827Y27564068D01*
X251457Y27519596D01*
X239594Y27514064D01*
X195595Y27470065D01*
X133283Y27436039D01*
X62468Y27441104D01*
X5632Y27483651D01*
X-19179Y27550171D01*
X-19500Y27559160D01*
X-19500Y27614322D01*
X-25931Y27663171D01*
X-75935Y27770405D01*
X-127595Y27822065D01*
X-161621Y27884377D01*
X-164500Y27911160D01*
X-164500Y28241769D01*
X-144498Y28309890D01*
X-127595Y28330864D01*
X-116777Y28341681D01*
X-116776Y28341682D01*
X-66027Y28450514D01*
X-59500Y28500094D01*
X-59500Y28919898D01*
X-59501Y28919910D01*
X-66027Y28969483D01*
X-66029Y28969489D01*
X-116776Y29078317D01*
X-177595Y29139136D01*
X-211621Y29201448D01*
X-214500Y29228231D01*
X-214500Y29313514D01*
X-194498Y29381635D01*
X-188464Y29390216D01*
X-175468Y29407153D01*
X-175463Y29407160D01*
X-114955Y29553239D01*
X-94318Y29709999D01*
X-94318Y29710000D01*
X-114930Y29866565D01*
X-103991Y29936714D01*
X-56862Y29989812D01*
X9992Y30009011D01*
X258471Y30009011D01*
X315978Y29992125D01*
X316787Y29993742D01*
X316789Y29993741D01*
X321128Y29990613D01*
X326592Y29989009D01*
X347566Y29972106D01*
X349528Y29970143D01*
X349533Y29970139D01*
X349534Y29970139D01*
X349535Y29970138D01*
X368927Y29950746D01*
X410136Y29909536D01*
X410139Y29909534D01*
X439032Y29892853D01*
X439031Y29892852D01*
X484355Y29866684D01*
X484367Y29866679D01*
X567143Y29844499D01*
X567147Y29844499D01*
X660571Y29844499D01*
X660587Y29844500D01*
X1432851Y29844500D01*
X1432853Y29844500D01*
X1515639Y29866682D01*
X1515641Y29866683D01*
X1515643Y29866684D01*
X1589858Y29909532D01*
X1589868Y29909540D01*
X2009405Y30329077D01*
X2071717Y30363103D01*
X2142532Y30358038D01*
G37*
%TD.AperFunction*%
%TA.AperFunction,Conductor*%
G36*
X27347883Y39979998D02*
G01*
X27394376Y39926342D01*
X27405759Y39874921D01*
X27494336Y27754743D01*
X27474832Y27686478D01*
X27421517Y27639594D01*
X27351319Y27628977D01*
X27286525Y27657997D01*
X27268382Y27677111D01*
X27225282Y27733282D01*
X27099841Y27829536D01*
X26953762Y27890044D01*
X26797000Y27910682D01*
X26640238Y27890044D01*
X26494159Y27829536D01*
X26368718Y27733282D01*
X26277426Y27614307D01*
X26272465Y27607842D01*
X26272463Y27607839D01*
X26211955Y27461760D01*
X26191318Y27305000D01*
X26191318Y27304999D01*
X26211955Y27148239D01*
X26272463Y27002160D01*
X26272465Y27002157D01*
X26368720Y26876714D01*
X26411056Y26844229D01*
X26452923Y26786891D01*
X26457144Y26716020D01*
X26423446Y26655173D01*
X26108480Y26340207D01*
X26046168Y26306181D01*
X25975353Y26311246D01*
X25918517Y26353793D01*
X25894464Y26412853D01*
X25883444Y26496562D01*
X25822936Y26642641D01*
X25726682Y26768082D01*
X25601241Y26864336D01*
X25455162Y26924844D01*
X25298400Y26945482D01*
X25141638Y26924844D01*
X24995559Y26864336D01*
X24870118Y26768082D01*
X24794546Y26669594D01*
X24773865Y26642642D01*
X24773863Y26642639D01*
X24713355Y26496560D01*
X24692718Y26339800D01*
X24692718Y26339799D01*
X24713355Y26183039D01*
X24773863Y26036960D01*
X24773865Y26036957D01*
X24870118Y25911518D01*
X24995557Y25815265D01*
X24995560Y25815263D01*
X25141639Y25754755D01*
X25298400Y25734118D01*
X25455162Y25754756D01*
X25500283Y25773445D01*
X25570873Y25781034D01*
X25634360Y25749254D01*
X25670586Y25688195D01*
X25674500Y25657036D01*
X25674500Y25462707D01*
X25654498Y25394586D01*
X25600842Y25348093D01*
X25573080Y25339128D01*
X25572721Y25339056D01*
X25571769Y25338867D01*
X25570002Y25337686D01*
X25565566Y25336297D01*
X25560306Y25334118D01*
X25560110Y25334588D01*
X25502249Y25316471D01*
X25433782Y25335254D01*
X25429998Y25337686D01*
X25428231Y25338867D01*
X25369748Y25350500D01*
X24630252Y25350500D01*
X24571769Y25338867D01*
X24570002Y25337686D01*
X24565566Y25336297D01*
X24560306Y25334118D01*
X24560110Y25334588D01*
X24502249Y25316471D01*
X24433782Y25335254D01*
X24429998Y25337686D01*
X24428231Y25338867D01*
X24427208Y25339070D01*
X24426920Y25339128D01*
X24424333Y25340481D01*
X24416763Y25343617D01*
X24417043Y25344294D01*
X24364010Y25372035D01*
X24328877Y25433729D01*
X24325500Y25462707D01*
X24325500Y26690452D01*
X24325500Y26690453D01*
X24312515Y26738914D01*
X24303318Y26773239D01*
X24260465Y26847462D01*
X23517062Y27590865D01*
X23442839Y27633718D01*
X23360053Y27655900D01*
X23360051Y27655900D01*
X20365100Y27655900D01*
X20296979Y27675902D01*
X20250486Y27729558D01*
X20239100Y27781900D01*
X20239100Y29210003D01*
X24775659Y29210003D01*
X24775659Y29209996D01*
X24794974Y29013875D01*
X24794974Y29013873D01*
X24852186Y28825271D01*
X24945090Y28651461D01*
X25070117Y28499117D01*
X25222461Y28374090D01*
X25396271Y28281186D01*
X25584874Y28223974D01*
X25780997Y28204659D01*
X25781000Y28204659D01*
X25781003Y28204659D01*
X25977124Y28223974D01*
X25977126Y28223974D01*
X26165728Y28281186D01*
X26339538Y28374090D01*
X26357436Y28388779D01*
X26491883Y28499117D01*
X26616910Y28651462D01*
X26709814Y28825273D01*
X26767024Y29013868D01*
X26767024Y29013870D01*
X26767025Y29013873D01*
X26767025Y29013875D01*
X26786341Y29209996D01*
X26786341Y29210003D01*
X26767025Y29406124D01*
X26767025Y29406126D01*
X26767024Y29406127D01*
X26767024Y29406132D01*
X26709814Y29594727D01*
X26616910Y29768538D01*
X26491883Y29920883D01*
X26339538Y30045910D01*
X26165727Y30138814D01*
X25977132Y30196024D01*
X25977126Y30196024D01*
X25977125Y30196025D01*
X25781003Y30215341D01*
X25780997Y30215341D01*
X25584875Y30196025D01*
X25584873Y30196025D01*
X25584870Y30196024D01*
X25584868Y30196024D01*
X25396273Y30138814D01*
X25396271Y30138813D01*
X25388223Y30134511D01*
X25222462Y30045910D01*
X25070117Y29920883D01*
X24970026Y29798922D01*
X24945090Y29768538D01*
X24852186Y29594728D01*
X24794974Y29406126D01*
X24794974Y29406124D01*
X24775659Y29210003D01*
X20239100Y29210003D01*
X20239100Y30370450D01*
X20239100Y30370453D01*
X20222106Y30433877D01*
X20219298Y30444359D01*
X20218426Y30447607D01*
X20216918Y30453239D01*
X20186559Y30505821D01*
X20174065Y30527462D01*
X20113462Y30588065D01*
X20113460Y30588065D01*
X20103092Y30598434D01*
X20103087Y30598437D01*
X19300662Y31400865D01*
X19226439Y31443718D01*
X19143653Y31465900D01*
X19143651Y31465900D01*
X16239817Y31465900D01*
X16171696Y31485902D01*
X16150722Y31502805D01*
X14368068Y33285459D01*
X14368062Y33285465D01*
X14293839Y33328318D01*
X14211053Y33350500D01*
X14211051Y33350500D01*
X13802404Y33350500D01*
X13734283Y33370502D01*
X13687790Y33424158D01*
X13677686Y33494432D01*
X13702442Y33553204D01*
X13774531Y33647152D01*
X13774532Y33647154D01*
X13774536Y33647159D01*
X13835044Y33793238D01*
X13850483Y33910510D01*
X13855682Y33949999D01*
X13855682Y33950000D01*
X13843638Y34041483D01*
X13835044Y34106762D01*
X13774536Y34252841D01*
X13678282Y34378282D01*
X13562156Y34467388D01*
X13520290Y34524725D01*
X13516068Y34595596D01*
X13550832Y34657499D01*
X13562152Y34667308D01*
X13642920Y34729284D01*
X13739174Y34854725D01*
X13799682Y35000804D01*
X13809468Y35075137D01*
X13838190Y35140064D01*
X13897455Y35179156D01*
X13968447Y35180001D01*
X14023485Y35147787D01*
X14822523Y34348749D01*
X14822533Y34348742D01*
X14854025Y34330559D01*
X14890984Y34298146D01*
X14980926Y34180931D01*
X15106368Y34084676D01*
X15106371Y34084674D01*
X15252450Y34024166D01*
X15409211Y34003529D01*
X15565971Y34024166D01*
X15712050Y34084674D01*
X15712053Y34084676D01*
X15837493Y34180929D01*
X15933747Y34306370D01*
X15994255Y34452449D01*
X16014893Y34609211D01*
X16006340Y34674174D01*
X16017279Y34744321D01*
X16064407Y34797419D01*
X16132760Y34816610D01*
X16200638Y34795799D01*
X16220357Y34779714D01*
X16279995Y34720076D01*
X16314021Y34657764D01*
X16316900Y34630981D01*
X16316900Y33636533D01*
X16319754Y33606099D01*
X16319755Y33606095D01*
X16364606Y33477918D01*
X16364608Y33477914D01*
X16445249Y33368649D01*
X16554514Y33288008D01*
X16554518Y33288006D01*
X16682695Y33243155D01*
X16682699Y33243154D01*
X16713133Y33240300D01*
X16713134Y33240300D01*
X17471666Y33240300D01*
X17502100Y33243154D01*
X17502104Y33243155D01*
X17630281Y33288006D01*
X17630285Y33288008D01*
X17739550Y33368649D01*
X17820191Y33477914D01*
X17820193Y33477918D01*
X17865044Y33606095D01*
X17865045Y33606099D01*
X17865046Y33606101D01*
X17867900Y33636534D01*
X17867900Y35045066D01*
X17865046Y35075499D01*
X17820193Y35203682D01*
X17767388Y35275230D01*
X17739550Y35312950D01*
X17630285Y35393591D01*
X17630284Y35393591D01*
X17630282Y35393593D01*
X17502099Y35438446D01*
X17471666Y35441300D01*
X16713134Y35441300D01*
X16682701Y35438446D01*
X16608956Y35412641D01*
X16538057Y35409022D01*
X16478251Y35442474D01*
X16047435Y35873290D01*
X16020125Y35914161D01*
X15967736Y36040641D01*
X15871482Y36166082D01*
X15746041Y36262336D01*
X15599962Y36322844D01*
X15443200Y36343482D01*
X15286438Y36322844D01*
X15237500Y36302573D01*
X15166915Y36294985D01*
X15103428Y36326764D01*
X15067200Y36387822D01*
X15064364Y36435428D01*
X15065230Y36442005D01*
X15044592Y36598767D01*
X14984084Y36744846D01*
X14887830Y36870287D01*
X14762389Y36966541D01*
X14616310Y37027049D01*
X14459548Y37047687D01*
X14302786Y37027049D01*
X14156707Y36966541D01*
X14156702Y36966537D01*
X14156700Y36966536D01*
X14039673Y36876738D01*
X13973453Y36851137D01*
X13962969Y36850700D01*
X11621741Y36850700D01*
X11553620Y36870702D01*
X11507127Y36924358D01*
X11497023Y36994632D01*
X11521777Y37053402D01*
X11574536Y37122159D01*
X11635044Y37268238D01*
X11655682Y37425000D01*
X11635044Y37581762D01*
X11574536Y37727841D01*
X11478282Y37853282D01*
X11352841Y37949536D01*
X11206762Y38010044D01*
X11068289Y38028274D01*
X11021742Y38044075D01*
X10971439Y38073118D01*
X10888653Y38095300D01*
X10558453Y38095300D01*
X10477088Y38095300D01*
X10408967Y38115302D01*
X10362474Y38168958D01*
X10352166Y38204853D01*
X10338644Y38307560D01*
X10338644Y38307562D01*
X10278136Y38453641D01*
X10181882Y38579082D01*
X10056441Y38675336D01*
X9910362Y38735844D01*
X9753600Y38756482D01*
X9596838Y38735844D01*
X9450759Y38675336D01*
X9325318Y38579082D01*
X9229064Y38453641D01*
X9229063Y38453639D01*
X9224935Y38446489D01*
X9223804Y38447141D01*
X9203245Y38416373D01*
X9010540Y38223668D01*
X9010532Y38223658D01*
X8967684Y38149443D01*
X8967681Y38149436D01*
X8949113Y38080137D01*
X8945500Y38066654D01*
X8945500Y37706650D01*
X8931123Y37657688D01*
X8934482Y37656297D01*
X8929733Y37644833D01*
X8918100Y37586350D01*
X8918100Y36734049D01*
X8929732Y36675571D01*
X8929733Y36675568D01*
X8974048Y36609248D01*
X9040368Y36564933D01*
X9040371Y36564932D01*
X9098849Y36553300D01*
X9098852Y36553300D01*
X9443150Y36553300D01*
X9501628Y36564932D01*
X9501631Y36564933D01*
X9508467Y36569501D01*
X9567952Y36609248D01*
X9612267Y36675569D01*
X9623900Y36734052D01*
X9623900Y37419118D01*
X9643902Y37487239D01*
X9697558Y37533732D01*
X9749900Y37545118D01*
X9753603Y37545118D01*
X9791656Y37550127D01*
X9861805Y37539187D01*
X9914902Y37492058D01*
X9934100Y37425205D01*
X9934100Y36734049D01*
X9945732Y36675571D01*
X9945733Y36675568D01*
X9990048Y36609248D01*
X10056368Y36564933D01*
X10056371Y36564932D01*
X10114849Y36553300D01*
X10114852Y36553300D01*
X10189100Y36553300D01*
X10257221Y36533298D01*
X10303714Y36479642D01*
X10315100Y36427300D01*
X10315100Y36353044D01*
X10326491Y36295780D01*
X10326491Y36246620D01*
X10315100Y36189355D01*
X10315100Y35845044D01*
X10326491Y35787780D01*
X10326491Y35738620D01*
X10315100Y35681355D01*
X10315100Y35337046D01*
X10323965Y35292481D01*
X10323965Y35243319D01*
X10315100Y35198753D01*
X10315100Y34854444D01*
X10326491Y34797180D01*
X10326491Y34748020D01*
X10315100Y34690755D01*
X10315100Y34346444D01*
X10326491Y34289180D01*
X10326491Y34240020D01*
X10315100Y34182755D01*
X10315100Y33838444D01*
X10326491Y33781180D01*
X10326491Y33732020D01*
X10315100Y33674755D01*
X10315100Y33330446D01*
X10323965Y33285881D01*
X10323965Y33236719D01*
X10315100Y33192153D01*
X10315100Y32847844D01*
X10326491Y32790580D01*
X10326491Y32741420D01*
X10315100Y32684155D01*
X10315100Y32339844D01*
X10326491Y32282580D01*
X10326491Y32233420D01*
X10315100Y32176155D01*
X10315100Y32101900D01*
X10295098Y32033779D01*
X10241442Y31987286D01*
X10189100Y31975900D01*
X10114852Y31975900D01*
X10057581Y31964508D01*
X10008419Y31964508D01*
X9951148Y31975900D01*
X9606852Y31975900D01*
X9548369Y31964267D01*
X9482048Y31919952D01*
X9448378Y31869562D01*
X9437733Y31853631D01*
X9437732Y31853628D01*
X9426100Y31795150D01*
X9426100Y30942849D01*
X9437732Y30884369D01*
X9442482Y30872904D01*
X9438884Y30871413D01*
X9453480Y30824790D01*
X9453500Y30822550D01*
X9453500Y30488853D01*
X9453500Y30403147D01*
X9475682Y30320361D01*
X9475683Y30320359D01*
X9475684Y30320356D01*
X9518532Y30246141D01*
X9518537Y30246135D01*
X9742291Y30022380D01*
X9776316Y29960068D01*
X9778117Y29916839D01*
X9769318Y29850001D01*
X9769318Y29849999D01*
X9789955Y29693239D01*
X9791416Y29689714D01*
X9791761Y29686499D01*
X9792093Y29685262D01*
X9791899Y29685210D01*
X9799002Y29619124D01*
X9767221Y29555638D01*
X9706161Y29519413D01*
X9675005Y29515500D01*
X9397017Y29515500D01*
X9328896Y29535502D01*
X9307922Y29552405D01*
X9150805Y29709522D01*
X9116779Y29771834D01*
X9113900Y29798617D01*
X9113900Y30822550D01*
X9128276Y30871512D01*
X9124918Y30872904D01*
X9129667Y30884369D01*
X9134198Y30907148D01*
X9141300Y30942852D01*
X9141300Y31795148D01*
X9129667Y31853631D01*
X9085352Y31919952D01*
X9019031Y31964267D01*
X8960548Y31975900D01*
X8616252Y31975900D01*
X8557769Y31964267D01*
X8491448Y31919952D01*
X8457778Y31869562D01*
X8447133Y31853631D01*
X8447132Y31853628D01*
X8435500Y31795150D01*
X8435500Y30942849D01*
X8447132Y30884369D01*
X8451882Y30872904D01*
X8448284Y30871413D01*
X8462880Y30824790D01*
X8462900Y30822550D01*
X8462900Y30677188D01*
X8442898Y30609067D01*
X8389242Y30562574D01*
X8318968Y30552470D01*
X8260197Y30577224D01*
X8166741Y30648936D01*
X8166737Y30648937D01*
X8160903Y30652306D01*
X8111908Y30703687D01*
X8097900Y30761427D01*
X8097900Y30822550D01*
X8112276Y30871512D01*
X8108918Y30872904D01*
X8113667Y30884369D01*
X8118198Y30907148D01*
X8125300Y30942852D01*
X8125300Y31795148D01*
X8113667Y31853631D01*
X8069352Y31919952D01*
X8003031Y31964267D01*
X7944548Y31975900D01*
X7600252Y31975900D01*
X7542981Y31964508D01*
X7493819Y31964508D01*
X7436548Y31975900D01*
X7092252Y31975900D01*
X7047680Y31967034D01*
X6998520Y31967034D01*
X6953948Y31975900D01*
X6609652Y31975900D01*
X6552381Y31964508D01*
X6503219Y31964508D01*
X6445948Y31975900D01*
X6101652Y31975900D01*
X6044381Y31964508D01*
X5995219Y31964508D01*
X5937948Y31975900D01*
X5937947Y31975900D01*
X5863700Y31975900D01*
X5795579Y31995902D01*
X5749086Y32049558D01*
X5737700Y32101900D01*
X5737700Y32176146D01*
X5737700Y32176148D01*
X5726308Y32233420D01*
X5726308Y32282582D01*
X5737700Y32339852D01*
X5737700Y32684148D01*
X5726067Y32742631D01*
X5681752Y32808952D01*
X5615431Y32853267D01*
X5556948Y32864900D01*
X4704652Y32864900D01*
X4646169Y32853267D01*
X4616938Y32833735D01*
X4549185Y32812520D01*
X4546936Y32812500D01*
X4329238Y32812500D01*
X4252811Y32792021D01*
X4205204Y32764535D01*
X4184289Y32752460D01*
X4184287Y32752458D01*
X4184284Y32752456D01*
X3448030Y32016202D01*
X3385718Y31982176D01*
X3314903Y31987241D01*
X3258067Y32029788D01*
X3233256Y32096308D01*
X3248347Y32165682D01*
X3249820Y32168304D01*
X3253316Y32174359D01*
X3253318Y32174362D01*
X3275500Y32257147D01*
X3275500Y33588975D01*
X3295502Y33657096D01*
X3349158Y33703589D01*
X3419432Y33713693D01*
X3484012Y33684199D01*
X3501462Y33665679D01*
X3584915Y33556920D01*
X3710357Y33460665D01*
X3710360Y33460663D01*
X3856439Y33400155D01*
X4013200Y33379518D01*
X4169960Y33400155D01*
X4316039Y33460663D01*
X4316042Y33460665D01*
X4338522Y33477914D01*
X4441482Y33556918D01*
X4497445Y33629851D01*
X4554783Y33671719D01*
X4625654Y33675941D01*
X4645619Y33669560D01*
X4646165Y33669333D01*
X4704649Y33657700D01*
X4704652Y33657700D01*
X5556950Y33657700D01*
X5615428Y33669332D01*
X5615431Y33669333D01*
X5637679Y33684199D01*
X5681752Y33713648D01*
X5726067Y33779969D01*
X5737700Y33838452D01*
X5737700Y34182748D01*
X5726067Y34241231D01*
X5681752Y34307552D01*
X5615431Y34351867D01*
X5556948Y34363500D01*
X4704652Y34363500D01*
X4646169Y34351867D01*
X4634704Y34347118D01*
X4633213Y34350715D01*
X4586590Y34336120D01*
X4584350Y34336100D01*
X4562996Y34336100D01*
X4494875Y34356102D01*
X4463034Y34385395D01*
X4455573Y34395118D01*
X4441482Y34413482D01*
X4316041Y34509736D01*
X4169962Y34570244D01*
X4013200Y34590882D01*
X3856438Y34570244D01*
X3710359Y34509736D01*
X3584918Y34413482D01*
X3501461Y34304718D01*
X3444125Y34262853D01*
X3373254Y34258631D01*
X3311351Y34293395D01*
X3278070Y34356107D01*
X3275500Y34381424D01*
X3275500Y34762983D01*
X3295502Y34831104D01*
X3312405Y34852078D01*
X3607122Y35146795D01*
X3669434Y35180821D01*
X3696217Y35183700D01*
X4584350Y35183700D01*
X4633312Y35169323D01*
X4634704Y35172682D01*
X4646169Y35167932D01*
X4704649Y35156300D01*
X4704652Y35156300D01*
X5556950Y35156300D01*
X5615428Y35167932D01*
X5615431Y35167933D01*
X5632227Y35179156D01*
X5681752Y35212248D01*
X5726067Y35278569D01*
X5737700Y35337052D01*
X5737700Y35681348D01*
X5726067Y35739831D01*
X5681752Y35806152D01*
X5615431Y35850467D01*
X5556948Y35862100D01*
X4704652Y35862100D01*
X4651362Y35851500D01*
X4646169Y35850467D01*
X4634704Y35845718D01*
X4633213Y35849315D01*
X4586590Y35834720D01*
X4584350Y35834700D01*
X3552053Y35834700D01*
X3466347Y35834700D01*
X3383561Y35812518D01*
X3309338Y35769665D01*
X3309336Y35769663D01*
X3309331Y35769659D01*
X2790595Y35250923D01*
X2728283Y35216897D01*
X2657468Y35221962D01*
X2600632Y35264509D01*
X2575821Y35331029D01*
X2575500Y35340018D01*
X2575500Y35612982D01*
X2595502Y35681103D01*
X2612404Y35702077D01*
X3073121Y36162795D01*
X3135434Y36196820D01*
X3162217Y36199700D01*
X4584350Y36199700D01*
X4633312Y36185323D01*
X4634704Y36188682D01*
X4646169Y36183932D01*
X4704649Y36172300D01*
X4704652Y36172300D01*
X5556950Y36172300D01*
X5615428Y36183932D01*
X5615431Y36183933D01*
X5634717Y36196820D01*
X5681752Y36228248D01*
X5726067Y36294569D01*
X5737700Y36353052D01*
X5737700Y36551791D01*
X5757702Y36619912D01*
X5811358Y36666405D01*
X5881632Y36676509D01*
X5946212Y36647015D01*
X5968464Y36621795D01*
X5976848Y36609247D01*
X6043168Y36564933D01*
X6043171Y36564932D01*
X6101649Y36553300D01*
X6101652Y36553300D01*
X6445950Y36553300D01*
X6504428Y36564932D01*
X6504431Y36564933D01*
X6511267Y36569501D01*
X6570752Y36609248D01*
X6615067Y36675569D01*
X6626700Y36734052D01*
X6626700Y37586348D01*
X6615067Y37644831D01*
X6615066Y37644833D01*
X6610318Y37656297D01*
X6613916Y37657787D01*
X6599320Y37704397D01*
X6599300Y37706650D01*
X6599300Y37898982D01*
X6619302Y37967103D01*
X6672958Y38013596D01*
X6743232Y38023700D01*
X6807812Y37994206D01*
X6814395Y37988077D01*
X6901995Y37900477D01*
X6936021Y37838165D01*
X6938900Y37811382D01*
X6938900Y37706650D01*
X6924523Y37657688D01*
X6927882Y37656297D01*
X6923133Y37644833D01*
X6911500Y37586350D01*
X6911500Y36734049D01*
X6923132Y36675571D01*
X6923133Y36675568D01*
X6967448Y36609248D01*
X7033768Y36564933D01*
X7033771Y36564932D01*
X7092249Y36553300D01*
X7092252Y36553300D01*
X7436555Y36553300D01*
X7493820Y36564691D01*
X7542980Y36564691D01*
X7600244Y36553300D01*
X7600252Y36553300D01*
X7944555Y36553300D01*
X8001820Y36564691D01*
X8050980Y36564691D01*
X8108244Y36553300D01*
X8108252Y36553300D01*
X8452550Y36553300D01*
X8511028Y36564932D01*
X8511031Y36564933D01*
X8517867Y36569501D01*
X8577352Y36609248D01*
X8621667Y36675569D01*
X8633300Y36734052D01*
X8633300Y37586348D01*
X8621667Y37644831D01*
X8621666Y37644833D01*
X8616918Y37656297D01*
X8620516Y37657787D01*
X8605920Y37704397D01*
X8605900Y37706650D01*
X8605900Y38606212D01*
X8605901Y38606230D01*
X8605901Y38699653D01*
X8605900Y38699656D01*
X8583720Y38782432D01*
X8583719Y38782432D01*
X8583718Y38782439D01*
X8551662Y38837961D01*
X8540865Y38856662D01*
X8540859Y38856668D01*
X8481005Y38916523D01*
X8446979Y38978835D01*
X8444100Y39005618D01*
X8444100Y39187911D01*
X8443985Y39189665D01*
X8444100Y39190179D01*
X8444100Y39192041D01*
X8444517Y39192041D01*
X8459486Y39258948D01*
X8509984Y39308853D01*
X8569715Y39323911D01*
X20971172Y39323911D01*
X21039293Y39303909D01*
X21060267Y39287006D01*
X21354595Y38992678D01*
X21388621Y38930366D01*
X21391500Y38903583D01*
X21391500Y33767085D01*
X21371498Y33698964D01*
X21342203Y33667122D01*
X21322194Y33651769D01*
X21295335Y33631159D01*
X21288718Y33626082D01*
X21235649Y33556920D01*
X21192465Y33500642D01*
X21192463Y33500639D01*
X21131955Y33354560D01*
X21111318Y33197800D01*
X21111318Y33197799D01*
X21131955Y33041039D01*
X21192463Y32894960D01*
X21192465Y32894957D01*
X21288718Y32769518D01*
X21414157Y32673265D01*
X21414160Y32673263D01*
X21560239Y32612755D01*
X21717000Y32592118D01*
X21873760Y32612755D01*
X22019839Y32673263D01*
X22019842Y32673265D01*
X22145282Y32769518D01*
X22241536Y32894959D01*
X22302044Y33041038D01*
X22318877Y33168903D01*
X22347599Y33233829D01*
X22406864Y33272921D01*
X22460242Y33277378D01*
X22504890Y33271501D01*
X22504892Y33271500D01*
X22504899Y33271500D01*
X22504905Y33271500D01*
X22504906Y33271500D01*
X22864698Y33271500D01*
X22864710Y33271501D01*
X22914283Y33278027D01*
X22914285Y33278027D01*
X22914287Y33278028D01*
X22999692Y33317853D01*
X23023117Y33328776D01*
X23108023Y33413682D01*
X23129931Y33460664D01*
X23158772Y33522513D01*
X23165300Y33572099D01*
X23165299Y33991900D01*
X23158772Y34041487D01*
X23108024Y34150316D01*
X23023116Y34235224D01*
X23023113Y34235225D01*
X23014085Y34241548D01*
X23014902Y34242714D01*
X22970458Y34281842D01*
X22950992Y34350118D01*
X22971529Y34418080D01*
X22987893Y34438223D01*
X23075705Y34526035D01*
X23138017Y34560061D01*
X23208832Y34554996D01*
X23253895Y34526035D01*
X23344393Y34435536D01*
X23344394Y34435535D01*
X23451628Y34385531D01*
X23500477Y34379100D01*
X23500484Y34379100D01*
X23849122Y34379100D01*
X23897971Y34385531D01*
X23957909Y34413481D01*
X24003919Y34434936D01*
X24074110Y34445597D01*
X24138923Y34416617D01*
X24157127Y34397451D01*
X24158915Y34395120D01*
X24284357Y34298865D01*
X24284360Y34298863D01*
X24430439Y34238355D01*
X24587200Y34217718D01*
X24743960Y34238355D01*
X24890039Y34298863D01*
X24890042Y34298865D01*
X25015482Y34395118D01*
X25111736Y34520559D01*
X25172244Y34666638D01*
X25192434Y34819999D01*
X25192882Y34823399D01*
X25192882Y34823400D01*
X25178773Y34930568D01*
X25172244Y34980162D01*
X25111736Y35126241D01*
X25015482Y35251682D01*
X24890041Y35347936D01*
X24743962Y35408444D01*
X24587200Y35429082D01*
X24430438Y35408444D01*
X24284359Y35347936D01*
X24284354Y35347932D01*
X24284352Y35347931D01*
X24222970Y35300831D01*
X24156750Y35275230D01*
X24087201Y35289495D01*
X24057173Y35311695D01*
X24005204Y35363665D01*
X23897973Y35413668D01*
X23849116Y35420100D01*
X23500484Y35420100D01*
X23451627Y35413668D01*
X23353103Y35367725D01*
X23344394Y35363664D01*
X23253895Y35273165D01*
X23191583Y35239139D01*
X23120768Y35244204D01*
X23075705Y35273165D01*
X22985206Y35363663D01*
X22985205Y35363664D01*
X22985204Y35363665D01*
X22877973Y35413668D01*
X22829116Y35420100D01*
X22480484Y35420100D01*
X22431627Y35413668D01*
X22333103Y35367725D01*
X22324394Y35363664D01*
X22257595Y35296865D01*
X22195283Y35262839D01*
X22124468Y35267904D01*
X22067632Y35310451D01*
X22042821Y35376971D01*
X22042500Y35385960D01*
X22042500Y39133452D01*
X22042500Y39133453D01*
X22020318Y39216238D01*
X22020318Y39216239D01*
X21977465Y39290462D01*
X21737462Y39530465D01*
X21483023Y39784905D01*
X21448997Y39847217D01*
X21454062Y39918032D01*
X21496609Y39974868D01*
X21563129Y39999679D01*
X21572118Y40000000D01*
X27279762Y40000000D01*
X27347883Y39979998D01*
G37*
%TD.AperFunction*%
%TA.AperFunction,Conductor*%
G36*
X5886503Y37804498D02*
G01*
X5932996Y37750842D01*
X5943100Y37680568D01*
X5934790Y37650281D01*
X5932533Y37644833D01*
X5920900Y37586350D01*
X5920900Y36879608D01*
X5900898Y36811487D01*
X5847242Y36764994D01*
X5776968Y36754890D01*
X5712388Y36784384D01*
X5690135Y36809606D01*
X5686624Y36814860D01*
X5681752Y36822152D01*
X5615431Y36866467D01*
X5556948Y36878100D01*
X4704652Y36878100D01*
X4649316Y36867093D01*
X4646169Y36866467D01*
X4634704Y36861718D01*
X4633213Y36865315D01*
X4586590Y36850720D01*
X4584350Y36850700D01*
X3025787Y36850700D01*
X3025771Y36850701D01*
X3018053Y36850701D01*
X2932347Y36850701D01*
X2932343Y36850700D01*
X2849567Y36828520D01*
X2849564Y36828518D01*
X2849561Y36828518D01*
X2849558Y36828516D01*
X2849557Y36828516D01*
X2827255Y36815639D01*
X2827253Y36815638D01*
X2782036Y36789532D01*
X2775338Y36785665D01*
X2775336Y36785663D01*
X2775331Y36785659D01*
X2710334Y36720662D01*
X2710329Y36720656D01*
X2572595Y36582922D01*
X2510283Y36548896D01*
X2439468Y36553961D01*
X2382632Y36596508D01*
X2357821Y36663028D01*
X2357500Y36672017D01*
X2357500Y37557383D01*
X2377502Y37625504D01*
X2394405Y37646478D01*
X2535522Y37787595D01*
X2597834Y37821621D01*
X2624617Y37824500D01*
X5818382Y37824500D01*
X5886503Y37804498D01*
G37*
%TD.AperFunction*%
%TA.AperFunction,Conductor*%
G36*
X6068021Y39324498D02*
G01*
X6114514Y39270842D01*
X6125900Y39218500D01*
X6125900Y38854253D01*
X6125900Y38768547D01*
X6148082Y38685761D01*
X6148083Y38685758D01*
X6160358Y38664499D01*
X6177095Y38595504D01*
X6153874Y38528412D01*
X6098067Y38484525D01*
X6051238Y38475500D01*
X2480453Y38475500D01*
X2394747Y38475500D01*
X2311961Y38453318D01*
X2311956Y38453315D01*
X2239124Y38411265D01*
X2237738Y38410465D01*
X2237736Y38410463D01*
X2237731Y38410459D01*
X1889966Y38062694D01*
X1827654Y38028668D01*
X1756839Y38033733D01*
X1711776Y38062694D01*
X1630406Y38144063D01*
X1630405Y38144064D01*
X1630404Y38144065D01*
X1523173Y38194068D01*
X1474316Y38200500D01*
X1025684Y38200500D01*
X992020Y38196068D01*
X921873Y38207008D01*
X868775Y38254136D01*
X849585Y38322490D01*
X859167Y38369208D01*
X876254Y38410459D01*
X894207Y38453801D01*
X910700Y38579081D01*
X914845Y38610562D01*
X914845Y38610563D01*
X906318Y38675334D01*
X894207Y38767325D01*
X833699Y38913404D01*
X737445Y39038845D01*
X633585Y39118538D01*
X591720Y39175875D01*
X587498Y39246746D01*
X622262Y39308649D01*
X684974Y39341930D01*
X710291Y39344500D01*
X5999900Y39344500D01*
X6068021Y39324498D01*
G37*
%TD.AperFunction*%
%TD*%
M02*
