%TF.GenerationSoftware,KiCad,Pcbnew,8.0.5*%
%TF.CreationDate,2024-11-05T15:42:22+00:00*%
%TF.ProjectId,ADE_Main_V4,4144455f-4d61-4696-9e5f-56342e6b6963,rev?*%
%TF.SameCoordinates,Original*%
%TF.FileFunction,Copper,L4,Bot*%
%TF.FilePolarity,Positive*%
%FSLAX46Y46*%
G04 Gerber Fmt 4.6, Leading zero omitted, Abs format (unit mm)*
G04 Created by KiCad (PCBNEW 8.0.5) date 2024-11-05 15:42:22*
%MOMM*%
%LPD*%
G01*
G04 APERTURE LIST*
G04 Aperture macros list*
%AMRoundRect*
0 Rectangle with rounded corners*
0 $1 Rounding radius*
0 $2 $3 $4 $5 $6 $7 $8 $9 X,Y pos of 4 corners*
0 Add a 4 corners polygon primitive as box body*
4,1,4,$2,$3,$4,$5,$6,$7,$8,$9,$2,$3,0*
0 Add four circle primitives for the rounded corners*
1,1,$1+$1,$2,$3*
1,1,$1+$1,$4,$5*
1,1,$1+$1,$6,$7*
1,1,$1+$1,$8,$9*
0 Add four rect primitives between the rounded corners*
20,1,$1+$1,$2,$3,$4,$5,0*
20,1,$1+$1,$4,$5,$6,$7,0*
20,1,$1+$1,$6,$7,$8,$9,0*
20,1,$1+$1,$8,$9,$2,$3,0*%
G04 Aperture macros list end*
%TA.AperFunction,ComponentPad*%
%ADD10C,0.600000*%
%TD*%
%TA.AperFunction,SMDPad,CuDef*%
%ADD11R,1.600000X0.900000*%
%TD*%
%TA.AperFunction,SMDPad,CuDef*%
%ADD12C,1.000000*%
%TD*%
%TA.AperFunction,SMDPad,CuDef*%
%ADD13RoundRect,0.250000X0.325000X0.650000X-0.325000X0.650000X-0.325000X-0.650000X0.325000X-0.650000X0*%
%TD*%
%TA.AperFunction,SMDPad,CuDef*%
%ADD14R,1.400000X1.200000*%
%TD*%
%TA.AperFunction,SMDPad,CuDef*%
%ADD15RoundRect,0.325000X1.925000X-0.325000X1.925000X0.325000X-1.925000X0.325000X-1.925000X-0.325000X0*%
%TD*%
%TA.AperFunction,SMDPad,CuDef*%
%ADD16RoundRect,0.300001X1.649999X-0.599999X1.649999X0.599999X-1.649999X0.599999X-1.649999X-0.599999X0*%
%TD*%
%TA.AperFunction,SMDPad,CuDef*%
%ADD17RoundRect,0.140000X-0.170000X0.140000X-0.170000X-0.140000X0.170000X-0.140000X0.170000X0.140000X0*%
%TD*%
%TA.AperFunction,ComponentPad*%
%ADD18R,1.700000X1.700000*%
%TD*%
%TA.AperFunction,ComponentPad*%
%ADD19O,1.700000X1.700000*%
%TD*%
%TA.AperFunction,SMDPad,CuDef*%
%ADD20RoundRect,0.140000X0.170000X-0.140000X0.170000X0.140000X-0.170000X0.140000X-0.170000X-0.140000X0*%
%TD*%
%TA.AperFunction,SMDPad,CuDef*%
%ADD21RoundRect,0.250000X-0.325000X-0.650000X0.325000X-0.650000X0.325000X0.650000X-0.325000X0.650000X0*%
%TD*%
%TA.AperFunction,ConnectorPad*%
%ADD22R,0.700000X4.300000*%
%TD*%
%TA.AperFunction,SMDPad,CuDef*%
%ADD23RoundRect,0.140000X-0.140000X-0.170000X0.140000X-0.170000X0.140000X0.170000X-0.140000X0.170000X0*%
%TD*%
%TA.AperFunction,SMDPad,CuDef*%
%ADD24RoundRect,0.140000X0.140000X0.170000X-0.140000X0.170000X-0.140000X-0.170000X0.140000X-0.170000X0*%
%TD*%
%TA.AperFunction,SMDPad,CuDef*%
%ADD25RoundRect,0.150000X-0.725000X-0.150000X0.725000X-0.150000X0.725000X0.150000X-0.725000X0.150000X0*%
%TD*%
%TA.AperFunction,ViaPad*%
%ADD26C,0.800000*%
%TD*%
%TA.AperFunction,Conductor*%
%ADD27C,0.250000*%
%TD*%
%TA.AperFunction,Conductor*%
%ADD28C,0.200000*%
%TD*%
G04 APERTURE END LIST*
D10*
%TO.P,U3,9,PAD*%
%TO.N,/UM*%
X-1180000Y36100000D03*
D11*
X-680000Y36100000D03*
D10*
X-180000Y36100000D03*
%TD*%
%TO.P,U1,9,PAD*%
%TO.N,/UM*%
X-1180000Y24810000D03*
D11*
X-680000Y24810000D03*
D10*
X-180000Y24810000D03*
%TD*%
D12*
%TO.P,FID3,*%
%TO.N,*%
X-10744200Y18745200D03*
%TD*%
D13*
%TO.P,C20,1*%
%TO.N,/AVDDOUT*%
X5975000Y32375000D03*
%TO.P,C20,2*%
%TO.N,GND*%
X3025000Y32375000D03*
%TD*%
D14*
%TO.P,Y2,1,TRI-STATE*%
%TO.N,+3V3*%
X11707500Y30725000D03*
%TO.P,Y2,2,GND*%
%TO.N,GND*%
X9167500Y30725000D03*
%TO.P,Y2,3,OUTPUT*%
%TO.N,/O_IN*%
X9167500Y32925000D03*
%TO.P,Y2,4,VDD*%
%TO.N,+3V3*%
X11707500Y32925000D03*
%TD*%
D15*
%TO.P,J1,1,Pin_1*%
%TO.N,/RRP*%
X-10750000Y38400000D03*
%TO.P,J1,2,Pin_2*%
%TO.N,/RRM*%
X-10750000Y36000000D03*
%TO.P,J1,3,Pin_3*%
%TO.N,/RSP*%
X-10750000Y33500000D03*
%TO.P,J1,4,Pin_4*%
%TO.N,/RSM*%
X-10750000Y31000000D03*
%TO.P,J1,5,Pin_5*%
%TO.N,/RTP*%
X-10750000Y28500000D03*
%TO.P,J1,6,Pin_6*%
%TO.N,/RTM*%
X-10750000Y26000000D03*
%TO.P,J1,7,Pin_7*%
%TO.N,/RNP*%
X-10750000Y23500000D03*
%TO.P,J1,8,Pin_8*%
%TO.N,/RNM*%
X-10750000Y21125000D03*
D16*
%TO.P,J1,MP*%
%TO.N,N/C*%
X-17600000Y17900000D03*
X-17600000Y41600000D03*
%TD*%
D17*
%TO.P,C29,1*%
%TO.N,GND*%
X2463800Y26009600D03*
%TO.P,C29,2*%
%TO.N,/UM*%
X2463800Y25049600D03*
%TD*%
D18*
%TO.P,J15,1,Pin_1*%
%TO.N,/RRP*%
X-6750200Y36692980D03*
D19*
%TO.P,J15,2,Pin_2*%
%TO.N,/RRM*%
X-6750200Y34152980D03*
%TO.P,J15,3,Pin_3*%
%TO.N,/RSP*%
X-6750200Y31612980D03*
%TO.P,J15,4,Pin_4*%
%TO.N,/RSM*%
X-6750200Y29072980D03*
%TO.P,J15,5,Pin_5*%
%TO.N,/RTP*%
X-6750200Y26532980D03*
%TO.P,J15,6,Pin_6*%
%TO.N,/RTM*%
X-6750200Y23992980D03*
%TO.P,J15,7,Pin_7*%
%TO.N,/RNP*%
X-6750200Y21452980D03*
%TO.P,J15,8,Pin_8*%
%TO.N,/RNM*%
X-6750200Y18912980D03*
%TD*%
D20*
%TO.P,C23,1*%
%TO.N,/REF*%
X4546600Y35207000D03*
%TO.P,C23,2*%
%TO.N,GND*%
X4546600Y36167000D03*
%TD*%
D17*
%TO.P,C15,1*%
%TO.N,+3V3*%
X11963400Y35377000D03*
%TO.P,C15,2*%
%TO.N,GND*%
X11963400Y34417000D03*
%TD*%
D21*
%TO.P,C22,1*%
%TO.N,/DVDDOUT*%
X17143200Y34366200D03*
%TO.P,C22,2*%
%TO.N,GND*%
X20093200Y34366200D03*
%TD*%
D22*
%TO.P,J2,B1*%
%TO.N,+3V3*%
X27000000Y23000000D03*
%TO.P,J2,B2*%
X26000000Y23000000D03*
%TO.P,J2,B3*%
%TO.N,/ADE_Reset*%
X25000000Y23000000D03*
%TO.P,J2,B4*%
X24000000Y23000000D03*
%TO.P,J2,B5*%
%TO.N,/MOSI*%
X23000000Y23000000D03*
%TO.P,J2,B6*%
X22000000Y23000000D03*
%TO.P,J2,B7*%
%TO.N,/SS*%
X21000000Y23000000D03*
%TO.P,J2,B8*%
X20000000Y23000000D03*
%TO.P,J2,B9*%
%TO.N,/MISO*%
X19000000Y23000000D03*
%TO.P,J2,B10*%
X18000000Y23000000D03*
%TO.P,J2,B11*%
%TO.N,GND*%
X17000000Y23000000D03*
%TO.P,J2,B12*%
X14000000Y23000000D03*
%TO.P,J2,B13*%
%TO.N,/UR-*%
X13000000Y23000000D03*
%TO.P,J2,B14*%
%TO.N,/UR+*%
X12000000Y23000000D03*
%TO.P,J2,B15*%
%TO.N,/US-*%
X11000000Y23000000D03*
%TO.P,J2,B16*%
%TO.N,/US+*%
X10000000Y23000000D03*
%TO.P,J2,B17*%
%TO.N,/UT-*%
X9000000Y23000000D03*
%TO.P,J2,B18*%
%TO.N,/UT+*%
X8000000Y23000000D03*
%TD*%
D17*
%TO.P,C17,1*%
%TO.N,+3V3*%
X10896600Y35377000D03*
%TO.P,C17,2*%
%TO.N,GND*%
X10896600Y34417000D03*
%TD*%
%TO.P,C14,1*%
%TO.N,+3V3*%
X13775000Y29980000D03*
%TO.P,C14,2*%
%TO.N,GND*%
X13775000Y29020000D03*
%TD*%
D23*
%TO.P,C30,1*%
%TO.N,GND*%
X-556200Y34544000D03*
%TO.P,C30,2*%
%TO.N,/UM*%
X403800Y34544000D03*
%TD*%
D24*
%TO.P,C19,1*%
%TO.N,/AVDDOUT*%
X5204400Y30683200D03*
%TO.P,C19,2*%
%TO.N,GND*%
X4244400Y30683200D03*
%TD*%
D25*
%TO.P,U4,1,NC*%
%TO.N,unconnected-(U4-NC-Pad1)*%
X-3235000Y17925000D03*
%TO.P,U4,2,CAP+*%
%TO.N,/C+*%
X-3235000Y19195000D03*
%TO.P,U4,3,GND*%
%TO.N,GND*%
X-3235000Y20465000D03*
%TO.P,U4,4,CAP-*%
%TO.N,/C-*%
X-3235000Y21735000D03*
%TO.P,U4,5,VOUT*%
%TO.N,/UM*%
X1915000Y21735000D03*
%TO.P,U4,6,LV*%
%TO.N,GND*%
X1915000Y20465000D03*
%TO.P,U4,7,OSC*%
%TO.N,unconnected-(U4-OSC-Pad7)*%
X1915000Y19195000D03*
%TO.P,U4,8,V+*%
%TO.N,+3V3*%
X1915000Y17925000D03*
%TD*%
D12*
%TO.P,FID2,*%
%TO.N,*%
X26365200Y33934400D03*
%TD*%
D24*
%TO.P,C28,1*%
%TO.N,GND*%
X-104200Y26085800D03*
%TO.P,C28,2*%
%TO.N,+3V3*%
X-1064200Y26085800D03*
%TD*%
%TO.P,C27,1*%
%TO.N,GND*%
X127000Y37363400D03*
%TO.P,C27,2*%
%TO.N,+3V3*%
X-833000Y37363400D03*
%TD*%
D21*
%TO.P,C24,1*%
%TO.N,/REF*%
X6043400Y35128200D03*
%TO.P,C24,2*%
%TO.N,GND*%
X8993400Y35128200D03*
%TD*%
D23*
%TO.P,C21,1*%
%TO.N,/DVDDOUT*%
X17935000Y32588200D03*
%TO.P,C21,2*%
%TO.N,GND*%
X18895000Y32588200D03*
%TD*%
D26*
%TO.N,GND*%
X12877800Y28778200D03*
X-16100000Y27403599D03*
X3048000Y37363400D03*
X-18640000Y32483599D03*
X12065000Y27940000D03*
X24540000Y32483599D03*
X-2540000Y39344600D03*
X-18640000Y24863599D03*
X17246600Y26085800D03*
X-18640000Y27403599D03*
X19460000Y37563599D03*
X4430000Y37400000D03*
X3200400Y19862800D03*
X-14440000Y37200000D03*
X13843000Y27762200D03*
X-14100000Y23060000D03*
X4428453Y33111500D03*
X17018000Y27711400D03*
X-13450000Y18140000D03*
X16920000Y37563599D03*
X-18640000Y29943599D03*
X390000Y17940000D03*
X9457677Y29825500D03*
X16459200Y32664400D03*
X5540000Y38930000D03*
X-13560000Y27403599D03*
X-16100000Y32483599D03*
X13868400Y25908000D03*
X-18640000Y37563599D03*
X-18640000Y22323599D03*
X-16100000Y24863599D03*
X-18640000Y19783599D03*
X1001000Y26060000D03*
X-13560000Y24863599D03*
X-16100000Y22323599D03*
X24540000Y37563599D03*
X670000Y28320000D03*
X-16100000Y29943599D03*
X-5230000Y25880000D03*
X660000Y31690000D03*
X-13560000Y40103599D03*
X-18640000Y35023599D03*
X-16100000Y19783599D03*
X1850000Y39045500D03*
X-11020000Y40103599D03*
X-13560000Y19783599D03*
X-16100000Y35023599D03*
X-16100000Y37563599D03*
X20497800Y32283400D03*
X-14520000Y29090000D03*
%TO.N,+3V3*%
X1955800Y16967200D03*
X26797000Y27305000D03*
X25298400Y26339800D03*
X11050000Y37425000D03*
X15443200Y35737800D03*
X24587200Y34823400D03*
X11277600Y28854400D03*
X-2190000Y25740000D03*
X12166600Y29514800D03*
X-1975500Y37553372D03*
%TO.N,/AVDDOUT*%
X7863900Y30124400D03*
%TO.N,/DVDDOUT*%
X9753600Y38150800D03*
%TO.N,/REF*%
X4013200Y33985200D03*
%TO.N,/ISP*%
X1040000Y35730000D03*
X-2150000Y34820000D03*
%TO.N,/INP*%
X2550000Y23540000D03*
X-2510000Y23480000D03*
%TO.N,/UR+*%
X11970000Y26540000D03*
X3524020Y28620000D03*
%TO.N,/US+*%
X10000000Y25800000D03*
X9143911Y27833911D03*
X5100000Y29720000D03*
%TO.N,/UT+*%
X8050000Y25740000D03*
%TO.N,/ADE_Reset*%
X21717000Y33197800D03*
%TO.N,/O_IN*%
X10375000Y29850000D03*
%TO.N,Net-(U1A--)*%
X-3410000Y23230000D03*
X230000Y20824500D03*
%TO.N,Net-(U3A--)*%
X260000Y33020000D03*
X-2650000Y33470000D03*
%TO.N,Net-(U1B--)*%
X-700000Y29710000D03*
X-3390000Y29150000D03*
%TO.N,/SCLK*%
X13250000Y33950000D03*
X13225000Y31200000D03*
%TO.N,/MISO*%
X13214638Y35157566D03*
%TO.N,/MOSI*%
X15409211Y34609211D03*
%TO.N,/SS*%
X14459548Y36442005D03*
%TO.N,/RN*%
X-5934500Y22738843D03*
X-4520000Y22670000D03*
%TO.N,Net-(U3B--)*%
X309163Y38610563D03*
X-2600000Y36690000D03*
%TO.N,/UM*%
X1610000Y23910000D03*
X1625500Y35047145D03*
X2277484Y22357547D03*
%TO.N,/C+*%
X-70000Y18890000D03*
%TO.N,/UR-*%
X4230000Y29490000D03*
X13040000Y26640000D03*
%TO.N,/US-*%
X11000000Y25870000D03*
X6182300Y29546200D03*
X8393411Y29123411D03*
%TO.N,/UT-*%
X9020000Y25950000D03*
%TO.N,/C-*%
X-4765656Y20033911D03*
%TD*%
D27*
%TO.N,GND*%
X17000000Y25839200D02*
X17246600Y26085800D01*
X9167500Y30725000D02*
X9167500Y30115677D01*
X1915000Y20465000D02*
X2598200Y20465000D01*
X2598200Y20465000D02*
X3200400Y19862800D01*
X3025000Y32375000D02*
X3691953Y32375000D01*
X13775000Y29020000D02*
X13119600Y29020000D01*
X14000000Y23000000D02*
X14000000Y25776400D01*
X975200Y26085800D02*
X1001000Y26060000D01*
X14000000Y25776400D02*
X13868400Y25908000D01*
X3691953Y32375000D02*
X4428453Y33111500D01*
X-104200Y26085800D02*
X975200Y26085800D01*
X17000000Y23000000D02*
X17000000Y25839200D01*
X13119600Y29020000D02*
X12877800Y28778200D01*
X9167500Y30925000D02*
X9300000Y30925000D01*
%TO.N,+3V3*%
X12166600Y29514800D02*
X12166600Y30265900D01*
X-1410000Y25740000D02*
X-1064200Y26085800D01*
X10896600Y37271600D02*
X10896600Y35377000D01*
X26492200Y26416000D02*
X25374600Y26416000D01*
X26000000Y23000000D02*
X26000000Y25638200D01*
X1955800Y17884200D02*
X1915000Y17925000D01*
X11707500Y32925000D02*
X11707500Y30725000D01*
X11050000Y37425000D02*
X10896600Y37271600D01*
X11050000Y37425000D02*
X11647800Y37425000D01*
X1955800Y16967200D02*
X1955800Y17884200D01*
X-2190000Y25740000D02*
X-1410000Y25740000D01*
X27000000Y25908200D02*
X26492200Y26416000D01*
X-1785528Y37363400D02*
X-1975500Y37553372D01*
X12452500Y29980000D02*
X11707500Y30725000D01*
X25374600Y26416000D02*
X25298400Y26339800D01*
X27000000Y23000000D02*
X27000000Y25908200D01*
X1915000Y17925000D02*
X1915000Y17895000D01*
X27000000Y23000000D02*
X26000000Y23000000D01*
X26000000Y25638200D02*
X25298400Y26339800D01*
X13775000Y29980000D02*
X12452500Y29980000D01*
X12166600Y30265900D02*
X11707500Y30725000D01*
X-833000Y37363400D02*
X-1785528Y37363400D01*
X11963400Y37109400D02*
X11963400Y35377000D01*
X11647800Y37425000D02*
X11963400Y37109400D01*
%TO.N,/AVDDOUT*%
X5451000Y32375000D02*
X5975000Y32375000D01*
X6766400Y32375000D02*
X5975000Y32375000D01*
X7467600Y31673800D02*
X6766400Y32375000D01*
X5204400Y32128400D02*
X5451000Y32375000D01*
X7863900Y30286900D02*
X7467600Y30683200D01*
X5204400Y30683200D02*
X5204400Y32128400D01*
X7467600Y30683200D02*
X7467600Y31673800D01*
X7863900Y30124400D02*
X7863900Y30286900D01*
%TO.N,/DVDDOUT*%
X17935000Y32588200D02*
X17935000Y33574400D01*
X17935000Y33574400D02*
X17143200Y34366200D01*
X17143200Y35206200D02*
X17143200Y34366200D01*
X14198600Y38150800D02*
X17143200Y35206200D01*
X9753600Y38150800D02*
X14198600Y38150800D01*
%TO.N,/REF*%
X5156200Y33985200D02*
X6043400Y34872400D01*
X6043400Y34872400D02*
X6043400Y35128200D01*
X4013200Y33985200D02*
X4013200Y34673600D01*
X4013200Y34673600D02*
X4546600Y35207000D01*
X4013200Y33985200D02*
X5156200Y33985200D01*
%TO.N,/ISP*%
X1040000Y35730000D02*
X728800Y35730000D01*
X-1422400Y35204400D02*
X-1473200Y35255200D01*
X-1714800Y35255200D02*
X-2150000Y34820000D01*
X-1473200Y35255200D02*
X-1714800Y35255200D01*
X728800Y35730000D02*
X203200Y35204400D01*
X203200Y35204400D02*
X-1422400Y35204400D01*
%TO.N,/INP*%
X-2510000Y23360000D02*
X-2100000Y22950000D01*
X-2100000Y22950000D02*
X2080000Y22950000D01*
X2080000Y22950000D02*
X2550000Y23420000D01*
X-2510000Y23480000D02*
X-2510000Y23360000D01*
X2550000Y23420000D02*
X2550000Y23540000D01*
D28*
%TO.N,/UR+*%
X4950000Y28270000D02*
X7426414Y28270000D01*
X8640000Y26690000D02*
X7818207Y27511793D01*
X12000000Y26510000D02*
X11970000Y26540000D01*
X3524020Y28620000D02*
X4600000Y28620000D01*
X11970000Y26540000D02*
X11820000Y26690000D01*
X4600000Y28620000D02*
X4950000Y28270000D01*
X11820000Y26690000D02*
X8640000Y26690000D01*
X7818207Y27511793D02*
X7818207Y27878207D01*
X12000000Y23000000D02*
X12000000Y26510000D01*
X7426414Y28270000D02*
X7818207Y27878207D01*
%TO.N,/US+*%
X5100000Y29540000D02*
X5100000Y29720000D01*
X9143911Y27833911D02*
X8786089Y27833911D01*
X8786089Y27833911D02*
X7673311Y28946689D01*
X7673311Y28946689D02*
X5693311Y28946689D01*
X10000000Y23000000D02*
X10000000Y25800000D01*
X5693311Y28946689D02*
X5100000Y29540000D01*
D27*
%TO.N,/RSP*%
X-6750200Y31612980D02*
X-8637220Y33500000D01*
%TO.N,/RSM*%
X-6750200Y29072980D02*
X-8677220Y31000000D01*
%TO.N,/RTP*%
X-6750200Y26532980D02*
X-8717220Y28500000D01*
%TO.N,/RTM*%
X-6750200Y23992980D02*
X-8757220Y26000000D01*
%TO.N,/RRP*%
X-6750200Y37350200D02*
X-7800000Y38400000D01*
X-7800000Y38400000D02*
X-10750000Y38400000D01*
X-6750200Y36692980D02*
X-6750200Y37350200D01*
%TO.N,/RRM*%
X-8370000Y35780000D02*
X-8370000Y35772780D01*
X-8370000Y35772780D02*
X-6750200Y34152980D01*
X-8590000Y36000000D02*
X-8370000Y35780000D01*
X-10750000Y36000000D02*
X-8590000Y36000000D01*
%TO.N,/RNP*%
X-6750200Y21452980D02*
X-8797220Y23500000D01*
%TO.N,/RNM*%
X-6750200Y18912980D02*
X-8962220Y21125000D01*
D28*
%TO.N,/UT+*%
X8000000Y23000000D02*
X8000000Y25690000D01*
X8000000Y25690000D02*
X8050000Y25740000D01*
D27*
%TO.N,/ADE_Reset*%
X21717000Y31058000D02*
X24000000Y28775000D01*
X24000000Y28775000D02*
X24000000Y23000000D01*
X21717000Y33197800D02*
X21717000Y31058000D01*
X25000000Y23000000D02*
X24000000Y23000000D01*
%TO.N,/O_IN*%
X10375000Y29850000D02*
X10375000Y31717500D01*
X10375000Y31717500D02*
X9167500Y32925000D01*
%TO.N,Net-(U1A--)*%
X-3410000Y23230000D02*
X-2780480Y22600480D01*
X-1545980Y22600480D02*
X230000Y20824500D01*
X-2780480Y22600480D02*
X-1545980Y22600480D01*
%TO.N,Net-(U3A--)*%
X-2200000Y33020000D02*
X-2650000Y33470000D01*
X260000Y33020000D02*
X-2200000Y33020000D01*
%TO.N,Net-(U1B--)*%
X-2830000Y29710000D02*
X-3390000Y29150000D01*
X-700000Y29710000D02*
X-2830000Y29710000D01*
%TO.N,/SCLK*%
X13225000Y33925000D02*
X13225000Y31200000D01*
%TO.N,/MISO*%
X15925000Y29150000D02*
X14000000Y31075000D01*
X14000000Y34372204D02*
X13214638Y35157566D01*
X16825000Y29150000D02*
X15925000Y29150000D01*
X19000000Y23000000D02*
X18000000Y23000000D01*
X14000000Y31075000D02*
X14000000Y34372204D01*
X18000000Y27975000D02*
X16825000Y29150000D01*
X18000000Y23000000D02*
X18000000Y27975000D01*
%TO.N,/MOSI*%
X19200000Y28800000D02*
X19200000Y27125000D01*
X19575000Y26750000D02*
X21350000Y26750000D01*
X15409211Y34609211D02*
X15409211Y31965789D01*
X21350000Y26750000D02*
X22000000Y26100000D01*
X22000000Y26100000D02*
X22000000Y23000000D01*
X16950000Y30425000D02*
X17575000Y30425000D01*
X17575000Y30425000D02*
X19200000Y28800000D01*
X15409211Y31965789D02*
X16950000Y30425000D01*
X23000000Y23000000D02*
X22000000Y23000000D01*
X19200000Y27125000D02*
X19575000Y26750000D01*
%TO.N,/SS*%
X20000000Y23000000D02*
X21000000Y23000000D01*
X18700000Y26400000D02*
X19225000Y25875000D01*
X17200000Y29700000D02*
X18700000Y28200000D01*
X14700000Y31400000D02*
X16400000Y29700000D01*
X20000000Y25875000D02*
X20000000Y23000000D01*
X14459548Y36442005D02*
X14700000Y36201553D01*
X14700000Y36201553D02*
X14700000Y31400000D01*
X19225000Y25875000D02*
X20000000Y25875000D01*
X16400000Y29700000D02*
X17200000Y29700000D01*
X18700000Y28200000D02*
X18700000Y26400000D01*
%TO.N,/RN*%
X-4520000Y22670000D02*
X-4590000Y22740000D01*
X-5933343Y22740000D02*
X-5934500Y22738843D01*
X-4590000Y22740000D02*
X-5933343Y22740000D01*
%TO.N,Net-(U3B--)*%
X-2600000Y37812065D02*
X-2234182Y38177883D01*
X-123517Y38177883D02*
X309163Y38610563D01*
X-2600000Y36690000D02*
X-2600000Y37812065D01*
X-2234182Y38177883D02*
X-123517Y38177883D01*
%TO.N,/UM*%
X2108200Y34564445D02*
X1625500Y35047145D01*
X1122355Y34544000D02*
X1625500Y35047145D01*
X1610000Y23910000D02*
X1625500Y23925500D01*
X2277484Y22357547D02*
X2277484Y22097484D01*
X2277484Y22097484D02*
X1915000Y21735000D01*
X2463800Y25049600D02*
X1757800Y25049600D01*
X1625500Y30810100D02*
X2108200Y31292800D01*
X403800Y34544000D02*
X1122355Y34544000D01*
X1625500Y23925500D02*
X1625500Y24917300D01*
X2108200Y31292800D02*
X2108200Y34564445D01*
X1757800Y25049600D02*
X1625500Y24917300D01*
X1625500Y24917300D02*
X1625500Y30810100D01*
D28*
%TO.N,/C+*%
X-70000Y18890000D02*
X-420000Y19240000D01*
X-420000Y19240000D02*
X-3190000Y19240000D01*
X-3190000Y19240000D02*
X-3235000Y19195000D01*
%TO.N,/UR-*%
X13000000Y23000000D02*
X13000000Y26600000D01*
X13040000Y26640000D02*
X12520000Y27160000D01*
X7472831Y28647169D02*
X5072831Y28647169D01*
X8600000Y27160000D02*
X8170000Y27590000D01*
X13000000Y26600000D02*
X13040000Y26640000D01*
X12520000Y27160000D02*
X8600000Y27160000D01*
X5072831Y28647169D02*
X4230000Y29490000D01*
X8170000Y27590000D02*
X8170000Y27950000D01*
X8170000Y27950000D02*
X7472831Y28647169D01*
%TO.N,/US-*%
X8540000Y29270000D02*
X8393411Y29123411D01*
X7683800Y29546200D02*
X7960000Y29270000D01*
X7960000Y29270000D02*
X8540000Y29270000D01*
X11000000Y25870000D02*
X11000000Y23000000D01*
X6182300Y29546200D02*
X7683800Y29546200D01*
%TO.N,/UT-*%
X9020000Y25950000D02*
X9000000Y25930000D01*
X9000000Y25930000D02*
X9000000Y23550000D01*
%TO.N,/C-*%
X-4880000Y20148255D02*
X-4880000Y21550000D01*
X-4880000Y21550000D02*
X-4740000Y21690000D01*
X-4765656Y20033911D02*
X-4880000Y20148255D01*
X-4740000Y21690000D02*
X-3280000Y21690000D01*
X-3280000Y21690000D02*
X-3235000Y21735000D01*
%TD*%
%TA.AperFunction,Conductor*%
%TO.N,GND*%
G36*
X-9059161Y42184620D02*
G01*
X-9012025Y42131528D01*
X-9000000Y42077809D01*
X-9000000Y40000000D01*
X27279762Y40000000D01*
X27347883Y39979998D01*
X27394376Y39926342D01*
X27405759Y39874921D01*
X27444740Y34541072D01*
X27425236Y34472807D01*
X27371921Y34425923D01*
X27301723Y34415306D01*
X27236929Y34444326D01*
X27207621Y34480755D01*
X27201110Y34492938D01*
X27076083Y34645283D01*
X26923738Y34770310D01*
X26749927Y34863214D01*
X26561332Y34920424D01*
X26561326Y34920424D01*
X26561325Y34920425D01*
X26365203Y34939741D01*
X26365197Y34939741D01*
X26169075Y34920425D01*
X26169073Y34920425D01*
X26169070Y34920424D01*
X26169068Y34920424D01*
X25980473Y34863214D01*
X25806662Y34770310D01*
X25654317Y34645283D01*
X25551764Y34520322D01*
X25529290Y34492938D01*
X25436386Y34319128D01*
X25379174Y34130526D01*
X25379174Y34130524D01*
X25359859Y33934403D01*
X25359859Y33934396D01*
X25379174Y33738275D01*
X25379174Y33738273D01*
X25436386Y33549671D01*
X25529290Y33375861D01*
X25654317Y33223517D01*
X25806661Y33098490D01*
X25980471Y33005586D01*
X26169074Y32948374D01*
X26365197Y32929059D01*
X26365200Y32929059D01*
X26365203Y32929059D01*
X26561324Y32948374D01*
X26561326Y32948374D01*
X26749928Y33005586D01*
X26923738Y33098490D01*
X26937402Y33109704D01*
X27076083Y33223517D01*
X27201110Y33375862D01*
X27216355Y33404384D01*
X27266105Y33455032D01*
X27335342Y33470743D01*
X27402081Y33446528D01*
X27445134Y33390075D01*
X27453474Y33345910D01*
X27494336Y27754743D01*
X27474832Y27686478D01*
X27421518Y27639594D01*
X27351319Y27628977D01*
X27286525Y27657997D01*
X27268382Y27677111D01*
X27225282Y27733282D01*
X27099841Y27829536D01*
X26953762Y27890044D01*
X26797000Y27910682D01*
X26640238Y27890044D01*
X26494159Y27829536D01*
X26368718Y27733282D01*
X26272465Y27607842D01*
X26272463Y27607839D01*
X26211955Y27461760D01*
X26191318Y27305000D01*
X26191318Y27304999D01*
X26211955Y27148239D01*
X26272463Y27002160D01*
X26272468Y27002152D01*
X26316934Y26944204D01*
X26342535Y26877984D01*
X26328270Y26808435D01*
X26278669Y26757639D01*
X26216972Y26741500D01*
X25804096Y26741500D01*
X25735975Y26761502D01*
X25727392Y26767537D01*
X25726682Y26768082D01*
X25601241Y26864336D01*
X25455162Y26924844D01*
X25298400Y26945482D01*
X25141638Y26924844D01*
X24995559Y26864336D01*
X24870118Y26768082D01*
X24799818Y26676465D01*
X24773865Y26642642D01*
X24773863Y26642639D01*
X24713355Y26496560D01*
X24692718Y26339800D01*
X24692718Y26339799D01*
X24713355Y26183039D01*
X24773863Y26036960D01*
X24773865Y26036957D01*
X24870118Y25911518D01*
X24995557Y25815265D01*
X24995560Y25815263D01*
X25141639Y25754755D01*
X25298400Y25734118D01*
X25298402Y25734118D01*
X25365239Y25742917D01*
X25435388Y25731977D01*
X25470780Y25707090D01*
X25627981Y25549889D01*
X25662007Y25487577D01*
X25656942Y25416762D01*
X25614395Y25359926D01*
X25582391Y25345657D01*
X25583237Y25343617D01*
X25571771Y25338867D01*
X25571769Y25338867D01*
X25570813Y25338228D01*
X25570002Y25337686D01*
X25565566Y25336297D01*
X25560306Y25334118D01*
X25560110Y25334588D01*
X25502249Y25316471D01*
X25433782Y25335254D01*
X25429998Y25337686D01*
X25428231Y25338867D01*
X25369748Y25350500D01*
X24630252Y25350500D01*
X24571769Y25338867D01*
X24570813Y25338228D01*
X24570002Y25337686D01*
X24565566Y25336297D01*
X24560306Y25334118D01*
X24560110Y25334588D01*
X24502249Y25316471D01*
X24433782Y25335254D01*
X24429998Y25337686D01*
X24428231Y25338867D01*
X24427208Y25339070D01*
X24426920Y25339128D01*
X24424333Y25340481D01*
X24416763Y25343617D01*
X24417043Y25344294D01*
X24364010Y25372035D01*
X24328877Y25433729D01*
X24325500Y25462707D01*
X24325500Y28724412D01*
X24325501Y28724430D01*
X24325501Y28817852D01*
X24325500Y28817855D01*
X24323719Y28824500D01*
X24303318Y28900638D01*
X24286507Y28929756D01*
X24260465Y28974862D01*
X24199862Y29035465D01*
X24189495Y29045832D01*
X24189485Y29045839D01*
X22079403Y31155922D01*
X22045379Y31218232D01*
X22042500Y31245015D01*
X22042500Y32628514D01*
X22062502Y32696635D01*
X22091796Y32728476D01*
X22145279Y32769515D01*
X22145280Y32769516D01*
X22145282Y32769518D01*
X22241536Y32894959D01*
X22302044Y33041038D01*
X22322682Y33197800D01*
X22302044Y33354562D01*
X22241536Y33500641D01*
X22145282Y33626082D01*
X22019841Y33722336D01*
X21873762Y33782844D01*
X21717000Y33803482D01*
X21560238Y33782844D01*
X21414159Y33722336D01*
X21288718Y33626082D01*
X21194518Y33503318D01*
X21192465Y33500642D01*
X21192463Y33500639D01*
X21131955Y33354560D01*
X21111318Y33197800D01*
X21111318Y33197799D01*
X21131955Y33041039D01*
X21192463Y32894960D01*
X21192465Y32894957D01*
X21288720Y32769515D01*
X21342204Y32728476D01*
X21384071Y32671138D01*
X21391500Y32628514D01*
X21391500Y31100853D01*
X21391500Y31015147D01*
X21413682Y30932361D01*
X21413683Y30932359D01*
X21413684Y30932356D01*
X21456532Y30858141D01*
X21456540Y30858131D01*
X23637595Y28677077D01*
X23671621Y28614765D01*
X23674500Y28587982D01*
X23674500Y25462707D01*
X23654498Y25394586D01*
X23600842Y25348093D01*
X23573080Y25339128D01*
X23572721Y25339056D01*
X23571769Y25338867D01*
X23570813Y25338228D01*
X23570002Y25337686D01*
X23565566Y25336297D01*
X23560306Y25334118D01*
X23560110Y25334588D01*
X23502249Y25316471D01*
X23433782Y25335254D01*
X23429998Y25337686D01*
X23428231Y25338867D01*
X23369748Y25350500D01*
X22630252Y25350500D01*
X22571769Y25338867D01*
X22570813Y25338228D01*
X22570002Y25337686D01*
X22565566Y25336297D01*
X22560306Y25334118D01*
X22560110Y25334588D01*
X22502249Y25316471D01*
X22433782Y25335254D01*
X22429998Y25337686D01*
X22428231Y25338867D01*
X22427208Y25339070D01*
X22426920Y25339128D01*
X22424333Y25340481D01*
X22416763Y25343617D01*
X22417043Y25344294D01*
X22364010Y25372035D01*
X22328877Y25433729D01*
X22325500Y25462707D01*
X22325500Y26142850D01*
X22325499Y26142857D01*
X22317466Y26172840D01*
X22304924Y26219645D01*
X22303318Y26225639D01*
X22275187Y26274362D01*
X22275187Y26274363D01*
X22260468Y26299857D01*
X22260467Y26299857D01*
X22260465Y26299862D01*
X22199862Y26360465D01*
X22189496Y26370831D01*
X22189486Y26370838D01*
X21549862Y27010465D01*
X21475639Y27053318D01*
X21392853Y27075500D01*
X21392851Y27075500D01*
X19762017Y27075500D01*
X19693896Y27095502D01*
X19672922Y27112405D01*
X19562405Y27222922D01*
X19528379Y27285234D01*
X19525500Y27312017D01*
X19525500Y28842850D01*
X19525499Y28842857D01*
X19514391Y28884317D01*
X19503319Y28925636D01*
X19503318Y28925636D01*
X19503318Y28925639D01*
X19460465Y28999862D01*
X17774862Y30685465D01*
X17700639Y30728318D01*
X17617853Y30750500D01*
X17617851Y30750500D01*
X17137016Y30750500D01*
X17068895Y30770502D01*
X17047921Y30787405D01*
X15771616Y32063710D01*
X15737590Y32126022D01*
X15734711Y32152805D01*
X15734711Y34039925D01*
X15754713Y34108046D01*
X15784007Y34139887D01*
X15837490Y34180926D01*
X15837491Y34180927D01*
X15837493Y34180929D01*
X15933747Y34306370D01*
X15994255Y34452449D01*
X16014893Y34609211D01*
X15994255Y34765973D01*
X15933747Y34912052D01*
X15837493Y35037493D01*
X15807506Y35060502D01*
X15765639Y35117840D01*
X15761417Y35188711D01*
X15796181Y35250614D01*
X15807506Y35260428D01*
X15871482Y35309518D01*
X15967736Y35434959D01*
X16028244Y35581038D01*
X16028245Y35581042D01*
X16030382Y35589016D01*
X16033313Y35588230D01*
X16056170Y35639892D01*
X16115436Y35678982D01*
X16186428Y35679824D01*
X16241461Y35647610D01*
X16442592Y35446479D01*
X16476618Y35384167D01*
X16471553Y35313352D01*
X16454877Y35282563D01*
X16415406Y35229081D01*
X16370555Y35100904D01*
X16370554Y35100900D01*
X16367700Y35070466D01*
X16367700Y33661933D01*
X16370554Y33631499D01*
X16370555Y33631495D01*
X16415406Y33503318D01*
X16415408Y33503314D01*
X16496049Y33394049D01*
X16605314Y33313408D01*
X16605318Y33313406D01*
X16733495Y33268555D01*
X16733499Y33268554D01*
X16763933Y33265700D01*
X17483500Y33265700D01*
X17551621Y33245698D01*
X17598114Y33192042D01*
X17609500Y33139700D01*
X17609500Y33106431D01*
X17589498Y33038310D01*
X17572595Y33017336D01*
X17511776Y32956517D01*
X17461027Y32847685D01*
X17454500Y32798105D01*
X17454500Y32378301D01*
X17454501Y32378289D01*
X17461027Y32328716D01*
X17461029Y32328710D01*
X17511776Y32219882D01*
X17596682Y32134976D01*
X17705514Y32084227D01*
X17748572Y32078559D01*
X17755099Y32077700D01*
X17755100Y32077700D01*
X18114898Y32077700D01*
X18114910Y32077701D01*
X18164483Y32084227D01*
X18164485Y32084227D01*
X18164487Y32084228D01*
X18226433Y32113114D01*
X18273317Y32134976D01*
X18358223Y32219882D01*
X18370761Y32246769D01*
X18408972Y32328713D01*
X18415500Y32378299D01*
X18415499Y32798100D01*
X18415259Y32799921D01*
X18413048Y32816713D01*
X18408972Y32847687D01*
X18358224Y32956516D01*
X18358222Y32956518D01*
X18297405Y33017336D01*
X18263379Y33079648D01*
X18260500Y33106431D01*
X18260500Y33617251D01*
X18260500Y33617253D01*
X18238318Y33700038D01*
X18230334Y33713866D01*
X18216242Y33738275D01*
X18195465Y33774262D01*
X18134862Y33834865D01*
X17955605Y34014122D01*
X17921579Y34076434D01*
X17918700Y34103217D01*
X17918700Y34823400D01*
X23981518Y34823400D01*
X23981518Y34823399D01*
X24002155Y34666639D01*
X24062663Y34520560D01*
X24062665Y34520557D01*
X24158918Y34395118D01*
X24284357Y34298865D01*
X24284360Y34298863D01*
X24430439Y34238355D01*
X24587200Y34217718D01*
X24743960Y34238355D01*
X24890039Y34298863D01*
X24890042Y34298865D01*
X24916448Y34319127D01*
X25015482Y34395118D01*
X25111736Y34520559D01*
X25172244Y34666638D01*
X25185766Y34769346D01*
X25192882Y34823399D01*
X25192882Y34823400D01*
X25188209Y34858898D01*
X25172244Y34980162D01*
X25111736Y35126241D01*
X25015482Y35251682D01*
X24890041Y35347936D01*
X24743962Y35408444D01*
X24587200Y35429082D01*
X24430438Y35408444D01*
X24284359Y35347936D01*
X24158918Y35251682D01*
X24064176Y35128211D01*
X24062665Y35126242D01*
X24062663Y35126239D01*
X24002155Y34980160D01*
X23981518Y34823400D01*
X17918700Y34823400D01*
X17918700Y35070464D01*
X17918700Y35070466D01*
X17915846Y35100899D01*
X17870993Y35229082D01*
X17831522Y35282563D01*
X17790350Y35338350D01*
X17681085Y35418991D01*
X17681084Y35418991D01*
X17681082Y35418993D01*
X17552899Y35463846D01*
X17522466Y35466700D01*
X17522464Y35466700D01*
X17395217Y35466700D01*
X17327096Y35486702D01*
X17306122Y35503605D01*
X14398468Y38411259D01*
X14398462Y38411265D01*
X14324239Y38454118D01*
X14241453Y38476300D01*
X14241451Y38476300D01*
X10322886Y38476300D01*
X10254765Y38496302D01*
X10222924Y38525596D01*
X10181884Y38579079D01*
X10181882Y38579082D01*
X10056441Y38675336D01*
X9910362Y38735844D01*
X9753600Y38756482D01*
X9596838Y38735844D01*
X9450759Y38675336D01*
X9325318Y38579082D01*
X9250211Y38481200D01*
X9229065Y38453642D01*
X9229063Y38453639D01*
X9168555Y38307560D01*
X9147918Y38150800D01*
X9147918Y38150799D01*
X9168555Y37994039D01*
X9229063Y37847960D01*
X9229065Y37847957D01*
X9325318Y37722518D01*
X9450757Y37626265D01*
X9450760Y37626263D01*
X9596839Y37565755D01*
X9753600Y37545118D01*
X9910360Y37565755D01*
X10056439Y37626263D01*
X10056442Y37626265D01*
X10181882Y37722518D01*
X10181884Y37722520D01*
X10222924Y37776004D01*
X10280262Y37817871D01*
X10322886Y37825300D01*
X10377261Y37825300D01*
X10445382Y37805298D01*
X10491875Y37751642D01*
X10501979Y37681368D01*
X10493671Y37651086D01*
X10470810Y37595895D01*
X10464955Y37581760D01*
X10444318Y37425000D01*
X10444318Y37424999D01*
X10464955Y37268239D01*
X10525462Y37122162D01*
X10545065Y37096614D01*
X10570663Y37030393D01*
X10571100Y37019913D01*
X10571100Y35895230D01*
X10551098Y35827109D01*
X10534195Y35806134D01*
X10528285Y35800224D01*
X10528284Y35800224D01*
X10475621Y35747561D01*
X10443376Y35715316D01*
X10392627Y35606485D01*
X10386100Y35556904D01*
X10386100Y35197101D01*
X10386101Y35197089D01*
X10392627Y35147516D01*
X10392629Y35147510D01*
X10443376Y35038682D01*
X10528282Y34953776D01*
X10637114Y34903027D01*
X10680172Y34897359D01*
X10686699Y34896500D01*
X10686700Y34896500D01*
X11106498Y34896500D01*
X11106510Y34896501D01*
X11156083Y34903027D01*
X11156085Y34903027D01*
X11156087Y34903028D01*
X11193395Y34920425D01*
X11264917Y34953776D01*
X11340905Y35029764D01*
X11403217Y35063790D01*
X11474032Y35058725D01*
X11519095Y35029764D01*
X11595081Y34953777D01*
X11595082Y34953776D01*
X11703914Y34903027D01*
X11746972Y34897359D01*
X11753499Y34896500D01*
X11753500Y34896500D01*
X12173298Y34896500D01*
X12173310Y34896501D01*
X12222883Y34903027D01*
X12222885Y34903027D01*
X12222887Y34903028D01*
X12260195Y34920425D01*
X12331717Y34953776D01*
X12422781Y35044840D01*
X12485093Y35078866D01*
X12555908Y35073801D01*
X12612744Y35031254D01*
X12628285Y35003964D01*
X12629594Y35000804D01*
X12690102Y34854725D01*
X12690103Y34854724D01*
X12690103Y34854723D01*
X12786356Y34729283D01*
X12902481Y34640177D01*
X12944348Y34582839D01*
X12948569Y34511968D01*
X12913804Y34450065D01*
X12902486Y34440258D01*
X12821718Y34378282D01*
X12749014Y34283532D01*
X12725465Y34252842D01*
X12725463Y34252839D01*
X12664955Y34106760D01*
X12644318Y33950000D01*
X12644318Y33949998D01*
X12657859Y33847139D01*
X12646919Y33776991D01*
X12599791Y33723893D01*
X12531437Y33704703D01*
X12497928Y33711577D01*
X12497902Y33711446D01*
X12485731Y33713866D01*
X12485731Y33713867D01*
X12427248Y33725500D01*
X10987752Y33725500D01*
X10929269Y33713867D01*
X10862948Y33669552D01*
X10837519Y33631495D01*
X10818633Y33603231D01*
X10818632Y33603228D01*
X10807000Y33544750D01*
X10807000Y32305249D01*
X10818632Y32246771D01*
X10818633Y32246768D01*
X10862948Y32180448D01*
X10929268Y32136133D01*
X10929271Y32136132D01*
X10987749Y32124500D01*
X10987752Y32124500D01*
X11256000Y32124500D01*
X11324121Y32104498D01*
X11370614Y32050842D01*
X11382000Y31998500D01*
X11382000Y31651500D01*
X11361998Y31583379D01*
X11308342Y31536886D01*
X11256000Y31525500D01*
X10987752Y31525500D01*
X10929269Y31513867D01*
X10896499Y31491971D01*
X10828750Y31470757D01*
X10760283Y31489539D01*
X10712839Y31542356D01*
X10700500Y31596737D01*
X10700500Y31760351D01*
X10700499Y31760356D01*
X10693886Y31785037D01*
X10693885Y31785038D01*
X10693884Y31785044D01*
X10678318Y31843139D01*
X10635465Y31917362D01*
X10104903Y32447923D01*
X10070880Y32510234D01*
X10068000Y32537017D01*
X10068000Y33544746D01*
X10068000Y33544748D01*
X10056367Y33603231D01*
X10012052Y33669552D01*
X9945731Y33713867D01*
X9887248Y33725500D01*
X8447752Y33725500D01*
X8389269Y33713867D01*
X8322948Y33669552D01*
X8297519Y33631495D01*
X8278633Y33603231D01*
X8278632Y33603228D01*
X8267000Y33544750D01*
X8267000Y32305249D01*
X8278632Y32246771D01*
X8278633Y32246768D01*
X8322948Y32180448D01*
X8389268Y32136133D01*
X8389271Y32136132D01*
X8447749Y32124500D01*
X8447752Y32124500D01*
X9455483Y32124500D01*
X9523604Y32104498D01*
X9544578Y32087595D01*
X10012595Y31619578D01*
X10046621Y31557266D01*
X10049500Y31530483D01*
X10049500Y30419285D01*
X10029498Y30351164D01*
X10000203Y30319322D01*
X9974920Y30299922D01*
X9950469Y30281160D01*
X9946718Y30278282D01*
X9896346Y30212635D01*
X9850465Y30152842D01*
X9850463Y30152839D01*
X9789955Y30006760D01*
X9769318Y29850000D01*
X9769318Y29849999D01*
X9789955Y29693239D01*
X9850463Y29547160D01*
X9850465Y29547157D01*
X9946718Y29421718D01*
X10072157Y29325465D01*
X10072160Y29325463D01*
X10218239Y29264955D01*
X10375000Y29244318D01*
X10531760Y29264955D01*
X10564327Y29278445D01*
X10571719Y29281507D01*
X10642309Y29289096D01*
X10705796Y29257316D01*
X10742023Y29196258D01*
X10739489Y29125307D01*
X10736346Y29116880D01*
X10692555Y29011160D01*
X10671918Y28854400D01*
X10671918Y28854399D01*
X10692555Y28697639D01*
X10753063Y28551560D01*
X10753065Y28551557D01*
X10849318Y28426118D01*
X10974757Y28329865D01*
X10974760Y28329863D01*
X11120839Y28269355D01*
X11277600Y28248718D01*
X11434360Y28269355D01*
X11580439Y28329863D01*
X11580442Y28329865D01*
X11603135Y28347278D01*
X11705882Y28426118D01*
X11802136Y28551559D01*
X11862644Y28697638D01*
X11878743Y28819928D01*
X11907465Y28884854D01*
X11966730Y28923946D01*
X12020111Y28928403D01*
X12166600Y28909118D01*
X12323360Y28929755D01*
X12469439Y28990263D01*
X12469442Y28990265D01*
X12594882Y29086518D01*
X12691136Y29211959D01*
X12751644Y29358038D01*
X12772282Y29514800D01*
X12772282Y29523059D01*
X12774359Y29523059D01*
X12783586Y29582209D01*
X12830718Y29635305D01*
X12897566Y29654500D01*
X13256769Y29654500D01*
X13324890Y29634498D01*
X13345864Y29617595D01*
X13406681Y29556777D01*
X13406682Y29556776D01*
X13515514Y29506027D01*
X13558572Y29500359D01*
X13565099Y29499500D01*
X13565100Y29499500D01*
X13984898Y29499500D01*
X13984910Y29499501D01*
X14034483Y29506027D01*
X14034485Y29506027D01*
X14034487Y29506028D01*
X14071010Y29523059D01*
X14143317Y29556776D01*
X14228223Y29641682D01*
X14230592Y29646762D01*
X14278972Y29750513D01*
X14285500Y29800099D01*
X14285499Y30024982D01*
X14305501Y30093102D01*
X14359156Y30139595D01*
X14429430Y30149700D01*
X14494011Y30120207D01*
X14500594Y30114077D01*
X15725131Y28889540D01*
X15725141Y28889532D01*
X15799356Y28846684D01*
X15799359Y28846683D01*
X15799361Y28846682D01*
X15882147Y28824500D01*
X16637983Y28824500D01*
X16706104Y28804498D01*
X16727078Y28787595D01*
X17637595Y27877078D01*
X17671621Y27814766D01*
X17674500Y27787983D01*
X17674500Y25462707D01*
X17654498Y25394586D01*
X17600842Y25348093D01*
X17573080Y25339128D01*
X17572721Y25339056D01*
X17571769Y25338867D01*
X17505448Y25294552D01*
X17471736Y25244099D01*
X17461133Y25228231D01*
X17461132Y25228228D01*
X17449500Y25169750D01*
X17449500Y20872493D01*
X17429498Y20804372D01*
X17375842Y20757879D01*
X17323466Y20746493D01*
X16575960Y20746707D01*
X16507849Y20766727D01*
X16461371Y20820396D01*
X16450000Y20872706D01*
X16450000Y27000000D01*
X16447398Y27099574D01*
X16444671Y27112405D01*
X16405992Y27294375D01*
X16324990Y27476308D01*
X16207932Y27637425D01*
X16194521Y27649500D01*
X16124403Y27712635D01*
X16059934Y27770683D01*
X15887464Y27870258D01*
X15698060Y27931800D01*
X15500000Y27952617D01*
X15301940Y27931800D01*
X15112536Y27870258D01*
X14940066Y27770683D01*
X14940063Y27770680D01*
X14940061Y27770679D01*
X14792069Y27637427D01*
X14675012Y27476312D01*
X14675010Y27476308D01*
X14609694Y27329606D01*
X14594008Y27294375D01*
X14552601Y27099574D01*
X14550000Y27000000D01*
X14550000Y20873320D01*
X14529998Y20805199D01*
X14476342Y20758706D01*
X14423968Y20747321D01*
X13676462Y20747534D01*
X13608349Y20767556D01*
X13561871Y20821225D01*
X13550500Y20873534D01*
X13550500Y25169746D01*
X13550500Y25169748D01*
X13538867Y25228231D01*
X13494552Y25294552D01*
X13428231Y25338867D01*
X13401918Y25344101D01*
X13339009Y25377009D01*
X13303877Y25438704D01*
X13300500Y25467680D01*
X13300500Y26020838D01*
X13320502Y26088959D01*
X13349796Y26120801D01*
X13354742Y26124596D01*
X13468282Y26211718D01*
X13564536Y26337159D01*
X13625044Y26483238D01*
X13645682Y26640000D01*
X13625044Y26796762D01*
X13564536Y26942841D01*
X13468282Y27068282D01*
X13342841Y27164536D01*
X13196762Y27225044D01*
X13040000Y27245682D01*
X12941916Y27232769D01*
X12871768Y27243708D01*
X12836374Y27268596D01*
X12792953Y27312017D01*
X12704511Y27400460D01*
X12686835Y27410665D01*
X12635989Y27440021D01*
X12559562Y27460500D01*
X9827788Y27460500D01*
X9759667Y27480502D01*
X9713174Y27534158D01*
X9703070Y27604432D01*
X9711379Y27634718D01*
X9712501Y27637425D01*
X9728955Y27677149D01*
X9741269Y27770683D01*
X9749593Y27833910D01*
X9749593Y27833911D01*
X9736706Y27931800D01*
X9728955Y27990673D01*
X9668447Y28136752D01*
X9572193Y28262193D01*
X9446752Y28358447D01*
X9300673Y28418955D01*
X9143911Y28439593D01*
X8987149Y28418955D01*
X8841070Y28358447D01*
X8841066Y28358444D01*
X8833916Y28354316D01*
X8833232Y28355499D01*
X8775066Y28333013D01*
X8705518Y28347278D01*
X8675491Y28369478D01*
X8652702Y28392267D01*
X8618678Y28454577D01*
X8623743Y28525392D01*
X8666290Y28582228D01*
X8693579Y28597768D01*
X8696248Y28598873D01*
X8696249Y28598874D01*
X8696252Y28598875D01*
X8821693Y28695129D01*
X8917947Y28820570D01*
X8978455Y28966649D01*
X8999093Y29123411D01*
X8978455Y29280173D01*
X8917947Y29426252D01*
X8821693Y29551693D01*
X8696252Y29647947D01*
X8550173Y29708455D01*
X8515174Y29713062D01*
X8450248Y29741783D01*
X8411155Y29801048D01*
X8410310Y29872039D01*
X8415203Y29886181D01*
X8448944Y29967638D01*
X8469582Y30124400D01*
X8448944Y30281162D01*
X8388436Y30427241D01*
X8292182Y30552682D01*
X8166741Y30648936D01*
X8020662Y30709444D01*
X7926049Y30721899D01*
X7861122Y30750621D01*
X7853400Y30757726D01*
X7830005Y30781121D01*
X7795979Y30843433D01*
X7793100Y30870216D01*
X7793100Y31623212D01*
X7793101Y31623230D01*
X7793101Y31716652D01*
X7793100Y31716655D01*
X7770920Y31799431D01*
X7770919Y31799431D01*
X7770918Y31799438D01*
X7769647Y31801639D01*
X7763179Y31812843D01*
X7728067Y31873658D01*
X7728065Y31873662D01*
X7667462Y31934265D01*
X7657096Y31944631D01*
X7657086Y31944638D01*
X6966262Y32635465D01*
X6892039Y32678318D01*
X6843887Y32691219D01*
X6783266Y32728171D01*
X6752245Y32792031D01*
X6750500Y32812926D01*
X6750500Y33079264D01*
X6750500Y33079266D01*
X6747646Y33109699D01*
X6702793Y33237882D01*
X6682262Y33265700D01*
X6622150Y33347150D01*
X6512885Y33427791D01*
X6512884Y33427791D01*
X6512882Y33427793D01*
X6384699Y33472646D01*
X6354266Y33475500D01*
X5595734Y33475500D01*
X5565301Y33472646D01*
X5565295Y33472644D01*
X5437118Y33427793D01*
X5437114Y33427791D01*
X5327849Y33347150D01*
X5247208Y33237885D01*
X5247206Y33237881D01*
X5202355Y33109704D01*
X5202354Y33109700D01*
X5199500Y33079266D01*
X5199500Y32636017D01*
X5179498Y32567896D01*
X5162599Y32546926D01*
X5050629Y32434956D01*
X4943937Y32328264D01*
X4943932Y32328258D01*
X4901084Y32254043D01*
X4901081Y32254036D01*
X4886450Y32199430D01*
X4878900Y32171253D01*
X4878900Y31201431D01*
X4858898Y31133310D01*
X4841995Y31112336D01*
X4781176Y31051517D01*
X4730427Y30942685D01*
X4723900Y30893105D01*
X4723900Y30473301D01*
X4723901Y30473289D01*
X4730427Y30423716D01*
X4730430Y30423706D01*
X4766809Y30345691D01*
X4777470Y30275499D01*
X4748489Y30210687D01*
X4729317Y30192479D01*
X4676410Y30151882D01*
X4671718Y30148282D01*
X4634287Y30099500D01*
X4619205Y30079845D01*
X4561867Y30037978D01*
X4490996Y30033756D01*
X4471032Y30040137D01*
X4386762Y30075044D01*
X4230000Y30095682D01*
X4073238Y30075044D01*
X3927159Y30014536D01*
X3801718Y29918282D01*
X3711030Y29800095D01*
X3705465Y29792842D01*
X3705463Y29792839D01*
X3644955Y29646760D01*
X3624318Y29490000D01*
X3624318Y29489999D01*
X3640368Y29368086D01*
X3629429Y29297937D01*
X3582300Y29244839D01*
X3531892Y29226718D01*
X3524021Y29225681D01*
X3524020Y29225682D01*
X3367258Y29205044D01*
X3221179Y29144536D01*
X3095738Y29048282D01*
X3003752Y28928403D01*
X2999485Y28922842D01*
X2999483Y28922839D01*
X2938975Y28776760D01*
X2918338Y28620000D01*
X2918338Y28619999D01*
X2938975Y28463239D01*
X2999483Y28317160D01*
X2999485Y28317157D01*
X3095738Y28191718D01*
X3221177Y28095465D01*
X3221180Y28095463D01*
X3367259Y28034955D01*
X3524020Y28014318D01*
X3680780Y28034955D01*
X3826859Y28095463D01*
X3826862Y28095465D01*
X3952302Y28191718D01*
X3952304Y28191720D01*
X4012527Y28270204D01*
X4069864Y28312071D01*
X4112489Y28319500D01*
X4423339Y28319500D01*
X4491460Y28299498D01*
X4512429Y28282599D01*
X4599734Y28195295D01*
X4629934Y28165095D01*
X4663959Y28102783D01*
X4658893Y28031967D01*
X4616347Y27975131D01*
X4549826Y27950321D01*
X4540838Y27950000D01*
X4200000Y27950000D01*
X3800000Y27550000D01*
X3750000Y27500000D01*
X3750000Y27499999D01*
X3750000Y16981249D01*
X3729998Y16913128D01*
X3676342Y16866635D01*
X3623480Y16855250D01*
X2685682Y16859128D01*
X2617651Y16879411D01*
X2571380Y16933258D01*
X2561287Y16968680D01*
X2559632Y16981249D01*
X2540844Y17123962D01*
X2488519Y17250283D01*
X2480931Y17320872D01*
X2512710Y17384359D01*
X2573768Y17420586D01*
X2604929Y17424500D01*
X2673261Y17424500D01*
X2741394Y17434427D01*
X2846482Y17485801D01*
X2846485Y17485803D01*
X2929196Y17568514D01*
X2929198Y17568517D01*
X2980572Y17673605D01*
X2980573Y17673607D01*
X2990500Y17741740D01*
X2990500Y18108260D01*
X2980573Y18176393D01*
X2929198Y18281483D01*
X2846483Y18364198D01*
X2741393Y18415573D01*
X2673260Y18425500D01*
X1156740Y18425500D01*
X1088607Y18415573D01*
X1088605Y18415572D01*
X983517Y18364198D01*
X983514Y18364196D01*
X900803Y18281485D01*
X900801Y18281482D01*
X849427Y18176394D01*
X839500Y18108261D01*
X839500Y17741738D01*
X849427Y17673605D01*
X900801Y17568517D01*
X900803Y17568514D01*
X983514Y17485803D01*
X983517Y17485801D01*
X1088605Y17434427D01*
X1156738Y17424500D01*
X1156740Y17424500D01*
X1306671Y17424500D01*
X1374792Y17404498D01*
X1421285Y17350842D01*
X1431389Y17280568D01*
X1423080Y17250282D01*
X1370755Y17123960D01*
X1351107Y16974718D01*
X1322384Y16909791D01*
X1263119Y16870700D01*
X1225671Y16865167D01*
X-15371451Y16933809D01*
X-15439486Y16954092D01*
X-15485756Y17007939D01*
X-15495569Y17078254D01*
X-15488983Y17103837D01*
X-15455910Y17192513D01*
X-15455909Y17192514D01*
X-15449500Y17252122D01*
X-15449500Y18547877D01*
X-15455909Y18607483D01*
X-15506203Y18742329D01*
X-15508354Y18745203D01*
X-11749541Y18745203D01*
X-11749541Y18745196D01*
X-11730225Y18549075D01*
X-11730225Y18549073D01*
X-11730224Y18549070D01*
X-11730224Y18549068D01*
X-11673014Y18360473D01*
X-11580110Y18186662D01*
X-11455083Y18034317D01*
X-11337414Y17937748D01*
X-11302738Y17909290D01*
X-11128928Y17816386D01*
X-10940325Y17759174D01*
X-10744203Y17739859D01*
X-10744200Y17739859D01*
X-10744197Y17739859D01*
X-10548075Y17759174D01*
X-10548073Y17759174D01*
X-10359471Y17816386D01*
X-10185661Y17909290D01*
X-10033317Y18034317D01*
X-9908290Y18186661D01*
X-9815386Y18360471D01*
X-9758174Y18549073D01*
X-9758174Y18549075D01*
X-9738859Y18745196D01*
X-9738859Y18745203D01*
X-9758174Y18941324D01*
X-9758174Y18941326D01*
X-9815386Y19129928D01*
X-9908290Y19303738D01*
X-9920226Y19318282D01*
X-10033317Y19456083D01*
X-10185662Y19581110D01*
X-10359473Y19674014D01*
X-10548068Y19731224D01*
X-10548072Y19731224D01*
X-10548074Y19731225D01*
X-10744197Y19750541D01*
X-10744203Y19750541D01*
X-10940324Y19731225D01*
X-10940326Y19731225D01*
X-10940327Y19731224D01*
X-10940332Y19731224D01*
X-11128927Y19674014D01*
X-11302738Y19581110D01*
X-11455083Y19456083D01*
X-11580110Y19303738D01*
X-11673014Y19129927D01*
X-11730224Y18941332D01*
X-11730224Y18941327D01*
X-11730225Y18941326D01*
X-11730225Y18941324D01*
X-11749541Y18745203D01*
X-15508354Y18745203D01*
X-15592453Y18857546D01*
X-15707670Y18943796D01*
X-15842515Y18994090D01*
X-15842518Y18994091D01*
X-15902128Y19000500D01*
X-19172817Y19000500D01*
X-19240938Y19020502D01*
X-19287431Y19074158D01*
X-19298790Y19123898D01*
X-19298915Y19129928D01*
X-19347688Y21491144D01*
X-13200500Y21491144D01*
X-13200500Y20758856D01*
X-13199041Y20746707D01*
X-13190359Y20674409D01*
X-13137364Y20540025D01*
X-13137361Y20540021D01*
X-13050078Y20424921D01*
X-12934978Y20337638D01*
X-12934974Y20337635D01*
X-12800590Y20284640D01*
X-12800591Y20284640D01*
X-12716146Y20274500D01*
X-12716144Y20274500D01*
X-8783853Y20274500D01*
X-8699413Y20284640D01*
X-8699401Y20284643D01*
X-8692218Y20287476D01*
X-8621509Y20293857D01*
X-8558575Y20260997D01*
X-8556903Y20259356D01*
X-7752467Y19454921D01*
X-7718442Y19392608D01*
X-7723506Y19321793D01*
X-7725155Y19317601D01*
X-7725423Y19316949D01*
X-7725432Y19316934D01*
X-7785500Y19118914D01*
X-7785500Y19118908D01*
X-7785501Y19118907D01*
X-7805783Y18912983D01*
X-7805783Y18912976D01*
X-7788976Y18742329D01*
X-7785500Y18707046D01*
X-7725432Y18509026D01*
X-7627885Y18326530D01*
X-7496610Y18166570D01*
X-7336650Y18035295D01*
X-7336648Y18035294D01*
X-7336647Y18035293D01*
X-7154154Y17937748D01*
X-6956127Y17877678D01*
X-6750203Y17857397D01*
X-6750200Y17857397D01*
X-6750197Y17857397D01*
X-6544272Y17877678D01*
X-6346245Y17937748D01*
X-6163752Y18035293D01*
X-6074841Y18108260D01*
X-4310500Y18108260D01*
X-4310500Y17741740D01*
X-4300573Y17673607D01*
X-4300572Y17673605D01*
X-4249198Y17568517D01*
X-4249196Y17568514D01*
X-4166485Y17485803D01*
X-4166482Y17485801D01*
X-4061394Y17434427D01*
X-3993261Y17424500D01*
X-3993260Y17424500D01*
X-2476738Y17424500D01*
X-2408605Y17434427D01*
X-2303517Y17485801D01*
X-2303514Y17485803D01*
X-2220803Y17568514D01*
X-2220801Y17568517D01*
X-2169427Y17673605D01*
X-2159500Y17741738D01*
X-2159500Y18108261D01*
X-2169427Y18176394D01*
X-2220801Y18281482D01*
X-2220803Y18281485D01*
X-2303514Y18364196D01*
X-2303517Y18364198D01*
X-2408605Y18415572D01*
X-2408607Y18415573D01*
X-2476740Y18425500D01*
X-3993260Y18425500D01*
X-4061393Y18415573D01*
X-4166483Y18364198D01*
X-4249198Y18281483D01*
X-4300573Y18176393D01*
X-4310500Y18108260D01*
X-6074841Y18108260D01*
X-6003790Y18166570D01*
X-5872513Y18326532D01*
X-5774968Y18509025D01*
X-5714898Y18707052D01*
X-5694617Y18912976D01*
X-5694617Y18912983D01*
X-5714898Y19118907D01*
X-5774968Y19316934D01*
X-5872513Y19499427D01*
X-5880677Y19509375D01*
X-6003790Y19659390D01*
X-6163750Y19790665D01*
X-6346246Y19888212D01*
X-6544266Y19948280D01*
X-6544270Y19948280D01*
X-6544272Y19948281D01*
X-6750197Y19968563D01*
X-6750203Y19968563D01*
X-6956127Y19948281D01*
X-6956128Y19948280D01*
X-6956134Y19948280D01*
X-7154154Y19888212D01*
X-7154164Y19888206D01*
X-7154806Y19887941D01*
X-7155180Y19887900D01*
X-7160078Y19886415D01*
X-7160359Y19887342D01*
X-7225394Y19880339D01*
X-7288887Y19912107D01*
X-7292140Y19915246D01*
X-8262595Y20885701D01*
X-8296621Y20948013D01*
X-8299500Y20974796D01*
X-8299500Y21491146D01*
X-8309640Y21575590D01*
X-8362635Y21709974D01*
X-8362638Y21709978D01*
X-8449921Y21825078D01*
X-8565021Y21912361D01*
X-8565025Y21912364D01*
X-8699409Y21965359D01*
X-8699408Y21965359D01*
X-8722457Y21968126D01*
X-8783856Y21975500D01*
X-12716144Y21975500D01*
X-12800590Y21965359D01*
X-12934975Y21912364D01*
X-13050078Y21825078D01*
X-13137364Y21709975D01*
X-13190359Y21575590D01*
X-13200500Y21491144D01*
X-19347688Y21491144D01*
X-19440113Y25965702D01*
X-19448384Y26366144D01*
X-13200500Y26366144D01*
X-13200500Y25633856D01*
X-13196822Y25603230D01*
X-13190359Y25549409D01*
X-13137364Y25415025D01*
X-13137361Y25415021D01*
X-13050078Y25299921D01*
X-12934978Y25212638D01*
X-12934974Y25212635D01*
X-12800590Y25159640D01*
X-12800591Y25159640D01*
X-12716146Y25149500D01*
X-12716144Y25149500D01*
X-8783853Y25149500D01*
X-8699409Y25159640D01*
X-8565021Y25212637D01*
X-8561997Y25214338D01*
X-8558896Y25215052D01*
X-8557007Y25215798D01*
X-8556895Y25215514D01*
X-8492816Y25230289D01*
X-8425993Y25206305D01*
X-8411150Y25193603D01*
X-7752467Y24534920D01*
X-7718441Y24472608D01*
X-7723506Y24401793D01*
X-7725155Y24397601D01*
X-7725423Y24396949D01*
X-7725432Y24396934D01*
X-7785500Y24198914D01*
X-7785500Y24198908D01*
X-7785501Y24198907D01*
X-7805783Y23992983D01*
X-7805783Y23992976D01*
X-7790291Y23835682D01*
X-7785500Y23787046D01*
X-7725432Y23589026D01*
X-7627885Y23406530D01*
X-7496610Y23246570D01*
X-7336650Y23115295D01*
X-7336648Y23115294D01*
X-7336647Y23115293D01*
X-7295415Y23093254D01*
X-7154154Y23017748D01*
X-6997223Y22970144D01*
X-6956127Y22957678D01*
X-6750203Y22937397D01*
X-6750200Y22937397D01*
X-6750195Y22937397D01*
X-6668932Y22945400D01*
X-6599179Y22932171D01*
X-6547651Y22883330D01*
X-6530708Y22814385D01*
X-6531658Y22803582D01*
X-6540182Y22738843D01*
X-6531119Y22670000D01*
X-6527430Y22641981D01*
X-6538369Y22571832D01*
X-6585498Y22518734D01*
X-6653851Y22499544D01*
X-6664699Y22500141D01*
X-6704034Y22504016D01*
X-6750198Y22508563D01*
X-6750203Y22508563D01*
X-6956127Y22488281D01*
X-6956128Y22488280D01*
X-6956134Y22488280D01*
X-7154154Y22428212D01*
X-7154169Y22428203D01*
X-7154821Y22427935D01*
X-7155202Y22427893D01*
X-7160078Y22426415D01*
X-7160358Y22427339D01*
X-7225411Y22420343D01*
X-7288899Y22452119D01*
X-7292140Y22455247D01*
X-8262595Y23425702D01*
X-8296621Y23488014D01*
X-8299500Y23514797D01*
X-8299500Y23866146D01*
X-8309640Y23950590D01*
X-8362635Y24084974D01*
X-8362638Y24084978D01*
X-8449921Y24200078D01*
X-8565021Y24287361D01*
X-8565025Y24287364D01*
X-8699409Y24340359D01*
X-8699408Y24340359D01*
X-8722457Y24343126D01*
X-8783856Y24350500D01*
X-12716144Y24350500D01*
X-12800590Y24340359D01*
X-12934975Y24287364D01*
X-13050078Y24200078D01*
X-13137364Y24084975D01*
X-13190359Y23950590D01*
X-13200500Y23866144D01*
X-13200500Y23133856D01*
X-13198211Y23114796D01*
X-13190359Y23049409D01*
X-13137364Y22915025D01*
X-13137361Y22915021D01*
X-13050078Y22799921D01*
X-12934978Y22712638D01*
X-12934974Y22712635D01*
X-12800590Y22659640D01*
X-12800591Y22659640D01*
X-12716146Y22649500D01*
X-12716144Y22649500D01*
X-8783853Y22649500D01*
X-8699409Y22659640D01*
X-8573887Y22709141D01*
X-8503178Y22715524D01*
X-8440243Y22682666D01*
X-8438568Y22681021D01*
X-7752467Y21994920D01*
X-7718441Y21932608D01*
X-7723506Y21861793D01*
X-7725155Y21857601D01*
X-7725423Y21856949D01*
X-7725432Y21856934D01*
X-7785500Y21658914D01*
X-7785500Y21658908D01*
X-7785501Y21658907D01*
X-7805783Y21452983D01*
X-7805783Y21452976D01*
X-7790303Y21295802D01*
X-7785500Y21247046D01*
X-7725432Y21049026D01*
X-7627885Y20866530D01*
X-7496610Y20706570D01*
X-7336650Y20575295D01*
X-7336648Y20575294D01*
X-7336647Y20575293D01*
X-7154154Y20477748D01*
X-6980005Y20424921D01*
X-6956127Y20417678D01*
X-6750203Y20397397D01*
X-6750200Y20397397D01*
X-6750197Y20397397D01*
X-6544272Y20417678D01*
X-6346245Y20477748D01*
X-6163752Y20575293D01*
X-6003790Y20706570D01*
X-5872513Y20866532D01*
X-5774968Y21049025D01*
X-5714898Y21247052D01*
X-5694617Y21452976D01*
X-5694617Y21452983D01*
X-5714898Y21658907D01*
X-5774968Y21856934D01*
X-5839851Y21978321D01*
X-5854323Y22047827D01*
X-5828919Y22114123D01*
X-5776948Y22154125D01*
X-5631664Y22214304D01*
X-5631657Y22214308D01*
X-5506215Y22310563D01*
X-5464288Y22365204D01*
X-5406950Y22407071D01*
X-5364326Y22414500D01*
X-5142998Y22414500D01*
X-5074877Y22394498D01*
X-5043037Y22365206D01*
X-4948282Y22241718D01*
X-4948280Y22241716D01*
X-4948279Y22241715D01*
X-4856205Y22171064D01*
X-4814338Y22113726D01*
X-4810116Y22042855D01*
X-4844880Y21980952D01*
X-4869902Y21961988D01*
X-4901850Y21943543D01*
X-4924511Y21930460D01*
X-5064511Y21790460D01*
X-5120460Y21734511D01*
X-5160021Y21665989D01*
X-5160022Y21665985D01*
X-5180499Y21589565D01*
X-5180500Y21589562D01*
X-5180500Y20522476D01*
X-5200502Y20454355D01*
X-5206535Y20445775D01*
X-5290192Y20336752D01*
X-5350700Y20190673D01*
X-5371338Y20033911D01*
X-5350700Y19877149D01*
X-5290192Y19731070D01*
X-5193938Y19605629D01*
X-5082372Y19520022D01*
X-5068498Y19509376D01*
X-5068495Y19509374D01*
X-4922416Y19448866D01*
X-4765656Y19428229D01*
X-4608895Y19448866D01*
X-4484637Y19500336D01*
X-4414047Y19507925D01*
X-4350560Y19476145D01*
X-4314333Y19415087D01*
X-4311471Y19382819D01*
X-4310500Y19382819D01*
X-4310500Y19378261D01*
X-4310500Y19378260D01*
X-4310500Y19011740D01*
X-4300573Y18943607D01*
X-4300572Y18943605D01*
X-4249198Y18838517D01*
X-4249196Y18838514D01*
X-4166485Y18755803D01*
X-4166482Y18755801D01*
X-4061394Y18704427D01*
X-3993261Y18694500D01*
X-3993260Y18694500D01*
X-2476738Y18694500D01*
X-2408605Y18704427D01*
X-2303517Y18755801D01*
X-2303514Y18755803D01*
X-2220803Y18838514D01*
X-2205978Y18868840D01*
X-2158089Y18921253D01*
X-2092781Y18939500D01*
X-792698Y18939500D01*
X-724577Y18919498D01*
X-678084Y18865842D01*
X-667776Y18829947D01*
X-655044Y18733238D01*
X-594536Y18587159D01*
X-498282Y18461718D01*
X-451080Y18425499D01*
X-372842Y18365465D01*
X-372839Y18365463D01*
X-226760Y18304955D01*
X-70000Y18284318D01*
X86760Y18304955D01*
X232839Y18365463D01*
X232842Y18365465D01*
X311080Y18425499D01*
X358282Y18461718D01*
X454536Y18587159D01*
X515044Y18733238D01*
X535682Y18890000D01*
X515044Y19046762D01*
X454536Y19192841D01*
X358282Y19318282D01*
X280116Y19378261D01*
X839500Y19378261D01*
X839500Y19011738D01*
X849427Y18943605D01*
X900801Y18838517D01*
X900803Y18838514D01*
X983514Y18755803D01*
X983517Y18755801D01*
X1088605Y18704427D01*
X1156738Y18694500D01*
X1156740Y18694500D01*
X2673261Y18694500D01*
X2741394Y18704427D01*
X2846482Y18755801D01*
X2846485Y18755803D01*
X2929196Y18838514D01*
X2929198Y18838517D01*
X2980572Y18943605D01*
X2980573Y18943607D01*
X2990500Y19011740D01*
X2990500Y19378260D01*
X2980573Y19446393D01*
X2929198Y19551483D01*
X2846483Y19634198D01*
X2741393Y19685573D01*
X2673260Y19695500D01*
X1156740Y19695500D01*
X1088607Y19685573D01*
X1035048Y19659390D01*
X983517Y19634198D01*
X983514Y19634196D01*
X900803Y19551485D01*
X900801Y19551482D01*
X849427Y19446394D01*
X839500Y19378261D01*
X280116Y19378261D01*
X232841Y19414536D01*
X86762Y19475044D01*
X-70000Y19495682D01*
X-183825Y19480697D01*
X-253974Y19491636D01*
X-263264Y19496496D01*
X-304011Y19520021D01*
X-304013Y19520021D01*
X-304014Y19520022D01*
X-380434Y19540499D01*
X-380438Y19540500D01*
X-2157628Y19540500D01*
X-2225749Y19560502D01*
X-2246723Y19577405D01*
X-2303514Y19634196D01*
X-2303517Y19634198D01*
X-2355048Y19659390D01*
X-2408607Y19685573D01*
X-2476740Y19695500D01*
X-3993260Y19695500D01*
X-4024971Y19690879D01*
X-4053282Y19686755D01*
X-4123575Y19696726D01*
X-4177318Y19743117D01*
X-4197449Y19811200D01*
X-4187858Y19859655D01*
X-4180612Y19877148D01*
X-4159974Y20033910D01*
X-4159974Y20033911D01*
X-4180611Y20190671D01*
X-4241119Y20336750D01*
X-4241121Y20336753D01*
X-4241798Y20337635D01*
X-4337374Y20462193D01*
X-4462815Y20558447D01*
X-4462818Y20558449D01*
X-4501717Y20574561D01*
X-4556998Y20619108D01*
X-4579420Y20686471D01*
X-4579500Y20690970D01*
X-4579500Y21263500D01*
X-4559498Y21331621D01*
X-4505842Y21378114D01*
X-4453500Y21389500D01*
X-4312372Y21389500D01*
X-4244251Y21369498D01*
X-4223277Y21352595D01*
X-4166485Y21295803D01*
X-4166482Y21295801D01*
X-4061394Y21244427D01*
X-3993261Y21234500D01*
X-3993260Y21234500D01*
X-2476738Y21234500D01*
X-2408605Y21244427D01*
X-2303517Y21295801D01*
X-2303514Y21295803D01*
X-2220803Y21378514D01*
X-2220801Y21378517D01*
X-2169427Y21483605D01*
X-2159500Y21551738D01*
X-2159500Y21918261D01*
X-2169427Y21986394D01*
X-2221857Y22093642D01*
X-2233806Y22163626D01*
X-2206021Y22228960D01*
X-2147325Y22268901D01*
X-2108660Y22274980D01*
X-1732997Y22274980D01*
X-1664876Y22254978D01*
X-1643902Y22238075D01*
X-402708Y20996881D01*
X-368682Y20934569D01*
X-366881Y20891343D01*
X-375682Y20824500D01*
X-355044Y20667738D01*
X-294536Y20521659D01*
X-198282Y20396218D01*
X-96076Y20317793D01*
X-72842Y20299965D01*
X-72839Y20299963D01*
X73239Y20239455D01*
X230000Y20218818D01*
X386760Y20239455D01*
X532839Y20299963D01*
X532842Y20299965D01*
X556076Y20317793D01*
X658282Y20396218D01*
X754536Y20521659D01*
X815044Y20667738D01*
X835682Y20824500D01*
X815044Y20981262D01*
X754536Y21127341D01*
X658282Y21252782D01*
X532841Y21349036D01*
X386762Y21409544D01*
X230000Y21430182D01*
X163156Y21421381D01*
X93011Y21432319D01*
X57622Y21457203D01*
X-894579Y22409406D01*
X-928604Y22471717D01*
X-923539Y22542533D01*
X-880992Y22599368D01*
X-814472Y22624179D01*
X-805483Y22624500D01*
X1563272Y22624500D01*
X1631393Y22604498D01*
X1677886Y22550842D01*
X1688193Y22482054D01*
X1672810Y22365204D01*
X1670724Y22349358D01*
X1668329Y22349673D01*
X1651800Y22293379D01*
X1598144Y22246886D01*
X1545802Y22235500D01*
X1156740Y22235500D01*
X1088607Y22225573D01*
X1088605Y22225572D01*
X983517Y22174198D01*
X983514Y22174196D01*
X900803Y22091485D01*
X900801Y22091482D01*
X849427Y21986394D01*
X839500Y21918261D01*
X839500Y21551738D01*
X849427Y21483605D01*
X900801Y21378517D01*
X900803Y21378514D01*
X983514Y21295803D01*
X983517Y21295801D01*
X1088605Y21244427D01*
X1156738Y21234500D01*
X1156740Y21234500D01*
X2673261Y21234500D01*
X2741394Y21244427D01*
X2846482Y21295801D01*
X2846485Y21295803D01*
X2929196Y21378514D01*
X2929198Y21378517D01*
X2980572Y21483605D01*
X2980573Y21483607D01*
X2990500Y21551740D01*
X2990500Y21918260D01*
X2980573Y21986393D01*
X2929198Y22091483D01*
X2901505Y22119175D01*
X2867480Y22181483D01*
X2865678Y22224713D01*
X2883166Y22357547D01*
X2862528Y22514309D01*
X2802020Y22660388D01*
X2707491Y22783580D01*
X2681891Y22849799D01*
X2696156Y22919348D01*
X2745757Y22970144D01*
X2759228Y22976688D01*
X2852841Y23015464D01*
X2978282Y23111718D01*
X3074536Y23237159D01*
X3135044Y23383238D01*
X3155682Y23540000D01*
X3135044Y23696762D01*
X3074536Y23842841D01*
X2978282Y23968282D01*
X2852841Y24064536D01*
X2706762Y24125044D01*
X2550000Y24145682D01*
X2393238Y24125044D01*
X2319869Y24094653D01*
X2249281Y24087065D01*
X2185794Y24118844D01*
X2155245Y24162843D01*
X2134536Y24212841D01*
X2038282Y24338282D01*
X2000296Y24367429D01*
X1958429Y24424766D01*
X1951000Y24467391D01*
X1951000Y24495969D01*
X1971002Y24564090D01*
X2024658Y24610583D01*
X2094932Y24620687D01*
X2130250Y24610164D01*
X2204314Y24575627D01*
X2247372Y24569959D01*
X2253899Y24569100D01*
X2253900Y24569100D01*
X2673698Y24569100D01*
X2673710Y24569101D01*
X2723283Y24575627D01*
X2723285Y24575627D01*
X2723287Y24575628D01*
X2737029Y24582036D01*
X2832117Y24626376D01*
X2917023Y24711282D01*
X2923000Y24724100D01*
X2967772Y24820113D01*
X2974300Y24869699D01*
X2974299Y25229500D01*
X2967772Y25279087D01*
X2917024Y25387916D01*
X2832116Y25472824D01*
X2723287Y25523572D01*
X2673701Y25530100D01*
X2253900Y25530099D01*
X2253898Y25530098D01*
X2253889Y25530098D01*
X2227543Y25526629D01*
X2204313Y25523572D01*
X2130251Y25489036D01*
X2060059Y25478374D01*
X1995246Y25507353D01*
X1956390Y25566773D01*
X1951000Y25603230D01*
X1951000Y30623082D01*
X1971002Y30691203D01*
X1987905Y30712177D01*
X2368659Y31092931D01*
X2368667Y31092941D01*
X2411515Y31167156D01*
X2411518Y31167161D01*
X2433700Y31249947D01*
X2433700Y31335653D01*
X2433700Y33985200D01*
X3407518Y33985200D01*
X3407518Y33985199D01*
X3428155Y33828439D01*
X3488663Y33682360D01*
X3488665Y33682357D01*
X3584918Y33556918D01*
X3710357Y33460665D01*
X3710360Y33460663D01*
X3856439Y33400155D01*
X4013200Y33379518D01*
X4169960Y33400155D01*
X4316039Y33460663D01*
X4316042Y33460665D01*
X4317825Y33462033D01*
X4441482Y33556918D01*
X4448858Y33566530D01*
X4482524Y33610404D01*
X4539862Y33652271D01*
X4582486Y33659700D01*
X5199051Y33659700D01*
X5199053Y33659700D01*
X5281839Y33681882D01*
X5281841Y33681883D01*
X5281843Y33681884D01*
X5356058Y33724732D01*
X5356064Y33724737D01*
X5478466Y33847139D01*
X5622123Y33990796D01*
X5684434Y34024820D01*
X5711217Y34027700D01*
X6422666Y34027700D01*
X6453100Y34030554D01*
X6453104Y34030555D01*
X6581281Y34075406D01*
X6581285Y34075408D01*
X6690550Y34156049D01*
X6771191Y34265314D01*
X6771193Y34265318D01*
X6816044Y34393495D01*
X6816045Y34393499D01*
X6816046Y34393501D01*
X6818900Y34423934D01*
X6818900Y35832466D01*
X6816046Y35862899D01*
X6771193Y35991082D01*
X6690550Y36100350D01*
X6646418Y36132921D01*
X6581285Y36180991D01*
X6581284Y36180991D01*
X6581282Y36180993D01*
X6453099Y36225846D01*
X6422666Y36228700D01*
X5664134Y36228700D01*
X5633701Y36225846D01*
X5633695Y36225844D01*
X5505518Y36180993D01*
X5505514Y36180991D01*
X5396249Y36100350D01*
X5315608Y35991085D01*
X5315606Y35991081D01*
X5270755Y35862904D01*
X5270754Y35862900D01*
X5267900Y35832466D01*
X5267900Y35538774D01*
X5247898Y35470653D01*
X5194242Y35424160D01*
X5123968Y35414056D01*
X5059388Y35443550D01*
X5027705Y35485525D01*
X5013650Y35515665D01*
X4999824Y35545316D01*
X4914916Y35630224D01*
X4806087Y35680972D01*
X4756501Y35687500D01*
X4336700Y35687499D01*
X4336698Y35687498D01*
X4336689Y35687498D01*
X4310343Y35684029D01*
X4287113Y35680972D01*
X4182498Y35632189D01*
X4178282Y35630223D01*
X4093376Y35545317D01*
X4042627Y35436485D01*
X4036100Y35386905D01*
X4036100Y35209017D01*
X4016098Y35140896D01*
X3999199Y35119926D01*
X3864454Y34985181D01*
X3752737Y34873464D01*
X3752732Y34873458D01*
X3709882Y34799239D01*
X3709881Y34799235D01*
X3687700Y34716453D01*
X3687700Y34554485D01*
X3667698Y34486364D01*
X3638403Y34454522D01*
X3625115Y34444326D01*
X3586971Y34415057D01*
X3584918Y34413482D01*
X3493132Y34293863D01*
X3488665Y34288042D01*
X3488663Y34288039D01*
X3428155Y34141960D01*
X3407518Y33985200D01*
X2433700Y33985200D01*
X2433700Y34607298D01*
X2426805Y34633030D01*
X2411518Y34690084D01*
X2368665Y34764307D01*
X2258206Y34874764D01*
X2224183Y34937074D01*
X2222381Y34980300D01*
X2231182Y35047145D01*
X2210544Y35203907D01*
X2150036Y35349986D01*
X2053782Y35475427D01*
X1928341Y35571681D01*
X1782262Y35632189D01*
X1752233Y35636142D01*
X1687306Y35664864D01*
X1648214Y35724128D01*
X1643758Y35744612D01*
X1625044Y35886762D01*
X1564536Y36032841D01*
X1468282Y36158282D01*
X1342841Y36254536D01*
X1196762Y36315044D01*
X1040000Y36335682D01*
X883238Y36315044D01*
X737159Y36254536D01*
X611718Y36158282D01*
X546461Y36073237D01*
X489125Y36031372D01*
X418254Y36027150D01*
X356351Y36061914D01*
X323070Y36124626D01*
X320500Y36149943D01*
X320500Y36569746D01*
X320500Y36569748D01*
X308867Y36628231D01*
X264552Y36694552D01*
X198231Y36738867D01*
X139748Y36750500D01*
X-350169Y36750500D01*
X-418290Y36770502D01*
X-464783Y36824158D01*
X-474887Y36894432D01*
X-445393Y36959012D01*
X-439264Y36965595D01*
X-409777Y36995081D01*
X-409776Y36995082D01*
X-359027Y37103914D01*
X-352500Y37153494D01*
X-352500Y37573298D01*
X-352501Y37573310D01*
X-359027Y37622883D01*
X-359029Y37622890D01*
X-382458Y37673133D01*
X-393119Y37743325D01*
X-364139Y37808138D01*
X-304719Y37846994D01*
X-268263Y37852383D01*
X-80666Y37852383D01*
X-80664Y37852383D01*
X2122Y37874565D01*
X2124Y37874566D01*
X2126Y37874567D01*
X76341Y37917415D01*
X76351Y37917423D01*
X136781Y37977853D01*
X199093Y38011879D01*
X242321Y38013680D01*
X309161Y38004881D01*
X309163Y38004881D01*
X465923Y38025518D01*
X612002Y38086026D01*
X612005Y38086028D01*
X737445Y38182281D01*
X833699Y38307722D01*
X894207Y38453801D01*
X910700Y38579081D01*
X914845Y38610562D01*
X914845Y38610563D01*
X906318Y38675334D01*
X894207Y38767325D01*
X833699Y38913404D01*
X737445Y39038845D01*
X612004Y39135099D01*
X465925Y39195607D01*
X309163Y39216245D01*
X152401Y39195607D01*
X6322Y39135099D01*
X-119119Y39038845D01*
X-215373Y38913404D01*
X-275881Y38767325D01*
X-281387Y38725500D01*
X-296207Y38612936D01*
X-324930Y38548009D01*
X-384195Y38508918D01*
X-421129Y38503383D01*
X-2183595Y38503383D01*
X-2183611Y38503384D01*
X-2191329Y38503384D01*
X-2277035Y38503384D01*
X-2359821Y38481201D01*
X-2396929Y38459775D01*
X-2396933Y38459774D01*
X-2434039Y38438351D01*
X-2434044Y38438348D01*
X-2434048Y38438344D01*
X-2505013Y38367379D01*
X-2505020Y38367369D01*
X-2860465Y38011927D01*
X-2903318Y37937704D01*
X-2916010Y37890335D01*
X-2925500Y37854918D01*
X-2925500Y37854916D01*
X-2925500Y37259285D01*
X-2945502Y37191164D01*
X-2974796Y37159322D01*
X-3028282Y37118282D01*
X-3124536Y36992841D01*
X-3185044Y36846762D01*
X-3205682Y36690000D01*
X-3185044Y36533238D01*
X-3124536Y36387159D01*
X-3028282Y36261718D01*
X-2923076Y36180991D01*
X-2902842Y36165465D01*
X-2902839Y36165463D01*
X-2756760Y36104955D01*
X-2600000Y36084318D01*
X-2443239Y36104955D01*
X-2297160Y36165463D01*
X-2297157Y36165465D01*
X-2171718Y36261718D01*
X-2075465Y36387157D01*
X-2075463Y36387160D01*
X-2014955Y36533239D01*
X-1994318Y36689999D01*
X-1994318Y36690000D01*
X-2010898Y36815942D01*
X-1999958Y36886091D01*
X-1952830Y36939189D01*
X-1902423Y36957310D01*
X-1818739Y36968327D01*
X-1694201Y37019913D01*
X-1673930Y37028309D01*
X-1625714Y37037900D01*
X-1351231Y37037900D01*
X-1283110Y37017898D01*
X-1262136Y37000995D01*
X-1226736Y36965595D01*
X-1192710Y36903283D01*
X-1197775Y36832468D01*
X-1240322Y36775632D01*
X-1306842Y36750821D01*
X-1315831Y36750500D01*
X-1499748Y36750500D01*
X-1558231Y36738867D01*
X-1624552Y36694552D01*
X-1668867Y36628231D01*
X-1680500Y36569748D01*
X-1680500Y36569746D01*
X-1680500Y36144807D01*
X-1681783Y36126874D01*
X-1685647Y36100001D01*
X-1681782Y36073117D01*
X-1680500Y36055187D01*
X-1680500Y35698057D01*
X-1700502Y35629936D01*
X-1754158Y35583443D01*
X-1773879Y35576352D01*
X-1840439Y35558518D01*
X-1856214Y35549410D01*
X-1914662Y35515665D01*
X-1975265Y35455062D01*
X-1975265Y35455060D01*
X-1977617Y35452709D01*
X-2039929Y35418684D01*
X-2083160Y35416882D01*
X-2150000Y35425682D01*
X-2306762Y35405044D01*
X-2452841Y35344536D01*
X-2578282Y35248282D01*
X-2674536Y35122841D01*
X-2735044Y34976762D01*
X-2755682Y34820000D01*
X-2735044Y34663238D01*
X-2674536Y34517159D01*
X-2578282Y34391718D01*
X-2496998Y34329347D01*
X-2452840Y34295463D01*
X-2450067Y34293863D01*
X-2448193Y34291898D01*
X-2446289Y34290437D01*
X-2446516Y34290140D01*
X-2401072Y34242483D01*
X-2388445Y34176991D01*
X-2385986Y34183138D01*
X-2328157Y34224325D01*
X-2270492Y34230180D01*
X-2150002Y34214318D01*
X-2150000Y34214318D01*
X-1993239Y34234955D01*
X-1847160Y34295463D01*
X-1847157Y34295465D01*
X-1721718Y34391718D01*
X-1625465Y34517157D01*
X-1625463Y34517160D01*
X-1564955Y34663239D01*
X-1550987Y34769346D01*
X-1522265Y34834273D01*
X-1463000Y34873365D01*
X-1426065Y34878900D01*
X-202700Y34878900D01*
X-134579Y34858898D01*
X-88086Y34805242D01*
X-76700Y34752900D01*
X-76699Y34334101D01*
X-76698Y34334089D01*
X-73998Y34313579D01*
X-70172Y34284513D01*
X-39025Y34217718D01*
X-19423Y34175682D01*
X-19422Y34175681D01*
X65481Y34090777D01*
X65482Y34090776D01*
X174314Y34040027D01*
X217372Y34034359D01*
X223899Y34033500D01*
X223900Y34033500D01*
X583698Y34033500D01*
X583710Y34033501D01*
X633283Y34040027D01*
X633285Y34040027D01*
X633287Y34040028D01*
X688283Y34065673D01*
X742117Y34090776D01*
X832936Y34181595D01*
X895248Y34215621D01*
X922031Y34218500D01*
X1165206Y34218500D01*
X1165208Y34218500D01*
X1247994Y34240682D01*
X1247996Y34240683D01*
X1247998Y34240684D01*
X1322213Y34283532D01*
X1322214Y34283533D01*
X1322217Y34283535D01*
X1453118Y34414436D01*
X1515428Y34448460D01*
X1558657Y34450262D01*
X1625498Y34441463D01*
X1625500Y34441463D01*
X1625503Y34441463D01*
X1640255Y34443405D01*
X1710404Y34432465D01*
X1763502Y34385336D01*
X1782700Y34318483D01*
X1782700Y31479817D01*
X1762698Y31411696D01*
X1745799Y31390726D01*
X1555211Y31200138D01*
X1365037Y31009964D01*
X1365032Y31009958D01*
X1322184Y30935743D01*
X1322179Y30935731D01*
X1310756Y30893102D01*
X1310757Y30893102D01*
X1300000Y30852955D01*
X1300000Y24491178D01*
X1279998Y24423057D01*
X1250704Y24391216D01*
X1219702Y24367428D01*
X1184287Y24340253D01*
X1181718Y24338282D01*
X1087465Y24215448D01*
X1085465Y24212842D01*
X1085463Y24212839D01*
X1024955Y24066760D01*
X1004318Y23910000D01*
X1004318Y23909999D01*
X1024955Y23753239D01*
X1085463Y23607160D01*
X1085465Y23607157D01*
X1131267Y23547466D01*
X1181718Y23481718D01*
X1181719Y23481716D01*
X1184415Y23478204D01*
X1210015Y23411984D01*
X1195750Y23342435D01*
X1146149Y23291639D01*
X1084452Y23275500D01*
X-1787566Y23275500D01*
X-1855687Y23295502D01*
X-1902180Y23349158D01*
X-1912487Y23417944D01*
X-1904318Y23480000D01*
X-1911274Y23532839D01*
X-1924955Y23636760D01*
X-1985463Y23782839D01*
X-1985465Y23782842D01*
X-1988695Y23787052D01*
X-2081718Y23908282D01*
X-2207159Y24004536D01*
X-2353238Y24065044D01*
X-2510000Y24085682D01*
X-2666762Y24065044D01*
X-2812841Y24004536D01*
X-2938282Y23908282D01*
X-3009675Y23815239D01*
X-3067012Y23773373D01*
X-3137883Y23769151D01*
X-3157855Y23775535D01*
X-3253238Y23815044D01*
X-3410000Y23835682D01*
X-3566762Y23815044D01*
X-3712841Y23754536D01*
X-3838282Y23658282D01*
X-3934536Y23532841D01*
X-3995044Y23386762D01*
X-4009922Y23273744D01*
X-4038644Y23208820D01*
X-4097909Y23169728D01*
X-4168900Y23168883D01*
X-4211545Y23190228D01*
X-4217159Y23194536D01*
X-4363238Y23255044D01*
X-4520000Y23275682D01*
X-4676762Y23255044D01*
X-4822841Y23194536D01*
X-4948282Y23098282D01*
X-4948282Y23098280D01*
X-4954834Y23093254D01*
X-4956630Y23095595D01*
X-5006472Y23068379D01*
X-5033255Y23065500D01*
X-5366102Y23065500D01*
X-5434223Y23085502D01*
X-5466065Y23114796D01*
X-5480690Y23133856D01*
X-5506218Y23167125D01*
X-5631659Y23263379D01*
X-5763064Y23317808D01*
X-5818344Y23362356D01*
X-5840765Y23429720D01*
X-5825967Y23493613D01*
X-5774968Y23589025D01*
X-5714898Y23787052D01*
X-5694617Y23992976D01*
X-5694617Y23992983D01*
X-5714898Y24198907D01*
X-5719124Y24212837D01*
X-5774968Y24396934D01*
X-5827904Y24495969D01*
X-5872513Y24579427D01*
X-5897738Y24610164D01*
X-6003790Y24739390D01*
X-6163750Y24870665D01*
X-6346246Y24968212D01*
X-6544266Y25028280D01*
X-6544270Y25028280D01*
X-6544272Y25028281D01*
X-6750197Y25048563D01*
X-6750203Y25048563D01*
X-6956127Y25028281D01*
X-6956128Y25028280D01*
X-6956134Y25028280D01*
X-7154154Y24968212D01*
X-7154169Y24968203D01*
X-7154821Y24967935D01*
X-7155202Y24967893D01*
X-7160078Y24966415D01*
X-7160358Y24967339D01*
X-7225411Y24960343D01*
X-7288899Y24992119D01*
X-7292140Y24995247D01*
X-8262595Y25965702D01*
X-8296621Y26028014D01*
X-8299500Y26054797D01*
X-8299500Y26366146D01*
X-8309640Y26450590D01*
X-8362635Y26584974D01*
X-8362638Y26584978D01*
X-8449921Y26700078D01*
X-8565021Y26787361D01*
X-8565025Y26787364D01*
X-8699409Y26840359D01*
X-8699408Y26840359D01*
X-8722457Y26843126D01*
X-8783856Y26850500D01*
X-12716144Y26850500D01*
X-12800590Y26840359D01*
X-12934975Y26787364D01*
X-13050078Y26700078D01*
X-13137364Y26584975D01*
X-13190359Y26450590D01*
X-13200500Y26366144D01*
X-19448384Y26366144D01*
X-19500024Y28866144D01*
X-13200500Y28866144D01*
X-13200500Y28133856D01*
X-13195889Y28095463D01*
X-13190359Y28049409D01*
X-13137364Y27915025D01*
X-13137361Y27915021D01*
X-13050078Y27799921D01*
X-12934978Y27712638D01*
X-12934974Y27712635D01*
X-12800590Y27659640D01*
X-12800591Y27659640D01*
X-12716146Y27649500D01*
X-12716144Y27649500D01*
X-8783853Y27649500D01*
X-8699409Y27659640D01*
X-8565026Y27712635D01*
X-8553128Y27721658D01*
X-8486763Y27746880D01*
X-8417297Y27732218D01*
X-8387901Y27710354D01*
X-7752467Y27074920D01*
X-7718441Y27012608D01*
X-7723506Y26941793D01*
X-7725155Y26937601D01*
X-7725423Y26936949D01*
X-7725432Y26936934D01*
X-7785500Y26738914D01*
X-7785500Y26738908D01*
X-7785501Y26738907D01*
X-7805783Y26532983D01*
X-7805783Y26532976D01*
X-7786497Y26337160D01*
X-7785500Y26327046D01*
X-7725432Y26129026D01*
X-7627885Y25946530D01*
X-7496610Y25786570D01*
X-7336650Y25655295D01*
X-7336648Y25655294D01*
X-7336647Y25655293D01*
X-7154154Y25557748D01*
X-6974902Y25503373D01*
X-6956127Y25497678D01*
X-6750203Y25477397D01*
X-6750200Y25477397D01*
X-6750197Y25477397D01*
X-6544272Y25497678D01*
X-6346245Y25557748D01*
X-6163752Y25655293D01*
X-6060536Y25740000D01*
X-2795682Y25740000D01*
X-2795682Y25739999D01*
X-2792717Y25717481D01*
X-2775044Y25583238D01*
X-2714536Y25437159D01*
X-2618282Y25311718D01*
X-2493276Y25215798D01*
X-2492842Y25215465D01*
X-2492839Y25215463D01*
X-2346760Y25154955D01*
X-2190000Y25134318D01*
X-2033239Y25154955D01*
X-1887160Y25215463D01*
X-1887153Y25215468D01*
X-1883202Y25218500D01*
X-1816981Y25244099D01*
X-1747433Y25229833D01*
X-1696638Y25180231D01*
X-1680500Y25118536D01*
X-1680500Y24854807D01*
X-1681783Y24836874D01*
X-1685647Y24810001D01*
X-1681782Y24783117D01*
X-1680500Y24765187D01*
X-1680500Y24340252D01*
X-1668867Y24281769D01*
X-1624552Y24215448D01*
X-1558231Y24171133D01*
X-1558228Y24171132D01*
X-1499750Y24159500D01*
X-1499748Y24159500D01*
X139750Y24159500D01*
X198228Y24171132D01*
X198231Y24171133D01*
X264552Y24215448D01*
X308867Y24281769D01*
X320500Y24340252D01*
X320500Y24765187D01*
X321782Y24783117D01*
X325647Y24810001D01*
X321783Y24836874D01*
X320500Y24854807D01*
X320500Y25279746D01*
X320500Y25279748D01*
X308867Y25338231D01*
X264552Y25404552D01*
X198231Y25448867D01*
X139748Y25460500D01*
X139747Y25460500D01*
X-593769Y25460500D01*
X-661890Y25480502D01*
X-708383Y25534158D01*
X-718487Y25604432D01*
X-688993Y25669012D01*
X-682864Y25675595D01*
X-640977Y25717481D01*
X-640976Y25717482D01*
X-590227Y25826314D01*
X-583700Y25875894D01*
X-583700Y26295698D01*
X-583701Y26295710D01*
X-590227Y26345283D01*
X-590229Y26345289D01*
X-640976Y26454117D01*
X-725882Y26539023D01*
X-783938Y26566095D01*
X-834713Y26589772D01*
X-884299Y26596300D01*
X-1244100Y26596299D01*
X-1244103Y26596298D01*
X-1244110Y26596298D01*
X-1262713Y26593848D01*
X-1293687Y26589772D01*
X-1402516Y26539024D01*
X-1487424Y26454116D01*
X-1538172Y26345287D01*
X-1544700Y26295701D01*
X-1544699Y26255454D01*
X-1564700Y26187336D01*
X-1618354Y26140842D01*
X-1688628Y26130736D01*
X-1753209Y26160228D01*
X-1759794Y26166359D01*
X-1761711Y26168276D01*
X-1761716Y26168280D01*
X-1761718Y26168282D01*
X-1887159Y26264536D01*
X-2033238Y26325044D01*
X-2190000Y26345682D01*
X-2346762Y26325044D01*
X-2492841Y26264536D01*
X-2618282Y26168282D01*
X-2714536Y26042841D01*
X-2775044Y25896762D01*
X-2784319Y25826313D01*
X-2795682Y25740000D01*
X-6060536Y25740000D01*
X-6003790Y25786570D01*
X-5872513Y25946532D01*
X-5774968Y26129025D01*
X-5714898Y26327052D01*
X-5694617Y26532976D01*
X-5694617Y26532983D01*
X-5714898Y26738907D01*
X-5715685Y26741500D01*
X-5774968Y26936934D01*
X-5814271Y27010465D01*
X-5872513Y27119427D01*
X-5872515Y27119430D01*
X-6003790Y27279390D01*
X-6163750Y27410665D01*
X-6346246Y27508212D01*
X-6544266Y27568280D01*
X-6544270Y27568280D01*
X-6544272Y27568281D01*
X-6750197Y27588563D01*
X-6750203Y27588563D01*
X-6956127Y27568281D01*
X-6956128Y27568280D01*
X-6956134Y27568280D01*
X-7154154Y27508212D01*
X-7154169Y27508203D01*
X-7154821Y27507935D01*
X-7155202Y27507893D01*
X-7160078Y27506415D01*
X-7160358Y27507339D01*
X-7225411Y27500343D01*
X-7288899Y27532119D01*
X-7292140Y27535247D01*
X-8262595Y28505702D01*
X-8296621Y28568014D01*
X-8299500Y28594797D01*
X-8299500Y28866146D01*
X-8309640Y28950590D01*
X-8362635Y29084974D01*
X-8362638Y29084978D01*
X-8449921Y29200078D01*
X-8565021Y29287361D01*
X-8565025Y29287364D01*
X-8699409Y29340359D01*
X-8699408Y29340359D01*
X-8722457Y29343126D01*
X-8783856Y29350500D01*
X-12716144Y29350500D01*
X-12800590Y29340359D01*
X-12934975Y29287364D01*
X-13050078Y29200078D01*
X-13137364Y29084975D01*
X-13190359Y28950590D01*
X-13200500Y28866144D01*
X-19500024Y28866144D01*
X-19551663Y31366144D01*
X-13200500Y31366144D01*
X-13200500Y30633856D01*
X-13195752Y30594318D01*
X-13190359Y30549409D01*
X-13137364Y30415025D01*
X-13137361Y30415021D01*
X-13050078Y30299921D01*
X-12934978Y30212638D01*
X-12934974Y30212635D01*
X-12800590Y30159640D01*
X-12800591Y30159640D01*
X-12716146Y30149500D01*
X-12716144Y30149500D01*
X-8783853Y30149500D01*
X-8699409Y30159640D01*
X-8565025Y30212635D01*
X-8565021Y30212638D01*
X-8530381Y30238907D01*
X-8464016Y30264131D01*
X-8394550Y30249471D01*
X-8365152Y30227605D01*
X-7752467Y29614920D01*
X-7718441Y29552608D01*
X-7723506Y29481793D01*
X-7725155Y29477601D01*
X-7725423Y29476949D01*
X-7725432Y29476934D01*
X-7785500Y29278914D01*
X-7785500Y29278908D01*
X-7785501Y29278907D01*
X-7805783Y29072983D01*
X-7805783Y29072976D01*
X-7787202Y28884318D01*
X-7785500Y28867046D01*
X-7725432Y28669026D01*
X-7627885Y28486530D01*
X-7496610Y28326570D01*
X-7336650Y28195295D01*
X-7336648Y28195294D01*
X-7336647Y28195293D01*
X-7221707Y28133856D01*
X-7154154Y28097748D01*
X-6994800Y28049409D01*
X-6956127Y28037678D01*
X-6750203Y28017397D01*
X-6750200Y28017397D01*
X-6750197Y28017397D01*
X-6544272Y28037678D01*
X-6346245Y28097748D01*
X-6163752Y28195293D01*
X-6003790Y28326570D01*
X-5872513Y28486532D01*
X-5774968Y28669025D01*
X-5714898Y28867052D01*
X-5694617Y29072976D01*
X-5694617Y29072983D01*
X-5702202Y29150000D01*
X-3995682Y29150000D01*
X-3995682Y29149999D01*
X-3987122Y29084978D01*
X-3975044Y28993238D01*
X-3914536Y28847159D01*
X-3818282Y28721718D01*
X-3712010Y28640173D01*
X-3692842Y28625465D01*
X-3692839Y28625463D01*
X-3546760Y28564955D01*
X-3390000Y28544318D01*
X-3233239Y28564955D01*
X-3087160Y28625463D01*
X-3087157Y28625465D01*
X-2961718Y28721718D01*
X-2865465Y28847157D01*
X-2865463Y28847160D01*
X-2804955Y28993239D01*
X-2784318Y29149999D01*
X-2784318Y29150001D01*
X-2793117Y29216841D01*
X-2782177Y29286989D01*
X-2757294Y29322378D01*
X-2732082Y29347592D01*
X-2669771Y29381619D01*
X-2642983Y29384500D01*
X-1269286Y29384500D01*
X-1201165Y29364498D01*
X-1169324Y29335204D01*
X-1132327Y29286989D01*
X-1128282Y29281718D01*
X-1080220Y29244839D01*
X-1002842Y29185465D01*
X-1002839Y29185463D01*
X-856760Y29124955D01*
X-700000Y29104318D01*
X-543239Y29124955D01*
X-397160Y29185463D01*
X-397157Y29185465D01*
X-271718Y29281718D01*
X-175465Y29407157D01*
X-175463Y29407160D01*
X-114955Y29553239D01*
X-94318Y29709999D01*
X-94318Y29710000D01*
X-114955Y29866760D01*
X-175463Y30012839D01*
X-175465Y30012842D01*
X-176765Y30014536D01*
X-271718Y30138282D01*
X-397159Y30234536D01*
X-543238Y30295044D01*
X-700000Y30315682D01*
X-856762Y30295044D01*
X-1002841Y30234536D01*
X-1128282Y30138282D01*
X-1128284Y30138279D01*
X-1169324Y30084796D01*
X-1226662Y30042929D01*
X-1269286Y30035500D01*
X-2779413Y30035500D01*
X-2779429Y30035501D01*
X-2787147Y30035501D01*
X-2872853Y30035501D01*
X-2955638Y30013318D01*
X-3029862Y29970465D01*
X-3029868Y29970459D01*
X-3100832Y29899495D01*
X-3100839Y29899485D01*
X-3217618Y29782706D01*
X-3279928Y29748682D01*
X-3323154Y29746881D01*
X-3390000Y29755682D01*
X-3546762Y29735044D01*
X-3692841Y29674536D01*
X-3818282Y29578282D01*
X-3914536Y29452841D01*
X-3975044Y29306762D01*
X-3983196Y29244839D01*
X-3995682Y29150000D01*
X-5702202Y29150000D01*
X-5714898Y29278907D01*
X-5717350Y29286989D01*
X-5774968Y29476934D01*
X-5790520Y29506029D01*
X-5872513Y29659427D01*
X-5882471Y29671561D01*
X-6003790Y29819390D01*
X-6163750Y29950665D01*
X-6346246Y30048212D01*
X-6544266Y30108280D01*
X-6544270Y30108280D01*
X-6544272Y30108281D01*
X-6750197Y30128563D01*
X-6750203Y30128563D01*
X-6956127Y30108281D01*
X-6956128Y30108280D01*
X-6956134Y30108280D01*
X-7154154Y30048212D01*
X-7154169Y30048203D01*
X-7154821Y30047935D01*
X-7155202Y30047893D01*
X-7160078Y30046415D01*
X-7160358Y30047339D01*
X-7225411Y30040343D01*
X-7288899Y30072119D01*
X-7292113Y30075220D01*
X-8262596Y31045702D01*
X-8296620Y31108013D01*
X-8299500Y31134796D01*
X-8299500Y31366146D01*
X-8309640Y31450590D01*
X-8362635Y31584974D01*
X-8362638Y31584978D01*
X-8449921Y31700078D01*
X-8565021Y31787361D01*
X-8565025Y31787364D01*
X-8699409Y31840359D01*
X-8699408Y31840359D01*
X-8722593Y31843143D01*
X-8783856Y31850500D01*
X-12716144Y31850500D01*
X-12800590Y31840359D01*
X-12934975Y31787364D01*
X-13050078Y31700078D01*
X-13137364Y31584975D01*
X-13190359Y31450590D01*
X-13200500Y31366144D01*
X-19551663Y31366144D01*
X-19603303Y33866144D01*
X-13200500Y33866144D01*
X-13200500Y33133856D01*
X-13193990Y33079648D01*
X-13190359Y33049409D01*
X-13137364Y32915025D01*
X-13137361Y32915021D01*
X-13050078Y32799921D01*
X-12934978Y32712638D01*
X-12934974Y32712635D01*
X-12800590Y32659640D01*
X-12800591Y32659640D01*
X-12716146Y32649500D01*
X-12716144Y32649500D01*
X-8783853Y32649500D01*
X-8699409Y32659640D01*
X-8565025Y32712635D01*
X-8565021Y32712638D01*
X-8507632Y32756158D01*
X-8441267Y32781382D01*
X-8371801Y32766721D01*
X-8342403Y32744856D01*
X-7752467Y32154920D01*
X-7718441Y32092608D01*
X-7723506Y32021793D01*
X-7725155Y32017601D01*
X-7725423Y32016949D01*
X-7725432Y32016934D01*
X-7785500Y31818914D01*
X-7785500Y31818908D01*
X-7785501Y31818907D01*
X-7805783Y31612983D01*
X-7805783Y31612976D01*
X-7791657Y31469552D01*
X-7785500Y31407046D01*
X-7725432Y31209026D01*
X-7627885Y31026530D01*
X-7496610Y30866570D01*
X-7336650Y30735295D01*
X-7336648Y30735294D01*
X-7336647Y30735293D01*
X-7224723Y30675468D01*
X-7154154Y30637748D01*
X-7010983Y30594318D01*
X-6956127Y30577678D01*
X-6750203Y30557397D01*
X-6750200Y30557397D01*
X-6750197Y30557397D01*
X-6544272Y30577678D01*
X-6346245Y30637748D01*
X-6163752Y30735293D01*
X-6003790Y30866570D01*
X-5872513Y31026532D01*
X-5774968Y31209025D01*
X-5714898Y31407052D01*
X-5694617Y31612976D01*
X-5694617Y31612983D01*
X-5714898Y31818907D01*
X-5722249Y31843139D01*
X-5774968Y32016934D01*
X-5793092Y32050842D01*
X-5872513Y32199427D01*
X-5872515Y32199430D01*
X-6003790Y32359390D01*
X-6163750Y32490665D01*
X-6346246Y32588212D01*
X-6544266Y32648280D01*
X-6544270Y32648280D01*
X-6544272Y32648281D01*
X-6750197Y32668563D01*
X-6750203Y32668563D01*
X-6956127Y32648281D01*
X-6956128Y32648280D01*
X-6956134Y32648280D01*
X-7154154Y32588212D01*
X-7154169Y32588203D01*
X-7154821Y32587935D01*
X-7155202Y32587893D01*
X-7160078Y32586415D01*
X-7160358Y32587339D01*
X-7225411Y32580343D01*
X-7288899Y32612119D01*
X-7292140Y32615247D01*
X-8262595Y33585702D01*
X-8296621Y33648014D01*
X-8299500Y33674797D01*
X-8299500Y33866146D01*
X-8309640Y33950590D01*
X-8362635Y34084974D01*
X-8362638Y34084978D01*
X-8449921Y34200078D01*
X-8565021Y34287361D01*
X-8565025Y34287364D01*
X-8699409Y34340359D01*
X-8699408Y34340359D01*
X-8722457Y34343126D01*
X-8783856Y34350500D01*
X-12716144Y34350500D01*
X-12800590Y34340359D01*
X-12934975Y34287364D01*
X-13050078Y34200078D01*
X-13137364Y34084975D01*
X-13190359Y33950590D01*
X-13200500Y33866144D01*
X-19603303Y33866144D01*
X-19704517Y38766144D01*
X-13200500Y38766144D01*
X-13200500Y38033856D01*
X-13197020Y38004881D01*
X-13190359Y37949409D01*
X-13137364Y37815025D01*
X-13137361Y37815021D01*
X-13050078Y37699921D01*
X-12934978Y37612638D01*
X-12934974Y37612635D01*
X-12800590Y37559640D01*
X-12800591Y37559640D01*
X-12716146Y37549500D01*
X-12716144Y37549500D01*
X-8783853Y37549500D01*
X-8699409Y37559640D01*
X-8565025Y37612635D01*
X-8565021Y37612638D01*
X-8449921Y37699921D01*
X-8362638Y37815021D01*
X-8362635Y37815025D01*
X-8309640Y37949409D01*
X-8307946Y37963523D01*
X-8279965Y38028773D01*
X-8221149Y38068537D01*
X-8182845Y38074500D01*
X-7987017Y38074500D01*
X-7918896Y38054498D01*
X-7897922Y38037595D01*
X-7735286Y37874959D01*
X-7701260Y37812647D01*
X-7706325Y37741832D01*
X-7738509Y37698838D01*
X-7735978Y37696307D01*
X-7744749Y37687535D01*
X-7744750Y37687533D01*
X-7744752Y37687532D01*
X-7789067Y37621211D01*
X-7800700Y37562728D01*
X-7800700Y37562726D01*
X-7800700Y35967997D01*
X-7820702Y35899876D01*
X-7874358Y35853383D01*
X-7944632Y35843279D01*
X-8009212Y35872773D01*
X-8015795Y35878902D01*
X-8087940Y35951047D01*
X-8107962Y35977139D01*
X-8109530Y35979855D01*
X-8109532Y35979858D01*
X-8109535Y35979862D01*
X-8262596Y36132923D01*
X-8296620Y36195233D01*
X-8299500Y36222017D01*
X-8299500Y36366146D01*
X-8309640Y36450590D01*
X-8362635Y36584974D01*
X-8362638Y36584978D01*
X-8449921Y36700078D01*
X-8565021Y36787361D01*
X-8565025Y36787364D01*
X-8699409Y36840359D01*
X-8699408Y36840359D01*
X-8722457Y36843126D01*
X-8783856Y36850500D01*
X-12716144Y36850500D01*
X-12800590Y36840359D01*
X-12934975Y36787364D01*
X-13050078Y36700078D01*
X-13137364Y36584975D01*
X-13190359Y36450590D01*
X-13200500Y36366144D01*
X-13200500Y35633856D01*
X-13191260Y35556910D01*
X-13190359Y35549410D01*
X-13137364Y35415025D01*
X-13137361Y35415021D01*
X-13050078Y35299921D01*
X-12934978Y35212638D01*
X-12934974Y35212635D01*
X-12800590Y35159640D01*
X-12800591Y35159640D01*
X-12716146Y35149500D01*
X-12716144Y35149500D01*
X-8783853Y35149500D01*
X-8699409Y35159640D01*
X-8565025Y35212635D01*
X-8565021Y35212638D01*
X-8484883Y35273409D01*
X-8418518Y35298633D01*
X-8349051Y35283972D01*
X-8319654Y35262107D01*
X-7752467Y34694920D01*
X-7718441Y34632608D01*
X-7723506Y34561793D01*
X-7725155Y34557601D01*
X-7725423Y34556949D01*
X-7725432Y34556934D01*
X-7785500Y34358914D01*
X-7785500Y34358908D01*
X-7785501Y34358907D01*
X-7805783Y34152983D01*
X-7805783Y34152976D01*
X-7790178Y33994534D01*
X-7785500Y33947046D01*
X-7725432Y33749026D01*
X-7627885Y33566530D01*
X-7496610Y33406570D01*
X-7336650Y33275295D01*
X-7336648Y33275294D01*
X-7336647Y33275293D01*
X-7180896Y33192042D01*
X-7154154Y33177748D01*
X-7009460Y33133856D01*
X-6956127Y33117678D01*
X-6750203Y33097397D01*
X-6750200Y33097397D01*
X-6750197Y33097397D01*
X-6544272Y33117678D01*
X-6346245Y33177748D01*
X-6163752Y33275293D01*
X-6003790Y33406570D01*
X-5951735Y33470000D01*
X-3255682Y33470000D01*
X-3255682Y33469999D01*
X-3252823Y33448282D01*
X-3235044Y33313238D01*
X-3174536Y33167159D01*
X-3078282Y33041718D01*
X-2967244Y32956516D01*
X-2952842Y32945465D01*
X-2952839Y32945463D01*
X-2806760Y32884955D01*
X-2650000Y32864318D01*
X-2649998Y32864318D01*
X-2583158Y32873117D01*
X-2513009Y32862177D01*
X-2477618Y32837290D01*
X-2399868Y32759540D01*
X-2399858Y32759532D01*
X-2325643Y32716684D01*
X-2325641Y32716683D01*
X-2325639Y32716682D01*
X-2242853Y32694500D01*
X-309286Y32694500D01*
X-241165Y32674498D01*
X-209324Y32645204D01*
X-168284Y32591720D01*
X-168282Y32591718D01*
X-42842Y32495465D01*
X-42839Y32495463D01*
X103239Y32434955D01*
X260000Y32414318D01*
X416760Y32434955D01*
X562839Y32495463D01*
X562842Y32495465D01*
X688282Y32591718D01*
X784536Y32717159D01*
X845044Y32863238D01*
X865682Y33020000D01*
X845044Y33176762D01*
X784536Y33322841D01*
X688282Y33448282D01*
X562841Y33544536D01*
X416762Y33605044D01*
X260000Y33625682D01*
X103238Y33605044D01*
X-42841Y33544536D01*
X-168282Y33448282D01*
X-168284Y33448279D01*
X-209324Y33394796D01*
X-266662Y33352929D01*
X-309286Y33345500D01*
X-1918318Y33345500D01*
X-1986439Y33365502D01*
X-2032932Y33419158D01*
X-2042239Y33461943D01*
X-2043240Y33461812D01*
X-2064955Y33626760D01*
X-2125463Y33772839D01*
X-2125465Y33772842D01*
X-2221718Y33898282D01*
X-2347159Y33994536D01*
X-2349928Y33996134D01*
X-2351798Y33998095D01*
X-2353711Y33999563D01*
X-2353482Y33999860D01*
X-2398926Y34047512D01*
X-2411553Y34113006D01*
X-2414015Y34106858D01*
X-2471845Y34065673D01*
X-2529508Y34059819D01*
X-2650000Y34075682D01*
X-2806762Y34055044D01*
X-2952841Y33994536D01*
X-3078282Y33898282D01*
X-3174536Y33772841D01*
X-3235044Y33626762D01*
X-3245869Y33544536D01*
X-3255682Y33470000D01*
X-5951735Y33470000D01*
X-5872513Y33566532D01*
X-5774968Y33749025D01*
X-5714898Y33947052D01*
X-5694617Y34152976D01*
X-5694617Y34152983D01*
X-5714898Y34358907D01*
X-5743274Y34452450D01*
X-5774968Y34556934D01*
X-5815417Y34632608D01*
X-5872513Y34739427D01*
X-5872515Y34739430D01*
X-6003790Y34899390D01*
X-6163750Y35030665D01*
X-6346246Y35128212D01*
X-6544266Y35188280D01*
X-6544270Y35188280D01*
X-6544272Y35188281D01*
X-6750197Y35208563D01*
X-6750203Y35208563D01*
X-6956127Y35188281D01*
X-6956128Y35188280D01*
X-6956134Y35188280D01*
X-7154154Y35128212D01*
X-7154169Y35128203D01*
X-7154821Y35127935D01*
X-7155202Y35127893D01*
X-7160078Y35126415D01*
X-7160358Y35127339D01*
X-7225411Y35120343D01*
X-7288899Y35152119D01*
X-7292140Y35155247D01*
X-7564278Y35427385D01*
X-7598304Y35489697D01*
X-7593239Y35560512D01*
X-7550692Y35617348D01*
X-7484172Y35642159D01*
X-7475183Y35642480D01*
X-5880449Y35642480D01*
X-5821971Y35654112D01*
X-5821968Y35654113D01*
X-5755648Y35698428D01*
X-5711333Y35764748D01*
X-5711332Y35764751D01*
X-5699700Y35823229D01*
X-5699700Y37562730D01*
X-5711332Y37621208D01*
X-5711333Y37621211D01*
X-5714710Y37626265D01*
X-5755648Y37687532D01*
X-5821969Y37731847D01*
X-5880452Y37743480D01*
X-5880453Y37743480D01*
X-6630963Y37743480D01*
X-6699084Y37763482D01*
X-6720053Y37780380D01*
X-7600138Y38660465D01*
X-7625892Y38675334D01*
X-7674356Y38703315D01*
X-7674361Y38703318D01*
X-7757147Y38725500D01*
X-7757149Y38725500D01*
X-8182845Y38725500D01*
X-8250966Y38745502D01*
X-8297459Y38799158D01*
X-8307946Y38836477D01*
X-8309640Y38850590D01*
X-8362635Y38984974D01*
X-8362638Y38984978D01*
X-8449921Y39100078D01*
X-8565021Y39187361D01*
X-8565025Y39187364D01*
X-8699409Y39240359D01*
X-8699408Y39240359D01*
X-8722457Y39243126D01*
X-8783856Y39250500D01*
X-12716144Y39250500D01*
X-12800590Y39240359D01*
X-12934975Y39187364D01*
X-13050078Y39100078D01*
X-13137364Y38984975D01*
X-13190359Y38850590D01*
X-13200500Y38766144D01*
X-19704517Y38766144D01*
X-19740070Y40487362D01*
X-19721479Y40555881D01*
X-19668795Y40603472D01*
X-19598745Y40615025D01*
X-19538588Y40590832D01*
X-19492329Y40556203D01*
X-19357482Y40505909D01*
X-19357485Y40505909D01*
X-19297877Y40499500D01*
X-19297872Y40499500D01*
X-15902122Y40499500D01*
X-15842516Y40505909D01*
X-15707670Y40556203D01*
X-15592453Y40642453D01*
X-15506203Y40757670D01*
X-15455909Y40892516D01*
X-15449500Y40952122D01*
X-15449500Y42003160D01*
X-15429498Y42071281D01*
X-15375842Y42117774D01*
X-15325018Y42129151D01*
X-9127518Y42203800D01*
X-9059161Y42184620D01*
G37*
%TD.AperFunction*%
%TD*%
M02*
