%TF.GenerationSoftware,KiCad,Pcbnew,8.0.5*%
%TF.CreationDate,2024-11-05T15:42:06+00:00*%
%TF.ProjectId,ADE_Main_V4,4144455f-4d61-4696-9e5f-56342e6b6963,rev?*%
%TF.SameCoordinates,Original*%
%TF.FileFunction,Drillmap*%
%TF.FilePolarity,Positive*%
%FSLAX45Y45*%
G04 Gerber Fmt 4.5, Leading zero omitted, Abs format (unit mm)*
G04 Created by KiCad (PCBNEW 8.0.5) date 2024-11-05 15:42:06*
%MOMM*%
%LPD*%
G01*
G04 APERTURE LIST*
%ADD10C,0.100000*%
%ADD11C,0.200000*%
G04 APERTURE END LIST*
D10*
X380000Y2755000D02*
X420000Y2795000D01*
X-2000000Y4250000D02*
X-2000000Y1650000D01*
X2765000Y2795000D02*
X2765000Y4000000D01*
X-900000Y4250000D02*
X-2000000Y4250000D01*
X-2000000Y1650000D02*
X375000Y1650000D01*
X-900000Y4000000D02*
X2765000Y4000000D01*
X-900000Y4250000D02*
X-900000Y4000000D01*
X735000Y2795000D02*
X420000Y2795000D01*
X375000Y2750000D02*
X375000Y1650000D01*
X380000Y2755000D02*
X375000Y2750000D01*
X735000Y2795000D02*
X735000Y2005000D01*
X735000Y2005000D02*
X785000Y1955000D01*
X1405000Y1955000D02*
X785000Y1955000D01*
X1455000Y2700000D02*
X1455000Y2005000D01*
X1455000Y2005000D02*
X1405000Y1955000D01*
X1645000Y2700000D02*
X1645000Y2005000D01*
X1645000Y2005000D02*
X1695000Y1955000D01*
X2715000Y1955000D02*
X1695000Y1955000D01*
X2765000Y2795000D02*
X2765000Y2005000D01*
X2765000Y2005000D02*
X2715000Y1955000D01*
X1455000Y2700000D02*
G75*
G02*
X1645000Y2700000I95000J0D01*
G01*
D11*
D10*
X-130500Y3622500D02*
X-105500Y3597500D01*
X-105500Y3622500D02*
X-130500Y3597500D01*
X-130500Y2493500D02*
X-105500Y2468500D01*
X-105500Y2493500D02*
X-130500Y2468500D01*
X-30500Y3622500D02*
X-5500Y3597500D01*
X-5500Y3622500D02*
X-30500Y3597500D01*
X-30500Y2493500D02*
X-5500Y2468500D01*
X-5500Y2493500D02*
X-30500Y2468500D01*
X-1844000Y3756360D02*
G75*
G02*
X-1884000Y3756360I-20000J0D01*
G01*
X-1884000Y3756360D02*
G75*
G02*
X-1844000Y3756360I20000J0D01*
G01*
X-1844000Y3502360D02*
G75*
G02*
X-1884000Y3502360I-20000J0D01*
G01*
X-1884000Y3502360D02*
G75*
G02*
X-1844000Y3502360I20000J0D01*
G01*
X-1844000Y3248360D02*
G75*
G02*
X-1884000Y3248360I-20000J0D01*
G01*
X-1884000Y3248360D02*
G75*
G02*
X-1844000Y3248360I20000J0D01*
G01*
X-1844000Y2994360D02*
G75*
G02*
X-1884000Y2994360I-20000J0D01*
G01*
X-1884000Y2994360D02*
G75*
G02*
X-1844000Y2994360I20000J0D01*
G01*
X-1844000Y2740360D02*
G75*
G02*
X-1884000Y2740360I-20000J0D01*
G01*
X-1884000Y2740360D02*
G75*
G02*
X-1844000Y2740360I20000J0D01*
G01*
X-1844000Y2486360D02*
G75*
G02*
X-1884000Y2486360I-20000J0D01*
G01*
X-1884000Y2486360D02*
G75*
G02*
X-1844000Y2486360I20000J0D01*
G01*
X-1844000Y2232360D02*
G75*
G02*
X-1884000Y2232360I-20000J0D01*
G01*
X-1884000Y2232360D02*
G75*
G02*
X-1844000Y2232360I20000J0D01*
G01*
X-1844000Y1978360D02*
G75*
G02*
X-1884000Y1978360I-20000J0D01*
G01*
X-1884000Y1978360D02*
G75*
G02*
X-1844000Y1978360I20000J0D01*
G01*
X-1590000Y3756360D02*
G75*
G02*
X-1630000Y3756360I-20000J0D01*
G01*
X-1630000Y3756360D02*
G75*
G02*
X-1590000Y3756360I20000J0D01*
G01*
X-1590000Y3502360D02*
G75*
G02*
X-1630000Y3502360I-20000J0D01*
G01*
X-1630000Y3502360D02*
G75*
G02*
X-1590000Y3502360I20000J0D01*
G01*
X-1590000Y3248360D02*
G75*
G02*
X-1630000Y3248360I-20000J0D01*
G01*
X-1630000Y3248360D02*
G75*
G02*
X-1590000Y3248360I20000J0D01*
G01*
X-1590000Y2994360D02*
G75*
G02*
X-1630000Y2994360I-20000J0D01*
G01*
X-1630000Y2994360D02*
G75*
G02*
X-1590000Y2994360I20000J0D01*
G01*
X-1590000Y2740360D02*
G75*
G02*
X-1630000Y2740360I-20000J0D01*
G01*
X-1630000Y2740360D02*
G75*
G02*
X-1590000Y2740360I20000J0D01*
G01*
X-1590000Y2486360D02*
G75*
G02*
X-1630000Y2486360I-20000J0D01*
G01*
X-1630000Y2486360D02*
G75*
G02*
X-1590000Y2486360I20000J0D01*
G01*
X-1590000Y2232360D02*
G75*
G02*
X-1630000Y2232360I-20000J0D01*
G01*
X-1630000Y2232360D02*
G75*
G02*
X-1590000Y2232360I20000J0D01*
G01*
X-1590000Y1978360D02*
G75*
G02*
X-1630000Y1978360I-20000J0D01*
G01*
X-1630000Y1978360D02*
G75*
G02*
X-1590000Y1978360I20000J0D01*
G01*
X-1432000Y2909000D02*
G75*
G02*
X-1472000Y2909000I-20000J0D01*
G01*
X-1472000Y2909000D02*
G75*
G02*
X-1432000Y2909000I20000J0D01*
G01*
X-1424000Y3720000D02*
G75*
G02*
X-1464000Y3720000I-20000J0D01*
G01*
X-1464000Y3720000D02*
G75*
G02*
X-1424000Y3720000I20000J0D01*
G01*
X-1390000Y2306000D02*
G75*
G02*
X-1430000Y2306000I-20000J0D01*
G01*
X-1430000Y2306000D02*
G75*
G02*
X-1390000Y2306000I20000J0D01*
G01*
X-1336000Y4010360D02*
G75*
G02*
X-1376000Y4010360I-20000J0D01*
G01*
X-1376000Y4010360D02*
G75*
G02*
X-1336000Y4010360I20000J0D01*
G01*
X-1336000Y2740360D02*
G75*
G02*
X-1376000Y2740360I-20000J0D01*
G01*
X-1376000Y2740360D02*
G75*
G02*
X-1336000Y2740360I20000J0D01*
G01*
X-1336000Y2486360D02*
G75*
G02*
X-1376000Y2486360I-20000J0D01*
G01*
X-1376000Y2486360D02*
G75*
G02*
X-1336000Y2486360I20000J0D01*
G01*
X-1336000Y1978360D02*
G75*
G02*
X-1376000Y1978360I-20000J0D01*
G01*
X-1376000Y1978360D02*
G75*
G02*
X-1336000Y1978360I20000J0D01*
G01*
X-1325000Y1814000D02*
G75*
G02*
X-1365000Y1814000I-20000J0D01*
G01*
X-1365000Y1814000D02*
G75*
G02*
X-1325000Y1814000I20000J0D01*
G01*
X-1082000Y4010360D02*
G75*
G02*
X-1122000Y4010360I-20000J0D01*
G01*
X-1122000Y4010360D02*
G75*
G02*
X-1082000Y4010360I20000J0D01*
G01*
X-573450Y2273884D02*
G75*
G02*
X-613450Y2273884I-20000J0D01*
G01*
X-613450Y2273884D02*
G75*
G02*
X-573450Y2273884I20000J0D01*
G01*
X-503000Y2588000D02*
G75*
G02*
X-543000Y2588000I-20000J0D01*
G01*
X-543000Y2588000D02*
G75*
G02*
X-503000Y2588000I20000J0D01*
G01*
X-456566Y2003391D02*
G75*
G02*
X-496566Y2003391I-20000J0D01*
G01*
X-496566Y2003391D02*
G75*
G02*
X-456566Y2003391I20000J0D01*
G01*
X-432000Y2267000D02*
G75*
G02*
X-472000Y2267000I-20000J0D01*
G01*
X-472000Y2267000D02*
G75*
G02*
X-432000Y2267000I20000J0D01*
G01*
X-321000Y2323000D02*
G75*
G02*
X-361000Y2323000I-20000J0D01*
G01*
X-361000Y2323000D02*
G75*
G02*
X-321000Y2323000I20000J0D01*
G01*
X-319000Y2915000D02*
G75*
G02*
X-359000Y2915000I-20000J0D01*
G01*
X-359000Y2915000D02*
G75*
G02*
X-319000Y2915000I20000J0D01*
G01*
X-245000Y3347000D02*
G75*
G02*
X-285000Y3347000I-20000J0D01*
G01*
X-285000Y3347000D02*
G75*
G02*
X-245000Y3347000I20000J0D01*
G01*
X-240000Y3669000D02*
G75*
G02*
X-280000Y3669000I-20000J0D01*
G01*
X-280000Y3669000D02*
G75*
G02*
X-240000Y3669000I20000J0D01*
G01*
X-234000Y3934460D02*
G75*
G02*
X-274000Y3934460I-20000J0D01*
G01*
X-274000Y3934460D02*
G75*
G02*
X-234000Y3934460I20000J0D01*
G01*
X-231000Y2348000D02*
G75*
G02*
X-271000Y2348000I-20000J0D01*
G01*
X-271000Y2348000D02*
G75*
G02*
X-231000Y2348000I20000J0D01*
G01*
X-199000Y2574000D02*
G75*
G02*
X-239000Y2574000I-20000J0D01*
G01*
X-239000Y2574000D02*
G75*
G02*
X-199000Y2574000I20000J0D01*
G01*
X-195000Y3482000D02*
G75*
G02*
X-235000Y3482000I-20000J0D01*
G01*
X-235000Y3482000D02*
G75*
G02*
X-195000Y3482000I20000J0D01*
G01*
X-177550Y3755337D02*
G75*
G02*
X-217550Y3755337I-20000J0D01*
G01*
X-217550Y3755337D02*
G75*
G02*
X-177550Y3755337I20000J0D01*
G01*
X-50000Y2971000D02*
G75*
G02*
X-90000Y2971000I-20000J0D01*
G01*
X-90000Y2971000D02*
G75*
G02*
X-50000Y2971000I20000J0D01*
G01*
X13000Y1889000D02*
G75*
G02*
X-27000Y1889000I-20000J0D01*
G01*
X-27000Y1889000D02*
G75*
G02*
X13000Y1889000I20000J0D01*
G01*
X43000Y2082450D02*
G75*
G02*
X3000Y2082450I-20000J0D01*
G01*
X3000Y2082450D02*
G75*
G02*
X43000Y2082450I20000J0D01*
G01*
X46000Y3302000D02*
G75*
G02*
X6000Y3302000I-20000J0D01*
G01*
X6000Y3302000D02*
G75*
G02*
X46000Y3302000I20000J0D01*
G01*
X50916Y3861056D02*
G75*
G02*
X10916Y3861056I-20000J0D01*
G01*
X10916Y3861056D02*
G75*
G02*
X50916Y3861056I20000J0D01*
G01*
X59000Y1794000D02*
G75*
G02*
X19000Y1794000I-20000J0D01*
G01*
X19000Y1794000D02*
G75*
G02*
X59000Y1794000I20000J0D01*
G01*
X86000Y3169000D02*
G75*
G02*
X46000Y3169000I-20000J0D01*
G01*
X46000Y3169000D02*
G75*
G02*
X86000Y3169000I20000J0D01*
G01*
X87000Y2832000D02*
G75*
G02*
X47000Y2832000I-20000J0D01*
G01*
X47000Y2832000D02*
G75*
G02*
X87000Y2832000I20000J0D01*
G01*
X120100Y2606000D02*
G75*
G02*
X80100Y2606000I-20000J0D01*
G01*
X80100Y2606000D02*
G75*
G02*
X120100Y2606000I20000J0D01*
G01*
X124000Y3573000D02*
G75*
G02*
X84000Y3573000I-20000J0D01*
G01*
X84000Y3573000D02*
G75*
G02*
X124000Y3573000I20000J0D01*
G01*
X181000Y2391000D02*
G75*
G02*
X141000Y2391000I-20000J0D01*
G01*
X141000Y2391000D02*
G75*
G02*
X181000Y2391000I20000J0D01*
G01*
X182550Y3504714D02*
G75*
G02*
X142550Y3504714I-20000J0D01*
G01*
X142550Y3504714D02*
G75*
G02*
X182550Y3504714I20000J0D01*
G01*
X205000Y3904550D02*
G75*
G02*
X165000Y3904550I-20000J0D01*
G01*
X165000Y3904550D02*
G75*
G02*
X205000Y3904550I20000J0D01*
G01*
X215580Y1696720D02*
G75*
G02*
X175580Y1696720I-20000J0D01*
G01*
X175580Y1696720D02*
G75*
G02*
X215580Y1696720I20000J0D01*
G01*
X247748Y2235755D02*
G75*
G02*
X207748Y2235755I-20000J0D01*
G01*
X207748Y2235755D02*
G75*
G02*
X247748Y2235755I20000J0D01*
G01*
X275000Y2354000D02*
G75*
G02*
X235000Y2354000I-20000J0D01*
G01*
X235000Y2354000D02*
G75*
G02*
X275000Y2354000I20000J0D01*
G01*
X324800Y3736340D02*
G75*
G02*
X284800Y3736340I-20000J0D01*
G01*
X284800Y3736340D02*
G75*
G02*
X324800Y3736340I20000J0D01*
G01*
X340040Y1986280D02*
G75*
G02*
X300040Y1986280I-20000J0D01*
G01*
X300040Y1986280D02*
G75*
G02*
X340040Y1986280I20000J0D01*
G01*
X372402Y2862000D02*
G75*
G02*
X332402Y2862000I-20000J0D01*
G01*
X332402Y2862000D02*
G75*
G02*
X372402Y2862000I20000J0D01*
G01*
X421320Y3398520D02*
G75*
G02*
X381320Y3398520I-20000J0D01*
G01*
X381320Y3398520D02*
G75*
G02*
X421320Y3398520I20000J0D01*
G01*
X443000Y2949000D02*
G75*
G02*
X403000Y2949000I-20000J0D01*
G01*
X403000Y2949000D02*
G75*
G02*
X443000Y2949000I20000J0D01*
G01*
X462845Y3311150D02*
G75*
G02*
X422845Y3311150I-20000J0D01*
G01*
X422845Y3311150D02*
G75*
G02*
X462845Y3311150I20000J0D01*
G01*
X463000Y3740000D02*
G75*
G02*
X423000Y3740000I-20000J0D01*
G01*
X423000Y3740000D02*
G75*
G02*
X463000Y3740000I20000J0D01*
G01*
X530000Y2972000D02*
G75*
G02*
X490000Y2972000I-20000J0D01*
G01*
X490000Y2972000D02*
G75*
G02*
X530000Y2972000I20000J0D01*
G01*
X574000Y3893000D02*
G75*
G02*
X534000Y3893000I-20000J0D01*
G01*
X534000Y3893000D02*
G75*
G02*
X574000Y3893000I20000J0D01*
G01*
X638230Y2954620D02*
G75*
G02*
X598230Y2954620I-20000J0D01*
G01*
X598230Y2954620D02*
G75*
G02*
X638230Y2954620I20000J0D01*
G01*
X806390Y3012440D02*
G75*
G02*
X766390Y3012440I-20000J0D01*
G01*
X766390Y3012440D02*
G75*
G02*
X806390Y3012440I20000J0D01*
G01*
X825000Y2574000D02*
G75*
G02*
X785000Y2574000I-20000J0D01*
G01*
X785000Y2574000D02*
G75*
G02*
X825000Y2574000I20000J0D01*
G01*
X859341Y2912341D02*
G75*
G02*
X819341Y2912341I-20000J0D01*
G01*
X819341Y2912341D02*
G75*
G02*
X859341Y2912341I20000J0D01*
G01*
X922000Y2595000D02*
G75*
G02*
X882000Y2595000I-20000J0D01*
G01*
X882000Y2595000D02*
G75*
G02*
X922000Y2595000I20000J0D01*
G01*
X934391Y2783391D02*
G75*
G02*
X894391Y2783391I-20000J0D01*
G01*
X894391Y2783391D02*
G75*
G02*
X934391Y2783391I20000J0D01*
G01*
X965768Y2982550D02*
G75*
G02*
X925768Y2982550I-20000J0D01*
G01*
X925768Y2982550D02*
G75*
G02*
X965768Y2982550I20000J0D01*
G01*
X995360Y3815080D02*
G75*
G02*
X955360Y3815080I-20000J0D01*
G01*
X955360Y3815080D02*
G75*
G02*
X995360Y3815080I20000J0D01*
G01*
X1020000Y2580000D02*
G75*
G02*
X980000Y2580000I-20000J0D01*
G01*
X980000Y2580000D02*
G75*
G02*
X1020000Y2580000I20000J0D01*
G01*
X1057500Y2985000D02*
G75*
G02*
X1017500Y2985000I-20000J0D01*
G01*
X1017500Y2985000D02*
G75*
G02*
X1057500Y2985000I20000J0D01*
G01*
X1120000Y2587000D02*
G75*
G02*
X1080000Y2587000I-20000J0D01*
G01*
X1080000Y2587000D02*
G75*
G02*
X1120000Y2587000I20000J0D01*
G01*
X1125000Y3742500D02*
G75*
G02*
X1085000Y3742500I-20000J0D01*
G01*
X1085000Y3742500D02*
G75*
G02*
X1125000Y3742500I20000J0D01*
G01*
X1147760Y2885440D02*
G75*
G02*
X1107760Y2885440I-20000J0D01*
G01*
X1107760Y2885440D02*
G75*
G02*
X1147760Y2885440I20000J0D01*
G01*
X1217000Y2654000D02*
G75*
G02*
X1177000Y2654000I-20000J0D01*
G01*
X1177000Y2654000D02*
G75*
G02*
X1217000Y2654000I20000J0D01*
G01*
X1226500Y2794000D02*
G75*
G02*
X1186500Y2794000I-20000J0D01*
G01*
X1186500Y2794000D02*
G75*
G02*
X1226500Y2794000I20000J0D01*
G01*
X1236660Y2951480D02*
G75*
G02*
X1196660Y2951480I-20000J0D01*
G01*
X1196660Y2951480D02*
G75*
G02*
X1236660Y2951480I20000J0D01*
G01*
X1307780Y2877820D02*
G75*
G02*
X1267780Y2877820I-20000J0D01*
G01*
X1267780Y2877820D02*
G75*
G02*
X1307780Y2877820I20000J0D01*
G01*
X1324000Y2664000D02*
G75*
G02*
X1284000Y2664000I-20000J0D01*
G01*
X1284000Y2664000D02*
G75*
G02*
X1324000Y2664000I20000J0D01*
G01*
X1341464Y3515757D02*
G75*
G02*
X1301464Y3515757I-20000J0D01*
G01*
X1301464Y3515757D02*
G75*
G02*
X1341464Y3515757I20000J0D01*
G01*
X1342500Y3120000D02*
G75*
G02*
X1302500Y3120000I-20000J0D01*
G01*
X1302500Y3120000D02*
G75*
G02*
X1342500Y3120000I20000J0D01*
G01*
X1345000Y3395000D02*
G75*
G02*
X1305000Y3395000I-20000J0D01*
G01*
X1305000Y3395000D02*
G75*
G02*
X1345000Y3395000I20000J0D01*
G01*
X1404300Y2776220D02*
G75*
G02*
X1364300Y2776220I-20000J0D01*
G01*
X1364300Y2776220D02*
G75*
G02*
X1404300Y2776220I20000J0D01*
G01*
X1406840Y2590800D02*
G75*
G02*
X1366840Y2590800I-20000J0D01*
G01*
X1366840Y2590800D02*
G75*
G02*
X1406840Y2590800I20000J0D01*
G01*
X1465955Y3644200D02*
G75*
G02*
X1425955Y3644200I-20000J0D01*
G01*
X1425955Y3644200D02*
G75*
G02*
X1465955Y3644200I20000J0D01*
G01*
X1560921Y3460921D02*
G75*
G02*
X1520921Y3460921I-20000J0D01*
G01*
X1520921Y3460921D02*
G75*
G02*
X1560921Y3460921I20000J0D01*
G01*
X1564320Y3573780D02*
G75*
G02*
X1524320Y3573780I-20000J0D01*
G01*
X1524320Y3573780D02*
G75*
G02*
X1564320Y3573780I20000J0D01*
G01*
X1665920Y3266440D02*
G75*
G02*
X1625920Y3266440I-20000J0D01*
G01*
X1625920Y3266440D02*
G75*
G02*
X1665920Y3266440I20000J0D01*
G01*
X1712000Y3756360D02*
G75*
G02*
X1672000Y3756360I-20000J0D01*
G01*
X1672000Y3756360D02*
G75*
G02*
X1712000Y3756360I20000J0D01*
G01*
X1721800Y2771140D02*
G75*
G02*
X1681800Y2771140I-20000J0D01*
G01*
X1681800Y2771140D02*
G75*
G02*
X1721800Y2771140I20000J0D01*
G01*
X1744660Y2608580D02*
G75*
G02*
X1704660Y2608580I-20000J0D01*
G01*
X1704660Y2608580D02*
G75*
G02*
X1744660Y2608580I20000J0D01*
G01*
X1966000Y3756360D02*
G75*
G02*
X1926000Y3756360I-20000J0D01*
G01*
X1926000Y3756360D02*
G75*
G02*
X1966000Y3756360I20000J0D01*
G01*
X2069780Y3228340D02*
G75*
G02*
X2029780Y3228340I-20000J0D01*
G01*
X2029780Y3228340D02*
G75*
G02*
X2069780Y3228340I20000J0D01*
G01*
X2191700Y3319780D02*
G75*
G02*
X2151700Y3319780I-20000J0D01*
G01*
X2151700Y3319780D02*
G75*
G02*
X2191700Y3319780I20000J0D01*
G01*
X2474000Y3756360D02*
G75*
G02*
X2434000Y3756360I-20000J0D01*
G01*
X2434000Y3756360D02*
G75*
G02*
X2474000Y3756360I20000J0D01*
G01*
X2474000Y3248360D02*
G75*
G02*
X2434000Y3248360I-20000J0D01*
G01*
X2434000Y3248360D02*
G75*
G02*
X2474000Y3248360I20000J0D01*
G01*
X2478720Y3482340D02*
G75*
G02*
X2438720Y3482340I-20000J0D01*
G01*
X2438720Y3482340D02*
G75*
G02*
X2478720Y3482340I20000J0D01*
G01*
X2549840Y2633980D02*
G75*
G02*
X2509840Y2633980I-20000J0D01*
G01*
X2509840Y2633980D02*
G75*
G02*
X2549840Y2633980I20000J0D01*
G01*
X2699700Y2730500D02*
G75*
G02*
X2659700Y2730500I-20000J0D01*
G01*
X2659700Y2730500D02*
G75*
G02*
X2699700Y2730500I20000J0D01*
G01*
X-675020Y3719298D02*
X-675020Y3619298D01*
X-725020Y3669298D02*
X-625020Y3669298D01*
X-675020Y3465298D02*
X-675020Y3365298D01*
X-725020Y3415298D02*
X-625020Y3415298D01*
X-675020Y3211298D02*
X-675020Y3111298D01*
X-725020Y3161298D02*
X-625020Y3161298D01*
X-675020Y2957298D02*
X-675020Y2857298D01*
X-725020Y2907298D02*
X-625020Y2907298D01*
X-675020Y2703298D02*
X-675020Y2603298D01*
X-725020Y2653298D02*
X-625020Y2653298D01*
X-675020Y2449298D02*
X-675020Y2349298D01*
X-725020Y2399298D02*
X-625020Y2399298D01*
X-675020Y2195298D02*
X-675020Y2095298D01*
X-725020Y2145298D02*
X-625020Y2145298D01*
X-675020Y1941298D02*
X-675020Y1841298D01*
X-725020Y1891298D02*
X-625020Y1891298D01*
D11*
X-1744223Y1333516D02*
X-1744223Y1533516D01*
X-1744223Y1533516D02*
X-1696604Y1533516D01*
X-1696604Y1533516D02*
X-1668033Y1523992D01*
X-1668033Y1523992D02*
X-1648985Y1504945D01*
X-1648985Y1504945D02*
X-1639461Y1485897D01*
X-1639461Y1485897D02*
X-1629937Y1447802D01*
X-1629937Y1447802D02*
X-1629937Y1419230D01*
X-1629937Y1419230D02*
X-1639461Y1381135D01*
X-1639461Y1381135D02*
X-1648985Y1362088D01*
X-1648985Y1362088D02*
X-1668033Y1343040D01*
X-1668033Y1343040D02*
X-1696604Y1333516D01*
X-1696604Y1333516D02*
X-1744223Y1333516D01*
X-1544223Y1333516D02*
X-1544223Y1466849D01*
X-1544223Y1428754D02*
X-1534699Y1447802D01*
X-1534699Y1447802D02*
X-1525175Y1457326D01*
X-1525175Y1457326D02*
X-1506128Y1466849D01*
X-1506128Y1466849D02*
X-1487080Y1466849D01*
X-1420414Y1333516D02*
X-1420414Y1466849D01*
X-1420414Y1533516D02*
X-1429937Y1523992D01*
X-1429937Y1523992D02*
X-1420414Y1514468D01*
X-1420414Y1514468D02*
X-1410890Y1523992D01*
X-1410890Y1523992D02*
X-1420414Y1533516D01*
X-1420414Y1533516D02*
X-1420414Y1514468D01*
X-1296604Y1333516D02*
X-1315652Y1343040D01*
X-1315652Y1343040D02*
X-1325176Y1362088D01*
X-1325176Y1362088D02*
X-1325176Y1533516D01*
X-1191842Y1333516D02*
X-1210890Y1343040D01*
X-1210890Y1343040D02*
X-1220414Y1362088D01*
X-1220414Y1362088D02*
X-1220414Y1533516D01*
X-963271Y1333516D02*
X-963271Y1533516D01*
X-963271Y1533516D02*
X-896604Y1390659D01*
X-896604Y1390659D02*
X-829937Y1533516D01*
X-829937Y1533516D02*
X-829937Y1333516D01*
X-648985Y1333516D02*
X-648985Y1438278D01*
X-648985Y1438278D02*
X-658509Y1457326D01*
X-658509Y1457326D02*
X-677556Y1466849D01*
X-677556Y1466849D02*
X-715652Y1466849D01*
X-715652Y1466849D02*
X-734699Y1457326D01*
X-648985Y1343040D02*
X-668033Y1333516D01*
X-668033Y1333516D02*
X-715652Y1333516D01*
X-715652Y1333516D02*
X-734699Y1343040D01*
X-734699Y1343040D02*
X-744223Y1362088D01*
X-744223Y1362088D02*
X-744223Y1381135D01*
X-744223Y1381135D02*
X-734699Y1400183D01*
X-734699Y1400183D02*
X-715652Y1409707D01*
X-715652Y1409707D02*
X-668033Y1409707D01*
X-668033Y1409707D02*
X-648985Y1419230D01*
X-553747Y1466849D02*
X-553747Y1266850D01*
X-553747Y1457326D02*
X-534699Y1466849D01*
X-534699Y1466849D02*
X-496604Y1466849D01*
X-496604Y1466849D02*
X-477556Y1457326D01*
X-477556Y1457326D02*
X-468033Y1447802D01*
X-468033Y1447802D02*
X-458509Y1428754D01*
X-458509Y1428754D02*
X-458509Y1371611D01*
X-458509Y1371611D02*
X-468033Y1352564D01*
X-468033Y1352564D02*
X-477556Y1343040D01*
X-477556Y1343040D02*
X-496604Y1333516D01*
X-496604Y1333516D02*
X-534699Y1333516D01*
X-534699Y1333516D02*
X-553747Y1343040D01*
X-372794Y1352564D02*
X-363271Y1343040D01*
X-363271Y1343040D02*
X-372794Y1333516D01*
X-372794Y1333516D02*
X-382318Y1343040D01*
X-382318Y1343040D02*
X-372794Y1352564D01*
X-372794Y1352564D02*
X-372794Y1333516D01*
X-372794Y1457326D02*
X-363271Y1447802D01*
X-363271Y1447802D02*
X-372794Y1438278D01*
X-372794Y1438278D02*
X-382318Y1447802D01*
X-382318Y1447802D02*
X-372794Y1457326D01*
X-372794Y1457326D02*
X-372794Y1438278D01*
D10*
X-2030000Y1017500D02*
X-2005000Y992500D01*
X-2005000Y1017500D02*
X-2030000Y992500D01*
D11*
X-1706128Y1113516D02*
X-1687080Y1113516D01*
X-1687080Y1113516D02*
X-1668033Y1103992D01*
X-1668033Y1103992D02*
X-1658509Y1094469D01*
X-1658509Y1094469D02*
X-1648985Y1075421D01*
X-1648985Y1075421D02*
X-1639461Y1037326D01*
X-1639461Y1037326D02*
X-1639461Y989707D01*
X-1639461Y989707D02*
X-1648985Y951611D01*
X-1648985Y951611D02*
X-1658509Y932564D01*
X-1658509Y932564D02*
X-1668033Y923040D01*
X-1668033Y923040D02*
X-1687080Y913516D01*
X-1687080Y913516D02*
X-1706128Y913516D01*
X-1706128Y913516D02*
X-1725175Y923040D01*
X-1725175Y923040D02*
X-1734699Y932564D01*
X-1734699Y932564D02*
X-1744223Y951611D01*
X-1744223Y951611D02*
X-1753747Y989707D01*
X-1753747Y989707D02*
X-1753747Y1037326D01*
X-1753747Y1037326D02*
X-1744223Y1075421D01*
X-1744223Y1075421D02*
X-1734699Y1094469D01*
X-1734699Y1094469D02*
X-1725175Y1103992D01*
X-1725175Y1103992D02*
X-1706128Y1113516D01*
X-1553747Y932564D02*
X-1544223Y923040D01*
X-1544223Y923040D02*
X-1553747Y913516D01*
X-1553747Y913516D02*
X-1563271Y923040D01*
X-1563271Y923040D02*
X-1553747Y932564D01*
X-1553747Y932564D02*
X-1553747Y913516D01*
X-1468033Y1094469D02*
X-1458509Y1103992D01*
X-1458509Y1103992D02*
X-1439461Y1113516D01*
X-1439461Y1113516D02*
X-1391842Y1113516D01*
X-1391842Y1113516D02*
X-1372795Y1103992D01*
X-1372795Y1103992D02*
X-1363271Y1094469D01*
X-1363271Y1094469D02*
X-1353747Y1075421D01*
X-1353747Y1075421D02*
X-1353747Y1056373D01*
X-1353747Y1056373D02*
X-1363271Y1027802D01*
X-1363271Y1027802D02*
X-1477556Y913516D01*
X-1477556Y913516D02*
X-1353747Y913516D01*
X-1172795Y1113516D02*
X-1268033Y1113516D01*
X-1268033Y1113516D02*
X-1277556Y1018278D01*
X-1277556Y1018278D02*
X-1268033Y1027802D01*
X-1268033Y1027802D02*
X-1248985Y1037326D01*
X-1248985Y1037326D02*
X-1201366Y1037326D01*
X-1201366Y1037326D02*
X-1182318Y1027802D01*
X-1182318Y1027802D02*
X-1172795Y1018278D01*
X-1172795Y1018278D02*
X-1163271Y999230D01*
X-1163271Y999230D02*
X-1163271Y951611D01*
X-1163271Y951611D02*
X-1172795Y932564D01*
X-1172795Y932564D02*
X-1182318Y923040D01*
X-1182318Y923040D02*
X-1201366Y913516D01*
X-1201366Y913516D02*
X-1248985Y913516D01*
X-1248985Y913516D02*
X-1268033Y923040D01*
X-1268033Y923040D02*
X-1277556Y932564D01*
X-1039461Y1113516D02*
X-1020413Y1113516D01*
X-1020413Y1113516D02*
X-1001366Y1103992D01*
X-1001366Y1103992D02*
X-991842Y1094469D01*
X-991842Y1094469D02*
X-982318Y1075421D01*
X-982318Y1075421D02*
X-972794Y1037326D01*
X-972794Y1037326D02*
X-972794Y989707D01*
X-972794Y989707D02*
X-982318Y951611D01*
X-982318Y951611D02*
X-991842Y932564D01*
X-991842Y932564D02*
X-1001366Y923040D01*
X-1001366Y923040D02*
X-1020413Y913516D01*
X-1020413Y913516D02*
X-1039461Y913516D01*
X-1039461Y913516D02*
X-1058509Y923040D01*
X-1058509Y923040D02*
X-1068033Y932564D01*
X-1068033Y932564D02*
X-1077556Y951611D01*
X-1077556Y951611D02*
X-1087080Y989707D01*
X-1087080Y989707D02*
X-1087080Y1037326D01*
X-1087080Y1037326D02*
X-1077556Y1075421D01*
X-1077556Y1075421D02*
X-1068033Y1094469D01*
X-1068033Y1094469D02*
X-1058509Y1103992D01*
X-1058509Y1103992D02*
X-1039461Y1113516D01*
X-887080Y913516D02*
X-887080Y1046849D01*
X-887080Y1027802D02*
X-877556Y1037326D01*
X-877556Y1037326D02*
X-858509Y1046849D01*
X-858509Y1046849D02*
X-829937Y1046849D01*
X-829937Y1046849D02*
X-810890Y1037326D01*
X-810890Y1037326D02*
X-801366Y1018278D01*
X-801366Y1018278D02*
X-801366Y913516D01*
X-801366Y1018278D02*
X-791842Y1037326D01*
X-791842Y1037326D02*
X-772794Y1046849D01*
X-772794Y1046849D02*
X-744223Y1046849D01*
X-744223Y1046849D02*
X-725175Y1037326D01*
X-725175Y1037326D02*
X-715652Y1018278D01*
X-715652Y1018278D02*
X-715652Y913516D01*
X-620414Y913516D02*
X-620414Y1046849D01*
X-620414Y1027802D02*
X-610890Y1037326D01*
X-610890Y1037326D02*
X-591842Y1046849D01*
X-591842Y1046849D02*
X-563271Y1046849D01*
X-563271Y1046849D02*
X-544223Y1037326D01*
X-544223Y1037326D02*
X-534699Y1018278D01*
X-534699Y1018278D02*
X-534699Y913516D01*
X-534699Y1018278D02*
X-525175Y1037326D01*
X-525175Y1037326D02*
X-506128Y1046849D01*
X-506128Y1046849D02*
X-477556Y1046849D01*
X-477556Y1046849D02*
X-458509Y1037326D01*
X-458509Y1037326D02*
X-448985Y1018278D01*
X-448985Y1018278D02*
X-448985Y913516D01*
X-58509Y1123040D02*
X-229937Y865897D01*
X198634Y1113516D02*
X217682Y1113516D01*
X217682Y1113516D02*
X236729Y1103992D01*
X236729Y1103992D02*
X246253Y1094469D01*
X246253Y1094469D02*
X255777Y1075421D01*
X255777Y1075421D02*
X265301Y1037326D01*
X265301Y1037326D02*
X265301Y989707D01*
X265301Y989707D02*
X255777Y951611D01*
X255777Y951611D02*
X246253Y932564D01*
X246253Y932564D02*
X236729Y923040D01*
X236729Y923040D02*
X217682Y913516D01*
X217682Y913516D02*
X198634Y913516D01*
X198634Y913516D02*
X179586Y923040D01*
X179586Y923040D02*
X170063Y932564D01*
X170063Y932564D02*
X160539Y951611D01*
X160539Y951611D02*
X151015Y989707D01*
X151015Y989707D02*
X151015Y1037326D01*
X151015Y1037326D02*
X160539Y1075421D01*
X160539Y1075421D02*
X170063Y1094469D01*
X170063Y1094469D02*
X179586Y1103992D01*
X179586Y1103992D02*
X198634Y1113516D01*
X351015Y932564D02*
X360539Y923040D01*
X360539Y923040D02*
X351015Y913516D01*
X351015Y913516D02*
X341491Y923040D01*
X341491Y923040D02*
X351015Y932564D01*
X351015Y932564D02*
X351015Y913516D01*
X484348Y1113516D02*
X503396Y1113516D01*
X503396Y1113516D02*
X522444Y1103992D01*
X522444Y1103992D02*
X531968Y1094469D01*
X531968Y1094469D02*
X541491Y1075421D01*
X541491Y1075421D02*
X551015Y1037326D01*
X551015Y1037326D02*
X551015Y989707D01*
X551015Y989707D02*
X541491Y951611D01*
X541491Y951611D02*
X531968Y932564D01*
X531968Y932564D02*
X522444Y923040D01*
X522444Y923040D02*
X503396Y913516D01*
X503396Y913516D02*
X484348Y913516D01*
X484348Y913516D02*
X465301Y923040D01*
X465301Y923040D02*
X455777Y932564D01*
X455777Y932564D02*
X446253Y951611D01*
X446253Y951611D02*
X436729Y989707D01*
X436729Y989707D02*
X436729Y1037326D01*
X436729Y1037326D02*
X446253Y1075421D01*
X446253Y1075421D02*
X455777Y1094469D01*
X455777Y1094469D02*
X465301Y1103992D01*
X465301Y1103992D02*
X484348Y1113516D01*
X674825Y1113516D02*
X693872Y1113516D01*
X693872Y1113516D02*
X712920Y1103992D01*
X712920Y1103992D02*
X722444Y1094469D01*
X722444Y1094469D02*
X731967Y1075421D01*
X731967Y1075421D02*
X741491Y1037326D01*
X741491Y1037326D02*
X741491Y989707D01*
X741491Y989707D02*
X731967Y951611D01*
X731967Y951611D02*
X722444Y932564D01*
X722444Y932564D02*
X712920Y923040D01*
X712920Y923040D02*
X693872Y913516D01*
X693872Y913516D02*
X674825Y913516D01*
X674825Y913516D02*
X655777Y923040D01*
X655777Y923040D02*
X646253Y932564D01*
X646253Y932564D02*
X636729Y951611D01*
X636729Y951611D02*
X627206Y989707D01*
X627206Y989707D02*
X627206Y1037326D01*
X627206Y1037326D02*
X636729Y1075421D01*
X636729Y1075421D02*
X646253Y1094469D01*
X646253Y1094469D02*
X655777Y1103992D01*
X655777Y1103992D02*
X674825Y1113516D01*
X836729Y913516D02*
X874825Y913516D01*
X874825Y913516D02*
X893872Y923040D01*
X893872Y923040D02*
X903396Y932564D01*
X903396Y932564D02*
X922444Y961135D01*
X922444Y961135D02*
X931967Y999230D01*
X931967Y999230D02*
X931967Y1075421D01*
X931967Y1075421D02*
X922444Y1094469D01*
X922444Y1094469D02*
X912920Y1103992D01*
X912920Y1103992D02*
X893872Y1113516D01*
X893872Y1113516D02*
X855777Y1113516D01*
X855777Y1113516D02*
X836729Y1103992D01*
X836729Y1103992D02*
X827206Y1094469D01*
X827206Y1094469D02*
X817682Y1075421D01*
X817682Y1075421D02*
X817682Y1027802D01*
X817682Y1027802D02*
X827206Y1008754D01*
X827206Y1008754D02*
X836729Y999230D01*
X836729Y999230D02*
X855777Y989707D01*
X855777Y989707D02*
X893872Y989707D01*
X893872Y989707D02*
X912920Y999230D01*
X912920Y999230D02*
X922444Y1008754D01*
X922444Y1008754D02*
X931967Y1027802D01*
X1046253Y1027802D02*
X1027206Y1037326D01*
X1027206Y1037326D02*
X1017682Y1046849D01*
X1017682Y1046849D02*
X1008158Y1065897D01*
X1008158Y1065897D02*
X1008158Y1075421D01*
X1008158Y1075421D02*
X1017682Y1094469D01*
X1017682Y1094469D02*
X1027206Y1103992D01*
X1027206Y1103992D02*
X1046253Y1113516D01*
X1046253Y1113516D02*
X1084349Y1113516D01*
X1084349Y1113516D02*
X1103396Y1103992D01*
X1103396Y1103992D02*
X1112920Y1094469D01*
X1112920Y1094469D02*
X1122444Y1075421D01*
X1122444Y1075421D02*
X1122444Y1065897D01*
X1122444Y1065897D02*
X1112920Y1046849D01*
X1112920Y1046849D02*
X1103396Y1037326D01*
X1103396Y1037326D02*
X1084349Y1027802D01*
X1084349Y1027802D02*
X1046253Y1027802D01*
X1046253Y1027802D02*
X1027206Y1018278D01*
X1027206Y1018278D02*
X1017682Y1008754D01*
X1017682Y1008754D02*
X1008158Y989707D01*
X1008158Y989707D02*
X1008158Y951611D01*
X1008158Y951611D02*
X1017682Y932564D01*
X1017682Y932564D02*
X1027206Y923040D01*
X1027206Y923040D02*
X1046253Y913516D01*
X1046253Y913516D02*
X1084349Y913516D01*
X1084349Y913516D02*
X1103396Y923040D01*
X1103396Y923040D02*
X1112920Y932564D01*
X1112920Y932564D02*
X1122444Y951611D01*
X1122444Y951611D02*
X1122444Y989707D01*
X1122444Y989707D02*
X1112920Y1008754D01*
X1112920Y1008754D02*
X1103396Y1018278D01*
X1103396Y1018278D02*
X1084349Y1027802D01*
X1198634Y1113516D02*
X1198634Y1075421D01*
X1274825Y1113516D02*
X1274825Y1075421D01*
X1570063Y837326D02*
X1560539Y846849D01*
X1560539Y846849D02*
X1541491Y875421D01*
X1541491Y875421D02*
X1531968Y894468D01*
X1531968Y894468D02*
X1522444Y923040D01*
X1522444Y923040D02*
X1512920Y970659D01*
X1512920Y970659D02*
X1512920Y1008754D01*
X1512920Y1008754D02*
X1522444Y1056373D01*
X1522444Y1056373D02*
X1531968Y1084945D01*
X1531968Y1084945D02*
X1541491Y1103992D01*
X1541491Y1103992D02*
X1560539Y1132564D01*
X1560539Y1132564D02*
X1570063Y1142088D01*
X1731968Y1046849D02*
X1731968Y913516D01*
X1684348Y1123040D02*
X1636729Y980183D01*
X1636729Y980183D02*
X1760539Y980183D01*
X1989110Y913516D02*
X1989110Y1113516D01*
X2074825Y913516D02*
X2074825Y1018278D01*
X2074825Y1018278D02*
X2065301Y1037326D01*
X2065301Y1037326D02*
X2046253Y1046849D01*
X2046253Y1046849D02*
X2017682Y1046849D01*
X2017682Y1046849D02*
X1998634Y1037326D01*
X1998634Y1037326D02*
X1989110Y1027802D01*
X2198634Y913516D02*
X2179587Y923040D01*
X2179587Y923040D02*
X2170063Y932564D01*
X2170063Y932564D02*
X2160539Y951611D01*
X2160539Y951611D02*
X2160539Y1008754D01*
X2160539Y1008754D02*
X2170063Y1027802D01*
X2170063Y1027802D02*
X2179587Y1037326D01*
X2179587Y1037326D02*
X2198634Y1046849D01*
X2198634Y1046849D02*
X2227206Y1046849D01*
X2227206Y1046849D02*
X2246253Y1037326D01*
X2246253Y1037326D02*
X2255777Y1027802D01*
X2255777Y1027802D02*
X2265301Y1008754D01*
X2265301Y1008754D02*
X2265301Y951611D01*
X2265301Y951611D02*
X2255777Y932564D01*
X2255777Y932564D02*
X2246253Y923040D01*
X2246253Y923040D02*
X2227206Y913516D01*
X2227206Y913516D02*
X2198634Y913516D01*
X2379587Y913516D02*
X2360539Y923040D01*
X2360539Y923040D02*
X2351015Y942088D01*
X2351015Y942088D02*
X2351015Y1113516D01*
X2531968Y923040D02*
X2512920Y913516D01*
X2512920Y913516D02*
X2474825Y913516D01*
X2474825Y913516D02*
X2455777Y923040D01*
X2455777Y923040D02*
X2446253Y942088D01*
X2446253Y942088D02*
X2446253Y1018278D01*
X2446253Y1018278D02*
X2455777Y1037326D01*
X2455777Y1037326D02*
X2474825Y1046849D01*
X2474825Y1046849D02*
X2512920Y1046849D01*
X2512920Y1046849D02*
X2531968Y1037326D01*
X2531968Y1037326D02*
X2541492Y1018278D01*
X2541492Y1018278D02*
X2541492Y999230D01*
X2541492Y999230D02*
X2446253Y980183D01*
X2617682Y923040D02*
X2636730Y913516D01*
X2636730Y913516D02*
X2674825Y913516D01*
X2674825Y913516D02*
X2693873Y923040D01*
X2693873Y923040D02*
X2703396Y942088D01*
X2703396Y942088D02*
X2703396Y951611D01*
X2703396Y951611D02*
X2693873Y970659D01*
X2693873Y970659D02*
X2674825Y980183D01*
X2674825Y980183D02*
X2646253Y980183D01*
X2646253Y980183D02*
X2627206Y989707D01*
X2627206Y989707D02*
X2617682Y1008754D01*
X2617682Y1008754D02*
X2617682Y1018278D01*
X2617682Y1018278D02*
X2627206Y1037326D01*
X2627206Y1037326D02*
X2646253Y1046849D01*
X2646253Y1046849D02*
X2674825Y1046849D01*
X2674825Y1046849D02*
X2693873Y1037326D01*
X2770063Y837326D02*
X2779587Y846849D01*
X2779587Y846849D02*
X2798634Y875421D01*
X2798634Y875421D02*
X2808158Y894468D01*
X2808158Y894468D02*
X2817682Y923040D01*
X2817682Y923040D02*
X2827206Y970659D01*
X2827206Y970659D02*
X2827206Y1008754D01*
X2827206Y1008754D02*
X2817682Y1056373D01*
X2817682Y1056373D02*
X2808158Y1084945D01*
X2808158Y1084945D02*
X2798634Y1103992D01*
X2798634Y1103992D02*
X2779587Y1132564D01*
X2779587Y1132564D02*
X2770063Y1142088D01*
D10*
X-2005000Y741000D02*
G75*
G02*
X-2045000Y741000I-20000J0D01*
G01*
X-2045000Y741000D02*
G75*
G02*
X-2005000Y741000I20000J0D01*
G01*
D11*
X-1706128Y849516D02*
X-1687080Y849516D01*
X-1687080Y849516D02*
X-1668033Y839992D01*
X-1668033Y839992D02*
X-1658509Y830468D01*
X-1658509Y830468D02*
X-1648985Y811421D01*
X-1648985Y811421D02*
X-1639461Y773326D01*
X-1639461Y773326D02*
X-1639461Y725707D01*
X-1639461Y725707D02*
X-1648985Y687611D01*
X-1648985Y687611D02*
X-1658509Y668564D01*
X-1658509Y668564D02*
X-1668033Y659040D01*
X-1668033Y659040D02*
X-1687080Y649516D01*
X-1687080Y649516D02*
X-1706128Y649516D01*
X-1706128Y649516D02*
X-1725175Y659040D01*
X-1725175Y659040D02*
X-1734699Y668564D01*
X-1734699Y668564D02*
X-1744223Y687611D01*
X-1744223Y687611D02*
X-1753747Y725707D01*
X-1753747Y725707D02*
X-1753747Y773326D01*
X-1753747Y773326D02*
X-1744223Y811421D01*
X-1744223Y811421D02*
X-1734699Y830468D01*
X-1734699Y830468D02*
X-1725175Y839992D01*
X-1725175Y839992D02*
X-1706128Y849516D01*
X-1553747Y668564D02*
X-1544223Y659040D01*
X-1544223Y659040D02*
X-1553747Y649516D01*
X-1553747Y649516D02*
X-1563271Y659040D01*
X-1563271Y659040D02*
X-1553747Y668564D01*
X-1553747Y668564D02*
X-1553747Y649516D01*
X-1372795Y782849D02*
X-1372795Y649516D01*
X-1420414Y859040D02*
X-1468033Y716183D01*
X-1468033Y716183D02*
X-1344223Y716183D01*
X-1229937Y849516D02*
X-1210890Y849516D01*
X-1210890Y849516D02*
X-1191842Y839992D01*
X-1191842Y839992D02*
X-1182318Y830468D01*
X-1182318Y830468D02*
X-1172795Y811421D01*
X-1172795Y811421D02*
X-1163271Y773326D01*
X-1163271Y773326D02*
X-1163271Y725707D01*
X-1163271Y725707D02*
X-1172795Y687611D01*
X-1172795Y687611D02*
X-1182318Y668564D01*
X-1182318Y668564D02*
X-1191842Y659040D01*
X-1191842Y659040D02*
X-1210890Y649516D01*
X-1210890Y649516D02*
X-1229937Y649516D01*
X-1229937Y649516D02*
X-1248985Y659040D01*
X-1248985Y659040D02*
X-1258509Y668564D01*
X-1258509Y668564D02*
X-1268033Y687611D01*
X-1268033Y687611D02*
X-1277556Y725707D01*
X-1277556Y725707D02*
X-1277556Y773326D01*
X-1277556Y773326D02*
X-1268033Y811421D01*
X-1268033Y811421D02*
X-1258509Y830468D01*
X-1258509Y830468D02*
X-1248985Y839992D01*
X-1248985Y839992D02*
X-1229937Y849516D01*
X-1039461Y849516D02*
X-1020413Y849516D01*
X-1020413Y849516D02*
X-1001366Y839992D01*
X-1001366Y839992D02*
X-991842Y830468D01*
X-991842Y830468D02*
X-982318Y811421D01*
X-982318Y811421D02*
X-972794Y773326D01*
X-972794Y773326D02*
X-972794Y725707D01*
X-972794Y725707D02*
X-982318Y687611D01*
X-982318Y687611D02*
X-991842Y668564D01*
X-991842Y668564D02*
X-1001366Y659040D01*
X-1001366Y659040D02*
X-1020413Y649516D01*
X-1020413Y649516D02*
X-1039461Y649516D01*
X-1039461Y649516D02*
X-1058509Y659040D01*
X-1058509Y659040D02*
X-1068033Y668564D01*
X-1068033Y668564D02*
X-1077556Y687611D01*
X-1077556Y687611D02*
X-1087080Y725707D01*
X-1087080Y725707D02*
X-1087080Y773326D01*
X-1087080Y773326D02*
X-1077556Y811421D01*
X-1077556Y811421D02*
X-1068033Y830468D01*
X-1068033Y830468D02*
X-1058509Y839992D01*
X-1058509Y839992D02*
X-1039461Y849516D01*
X-887080Y649516D02*
X-887080Y782849D01*
X-887080Y763802D02*
X-877556Y773326D01*
X-877556Y773326D02*
X-858509Y782849D01*
X-858509Y782849D02*
X-829937Y782849D01*
X-829937Y782849D02*
X-810890Y773326D01*
X-810890Y773326D02*
X-801366Y754278D01*
X-801366Y754278D02*
X-801366Y649516D01*
X-801366Y754278D02*
X-791842Y773326D01*
X-791842Y773326D02*
X-772794Y782849D01*
X-772794Y782849D02*
X-744223Y782849D01*
X-744223Y782849D02*
X-725175Y773326D01*
X-725175Y773326D02*
X-715652Y754278D01*
X-715652Y754278D02*
X-715652Y649516D01*
X-620414Y649516D02*
X-620414Y782849D01*
X-620414Y763802D02*
X-610890Y773326D01*
X-610890Y773326D02*
X-591842Y782849D01*
X-591842Y782849D02*
X-563271Y782849D01*
X-563271Y782849D02*
X-544223Y773326D01*
X-544223Y773326D02*
X-534699Y754278D01*
X-534699Y754278D02*
X-534699Y649516D01*
X-534699Y754278D02*
X-525175Y773326D01*
X-525175Y773326D02*
X-506128Y782849D01*
X-506128Y782849D02*
X-477556Y782849D01*
X-477556Y782849D02*
X-458509Y773326D01*
X-458509Y773326D02*
X-448985Y754278D01*
X-448985Y754278D02*
X-448985Y649516D01*
X-58509Y859040D02*
X-229937Y601897D01*
X198634Y849516D02*
X217682Y849516D01*
X217682Y849516D02*
X236729Y839992D01*
X236729Y839992D02*
X246253Y830468D01*
X246253Y830468D02*
X255777Y811421D01*
X255777Y811421D02*
X265301Y773326D01*
X265301Y773326D02*
X265301Y725707D01*
X265301Y725707D02*
X255777Y687611D01*
X255777Y687611D02*
X246253Y668564D01*
X246253Y668564D02*
X236729Y659040D01*
X236729Y659040D02*
X217682Y649516D01*
X217682Y649516D02*
X198634Y649516D01*
X198634Y649516D02*
X179586Y659040D01*
X179586Y659040D02*
X170063Y668564D01*
X170063Y668564D02*
X160539Y687611D01*
X160539Y687611D02*
X151015Y725707D01*
X151015Y725707D02*
X151015Y773326D01*
X151015Y773326D02*
X160539Y811421D01*
X160539Y811421D02*
X170063Y830468D01*
X170063Y830468D02*
X179586Y839992D01*
X179586Y839992D02*
X198634Y849516D01*
X351015Y668564D02*
X360539Y659040D01*
X360539Y659040D02*
X351015Y649516D01*
X351015Y649516D02*
X341491Y659040D01*
X341491Y659040D02*
X351015Y668564D01*
X351015Y668564D02*
X351015Y649516D01*
X484348Y849516D02*
X503396Y849516D01*
X503396Y849516D02*
X522444Y839992D01*
X522444Y839992D02*
X531968Y830468D01*
X531968Y830468D02*
X541491Y811421D01*
X541491Y811421D02*
X551015Y773326D01*
X551015Y773326D02*
X551015Y725707D01*
X551015Y725707D02*
X541491Y687611D01*
X541491Y687611D02*
X531968Y668564D01*
X531968Y668564D02*
X522444Y659040D01*
X522444Y659040D02*
X503396Y649516D01*
X503396Y649516D02*
X484348Y649516D01*
X484348Y649516D02*
X465301Y659040D01*
X465301Y659040D02*
X455777Y668564D01*
X455777Y668564D02*
X446253Y687611D01*
X446253Y687611D02*
X436729Y725707D01*
X436729Y725707D02*
X436729Y773326D01*
X436729Y773326D02*
X446253Y811421D01*
X446253Y811421D02*
X455777Y830468D01*
X455777Y830468D02*
X465301Y839992D01*
X465301Y839992D02*
X484348Y849516D01*
X741491Y649516D02*
X627206Y649516D01*
X684348Y649516D02*
X684348Y849516D01*
X684348Y849516D02*
X665301Y820945D01*
X665301Y820945D02*
X646253Y801897D01*
X646253Y801897D02*
X627206Y792373D01*
X922444Y849516D02*
X827206Y849516D01*
X827206Y849516D02*
X817682Y754278D01*
X817682Y754278D02*
X827206Y763802D01*
X827206Y763802D02*
X846253Y773326D01*
X846253Y773326D02*
X893872Y773326D01*
X893872Y773326D02*
X912920Y763802D01*
X912920Y763802D02*
X922444Y754278D01*
X922444Y754278D02*
X931967Y735230D01*
X931967Y735230D02*
X931967Y687611D01*
X931967Y687611D02*
X922444Y668564D01*
X922444Y668564D02*
X912920Y659040D01*
X912920Y659040D02*
X893872Y649516D01*
X893872Y649516D02*
X846253Y649516D01*
X846253Y649516D02*
X827206Y659040D01*
X827206Y659040D02*
X817682Y668564D01*
X998634Y849516D02*
X1131968Y849516D01*
X1131968Y849516D02*
X1046253Y649516D01*
X1198634Y849516D02*
X1198634Y811421D01*
X1274825Y849516D02*
X1274825Y811421D01*
X1570063Y573326D02*
X1560539Y582850D01*
X1560539Y582850D02*
X1541491Y611421D01*
X1541491Y611421D02*
X1531968Y630469D01*
X1531968Y630469D02*
X1522444Y659040D01*
X1522444Y659040D02*
X1512920Y706659D01*
X1512920Y706659D02*
X1512920Y744754D01*
X1512920Y744754D02*
X1522444Y792373D01*
X1522444Y792373D02*
X1531968Y820945D01*
X1531968Y820945D02*
X1541491Y839992D01*
X1541491Y839992D02*
X1560539Y868564D01*
X1560539Y868564D02*
X1570063Y878088D01*
X1751015Y649516D02*
X1636729Y649516D01*
X1693872Y649516D02*
X1693872Y849516D01*
X1693872Y849516D02*
X1674825Y820945D01*
X1674825Y820945D02*
X1655777Y801897D01*
X1655777Y801897D02*
X1636729Y792373D01*
X1874825Y849516D02*
X1893872Y849516D01*
X1893872Y849516D02*
X1912920Y839992D01*
X1912920Y839992D02*
X1922444Y830468D01*
X1922444Y830468D02*
X1931968Y811421D01*
X1931968Y811421D02*
X1941491Y773326D01*
X1941491Y773326D02*
X1941491Y725707D01*
X1941491Y725707D02*
X1931968Y687611D01*
X1931968Y687611D02*
X1922444Y668564D01*
X1922444Y668564D02*
X1912920Y659040D01*
X1912920Y659040D02*
X1893872Y649516D01*
X1893872Y649516D02*
X1874825Y649516D01*
X1874825Y649516D02*
X1855777Y659040D01*
X1855777Y659040D02*
X1846253Y668564D01*
X1846253Y668564D02*
X1836729Y687611D01*
X1836729Y687611D02*
X1827206Y725707D01*
X1827206Y725707D02*
X1827206Y773326D01*
X1827206Y773326D02*
X1836729Y811421D01*
X1836729Y811421D02*
X1846253Y830468D01*
X1846253Y830468D02*
X1855777Y839992D01*
X1855777Y839992D02*
X1874825Y849516D01*
X2131968Y649516D02*
X2017682Y649516D01*
X2074825Y649516D02*
X2074825Y849516D01*
X2074825Y849516D02*
X2055777Y820945D01*
X2055777Y820945D02*
X2036729Y801897D01*
X2036729Y801897D02*
X2017682Y792373D01*
X2370063Y649516D02*
X2370063Y849516D01*
X2455777Y649516D02*
X2455777Y754278D01*
X2455777Y754278D02*
X2446253Y773326D01*
X2446253Y773326D02*
X2427206Y782849D01*
X2427206Y782849D02*
X2398634Y782849D01*
X2398634Y782849D02*
X2379587Y773326D01*
X2379587Y773326D02*
X2370063Y763802D01*
X2579587Y649516D02*
X2560539Y659040D01*
X2560539Y659040D02*
X2551015Y668564D01*
X2551015Y668564D02*
X2541492Y687611D01*
X2541492Y687611D02*
X2541492Y744754D01*
X2541492Y744754D02*
X2551015Y763802D01*
X2551015Y763802D02*
X2560539Y773326D01*
X2560539Y773326D02*
X2579587Y782849D01*
X2579587Y782849D02*
X2608158Y782849D01*
X2608158Y782849D02*
X2627206Y773326D01*
X2627206Y773326D02*
X2636730Y763802D01*
X2636730Y763802D02*
X2646253Y744754D01*
X2646253Y744754D02*
X2646253Y687611D01*
X2646253Y687611D02*
X2636730Y668564D01*
X2636730Y668564D02*
X2627206Y659040D01*
X2627206Y659040D02*
X2608158Y649516D01*
X2608158Y649516D02*
X2579587Y649516D01*
X2760539Y649516D02*
X2741492Y659040D01*
X2741492Y659040D02*
X2731968Y678088D01*
X2731968Y678088D02*
X2731968Y849516D01*
X2912920Y659040D02*
X2893872Y649516D01*
X2893872Y649516D02*
X2855777Y649516D01*
X2855777Y649516D02*
X2836730Y659040D01*
X2836730Y659040D02*
X2827206Y678088D01*
X2827206Y678088D02*
X2827206Y754278D01*
X2827206Y754278D02*
X2836730Y773326D01*
X2836730Y773326D02*
X2855777Y782849D01*
X2855777Y782849D02*
X2893872Y782849D01*
X2893872Y782849D02*
X2912920Y773326D01*
X2912920Y773326D02*
X2922444Y754278D01*
X2922444Y754278D02*
X2922444Y735230D01*
X2922444Y735230D02*
X2827206Y716183D01*
X2998634Y659040D02*
X3017682Y649516D01*
X3017682Y649516D02*
X3055777Y649516D01*
X3055777Y649516D02*
X3074825Y659040D01*
X3074825Y659040D02*
X3084349Y678088D01*
X3084349Y678088D02*
X3084349Y687611D01*
X3084349Y687611D02*
X3074825Y706659D01*
X3074825Y706659D02*
X3055777Y716183D01*
X3055777Y716183D02*
X3027206Y716183D01*
X3027206Y716183D02*
X3008158Y725707D01*
X3008158Y725707D02*
X2998634Y744754D01*
X2998634Y744754D02*
X2998634Y754278D01*
X2998634Y754278D02*
X3008158Y773326D01*
X3008158Y773326D02*
X3027206Y782849D01*
X3027206Y782849D02*
X3055777Y782849D01*
X3055777Y782849D02*
X3074825Y773326D01*
X3151015Y573326D02*
X3160539Y582850D01*
X3160539Y582850D02*
X3179587Y611421D01*
X3179587Y611421D02*
X3189111Y630469D01*
X3189111Y630469D02*
X3198634Y659040D01*
X3198634Y659040D02*
X3208158Y706659D01*
X3208158Y706659D02*
X3208158Y744754D01*
X3208158Y744754D02*
X3198634Y792373D01*
X3198634Y792373D02*
X3189111Y820945D01*
X3189111Y820945D02*
X3179587Y839992D01*
X3179587Y839992D02*
X3160539Y868564D01*
X3160539Y868564D02*
X3151015Y878088D01*
D10*
X-2055000Y527000D02*
X-2055000Y427000D01*
X-2105000Y477000D02*
X-2005000Y477000D01*
D11*
X-1639461Y385516D02*
X-1753747Y385516D01*
X-1696604Y385516D02*
X-1696604Y585516D01*
X-1696604Y585516D02*
X-1715652Y556945D01*
X-1715652Y556945D02*
X-1734699Y537897D01*
X-1734699Y537897D02*
X-1753747Y528373D01*
X-1553747Y404564D02*
X-1544223Y395040D01*
X-1544223Y395040D02*
X-1553747Y385516D01*
X-1553747Y385516D02*
X-1563271Y395040D01*
X-1563271Y395040D02*
X-1553747Y404564D01*
X-1553747Y404564D02*
X-1553747Y385516D01*
X-1420414Y585516D02*
X-1401366Y585516D01*
X-1401366Y585516D02*
X-1382318Y575992D01*
X-1382318Y575992D02*
X-1372795Y566469D01*
X-1372795Y566469D02*
X-1363271Y547421D01*
X-1363271Y547421D02*
X-1353747Y509326D01*
X-1353747Y509326D02*
X-1353747Y461707D01*
X-1353747Y461707D02*
X-1363271Y423611D01*
X-1363271Y423611D02*
X-1372795Y404564D01*
X-1372795Y404564D02*
X-1382318Y395040D01*
X-1382318Y395040D02*
X-1401366Y385516D01*
X-1401366Y385516D02*
X-1420414Y385516D01*
X-1420414Y385516D02*
X-1439461Y395040D01*
X-1439461Y395040D02*
X-1448985Y404564D01*
X-1448985Y404564D02*
X-1458509Y423611D01*
X-1458509Y423611D02*
X-1468033Y461707D01*
X-1468033Y461707D02*
X-1468033Y509326D01*
X-1468033Y509326D02*
X-1458509Y547421D01*
X-1458509Y547421D02*
X-1448985Y566469D01*
X-1448985Y566469D02*
X-1439461Y575992D01*
X-1439461Y575992D02*
X-1420414Y585516D01*
X-1229937Y585516D02*
X-1210890Y585516D01*
X-1210890Y585516D02*
X-1191842Y575992D01*
X-1191842Y575992D02*
X-1182318Y566469D01*
X-1182318Y566469D02*
X-1172795Y547421D01*
X-1172795Y547421D02*
X-1163271Y509326D01*
X-1163271Y509326D02*
X-1163271Y461707D01*
X-1163271Y461707D02*
X-1172795Y423611D01*
X-1172795Y423611D02*
X-1182318Y404564D01*
X-1182318Y404564D02*
X-1191842Y395040D01*
X-1191842Y395040D02*
X-1210890Y385516D01*
X-1210890Y385516D02*
X-1229937Y385516D01*
X-1229937Y385516D02*
X-1248985Y395040D01*
X-1248985Y395040D02*
X-1258509Y404564D01*
X-1258509Y404564D02*
X-1268033Y423611D01*
X-1268033Y423611D02*
X-1277556Y461707D01*
X-1277556Y461707D02*
X-1277556Y509326D01*
X-1277556Y509326D02*
X-1268033Y547421D01*
X-1268033Y547421D02*
X-1258509Y566469D01*
X-1258509Y566469D02*
X-1248985Y575992D01*
X-1248985Y575992D02*
X-1229937Y585516D01*
X-1039461Y585516D02*
X-1020413Y585516D01*
X-1020413Y585516D02*
X-1001366Y575992D01*
X-1001366Y575992D02*
X-991842Y566469D01*
X-991842Y566469D02*
X-982318Y547421D01*
X-982318Y547421D02*
X-972794Y509326D01*
X-972794Y509326D02*
X-972794Y461707D01*
X-972794Y461707D02*
X-982318Y423611D01*
X-982318Y423611D02*
X-991842Y404564D01*
X-991842Y404564D02*
X-1001366Y395040D01*
X-1001366Y395040D02*
X-1020413Y385516D01*
X-1020413Y385516D02*
X-1039461Y385516D01*
X-1039461Y385516D02*
X-1058509Y395040D01*
X-1058509Y395040D02*
X-1068033Y404564D01*
X-1068033Y404564D02*
X-1077556Y423611D01*
X-1077556Y423611D02*
X-1087080Y461707D01*
X-1087080Y461707D02*
X-1087080Y509326D01*
X-1087080Y509326D02*
X-1077556Y547421D01*
X-1077556Y547421D02*
X-1068033Y566469D01*
X-1068033Y566469D02*
X-1058509Y575992D01*
X-1058509Y575992D02*
X-1039461Y585516D01*
X-887080Y385516D02*
X-887080Y518849D01*
X-887080Y499802D02*
X-877556Y509326D01*
X-877556Y509326D02*
X-858509Y518849D01*
X-858509Y518849D02*
X-829937Y518849D01*
X-829937Y518849D02*
X-810890Y509326D01*
X-810890Y509326D02*
X-801366Y490278D01*
X-801366Y490278D02*
X-801366Y385516D01*
X-801366Y490278D02*
X-791842Y509326D01*
X-791842Y509326D02*
X-772794Y518849D01*
X-772794Y518849D02*
X-744223Y518849D01*
X-744223Y518849D02*
X-725175Y509326D01*
X-725175Y509326D02*
X-715652Y490278D01*
X-715652Y490278D02*
X-715652Y385516D01*
X-620414Y385516D02*
X-620414Y518849D01*
X-620414Y499802D02*
X-610890Y509326D01*
X-610890Y509326D02*
X-591842Y518849D01*
X-591842Y518849D02*
X-563271Y518849D01*
X-563271Y518849D02*
X-544223Y509326D01*
X-544223Y509326D02*
X-534699Y490278D01*
X-534699Y490278D02*
X-534699Y385516D01*
X-534699Y490278D02*
X-525175Y509326D01*
X-525175Y509326D02*
X-506128Y518849D01*
X-506128Y518849D02*
X-477556Y518849D01*
X-477556Y518849D02*
X-458509Y509326D01*
X-458509Y509326D02*
X-448985Y490278D01*
X-448985Y490278D02*
X-448985Y385516D01*
X-58509Y595040D02*
X-229937Y337897D01*
X198634Y585516D02*
X217682Y585516D01*
X217682Y585516D02*
X236729Y575992D01*
X236729Y575992D02*
X246253Y566469D01*
X246253Y566469D02*
X255777Y547421D01*
X255777Y547421D02*
X265301Y509326D01*
X265301Y509326D02*
X265301Y461707D01*
X265301Y461707D02*
X255777Y423611D01*
X255777Y423611D02*
X246253Y404564D01*
X246253Y404564D02*
X236729Y395040D01*
X236729Y395040D02*
X217682Y385516D01*
X217682Y385516D02*
X198634Y385516D01*
X198634Y385516D02*
X179586Y395040D01*
X179586Y395040D02*
X170063Y404564D01*
X170063Y404564D02*
X160539Y423611D01*
X160539Y423611D02*
X151015Y461707D01*
X151015Y461707D02*
X151015Y509326D01*
X151015Y509326D02*
X160539Y547421D01*
X160539Y547421D02*
X170063Y566469D01*
X170063Y566469D02*
X179586Y575992D01*
X179586Y575992D02*
X198634Y585516D01*
X351015Y404564D02*
X360539Y395040D01*
X360539Y395040D02*
X351015Y385516D01*
X351015Y385516D02*
X341491Y395040D01*
X341491Y395040D02*
X351015Y404564D01*
X351015Y404564D02*
X351015Y385516D01*
X484348Y585516D02*
X503396Y585516D01*
X503396Y585516D02*
X522444Y575992D01*
X522444Y575992D02*
X531968Y566469D01*
X531968Y566469D02*
X541491Y547421D01*
X541491Y547421D02*
X551015Y509326D01*
X551015Y509326D02*
X551015Y461707D01*
X551015Y461707D02*
X541491Y423611D01*
X541491Y423611D02*
X531968Y404564D01*
X531968Y404564D02*
X522444Y395040D01*
X522444Y395040D02*
X503396Y385516D01*
X503396Y385516D02*
X484348Y385516D01*
X484348Y385516D02*
X465301Y395040D01*
X465301Y395040D02*
X455777Y404564D01*
X455777Y404564D02*
X446253Y423611D01*
X446253Y423611D02*
X436729Y461707D01*
X436729Y461707D02*
X436729Y509326D01*
X436729Y509326D02*
X446253Y547421D01*
X446253Y547421D02*
X455777Y566469D01*
X455777Y566469D02*
X465301Y575992D01*
X465301Y575992D02*
X484348Y585516D01*
X617682Y585516D02*
X741491Y585516D01*
X741491Y585516D02*
X674825Y509326D01*
X674825Y509326D02*
X703396Y509326D01*
X703396Y509326D02*
X722444Y499802D01*
X722444Y499802D02*
X731967Y490278D01*
X731967Y490278D02*
X741491Y471230D01*
X741491Y471230D02*
X741491Y423611D01*
X741491Y423611D02*
X731967Y404564D01*
X731967Y404564D02*
X722444Y395040D01*
X722444Y395040D02*
X703396Y385516D01*
X703396Y385516D02*
X646253Y385516D01*
X646253Y385516D02*
X627206Y395040D01*
X627206Y395040D02*
X617682Y404564D01*
X836729Y385516D02*
X874825Y385516D01*
X874825Y385516D02*
X893872Y395040D01*
X893872Y395040D02*
X903396Y404564D01*
X903396Y404564D02*
X922444Y433135D01*
X922444Y433135D02*
X931967Y471230D01*
X931967Y471230D02*
X931967Y547421D01*
X931967Y547421D02*
X922444Y566469D01*
X922444Y566469D02*
X912920Y575992D01*
X912920Y575992D02*
X893872Y585516D01*
X893872Y585516D02*
X855777Y585516D01*
X855777Y585516D02*
X836729Y575992D01*
X836729Y575992D02*
X827206Y566469D01*
X827206Y566469D02*
X817682Y547421D01*
X817682Y547421D02*
X817682Y499802D01*
X817682Y499802D02*
X827206Y480754D01*
X827206Y480754D02*
X836729Y471230D01*
X836729Y471230D02*
X855777Y461707D01*
X855777Y461707D02*
X893872Y461707D01*
X893872Y461707D02*
X912920Y471230D01*
X912920Y471230D02*
X922444Y480754D01*
X922444Y480754D02*
X931967Y499802D01*
X1103396Y518849D02*
X1103396Y385516D01*
X1055777Y595040D02*
X1008158Y452183D01*
X1008158Y452183D02*
X1131968Y452183D01*
X1198634Y585516D02*
X1198634Y547421D01*
X1274825Y585516D02*
X1274825Y547421D01*
X1570063Y309326D02*
X1560539Y318850D01*
X1560539Y318850D02*
X1541491Y347421D01*
X1541491Y347421D02*
X1531968Y366468D01*
X1531968Y366468D02*
X1522444Y395040D01*
X1522444Y395040D02*
X1512920Y442659D01*
X1512920Y442659D02*
X1512920Y480754D01*
X1512920Y480754D02*
X1522444Y528373D01*
X1522444Y528373D02*
X1531968Y556945D01*
X1531968Y556945D02*
X1541491Y575992D01*
X1541491Y575992D02*
X1560539Y604564D01*
X1560539Y604564D02*
X1570063Y614088D01*
X1674825Y499802D02*
X1655777Y509326D01*
X1655777Y509326D02*
X1646253Y518849D01*
X1646253Y518849D02*
X1636729Y537897D01*
X1636729Y537897D02*
X1636729Y547421D01*
X1636729Y547421D02*
X1646253Y566469D01*
X1646253Y566469D02*
X1655777Y575992D01*
X1655777Y575992D02*
X1674825Y585516D01*
X1674825Y585516D02*
X1712920Y585516D01*
X1712920Y585516D02*
X1731968Y575992D01*
X1731968Y575992D02*
X1741491Y566469D01*
X1741491Y566469D02*
X1751015Y547421D01*
X1751015Y547421D02*
X1751015Y537897D01*
X1751015Y537897D02*
X1741491Y518849D01*
X1741491Y518849D02*
X1731968Y509326D01*
X1731968Y509326D02*
X1712920Y499802D01*
X1712920Y499802D02*
X1674825Y499802D01*
X1674825Y499802D02*
X1655777Y490278D01*
X1655777Y490278D02*
X1646253Y480754D01*
X1646253Y480754D02*
X1636729Y461707D01*
X1636729Y461707D02*
X1636729Y423611D01*
X1636729Y423611D02*
X1646253Y404564D01*
X1646253Y404564D02*
X1655777Y395040D01*
X1655777Y395040D02*
X1674825Y385516D01*
X1674825Y385516D02*
X1712920Y385516D01*
X1712920Y385516D02*
X1731968Y395040D01*
X1731968Y395040D02*
X1741491Y404564D01*
X1741491Y404564D02*
X1751015Y423611D01*
X1751015Y423611D02*
X1751015Y461707D01*
X1751015Y461707D02*
X1741491Y480754D01*
X1741491Y480754D02*
X1731968Y490278D01*
X1731968Y490278D02*
X1712920Y499802D01*
X1989110Y385516D02*
X1989110Y585516D01*
X2074825Y385516D02*
X2074825Y490278D01*
X2074825Y490278D02*
X2065301Y509326D01*
X2065301Y509326D02*
X2046253Y518849D01*
X2046253Y518849D02*
X2017682Y518849D01*
X2017682Y518849D02*
X1998634Y509326D01*
X1998634Y509326D02*
X1989110Y499802D01*
X2198634Y385516D02*
X2179587Y395040D01*
X2179587Y395040D02*
X2170063Y404564D01*
X2170063Y404564D02*
X2160539Y423611D01*
X2160539Y423611D02*
X2160539Y480754D01*
X2160539Y480754D02*
X2170063Y499802D01*
X2170063Y499802D02*
X2179587Y509326D01*
X2179587Y509326D02*
X2198634Y518849D01*
X2198634Y518849D02*
X2227206Y518849D01*
X2227206Y518849D02*
X2246253Y509326D01*
X2246253Y509326D02*
X2255777Y499802D01*
X2255777Y499802D02*
X2265301Y480754D01*
X2265301Y480754D02*
X2265301Y423611D01*
X2265301Y423611D02*
X2255777Y404564D01*
X2255777Y404564D02*
X2246253Y395040D01*
X2246253Y395040D02*
X2227206Y385516D01*
X2227206Y385516D02*
X2198634Y385516D01*
X2379587Y385516D02*
X2360539Y395040D01*
X2360539Y395040D02*
X2351015Y414088D01*
X2351015Y414088D02*
X2351015Y585516D01*
X2531968Y395040D02*
X2512920Y385516D01*
X2512920Y385516D02*
X2474825Y385516D01*
X2474825Y385516D02*
X2455777Y395040D01*
X2455777Y395040D02*
X2446253Y414088D01*
X2446253Y414088D02*
X2446253Y490278D01*
X2446253Y490278D02*
X2455777Y509326D01*
X2455777Y509326D02*
X2474825Y518849D01*
X2474825Y518849D02*
X2512920Y518849D01*
X2512920Y518849D02*
X2531968Y509326D01*
X2531968Y509326D02*
X2541492Y490278D01*
X2541492Y490278D02*
X2541492Y471230D01*
X2541492Y471230D02*
X2446253Y452183D01*
X2617682Y395040D02*
X2636730Y385516D01*
X2636730Y385516D02*
X2674825Y385516D01*
X2674825Y385516D02*
X2693873Y395040D01*
X2693873Y395040D02*
X2703396Y414088D01*
X2703396Y414088D02*
X2703396Y423611D01*
X2703396Y423611D02*
X2693873Y442659D01*
X2693873Y442659D02*
X2674825Y452183D01*
X2674825Y452183D02*
X2646253Y452183D01*
X2646253Y452183D02*
X2627206Y461707D01*
X2627206Y461707D02*
X2617682Y480754D01*
X2617682Y480754D02*
X2617682Y490278D01*
X2617682Y490278D02*
X2627206Y509326D01*
X2627206Y509326D02*
X2646253Y518849D01*
X2646253Y518849D02*
X2674825Y518849D01*
X2674825Y518849D02*
X2693873Y509326D01*
X2770063Y309326D02*
X2779587Y318850D01*
X2779587Y318850D02*
X2798634Y347421D01*
X2798634Y347421D02*
X2808158Y366468D01*
X2808158Y366468D02*
X2817682Y395040D01*
X2817682Y395040D02*
X2827206Y442659D01*
X2827206Y442659D02*
X2827206Y480754D01*
X2827206Y480754D02*
X2817682Y528373D01*
X2817682Y528373D02*
X2808158Y556945D01*
X2808158Y556945D02*
X2798634Y575992D01*
X2798634Y575992D02*
X2779587Y604564D01*
X2779587Y604564D02*
X2770063Y614088D01*
M02*
