%TF.GenerationSoftware,KiCad,Pcbnew,8.0.5*%
%TF.CreationDate,2025-03-11T15:07:16+00:00*%
%TF.ProjectId,UC_V4_4904-30028-06,55435f56-345f-4343-9930-342d33303032,rev?*%
%TF.SameCoordinates,Original*%
%TF.FileFunction,Paste,Top*%
%TF.FilePolarity,Positive*%
%FSLAX46Y46*%
G04 Gerber Fmt 4.6, Leading zero omitted, Abs format (unit mm)*
G04 Created by KiCad (PCBNEW 8.0.5) date 2025-03-11 15:07:16*
%MOMM*%
%LPD*%
G01*
G04 APERTURE LIST*
G04 Aperture macros list*
%AMRoundRect*
0 Rectangle with rounded corners*
0 $1 Rounding radius*
0 $2 $3 $4 $5 $6 $7 $8 $9 X,Y pos of 4 corners*
0 Add a 4 corners polygon primitive as box body*
4,1,4,$2,$3,$4,$5,$6,$7,$8,$9,$2,$3,0*
0 Add four circle primitives for the rounded corners*
1,1,$1+$1,$2,$3*
1,1,$1+$1,$4,$5*
1,1,$1+$1,$6,$7*
1,1,$1+$1,$8,$9*
0 Add four rect primitives between the rounded corners*
20,1,$1+$1,$2,$3,$4,$5,0*
20,1,$1+$1,$4,$5,$6,$7,0*
20,1,$1+$1,$6,$7,$8,$9,0*
20,1,$1+$1,$8,$9,$2,$3,0*%
G04 Aperture macros list end*
%ADD10RoundRect,0.225000X0.225000X0.250000X-0.225000X0.250000X-0.225000X-0.250000X0.225000X-0.250000X0*%
%ADD11RoundRect,0.200000X0.200000X0.275000X-0.200000X0.275000X-0.200000X-0.275000X0.200000X-0.275000X0*%
%ADD12R,0.750000X0.400000*%
%ADD13R,0.750000X0.500000*%
%ADD14RoundRect,0.250000X0.325000X0.650000X-0.325000X0.650000X-0.325000X-0.650000X0.325000X-0.650000X0*%
%ADD15R,1.400000X1.150000*%
%ADD16RoundRect,0.225000X-0.250000X0.225000X-0.250000X-0.225000X0.250000X-0.225000X0.250000X0.225000X0*%
%ADD17RoundRect,0.225000X0.250000X-0.225000X0.250000X0.225000X-0.250000X0.225000X-0.250000X-0.225000X0*%
%ADD18RoundRect,0.200000X-0.200000X-0.275000X0.200000X-0.275000X0.200000X0.275000X-0.200000X0.275000X0*%
%ADD19RoundRect,0.225000X-0.225000X-0.250000X0.225000X-0.250000X0.225000X0.250000X-0.225000X0.250000X0*%
%ADD20R,1.800000X1.000000*%
%ADD21R,0.406400X0.977900*%
%ADD22RoundRect,0.200000X0.275000X-0.200000X0.275000X0.200000X-0.275000X0.200000X-0.275000X-0.200000X0*%
%ADD23R,2.000000X2.000000*%
%ADD24RoundRect,0.250000X0.650000X-0.325000X0.650000X0.325000X-0.650000X0.325000X-0.650000X-0.325000X0*%
%ADD25R,1.700000X1.700000*%
%ADD26O,1.700000X1.700000*%
%ADD27RoundRect,0.250000X-0.650000X0.325000X-0.650000X-0.325000X0.650000X-0.325000X0.650000X0.325000X0*%
%ADD28R,0.304800X0.533400*%
G04 APERTURE END LIST*
D10*
%TO.C,C13*%
X133853200Y-101052800D03*
X132303200Y-101052800D03*
%TD*%
D11*
%TO.C,R2*%
X140532600Y-92213600D03*
X138882600Y-92213600D03*
%TD*%
D12*
%TO.C,U9*%
X163758600Y-99762000D03*
D13*
X163758600Y-98462000D03*
D12*
X162108600Y-98462000D03*
X162108600Y-99762000D03*
%TD*%
D14*
%TO.C,C7*%
X144941800Y-103846800D03*
X141991800Y-103846800D03*
%TD*%
D15*
%TO.C,XTAL1*%
X152603000Y-98728600D03*
X154803000Y-98728600D03*
X154803000Y-97128600D03*
X152603000Y-97128600D03*
%TD*%
D16*
%TO.C,C49*%
X167531000Y-98311600D03*
X167531000Y-99861600D03*
%TD*%
D17*
%TO.C,C9*%
X119468200Y-102548200D03*
X119468200Y-100998200D03*
%TD*%
D18*
%TO.C,R1*%
X147264600Y-92797800D03*
X148914600Y-92797800D03*
%TD*%
D17*
%TO.C,C1*%
X125558200Y-103613200D03*
X125558200Y-102063200D03*
%TD*%
%TO.C,C29*%
X136710400Y-100100600D03*
X136710400Y-98550600D03*
%TD*%
D19*
%TO.C,C5*%
X114243200Y-91848200D03*
X115793200Y-91848200D03*
%TD*%
D20*
%TO.C,Y1*%
X152610800Y-92406000D03*
X152610800Y-94906000D03*
%TD*%
D21*
%TO.C,U2*%
X117578400Y-94638050D03*
X118518200Y-94638050D03*
X119458000Y-94638050D03*
X119470700Y-91958350D03*
X117565700Y-91958350D03*
%TD*%
D14*
%TO.C,C12*%
X134731000Y-103669000D03*
X131781000Y-103669000D03*
%TD*%
D19*
%TO.C,C50*%
X154655200Y-93204200D03*
X156205200Y-93204200D03*
%TD*%
D14*
%TO.C,C4*%
X113643200Y-98823200D03*
X110693200Y-98823200D03*
%TD*%
D22*
%TO.C,R64*%
X165880000Y-99911600D03*
X165880000Y-98261600D03*
%TD*%
D16*
%TO.C,C27*%
X122892800Y-95883600D03*
X122892800Y-97433600D03*
%TD*%
D23*
%TO.C,SW1*%
X138072800Y-116327600D03*
X122952800Y-116327600D03*
%TD*%
D19*
%TO.C,C51*%
X154655200Y-94880600D03*
X156205200Y-94880600D03*
%TD*%
D24*
%TO.C,C11*%
X115868200Y-104603200D03*
X115868200Y-101653200D03*
%TD*%
D18*
%TO.C,R3*%
X177563200Y-96638200D03*
X179213200Y-96638200D03*
%TD*%
%TO.C,R4*%
X133574000Y-105853400D03*
X135224000Y-105853400D03*
%TD*%
D25*
%TO.C,J1*%
X133340000Y-89416600D03*
D26*
X130800000Y-89416600D03*
X128260000Y-89416600D03*
X125720000Y-89416600D03*
%TD*%
D21*
%TO.C,U6*%
X119483000Y-96833350D03*
X118543200Y-96833350D03*
X117603400Y-96833350D03*
X117590700Y-99513050D03*
X119495700Y-99513050D03*
%TD*%
D10*
%TO.C,C10*%
X115843200Y-94248200D03*
X114293200Y-94248200D03*
%TD*%
%TO.C,C8*%
X144064000Y-101738600D03*
X142514000Y-101738600D03*
%TD*%
D19*
%TO.C,C28*%
X147289200Y-103059400D03*
X148839200Y-103059400D03*
%TD*%
D27*
%TO.C,C30*%
X125051800Y-94956800D03*
X125051800Y-97906800D03*
%TD*%
D10*
%TO.C,C2*%
X148940800Y-97827000D03*
X147390800Y-97827000D03*
%TD*%
D28*
%TO.C,D2*%
X163413600Y-93550400D03*
X163413600Y-94769600D03*
%TD*%
D10*
%TO.C,C3*%
X148940800Y-96252200D03*
X147390800Y-96252200D03*
%TD*%
D17*
%TO.C,C6*%
X121143200Y-94023200D03*
X121143200Y-92473200D03*
%TD*%
M02*
