%TF.GenerationSoftware,KiCad,Pcbnew,8.0.5*%
%TF.CreationDate,2025-03-11T15:07:16+00:00*%
%TF.ProjectId,UC_V4_4904-30028-06,55435f56-345f-4343-9930-342d33303032,rev?*%
%TF.SameCoordinates,Original*%
%TF.FileFunction,Copper,L4,Bot*%
%TF.FilePolarity,Positive*%
%FSLAX46Y46*%
G04 Gerber Fmt 4.6, Leading zero omitted, Abs format (unit mm)*
G04 Created by KiCad (PCBNEW 8.0.5) date 2025-03-11 15:07:16*
%MOMM*%
%LPD*%
G01*
G04 APERTURE LIST*
G04 Aperture macros list*
%AMRoundRect*
0 Rectangle with rounded corners*
0 $1 Rounding radius*
0 $2 $3 $4 $5 $6 $7 $8 $9 X,Y pos of 4 corners*
0 Add a 4 corners polygon primitive as box body*
4,1,4,$2,$3,$4,$5,$6,$7,$8,$9,$2,$3,0*
0 Add four circle primitives for the rounded corners*
1,1,$1+$1,$2,$3*
1,1,$1+$1,$4,$5*
1,1,$1+$1,$6,$7*
1,1,$1+$1,$8,$9*
0 Add four rect primitives between the rounded corners*
20,1,$1+$1,$2,$3,$4,$5,0*
20,1,$1+$1,$4,$5,$6,$7,0*
20,1,$1+$1,$6,$7,$8,$9,0*
20,1,$1+$1,$8,$9,$2,$3,0*%
G04 Aperture macros list end*
%TA.AperFunction,SMDPad,CuDef*%
%ADD10C,1.000000*%
%TD*%
%TA.AperFunction,ComponentPad*%
%ADD11R,1.700000X1.700000*%
%TD*%
%TA.AperFunction,ComponentPad*%
%ADD12O,1.700000X1.700000*%
%TD*%
%TA.AperFunction,ComponentPad*%
%ADD13R,2.400000X2.400000*%
%TD*%
%TA.AperFunction,ComponentPad*%
%ADD14C,2.400000*%
%TD*%
%TA.AperFunction,SMDPad,CuDef*%
%ADD15RoundRect,0.150000X-0.587500X-0.150000X0.587500X-0.150000X0.587500X0.150000X-0.587500X0.150000X0*%
%TD*%
%TA.AperFunction,SMDPad,CuDef*%
%ADD16RoundRect,0.200000X0.200000X-1.350000X0.200000X1.350000X-0.200000X1.350000X-0.200000X-1.350000X0*%
%TD*%
%TA.AperFunction,SMDPad,CuDef*%
%ADD17RoundRect,0.075000X0.700000X0.075000X-0.700000X0.075000X-0.700000X-0.075000X0.700000X-0.075000X0*%
%TD*%
%TA.AperFunction,SMDPad,CuDef*%
%ADD18RoundRect,0.075000X0.075000X0.700000X-0.075000X0.700000X-0.075000X-0.700000X0.075000X-0.700000X0*%
%TD*%
%TA.AperFunction,SMDPad,CuDef*%
%ADD19R,0.900000X1.200000*%
%TD*%
%TA.AperFunction,SMDPad,CuDef*%
%ADD20R,0.400000X0.250000*%
%TD*%
%TA.AperFunction,SMDPad,CuDef*%
%ADD21R,0.500000X3.000000*%
%TD*%
%TA.AperFunction,SMDPad,CuDef*%
%ADD22RoundRect,0.150000X0.725000X0.150000X-0.725000X0.150000X-0.725000X-0.150000X0.725000X-0.150000X0*%
%TD*%
%TA.AperFunction,SMDPad,CuDef*%
%ADD23C,0.500000*%
%TD*%
%TA.AperFunction,SMDPad,CuDef*%
%ADD24R,0.700000X2.000000*%
%TD*%
%TA.AperFunction,SMDPad,CuDef*%
%ADD25R,3.000000X5.200000*%
%TD*%
%TA.AperFunction,SMDPad,CuDef*%
%ADD26R,3.000000X5.000000*%
%TD*%
%TA.AperFunction,SMDPad,CuDef*%
%ADD27RoundRect,0.225000X0.225000X0.250000X-0.225000X0.250000X-0.225000X-0.250000X0.225000X-0.250000X0*%
%TD*%
%TA.AperFunction,SMDPad,CuDef*%
%ADD28R,1.500000X0.800000*%
%TD*%
%TA.AperFunction,SMDPad,CuDef*%
%ADD29R,2.000000X1.450000*%
%TD*%
%TA.AperFunction,ViaPad*%
%ADD30C,0.800000*%
%TD*%
%TA.AperFunction,Conductor*%
%ADD31C,0.500000*%
%TD*%
%TA.AperFunction,Conductor*%
%ADD32C,0.250000*%
%TD*%
%TA.AperFunction,Conductor*%
%ADD33C,0.200000*%
%TD*%
G04 APERTURE END LIST*
D10*
%TO.P,FID3,*%
%TO.N,*%
X199786400Y-91493000D03*
%TD*%
D11*
%TO.P,J4,1,Pin_1*%
%TO.N,GND*%
X133418200Y-92198200D03*
D12*
%TO.P,J4,2,Pin_2*%
%TO.N,/SWDIO*%
X130878200Y-92198200D03*
%TO.P,J4,3,Pin_3*%
%TO.N,/SWCLK*%
X128338200Y-92198200D03*
%TO.P,J4,4,Pin_4*%
%TO.N,/+3V3*%
X125798200Y-92198200D03*
%TD*%
D13*
%TO.P,BT1,1,+*%
%TO.N,/Uext*%
X181618200Y-96648200D03*
D14*
%TO.P,BT1,2,-*%
%TO.N,GND*%
X202618200Y-96648200D03*
%TO.P,BT1,3,-*%
X202618200Y-92898200D03*
%TO.P,BT1,4,-*%
X202618200Y-100398200D03*
%TD*%
D15*
%TO.P,Q2,1,B*%
%TO.N,/READY*%
X181119700Y-117639800D03*
%TO.P,Q2,2,E*%
%TO.N,GND*%
X181119700Y-115739800D03*
%TO.P,Q2,3,C*%
%TO.N,/Batt_On*%
X182994700Y-116689800D03*
%TD*%
D16*
%TO.P,K1,1*%
%TO.N,/+3V3*%
X198418200Y-109523200D03*
%TO.P,K1,2*%
%TO.N,unconnected-(K1-Pad2)*%
X195218200Y-109523200D03*
%TO.P,K1,3*%
%TO.N,/Uext*%
X193018200Y-109523200D03*
%TO.P,K1,4*%
%TO.N,/+3V3*%
X190818200Y-109523200D03*
%TO.P,K1,5*%
X190818200Y-104223200D03*
%TO.P,K1,6*%
%TO.N,/Uext*%
X193018200Y-104223200D03*
%TO.P,K1,7*%
%TO.N,unconnected-(K1-Pad7)*%
X195218200Y-104223200D03*
%TO.P,K1,8*%
%TO.N,/Batt_On*%
X198418200Y-104223200D03*
%TD*%
D17*
%TO.P,U1,1,VBAT*%
%TO.N,/VBAT*%
X148075000Y-95321600D03*
%TO.P,U1,2,PC13*%
%TO.N,/Mains*%
X148075000Y-95821600D03*
%TO.P,U1,3,PC14-OSC32_IN*%
%TO.N,/OSC32_IN*%
X148075000Y-96321600D03*
%TO.P,U1,4,PC15-OSC32_OUT*%
%TO.N,/OSC32_OUT*%
X148075000Y-96821600D03*
%TO.P,U1,5,PH0-OSC_IN*%
%TO.N,/OSC_IN*%
X148075000Y-97321600D03*
%TO.P,U1,6,PH1-OSC_OUT*%
%TO.N,/OSC_OUT*%
X148075000Y-97821600D03*
%TO.P,U1,7,NRST*%
%TO.N,/NRST*%
X148075000Y-98321600D03*
%TO.P,U1,8,PC0*%
%TO.N,/uDTR*%
X148075000Y-98821600D03*
%TO.P,U1,9,PC1*%
%TO.N,/uDCD*%
X148075000Y-99321600D03*
%TO.P,U1,10,PC2*%
%TO.N,/uStatus*%
X148075000Y-99821600D03*
%TO.P,U1,11,PC3*%
%TO.N,/uPWRKEY*%
X148075000Y-100321600D03*
%TO.P,U1,12,VSSA*%
%TO.N,GND*%
X148075000Y-100821600D03*
%TO.P,U1,13,VDDA*%
%TO.N,/VDDA*%
X148075000Y-101321600D03*
%TO.P,U1,14,PA0*%
%TO.N,/SS*%
X148075000Y-101821600D03*
%TO.P,U1,15,PA1*%
%TO.N,/SCLK*%
X148075000Y-102321600D03*
%TO.P,U1,16,PA2*%
%TO.N,/TxD*%
X148075000Y-102821600D03*
D18*
%TO.P,U1,17,PA3*%
%TO.N,/RxD*%
X146150000Y-104746600D03*
%TO.P,U1,18,VDD*%
%TO.N,GND*%
X145650000Y-104746600D03*
%TO.P,U1,19,VSS*%
%TO.N,/+3V3*%
X145150000Y-104746600D03*
%TO.P,U1,20,PA4*%
%TO.N,/ADE_Reset*%
X144650000Y-104746600D03*
%TO.P,U1,21,PA5*%
%TO.N,/BT_RxD*%
X144150000Y-104746600D03*
%TO.P,U1,22,PA6*%
%TO.N,/MISO*%
X143650000Y-104746600D03*
%TO.P,U1,23,PA7*%
%TO.N,/MOSI*%
X143150000Y-104746600D03*
%TO.P,U1,24,PC4*%
%TO.N,/BT_TxD*%
X142650000Y-104746600D03*
%TO.P,U1,25,PC5*%
%TO.N,/Alim*%
X142150000Y-104746600D03*
%TO.P,U1,26,PB0*%
%TO.N,/StartMasura*%
X141650000Y-104746600D03*
%TO.P,U1,27,PB1*%
%TO.N,/IRQ2*%
X141150000Y-104746600D03*
%TO.P,U1,28,PB2*%
%TO.N,/READY*%
X140650000Y-104746600D03*
%TO.P,U1,29,PB10*%
%TO.N,/SDAT2*%
X140150000Y-104746600D03*
%TO.P,U1,30,VCAP*%
%TO.N,Net-(U1A-VCAP)*%
X139650000Y-104746600D03*
%TO.P,U1,31,VSS1*%
%TO.N,GND*%
X139150000Y-104746600D03*
%TO.P,U1,32,VDD1*%
%TO.N,/+3V3*%
X138650000Y-104746600D03*
D17*
%TO.P,U1,33,PB12*%
%TO.N,/SDAT3*%
X136725000Y-102821600D03*
%TO.P,U1,34,PB13*%
%TO.N,/SDAT4*%
X136725000Y-102321600D03*
%TO.P,U1,35,PB14*%
%TO.N,/SDAT5*%
X136725000Y-101821600D03*
%TO.P,U1,36,PB15*%
%TO.N,/SDAT6*%
X136725000Y-101321600D03*
%TO.P,U1,37,PC6*%
%TO.N,/SCS*%
X136725000Y-100821600D03*
%TO.P,U1,38,PC7*%
%TO.N,/SYN*%
X136725000Y-100321600D03*
%TO.P,U1,39,PC8*%
%TO.N,/SD_D0*%
X136725000Y-99821600D03*
%TO.P,U1,40,PC9*%
%TO.N,/SD_D1*%
X136725000Y-99321600D03*
%TO.P,U1,41,PA8*%
%TO.N,/SCL*%
X136725000Y-98821600D03*
%TO.P,U1,42,PA9*%
%TO.N,/RS485_TxD*%
X136725000Y-98321600D03*
%TO.P,U1,43,PA10*%
%TO.N,/RS485_RxD*%
X136725000Y-97821600D03*
%TO.P,U1,44,PA11*%
%TO.N,/SDAT7*%
X136725000Y-97321600D03*
%TO.P,U1,45,PA12*%
%TO.N,/RS485_DE*%
X136725000Y-96821600D03*
%TO.P,U1,46,PA13*%
%TO.N,/SWDIO*%
X136725000Y-96321600D03*
%TO.P,U1,47,VSS2*%
%TO.N,GND*%
X136725000Y-95821600D03*
%TO.P,U1,48,VUSB*%
%TO.N,/+3V3*%
X136725000Y-95321600D03*
D18*
%TO.P,U1,49,PA14*%
%TO.N,/SWCLK*%
X138650000Y-93396600D03*
%TO.P,U1,50,PA15*%
%TO.N,/Main*%
X139150000Y-93396600D03*
%TO.P,U1,51,PC10*%
%TO.N,/SD_D2*%
X139650000Y-93396600D03*
%TO.P,U1,52,PC11*%
%TO.N,/SD_D3*%
X140150000Y-93396600D03*
%TO.P,U1,53,PC12*%
%TO.N,/SD_CLK*%
X140650000Y-93396600D03*
%TO.P,U1,54,PD2*%
%TO.N,/SD_CMD*%
X141150000Y-93396600D03*
%TO.P,U1,55,PB3*%
%TO.N,/Magnet*%
X141650000Y-93396600D03*
%TO.P,U1,56,PB4*%
%TO.N,/BT_RTS*%
X142150000Y-93396600D03*
%TO.P,U1,57,PB5*%
%TO.N,/LED3*%
X142650000Y-93396600D03*
%TO.P,U1,58,PB6*%
%TO.N,/LED2*%
X143150000Y-93396600D03*
%TO.P,U1,59,PB7*%
%TO.N,/LED1*%
X143650000Y-93396600D03*
%TO.P,U1,60,PH3-BOOT0*%
%TO.N,/BT_CTS*%
X144150000Y-93396600D03*
%TO.P,U1,61,PB8*%
%TO.N,/SCLe*%
X144650000Y-93396600D03*
%TO.P,U1,62,PB9*%
%TO.N,/SDAe*%
X145150000Y-93396600D03*
%TO.P,U1,63,VSS3*%
%TO.N,GND*%
X145650000Y-93396600D03*
%TO.P,U1,64,VDD2*%
%TO.N,/+3V3*%
X146150000Y-93396600D03*
%TD*%
D19*
%TO.P,D1,1,K*%
%TO.N,/+3V3*%
X185309400Y-116512000D03*
%TO.P,D1,2,A*%
%TO.N,/Batt_On*%
X188609400Y-116512000D03*
%TD*%
D20*
%TO.P,FL1,1,SDDATA1*%
%TO.N,Net-(FL1-Pad1)*%
X124510700Y-99227000D03*
%TO.P,FL1,2,SDDATA0*%
%TO.N,Net-(FL1-Pad2)*%
X124510700Y-98827000D03*
%TO.P,FL1,3,SDCLK*%
%TO.N,Net-(FL1-Pad3)*%
X124510700Y-98427000D03*
%TO.P,FL1,4,ESD1*%
%TO.N,unconnected-(FL1-Pad4)*%
X124510700Y-98027000D03*
%TO.P,FL1,5,ESD3*%
%TO.N,unconnected-(FL1-Pad5)*%
X124510700Y-97627000D03*
%TO.P,FL1,6,SDCMD*%
%TO.N,Net-(FL1-Pad6)*%
X124510700Y-97227000D03*
%TO.P,FL1,7,SDDATA3*%
%TO.N,Net-(FL1-Pad7)*%
X124510700Y-96827000D03*
%TO.P,FL1,8,SDDATA2*%
%TO.N,Net-(FL1-Pad8)*%
X124510700Y-96427000D03*
%TO.P,FL1,9,DATA2*%
%TO.N,/SD_D2*%
X125660700Y-96427000D03*
%TO.P,FL1,10,DATA3*%
%TO.N,/SD_D3*%
X125660700Y-96827000D03*
%TO.P,FL1,11,CMD*%
%TO.N,/SD_CMD*%
X125660700Y-97227000D03*
%TO.P,FL1,12,VCC*%
%TO.N,/+3V3_SD*%
X125660700Y-97627000D03*
%TO.P,FL1,13,ESD1*%
%TO.N,unconnected-(FL1-Pad13)*%
X125660700Y-98027000D03*
%TO.P,FL1,14,CLK*%
%TO.N,/SD_CLK*%
X125660700Y-98427000D03*
%TO.P,FL1,15,DATA0*%
%TO.N,/SD_D0*%
X125660700Y-98827000D03*
%TO.P,FL1,16,DATA1*%
%TO.N,/SD_D1*%
X125660700Y-99227000D03*
D21*
%TO.P,FL1,17,GND*%
%TO.N,GND*%
X125085700Y-97827000D03*
%TD*%
D10*
%TO.P,FID4,*%
%TO.N,*%
X100955000Y-113870400D03*
%TD*%
D11*
%TO.P,J3,1,Pin_1*%
%TO.N,/+5V*%
X101108200Y-110148200D03*
D12*
%TO.P,J3,2,Pin_2*%
X101108200Y-107608200D03*
%TO.P,J3,3,Pin_3*%
%TO.N,GND*%
X103648200Y-110148200D03*
%TO.P,J3,4,Pin_4*%
X103648200Y-107608200D03*
%TO.P,J3,5,Pin_5*%
X106188200Y-110148200D03*
%TO.P,J3,6,Pin_6*%
X106188200Y-107608200D03*
%TD*%
D22*
%TO.P,U4,1,A0*%
%TO.N,GND*%
X163893200Y-91793200D03*
%TO.P,U4,2,A1*%
X163893200Y-93063200D03*
%TO.P,U4,3,A2*%
X163893200Y-94333200D03*
%TO.P,U4,4,GND*%
X163893200Y-95603200D03*
%TO.P,U4,5,SDA*%
%TO.N,/SDAe*%
X158743200Y-95603200D03*
%TO.P,U4,6,SCL*%
%TO.N,/SCLe*%
X158743200Y-94333200D03*
%TO.P,U4,7,WP*%
%TO.N,GND*%
X158743200Y-93063200D03*
%TO.P,U4,8,VCC*%
%TO.N,/+3V3*%
X158743200Y-91793200D03*
%TD*%
D23*
%TO.P,TP1,1,1*%
%TO.N,unconnected-(TP1-Pad1)*%
X163642200Y-103456400D03*
%TD*%
D24*
%TO.P,U3,P$A1,A1*%
%TO.N,/SCL*%
X159628200Y-115258200D03*
%TO.P,U3,P$A2,A2*%
%TO.N,/SCS*%
X160628200Y-115258200D03*
%TO.P,U3,P$A3,A3*%
%TO.N,/SYN*%
X161628200Y-115258200D03*
%TO.P,U3,P$A4,A4*%
%TO.N,/SDAT7*%
X162628200Y-115258200D03*
%TO.P,U3,P$A5,A5*%
%TO.N,/SDAT6*%
X163628200Y-115258200D03*
%TO.P,U3,P$A6,A6*%
%TO.N,/SDAT5*%
X164628200Y-115258200D03*
%TO.P,U3,P$A7,A7*%
%TO.N,/SDAT4*%
X165628200Y-115258200D03*
%TO.P,U3,P$A8,A8*%
%TO.N,/SDAT3*%
X166628200Y-115258200D03*
%TO.P,U3,P$A9,A9*%
%TO.N,/SDAT2*%
X167628200Y-115258200D03*
%TO.P,U3,P$A10,A10*%
%TO.N,GND*%
X168628200Y-115258200D03*
%TO.P,U3,P$A11,A11*%
%TO.N,/+3V3*%
X169628200Y-115258200D03*
%TO.P,U3,P$A12,A12*%
%TO.N,/Alim*%
X172628200Y-115258200D03*
%TO.P,U3,P$A13,A13*%
%TO.N,/RxD*%
X173628200Y-115258200D03*
%TO.P,U3,P$A14,A14*%
%TO.N,/TxD*%
X174628200Y-115258200D03*
%TO.P,U3,P$A15,A15*%
%TO.N,/uPWRKEY*%
X175628200Y-115258200D03*
%TO.P,U3,P$A16,A16*%
%TO.N,/uStatus*%
X176628200Y-115258200D03*
%TO.P,U3,P$A17,A17*%
%TO.N,/uDCD*%
X177628200Y-115258200D03*
%TO.P,U3,P$A18,A18*%
%TO.N,/uDTR*%
X178628200Y-115258200D03*
%TO.P,U3,P$B1,B1*%
%TO.N,/RS485_TxD*%
X159628200Y-108058200D03*
%TO.P,U3,P$B2,B2*%
%TO.N,/RS485_RxD*%
X160628200Y-108058200D03*
%TO.P,U3,P$B3,B3*%
%TO.N,/RS485_DE*%
X161628200Y-108058200D03*
%TO.P,U3,P$B4,B4*%
%TO.N,/StartMasura*%
X162628200Y-108058200D03*
%TO.P,U3,P$B5,B5*%
%TO.N,/IRQ2*%
X163628200Y-108058200D03*
%TO.P,U3,P$B6,B6*%
%TO.N,/SCLK*%
X164628200Y-108058200D03*
%TO.P,U3,P$B7,B7*%
%TO.N,/MISO*%
X165628200Y-108058200D03*
%TO.P,U3,P$B8,B8*%
%TO.N,/MOSI*%
X166628200Y-108058200D03*
%TO.P,U3,P$B9,B9*%
%TO.N,/SS*%
X167628200Y-108058200D03*
%TO.P,U3,P$B10,B10*%
%TO.N,/ADE_Reset*%
X168628200Y-108058200D03*
%TO.P,U3,P$B11,B11*%
%TO.N,/Mains*%
X169628200Y-108058200D03*
%TO.P,U3,P$B12,B12*%
%TO.N,/BT_TxD*%
X172628200Y-108058200D03*
%TO.P,U3,P$B13,B13*%
%TO.N,/BT_RxD*%
X173628200Y-108058200D03*
%TO.P,U3,P$B14,B14*%
%TO.N,/BT_CTS*%
X174628200Y-108058200D03*
%TO.P,U3,P$B15,B15*%
%TO.N,/BT_RTS*%
X175628200Y-108058200D03*
%TO.P,U3,P$B16,B16*%
%TO.N,/LED1*%
X176628200Y-108058200D03*
%TO.P,U3,P$B17,B17*%
%TO.N,/LED2*%
X177628200Y-108058200D03*
%TO.P,U3,P$B18,B18*%
%TO.N,/LED3*%
X178628200Y-108058200D03*
D25*
%TO.P,U3,P$NC1*%
%TO.N,N/C*%
X156628200Y-111658200D03*
D26*
%TO.P,U3,P$NC2*%
X181628200Y-111658200D03*
%TD*%
D27*
%TO.P,C14,1*%
%TO.N,/+3V3*%
X156365400Y-91950200D03*
%TO.P,C14,2*%
%TO.N,GND*%
X154815400Y-91950200D03*
%TD*%
D28*
%TO.P,SD-Card1,1,DAT2*%
%TO.N,Net-(FL1-SDDATA2)*%
X112738900Y-94148200D03*
%TO.P,SD-Card1,2,DAT3/CD*%
%TO.N,Net-(FL1-SDDATA3)*%
X112738900Y-95248200D03*
%TO.P,SD-Card1,3,CMD*%
%TO.N,Net-(FL1-SDCMD)*%
X112738900Y-96348200D03*
%TO.P,SD-Card1,4,VDD*%
%TO.N,/+3V3_SD*%
X112738900Y-97448200D03*
%TO.P,SD-Card1,5,CLK*%
%TO.N,Net-(FL1-SDCLK)*%
X112738900Y-98548200D03*
%TO.P,SD-Card1,6,VSS*%
%TO.N,GND*%
X112738900Y-99648200D03*
%TO.P,SD-Card1,7,DAT0*%
%TO.N,Net-(FL1-SDDATA0)*%
X112738900Y-100748200D03*
%TO.P,SD-Card1,8,DAT1*%
%TO.N,Net-(FL1-SDDATA1)*%
X112738900Y-101848200D03*
D29*
%TO.P,SD-Card1,9,SHIELD*%
%TO.N,GND*%
X118438900Y-90473200D03*
X110138900Y-90473200D03*
X118438900Y-104223200D03*
X110138900Y-104223200D03*
%TD*%
D30*
%TO.N,GND*%
X103648200Y-90638200D03*
X152728200Y-107608200D03*
X121428200Y-113498200D03*
X168925400Y-99595600D03*
X123968200Y-118578200D03*
X126508200Y-118578200D03*
X106188200Y-118578200D03*
X187468200Y-90638200D03*
X174742000Y-117578800D03*
X177282000Y-117553400D03*
X108728200Y-116038200D03*
X106188200Y-113498200D03*
X202708200Y-100798200D03*
X106188200Y-103338200D03*
X111268200Y-110958200D03*
X116348200Y-118578200D03*
X123968200Y-113498200D03*
X111268200Y-108418200D03*
X116348200Y-116038200D03*
X197628200Y-93178200D03*
X121428200Y-105878200D03*
X120182800Y-103685000D03*
X174768200Y-95718200D03*
X197628200Y-90638200D03*
X168823800Y-110568400D03*
X126508200Y-105878200D03*
X106188200Y-116038200D03*
X112715200Y-91340600D03*
X111268200Y-116038200D03*
X107393200Y-98798200D03*
X121428200Y-118578200D03*
X106188200Y-93178200D03*
X141018200Y-90898200D03*
X169688200Y-93178200D03*
X116348200Y-103338200D03*
X145854400Y-94956800D03*
X111268200Y-100798200D03*
X108728200Y-105878200D03*
X134128200Y-116038200D03*
X121428200Y-110958200D03*
X101108200Y-118578200D03*
X111268200Y-105878200D03*
X118888200Y-108418200D03*
X126508200Y-108418200D03*
X103648200Y-105878200D03*
X202818200Y-108448200D03*
X157030400Y-94118600D03*
X106188200Y-105878200D03*
X164302600Y-118671000D03*
X150756600Y-102805400D03*
X135194200Y-97766800D03*
X190008200Y-90638200D03*
X123568200Y-100123200D03*
X200168200Y-95718200D03*
X111268200Y-118578200D03*
X200168200Y-93178200D03*
X190008200Y-95718200D03*
X130309600Y-103694400D03*
X113808200Y-105878200D03*
X123968200Y-105878200D03*
X113808200Y-116038200D03*
X118693200Y-93798200D03*
X103648200Y-103338200D03*
X202708200Y-110958200D03*
X116348200Y-110958200D03*
X131588200Y-118578200D03*
X113808200Y-103338200D03*
X145709800Y-106016000D03*
X190008200Y-118578200D03*
X121368200Y-95298200D03*
X108728200Y-100798200D03*
X121428200Y-108418200D03*
X129048200Y-118578200D03*
X171490800Y-118086800D03*
X202708200Y-113498200D03*
X164759800Y-111584400D03*
X108728200Y-110958200D03*
X174768200Y-98258200D03*
X118888200Y-116038200D03*
X123968200Y-108418200D03*
X108728200Y-113498200D03*
X113808200Y-108418200D03*
X126508200Y-116038200D03*
X161568200Y-94898200D03*
X106188200Y-90638200D03*
X118888200Y-118578200D03*
X142577800Y-100392400D03*
X156166800Y-99071600D03*
X116348200Y-90638200D03*
X107693200Y-91673200D03*
X167503000Y-118594800D03*
X126508200Y-110958200D03*
X172228200Y-93178200D03*
X116348200Y-108418200D03*
X190008200Y-116038200D03*
X200168200Y-113498200D03*
X184928200Y-110958200D03*
X123493200Y-102598200D03*
X118888200Y-110958200D03*
X113808200Y-110958200D03*
X103648200Y-100798200D03*
X126508200Y-113498200D03*
X103648200Y-98258200D03*
X118328600Y-95836400D03*
X202708200Y-103338200D03*
X171287600Y-114607000D03*
X109895800Y-97182600D03*
X164686200Y-97958500D03*
X103648200Y-93178200D03*
X118888200Y-113498200D03*
X116348200Y-113498200D03*
X117515800Y-105818600D03*
X187468200Y-93178200D03*
X108728200Y-93178200D03*
X108728200Y-108418200D03*
X143212800Y-103135600D03*
X113808200Y-118578200D03*
X166055200Y-117578800D03*
X130716000Y-101052800D03*
X103648200Y-113498200D03*
X123318200Y-92448200D03*
X111268200Y-93178200D03*
X108728200Y-118578200D03*
X136668200Y-90638200D03*
X197628200Y-116038200D03*
X164683600Y-110212800D03*
X197628200Y-95718200D03*
X113808200Y-113498200D03*
X106188200Y-100798200D03*
X123968200Y-110958200D03*
X121478200Y-91467600D03*
X111268200Y-113498200D03*
%TO.N,/OSC_OUT*%
X150993000Y-97614400D03*
%TO.N,/OSC_IN*%
X150477200Y-96734800D03*
%TO.N,/VDDA*%
X146235400Y-101738600D03*
%TO.N,Net-(U1A-VCAP)*%
X136177000Y-103643600D03*
%TO.N,/SDAT7*%
X157068200Y-115668200D03*
X132458200Y-107378200D03*
X138796136Y-97468464D03*
X139838200Y-112208200D03*
%TO.N,/uDTR*%
X183318200Y-106428200D03*
X179498200Y-114018200D03*
%TO.N,/uDCD*%
X178508200Y-113228200D03*
X182388200Y-107168200D03*
%TO.N,/uPWRKEY*%
X180838200Y-106968200D03*
X178768200Y-111438200D03*
%TO.N,/Alim*%
X157088200Y-118978200D03*
X172678200Y-113478200D03*
X144288200Y-109638200D03*
X143271400Y-108536400D03*
%TO.N,/uStatus*%
X177698200Y-112348200D03*
X181678200Y-108028200D03*
%TO.N,/SD_D2*%
X139301200Y-94702800D03*
X131528800Y-95642600D03*
%TO.N,/SD_D3*%
X139885400Y-95490200D03*
X133306800Y-95515600D03*
%TO.N,/SD_CMD*%
X141239400Y-97055600D03*
X132875000Y-96353800D03*
%TO.N,/SD_CLK*%
X140604400Y-96242800D03*
X134018000Y-97547600D03*
%TO.N,/SD_D1*%
X129458011Y-98913011D03*
X127490200Y-99605000D03*
%TO.N,/SYN*%
X140428200Y-117628200D03*
X161388200Y-117318200D03*
%TO.N,/SCL*%
X158638400Y-116486600D03*
X129065000Y-100951200D03*
X142508200Y-116028200D03*
X130538200Y-98716000D03*
%TO.N,/SDAT2*%
X167598200Y-112788200D03*
X142198200Y-110968200D03*
%TO.N,/SCS*%
X160388200Y-116938200D03*
X139078200Y-113168200D03*
%TO.N,/SDAT3*%
X142331600Y-112219400D03*
X166578200Y-113278200D03*
%TO.N,/SDAT4*%
X165558200Y-113618200D03*
X137258200Y-110108200D03*
%TO.N,/SDAT5*%
X164848200Y-117228200D03*
X140978200Y-113218200D03*
%TO.N,/SDAT6*%
X131444197Y-110888200D03*
X163688200Y-117418200D03*
%TO.N,/+3V3*%
X150318200Y-92898200D03*
X138107400Y-91121400D03*
X138166000Y-102770600D03*
X169738200Y-117604200D03*
X129352200Y-105412200D03*
X170652600Y-115699200D03*
X132528394Y-97702259D03*
X186248200Y-114175200D03*
X160899000Y-99519400D03*
X169382600Y-113286200D03*
X130139600Y-102211800D03*
X161229200Y-91950200D03*
X146184600Y-102856200D03*
%TO.N,/RS485_RxD*%
X153668200Y-118382700D03*
X139501227Y-98283332D03*
%TO.N,/IRQ2*%
X150688200Y-111736800D03*
X163668200Y-110718200D03*
%TO.N,/READY*%
X179542600Y-117909000D03*
X147183000Y-115597600D03*
%TO.N,/SCLK*%
X155278200Y-106358200D03*
X149738200Y-106728200D03*
%TO.N,/MISO*%
X157266800Y-107012400D03*
X165848200Y-109788200D03*
%TO.N,/MOSI*%
X167028200Y-109728200D03*
X151247000Y-109349200D03*
%TO.N,/SS*%
X167655400Y-106479000D03*
X150147000Y-101789400D03*
%TO.N,/RS485_TxD*%
X155728200Y-118798200D03*
X131638200Y-112117800D03*
X138648600Y-99240000D03*
%TO.N,/RS485_DE*%
X146268200Y-111388200D03*
X161638200Y-109968200D03*
X148378200Y-110388200D03*
X140520400Y-100417800D03*
%TO.N,/NRST*%
X161119800Y-97903200D03*
%TO.N,/OSC32_IN*%
X150891400Y-93829800D03*
%TO.N,/OSC32_OUT*%
X151145400Y-94972800D03*
%TO.N,/Magnet*%
X137785000Y-114708600D03*
X138893200Y-107348200D03*
X129678200Y-114888200D03*
X141790400Y-98843000D03*
X135676800Y-106910800D03*
%TO.N,/BT_RxD*%
X149558200Y-104338200D03*
X147128200Y-107248200D03*
X173658200Y-105108200D03*
X152568200Y-103898200D03*
%TO.N,/BT_TxD*%
X142814200Y-107444200D03*
X149621400Y-105437600D03*
X172608200Y-105518200D03*
X152498200Y-105018200D03*
%TO.N,/LED3*%
X177308200Y-104618200D03*
X142476200Y-95210800D03*
%TO.N,/LED2*%
X143162000Y-96201400D03*
X177178200Y-105728200D03*
%TO.N,/LED1*%
X143949400Y-97141200D03*
X175328200Y-105208200D03*
%TO.N,/SDAe*%
X148013400Y-92289800D03*
%TO.N,/SCLe*%
X145125600Y-91670800D03*
%TO.N,/StartMasura*%
X162608200Y-110368200D03*
X141493400Y-107596600D03*
%TO.N,/Main*%
X137269200Y-92747000D03*
X120343200Y-95802500D03*
X126728200Y-94474200D03*
%TO.N,/BT_RTS*%
X176618200Y-98148200D03*
X175808200Y-109708200D03*
%TO.N,/BT_CTS*%
X165518200Y-91548200D03*
X174608200Y-109908200D03*
%TO.N,/Mains*%
X180398200Y-100968200D03*
X183008200Y-101188200D03*
X146286200Y-98385800D03*
X170938200Y-108538200D03*
%TO.N,/+3V3_SD*%
X114891800Y-97039600D03*
X128443200Y-97623200D03*
%TO.N,/VBAT*%
X148978600Y-94499600D03*
%TD*%
D31*
%TO.N,/Uext*%
X193018200Y-100448200D02*
X189218200Y-96648200D01*
X193018200Y-104223200D02*
X193018200Y-100448200D01*
X189218200Y-96648200D02*
X181618200Y-96648200D01*
D32*
%TO.N,GND*%
X145709800Y-106016000D02*
X145650000Y-105956200D01*
X163893200Y-95603200D02*
X163893200Y-94333200D01*
X163893200Y-94333200D02*
X163893200Y-93063200D01*
X145650000Y-94752400D02*
X145854400Y-94956800D01*
X135194200Y-97766800D02*
X134729200Y-97301800D01*
X134729200Y-96531600D02*
X135439200Y-95821600D01*
X135439200Y-95821600D02*
X136725000Y-95821600D01*
X145650000Y-93396600D02*
X145650000Y-94752400D01*
X145709800Y-106072600D02*
X145709800Y-106016000D01*
D33*
X143007000Y-100821600D02*
X142577800Y-100392400D01*
D32*
X145650000Y-105956200D02*
X145650000Y-104746600D01*
X134729200Y-97301800D02*
X134729200Y-96531600D01*
D33*
X148075000Y-100821600D02*
X143007000Y-100821600D01*
D32*
X163893200Y-93063200D02*
X163893200Y-91793200D01*
%TO.N,/OSC_OUT*%
X150791400Y-97614400D02*
X150584200Y-97821600D01*
X150584200Y-97821600D02*
X148075000Y-97821600D01*
X150993000Y-97614400D02*
X150791400Y-97614400D01*
%TO.N,/OSC_IN*%
X149890400Y-97321600D02*
X150477200Y-96734800D01*
X148075000Y-97321600D02*
X149890400Y-97321600D01*
%TO.N,/VDDA*%
X148075000Y-101321600D02*
X146652400Y-101321600D01*
X146652400Y-101321600D02*
X146235400Y-101738600D01*
%TO.N,Net-(U1A-VCAP)*%
X139650000Y-105631600D02*
X139650000Y-104746600D01*
X135846800Y-105497800D02*
X136354800Y-106005800D01*
X139275800Y-106005800D02*
X139650000Y-105631600D01*
X135846800Y-103973800D02*
X135846800Y-105497800D01*
X136177000Y-103643600D02*
X135846800Y-103973800D01*
X136354800Y-106005800D02*
X139275800Y-106005800D01*
%TO.N,Net-(FL1-Pad2)*%
X119503600Y-98827000D02*
X124510700Y-98827000D01*
X117192200Y-98827000D02*
X115271000Y-100748200D01*
X119503600Y-98827000D02*
X117192200Y-98827000D01*
X115271000Y-100748200D02*
X112738900Y-100748200D01*
%TO.N,Net-(FL1-Pad3)*%
X112860100Y-98427000D02*
X112738900Y-98548200D01*
X115915400Y-98427000D02*
X112860100Y-98427000D01*
X124510700Y-98427000D02*
X115915400Y-98427000D01*
%TO.N,Net-(FL1-Pad1)*%
X117538600Y-100727800D02*
X118601300Y-99665100D01*
X116418200Y-101848200D02*
X112738900Y-101848200D01*
X118601300Y-99665100D02*
X116418200Y-101848200D01*
X119039400Y-99227000D02*
X124510700Y-99227000D01*
X117013800Y-101252600D02*
X117538600Y-100727800D01*
X118601300Y-99665100D02*
X119039400Y-99227000D01*
%TO.N,Net-(FL1-Pad6)*%
X112785900Y-96395200D02*
X112738900Y-96348200D01*
X116804600Y-97639800D02*
X122240200Y-97639800D01*
X114315400Y-96192000D02*
X114112200Y-96395200D01*
X122456000Y-97690600D02*
X122919600Y-97227000D01*
X114112200Y-96395200D02*
X112785900Y-96395200D01*
X115369500Y-96204700D02*
X116220400Y-97055600D01*
X115356800Y-96192000D02*
X114315400Y-96192000D01*
X122919600Y-97227000D02*
X124510700Y-97227000D01*
X122240200Y-97639800D02*
X122291000Y-97690600D01*
X116220400Y-97055600D02*
X115356800Y-96192000D01*
X122291000Y-97690600D02*
X122456000Y-97690600D01*
X116220400Y-97055600D02*
X116804600Y-97639800D01*
%TO.N,Net-(FL1-Pad7)*%
X122519600Y-96827000D02*
X122138600Y-97208000D01*
X115530600Y-95248200D02*
X112738900Y-95248200D01*
X117490400Y-97208000D02*
X115530600Y-95248200D01*
X124510700Y-96827000D02*
X122519600Y-96827000D01*
X122138600Y-97208000D02*
X117490400Y-97208000D01*
%TO.N,Net-(FL1-Pad8)*%
X122018000Y-96427000D02*
X121668800Y-96776200D01*
X121668800Y-96776200D02*
X118201600Y-96776200D01*
X124510700Y-96427000D02*
X122018000Y-96427000D01*
X118201600Y-96776200D02*
X115573600Y-94148200D01*
X115573600Y-94148200D02*
X112738900Y-94148200D01*
%TO.N,/SDAT7*%
X138793200Y-97471400D02*
X138796136Y-97468464D01*
X159118200Y-113618200D02*
X158508200Y-114228200D01*
X158048200Y-115538200D02*
X157198200Y-115538200D01*
X133168200Y-112208200D02*
X132343700Y-111383700D01*
X162618199Y-113978199D02*
X162258200Y-113618200D01*
X157198200Y-115538200D02*
X157068200Y-115668200D01*
X138643400Y-97321600D02*
X138793200Y-97471400D01*
X136725000Y-97321600D02*
X138643400Y-97321600D01*
X158508200Y-114228200D02*
X158508200Y-115078200D01*
X158508200Y-115078200D02*
X158048200Y-115538200D01*
X139838200Y-112208200D02*
X133168200Y-112208200D01*
X162258200Y-113618200D02*
X159118200Y-113618200D01*
X132343700Y-111383700D02*
X132343700Y-110888200D01*
X132343700Y-110888200D02*
X132343700Y-107492700D01*
X162618199Y-115228200D02*
X162618199Y-113978199D01*
X132343700Y-107492700D02*
X132458200Y-107378200D01*
%TO.N,/uDTR*%
X183318200Y-106428200D02*
X182958200Y-106068200D01*
X179498200Y-114388200D02*
X179498200Y-114018200D01*
X182958200Y-104968200D02*
X178855600Y-100865600D01*
X153808600Y-98821600D02*
X148075000Y-98821600D01*
X182958200Y-106068200D02*
X182958200Y-104968200D01*
X178628200Y-115258200D02*
X179498200Y-114388200D01*
X178855600Y-100865600D02*
X155852600Y-100865600D01*
X155852600Y-100865600D02*
X153808600Y-98821600D01*
%TO.N,/uDCD*%
X182388200Y-105238200D02*
X182388200Y-107168200D01*
X178447400Y-101297400D02*
X182388200Y-105238200D01*
X177618199Y-115228200D02*
X177618199Y-113818201D01*
X178208200Y-113228200D02*
X178508200Y-113228200D01*
X155197400Y-101297400D02*
X178447400Y-101297400D01*
X148075000Y-99321600D02*
X153216400Y-99321600D01*
X153216400Y-99321600D02*
X154058600Y-100163800D01*
X154058600Y-100163800D02*
X154063800Y-100163800D01*
X154063800Y-100163800D02*
X155197400Y-101297400D01*
X177618199Y-113818201D02*
X178208200Y-113228200D01*
%TO.N,/uPWRKEY*%
X175618198Y-112748202D02*
X175898200Y-112468200D01*
X176928200Y-111438200D02*
X178768200Y-111438200D01*
X154448200Y-102288200D02*
X177728200Y-102288200D01*
X177728200Y-102288200D02*
X180838200Y-105398200D01*
X175898200Y-112468200D02*
X176928200Y-111438200D01*
X152481600Y-100321600D02*
X154448200Y-102288200D01*
X148075000Y-100321600D02*
X152481600Y-100321600D01*
X175618198Y-115228200D02*
X175618198Y-112748202D01*
X180838200Y-105398200D02*
X180838200Y-106968200D01*
%TO.N,/SWDIO*%
X127118200Y-93348200D02*
X127118200Y-91498200D01*
X138412200Y-95998200D02*
X138412200Y-94855200D01*
X138088800Y-96321600D02*
X138412200Y-95998200D01*
X136725000Y-96321600D02*
X138088800Y-96321600D01*
X130118200Y-90848200D02*
X130878200Y-91608200D01*
X127118200Y-91498200D02*
X127768200Y-90848200D01*
X130878200Y-91608200D02*
X130878200Y-92198200D01*
X138158200Y-94601200D02*
X128371200Y-94601200D01*
X128371200Y-94601200D02*
X127118200Y-93348200D01*
X127768200Y-90848200D02*
X130118200Y-90848200D01*
X138412200Y-94855200D02*
X138158200Y-94601200D01*
%TO.N,/SWCLK*%
X137904200Y-93331200D02*
X138584600Y-93331200D01*
X137650200Y-93763000D02*
X137650200Y-93585200D01*
X137396200Y-94017000D02*
X137650200Y-93763000D01*
X128338200Y-93218200D02*
X129137000Y-94017000D01*
X137650200Y-93585200D02*
X137904200Y-93331200D01*
X129137000Y-94017000D02*
X137396200Y-94017000D01*
X128338200Y-92198200D02*
X128338200Y-93218200D01*
X138584600Y-93331200D02*
X138650000Y-93396600D01*
%TO.N,/Alim*%
X157088200Y-118978200D02*
X156587720Y-119478680D01*
X151358200Y-113158200D02*
X145668200Y-113158200D01*
X156587720Y-119478680D02*
X153328680Y-119478680D01*
X144218200Y-111708200D02*
X144218200Y-109708200D01*
X152368200Y-114168200D02*
X151358200Y-113158200D01*
X144218200Y-109708200D02*
X144288200Y-109638200D01*
X152368200Y-118518200D02*
X152368200Y-114168200D01*
X142788800Y-108536400D02*
X142150000Y-107897600D01*
X143271400Y-108536400D02*
X142788800Y-108536400D01*
X172678200Y-113478200D02*
X172678200Y-115168199D01*
X145668200Y-113158200D02*
X144218200Y-111708200D01*
X172678200Y-115168199D02*
X172618199Y-115228200D01*
X142150000Y-107897600D02*
X142150000Y-104746600D01*
X153328680Y-119478680D02*
X152368200Y-118518200D01*
%TO.N,/uStatus*%
X176618199Y-115228200D02*
X176618199Y-113238201D01*
X181678200Y-105298200D02*
X181678200Y-108028200D01*
X148100001Y-99846601D02*
X153004801Y-99846601D01*
X176618199Y-113238201D02*
X177508200Y-112348200D01*
X177508200Y-112348200D02*
X177698200Y-112348200D01*
X178118200Y-101738200D02*
X181678200Y-105298200D01*
X153004801Y-99846601D02*
X154896400Y-101738200D01*
X154896400Y-101738200D02*
X178118200Y-101738200D01*
X148075000Y-99821600D02*
X148100001Y-99846601D01*
%TO.N,/RxD*%
X150938200Y-107428200D02*
X148728200Y-107428200D01*
X170451400Y-105091400D02*
X153755000Y-105091400D01*
X146346600Y-104746600D02*
X146150000Y-104746600D01*
X153755000Y-105091400D02*
X152478200Y-106368200D01*
X148568200Y-106968200D02*
X146346600Y-104746600D01*
X171668200Y-106308200D02*
X170451400Y-105091400D01*
X173618200Y-115228200D02*
X173618200Y-112458200D01*
X173618200Y-112458200D02*
X171668200Y-110508200D01*
X151998200Y-106368200D02*
X150938200Y-107428200D01*
X171668200Y-110508200D02*
X171668200Y-106308200D01*
X148728200Y-107428200D02*
X148568200Y-107268200D01*
X148568200Y-107268200D02*
X148568200Y-106968200D01*
X152478200Y-106368200D02*
X151998200Y-106368200D01*
%TO.N,/TxD*%
X177378200Y-102758200D02*
X179688200Y-105068200D01*
X149342200Y-102821600D02*
X150231000Y-103710400D01*
X174618198Y-112408202D02*
X174618198Y-115228200D01*
X152681800Y-102758200D02*
X177378200Y-102758200D01*
X177368200Y-109658200D02*
X174618198Y-112408202D01*
X150231000Y-103710400D02*
X151729600Y-103710400D01*
X179038200Y-109658200D02*
X177368200Y-109658200D01*
X148075000Y-102821600D02*
X149342200Y-102821600D01*
X179688200Y-105068200D02*
X179688200Y-109008200D01*
X151729600Y-103710400D02*
X152681800Y-102758200D01*
X179688200Y-109008200D02*
X179038200Y-109658200D01*
%TO.N,/SD_D2*%
X125660700Y-96427000D02*
X126889400Y-96427000D01*
X139650000Y-94354000D02*
X139301200Y-94702800D01*
X127673800Y-95642600D02*
X131528800Y-95642600D01*
X139650000Y-93396600D02*
X139650000Y-94354000D01*
X126889400Y-96427000D02*
X127673800Y-95642600D01*
%TO.N,/SD_D3*%
X127339400Y-96827000D02*
X127808300Y-96358100D01*
X140150000Y-95225600D02*
X139885400Y-95490200D01*
X132570200Y-95541000D02*
X133281400Y-95541000D01*
X127808300Y-96358100D02*
X131753100Y-96358100D01*
X131753100Y-96358100D02*
X132570200Y-95541000D01*
X125660700Y-96827000D02*
X127339400Y-96827000D01*
X133281400Y-95541000D02*
X133306800Y-95515600D01*
X140150000Y-93396600D02*
X140150000Y-95225600D01*
%TO.N,/SD_CMD*%
X127764400Y-97227000D02*
X128193200Y-96798200D01*
X132430600Y-96798200D02*
X132875000Y-96353800D01*
X128193200Y-96798200D02*
X132430600Y-96798200D01*
D33*
X141150000Y-93396600D02*
X141150000Y-95493000D01*
X141239400Y-95582400D02*
X141239400Y-97055600D01*
D32*
X125660700Y-97227000D02*
X127764400Y-97227000D01*
D33*
X141150000Y-95493000D02*
X141239400Y-95582400D01*
D32*
%TO.N,/SD_CLK*%
X132198800Y-98420800D02*
X131697200Y-97919200D01*
X140650000Y-93396600D02*
X140650000Y-96197200D01*
X129397200Y-97919200D02*
X128893200Y-98423200D01*
X127964400Y-98427000D02*
X125660700Y-98427000D01*
X132198800Y-98427000D02*
X132198800Y-98420800D01*
X133138600Y-98427000D02*
X132198800Y-98427000D01*
X128893200Y-98423200D02*
X127968200Y-98423200D01*
X134018000Y-97547600D02*
X133138600Y-98427000D01*
X140650000Y-96197200D02*
X140604400Y-96242800D01*
X131697200Y-97919200D02*
X129397200Y-97919200D01*
X127968200Y-98423200D02*
X127964400Y-98427000D01*
%TO.N,/SD_D0*%
X133393400Y-99821600D02*
X133136800Y-100078200D01*
X127804400Y-98827000D02*
X125660700Y-98827000D01*
X136725000Y-99821600D02*
X133393400Y-99821600D01*
X133136800Y-100078200D02*
X129055600Y-100078200D01*
X129055600Y-100078200D02*
X127804400Y-98827000D01*
%TO.N,/SD_D1*%
X136725000Y-99321600D02*
X133283800Y-99321600D01*
X127112200Y-99227000D02*
X127490200Y-99605000D01*
X130017080Y-99472080D02*
X129458011Y-98913011D01*
X133283800Y-99321600D02*
X133133320Y-99472080D01*
X125660700Y-99227000D02*
X127112200Y-99227000D01*
X133133320Y-99472080D02*
X130017080Y-99472080D01*
%TO.N,/SYN*%
X161388200Y-116998200D02*
X161618200Y-116768200D01*
X161388200Y-117318200D02*
X161388200Y-116998200D01*
X129898200Y-106388200D02*
X129898200Y-113258200D01*
X140428200Y-115189600D02*
X140428200Y-117628200D01*
X161618198Y-116768198D02*
X161618198Y-115228200D01*
X161618200Y-116768200D02*
X161618198Y-116768198D01*
X129898200Y-113258200D02*
X130538200Y-113898200D01*
X139136800Y-113898200D02*
X140428200Y-115189600D01*
X131960600Y-102246600D02*
X131960600Y-104325800D01*
X130538200Y-113898200D02*
X139136800Y-113898200D01*
X131960600Y-104325800D02*
X129898200Y-106388200D01*
X136725000Y-100321600D02*
X133885600Y-100321600D01*
X133885600Y-100321600D02*
X131960600Y-102246600D01*
%TO.N,/SCL*%
X129518200Y-116298200D02*
X131668200Y-116298200D01*
X129518200Y-116258200D02*
X129518200Y-116298200D01*
X128558200Y-115298200D02*
X129518200Y-116258200D01*
X130716000Y-98716000D02*
X130538200Y-98716000D01*
X141548200Y-118648200D02*
X142508200Y-117688200D01*
X159618200Y-115506800D02*
X159618200Y-115228200D01*
X130821600Y-98821600D02*
X130716000Y-98716000D01*
X134018200Y-118648200D02*
X141548200Y-118648200D01*
X158638400Y-116486600D02*
X159618200Y-115506800D01*
X131668200Y-116298200D02*
X134018200Y-118648200D01*
X129065000Y-100951200D02*
X128558200Y-101458000D01*
X128558200Y-101458000D02*
X128558200Y-115298200D01*
X136725000Y-98821600D02*
X130821600Y-98821600D01*
X142508200Y-117688200D02*
X142508200Y-116028200D01*
%TO.N,/SDAT2*%
X139703400Y-108958400D02*
X141713200Y-110968200D01*
X167618199Y-112808199D02*
X167598200Y-112788200D01*
X140150000Y-106118000D02*
X139703400Y-106564600D01*
X167618199Y-115228200D02*
X167618199Y-112808199D01*
X139703400Y-106564600D02*
X139703400Y-108958400D01*
X141713200Y-110968200D02*
X142198200Y-110968200D01*
X140150000Y-104746600D02*
X140150000Y-106118000D01*
%TO.N,/SCS*%
X160618198Y-116538202D02*
X160618198Y-115228200D01*
X139078200Y-113168200D02*
X131228200Y-113168200D01*
X134096800Y-100821600D02*
X136725000Y-100821600D01*
X132468600Y-102449800D02*
X134096800Y-100821600D01*
X160578200Y-116578200D02*
X160618198Y-116538202D01*
X132468600Y-104527800D02*
X132468600Y-102449800D01*
X131228200Y-113168200D02*
X130578200Y-112518200D01*
X130578200Y-106418200D02*
X132468600Y-104527800D01*
X160388200Y-116938200D02*
X160578200Y-116748200D01*
X130578200Y-112518200D02*
X130578200Y-106418200D01*
X160578200Y-116748200D02*
X160578200Y-116578200D01*
%TO.N,/SDAT3*%
X135298200Y-109418200D02*
X134703800Y-108823800D01*
X134703800Y-108823800D02*
X134703800Y-103313400D01*
X141789400Y-112219400D02*
X138988200Y-109418200D01*
X134703800Y-103313400D02*
X135195600Y-102821600D01*
X135195600Y-102821600D02*
X136725000Y-102821600D01*
X138988200Y-109418200D02*
X135298200Y-109418200D01*
X166618198Y-113318198D02*
X166578200Y-113278200D01*
X166618198Y-115228200D02*
X166618198Y-113318198D01*
X142331600Y-112219400D02*
X141789400Y-112219400D01*
%TO.N,/SDAT4*%
X165618198Y-115228200D02*
X165618198Y-113678198D01*
X135162200Y-102321600D02*
X134145000Y-103338800D01*
X134145000Y-109675000D02*
X134718200Y-110248200D01*
X165618198Y-113678198D02*
X165558200Y-113618200D01*
X134718200Y-110248200D02*
X137118200Y-110248200D01*
X137118200Y-110248200D02*
X137258200Y-110108200D01*
X136725000Y-102321600D02*
X135162200Y-102321600D01*
X134145000Y-103338800D02*
X134145000Y-109675000D01*
%TO.N,/SDAT5*%
X140398200Y-111478200D02*
X133558200Y-111478200D01*
X133535400Y-106666200D02*
X133535400Y-102932400D01*
X164848200Y-115478200D02*
X164628200Y-115258200D01*
X133154400Y-111074400D02*
X133154400Y-107047200D01*
X134646200Y-101821600D02*
X136725000Y-101821600D01*
X140978200Y-113218200D02*
X140978200Y-112058200D01*
X140978200Y-112058200D02*
X140398200Y-111478200D01*
X164848200Y-117228200D02*
X164848200Y-115478200D01*
X133558200Y-111478200D02*
X133154400Y-111074400D01*
X133535400Y-102932400D02*
X134646200Y-101821600D01*
X133154400Y-107047200D02*
X133535400Y-106666200D01*
%TO.N,/SDAT6*%
X133027400Y-102703800D02*
X133027400Y-104699000D01*
X136725000Y-101321600D02*
X134409600Y-101321600D01*
X163688200Y-117418200D02*
X163688200Y-115298201D01*
X134409600Y-101321600D02*
X133027400Y-102703800D01*
X163688200Y-115298201D02*
X163618199Y-115228200D01*
X133027400Y-104699000D02*
X131444197Y-106282203D01*
X131444197Y-106282203D02*
X131444197Y-110888200D01*
D31*
%TO.N,/+3V3*%
X189524800Y-109628600D02*
X189524800Y-109603200D01*
D32*
X145150000Y-103890800D02*
X146184600Y-102856200D01*
D31*
X190818200Y-111328400D02*
X191277400Y-111787600D01*
D32*
X150318200Y-92898200D02*
X149819800Y-93396600D01*
X148616600Y-93396600D02*
X149719800Y-93396600D01*
D33*
X157119000Y-91793200D02*
X158743200Y-91793200D01*
X156962000Y-91950200D02*
X157119000Y-91793200D01*
D31*
X191277400Y-111787600D02*
X197602000Y-111787600D01*
X186248200Y-112905200D02*
X189524800Y-109628600D01*
D32*
X149819800Y-93396600D02*
X149719800Y-93396600D01*
D31*
X198418200Y-110971400D02*
X198418200Y-109523200D01*
X190818200Y-109523200D02*
X190818200Y-104223200D01*
X189604800Y-109523200D02*
X190818200Y-109523200D01*
D32*
X138650000Y-104746600D02*
X138650000Y-104092800D01*
D31*
X186248200Y-114175200D02*
X186248200Y-112905200D01*
D33*
X156365400Y-91950200D02*
X156962000Y-91950200D01*
D31*
X197602000Y-111787600D02*
X198418200Y-110971400D01*
D32*
X185418200Y-115005200D02*
X186248200Y-114175200D01*
D33*
X185309400Y-115114000D02*
X185418200Y-115005200D01*
D32*
X145150000Y-104746600D02*
X145150000Y-103890800D01*
X158743200Y-91793200D02*
X161072200Y-91793200D01*
X138293000Y-103735800D02*
X138293000Y-102897600D01*
X169628200Y-115258200D02*
X169628200Y-117494200D01*
D31*
X190818200Y-109523200D02*
X190818200Y-111328400D01*
D32*
X169628200Y-113531800D02*
X169382600Y-113286200D01*
X138293000Y-102897600D02*
X138166000Y-102770600D01*
X169628200Y-115258200D02*
X169628200Y-113531800D01*
X161072200Y-91793200D02*
X161229200Y-91950200D01*
D33*
X185309400Y-116512000D02*
X185309400Y-115114000D01*
D32*
X146150000Y-93396600D02*
X148616600Y-93396600D01*
X135075600Y-95321600D02*
X132770200Y-97627000D01*
X170211600Y-115258200D02*
X170652600Y-115699200D01*
X169628200Y-117494200D02*
X169738200Y-117604200D01*
D31*
X189524800Y-109603200D02*
X189604800Y-109523200D01*
D32*
X136725000Y-95321600D02*
X135075600Y-95321600D01*
X138650000Y-104092800D02*
X138293000Y-103735800D01*
X169628200Y-115258200D02*
X170211600Y-115258200D01*
%TO.N,/RS485_RxD*%
X136725000Y-97821600D02*
X137992200Y-97821600D01*
X154398200Y-108028200D02*
X158068200Y-108028200D01*
X158518200Y-107578200D02*
X158518200Y-106908200D01*
X153708200Y-108718200D02*
X154398200Y-108028200D01*
X153668200Y-118382700D02*
X153708200Y-118342700D01*
X160628200Y-106928200D02*
X160318200Y-106618200D01*
X153708200Y-118342700D02*
X153708200Y-108718200D01*
X158518200Y-106908200D02*
X158808200Y-106618200D01*
X158808200Y-106618200D02*
X160318200Y-106618200D01*
X137992200Y-97821600D02*
X138453932Y-98283332D01*
X160628200Y-108058200D02*
X160628200Y-106928200D01*
X138453932Y-98283332D02*
X139501227Y-98283332D01*
X158068200Y-108028200D02*
X158518200Y-107578200D01*
%TO.N,/IRQ2*%
X150688200Y-109988200D02*
X150043200Y-109343200D01*
X150043200Y-109343200D02*
X145362000Y-109343200D01*
X163668200Y-110718200D02*
X163618199Y-110668199D01*
X140593200Y-108093400D02*
X140593200Y-107023200D01*
X144942000Y-108923200D02*
X143900600Y-108923200D01*
X143601600Y-109222200D02*
X141722000Y-109222200D01*
X150688200Y-111736800D02*
X150688200Y-109988200D01*
X141722000Y-109222200D02*
X140593200Y-108093400D01*
X143900600Y-108923200D02*
X143601600Y-109222200D01*
X141150000Y-106466400D02*
X141150000Y-104746600D01*
X163618199Y-110668199D02*
X163618199Y-108028199D01*
X140593200Y-107023200D02*
X141150000Y-106466400D01*
X145362000Y-109343200D02*
X144942000Y-108923200D01*
%TO.N,/READY*%
X140650000Y-106366400D02*
X140650000Y-104746600D01*
X140143200Y-108298200D02*
X140143200Y-106873200D01*
X144650900Y-113760900D02*
X143718200Y-112828200D01*
X180850500Y-117909000D02*
X181119700Y-117639800D01*
X146487600Y-115597600D02*
X147183000Y-115597600D01*
X143718200Y-112828200D02*
X143718200Y-111086800D01*
X143718200Y-111086800D02*
X143688200Y-111086800D01*
X142509400Y-109908000D02*
X141753000Y-109908000D01*
X179542600Y-117909000D02*
X180850500Y-117909000D01*
X140143200Y-106873200D02*
X140650000Y-106366400D01*
X143688200Y-111086800D02*
X142509400Y-109908000D01*
X141753000Y-109908000D02*
X140143200Y-108298200D01*
X144650900Y-113760900D02*
X146487600Y-115597600D01*
%TO.N,/SCLK*%
X146895800Y-102678400D02*
X146895800Y-103525800D01*
X148075000Y-102321600D02*
X147252600Y-102321600D01*
X164088200Y-106128200D02*
X155508200Y-106128200D01*
X164088200Y-106138200D02*
X164088200Y-106128200D01*
X164618197Y-106668197D02*
X164618197Y-108028199D01*
X155508200Y-106128200D02*
X155278200Y-106358200D01*
X147618200Y-104638200D02*
X149708200Y-106728200D01*
X147252600Y-102321600D02*
X146895800Y-102678400D01*
X146895800Y-103525800D02*
X147618200Y-104248200D01*
X164618197Y-106668197D02*
X164088200Y-106138200D01*
X149708200Y-106728200D02*
X149738200Y-106728200D01*
X147618200Y-104248200D02*
X147618200Y-104638200D01*
%TO.N,/MISO*%
X143650000Y-104746600D02*
X143650000Y-106773200D01*
X154272700Y-107403700D02*
X156875500Y-107403700D01*
X145379600Y-107596600D02*
X146211200Y-108428200D01*
X165508200Y-109448200D02*
X165508200Y-108138197D01*
X165508200Y-108138197D02*
X165618198Y-108028199D01*
X165848200Y-109788200D02*
X165508200Y-109448200D01*
X143650000Y-106773200D02*
X144473400Y-107596600D01*
X146211200Y-108428200D02*
X153248200Y-108428200D01*
X153248200Y-108428200D02*
X154272700Y-107403700D01*
X144473400Y-107596600D02*
X145379600Y-107596600D01*
X156875500Y-107403700D02*
X157266800Y-107012400D01*
%TO.N,/MOSI*%
X145828800Y-108848200D02*
X145003800Y-108023200D01*
X143150000Y-106806600D02*
X143150000Y-104746600D01*
X150746000Y-108848200D02*
X145828800Y-108848200D01*
X144366600Y-108023200D02*
X143150000Y-106806600D01*
X166578200Y-109278200D02*
X166578200Y-108068197D01*
X167028200Y-109728200D02*
X166578200Y-109278200D01*
X145003800Y-108023200D02*
X144366600Y-108023200D01*
X151247000Y-109349200D02*
X150746000Y-108848200D01*
X166578200Y-108068197D02*
X166618198Y-108028199D01*
%TO.N,/SS*%
X167618199Y-106516201D02*
X167618199Y-108028199D01*
X150114800Y-101821600D02*
X150147000Y-101789400D01*
X148075000Y-101821600D02*
X150114800Y-101821600D01*
X167655400Y-106479000D02*
X167618199Y-106516201D01*
%TO.N,/RS485_TxD*%
X159168200Y-108518200D02*
X159628200Y-108058200D01*
X155728200Y-118798200D02*
X154588200Y-117658200D01*
X138648600Y-99240000D02*
X137730200Y-98321600D01*
X154588200Y-117658200D02*
X154588200Y-108938200D01*
X154588200Y-108938200D02*
X155008200Y-108518200D01*
X137730200Y-98321600D02*
X136725000Y-98321600D01*
X155008200Y-108518200D02*
X159168200Y-108518200D01*
%TO.N,/RS485_DE*%
X140495000Y-100392400D02*
X140495000Y-98055600D01*
X140520400Y-100417800D02*
X140495000Y-100392400D01*
X138273000Y-96821600D02*
X136725000Y-96821600D01*
X148378200Y-110388200D02*
X147268200Y-110388200D01*
X161638200Y-109968200D02*
X161638200Y-108048201D01*
X147268200Y-110388200D02*
X146268200Y-111388200D01*
X138521600Y-96573000D02*
X138273000Y-96821600D01*
X140495000Y-98055600D02*
X139012400Y-96573000D01*
X139012400Y-96573000D02*
X138521600Y-96573000D01*
%TO.N,/NRST*%
X160086200Y-96344400D02*
X161119800Y-97378000D01*
X155971400Y-96903200D02*
X155971400Y-96877800D01*
X161119800Y-97378000D02*
X161119800Y-97903200D01*
X156504800Y-96344400D02*
X160086200Y-96344400D01*
X148075000Y-98321600D02*
X154553000Y-98321600D01*
X155971400Y-96877800D02*
X156504800Y-96344400D01*
X154553000Y-98321600D02*
X155971400Y-96903200D01*
%TO.N,/OSC32_IN*%
X150891400Y-93925000D02*
X150118200Y-94698200D01*
X149746680Y-95719720D02*
X149746680Y-95738120D01*
X149163200Y-96321600D02*
X148075000Y-96321600D01*
X150118200Y-94698200D02*
X150118200Y-95348200D01*
X150891400Y-93829800D02*
X150891400Y-93925000D01*
X149746680Y-95738120D02*
X149163200Y-96321600D01*
X150118200Y-95348200D02*
X149746680Y-95719720D01*
%TO.N,/OSC32_OUT*%
X150096200Y-96022000D02*
X150096200Y-96049000D01*
X150096200Y-96049000D02*
X149323600Y-96821600D01*
X149323600Y-96821600D02*
X148075000Y-96821600D01*
X151145400Y-94972800D02*
X150096200Y-96022000D01*
%TO.N,/Magnet*%
X137605400Y-114888200D02*
X137785000Y-114708600D01*
X135676800Y-106910800D02*
X136114200Y-107348200D01*
X136114200Y-107348200D02*
X138893200Y-107348200D01*
X142222200Y-97014200D02*
X142222200Y-98411200D01*
X142222200Y-98411200D02*
X141790400Y-98843000D01*
X141650000Y-96442000D02*
X142222200Y-97014200D01*
X129678200Y-114888200D02*
X137605400Y-114888200D01*
X141650000Y-93396600D02*
X141650000Y-96442000D01*
%TO.N,/BT_RxD*%
X144150000Y-106420000D02*
X144894800Y-107164800D01*
X149558200Y-104338200D02*
X149590800Y-104370800D01*
X144894800Y-107164800D02*
X147044800Y-107164800D01*
X149590800Y-104370800D02*
X152095600Y-104370800D01*
X144150000Y-104746600D02*
X144150000Y-106420000D01*
X152095600Y-104370800D02*
X152568200Y-103898200D01*
X173618200Y-105148200D02*
X173658200Y-105108200D01*
X147044800Y-107164800D02*
X147128200Y-107248200D01*
X173618200Y-108028199D02*
X173618200Y-105148200D01*
%TO.N,/BT_TxD*%
X152078800Y-105437600D02*
X152498200Y-105018200D01*
X142650000Y-107189777D02*
X142650000Y-107280000D01*
X149621400Y-105437600D02*
X152078800Y-105437600D01*
X142650000Y-107280000D02*
X142814200Y-107444200D01*
X172618199Y-108028199D02*
X172618199Y-105528199D01*
X172618199Y-105528199D02*
X172608200Y-105518200D01*
X142650000Y-107189777D02*
X142650000Y-104746600D01*
%TO.N,/LED3*%
X142650000Y-95037000D02*
X142476200Y-95210800D01*
X178618200Y-105928200D02*
X177308200Y-104618200D01*
X178618200Y-108028199D02*
X178618200Y-105928200D01*
X142650000Y-93396600D02*
X142650000Y-95037000D01*
%TO.N,/LED2*%
X143150000Y-93396600D02*
X143150000Y-96189400D01*
X177618199Y-106168199D02*
X177178200Y-105728200D01*
X177618199Y-108048199D02*
X177628200Y-108058200D01*
X177618199Y-106168199D02*
X177618199Y-108048199D01*
X143150000Y-96189400D02*
X143162000Y-96201400D01*
%TO.N,/LED1*%
X143949400Y-95604800D02*
X143650000Y-95305400D01*
X176618199Y-106498199D02*
X175328200Y-105208200D01*
X176618199Y-108028199D02*
X176618199Y-106498199D01*
X143650000Y-95305400D02*
X143650000Y-93396600D01*
X143949400Y-97141200D02*
X143949400Y-95604800D01*
%TO.N,/ADE_Reset*%
X168618199Y-107028201D02*
X168618199Y-108028199D01*
X168638200Y-105658200D02*
X169028200Y-106048200D01*
X147549200Y-106539200D02*
X148088200Y-107078200D01*
X148088200Y-107078200D02*
X148088200Y-107568200D01*
X148378200Y-107858200D02*
X151198200Y-107858200D01*
X169028200Y-106618200D02*
X168618199Y-107028201D01*
X152198200Y-106858200D02*
X152748200Y-106858200D01*
X152748200Y-106858200D02*
X153238200Y-106368200D01*
X144650000Y-104746600D02*
X144650000Y-106071400D01*
X153238200Y-106358200D02*
X153938200Y-105658200D01*
X146236600Y-106758400D02*
X146455800Y-106539200D01*
X148088200Y-107568200D02*
X148378200Y-107858200D01*
X145337000Y-106758400D02*
X146236600Y-106758400D01*
X169028200Y-106048200D02*
X169028200Y-106618200D01*
X153238200Y-106368200D02*
X153238200Y-106358200D01*
X153938200Y-105658200D02*
X168638200Y-105658200D01*
X151198200Y-107858200D02*
X152198200Y-106858200D01*
X146455800Y-106539200D02*
X147549200Y-106539200D01*
X144650000Y-106071400D02*
X145337000Y-106758400D01*
%TO.N,/SDAe*%
X150768200Y-92098200D02*
X152368200Y-93698200D01*
X145422600Y-92289800D02*
X148038800Y-92289800D01*
X145150000Y-93396600D02*
X145150000Y-92562400D01*
X145150000Y-92562400D02*
X145422600Y-92289800D01*
X149468200Y-92098200D02*
X150768200Y-92098200D01*
X152368200Y-93698200D02*
X152368200Y-95048200D01*
X149276600Y-92289800D02*
X149468200Y-92098200D01*
X152368200Y-95048200D02*
X152923200Y-95603200D01*
X152923200Y-95603200D02*
X158743200Y-95603200D01*
X148013400Y-92289800D02*
X149276600Y-92289800D01*
%TO.N,/SCLe*%
X153468200Y-94948200D02*
X157568200Y-94948200D01*
X152918200Y-94398200D02*
X153468200Y-94948200D01*
X152918200Y-92648200D02*
X152918200Y-94398200D01*
X151818200Y-91548200D02*
X152918200Y-92648200D01*
X144650000Y-92146400D02*
X144650000Y-93396600D01*
X145125600Y-91670800D02*
X145248200Y-91548200D01*
X145248200Y-91548200D02*
X151818200Y-91548200D01*
X158183200Y-94333200D02*
X158743200Y-94333200D01*
X157568200Y-94948200D02*
X158183200Y-94333200D01*
X145125600Y-91670800D02*
X144650000Y-92146400D01*
%TO.N,/StartMasura*%
X141493400Y-107596600D02*
X141493400Y-106973000D01*
X162608200Y-110368200D02*
X162608200Y-108038198D01*
X141493400Y-106973000D02*
X141650000Y-106816400D01*
X141650000Y-104746600D02*
X141650000Y-106816400D01*
%TO.N,/Main*%
X120343200Y-95802500D02*
X120343200Y-94948200D01*
X137777200Y-92239000D02*
X138920200Y-92239000D01*
X120343200Y-94948200D02*
X120918800Y-94372600D01*
X126626600Y-94372600D02*
X126728200Y-94474200D01*
X138932900Y-92226300D02*
X139150000Y-92443400D01*
X138920200Y-92239000D02*
X138932900Y-92226300D01*
X137269200Y-92747000D02*
X137777200Y-92239000D01*
X139150000Y-92443400D02*
X139150000Y-93396600D01*
X120918800Y-94372600D02*
X126626600Y-94372600D01*
%TO.N,/BT_RTS*%
X176618200Y-91408200D02*
X176538200Y-91328200D01*
X175618198Y-109518198D02*
X175808200Y-109708200D01*
X142146000Y-90867400D02*
X142146000Y-91942507D01*
X176538200Y-91328200D02*
X175747200Y-90537200D01*
X175747200Y-90537200D02*
X172759200Y-90537200D01*
X175618198Y-108028199D02*
X175618198Y-109518198D01*
X142146000Y-91942507D02*
X142150000Y-91946507D01*
X172759200Y-90537200D02*
X142476200Y-90537200D01*
X142150000Y-91946507D02*
X142150000Y-93396600D01*
X142476200Y-90537200D02*
X142146000Y-90867400D01*
X176618200Y-98148200D02*
X176618200Y-91408200D01*
%TO.N,/BT_CTS*%
X174618198Y-108028199D02*
X174618198Y-109898202D01*
X144150000Y-93396600D02*
X144150000Y-91449000D01*
X144150000Y-91449000D02*
X144167400Y-91449000D01*
X174618198Y-109898202D02*
X174608200Y-109908200D01*
X164968200Y-90998200D02*
X165518200Y-91548200D01*
X144618200Y-90998200D02*
X164968200Y-90998200D01*
X144167400Y-91449000D02*
X144618200Y-90998200D01*
%TO.N,/Mains*%
X170938200Y-108408200D02*
X170938200Y-108538200D01*
X182788200Y-100968200D02*
X180398200Y-100968200D01*
X170558199Y-108028199D02*
X170938200Y-108408200D01*
X146894600Y-95821600D02*
X146286200Y-96430000D01*
X183008200Y-101188200D02*
X182788200Y-100968200D01*
X169618197Y-108028199D02*
X170558199Y-108028199D01*
X146286200Y-96430000D02*
X146286200Y-98385800D01*
X148075000Y-95821600D02*
X146894600Y-95821600D01*
%TO.N,/+3V3_SD*%
X128243200Y-97823200D02*
X128443200Y-97623200D01*
D31*
X113973600Y-97448200D02*
X112738900Y-97448200D01*
D32*
X125660700Y-97627000D02*
X126497000Y-97627000D01*
X126693200Y-97823200D02*
X128243200Y-97823200D01*
D31*
X114382200Y-97039600D02*
X113973600Y-97448200D01*
X114891800Y-97039600D02*
X114382200Y-97039600D01*
D32*
X126497000Y-97627000D02*
X126693200Y-97823200D01*
D31*
%TO.N,/Uext*%
X193018200Y-104223200D02*
X193018200Y-109523200D01*
D33*
%TO.N,/Batt_On*%
X188609400Y-116512000D02*
X187346800Y-116512000D01*
D32*
X187318200Y-113206800D02*
X188102400Y-112422600D01*
D33*
X182994700Y-116689800D02*
X182994700Y-117703500D01*
D32*
X186983000Y-117983400D02*
X187318200Y-117648200D01*
X187318200Y-113348200D02*
X187318200Y-113206800D01*
X188102400Y-112422600D02*
X197576600Y-112422600D01*
D33*
X187346800Y-116512000D02*
X187318200Y-116483400D01*
X199862600Y-104701000D02*
X199862600Y-110695400D01*
X183403400Y-118112200D02*
X186854200Y-118112200D01*
X199862600Y-110695400D02*
X198135400Y-112422600D01*
X199384800Y-104223200D02*
X199862600Y-104701000D01*
X186854200Y-118112200D02*
X186983000Y-117983400D01*
X182994700Y-117703500D02*
X183403400Y-118112200D01*
X198135400Y-112422600D02*
X197576600Y-112422600D01*
X198418200Y-104223200D02*
X199384800Y-104223200D01*
D32*
X187318200Y-117648200D02*
X187318200Y-116483400D01*
X187318200Y-116483400D02*
X187318200Y-113348200D01*
%TO.N,/VBAT*%
X148075000Y-95321600D02*
X148461400Y-95321600D01*
X148461400Y-95321600D02*
X148978600Y-94804400D01*
X148978600Y-94804400D02*
X148978600Y-94499600D01*
%TD*%
%TA.AperFunction,Conductor*%
%TO.N,GND*%
G36*
X204486454Y-88419569D02*
G01*
X204554569Y-88439588D01*
X204601049Y-88493254D01*
X204612423Y-88545546D01*
X204615021Y-102531900D01*
X204618173Y-119504268D01*
X204618177Y-119522177D01*
X204598188Y-119590301D01*
X204544541Y-119636804D01*
X204492177Y-119648200D01*
X157572653Y-119648200D01*
X157504532Y-119628198D01*
X157458039Y-119574542D01*
X157447935Y-119504268D01*
X157477429Y-119439688D01*
X157495946Y-119422239D01*
X157516482Y-119406482D01*
X157612736Y-119281041D01*
X157673244Y-119134962D01*
X157693882Y-118978200D01*
X157692505Y-118967744D01*
X157673244Y-118821439D01*
X157668913Y-118810981D01*
X157612736Y-118675359D01*
X157516482Y-118549918D01*
X157391041Y-118453664D01*
X157292146Y-118412700D01*
X157244960Y-118393155D01*
X157088200Y-118372518D01*
X156931439Y-118393155D01*
X156785360Y-118453663D01*
X156785357Y-118453665D01*
X156659918Y-118549918D01*
X156563665Y-118675357D01*
X156563661Y-118675364D01*
X156556979Y-118691496D01*
X156512429Y-118746776D01*
X156445065Y-118769194D01*
X156376274Y-118751633D01*
X156327898Y-118699670D01*
X156315651Y-118659723D01*
X156313244Y-118641438D01*
X156252736Y-118495359D01*
X156156482Y-118369918D01*
X156031041Y-118273664D01*
X156002554Y-118261864D01*
X155884960Y-118213155D01*
X155728200Y-118192518D01*
X155728198Y-118192518D01*
X155661357Y-118201317D01*
X155591208Y-118190377D01*
X155555817Y-118165490D01*
X154950605Y-117560278D01*
X154916579Y-117497966D01*
X154913700Y-117471183D01*
X154913700Y-114573493D01*
X154933702Y-114505372D01*
X154987358Y-114458879D01*
X155057632Y-114448775D01*
X155064280Y-114449913D01*
X155108452Y-114458700D01*
X155108453Y-114458700D01*
X158056700Y-114458700D01*
X158124821Y-114478702D01*
X158171314Y-114532358D01*
X158182700Y-114584700D01*
X158182700Y-114891183D01*
X158162698Y-114959304D01*
X158145795Y-114980278D01*
X157950278Y-115175795D01*
X157887966Y-115209821D01*
X157861183Y-115212700D01*
X157503782Y-115212700D01*
X157435661Y-115192698D01*
X157427086Y-115186669D01*
X157371041Y-115143664D01*
X157354666Y-115136881D01*
X157224960Y-115083155D01*
X157068200Y-115062518D01*
X156911439Y-115083155D01*
X156765360Y-115143663D01*
X156765357Y-115143665D01*
X156639918Y-115239918D01*
X156543665Y-115365357D01*
X156543663Y-115365360D01*
X156483155Y-115511439D01*
X156462518Y-115668199D01*
X156462518Y-115668200D01*
X156483155Y-115824960D01*
X156539946Y-115962064D01*
X156543664Y-115971041D01*
X156639918Y-116096482D01*
X156765359Y-116192736D01*
X156911438Y-116253244D01*
X157068200Y-116273882D01*
X157224962Y-116253244D01*
X157371041Y-116192736D01*
X157496482Y-116096482D01*
X157592736Y-115971041D01*
X157604980Y-115941480D01*
X157649527Y-115886201D01*
X157716890Y-115863780D01*
X157721388Y-115863700D01*
X158099311Y-115863700D01*
X158099311Y-115865860D01*
X158158163Y-115875032D01*
X158211266Y-115922154D01*
X158230463Y-115990506D01*
X158209659Y-116058386D01*
X158204435Y-116065723D01*
X158113868Y-116183753D01*
X158113863Y-116183760D01*
X158053355Y-116329839D01*
X158032718Y-116486599D01*
X158032718Y-116486600D01*
X158053355Y-116643360D01*
X158101204Y-116758876D01*
X158113864Y-116789441D01*
X158210118Y-116914882D01*
X158335559Y-117011136D01*
X158481638Y-117071644D01*
X158638400Y-117092282D01*
X158795162Y-117071644D01*
X158941241Y-117011136D01*
X159066682Y-116914882D01*
X159162936Y-116789441D01*
X159223444Y-116643362D01*
X159233332Y-116568253D01*
X159262054Y-116503327D01*
X159321319Y-116464235D01*
X159358254Y-116458700D01*
X159748267Y-116458700D01*
X159816388Y-116478702D01*
X159862881Y-116532358D01*
X159872985Y-116602632D01*
X159864676Y-116632918D01*
X159863665Y-116635356D01*
X159863664Y-116635359D01*
X159853699Y-116659417D01*
X159803155Y-116781439D01*
X159782518Y-116938199D01*
X159782518Y-116938200D01*
X159803155Y-117094960D01*
X159858838Y-117229389D01*
X159863664Y-117241041D01*
X159959918Y-117366482D01*
X160085359Y-117462736D01*
X160231438Y-117523244D01*
X160388200Y-117543882D01*
X160544962Y-117523244D01*
X160666008Y-117473104D01*
X160736595Y-117465516D01*
X160800082Y-117497295D01*
X160830631Y-117541294D01*
X160846262Y-117579029D01*
X160861548Y-117615934D01*
X160863664Y-117621041D01*
X160959918Y-117746482D01*
X161085359Y-117842736D01*
X161231438Y-117903244D01*
X161388200Y-117923882D01*
X161544962Y-117903244D01*
X161691041Y-117842736D01*
X161816482Y-117746482D01*
X161912736Y-117621041D01*
X161973244Y-117474962D01*
X161993882Y-117318200D01*
X161993131Y-117312499D01*
X161978310Y-117199918D01*
X161973244Y-117161438D01*
X161912736Y-117015359D01*
X161912734Y-117015357D01*
X161910874Y-117010865D01*
X161903285Y-116940275D01*
X161918166Y-116899644D01*
X161921518Y-116893839D01*
X161943700Y-116811053D01*
X161943700Y-116725347D01*
X161943700Y-116717638D01*
X161943698Y-116717604D01*
X161943698Y-116572896D01*
X161963700Y-116504775D01*
X162017356Y-116458282D01*
X162045112Y-116449318D01*
X162056431Y-116447067D01*
X162058198Y-116445885D01*
X162062633Y-116444497D01*
X162067894Y-116442318D01*
X162068089Y-116442788D01*
X162125951Y-116424671D01*
X162194418Y-116443454D01*
X162198189Y-116445878D01*
X162199969Y-116447067D01*
X162258452Y-116458700D01*
X162258453Y-116458700D01*
X162997947Y-116458700D01*
X162997948Y-116458700D01*
X163056431Y-116447067D01*
X163058198Y-116445885D01*
X163062633Y-116444497D01*
X163067894Y-116442318D01*
X163068089Y-116442788D01*
X163125951Y-116424671D01*
X163194418Y-116443454D01*
X163198189Y-116445878D01*
X163199969Y-116447067D01*
X163251273Y-116457272D01*
X163256350Y-116458282D01*
X163258452Y-116458700D01*
X163261282Y-116459263D01*
X163324191Y-116492171D01*
X163359323Y-116553866D01*
X163362700Y-116582842D01*
X163362700Y-116848914D01*
X163342698Y-116917035D01*
X163313404Y-116948876D01*
X163259920Y-116989915D01*
X163163665Y-117115357D01*
X163163663Y-117115360D01*
X163103155Y-117261439D01*
X163082518Y-117418199D01*
X163082518Y-117418200D01*
X163103155Y-117574960D01*
X163151243Y-117691053D01*
X163163664Y-117721041D01*
X163259918Y-117846482D01*
X163385359Y-117942736D01*
X163531438Y-118003244D01*
X163688200Y-118023882D01*
X163844962Y-118003244D01*
X163991041Y-117942736D01*
X164116482Y-117846482D01*
X164212736Y-117721041D01*
X164220164Y-117703107D01*
X164264711Y-117647828D01*
X164332074Y-117625407D01*
X164400866Y-117642965D01*
X164412778Y-117652219D01*
X164413366Y-117651454D01*
X164419917Y-117656480D01*
X164419918Y-117656482D01*
X164545359Y-117752736D01*
X164691438Y-117813244D01*
X164848200Y-117833882D01*
X165004962Y-117813244D01*
X165151041Y-117752736D01*
X165276482Y-117656482D01*
X165372736Y-117531041D01*
X165433244Y-117384962D01*
X165453882Y-117228200D01*
X165447585Y-117180373D01*
X165440563Y-117127035D01*
X165433244Y-117071438D01*
X165372736Y-116925359D01*
X165276482Y-116799918D01*
X165276480Y-116799916D01*
X165276479Y-116799915D01*
X165222996Y-116758876D01*
X165181129Y-116701538D01*
X165173700Y-116658914D01*
X165173700Y-116584700D01*
X165193702Y-116516579D01*
X165247358Y-116470086D01*
X165299700Y-116458700D01*
X165997947Y-116458700D01*
X165997948Y-116458700D01*
X166056431Y-116447067D01*
X166058198Y-116445885D01*
X166062633Y-116444497D01*
X166067894Y-116442318D01*
X166068089Y-116442788D01*
X166125951Y-116424671D01*
X166194418Y-116443454D01*
X166198189Y-116445878D01*
X166199969Y-116447067D01*
X166258452Y-116458700D01*
X166258453Y-116458700D01*
X166997947Y-116458700D01*
X166997948Y-116458700D01*
X167056431Y-116447067D01*
X167058198Y-116445885D01*
X167062633Y-116444497D01*
X167067894Y-116442318D01*
X167068089Y-116442788D01*
X167125951Y-116424671D01*
X167194418Y-116443454D01*
X167198189Y-116445878D01*
X167199969Y-116447067D01*
X167258452Y-116458700D01*
X167258453Y-116458700D01*
X167997947Y-116458700D01*
X167997948Y-116458700D01*
X168056431Y-116447067D01*
X168122752Y-116402752D01*
X168167067Y-116336431D01*
X168178700Y-116277948D01*
X168178700Y-114238452D01*
X168167067Y-114179969D01*
X168122752Y-114113648D01*
X168056431Y-114069333D01*
X168056424Y-114069330D01*
X168045115Y-114067081D01*
X167982206Y-114034173D01*
X167947076Y-113972477D01*
X167943699Y-113943503D01*
X167943699Y-113342139D01*
X167960124Y-113286199D01*
X168776918Y-113286199D01*
X168776918Y-113286200D01*
X168797555Y-113442960D01*
X168834040Y-113531041D01*
X168858064Y-113589041D01*
X168954318Y-113714482D01*
X169079759Y-113810736D01*
X169175096Y-113850226D01*
X169230375Y-113894772D01*
X169252796Y-113962135D01*
X169235238Y-114030927D01*
X169196879Y-114071397D01*
X169133648Y-114113647D01*
X169089333Y-114179968D01*
X169089332Y-114179971D01*
X169077700Y-114238449D01*
X169077700Y-116277950D01*
X169088713Y-116333317D01*
X169089333Y-116336431D01*
X169133648Y-116402752D01*
X169199969Y-116447067D01*
X169200921Y-116447256D01*
X169201280Y-116447328D01*
X169203866Y-116448681D01*
X169211437Y-116451817D01*
X169211156Y-116452494D01*
X169264190Y-116480235D01*
X169299323Y-116541929D01*
X169302700Y-116570907D01*
X169302700Y-117142552D01*
X169282698Y-117210673D01*
X169276663Y-117219255D01*
X169213668Y-117301352D01*
X169213663Y-117301360D01*
X169153155Y-117447439D01*
X169132518Y-117604199D01*
X169132518Y-117604200D01*
X169153155Y-117760960D01*
X169207100Y-117891193D01*
X169213664Y-117907041D01*
X169309918Y-118032482D01*
X169435359Y-118128736D01*
X169581438Y-118189244D01*
X169738200Y-118209882D01*
X169894962Y-118189244D01*
X170041041Y-118128736D01*
X170166482Y-118032482D01*
X170261234Y-117908999D01*
X178936918Y-117908999D01*
X178936918Y-117909000D01*
X178957555Y-118065760D01*
X179017253Y-118209882D01*
X179018064Y-118211841D01*
X179114318Y-118337282D01*
X179239759Y-118433536D01*
X179385838Y-118494044D01*
X179542600Y-118514682D01*
X179699362Y-118494044D01*
X179845441Y-118433536D01*
X179970882Y-118337282D01*
X179984280Y-118319821D01*
X180011924Y-118283796D01*
X180069262Y-118241929D01*
X180111886Y-118234500D01*
X180893351Y-118234500D01*
X180893353Y-118234500D01*
X180976139Y-118212318D01*
X181050362Y-118169465D01*
X181050366Y-118169460D01*
X181054439Y-118166337D01*
X181120659Y-118140737D01*
X181131142Y-118140300D01*
X181740455Y-118140300D01*
X181740460Y-118140300D01*
X181808593Y-118130373D01*
X181913683Y-118078998D01*
X181996398Y-117996283D01*
X182047773Y-117891193D01*
X182057700Y-117823060D01*
X182057700Y-117456540D01*
X182047773Y-117388407D01*
X181996398Y-117283317D01*
X181996396Y-117283314D01*
X181913685Y-117200603D01*
X181913682Y-117200601D01*
X181808594Y-117149227D01*
X181740461Y-117139300D01*
X181740460Y-117139300D01*
X180498940Y-117139300D01*
X180498938Y-117139300D01*
X180430805Y-117149227D01*
X180325717Y-117200601D01*
X180325714Y-117200603D01*
X180243003Y-117283314D01*
X180243001Y-117283317D01*
X180191626Y-117388406D01*
X180191625Y-117388409D01*
X180188021Y-117413150D01*
X180158406Y-117477675D01*
X180098608Y-117515946D01*
X180027611Y-117515812D01*
X179974243Y-117484078D01*
X179970888Y-117480723D01*
X179970882Y-117480718D01*
X179845441Y-117384464D01*
X179802027Y-117366481D01*
X179699360Y-117323955D01*
X179542600Y-117303318D01*
X179385839Y-117323955D01*
X179239760Y-117384463D01*
X179239757Y-117384465D01*
X179114318Y-117480718D01*
X179018065Y-117606157D01*
X179018063Y-117606160D01*
X178957555Y-117752239D01*
X178936918Y-117908999D01*
X170261234Y-117908999D01*
X170262736Y-117907041D01*
X170323244Y-117760962D01*
X170343882Y-117604200D01*
X170323244Y-117447438D01*
X170262736Y-117301359D01*
X170166482Y-117175918D01*
X170041041Y-117079664D01*
X170041037Y-117079662D01*
X170041033Y-117079660D01*
X170031476Y-117075701D01*
X169976197Y-117031150D01*
X169953780Y-116963785D01*
X169953700Y-116959295D01*
X169953700Y-116570907D01*
X169973702Y-116502786D01*
X170027358Y-116456293D01*
X170055120Y-116447328D01*
X170055408Y-116447270D01*
X170056431Y-116447067D01*
X170122752Y-116402752D01*
X170167067Y-116336431D01*
X170171731Y-116312982D01*
X170204637Y-116250073D01*
X170266332Y-116214941D01*
X170337227Y-116218740D01*
X170343529Y-116221154D01*
X170349754Y-116223732D01*
X170349759Y-116223736D01*
X170495838Y-116284244D01*
X170652600Y-116304882D01*
X170809362Y-116284244D01*
X170955441Y-116223736D01*
X171080882Y-116127482D01*
X171177136Y-116002041D01*
X171237644Y-115855962D01*
X171258282Y-115699200D01*
X171256510Y-115685744D01*
X171238984Y-115552617D01*
X171237644Y-115542438D01*
X171177136Y-115396359D01*
X171080882Y-115270918D01*
X170955441Y-115174664D01*
X170942540Y-115169320D01*
X170809360Y-115114155D01*
X170652600Y-115093518D01*
X170652598Y-115093518D01*
X170585758Y-115102317D01*
X170515609Y-115091377D01*
X170480218Y-115066490D01*
X170411468Y-114997740D01*
X170411458Y-114997732D01*
X170337243Y-114954884D01*
X170337241Y-114954883D01*
X170337239Y-114954882D01*
X170337236Y-114954881D01*
X170337231Y-114954879D01*
X170272088Y-114937424D01*
X170211465Y-114900472D01*
X170180444Y-114836612D01*
X170178700Y-114815718D01*
X170178700Y-114238453D01*
X170178699Y-114238449D01*
X170177566Y-114232755D01*
X170167067Y-114179969D01*
X170122752Y-114113648D01*
X170056431Y-114069333D01*
X170056422Y-114069329D01*
X170055111Y-114069069D01*
X170052519Y-114067713D01*
X170044963Y-114064583D01*
X170045243Y-114063906D01*
X169992203Y-114036158D01*
X169957075Y-113974461D01*
X169953700Y-113945492D01*
X169953700Y-113501687D01*
X169963292Y-113453467D01*
X169967644Y-113442962D01*
X169988282Y-113286200D01*
X169979103Y-113216482D01*
X169967644Y-113129439D01*
X169965132Y-113123373D01*
X169907136Y-112983359D01*
X169810882Y-112857918D01*
X169685441Y-112761664D01*
X169666128Y-112753664D01*
X169539360Y-112701155D01*
X169382600Y-112680518D01*
X169225839Y-112701155D01*
X169079760Y-112761663D01*
X169079757Y-112761665D01*
X168954318Y-112857918D01*
X168858065Y-112983357D01*
X168858063Y-112983360D01*
X168797555Y-113129439D01*
X168776918Y-113286199D01*
X167960124Y-113286199D01*
X167963701Y-113274018D01*
X167992994Y-113242177D01*
X168026482Y-113216482D01*
X168122736Y-113091041D01*
X168183244Y-112944962D01*
X168203882Y-112788200D01*
X168203506Y-112785347D01*
X168192645Y-112702844D01*
X168183244Y-112631438D01*
X168122736Y-112485359D01*
X168026482Y-112359918D01*
X167901041Y-112263664D01*
X167888191Y-112258341D01*
X167754960Y-112203155D01*
X167598200Y-112182518D01*
X167441439Y-112203155D01*
X167295360Y-112263663D01*
X167295357Y-112263665D01*
X167169918Y-112359918D01*
X167073665Y-112485357D01*
X167073663Y-112485360D01*
X167013156Y-112631438D01*
X167012498Y-112636437D01*
X166983775Y-112701364D01*
X166924509Y-112740455D01*
X166853517Y-112741299D01*
X166839358Y-112736398D01*
X166734960Y-112693155D01*
X166578200Y-112672518D01*
X166421439Y-112693155D01*
X166275360Y-112753663D01*
X166275357Y-112753665D01*
X166149918Y-112849918D01*
X166053665Y-112975357D01*
X166053661Y-112975364D01*
X166031845Y-113028033D01*
X165987297Y-113083314D01*
X165919933Y-113105734D01*
X165867219Y-113096223D01*
X165714960Y-113033155D01*
X165558200Y-113012518D01*
X165401439Y-113033155D01*
X165255360Y-113093663D01*
X165255357Y-113093665D01*
X165129918Y-113189918D01*
X165033665Y-113315357D01*
X165033663Y-113315360D01*
X164973155Y-113461439D01*
X164952518Y-113618199D01*
X164952518Y-113618200D01*
X164973155Y-113774960D01*
X164973316Y-113775348D01*
X165017932Y-113883061D01*
X165018107Y-113883482D01*
X165025696Y-113954072D01*
X164993917Y-114017559D01*
X164932859Y-114053786D01*
X164901698Y-114057700D01*
X164258449Y-114057700D01*
X164199971Y-114069332D01*
X164199964Y-114069335D01*
X164198196Y-114070517D01*
X164193758Y-114071906D01*
X164188506Y-114074082D01*
X164188311Y-114073611D01*
X164130442Y-114091728D01*
X164061976Y-114072941D01*
X164058204Y-114070517D01*
X164056435Y-114069335D01*
X164056432Y-114069333D01*
X164056431Y-114069333D01*
X164056429Y-114069332D01*
X164056428Y-114069332D01*
X163997950Y-114057700D01*
X163997948Y-114057700D01*
X163258452Y-114057700D01*
X163258449Y-114057700D01*
X163199971Y-114069332D01*
X163199964Y-114069335D01*
X163198196Y-114070517D01*
X163193758Y-114071906D01*
X163188506Y-114074082D01*
X163188311Y-114073611D01*
X163130442Y-114091728D01*
X163061976Y-114072941D01*
X163058204Y-114070517D01*
X163056435Y-114069335D01*
X163056424Y-114069330D01*
X163045115Y-114067081D01*
X162982206Y-114034173D01*
X162947076Y-113972477D01*
X162943699Y-113943503D01*
X162943699Y-113935347D01*
X162937592Y-113912555D01*
X162921517Y-113852561D01*
X162921515Y-113852558D01*
X162921515Y-113852556D01*
X162878666Y-113778340D01*
X162878662Y-113778335D01*
X162849000Y-113748673D01*
X162818061Y-113717734D01*
X162458062Y-113357735D01*
X162458060Y-113357734D01*
X162458058Y-113357732D01*
X162383843Y-113314884D01*
X162383841Y-113314883D01*
X162383839Y-113314882D01*
X162301053Y-113292700D01*
X159161053Y-113292700D01*
X159075347Y-113292700D01*
X158992561Y-113314882D01*
X158992559Y-113314883D01*
X158992556Y-113314884D01*
X158918341Y-113357732D01*
X158918331Y-113357740D01*
X158543795Y-113732277D01*
X158481483Y-113766303D01*
X158410668Y-113761238D01*
X158353832Y-113718691D01*
X158329021Y-113652171D01*
X158328700Y-113643182D01*
X158328700Y-109038453D01*
X158328699Y-109038449D01*
X158325640Y-109023071D01*
X158319914Y-108994281D01*
X158326242Y-108923568D01*
X158369796Y-108867500D01*
X158436748Y-108843881D01*
X158443493Y-108843700D01*
X158951700Y-108843700D01*
X159019821Y-108863702D01*
X159066314Y-108917358D01*
X159077700Y-108969700D01*
X159077700Y-109077950D01*
X159085046Y-109114882D01*
X159089333Y-109136431D01*
X159133648Y-109202752D01*
X159199969Y-109247067D01*
X159258452Y-109258700D01*
X159258453Y-109258700D01*
X159997947Y-109258700D01*
X159997948Y-109258700D01*
X160056431Y-109247067D01*
X160058198Y-109245885D01*
X160062633Y-109244497D01*
X160067894Y-109242318D01*
X160068089Y-109242788D01*
X160125951Y-109224671D01*
X160194418Y-109243454D01*
X160198189Y-109245878D01*
X160199969Y-109247067D01*
X160258452Y-109258700D01*
X160258453Y-109258700D01*
X160997947Y-109258700D01*
X160997948Y-109258700D01*
X161056431Y-109247067D01*
X161058198Y-109245885D01*
X161062633Y-109244497D01*
X161067894Y-109242318D01*
X161068089Y-109242788D01*
X161125951Y-109224671D01*
X161194418Y-109243454D01*
X161198189Y-109245878D01*
X161199969Y-109247067D01*
X161208179Y-109248700D01*
X161211280Y-109249317D01*
X161274190Y-109282224D01*
X161309323Y-109343918D01*
X161312700Y-109372896D01*
X161312700Y-109398914D01*
X161292698Y-109467035D01*
X161263404Y-109498876D01*
X161209920Y-109539915D01*
X161113665Y-109665357D01*
X161113663Y-109665360D01*
X161053155Y-109811439D01*
X161032518Y-109968199D01*
X161032518Y-109968200D01*
X161053155Y-110124960D01*
X161097798Y-110232736D01*
X161113664Y-110271041D01*
X161209918Y-110396482D01*
X161335359Y-110492736D01*
X161481438Y-110553244D01*
X161638200Y-110573882D01*
X161794962Y-110553244D01*
X161883330Y-110516640D01*
X161953916Y-110509051D01*
X162017404Y-110540829D01*
X162047953Y-110584829D01*
X162083664Y-110671041D01*
X162179918Y-110796482D01*
X162305359Y-110892736D01*
X162451438Y-110953244D01*
X162608200Y-110973882D01*
X162764962Y-110953244D01*
X162911041Y-110892736D01*
X162916958Y-110888195D01*
X162983177Y-110862595D01*
X163052726Y-110876859D01*
X163103523Y-110926460D01*
X163110066Y-110939930D01*
X163143664Y-111021041D01*
X163239918Y-111146482D01*
X163365359Y-111242736D01*
X163511438Y-111303244D01*
X163668200Y-111323882D01*
X163824962Y-111303244D01*
X163971041Y-111242736D01*
X164096482Y-111146482D01*
X164192736Y-111021041D01*
X164253244Y-110874962D01*
X164273882Y-110718200D01*
X164272115Y-110704782D01*
X164262776Y-110633839D01*
X164253244Y-110561438D01*
X164192736Y-110415359D01*
X164096482Y-110289918D01*
X164096480Y-110289916D01*
X164096479Y-110289915D01*
X163992995Y-110210509D01*
X163951128Y-110153171D01*
X163943699Y-110110547D01*
X163943699Y-109372896D01*
X163963701Y-109304775D01*
X164017357Y-109258282D01*
X164045120Y-109249317D01*
X164056427Y-109247068D01*
X164056427Y-109247067D01*
X164056431Y-109247067D01*
X164058198Y-109245885D01*
X164062633Y-109244497D01*
X164067894Y-109242318D01*
X164068089Y-109242788D01*
X164125951Y-109224671D01*
X164194418Y-109243454D01*
X164198189Y-109245878D01*
X164199969Y-109247067D01*
X164258452Y-109258700D01*
X164258453Y-109258700D01*
X164997947Y-109258700D01*
X164997948Y-109258700D01*
X165032118Y-109251903D01*
X165102832Y-109258231D01*
X165158899Y-109301785D01*
X165182519Y-109368737D01*
X165182700Y-109375482D01*
X165182700Y-109405347D01*
X165182700Y-109491053D01*
X165204882Y-109573839D01*
X165204883Y-109573841D01*
X165204884Y-109573843D01*
X165237124Y-109629684D01*
X165253862Y-109698680D01*
X165252927Y-109709129D01*
X165242518Y-109788198D01*
X165242518Y-109788200D01*
X165263155Y-109944960D01*
X165321310Y-110085357D01*
X165323664Y-110091041D01*
X165419918Y-110216482D01*
X165545359Y-110312736D01*
X165691438Y-110373244D01*
X165848200Y-110393882D01*
X166004962Y-110373244D01*
X166151041Y-110312736D01*
X166276482Y-110216482D01*
X166361257Y-110105999D01*
X166418594Y-110064133D01*
X166489465Y-110059911D01*
X166551368Y-110094674D01*
X166561181Y-110106000D01*
X166599915Y-110156479D01*
X166599916Y-110156480D01*
X166599918Y-110156482D01*
X166725359Y-110252736D01*
X166871438Y-110313244D01*
X167028200Y-110333882D01*
X167184962Y-110313244D01*
X167331041Y-110252736D01*
X167456482Y-110156482D01*
X167552736Y-110031041D01*
X167613244Y-109884962D01*
X167633882Y-109728200D01*
X167613244Y-109571438D01*
X167555866Y-109432917D01*
X167548278Y-109362328D01*
X167580057Y-109298841D01*
X167641116Y-109262614D01*
X167672276Y-109258700D01*
X167997947Y-109258700D01*
X167997948Y-109258700D01*
X168056431Y-109247067D01*
X168058198Y-109245885D01*
X168062633Y-109244497D01*
X168067894Y-109242318D01*
X168068089Y-109242788D01*
X168125951Y-109224671D01*
X168194418Y-109243454D01*
X168198189Y-109245878D01*
X168199969Y-109247067D01*
X168258452Y-109258700D01*
X168258453Y-109258700D01*
X168997947Y-109258700D01*
X168997948Y-109258700D01*
X169056431Y-109247067D01*
X169058198Y-109245885D01*
X169062633Y-109244497D01*
X169067894Y-109242318D01*
X169068089Y-109242788D01*
X169125951Y-109224671D01*
X169194418Y-109243454D01*
X169198189Y-109245878D01*
X169199969Y-109247067D01*
X169258452Y-109258700D01*
X169258453Y-109258700D01*
X169997947Y-109258700D01*
X169997948Y-109258700D01*
X170056431Y-109247067D01*
X170122752Y-109202752D01*
X170167067Y-109136431D01*
X170178700Y-109077948D01*
X170178700Y-108904309D01*
X170198702Y-108836188D01*
X170252358Y-108789695D01*
X170322632Y-108779591D01*
X170387212Y-108809085D01*
X170408361Y-108834700D01*
X170408637Y-108834489D01*
X170413663Y-108841039D01*
X170413664Y-108841041D01*
X170509918Y-108966482D01*
X170635359Y-109062736D01*
X170781438Y-109123244D01*
X170938200Y-109143882D01*
X171094962Y-109123244D01*
X171168485Y-109092789D01*
X171239071Y-109085201D01*
X171302558Y-109116980D01*
X171338786Y-109178038D01*
X171342700Y-109209199D01*
X171342700Y-110465347D01*
X171342700Y-110551053D01*
X171364882Y-110633839D01*
X171364883Y-110633840D01*
X171367020Y-110641816D01*
X171365668Y-110642178D01*
X171372325Y-110704066D01*
X171340549Y-110767554D01*
X171279493Y-110803785D01*
X171248326Y-110807700D01*
X171194430Y-110807700D01*
X171072030Y-110832047D01*
X171030118Y-110840384D01*
X171030117Y-110840384D01*
X171030114Y-110840385D01*
X170928191Y-110882604D01*
X170877047Y-110903789D01*
X170875335Y-110904498D01*
X170736038Y-110997573D01*
X170736032Y-110997578D01*
X170617578Y-111116032D01*
X170617573Y-111116038D01*
X170529390Y-111248014D01*
X170524497Y-111255337D01*
X170521140Y-111263442D01*
X170460385Y-111410114D01*
X170427700Y-111574430D01*
X170427700Y-111741969D01*
X170439364Y-111800605D01*
X170460200Y-111905359D01*
X170460385Y-111906285D01*
X170473352Y-111937589D01*
X170524497Y-112061063D01*
X170525550Y-112062639D01*
X170617573Y-112200361D01*
X170617578Y-112200367D01*
X170736032Y-112318821D01*
X170736038Y-112318826D01*
X170875337Y-112411903D01*
X171030118Y-112476016D01*
X171194433Y-112508700D01*
X171194434Y-112508700D01*
X171361966Y-112508700D01*
X171361967Y-112508700D01*
X171526282Y-112476016D01*
X171681063Y-112411903D01*
X171820362Y-112318826D01*
X171938826Y-112200362D01*
X172031903Y-112061063D01*
X172096016Y-111906282D01*
X172128700Y-111741967D01*
X172128700Y-111733217D01*
X172148702Y-111665096D01*
X172202358Y-111618603D01*
X172272632Y-111608499D01*
X172337212Y-111637993D01*
X172343795Y-111644122D01*
X173255795Y-112556122D01*
X173289821Y-112618434D01*
X173292700Y-112645217D01*
X173292700Y-112937305D01*
X173272698Y-113005426D01*
X173219042Y-113051919D01*
X173148768Y-113062023D01*
X173089996Y-113037268D01*
X173078001Y-113028064D01*
X172981041Y-112953664D01*
X172963773Y-112946511D01*
X172834960Y-112893155D01*
X172678200Y-112872518D01*
X172521439Y-112893155D01*
X172375360Y-112953663D01*
X172375357Y-112953665D01*
X172249918Y-113049918D01*
X172153665Y-113175357D01*
X172153663Y-113175360D01*
X172093155Y-113321439D01*
X172072518Y-113478199D01*
X172072518Y-113478200D01*
X172093155Y-113634960D01*
X172153663Y-113781039D01*
X172153668Y-113781046D01*
X172233699Y-113885346D01*
X172259299Y-113951566D01*
X172245034Y-114021115D01*
X172203739Y-114066813D01*
X172133648Y-114113647D01*
X172089333Y-114179968D01*
X172089332Y-114179971D01*
X172077700Y-114238449D01*
X172077700Y-116277950D01*
X172088713Y-116333317D01*
X172089333Y-116336431D01*
X172133648Y-116402752D01*
X172199969Y-116447067D01*
X172258452Y-116458700D01*
X172258453Y-116458700D01*
X172997947Y-116458700D01*
X172997948Y-116458700D01*
X173056431Y-116447067D01*
X173058198Y-116445885D01*
X173062633Y-116444497D01*
X173067894Y-116442318D01*
X173068089Y-116442788D01*
X173125951Y-116424671D01*
X173194418Y-116443454D01*
X173198189Y-116445878D01*
X173199969Y-116447067D01*
X173258452Y-116458700D01*
X173258453Y-116458700D01*
X173997947Y-116458700D01*
X173997948Y-116458700D01*
X174056431Y-116447067D01*
X174058198Y-116445885D01*
X174062633Y-116444497D01*
X174067894Y-116442318D01*
X174068089Y-116442788D01*
X174125951Y-116424671D01*
X174194418Y-116443454D01*
X174198189Y-116445878D01*
X174199969Y-116447067D01*
X174258452Y-116458700D01*
X174258453Y-116458700D01*
X174997947Y-116458700D01*
X174997948Y-116458700D01*
X175056431Y-116447067D01*
X175058198Y-116445885D01*
X175062633Y-116444497D01*
X175067894Y-116442318D01*
X175068089Y-116442788D01*
X175125951Y-116424671D01*
X175194418Y-116443454D01*
X175198189Y-116445878D01*
X175199969Y-116447067D01*
X175258452Y-116458700D01*
X175258453Y-116458700D01*
X175997947Y-116458700D01*
X175997948Y-116458700D01*
X176056431Y-116447067D01*
X176058198Y-116445885D01*
X176062633Y-116444497D01*
X176067894Y-116442318D01*
X176068089Y-116442788D01*
X176125951Y-116424671D01*
X176194418Y-116443454D01*
X176198189Y-116445878D01*
X176199969Y-116447067D01*
X176258452Y-116458700D01*
X176258453Y-116458700D01*
X176997947Y-116458700D01*
X176997948Y-116458700D01*
X177056431Y-116447067D01*
X177058198Y-116445885D01*
X177062633Y-116444497D01*
X177067894Y-116442318D01*
X177068089Y-116442788D01*
X177125951Y-116424671D01*
X177194418Y-116443454D01*
X177198189Y-116445878D01*
X177199969Y-116447067D01*
X177258452Y-116458700D01*
X177258453Y-116458700D01*
X177997947Y-116458700D01*
X177997948Y-116458700D01*
X178056431Y-116447067D01*
X178058198Y-116445885D01*
X178062633Y-116444497D01*
X178067894Y-116442318D01*
X178068089Y-116442788D01*
X178125951Y-116424671D01*
X178194418Y-116443454D01*
X178198189Y-116445878D01*
X178199969Y-116447067D01*
X178258452Y-116458700D01*
X178258453Y-116458700D01*
X178997947Y-116458700D01*
X178997948Y-116458700D01*
X179056431Y-116447067D01*
X179122752Y-116402752D01*
X179167067Y-116336431D01*
X179178700Y-116277948D01*
X179178700Y-115220216D01*
X179198702Y-115152095D01*
X179215600Y-115131125D01*
X179687686Y-114659038D01*
X179687696Y-114659031D01*
X179758659Y-114588068D01*
X179758665Y-114588062D01*
X179759849Y-114586010D01*
X179761520Y-114584340D01*
X179763690Y-114581512D01*
X179764062Y-114581797D01*
X179796057Y-114549807D01*
X179794489Y-114547763D01*
X179801039Y-114542736D01*
X179801041Y-114542736D01*
X179926482Y-114446482D01*
X179961318Y-114401081D01*
X180018652Y-114359215D01*
X180085864Y-114354207D01*
X180090942Y-114355217D01*
X180108446Y-114358699D01*
X180108449Y-114358699D01*
X180108452Y-114358700D01*
X180108453Y-114358700D01*
X183147947Y-114358700D01*
X183147948Y-114358700D01*
X183206431Y-114347067D01*
X183272752Y-114302752D01*
X183317067Y-114236431D01*
X183328700Y-114177948D01*
X183328700Y-109138452D01*
X183317067Y-109079969D01*
X183272752Y-109013648D01*
X183206431Y-108969333D01*
X183206428Y-108969332D01*
X183147950Y-108957700D01*
X183147948Y-108957700D01*
X180139700Y-108957700D01*
X180071579Y-108937698D01*
X180025086Y-108884042D01*
X180013700Y-108831700D01*
X180013700Y-107180308D01*
X180033702Y-107112187D01*
X180087358Y-107065694D01*
X180157632Y-107055590D01*
X180222212Y-107085084D01*
X180256107Y-107132088D01*
X180313664Y-107271041D01*
X180409918Y-107396482D01*
X180535359Y-107492736D01*
X180681438Y-107553244D01*
X180838200Y-107573882D01*
X180994962Y-107553244D01*
X180994967Y-107553241D01*
X181002938Y-107551107D01*
X181003544Y-107553370D01*
X181062114Y-107547060D01*
X181125608Y-107578824D01*
X181161851Y-107639873D01*
X181159334Y-107710825D01*
X181156181Y-107719281D01*
X181093155Y-107871439D01*
X181072518Y-108028199D01*
X181072518Y-108028200D01*
X181093155Y-108184960D01*
X181151791Y-108326518D01*
X181153664Y-108331041D01*
X181249918Y-108456482D01*
X181375359Y-108552736D01*
X181521438Y-108613244D01*
X181678200Y-108633882D01*
X181834962Y-108613244D01*
X181981041Y-108552736D01*
X182106482Y-108456482D01*
X182202736Y-108331041D01*
X182263244Y-108184962D01*
X182283882Y-108028200D01*
X182281731Y-108011864D01*
X182269154Y-107916328D01*
X182280093Y-107846179D01*
X182327222Y-107793081D01*
X182380387Y-107777813D01*
X182380012Y-107774960D01*
X182388200Y-107773882D01*
X182544962Y-107753244D01*
X182691041Y-107692736D01*
X182816482Y-107596482D01*
X182912736Y-107471041D01*
X182973244Y-107324962D01*
X182993882Y-107168200D01*
X182991126Y-107147269D01*
X183002064Y-107077124D01*
X183049191Y-107024024D01*
X183117545Y-107004833D01*
X183153184Y-107012142D01*
X183153462Y-107011107D01*
X183161434Y-107013242D01*
X183161438Y-107013244D01*
X183318200Y-107033882D01*
X183474962Y-107013244D01*
X183621041Y-106952736D01*
X183746482Y-106856482D01*
X183842736Y-106731041D01*
X183903244Y-106584962D01*
X183923882Y-106428200D01*
X183922411Y-106417030D01*
X183904205Y-106278735D01*
X183903244Y-106271438D01*
X183842736Y-106125359D01*
X183746482Y-105999918D01*
X183621041Y-105903664D01*
X183601879Y-105895727D01*
X183529827Y-105865882D01*
X183474962Y-105843156D01*
X183454651Y-105840482D01*
X183393252Y-105832398D01*
X183328326Y-105803675D01*
X183289234Y-105744409D01*
X183283700Y-105707476D01*
X183283700Y-105021216D01*
X183283701Y-105021203D01*
X183283701Y-104925348D01*
X183283700Y-104925344D01*
X183261520Y-104842568D01*
X183261515Y-104842556D01*
X183251170Y-104824638D01*
X183218667Y-104768341D01*
X183218659Y-104768331D01*
X183153673Y-104703345D01*
X183153650Y-104703324D01*
X180229973Y-101779646D01*
X180195947Y-101717334D01*
X180201012Y-101646518D01*
X180243559Y-101589683D01*
X180310079Y-101564872D01*
X180335511Y-101565628D01*
X180398200Y-101573882D01*
X180554962Y-101553244D01*
X180701041Y-101492736D01*
X180826482Y-101396482D01*
X180836318Y-101383662D01*
X180867524Y-101342996D01*
X180924862Y-101301129D01*
X180967486Y-101293700D01*
X182317732Y-101293700D01*
X182385853Y-101313702D01*
X182432346Y-101367358D01*
X182434131Y-101371459D01*
X182483664Y-101491041D01*
X182579918Y-101616482D01*
X182705359Y-101712736D01*
X182851438Y-101773244D01*
X183008200Y-101793882D01*
X183164962Y-101773244D01*
X183311041Y-101712736D01*
X183436482Y-101616482D01*
X183532736Y-101491041D01*
X183593244Y-101344962D01*
X183613882Y-101188200D01*
X183593244Y-101031438D01*
X183532736Y-100885359D01*
X183436482Y-100759918D01*
X183311041Y-100663664D01*
X183302703Y-100660210D01*
X183164960Y-100603155D01*
X183008200Y-100582518D01*
X182851439Y-100603155D01*
X182779125Y-100633109D01*
X182730907Y-100642700D01*
X180967486Y-100642700D01*
X180899365Y-100622698D01*
X180867524Y-100593404D01*
X180826484Y-100539920D01*
X180826482Y-100539919D01*
X180826482Y-100539918D01*
X180701041Y-100443664D01*
X180680830Y-100435292D01*
X180554960Y-100383155D01*
X180398200Y-100362518D01*
X180241439Y-100383155D01*
X180095360Y-100443663D01*
X180095357Y-100443665D01*
X179969918Y-100539918D01*
X179873665Y-100665357D01*
X179873663Y-100665360D01*
X179813155Y-100811439D01*
X179792518Y-100968199D01*
X179792518Y-100968201D01*
X179800770Y-101030885D01*
X179789830Y-101101033D01*
X179742702Y-101154131D01*
X179674348Y-101173321D01*
X179606470Y-101152509D01*
X179586753Y-101136425D01*
X179055468Y-100605140D01*
X179055458Y-100605132D01*
X178981243Y-100562284D01*
X178981241Y-100562283D01*
X178981239Y-100562282D01*
X178898453Y-100540100D01*
X178898451Y-100540100D01*
X156039616Y-100540100D01*
X155971495Y-100520098D01*
X155950521Y-100503195D01*
X154966726Y-99519399D01*
X160293318Y-99519399D01*
X160293318Y-99519400D01*
X160313955Y-99676160D01*
X160361946Y-99792019D01*
X160374464Y-99822241D01*
X160470718Y-99947682D01*
X160596159Y-100043936D01*
X160742238Y-100104444D01*
X160899000Y-100125082D01*
X161055762Y-100104444D01*
X161201841Y-100043936D01*
X161327282Y-99947682D01*
X161423536Y-99822241D01*
X161484044Y-99676162D01*
X161504682Y-99519400D01*
X161504275Y-99516312D01*
X161488536Y-99396760D01*
X161484044Y-99362638D01*
X161423536Y-99216559D01*
X161327282Y-99091118D01*
X161201841Y-98994864D01*
X161196441Y-98992627D01*
X161055760Y-98934355D01*
X160899000Y-98913718D01*
X160742239Y-98934355D01*
X160596160Y-98994863D01*
X160596157Y-98994865D01*
X160470718Y-99091118D01*
X160374465Y-99216557D01*
X160374463Y-99216560D01*
X160313955Y-99362639D01*
X160293318Y-99519399D01*
X154966726Y-99519399D01*
X154309522Y-98862195D01*
X154275496Y-98799883D01*
X154280561Y-98729067D01*
X154323108Y-98672232D01*
X154389628Y-98647421D01*
X154398617Y-98647100D01*
X154595851Y-98647100D01*
X154595853Y-98647100D01*
X154678639Y-98624918D01*
X154752862Y-98582065D01*
X156160886Y-97174038D01*
X156160896Y-97174031D01*
X156231861Y-97103066D01*
X156231865Y-97103062D01*
X156258269Y-97057326D01*
X156278286Y-97031239D01*
X156602723Y-96706802D01*
X156665033Y-96672779D01*
X156691816Y-96669900D01*
X159899183Y-96669900D01*
X159967304Y-96689902D01*
X159988278Y-96706805D01*
X160641549Y-97360076D01*
X160675575Y-97422388D01*
X160670510Y-97493203D01*
X160652417Y-97525874D01*
X160595268Y-97600352D01*
X160595263Y-97600360D01*
X160534755Y-97746439D01*
X160514118Y-97903199D01*
X160514118Y-97903200D01*
X160534755Y-98059960D01*
X160581061Y-98171751D01*
X160595264Y-98206041D01*
X160691518Y-98331482D01*
X160816959Y-98427736D01*
X160963038Y-98488244D01*
X161119800Y-98508882D01*
X161276562Y-98488244D01*
X161422641Y-98427736D01*
X161548082Y-98331482D01*
X161644336Y-98206041D01*
X161704844Y-98059962D01*
X161725482Y-97903200D01*
X161721876Y-97875813D01*
X161708177Y-97771755D01*
X161704844Y-97746438D01*
X161644336Y-97600359D01*
X161548082Y-97474918D01*
X161548080Y-97474916D01*
X161548079Y-97474915D01*
X161494596Y-97433876D01*
X161452729Y-97376538D01*
X161446929Y-97343262D01*
X161446378Y-97343335D01*
X161445300Y-97335147D01*
X161442198Y-97323571D01*
X161436284Y-97301500D01*
X161423118Y-97252361D01*
X161380265Y-97178138D01*
X161380262Y-97178135D01*
X161380259Y-97178131D01*
X161136437Y-96934309D01*
X169868900Y-96934309D01*
X169868900Y-97176890D01*
X169900560Y-97417382D01*
X169963344Y-97651695D01*
X169963345Y-97651697D01*
X169963346Y-97651700D01*
X170056176Y-97875812D01*
X170056177Y-97875813D01*
X170056182Y-97875824D01*
X170177461Y-98085885D01*
X170177463Y-98085888D01*
X170177464Y-98085889D01*
X170325135Y-98278338D01*
X170325139Y-98278342D01*
X170325144Y-98278348D01*
X170496651Y-98449855D01*
X170496656Y-98449859D01*
X170496662Y-98449865D01*
X170689111Y-98597536D01*
X170689114Y-98597538D01*
X170899175Y-98718817D01*
X170899179Y-98718818D01*
X170899188Y-98718824D01*
X171123300Y-98811654D01*
X171357611Y-98874438D01*
X171357615Y-98874438D01*
X171357617Y-98874439D01*
X171388465Y-98878500D01*
X171598112Y-98906100D01*
X171598119Y-98906100D01*
X171840681Y-98906100D01*
X171840688Y-98906100D01*
X172058037Y-98877485D01*
X172081182Y-98874439D01*
X172081182Y-98874438D01*
X172081189Y-98874438D01*
X172315500Y-98811654D01*
X172539612Y-98718824D01*
X172749689Y-98597536D01*
X172942138Y-98449865D01*
X173113665Y-98278338D01*
X173261336Y-98085889D01*
X173382624Y-97875812D01*
X173475454Y-97651700D01*
X173538238Y-97417389D01*
X173538446Y-97415813D01*
X173545998Y-97358442D01*
X173569900Y-97176888D01*
X173569900Y-96934312D01*
X173541615Y-96719464D01*
X173538239Y-96693817D01*
X173538238Y-96693815D01*
X173538238Y-96693811D01*
X173475454Y-96459500D01*
X173382624Y-96235388D01*
X173382618Y-96235379D01*
X173382617Y-96235375D01*
X173261338Y-96025314D01*
X173261336Y-96025311D01*
X173113665Y-95832862D01*
X173113659Y-95832856D01*
X173113655Y-95832851D01*
X172942148Y-95661344D01*
X172942142Y-95661339D01*
X172942138Y-95661335D01*
X172749689Y-95513664D01*
X172749688Y-95513663D01*
X172749685Y-95513661D01*
X172539624Y-95392382D01*
X172539616Y-95392378D01*
X172539612Y-95392376D01*
X172315500Y-95299546D01*
X172315497Y-95299545D01*
X172315495Y-95299544D01*
X172081182Y-95236760D01*
X171840690Y-95205100D01*
X171840688Y-95205100D01*
X171598112Y-95205100D01*
X171598109Y-95205100D01*
X171357617Y-95236760D01*
X171123304Y-95299544D01*
X171123300Y-95299546D01*
X170923908Y-95382137D01*
X170899186Y-95392377D01*
X170899175Y-95392382D01*
X170689114Y-95513661D01*
X170496662Y-95661335D01*
X170496651Y-95661344D01*
X170325144Y-95832851D01*
X170325135Y-95832862D01*
X170177461Y-96025314D01*
X170056182Y-96235375D01*
X170056177Y-96235386D01*
X170056176Y-96235388D01*
X169999761Y-96371587D01*
X169963346Y-96459500D01*
X169963344Y-96459504D01*
X169900560Y-96693817D01*
X169868900Y-96934309D01*
X161136437Y-96934309D01*
X160286068Y-96083940D01*
X160286058Y-96083932D01*
X160211843Y-96041084D01*
X160211841Y-96041083D01*
X160211839Y-96041082D01*
X160129053Y-96018900D01*
X160129051Y-96018900D01*
X159928814Y-96018900D01*
X159860693Y-95998898D01*
X159814200Y-95945242D01*
X159804096Y-95874968D01*
X159808432Y-95855696D01*
X159808770Y-95854598D01*
X159808773Y-95854593D01*
X159818700Y-95786460D01*
X159818700Y-95419940D01*
X159808773Y-95351807D01*
X159757398Y-95246717D01*
X159757396Y-95246714D01*
X159674685Y-95164003D01*
X159674682Y-95164001D01*
X159569594Y-95112627D01*
X159501461Y-95102700D01*
X159501460Y-95102700D01*
X158178218Y-95102700D01*
X158110097Y-95082698D01*
X158063604Y-95029042D01*
X158053500Y-94958768D01*
X158082994Y-94894188D01*
X158089123Y-94887605D01*
X158106123Y-94870605D01*
X158168435Y-94836579D01*
X158195218Y-94833700D01*
X159501455Y-94833700D01*
X159501460Y-94833700D01*
X159569593Y-94823773D01*
X159674683Y-94772398D01*
X159757398Y-94689683D01*
X159808773Y-94584593D01*
X159818700Y-94516460D01*
X159818700Y-94149940D01*
X159808773Y-94081807D01*
X159757398Y-93976717D01*
X159757396Y-93976714D01*
X159674685Y-93894003D01*
X159674682Y-93894001D01*
X159569594Y-93842627D01*
X159501461Y-93832700D01*
X159501460Y-93832700D01*
X157984940Y-93832700D01*
X157984938Y-93832700D01*
X157916805Y-93842627D01*
X157811717Y-93894001D01*
X157811714Y-93894003D01*
X157729003Y-93976714D01*
X157729001Y-93976717D01*
X157677627Y-94081805D01*
X157667700Y-94149938D01*
X157667700Y-94336183D01*
X157647698Y-94404304D01*
X157630795Y-94425278D01*
X157470278Y-94585795D01*
X157407966Y-94619821D01*
X157381183Y-94622700D01*
X153655217Y-94622700D01*
X153587096Y-94602698D01*
X153566122Y-94585795D01*
X153280605Y-94300278D01*
X153246579Y-94237966D01*
X153243700Y-94211183D01*
X153243700Y-92605346D01*
X153240423Y-92593118D01*
X153240422Y-92593115D01*
X153221518Y-92522561D01*
X153191124Y-92469918D01*
X153178667Y-92448341D01*
X153178662Y-92448335D01*
X152730615Y-92000288D01*
X152269120Y-91538793D01*
X152235097Y-91476483D01*
X152240161Y-91405668D01*
X152282708Y-91348832D01*
X152349228Y-91324021D01*
X152358217Y-91323700D01*
X155649073Y-91323700D01*
X155717194Y-91343702D01*
X155763687Y-91397358D01*
X155773791Y-91467632D01*
X155761340Y-91506901D01*
X155730681Y-91567074D01*
X155714900Y-91666712D01*
X155714900Y-92233688D01*
X155730681Y-92333326D01*
X155753689Y-92378481D01*
X155789282Y-92448338D01*
X155791872Y-92453420D01*
X155887180Y-92548728D01*
X156007274Y-92609919D01*
X156106912Y-92625700D01*
X156106915Y-92625700D01*
X156623885Y-92625700D01*
X156623888Y-92625700D01*
X156723526Y-92609919D01*
X156843620Y-92548728D01*
X156938928Y-92453420D01*
X157000119Y-92333326D01*
X157001088Y-92327202D01*
X157031496Y-92263049D01*
X157071146Y-92234887D01*
X157070837Y-92234351D01*
X157076526Y-92231066D01*
X157077339Y-92230489D01*
X157077979Y-92230223D01*
X157077989Y-92230221D01*
X157077997Y-92230215D01*
X157078000Y-92230215D01*
X157136427Y-92196482D01*
X157146511Y-92190660D01*
X157202460Y-92134711D01*
X157206566Y-92130605D01*
X157268878Y-92096579D01*
X157295661Y-92093700D01*
X157624173Y-92093700D01*
X157692294Y-92113702D01*
X157726717Y-92146483D01*
X157729003Y-92149685D01*
X157811714Y-92232396D01*
X157811717Y-92232398D01*
X157916807Y-92283773D01*
X157984940Y-92293700D01*
X157984945Y-92293700D01*
X159501455Y-92293700D01*
X159501460Y-92293700D01*
X159569593Y-92283773D01*
X159674683Y-92232398D01*
X159710599Y-92196482D01*
X159751477Y-92155605D01*
X159813789Y-92121579D01*
X159840572Y-92118700D01*
X160564828Y-92118700D01*
X160632949Y-92138702D01*
X160679442Y-92192358D01*
X160681225Y-92196455D01*
X160704664Y-92253041D01*
X160800918Y-92378482D01*
X160926359Y-92474736D01*
X161072438Y-92535244D01*
X161229200Y-92555882D01*
X161385962Y-92535244D01*
X161532041Y-92474736D01*
X161657482Y-92378482D01*
X161753736Y-92253041D01*
X161814244Y-92106962D01*
X161834882Y-91950200D01*
X161831298Y-91922980D01*
X161814244Y-91793439D01*
X161809922Y-91783003D01*
X161753736Y-91647359D01*
X161660923Y-91526403D01*
X161635324Y-91460183D01*
X161649589Y-91390635D01*
X161699190Y-91339839D01*
X161760887Y-91323700D01*
X164781183Y-91323700D01*
X164849304Y-91343702D01*
X164870278Y-91360605D01*
X164885490Y-91375817D01*
X164919516Y-91438129D01*
X164921317Y-91481357D01*
X164912518Y-91548198D01*
X164912518Y-91548200D01*
X164933155Y-91704960D01*
X164937579Y-91715639D01*
X164993664Y-91851041D01*
X165089918Y-91976482D01*
X165215359Y-92072736D01*
X165361438Y-92133244D01*
X165518200Y-92153882D01*
X165674962Y-92133244D01*
X165821041Y-92072736D01*
X165946482Y-91976482D01*
X166042736Y-91851041D01*
X166103244Y-91704962D01*
X166123882Y-91548200D01*
X166122178Y-91535260D01*
X166107563Y-91424242D01*
X166103244Y-91391438D01*
X166042736Y-91245359D01*
X165946482Y-91119918D01*
X165905748Y-91088661D01*
X165863882Y-91031325D01*
X165859660Y-90960454D01*
X165894424Y-90898551D01*
X165957137Y-90865270D01*
X165982453Y-90862700D01*
X172716347Y-90862700D01*
X175560183Y-90862700D01*
X175628304Y-90882702D01*
X175649278Y-90899605D01*
X176255795Y-91506122D01*
X176289821Y-91568434D01*
X176292700Y-91595217D01*
X176292700Y-97578914D01*
X176272698Y-97647035D01*
X176243404Y-97678876D01*
X176189920Y-97719915D01*
X176093665Y-97845357D01*
X176093663Y-97845360D01*
X176033155Y-97991439D01*
X176012518Y-98148199D01*
X176012518Y-98148200D01*
X176033155Y-98304960D01*
X176089130Y-98440094D01*
X176093664Y-98451041D01*
X176189918Y-98576482D01*
X176315359Y-98672736D01*
X176461438Y-98733244D01*
X176618200Y-98753882D01*
X176774962Y-98733244D01*
X176921041Y-98672736D01*
X177046482Y-98576482D01*
X177142736Y-98451041D01*
X177203244Y-98304962D01*
X177223882Y-98148200D01*
X177223392Y-98144481D01*
X177210783Y-98048700D01*
X177203244Y-97991438D01*
X177142736Y-97845359D01*
X177046482Y-97719918D01*
X177046480Y-97719916D01*
X177046479Y-97719915D01*
X176992996Y-97678876D01*
X176951129Y-97621538D01*
X176943700Y-97578914D01*
X176943700Y-95428449D01*
X180217700Y-95428449D01*
X180217700Y-97867950D01*
X180228797Y-97923739D01*
X180229333Y-97926431D01*
X180273648Y-97992752D01*
X180339969Y-98037067D01*
X180398452Y-98048700D01*
X180398453Y-98048700D01*
X182837947Y-98048700D01*
X182837948Y-98048700D01*
X182896431Y-98037067D01*
X182962752Y-97992752D01*
X183007067Y-97926431D01*
X183018700Y-97867948D01*
X183018700Y-97224700D01*
X183038702Y-97156579D01*
X183092358Y-97110086D01*
X183144700Y-97098700D01*
X188979407Y-97098700D01*
X189047528Y-97118702D01*
X189068502Y-97135605D01*
X192530795Y-100597898D01*
X192564821Y-100660210D01*
X192567700Y-100686993D01*
X192567700Y-102505117D01*
X192547698Y-102573238D01*
X192530795Y-102594212D01*
X192490151Y-102634855D01*
X192490149Y-102634857D01*
X192457244Y-102699439D01*
X192432554Y-102747896D01*
X192421533Y-102817482D01*
X192417700Y-102841684D01*
X192417700Y-105604716D01*
X192432553Y-105698502D01*
X192486857Y-105805081D01*
X192490150Y-105811542D01*
X192530796Y-105852188D01*
X192564820Y-105914497D01*
X192567700Y-105941282D01*
X192567700Y-107805117D01*
X192547698Y-107873238D01*
X192530795Y-107894212D01*
X192490151Y-107934855D01*
X192490149Y-107934857D01*
X192440029Y-108033225D01*
X192432554Y-108047896D01*
X192417700Y-108141681D01*
X192417700Y-108141684D01*
X192417700Y-110904716D01*
X192432553Y-110998502D01*
X192490149Y-111111542D01*
X192500612Y-111122005D01*
X192534638Y-111184317D01*
X192529573Y-111255132D01*
X192487026Y-111311968D01*
X192420506Y-111336779D01*
X192411517Y-111337100D01*
X191516193Y-111337100D01*
X191448072Y-111317098D01*
X191427098Y-111300195D01*
X191374593Y-111247690D01*
X191340567Y-111185378D01*
X191345632Y-111114563D01*
X191351416Y-111101402D01*
X191403846Y-110998504D01*
X191418700Y-110904719D01*
X191418699Y-108141682D01*
X191403846Y-108047896D01*
X191358433Y-107958768D01*
X191346250Y-107934857D01*
X191305605Y-107894212D01*
X191271579Y-107831900D01*
X191268700Y-107805117D01*
X191268700Y-105941282D01*
X191288702Y-105873161D01*
X191305600Y-105852191D01*
X191346250Y-105811542D01*
X191403846Y-105698504D01*
X191418700Y-105604719D01*
X191418699Y-102841682D01*
X191403846Y-102747896D01*
X191348912Y-102640082D01*
X191346250Y-102634857D01*
X191256542Y-102545149D01*
X191160276Y-102496100D01*
X191143504Y-102487554D01*
X191049719Y-102472700D01*
X191049715Y-102472700D01*
X190586683Y-102472700D01*
X190492897Y-102487553D01*
X190379857Y-102545149D01*
X190290149Y-102634857D01*
X190257244Y-102699439D01*
X190232554Y-102747896D01*
X190221533Y-102817482D01*
X190217700Y-102841684D01*
X190217700Y-105604716D01*
X190232553Y-105698502D01*
X190286857Y-105805081D01*
X190290150Y-105811542D01*
X190330796Y-105852188D01*
X190364820Y-105914497D01*
X190367700Y-105941282D01*
X190367700Y-107805117D01*
X190347698Y-107873238D01*
X190330795Y-107894212D01*
X190290151Y-107934855D01*
X190290149Y-107934857D01*
X190240029Y-108033225D01*
X190232554Y-108047896D01*
X190217700Y-108141681D01*
X190217700Y-108141684D01*
X190217700Y-108946700D01*
X190197698Y-109014821D01*
X190144042Y-109061314D01*
X190091700Y-109072700D01*
X189545491Y-109072700D01*
X189456441Y-109096561D01*
X189456440Y-109096560D01*
X189430920Y-109103398D01*
X189430908Y-109103403D01*
X189328189Y-109162708D01*
X189328179Y-109162716D01*
X189164317Y-109326578D01*
X189164309Y-109326589D01*
X189137906Y-109372319D01*
X189117883Y-109398412D01*
X185887716Y-112628579D01*
X185887710Y-112628587D01*
X185828400Y-112731312D01*
X185825019Y-112743935D01*
X185825019Y-112743936D01*
X185797957Y-112844934D01*
X185797700Y-112845892D01*
X185797700Y-113733101D01*
X185777698Y-113801222D01*
X185771663Y-113809804D01*
X185723668Y-113872352D01*
X185723663Y-113872360D01*
X185663155Y-114018439D01*
X185642518Y-114175198D01*
X185651317Y-114242039D01*
X185640377Y-114312188D01*
X185615491Y-114347580D01*
X185157737Y-114805335D01*
X185157732Y-114805341D01*
X185117728Y-114874629D01*
X185097707Y-114900721D01*
X185068943Y-114929485D01*
X185068939Y-114929490D01*
X185029377Y-114998014D01*
X185008900Y-115074434D01*
X185008900Y-115585500D01*
X184988898Y-115653621D01*
X184935242Y-115700114D01*
X184882900Y-115711500D01*
X184839649Y-115711500D01*
X184781171Y-115723132D01*
X184781168Y-115723133D01*
X184714848Y-115767448D01*
X184670533Y-115833768D01*
X184670532Y-115833771D01*
X184658900Y-115892249D01*
X184658900Y-117131750D01*
X184664805Y-117161438D01*
X184670533Y-117190231D01*
X184714848Y-117256552D01*
X184781169Y-117300867D01*
X184839652Y-117312500D01*
X184839653Y-117312500D01*
X185779147Y-117312500D01*
X185779148Y-117312500D01*
X185837631Y-117300867D01*
X185903952Y-117256552D01*
X185948267Y-117190231D01*
X185959900Y-117131748D01*
X185959900Y-115892252D01*
X185948267Y-115833769D01*
X185903952Y-115767448D01*
X185837631Y-115723133D01*
X185837628Y-115723132D01*
X185779150Y-115711500D01*
X185779148Y-115711500D01*
X185735900Y-115711500D01*
X185667779Y-115691498D01*
X185621286Y-115637842D01*
X185609900Y-115585500D01*
X185609900Y-115326017D01*
X185629902Y-115257896D01*
X185646800Y-115236926D01*
X186075819Y-114807906D01*
X186138130Y-114773883D01*
X186181355Y-114772081D01*
X186248200Y-114780882D01*
X186404962Y-114760244D01*
X186551041Y-114699736D01*
X186676482Y-114603482D01*
X186766738Y-114485856D01*
X186824075Y-114443991D01*
X186894946Y-114439769D01*
X186956849Y-114474533D01*
X186990130Y-114537245D01*
X186992700Y-114562562D01*
X186992700Y-117461182D01*
X186972698Y-117529303D01*
X186955795Y-117550277D01*
X186731277Y-117774795D01*
X186668965Y-117808821D01*
X186642182Y-117811700D01*
X183580061Y-117811700D01*
X183511940Y-117791698D01*
X183490966Y-117774795D01*
X183332105Y-117615934D01*
X183298079Y-117553622D01*
X183295200Y-117526839D01*
X183295200Y-117316300D01*
X183315202Y-117248179D01*
X183368858Y-117201686D01*
X183421200Y-117190300D01*
X183615455Y-117190300D01*
X183615460Y-117190300D01*
X183683593Y-117180373D01*
X183788683Y-117128998D01*
X183871398Y-117046283D01*
X183922773Y-116941193D01*
X183932700Y-116873060D01*
X183932700Y-116506540D01*
X183922773Y-116438407D01*
X183871398Y-116333317D01*
X183871396Y-116333314D01*
X183788685Y-116250603D01*
X183788682Y-116250601D01*
X183683594Y-116199227D01*
X183615461Y-116189300D01*
X183615460Y-116189300D01*
X182373940Y-116189300D01*
X182373938Y-116189300D01*
X182305805Y-116199227D01*
X182200717Y-116250601D01*
X182200714Y-116250603D01*
X182118003Y-116333314D01*
X182118001Y-116333317D01*
X182066627Y-116438405D01*
X182056700Y-116506538D01*
X182056700Y-116873061D01*
X182066627Y-116941194D01*
X182118001Y-117046282D01*
X182118003Y-117046285D01*
X182200714Y-117128996D01*
X182200717Y-117128998D01*
X182305807Y-117180373D01*
X182373940Y-117190300D01*
X182568200Y-117190300D01*
X182636321Y-117210302D01*
X182682814Y-117263958D01*
X182694200Y-117316300D01*
X182694200Y-117743065D01*
X182713164Y-117813836D01*
X182714679Y-117819489D01*
X182736775Y-117857761D01*
X182754237Y-117888007D01*
X182754239Y-117888009D01*
X182754240Y-117888011D01*
X183162940Y-118296711D01*
X183218889Y-118352660D01*
X183287411Y-118392221D01*
X183287413Y-118392221D01*
X183287414Y-118392222D01*
X183363834Y-118412699D01*
X183363838Y-118412700D01*
X186893762Y-118412700D01*
X186970189Y-118392221D01*
X187038711Y-118352660D01*
X187087481Y-118303889D01*
X187113571Y-118283870D01*
X187182862Y-118243865D01*
X187578665Y-117848062D01*
X187586852Y-117833882D01*
X187593100Y-117823061D01*
X187601321Y-117808821D01*
X187621518Y-117773838D01*
X187643700Y-117691053D01*
X187643700Y-116938500D01*
X187663702Y-116870379D01*
X187717358Y-116823886D01*
X187769700Y-116812500D01*
X187832900Y-116812500D01*
X187901021Y-116832502D01*
X187947514Y-116886158D01*
X187958900Y-116938500D01*
X187958900Y-117131750D01*
X187964805Y-117161438D01*
X187970533Y-117190231D01*
X188014848Y-117256552D01*
X188081169Y-117300867D01*
X188139652Y-117312500D01*
X188139653Y-117312500D01*
X189079147Y-117312500D01*
X189079148Y-117312500D01*
X189137631Y-117300867D01*
X189203952Y-117256552D01*
X189248267Y-117190231D01*
X189259900Y-117131748D01*
X189259900Y-116822509D01*
X200094900Y-116822509D01*
X200094900Y-117065090D01*
X200126560Y-117305582D01*
X200189344Y-117539895D01*
X200189345Y-117539897D01*
X200189346Y-117539900D01*
X200282176Y-117764012D01*
X200282177Y-117764013D01*
X200282182Y-117764024D01*
X200403461Y-117974085D01*
X200403463Y-117974088D01*
X200403464Y-117974089D01*
X200551135Y-118166538D01*
X200551139Y-118166542D01*
X200551144Y-118166548D01*
X200722651Y-118338055D01*
X200722656Y-118338059D01*
X200722662Y-118338065D01*
X200901572Y-118475347D01*
X200915114Y-118485738D01*
X201125175Y-118607017D01*
X201125179Y-118607018D01*
X201125188Y-118607024D01*
X201349300Y-118699854D01*
X201583611Y-118762638D01*
X201583615Y-118762638D01*
X201583617Y-118762639D01*
X201645602Y-118770799D01*
X201824112Y-118794300D01*
X201824119Y-118794300D01*
X202066681Y-118794300D01*
X202066688Y-118794300D01*
X202284037Y-118765685D01*
X202307182Y-118762639D01*
X202307182Y-118762638D01*
X202307189Y-118762638D01*
X202541500Y-118699854D01*
X202765612Y-118607024D01*
X202975689Y-118485736D01*
X203168138Y-118338065D01*
X203339665Y-118166538D01*
X203487336Y-117974089D01*
X203608624Y-117764012D01*
X203701454Y-117539900D01*
X203764238Y-117305589D01*
X203795900Y-117065088D01*
X203795900Y-116822512D01*
X203764592Y-116584700D01*
X203764239Y-116582017D01*
X203764238Y-116582015D01*
X203764238Y-116582011D01*
X203701454Y-116347700D01*
X203608624Y-116123588D01*
X203608618Y-116123579D01*
X203608617Y-116123575D01*
X203487338Y-115913514D01*
X203479275Y-115903006D01*
X203339665Y-115721062D01*
X203339659Y-115721056D01*
X203339655Y-115721051D01*
X203168148Y-115549544D01*
X203168142Y-115549539D01*
X203168138Y-115549535D01*
X202975689Y-115401864D01*
X202975688Y-115401863D01*
X202975685Y-115401861D01*
X202765624Y-115280582D01*
X202765616Y-115280578D01*
X202765612Y-115280576D01*
X202541500Y-115187746D01*
X202541497Y-115187745D01*
X202541495Y-115187744D01*
X202307182Y-115124960D01*
X202066690Y-115093300D01*
X202066688Y-115093300D01*
X201824112Y-115093300D01*
X201824109Y-115093300D01*
X201583617Y-115124960D01*
X201349304Y-115187744D01*
X201349300Y-115187746D01*
X201131258Y-115278062D01*
X201125186Y-115280577D01*
X201125175Y-115280582D01*
X200915114Y-115401861D01*
X200722662Y-115549535D01*
X200722651Y-115549544D01*
X200551144Y-115721051D01*
X200551135Y-115721062D01*
X200403461Y-115913514D01*
X200282182Y-116123575D01*
X200282177Y-116123586D01*
X200282176Y-116123588D01*
X200229784Y-116250073D01*
X200189346Y-116347700D01*
X200189344Y-116347704D01*
X200126560Y-116582017D01*
X200094900Y-116822509D01*
X189259900Y-116822509D01*
X189259900Y-115892252D01*
X189248267Y-115833769D01*
X189203952Y-115767448D01*
X189137631Y-115723133D01*
X189137628Y-115723132D01*
X189079150Y-115711500D01*
X189079148Y-115711500D01*
X188139652Y-115711500D01*
X188139649Y-115711500D01*
X188081171Y-115723132D01*
X188081168Y-115723133D01*
X188014848Y-115767448D01*
X187970533Y-115833768D01*
X187970532Y-115833771D01*
X187958900Y-115892249D01*
X187958900Y-116085500D01*
X187938898Y-116153621D01*
X187885242Y-116200114D01*
X187832900Y-116211500D01*
X187769700Y-116211500D01*
X187701579Y-116191498D01*
X187655086Y-116137842D01*
X187643700Y-116085500D01*
X187643700Y-113393817D01*
X187663702Y-113325696D01*
X187680605Y-113304722D01*
X188200322Y-112785005D01*
X188262634Y-112750979D01*
X188289417Y-112748100D01*
X197619451Y-112748100D01*
X197619453Y-112748100D01*
X197696735Y-112727392D01*
X197729342Y-112723100D01*
X198174962Y-112723100D01*
X198251389Y-112702621D01*
X198319911Y-112663060D01*
X198375860Y-112607111D01*
X200103060Y-110879911D01*
X200142622Y-110811388D01*
X200163100Y-110734962D01*
X200163100Y-110655838D01*
X200163100Y-104661438D01*
X200142621Y-104585011D01*
X200103060Y-104516489D01*
X200047111Y-104460540D01*
X199569311Y-103982740D01*
X199500789Y-103943179D01*
X199500788Y-103943178D01*
X199500785Y-103943177D01*
X199424365Y-103922700D01*
X199424362Y-103922700D01*
X199144699Y-103922700D01*
X199076578Y-103902698D01*
X199030085Y-103849042D01*
X199018699Y-103796700D01*
X199018699Y-102841683D01*
X199007442Y-102770599D01*
X199003846Y-102747896D01*
X198948912Y-102640082D01*
X198946250Y-102634857D01*
X198856542Y-102545149D01*
X198760276Y-102496100D01*
X198743504Y-102487554D01*
X198649719Y-102472700D01*
X198649715Y-102472700D01*
X198186683Y-102472700D01*
X198092897Y-102487553D01*
X197979857Y-102545149D01*
X197890149Y-102634857D01*
X197857244Y-102699439D01*
X197832554Y-102747896D01*
X197821533Y-102817482D01*
X197817700Y-102841684D01*
X197817700Y-105604716D01*
X197832553Y-105698502D01*
X197890149Y-105811542D01*
X197979857Y-105901250D01*
X198011605Y-105917426D01*
X198092896Y-105958846D01*
X198186681Y-105973700D01*
X198649718Y-105973699D01*
X198743504Y-105958846D01*
X198856542Y-105901250D01*
X198946250Y-105811542D01*
X199003846Y-105698504D01*
X199018700Y-105604719D01*
X199018700Y-104649700D01*
X199038702Y-104581579D01*
X199092358Y-104535086D01*
X199144700Y-104523700D01*
X199208139Y-104523700D01*
X199276260Y-104543702D01*
X199297234Y-104560605D01*
X199525195Y-104788566D01*
X199559221Y-104850878D01*
X199562100Y-104877661D01*
X199562100Y-110518739D01*
X199542098Y-110586860D01*
X199525199Y-110607829D01*
X199377538Y-110755491D01*
X199233794Y-110899235D01*
X199171482Y-110933260D01*
X199100666Y-110928195D01*
X199043831Y-110885648D01*
X199019020Y-110819128D01*
X199018699Y-110810166D01*
X199018699Y-108141682D01*
X199003846Y-108047896D01*
X198958433Y-107958768D01*
X198946250Y-107934857D01*
X198856542Y-107845149D01*
X198754351Y-107793081D01*
X198743504Y-107787554D01*
X198649719Y-107772700D01*
X198649715Y-107772700D01*
X198186683Y-107772700D01*
X198092897Y-107787553D01*
X197979857Y-107845149D01*
X197890149Y-107934857D01*
X197840029Y-108033225D01*
X197832554Y-108047896D01*
X197817700Y-108141681D01*
X197817700Y-108141684D01*
X197817700Y-110882604D01*
X197797698Y-110950725D01*
X197780796Y-110971699D01*
X197452302Y-111300195D01*
X197389990Y-111334220D01*
X197363206Y-111337100D01*
X195824883Y-111337100D01*
X195756762Y-111317098D01*
X195710269Y-111263442D01*
X195700165Y-111193168D01*
X195729659Y-111128588D01*
X195735788Y-111122005D01*
X195746248Y-111111544D01*
X195746250Y-111111542D01*
X195764140Y-111076431D01*
X195803846Y-110998504D01*
X195818700Y-110904719D01*
X195818699Y-108141682D01*
X195803846Y-108047896D01*
X195758433Y-107958768D01*
X195746250Y-107934857D01*
X195656542Y-107845149D01*
X195554351Y-107793081D01*
X195543504Y-107787554D01*
X195449719Y-107772700D01*
X195449715Y-107772700D01*
X194986683Y-107772700D01*
X194892897Y-107787553D01*
X194779857Y-107845149D01*
X194690149Y-107934857D01*
X194640029Y-108033225D01*
X194632554Y-108047896D01*
X194617700Y-108141681D01*
X194617700Y-108141684D01*
X194617700Y-110904716D01*
X194632553Y-110998502D01*
X194690149Y-111111542D01*
X194700612Y-111122005D01*
X194734638Y-111184317D01*
X194729573Y-111255132D01*
X194687026Y-111311968D01*
X194620506Y-111336779D01*
X194611517Y-111337100D01*
X193624883Y-111337100D01*
X193556762Y-111317098D01*
X193510269Y-111263442D01*
X193500165Y-111193168D01*
X193529659Y-111128588D01*
X193535788Y-111122005D01*
X193546248Y-111111544D01*
X193546250Y-111111542D01*
X193564140Y-111076431D01*
X193603846Y-110998504D01*
X193618700Y-110904719D01*
X193618699Y-108141682D01*
X193603846Y-108047896D01*
X193558433Y-107958768D01*
X193546250Y-107934857D01*
X193505605Y-107894212D01*
X193471579Y-107831900D01*
X193468700Y-107805117D01*
X193468700Y-105941282D01*
X193488702Y-105873161D01*
X193505600Y-105852191D01*
X193546250Y-105811542D01*
X193603846Y-105698504D01*
X193618700Y-105604719D01*
X193618699Y-102841684D01*
X194617700Y-102841684D01*
X194617700Y-105604716D01*
X194632553Y-105698502D01*
X194690149Y-105811542D01*
X194779857Y-105901250D01*
X194811605Y-105917426D01*
X194892896Y-105958846D01*
X194986681Y-105973700D01*
X195449718Y-105973699D01*
X195543504Y-105958846D01*
X195656542Y-105901250D01*
X195746250Y-105811542D01*
X195803846Y-105698504D01*
X195818700Y-105604719D01*
X195818699Y-102841682D01*
X195803846Y-102747896D01*
X195748912Y-102640082D01*
X195746250Y-102634857D01*
X195656542Y-102545149D01*
X195560276Y-102496100D01*
X195543504Y-102487554D01*
X195449719Y-102472700D01*
X195449715Y-102472700D01*
X194986683Y-102472700D01*
X194892897Y-102487553D01*
X194779857Y-102545149D01*
X194690149Y-102634857D01*
X194657244Y-102699439D01*
X194632554Y-102747896D01*
X194621533Y-102817482D01*
X194617700Y-102841684D01*
X193618699Y-102841684D01*
X193618699Y-102841682D01*
X193603846Y-102747896D01*
X193548912Y-102640082D01*
X193546250Y-102634857D01*
X193505605Y-102594212D01*
X193471579Y-102531900D01*
X193468700Y-102505117D01*
X193468700Y-100388892D01*
X193466724Y-100381518D01*
X193437999Y-100274314D01*
X193430334Y-100261038D01*
X193378690Y-100171587D01*
X193378687Y-100171584D01*
X193378684Y-100171580D01*
X189494820Y-96287716D01*
X189494810Y-96287708D01*
X189392087Y-96228401D01*
X189392081Y-96228399D01*
X189367683Y-96221862D01*
X189367682Y-96221861D01*
X189367682Y-96221862D01*
X189277509Y-96197700D01*
X189277507Y-96197700D01*
X183144700Y-96197700D01*
X183076579Y-96177698D01*
X183030086Y-96124042D01*
X183018700Y-96071700D01*
X183018700Y-95428453D01*
X183018699Y-95428449D01*
X183017761Y-95423735D01*
X183007067Y-95369969D01*
X182962752Y-95303648D01*
X182896431Y-95259333D01*
X182896428Y-95259332D01*
X182837950Y-95247700D01*
X182837948Y-95247700D01*
X180398452Y-95247700D01*
X180398449Y-95247700D01*
X180339971Y-95259332D01*
X180339968Y-95259333D01*
X180273648Y-95303648D01*
X180229333Y-95369968D01*
X180229332Y-95369971D01*
X180217700Y-95428449D01*
X176943700Y-95428449D01*
X176943700Y-91492996D01*
X198781059Y-91492996D01*
X198781059Y-91493003D01*
X198800374Y-91689124D01*
X198800374Y-91689126D01*
X198857586Y-91877728D01*
X198919503Y-91993565D01*
X198950490Y-92051538D01*
X199075517Y-92203883D01*
X199227862Y-92328910D01*
X199401673Y-92421814D01*
X199590268Y-92479024D01*
X199590272Y-92479024D01*
X199590274Y-92479025D01*
X199786397Y-92498341D01*
X199786400Y-92498341D01*
X199786403Y-92498341D01*
X199982524Y-92479025D01*
X199982526Y-92479025D01*
X199982527Y-92479024D01*
X199982532Y-92479024D01*
X200171127Y-92421814D01*
X200344938Y-92328910D01*
X200497283Y-92203883D01*
X200622310Y-92051538D01*
X200715214Y-91877727D01*
X200772424Y-91689132D01*
X200776538Y-91647359D01*
X200791741Y-91493003D01*
X200791741Y-91492996D01*
X200772425Y-91296875D01*
X200772425Y-91296873D01*
X200772424Y-91296870D01*
X200772424Y-91296868D01*
X200715214Y-91108273D01*
X200622310Y-90934462D01*
X200497283Y-90782117D01*
X200344938Y-90657090D01*
X200328564Y-90648338D01*
X200171128Y-90564186D01*
X199982525Y-90506974D01*
X199786403Y-90487659D01*
X199786397Y-90487659D01*
X199590275Y-90506974D01*
X199590273Y-90506974D01*
X199401671Y-90564186D01*
X199227861Y-90657090D01*
X199075517Y-90782117D01*
X198950490Y-90934461D01*
X198857586Y-91108271D01*
X198800374Y-91296873D01*
X198800374Y-91296875D01*
X198781059Y-91492996D01*
X176943700Y-91492996D01*
X176943700Y-91365349D01*
X176943700Y-91365347D01*
X176940036Y-91351672D01*
X176921518Y-91282561D01*
X176878665Y-91208338D01*
X176738062Y-91067735D01*
X175947062Y-90276735D01*
X175947060Y-90276734D01*
X175947058Y-90276732D01*
X175872843Y-90233884D01*
X175872841Y-90233883D01*
X175872839Y-90233882D01*
X175790053Y-90211700D01*
X172802053Y-90211700D01*
X142433347Y-90211700D01*
X142382679Y-90225276D01*
X142350557Y-90233883D01*
X142276341Y-90276732D01*
X142276331Y-90276740D01*
X141885540Y-90667531D01*
X141885532Y-90667541D01*
X141842681Y-90741761D01*
X141842681Y-90741765D01*
X141820500Y-90824546D01*
X141820500Y-91985358D01*
X141821578Y-91993546D01*
X141821431Y-91993565D01*
X141824500Y-92016876D01*
X141824500Y-92295100D01*
X141804498Y-92363221D01*
X141750842Y-92409714D01*
X141698501Y-92421100D01*
X141547870Y-92421100D01*
X141547860Y-92421101D01*
X141467505Y-92437085D01*
X141456037Y-92441835D01*
X141455287Y-92440024D01*
X141402243Y-92456631D01*
X141344404Y-92440761D01*
X141343960Y-92441834D01*
X141335414Y-92438294D01*
X141333777Y-92437845D01*
X141332775Y-92437201D01*
X141332495Y-92437085D01*
X141252134Y-92421100D01*
X141047870Y-92421100D01*
X141047860Y-92421101D01*
X140967505Y-92437085D01*
X140956037Y-92441835D01*
X140955287Y-92440024D01*
X140902243Y-92456631D01*
X140844404Y-92440761D01*
X140843960Y-92441834D01*
X140835414Y-92438294D01*
X140833777Y-92437845D01*
X140832775Y-92437201D01*
X140832495Y-92437085D01*
X140752134Y-92421100D01*
X140547870Y-92421100D01*
X140547860Y-92421101D01*
X140467505Y-92437085D01*
X140456037Y-92441835D01*
X140455287Y-92440024D01*
X140402243Y-92456631D01*
X140344404Y-92440761D01*
X140343960Y-92441834D01*
X140335414Y-92438294D01*
X140333777Y-92437845D01*
X140332775Y-92437201D01*
X140332495Y-92437085D01*
X140252134Y-92421100D01*
X140047870Y-92421100D01*
X140047860Y-92421101D01*
X139967505Y-92437085D01*
X139956037Y-92441835D01*
X139955287Y-92440024D01*
X139902243Y-92456631D01*
X139844404Y-92440761D01*
X139843960Y-92441834D01*
X139835414Y-92438294D01*
X139833777Y-92437845D01*
X139832775Y-92437201D01*
X139832495Y-92437085D01*
X139752135Y-92421100D01*
X139577691Y-92421100D01*
X139509570Y-92401098D01*
X139463077Y-92347442D01*
X139455985Y-92327713D01*
X139453319Y-92317766D01*
X139453318Y-92317761D01*
X139429034Y-92275701D01*
X139410465Y-92243538D01*
X139349862Y-92182935D01*
X139349860Y-92182933D01*
X139132762Y-91965835D01*
X139132760Y-91965834D01*
X139132758Y-91965832D01*
X139058536Y-91922980D01*
X138975756Y-91900799D01*
X138975753Y-91900799D01*
X138890048Y-91900799D01*
X138879386Y-91903656D01*
X138858669Y-91909207D01*
X138826058Y-91913500D01*
X138397728Y-91913500D01*
X138329607Y-91893498D01*
X138283114Y-91839842D01*
X138273010Y-91769568D01*
X138302504Y-91704988D01*
X138349507Y-91671092D01*
X138410241Y-91645936D01*
X138535682Y-91549682D01*
X138631936Y-91424241D01*
X138692444Y-91278162D01*
X138713082Y-91121400D01*
X138707341Y-91077796D01*
X138692444Y-90964639D01*
X138683282Y-90942518D01*
X138631936Y-90818559D01*
X138535682Y-90693118D01*
X138410241Y-90596864D01*
X138388205Y-90587736D01*
X138264160Y-90536355D01*
X138107400Y-90515718D01*
X137950639Y-90536355D01*
X137804560Y-90596863D01*
X137804557Y-90596865D01*
X137679118Y-90693118D01*
X137582865Y-90818557D01*
X137582863Y-90818560D01*
X137522355Y-90964639D01*
X137501718Y-91121399D01*
X137501718Y-91121400D01*
X137522355Y-91278160D01*
X137575370Y-91406148D01*
X137582864Y-91424241D01*
X137679118Y-91549682D01*
X137804559Y-91645936D01*
X137865291Y-91671092D01*
X137920571Y-91715639D01*
X137942992Y-91783003D01*
X137925434Y-91851794D01*
X137873472Y-91900172D01*
X137817072Y-91913500D01*
X137734347Y-91913500D01*
X137689985Y-91925386D01*
X137651564Y-91935681D01*
X137651559Y-91935683D01*
X137601996Y-91964299D01*
X137577340Y-91978533D01*
X137441580Y-92114291D01*
X137379267Y-92148316D01*
X137336039Y-92150117D01*
X137269202Y-92141318D01*
X137269200Y-92141318D01*
X137112439Y-92161955D01*
X136966360Y-92222463D01*
X136966357Y-92222465D01*
X136840918Y-92318718D01*
X136744665Y-92444157D01*
X136744663Y-92444160D01*
X136684155Y-92590239D01*
X136663518Y-92746999D01*
X136663518Y-92747000D01*
X136684155Y-92903760D01*
X136722960Y-92997442D01*
X136744664Y-93049841D01*
X136840918Y-93175282D01*
X136966359Y-93271536D01*
X137112438Y-93332044D01*
X137229451Y-93347449D01*
X137294377Y-93376170D01*
X137333469Y-93435435D01*
X137334713Y-93504974D01*
X137330283Y-93521511D01*
X137330281Y-93521516D01*
X137324700Y-93542344D01*
X137324700Y-93565500D01*
X137304698Y-93633621D01*
X137251042Y-93680114D01*
X137198700Y-93691500D01*
X129324017Y-93691500D01*
X129255896Y-93671498D01*
X129234921Y-93654595D01*
X128869846Y-93289519D01*
X128835821Y-93227207D01*
X128840886Y-93156391D01*
X128883433Y-93099556D01*
X128899538Y-93089307D01*
X128924650Y-93075885D01*
X129084610Y-92944610D01*
X129215885Y-92784650D01*
X129313432Y-92602154D01*
X129373500Y-92404134D01*
X129373854Y-92400547D01*
X129393783Y-92198203D01*
X129393783Y-92198196D01*
X129373501Y-91992272D01*
X129373500Y-91992270D01*
X129373500Y-91992266D01*
X129313432Y-91794246D01*
X129215885Y-91611750D01*
X129084610Y-91451790D01*
X129017968Y-91397098D01*
X128978000Y-91338423D01*
X128976099Y-91267452D01*
X129012869Y-91206719D01*
X129076637Y-91175507D01*
X129097902Y-91173700D01*
X129931183Y-91173700D01*
X129999304Y-91193702D01*
X130020278Y-91210605D01*
X130109489Y-91299816D01*
X130143515Y-91362128D01*
X130138450Y-91432943D01*
X130117794Y-91468844D01*
X130000513Y-91611752D01*
X129902968Y-91794245D01*
X129842898Y-91992272D01*
X129822617Y-92198196D01*
X129822617Y-92198203D01*
X129842898Y-92404127D01*
X129842899Y-92404133D01*
X129842900Y-92404134D01*
X129878824Y-92522561D01*
X129902968Y-92602154D01*
X129983699Y-92753191D01*
X130000515Y-92784650D01*
X130131790Y-92944610D01*
X130291750Y-93075885D01*
X130474246Y-93173432D01*
X130672266Y-93233500D01*
X130672270Y-93233500D01*
X130672272Y-93233501D01*
X130878197Y-93253783D01*
X130878200Y-93253783D01*
X130878203Y-93253783D01*
X131084127Y-93233501D01*
X131084128Y-93233500D01*
X131084134Y-93233500D01*
X131282154Y-93173432D01*
X131464650Y-93075885D01*
X131624610Y-92944610D01*
X131755885Y-92784650D01*
X131853432Y-92602154D01*
X131913500Y-92404134D01*
X131913854Y-92400547D01*
X131933783Y-92198203D01*
X131933783Y-92198196D01*
X131913501Y-91992272D01*
X131913500Y-91992270D01*
X131913500Y-91992266D01*
X131853432Y-91794246D01*
X131755885Y-91611750D01*
X131624610Y-91451790D01*
X131464650Y-91320515D01*
X131464648Y-91320514D01*
X131464647Y-91320513D01*
X131282154Y-91222968D01*
X131233925Y-91208338D01*
X131084134Y-91162900D01*
X131084133Y-91162899D01*
X131084127Y-91162898D01*
X130917235Y-91146461D01*
X130851403Y-91119878D01*
X130840498Y-91110171D01*
X130318062Y-90587735D01*
X130318060Y-90587734D01*
X130318058Y-90587732D01*
X130243843Y-90544884D01*
X130243841Y-90544883D01*
X130243839Y-90544882D01*
X130161053Y-90522700D01*
X127811053Y-90522700D01*
X127725347Y-90522700D01*
X127642561Y-90544882D01*
X127642559Y-90544882D01*
X127642558Y-90544883D01*
X127609305Y-90564081D01*
X127609306Y-90564082D01*
X127568339Y-90587734D01*
X127568336Y-90587736D01*
X127538036Y-90618037D01*
X127507735Y-90648338D01*
X127507733Y-90648340D01*
X127337516Y-90818557D01*
X126857737Y-91298335D01*
X126857732Y-91298341D01*
X126814881Y-91372561D01*
X126814881Y-91372565D01*
X126814880Y-91372564D01*
X126795842Y-91443616D01*
X126758891Y-91504238D01*
X126695030Y-91535260D01*
X126624535Y-91526831D01*
X126576736Y-91490936D01*
X126544612Y-91451791D01*
X126439278Y-91365347D01*
X126384650Y-91320515D01*
X126384648Y-91320514D01*
X126384647Y-91320513D01*
X126202154Y-91222968D01*
X126153925Y-91208338D01*
X126004134Y-91162900D01*
X126004133Y-91162899D01*
X126004127Y-91162898D01*
X125798203Y-91142617D01*
X125798197Y-91142617D01*
X125592272Y-91162898D01*
X125394245Y-91222968D01*
X125211752Y-91320513D01*
X125051790Y-91451790D01*
X124920513Y-91611752D01*
X124822968Y-91794245D01*
X124762898Y-91992272D01*
X124742617Y-92198196D01*
X124742617Y-92198203D01*
X124762898Y-92404127D01*
X124762899Y-92404133D01*
X124762900Y-92404134D01*
X124798824Y-92522561D01*
X124822968Y-92602154D01*
X124903699Y-92753191D01*
X124920515Y-92784650D01*
X125051790Y-92944610D01*
X125211750Y-93075885D01*
X125394246Y-93173432D01*
X125592266Y-93233500D01*
X125592270Y-93233500D01*
X125592272Y-93233501D01*
X125798197Y-93253783D01*
X125798200Y-93253783D01*
X125798203Y-93253783D01*
X126004127Y-93233501D01*
X126004128Y-93233500D01*
X126004134Y-93233500D01*
X126202154Y-93173432D01*
X126384650Y-93075885D01*
X126544610Y-92944610D01*
X126569301Y-92914523D01*
X126627976Y-92874555D01*
X126698947Y-92872653D01*
X126759680Y-92909423D01*
X126790892Y-92973191D01*
X126792700Y-92994457D01*
X126792700Y-93305347D01*
X126792700Y-93391053D01*
X126814882Y-93473839D01*
X126814883Y-93473841D01*
X126814884Y-93473843D01*
X126857732Y-93548058D01*
X126857740Y-93548068D01*
X126983948Y-93674276D01*
X127017974Y-93736588D01*
X127012909Y-93807403D01*
X126970362Y-93864239D01*
X126903842Y-93889050D01*
X126878407Y-93888293D01*
X126728200Y-93868518D01*
X126571439Y-93889155D01*
X126425360Y-93949663D01*
X126425352Y-93949668D01*
X126332311Y-94021062D01*
X126266091Y-94046663D01*
X126255607Y-94047100D01*
X120875947Y-94047100D01*
X120793162Y-94069282D01*
X120793161Y-94069282D01*
X120793159Y-94069283D01*
X120763677Y-94086305D01*
X120730695Y-94105347D01*
X120730692Y-94105349D01*
X120718936Y-94112135D01*
X120082740Y-94748331D01*
X120082732Y-94748341D01*
X120039882Y-94822560D01*
X120039880Y-94822565D01*
X120035976Y-94837138D01*
X120017700Y-94905346D01*
X120017700Y-95233214D01*
X119997698Y-95301335D01*
X119968404Y-95333176D01*
X119914920Y-95374215D01*
X119818665Y-95499657D01*
X119818663Y-95499660D01*
X119758155Y-95645739D01*
X119737518Y-95802499D01*
X119737518Y-95802500D01*
X119758155Y-95959260D01*
X119817930Y-96103568D01*
X119818664Y-96105341D01*
X119914426Y-96230141D01*
X119914923Y-96230788D01*
X119919740Y-96235605D01*
X119953766Y-96297917D01*
X119948701Y-96368732D01*
X119906154Y-96425568D01*
X119839634Y-96450379D01*
X119830645Y-96450700D01*
X118388617Y-96450700D01*
X118320496Y-96430698D01*
X118299522Y-96413795D01*
X115773468Y-93887740D01*
X115773458Y-93887732D01*
X115699243Y-93844884D01*
X115699241Y-93844883D01*
X115699239Y-93844882D01*
X115616453Y-93822700D01*
X115616451Y-93822700D01*
X113811553Y-93822700D01*
X113743432Y-93802698D01*
X113696939Y-93749042D01*
X113687974Y-93721282D01*
X113679106Y-93676702D01*
X113677767Y-93669969D01*
X113633452Y-93603648D01*
X113567131Y-93559333D01*
X113567128Y-93559332D01*
X113508650Y-93547700D01*
X113508648Y-93547700D01*
X111969152Y-93547700D01*
X111969149Y-93547700D01*
X111910671Y-93559332D01*
X111910668Y-93559333D01*
X111844348Y-93603648D01*
X111800033Y-93669968D01*
X111800032Y-93669971D01*
X111788400Y-93728449D01*
X111788400Y-94567950D01*
X111800032Y-94626428D01*
X111800035Y-94626435D01*
X111801217Y-94628204D01*
X111802606Y-94632641D01*
X111804782Y-94637894D01*
X111804311Y-94638088D01*
X111822428Y-94695958D01*
X111803641Y-94764424D01*
X111801217Y-94768196D01*
X111800035Y-94769964D01*
X111800032Y-94769971D01*
X111788400Y-94828449D01*
X111788400Y-95667950D01*
X111800032Y-95726428D01*
X111800035Y-95726435D01*
X111801217Y-95728204D01*
X111802606Y-95732641D01*
X111804782Y-95737894D01*
X111804311Y-95738088D01*
X111822428Y-95795958D01*
X111803641Y-95864424D01*
X111801217Y-95868196D01*
X111800035Y-95869964D01*
X111800032Y-95869971D01*
X111788400Y-95928449D01*
X111788400Y-96767950D01*
X111800032Y-96826428D01*
X111800035Y-96826435D01*
X111801217Y-96828204D01*
X111802606Y-96832641D01*
X111804782Y-96837894D01*
X111804311Y-96838088D01*
X111822428Y-96895958D01*
X111803641Y-96964424D01*
X111801217Y-96968196D01*
X111800035Y-96969964D01*
X111800032Y-96969971D01*
X111788400Y-97028449D01*
X111788400Y-97867950D01*
X111800032Y-97926428D01*
X111800035Y-97926435D01*
X111801217Y-97928204D01*
X111802606Y-97932641D01*
X111804782Y-97937894D01*
X111804311Y-97938088D01*
X111822428Y-97995958D01*
X111803641Y-98064424D01*
X111801217Y-98068196D01*
X111800035Y-98069964D01*
X111800032Y-98069971D01*
X111788400Y-98128449D01*
X111788400Y-98967950D01*
X111795846Y-99005386D01*
X111800033Y-99026431D01*
X111844348Y-99092752D01*
X111910669Y-99137067D01*
X111969152Y-99148700D01*
X111969153Y-99148700D01*
X113508647Y-99148700D01*
X113508648Y-99148700D01*
X113567131Y-99137067D01*
X113633452Y-99092752D01*
X113677767Y-99026431D01*
X113689400Y-98967948D01*
X113689400Y-98878500D01*
X113709402Y-98810379D01*
X113763058Y-98763886D01*
X113815400Y-98752500D01*
X115872547Y-98752500D01*
X116502183Y-98752500D01*
X116570304Y-98772502D01*
X116616797Y-98826158D01*
X116626901Y-98896432D01*
X116597407Y-98961012D01*
X116591278Y-98967595D01*
X115173078Y-100385795D01*
X115110766Y-100419821D01*
X115083983Y-100422700D01*
X113811553Y-100422700D01*
X113743432Y-100402698D01*
X113696939Y-100349042D01*
X113687974Y-100321282D01*
X113677767Y-100269971D01*
X113677767Y-100269969D01*
X113633452Y-100203648D01*
X113567131Y-100159333D01*
X113567128Y-100159332D01*
X113508650Y-100147700D01*
X113508648Y-100147700D01*
X111969152Y-100147700D01*
X111969149Y-100147700D01*
X111910671Y-100159332D01*
X111910668Y-100159333D01*
X111844348Y-100203648D01*
X111800033Y-100269968D01*
X111800032Y-100269971D01*
X111788400Y-100328449D01*
X111788400Y-101167950D01*
X111800032Y-101226428D01*
X111800035Y-101226435D01*
X111801217Y-101228204D01*
X111802606Y-101232641D01*
X111804782Y-101237894D01*
X111804311Y-101238088D01*
X111822428Y-101295958D01*
X111803641Y-101364424D01*
X111801217Y-101368196D01*
X111800035Y-101369964D01*
X111800032Y-101369971D01*
X111788400Y-101428449D01*
X111788400Y-102267950D01*
X111797547Y-102313936D01*
X111800033Y-102326431D01*
X111844348Y-102392752D01*
X111910669Y-102437067D01*
X111969152Y-102448700D01*
X111969153Y-102448700D01*
X113508647Y-102448700D01*
X113508648Y-102448700D01*
X113567131Y-102437067D01*
X113633452Y-102392752D01*
X113677767Y-102326431D01*
X113687974Y-102275118D01*
X113720882Y-102212209D01*
X113782577Y-102177077D01*
X113811553Y-102173700D01*
X116461051Y-102173700D01*
X116461053Y-102173700D01*
X116543839Y-102151518D01*
X116618062Y-102108665D01*
X117739642Y-100987085D01*
X117799065Y-100927662D01*
X117799065Y-100927661D01*
X118790789Y-99935935D01*
X118790794Y-99935932D01*
X118801160Y-99925565D01*
X118801162Y-99925565D01*
X119137323Y-99589403D01*
X119199634Y-99555380D01*
X119226417Y-99552500D01*
X124730447Y-99552500D01*
X124730448Y-99552500D01*
X124788931Y-99540867D01*
X124855252Y-99496552D01*
X124899567Y-99430231D01*
X124911200Y-99371748D01*
X124911200Y-99082252D01*
X124905099Y-99051580D01*
X124905099Y-99002416D01*
X124905627Y-98999762D01*
X124911200Y-98971748D01*
X124911200Y-98682252D01*
X124905099Y-98651580D01*
X124905099Y-98602416D01*
X124911200Y-98571748D01*
X124911200Y-98282252D01*
X124905099Y-98251580D01*
X124905099Y-98202416D01*
X124911200Y-98171748D01*
X124911200Y-97882252D01*
X124905099Y-97851580D01*
X124905099Y-97802416D01*
X124909566Y-97779962D01*
X124911200Y-97771748D01*
X124911200Y-97482252D01*
X124905099Y-97451580D01*
X124905099Y-97402416D01*
X124911200Y-97371748D01*
X124911200Y-97082252D01*
X124905099Y-97051580D01*
X124905099Y-97002416D01*
X124905110Y-97002363D01*
X124911200Y-96971748D01*
X124911200Y-96682252D01*
X124905099Y-96651580D01*
X124905099Y-96602416D01*
X124911200Y-96571748D01*
X124911200Y-96282252D01*
X124899567Y-96223769D01*
X124855252Y-96157448D01*
X124788931Y-96113133D01*
X124788928Y-96113132D01*
X124730450Y-96101500D01*
X124730448Y-96101500D01*
X124553553Y-96101500D01*
X121975147Y-96101500D01*
X121892362Y-96123682D01*
X121892361Y-96123682D01*
X121892359Y-96123683D01*
X121875649Y-96133331D01*
X121836186Y-96156115D01*
X121827162Y-96161325D01*
X121818139Y-96166534D01*
X121818135Y-96166537D01*
X121756274Y-96228399D01*
X121570876Y-96413796D01*
X121508566Y-96447820D01*
X121481783Y-96450700D01*
X120855755Y-96450700D01*
X120787634Y-96430698D01*
X120741141Y-96377042D01*
X120731037Y-96306768D01*
X120760531Y-96242188D01*
X120766660Y-96235605D01*
X120771476Y-96230788D01*
X120771478Y-96230784D01*
X120771482Y-96230782D01*
X120867736Y-96105341D01*
X120928244Y-95959262D01*
X120948882Y-95802500D01*
X120947636Y-95793039D01*
X120931168Y-95667948D01*
X120928244Y-95645738D01*
X120867736Y-95499659D01*
X120771482Y-95374218D01*
X120771480Y-95374216D01*
X120771479Y-95374215D01*
X120717996Y-95333176D01*
X120676129Y-95275838D01*
X120668700Y-95233214D01*
X120668700Y-95135217D01*
X120688702Y-95067096D01*
X120705605Y-95046122D01*
X121016722Y-94735005D01*
X121079034Y-94700979D01*
X121105817Y-94698100D01*
X126086775Y-94698100D01*
X126154896Y-94718102D01*
X126201389Y-94771758D01*
X126203186Y-94775888D01*
X126203662Y-94777038D01*
X126203663Y-94777039D01*
X126203664Y-94777041D01*
X126299918Y-94902482D01*
X126425359Y-94998736D01*
X126571438Y-95059244D01*
X126728200Y-95079882D01*
X126884962Y-95059244D01*
X127031041Y-94998736D01*
X127156482Y-94902482D01*
X127252736Y-94777041D01*
X127313244Y-94630962D01*
X127333882Y-94474200D01*
X127314106Y-94323989D01*
X127325045Y-94253843D01*
X127372173Y-94200744D01*
X127440527Y-94181554D01*
X127508405Y-94202365D01*
X127528120Y-94218446D01*
X128106334Y-94796660D01*
X128106355Y-94796683D01*
X128171331Y-94861659D01*
X128171336Y-94861663D01*
X128171338Y-94861665D01*
X128171339Y-94861666D01*
X128171341Y-94861667D01*
X128234363Y-94898053D01*
X128245558Y-94904516D01*
X128245560Y-94904516D01*
X128245562Y-94904518D01*
X128245563Y-94904518D01*
X128245565Y-94904519D01*
X128328343Y-94926700D01*
X128328347Y-94926701D01*
X128421771Y-94926701D01*
X128421787Y-94926700D01*
X131104165Y-94926700D01*
X131172286Y-94946702D01*
X131218779Y-95000358D01*
X131228883Y-95070632D01*
X131199389Y-95135212D01*
X131180870Y-95152661D01*
X131141507Y-95182866D01*
X131100515Y-95214320D01*
X131059476Y-95267804D01*
X131002138Y-95309671D01*
X130959514Y-95317100D01*
X127716653Y-95317100D01*
X127630947Y-95317100D01*
X127548161Y-95339282D01*
X127548159Y-95339283D01*
X127548156Y-95339284D01*
X127473941Y-95382132D01*
X127473935Y-95382137D01*
X127298229Y-95557844D01*
X126791476Y-96064596D01*
X126729166Y-96098620D01*
X126702383Y-96101500D01*
X125440949Y-96101500D01*
X125382471Y-96113132D01*
X125382468Y-96113133D01*
X125316148Y-96157448D01*
X125271833Y-96223768D01*
X125271832Y-96223771D01*
X125260200Y-96282249D01*
X125260200Y-96571755D01*
X125266300Y-96602420D01*
X125266300Y-96651580D01*
X125260200Y-96682244D01*
X125260200Y-96971755D01*
X125266300Y-97002420D01*
X125266300Y-97051580D01*
X125260200Y-97082244D01*
X125260200Y-97371755D01*
X125266300Y-97402420D01*
X125266300Y-97451580D01*
X125260200Y-97482244D01*
X125260200Y-97771755D01*
X125266300Y-97802420D01*
X125266300Y-97851580D01*
X125260200Y-97882244D01*
X125260200Y-98171755D01*
X125266300Y-98202420D01*
X125266300Y-98251580D01*
X125260200Y-98282244D01*
X125260200Y-98571755D01*
X125266300Y-98602420D01*
X125266300Y-98651580D01*
X125260200Y-98682244D01*
X125260200Y-98971755D01*
X125266300Y-99002420D01*
X125266300Y-99051580D01*
X125260200Y-99082244D01*
X125260200Y-99371750D01*
X125270541Y-99423739D01*
X125271833Y-99430231D01*
X125316148Y-99496552D01*
X125382469Y-99540867D01*
X125440952Y-99552500D01*
X125617847Y-99552500D01*
X126767107Y-99552500D01*
X126835228Y-99572502D01*
X126881721Y-99626158D01*
X126892029Y-99662053D01*
X126905155Y-99761760D01*
X126963798Y-99903335D01*
X126965664Y-99907841D01*
X127061918Y-100033282D01*
X127187359Y-100129536D01*
X127333438Y-100190044D01*
X127490200Y-100210682D01*
X127646962Y-100190044D01*
X127793041Y-100129536D01*
X127918482Y-100033282D01*
X128014736Y-99907841D01*
X128062712Y-99792016D01*
X128107258Y-99736737D01*
X128174621Y-99714316D01*
X128243412Y-99731874D01*
X128268210Y-99751137D01*
X128521165Y-100004092D01*
X128763307Y-100246234D01*
X128797332Y-100308546D01*
X128792267Y-100379362D01*
X128750915Y-100435291D01*
X128704855Y-100470635D01*
X128636718Y-100522918D01*
X128540465Y-100648357D01*
X128540463Y-100648360D01*
X128479955Y-100794439D01*
X128459318Y-100951199D01*
X128459318Y-100951201D01*
X128468117Y-101018040D01*
X128457177Y-101088188D01*
X128432291Y-101123580D01*
X128297737Y-101258135D01*
X128297732Y-101258141D01*
X128254883Y-101332358D01*
X128254880Y-101332365D01*
X128251506Y-101344960D01*
X128251506Y-101344962D01*
X128232700Y-101415147D01*
X128232700Y-115255347D01*
X128232700Y-115341053D01*
X128254882Y-115423839D01*
X128254883Y-115423841D01*
X128254884Y-115423843D01*
X128297732Y-115498058D01*
X128297734Y-115498060D01*
X128297735Y-115498062D01*
X129191365Y-116391692D01*
X129211386Y-116417784D01*
X129257732Y-116498058D01*
X129257740Y-116498068D01*
X129318331Y-116558659D01*
X129318336Y-116558663D01*
X129318338Y-116558665D01*
X129318339Y-116558666D01*
X129318341Y-116558667D01*
X129392557Y-116601516D01*
X129392559Y-116601516D01*
X129392562Y-116601518D01*
X129475347Y-116623700D01*
X129561053Y-116623700D01*
X131481183Y-116623700D01*
X131549304Y-116643702D01*
X131570278Y-116660605D01*
X133818331Y-118908659D01*
X133818336Y-118908663D01*
X133818338Y-118908665D01*
X133818339Y-118908666D01*
X133818341Y-118908667D01*
X133870510Y-118938786D01*
X133892561Y-118951518D01*
X133975347Y-118973700D01*
X133975349Y-118973700D01*
X141591051Y-118973700D01*
X141591053Y-118973700D01*
X141673839Y-118951518D01*
X141748062Y-118908665D01*
X142768665Y-117888062D01*
X142811518Y-117813839D01*
X142833700Y-117731053D01*
X142833700Y-117645347D01*
X142833700Y-116597485D01*
X142853702Y-116529364D01*
X142882997Y-116497522D01*
X142897231Y-116486600D01*
X142936482Y-116456482D01*
X143032736Y-116331041D01*
X143093244Y-116184962D01*
X143113882Y-116028200D01*
X143113576Y-116025879D01*
X143095413Y-115887916D01*
X143093244Y-115871438D01*
X143032736Y-115725359D01*
X142936482Y-115599918D01*
X142811041Y-115503664D01*
X142797522Y-115498064D01*
X142664960Y-115443155D01*
X142508200Y-115422518D01*
X142351439Y-115443155D01*
X142205360Y-115503663D01*
X142205357Y-115503665D01*
X142079918Y-115599918D01*
X141983665Y-115725357D01*
X141983663Y-115725360D01*
X141923155Y-115871439D01*
X141902518Y-116028199D01*
X141902518Y-116028200D01*
X141923155Y-116184960D01*
X141972829Y-116304882D01*
X141983664Y-116331041D01*
X142076339Y-116451817D01*
X142079919Y-116456483D01*
X142083542Y-116459263D01*
X142119167Y-116486599D01*
X142133403Y-116497522D01*
X142175271Y-116554859D01*
X142182700Y-116597485D01*
X142182700Y-117501183D01*
X142162698Y-117569304D01*
X142145795Y-117590278D01*
X141450278Y-118285795D01*
X141387966Y-118319821D01*
X141361183Y-118322700D01*
X140880724Y-118322700D01*
X140812603Y-118302698D01*
X140766110Y-118249042D01*
X140756006Y-118178768D01*
X140785500Y-118114188D01*
X140804017Y-118096739D01*
X140856482Y-118056482D01*
X140952736Y-117931041D01*
X141013244Y-117784962D01*
X141033882Y-117628200D01*
X141013244Y-117471438D01*
X140952736Y-117325359D01*
X140856482Y-117199918D01*
X140856480Y-117199916D01*
X140856479Y-117199915D01*
X140802996Y-117158876D01*
X140761129Y-117101538D01*
X140753700Y-117058914D01*
X140753700Y-115146748D01*
X140752874Y-115143664D01*
X140731518Y-115063962D01*
X140731516Y-115063959D01*
X140731516Y-115063957D01*
X140688667Y-114989741D01*
X140688663Y-114989736D01*
X140679205Y-114980278D01*
X140628062Y-114929135D01*
X139488645Y-113789718D01*
X139454619Y-113727406D01*
X139459684Y-113656591D01*
X139501038Y-113600659D01*
X139506482Y-113596482D01*
X139602736Y-113471041D01*
X139663244Y-113324962D01*
X139683882Y-113168200D01*
X139663244Y-113011438D01*
X139650118Y-112979751D01*
X139642529Y-112909162D01*
X139674308Y-112845675D01*
X139735365Y-112809447D01*
X139782971Y-112806611D01*
X139838200Y-112813882D01*
X139994962Y-112793244D01*
X140141041Y-112732736D01*
X140266482Y-112636482D01*
X140362736Y-112511041D01*
X140410292Y-112396230D01*
X140454839Y-112340951D01*
X140522203Y-112318530D01*
X140590994Y-112336088D01*
X140639372Y-112388050D01*
X140652700Y-112444450D01*
X140652700Y-112648914D01*
X140632698Y-112717035D01*
X140603404Y-112748876D01*
X140549920Y-112789915D01*
X140453665Y-112915357D01*
X140453663Y-112915360D01*
X140393155Y-113061439D01*
X140372518Y-113218199D01*
X140372518Y-113218200D01*
X140393155Y-113374960D01*
X140441110Y-113490732D01*
X140453664Y-113521041D01*
X140549918Y-113646482D01*
X140675359Y-113742736D01*
X140821438Y-113803244D01*
X140978200Y-113823882D01*
X141134962Y-113803244D01*
X141281041Y-113742736D01*
X141406482Y-113646482D01*
X141502736Y-113521041D01*
X141563244Y-113374962D01*
X141583882Y-113218200D01*
X141583506Y-113215347D01*
X141568053Y-113097965D01*
X141563244Y-113061438D01*
X141502736Y-112915359D01*
X141406482Y-112789918D01*
X141406480Y-112789916D01*
X141406479Y-112789915D01*
X141352996Y-112748876D01*
X141311129Y-112691538D01*
X141303700Y-112648914D01*
X141303700Y-112498217D01*
X141323702Y-112430096D01*
X141377358Y-112383603D01*
X141447632Y-112373499D01*
X141512212Y-112402993D01*
X141518781Y-112409108D01*
X141589538Y-112479865D01*
X141589539Y-112479866D01*
X141589541Y-112479867D01*
X141610430Y-112491927D01*
X141663761Y-112522718D01*
X141746547Y-112544900D01*
X141762314Y-112544900D01*
X141830435Y-112564902D01*
X141862276Y-112594196D01*
X141903315Y-112647679D01*
X141903316Y-112647680D01*
X141903318Y-112647682D01*
X142028759Y-112743936D01*
X142174838Y-112804444D01*
X142331600Y-112825082D01*
X142488362Y-112804444D01*
X142634441Y-112743936D01*
X142759882Y-112647682D01*
X142856136Y-112522241D01*
X142916644Y-112376162D01*
X142937282Y-112219400D01*
X142935807Y-112208200D01*
X142916644Y-112062639D01*
X142915992Y-112061063D01*
X142856136Y-111916559D01*
X142759882Y-111791118D01*
X142634441Y-111694864D01*
X142578358Y-111671633D01*
X142523080Y-111627086D01*
X142500659Y-111559722D01*
X142518218Y-111490931D01*
X142549874Y-111455265D01*
X142626482Y-111396482D01*
X142722736Y-111271041D01*
X142783244Y-111124962D01*
X142803882Y-110968200D01*
X142803882Y-110966999D01*
X142804168Y-110966022D01*
X142804960Y-110960012D01*
X142805897Y-110960135D01*
X142823884Y-110898878D01*
X142877540Y-110852385D01*
X142947814Y-110842281D01*
X143012394Y-110871775D01*
X143018977Y-110877904D01*
X143355795Y-111214722D01*
X143389821Y-111277034D01*
X143392700Y-111303817D01*
X143392700Y-112785347D01*
X143392700Y-112871053D01*
X143414882Y-112953839D01*
X143414883Y-112953841D01*
X143414884Y-112953843D01*
X143457732Y-113028058D01*
X143457734Y-113028060D01*
X143457735Y-113028062D01*
X144390435Y-113960762D01*
X146287731Y-115858059D01*
X146287736Y-115858063D01*
X146287738Y-115858065D01*
X146287739Y-115858066D01*
X146287741Y-115858067D01*
X146310902Y-115871439D01*
X146361961Y-115900918D01*
X146444747Y-115923100D01*
X146530453Y-115923100D01*
X146613714Y-115923100D01*
X146681835Y-115943102D01*
X146713676Y-115972396D01*
X146754715Y-116025879D01*
X146754716Y-116025880D01*
X146754718Y-116025882D01*
X146880159Y-116122136D01*
X147026238Y-116182644D01*
X147183000Y-116203282D01*
X147339762Y-116182644D01*
X147485841Y-116122136D01*
X147611282Y-116025882D01*
X147707536Y-115900441D01*
X147768044Y-115754362D01*
X147788682Y-115597600D01*
X147768044Y-115440838D01*
X147707536Y-115294759D01*
X147611282Y-115169318D01*
X147485841Y-115073064D01*
X147434192Y-115051670D01*
X147339760Y-115012555D01*
X147183000Y-114991918D01*
X147026239Y-115012555D01*
X146880160Y-115073063D01*
X146880157Y-115073065D01*
X146754715Y-115169320D01*
X146740116Y-115188346D01*
X146682777Y-115230211D01*
X146611906Y-115234431D01*
X146551061Y-115200734D01*
X144080605Y-112730278D01*
X144046579Y-112667966D01*
X144043700Y-112641183D01*
X144043700Y-112298216D01*
X144063702Y-112230095D01*
X144117358Y-112183602D01*
X144187632Y-112173498D01*
X144252212Y-112202992D01*
X144258795Y-112209121D01*
X145403324Y-113353650D01*
X145403345Y-113353673D01*
X145468331Y-113418659D01*
X145468336Y-113418663D01*
X145468338Y-113418665D01*
X145468339Y-113418666D01*
X145468341Y-113418667D01*
X145535744Y-113457582D01*
X145542560Y-113461517D01*
X145542567Y-113461520D01*
X145625343Y-113483700D01*
X145625347Y-113483701D01*
X145718771Y-113483701D01*
X145718787Y-113483700D01*
X151171182Y-113483700D01*
X151239303Y-113503702D01*
X151260277Y-113520604D01*
X152005795Y-114266121D01*
X152039820Y-114328434D01*
X152042700Y-114355217D01*
X152042700Y-118475347D01*
X152042700Y-118561053D01*
X152064882Y-118643839D01*
X152064883Y-118643841D01*
X152064884Y-118643843D01*
X152107732Y-118718058D01*
X152107734Y-118718060D01*
X152107735Y-118718062D01*
X152542853Y-119153180D01*
X152822778Y-119433104D01*
X152856803Y-119495417D01*
X152851739Y-119566232D01*
X152809192Y-119623068D01*
X152742672Y-119647879D01*
X152733683Y-119648200D01*
X99744162Y-119648200D01*
X99676041Y-119628198D01*
X99629548Y-119574542D01*
X99618162Y-119522238D01*
X99618127Y-119406481D01*
X99617327Y-116746309D01*
X101339700Y-116746309D01*
X101339700Y-116988890D01*
X101371360Y-117229382D01*
X101434144Y-117463695D01*
X101434145Y-117463697D01*
X101434146Y-117463700D01*
X101526976Y-117687812D01*
X101526977Y-117687813D01*
X101526982Y-117687824D01*
X101648261Y-117897885D01*
X101648263Y-117897888D01*
X101648264Y-117897889D01*
X101795935Y-118090338D01*
X101795939Y-118090342D01*
X101795944Y-118090348D01*
X101967451Y-118261855D01*
X101967456Y-118261859D01*
X101967462Y-118261865D01*
X102159911Y-118409536D01*
X102159914Y-118409538D01*
X102369975Y-118530817D01*
X102369979Y-118530818D01*
X102369988Y-118530824D01*
X102594100Y-118623654D01*
X102828411Y-118686438D01*
X102828415Y-118686438D01*
X102828417Y-118686439D01*
X102890402Y-118694599D01*
X103068912Y-118718100D01*
X103068919Y-118718100D01*
X103311481Y-118718100D01*
X103311488Y-118718100D01*
X103528837Y-118689485D01*
X103551982Y-118686439D01*
X103551982Y-118686438D01*
X103551989Y-118686438D01*
X103786300Y-118623654D01*
X104010412Y-118530824D01*
X104220489Y-118409536D01*
X104412938Y-118261865D01*
X104584465Y-118090338D01*
X104732136Y-117897889D01*
X104853424Y-117687812D01*
X104946254Y-117463700D01*
X105009038Y-117229389D01*
X105040700Y-116988888D01*
X105040700Y-116746312D01*
X105009579Y-116509918D01*
X105009039Y-116505817D01*
X105009038Y-116505815D01*
X105009038Y-116505811D01*
X104946254Y-116271500D01*
X104853424Y-116047388D01*
X104853418Y-116047379D01*
X104853417Y-116047375D01*
X104732138Y-115837314D01*
X104732136Y-115837311D01*
X104584465Y-115644862D01*
X104584459Y-115644856D01*
X104584455Y-115644851D01*
X104412948Y-115473344D01*
X104412942Y-115473339D01*
X104412938Y-115473335D01*
X104220489Y-115325664D01*
X104220488Y-115325663D01*
X104220485Y-115325661D01*
X104010424Y-115204382D01*
X104010416Y-115204378D01*
X104010412Y-115204376D01*
X103786300Y-115111546D01*
X103786297Y-115111545D01*
X103786295Y-115111544D01*
X103551982Y-115048760D01*
X103311490Y-115017100D01*
X103311488Y-115017100D01*
X103068912Y-115017100D01*
X103068909Y-115017100D01*
X102828417Y-115048760D01*
X102594104Y-115111544D01*
X102594100Y-115111546D01*
X102371285Y-115203839D01*
X102369986Y-115204377D01*
X102369975Y-115204382D01*
X102159914Y-115325661D01*
X101967462Y-115473335D01*
X101967451Y-115473344D01*
X101795944Y-115644851D01*
X101795935Y-115644862D01*
X101648261Y-115837314D01*
X101526982Y-116047375D01*
X101526977Y-116047386D01*
X101526976Y-116047388D01*
X101493800Y-116127482D01*
X101434146Y-116271500D01*
X101434144Y-116271504D01*
X101371360Y-116505817D01*
X101339700Y-116746309D01*
X99617327Y-116746309D01*
X99616462Y-113870396D01*
X99949659Y-113870396D01*
X99949659Y-113870403D01*
X99968974Y-114066524D01*
X99968974Y-114066526D01*
X100026186Y-114255128D01*
X100119090Y-114428938D01*
X100244117Y-114581283D01*
X100396462Y-114706310D01*
X100570273Y-114799214D01*
X100758868Y-114856424D01*
X100758872Y-114856424D01*
X100758874Y-114856425D01*
X100954997Y-114875741D01*
X100955000Y-114875741D01*
X100955003Y-114875741D01*
X101151124Y-114856425D01*
X101151126Y-114856425D01*
X101151127Y-114856424D01*
X101151132Y-114856424D01*
X101339727Y-114799214D01*
X101513538Y-114706310D01*
X101665883Y-114581283D01*
X101790910Y-114428938D01*
X101883814Y-114255127D01*
X101941024Y-114066532D01*
X101941461Y-114062096D01*
X101960341Y-113870403D01*
X101960341Y-113870396D01*
X101941025Y-113674275D01*
X101941025Y-113674273D01*
X101941024Y-113674270D01*
X101941024Y-113674268D01*
X101883814Y-113485673D01*
X101790910Y-113311862D01*
X101665883Y-113159517D01*
X101513538Y-113034490D01*
X101501458Y-113028033D01*
X101339728Y-112941586D01*
X101195170Y-112897735D01*
X101151132Y-112884376D01*
X101151131Y-112884375D01*
X101151125Y-112884374D01*
X100955003Y-112865059D01*
X100954997Y-112865059D01*
X100758875Y-112884374D01*
X100758873Y-112884374D01*
X100570271Y-112941586D01*
X100396461Y-113034490D01*
X100244117Y-113159517D01*
X100119090Y-113311861D01*
X100026186Y-113485671D01*
X99968974Y-113674273D01*
X99968974Y-113674275D01*
X99949659Y-113870396D01*
X99616462Y-113870396D01*
X99615081Y-109278449D01*
X100057700Y-109278449D01*
X100057700Y-111017950D01*
X100066741Y-111063404D01*
X100069333Y-111076431D01*
X100113648Y-111142752D01*
X100179969Y-111187067D01*
X100238452Y-111198700D01*
X100238453Y-111198700D01*
X101977947Y-111198700D01*
X101977948Y-111198700D01*
X102036431Y-111187067D01*
X102102752Y-111142752D01*
X102147067Y-111076431D01*
X102158700Y-111017948D01*
X102158700Y-109278452D01*
X102147067Y-109219969D01*
X102102752Y-109153648D01*
X102036431Y-109109333D01*
X102036428Y-109109332D01*
X101977950Y-109097700D01*
X101977948Y-109097700D01*
X100238452Y-109097700D01*
X100238449Y-109097700D01*
X100179971Y-109109332D01*
X100179968Y-109109333D01*
X100113648Y-109153648D01*
X100069333Y-109219968D01*
X100069332Y-109219971D01*
X100057700Y-109278449D01*
X99615081Y-109278449D01*
X99614578Y-107608196D01*
X100052617Y-107608196D01*
X100052617Y-107608203D01*
X100072898Y-107814127D01*
X100072899Y-107814133D01*
X100072900Y-107814134D01*
X100109521Y-107934858D01*
X100132968Y-108012154D01*
X100229472Y-108192700D01*
X100230515Y-108194650D01*
X100361790Y-108354610D01*
X100521750Y-108485885D01*
X100704246Y-108583432D01*
X100902266Y-108643500D01*
X100902270Y-108643500D01*
X100902272Y-108643501D01*
X101108197Y-108663783D01*
X101108200Y-108663783D01*
X101108203Y-108663783D01*
X101314127Y-108643501D01*
X101314128Y-108643500D01*
X101314134Y-108643500D01*
X101512154Y-108583432D01*
X101694650Y-108485885D01*
X101854610Y-108354610D01*
X101985885Y-108194650D01*
X102083432Y-108012154D01*
X102143500Y-107814134D01*
X102147053Y-107778068D01*
X102163783Y-107608203D01*
X102163783Y-107608196D01*
X102143501Y-107402272D01*
X102143500Y-107402270D01*
X102143500Y-107402266D01*
X102083432Y-107204246D01*
X101985885Y-107021750D01*
X101854610Y-106861790D01*
X101694650Y-106730515D01*
X101694648Y-106730514D01*
X101694647Y-106730513D01*
X101512154Y-106632968D01*
X101429686Y-106607952D01*
X101314134Y-106572900D01*
X101314133Y-106572899D01*
X101314127Y-106572898D01*
X101108203Y-106552617D01*
X101108197Y-106552617D01*
X100902272Y-106572898D01*
X100704245Y-106632968D01*
X100521752Y-106730513D01*
X100361790Y-106861790D01*
X100230513Y-107021752D01*
X100132968Y-107204245D01*
X100072898Y-107402272D01*
X100052617Y-107608196D01*
X99614578Y-107608196D01*
X99608837Y-88520264D01*
X99628819Y-88452141D01*
X99682460Y-88405632D01*
X99734864Y-88394230D01*
X204486454Y-88419569D01*
G37*
%TD.AperFunction*%
%TA.AperFunction,Conductor*%
G36*
X139017904Y-114243702D02*
G01*
X139038878Y-114260605D01*
X140065795Y-115287522D01*
X140099821Y-115349834D01*
X140102700Y-115376617D01*
X140102700Y-117058914D01*
X140082698Y-117127035D01*
X140053404Y-117158876D01*
X139999920Y-117199915D01*
X139903665Y-117325357D01*
X139903663Y-117325360D01*
X139843155Y-117471439D01*
X139822518Y-117628199D01*
X139822518Y-117628200D01*
X139843155Y-117784960D01*
X139900699Y-117923882D01*
X139903664Y-117931041D01*
X139999918Y-118056482D01*
X140052380Y-118096737D01*
X140094247Y-118154075D01*
X140098469Y-118224946D01*
X140063705Y-118286849D01*
X140000992Y-118320130D01*
X139975676Y-118322700D01*
X134205217Y-118322700D01*
X134137096Y-118302698D01*
X134116122Y-118285795D01*
X131868068Y-116037740D01*
X131868058Y-116037732D01*
X131793843Y-115994884D01*
X131793841Y-115994883D01*
X131793839Y-115994882D01*
X131711053Y-115972700D01*
X131711051Y-115972700D01*
X129745217Y-115972700D01*
X129677096Y-115952698D01*
X129656122Y-115935795D01*
X129406071Y-115685744D01*
X129372045Y-115623432D01*
X129377110Y-115552617D01*
X129419657Y-115495781D01*
X129486177Y-115470970D01*
X129513069Y-115473538D01*
X129513250Y-115472166D01*
X129521437Y-115473243D01*
X129521438Y-115473244D01*
X129678200Y-115493882D01*
X129834962Y-115473244D01*
X129981041Y-115412736D01*
X130106482Y-115316482D01*
X130134034Y-115280576D01*
X130147524Y-115262996D01*
X130204862Y-115221129D01*
X130247486Y-115213700D01*
X137414734Y-115213700D01*
X137477741Y-115230585D01*
X137482160Y-115233137D01*
X137554247Y-115262996D01*
X137628238Y-115293644D01*
X137785000Y-115314282D01*
X137941762Y-115293644D01*
X138087841Y-115233136D01*
X138213282Y-115136882D01*
X138309536Y-115011441D01*
X138370044Y-114865362D01*
X138390682Y-114708600D01*
X138390380Y-114706309D01*
X138370044Y-114551839D01*
X138369928Y-114551559D01*
X138309536Y-114405759D01*
X138309534Y-114405757D01*
X138306375Y-114398129D01*
X138309687Y-114396756D01*
X138296801Y-114343785D01*
X138319979Y-114276678D01*
X138375758Y-114232755D01*
X138422662Y-114223700D01*
X138949783Y-114223700D01*
X139017904Y-114243702D01*
G37*
%TD.AperFunction*%
%TA.AperFunction,Conductor*%
G36*
X154662895Y-106003702D02*
G01*
X154709388Y-106057358D01*
X154719492Y-106127632D01*
X154711183Y-106157915D01*
X154705061Y-106172698D01*
X154693155Y-106201439D01*
X154672518Y-106358199D01*
X154672518Y-106358200D01*
X154693155Y-106514960D01*
X154750035Y-106652279D01*
X154753664Y-106661041D01*
X154846909Y-106782561D01*
X154849920Y-106786484D01*
X154935612Y-106852238D01*
X154977479Y-106909576D01*
X154981701Y-106980447D01*
X154946937Y-107042349D01*
X154884224Y-107075631D01*
X154858908Y-107078200D01*
X154315553Y-107078200D01*
X154229847Y-107078200D01*
X154187861Y-107089450D01*
X154147060Y-107100382D01*
X154115397Y-107118664D01*
X154115396Y-107118664D01*
X154072841Y-107143232D01*
X154072836Y-107143236D01*
X154054558Y-107161515D01*
X154012235Y-107203838D01*
X153150278Y-108065795D01*
X153087966Y-108099821D01*
X153061183Y-108102700D01*
X151718218Y-108102700D01*
X151650097Y-108082698D01*
X151603604Y-108029042D01*
X151593500Y-107958768D01*
X151622994Y-107894188D01*
X151629122Y-107887605D01*
X152296121Y-107220605D01*
X152358434Y-107186580D01*
X152385217Y-107183700D01*
X152791051Y-107183700D01*
X152791053Y-107183700D01*
X152873839Y-107161518D01*
X152948062Y-107118665D01*
X153427686Y-106639038D01*
X153427696Y-106639031D01*
X153498659Y-106568068D01*
X153498665Y-106568062D01*
X153504032Y-106558764D01*
X153524052Y-106532673D01*
X154036123Y-106020604D01*
X154098435Y-105986579D01*
X154125218Y-105983700D01*
X154594774Y-105983700D01*
X154662895Y-106003702D01*
G37*
%TD.AperFunction*%
%TA.AperFunction,Conductor*%
G36*
X145718346Y-103886945D02*
G01*
X145775182Y-103929492D01*
X145799993Y-103996012D01*
X145799709Y-104017334D01*
X145799500Y-104019458D01*
X145799500Y-105473729D01*
X145799501Y-105473739D01*
X145815484Y-105554094D01*
X145827073Y-105571438D01*
X145876376Y-105645224D01*
X145967505Y-105706115D01*
X146047867Y-105722100D01*
X146252132Y-105722099D01*
X146252135Y-105722098D01*
X146252139Y-105722098D01*
X146305459Y-105711492D01*
X146332495Y-105706115D01*
X146423624Y-105645224D01*
X146483033Y-105556313D01*
X146537510Y-105510785D01*
X146607953Y-105501938D01*
X146671997Y-105532579D01*
X146676893Y-105537220D01*
X147138278Y-105998605D01*
X147172304Y-106060917D01*
X147167239Y-106131732D01*
X147124692Y-106188568D01*
X147058172Y-106213379D01*
X147049183Y-106213700D01*
X146506387Y-106213700D01*
X146506371Y-106213699D01*
X146498653Y-106213699D01*
X146412947Y-106213699D01*
X146412943Y-106213699D01*
X146330165Y-106235880D01*
X146255939Y-106278734D01*
X146255931Y-106278740D01*
X146202520Y-106332152D01*
X146202514Y-106332156D01*
X146202515Y-106332157D01*
X146195333Y-106339338D01*
X146195333Y-106339339D01*
X146153576Y-106381097D01*
X146138678Y-106395995D01*
X146076366Y-106430020D01*
X146049582Y-106432900D01*
X145524017Y-106432900D01*
X145455896Y-106412898D01*
X145434921Y-106395995D01*
X145012404Y-105973477D01*
X144978379Y-105911165D01*
X144975500Y-105884382D01*
X144975500Y-105848099D01*
X144995502Y-105779978D01*
X145049158Y-105733485D01*
X145101496Y-105722099D01*
X145252132Y-105722099D01*
X145252135Y-105722098D01*
X145252139Y-105722098D01*
X145305459Y-105711492D01*
X145332495Y-105706115D01*
X145423624Y-105645224D01*
X145484515Y-105554095D01*
X145500500Y-105473733D01*
X145500499Y-104052815D01*
X145520501Y-103984695D01*
X145537399Y-103963726D01*
X145585221Y-103915904D01*
X145647531Y-103881880D01*
X145718346Y-103886945D01*
G37*
%TD.AperFunction*%
%TA.AperFunction,Conductor*%
G36*
X133107104Y-100423702D02*
G01*
X133153597Y-100477358D01*
X133163701Y-100547632D01*
X133134207Y-100612212D01*
X133128078Y-100618795D01*
X131700140Y-102046731D01*
X131700134Y-102046739D01*
X131657281Y-102120960D01*
X131657280Y-102120964D01*
X131647863Y-102156113D01*
X131647863Y-102156114D01*
X131635100Y-102203746D01*
X131635100Y-104138782D01*
X131615098Y-104206903D01*
X131598195Y-104227877D01*
X130151214Y-105674858D01*
X130088902Y-105708884D01*
X130018087Y-105703819D01*
X129961251Y-105661272D01*
X129936440Y-105594752D01*
X129937197Y-105569317D01*
X129940697Y-105542736D01*
X129957882Y-105412200D01*
X129957729Y-105411041D01*
X129943099Y-105299915D01*
X129937244Y-105255438D01*
X129876736Y-105109359D01*
X129780482Y-104983918D01*
X129655041Y-104887664D01*
X129611243Y-104869522D01*
X129508960Y-104827155D01*
X129352200Y-104806518D01*
X129195439Y-104827155D01*
X129109540Y-104862736D01*
X129057917Y-104884119D01*
X128987328Y-104891708D01*
X128923841Y-104859929D01*
X128887614Y-104798871D01*
X128883700Y-104767710D01*
X128883700Y-102211799D01*
X129533918Y-102211799D01*
X129533918Y-102211800D01*
X129554555Y-102368560D01*
X129603845Y-102487555D01*
X129615064Y-102514641D01*
X129711318Y-102640082D01*
X129836759Y-102736336D01*
X129982838Y-102796844D01*
X130139600Y-102817482D01*
X130296362Y-102796844D01*
X130442441Y-102736336D01*
X130567882Y-102640082D01*
X130664136Y-102514641D01*
X130724644Y-102368562D01*
X130745282Y-102211800D01*
X130739368Y-102166882D01*
X130725446Y-102061131D01*
X130724644Y-102055038D01*
X130664136Y-101908959D01*
X130567882Y-101783518D01*
X130442441Y-101687264D01*
X130416909Y-101676688D01*
X130296360Y-101626755D01*
X130139600Y-101606118D01*
X129982839Y-101626755D01*
X129836760Y-101687263D01*
X129836757Y-101687265D01*
X129711318Y-101783518D01*
X129615065Y-101908957D01*
X129615063Y-101908960D01*
X129554555Y-102055039D01*
X129533918Y-102211799D01*
X128883700Y-102211799D01*
X128883700Y-101676688D01*
X128903702Y-101608567D01*
X128957358Y-101562074D01*
X129026145Y-101551766D01*
X129065000Y-101556882D01*
X129221762Y-101536244D01*
X129367841Y-101475736D01*
X129493282Y-101379482D01*
X129589536Y-101254041D01*
X129650044Y-101107962D01*
X129670682Y-100951200D01*
X129650044Y-100794438D01*
X129589536Y-100648359D01*
X129582434Y-100639104D01*
X129557343Y-100606404D01*
X129531742Y-100540184D01*
X129546007Y-100470635D01*
X129595608Y-100419839D01*
X129657305Y-100403700D01*
X133038983Y-100403700D01*
X133107104Y-100423702D01*
G37*
%TD.AperFunction*%
%TA.AperFunction,Conductor*%
G36*
X145741621Y-92635302D02*
G01*
X145788114Y-92688958D01*
X145799500Y-92741300D01*
X145799500Y-94123729D01*
X145799501Y-94123739D01*
X145815484Y-94204094D01*
X145825076Y-94218449D01*
X145876376Y-94295224D01*
X145967505Y-94356115D01*
X146047867Y-94372100D01*
X146252132Y-94372099D01*
X146252135Y-94372098D01*
X146252139Y-94372098D01*
X146306311Y-94361323D01*
X146332495Y-94356115D01*
X146423624Y-94295224D01*
X146484515Y-94204095D01*
X146500500Y-94123733D01*
X146500500Y-93848100D01*
X146520502Y-93779979D01*
X146574158Y-93733486D01*
X146626500Y-93722100D01*
X148653024Y-93722100D01*
X148721145Y-93742102D01*
X148767638Y-93795758D01*
X148777742Y-93866032D01*
X148748248Y-93930612D01*
X148701245Y-93964507D01*
X148675759Y-93975064D01*
X148675758Y-93975065D01*
X148675757Y-93975065D01*
X148550318Y-94071318D01*
X148454065Y-94196757D01*
X148454063Y-94196760D01*
X148393555Y-94342839D01*
X148372918Y-94499599D01*
X148372918Y-94499600D01*
X148393555Y-94656360D01*
X148393556Y-94656362D01*
X148441226Y-94771447D01*
X148448815Y-94842036D01*
X148417036Y-94905523D01*
X148413912Y-94908759D01*
X148388476Y-94934195D01*
X148326164Y-94968221D01*
X148299381Y-94971100D01*
X147347870Y-94971100D01*
X147347860Y-94971101D01*
X147267505Y-94987084D01*
X147176377Y-95047975D01*
X147176376Y-95047976D01*
X147171717Y-95054949D01*
X147115484Y-95139105D01*
X147099500Y-95219464D01*
X147099500Y-95219467D01*
X147099500Y-95321072D01*
X147099501Y-95370099D01*
X147079499Y-95438220D01*
X147025844Y-95484713D01*
X146973501Y-95496100D01*
X146945187Y-95496100D01*
X146945171Y-95496099D01*
X146937453Y-95496099D01*
X146851748Y-95496099D01*
X146851746Y-95496099D01*
X146817089Y-95505386D01*
X146778971Y-95515600D01*
X146777475Y-95516001D01*
X146768964Y-95518281D01*
X146768962Y-95518281D01*
X146768962Y-95518282D01*
X146766227Y-95519861D01*
X146694739Y-95561134D01*
X146694736Y-95561136D01*
X146678796Y-95577077D01*
X146634135Y-95621738D01*
X146634133Y-95621740D01*
X146475348Y-95780525D01*
X146025737Y-96230135D01*
X146025732Y-96230141D01*
X145982884Y-96304356D01*
X145982881Y-96304363D01*
X145964869Y-96371584D01*
X145964869Y-96371587D01*
X145960700Y-96387147D01*
X145960700Y-96387149D01*
X145960700Y-97816514D01*
X145940698Y-97884635D01*
X145911404Y-97916476D01*
X145857920Y-97957515D01*
X145761665Y-98082957D01*
X145761663Y-98082960D01*
X145701155Y-98229039D01*
X145680518Y-98385799D01*
X145680518Y-98385800D01*
X145701155Y-98542560D01*
X145760669Y-98686238D01*
X145761664Y-98688641D01*
X145857918Y-98814082D01*
X145983359Y-98910336D01*
X146129438Y-98970844D01*
X146286200Y-98991482D01*
X146442962Y-98970844D01*
X146589041Y-98910336D01*
X146714482Y-98814082D01*
X146810736Y-98688641D01*
X146871244Y-98542562D01*
X146872614Y-98532150D01*
X146901333Y-98467226D01*
X146960596Y-98428132D01*
X147031588Y-98427283D01*
X147091768Y-98464951D01*
X147113945Y-98500377D01*
X147120234Y-98515560D01*
X147118423Y-98516309D01*
X147135031Y-98569357D01*
X147119161Y-98627195D01*
X147120234Y-98627640D01*
X147116694Y-98636185D01*
X147116245Y-98637823D01*
X147115601Y-98638824D01*
X147115485Y-98639104D01*
X147099500Y-98719464D01*
X147099500Y-98923729D01*
X147099501Y-98923739D01*
X147115485Y-99004094D01*
X147120235Y-99015563D01*
X147118424Y-99016312D01*
X147135031Y-99069357D01*
X147119161Y-99127195D01*
X147120234Y-99127640D01*
X147116694Y-99136185D01*
X147116245Y-99137823D01*
X147115601Y-99138824D01*
X147115485Y-99139104D01*
X147099500Y-99219464D01*
X147099500Y-99423729D01*
X147099501Y-99423739D01*
X147113487Y-99494049D01*
X147115484Y-99504092D01*
X147115485Y-99504094D01*
X147120235Y-99515563D01*
X147118424Y-99516312D01*
X147135031Y-99569357D01*
X147119161Y-99627195D01*
X147120234Y-99627640D01*
X147116694Y-99636185D01*
X147116245Y-99637823D01*
X147115601Y-99638824D01*
X147115485Y-99639104D01*
X147099500Y-99719464D01*
X147099500Y-99923729D01*
X147099501Y-99923739D01*
X147112585Y-99989515D01*
X147115484Y-100004092D01*
X147115485Y-100004094D01*
X147120235Y-100015563D01*
X147118424Y-100016312D01*
X147135031Y-100069357D01*
X147119161Y-100127195D01*
X147120234Y-100127640D01*
X147116694Y-100136185D01*
X147116245Y-100137823D01*
X147115601Y-100138824D01*
X147115485Y-100139104D01*
X147099500Y-100219464D01*
X147099500Y-100423729D01*
X147099501Y-100423739D01*
X147115484Y-100504094D01*
X147139421Y-100539918D01*
X147176376Y-100595224D01*
X147267505Y-100656115D01*
X147347867Y-100672100D01*
X148802132Y-100672099D01*
X148802135Y-100672098D01*
X148802139Y-100672098D01*
X148861565Y-100660277D01*
X148882495Y-100656115D01*
X148882495Y-100656114D01*
X148894666Y-100653694D01*
X148894723Y-100653981D01*
X148929321Y-100647100D01*
X152294583Y-100647100D01*
X152362704Y-100667102D01*
X152383678Y-100684005D01*
X153917278Y-102217605D01*
X153951304Y-102279917D01*
X153946239Y-102350732D01*
X153903692Y-102407568D01*
X153837172Y-102432379D01*
X153828183Y-102432700D01*
X152724653Y-102432700D01*
X152638947Y-102432700D01*
X152556161Y-102454882D01*
X152556159Y-102454883D01*
X152556156Y-102454884D01*
X152481941Y-102497732D01*
X152481935Y-102497737D01*
X152243339Y-102736334D01*
X151631676Y-103347996D01*
X151569366Y-103382020D01*
X151542583Y-103384900D01*
X150418017Y-103384900D01*
X150349896Y-103364898D01*
X150328926Y-103347999D01*
X149542062Y-102561135D01*
X149542060Y-102561134D01*
X149542058Y-102561132D01*
X149467843Y-102518284D01*
X149467841Y-102518283D01*
X149467839Y-102518282D01*
X149385053Y-102496100D01*
X149385051Y-102496100D01*
X149176500Y-102496100D01*
X149108379Y-102476098D01*
X149061886Y-102422442D01*
X149050500Y-102370101D01*
X149050499Y-102273101D01*
X149070500Y-102204980D01*
X149124156Y-102158487D01*
X149176499Y-102147100D01*
X149602422Y-102147100D01*
X149670543Y-102167102D01*
X149702384Y-102196396D01*
X149718715Y-102217679D01*
X149718716Y-102217680D01*
X149718718Y-102217682D01*
X149844159Y-102313936D01*
X149990238Y-102374444D01*
X150147000Y-102395082D01*
X150303762Y-102374444D01*
X150449841Y-102313936D01*
X150575282Y-102217682D01*
X150671536Y-102092241D01*
X150732044Y-101946162D01*
X150752682Y-101789400D01*
X150732044Y-101632638D01*
X150671536Y-101486559D01*
X150575282Y-101361118D01*
X150449841Y-101264864D01*
X150433611Y-101258141D01*
X150303760Y-101204355D01*
X150147000Y-101183718D01*
X149990239Y-101204355D01*
X149844160Y-101264863D01*
X149844157Y-101264865D01*
X149718716Y-101361119D01*
X149652970Y-101446803D01*
X149595632Y-101488671D01*
X149553007Y-101496100D01*
X149176500Y-101496100D01*
X149108379Y-101476098D01*
X149061886Y-101422442D01*
X149050500Y-101370101D01*
X149050499Y-101219470D01*
X149050498Y-101219460D01*
X149034515Y-101139105D01*
X149024141Y-101123580D01*
X148973624Y-101047976D01*
X148895987Y-100996100D01*
X148882494Y-100987084D01*
X148802133Y-100971100D01*
X147347870Y-100971100D01*
X147347860Y-100971101D01*
X147255334Y-100989506D01*
X147255276Y-100989218D01*
X147220679Y-100996100D01*
X146695253Y-100996100D01*
X146609547Y-100996100D01*
X146526761Y-101018282D01*
X146526759Y-101018283D01*
X146526756Y-101018284D01*
X146452540Y-101061133D01*
X146407780Y-101105892D01*
X146345467Y-101139916D01*
X146302241Y-101141717D01*
X146235403Y-101132918D01*
X146235400Y-101132918D01*
X146078639Y-101153555D01*
X145932560Y-101214063D01*
X145932557Y-101214065D01*
X145807118Y-101310318D01*
X145710865Y-101435757D01*
X145710863Y-101435760D01*
X145650355Y-101581839D01*
X145629718Y-101738599D01*
X145629718Y-101738600D01*
X145650355Y-101895360D01*
X145695930Y-102005386D01*
X145710864Y-102041441D01*
X145800677Y-102158487D01*
X145807119Y-102166883D01*
X145821537Y-102177946D01*
X145863405Y-102235283D01*
X145867627Y-102306154D01*
X145832864Y-102368057D01*
X145821539Y-102377871D01*
X145756318Y-102427917D01*
X145660065Y-102553357D01*
X145660063Y-102553360D01*
X145599555Y-102699439D01*
X145578918Y-102856199D01*
X145578918Y-102856201D01*
X145587717Y-102923040D01*
X145576777Y-102993188D01*
X145551891Y-103028580D01*
X144889537Y-103690935D01*
X144889530Y-103690944D01*
X144878968Y-103709238D01*
X144827584Y-103758230D01*
X144757870Y-103771664D01*
X144757505Y-103771629D01*
X144752133Y-103771100D01*
X144752132Y-103771100D01*
X144547870Y-103771100D01*
X144547860Y-103771101D01*
X144467505Y-103787085D01*
X144456037Y-103791835D01*
X144455287Y-103790024D01*
X144402243Y-103806631D01*
X144344404Y-103790761D01*
X144343960Y-103791834D01*
X144335414Y-103788294D01*
X144333777Y-103787845D01*
X144332775Y-103787201D01*
X144332495Y-103787085D01*
X144252134Y-103771100D01*
X144047870Y-103771100D01*
X144047860Y-103771101D01*
X143967505Y-103787085D01*
X143956037Y-103791835D01*
X143955287Y-103790024D01*
X143902243Y-103806631D01*
X143844404Y-103790761D01*
X143843960Y-103791834D01*
X143835414Y-103788294D01*
X143833777Y-103787845D01*
X143832775Y-103787201D01*
X143832495Y-103787085D01*
X143752134Y-103771100D01*
X143547870Y-103771100D01*
X143547860Y-103771101D01*
X143467505Y-103787085D01*
X143456037Y-103791835D01*
X143455287Y-103790024D01*
X143402243Y-103806631D01*
X143344404Y-103790761D01*
X143343960Y-103791834D01*
X143335414Y-103788294D01*
X143333777Y-103787845D01*
X143332775Y-103787201D01*
X143332495Y-103787085D01*
X143252134Y-103771100D01*
X143047870Y-103771100D01*
X143047860Y-103771101D01*
X142967505Y-103787085D01*
X142956037Y-103791835D01*
X142955287Y-103790024D01*
X142902243Y-103806631D01*
X142844404Y-103790761D01*
X142843960Y-103791834D01*
X142835414Y-103788294D01*
X142833777Y-103787845D01*
X142832775Y-103787201D01*
X142832495Y-103787085D01*
X142752134Y-103771100D01*
X142547870Y-103771100D01*
X142547860Y-103771101D01*
X142467505Y-103787085D01*
X142456037Y-103791835D01*
X142455287Y-103790024D01*
X142402243Y-103806631D01*
X142344404Y-103790761D01*
X142343960Y-103791834D01*
X142335414Y-103788294D01*
X142333777Y-103787845D01*
X142332775Y-103787201D01*
X142332495Y-103787085D01*
X142252134Y-103771100D01*
X142047870Y-103771100D01*
X142047860Y-103771101D01*
X141967505Y-103787085D01*
X141956037Y-103791835D01*
X141955287Y-103790024D01*
X141902243Y-103806631D01*
X141844404Y-103790761D01*
X141843960Y-103791834D01*
X141835414Y-103788294D01*
X141833777Y-103787845D01*
X141832775Y-103787201D01*
X141832495Y-103787085D01*
X141752134Y-103771100D01*
X141547870Y-103771100D01*
X141547860Y-103771101D01*
X141467505Y-103787085D01*
X141456037Y-103791835D01*
X141455287Y-103790024D01*
X141402243Y-103806631D01*
X141344404Y-103790761D01*
X141343960Y-103791834D01*
X141335414Y-103788294D01*
X141333777Y-103787845D01*
X141332775Y-103787201D01*
X141332495Y-103787085D01*
X141252134Y-103771100D01*
X141047870Y-103771100D01*
X141047860Y-103771101D01*
X140967505Y-103787085D01*
X140956037Y-103791835D01*
X140955287Y-103790024D01*
X140902243Y-103806631D01*
X140844404Y-103790761D01*
X140843960Y-103791834D01*
X140835414Y-103788294D01*
X140833777Y-103787845D01*
X140832775Y-103787201D01*
X140832495Y-103787085D01*
X140752134Y-103771100D01*
X140547870Y-103771100D01*
X140547860Y-103771101D01*
X140467505Y-103787085D01*
X140456037Y-103791835D01*
X140455287Y-103790024D01*
X140402243Y-103806631D01*
X140344404Y-103790761D01*
X140343960Y-103791834D01*
X140335414Y-103788294D01*
X140333777Y-103787845D01*
X140332775Y-103787201D01*
X140332495Y-103787085D01*
X140252134Y-103771100D01*
X140047870Y-103771100D01*
X140047860Y-103771101D01*
X139967505Y-103787085D01*
X139956037Y-103791835D01*
X139955287Y-103790024D01*
X139902243Y-103806631D01*
X139844404Y-103790761D01*
X139843960Y-103791834D01*
X139835414Y-103788294D01*
X139833777Y-103787845D01*
X139832775Y-103787201D01*
X139832495Y-103787085D01*
X139752134Y-103771100D01*
X139547870Y-103771100D01*
X139547860Y-103771101D01*
X139467505Y-103787084D01*
X139376377Y-103847975D01*
X139376376Y-103847976D01*
X139367382Y-103861436D01*
X139315484Y-103939105D01*
X139299500Y-104019464D01*
X139299500Y-105469580D01*
X139279498Y-105537701D01*
X139262596Y-105558675D01*
X139208038Y-105613234D01*
X139145726Y-105647259D01*
X139074911Y-105642195D01*
X139018074Y-105599649D01*
X138993263Y-105533129D01*
X138995363Y-105499556D01*
X138995500Y-105498868D01*
X139000500Y-105473733D01*
X139000499Y-104019468D01*
X139000498Y-104019464D01*
X139000498Y-104019460D01*
X138984515Y-103939105D01*
X138923624Y-103847976D01*
X138861747Y-103806631D01*
X138832495Y-103787085D01*
X138832492Y-103787084D01*
X138821031Y-103782337D01*
X138821751Y-103780597D01*
X138772258Y-103754704D01*
X138770661Y-103753134D01*
X138655405Y-103637878D01*
X138621379Y-103575566D01*
X138618500Y-103548783D01*
X138618500Y-103210090D01*
X138638502Y-103141969D01*
X138644523Y-103133404D01*
X138690536Y-103073441D01*
X138751044Y-102927362D01*
X138771682Y-102770600D01*
X138751044Y-102613838D01*
X138690536Y-102467759D01*
X138594282Y-102342318D01*
X138468841Y-102246064D01*
X138442814Y-102235283D01*
X138322760Y-102185555D01*
X138166000Y-102164918D01*
X138009239Y-102185555D01*
X137931679Y-102217682D01*
X137863162Y-102246063D01*
X137859613Y-102247533D01*
X137789023Y-102255122D01*
X137725536Y-102223343D01*
X137689309Y-102162285D01*
X137687823Y-102155741D01*
X137684515Y-102139105D01*
X137684513Y-102139102D01*
X137684513Y-102139100D01*
X137679765Y-102127636D01*
X137681576Y-102126885D01*
X137664968Y-102073854D01*
X137680836Y-102016001D01*
X137679766Y-102015558D01*
X137683293Y-102007041D01*
X137683748Y-102005386D01*
X137684399Y-102004371D01*
X137684511Y-102004099D01*
X137684515Y-102004095D01*
X137700500Y-101923733D01*
X137700499Y-101719468D01*
X137700498Y-101719465D01*
X137700498Y-101719460D01*
X137691990Y-101676688D01*
X137684515Y-101639105D01*
X137684513Y-101639102D01*
X137679765Y-101627636D01*
X137681576Y-101626885D01*
X137664968Y-101573854D01*
X137680836Y-101516001D01*
X137679766Y-101515558D01*
X137683293Y-101507041D01*
X137683748Y-101505386D01*
X137684399Y-101504371D01*
X137684511Y-101504099D01*
X137684515Y-101504095D01*
X137700500Y-101423733D01*
X137700499Y-101219468D01*
X137700498Y-101219465D01*
X137700498Y-101219460D01*
X137690252Y-101167950D01*
X137684515Y-101139105D01*
X137684513Y-101139102D01*
X137679765Y-101127636D01*
X137681576Y-101126885D01*
X137664968Y-101073854D01*
X137680836Y-101016001D01*
X137679766Y-101015558D01*
X137683293Y-101007041D01*
X137683748Y-101005386D01*
X137684399Y-101004371D01*
X137684511Y-101004099D01*
X137684515Y-101004095D01*
X137700500Y-100923733D01*
X137700499Y-100719468D01*
X137700498Y-100719465D01*
X137700498Y-100719460D01*
X137693445Y-100684005D01*
X137684515Y-100639105D01*
X137684513Y-100639102D01*
X137679765Y-100627636D01*
X137681576Y-100626885D01*
X137664968Y-100573854D01*
X137680836Y-100516001D01*
X137679766Y-100515558D01*
X137683293Y-100507041D01*
X137683748Y-100505386D01*
X137684399Y-100504371D01*
X137684511Y-100504099D01*
X137684515Y-100504095D01*
X137700500Y-100423733D01*
X137700499Y-100219468D01*
X137700498Y-100219464D01*
X137700498Y-100219460D01*
X137690976Y-100171588D01*
X137684515Y-100139105D01*
X137684513Y-100139102D01*
X137679765Y-100127636D01*
X137681576Y-100126885D01*
X137664968Y-100073854D01*
X137680836Y-100016001D01*
X137679766Y-100015558D01*
X137683293Y-100007041D01*
X137683748Y-100005386D01*
X137684399Y-100004371D01*
X137684511Y-100004099D01*
X137684515Y-100004095D01*
X137700500Y-99923733D01*
X137700499Y-99719468D01*
X137700498Y-99719464D01*
X137700498Y-99719460D01*
X137693711Y-99685339D01*
X137684515Y-99639105D01*
X137684513Y-99639102D01*
X137679765Y-99627636D01*
X137681576Y-99626885D01*
X137664968Y-99573854D01*
X137680836Y-99516001D01*
X137679766Y-99515558D01*
X137683293Y-99507041D01*
X137683748Y-99505386D01*
X137684399Y-99504371D01*
X137684511Y-99504099D01*
X137684515Y-99504095D01*
X137700500Y-99423733D01*
X137700499Y-99219468D01*
X137700498Y-99219464D01*
X137700498Y-99219460D01*
X137692456Y-99179030D01*
X137684515Y-99139105D01*
X137684513Y-99139102D01*
X137679765Y-99127636D01*
X137681576Y-99126885D01*
X137664968Y-99073854D01*
X137680836Y-99016001D01*
X137679766Y-99015558D01*
X137683293Y-99007041D01*
X137683748Y-99005386D01*
X137684399Y-99004371D01*
X137684510Y-99004101D01*
X137684515Y-99004095D01*
X137684516Y-99004087D01*
X137689265Y-98992627D01*
X137692367Y-98993912D01*
X137715861Y-98948983D01*
X137777552Y-98913842D01*
X137848447Y-98917632D01*
X137895640Y-98947366D01*
X138015890Y-99067616D01*
X138049916Y-99129928D01*
X138051717Y-99173156D01*
X138042918Y-99239997D01*
X138042918Y-99240000D01*
X138063555Y-99396760D01*
X138114062Y-99518693D01*
X138124064Y-99542841D01*
X138220318Y-99668282D01*
X138345759Y-99764536D01*
X138491838Y-99825044D01*
X138648600Y-99845682D01*
X138805362Y-99825044D01*
X138951441Y-99764536D01*
X139076882Y-99668282D01*
X139173136Y-99542841D01*
X139233644Y-99396762D01*
X139254282Y-99240000D01*
X139233644Y-99083238D01*
X139216635Y-99042176D01*
X139209046Y-98971588D01*
X139240824Y-98908101D01*
X139301882Y-98871873D01*
X139349487Y-98869037D01*
X139501227Y-98889014D01*
X139657989Y-98868376D01*
X139804068Y-98807868D01*
X139929509Y-98711614D01*
X139943538Y-98693329D01*
X140000874Y-98651464D01*
X140071745Y-98647242D01*
X140133648Y-98682005D01*
X140166930Y-98744717D01*
X140169500Y-98770035D01*
X140169500Y-99868003D01*
X140149498Y-99936124D01*
X140120206Y-99967964D01*
X140092119Y-99989516D01*
X139995865Y-100114957D01*
X139995863Y-100114960D01*
X139935355Y-100261039D01*
X139914718Y-100417799D01*
X139914718Y-100417800D01*
X139935355Y-100574560D01*
X139981927Y-100686993D01*
X139995864Y-100720641D01*
X140092118Y-100846082D01*
X140217559Y-100942336D01*
X140363638Y-101002844D01*
X140520400Y-101023482D01*
X140677162Y-101002844D01*
X140823241Y-100942336D01*
X140948682Y-100846082D01*
X141044936Y-100720641D01*
X141105444Y-100574562D01*
X141126082Y-100417800D01*
X141121868Y-100385795D01*
X141113375Y-100321282D01*
X141105444Y-100261038D01*
X141044936Y-100114959D01*
X140948682Y-99989518D01*
X140948680Y-99989516D01*
X140948679Y-99989515D01*
X140869796Y-99928986D01*
X140827929Y-99871648D01*
X140820500Y-99829024D01*
X140820500Y-98012746D01*
X140816575Y-97998100D01*
X140816574Y-97998095D01*
X140798320Y-97929966D01*
X140798317Y-97929960D01*
X140797303Y-97928204D01*
X140762515Y-97867948D01*
X140755467Y-97855741D01*
X140755459Y-97855731D01*
X139212268Y-96312540D01*
X139212258Y-96312532D01*
X139138043Y-96269684D01*
X139138041Y-96269683D01*
X139138039Y-96269682D01*
X139055253Y-96247500D01*
X139055251Y-96247500D01*
X138846589Y-96247500D01*
X138778468Y-96227498D01*
X138731975Y-96173842D01*
X138721871Y-96103568D01*
X138724883Y-96088886D01*
X138725647Y-96086038D01*
X138737701Y-96041053D01*
X138737701Y-95955347D01*
X138737701Y-95947630D01*
X138737700Y-95947612D01*
X138737700Y-95282828D01*
X138757702Y-95214707D01*
X138811358Y-95168214D01*
X138881632Y-95158110D01*
X138940404Y-95182866D01*
X138988107Y-95219470D01*
X138998359Y-95227336D01*
X139144438Y-95287844D01*
X139178677Y-95292351D01*
X139243603Y-95321072D01*
X139282696Y-95380337D01*
X139287153Y-95433718D01*
X139279718Y-95490197D01*
X139279718Y-95490200D01*
X139300355Y-95646960D01*
X139352612Y-95773118D01*
X139360864Y-95793041D01*
X139457118Y-95918482D01*
X139582559Y-96014736D01*
X139728638Y-96075244D01*
X139885400Y-96095882D01*
X139890877Y-96096603D01*
X139955804Y-96125325D01*
X139994896Y-96184590D01*
X139999354Y-96237965D01*
X139998718Y-96242797D01*
X139998718Y-96242800D01*
X140019355Y-96399560D01*
X140068208Y-96517500D01*
X140079864Y-96545641D01*
X140176118Y-96671082D01*
X140301559Y-96767336D01*
X140447638Y-96827844D01*
X140535100Y-96839358D01*
X140600026Y-96868080D01*
X140639118Y-96927345D01*
X140643575Y-96980726D01*
X140633718Y-97055599D01*
X140633718Y-97055600D01*
X140654355Y-97212360D01*
X140708577Y-97343262D01*
X140714864Y-97358441D01*
X140811118Y-97483882D01*
X140936559Y-97580136D01*
X141082638Y-97640644D01*
X141239400Y-97661282D01*
X141396162Y-97640644D01*
X141542241Y-97580136D01*
X141667682Y-97483882D01*
X141670734Y-97479903D01*
X141728070Y-97438034D01*
X141798941Y-97433809D01*
X141860845Y-97468570D01*
X141894129Y-97531281D01*
X141896700Y-97556603D01*
X141896700Y-98112824D01*
X141876698Y-98180945D01*
X141823042Y-98227438D01*
X141787147Y-98237746D01*
X141633639Y-98257955D01*
X141487560Y-98318463D01*
X141487557Y-98318465D01*
X141362118Y-98414718D01*
X141265865Y-98540157D01*
X141265863Y-98540160D01*
X141205355Y-98686239D01*
X141184718Y-98842999D01*
X141184718Y-98843000D01*
X141205355Y-98999760D01*
X141259273Y-99129928D01*
X141265864Y-99145841D01*
X141362118Y-99271282D01*
X141487559Y-99367536D01*
X141633638Y-99428044D01*
X141790400Y-99448682D01*
X141947162Y-99428044D01*
X142093241Y-99367536D01*
X142218682Y-99271282D01*
X142314936Y-99145841D01*
X142375444Y-98999762D01*
X142396082Y-98843000D01*
X142387281Y-98776158D01*
X142398219Y-98706013D01*
X142423105Y-98670620D01*
X142482665Y-98611062D01*
X142496759Y-98586650D01*
X142525518Y-98536838D01*
X142547700Y-98454053D01*
X142547700Y-96971347D01*
X142547700Y-96971345D01*
X142547699Y-96971344D01*
X142547419Y-96970300D01*
X142546411Y-96966535D01*
X142525518Y-96888561D01*
X142502378Y-96848482D01*
X142482667Y-96814341D01*
X142482659Y-96814331D01*
X142012405Y-96344077D01*
X141978379Y-96281765D01*
X141975500Y-96254982D01*
X141975500Y-95839016D01*
X141995502Y-95770895D01*
X142049158Y-95724402D01*
X142119432Y-95714298D01*
X142164906Y-95733453D01*
X142166205Y-95731205D01*
X142173355Y-95735333D01*
X142173359Y-95735336D01*
X142319438Y-95795844D01*
X142476200Y-95816482D01*
X142482889Y-95816482D01*
X142551010Y-95836484D01*
X142597503Y-95890140D01*
X142607607Y-95960414D01*
X142599298Y-95990700D01*
X142576955Y-96044639D01*
X142556318Y-96201399D01*
X142556318Y-96201400D01*
X142576955Y-96358160D01*
X142637404Y-96504095D01*
X142637464Y-96504241D01*
X142733718Y-96629682D01*
X142859159Y-96725936D01*
X143005238Y-96786444D01*
X143071253Y-96795135D01*
X143161999Y-96807082D01*
X143161999Y-96807081D01*
X143162000Y-96807082D01*
X143237357Y-96797161D01*
X143307505Y-96808100D01*
X143360604Y-96855228D01*
X143379794Y-96923582D01*
X143370212Y-96970300D01*
X143364356Y-96984437D01*
X143343718Y-97141199D01*
X143343718Y-97141200D01*
X143364355Y-97297960D01*
X143420654Y-97433876D01*
X143424864Y-97444041D01*
X143521118Y-97569482D01*
X143646559Y-97665736D01*
X143792638Y-97726244D01*
X143949400Y-97746882D01*
X144106162Y-97726244D01*
X144252241Y-97665736D01*
X144377682Y-97569482D01*
X144473936Y-97444041D01*
X144534444Y-97297962D01*
X144555082Y-97141200D01*
X144554902Y-97139836D01*
X144540604Y-97031231D01*
X144534444Y-96984438D01*
X144473936Y-96838359D01*
X144377682Y-96712918D01*
X144377680Y-96712916D01*
X144377679Y-96712915D01*
X144324196Y-96671876D01*
X144282329Y-96614538D01*
X144274900Y-96571914D01*
X144274900Y-95657816D01*
X144274901Y-95657803D01*
X144274901Y-95561948D01*
X144274900Y-95561944D01*
X144252720Y-95479168D01*
X144252715Y-95479156D01*
X144237866Y-95453437D01*
X144237866Y-95453438D01*
X144209865Y-95404938D01*
X144149262Y-95344335D01*
X144149260Y-95344333D01*
X144012405Y-95207478D01*
X143978379Y-95145166D01*
X143975500Y-95118383D01*
X143975500Y-94498099D01*
X143995502Y-94429978D01*
X144049158Y-94383485D01*
X144101496Y-94372099D01*
X144252132Y-94372099D01*
X144252135Y-94372098D01*
X144252139Y-94372098D01*
X144274779Y-94367594D01*
X144332495Y-94356115D01*
X144332498Y-94356112D01*
X144343964Y-94351365D01*
X144344714Y-94353176D01*
X144397738Y-94336568D01*
X144455599Y-94352435D01*
X144456042Y-94351366D01*
X144464544Y-94354888D01*
X144466207Y-94355344D01*
X144467225Y-94355998D01*
X144467501Y-94356112D01*
X144467505Y-94356115D01*
X144547867Y-94372100D01*
X144752132Y-94372099D01*
X144752135Y-94372098D01*
X144752139Y-94372098D01*
X144774779Y-94367594D01*
X144832495Y-94356115D01*
X144832498Y-94356112D01*
X144843964Y-94351365D01*
X144844714Y-94353176D01*
X144897738Y-94336568D01*
X144955599Y-94352435D01*
X144956042Y-94351366D01*
X144964544Y-94354888D01*
X144966207Y-94355344D01*
X144967225Y-94355998D01*
X144967501Y-94356112D01*
X144967505Y-94356115D01*
X145047867Y-94372100D01*
X145252132Y-94372099D01*
X145252135Y-94372098D01*
X145252139Y-94372098D01*
X145306311Y-94361323D01*
X145332495Y-94356115D01*
X145423624Y-94295224D01*
X145484515Y-94204095D01*
X145500500Y-94123733D01*
X145500499Y-92741299D01*
X145520501Y-92673179D01*
X145574157Y-92626686D01*
X145626499Y-92615300D01*
X145673500Y-92615300D01*
X145741621Y-92635302D01*
G37*
%TD.AperFunction*%
%TA.AperFunction,Conductor*%
G36*
X138028821Y-94946702D02*
G01*
X138075314Y-95000358D01*
X138086700Y-95052700D01*
X138086700Y-95811183D01*
X138066698Y-95879304D01*
X138049795Y-95900278D01*
X137990878Y-95959195D01*
X137928566Y-95993221D01*
X137901783Y-95996100D01*
X137579322Y-95996100D01*
X137544723Y-95989217D01*
X137544666Y-95989506D01*
X137529287Y-95986447D01*
X137452133Y-95971100D01*
X135997870Y-95971100D01*
X135997860Y-95971101D01*
X135917505Y-95987084D01*
X135831370Y-96044639D01*
X135826376Y-96047976D01*
X135813785Y-96066820D01*
X135765484Y-96139105D01*
X135749500Y-96219464D01*
X135749500Y-96423729D01*
X135749501Y-96423739D01*
X135765485Y-96504094D01*
X135770235Y-96515563D01*
X135768424Y-96516312D01*
X135785031Y-96569357D01*
X135769161Y-96627195D01*
X135770234Y-96627640D01*
X135766694Y-96636185D01*
X135766245Y-96637823D01*
X135765601Y-96638824D01*
X135765485Y-96639104D01*
X135749500Y-96719464D01*
X135749500Y-96923729D01*
X135749501Y-96923739D01*
X135765485Y-97004094D01*
X135770235Y-97015563D01*
X135768424Y-97016312D01*
X135785031Y-97069357D01*
X135769161Y-97127195D01*
X135770234Y-97127640D01*
X135766694Y-97136185D01*
X135766245Y-97137823D01*
X135765601Y-97138824D01*
X135765485Y-97139104D01*
X135749500Y-97219464D01*
X135749500Y-97423729D01*
X135749501Y-97423739D01*
X135765485Y-97504094D01*
X135770235Y-97515563D01*
X135768424Y-97516312D01*
X135785031Y-97569357D01*
X135769161Y-97627195D01*
X135770234Y-97627640D01*
X135766694Y-97636185D01*
X135766245Y-97637823D01*
X135765601Y-97638824D01*
X135765485Y-97639104D01*
X135749500Y-97719464D01*
X135749500Y-97923729D01*
X135749501Y-97923739D01*
X135759916Y-97976098D01*
X135764312Y-97998200D01*
X135765485Y-98004094D01*
X135770235Y-98015563D01*
X135768424Y-98016312D01*
X135785031Y-98069357D01*
X135769161Y-98127195D01*
X135770234Y-98127640D01*
X135766694Y-98136185D01*
X135766245Y-98137823D01*
X135765601Y-98138824D01*
X135765485Y-98139104D01*
X135749500Y-98219464D01*
X135749500Y-98219467D01*
X135749500Y-98318465D01*
X135749501Y-98370099D01*
X135729499Y-98438220D01*
X135675844Y-98484713D01*
X135623501Y-98496100D01*
X133834017Y-98496100D01*
X133765896Y-98476098D01*
X133719403Y-98422442D01*
X133709299Y-98352168D01*
X133738793Y-98287588D01*
X133744921Y-98281005D01*
X133788608Y-98237318D01*
X133845619Y-98180306D01*
X133907929Y-98146283D01*
X133951155Y-98144481D01*
X134018000Y-98153282D01*
X134174762Y-98132644D01*
X134320841Y-98072136D01*
X134446282Y-97975882D01*
X134542536Y-97850441D01*
X134603044Y-97704362D01*
X134623682Y-97547600D01*
X134617954Y-97504095D01*
X134607375Y-97423739D01*
X134603044Y-97390838D01*
X134542536Y-97244759D01*
X134446282Y-97119318D01*
X134320841Y-97023064D01*
X134304540Y-97016312D01*
X134192663Y-96969971D01*
X134174762Y-96962556D01*
X134174761Y-96962555D01*
X134174757Y-96962554D01*
X134166784Y-96960418D01*
X134167567Y-96957493D01*
X134115878Y-96934607D01*
X134076805Y-96875329D01*
X134075983Y-96804337D01*
X134108183Y-96749342D01*
X135173524Y-95684002D01*
X135235834Y-95649979D01*
X135262617Y-95647100D01*
X135870678Y-95647100D01*
X135905276Y-95653982D01*
X135905334Y-95653694D01*
X135917504Y-95656114D01*
X135917505Y-95656115D01*
X135997867Y-95672100D01*
X137452132Y-95672099D01*
X137452135Y-95672098D01*
X137452139Y-95672098D01*
X137506250Y-95661335D01*
X137532495Y-95656115D01*
X137623624Y-95595224D01*
X137684515Y-95504095D01*
X137700500Y-95423733D01*
X137700499Y-95219468D01*
X137700498Y-95219464D01*
X137700498Y-95219460D01*
X137684515Y-95139104D01*
X137673555Y-95122702D01*
X137652340Y-95054949D01*
X137671123Y-94986482D01*
X137723941Y-94939039D01*
X137778320Y-94926700D01*
X137960700Y-94926700D01*
X138028821Y-94946702D01*
G37*
%TD.AperFunction*%
%TD*%
M02*
