%TF.GenerationSoftware,KiCad,Pcbnew,8.0.5*%
%TF.CreationDate,2025-03-11T15:07:16+00:00*%
%TF.ProjectId,UC_V4_4904-30028-06,55435f56-345f-4343-9930-342d33303032,rev?*%
%TF.SameCoordinates,Original*%
%TF.FileFunction,Copper,L1,Top*%
%TF.FilePolarity,Positive*%
%FSLAX46Y46*%
G04 Gerber Fmt 4.6, Leading zero omitted, Abs format (unit mm)*
G04 Created by KiCad (PCBNEW 8.0.5) date 2025-03-11 15:07:16*
%MOMM*%
%LPD*%
G01*
G04 APERTURE LIST*
G04 Aperture macros list*
%AMRoundRect*
0 Rectangle with rounded corners*
0 $1 Rounding radius*
0 $2 $3 $4 $5 $6 $7 $8 $9 X,Y pos of 4 corners*
0 Add a 4 corners polygon primitive as box body*
4,1,4,$2,$3,$4,$5,$6,$7,$8,$9,$2,$3,0*
0 Add four circle primitives for the rounded corners*
1,1,$1+$1,$2,$3*
1,1,$1+$1,$4,$5*
1,1,$1+$1,$6,$7*
1,1,$1+$1,$8,$9*
0 Add four rect primitives between the rounded corners*
20,1,$1+$1,$2,$3,$4,$5,0*
20,1,$1+$1,$4,$5,$6,$7,0*
20,1,$1+$1,$6,$7,$8,$9,0*
20,1,$1+$1,$8,$9,$2,$3,0*%
G04 Aperture macros list end*
%TA.AperFunction,SMDPad,CuDef*%
%ADD10RoundRect,0.225000X0.225000X0.250000X-0.225000X0.250000X-0.225000X-0.250000X0.225000X-0.250000X0*%
%TD*%
%TA.AperFunction,SMDPad,CuDef*%
%ADD11RoundRect,0.200000X0.200000X0.275000X-0.200000X0.275000X-0.200000X-0.275000X0.200000X-0.275000X0*%
%TD*%
%TA.AperFunction,SMDPad,CuDef*%
%ADD12R,0.750000X0.400000*%
%TD*%
%TA.AperFunction,SMDPad,CuDef*%
%ADD13R,0.750000X0.500000*%
%TD*%
%TA.AperFunction,SMDPad,CuDef*%
%ADD14RoundRect,0.250000X0.325000X0.650000X-0.325000X0.650000X-0.325000X-0.650000X0.325000X-0.650000X0*%
%TD*%
%TA.AperFunction,SMDPad,CuDef*%
%ADD15R,1.400000X1.150000*%
%TD*%
%TA.AperFunction,SMDPad,CuDef*%
%ADD16RoundRect,0.225000X-0.250000X0.225000X-0.250000X-0.225000X0.250000X-0.225000X0.250000X0.225000X0*%
%TD*%
%TA.AperFunction,SMDPad,CuDef*%
%ADD17RoundRect,0.225000X0.250000X-0.225000X0.250000X0.225000X-0.250000X0.225000X-0.250000X-0.225000X0*%
%TD*%
%TA.AperFunction,SMDPad,CuDef*%
%ADD18RoundRect,0.200000X-0.200000X-0.275000X0.200000X-0.275000X0.200000X0.275000X-0.200000X0.275000X0*%
%TD*%
%TA.AperFunction,ComponentPad*%
%ADD19R,1.700000X1.700000*%
%TD*%
%TA.AperFunction,ComponentPad*%
%ADD20O,1.700000X1.700000*%
%TD*%
%TA.AperFunction,SMDPad,CuDef*%
%ADD21RoundRect,0.225000X-0.225000X-0.250000X0.225000X-0.250000X0.225000X0.250000X-0.225000X0.250000X0*%
%TD*%
%TA.AperFunction,SMDPad,CuDef*%
%ADD22R,1.800000X1.000000*%
%TD*%
%TA.AperFunction,SMDPad,CuDef*%
%ADD23R,0.406400X0.977900*%
%TD*%
%TA.AperFunction,SMDPad,CuDef*%
%ADD24RoundRect,0.200000X0.275000X-0.200000X0.275000X0.200000X-0.275000X0.200000X-0.275000X-0.200000X0*%
%TD*%
%TA.AperFunction,SMDPad,CuDef*%
%ADD25R,2.000000X2.000000*%
%TD*%
%TA.AperFunction,SMDPad,CuDef*%
%ADD26C,1.000000*%
%TD*%
%TA.AperFunction,SMDPad,CuDef*%
%ADD27RoundRect,0.250000X0.650000X-0.325000X0.650000X0.325000X-0.650000X0.325000X-0.650000X-0.325000X0*%
%TD*%
%TA.AperFunction,SMDPad,CuDef*%
%ADD28R,1.700000X1.700000*%
%TD*%
%TA.AperFunction,SMDPad,CuDef*%
%ADD29O,1.700000X1.700000*%
%TD*%
%TA.AperFunction,SMDPad,CuDef*%
%ADD30RoundRect,0.250000X-0.650000X0.325000X-0.650000X-0.325000X0.650000X-0.325000X0.650000X0.325000X0*%
%TD*%
%TA.AperFunction,SMDPad,CuDef*%
%ADD31R,0.304800X0.533400*%
%TD*%
%TA.AperFunction,ComponentPad*%
%ADD32R,2.400000X2.400000*%
%TD*%
%TA.AperFunction,ComponentPad*%
%ADD33C,2.400000*%
%TD*%
%TA.AperFunction,ViaPad*%
%ADD34C,0.800000*%
%TD*%
%TA.AperFunction,Conductor*%
%ADD35C,0.250000*%
%TD*%
%TA.AperFunction,Conductor*%
%ADD36C,0.200000*%
%TD*%
%TA.AperFunction,Conductor*%
%ADD37C,0.500000*%
%TD*%
G04 APERTURE END LIST*
D10*
%TO.P,C13,1*%
%TO.N,/+3V3*%
X133853200Y-101052800D03*
%TO.P,C13,2*%
%TO.N,GND*%
X132303200Y-101052800D03*
%TD*%
D11*
%TO.P,R2,1*%
%TO.N,/SCLe*%
X140532600Y-92213600D03*
%TO.P,R2,2*%
%TO.N,/+3V3*%
X138882600Y-92213600D03*
%TD*%
D12*
%TO.P,U9,1*%
%TO.N,unconnected-(U9-Pad1)*%
X163758600Y-99762000D03*
D13*
%TO.P,U9,2,GND*%
%TO.N,GND*%
X163758600Y-98462000D03*
D12*
%TO.P,U9,3*%
%TO.N,/NRST*%
X162108600Y-98462000D03*
%TO.P,U9,4,VCC*%
%TO.N,/+3V3*%
X162108600Y-99762000D03*
%TD*%
D14*
%TO.P,C7,1*%
%TO.N,/VDDA*%
X144941800Y-103846800D03*
%TO.P,C7,2*%
%TO.N,GND*%
X141991800Y-103846800D03*
%TD*%
D15*
%TO.P,XTAL1,1,1*%
%TO.N,/OSC_OUT*%
X152603000Y-98728600D03*
%TO.P,XTAL1,2,2*%
%TO.N,GND*%
X154803000Y-98728600D03*
%TO.P,XTAL1,3,3*%
%TO.N,/OSC_IN*%
X154803000Y-97128600D03*
%TO.P,XTAL1,4,4*%
%TO.N,GND*%
X152603000Y-97128600D03*
%TD*%
D16*
%TO.P,C49,1*%
%TO.N,/NRST*%
X167531000Y-98311600D03*
%TO.P,C49,2*%
%TO.N,GND*%
X167531000Y-99861600D03*
%TD*%
D17*
%TO.P,C9,1*%
%TO.N,GND*%
X119468200Y-102548200D03*
%TO.P,C9,2*%
%TO.N,/+3V3_SD*%
X119468200Y-100998200D03*
%TD*%
D18*
%TO.P,R1,1*%
%TO.N,/SDAe*%
X147264600Y-92797800D03*
%TO.P,R1,2*%
%TO.N,/+3V3*%
X148914600Y-92797800D03*
%TD*%
D17*
%TO.P,C1,1*%
%TO.N,GND*%
X125558200Y-103613200D03*
%TO.P,C1,2*%
%TO.N,/+3V3_SD*%
X125558200Y-102063200D03*
%TD*%
%TO.P,C29,1*%
%TO.N,/+3V3*%
X136710400Y-100100600D03*
%TO.P,C29,2*%
%TO.N,GND*%
X136710400Y-98550600D03*
%TD*%
D19*
%TO.P,J4,1,Pin_1*%
%TO.N,GND*%
X133418200Y-92198200D03*
D20*
%TO.P,J4,2,Pin_2*%
%TO.N,/SWDIO*%
X130878200Y-92198200D03*
%TO.P,J4,3,Pin_3*%
%TO.N,/SWCLK*%
X128338200Y-92198200D03*
%TO.P,J4,4,Pin_4*%
%TO.N,/+3V3*%
X125798200Y-92198200D03*
%TD*%
D21*
%TO.P,C5,1*%
%TO.N,GND*%
X114243200Y-91848200D03*
%TO.P,C5,2*%
%TO.N,/+3V3*%
X115793200Y-91848200D03*
%TD*%
D22*
%TO.P,Y1,1,1*%
%TO.N,/OSC32_IN*%
X152610800Y-92406000D03*
%TO.P,Y1,2,2*%
%TO.N,/OSC32_OUT*%
X152610800Y-94906000D03*
%TD*%
D23*
%TO.P,U2,1,VIN*%
%TO.N,/+5V*%
X117578400Y-94638050D03*
%TO.P,U2,2,GND*%
%TO.N,GND*%
X118518200Y-94638050D03*
%TO.P,U2,3,EN*%
%TO.N,/+5V*%
X119458000Y-94638050D03*
%TO.P,U2,4,NC*%
%TO.N,unconnected-(U2-NC-Pad4)*%
X119470700Y-91958350D03*
%TO.P,U2,5,VOUT*%
%TO.N,/+3V3*%
X117565700Y-91958350D03*
%TD*%
D14*
%TO.P,C12,1*%
%TO.N,Net-(U1A-VCAP)*%
X134731000Y-103669000D03*
%TO.P,C12,2*%
%TO.N,GND*%
X131781000Y-103669000D03*
%TD*%
D21*
%TO.P,C50,1*%
%TO.N,/OSC32_IN*%
X154655200Y-93204200D03*
%TO.P,C50,2*%
%TO.N,GND*%
X156205200Y-93204200D03*
%TD*%
D14*
%TO.P,C4,1*%
%TO.N,/+3V3_SD*%
X113643200Y-98823200D03*
%TO.P,C4,2*%
%TO.N,GND*%
X110693200Y-98823200D03*
%TD*%
D24*
%TO.P,R64,1*%
%TO.N,/+3V3*%
X165880000Y-99911600D03*
%TO.P,R64,2*%
%TO.N,/NRST*%
X165880000Y-98261600D03*
%TD*%
D16*
%TO.P,C27,1*%
%TO.N,/+3V3*%
X122892800Y-95883600D03*
%TO.P,C27,2*%
%TO.N,GND*%
X122892800Y-97433600D03*
%TD*%
D25*
%TO.P,SW1,1,1*%
%TO.N,/Magnet*%
X138072800Y-116327600D03*
%TO.P,SW1,2,2*%
%TO.N,GND*%
X122952800Y-116327600D03*
%TD*%
D26*
%TO.P,FID2,*%
%TO.N,*%
X101531400Y-91832600D03*
%TD*%
D21*
%TO.P,C51,1*%
%TO.N,/OSC32_OUT*%
X154655200Y-94880600D03*
%TO.P,C51,2*%
%TO.N,GND*%
X156205200Y-94880600D03*
%TD*%
D27*
%TO.P,C11,1*%
%TO.N,GND*%
X115868200Y-104603200D03*
%TO.P,C11,2*%
%TO.N,/+3V3_SD*%
X115868200Y-101653200D03*
%TD*%
D18*
%TO.P,R3,1*%
%TO.N,/VBAT*%
X177563200Y-96638200D03*
%TO.P,R3,2*%
%TO.N,/Uext*%
X179213200Y-96638200D03*
%TD*%
%TO.P,R4,1*%
%TO.N,/+3V3*%
X133574000Y-105853400D03*
%TO.P,R4,2*%
%TO.N,/Magnet*%
X135224000Y-105853400D03*
%TD*%
D28*
%TO.P,J1,1,Pin_1*%
%TO.N,GND*%
X133340000Y-89416600D03*
D29*
%TO.P,J1,2,Pin_2*%
%TO.N,/SWDIO*%
X130800000Y-89416600D03*
%TO.P,J1,3,Pin_3*%
%TO.N,/SWCLK*%
X128260000Y-89416600D03*
%TO.P,J1,4,Pin_4*%
%TO.N,/+3V3*%
X125720000Y-89416600D03*
%TD*%
D23*
%TO.P,U6,1,VIN*%
%TO.N,/+5V*%
X119483000Y-96833350D03*
%TO.P,U6,2,GND*%
%TO.N,GND*%
X118543200Y-96833350D03*
%TO.P,U6,3,EN*%
%TO.N,/Main*%
X117603400Y-96833350D03*
%TO.P,U6,4,NC*%
%TO.N,unconnected-(U6-NC-Pad4)*%
X117590700Y-99513050D03*
%TO.P,U6,5,VOUT*%
%TO.N,/+3V3_SD*%
X119495700Y-99513050D03*
%TD*%
D10*
%TO.P,C10,1*%
%TO.N,/+5V*%
X115843200Y-94248200D03*
%TO.P,C10,2*%
%TO.N,GND*%
X114293200Y-94248200D03*
%TD*%
%TO.P,C8,1*%
%TO.N,/VDDA*%
X144064000Y-101738600D03*
%TO.P,C8,2*%
%TO.N,GND*%
X142514000Y-101738600D03*
%TD*%
D21*
%TO.P,C28,1*%
%TO.N,/+3V3*%
X147289200Y-103059400D03*
%TO.P,C28,2*%
%TO.N,GND*%
X148839200Y-103059400D03*
%TD*%
D30*
%TO.P,C30,1*%
%TO.N,/+3V3*%
X125051800Y-94956800D03*
%TO.P,C30,2*%
%TO.N,GND*%
X125051800Y-97906800D03*
%TD*%
D10*
%TO.P,C2,1*%
%TO.N,/OSC_OUT*%
X148940800Y-97827000D03*
%TO.P,C2,2*%
%TO.N,GND*%
X147390800Y-97827000D03*
%TD*%
D31*
%TO.P,D2,1,A1*%
%TO.N,GND*%
X163413600Y-93550400D03*
%TO.P,D2,2,A2*%
%TO.N,/VBAT*%
X163413600Y-94769600D03*
%TD*%
D10*
%TO.P,C3,1*%
%TO.N,/OSC_IN*%
X148940800Y-96252200D03*
%TO.P,C3,2*%
%TO.N,GND*%
X147390800Y-96252200D03*
%TD*%
D32*
%TO.P,BT1,1,+*%
%TO.N,/Uext*%
X181618200Y-96648200D03*
D33*
%TO.P,BT1,2,-*%
%TO.N,GND*%
X202618200Y-96648200D03*
%TO.P,BT1,3,-*%
X202618200Y-92898200D03*
%TO.P,BT1,4,-*%
X202618200Y-100398200D03*
%TD*%
D17*
%TO.P,C6,1*%
%TO.N,/+5V*%
X121143200Y-94023200D03*
%TO.P,C6,2*%
%TO.N,GND*%
X121143200Y-92473200D03*
%TD*%
D26*
%TO.P,FID1,*%
%TO.N,*%
X182608200Y-118604200D03*
%TD*%
D19*
%TO.P,J3,1,Pin_1*%
%TO.N,/+5V*%
X101108200Y-110148200D03*
D20*
%TO.P,J3,2,Pin_2*%
X101108200Y-107608200D03*
%TO.P,J3,3,Pin_3*%
%TO.N,GND*%
X103648200Y-110148200D03*
%TO.P,J3,4,Pin_4*%
X103648200Y-107608200D03*
%TO.P,J3,5,Pin_5*%
X106188200Y-110148200D03*
%TO.P,J3,6,Pin_6*%
X106188200Y-107608200D03*
%TD*%
D34*
%TO.N,GND*%
X103648200Y-90638200D03*
X152728200Y-107608200D03*
X121428200Y-113498200D03*
X168925400Y-99595600D03*
X123968200Y-118578200D03*
X126508200Y-118578200D03*
X106188200Y-118578200D03*
X187468200Y-90638200D03*
X174742000Y-117578800D03*
X177282000Y-117553400D03*
X108728200Y-116038200D03*
X106188200Y-113498200D03*
X202708200Y-100798200D03*
X106188200Y-103338200D03*
X111268200Y-110958200D03*
X116348200Y-118578200D03*
X123968200Y-113498200D03*
X111268200Y-108418200D03*
X116348200Y-116038200D03*
X197628200Y-93178200D03*
X121428200Y-105878200D03*
X120182800Y-103685000D03*
X174768200Y-95718200D03*
X197628200Y-90638200D03*
X168823800Y-110568400D03*
X126508200Y-105878200D03*
X106188200Y-116038200D03*
X112715200Y-91340600D03*
X111268200Y-116038200D03*
X107393200Y-98798200D03*
X121428200Y-118578200D03*
X106188200Y-93178200D03*
X141018200Y-90898200D03*
X169688200Y-93178200D03*
X116348200Y-103338200D03*
X145854400Y-94956800D03*
X111268200Y-100798200D03*
X108728200Y-105878200D03*
X134128200Y-116038200D03*
X121428200Y-110958200D03*
X101108200Y-118578200D03*
X111268200Y-105878200D03*
X118888200Y-108418200D03*
X126508200Y-108418200D03*
X103648200Y-105878200D03*
X202818200Y-108448200D03*
X157030400Y-94118600D03*
X106188200Y-105878200D03*
X164302600Y-118671000D03*
X150756600Y-102805400D03*
X135194200Y-97766800D03*
X190008200Y-90638200D03*
X123568200Y-100123200D03*
X200168200Y-95718200D03*
X111268200Y-118578200D03*
X200168200Y-93178200D03*
X190008200Y-95718200D03*
X130309600Y-103694400D03*
X113808200Y-105878200D03*
X123968200Y-105878200D03*
X113808200Y-116038200D03*
X118693200Y-93798200D03*
X103648200Y-103338200D03*
X202708200Y-110958200D03*
X116348200Y-110958200D03*
X131588200Y-118578200D03*
X113808200Y-103338200D03*
X145709800Y-106016000D03*
X190008200Y-118578200D03*
X121368200Y-95298200D03*
X108728200Y-100798200D03*
X121428200Y-108418200D03*
X129048200Y-118578200D03*
X171490800Y-118086800D03*
X202708200Y-113498200D03*
X164759800Y-111584400D03*
X108728200Y-110958200D03*
X174768200Y-98258200D03*
X118888200Y-116038200D03*
X123968200Y-108418200D03*
X108728200Y-113498200D03*
X113808200Y-108418200D03*
X126508200Y-116038200D03*
X161568200Y-94898200D03*
X106188200Y-90638200D03*
X118888200Y-118578200D03*
X142577800Y-100392400D03*
X156166800Y-99071600D03*
X116348200Y-90638200D03*
X107693200Y-91673200D03*
X167503000Y-118594800D03*
X126508200Y-110958200D03*
X172228200Y-93178200D03*
X116348200Y-108418200D03*
X190008200Y-116038200D03*
X200168200Y-113498200D03*
X184928200Y-110958200D03*
X123493200Y-102598200D03*
X118888200Y-110958200D03*
X113808200Y-110958200D03*
X103648200Y-100798200D03*
X126508200Y-113498200D03*
X103648200Y-98258200D03*
X118328600Y-95836400D03*
X202708200Y-103338200D03*
X171287600Y-114607000D03*
X109895800Y-97182600D03*
X164686200Y-97958500D03*
X103648200Y-93178200D03*
X118888200Y-113498200D03*
X116348200Y-113498200D03*
X117515800Y-105818600D03*
X187468200Y-93178200D03*
X108728200Y-93178200D03*
X108728200Y-108418200D03*
X143212800Y-103135600D03*
X113808200Y-118578200D03*
X166055200Y-117578800D03*
X130716000Y-101052800D03*
X103648200Y-113498200D03*
X123318200Y-92448200D03*
X111268200Y-93178200D03*
X108728200Y-118578200D03*
X136668200Y-90638200D03*
X197628200Y-116038200D03*
X164683600Y-110212800D03*
X197628200Y-95718200D03*
X113808200Y-113498200D03*
X106188200Y-100798200D03*
X123968200Y-110958200D03*
X121478200Y-91467600D03*
X111268200Y-113498200D03*
%TO.N,/OSC_OUT*%
X150993000Y-97614400D03*
%TO.N,/OSC_IN*%
X150477200Y-96734800D03*
%TO.N,/VDDA*%
X146235400Y-101738600D03*
%TO.N,Net-(U1A-VCAP)*%
X136177000Y-103643600D03*
%TO.N,/SDAT7*%
X157068200Y-115668200D03*
X132458200Y-107378200D03*
X138796136Y-97468464D03*
X139838200Y-112208200D03*
%TO.N,/uDTR*%
X183318200Y-106428200D03*
X179498200Y-114018200D03*
%TO.N,/uDCD*%
X178508200Y-113228200D03*
X182388200Y-107168200D03*
%TO.N,/uPWRKEY*%
X180838200Y-106968200D03*
X178768200Y-111438200D03*
%TO.N,/Alim*%
X157088200Y-118978200D03*
X172678200Y-113478200D03*
X144288200Y-109638200D03*
X143271400Y-108536400D03*
%TO.N,/uStatus*%
X177698200Y-112348200D03*
X181678200Y-108028200D03*
%TO.N,/SD_D2*%
X139301200Y-94702800D03*
X131528800Y-95642600D03*
%TO.N,/SD_D3*%
X139885400Y-95490200D03*
X133306800Y-95515600D03*
%TO.N,/SD_CMD*%
X141239400Y-97055600D03*
X132875000Y-96353800D03*
%TO.N,/SD_CLK*%
X140604400Y-96242800D03*
X134018000Y-97547600D03*
%TO.N,/SD_D1*%
X129458011Y-98913011D03*
X127490200Y-99605000D03*
%TO.N,/SYN*%
X140428200Y-117628200D03*
X161388200Y-117318200D03*
%TO.N,/SCL*%
X158638400Y-116486600D03*
X129065000Y-100951200D03*
X142508200Y-116028200D03*
X130538200Y-98716000D03*
%TO.N,/SDAT2*%
X167598200Y-112788200D03*
X142198200Y-110968200D03*
%TO.N,/SCS*%
X160388200Y-116938200D03*
X139078200Y-113168200D03*
%TO.N,/SDAT3*%
X142331600Y-112219400D03*
X166578200Y-113278200D03*
%TO.N,/SDAT4*%
X165558200Y-113618200D03*
X137258200Y-110108200D03*
%TO.N,/SDAT5*%
X164848200Y-117228200D03*
X140978200Y-113218200D03*
%TO.N,/SDAT6*%
X131444197Y-110888200D03*
X163688200Y-117418200D03*
%TO.N,/+3V3*%
X150318200Y-92898200D03*
X138107400Y-91121400D03*
X138166000Y-102770600D03*
X169738200Y-117604200D03*
X129352200Y-105412200D03*
X170652600Y-115699200D03*
X132528394Y-97702259D03*
X186248200Y-114175200D03*
X160899000Y-99519400D03*
X169382600Y-113286200D03*
X130139600Y-102211800D03*
X161229200Y-91950200D03*
X146184600Y-102856200D03*
%TO.N,/RS485_RxD*%
X153668200Y-118382700D03*
X139501227Y-98283332D03*
%TO.N,/IRQ2*%
X150688200Y-111736800D03*
X163668200Y-110718200D03*
%TO.N,/READY*%
X179542600Y-117909000D03*
X147183000Y-115597600D03*
%TO.N,/SCLK*%
X155278200Y-106358200D03*
X149738200Y-106728200D03*
%TO.N,/MISO*%
X157266800Y-107012400D03*
X165848200Y-109788200D03*
%TO.N,/MOSI*%
X167028200Y-109728200D03*
X151247000Y-109349200D03*
%TO.N,/SS*%
X167655400Y-106479000D03*
X150147000Y-101789400D03*
%TO.N,/RS485_TxD*%
X155728200Y-118798200D03*
X131638200Y-112117800D03*
X138648600Y-99240000D03*
%TO.N,/RS485_DE*%
X146268200Y-111388200D03*
X161638200Y-109968200D03*
X148378200Y-110388200D03*
X140520400Y-100417800D03*
%TO.N,/NRST*%
X161119800Y-97903200D03*
%TO.N,/OSC32_IN*%
X150891400Y-93829800D03*
%TO.N,/OSC32_OUT*%
X151145400Y-94972800D03*
%TO.N,/Magnet*%
X137785000Y-114708600D03*
X138893200Y-107348200D03*
X129678200Y-114888200D03*
X141790400Y-98843000D03*
X135676800Y-106910800D03*
%TO.N,/BT_RxD*%
X149558200Y-104338200D03*
X147128200Y-107248200D03*
X173658200Y-105108200D03*
X152568200Y-103898200D03*
%TO.N,/BT_TxD*%
X142814200Y-107444200D03*
X149621400Y-105437600D03*
X172608200Y-105518200D03*
X152498200Y-105018200D03*
%TO.N,/LED3*%
X177308200Y-104618200D03*
X142476200Y-95210800D03*
%TO.N,/LED2*%
X143162000Y-96201400D03*
X177178200Y-105728200D03*
%TO.N,/LED1*%
X143949400Y-97141200D03*
X175328200Y-105208200D03*
%TO.N,/SDAe*%
X148013400Y-92289800D03*
%TO.N,/SCLe*%
X145125600Y-91670800D03*
%TO.N,/StartMasura*%
X162608200Y-110368200D03*
X141493400Y-107596600D03*
%TO.N,/Main*%
X137269200Y-92747000D03*
X120343200Y-95802500D03*
X126728200Y-94474200D03*
%TO.N,/BT_RTS*%
X176618200Y-98148200D03*
X175808200Y-109708200D03*
%TO.N,/BT_CTS*%
X165518200Y-91548200D03*
X174608200Y-109908200D03*
%TO.N,/Mains*%
X180398200Y-100968200D03*
X183008200Y-101188200D03*
X146286200Y-98385800D03*
X170938200Y-108538200D03*
%TO.N,/+3V3_SD*%
X114891800Y-97039600D03*
X128443200Y-97623200D03*
%TO.N,/VBAT*%
X148978600Y-94499600D03*
%TD*%
D35*
%TO.N,/BT_RTS*%
X177190000Y-98720000D02*
X176618200Y-98148200D01*
X181720000Y-101720000D02*
X181720000Y-100130000D01*
X178888200Y-107408200D02*
X178888200Y-104551800D01*
X178888200Y-104551800D02*
X181720000Y-101720000D01*
X180310000Y-98720000D02*
X177190000Y-98720000D01*
X175858200Y-109658200D02*
X176638200Y-109658200D01*
X176638200Y-109658200D02*
X178888200Y-107408200D01*
X175808200Y-109708200D02*
X175858200Y-109658200D01*
X181720000Y-100130000D02*
X180310000Y-98720000D01*
%TO.N,/BT_CTS*%
X166199000Y-90867400D02*
X165518200Y-91548200D01*
X184237400Y-90867400D02*
X166199000Y-90867400D01*
X184918200Y-91548200D02*
X184237400Y-90867400D01*
X184918200Y-97221800D02*
X184918200Y-91548200D01*
X182130000Y-100010000D02*
X184918200Y-97221800D01*
X182130000Y-101996400D02*
X182130000Y-100010000D01*
X179528200Y-107518200D02*
X179528200Y-104598200D01*
X176548200Y-110498200D02*
X179528200Y-107518200D01*
X179528200Y-104598200D02*
X182130000Y-101996400D01*
X174798200Y-110498200D02*
X176548200Y-110498200D01*
X174608200Y-110308200D02*
X174798200Y-110498200D01*
X174608200Y-109908200D02*
X174608200Y-110308200D01*
%TO.N,/VBAT*%
X176008200Y-95898200D02*
X176748200Y-96638200D01*
X176748200Y-96638200D02*
X177563200Y-96638200D01*
X175058200Y-94418200D02*
X176008200Y-95368200D01*
X176008200Y-95368200D02*
X176008200Y-95898200D01*
X170058200Y-94418200D02*
X175058200Y-94418200D01*
X164144200Y-95868200D02*
X168608200Y-95868200D01*
X164141200Y-95871200D02*
X164144200Y-95868200D01*
X163499200Y-95871200D02*
X164141200Y-95871200D01*
X168608200Y-95868200D02*
X170058200Y-94418200D01*
D36*
%TO.N,/Uext*%
X181608200Y-96638200D02*
X181618200Y-96648200D01*
D35*
X179213200Y-96638200D02*
X181608200Y-96638200D01*
%TO.N,GND*%
X121143200Y-92473200D02*
X123293200Y-92473200D01*
X113222800Y-91848200D02*
X112715200Y-91340600D01*
X107418200Y-98823200D02*
X107393200Y-98798200D01*
X135237200Y-98716000D02*
X136545000Y-98716000D01*
X122892800Y-97433600D02*
X122028600Y-97433600D01*
D36*
X133418200Y-89494800D02*
X133340000Y-89416600D01*
D35*
X135194200Y-97766800D02*
X135978000Y-98550600D01*
X163758600Y-98462000D02*
X164142400Y-98462000D01*
X130335000Y-103669000D02*
X130309600Y-103694400D01*
D37*
X116300400Y-104603200D02*
X115868200Y-104603200D01*
D35*
X150553400Y-103719800D02*
X149893000Y-103059400D01*
X156992000Y-94080200D02*
X157030400Y-94118600D01*
D37*
X120182800Y-103685000D02*
X119468200Y-102970400D01*
D35*
X135978000Y-98550600D02*
X136710400Y-98550600D01*
X156205200Y-94080200D02*
X156205200Y-93204200D01*
X142514000Y-101738600D02*
X142514000Y-100456200D01*
X146438600Y-96252200D02*
X145854400Y-95668000D01*
X124578600Y-97433600D02*
X125051800Y-97906800D01*
X132303200Y-100329200D02*
X133002000Y-99630400D01*
X114293200Y-91898200D02*
X114243200Y-91848200D01*
D36*
X133418200Y-92198200D02*
X133418200Y-89494800D01*
D35*
X164686200Y-97918200D02*
X164686200Y-97958500D01*
X107668200Y-91848200D02*
X107643200Y-91823200D01*
X147390800Y-97827000D02*
X147390800Y-96252200D01*
D36*
X152603000Y-97128600D02*
X152869400Y-97128600D01*
D35*
X146168200Y-91048200D02*
X146018200Y-90898200D01*
X141991800Y-103569200D02*
X142425400Y-103135600D01*
X121143200Y-92473200D02*
X121143200Y-91802600D01*
X149893000Y-103059400D02*
X148839200Y-103059400D01*
X145854400Y-95668000D02*
X145854400Y-94956800D01*
X123293200Y-92473200D02*
X123318200Y-92448200D01*
X121343200Y-95323200D02*
X121368200Y-95298200D01*
X167797000Y-99595600D02*
X167531000Y-99861600D01*
X133002000Y-99630400D02*
X134322800Y-99630400D01*
X145854400Y-94956800D02*
X146168200Y-94643000D01*
D37*
X119468200Y-102970400D02*
X119468200Y-102548200D01*
D35*
X147390800Y-96252200D02*
X146438600Y-96252200D01*
X141991800Y-102260800D02*
X142514000Y-101738600D01*
X118543200Y-96051000D02*
X118328600Y-95836400D01*
D37*
X117515800Y-105818600D02*
X116300400Y-104603200D01*
D35*
X156205200Y-94880600D02*
X156205200Y-94080200D01*
D36*
X110693200Y-97980000D02*
X109895800Y-97182600D01*
D35*
X134322800Y-99630400D02*
X135237200Y-98716000D01*
X150553400Y-105433400D02*
X150553400Y-103719800D01*
X156205200Y-94880600D02*
X161550600Y-94880600D01*
X155823800Y-98728600D02*
X156166800Y-99071600D01*
X123493200Y-103443200D02*
X123663200Y-103613200D01*
X122892800Y-97433600D02*
X124578600Y-97433600D01*
X131781000Y-103669000D02*
X130335000Y-103669000D01*
X132303200Y-101052800D02*
X132303200Y-100329200D01*
X114243200Y-91848200D02*
X113222800Y-91848200D01*
X132303200Y-101052800D02*
X130716000Y-101052800D01*
D36*
X154469400Y-98728600D02*
X154803000Y-98728600D01*
D35*
X142514000Y-100456200D02*
X142577800Y-100392400D01*
X118543200Y-96833350D02*
X118543200Y-96051000D01*
X121143200Y-91802600D02*
X121478200Y-91467600D01*
X123493200Y-102598200D02*
X123493200Y-103443200D01*
X118518200Y-93973200D02*
X118693200Y-93798200D01*
X152728200Y-107608200D02*
X150553400Y-105433400D01*
X107643200Y-91723200D02*
X107693200Y-91673200D01*
X141991800Y-103846800D02*
X141991800Y-103569200D01*
X136545000Y-98716000D02*
X136710400Y-98550600D01*
D36*
X110693200Y-98823200D02*
X110693200Y-97980000D01*
D35*
X146168200Y-94643000D02*
X146168200Y-91048200D01*
X142425400Y-103135600D02*
X143212800Y-103135600D01*
X150502600Y-103059400D02*
X150756600Y-102805400D01*
X154803000Y-98728600D02*
X155823800Y-98728600D01*
X114293200Y-94248200D02*
X114293200Y-91898200D01*
X122028600Y-97433600D02*
X121343200Y-96748200D01*
X118518200Y-94638050D02*
X118518200Y-93973200D01*
X148839200Y-103059400D02*
X150502600Y-103059400D01*
X125051800Y-97906800D02*
X123568200Y-99390400D01*
X123568200Y-99390400D02*
X123568200Y-100123200D01*
X168925400Y-99595600D02*
X167797000Y-99595600D01*
X125558200Y-103613200D02*
X123663200Y-103613200D01*
X121343200Y-96748200D02*
X121343200Y-95323200D01*
X141991800Y-103846800D02*
X141991800Y-102260800D01*
X107643200Y-91823200D02*
X107643200Y-91723200D01*
X156205200Y-94080200D02*
X156992000Y-94080200D01*
D36*
X152869400Y-97128600D02*
X154469400Y-98728600D01*
X133418200Y-89894800D02*
X133340000Y-89816600D01*
D35*
X146018200Y-90898200D02*
X141018200Y-90898200D01*
X164142400Y-98462000D02*
X164686200Y-97918200D01*
%TO.N,/OSC_OUT*%
X150993000Y-97614400D02*
X150780400Y-97827000D01*
X150780400Y-97827000D02*
X148940800Y-97827000D01*
X150646822Y-97960578D02*
X150646822Y-98149022D01*
X150993000Y-97614400D02*
X150646822Y-97960578D01*
X150646822Y-98149022D02*
X151226400Y-98728600D01*
X151226400Y-98728600D02*
X152603000Y-98728600D01*
%TO.N,/OSC_IN*%
X154033200Y-96252200D02*
X154803000Y-97022000D01*
X148940800Y-96252200D02*
X149994600Y-96252200D01*
X150959800Y-96252200D02*
X154033200Y-96252200D01*
X149994600Y-96252200D02*
X150477200Y-96734800D01*
X154803000Y-97022000D02*
X154803000Y-97128600D01*
X150477200Y-96734800D02*
X150959800Y-96252200D01*
%TO.N,/VDDA*%
X145067000Y-101738600D02*
X144064000Y-101738600D01*
X144941800Y-103846800D02*
X144941800Y-101863800D01*
X146235400Y-101738600D02*
X145067000Y-101738600D01*
X144941800Y-101863800D02*
X145067000Y-101738600D01*
%TO.N,Net-(U1A-VCAP)*%
X136177000Y-103643600D02*
X134756400Y-103643600D01*
X134756400Y-103643600D02*
X134731000Y-103669000D01*
%TO.N,/SDAT7*%
X157068200Y-115598200D02*
X157068200Y-115668200D01*
X138796136Y-97468464D02*
X138491336Y-97468464D01*
X137861200Y-100764000D02*
X138877200Y-101780000D01*
X136648200Y-105978200D02*
X136648200Y-106938200D01*
X138877200Y-101780000D02*
X138877200Y-103749200D01*
X156408200Y-114938200D02*
X157068200Y-115598200D01*
X136648200Y-106938200D02*
X135678200Y-107908200D01*
X135678200Y-107908200D02*
X132988200Y-107908200D01*
X139838200Y-113448200D02*
X139838200Y-112208200D01*
X137861200Y-98098600D02*
X137861200Y-100764000D01*
X132988200Y-107908200D02*
X132458200Y-107378200D01*
X138877200Y-103749200D02*
X136648200Y-105978200D01*
X141328200Y-114938200D02*
X139838200Y-113448200D01*
X156408200Y-114938200D02*
X141328200Y-114938200D01*
X138491336Y-97468464D02*
X137861200Y-98098600D01*
%TO.N,/uDTR*%
X184068200Y-107128200D02*
X183368200Y-106428200D01*
X179498200Y-114018200D02*
X183288200Y-114018200D01*
X183288200Y-114018200D02*
X184068200Y-113238200D01*
X184068200Y-113238200D02*
X184068200Y-107128200D01*
X183368200Y-106428200D02*
X183318200Y-106428200D01*
%TO.N,/uDCD*%
X182978200Y-113468200D02*
X183458200Y-112988200D01*
X179708200Y-113228200D02*
X179948200Y-113468200D01*
X183458200Y-112988200D02*
X183458200Y-108238200D01*
X178508200Y-113228200D02*
X179708200Y-113228200D01*
X179948200Y-113468200D02*
X182978200Y-113468200D01*
X183458200Y-108238200D02*
X182388200Y-107168200D01*
%TO.N,/uPWRKEY*%
X178768200Y-111438200D02*
X180781000Y-109425400D01*
X180781000Y-109425400D02*
X180787200Y-109425400D01*
X180838200Y-109374400D02*
X180838200Y-106968200D01*
X180787200Y-109425400D02*
X180838200Y-109374400D01*
%TO.N,/SWDIO*%
X130878200Y-92198200D02*
X130878200Y-89494800D01*
X130878200Y-89494800D02*
X130800000Y-89416600D01*
%TO.N,/SWCLK*%
X128260000Y-92120000D02*
X128260000Y-89416600D01*
X128338200Y-92198200D02*
X128260000Y-92120000D01*
%TO.N,/Alim*%
X172678200Y-113478200D02*
X172728200Y-113528200D01*
X157644600Y-119534600D02*
X157088200Y-118978200D01*
X172728200Y-118188200D02*
X171381800Y-119534600D01*
X172728200Y-113528200D02*
X172728200Y-118188200D01*
X171381800Y-119534600D02*
X157644600Y-119534600D01*
X143271400Y-108536400D02*
X144288200Y-109553200D01*
X144288200Y-109553200D02*
X144288200Y-109638200D01*
%TO.N,/uStatus*%
X182908200Y-112328200D02*
X182908200Y-109258200D01*
X179688200Y-112348200D02*
X180278200Y-112938200D01*
X182908200Y-109258200D02*
X181678200Y-108028200D01*
X180278200Y-112938200D02*
X182298200Y-112938200D01*
X182298200Y-112938200D02*
X182908200Y-112328200D01*
X177698200Y-112348200D02*
X179688200Y-112348200D01*
%TO.N,/SD_D2*%
X131528800Y-95642600D02*
X132373200Y-94798200D01*
X139205800Y-94798200D02*
X139301200Y-94702800D01*
X132373200Y-94798200D02*
X139205800Y-94798200D01*
%TO.N,/SD_D3*%
X139860000Y-95515600D02*
X139885400Y-95490200D01*
X133306800Y-95515600D02*
X139860000Y-95515600D01*
%TO.N,/SD_CMD*%
X140164800Y-96912600D02*
X140164800Y-96920800D01*
X140164800Y-96920800D02*
X140426600Y-97182600D01*
X140426600Y-97182600D02*
X141112400Y-97182600D01*
X139379300Y-96127100D02*
X140164800Y-96912600D01*
X132875000Y-96353800D02*
X133687800Y-96353800D01*
X133687800Y-96353800D02*
X133914500Y-96127100D01*
X141112400Y-97182600D02*
X141239400Y-97055600D01*
X133914500Y-96127100D02*
X139379300Y-96127100D01*
%TO.N,/SD_CLK*%
X134018000Y-97420600D02*
X134515511Y-96923089D01*
X141628600Y-96319000D02*
X141620400Y-96319000D01*
X140714200Y-98097000D02*
X141671200Y-98097000D01*
X134515511Y-96923089D02*
X138243311Y-96923089D01*
X141671200Y-98097000D02*
X142069800Y-97698400D01*
X141493400Y-96192000D02*
X140655200Y-96192000D01*
X138556800Y-96609600D02*
X139226800Y-96609600D01*
X142069800Y-97698400D02*
X142069800Y-96760200D01*
X134018000Y-97547600D02*
X134018000Y-97420600D01*
X140655200Y-96192000D02*
X140604400Y-96242800D01*
X142069800Y-96760200D02*
X141628600Y-96319000D01*
X141620400Y-96319000D02*
X141493400Y-96192000D01*
X139226800Y-96609600D02*
X140714200Y-98097000D01*
X138243311Y-96923089D02*
X138556800Y-96609600D01*
%TO.N,/SD_D1*%
X127801189Y-98913011D02*
X127490200Y-99224000D01*
X129458011Y-98913011D02*
X127801189Y-98913011D01*
X127490200Y-99224000D02*
X127490200Y-99605000D01*
%TO.N,/SYN*%
X152317000Y-117070800D02*
X155866600Y-117070800D01*
X151629600Y-117758200D02*
X152317000Y-117070800D01*
X156554000Y-117758200D02*
X160948200Y-117758200D01*
X140558200Y-117758200D02*
X151629600Y-117758200D01*
X160948200Y-117758200D02*
X161388200Y-117318200D01*
X155866600Y-117070800D02*
X156554000Y-117758200D01*
X140428200Y-117628200D02*
X140558200Y-117758200D01*
%TO.N,/SCL*%
X129065000Y-100848000D02*
X130538200Y-99374800D01*
X156327000Y-115978600D02*
X156860400Y-116512000D01*
X143248200Y-116758200D02*
X150467400Y-116758200D01*
X130538200Y-99374800D02*
X130538200Y-98716000D01*
X142508200Y-116028200D02*
X142518200Y-116028200D01*
X150467400Y-116732800D02*
X151221600Y-115978600D01*
X156860400Y-116512000D02*
X158613000Y-116512000D01*
X150467400Y-116758200D02*
X150467400Y-116732800D01*
X129065000Y-100951200D02*
X129065000Y-100848000D01*
X151221600Y-115978600D02*
X156327000Y-115978600D01*
X158613000Y-116512000D02*
X158638400Y-116486600D01*
X142518200Y-116028200D02*
X143248200Y-116758200D01*
%TO.N,/SDAT2*%
X142198200Y-110968200D02*
X143658200Y-112428200D01*
X143658200Y-112428200D02*
X167238200Y-112428200D01*
X167238200Y-112428200D02*
X167598200Y-112788200D01*
%TO.N,/SCS*%
X150573200Y-117338200D02*
X151348600Y-116562800D01*
X157051600Y-117338200D02*
X159938200Y-117338200D01*
X151348600Y-116562800D02*
X156276200Y-116562800D01*
X159938200Y-117338200D02*
X159988200Y-117338200D01*
X159988200Y-117338200D02*
X160388200Y-116938200D01*
X142188200Y-117338200D02*
X150573200Y-117338200D01*
X139078200Y-113168200D02*
X139078200Y-114228200D01*
X159938200Y-117338200D02*
X160028200Y-117338200D01*
X156276200Y-116562800D02*
X157051600Y-117338200D01*
X139078200Y-114228200D02*
X142188200Y-117338200D01*
%TO.N,/SDAT3*%
X162994200Y-112918200D02*
X166218200Y-112918200D01*
X162702400Y-113210000D02*
X162994200Y-112918200D01*
X142331600Y-112219400D02*
X143322200Y-113210000D01*
X143322200Y-113210000D02*
X162702400Y-113210000D01*
X166218200Y-112918200D02*
X166578200Y-113278200D01*
%TO.N,/SDAT4*%
X139038200Y-110118200D02*
X142663400Y-113743400D01*
X137258200Y-110108200D02*
X138668200Y-110108200D01*
X138678200Y-110118200D02*
X139038200Y-110118200D01*
X165433000Y-113743400D02*
X165558200Y-113618200D01*
X142663400Y-113743400D02*
X165433000Y-113743400D01*
X138668200Y-110108200D02*
X138678200Y-110118200D01*
%TO.N,/SDAT5*%
X142128200Y-114268200D02*
X155748200Y-114268200D01*
X163796000Y-114278200D02*
X164848200Y-115330400D01*
X164848200Y-115330400D02*
X164848200Y-117228200D01*
X141078200Y-113218200D02*
X142128200Y-114268200D01*
X155748200Y-114268200D02*
X155758200Y-114278200D01*
X140978200Y-113218200D02*
X141078200Y-113218200D01*
X155758200Y-114278200D02*
X163796000Y-114278200D01*
%TO.N,/SDAT6*%
X162651600Y-118925000D02*
X163688200Y-117888400D01*
X154358200Y-119078200D02*
X155527400Y-117909000D01*
X158257400Y-118925000D02*
X162651600Y-118925000D01*
X142612600Y-119407600D02*
X142942000Y-119078200D01*
X135422800Y-117477200D02*
X137353200Y-119407600D01*
X163688200Y-117888400D02*
X163688200Y-117418200D01*
X134294800Y-110888200D02*
X135422800Y-112016200D01*
X135422800Y-112016200D02*
X135422800Y-117477200D01*
X157561400Y-118173200D02*
X157561400Y-118229000D01*
X137353200Y-119407600D02*
X142612600Y-119407600D01*
X155527400Y-117909000D02*
X155925600Y-117909000D01*
X155925600Y-117909000D02*
X156189800Y-118173200D01*
X131444197Y-110888200D02*
X134294800Y-110888200D01*
X156189800Y-118173200D02*
X157561400Y-118173200D01*
X157561400Y-118229000D02*
X158257400Y-118925000D01*
X142942000Y-119078200D02*
X154358200Y-119078200D01*
D37*
%TO.N,/+3V3*%
X124204000Y-90604000D02*
X125798200Y-92198200D01*
D35*
X148914600Y-92797800D02*
X150217800Y-92797800D01*
X136634200Y-101052800D02*
X136710400Y-100976600D01*
X165880000Y-100496400D02*
X165880000Y-99911600D01*
X162108600Y-100578600D02*
X162338200Y-100808200D01*
X122892800Y-95883600D02*
X124683800Y-95883600D01*
D37*
X125720000Y-92120000D02*
X125720000Y-89416600D01*
D35*
X138882600Y-91896600D02*
X138107400Y-91121400D01*
X129793400Y-105853400D02*
X129352200Y-105412200D01*
X150217800Y-92797800D02*
X150318200Y-92898200D01*
D37*
X125798200Y-92198200D02*
X125720000Y-92120000D01*
D35*
X117455550Y-91848200D02*
X117565700Y-91958350D01*
X133213000Y-102211800D02*
X130139600Y-102211800D01*
X137632600Y-102719800D02*
X138115200Y-102719800D01*
D37*
X125168200Y-94840400D02*
X125168200Y-92828200D01*
D35*
X162338200Y-100808200D02*
X165568200Y-100808200D01*
X133574000Y-105853400D02*
X130435000Y-105853400D01*
X133853200Y-101052800D02*
X133853200Y-101571600D01*
X161141600Y-99762000D02*
X162108600Y-99762000D01*
X136710400Y-100100600D02*
X136710400Y-101797600D01*
D37*
X125168200Y-92828200D02*
X125798200Y-92198200D01*
D35*
X124683800Y-95883600D02*
X125051800Y-95515600D01*
X130435000Y-105853400D02*
X129793400Y-105853400D01*
D37*
X118287400Y-90604000D02*
X124204000Y-90604000D01*
D35*
X133853200Y-101052800D02*
X136634200Y-101052800D01*
X133853200Y-101571600D02*
X133213000Y-102211800D01*
X165568200Y-100808200D02*
X165880000Y-100496400D01*
X136710400Y-101797600D02*
X137632600Y-102719800D01*
X162108600Y-99762000D02*
X162108600Y-100578600D01*
D37*
X117565700Y-91325700D02*
X118287400Y-90604000D01*
D35*
X160899000Y-99519400D02*
X161141600Y-99762000D01*
X136710400Y-100100600D02*
X136710400Y-100976600D01*
X138882600Y-92213600D02*
X138882600Y-91896600D01*
X125051800Y-95515600D02*
X125051800Y-94956800D01*
D37*
X125051800Y-94956800D02*
X125168200Y-94840400D01*
D35*
X146184600Y-102856200D02*
X147086000Y-102856200D01*
X147086000Y-102856200D02*
X147289200Y-103059400D01*
D37*
X117565700Y-91958350D02*
X117565700Y-91325700D01*
D35*
X138115200Y-102719800D02*
X138166000Y-102770600D01*
X115793200Y-91848200D02*
X117455550Y-91848200D01*
%TO.N,/RS485_RxD*%
X153538211Y-118252711D02*
X142267289Y-118252711D01*
X139732132Y-98283332D02*
X139501227Y-98283332D01*
X137708200Y-107778200D02*
X137708200Y-106278000D01*
X139860000Y-98411200D02*
X139732132Y-98283332D01*
X137708200Y-106278000D02*
X139860000Y-104126200D01*
X142052200Y-118467800D02*
X137150000Y-118467800D01*
X139860000Y-104126200D02*
X139860000Y-98411200D01*
X142267289Y-118252711D02*
X142052200Y-118467800D01*
X135956200Y-109530200D02*
X137708200Y-107778200D01*
X137150000Y-118467800D02*
X135956200Y-117274000D01*
X135956200Y-117274000D02*
X135956200Y-109530200D01*
X153668200Y-118382700D02*
X153538211Y-118252711D01*
%TO.N,/IRQ2*%
X163618199Y-110768201D02*
X163668200Y-110718200D01*
X163618199Y-110858201D02*
X163618199Y-110768201D01*
X162739600Y-111736800D02*
X163618199Y-110858201D01*
X150688200Y-111736800D02*
X162739600Y-111736800D01*
%TO.N,/SCLK*%
X153178200Y-108328200D02*
X153528200Y-107978200D01*
X151958200Y-108178200D02*
X152108200Y-108328200D01*
X149738200Y-106728200D02*
X150653200Y-107643200D01*
X152108200Y-108328200D02*
X153178200Y-108328200D01*
X151423200Y-107643200D02*
X151958200Y-108178200D01*
X155418200Y-106178200D02*
X155438200Y-106198200D01*
X153528200Y-107978200D02*
X153528200Y-107098200D01*
X154468200Y-106178200D02*
X155418200Y-106178200D01*
X153528200Y-107098200D02*
X154448200Y-106178200D01*
X154448200Y-106178200D02*
X154468200Y-106178200D01*
X150653200Y-107643200D02*
X151423200Y-107643200D01*
X155438200Y-106198200D02*
X155278200Y-106358200D01*
%TO.N,/MISO*%
X157266800Y-108612600D02*
X157927200Y-109273000D01*
X165333000Y-109273000D02*
X165848200Y-109788200D01*
X157927200Y-109273000D02*
X165333000Y-109273000D01*
X157266800Y-107012400D02*
X157266800Y-108612600D01*
%TO.N,/MOSI*%
X166618198Y-106418198D02*
X166618198Y-109318198D01*
X155738200Y-108998200D02*
X155738200Y-106838200D01*
X166618198Y-109318198D02*
X167028200Y-109728200D01*
X155738200Y-106838200D02*
X156428200Y-106148200D01*
X166348200Y-106148200D02*
X166618198Y-106418198D01*
X151631500Y-109733700D02*
X155002700Y-109733700D01*
X151247000Y-109349200D02*
X151631500Y-109733700D01*
X156428200Y-106148200D02*
X166348200Y-106148200D01*
X155002700Y-109733700D02*
X155738200Y-108998200D01*
%TO.N,/SS*%
X154048200Y-105698200D02*
X153528200Y-106218200D01*
X153528200Y-106218200D02*
X152298200Y-106218200D01*
X151772600Y-102881600D02*
X150680400Y-101789400D01*
X150680400Y-101789400D02*
X150147000Y-101789400D01*
X151772600Y-105692600D02*
X151772600Y-102881600D01*
X167288200Y-105698200D02*
X154048200Y-105698200D01*
X152298200Y-106218200D02*
X151772600Y-105692600D01*
X167655400Y-106479000D02*
X167655400Y-106065400D01*
X167655400Y-106065400D02*
X167288200Y-105698200D01*
%TO.N,/RS485_TxD*%
X130368200Y-111808200D02*
X130938200Y-112378200D01*
X134469200Y-109857200D02*
X130622200Y-109857200D01*
X138648600Y-99240000D02*
X139453600Y-100045000D01*
X137288200Y-105938200D02*
X137288200Y-107038200D01*
X131377800Y-112378200D02*
X131638200Y-112117800D01*
X139453600Y-103772800D02*
X137288200Y-105938200D01*
X130938200Y-112378200D02*
X131377800Y-112378200D01*
X139453600Y-100045000D02*
X139453600Y-103772800D01*
X137288200Y-107038200D02*
X134469200Y-109857200D01*
X130368200Y-110111200D02*
X130368200Y-111808200D01*
X130622200Y-109857200D02*
X130368200Y-110111200D01*
%TO.N,/RS485_DE*%
X161618198Y-110038202D02*
X161618198Y-109988202D01*
X146268200Y-111388200D02*
X143928200Y-111388200D01*
X140978200Y-108438200D02*
X138678200Y-108438200D01*
X140520400Y-104246000D02*
X138208200Y-106558200D01*
X138208200Y-106558200D02*
X138208200Y-107968200D01*
X161618198Y-109988202D02*
X161638200Y-109968200D01*
X161298200Y-110358200D02*
X155428200Y-110358200D01*
X155428200Y-110358200D02*
X148408200Y-110358200D01*
X140520400Y-100417800D02*
X140520400Y-104246000D01*
X148408200Y-110358200D02*
X148378200Y-110388200D01*
X143928200Y-111388200D02*
X140978200Y-108438200D01*
X161618198Y-110038202D02*
X161298200Y-110358200D01*
X138208200Y-107968200D02*
X138678200Y-108438200D01*
%TO.N,/NRST*%
X165880000Y-98045200D02*
X165880000Y-98261600D01*
X167531000Y-98311600D02*
X165930000Y-98311600D01*
X163008800Y-97004800D02*
X164839600Y-97004800D01*
X164839600Y-97004800D02*
X165880000Y-98045200D01*
X162108600Y-97905000D02*
X162110400Y-97903200D01*
X165930000Y-98311600D02*
X165880000Y-98261600D01*
X162108600Y-98462000D02*
X162108600Y-97905000D01*
X161119800Y-97903200D02*
X162110400Y-97903200D01*
X162110400Y-97903200D02*
X163008800Y-97004800D01*
%TO.N,/OSC32_IN*%
X151123000Y-93598200D02*
X152318200Y-93598200D01*
X153857000Y-92406000D02*
X154655200Y-93204200D01*
X152318200Y-93598200D02*
X152610800Y-93305600D01*
X152610800Y-93305600D02*
X152610800Y-92406000D01*
X152610800Y-92406000D02*
X153857000Y-92406000D01*
X150891400Y-93829800D02*
X151123000Y-93598200D01*
%TO.N,/OSC32_OUT*%
X151145400Y-94971000D02*
X151210400Y-94906000D01*
X154629800Y-94906000D02*
X154655200Y-94880600D01*
X151145400Y-94972800D02*
X151145400Y-94971000D01*
X151210400Y-94906000D02*
X152610800Y-94906000D01*
X152610800Y-94906000D02*
X154629800Y-94906000D01*
%TO.N,/Magnet*%
X141536400Y-101865600D02*
X141028400Y-102373600D01*
X141790400Y-98843000D02*
X141536400Y-99097000D01*
X135224000Y-106653000D02*
X135224000Y-105853400D01*
X129078200Y-114288200D02*
X129678200Y-114888200D01*
X141028400Y-102373600D02*
X141028400Y-106791600D01*
X129078200Y-107738200D02*
X129078200Y-114288200D01*
X141028400Y-106791600D02*
X140471800Y-107348200D01*
X135676800Y-106910800D02*
X135481800Y-106910800D01*
X137785000Y-114708600D02*
X137785000Y-116039800D01*
X135676800Y-106910800D02*
X135483000Y-106717000D01*
X135483000Y-106717000D02*
X130099400Y-106717000D01*
X135481800Y-106910800D02*
X135224000Y-106653000D01*
X137785000Y-116039800D02*
X138072800Y-116327600D01*
X140471800Y-107348200D02*
X138893200Y-107348200D01*
X130099400Y-106717000D02*
X129078200Y-107738200D01*
X141536400Y-99097000D02*
X141536400Y-101865600D01*
%TO.N,/BT_RxD*%
X173208200Y-104658200D02*
X173658200Y-105108200D01*
X152638200Y-103978200D02*
X152638200Y-103968200D01*
X152638200Y-103968200D02*
X152568200Y-103898200D01*
X147128200Y-107248200D02*
X147150400Y-107248200D01*
X171501500Y-104658200D02*
X153318200Y-104658200D01*
X149475007Y-104338200D02*
X149558200Y-104338200D01*
X147150400Y-107248200D02*
X148642903Y-105755697D01*
X149448200Y-104338200D02*
X149558200Y-104338200D01*
X153318200Y-104658200D02*
X152638200Y-103978200D01*
X148642903Y-105755697D02*
X148642903Y-105170303D01*
X171501500Y-104658200D02*
X173208200Y-104658200D01*
X148642903Y-105170303D02*
X149475007Y-104338200D01*
%TO.N,/BT_TxD*%
X147767200Y-108688800D02*
X145201800Y-108688800D01*
X172278200Y-105188200D02*
X172608200Y-105518200D01*
X144128491Y-107615491D02*
X142985491Y-107615491D01*
X152668200Y-105188200D02*
X172278200Y-105188200D01*
X142985491Y-107615491D02*
X142814200Y-107444200D01*
X148158200Y-106900800D02*
X148158200Y-108348600D01*
X149621400Y-105437600D02*
X148158200Y-106900800D01*
X152498200Y-105018200D02*
X152668200Y-105188200D01*
X148158200Y-108348600D02*
X147792600Y-108714200D01*
X145201800Y-108688800D02*
X144128491Y-107615491D01*
X147792600Y-108714200D02*
X147767200Y-108688800D01*
%TO.N,/LED3*%
X175953200Y-103073200D02*
X177308200Y-104428200D01*
X144559000Y-95058400D02*
X145498800Y-95998200D01*
X150528000Y-99351000D02*
X154005200Y-102828200D01*
X146057600Y-99351000D02*
X150528000Y-99351000D01*
X142628600Y-95058400D02*
X144559000Y-95058400D01*
X177308200Y-104428200D02*
X177308200Y-104618200D01*
X145498800Y-98792200D02*
X146057600Y-99351000D01*
X154008200Y-102828200D02*
X154253200Y-103073200D01*
X145498800Y-95998200D02*
X145498800Y-98792200D01*
X154253200Y-103073200D02*
X175953200Y-103073200D01*
X142476200Y-95210800D02*
X142628600Y-95058400D01*
X154005200Y-102828200D02*
X154008200Y-102828200D01*
%TO.N,/LED2*%
X144254200Y-96201400D02*
X143162000Y-96201400D01*
X175072720Y-103622720D02*
X174672720Y-103622720D01*
X154240920Y-103622720D02*
X152692300Y-102074100D01*
X150375600Y-99757400D02*
X145219400Y-99757400D01*
X144609800Y-99147800D02*
X144609800Y-96557000D01*
X152692300Y-102074100D02*
X150375600Y-99757400D01*
X177178200Y-105728200D02*
X175072720Y-103622720D01*
X145219400Y-99757400D02*
X144609800Y-99147800D01*
X174672720Y-103622720D02*
X154240920Y-103622720D01*
X144609800Y-96557000D02*
X144254200Y-96201400D01*
%TO.N,/LED1*%
X153427400Y-103749000D02*
X152331400Y-102653000D01*
X143949400Y-99478000D02*
X143949400Y-97141200D01*
X174208200Y-104088200D02*
X175328200Y-105208200D01*
X145498800Y-101027400D02*
X143949400Y-99478000D01*
X173508200Y-104088200D02*
X156828200Y-104088200D01*
X153427400Y-103749000D02*
X153766600Y-104088200D01*
X152331400Y-102653000D02*
X150705800Y-101027400D01*
X153766600Y-104088200D02*
X156828200Y-104088200D01*
X153716600Y-104038200D02*
X153427400Y-103749000D01*
X150705800Y-101027400D02*
X145498800Y-101027400D01*
X173508200Y-104088200D02*
X174208200Y-104088200D01*
%TO.N,/SDAe*%
X147264600Y-92797800D02*
X147734000Y-92797800D01*
X148013400Y-92518400D02*
X148013400Y-92289800D01*
X147734000Y-92797800D02*
X148013400Y-92518400D01*
%TO.N,/SCLe*%
X145125600Y-91670800D02*
X144906209Y-91890191D01*
X144906209Y-91890191D02*
X141859809Y-91890191D01*
X141859809Y-91890191D02*
X141536400Y-92213600D01*
X141536400Y-92213600D02*
X140532600Y-92213600D01*
%TO.N,/StartMasura*%
X147718200Y-111238200D02*
X150028200Y-111238200D01*
X162618199Y-110458201D02*
X162618199Y-110378199D01*
X143978200Y-110408200D02*
X146888200Y-110408200D01*
X150028200Y-111238200D02*
X150378200Y-110888200D01*
X141493400Y-107923400D02*
X141493400Y-107596600D01*
X162188200Y-110888200D02*
X162618199Y-110458201D01*
X150378200Y-110888200D02*
X162188200Y-110888200D01*
X143552500Y-109982500D02*
X143978200Y-110408200D01*
X143552500Y-109982500D02*
X141493400Y-107923400D01*
X162618199Y-110378199D02*
X162608200Y-110368200D01*
X146888200Y-110408200D02*
X147718200Y-111238200D01*
%TO.N,/Main*%
X137269200Y-93747200D02*
X136989200Y-94027200D01*
X136989200Y-94027200D02*
X131747200Y-94027200D01*
X131528800Y-94245600D02*
X127591800Y-94245600D01*
X120343200Y-97504800D02*
X119700200Y-98147800D01*
X127591800Y-94245600D02*
X127363200Y-94474200D01*
X131747200Y-94027200D02*
X131528800Y-94245600D01*
X117820600Y-98147800D02*
X117603400Y-97930600D01*
X127363200Y-94474200D02*
X126728200Y-94474200D01*
X137269200Y-92747000D02*
X137269200Y-93747200D01*
X120343200Y-95802500D02*
X120343200Y-97504800D01*
X117603400Y-97930600D02*
X117603400Y-96833350D01*
X119700200Y-98147800D02*
X117820600Y-98147800D01*
%TO.N,/Mains*%
X172378200Y-110958200D02*
X178035200Y-110958200D01*
X178789600Y-102576800D02*
X177929600Y-102576800D01*
X146819600Y-98919200D02*
X146286200Y-98385800D01*
X177929600Y-102576800D02*
X154363400Y-102576800D01*
X170938200Y-108538200D02*
X170938200Y-109518200D01*
X178035200Y-110958200D02*
X179958200Y-109035200D01*
X170938200Y-109518200D02*
X172378200Y-110958200D01*
X183008200Y-102228200D02*
X183008200Y-101188200D01*
X179958200Y-105278200D02*
X183008200Y-102228200D01*
X179958200Y-109035200D02*
X179958200Y-105278200D01*
X154363400Y-102576800D02*
X150705800Y-98919200D01*
X150705800Y-98919200D02*
X146819600Y-98919200D01*
X180398200Y-100968200D02*
X178789600Y-102576800D01*
D37*
%TO.N,/+3V3_SD*%
X127235200Y-97623200D02*
X128443200Y-97623200D01*
X119495700Y-100970700D02*
X119495700Y-99513050D01*
X113643200Y-98823200D02*
X114965400Y-98823200D01*
X124150800Y-101582400D02*
X124150800Y-100998200D01*
X124631600Y-102063200D02*
X124150800Y-101582400D01*
X126532800Y-99367000D02*
X126532800Y-98325600D01*
X119468200Y-100998200D02*
X119495700Y-100970700D01*
X119468200Y-100998200D02*
X124150800Y-100998200D01*
X113643200Y-97499200D02*
X113643200Y-98823200D01*
X126532800Y-98325600D02*
X127235200Y-97623200D01*
X114965400Y-98823200D02*
X115868200Y-99726000D01*
X119237400Y-100767400D02*
X119468200Y-100998200D01*
X114891800Y-97039600D02*
X114102800Y-97039600D01*
X115868200Y-99726000D02*
X115868200Y-100767400D01*
X124150800Y-100998200D02*
X124901600Y-100998200D01*
X124901600Y-100998200D02*
X126532800Y-99367000D01*
X125558200Y-102063200D02*
X124631600Y-102063200D01*
X115868200Y-100767400D02*
X115868200Y-101653200D01*
X114102800Y-97039600D02*
X113643200Y-97499200D01*
X115868200Y-100767400D02*
X119237400Y-100767400D01*
%TO.N,/+5V*%
X115839400Y-95249600D02*
X115853400Y-95263600D01*
X121143200Y-94023200D02*
X120071400Y-94023200D01*
X119458000Y-94283400D02*
X119793200Y-93948200D01*
X119458000Y-96483350D02*
X119433000Y-96508350D01*
X121068200Y-93948200D02*
X121143200Y-94023200D01*
D35*
X115853400Y-95263600D02*
X115853400Y-95488000D01*
X117578400Y-94638050D02*
X117578400Y-95367600D01*
D37*
X115853400Y-95488000D02*
X117458000Y-95488000D01*
X115839400Y-93499600D02*
X115839400Y-95249600D01*
X101108200Y-96658200D02*
X102278400Y-95488000D01*
D35*
X115843200Y-94248200D02*
X115853400Y-94258400D01*
D37*
X120071400Y-94023200D02*
X119090600Y-93042400D01*
X119458000Y-95488000D02*
X119458000Y-96483350D01*
X119090600Y-92940800D02*
X116398200Y-92940800D01*
X102278400Y-95488000D02*
X115853400Y-95488000D01*
X119090600Y-93042400D02*
X119090600Y-92940800D01*
X101108200Y-96658200D02*
X101108200Y-105068200D01*
X119793200Y-93948200D02*
X121068200Y-93948200D01*
D35*
X117578400Y-95367600D02*
X117458000Y-95488000D01*
D37*
X119458000Y-94638050D02*
X119458000Y-94283400D01*
X101108200Y-107608200D02*
X101108200Y-110148200D01*
X119458000Y-94638050D02*
X119458000Y-95488000D01*
X101108200Y-105068200D02*
X101108200Y-107608200D01*
D35*
X115853400Y-94258400D02*
X115853400Y-95263600D01*
D37*
X116398200Y-92940800D02*
X115839400Y-93499600D01*
D36*
%TO.N,/VBAT*%
X163413600Y-94769600D02*
X163413600Y-95785600D01*
D35*
X148978600Y-94499600D02*
X148978600Y-94601200D01*
D36*
X163413600Y-95785600D02*
X163499200Y-95871200D01*
D35*
X150248600Y-95871200D02*
X163499200Y-95871200D01*
X148978600Y-94601200D02*
X150248600Y-95871200D01*
%TD*%
%TA.AperFunction,Conductor*%
%TO.N,GND*%
G36*
X124950302Y-88400330D02*
G01*
X125018415Y-88420348D01*
X125064895Y-88474014D01*
X125074982Y-88544291D01*
X125045473Y-88608864D01*
X125030203Y-88623728D01*
X124973590Y-88670189D01*
X124842313Y-88830152D01*
X124744768Y-89012645D01*
X124684698Y-89210672D01*
X124664417Y-89416596D01*
X124664417Y-89416603D01*
X124684698Y-89622527D01*
X124684699Y-89622533D01*
X124684700Y-89622534D01*
X124744768Y-89820554D01*
X124842315Y-90003050D01*
X124973590Y-90163010D01*
X125133550Y-90294285D01*
X125202896Y-90331351D01*
X125253544Y-90381103D01*
X125269500Y-90442473D01*
X125269500Y-90728206D01*
X125249498Y-90796327D01*
X125195842Y-90842820D01*
X125125568Y-90852924D01*
X125060988Y-90823430D01*
X125054405Y-90817301D01*
X124480620Y-90243516D01*
X124480610Y-90243508D01*
X124377891Y-90184203D01*
X124377889Y-90184202D01*
X124377887Y-90184201D01*
X124377880Y-90184199D01*
X124353673Y-90177712D01*
X124353673Y-90177713D01*
X124263309Y-90153500D01*
X118228091Y-90153500D01*
X118228090Y-90153500D01*
X118137725Y-90177713D01*
X118137724Y-90177712D01*
X118113514Y-90184200D01*
X118010789Y-90243508D01*
X118010779Y-90243516D01*
X117205216Y-91049079D01*
X117205208Y-91049089D01*
X117145900Y-91151813D01*
X117145901Y-91151814D01*
X117116106Y-91263012D01*
X117115200Y-91266392D01*
X117115200Y-91396700D01*
X117095198Y-91464821D01*
X117041542Y-91511314D01*
X116989200Y-91522700D01*
X116534494Y-91522700D01*
X116466373Y-91502698D01*
X116422227Y-91453903D01*
X116421150Y-91451790D01*
X116366728Y-91344980D01*
X116271420Y-91249672D01*
X116271419Y-91249671D01*
X116204220Y-91215432D01*
X116151326Y-91188481D01*
X116051688Y-91172700D01*
X115534712Y-91172700D01*
X115435074Y-91188481D01*
X115435072Y-91188481D01*
X115435072Y-91188482D01*
X115314980Y-91249671D01*
X115219671Y-91344980D01*
X115164173Y-91453903D01*
X115158481Y-91465074D01*
X115142700Y-91564712D01*
X115142700Y-92131688D01*
X115158481Y-92231326D01*
X115169546Y-92253042D01*
X115217097Y-92346368D01*
X115219672Y-92351420D01*
X115314980Y-92446728D01*
X115435074Y-92507919D01*
X115534712Y-92523700D01*
X115534715Y-92523700D01*
X115874006Y-92523700D01*
X115942127Y-92543702D01*
X115988620Y-92597358D01*
X115998724Y-92667632D01*
X115969230Y-92732212D01*
X115963101Y-92738795D01*
X115478916Y-93222979D01*
X115478908Y-93222989D01*
X115419600Y-93325713D01*
X115417905Y-93332042D01*
X115417905Y-93332043D01*
X115417905Y-93332044D01*
X115391325Y-93431243D01*
X115388900Y-93440292D01*
X115388900Y-93573561D01*
X115368898Y-93641682D01*
X115351996Y-93662656D01*
X115269671Y-93744981D01*
X115208482Y-93865072D01*
X115208481Y-93865074D01*
X115192700Y-93964712D01*
X115192700Y-94531688D01*
X115208481Y-94631326D01*
X115269672Y-94751420D01*
X115316184Y-94797932D01*
X115340657Y-94822405D01*
X115374682Y-94884718D01*
X115369616Y-94955533D01*
X115327069Y-95012369D01*
X115260549Y-95037179D01*
X115251561Y-95037500D01*
X102219091Y-95037500D01*
X102192172Y-95044713D01*
X102140102Y-95058665D01*
X102140101Y-95058664D01*
X102104511Y-95068201D01*
X102001789Y-95127507D01*
X102001779Y-95127515D01*
X100747716Y-96381579D01*
X100747710Y-96381587D01*
X100688401Y-96484312D01*
X100682934Y-96504717D01*
X100657700Y-96598891D01*
X100657700Y-106582325D01*
X100637698Y-106650446D01*
X100591098Y-106693446D01*
X100521751Y-106730513D01*
X100361790Y-106861789D01*
X100230513Y-107021752D01*
X100132968Y-107204245D01*
X100072898Y-107402272D01*
X100052617Y-107608196D01*
X100052617Y-107608203D01*
X100072898Y-107814127D01*
X100072899Y-107814133D01*
X100072900Y-107814134D01*
X100118905Y-107965795D01*
X100132968Y-108012154D01*
X100221651Y-108178068D01*
X100230515Y-108194650D01*
X100361790Y-108354610D01*
X100521750Y-108485885D01*
X100591096Y-108522951D01*
X100641744Y-108572703D01*
X100657700Y-108634073D01*
X100657700Y-108971700D01*
X100637698Y-109039821D01*
X100584042Y-109086314D01*
X100531700Y-109097700D01*
X100238449Y-109097700D01*
X100179971Y-109109332D01*
X100179968Y-109109333D01*
X100113648Y-109153648D01*
X100069333Y-109219968D01*
X100069332Y-109219971D01*
X100057700Y-109278449D01*
X100057700Y-111017950D01*
X100066601Y-111062700D01*
X100069333Y-111076431D01*
X100113648Y-111142752D01*
X100179969Y-111187067D01*
X100238452Y-111198700D01*
X100238453Y-111198700D01*
X101977947Y-111198700D01*
X101977948Y-111198700D01*
X102036431Y-111187067D01*
X102102752Y-111142752D01*
X102147067Y-111076431D01*
X102158700Y-111017948D01*
X102158700Y-109278452D01*
X102147067Y-109219969D01*
X102102752Y-109153648D01*
X102036431Y-109109333D01*
X102036428Y-109109332D01*
X101977950Y-109097700D01*
X101977948Y-109097700D01*
X101684700Y-109097700D01*
X101616579Y-109077698D01*
X101570086Y-109024042D01*
X101558700Y-108971700D01*
X101558700Y-108634073D01*
X101578702Y-108565952D01*
X101625303Y-108522951D01*
X101694650Y-108485885D01*
X101854610Y-108354610D01*
X101985885Y-108194650D01*
X102083432Y-108012154D01*
X102143500Y-107814134D01*
X102147078Y-107777813D01*
X102163783Y-107608203D01*
X102163783Y-107608196D01*
X102143501Y-107402272D01*
X102143500Y-107402270D01*
X102143500Y-107402266D01*
X102083432Y-107204246D01*
X101985885Y-107021750D01*
X101854610Y-106861790D01*
X101854609Y-106861789D01*
X101694648Y-106730513D01*
X101625302Y-106693446D01*
X101574655Y-106643693D01*
X101558700Y-106582325D01*
X101558700Y-102964733D01*
X133955500Y-102964733D01*
X133955500Y-104373266D01*
X133958354Y-104403700D01*
X133958355Y-104403704D01*
X134003206Y-104531881D01*
X134003208Y-104531885D01*
X134083849Y-104641150D01*
X134193114Y-104721791D01*
X134193118Y-104721793D01*
X134240492Y-104738370D01*
X134321301Y-104766646D01*
X134351734Y-104769500D01*
X134351736Y-104769500D01*
X135110264Y-104769500D01*
X135110266Y-104769500D01*
X135140699Y-104766646D01*
X135268882Y-104721793D01*
X135285294Y-104709681D01*
X135378150Y-104641150D01*
X135458791Y-104531885D01*
X135458793Y-104531881D01*
X135463151Y-104519428D01*
X135503646Y-104403699D01*
X135506500Y-104373266D01*
X135506500Y-104127401D01*
X135526502Y-104059280D01*
X135580158Y-104012787D01*
X135650432Y-104002683D01*
X135715012Y-104032177D01*
X135732463Y-104050698D01*
X135748718Y-104071882D01*
X135874159Y-104168136D01*
X136020238Y-104228644D01*
X136177000Y-104249282D01*
X136333762Y-104228644D01*
X136479841Y-104168136D01*
X136605282Y-104071882D01*
X136701536Y-103946441D01*
X136762044Y-103800362D01*
X136782682Y-103643600D01*
X136780931Y-103630303D01*
X136762044Y-103486839D01*
X136751707Y-103461882D01*
X136701536Y-103340759D01*
X136605282Y-103215318D01*
X136479841Y-103119064D01*
X136463017Y-103112095D01*
X136333760Y-103058555D01*
X136177000Y-103037918D01*
X136020239Y-103058555D01*
X135874160Y-103119063D01*
X135874157Y-103119065D01*
X135748717Y-103215318D01*
X135732462Y-103236503D01*
X135675123Y-103278370D01*
X135604252Y-103282591D01*
X135542350Y-103247826D01*
X135509069Y-103185113D01*
X135506500Y-103159798D01*
X135506500Y-102964735D01*
X135506500Y-102964734D01*
X135503646Y-102934301D01*
X135501242Y-102927432D01*
X135458793Y-102806118D01*
X135458791Y-102806114D01*
X135378150Y-102696849D01*
X135268885Y-102616208D01*
X135268881Y-102616206D01*
X135140704Y-102571355D01*
X135140700Y-102571354D01*
X135110266Y-102568500D01*
X134351734Y-102568500D01*
X134351733Y-102568500D01*
X134321299Y-102571354D01*
X134321295Y-102571355D01*
X134193118Y-102616206D01*
X134193114Y-102616208D01*
X134083849Y-102696849D01*
X134003208Y-102806114D01*
X134003206Y-102806118D01*
X133958355Y-102934295D01*
X133958354Y-102934299D01*
X133955500Y-102964733D01*
X101558700Y-102964733D01*
X101558700Y-98118933D01*
X112867700Y-98118933D01*
X112867700Y-99527466D01*
X112870554Y-99557900D01*
X112870555Y-99557904D01*
X112915406Y-99686081D01*
X112915408Y-99686085D01*
X112996049Y-99795350D01*
X113105314Y-99875991D01*
X113105318Y-99875993D01*
X113196337Y-99907842D01*
X113233501Y-99920846D01*
X113263934Y-99923700D01*
X113263936Y-99923700D01*
X114022464Y-99923700D01*
X114022466Y-99923700D01*
X114052899Y-99920846D01*
X114181082Y-99875993D01*
X114226990Y-99842112D01*
X114290350Y-99795350D01*
X114370991Y-99686085D01*
X114370993Y-99686081D01*
X114373092Y-99680084D01*
X114415846Y-99557899D01*
X114418700Y-99527466D01*
X114418700Y-99399700D01*
X114438702Y-99331579D01*
X114492358Y-99285086D01*
X114544700Y-99273700D01*
X114726607Y-99273700D01*
X114794728Y-99293702D01*
X114815702Y-99310605D01*
X115380795Y-99875698D01*
X115414821Y-99938010D01*
X115417700Y-99964793D01*
X115417700Y-100751700D01*
X115397698Y-100819821D01*
X115344042Y-100866314D01*
X115291700Y-100877700D01*
X115163933Y-100877700D01*
X115133499Y-100880554D01*
X115133495Y-100880555D01*
X115005318Y-100925406D01*
X115005314Y-100925408D01*
X114896049Y-101006049D01*
X114815408Y-101115314D01*
X114815406Y-101115318D01*
X114770555Y-101243495D01*
X114770554Y-101243499D01*
X114767700Y-101273933D01*
X114767700Y-102032466D01*
X114770554Y-102062900D01*
X114770555Y-102062904D01*
X114815406Y-102191081D01*
X114815408Y-102191085D01*
X114896049Y-102300350D01*
X115005314Y-102380991D01*
X115005318Y-102380993D01*
X115127336Y-102423689D01*
X115133501Y-102425846D01*
X115163934Y-102428700D01*
X115163936Y-102428700D01*
X116572464Y-102428700D01*
X116572466Y-102428700D01*
X116602899Y-102425846D01*
X116731082Y-102380993D01*
X116735905Y-102377434D01*
X116840350Y-102300350D01*
X116920991Y-102191085D01*
X116920993Y-102191081D01*
X116921337Y-102190100D01*
X116965846Y-102062899D01*
X116968700Y-102032466D01*
X116968700Y-101343900D01*
X116988702Y-101275779D01*
X117042358Y-101229286D01*
X117094700Y-101217900D01*
X118678943Y-101217900D01*
X118747064Y-101237902D01*
X118793557Y-101291558D01*
X118803390Y-101324184D01*
X118805744Y-101339042D01*
X118808481Y-101356327D01*
X118865739Y-101468702D01*
X118869672Y-101476420D01*
X118964980Y-101571728D01*
X119085074Y-101632919D01*
X119184712Y-101648700D01*
X119184715Y-101648700D01*
X119751685Y-101648700D01*
X119751688Y-101648700D01*
X119851326Y-101632919D01*
X119971420Y-101571728D01*
X120057543Y-101485605D01*
X120119855Y-101451579D01*
X120146638Y-101448700D01*
X123574300Y-101448700D01*
X123642421Y-101468702D01*
X123688914Y-101522358D01*
X123700300Y-101574700D01*
X123700300Y-101641710D01*
X123714779Y-101695743D01*
X123714779Y-101695746D01*
X123714780Y-101695746D01*
X123714780Y-101695747D01*
X123731001Y-101756287D01*
X123731002Y-101756289D01*
X123731003Y-101756291D01*
X123790308Y-101859010D01*
X123790316Y-101859020D01*
X124354979Y-102423683D01*
X124354983Y-102423686D01*
X124354986Y-102423689D01*
X124457713Y-102482999D01*
X124478855Y-102488663D01*
X124478859Y-102488666D01*
X124478860Y-102488665D01*
X124572291Y-102513700D01*
X124879762Y-102513700D01*
X124947883Y-102533702D01*
X124968857Y-102550605D01*
X125054980Y-102636728D01*
X125175074Y-102697919D01*
X125274712Y-102713700D01*
X125274715Y-102713700D01*
X125841685Y-102713700D01*
X125841688Y-102713700D01*
X125941326Y-102697919D01*
X126061420Y-102636728D01*
X126156728Y-102541420D01*
X126217919Y-102421326D01*
X126233700Y-102321688D01*
X126233700Y-101804712D01*
X126217919Y-101705074D01*
X126156728Y-101584980D01*
X126061420Y-101489672D01*
X126061419Y-101489671D01*
X125977862Y-101447097D01*
X125941326Y-101428481D01*
X125841688Y-101412700D01*
X125428394Y-101412700D01*
X125360273Y-101392698D01*
X125313780Y-101339042D01*
X125303676Y-101268768D01*
X125333170Y-101204188D01*
X125339298Y-101197605D01*
X125568704Y-100968199D01*
X126733737Y-99803164D01*
X126796046Y-99769142D01*
X126866861Y-99774206D01*
X126923697Y-99816753D01*
X126939237Y-99844043D01*
X126959626Y-99893264D01*
X126965664Y-99907841D01*
X127061918Y-100033282D01*
X127187359Y-100129536D01*
X127333438Y-100190044D01*
X127490200Y-100210682D01*
X127646962Y-100190044D01*
X127793041Y-100129536D01*
X127918482Y-100033282D01*
X128014736Y-99907841D01*
X128075244Y-99761762D01*
X128095882Y-99605000D01*
X128095702Y-99603636D01*
X128085907Y-99529232D01*
X128075244Y-99448238D01*
X128060534Y-99412726D01*
X128052946Y-99342140D01*
X128084725Y-99278653D01*
X128145783Y-99242425D01*
X128176944Y-99238511D01*
X128888725Y-99238511D01*
X128956846Y-99258513D01*
X128988687Y-99287807D01*
X129029726Y-99341290D01*
X129029727Y-99341291D01*
X129029729Y-99341293D01*
X129155170Y-99437547D01*
X129301249Y-99498055D01*
X129458011Y-99518693D01*
X129614773Y-99498055D01*
X129614778Y-99498052D01*
X129622749Y-99495918D01*
X129623488Y-99498676D01*
X129680278Y-99492565D01*
X129743767Y-99524339D01*
X129780000Y-99585393D01*
X129777473Y-99656345D01*
X129747012Y-99705659D01*
X129434807Y-100017865D01*
X129143789Y-100308883D01*
X129081477Y-100342908D01*
X129071141Y-100344709D01*
X128908239Y-100366155D01*
X128762160Y-100426663D01*
X128762157Y-100426665D01*
X128636718Y-100522918D01*
X128540465Y-100648357D01*
X128540463Y-100648360D01*
X128479955Y-100794439D01*
X128459318Y-100951199D01*
X128459318Y-100951200D01*
X128479955Y-101107960D01*
X128532734Y-101235378D01*
X128540464Y-101254041D01*
X128636718Y-101379482D01*
X128762159Y-101475736D01*
X128908238Y-101536244D01*
X129065000Y-101556882D01*
X129221762Y-101536244D01*
X129367841Y-101475736D01*
X129493282Y-101379482D01*
X129589536Y-101254041D01*
X129650044Y-101107962D01*
X129670682Y-100951200D01*
X129667286Y-100925408D01*
X129656843Y-100846082D01*
X129650044Y-100794438D01*
X129650043Y-100794437D01*
X129649876Y-100793163D01*
X129660815Y-100723015D01*
X129685698Y-100687627D01*
X130798665Y-99574662D01*
X130811683Y-99552114D01*
X130841518Y-99500438D01*
X130863700Y-99417653D01*
X130863700Y-99285285D01*
X130883702Y-99217164D01*
X130912997Y-99185322D01*
X130966482Y-99144282D01*
X131062736Y-99018841D01*
X131123244Y-98872762D01*
X131143882Y-98716000D01*
X131143811Y-98715464D01*
X131123244Y-98559239D01*
X131120140Y-98551744D01*
X131062736Y-98413159D01*
X130966482Y-98287718D01*
X130841041Y-98191464D01*
X130824980Y-98184811D01*
X130694960Y-98130955D01*
X130538200Y-98110318D01*
X130381439Y-98130955D01*
X130235360Y-98191463D01*
X130235357Y-98191465D01*
X130126934Y-98274661D01*
X130109918Y-98287718D01*
X130017420Y-98408265D01*
X130008637Y-98419711D01*
X130005982Y-98417673D01*
X129964807Y-98455849D01*
X129894913Y-98468309D01*
X129831939Y-98443022D01*
X129760852Y-98388475D01*
X129752917Y-98385188D01*
X129614771Y-98327966D01*
X129458011Y-98307329D01*
X129301250Y-98327966D01*
X129155171Y-98388474D01*
X129155168Y-98388476D01*
X129029726Y-98484731D01*
X128988687Y-98538215D01*
X128931349Y-98580082D01*
X128888725Y-98587511D01*
X127844042Y-98587511D01*
X127758336Y-98587511D01*
X127675550Y-98609693D01*
X127675548Y-98609694D01*
X127675545Y-98609695D01*
X127601330Y-98652543D01*
X127601320Y-98652551D01*
X127229741Y-99024130D01*
X127229733Y-99024141D01*
X127218417Y-99043740D01*
X127167032Y-99092731D01*
X127097318Y-99106165D01*
X127031408Y-99079776D01*
X126990228Y-99021942D01*
X126983300Y-98980736D01*
X126983300Y-98564394D01*
X127003302Y-98496273D01*
X127020205Y-98475298D01*
X127384900Y-98110604D01*
X127447212Y-98076579D01*
X127473995Y-98073700D01*
X128001101Y-98073700D01*
X128069222Y-98093702D01*
X128077804Y-98099737D01*
X128140352Y-98147731D01*
X128140359Y-98147736D01*
X128286438Y-98208244D01*
X128443200Y-98228882D01*
X128599962Y-98208244D01*
X128746041Y-98147736D01*
X128871482Y-98051482D01*
X128967736Y-97926041D01*
X129028244Y-97779962D01*
X129048882Y-97623200D01*
X129047723Y-97614400D01*
X129034133Y-97511167D01*
X129028244Y-97466438D01*
X128967736Y-97320359D01*
X128871482Y-97194918D01*
X128746041Y-97098664D01*
X128744224Y-97097911D01*
X128599960Y-97038155D01*
X128443200Y-97017518D01*
X128286439Y-97038155D01*
X128140360Y-97098663D01*
X128140352Y-97098668D01*
X128077804Y-97146663D01*
X128011584Y-97172263D01*
X128001101Y-97172700D01*
X127175891Y-97172700D01*
X127072529Y-97200396D01*
X127072528Y-97200395D01*
X127061312Y-97203401D01*
X126958588Y-97262709D01*
X126958582Y-97262713D01*
X126172313Y-98048983D01*
X126172308Y-98048989D01*
X126113000Y-98151713D01*
X126112999Y-98151714D01*
X126110664Y-98160434D01*
X126110663Y-98160439D01*
X126107431Y-98172502D01*
X126082697Y-98264812D01*
X126082300Y-98266292D01*
X126082300Y-99128207D01*
X126062298Y-99196328D01*
X126045395Y-99217302D01*
X124751902Y-100510795D01*
X124689590Y-100544821D01*
X124662807Y-100547700D01*
X120146638Y-100547700D01*
X120078517Y-100527698D01*
X120057547Y-100510799D01*
X119983104Y-100436356D01*
X119949079Y-100374043D01*
X119946200Y-100347261D01*
X119946200Y-99453742D01*
X119946200Y-99453741D01*
X119915499Y-99339164D01*
X119915497Y-99339161D01*
X119915497Y-99339159D01*
X119912338Y-99331532D01*
X119913718Y-99330960D01*
X119899400Y-99277517D01*
X119899400Y-99004353D01*
X119899399Y-99004349D01*
X119899308Y-99003893D01*
X119887767Y-98945869D01*
X119843452Y-98879548D01*
X119777131Y-98835233D01*
X119777128Y-98835232D01*
X119718650Y-98823600D01*
X119718648Y-98823600D01*
X119272752Y-98823600D01*
X119272749Y-98823600D01*
X119214271Y-98835232D01*
X119214268Y-98835233D01*
X119147948Y-98879548D01*
X119103633Y-98945868D01*
X119103632Y-98945871D01*
X119092000Y-99004349D01*
X119092000Y-99277517D01*
X119077681Y-99330960D01*
X119079062Y-99331532D01*
X119075902Y-99339159D01*
X119065526Y-99377882D01*
X119046075Y-99450478D01*
X119045200Y-99453742D01*
X119045200Y-100190900D01*
X119025198Y-100259021D01*
X118971542Y-100305514D01*
X118919200Y-100316900D01*
X118060359Y-100316900D01*
X117992238Y-100296898D01*
X117945745Y-100243242D01*
X117935641Y-100172968D01*
X117955594Y-100120898D01*
X117963721Y-100108735D01*
X117982767Y-100080231D01*
X117994400Y-100021748D01*
X117994400Y-99004352D01*
X117982767Y-98945869D01*
X117938452Y-98879548D01*
X117872131Y-98835233D01*
X117872128Y-98835232D01*
X117813650Y-98823600D01*
X117813648Y-98823600D01*
X117367752Y-98823600D01*
X117367749Y-98823600D01*
X117309271Y-98835232D01*
X117309268Y-98835233D01*
X117242948Y-98879548D01*
X117198633Y-98945868D01*
X117198632Y-98945871D01*
X117187000Y-99004349D01*
X117187000Y-100021750D01*
X117194751Y-100060718D01*
X117198633Y-100080231D01*
X117203264Y-100087161D01*
X117225806Y-100120898D01*
X117247021Y-100188651D01*
X117228238Y-100257118D01*
X117175421Y-100304561D01*
X117121041Y-100316900D01*
X116444700Y-100316900D01*
X116376579Y-100296898D01*
X116330086Y-100243242D01*
X116318700Y-100190900D01*
X116318700Y-99666692D01*
X116315928Y-99656345D01*
X116289453Y-99557539D01*
X116287999Y-99552113D01*
X116273768Y-99527464D01*
X116228691Y-99449389D01*
X116228683Y-99449379D01*
X115242020Y-98462716D01*
X115242010Y-98462708D01*
X115139291Y-98403403D01*
X115139288Y-98403402D01*
X115139287Y-98403401D01*
X115139285Y-98403400D01*
X115139284Y-98403400D01*
X115125243Y-98399638D01*
X115106067Y-98394500D01*
X115106065Y-98394499D01*
X115068307Y-98384382D01*
X115024709Y-98372700D01*
X115024707Y-98372700D01*
X114544700Y-98372700D01*
X114476579Y-98352698D01*
X114430086Y-98299042D01*
X114418700Y-98246700D01*
X114418700Y-98118935D01*
X114418700Y-98118934D01*
X114415846Y-98088501D01*
X114404558Y-98056243D01*
X114370993Y-97960318D01*
X114370991Y-97960314D01*
X114290350Y-97851049D01*
X114199932Y-97784318D01*
X114157000Y-97727773D01*
X114151453Y-97656994D01*
X114185054Y-97594452D01*
X114185416Y-97594086D01*
X114252500Y-97527002D01*
X114314811Y-97492979D01*
X114341593Y-97490100D01*
X114449701Y-97490100D01*
X114517822Y-97510102D01*
X114526404Y-97516137D01*
X114588225Y-97563573D01*
X114588959Y-97564136D01*
X114735038Y-97624644D01*
X114891800Y-97645282D01*
X115048562Y-97624644D01*
X115194641Y-97564136D01*
X115320082Y-97467882D01*
X115416336Y-97342441D01*
X115476844Y-97196362D01*
X115497482Y-97039600D01*
X115497337Y-97038502D01*
X115481098Y-96915151D01*
X115476844Y-96882838D01*
X115416336Y-96736759D01*
X115320082Y-96611318D01*
X115194641Y-96515064D01*
X115192428Y-96514147D01*
X115048560Y-96454555D01*
X114891800Y-96433918D01*
X114735039Y-96454555D01*
X114588960Y-96515063D01*
X114588952Y-96515068D01*
X114526404Y-96563063D01*
X114460184Y-96588663D01*
X114449701Y-96589100D01*
X114043491Y-96589100D01*
X114006951Y-96598891D01*
X113937568Y-96617482D01*
X113928917Y-96619799D01*
X113928910Y-96619802D01*
X113826190Y-96679107D01*
X113826180Y-96679115D01*
X113282716Y-97222579D01*
X113282708Y-97222589D01*
X113223400Y-97325313D01*
X113223401Y-97325314D01*
X113192727Y-97439793D01*
X113192700Y-97439892D01*
X113192700Y-97650429D01*
X113172698Y-97718550D01*
X113119042Y-97765043D01*
X113108328Y-97769353D01*
X113107236Y-97769736D01*
X113105318Y-97770407D01*
X112996047Y-97851051D01*
X112915408Y-97960314D01*
X112915406Y-97960318D01*
X112870555Y-98088495D01*
X112870554Y-98088499D01*
X112867700Y-98118933D01*
X101558700Y-98118933D01*
X101558700Y-96896994D01*
X101578702Y-96828873D01*
X101595605Y-96807898D01*
X102428100Y-95975404D01*
X102490412Y-95941379D01*
X102517195Y-95938500D01*
X117231416Y-95938500D01*
X117299537Y-95958502D01*
X117346030Y-96012158D01*
X117356134Y-96082432D01*
X117326640Y-96147012D01*
X117301422Y-96169262D01*
X117259852Y-96197039D01*
X117255647Y-96199849D01*
X117211333Y-96266168D01*
X117211332Y-96266171D01*
X117199700Y-96324649D01*
X117199700Y-97342050D01*
X117211332Y-97400528D01*
X117211333Y-97400531D01*
X117256665Y-97468374D01*
X117277880Y-97536126D01*
X117277900Y-97538376D01*
X117277900Y-97887747D01*
X117277900Y-97973453D01*
X117300082Y-98056239D01*
X117300083Y-98056241D01*
X117300084Y-98056243D01*
X117342932Y-98130458D01*
X117342940Y-98130468D01*
X117620731Y-98408259D01*
X117620736Y-98408263D01*
X117620738Y-98408265D01*
X117620739Y-98408266D01*
X117620741Y-98408267D01*
X117672910Y-98438386D01*
X117694961Y-98451118D01*
X117777747Y-98473300D01*
X117777749Y-98473300D01*
X119743051Y-98473300D01*
X119743053Y-98473300D01*
X119825839Y-98451118D01*
X119900062Y-98408265D01*
X120603665Y-97704662D01*
X120620313Y-97675826D01*
X120646518Y-97630438D01*
X120668700Y-97547653D01*
X120668700Y-96371785D01*
X120688702Y-96303664D01*
X120717997Y-96271822D01*
X120725362Y-96266171D01*
X120771482Y-96230782D01*
X120867736Y-96105341D01*
X120928244Y-95959262D01*
X120948882Y-95802500D01*
X120948589Y-95800278D01*
X120930370Y-95661886D01*
X120928244Y-95645738D01*
X120867736Y-95499659D01*
X120771482Y-95374218D01*
X120646041Y-95277964D01*
X120640448Y-95275647D01*
X120499960Y-95217455D01*
X120343200Y-95196818D01*
X120186439Y-95217455D01*
X120082718Y-95260418D01*
X120012128Y-95268007D01*
X119948641Y-95236227D01*
X119912414Y-95175169D01*
X119908500Y-95144009D01*
X119908500Y-94599700D01*
X119928502Y-94531579D01*
X119982158Y-94485086D01*
X120034500Y-94473700D01*
X120464762Y-94473700D01*
X120532883Y-94493702D01*
X120553857Y-94510605D01*
X120639980Y-94596728D01*
X120760074Y-94657919D01*
X120859712Y-94673700D01*
X120859715Y-94673700D01*
X121426685Y-94673700D01*
X121426688Y-94673700D01*
X121526326Y-94657919D01*
X121646420Y-94596728D01*
X121741728Y-94501420D01*
X121802919Y-94381326D01*
X121818700Y-94281688D01*
X121818700Y-93764712D01*
X121802919Y-93665074D01*
X121741728Y-93544980D01*
X121646420Y-93449672D01*
X121646419Y-93449671D01*
X121586373Y-93419076D01*
X121526326Y-93388481D01*
X121426688Y-93372700D01*
X120859712Y-93372700D01*
X120760074Y-93388481D01*
X120760072Y-93388481D01*
X120760072Y-93388482D01*
X120639980Y-93449671D01*
X120639978Y-93449673D01*
X120628857Y-93460795D01*
X120566545Y-93494821D01*
X120539762Y-93497700D01*
X120235195Y-93497700D01*
X120167074Y-93477698D01*
X120146100Y-93460796D01*
X119555568Y-92870265D01*
X119522954Y-92813773D01*
X119520980Y-92806402D01*
X119522674Y-92735427D01*
X119562472Y-92676634D01*
X119627739Y-92648690D01*
X119642689Y-92647800D01*
X119693647Y-92647800D01*
X119693648Y-92647800D01*
X119752131Y-92636167D01*
X119818452Y-92591852D01*
X119862767Y-92525531D01*
X119874400Y-92467048D01*
X119874400Y-91449652D01*
X119862767Y-91391169D01*
X119818452Y-91324848D01*
X119759210Y-91285263D01*
X119713684Y-91230788D01*
X119704836Y-91160345D01*
X119735478Y-91096301D01*
X119795879Y-91058989D01*
X119829214Y-91054500D01*
X123965207Y-91054500D01*
X124033328Y-91074502D01*
X124054302Y-91091405D01*
X124754245Y-91791348D01*
X124788271Y-91853660D01*
X124785725Y-91917018D01*
X124762899Y-91992267D01*
X124742617Y-92198196D01*
X124742617Y-92198203D01*
X124762898Y-92404129D01*
X124791800Y-92499409D01*
X124792433Y-92570403D01*
X124780345Y-92598981D01*
X124748403Y-92654307D01*
X124748399Y-92654317D01*
X124745755Y-92664187D01*
X124745145Y-92666465D01*
X124719704Y-92761414D01*
X124717700Y-92768892D01*
X124717700Y-94055300D01*
X124697698Y-94123421D01*
X124644042Y-94169914D01*
X124591700Y-94181300D01*
X124347533Y-94181300D01*
X124317099Y-94184154D01*
X124317095Y-94184155D01*
X124188918Y-94229006D01*
X124188914Y-94229008D01*
X124079649Y-94309649D01*
X123999008Y-94418914D01*
X123999006Y-94418918D01*
X123954155Y-94547095D01*
X123954154Y-94547099D01*
X123951300Y-94577533D01*
X123951300Y-95336066D01*
X123954154Y-95366500D01*
X123962547Y-95390486D01*
X123966165Y-95461391D01*
X123930875Y-95522995D01*
X123867882Y-95555742D01*
X123843617Y-95558100D01*
X123646356Y-95558100D01*
X123578235Y-95538098D01*
X123534089Y-95489303D01*
X123511824Y-95445606D01*
X123491328Y-95405380D01*
X123396020Y-95310072D01*
X123396019Y-95310071D01*
X123335973Y-95279476D01*
X123275926Y-95248881D01*
X123176288Y-95233100D01*
X122609312Y-95233100D01*
X122509674Y-95248881D01*
X122509672Y-95248881D01*
X122509672Y-95248882D01*
X122389580Y-95310071D01*
X122294271Y-95405380D01*
X122238112Y-95515600D01*
X122233081Y-95525474D01*
X122217300Y-95625112D01*
X122217300Y-96142088D01*
X122233081Y-96241726D01*
X122248416Y-96271822D01*
X122294270Y-96361818D01*
X122294272Y-96361820D01*
X122389580Y-96457128D01*
X122509674Y-96518319D01*
X122609312Y-96534100D01*
X122609315Y-96534100D01*
X123176285Y-96534100D01*
X123176288Y-96534100D01*
X123275926Y-96518319D01*
X123396020Y-96457128D01*
X123491328Y-96361820D01*
X123534089Y-96277897D01*
X123582838Y-96226282D01*
X123646356Y-96209100D01*
X124726651Y-96209100D01*
X124726653Y-96209100D01*
X124809439Y-96186918D01*
X124883662Y-96144065D01*
X125241286Y-95786438D01*
X125241296Y-95786431D01*
X125258523Y-95769205D01*
X125320835Y-95735179D01*
X125347618Y-95732300D01*
X125756064Y-95732300D01*
X125756066Y-95732300D01*
X125786499Y-95729446D01*
X125914682Y-95684593D01*
X125925155Y-95676864D01*
X126023950Y-95603950D01*
X126104591Y-95494685D01*
X126104593Y-95494681D01*
X126106994Y-95487821D01*
X126149446Y-95366499D01*
X126152300Y-95336066D01*
X126152300Y-95044713D01*
X126172302Y-94976592D01*
X126225958Y-94930099D01*
X126296232Y-94919995D01*
X126355004Y-94944751D01*
X126400447Y-94979621D01*
X126425359Y-94998736D01*
X126571438Y-95059244D01*
X126728200Y-95079882D01*
X126884962Y-95059244D01*
X127031041Y-94998736D01*
X127156482Y-94902482D01*
X127170266Y-94884518D01*
X127197524Y-94848996D01*
X127254862Y-94807129D01*
X127297486Y-94799700D01*
X127406051Y-94799700D01*
X127406053Y-94799700D01*
X127488839Y-94777518D01*
X127563062Y-94734665D01*
X127689723Y-94608003D01*
X127752033Y-94573980D01*
X127778817Y-94571100D01*
X131571651Y-94571100D01*
X131571653Y-94571100D01*
X131654439Y-94548918D01*
X131728662Y-94506065D01*
X131845123Y-94389603D01*
X131907433Y-94355580D01*
X131934217Y-94352700D01*
X132054182Y-94352700D01*
X132122303Y-94372702D01*
X132168796Y-94426358D01*
X132178900Y-94496632D01*
X132149406Y-94561212D01*
X132143277Y-94567796D01*
X131701180Y-95009891D01*
X131638868Y-95043916D01*
X131595639Y-95045717D01*
X131528802Y-95036918D01*
X131528800Y-95036918D01*
X131372039Y-95057555D01*
X131225960Y-95118063D01*
X131225957Y-95118065D01*
X131100518Y-95214318D01*
X131004265Y-95339757D01*
X131004263Y-95339760D01*
X130943755Y-95485839D01*
X130923118Y-95642599D01*
X130923118Y-95642600D01*
X130943755Y-95799360D01*
X131002446Y-95941051D01*
X131004264Y-95945441D01*
X131100518Y-96070882D01*
X131225959Y-96167136D01*
X131372038Y-96227644D01*
X131528800Y-96248282D01*
X131685562Y-96227644D01*
X131831641Y-96167136D01*
X131957082Y-96070882D01*
X132053336Y-95945441D01*
X132113844Y-95799362D01*
X132134482Y-95642600D01*
X132125681Y-95575758D01*
X132136619Y-95505613D01*
X132161505Y-95470220D01*
X132471123Y-95160604D01*
X132533435Y-95126579D01*
X132560218Y-95123700D01*
X132630581Y-95123700D01*
X132698702Y-95143702D01*
X132745195Y-95197358D01*
X132755299Y-95267632D01*
X132746990Y-95297918D01*
X132721755Y-95358839D01*
X132701118Y-95515599D01*
X132701118Y-95515600D01*
X132720988Y-95666533D01*
X132710048Y-95736682D01*
X132662920Y-95789780D01*
X132644286Y-95799387D01*
X132572162Y-95829262D01*
X132572157Y-95829265D01*
X132446718Y-95925518D01*
X132350465Y-96050957D01*
X132350463Y-96050960D01*
X132289955Y-96197039D01*
X132269318Y-96353799D01*
X132269318Y-96353800D01*
X132289955Y-96510560D01*
X132335204Y-96619799D01*
X132350464Y-96656641D01*
X132446718Y-96782082D01*
X132567184Y-96874519D01*
X132609051Y-96931856D01*
X132613273Y-97002727D01*
X132578509Y-97064630D01*
X132515796Y-97097911D01*
X132506927Y-97099403D01*
X132430824Y-97109422D01*
X132371632Y-97117215D01*
X132331986Y-97133637D01*
X132225554Y-97177722D01*
X132225551Y-97177724D01*
X132100112Y-97273977D01*
X132003859Y-97399416D01*
X132003857Y-97399419D01*
X131943349Y-97545498D01*
X131922712Y-97702258D01*
X131922712Y-97702259D01*
X131943349Y-97859019D01*
X131993665Y-97980491D01*
X132003858Y-98005100D01*
X132100112Y-98130541D01*
X132225553Y-98226795D01*
X132371632Y-98287303D01*
X132528394Y-98307941D01*
X132685156Y-98287303D01*
X132831235Y-98226795D01*
X132956676Y-98130541D01*
X133052930Y-98005100D01*
X133113438Y-97859021D01*
X133134076Y-97702259D01*
X133133291Y-97696300D01*
X133115892Y-97564136D01*
X133113438Y-97545497D01*
X133052930Y-97399418D01*
X132956676Y-97273977D01*
X132836208Y-97181539D01*
X132794342Y-97124202D01*
X132790120Y-97053331D01*
X132824884Y-96991428D01*
X132887597Y-96958147D01*
X132896444Y-96956658D01*
X133031762Y-96938844D01*
X133177841Y-96878336D01*
X133303282Y-96782082D01*
X133323740Y-96755421D01*
X133344324Y-96728596D01*
X133401662Y-96686729D01*
X133444286Y-96679300D01*
X133730651Y-96679300D01*
X133730653Y-96679300D01*
X133813439Y-96657118D01*
X133887662Y-96614265D01*
X134012423Y-96489503D01*
X134074733Y-96455480D01*
X134101517Y-96452600D01*
X134221482Y-96452600D01*
X134289603Y-96472602D01*
X134336096Y-96526258D01*
X134346200Y-96596532D01*
X134316706Y-96661112D01*
X134310578Y-96667695D01*
X134255046Y-96723227D01*
X134255044Y-96723229D01*
X134149400Y-96828873D01*
X134069382Y-96908891D01*
X134007070Y-96942916D01*
X133996734Y-96944717D01*
X133861239Y-96962555D01*
X133715160Y-97023063D01*
X133715157Y-97023065D01*
X133589718Y-97119318D01*
X133493465Y-97244757D01*
X133493463Y-97244760D01*
X133432955Y-97390839D01*
X133412318Y-97547599D01*
X133412318Y-97547600D01*
X133432955Y-97704360D01*
X133486398Y-97833381D01*
X133493464Y-97850441D01*
X133589718Y-97975882D01*
X133715159Y-98072136D01*
X133861238Y-98132644D01*
X134018000Y-98153282D01*
X134174762Y-98132644D01*
X134320841Y-98072136D01*
X134446282Y-97975882D01*
X134542536Y-97850441D01*
X134603044Y-97704362D01*
X134623682Y-97547600D01*
X134622171Y-97536126D01*
X134603070Y-97391035D01*
X134614009Y-97320886D01*
X134661138Y-97267788D01*
X134727992Y-97248589D01*
X137946692Y-97248589D01*
X138014813Y-97268591D01*
X138061306Y-97322247D01*
X138071410Y-97392521D01*
X138041916Y-97457101D01*
X138035788Y-97463684D01*
X137600737Y-97898735D01*
X137600732Y-97898741D01*
X137557884Y-97972956D01*
X137557881Y-97972963D01*
X137549270Y-98005101D01*
X137540651Y-98037269D01*
X137540651Y-98037270D01*
X137540650Y-98037269D01*
X137535700Y-98055744D01*
X137535700Y-99546717D01*
X137515698Y-99614838D01*
X137462042Y-99661331D01*
X137391768Y-99671435D01*
X137327188Y-99641941D01*
X137312642Y-99626094D01*
X137213619Y-99527071D01*
X137120115Y-99479429D01*
X137093526Y-99465881D01*
X136993888Y-99450100D01*
X136426912Y-99450100D01*
X136327274Y-99465881D01*
X136327272Y-99465881D01*
X136327272Y-99465882D01*
X136207180Y-99527071D01*
X136111871Y-99622380D01*
X136069438Y-99705661D01*
X136050681Y-99742474D01*
X136034900Y-99842112D01*
X136034900Y-100359088D01*
X136050681Y-100458726D01*
X136094180Y-100544097D01*
X136107284Y-100613874D01*
X136080584Y-100679658D01*
X136022556Y-100720565D01*
X135981913Y-100727300D01*
X134594494Y-100727300D01*
X134526373Y-100707298D01*
X134482227Y-100658503D01*
X134471963Y-100638359D01*
X134426728Y-100549580D01*
X134331420Y-100454272D01*
X134331419Y-100454271D01*
X134242651Y-100409042D01*
X134211326Y-100393081D01*
X134111688Y-100377300D01*
X133594712Y-100377300D01*
X133495074Y-100393081D01*
X133495072Y-100393081D01*
X133495072Y-100393082D01*
X133374980Y-100454271D01*
X133279671Y-100549580D01*
X133229341Y-100648360D01*
X133218481Y-100669674D01*
X133202700Y-100769312D01*
X133202700Y-101336288D01*
X133218481Y-101435926D01*
X133264946Y-101527118D01*
X133281580Y-101559764D01*
X133294684Y-101629541D01*
X133267984Y-101695325D01*
X133258409Y-101706062D01*
X133115078Y-101849395D01*
X133052766Y-101883420D01*
X133025982Y-101886300D01*
X130708886Y-101886300D01*
X130640765Y-101866298D01*
X130608924Y-101837004D01*
X130567884Y-101783520D01*
X130567882Y-101783519D01*
X130567882Y-101783518D01*
X130442441Y-101687264D01*
X130421484Y-101678583D01*
X130296360Y-101626755D01*
X130139600Y-101606118D01*
X129982839Y-101626755D01*
X129836760Y-101687263D01*
X129836757Y-101687265D01*
X129711318Y-101783518D01*
X129615065Y-101908957D01*
X129615063Y-101908960D01*
X129554555Y-102055039D01*
X129533918Y-102211799D01*
X129533918Y-102211800D01*
X129554555Y-102368560D01*
X129604304Y-102488663D01*
X129615064Y-102514641D01*
X129711318Y-102640082D01*
X129836759Y-102736336D01*
X129982838Y-102796844D01*
X130139600Y-102817482D01*
X130296362Y-102796844D01*
X130442441Y-102736336D01*
X130567882Y-102640082D01*
X130586203Y-102616206D01*
X130608924Y-102586596D01*
X130666262Y-102544729D01*
X130708886Y-102537300D01*
X133255851Y-102537300D01*
X133255853Y-102537300D01*
X133338639Y-102515118D01*
X133412862Y-102472265D01*
X134042686Y-101842438D01*
X134042696Y-101842431D01*
X134113661Y-101771466D01*
X134113665Y-101771462D01*
X134113667Y-101771457D01*
X134118694Y-101764908D01*
X134120816Y-101766536D01*
X134162594Y-101726680D01*
X134200652Y-101714209D01*
X134211326Y-101712519D01*
X134331420Y-101651328D01*
X134426728Y-101556020D01*
X134482227Y-101447096D01*
X134530976Y-101395482D01*
X134594494Y-101378300D01*
X136258900Y-101378300D01*
X136327021Y-101398302D01*
X136373514Y-101451958D01*
X136384900Y-101504300D01*
X136384900Y-101754747D01*
X136384900Y-101840453D01*
X136407082Y-101923239D01*
X136407083Y-101923241D01*
X136407084Y-101923243D01*
X136449932Y-101997458D01*
X136449937Y-101997464D01*
X137367729Y-102915255D01*
X137367750Y-102915278D01*
X137432733Y-102980261D01*
X137432742Y-102980268D01*
X137469849Y-103001691D01*
X137469852Y-103001692D01*
X137506961Y-103023118D01*
X137586356Y-103044392D01*
X137646977Y-103081343D01*
X137653695Y-103089381D01*
X137737718Y-103198882D01*
X137863159Y-103295136D01*
X138009238Y-103355644D01*
X138166000Y-103376282D01*
X138322762Y-103355644D01*
X138377482Y-103332977D01*
X138448070Y-103325388D01*
X138511558Y-103357166D01*
X138547786Y-103418224D01*
X138551700Y-103449386D01*
X138551700Y-103562182D01*
X138531698Y-103630303D01*
X138514795Y-103651277D01*
X136387740Y-105778331D01*
X136387732Y-105778341D01*
X136344884Y-105852556D01*
X136344882Y-105852561D01*
X136327419Y-105917735D01*
X136327419Y-105917736D01*
X136327418Y-105917735D01*
X136322700Y-105935343D01*
X136322700Y-106395945D01*
X136302698Y-106464066D01*
X136249042Y-106510559D01*
X136178768Y-106520663D01*
X136114188Y-106491169D01*
X136107605Y-106485040D01*
X136105088Y-106482523D01*
X136105082Y-106482518D01*
X135979641Y-106386264D01*
X135979638Y-106386262D01*
X135979635Y-106386261D01*
X135892177Y-106350034D01*
X135836896Y-106305486D01*
X135814476Y-106238122D01*
X135815946Y-106213925D01*
X135824500Y-106159919D01*
X135824499Y-105546882D01*
X135809646Y-105453096D01*
X135770426Y-105376122D01*
X135752050Y-105340057D01*
X135662342Y-105250349D01*
X135563766Y-105200123D01*
X135549304Y-105192754D01*
X135455519Y-105177900D01*
X135455515Y-105177900D01*
X134992483Y-105177900D01*
X134898697Y-105192753D01*
X134785657Y-105250349D01*
X134695949Y-105340057D01*
X134638355Y-105453094D01*
X134638354Y-105453096D01*
X134623500Y-105546881D01*
X134623500Y-105546884D01*
X134623500Y-106159916D01*
X134630429Y-106203663D01*
X134637100Y-106245789D01*
X134637101Y-106245791D01*
X134628001Y-106316202D01*
X134582278Y-106370515D01*
X134514449Y-106391487D01*
X134512652Y-106391500D01*
X134285348Y-106391500D01*
X134217227Y-106371498D01*
X134170734Y-106317842D01*
X134160630Y-106247568D01*
X134160899Y-106245791D01*
X134174500Y-106159919D01*
X134174499Y-105546882D01*
X134159646Y-105453096D01*
X134120426Y-105376122D01*
X134102050Y-105340057D01*
X134012342Y-105250349D01*
X133913766Y-105200123D01*
X133899304Y-105192754D01*
X133805519Y-105177900D01*
X133805515Y-105177900D01*
X133342483Y-105177900D01*
X133248697Y-105192753D01*
X133135657Y-105250349D01*
X133045951Y-105340055D01*
X133045949Y-105340058D01*
X132985293Y-105459103D01*
X132936544Y-105510718D01*
X132873026Y-105527900D01*
X130083613Y-105527900D01*
X130015492Y-105507898D01*
X129968999Y-105454242D01*
X129958691Y-105418346D01*
X129957729Y-105411042D01*
X129937244Y-105255438D01*
X129876736Y-105109359D01*
X129780482Y-104983918D01*
X129655041Y-104887664D01*
X129539017Y-104839605D01*
X129508960Y-104827155D01*
X129352200Y-104806518D01*
X129195439Y-104827155D01*
X129049360Y-104887663D01*
X129049357Y-104887665D01*
X128923918Y-104983918D01*
X128827665Y-105109357D01*
X128827663Y-105109360D01*
X128767155Y-105255439D01*
X128746518Y-105412199D01*
X128746518Y-105412200D01*
X128767155Y-105568960D01*
X128807551Y-105666483D01*
X128827664Y-105715041D01*
X128923918Y-105840482D01*
X129049359Y-105936736D01*
X129195438Y-105997244D01*
X129352200Y-106017882D01*
X129419041Y-106009081D01*
X129489186Y-106020019D01*
X129524578Y-106044905D01*
X129593538Y-106113865D01*
X129593539Y-106113866D01*
X129593541Y-106113867D01*
X129615490Y-106126539D01*
X129667761Y-106156718D01*
X129750547Y-106178900D01*
X129910178Y-106178900D01*
X129978299Y-106198902D01*
X130024792Y-106252558D01*
X130034896Y-106322832D01*
X130005402Y-106387412D01*
X129973179Y-106414017D01*
X129966180Y-106418059D01*
X129899541Y-106456532D01*
X129899531Y-106456540D01*
X128817740Y-107538331D01*
X128817732Y-107538341D01*
X128774884Y-107612556D01*
X128774882Y-107612560D01*
X128774882Y-107612561D01*
X128757755Y-107676482D01*
X128752700Y-107695347D01*
X128752700Y-114245347D01*
X128752700Y-114331053D01*
X128774882Y-114413839D01*
X128774883Y-114413841D01*
X128774884Y-114413843D01*
X128817732Y-114488058D01*
X128817734Y-114488060D01*
X128817735Y-114488062D01*
X129045491Y-114715818D01*
X129079515Y-114778129D01*
X129081317Y-114821357D01*
X129072518Y-114888198D01*
X129072518Y-114888201D01*
X129093155Y-115044960D01*
X129118894Y-115107098D01*
X129153664Y-115191041D01*
X129249918Y-115316482D01*
X129375359Y-115412736D01*
X129521438Y-115473244D01*
X129678200Y-115493882D01*
X129834962Y-115473244D01*
X129981041Y-115412736D01*
X130106482Y-115316482D01*
X130202736Y-115191041D01*
X130263244Y-115044962D01*
X130283882Y-114888200D01*
X130263244Y-114731438D01*
X130202736Y-114585359D01*
X130106482Y-114459918D01*
X129981041Y-114363664D01*
X129957322Y-114353839D01*
X129834960Y-114303155D01*
X129678200Y-114282518D01*
X129678198Y-114282518D01*
X129611357Y-114291317D01*
X129541208Y-114280377D01*
X129505817Y-114255490D01*
X129440605Y-114190278D01*
X129406579Y-114127966D01*
X129403700Y-114101183D01*
X129403700Y-107925217D01*
X129423702Y-107857096D01*
X129440605Y-107836122D01*
X130197322Y-107079405D01*
X130259634Y-107045379D01*
X130286417Y-107042500D01*
X131758703Y-107042500D01*
X131826824Y-107062502D01*
X131873317Y-107116158D01*
X131883421Y-107186432D01*
X131875111Y-107216717D01*
X131874955Y-107217096D01*
X131873155Y-107221439D01*
X131852518Y-107378199D01*
X131852518Y-107378200D01*
X131873155Y-107534960D01*
X131931776Y-107676482D01*
X131933664Y-107681041D01*
X132029918Y-107806482D01*
X132155359Y-107902736D01*
X132301438Y-107963244D01*
X132458200Y-107983882D01*
X132525041Y-107975081D01*
X132595186Y-107986019D01*
X132630578Y-108010905D01*
X132788338Y-108168665D01*
X132788340Y-108168666D01*
X132788341Y-108168667D01*
X132804607Y-108178058D01*
X132862561Y-108211518D01*
X132945347Y-108233700D01*
X133031053Y-108233700D01*
X135328183Y-108233700D01*
X135396304Y-108253702D01*
X135442797Y-108307358D01*
X135452901Y-108377632D01*
X135423407Y-108442212D01*
X135417278Y-108448795D01*
X134371278Y-109494795D01*
X134308966Y-109528821D01*
X134282183Y-109531700D01*
X130665053Y-109531700D01*
X130579347Y-109531700D01*
X130496561Y-109553882D01*
X130496559Y-109553883D01*
X130496556Y-109553884D01*
X130422341Y-109596732D01*
X130422331Y-109596740D01*
X130107740Y-109911331D01*
X130107732Y-109911341D01*
X130064884Y-109985556D01*
X130064882Y-109985561D01*
X130049572Y-110042700D01*
X130049572Y-110042701D01*
X130049571Y-110042700D01*
X130042700Y-110068344D01*
X130042700Y-110068347D01*
X130042700Y-111765347D01*
X130042700Y-111851053D01*
X130064882Y-111933839D01*
X130064883Y-111933841D01*
X130064884Y-111933843D01*
X130107732Y-112008058D01*
X130107737Y-112008064D01*
X130673329Y-112573655D01*
X130673350Y-112573678D01*
X130738331Y-112638659D01*
X130738336Y-112638663D01*
X130738338Y-112638665D01*
X130738339Y-112638666D01*
X130738341Y-112638667D01*
X130773037Y-112658698D01*
X130773039Y-112658700D01*
X130773040Y-112658700D01*
X130812561Y-112681518D01*
X130812565Y-112681519D01*
X130812567Y-112681520D01*
X130895209Y-112703664D01*
X130895347Y-112703701D01*
X130988771Y-112703701D01*
X130988787Y-112703700D01*
X131420652Y-112703700D01*
X131420653Y-112703700D01*
X131420653Y-112703699D01*
X131428840Y-112702622D01*
X131429003Y-112703866D01*
X131472973Y-112703865D01*
X131473250Y-112701766D01*
X131481437Y-112702843D01*
X131481438Y-112702844D01*
X131638200Y-112723482D01*
X131794962Y-112702844D01*
X131941041Y-112642336D01*
X132066482Y-112546082D01*
X132162736Y-112420641D01*
X132223244Y-112274562D01*
X132243882Y-112117800D01*
X132236412Y-112061063D01*
X132224851Y-111973244D01*
X132223244Y-111961038D01*
X132162736Y-111814959D01*
X132066482Y-111689518D01*
X131941041Y-111593264D01*
X131863882Y-111561303D01*
X131808604Y-111516756D01*
X131786183Y-111449393D01*
X131803742Y-111380601D01*
X131835398Y-111344934D01*
X131872479Y-111316482D01*
X131897633Y-111283701D01*
X131913521Y-111262996D01*
X131970859Y-111221129D01*
X132013483Y-111213700D01*
X134107783Y-111213700D01*
X134175904Y-111233702D01*
X134196878Y-111250605D01*
X135060395Y-112114122D01*
X135094421Y-112176434D01*
X135097300Y-112203217D01*
X135097300Y-117434347D01*
X135097300Y-117520053D01*
X135119482Y-117602839D01*
X135119483Y-117602841D01*
X135119484Y-117602843D01*
X135162332Y-117677058D01*
X135162340Y-117677068D01*
X136918378Y-119433105D01*
X136952403Y-119495417D01*
X136947339Y-119566232D01*
X136904792Y-119623068D01*
X136838272Y-119647879D01*
X136829283Y-119648200D01*
X99744162Y-119648200D01*
X99676041Y-119628198D01*
X99629548Y-119574542D01*
X99618162Y-119522238D01*
X99618125Y-119400493D01*
X99617327Y-116746309D01*
X101339700Y-116746309D01*
X101339700Y-116988890D01*
X101371360Y-117229382D01*
X101434144Y-117463695D01*
X101434145Y-117463697D01*
X101434146Y-117463700D01*
X101526976Y-117687812D01*
X101526977Y-117687813D01*
X101526982Y-117687824D01*
X101648261Y-117897885D01*
X101648263Y-117897888D01*
X101648264Y-117897889D01*
X101795935Y-118090338D01*
X101795939Y-118090342D01*
X101795944Y-118090348D01*
X101967451Y-118261855D01*
X101967456Y-118261859D01*
X101967462Y-118261865D01*
X102158007Y-118408075D01*
X102159914Y-118409538D01*
X102369975Y-118530817D01*
X102369979Y-118530818D01*
X102369988Y-118530824D01*
X102594100Y-118623654D01*
X102828411Y-118686438D01*
X102828415Y-118686438D01*
X102828417Y-118686439D01*
X102890402Y-118694599D01*
X103068912Y-118718100D01*
X103068919Y-118718100D01*
X103311481Y-118718100D01*
X103311488Y-118718100D01*
X103528837Y-118689485D01*
X103551982Y-118686439D01*
X103551982Y-118686438D01*
X103551989Y-118686438D01*
X103786300Y-118623654D01*
X104010412Y-118530824D01*
X104220489Y-118409536D01*
X104412938Y-118261865D01*
X104584465Y-118090338D01*
X104732136Y-117897889D01*
X104853424Y-117687812D01*
X104946254Y-117463700D01*
X105009038Y-117229389D01*
X105040700Y-116988888D01*
X105040700Y-116746312D01*
X105009038Y-116505811D01*
X104946254Y-116271500D01*
X104853424Y-116047388D01*
X104853418Y-116047379D01*
X104853417Y-116047375D01*
X104732138Y-115837314D01*
X104722660Y-115824962D01*
X104584465Y-115644862D01*
X104584459Y-115644856D01*
X104584455Y-115644851D01*
X104412948Y-115473344D01*
X104412942Y-115473339D01*
X104412938Y-115473335D01*
X104220489Y-115325664D01*
X104220488Y-115325663D01*
X104220485Y-115325661D01*
X104010424Y-115204382D01*
X104010416Y-115204378D01*
X104010412Y-115204376D01*
X103786300Y-115111546D01*
X103786297Y-115111545D01*
X103786295Y-115111544D01*
X103551982Y-115048760D01*
X103311490Y-115017100D01*
X103311488Y-115017100D01*
X103068912Y-115017100D01*
X103068909Y-115017100D01*
X102828417Y-115048760D01*
X102594104Y-115111544D01*
X102594100Y-115111546D01*
X102402180Y-115191042D01*
X102369986Y-115204377D01*
X102369975Y-115204382D01*
X102159914Y-115325661D01*
X101967462Y-115473335D01*
X101967451Y-115473344D01*
X101795944Y-115644851D01*
X101795935Y-115644862D01*
X101648261Y-115837314D01*
X101526982Y-116047375D01*
X101526977Y-116047386D01*
X101526976Y-116047388D01*
X101493800Y-116127482D01*
X101434146Y-116271500D01*
X101434144Y-116271504D01*
X101371360Y-116505817D01*
X101339700Y-116746309D01*
X99617327Y-116746309D01*
X99609833Y-91832596D01*
X100526059Y-91832596D01*
X100526059Y-91832603D01*
X100545374Y-92028724D01*
X100545374Y-92028726D01*
X100602586Y-92217328D01*
X100671560Y-92346368D01*
X100695490Y-92391138D01*
X100820517Y-92543483D01*
X100972862Y-92668510D01*
X101146673Y-92761414D01*
X101335268Y-92818624D01*
X101335272Y-92818624D01*
X101335274Y-92818625D01*
X101531397Y-92837941D01*
X101531400Y-92837941D01*
X101531403Y-92837941D01*
X101727524Y-92818625D01*
X101727526Y-92818625D01*
X101727527Y-92818624D01*
X101727532Y-92818624D01*
X101916127Y-92761414D01*
X102089938Y-92668510D01*
X102242283Y-92543483D01*
X102367310Y-92391138D01*
X102460214Y-92217327D01*
X102517424Y-92028732D01*
X102521015Y-91992272D01*
X102536741Y-91832603D01*
X102536741Y-91832596D01*
X102517425Y-91636475D01*
X102517425Y-91636473D01*
X102517424Y-91636470D01*
X102517424Y-91636468D01*
X102460214Y-91447873D01*
X102367310Y-91274062D01*
X102242283Y-91121717D01*
X102089938Y-90996690D01*
X102029973Y-90964638D01*
X101916128Y-90903786D01*
X101727525Y-90846574D01*
X101531403Y-90827259D01*
X101531397Y-90827259D01*
X101335275Y-90846574D01*
X101335273Y-90846574D01*
X101146671Y-90903786D01*
X100972861Y-90996690D01*
X100820517Y-91121717D01*
X100695490Y-91274061D01*
X100602586Y-91447871D01*
X100545374Y-91636473D01*
X100545374Y-91636475D01*
X100526059Y-91832596D01*
X99609833Y-91832596D01*
X99608837Y-88520264D01*
X99628819Y-88452141D01*
X99682460Y-88405632D01*
X99734864Y-88394230D01*
X124950302Y-88400330D01*
G37*
%TD.AperFunction*%
%TA.AperFunction,Conductor*%
G36*
X127489552Y-88400944D02*
G01*
X127557667Y-88420963D01*
X127604147Y-88474629D01*
X127614234Y-88544906D01*
X127584725Y-88609480D01*
X127569454Y-88624344D01*
X127513590Y-88670189D01*
X127382313Y-88830152D01*
X127284768Y-89012645D01*
X127224698Y-89210672D01*
X127204417Y-89416596D01*
X127204417Y-89416603D01*
X127224698Y-89622527D01*
X127224699Y-89622533D01*
X127224700Y-89622534D01*
X127284768Y-89820554D01*
X127382315Y-90003050D01*
X127513590Y-90163010D01*
X127673550Y-90294285D01*
X127673552Y-90294286D01*
X127856048Y-90391833D01*
X127856714Y-90392109D01*
X127857009Y-90392347D01*
X127861505Y-90394750D01*
X127861049Y-90395602D01*
X127911997Y-90436655D01*
X127934420Y-90504018D01*
X127934500Y-90508519D01*
X127934500Y-91147311D01*
X127914498Y-91215432D01*
X127867898Y-91258432D01*
X127751750Y-91320515D01*
X127642302Y-91410336D01*
X127591790Y-91451790D01*
X127460513Y-91611752D01*
X127362968Y-91794245D01*
X127302898Y-91992272D01*
X127282617Y-92198196D01*
X127282617Y-92198203D01*
X127302898Y-92404127D01*
X127302899Y-92404133D01*
X127302900Y-92404134D01*
X127334619Y-92508698D01*
X127362968Y-92602154D01*
X127452091Y-92768891D01*
X127460515Y-92784650D01*
X127591790Y-92944610D01*
X127751750Y-93075885D01*
X127934246Y-93173432D01*
X128132266Y-93233500D01*
X128132270Y-93233500D01*
X128132272Y-93233501D01*
X128338197Y-93253783D01*
X128338200Y-93253783D01*
X128338203Y-93253783D01*
X128544127Y-93233501D01*
X128544128Y-93233500D01*
X128544134Y-93233500D01*
X128742154Y-93173432D01*
X128924650Y-93075885D01*
X129084610Y-92944610D01*
X129215885Y-92784650D01*
X129313432Y-92602154D01*
X129373500Y-92404134D01*
X129377424Y-92364300D01*
X129393783Y-92198203D01*
X129393783Y-92198196D01*
X129373501Y-91992272D01*
X129373500Y-91992270D01*
X129373500Y-91992266D01*
X129313432Y-91794246D01*
X129215885Y-91611750D01*
X129084610Y-91451790D01*
X128924650Y-91320515D01*
X128924648Y-91320514D01*
X128924647Y-91320513D01*
X128742153Y-91222967D01*
X128742148Y-91222965D01*
X128674924Y-91202573D01*
X128615543Y-91163658D01*
X128586627Y-91098816D01*
X128585500Y-91081999D01*
X128585500Y-90508519D01*
X128605502Y-90440398D01*
X128659158Y-90393905D01*
X128663286Y-90392109D01*
X128663951Y-90391833D01*
X128663951Y-90391832D01*
X128663954Y-90391832D01*
X128846450Y-90294285D01*
X129006410Y-90163010D01*
X129137685Y-90003050D01*
X129235232Y-89820554D01*
X129295300Y-89622534D01*
X129315583Y-89416600D01*
X129295300Y-89210666D01*
X129235232Y-89012646D01*
X129137685Y-88830150D01*
X129006410Y-88670190D01*
X128950998Y-88624715D01*
X128911030Y-88566039D01*
X128909129Y-88495068D01*
X128945899Y-88434335D01*
X129009667Y-88403123D01*
X129030948Y-88401317D01*
X130028808Y-88401558D01*
X130096919Y-88421576D01*
X130143399Y-88475242D01*
X130153486Y-88545519D01*
X130123978Y-88610092D01*
X130108707Y-88624956D01*
X130053590Y-88670189D01*
X129922313Y-88830152D01*
X129824768Y-89012645D01*
X129764698Y-89210672D01*
X129744417Y-89416596D01*
X129744417Y-89416603D01*
X129764698Y-89622527D01*
X129764699Y-89622533D01*
X129764700Y-89622534D01*
X129824768Y-89820554D01*
X129922315Y-90003050D01*
X130053590Y-90163010D01*
X130213550Y-90294285D01*
X130396046Y-90391832D01*
X130463275Y-90412225D01*
X130522656Y-90451140D01*
X130551572Y-90515981D01*
X130552700Y-90532800D01*
X130552700Y-91106280D01*
X130532698Y-91174401D01*
X130479042Y-91220894D01*
X130474930Y-91222684D01*
X130474250Y-91222965D01*
X130291752Y-91320513D01*
X130131790Y-91451790D01*
X130000513Y-91611752D01*
X129902968Y-91794245D01*
X129842898Y-91992272D01*
X129822617Y-92198196D01*
X129822617Y-92198203D01*
X129842898Y-92404127D01*
X129842899Y-92404133D01*
X129842900Y-92404134D01*
X129874619Y-92508698D01*
X129902968Y-92602154D01*
X129992091Y-92768891D01*
X130000515Y-92784650D01*
X130131790Y-92944610D01*
X130291750Y-93075885D01*
X130474246Y-93173432D01*
X130672266Y-93233500D01*
X130672270Y-93233500D01*
X130672272Y-93233501D01*
X130878197Y-93253783D01*
X130878200Y-93253783D01*
X130878203Y-93253783D01*
X131084127Y-93233501D01*
X131084128Y-93233500D01*
X131084134Y-93233500D01*
X131282154Y-93173432D01*
X131464650Y-93075885D01*
X131624610Y-92944610D01*
X131755885Y-92784650D01*
X131853432Y-92602154D01*
X131913500Y-92404134D01*
X131917424Y-92364300D01*
X131933783Y-92198203D01*
X131933783Y-92198196D01*
X131913501Y-91992272D01*
X131913500Y-91992270D01*
X131913500Y-91992266D01*
X131853432Y-91794246D01*
X131755885Y-91611750D01*
X131624610Y-91451790D01*
X131464650Y-91320515D01*
X131464648Y-91320514D01*
X131464647Y-91320513D01*
X131282149Y-91222965D01*
X131281470Y-91222684D01*
X131281169Y-91222441D01*
X131276695Y-91220050D01*
X131277148Y-91219200D01*
X131226194Y-91178130D01*
X131207318Y-91121399D01*
X137501718Y-91121399D01*
X137501718Y-91121400D01*
X137522355Y-91278160D01*
X137582169Y-91422562D01*
X137582864Y-91424241D01*
X137679118Y-91549682D01*
X137804559Y-91645936D01*
X137950638Y-91706444D01*
X138107400Y-91727082D01*
X138147645Y-91721783D01*
X138217792Y-91732721D01*
X138270891Y-91779849D01*
X138290082Y-91848202D01*
X138288540Y-91866413D01*
X138282100Y-91907080D01*
X138282100Y-92520116D01*
X138296953Y-92613902D01*
X138354549Y-92726942D01*
X138444257Y-92816650D01*
X138482899Y-92836338D01*
X138557296Y-92874246D01*
X138651081Y-92889100D01*
X139114118Y-92889099D01*
X139207904Y-92874246D01*
X139320942Y-92816650D01*
X139410650Y-92726942D01*
X139468246Y-92613904D01*
X139483100Y-92520119D01*
X139483099Y-91907082D01*
X139483099Y-91907081D01*
X139932100Y-91907081D01*
X139932100Y-91907084D01*
X139932100Y-92520116D01*
X139946953Y-92613902D01*
X140004549Y-92726942D01*
X140094257Y-92816650D01*
X140132899Y-92836338D01*
X140207296Y-92874246D01*
X140301081Y-92889100D01*
X140764118Y-92889099D01*
X140857904Y-92874246D01*
X140970942Y-92816650D01*
X141060650Y-92726942D01*
X141106903Y-92636166D01*
X141121307Y-92607897D01*
X141170056Y-92556282D01*
X141233574Y-92539100D01*
X141579251Y-92539100D01*
X141579253Y-92539100D01*
X141662039Y-92516918D01*
X141736262Y-92474065D01*
X141957732Y-92252594D01*
X142020043Y-92218571D01*
X142046826Y-92215691D01*
X144846837Y-92215691D01*
X144895054Y-92225281D01*
X144968838Y-92255844D01*
X145125600Y-92276482D01*
X145282362Y-92255844D01*
X145428441Y-92195336D01*
X145553882Y-92099082D01*
X145650136Y-91973641D01*
X145710644Y-91827562D01*
X145731282Y-91670800D01*
X145710644Y-91514038D01*
X145650136Y-91367959D01*
X145553882Y-91242518D01*
X145428441Y-91146264D01*
X145390447Y-91130526D01*
X145282360Y-91085755D01*
X145125600Y-91065118D01*
X144968839Y-91085755D01*
X144822760Y-91146263D01*
X144822757Y-91146265D01*
X144697318Y-91242518D01*
X144601065Y-91367957D01*
X144601064Y-91367959D01*
X144560838Y-91465074D01*
X144551793Y-91486910D01*
X144507244Y-91542190D01*
X144439881Y-91564611D01*
X144435384Y-91564691D01*
X141816956Y-91564691D01*
X141734171Y-91586873D01*
X141734170Y-91586873D01*
X141734168Y-91586874D01*
X141711242Y-91600110D01*
X141693161Y-91610550D01*
X141676554Y-91620138D01*
X141659948Y-91629725D01*
X141659944Y-91629728D01*
X141589418Y-91700255D01*
X141438476Y-91851196D01*
X141376166Y-91885220D01*
X141349383Y-91888100D01*
X141233574Y-91888100D01*
X141165453Y-91868098D01*
X141121307Y-91819303D01*
X141060650Y-91700258D01*
X141060648Y-91700255D01*
X140970942Y-91610549D01*
X140880550Y-91564493D01*
X140857904Y-91552954D01*
X140764119Y-91538100D01*
X140764115Y-91538100D01*
X140301083Y-91538100D01*
X140207297Y-91552953D01*
X140094257Y-91610549D01*
X140004549Y-91700257D01*
X139946955Y-91813294D01*
X139946954Y-91813296D01*
X139932100Y-91907081D01*
X139483099Y-91907081D01*
X139468246Y-91813296D01*
X139421618Y-91721783D01*
X139410650Y-91700257D01*
X139320942Y-91610549D01*
X139230550Y-91564493D01*
X139207904Y-91552954D01*
X139114119Y-91538100D01*
X139114116Y-91538100D01*
X139036617Y-91538100D01*
X138968496Y-91518098D01*
X138947522Y-91501195D01*
X138740108Y-91293781D01*
X138706082Y-91231469D01*
X138704281Y-91188243D01*
X138713082Y-91121400D01*
X138692444Y-90964638D01*
X138631936Y-90818559D01*
X138535682Y-90693118D01*
X138410241Y-90596864D01*
X138331104Y-90564084D01*
X138264160Y-90536355D01*
X138107400Y-90515718D01*
X137950639Y-90536355D01*
X137804560Y-90596863D01*
X137804557Y-90596865D01*
X137679118Y-90693118D01*
X137582865Y-90818557D01*
X137582863Y-90818560D01*
X137522355Y-90964639D01*
X137501718Y-91121399D01*
X131207318Y-91121399D01*
X131203780Y-91110764D01*
X131203700Y-91106280D01*
X131203700Y-90467489D01*
X131223702Y-90399368D01*
X131270301Y-90356367D01*
X131386450Y-90294285D01*
X131546410Y-90163010D01*
X131677685Y-90003050D01*
X131775232Y-89820554D01*
X131835300Y-89622534D01*
X131855583Y-89416600D01*
X131835300Y-89210666D01*
X131775232Y-89012646D01*
X131677685Y-88830150D01*
X131546410Y-88670190D01*
X131491746Y-88625329D01*
X131451779Y-88566654D01*
X131449878Y-88495683D01*
X131486648Y-88434950D01*
X131550416Y-88403738D01*
X131571702Y-88401931D01*
X204486454Y-88419569D01*
X204554569Y-88439588D01*
X204601049Y-88493254D01*
X204612423Y-88545546D01*
X204615041Y-102640079D01*
X204618173Y-119504268D01*
X204618177Y-119522177D01*
X204598188Y-119590301D01*
X204544541Y-119636804D01*
X204492177Y-119648200D01*
X183265326Y-119648200D01*
X183197205Y-119628198D01*
X183150712Y-119574542D01*
X183140608Y-119504268D01*
X183170102Y-119439688D01*
X183185392Y-119424801D01*
X183190981Y-119420214D01*
X183319083Y-119315083D01*
X183444110Y-119162738D01*
X183537014Y-118988927D01*
X183594224Y-118800332D01*
X183595553Y-118786839D01*
X183613541Y-118604203D01*
X183613541Y-118604196D01*
X183594225Y-118408075D01*
X183594225Y-118408073D01*
X183594224Y-118408070D01*
X183594224Y-118408068D01*
X183537014Y-118219473D01*
X183531887Y-118209882D01*
X183488513Y-118128734D01*
X183444110Y-118045662D01*
X183319083Y-117893317D01*
X183166738Y-117768290D01*
X183125938Y-117746482D01*
X182992928Y-117675386D01*
X182847988Y-117631419D01*
X182804332Y-117618176D01*
X182804331Y-117618175D01*
X182804325Y-117618174D01*
X182608203Y-117598859D01*
X182608197Y-117598859D01*
X182412075Y-117618174D01*
X182412073Y-117618174D01*
X182223471Y-117675386D01*
X182049661Y-117768290D01*
X181897317Y-117893317D01*
X181772290Y-118045661D01*
X181679386Y-118219471D01*
X181622174Y-118408073D01*
X181622174Y-118408075D01*
X181602859Y-118604196D01*
X181602859Y-118604203D01*
X181622174Y-118800324D01*
X181622174Y-118800326D01*
X181679386Y-118988928D01*
X181729188Y-119082100D01*
X181772290Y-119162738D01*
X181897317Y-119315083D01*
X182025419Y-119420214D01*
X182031008Y-119424801D01*
X182070977Y-119483478D01*
X182072877Y-119554449D01*
X182036106Y-119615182D01*
X181972338Y-119646393D01*
X181951074Y-119648200D01*
X172032717Y-119648200D01*
X171964596Y-119628198D01*
X171918103Y-119574542D01*
X171907999Y-119504268D01*
X171937493Y-119439688D01*
X171943622Y-119433105D01*
X172988659Y-118388068D01*
X172988665Y-118388062D01*
X173031518Y-118313839D01*
X173053700Y-118231053D01*
X173053700Y-118145347D01*
X173053700Y-117908999D01*
X178936918Y-117908999D01*
X178936918Y-117909000D01*
X178957555Y-118065760D01*
X179017253Y-118209882D01*
X179018064Y-118211841D01*
X179114318Y-118337282D01*
X179239759Y-118433536D01*
X179385838Y-118494044D01*
X179542600Y-118514682D01*
X179699362Y-118494044D01*
X179845441Y-118433536D01*
X179970882Y-118337282D01*
X180067136Y-118211841D01*
X180127644Y-118065762D01*
X180148282Y-117909000D01*
X180147691Y-117904514D01*
X180129194Y-117764012D01*
X180127644Y-117752238D01*
X180067136Y-117606159D01*
X179970882Y-117480718D01*
X179845441Y-117384464D01*
X179755848Y-117347353D01*
X179699360Y-117323955D01*
X179542600Y-117303318D01*
X179385839Y-117323955D01*
X179239760Y-117384463D01*
X179239757Y-117384465D01*
X179114318Y-117480718D01*
X179018065Y-117606157D01*
X179018063Y-117606160D01*
X178957555Y-117752239D01*
X178936918Y-117908999D01*
X173053700Y-117908999D01*
X173053700Y-116822509D01*
X200094900Y-116822509D01*
X200094900Y-117065090D01*
X200126560Y-117305582D01*
X200189344Y-117539895D01*
X200189345Y-117539897D01*
X200189346Y-117539900D01*
X200282176Y-117764012D01*
X200282177Y-117764013D01*
X200282182Y-117764024D01*
X200403461Y-117974085D01*
X200403463Y-117974088D01*
X200403464Y-117974089D01*
X200551135Y-118166538D01*
X200551139Y-118166542D01*
X200551144Y-118166548D01*
X200722651Y-118338055D01*
X200722656Y-118338059D01*
X200722662Y-118338065D01*
X200915111Y-118485736D01*
X200915114Y-118485738D01*
X201125175Y-118607017D01*
X201125179Y-118607018D01*
X201125188Y-118607024D01*
X201349300Y-118699854D01*
X201583611Y-118762638D01*
X201583615Y-118762638D01*
X201583617Y-118762639D01*
X201643869Y-118770571D01*
X201824112Y-118794300D01*
X201824119Y-118794300D01*
X202066681Y-118794300D01*
X202066688Y-118794300D01*
X202284037Y-118765685D01*
X202307182Y-118762639D01*
X202307182Y-118762638D01*
X202307189Y-118762638D01*
X202541500Y-118699854D01*
X202765612Y-118607024D01*
X202975689Y-118485736D01*
X203168138Y-118338065D01*
X203339665Y-118166538D01*
X203487336Y-117974089D01*
X203608624Y-117764012D01*
X203701454Y-117539900D01*
X203764238Y-117305589D01*
X203766453Y-117288768D01*
X203774270Y-117229389D01*
X203795900Y-117065088D01*
X203795900Y-116822512D01*
X203764238Y-116582011D01*
X203701454Y-116347700D01*
X203608624Y-116123588D01*
X203608618Y-116123579D01*
X203608617Y-116123575D01*
X203487338Y-115913514D01*
X203487336Y-115913511D01*
X203339665Y-115721062D01*
X203339659Y-115721056D01*
X203339655Y-115721051D01*
X203168148Y-115549544D01*
X203168142Y-115549539D01*
X203168138Y-115549535D01*
X202975689Y-115401864D01*
X202975688Y-115401863D01*
X202975685Y-115401861D01*
X202765624Y-115280582D01*
X202765616Y-115280578D01*
X202765612Y-115280576D01*
X202541500Y-115187746D01*
X202541497Y-115187745D01*
X202541495Y-115187744D01*
X202307182Y-115124960D01*
X202066690Y-115093300D01*
X202066688Y-115093300D01*
X201824112Y-115093300D01*
X201824109Y-115093300D01*
X201583617Y-115124960D01*
X201349304Y-115187744D01*
X201349300Y-115187746D01*
X201165931Y-115263700D01*
X201125186Y-115280577D01*
X201125175Y-115280582D01*
X200915114Y-115401861D01*
X200722662Y-115549535D01*
X200722651Y-115549544D01*
X200551144Y-115721051D01*
X200551135Y-115721062D01*
X200403461Y-115913514D01*
X200282182Y-116123575D01*
X200282177Y-116123586D01*
X200282176Y-116123588D01*
X200240506Y-116224188D01*
X200189346Y-116347700D01*
X200189344Y-116347704D01*
X200126560Y-116582017D01*
X200094900Y-116822509D01*
X173053700Y-116822509D01*
X173053700Y-114009119D01*
X173073702Y-113940998D01*
X173102997Y-113909155D01*
X173106482Y-113906482D01*
X173202736Y-113781041D01*
X173263244Y-113634962D01*
X173283882Y-113478200D01*
X173263244Y-113321438D01*
X173202736Y-113175359D01*
X173106482Y-113049918D01*
X172981041Y-112953664D01*
X172888563Y-112915358D01*
X172834960Y-112893155D01*
X172678200Y-112872518D01*
X172521439Y-112893155D01*
X172375360Y-112953663D01*
X172375357Y-112953665D01*
X172249918Y-113049918D01*
X172153665Y-113175357D01*
X172153663Y-113175360D01*
X172093155Y-113321439D01*
X172072518Y-113478199D01*
X172072518Y-113478200D01*
X172093155Y-113634960D01*
X172141940Y-113752736D01*
X172153664Y-113781041D01*
X172232577Y-113883882D01*
X172249919Y-113906483D01*
X172268886Y-113921037D01*
X172353404Y-113985889D01*
X172395271Y-114043226D01*
X172402700Y-114085851D01*
X172402700Y-118001183D01*
X172382698Y-118069304D01*
X172365795Y-118090278D01*
X171283878Y-119172195D01*
X171221566Y-119206221D01*
X171194783Y-119209100D01*
X163132018Y-119209100D01*
X163063897Y-119189098D01*
X163017404Y-119135442D01*
X163007300Y-119065168D01*
X163036794Y-119000588D01*
X163042922Y-118994005D01*
X163458715Y-118578211D01*
X163877686Y-118159238D01*
X163877696Y-118159231D01*
X163948659Y-118088268D01*
X163948665Y-118088262D01*
X163973260Y-118045662D01*
X163991518Y-118014039D01*
X164004621Y-117965134D01*
X164041570Y-117904514D01*
X164049613Y-117897791D01*
X164116482Y-117846482D01*
X164212736Y-117721041D01*
X164220164Y-117703107D01*
X164264711Y-117647828D01*
X164332074Y-117625407D01*
X164400866Y-117642965D01*
X164412778Y-117652219D01*
X164413366Y-117651454D01*
X164419917Y-117656480D01*
X164419918Y-117656482D01*
X164545359Y-117752736D01*
X164691438Y-117813244D01*
X164848200Y-117833882D01*
X165004962Y-117813244D01*
X165151041Y-117752736D01*
X165276482Y-117656482D01*
X165316600Y-117604199D01*
X169132518Y-117604199D01*
X169132518Y-117604200D01*
X169153155Y-117760960D01*
X169191509Y-117853553D01*
X169213664Y-117907041D01*
X169309918Y-118032482D01*
X169435359Y-118128736D01*
X169581438Y-118189244D01*
X169738200Y-118209882D01*
X169894962Y-118189244D01*
X170041041Y-118128736D01*
X170166482Y-118032482D01*
X170262736Y-117907041D01*
X170323244Y-117760962D01*
X170343882Y-117604200D01*
X170343702Y-117602836D01*
X170327625Y-117480718D01*
X170323244Y-117447438D01*
X170262736Y-117301359D01*
X170166482Y-117175918D01*
X170041041Y-117079664D01*
X170021185Y-117071439D01*
X169894960Y-117019155D01*
X169738200Y-116998518D01*
X169581439Y-117019155D01*
X169435360Y-117079663D01*
X169435357Y-117079665D01*
X169309918Y-117175918D01*
X169213665Y-117301357D01*
X169213663Y-117301360D01*
X169153155Y-117447439D01*
X169132518Y-117604199D01*
X165316600Y-117604199D01*
X165372736Y-117531041D01*
X165433244Y-117384962D01*
X165453882Y-117228200D01*
X165433244Y-117071438D01*
X165372736Y-116925359D01*
X165276482Y-116799918D01*
X165276480Y-116799916D01*
X165276479Y-116799915D01*
X165222996Y-116758876D01*
X165181129Y-116701538D01*
X165173700Y-116658914D01*
X165173700Y-115699199D01*
X170046918Y-115699199D01*
X170046918Y-115699200D01*
X170067555Y-115855960D01*
X170115223Y-115971039D01*
X170128064Y-116002041D01*
X170224318Y-116127482D01*
X170349759Y-116223736D01*
X170495838Y-116284244D01*
X170652600Y-116304882D01*
X170809362Y-116284244D01*
X170955441Y-116223736D01*
X171080882Y-116127482D01*
X171177136Y-116002041D01*
X171237644Y-115855962D01*
X171258282Y-115699200D01*
X171256022Y-115682037D01*
X171244906Y-115597599D01*
X171237644Y-115542438D01*
X171177136Y-115396359D01*
X171080882Y-115270918D01*
X170955441Y-115174664D01*
X170880601Y-115143664D01*
X170809360Y-115114155D01*
X170652600Y-115093518D01*
X170495839Y-115114155D01*
X170349760Y-115174663D01*
X170349757Y-115174665D01*
X170224318Y-115270918D01*
X170128065Y-115396357D01*
X170128063Y-115396360D01*
X170067555Y-115542439D01*
X170046918Y-115699199D01*
X165173700Y-115699199D01*
X165173700Y-115383416D01*
X165173701Y-115383403D01*
X165173701Y-115287548D01*
X165173700Y-115287544D01*
X165151519Y-115204765D01*
X165151518Y-115204764D01*
X165151518Y-115204762D01*
X165134141Y-115174664D01*
X165108665Y-115130538D01*
X165108662Y-115130535D01*
X165108659Y-115130531D01*
X165043683Y-115065555D01*
X165043660Y-115065534D01*
X164262120Y-114283993D01*
X164228096Y-114221683D01*
X164233161Y-114150867D01*
X164275708Y-114094032D01*
X164342228Y-114069221D01*
X164351217Y-114068900D01*
X165116362Y-114068900D01*
X165184483Y-114088902D01*
X165193065Y-114094937D01*
X165236110Y-114127966D01*
X165255359Y-114142736D01*
X165401438Y-114203244D01*
X165558200Y-114223882D01*
X165714962Y-114203244D01*
X165861041Y-114142736D01*
X165986482Y-114046482D01*
X166082736Y-113921041D01*
X166104554Y-113868365D01*
X166149100Y-113813087D01*
X166216463Y-113790665D01*
X166269180Y-113800176D01*
X166275357Y-113802734D01*
X166275359Y-113802736D01*
X166421438Y-113863244D01*
X166578200Y-113883882D01*
X166734962Y-113863244D01*
X166881041Y-113802736D01*
X167006482Y-113706482D01*
X167102736Y-113581041D01*
X167163244Y-113434962D01*
X167163901Y-113429970D01*
X167192618Y-113365043D01*
X167251880Y-113325948D01*
X167322871Y-113325098D01*
X167337036Y-113329999D01*
X167441438Y-113373244D01*
X167598200Y-113393882D01*
X167754962Y-113373244D01*
X167901041Y-113312736D01*
X167935625Y-113286199D01*
X168776918Y-113286199D01*
X168776918Y-113286200D01*
X168797555Y-113442960D01*
X168834040Y-113531041D01*
X168858064Y-113589041D01*
X168954318Y-113714482D01*
X169079759Y-113810736D01*
X169225838Y-113871244D01*
X169382600Y-113891882D01*
X169539362Y-113871244D01*
X169685441Y-113810736D01*
X169810882Y-113714482D01*
X169907136Y-113589041D01*
X169967644Y-113442962D01*
X169988282Y-113286200D01*
X169979103Y-113216482D01*
X169976321Y-113195347D01*
X169967644Y-113129438D01*
X169907136Y-112983359D01*
X169810882Y-112857918D01*
X169685441Y-112761664D01*
X169666215Y-112753700D01*
X169539360Y-112701155D01*
X169382600Y-112680518D01*
X169225839Y-112701155D01*
X169079760Y-112761663D01*
X169079757Y-112761665D01*
X168954318Y-112857918D01*
X168858065Y-112983357D01*
X168858063Y-112983360D01*
X168797555Y-113129439D01*
X168776918Y-113286199D01*
X167935625Y-113286199D01*
X168026482Y-113216482D01*
X168122736Y-113091041D01*
X168183244Y-112944962D01*
X168203882Y-112788200D01*
X168200388Y-112761664D01*
X168192645Y-112702844D01*
X168183244Y-112631438D01*
X168122736Y-112485359D01*
X168026482Y-112359918D01*
X167901041Y-112263664D01*
X167820441Y-112230278D01*
X167754960Y-112203155D01*
X167598200Y-112182518D01*
X167598198Y-112182518D01*
X167529701Y-112191535D01*
X167459552Y-112180595D01*
X167445217Y-112171858D01*
X167445214Y-112171864D01*
X167363843Y-112124884D01*
X167363841Y-112124883D01*
X167363839Y-112124882D01*
X167281053Y-112102700D01*
X167281051Y-112102700D01*
X163138218Y-112102700D01*
X163070097Y-112082698D01*
X163023604Y-112029042D01*
X163013500Y-111958768D01*
X163042994Y-111894188D01*
X163049122Y-111887605D01*
X163575939Y-111360787D01*
X163638252Y-111326762D01*
X163665035Y-111323882D01*
X163668200Y-111323882D01*
X163824962Y-111303244D01*
X163971041Y-111242736D01*
X164096482Y-111146482D01*
X164192736Y-111021041D01*
X164253244Y-110874962D01*
X164273882Y-110718200D01*
X164270596Y-110693244D01*
X164263197Y-110637039D01*
X164253244Y-110561438D01*
X164192736Y-110415359D01*
X164096482Y-110289918D01*
X163971041Y-110193664D01*
X163950777Y-110185270D01*
X163824960Y-110133155D01*
X163668200Y-110112518D01*
X163511439Y-110133155D01*
X163365360Y-110193663D01*
X163365354Y-110193667D01*
X163359438Y-110198207D01*
X163293217Y-110223805D01*
X163223669Y-110209539D01*
X163172874Y-110159936D01*
X163166333Y-110146469D01*
X163132736Y-110065359D01*
X163036482Y-109939918D01*
X162911041Y-109843664D01*
X162911038Y-109843663D01*
X162911037Y-109843662D01*
X162904387Y-109840908D01*
X162849107Y-109796359D01*
X162826687Y-109728996D01*
X162844246Y-109660205D01*
X162896209Y-109611827D01*
X162952607Y-109598500D01*
X165123817Y-109598500D01*
X165191938Y-109618502D01*
X165238431Y-109672158D01*
X165248739Y-109740946D01*
X165242518Y-109788199D01*
X165242518Y-109788200D01*
X165263155Y-109944960D01*
X165321310Y-110085357D01*
X165323664Y-110091041D01*
X165419918Y-110216482D01*
X165545359Y-110312736D01*
X165691438Y-110373244D01*
X165848200Y-110393882D01*
X166004962Y-110373244D01*
X166151041Y-110312736D01*
X166276482Y-110216482D01*
X166361257Y-110105999D01*
X166418594Y-110064133D01*
X166489465Y-110059911D01*
X166551368Y-110094674D01*
X166561181Y-110106000D01*
X166599915Y-110156479D01*
X166599916Y-110156480D01*
X166599918Y-110156482D01*
X166725359Y-110252736D01*
X166871438Y-110313244D01*
X167028200Y-110333882D01*
X167184962Y-110313244D01*
X167331041Y-110252736D01*
X167456482Y-110156482D01*
X167552736Y-110031041D01*
X167613244Y-109884962D01*
X167633882Y-109728200D01*
X167629423Y-109694334D01*
X167614854Y-109583665D01*
X167613244Y-109571438D01*
X167552736Y-109425359D01*
X167456482Y-109299918D01*
X167331041Y-109203664D01*
X167329813Y-109203155D01*
X167184960Y-109143155D01*
X167053252Y-109125816D01*
X166988324Y-109097094D01*
X166949233Y-109037828D01*
X166943698Y-109000894D01*
X166943698Y-106909105D01*
X166963700Y-106840984D01*
X167017356Y-106794491D01*
X167087630Y-106784387D01*
X167152210Y-106813881D01*
X167169659Y-106832400D01*
X167184245Y-106851409D01*
X167220249Y-106898331D01*
X167227118Y-106907282D01*
X167352559Y-107003536D01*
X167498638Y-107064044D01*
X167655400Y-107084682D01*
X167812162Y-107064044D01*
X167958241Y-107003536D01*
X168083682Y-106907282D01*
X168179936Y-106781841D01*
X168240444Y-106635762D01*
X168261082Y-106479000D01*
X168258124Y-106456535D01*
X168240444Y-106322239D01*
X168237944Y-106316202D01*
X168179936Y-106176159D01*
X168083682Y-106050718D01*
X167994220Y-105982072D01*
X167961806Y-105945110D01*
X167956971Y-105936736D01*
X167927080Y-105884962D01*
X167915867Y-105865541D01*
X167915859Y-105865531D01*
X167779123Y-105728795D01*
X167745097Y-105666483D01*
X167750162Y-105595668D01*
X167792709Y-105538832D01*
X167859229Y-105514021D01*
X167868218Y-105513700D01*
X171891426Y-105513700D01*
X171959547Y-105533702D01*
X172006040Y-105587358D01*
X172016348Y-105623253D01*
X172023155Y-105674960D01*
X172080699Y-105813882D01*
X172083664Y-105821041D01*
X172179918Y-105946482D01*
X172305359Y-106042736D01*
X172451438Y-106103244D01*
X172608200Y-106123882D01*
X172764962Y-106103244D01*
X172911041Y-106042736D01*
X173036482Y-105946482D01*
X173132736Y-105821041D01*
X173183697Y-105698008D01*
X173228243Y-105642731D01*
X173295606Y-105620309D01*
X173348323Y-105629820D01*
X173355354Y-105632732D01*
X173355359Y-105632736D01*
X173501438Y-105693244D01*
X173658200Y-105713882D01*
X173814962Y-105693244D01*
X173961041Y-105632736D01*
X174086482Y-105536482D01*
X174182736Y-105411041D01*
X174243244Y-105264962D01*
X174263882Y-105108200D01*
X174243244Y-104951438D01*
X174225529Y-104908672D01*
X174217941Y-104838085D01*
X174249720Y-104774598D01*
X174310778Y-104738370D01*
X174381730Y-104740904D01*
X174431034Y-104771361D01*
X174695490Y-105035817D01*
X174729516Y-105098129D01*
X174731317Y-105141357D01*
X174722518Y-105208198D01*
X174722518Y-105208201D01*
X174743155Y-105364960D01*
X174782151Y-105459103D01*
X174803664Y-105511041D01*
X174899918Y-105636482D01*
X175025359Y-105732736D01*
X175171438Y-105793244D01*
X175328200Y-105813882D01*
X175484962Y-105793244D01*
X175631041Y-105732736D01*
X175756482Y-105636482D01*
X175852736Y-105511041D01*
X175913244Y-105364962D01*
X175931244Y-105228236D01*
X175959966Y-105163310D01*
X176019231Y-105124218D01*
X176090223Y-105123373D01*
X176145261Y-105155588D01*
X176545490Y-105555817D01*
X176579516Y-105618129D01*
X176581317Y-105661357D01*
X176572518Y-105728198D01*
X176572518Y-105728201D01*
X176593155Y-105884960D01*
X176651730Y-106026371D01*
X176653664Y-106031041D01*
X176749918Y-106156482D01*
X176875359Y-106252736D01*
X177021438Y-106313244D01*
X177178200Y-106333882D01*
X177334962Y-106313244D01*
X177481041Y-106252736D01*
X177606482Y-106156482D01*
X177702736Y-106031041D01*
X177763244Y-105884962D01*
X177783882Y-105728200D01*
X177763244Y-105571438D01*
X177702736Y-105425359D01*
X177693273Y-105413027D01*
X177608962Y-105303150D01*
X177583361Y-105236930D01*
X177597626Y-105167381D01*
X177632218Y-105126486D01*
X177736482Y-105046482D01*
X177832736Y-104921041D01*
X177893244Y-104774962D01*
X177913882Y-104618200D01*
X177911817Y-104602518D01*
X177893244Y-104461439D01*
X177893244Y-104461437D01*
X177832736Y-104315359D01*
X177736482Y-104189918D01*
X177611041Y-104093664D01*
X177558453Y-104071881D01*
X177464960Y-104033155D01*
X177464961Y-104033155D01*
X177402015Y-104024868D01*
X177337088Y-103996144D01*
X177329368Y-103989041D01*
X176457722Y-103117395D01*
X176423696Y-103055083D01*
X176428761Y-102984268D01*
X176471308Y-102927432D01*
X176537828Y-102902621D01*
X176546817Y-102902300D01*
X178832451Y-102902300D01*
X178832453Y-102902300D01*
X178915239Y-102880118D01*
X178989462Y-102837265D01*
X180225820Y-101600905D01*
X180288129Y-101566883D01*
X180331354Y-101565081D01*
X180398200Y-101573882D01*
X180554962Y-101553244D01*
X180701041Y-101492736D01*
X180826482Y-101396482D01*
X180922736Y-101271041D01*
X180983244Y-101124962D01*
X181003882Y-100968200D01*
X180983244Y-100811438D01*
X180922736Y-100665359D01*
X180826482Y-100539918D01*
X180701041Y-100443664D01*
X180691351Y-100439650D01*
X180554960Y-100383155D01*
X180398200Y-100362518D01*
X180241439Y-100383155D01*
X180095360Y-100443663D01*
X180095357Y-100443665D01*
X179969918Y-100539918D01*
X179873665Y-100665357D01*
X179873663Y-100665360D01*
X179813155Y-100811439D01*
X179792518Y-100968199D01*
X179792518Y-100968202D01*
X179801317Y-101035041D01*
X179790377Y-101105189D01*
X179765490Y-101140581D01*
X178691676Y-102214396D01*
X178629366Y-102248420D01*
X178602583Y-102251300D01*
X154550416Y-102251300D01*
X154482295Y-102231298D01*
X154461321Y-102214395D01*
X151966122Y-99719195D01*
X151932096Y-99656883D01*
X151937161Y-99586067D01*
X151979708Y-99529232D01*
X152006071Y-99519399D01*
X160293318Y-99519399D01*
X160293318Y-99519400D01*
X160313955Y-99676160D01*
X160352470Y-99769142D01*
X160374464Y-99822241D01*
X160470718Y-99947682D01*
X160596159Y-100043936D01*
X160742238Y-100104444D01*
X160899000Y-100125082D01*
X161055762Y-100104444D01*
X161073510Y-100097091D01*
X161121731Y-100087500D01*
X161184453Y-100087500D01*
X161522313Y-100087500D01*
X161590434Y-100107502D01*
X161592315Y-100108735D01*
X161655369Y-100150867D01*
X161680709Y-100155907D01*
X161681682Y-100156101D01*
X161744591Y-100189009D01*
X161779723Y-100250704D01*
X161783100Y-100279680D01*
X161783100Y-100535747D01*
X161783100Y-100621453D01*
X161805282Y-100704239D01*
X161805283Y-100704241D01*
X161805284Y-100704243D01*
X161848132Y-100778458D01*
X161848134Y-100778460D01*
X161848135Y-100778462D01*
X162077734Y-101008061D01*
X162077735Y-101008062D01*
X162138338Y-101068665D01*
X162138339Y-101068666D01*
X162138341Y-101068667D01*
X162212557Y-101111516D01*
X162212559Y-101111516D01*
X162212562Y-101111518D01*
X162295347Y-101133700D01*
X162295349Y-101133700D01*
X165611051Y-101133700D01*
X165611053Y-101133700D01*
X165693839Y-101111518D01*
X165768062Y-101068665D01*
X166072680Y-100764045D01*
X166072685Y-100764042D01*
X166140459Y-100696268D01*
X166140465Y-100696262D01*
X166173894Y-100638361D01*
X166183318Y-100622039D01*
X166192989Y-100585942D01*
X166229937Y-100525324D01*
X166275767Y-100498719D01*
X166280297Y-100497246D01*
X166280304Y-100497246D01*
X166393342Y-100439650D01*
X166483050Y-100349942D01*
X166540646Y-100236904D01*
X166555500Y-100143119D01*
X166555499Y-99680082D01*
X166540646Y-99586296D01*
X166511570Y-99529232D01*
X166483050Y-99473257D01*
X166393342Y-99383549D01*
X166306220Y-99339159D01*
X166280304Y-99325954D01*
X166186519Y-99311100D01*
X166186515Y-99311100D01*
X165573483Y-99311100D01*
X165479697Y-99325953D01*
X165366657Y-99383549D01*
X165276949Y-99473257D01*
X165225283Y-99574660D01*
X165219354Y-99586296D01*
X165204851Y-99677868D01*
X165204500Y-99680084D01*
X165204500Y-100143116D01*
X165219353Y-100236902D01*
X165219353Y-100236903D01*
X165219354Y-100236904D01*
X165226385Y-100250704D01*
X165251247Y-100299497D01*
X165264351Y-100369274D01*
X165237651Y-100435058D01*
X165179623Y-100475965D01*
X165138980Y-100482700D01*
X162560100Y-100482700D01*
X162491979Y-100462698D01*
X162445486Y-100409042D01*
X162434100Y-100356700D01*
X162434100Y-100279680D01*
X162454102Y-100211559D01*
X162507758Y-100165066D01*
X162535518Y-100156101D01*
X162536174Y-100155970D01*
X162561831Y-100150867D01*
X162628152Y-100106552D01*
X162672467Y-100040231D01*
X162684100Y-99981748D01*
X162684100Y-99542252D01*
X162684099Y-99542249D01*
X163183100Y-99542249D01*
X163183100Y-99981750D01*
X163193350Y-100033282D01*
X163194733Y-100040231D01*
X163239048Y-100106552D01*
X163305369Y-100150867D01*
X163363852Y-100162500D01*
X163363853Y-100162500D01*
X164153347Y-100162500D01*
X164153348Y-100162500D01*
X164211831Y-100150867D01*
X164278152Y-100106552D01*
X164322467Y-100040231D01*
X164334100Y-99981748D01*
X164334100Y-99542252D01*
X164322467Y-99483769D01*
X164278152Y-99417448D01*
X164211831Y-99373133D01*
X164211828Y-99373132D01*
X164153350Y-99361500D01*
X164153348Y-99361500D01*
X163363852Y-99361500D01*
X163363849Y-99361500D01*
X163305371Y-99373132D01*
X163305368Y-99373133D01*
X163239048Y-99417448D01*
X163194733Y-99483768D01*
X163194732Y-99483771D01*
X163183100Y-99542249D01*
X162684099Y-99542249D01*
X162672467Y-99483769D01*
X162628152Y-99417448D01*
X162561831Y-99373133D01*
X162561828Y-99373132D01*
X162503350Y-99361500D01*
X162503348Y-99361500D01*
X161713852Y-99361500D01*
X161713849Y-99361500D01*
X161655371Y-99373132D01*
X161655365Y-99373134D01*
X161652242Y-99375222D01*
X161644399Y-99377677D01*
X161643906Y-99377882D01*
X161643887Y-99377837D01*
X161584489Y-99396436D01*
X161516022Y-99377652D01*
X161468580Y-99324834D01*
X161465833Y-99318674D01*
X161462696Y-99311101D01*
X161423536Y-99216559D01*
X161327282Y-99091118D01*
X161201841Y-98994864D01*
X161195077Y-98992062D01*
X161055760Y-98934355D01*
X160899000Y-98913718D01*
X160742239Y-98934355D01*
X160596160Y-98994863D01*
X160596157Y-98994865D01*
X160470718Y-99091118D01*
X160374465Y-99216557D01*
X160374463Y-99216560D01*
X160313955Y-99362639D01*
X160293318Y-99519399D01*
X152006071Y-99519399D01*
X152046228Y-99504421D01*
X152055217Y-99504100D01*
X153322747Y-99504100D01*
X153322748Y-99504100D01*
X153381231Y-99492467D01*
X153447552Y-99448152D01*
X153491867Y-99381831D01*
X153503500Y-99323348D01*
X153503500Y-98133852D01*
X153491867Y-98075369D01*
X153447552Y-98009048D01*
X153381231Y-97964733D01*
X153381228Y-97964732D01*
X153322750Y-97953100D01*
X153322748Y-97953100D01*
X151883252Y-97953100D01*
X151883249Y-97953100D01*
X151824771Y-97964732D01*
X151824768Y-97964733D01*
X151758448Y-98009047D01*
X151734582Y-98044765D01*
X151728214Y-98050086D01*
X151718411Y-98068965D01*
X151714135Y-98075364D01*
X151714132Y-98075371D01*
X151702500Y-98133849D01*
X151702500Y-98277100D01*
X151682498Y-98345221D01*
X151628842Y-98391714D01*
X151576500Y-98403100D01*
X151413417Y-98403100D01*
X151345296Y-98383098D01*
X151324322Y-98366195D01*
X151284961Y-98326834D01*
X151250935Y-98264522D01*
X151256000Y-98193707D01*
X151297351Y-98137777D01*
X151421282Y-98042682D01*
X151513681Y-97922264D01*
X151516223Y-97920407D01*
X151517532Y-97917245D01*
X151517536Y-97917241D01*
X151578044Y-97771162D01*
X151598682Y-97614400D01*
X151598171Y-97610522D01*
X151584687Y-97508100D01*
X151578044Y-97457638D01*
X151517536Y-97311559D01*
X151421282Y-97186118D01*
X151295841Y-97089864D01*
X151149762Y-97029356D01*
X151149760Y-97029355D01*
X151142132Y-97026196D01*
X151143152Y-97023732D01*
X151093809Y-96993651D01*
X151062791Y-96929788D01*
X151062126Y-96892456D01*
X151063393Y-96882838D01*
X151082882Y-96734800D01*
X151081359Y-96723229D01*
X151080953Y-96720146D01*
X151091893Y-96649997D01*
X151139021Y-96596899D01*
X151205875Y-96577700D01*
X153776500Y-96577700D01*
X153844621Y-96597702D01*
X153891114Y-96651358D01*
X153902500Y-96703700D01*
X153902500Y-97723350D01*
X153913760Y-97779960D01*
X153914133Y-97781831D01*
X153958448Y-97848152D01*
X154024769Y-97892467D01*
X154083252Y-97904100D01*
X154083253Y-97904100D01*
X155522747Y-97904100D01*
X155522748Y-97904100D01*
X155527278Y-97903199D01*
X160514118Y-97903199D01*
X160514118Y-97903200D01*
X160534755Y-98059960D01*
X160589226Y-98191463D01*
X160595264Y-98206041D01*
X160691518Y-98331482D01*
X160816959Y-98427736D01*
X160963038Y-98488244D01*
X161119800Y-98508882D01*
X161276562Y-98488244D01*
X161358885Y-98454144D01*
X161429471Y-98446556D01*
X161492958Y-98478335D01*
X161529186Y-98539393D01*
X161533100Y-98570554D01*
X161533100Y-98681750D01*
X161544084Y-98736971D01*
X161544733Y-98740231D01*
X161589048Y-98806552D01*
X161655369Y-98850867D01*
X161713852Y-98862500D01*
X161713853Y-98862500D01*
X162503347Y-98862500D01*
X162503348Y-98862500D01*
X162561831Y-98850867D01*
X162628152Y-98806552D01*
X162672467Y-98740231D01*
X162684100Y-98681748D01*
X162684100Y-98242252D01*
X162672467Y-98183769D01*
X162628152Y-98117448D01*
X162592950Y-98093926D01*
X162547423Y-98039448D01*
X162538577Y-97969005D01*
X162569219Y-97904961D01*
X162573822Y-97900104D01*
X163106724Y-97367202D01*
X163169034Y-97333179D01*
X163195817Y-97330300D01*
X164652582Y-97330300D01*
X164720703Y-97350302D01*
X164741677Y-97367204D01*
X164974833Y-97600360D01*
X165187174Y-97812700D01*
X165221199Y-97875013D01*
X165218641Y-97926142D01*
X165220905Y-97926501D01*
X165204500Y-98030082D01*
X165204500Y-98493116D01*
X165219353Y-98586902D01*
X165276949Y-98699942D01*
X165366657Y-98789650D01*
X165399828Y-98806551D01*
X165479696Y-98847246D01*
X165573481Y-98862100D01*
X166186518Y-98862099D01*
X166280304Y-98847246D01*
X166393342Y-98789650D01*
X166483050Y-98699942D01*
X166483051Y-98699939D01*
X166488881Y-98691917D01*
X166491453Y-98693786D01*
X166528766Y-98654281D01*
X166592283Y-98637100D01*
X166777444Y-98637100D01*
X166845565Y-98657102D01*
X166889711Y-98705897D01*
X166932472Y-98789820D01*
X167027780Y-98885128D01*
X167147874Y-98946319D01*
X167247512Y-98962100D01*
X167247515Y-98962100D01*
X167814485Y-98962100D01*
X167814488Y-98962100D01*
X167914126Y-98946319D01*
X168034220Y-98885128D01*
X168129528Y-98789820D01*
X168190719Y-98669726D01*
X168206500Y-98570088D01*
X168206500Y-98053112D01*
X168190719Y-97953474D01*
X168129528Y-97833380D01*
X168034220Y-97738072D01*
X168034219Y-97738071D01*
X167968060Y-97704362D01*
X167914126Y-97676881D01*
X167814488Y-97661100D01*
X167247512Y-97661100D01*
X167147874Y-97676881D01*
X167147872Y-97676881D01*
X167147872Y-97676882D01*
X167027780Y-97738071D01*
X166932473Y-97833378D01*
X166932471Y-97833381D01*
X166889711Y-97917303D01*
X166840962Y-97968918D01*
X166777444Y-97986100D01*
X166643235Y-97986100D01*
X166575114Y-97966098D01*
X166530968Y-97917302D01*
X166483051Y-97823260D01*
X166483048Y-97823255D01*
X166393342Y-97733549D01*
X166317502Y-97694907D01*
X166280304Y-97675954D01*
X166186519Y-97661100D01*
X166186516Y-97661100D01*
X166008417Y-97661100D01*
X165940296Y-97641098D01*
X165919321Y-97624195D01*
X165495522Y-97200396D01*
X165229436Y-96934309D01*
X169868900Y-96934309D01*
X169868900Y-97176890D01*
X169900560Y-97417382D01*
X169963344Y-97651695D01*
X169963345Y-97651697D01*
X169963346Y-97651700D01*
X170056176Y-97875812D01*
X170056177Y-97875813D01*
X170056182Y-97875824D01*
X170177461Y-98085885D01*
X170177463Y-98085888D01*
X170177464Y-98085889D01*
X170325135Y-98278338D01*
X170325139Y-98278342D01*
X170325144Y-98278348D01*
X170496651Y-98449855D01*
X170496656Y-98449859D01*
X170496662Y-98449865D01*
X170684112Y-98593700D01*
X170689114Y-98597538D01*
X170899175Y-98718817D01*
X170899179Y-98718818D01*
X170899188Y-98718824D01*
X171123300Y-98811654D01*
X171357611Y-98874438D01*
X171357615Y-98874438D01*
X171357617Y-98874439D01*
X171419602Y-98882599D01*
X171598112Y-98906100D01*
X171598119Y-98906100D01*
X171840681Y-98906100D01*
X171840688Y-98906100D01*
X172058037Y-98877485D01*
X172081182Y-98874439D01*
X172081182Y-98874438D01*
X172081189Y-98874438D01*
X172315500Y-98811654D01*
X172539612Y-98718824D01*
X172749689Y-98597536D01*
X172942138Y-98449865D01*
X173113665Y-98278338D01*
X173261336Y-98085889D01*
X173382624Y-97875812D01*
X173475454Y-97651700D01*
X173538238Y-97417389D01*
X173569900Y-97176888D01*
X173569900Y-96934312D01*
X173544890Y-96744337D01*
X173538239Y-96693817D01*
X173538238Y-96693815D01*
X173538238Y-96693811D01*
X173475454Y-96459500D01*
X173382624Y-96235388D01*
X173382618Y-96235379D01*
X173382617Y-96235375D01*
X173261338Y-96025314D01*
X173261336Y-96025311D01*
X173113665Y-95832862D01*
X173113659Y-95832856D01*
X173113655Y-95832851D01*
X172942148Y-95661344D01*
X172942142Y-95661339D01*
X172942138Y-95661335D01*
X172749689Y-95513664D01*
X172749688Y-95513663D01*
X172749685Y-95513661D01*
X172539624Y-95392382D01*
X172539616Y-95392378D01*
X172539612Y-95392376D01*
X172315500Y-95299546D01*
X172315497Y-95299545D01*
X172315495Y-95299544D01*
X172081182Y-95236760D01*
X171840690Y-95205100D01*
X171840688Y-95205100D01*
X171598112Y-95205100D01*
X171598109Y-95205100D01*
X171357617Y-95236760D01*
X171123304Y-95299544D01*
X171123300Y-95299546D01*
X170943026Y-95374218D01*
X170899186Y-95392377D01*
X170899175Y-95392382D01*
X170689114Y-95513661D01*
X170496662Y-95661335D01*
X170496651Y-95661344D01*
X170325144Y-95832851D01*
X170325135Y-95832862D01*
X170177461Y-96025314D01*
X170056182Y-96235375D01*
X170056177Y-96235386D01*
X170056176Y-96235388D01*
X170003807Y-96361818D01*
X169963346Y-96459500D01*
X169963344Y-96459504D01*
X169900560Y-96693817D01*
X169868900Y-96934309D01*
X165229436Y-96934309D01*
X165039462Y-96744335D01*
X165039460Y-96744334D01*
X165039458Y-96744332D01*
X164965243Y-96701484D01*
X164965241Y-96701483D01*
X164965239Y-96701482D01*
X164882453Y-96679300D01*
X162965947Y-96679300D01*
X162921585Y-96691186D01*
X162883164Y-96701481D01*
X162883159Y-96701483D01*
X162838624Y-96727196D01*
X162838623Y-96727195D01*
X162808941Y-96744332D01*
X162808935Y-96744337D01*
X162609345Y-96943928D01*
X162012476Y-97540796D01*
X161950166Y-97574820D01*
X161923383Y-97577700D01*
X161689086Y-97577700D01*
X161620965Y-97557698D01*
X161589124Y-97528404D01*
X161548084Y-97474920D01*
X161548082Y-97474919D01*
X161548082Y-97474918D01*
X161422641Y-97378664D01*
X161404144Y-97371002D01*
X161276560Y-97318155D01*
X161119800Y-97297518D01*
X160963039Y-97318155D01*
X160816960Y-97378663D01*
X160816957Y-97378665D01*
X160691518Y-97474918D01*
X160595265Y-97600357D01*
X160595263Y-97600360D01*
X160534755Y-97746439D01*
X160514118Y-97903199D01*
X155527278Y-97903199D01*
X155581231Y-97892467D01*
X155647552Y-97848152D01*
X155691867Y-97781831D01*
X155703500Y-97723348D01*
X155703500Y-96533852D01*
X155691867Y-96475369D01*
X155647552Y-96409048D01*
X155647551Y-96409047D01*
X155640657Y-96398729D01*
X155642494Y-96397501D01*
X155616274Y-96349483D01*
X155621339Y-96278668D01*
X155663886Y-96221832D01*
X155730406Y-96197021D01*
X155739395Y-96196700D01*
X164184052Y-96196700D01*
X164184053Y-96196700D01*
X164184053Y-96196699D01*
X164192239Y-96195622D01*
X164192324Y-96196268D01*
X164211837Y-96193700D01*
X168651051Y-96193700D01*
X168651053Y-96193700D01*
X168733839Y-96171518D01*
X168808062Y-96128665D01*
X170156122Y-94780603D01*
X170218433Y-94746580D01*
X170245216Y-94743700D01*
X174871183Y-94743700D01*
X174939304Y-94763702D01*
X174960278Y-94780605D01*
X175645795Y-95466122D01*
X175679821Y-95528434D01*
X175682700Y-95555217D01*
X175682700Y-95855347D01*
X175682700Y-95941053D01*
X175704882Y-96023839D01*
X175704883Y-96023841D01*
X175704884Y-96023843D01*
X175747732Y-96098058D01*
X175747740Y-96098068D01*
X176548331Y-96898659D01*
X176548336Y-96898663D01*
X176548338Y-96898665D01*
X176548339Y-96898666D01*
X176548341Y-96898667D01*
X176571294Y-96911919D01*
X176622561Y-96941518D01*
X176705347Y-96963700D01*
X176862226Y-96963700D01*
X176930347Y-96983702D01*
X176974493Y-97032497D01*
X177035149Y-97151541D01*
X177035151Y-97151544D01*
X177124857Y-97241250D01*
X177160350Y-97259334D01*
X177237896Y-97298846D01*
X177331681Y-97313700D01*
X177794718Y-97313699D01*
X177888504Y-97298846D01*
X178001542Y-97241250D01*
X178091250Y-97151542D01*
X178148846Y-97038504D01*
X178163700Y-96944719D01*
X178163699Y-96331682D01*
X178163699Y-96331681D01*
X178612700Y-96331681D01*
X178612700Y-96331684D01*
X178612700Y-96944716D01*
X178627553Y-97038502D01*
X178685149Y-97151542D01*
X178774857Y-97241250D01*
X178810350Y-97259334D01*
X178887896Y-97298846D01*
X178981681Y-97313700D01*
X179444718Y-97313699D01*
X179538504Y-97298846D01*
X179651542Y-97241250D01*
X179741250Y-97151542D01*
X179798288Y-97039599D01*
X179801907Y-97032497D01*
X179850656Y-96980882D01*
X179914174Y-96963700D01*
X180091700Y-96963700D01*
X180159821Y-96983702D01*
X180206314Y-97037358D01*
X180217700Y-97089700D01*
X180217700Y-97867950D01*
X180229275Y-97926142D01*
X180229333Y-97926431D01*
X180273648Y-97992752D01*
X180339969Y-98037067D01*
X180398452Y-98048700D01*
X180398453Y-98048700D01*
X182837947Y-98048700D01*
X182837948Y-98048700D01*
X182896431Y-98037067D01*
X182962752Y-97992752D01*
X183007067Y-97926431D01*
X183018700Y-97867948D01*
X183018700Y-95428452D01*
X183007067Y-95369969D01*
X182962752Y-95303648D01*
X182896431Y-95259333D01*
X182896428Y-95259332D01*
X182837950Y-95247700D01*
X182837948Y-95247700D01*
X180398452Y-95247700D01*
X180398449Y-95247700D01*
X180339971Y-95259332D01*
X180339968Y-95259333D01*
X180273648Y-95303648D01*
X180229333Y-95369968D01*
X180229332Y-95369971D01*
X180217700Y-95428449D01*
X180217700Y-96186700D01*
X180197698Y-96254821D01*
X180144042Y-96301314D01*
X180091700Y-96312700D01*
X179914174Y-96312700D01*
X179846053Y-96292698D01*
X179801907Y-96243903D01*
X179741250Y-96124858D01*
X179741248Y-96124855D01*
X179651542Y-96035149D01*
X179564304Y-95990700D01*
X179538504Y-95977554D01*
X179444719Y-95962700D01*
X179444715Y-95962700D01*
X178981683Y-95962700D01*
X178887897Y-95977553D01*
X178774857Y-96035149D01*
X178685149Y-96124857D01*
X178628833Y-96235386D01*
X178627554Y-96237896D01*
X178612700Y-96331681D01*
X178163699Y-96331681D01*
X178148846Y-96237896D01*
X178101038Y-96144067D01*
X178091250Y-96124857D01*
X178001542Y-96035149D01*
X177914304Y-95990700D01*
X177888504Y-95977554D01*
X177794719Y-95962700D01*
X177794715Y-95962700D01*
X177331683Y-95962700D01*
X177237897Y-95977553D01*
X177124857Y-96035149D01*
X177035151Y-96124855D01*
X177035147Y-96124860D01*
X176999129Y-96195550D01*
X176950381Y-96247165D01*
X176881466Y-96264230D01*
X176814264Y-96241329D01*
X176797768Y-96227441D01*
X176370605Y-95800278D01*
X176336579Y-95737966D01*
X176333700Y-95711183D01*
X176333700Y-95325347D01*
X176333699Y-95325343D01*
X176329610Y-95310083D01*
X176329607Y-95310072D01*
X176311518Y-95242561D01*
X176285108Y-95196818D01*
X176268667Y-95168341D01*
X176268659Y-95168331D01*
X175258068Y-94157740D01*
X175258058Y-94157732D01*
X175183843Y-94114884D01*
X175183841Y-94114883D01*
X175183839Y-94114882D01*
X175101053Y-94092700D01*
X175101051Y-94092700D01*
X170108787Y-94092700D01*
X170108771Y-94092699D01*
X170101053Y-94092699D01*
X170015347Y-94092699D01*
X170015343Y-94092699D01*
X169932565Y-94114880D01*
X169858339Y-94157734D01*
X169858336Y-94157736D01*
X169837810Y-94178263D01*
X169797735Y-94218338D01*
X168510278Y-95505795D01*
X168447966Y-95539821D01*
X168421183Y-95542700D01*
X164194787Y-95542700D01*
X164194771Y-95542699D01*
X164187053Y-95542699D01*
X164101347Y-95542699D01*
X164101345Y-95542699D01*
X164093157Y-95543777D01*
X164093071Y-95543130D01*
X164073558Y-95545700D01*
X163840100Y-95545700D01*
X163771979Y-95525698D01*
X163725486Y-95472042D01*
X163714100Y-95419700D01*
X163714100Y-95213764D01*
X163734102Y-95145643D01*
X163735335Y-95143762D01*
X163735375Y-95143702D01*
X163754867Y-95114531D01*
X163766500Y-95056048D01*
X163766500Y-94483152D01*
X163754867Y-94424669D01*
X163729195Y-94386249D01*
X163714235Y-94363859D01*
X163693020Y-94296106D01*
X163693000Y-94293857D01*
X163693000Y-93867900D01*
X163134200Y-93867900D01*
X163134200Y-94293857D01*
X163114198Y-94361978D01*
X163112965Y-94363859D01*
X163072334Y-94424667D01*
X163072332Y-94424671D01*
X163060700Y-94483149D01*
X163060700Y-95056050D01*
X163069480Y-95100191D01*
X163072333Y-95114531D01*
X163090794Y-95142160D01*
X163091865Y-95143762D01*
X163113080Y-95211515D01*
X163113100Y-95213764D01*
X163113100Y-95419700D01*
X163093098Y-95487821D01*
X163039442Y-95534314D01*
X162987100Y-95545700D01*
X155351859Y-95545700D01*
X155283738Y-95525698D01*
X155237245Y-95472042D01*
X155227141Y-95401768D01*
X155239590Y-95362500D01*
X155289919Y-95263726D01*
X155305700Y-95164088D01*
X155305700Y-94597112D01*
X155289919Y-94497474D01*
X155228728Y-94377380D01*
X155133420Y-94282072D01*
X155133419Y-94282071D01*
X155031319Y-94230049D01*
X155013326Y-94220881D01*
X154913688Y-94205100D01*
X154396712Y-94205100D01*
X154297074Y-94220881D01*
X154297072Y-94220881D01*
X154297072Y-94220882D01*
X154176980Y-94282071D01*
X154081671Y-94377380D01*
X154015979Y-94506310D01*
X154013761Y-94505180D01*
X153981724Y-94552038D01*
X153916329Y-94579678D01*
X153901960Y-94580500D01*
X153837300Y-94580500D01*
X153769179Y-94560498D01*
X153722686Y-94506842D01*
X153711300Y-94454500D01*
X153711300Y-94386253D01*
X153711299Y-94386249D01*
X153708604Y-94372702D01*
X153699667Y-94327769D01*
X153655352Y-94261448D01*
X153589031Y-94217133D01*
X153589028Y-94217132D01*
X153530550Y-94205500D01*
X153530548Y-94205500D01*
X151691052Y-94205500D01*
X151691049Y-94205500D01*
X151632571Y-94217132D01*
X151632568Y-94217133D01*
X151631009Y-94218175D01*
X151630004Y-94218846D01*
X151623571Y-94220860D01*
X151621106Y-94221882D01*
X151621014Y-94221661D01*
X151562253Y-94240060D01*
X151493786Y-94221276D01*
X151446343Y-94168459D01*
X151434987Y-94098376D01*
X151443594Y-94065867D01*
X151470264Y-94001479D01*
X151514811Y-93946201D01*
X151582175Y-93923780D01*
X151586672Y-93923700D01*
X152361051Y-93923700D01*
X152361053Y-93923700D01*
X152443839Y-93901518D01*
X152518062Y-93858665D01*
X152871265Y-93505462D01*
X152914118Y-93431239D01*
X152936300Y-93348453D01*
X152936300Y-93262747D01*
X152936300Y-93232500D01*
X152956302Y-93164379D01*
X153009958Y-93117886D01*
X153062300Y-93106500D01*
X153530547Y-93106500D01*
X153530548Y-93106500D01*
X153589031Y-93094867D01*
X153655352Y-93050552D01*
X153699667Y-92984231D01*
X153699667Y-92984226D01*
X153704417Y-92972763D01*
X153705877Y-92973368D01*
X153732246Y-92922952D01*
X153793940Y-92887818D01*
X153864835Y-92891614D01*
X153912017Y-92921344D01*
X153967795Y-92977122D01*
X154001821Y-93039434D01*
X154004700Y-93066217D01*
X154004700Y-93487688D01*
X154020481Y-93587326D01*
X154046038Y-93637484D01*
X154078757Y-93701700D01*
X154081672Y-93707420D01*
X154176980Y-93802728D01*
X154297074Y-93863919D01*
X154396712Y-93879700D01*
X154396715Y-93879700D01*
X154913685Y-93879700D01*
X154913688Y-93879700D01*
X155013326Y-93863919D01*
X155133420Y-93802728D01*
X155228728Y-93707420D01*
X155289919Y-93587326D01*
X155305700Y-93487688D01*
X155305700Y-92920712D01*
X155289919Y-92821074D01*
X155228728Y-92700980D01*
X155133420Y-92605672D01*
X155133419Y-92605671D01*
X155064201Y-92570403D01*
X155013326Y-92544481D01*
X154913688Y-92528700D01*
X154913685Y-92528700D01*
X154492217Y-92528700D01*
X154424096Y-92508698D01*
X154403126Y-92491799D01*
X154056862Y-92145535D01*
X154056860Y-92145534D01*
X154056858Y-92145532D01*
X153982643Y-92102684D01*
X153982641Y-92102683D01*
X153982639Y-92102682D01*
X153899853Y-92080500D01*
X153899851Y-92080500D01*
X153837300Y-92080500D01*
X153769179Y-92060498D01*
X153722686Y-92006842D01*
X153711300Y-91954500D01*
X153711300Y-91950199D01*
X160623518Y-91950199D01*
X160623518Y-91950200D01*
X160644155Y-92106960D01*
X160691999Y-92222464D01*
X160704664Y-92253041D01*
X160800918Y-92378482D01*
X160926359Y-92474736D01*
X161072438Y-92535244D01*
X161229200Y-92555882D01*
X161385962Y-92535244D01*
X161532041Y-92474736D01*
X161657482Y-92378482D01*
X161753736Y-92253041D01*
X161814244Y-92106962D01*
X161834882Y-91950200D01*
X161814244Y-91793438D01*
X161753736Y-91647359D01*
X161677648Y-91548199D01*
X164912518Y-91548199D01*
X164912518Y-91548200D01*
X164933155Y-91704960D01*
X164983939Y-91827562D01*
X164993664Y-91851041D01*
X165089918Y-91976482D01*
X165215359Y-92072736D01*
X165361438Y-92133244D01*
X165518200Y-92153882D01*
X165674962Y-92133244D01*
X165821041Y-92072736D01*
X165946482Y-91976482D01*
X166042736Y-91851041D01*
X166103244Y-91704962D01*
X166123882Y-91548200D01*
X166115081Y-91481356D01*
X166126019Y-91411211D01*
X166150905Y-91375820D01*
X166296922Y-91229804D01*
X166359235Y-91195779D01*
X166386017Y-91192900D01*
X184050382Y-91192900D01*
X184118503Y-91212902D01*
X184139477Y-91229804D01*
X184555795Y-91646121D01*
X184589820Y-91708434D01*
X184592700Y-91735217D01*
X184592700Y-97034782D01*
X184572698Y-97102903D01*
X184555795Y-97123877D01*
X181954094Y-99725577D01*
X181891782Y-99759603D01*
X181820966Y-99754538D01*
X181775904Y-99725577D01*
X180509868Y-98459540D01*
X180509858Y-98459532D01*
X180435643Y-98416684D01*
X180435641Y-98416683D01*
X180435639Y-98416682D01*
X180352853Y-98394500D01*
X180352851Y-98394500D01*
X177377017Y-98394500D01*
X177308896Y-98374498D01*
X177287922Y-98357595D01*
X177250908Y-98320581D01*
X177216882Y-98258269D01*
X177215081Y-98215043D01*
X177223882Y-98148200D01*
X177203244Y-97991438D01*
X177142736Y-97845359D01*
X177046482Y-97719918D01*
X176921041Y-97623664D01*
X176919919Y-97623199D01*
X176774960Y-97563155D01*
X176618200Y-97542518D01*
X176461439Y-97563155D01*
X176315360Y-97623663D01*
X176315357Y-97623665D01*
X176189918Y-97719918D01*
X176093665Y-97845357D01*
X176093663Y-97845360D01*
X176033155Y-97991439D01*
X176012518Y-98148199D01*
X176012518Y-98148200D01*
X176033155Y-98304960D01*
X176089130Y-98440094D01*
X176093664Y-98451041D01*
X176189918Y-98576482D01*
X176315359Y-98672736D01*
X176461438Y-98733244D01*
X176618200Y-98753882D01*
X176685041Y-98745081D01*
X176755186Y-98756019D01*
X176790581Y-98780908D01*
X176929534Y-98919861D01*
X176929535Y-98919862D01*
X176990138Y-98980465D01*
X176990139Y-98980466D01*
X176990141Y-98980467D01*
X177064357Y-99023316D01*
X177064359Y-99023316D01*
X177064362Y-99023318D01*
X177147147Y-99045500D01*
X180122983Y-99045500D01*
X180191104Y-99065502D01*
X180212078Y-99082405D01*
X181357595Y-100227922D01*
X181391621Y-100290234D01*
X181394500Y-100317017D01*
X181394500Y-101532982D01*
X181374498Y-101601103D01*
X181357595Y-101622077D01*
X178627740Y-104351931D01*
X178627732Y-104351941D01*
X178584884Y-104426156D01*
X178584879Y-104426168D01*
X178572448Y-104472559D01*
X178572449Y-104472560D01*
X178562700Y-104508944D01*
X178562700Y-107221183D01*
X178542698Y-107289304D01*
X178525795Y-107310278D01*
X176540278Y-109295795D01*
X176477966Y-109329821D01*
X176451183Y-109332700D01*
X176339119Y-109332700D01*
X176270998Y-109312698D01*
X176239156Y-109283402D01*
X176236482Y-109279918D01*
X176111041Y-109183664D01*
X176108275Y-109182518D01*
X175964960Y-109123155D01*
X175808200Y-109102518D01*
X175651439Y-109123155D01*
X175505360Y-109183663D01*
X175505357Y-109183665D01*
X175379918Y-109279918D01*
X175283665Y-109405357D01*
X175283664Y-109405359D01*
X175260467Y-109461359D01*
X175215920Y-109516638D01*
X175148557Y-109539059D01*
X175079765Y-109521500D01*
X175044097Y-109489842D01*
X175036483Y-109479919D01*
X175035398Y-109479086D01*
X174911041Y-109383664D01*
X174910339Y-109383373D01*
X174764960Y-109323155D01*
X174608200Y-109302518D01*
X174451439Y-109323155D01*
X174305360Y-109383663D01*
X174305357Y-109383665D01*
X174179918Y-109479918D01*
X174083665Y-109605357D01*
X174083663Y-109605360D01*
X174023155Y-109751439D01*
X174002518Y-109908199D01*
X174002518Y-109908200D01*
X174023155Y-110064960D01*
X174076467Y-110193665D01*
X174083664Y-110211041D01*
X174179918Y-110336482D01*
X174247319Y-110388200D01*
X174271477Y-110406737D01*
X174313344Y-110464075D01*
X174317566Y-110534946D01*
X174282802Y-110596849D01*
X174220089Y-110630130D01*
X174194773Y-110632700D01*
X172565216Y-110632700D01*
X172497095Y-110612698D01*
X172476121Y-110595795D01*
X171300605Y-109420278D01*
X171266579Y-109357966D01*
X171263700Y-109331183D01*
X171263700Y-109107485D01*
X171283702Y-109039364D01*
X171312997Y-109007522D01*
X171325752Y-108997735D01*
X171366482Y-108966482D01*
X171462736Y-108841041D01*
X171523244Y-108694962D01*
X171543882Y-108538200D01*
X171541874Y-108522951D01*
X171523244Y-108381439D01*
X171522499Y-108379639D01*
X171462736Y-108235359D01*
X171366482Y-108109918D01*
X171241041Y-108013664D01*
X171236696Y-108011864D01*
X171094960Y-107953155D01*
X170938200Y-107932518D01*
X170781439Y-107953155D01*
X170635360Y-108013663D01*
X170635357Y-108013665D01*
X170509918Y-108109918D01*
X170413665Y-108235357D01*
X170413663Y-108235360D01*
X170353155Y-108381439D01*
X170332518Y-108538199D01*
X170332518Y-108538200D01*
X170353155Y-108694960D01*
X170410250Y-108832798D01*
X170413664Y-108841041D01*
X170509918Y-108966482D01*
X170550645Y-108997733D01*
X170563403Y-109007522D01*
X170605271Y-109064859D01*
X170612700Y-109107485D01*
X170612700Y-109475347D01*
X170612700Y-109561053D01*
X170634882Y-109643839D01*
X170634883Y-109643841D01*
X170634884Y-109643843D01*
X170677732Y-109718058D01*
X170677734Y-109718060D01*
X170677735Y-109718062D01*
X171574330Y-110614657D01*
X171608354Y-110676967D01*
X171603290Y-110747782D01*
X171560743Y-110804618D01*
X171494223Y-110829429D01*
X171460653Y-110827329D01*
X171361972Y-110807700D01*
X171361967Y-110807700D01*
X171194433Y-110807700D01*
X171194430Y-110807700D01*
X171095750Y-110827329D01*
X171030118Y-110840384D01*
X171030117Y-110840384D01*
X171030114Y-110840385D01*
X170946640Y-110874962D01*
X170881629Y-110901891D01*
X170875335Y-110904498D01*
X170736038Y-110997573D01*
X170736032Y-110997578D01*
X170617578Y-111116032D01*
X170617573Y-111116038D01*
X170524498Y-111255335D01*
X170524497Y-111255337D01*
X170521937Y-111261518D01*
X170460385Y-111410114D01*
X170460384Y-111410117D01*
X170460384Y-111410118D01*
X170452572Y-111449393D01*
X170427700Y-111574430D01*
X170427700Y-111741969D01*
X170442218Y-111814957D01*
X170460200Y-111905359D01*
X170460385Y-111906285D01*
X170471800Y-111933843D01*
X170524497Y-112061063D01*
X170525550Y-112062639D01*
X170617573Y-112200361D01*
X170617578Y-112200367D01*
X170736032Y-112318821D01*
X170736038Y-112318826D01*
X170875337Y-112411903D01*
X171030118Y-112476016D01*
X171194433Y-112508700D01*
X171194434Y-112508700D01*
X171361966Y-112508700D01*
X171361967Y-112508700D01*
X171526282Y-112476016D01*
X171681063Y-112411903D01*
X171820362Y-112318826D01*
X171938826Y-112200362D01*
X172031903Y-112061063D01*
X172096016Y-111906282D01*
X172128700Y-111741967D01*
X172128700Y-111574433D01*
X172096016Y-111410118D01*
X172096013Y-111410112D01*
X172095509Y-111407575D01*
X172101837Y-111336861D01*
X172145391Y-111280794D01*
X172212343Y-111257174D01*
X172251701Y-111261287D01*
X172252561Y-111261517D01*
X172252562Y-111261518D01*
X172335348Y-111283701D01*
X172428771Y-111283701D01*
X172428787Y-111283700D01*
X178039183Y-111283700D01*
X178107304Y-111303702D01*
X178153797Y-111357358D01*
X178164105Y-111426147D01*
X178162518Y-111438200D01*
X178183155Y-111594960D01*
X178226925Y-111700630D01*
X178234514Y-111771220D01*
X178202734Y-111834707D01*
X178141676Y-111870934D01*
X178070725Y-111868400D01*
X178033814Y-111848811D01*
X178001041Y-111823664D01*
X177983703Y-111816482D01*
X177854960Y-111763155D01*
X177698200Y-111742518D01*
X177541439Y-111763155D01*
X177395360Y-111823663D01*
X177395357Y-111823665D01*
X177269918Y-111919918D01*
X177173665Y-112045357D01*
X177173663Y-112045360D01*
X177113155Y-112191439D01*
X177092518Y-112348199D01*
X177092518Y-112348200D01*
X177113155Y-112504960D01*
X177168539Y-112638667D01*
X177173664Y-112651041D01*
X177269918Y-112776482D01*
X177395359Y-112872736D01*
X177541438Y-112933244D01*
X177698200Y-112953882D01*
X177780072Y-112943103D01*
X177850220Y-112954042D01*
X177903319Y-113001170D01*
X177922509Y-113069524D01*
X177921440Y-113084471D01*
X177902518Y-113228199D01*
X177902518Y-113228200D01*
X177923155Y-113384960D01*
X177961777Y-113478200D01*
X177983664Y-113531041D01*
X178079918Y-113656482D01*
X178205359Y-113752736D01*
X178351438Y-113813244D01*
X178508200Y-113833882D01*
X178664962Y-113813244D01*
X178732558Y-113785244D01*
X178803144Y-113777655D01*
X178866631Y-113809433D01*
X178902860Y-113870491D01*
X178905696Y-113918099D01*
X178892518Y-114018199D01*
X178892518Y-114018200D01*
X178913155Y-114174960D01*
X178964712Y-114299428D01*
X178973664Y-114321041D01*
X179069918Y-114446482D01*
X179195359Y-114542736D01*
X179341438Y-114603244D01*
X179498200Y-114623882D01*
X179654962Y-114603244D01*
X179801041Y-114542736D01*
X179926482Y-114446482D01*
X179936318Y-114433662D01*
X179967524Y-114392996D01*
X180024862Y-114351129D01*
X180067486Y-114343700D01*
X183331051Y-114343700D01*
X183331053Y-114343700D01*
X183413839Y-114321518D01*
X183488062Y-114278665D01*
X183591528Y-114175199D01*
X185642518Y-114175199D01*
X185642518Y-114175200D01*
X185663155Y-114331960D01*
X185710591Y-114446479D01*
X185723664Y-114478041D01*
X185819918Y-114603482D01*
X185945359Y-114699736D01*
X186091438Y-114760244D01*
X186248200Y-114780882D01*
X186404962Y-114760244D01*
X186551041Y-114699736D01*
X186676482Y-114603482D01*
X186772736Y-114478041D01*
X186833244Y-114331962D01*
X186853882Y-114175200D01*
X186853850Y-114174960D01*
X186833244Y-114018439D01*
X186803646Y-113946982D01*
X186772736Y-113872359D01*
X186676482Y-113746918D01*
X186551041Y-113650664D01*
X186544760Y-113648062D01*
X186404960Y-113590155D01*
X186248200Y-113569518D01*
X186091439Y-113590155D01*
X185945360Y-113650663D01*
X185945357Y-113650665D01*
X185819918Y-113746918D01*
X185723665Y-113872357D01*
X185723663Y-113872360D01*
X185663155Y-114018439D01*
X185642518Y-114175199D01*
X183591528Y-114175199D01*
X184257686Y-113509038D01*
X184257696Y-113509031D01*
X184328659Y-113438068D01*
X184328665Y-113438062D01*
X184371518Y-113363838D01*
X184374197Y-113353839D01*
X184393701Y-113281052D01*
X184393701Y-113195347D01*
X184393701Y-113187630D01*
X184393700Y-113187612D01*
X184393700Y-107085348D01*
X184393522Y-107084682D01*
X184371518Y-107002562D01*
X184371516Y-107002559D01*
X184371516Y-107002557D01*
X184328667Y-106928341D01*
X184328663Y-106928336D01*
X184298658Y-106898331D01*
X184268062Y-106867735D01*
X183956725Y-106556398D01*
X183922699Y-106494086D01*
X183920899Y-106450855D01*
X183923882Y-106428200D01*
X183903244Y-106271438D01*
X183842736Y-106125359D01*
X183746482Y-105999918D01*
X183621041Y-105903664D01*
X183593988Y-105892458D01*
X183474960Y-105843155D01*
X183318200Y-105822518D01*
X183161439Y-105843155D01*
X183015360Y-105903663D01*
X183015357Y-105903665D01*
X182889918Y-105999918D01*
X182793665Y-106125357D01*
X182793663Y-106125360D01*
X182733155Y-106271439D01*
X182712518Y-106428199D01*
X182712518Y-106428201D01*
X182715273Y-106449130D01*
X182704333Y-106519279D01*
X182657204Y-106572377D01*
X182588850Y-106591566D01*
X182553215Y-106584258D01*
X182552938Y-106585293D01*
X182544963Y-106583156D01*
X182388200Y-106562518D01*
X182231439Y-106583155D01*
X182085360Y-106643663D01*
X182085357Y-106643665D01*
X181959918Y-106739918D01*
X181863665Y-106865357D01*
X181863663Y-106865360D01*
X181803155Y-107011439D01*
X181782518Y-107168199D01*
X181782518Y-107168200D01*
X181797246Y-107280072D01*
X181786307Y-107350221D01*
X181739178Y-107403319D01*
X181686012Y-107418586D01*
X181686388Y-107421440D01*
X181521436Y-107443156D01*
X181513462Y-107445293D01*
X181512856Y-107443034D01*
X181454250Y-107449333D01*
X181390764Y-107417551D01*
X181354539Y-107356491D01*
X181357077Y-107285540D01*
X181360218Y-107277118D01*
X181362734Y-107271043D01*
X181362736Y-107271041D01*
X181423244Y-107124962D01*
X181443882Y-106968200D01*
X181440596Y-106943244D01*
X181432923Y-106884960D01*
X181423244Y-106811438D01*
X181362736Y-106665359D01*
X181266482Y-106539918D01*
X181141041Y-106443664D01*
X181103706Y-106428199D01*
X180994960Y-106383155D01*
X180838200Y-106362518D01*
X180681439Y-106383155D01*
X180535360Y-106443663D01*
X180535352Y-106443668D01*
X180486403Y-106481228D01*
X180420182Y-106506828D01*
X180350634Y-106492563D01*
X180299838Y-106442961D01*
X180283700Y-106381265D01*
X180283700Y-105465217D01*
X180303702Y-105397096D01*
X180320605Y-105376122D01*
X183268659Y-102428068D01*
X183268665Y-102428062D01*
X183297904Y-102377418D01*
X183311518Y-102353838D01*
X183333700Y-102271053D01*
X183333700Y-101757485D01*
X183353702Y-101689364D01*
X183382997Y-101657522D01*
X183436482Y-101616482D01*
X183532736Y-101491041D01*
X183593244Y-101344962D01*
X183613882Y-101188200D01*
X183593244Y-101031438D01*
X183532736Y-100885359D01*
X183436482Y-100759918D01*
X183311041Y-100663664D01*
X183298582Y-100658503D01*
X183164960Y-100603155D01*
X183008200Y-100582518D01*
X182851439Y-100603155D01*
X182705360Y-100663663D01*
X182705352Y-100663668D01*
X182658203Y-100699847D01*
X182591982Y-100725447D01*
X182522434Y-100711182D01*
X182471638Y-100661580D01*
X182455500Y-100599884D01*
X182455500Y-100197017D01*
X182475502Y-100128896D01*
X182492405Y-100107922D01*
X185178659Y-97421668D01*
X185178665Y-97421662D01*
X185221518Y-97347439D01*
X185243700Y-97264653D01*
X185243700Y-97178947D01*
X185243700Y-91601216D01*
X185243701Y-91601203D01*
X185243701Y-91505347D01*
X185243700Y-91505343D01*
X185221519Y-91422565D01*
X185221516Y-91422558D01*
X185214460Y-91410336D01*
X185178667Y-91348341D01*
X185178659Y-91348331D01*
X185113678Y-91283350D01*
X185113655Y-91283329D01*
X184437264Y-90606937D01*
X184437258Y-90606932D01*
X184363043Y-90564084D01*
X184363041Y-90564083D01*
X184363039Y-90564082D01*
X184280253Y-90541900D01*
X184280251Y-90541900D01*
X166249587Y-90541900D01*
X166249571Y-90541899D01*
X166241853Y-90541899D01*
X166156147Y-90541899D01*
X166156143Y-90541899D01*
X166073365Y-90564080D01*
X165999139Y-90606934D01*
X165999136Y-90606936D01*
X165968836Y-90637237D01*
X165938535Y-90667538D01*
X165938533Y-90667540D01*
X165809746Y-90796327D01*
X165690582Y-90915491D01*
X165628270Y-90949516D01*
X165585042Y-90951317D01*
X165518202Y-90942518D01*
X165518200Y-90942518D01*
X165361439Y-90963155D01*
X165215360Y-91023663D01*
X165215357Y-91023665D01*
X165089918Y-91119918D01*
X164993665Y-91245357D01*
X164993663Y-91245360D01*
X164933155Y-91391439D01*
X164912518Y-91548199D01*
X161677648Y-91548199D01*
X161657482Y-91521918D01*
X161532041Y-91425664D01*
X161524560Y-91422565D01*
X161385960Y-91365155D01*
X161229200Y-91344518D01*
X161072439Y-91365155D01*
X160926360Y-91425663D01*
X160926357Y-91425665D01*
X160800918Y-91521918D01*
X160704665Y-91647357D01*
X160704663Y-91647360D01*
X160644155Y-91793439D01*
X160623518Y-91950199D01*
X153711300Y-91950199D01*
X153711300Y-91886253D01*
X153711299Y-91886249D01*
X153711094Y-91885220D01*
X153699667Y-91827769D01*
X153655352Y-91761448D01*
X153589031Y-91717133D01*
X153589028Y-91717132D01*
X153530550Y-91705500D01*
X153530548Y-91705500D01*
X151691052Y-91705500D01*
X151691049Y-91705500D01*
X151632571Y-91717132D01*
X151632568Y-91717133D01*
X151566248Y-91761448D01*
X151521933Y-91827768D01*
X151521932Y-91827771D01*
X151510300Y-91886249D01*
X151510300Y-92925750D01*
X151521932Y-92984228D01*
X151521933Y-92984231D01*
X151566250Y-93050555D01*
X151573300Y-93057605D01*
X151607326Y-93119917D01*
X151602261Y-93190732D01*
X151559714Y-93247568D01*
X151493194Y-93272379D01*
X151484205Y-93272700D01*
X151140688Y-93272700D01*
X151092471Y-93263109D01*
X151048162Y-93244756D01*
X150998988Y-93238282D01*
X150934061Y-93209559D01*
X150894970Y-93150294D01*
X150894125Y-93079302D01*
X150899021Y-93065157D01*
X150903244Y-93054962D01*
X150923882Y-92898200D01*
X150920728Y-92874246D01*
X150908933Y-92784650D01*
X150903244Y-92741438D01*
X150842736Y-92595359D01*
X150746482Y-92469918D01*
X150621041Y-92373664D01*
X150598435Y-92364300D01*
X150474960Y-92313155D01*
X150318200Y-92292518D01*
X150161439Y-92313155D01*
X150015360Y-92373663D01*
X150015352Y-92373668D01*
X149920747Y-92446262D01*
X149854527Y-92471863D01*
X149844043Y-92472300D01*
X149615574Y-92472300D01*
X149547453Y-92452298D01*
X149503307Y-92403503D01*
X149442650Y-92284458D01*
X149442648Y-92284455D01*
X149352942Y-92194749D01*
X149256356Y-92145537D01*
X149239904Y-92137154D01*
X149146119Y-92122300D01*
X149146116Y-92122300D01*
X148678186Y-92122300D01*
X148610065Y-92102298D01*
X148563572Y-92048642D01*
X148561792Y-92044553D01*
X148537936Y-91986959D01*
X148441682Y-91861518D01*
X148316241Y-91765264D01*
X148307029Y-91761448D01*
X148170160Y-91704755D01*
X148013400Y-91684118D01*
X147856639Y-91704755D01*
X147710560Y-91765263D01*
X147710557Y-91765265D01*
X147585118Y-91861518D01*
X147488865Y-91986957D01*
X147488863Y-91986960D01*
X147465020Y-92044521D01*
X147420470Y-92099801D01*
X147353106Y-92122220D01*
X147348612Y-92122300D01*
X147033083Y-92122300D01*
X146939297Y-92137153D01*
X146826257Y-92194749D01*
X146736549Y-92284457D01*
X146678955Y-92397494D01*
X146678954Y-92397496D01*
X146664100Y-92491281D01*
X146664100Y-92491284D01*
X146664100Y-93104316D01*
X146678953Y-93198102D01*
X146736549Y-93311142D01*
X146826257Y-93400850D01*
X146846771Y-93411302D01*
X146939296Y-93458446D01*
X147033081Y-93473300D01*
X147496118Y-93473299D01*
X147589904Y-93458446D01*
X147702942Y-93400850D01*
X147792650Y-93311142D01*
X147850246Y-93198104D01*
X147856806Y-93156681D01*
X147887216Y-93092531D01*
X147918253Y-93067276D01*
X147933862Y-93058265D01*
X148079022Y-92913103D01*
X148141332Y-92879080D01*
X148151655Y-92877280D01*
X148170162Y-92874844D01*
X148170164Y-92874842D01*
X148171653Y-92874647D01*
X148241802Y-92885586D01*
X148294901Y-92932714D01*
X148314100Y-92999568D01*
X148314100Y-93104316D01*
X148328953Y-93198102D01*
X148386549Y-93311142D01*
X148476257Y-93400850D01*
X148496771Y-93411302D01*
X148589296Y-93458446D01*
X148683081Y-93473300D01*
X149146118Y-93473299D01*
X149239904Y-93458446D01*
X149352942Y-93400850D01*
X149442650Y-93311142D01*
X149487568Y-93222986D01*
X149503307Y-93192097D01*
X149552056Y-93140482D01*
X149615574Y-93123300D01*
X149677272Y-93123300D01*
X149745393Y-93143302D01*
X149789326Y-93194004D01*
X149789532Y-93193886D01*
X149790146Y-93194950D01*
X149791886Y-93196958D01*
X149793659Y-93201035D01*
X149817803Y-93232500D01*
X149889918Y-93326482D01*
X150015359Y-93422736D01*
X150161438Y-93483244D01*
X150210610Y-93489717D01*
X150275537Y-93518439D01*
X150314629Y-93577703D01*
X150315474Y-93648695D01*
X150310574Y-93662854D01*
X150306356Y-93673037D01*
X150285718Y-93829799D01*
X150285718Y-93829800D01*
X150306355Y-93986560D01*
X150365502Y-94129352D01*
X150366864Y-94132641D01*
X150463118Y-94258082D01*
X150588559Y-94354336D01*
X150645141Y-94377773D01*
X150700422Y-94422320D01*
X150722843Y-94489683D01*
X150705285Y-94558474D01*
X150696886Y-94570885D01*
X150620865Y-94669957D01*
X150620863Y-94669960D01*
X150560355Y-94816039D01*
X150539718Y-94972799D01*
X150539718Y-94972800D01*
X150560355Y-95129560D01*
X150620863Y-95275639D01*
X150620868Y-95275647D01*
X150672547Y-95342996D01*
X150698148Y-95409216D01*
X150683883Y-95478765D01*
X150634282Y-95529561D01*
X150572585Y-95545700D01*
X150435617Y-95545700D01*
X150367496Y-95525698D01*
X150346522Y-95508795D01*
X149599489Y-94761762D01*
X149565463Y-94699450D01*
X149563662Y-94656224D01*
X149584282Y-94499600D01*
X149582976Y-94489683D01*
X149569801Y-94389605D01*
X149563644Y-94342838D01*
X149503136Y-94196759D01*
X149406882Y-94071318D01*
X149281441Y-93975064D01*
X149256457Y-93964715D01*
X149135360Y-93914555D01*
X148978600Y-93893918D01*
X148821839Y-93914555D01*
X148675760Y-93975063D01*
X148675757Y-93975065D01*
X148550318Y-94071318D01*
X148454065Y-94196757D01*
X148454063Y-94196760D01*
X148393555Y-94342839D01*
X148372918Y-94499599D01*
X148372918Y-94499600D01*
X148393555Y-94656360D01*
X148452929Y-94799700D01*
X148454064Y-94802441D01*
X148550318Y-94927882D01*
X148675759Y-95024136D01*
X148821838Y-95084644D01*
X148978600Y-95105282D01*
X148978600Y-95105281D01*
X148986584Y-95106333D01*
X149051511Y-95135055D01*
X149059233Y-95142160D01*
X149278678Y-95361605D01*
X149312704Y-95423917D01*
X149307639Y-95494732D01*
X149265092Y-95551568D01*
X149198572Y-95576379D01*
X149189583Y-95576700D01*
X148682312Y-95576700D01*
X148582674Y-95592481D01*
X148582672Y-95592481D01*
X148582672Y-95592482D01*
X148462580Y-95653671D01*
X148367271Y-95748980D01*
X148306082Y-95869072D01*
X148306081Y-95869074D01*
X148290300Y-95968712D01*
X148290300Y-96535688D01*
X148306081Y-96635326D01*
X148332272Y-96686729D01*
X148367271Y-96755419D01*
X148462580Y-96850728D01*
X148556665Y-96898667D01*
X148582674Y-96911919D01*
X148603085Y-96915151D01*
X148667237Y-96945564D01*
X148704764Y-97005832D01*
X148703750Y-97076822D01*
X148664517Y-97135993D01*
X148603086Y-97164048D01*
X148589693Y-97166169D01*
X148582672Y-97167281D01*
X148462580Y-97228471D01*
X148367271Y-97323780D01*
X148311773Y-97432703D01*
X148306081Y-97443874D01*
X148290300Y-97543512D01*
X148290300Y-98110488D01*
X148306081Y-98210126D01*
X148330611Y-98258269D01*
X148367271Y-98330219D01*
X148415657Y-98378605D01*
X148449683Y-98440917D01*
X148444618Y-98511732D01*
X148402071Y-98568568D01*
X148335551Y-98593379D01*
X148326562Y-98593700D01*
X147008186Y-98593700D01*
X146940065Y-98573698D01*
X146893572Y-98520042D01*
X146883264Y-98451254D01*
X146891882Y-98385800D01*
X146871244Y-98229038D01*
X146810736Y-98082959D01*
X146714482Y-97957518D01*
X146589041Y-97861264D01*
X146583622Y-97859019D01*
X146442960Y-97800755D01*
X146286200Y-97780118D01*
X146129439Y-97800755D01*
X145998518Y-97854985D01*
X145927928Y-97862574D01*
X145864441Y-97830795D01*
X145828214Y-97769736D01*
X145824300Y-97738576D01*
X145824300Y-95955348D01*
X145824299Y-95955344D01*
X145820437Y-95940932D01*
X145816558Y-95926453D01*
X145802118Y-95872561D01*
X145761668Y-95802500D01*
X145759267Y-95798341D01*
X145759259Y-95798331D01*
X144758868Y-94797940D01*
X144758858Y-94797932D01*
X144684643Y-94755084D01*
X144684641Y-94755083D01*
X144684639Y-94755082D01*
X144601853Y-94732900D01*
X144601851Y-94732900D01*
X142882589Y-94732900D01*
X142814468Y-94712898D01*
X142805892Y-94706868D01*
X142779041Y-94686264D01*
X142739678Y-94669959D01*
X142632960Y-94625755D01*
X142476200Y-94605118D01*
X142319439Y-94625755D01*
X142173360Y-94686263D01*
X142173357Y-94686265D01*
X142047918Y-94782518D01*
X141951665Y-94907957D01*
X141951663Y-94907960D01*
X141891155Y-95054039D01*
X141870518Y-95210799D01*
X141870518Y-95210800D01*
X141891155Y-95367560D01*
X141947268Y-95503027D01*
X141951664Y-95513641D01*
X142047918Y-95639082D01*
X142173359Y-95735336D01*
X142319438Y-95795844D01*
X142476200Y-95816482D01*
X142482889Y-95816482D01*
X142551010Y-95836484D01*
X142597503Y-95890140D01*
X142607607Y-95960414D01*
X142599298Y-95990700D01*
X142576955Y-96044639D01*
X142556318Y-96201399D01*
X142556318Y-96201400D01*
X142576955Y-96358160D01*
X142629210Y-96484313D01*
X142637464Y-96504241D01*
X142733718Y-96629682D01*
X142859159Y-96725936D01*
X143005238Y-96786444D01*
X143083619Y-96796763D01*
X143161999Y-96807082D01*
X143161999Y-96807081D01*
X143162000Y-96807082D01*
X143237357Y-96797161D01*
X143307505Y-96808100D01*
X143360604Y-96855228D01*
X143379794Y-96923582D01*
X143370212Y-96970300D01*
X143364356Y-96984437D01*
X143343718Y-97141199D01*
X143343718Y-97141200D01*
X143364355Y-97297960D01*
X143420168Y-97432703D01*
X143424864Y-97444041D01*
X143517015Y-97564134D01*
X143521119Y-97569483D01*
X143574603Y-97610522D01*
X143616471Y-97667859D01*
X143623900Y-97710485D01*
X143623900Y-99435147D01*
X143623900Y-99520853D01*
X143646082Y-99603639D01*
X143646083Y-99603641D01*
X143646084Y-99603643D01*
X143688932Y-99677858D01*
X143688940Y-99677868D01*
X145209078Y-101198005D01*
X145243103Y-101260317D01*
X145238039Y-101331132D01*
X145195492Y-101387968D01*
X145128972Y-101412779D01*
X145119983Y-101413100D01*
X145117587Y-101413100D01*
X145117571Y-101413099D01*
X145109853Y-101413099D01*
X145024148Y-101413099D01*
X145016430Y-101413099D01*
X145016414Y-101413100D01*
X144805294Y-101413100D01*
X144737173Y-101393098D01*
X144693027Y-101344303D01*
X144657172Y-101273934D01*
X144637528Y-101235380D01*
X144542220Y-101140072D01*
X144542219Y-101140071D01*
X144473758Y-101105189D01*
X144422126Y-101078881D01*
X144322488Y-101063100D01*
X143805512Y-101063100D01*
X143705874Y-101078881D01*
X143705872Y-101078881D01*
X143705872Y-101078882D01*
X143585780Y-101140071D01*
X143490471Y-101235380D01*
X143429282Y-101355472D01*
X143429281Y-101355474D01*
X143413500Y-101455112D01*
X143413500Y-102022088D01*
X143429281Y-102121726D01*
X143452289Y-102166881D01*
X143485110Y-102231298D01*
X143490472Y-102241820D01*
X143585780Y-102337128D01*
X143705874Y-102398319D01*
X143805512Y-102414100D01*
X143805515Y-102414100D01*
X144322485Y-102414100D01*
X144322488Y-102414100D01*
X144422126Y-102398319D01*
X144433096Y-102392729D01*
X144502870Y-102379624D01*
X144568655Y-102406322D01*
X144609564Y-102464348D01*
X144616300Y-102504995D01*
X144616300Y-102630289D01*
X144596298Y-102698410D01*
X144542642Y-102744903D01*
X144531916Y-102749218D01*
X144403916Y-102794007D01*
X144403914Y-102794008D01*
X144294649Y-102874649D01*
X144214008Y-102983914D01*
X144214006Y-102983918D01*
X144169155Y-103112095D01*
X144169154Y-103112099D01*
X144166300Y-103142533D01*
X144166300Y-104551066D01*
X144169154Y-104581500D01*
X144169155Y-104581504D01*
X144214006Y-104709681D01*
X144214008Y-104709685D01*
X144294649Y-104818950D01*
X144403914Y-104899591D01*
X144403918Y-104899593D01*
X144532101Y-104944446D01*
X144562534Y-104947300D01*
X144562536Y-104947300D01*
X145321064Y-104947300D01*
X145321066Y-104947300D01*
X145351499Y-104944446D01*
X145479682Y-104899593D01*
X145495846Y-104887664D01*
X145588950Y-104818950D01*
X145669591Y-104709685D01*
X145669593Y-104709681D01*
X145699870Y-104623156D01*
X145714446Y-104581499D01*
X145717300Y-104551066D01*
X145717300Y-103501186D01*
X145737302Y-103433065D01*
X145790958Y-103386572D01*
X145861232Y-103376468D01*
X145891506Y-103384773D01*
X146027838Y-103441244D01*
X146184600Y-103461882D01*
X146341362Y-103441244D01*
X146487441Y-103380736D01*
X146487446Y-103380731D01*
X146491765Y-103378943D01*
X146562355Y-103371354D01*
X146625842Y-103403133D01*
X146652251Y-103438149D01*
X146715448Y-103562182D01*
X146715672Y-103562620D01*
X146810980Y-103657928D01*
X146931074Y-103719119D01*
X147030712Y-103734900D01*
X147030715Y-103734900D01*
X147547685Y-103734900D01*
X147547688Y-103734900D01*
X147647326Y-103719119D01*
X147767420Y-103657928D01*
X147862728Y-103562620D01*
X147923919Y-103442526D01*
X147939700Y-103342888D01*
X147939700Y-102775912D01*
X147923919Y-102676274D01*
X147862728Y-102556180D01*
X147767420Y-102460872D01*
X147767419Y-102460871D01*
X147694444Y-102423689D01*
X147647326Y-102399681D01*
X147547688Y-102383900D01*
X147030712Y-102383900D01*
X146931074Y-102399681D01*
X146931072Y-102399681D01*
X146931072Y-102399682D01*
X146810980Y-102460871D01*
X146802961Y-102466699D01*
X146801309Y-102464425D01*
X146752461Y-102491089D01*
X146681646Y-102486013D01*
X146625734Y-102444667D01*
X146612882Y-102427917D01*
X146598462Y-102416853D01*
X146556594Y-102359515D01*
X146552372Y-102288644D01*
X146587136Y-102226741D01*
X146598453Y-102216933D01*
X146663682Y-102166882D01*
X146759936Y-102041441D01*
X146820444Y-101895362D01*
X146841082Y-101738600D01*
X146820444Y-101581838D01*
X146797777Y-101527117D01*
X146790189Y-101456528D01*
X146821969Y-101393041D01*
X146883027Y-101356814D01*
X146914187Y-101352900D01*
X149489255Y-101352900D01*
X149557376Y-101372902D01*
X149603869Y-101426558D01*
X149613973Y-101496832D01*
X149605664Y-101527118D01*
X149561955Y-101632639D01*
X149541318Y-101789399D01*
X149541318Y-101789400D01*
X149561955Y-101946160D01*
X149611373Y-102065464D01*
X149622464Y-102092241D01*
X149718718Y-102217682D01*
X149844159Y-102313936D01*
X149990238Y-102374444D01*
X150147000Y-102395082D01*
X150303762Y-102374444D01*
X150449841Y-102313936D01*
X150528964Y-102253223D01*
X150595184Y-102227622D01*
X150664733Y-102241887D01*
X150694763Y-102264090D01*
X151410195Y-102979522D01*
X151444221Y-103041834D01*
X151447100Y-103068617D01*
X151447100Y-105649747D01*
X151447100Y-105735453D01*
X151469282Y-105818239D01*
X151469283Y-105818241D01*
X151469284Y-105818243D01*
X151512132Y-105892458D01*
X151512137Y-105892464D01*
X152033329Y-106413655D01*
X152033350Y-106413678D01*
X152098331Y-106478659D01*
X152098336Y-106478663D01*
X152098338Y-106478665D01*
X152098339Y-106478666D01*
X152098341Y-106478667D01*
X152164975Y-106517138D01*
X152164976Y-106517138D01*
X152172562Y-106521518D01*
X152172564Y-106521518D01*
X152172567Y-106521520D01*
X152241229Y-106539918D01*
X152255347Y-106543701D01*
X152348771Y-106543701D01*
X152348787Y-106543700D01*
X153318182Y-106543700D01*
X153386303Y-106563702D01*
X153432796Y-106617358D01*
X153442900Y-106687632D01*
X153413406Y-106752212D01*
X153407277Y-106758795D01*
X153267740Y-106898331D01*
X153267732Y-106898341D01*
X153224884Y-106972556D01*
X153224880Y-106972567D01*
X153213980Y-107013246D01*
X153202700Y-107055344D01*
X153202700Y-107791183D01*
X153182698Y-107859304D01*
X153165795Y-107880278D01*
X153080278Y-107965795D01*
X153017966Y-107999821D01*
X152991183Y-108002700D01*
X152295217Y-108002700D01*
X152227096Y-107982698D01*
X152206122Y-107965795D01*
X152158062Y-107917735D01*
X151623062Y-107382735D01*
X151623060Y-107382734D01*
X151623058Y-107382732D01*
X151548843Y-107339884D01*
X151548841Y-107339883D01*
X151548839Y-107339882D01*
X151466053Y-107317700D01*
X151466051Y-107317700D01*
X150840217Y-107317700D01*
X150772096Y-107297698D01*
X150751122Y-107280795D01*
X150370908Y-106900581D01*
X150336882Y-106838269D01*
X150335081Y-106795043D01*
X150343882Y-106728200D01*
X150323244Y-106571438D01*
X150262736Y-106425359D01*
X150166482Y-106299918D01*
X150041041Y-106203664D01*
X149962394Y-106171087D01*
X149907114Y-106126539D01*
X149884693Y-106059176D01*
X149902251Y-105990385D01*
X149933907Y-105954718D01*
X150049682Y-105865882D01*
X150145936Y-105740441D01*
X150206444Y-105594362D01*
X150227082Y-105437600D01*
X150225470Y-105425359D01*
X150206444Y-105280839D01*
X150188257Y-105236930D01*
X150145936Y-105134759D01*
X150049682Y-105009318D01*
X149990119Y-104963614D01*
X149948253Y-104906277D01*
X149944031Y-104835406D01*
X149978795Y-104773503D01*
X149983786Y-104769178D01*
X149986476Y-104766488D01*
X149986478Y-104766484D01*
X149986482Y-104766482D01*
X150082736Y-104641041D01*
X150143244Y-104494962D01*
X150163882Y-104338200D01*
X150143244Y-104181438D01*
X150082736Y-104035359D01*
X149986482Y-103909918D01*
X149861041Y-103813664D01*
X149828928Y-103800362D01*
X149714960Y-103753155D01*
X149558200Y-103732518D01*
X149401439Y-103753155D01*
X149255360Y-103813663D01*
X149255357Y-103813665D01*
X149129918Y-103909918D01*
X149033665Y-104035357D01*
X149033663Y-104035360D01*
X148973155Y-104181439D01*
X148952518Y-104338198D01*
X148952518Y-104346457D01*
X148949314Y-104346457D01*
X148940688Y-104401697D01*
X148915812Y-104437066D01*
X148382443Y-104970434D01*
X148382435Y-104970444D01*
X148339587Y-105044659D01*
X148339586Y-105044662D01*
X148339585Y-105044664D01*
X148318269Y-105124218D01*
X148317403Y-105127451D01*
X148317403Y-105568679D01*
X148297401Y-105636800D01*
X148280498Y-105657775D01*
X147320199Y-106618073D01*
X147257887Y-106652098D01*
X147214659Y-106653899D01*
X147128202Y-106642518D01*
X147128199Y-106642518D01*
X146971439Y-106663155D01*
X146825360Y-106723663D01*
X146825357Y-106723665D01*
X146699918Y-106819918D01*
X146603665Y-106945357D01*
X146603663Y-106945360D01*
X146543155Y-107091439D01*
X146522518Y-107248199D01*
X146522518Y-107248200D01*
X146543155Y-107404960D01*
X146601928Y-107546849D01*
X146603664Y-107551041D01*
X146699918Y-107676482D01*
X146825359Y-107772736D01*
X146971438Y-107833244D01*
X147128200Y-107853882D01*
X147284962Y-107833244D01*
X147431041Y-107772736D01*
X147556482Y-107676482D01*
X147606737Y-107610987D01*
X147664075Y-107569120D01*
X147734946Y-107564898D01*
X147796849Y-107599662D01*
X147830130Y-107662374D01*
X147832700Y-107687691D01*
X147832700Y-108161583D01*
X147812698Y-108229704D01*
X147795795Y-108250678D01*
X147720078Y-108326395D01*
X147657766Y-108360421D01*
X147630983Y-108363300D01*
X145388817Y-108363300D01*
X145320696Y-108343298D01*
X145299726Y-108326399D01*
X144328353Y-107355026D01*
X144328351Y-107355025D01*
X144328349Y-107355023D01*
X144254134Y-107312175D01*
X144254132Y-107312174D01*
X144254130Y-107312173D01*
X144171344Y-107289991D01*
X144171342Y-107289991D01*
X143484492Y-107289991D01*
X143416371Y-107269989D01*
X143369878Y-107216333D01*
X143368083Y-107212210D01*
X143338736Y-107141359D01*
X143242482Y-107015918D01*
X143117041Y-106919664D01*
X143091550Y-106909105D01*
X142970960Y-106859155D01*
X142814200Y-106838518D01*
X142657439Y-106859155D01*
X142511360Y-106919663D01*
X142511357Y-106919665D01*
X142385918Y-107015918D01*
X142289665Y-107141357D01*
X142289661Y-107141364D01*
X142236923Y-107268684D01*
X142192375Y-107323965D01*
X142125011Y-107346385D01*
X142056220Y-107328826D01*
X142020552Y-107297169D01*
X142017936Y-107293760D01*
X142017936Y-107293759D01*
X141921682Y-107168318D01*
X141796241Y-107072064D01*
X141785373Y-107067562D01*
X141650160Y-107011555D01*
X141493400Y-106990918D01*
X141493397Y-106990918D01*
X141492287Y-106991064D01*
X141491351Y-106990918D01*
X141485142Y-106990918D01*
X141485142Y-106989948D01*
X141422139Y-106980117D01*
X141369045Y-106932984D01*
X141349862Y-106864628D01*
X141352891Y-106842649D01*
X141352822Y-106842640D01*
X141353900Y-106834452D01*
X141353900Y-102560617D01*
X141373902Y-102492496D01*
X141390800Y-102471526D01*
X141796865Y-102065462D01*
X141814185Y-102035463D01*
X141839718Y-101991238D01*
X141861900Y-101908453D01*
X141861900Y-99547550D01*
X141881902Y-99479429D01*
X141935558Y-99432936D01*
X141939682Y-99431141D01*
X141947157Y-99428044D01*
X141947162Y-99428044D01*
X142093241Y-99367536D01*
X142218682Y-99271282D01*
X142314936Y-99145841D01*
X142375444Y-98999762D01*
X142396082Y-98843000D01*
X142395059Y-98835233D01*
X142375444Y-98686239D01*
X142368605Y-98669727D01*
X142314936Y-98540159D01*
X142218682Y-98414718D01*
X142218680Y-98414716D01*
X142218679Y-98414715D01*
X142103578Y-98326395D01*
X142061711Y-98269058D01*
X142057489Y-98198187D01*
X142091186Y-98137339D01*
X142259283Y-97969241D01*
X142259293Y-97969234D01*
X142330259Y-97898268D01*
X142330265Y-97898262D01*
X142373118Y-97824038D01*
X142378425Y-97804233D01*
X142395301Y-97741252D01*
X142395301Y-97655547D01*
X142395301Y-97647830D01*
X142395300Y-97647812D01*
X142395300Y-96717348D01*
X142395300Y-96717347D01*
X142387096Y-96686729D01*
X142385575Y-96681052D01*
X142385575Y-96681051D01*
X142373119Y-96634566D01*
X142373118Y-96634561D01*
X142334491Y-96567658D01*
X142330267Y-96560341D01*
X142330259Y-96560331D01*
X141828469Y-96058541D01*
X141828465Y-96058538D01*
X141828462Y-96058535D01*
X141823419Y-96055623D01*
X141797332Y-96035605D01*
X141693262Y-95931535D01*
X141693261Y-95931534D01*
X141693258Y-95931532D01*
X141619043Y-95888684D01*
X141619041Y-95888683D01*
X141619039Y-95888682D01*
X141536253Y-95866500D01*
X141536251Y-95866500D01*
X141134706Y-95866500D01*
X141066585Y-95846498D01*
X141034746Y-95817207D01*
X141032684Y-95814520D01*
X141032682Y-95814519D01*
X141032682Y-95814518D01*
X140907241Y-95718264D01*
X140825953Y-95684593D01*
X140761160Y-95657755D01*
X140598921Y-95636396D01*
X140533994Y-95607673D01*
X140494903Y-95548408D01*
X140490446Y-95495028D01*
X140491082Y-95490200D01*
X140470444Y-95333438D01*
X140409936Y-95187359D01*
X140313682Y-95061918D01*
X140188241Y-94965664D01*
X140183843Y-94963842D01*
X140042160Y-94905155D01*
X140007921Y-94900648D01*
X139942994Y-94871925D01*
X139903903Y-94812660D01*
X139899446Y-94759279D01*
X139906882Y-94702800D01*
X139886244Y-94546038D01*
X139825736Y-94399959D01*
X139729482Y-94274518D01*
X139604041Y-94178264D01*
X139583883Y-94169914D01*
X139457960Y-94117755D01*
X139301200Y-94097118D01*
X139144439Y-94117755D01*
X138998360Y-94178263D01*
X138998357Y-94178265D01*
X138872918Y-94274518D01*
X138776659Y-94399965D01*
X138772532Y-94407114D01*
X138770067Y-94405690D01*
X138734217Y-94450190D01*
X138666857Y-94472619D01*
X138662343Y-94472700D01*
X137308218Y-94472700D01*
X137240097Y-94452698D01*
X137193604Y-94399042D01*
X137183500Y-94328768D01*
X137212994Y-94264188D01*
X137219122Y-94257605D01*
X137271627Y-94205100D01*
X137461880Y-94014845D01*
X137461885Y-94014842D01*
X137529659Y-93947068D01*
X137529665Y-93947062D01*
X137563250Y-93888891D01*
X137572518Y-93872839D01*
X137594700Y-93790053D01*
X137594700Y-93704347D01*
X137594700Y-93316285D01*
X137614702Y-93248164D01*
X137643997Y-93216322D01*
X137663912Y-93201041D01*
X137697482Y-93175282D01*
X137793736Y-93049841D01*
X137854244Y-92903762D01*
X137874882Y-92747000D01*
X137873358Y-92735427D01*
X137860291Y-92636167D01*
X137854244Y-92590238D01*
X137793736Y-92444159D01*
X137697482Y-92318718D01*
X137572041Y-92222464D01*
X137562643Y-92218571D01*
X137425960Y-92161955D01*
X137269200Y-92141318D01*
X137112439Y-92161955D01*
X136966360Y-92222463D01*
X136966357Y-92222465D01*
X136840918Y-92318718D01*
X136744665Y-92444157D01*
X136744663Y-92444160D01*
X136684155Y-92590239D01*
X136663518Y-92746999D01*
X136663518Y-92747000D01*
X136684155Y-92903760D01*
X136684156Y-92903762D01*
X136744664Y-93049841D01*
X136839499Y-93173432D01*
X136840919Y-93175283D01*
X136894403Y-93216322D01*
X136936271Y-93273659D01*
X136943700Y-93316285D01*
X136943700Y-93560183D01*
X136923698Y-93628304D01*
X136906795Y-93649278D01*
X136891278Y-93664795D01*
X136828966Y-93698821D01*
X136802183Y-93701700D01*
X131790053Y-93701700D01*
X131704347Y-93701700D01*
X131621561Y-93723882D01*
X131621559Y-93723883D01*
X131621556Y-93723884D01*
X131547341Y-93766732D01*
X131547336Y-93766736D01*
X131511345Y-93802728D01*
X131430876Y-93883196D01*
X131368567Y-93917220D01*
X131341783Y-93920100D01*
X127634653Y-93920100D01*
X127548947Y-93920100D01*
X127466161Y-93942282D01*
X127466159Y-93942283D01*
X127466156Y-93942284D01*
X127391941Y-93985132D01*
X127391935Y-93985137D01*
X127332913Y-94044159D01*
X127270600Y-94078184D01*
X127199785Y-94073118D01*
X127163777Y-94049977D01*
X127163034Y-94050946D01*
X127156482Y-94045919D01*
X127156482Y-94045918D01*
X127031041Y-93949664D01*
X127028473Y-93948600D01*
X126884960Y-93889155D01*
X126728200Y-93868518D01*
X126571439Y-93889155D01*
X126425360Y-93949663D01*
X126425357Y-93949665D01*
X126299918Y-94045918D01*
X126203665Y-94171357D01*
X126203661Y-94171364D01*
X126179353Y-94230049D01*
X126134805Y-94285330D01*
X126067441Y-94307750D01*
X125998650Y-94290191D01*
X125988128Y-94283212D01*
X125944628Y-94251108D01*
X125914681Y-94229006D01*
X125786504Y-94184155D01*
X125786500Y-94184154D01*
X125756066Y-94181300D01*
X125744700Y-94181300D01*
X125676579Y-94161298D01*
X125630086Y-94107642D01*
X125618700Y-94055300D01*
X125618700Y-93375123D01*
X125638702Y-93307002D01*
X125692358Y-93260509D01*
X125757051Y-93249730D01*
X125798199Y-93253783D01*
X125798200Y-93253783D01*
X125798203Y-93253783D01*
X126004127Y-93233501D01*
X126004128Y-93233500D01*
X126004134Y-93233500D01*
X126202154Y-93173432D01*
X126384650Y-93075885D01*
X126544610Y-92944610D01*
X126675885Y-92784650D01*
X126773432Y-92602154D01*
X126833500Y-92404134D01*
X126837424Y-92364300D01*
X126853783Y-92198203D01*
X126853783Y-92198196D01*
X126833501Y-91992272D01*
X126833500Y-91992270D01*
X126833500Y-91992266D01*
X126773432Y-91794246D01*
X126675885Y-91611750D01*
X126544610Y-91451790D01*
X126384650Y-91320515D01*
X126384649Y-91320514D01*
X126384646Y-91320512D01*
X126384644Y-91320511D01*
X126237103Y-91241647D01*
X126186455Y-91191895D01*
X126170500Y-91130526D01*
X126170500Y-90442473D01*
X126190502Y-90374352D01*
X126237103Y-90331351D01*
X126306450Y-90294285D01*
X126466410Y-90163010D01*
X126597685Y-90003050D01*
X126695232Y-89820554D01*
X126755300Y-89622534D01*
X126775583Y-89416600D01*
X126755300Y-89210666D01*
X126695232Y-89012646D01*
X126597685Y-88830150D01*
X126466410Y-88670190D01*
X126410250Y-88624101D01*
X126370282Y-88565425D01*
X126368381Y-88494454D01*
X126405151Y-88433721D01*
X126468919Y-88402509D01*
X126490208Y-88400702D01*
X127489552Y-88400944D01*
G37*
%TD.AperFunction*%
%TA.AperFunction,Conductor*%
G36*
X118818327Y-93411302D02*
G01*
X118839302Y-93428205D01*
X119168601Y-93757505D01*
X119202626Y-93819817D01*
X119197561Y-93890633D01*
X119168601Y-93935695D01*
X119097513Y-94006783D01*
X119097508Y-94006789D01*
X119038200Y-94109512D01*
X119035403Y-94119956D01*
X119035402Y-94119960D01*
X119007500Y-94224091D01*
X119007500Y-96339152D01*
X119003207Y-96371761D01*
X118982501Y-96449038D01*
X118982501Y-96449041D01*
X118982501Y-96567659D01*
X119012884Y-96681053D01*
X119013200Y-96682233D01*
X119013203Y-96682241D01*
X119038430Y-96725934D01*
X119055452Y-96755418D01*
X119062419Y-96767484D01*
X119079300Y-96830484D01*
X119079300Y-97342050D01*
X119090711Y-97399419D01*
X119090933Y-97400531D01*
X119135248Y-97466852D01*
X119201569Y-97511167D01*
X119260052Y-97522800D01*
X119260053Y-97522800D01*
X119560683Y-97522800D01*
X119628804Y-97542802D01*
X119675297Y-97596458D01*
X119685401Y-97666732D01*
X119655907Y-97731312D01*
X119649778Y-97737895D01*
X119602278Y-97785395D01*
X119539966Y-97819421D01*
X119513183Y-97822300D01*
X118054900Y-97822300D01*
X117986779Y-97802298D01*
X117940286Y-97748642D01*
X117928900Y-97696300D01*
X117928900Y-97538376D01*
X117948902Y-97470255D01*
X117950135Y-97468374D01*
X117957309Y-97457638D01*
X117995467Y-97400531D01*
X118007100Y-97342048D01*
X118007100Y-96324652D01*
X117995467Y-96266169D01*
X117951152Y-96199848D01*
X117884831Y-96155533D01*
X117884828Y-96155532D01*
X117826350Y-96143900D01*
X117826348Y-96143900D01*
X117693185Y-96143900D01*
X117625064Y-96123898D01*
X117578571Y-96070242D01*
X117568467Y-95999968D01*
X117597961Y-95935388D01*
X117630185Y-95908781D01*
X117698959Y-95869074D01*
X117734613Y-95848489D01*
X117818489Y-95764613D01*
X117877799Y-95661886D01*
X117908500Y-95547309D01*
X117908500Y-95428691D01*
X117908194Y-95427549D01*
X117903900Y-95394934D01*
X117903900Y-95343076D01*
X117923902Y-95274955D01*
X117925135Y-95273074D01*
X117928771Y-95267632D01*
X117970467Y-95205231D01*
X117982100Y-95146748D01*
X117982100Y-94129352D01*
X117970467Y-94070869D01*
X117926152Y-94004548D01*
X117859831Y-93960233D01*
X117859828Y-93960232D01*
X117801350Y-93948600D01*
X117801348Y-93948600D01*
X117355452Y-93948600D01*
X117355449Y-93948600D01*
X117296971Y-93960232D01*
X117296968Y-93960233D01*
X117230648Y-94004548D01*
X117186333Y-94070868D01*
X117186332Y-94070871D01*
X117174700Y-94129349D01*
X117174700Y-94911500D01*
X117154698Y-94979621D01*
X117101042Y-95026114D01*
X117048700Y-95037500D01*
X116434839Y-95037500D01*
X116366718Y-95017498D01*
X116320225Y-94963842D01*
X116310121Y-94893568D01*
X116339615Y-94828988D01*
X116345743Y-94822405D01*
X116361019Y-94807129D01*
X116416728Y-94751420D01*
X116477919Y-94631326D01*
X116493700Y-94531688D01*
X116493700Y-93964712D01*
X116477919Y-93865074D01*
X116416728Y-93744980D01*
X116413020Y-93741272D01*
X116378994Y-93678960D01*
X116384059Y-93608145D01*
X116413017Y-93563084D01*
X116547899Y-93428204D01*
X116610212Y-93394179D01*
X116636994Y-93391300D01*
X118750206Y-93391300D01*
X118818327Y-93411302D01*
G37*
%TD.AperFunction*%
%TD*%
M02*
