%TF.GenerationSoftware,KiCad,Pcbnew,8.0.5*%
%TF.CreationDate,2024-11-08T07:47:22+00:00*%
%TF.ProjectId,ADE_Aux_V4,4144455f-4175-4785-9f56-342e6b696361,rev?*%
%TF.SameCoordinates,Original*%
%TF.FileFunction,Legend,Bot*%
%TF.FilePolarity,Positive*%
%FSLAX46Y46*%
G04 Gerber Fmt 4.6, Leading zero omitted, Abs format (unit mm)*
G04 Created by KiCad (PCBNEW 8.0.5) date 2024-11-08 07:47:22*
%MOMM*%
%LPD*%
G01*
G04 APERTURE LIST*
%ADD10C,0.100000*%
%ADD11C,0.120000*%
%ADD12C,0.127000*%
%ADD13C,0.200000*%
G04 APERTURE END LIST*
D10*
X3115428Y33755909D02*
X3139237Y33732100D01*
X3139237Y33732100D02*
X3210666Y33708290D01*
X3210666Y33708290D02*
X3258285Y33708290D01*
X3258285Y33708290D02*
X3329713Y33732100D01*
X3329713Y33732100D02*
X3377332Y33779719D01*
X3377332Y33779719D02*
X3401142Y33827338D01*
X3401142Y33827338D02*
X3424951Y33922576D01*
X3424951Y33922576D02*
X3424951Y33994004D01*
X3424951Y33994004D02*
X3401142Y34089242D01*
X3401142Y34089242D02*
X3377332Y34136861D01*
X3377332Y34136861D02*
X3329713Y34184480D01*
X3329713Y34184480D02*
X3258285Y34208290D01*
X3258285Y34208290D02*
X3210666Y34208290D01*
X3210666Y34208290D02*
X3139237Y34184480D01*
X3139237Y34184480D02*
X3115428Y34160671D01*
X2924951Y34160671D02*
X2901142Y34184480D01*
X2901142Y34184480D02*
X2853523Y34208290D01*
X2853523Y34208290D02*
X2734475Y34208290D01*
X2734475Y34208290D02*
X2686856Y34184480D01*
X2686856Y34184480D02*
X2663047Y34160671D01*
X2663047Y34160671D02*
X2639237Y34113052D01*
X2639237Y34113052D02*
X2639237Y34065433D01*
X2639237Y34065433D02*
X2663047Y33994004D01*
X2663047Y33994004D02*
X2948761Y33708290D01*
X2948761Y33708290D02*
X2639237Y33708290D01*
X2329714Y34208290D02*
X2282095Y34208290D01*
X2282095Y34208290D02*
X2234476Y34184480D01*
X2234476Y34184480D02*
X2210666Y34160671D01*
X2210666Y34160671D02*
X2186857Y34113052D01*
X2186857Y34113052D02*
X2163047Y34017814D01*
X2163047Y34017814D02*
X2163047Y33898766D01*
X2163047Y33898766D02*
X2186857Y33803528D01*
X2186857Y33803528D02*
X2210666Y33755909D01*
X2210666Y33755909D02*
X2234476Y33732100D01*
X2234476Y33732100D02*
X2282095Y33708290D01*
X2282095Y33708290D02*
X2329714Y33708290D01*
X2329714Y33708290D02*
X2377333Y33732100D01*
X2377333Y33732100D02*
X2401142Y33755909D01*
X2401142Y33755909D02*
X2424952Y33803528D01*
X2424952Y33803528D02*
X2448761Y33898766D01*
X2448761Y33898766D02*
X2448761Y34017814D01*
X2448761Y34017814D02*
X2424952Y34113052D01*
X2424952Y34113052D02*
X2401142Y34160671D01*
X2401142Y34160671D02*
X2377333Y34184480D01*
X2377333Y34184480D02*
X2329714Y34208290D01*
X12861894Y29475985D02*
X12861894Y29237890D01*
X13028560Y29737890D02*
X12861894Y29475985D01*
X12861894Y29475985D02*
X12695227Y29737890D01*
X12552370Y29690271D02*
X12528561Y29714080D01*
X12528561Y29714080D02*
X12480942Y29737890D01*
X12480942Y29737890D02*
X12361894Y29737890D01*
X12361894Y29737890D02*
X12314275Y29714080D01*
X12314275Y29714080D02*
X12290466Y29690271D01*
X12290466Y29690271D02*
X12266656Y29642652D01*
X12266656Y29642652D02*
X12266656Y29595033D01*
X12266656Y29595033D02*
X12290466Y29523604D01*
X12290466Y29523604D02*
X12576180Y29237890D01*
X12576180Y29237890D02*
X12266656Y29237890D01*
X-9459933Y40278890D02*
X-9459933Y39921747D01*
X-9459933Y39921747D02*
X-9436124Y39850319D01*
X-9436124Y39850319D02*
X-9388505Y39802700D01*
X-9388505Y39802700D02*
X-9317076Y39778890D01*
X-9317076Y39778890D02*
X-9269457Y39778890D01*
X-9959933Y39778890D02*
X-9674219Y39778890D01*
X-9817076Y39778890D02*
X-9817076Y40278890D01*
X-9817076Y40278890D02*
X-9769457Y40207461D01*
X-9769457Y40207461D02*
X-9721838Y40159842D01*
X-9721838Y40159842D02*
X-9674219Y40136033D01*
X-161171Y38023109D02*
X-137362Y37999300D01*
X-137362Y37999300D02*
X-65933Y37975490D01*
X-65933Y37975490D02*
X-18314Y37975490D01*
X-18314Y37975490D02*
X53113Y37999300D01*
X53113Y37999300D02*
X100732Y38046919D01*
X100732Y38046919D02*
X124542Y38094538D01*
X124542Y38094538D02*
X148351Y38189776D01*
X148351Y38189776D02*
X148351Y38261204D01*
X148351Y38261204D02*
X124542Y38356442D01*
X124542Y38356442D02*
X100732Y38404061D01*
X100732Y38404061D02*
X53113Y38451680D01*
X53113Y38451680D02*
X-18314Y38475490D01*
X-18314Y38475490D02*
X-65933Y38475490D01*
X-65933Y38475490D02*
X-137362Y38451680D01*
X-137362Y38451680D02*
X-161171Y38427871D01*
X-351648Y38427871D02*
X-375457Y38451680D01*
X-375457Y38451680D02*
X-423076Y38475490D01*
X-423076Y38475490D02*
X-542124Y38475490D01*
X-542124Y38475490D02*
X-589743Y38451680D01*
X-589743Y38451680D02*
X-613552Y38427871D01*
X-613552Y38427871D02*
X-637362Y38380252D01*
X-637362Y38380252D02*
X-637362Y38332633D01*
X-637362Y38332633D02*
X-613552Y38261204D01*
X-613552Y38261204D02*
X-327838Y37975490D01*
X-327838Y37975490D02*
X-637362Y37975490D01*
X-923076Y38261204D02*
X-875457Y38285014D01*
X-875457Y38285014D02*
X-851647Y38308823D01*
X-851647Y38308823D02*
X-827838Y38356442D01*
X-827838Y38356442D02*
X-827838Y38380252D01*
X-827838Y38380252D02*
X-851647Y38427871D01*
X-851647Y38427871D02*
X-875457Y38451680D01*
X-875457Y38451680D02*
X-923076Y38475490D01*
X-923076Y38475490D02*
X-1018314Y38475490D01*
X-1018314Y38475490D02*
X-1065933Y38451680D01*
X-1065933Y38451680D02*
X-1089742Y38427871D01*
X-1089742Y38427871D02*
X-1113552Y38380252D01*
X-1113552Y38380252D02*
X-1113552Y38356442D01*
X-1113552Y38356442D02*
X-1089742Y38308823D01*
X-1089742Y38308823D02*
X-1065933Y38285014D01*
X-1065933Y38285014D02*
X-1018314Y38261204D01*
X-1018314Y38261204D02*
X-923076Y38261204D01*
X-923076Y38261204D02*
X-875457Y38237395D01*
X-875457Y38237395D02*
X-851647Y38213585D01*
X-851647Y38213585D02*
X-827838Y38165966D01*
X-827838Y38165966D02*
X-827838Y38070728D01*
X-827838Y38070728D02*
X-851647Y38023109D01*
X-851647Y38023109D02*
X-875457Y37999300D01*
X-875457Y37999300D02*
X-923076Y37975490D01*
X-923076Y37975490D02*
X-1018314Y37975490D01*
X-1018314Y37975490D02*
X-1065933Y37999300D01*
X-1065933Y37999300D02*
X-1089742Y38023109D01*
X-1089742Y38023109D02*
X-1113552Y38070728D01*
X-1113552Y38070728D02*
X-1113552Y38165966D01*
X-1113552Y38165966D02*
X-1089742Y38213585D01*
X-1089742Y38213585D02*
X-1065933Y38237395D01*
X-1065933Y38237395D02*
X-1018314Y38261204D01*
X3372028Y36617709D02*
X3395837Y36593900D01*
X3395837Y36593900D02*
X3467266Y36570090D01*
X3467266Y36570090D02*
X3514885Y36570090D01*
X3514885Y36570090D02*
X3586313Y36593900D01*
X3586313Y36593900D02*
X3633932Y36641519D01*
X3633932Y36641519D02*
X3657742Y36689138D01*
X3657742Y36689138D02*
X3681551Y36784376D01*
X3681551Y36784376D02*
X3681551Y36855804D01*
X3681551Y36855804D02*
X3657742Y36951042D01*
X3657742Y36951042D02*
X3633932Y36998661D01*
X3633932Y36998661D02*
X3586313Y37046280D01*
X3586313Y37046280D02*
X3514885Y37070090D01*
X3514885Y37070090D02*
X3467266Y37070090D01*
X3467266Y37070090D02*
X3395837Y37046280D01*
X3395837Y37046280D02*
X3372028Y37022471D01*
X3205361Y37070090D02*
X2895837Y37070090D01*
X2895837Y37070090D02*
X3062504Y36879614D01*
X3062504Y36879614D02*
X2991075Y36879614D01*
X2991075Y36879614D02*
X2943456Y36855804D01*
X2943456Y36855804D02*
X2919647Y36831995D01*
X2919647Y36831995D02*
X2895837Y36784376D01*
X2895837Y36784376D02*
X2895837Y36665328D01*
X2895837Y36665328D02*
X2919647Y36617709D01*
X2919647Y36617709D02*
X2943456Y36593900D01*
X2943456Y36593900D02*
X2991075Y36570090D01*
X2991075Y36570090D02*
X3133932Y36570090D01*
X3133932Y36570090D02*
X3181551Y36593900D01*
X3181551Y36593900D02*
X3205361Y36617709D01*
X2586314Y37070090D02*
X2538695Y37070090D01*
X2538695Y37070090D02*
X2491076Y37046280D01*
X2491076Y37046280D02*
X2467266Y37022471D01*
X2467266Y37022471D02*
X2443457Y36974852D01*
X2443457Y36974852D02*
X2419647Y36879614D01*
X2419647Y36879614D02*
X2419647Y36760566D01*
X2419647Y36760566D02*
X2443457Y36665328D01*
X2443457Y36665328D02*
X2467266Y36617709D01*
X2467266Y36617709D02*
X2491076Y36593900D01*
X2491076Y36593900D02*
X2538695Y36570090D01*
X2538695Y36570090D02*
X2586314Y36570090D01*
X2586314Y36570090D02*
X2633933Y36593900D01*
X2633933Y36593900D02*
X2657742Y36617709D01*
X2657742Y36617709D02*
X2681552Y36665328D01*
X2681552Y36665328D02*
X2705361Y36760566D01*
X2705361Y36760566D02*
X2705361Y36879614D01*
X2705361Y36879614D02*
X2681552Y36974852D01*
X2681552Y36974852D02*
X2657742Y37022471D01*
X2657742Y37022471D02*
X2633933Y37046280D01*
X2633933Y37046280D02*
X2586314Y37070090D01*
X4868028Y36575309D02*
X4891837Y36551500D01*
X4891837Y36551500D02*
X4963266Y36527690D01*
X4963266Y36527690D02*
X5010885Y36527690D01*
X5010885Y36527690D02*
X5082313Y36551500D01*
X5082313Y36551500D02*
X5129932Y36599119D01*
X5129932Y36599119D02*
X5153742Y36646738D01*
X5153742Y36646738D02*
X5177551Y36741976D01*
X5177551Y36741976D02*
X5177551Y36813404D01*
X5177551Y36813404D02*
X5153742Y36908642D01*
X5153742Y36908642D02*
X5129932Y36956261D01*
X5129932Y36956261D02*
X5082313Y37003880D01*
X5082313Y37003880D02*
X5010885Y37027690D01*
X5010885Y37027690D02*
X4963266Y37027690D01*
X4963266Y37027690D02*
X4891837Y37003880D01*
X4891837Y37003880D02*
X4868028Y36980071D01*
X4677551Y36980071D02*
X4653742Y37003880D01*
X4653742Y37003880D02*
X4606123Y37027690D01*
X4606123Y37027690D02*
X4487075Y37027690D01*
X4487075Y37027690D02*
X4439456Y37003880D01*
X4439456Y37003880D02*
X4415647Y36980071D01*
X4415647Y36980071D02*
X4391837Y36932452D01*
X4391837Y36932452D02*
X4391837Y36884833D01*
X4391837Y36884833D02*
X4415647Y36813404D01*
X4415647Y36813404D02*
X4701361Y36527690D01*
X4701361Y36527690D02*
X4391837Y36527690D01*
X4225171Y37027690D02*
X3915647Y37027690D01*
X3915647Y37027690D02*
X4082314Y36837214D01*
X4082314Y36837214D02*
X4010885Y36837214D01*
X4010885Y36837214D02*
X3963266Y36813404D01*
X3963266Y36813404D02*
X3939457Y36789595D01*
X3939457Y36789595D02*
X3915647Y36741976D01*
X3915647Y36741976D02*
X3915647Y36622928D01*
X3915647Y36622928D02*
X3939457Y36575309D01*
X3939457Y36575309D02*
X3963266Y36551500D01*
X3963266Y36551500D02*
X4010885Y36527690D01*
X4010885Y36527690D02*
X4153742Y36527690D01*
X4153742Y36527690D02*
X4201361Y36551500D01*
X4201361Y36551500D02*
X4225171Y36575309D01*
X13935828Y34314709D02*
X13959637Y34290900D01*
X13959637Y34290900D02*
X14031066Y34267090D01*
X14031066Y34267090D02*
X14078685Y34267090D01*
X14078685Y34267090D02*
X14150113Y34290900D01*
X14150113Y34290900D02*
X14197732Y34338519D01*
X14197732Y34338519D02*
X14221542Y34386138D01*
X14221542Y34386138D02*
X14245351Y34481376D01*
X14245351Y34481376D02*
X14245351Y34552804D01*
X14245351Y34552804D02*
X14221542Y34648042D01*
X14221542Y34648042D02*
X14197732Y34695661D01*
X14197732Y34695661D02*
X14150113Y34743280D01*
X14150113Y34743280D02*
X14078685Y34767090D01*
X14078685Y34767090D02*
X14031066Y34767090D01*
X14031066Y34767090D02*
X13959637Y34743280D01*
X13959637Y34743280D02*
X13935828Y34719471D01*
X13459637Y34267090D02*
X13745351Y34267090D01*
X13602494Y34267090D02*
X13602494Y34767090D01*
X13602494Y34767090D02*
X13650113Y34695661D01*
X13650113Y34695661D02*
X13697732Y34648042D01*
X13697732Y34648042D02*
X13745351Y34624233D01*
X13007257Y34767090D02*
X13245352Y34767090D01*
X13245352Y34767090D02*
X13269161Y34528995D01*
X13269161Y34528995D02*
X13245352Y34552804D01*
X13245352Y34552804D02*
X13197733Y34576614D01*
X13197733Y34576614D02*
X13078685Y34576614D01*
X13078685Y34576614D02*
X13031066Y34552804D01*
X13031066Y34552804D02*
X13007257Y34528995D01*
X13007257Y34528995D02*
X12983447Y34481376D01*
X12983447Y34481376D02*
X12983447Y34362328D01*
X12983447Y34362328D02*
X13007257Y34314709D01*
X13007257Y34314709D02*
X13031066Y34290900D01*
X13031066Y34290900D02*
X13078685Y34267090D01*
X13078685Y34267090D02*
X13197733Y34267090D01*
X13197733Y34267090D02*
X13245352Y34290900D01*
X13245352Y34290900D02*
X13269161Y34314709D01*
X25711933Y35841890D02*
X25878599Y36079985D01*
X25997647Y35841890D02*
X25997647Y36341890D01*
X25997647Y36341890D02*
X25807171Y36341890D01*
X25807171Y36341890D02*
X25759552Y36318080D01*
X25759552Y36318080D02*
X25735742Y36294271D01*
X25735742Y36294271D02*
X25711933Y36246652D01*
X25711933Y36246652D02*
X25711933Y36175223D01*
X25711933Y36175223D02*
X25735742Y36127604D01*
X25735742Y36127604D02*
X25759552Y36103795D01*
X25759552Y36103795D02*
X25807171Y36079985D01*
X25807171Y36079985D02*
X25997647Y36079985D01*
X25235742Y35841890D02*
X25521456Y35841890D01*
X25378599Y35841890D02*
X25378599Y36341890D01*
X25378599Y36341890D02*
X25426218Y36270461D01*
X25426218Y36270461D02*
X25473837Y36222842D01*
X25473837Y36222842D02*
X25521456Y36199033D01*
X19066628Y36067309D02*
X19090437Y36043500D01*
X19090437Y36043500D02*
X19161866Y36019690D01*
X19161866Y36019690D02*
X19209485Y36019690D01*
X19209485Y36019690D02*
X19280913Y36043500D01*
X19280913Y36043500D02*
X19328532Y36091119D01*
X19328532Y36091119D02*
X19352342Y36138738D01*
X19352342Y36138738D02*
X19376151Y36233976D01*
X19376151Y36233976D02*
X19376151Y36305404D01*
X19376151Y36305404D02*
X19352342Y36400642D01*
X19352342Y36400642D02*
X19328532Y36448261D01*
X19328532Y36448261D02*
X19280913Y36495880D01*
X19280913Y36495880D02*
X19209485Y36519690D01*
X19209485Y36519690D02*
X19161866Y36519690D01*
X19161866Y36519690D02*
X19090437Y36495880D01*
X19090437Y36495880D02*
X19066628Y36472071D01*
X18876151Y36472071D02*
X18852342Y36495880D01*
X18852342Y36495880D02*
X18804723Y36519690D01*
X18804723Y36519690D02*
X18685675Y36519690D01*
X18685675Y36519690D02*
X18638056Y36495880D01*
X18638056Y36495880D02*
X18614247Y36472071D01*
X18614247Y36472071D02*
X18590437Y36424452D01*
X18590437Y36424452D02*
X18590437Y36376833D01*
X18590437Y36376833D02*
X18614247Y36305404D01*
X18614247Y36305404D02*
X18899961Y36019690D01*
X18899961Y36019690D02*
X18590437Y36019690D01*
X18399961Y36472071D02*
X18376152Y36495880D01*
X18376152Y36495880D02*
X18328533Y36519690D01*
X18328533Y36519690D02*
X18209485Y36519690D01*
X18209485Y36519690D02*
X18161866Y36495880D01*
X18161866Y36495880D02*
X18138057Y36472071D01*
X18138057Y36472071D02*
X18114247Y36424452D01*
X18114247Y36424452D02*
X18114247Y36376833D01*
X18114247Y36376833D02*
X18138057Y36305404D01*
X18138057Y36305404D02*
X18423771Y36019690D01*
X18423771Y36019690D02*
X18114247Y36019690D01*
X-310971Y27219709D02*
X-287162Y27195900D01*
X-287162Y27195900D02*
X-215733Y27172090D01*
X-215733Y27172090D02*
X-168114Y27172090D01*
X-168114Y27172090D02*
X-96686Y27195900D01*
X-96686Y27195900D02*
X-49067Y27243519D01*
X-49067Y27243519D02*
X-25257Y27291138D01*
X-25257Y27291138D02*
X-1448Y27386376D01*
X-1448Y27386376D02*
X-1448Y27457804D01*
X-1448Y27457804D02*
X-25257Y27553042D01*
X-25257Y27553042D02*
X-49067Y27600661D01*
X-49067Y27600661D02*
X-96686Y27648280D01*
X-96686Y27648280D02*
X-168114Y27672090D01*
X-168114Y27672090D02*
X-215733Y27672090D01*
X-215733Y27672090D02*
X-287162Y27648280D01*
X-287162Y27648280D02*
X-310971Y27624471D01*
X-501448Y27624471D02*
X-525257Y27648280D01*
X-525257Y27648280D02*
X-572876Y27672090D01*
X-572876Y27672090D02*
X-691924Y27672090D01*
X-691924Y27672090D02*
X-739543Y27648280D01*
X-739543Y27648280D02*
X-763352Y27624471D01*
X-763352Y27624471D02*
X-787162Y27576852D01*
X-787162Y27576852D02*
X-787162Y27529233D01*
X-787162Y27529233D02*
X-763352Y27457804D01*
X-763352Y27457804D02*
X-477638Y27172090D01*
X-477638Y27172090D02*
X-787162Y27172090D01*
X-953828Y27672090D02*
X-1287161Y27672090D01*
X-1287161Y27672090D02*
X-1072876Y27172090D01*
X21876533Y35813309D02*
X21900342Y35789500D01*
X21900342Y35789500D02*
X21971771Y35765690D01*
X21971771Y35765690D02*
X22019390Y35765690D01*
X22019390Y35765690D02*
X22090818Y35789500D01*
X22090818Y35789500D02*
X22138437Y35837119D01*
X22138437Y35837119D02*
X22162247Y35884738D01*
X22162247Y35884738D02*
X22186056Y35979976D01*
X22186056Y35979976D02*
X22186056Y36051404D01*
X22186056Y36051404D02*
X22162247Y36146642D01*
X22162247Y36146642D02*
X22138437Y36194261D01*
X22138437Y36194261D02*
X22090818Y36241880D01*
X22090818Y36241880D02*
X22019390Y36265690D01*
X22019390Y36265690D02*
X21971771Y36265690D01*
X21971771Y36265690D02*
X21900342Y36241880D01*
X21900342Y36241880D02*
X21876533Y36218071D01*
X21400342Y35765690D02*
X21686056Y35765690D01*
X21543199Y35765690D02*
X21543199Y36265690D01*
X21543199Y36265690D02*
X21590818Y36194261D01*
X21590818Y36194261D02*
X21638437Y36146642D01*
X21638437Y36146642D02*
X21686056Y36122833D01*
X22518666Y26689890D02*
X22518666Y26332747D01*
X22518666Y26332747D02*
X22542475Y26261319D01*
X22542475Y26261319D02*
X22590094Y26213700D01*
X22590094Y26213700D02*
X22661523Y26189890D01*
X22661523Y26189890D02*
X22709142Y26189890D01*
X22304380Y26642271D02*
X22280571Y26666080D01*
X22280571Y26666080D02*
X22232952Y26689890D01*
X22232952Y26689890D02*
X22113904Y26689890D01*
X22113904Y26689890D02*
X22066285Y26666080D01*
X22066285Y26666080D02*
X22042476Y26642271D01*
X22042476Y26642271D02*
X22018666Y26594652D01*
X22018666Y26594652D02*
X22018666Y26547033D01*
X22018666Y26547033D02*
X22042476Y26475604D01*
X22042476Y26475604D02*
X22328190Y26189890D01*
X22328190Y26189890D02*
X22018666Y26189890D01*
X11091028Y35991109D02*
X11114837Y35967300D01*
X11114837Y35967300D02*
X11186266Y35943490D01*
X11186266Y35943490D02*
X11233885Y35943490D01*
X11233885Y35943490D02*
X11305313Y35967300D01*
X11305313Y35967300D02*
X11352932Y36014919D01*
X11352932Y36014919D02*
X11376742Y36062538D01*
X11376742Y36062538D02*
X11400551Y36157776D01*
X11400551Y36157776D02*
X11400551Y36229204D01*
X11400551Y36229204D02*
X11376742Y36324442D01*
X11376742Y36324442D02*
X11352932Y36372061D01*
X11352932Y36372061D02*
X11305313Y36419680D01*
X11305313Y36419680D02*
X11233885Y36443490D01*
X11233885Y36443490D02*
X11186266Y36443490D01*
X11186266Y36443490D02*
X11114837Y36419680D01*
X11114837Y36419680D02*
X11091028Y36395871D01*
X10614837Y35943490D02*
X10900551Y35943490D01*
X10757694Y35943490D02*
X10757694Y36443490D01*
X10757694Y36443490D02*
X10805313Y36372061D01*
X10805313Y36372061D02*
X10852932Y36324442D01*
X10852932Y36324442D02*
X10900551Y36300633D01*
X10448171Y36443490D02*
X10114838Y36443490D01*
X10114838Y36443490D02*
X10329123Y35943490D01*
X15546428Y28996509D02*
X15570237Y28972700D01*
X15570237Y28972700D02*
X15641666Y28948890D01*
X15641666Y28948890D02*
X15689285Y28948890D01*
X15689285Y28948890D02*
X15760713Y28972700D01*
X15760713Y28972700D02*
X15808332Y29020319D01*
X15808332Y29020319D02*
X15832142Y29067938D01*
X15832142Y29067938D02*
X15855951Y29163176D01*
X15855951Y29163176D02*
X15855951Y29234604D01*
X15855951Y29234604D02*
X15832142Y29329842D01*
X15832142Y29329842D02*
X15808332Y29377461D01*
X15808332Y29377461D02*
X15760713Y29425080D01*
X15760713Y29425080D02*
X15689285Y29448890D01*
X15689285Y29448890D02*
X15641666Y29448890D01*
X15641666Y29448890D02*
X15570237Y29425080D01*
X15570237Y29425080D02*
X15546428Y29401271D01*
X15070237Y28948890D02*
X15355951Y28948890D01*
X15213094Y28948890D02*
X15213094Y29448890D01*
X15213094Y29448890D02*
X15260713Y29377461D01*
X15260713Y29377461D02*
X15308332Y29329842D01*
X15308332Y29329842D02*
X15355951Y29306033D01*
X14641666Y29282223D02*
X14641666Y28948890D01*
X14760714Y29472700D02*
X14879761Y29115557D01*
X14879761Y29115557D02*
X14570238Y29115557D01*
X21454228Y31676290D02*
X21620894Y31914385D01*
X21739942Y31676290D02*
X21739942Y32176290D01*
X21739942Y32176290D02*
X21549466Y32176290D01*
X21549466Y32176290D02*
X21501847Y32152480D01*
X21501847Y32152480D02*
X21478037Y32128671D01*
X21478037Y32128671D02*
X21454228Y32081052D01*
X21454228Y32081052D02*
X21454228Y32009623D01*
X21454228Y32009623D02*
X21478037Y31962004D01*
X21478037Y31962004D02*
X21501847Y31938195D01*
X21501847Y31938195D02*
X21549466Y31914385D01*
X21549466Y31914385D02*
X21739942Y31914385D01*
X21263751Y32128671D02*
X21239942Y32152480D01*
X21239942Y32152480D02*
X21192323Y32176290D01*
X21192323Y32176290D02*
X21073275Y32176290D01*
X21073275Y32176290D02*
X21025656Y32152480D01*
X21025656Y32152480D02*
X21001847Y32128671D01*
X21001847Y32128671D02*
X20978037Y32081052D01*
X20978037Y32081052D02*
X20978037Y32033433D01*
X20978037Y32033433D02*
X21001847Y31962004D01*
X21001847Y31962004D02*
X21287561Y31676290D01*
X21287561Y31676290D02*
X20978037Y31676290D01*
X20811371Y32176290D02*
X20478038Y32176290D01*
X20478038Y32176290D02*
X20692323Y31676290D01*
X2886828Y26872509D02*
X2910637Y26848700D01*
X2910637Y26848700D02*
X2982066Y26824890D01*
X2982066Y26824890D02*
X3029685Y26824890D01*
X3029685Y26824890D02*
X3101113Y26848700D01*
X3101113Y26848700D02*
X3148732Y26896319D01*
X3148732Y26896319D02*
X3172542Y26943938D01*
X3172542Y26943938D02*
X3196351Y27039176D01*
X3196351Y27039176D02*
X3196351Y27110604D01*
X3196351Y27110604D02*
X3172542Y27205842D01*
X3172542Y27205842D02*
X3148732Y27253461D01*
X3148732Y27253461D02*
X3101113Y27301080D01*
X3101113Y27301080D02*
X3029685Y27324890D01*
X3029685Y27324890D02*
X2982066Y27324890D01*
X2982066Y27324890D02*
X2910637Y27301080D01*
X2910637Y27301080D02*
X2886828Y27277271D01*
X2696351Y27277271D02*
X2672542Y27301080D01*
X2672542Y27301080D02*
X2624923Y27324890D01*
X2624923Y27324890D02*
X2505875Y27324890D01*
X2505875Y27324890D02*
X2458256Y27301080D01*
X2458256Y27301080D02*
X2434447Y27277271D01*
X2434447Y27277271D02*
X2410637Y27229652D01*
X2410637Y27229652D02*
X2410637Y27182033D01*
X2410637Y27182033D02*
X2434447Y27110604D01*
X2434447Y27110604D02*
X2720161Y26824890D01*
X2720161Y26824890D02*
X2410637Y26824890D01*
X2172542Y26824890D02*
X2077304Y26824890D01*
X2077304Y26824890D02*
X2029685Y26848700D01*
X2029685Y26848700D02*
X2005876Y26872509D01*
X2005876Y26872509D02*
X1958257Y26943938D01*
X1958257Y26943938D02*
X1934447Y27039176D01*
X1934447Y27039176D02*
X1934447Y27229652D01*
X1934447Y27229652D02*
X1958257Y27277271D01*
X1958257Y27277271D02*
X1982066Y27301080D01*
X1982066Y27301080D02*
X2029685Y27324890D01*
X2029685Y27324890D02*
X2124923Y27324890D01*
X2124923Y27324890D02*
X2172542Y27301080D01*
X2172542Y27301080D02*
X2196352Y27277271D01*
X2196352Y27277271D02*
X2220161Y27229652D01*
X2220161Y27229652D02*
X2220161Y27110604D01*
X2220161Y27110604D02*
X2196352Y27062985D01*
X2196352Y27062985D02*
X2172542Y27039176D01*
X2172542Y27039176D02*
X2124923Y27015366D01*
X2124923Y27015366D02*
X2029685Y27015366D01*
X2029685Y27015366D02*
X1982066Y27039176D01*
X1982066Y27039176D02*
X1958257Y27062985D01*
X1958257Y27062985D02*
X1934447Y27110604D01*
X4461628Y30326909D02*
X4485437Y30303100D01*
X4485437Y30303100D02*
X4556866Y30279290D01*
X4556866Y30279290D02*
X4604485Y30279290D01*
X4604485Y30279290D02*
X4675913Y30303100D01*
X4675913Y30303100D02*
X4723532Y30350719D01*
X4723532Y30350719D02*
X4747342Y30398338D01*
X4747342Y30398338D02*
X4771151Y30493576D01*
X4771151Y30493576D02*
X4771151Y30565004D01*
X4771151Y30565004D02*
X4747342Y30660242D01*
X4747342Y30660242D02*
X4723532Y30707861D01*
X4723532Y30707861D02*
X4675913Y30755480D01*
X4675913Y30755480D02*
X4604485Y30779290D01*
X4604485Y30779290D02*
X4556866Y30779290D01*
X4556866Y30779290D02*
X4485437Y30755480D01*
X4485437Y30755480D02*
X4461628Y30731671D01*
X3985437Y30279290D02*
X4271151Y30279290D01*
X4128294Y30279290D02*
X4128294Y30779290D01*
X4128294Y30779290D02*
X4175913Y30707861D01*
X4175913Y30707861D02*
X4223532Y30660242D01*
X4223532Y30660242D02*
X4271151Y30636433D01*
X3747342Y30279290D02*
X3652104Y30279290D01*
X3652104Y30279290D02*
X3604485Y30303100D01*
X3604485Y30303100D02*
X3580676Y30326909D01*
X3580676Y30326909D02*
X3533057Y30398338D01*
X3533057Y30398338D02*
X3509247Y30493576D01*
X3509247Y30493576D02*
X3509247Y30684052D01*
X3509247Y30684052D02*
X3533057Y30731671D01*
X3533057Y30731671D02*
X3556866Y30755480D01*
X3556866Y30755480D02*
X3604485Y30779290D01*
X3604485Y30779290D02*
X3699723Y30779290D01*
X3699723Y30779290D02*
X3747342Y30755480D01*
X3747342Y30755480D02*
X3771152Y30731671D01*
X3771152Y30731671D02*
X3794961Y30684052D01*
X3794961Y30684052D02*
X3794961Y30565004D01*
X3794961Y30565004D02*
X3771152Y30517385D01*
X3771152Y30517385D02*
X3747342Y30493576D01*
X3747342Y30493576D02*
X3699723Y30469766D01*
X3699723Y30469766D02*
X3604485Y30469766D01*
X3604485Y30469766D02*
X3556866Y30493576D01*
X3556866Y30493576D02*
X3533057Y30517385D01*
X3533057Y30517385D02*
X3509247Y30565004D01*
X3530552Y23286290D02*
X3530552Y22881528D01*
X3530552Y22881528D02*
X3506742Y22833909D01*
X3506742Y22833909D02*
X3482933Y22810100D01*
X3482933Y22810100D02*
X3435314Y22786290D01*
X3435314Y22786290D02*
X3340076Y22786290D01*
X3340076Y22786290D02*
X3292457Y22810100D01*
X3292457Y22810100D02*
X3268647Y22833909D01*
X3268647Y22833909D02*
X3244838Y22881528D01*
X3244838Y22881528D02*
X3244838Y23286290D01*
X2792456Y23119623D02*
X2792456Y22786290D01*
X2911504Y23310100D02*
X3030551Y22952957D01*
X3030551Y22952957D02*
X2721028Y22952957D01*
X7992228Y36524509D02*
X8016037Y36500700D01*
X8016037Y36500700D02*
X8087466Y36476890D01*
X8087466Y36476890D02*
X8135085Y36476890D01*
X8135085Y36476890D02*
X8206513Y36500700D01*
X8206513Y36500700D02*
X8254132Y36548319D01*
X8254132Y36548319D02*
X8277942Y36595938D01*
X8277942Y36595938D02*
X8301751Y36691176D01*
X8301751Y36691176D02*
X8301751Y36762604D01*
X8301751Y36762604D02*
X8277942Y36857842D01*
X8277942Y36857842D02*
X8254132Y36905461D01*
X8254132Y36905461D02*
X8206513Y36953080D01*
X8206513Y36953080D02*
X8135085Y36976890D01*
X8135085Y36976890D02*
X8087466Y36976890D01*
X8087466Y36976890D02*
X8016037Y36953080D01*
X8016037Y36953080D02*
X7992228Y36929271D01*
X7801751Y36929271D02*
X7777942Y36953080D01*
X7777942Y36953080D02*
X7730323Y36976890D01*
X7730323Y36976890D02*
X7611275Y36976890D01*
X7611275Y36976890D02*
X7563656Y36953080D01*
X7563656Y36953080D02*
X7539847Y36929271D01*
X7539847Y36929271D02*
X7516037Y36881652D01*
X7516037Y36881652D02*
X7516037Y36834033D01*
X7516037Y36834033D02*
X7539847Y36762604D01*
X7539847Y36762604D02*
X7825561Y36476890D01*
X7825561Y36476890D02*
X7516037Y36476890D01*
X7087466Y36810223D02*
X7087466Y36476890D01*
X7206514Y37000700D02*
X7325561Y36643557D01*
X7325561Y36643557D02*
X7016038Y36643557D01*
X15790028Y35483109D02*
X15813837Y35459300D01*
X15813837Y35459300D02*
X15885266Y35435490D01*
X15885266Y35435490D02*
X15932885Y35435490D01*
X15932885Y35435490D02*
X16004313Y35459300D01*
X16004313Y35459300D02*
X16051932Y35506919D01*
X16051932Y35506919D02*
X16075742Y35554538D01*
X16075742Y35554538D02*
X16099551Y35649776D01*
X16099551Y35649776D02*
X16099551Y35721204D01*
X16099551Y35721204D02*
X16075742Y35816442D01*
X16075742Y35816442D02*
X16051932Y35864061D01*
X16051932Y35864061D02*
X16004313Y35911680D01*
X16004313Y35911680D02*
X15932885Y35935490D01*
X15932885Y35935490D02*
X15885266Y35935490D01*
X15885266Y35935490D02*
X15813837Y35911680D01*
X15813837Y35911680D02*
X15790028Y35887871D01*
X15599551Y35887871D02*
X15575742Y35911680D01*
X15575742Y35911680D02*
X15528123Y35935490D01*
X15528123Y35935490D02*
X15409075Y35935490D01*
X15409075Y35935490D02*
X15361456Y35911680D01*
X15361456Y35911680D02*
X15337647Y35887871D01*
X15337647Y35887871D02*
X15313837Y35840252D01*
X15313837Y35840252D02*
X15313837Y35792633D01*
X15313837Y35792633D02*
X15337647Y35721204D01*
X15337647Y35721204D02*
X15623361Y35435490D01*
X15623361Y35435490D02*
X15313837Y35435490D01*
X14837647Y35435490D02*
X15123361Y35435490D01*
X14980504Y35435490D02*
X14980504Y35935490D01*
X14980504Y35935490D02*
X15028123Y35864061D01*
X15028123Y35864061D02*
X15075742Y35816442D01*
X15075742Y35816442D02*
X15123361Y35792633D01*
D11*
%TO.C,C20*%
X5211252Y33285000D02*
X3788748Y33285000D01*
X5211252Y31465000D02*
X3788748Y31465000D01*
D12*
%TO.C,Y2*%
X7937500Y33425000D02*
X7937500Y30225000D01*
X7937500Y33425000D02*
X8213500Y33425000D01*
X7937500Y30225000D02*
X8213500Y30225000D01*
X12661500Y33425000D02*
X12937500Y33425000D01*
X12661500Y30225000D02*
X12937500Y30225000D01*
X12937500Y30225000D02*
X12937500Y33425000D01*
D13*
X13537500Y30625000D02*
G75*
G02*
X13337500Y30625000I-100000J0D01*
G01*
X13337500Y30625000D02*
G75*
G02*
X13537500Y30625000I100000J0D01*
G01*
D11*
%TO.C,J15*%
X-8080200Y35422980D02*
X-8080200Y17582980D01*
X-5420200Y38022980D02*
X-6750200Y38022980D01*
X-5420200Y36692980D02*
X-5420200Y38022980D01*
X-5420200Y35422980D02*
X-8080200Y35422980D01*
X-5420200Y35422980D02*
X-5420200Y17582980D01*
X-5420200Y17582980D02*
X-8080200Y17582980D01*
%TO.C,C28*%
X-400164Y37748800D02*
X-615836Y37748800D01*
X-400164Y37028800D02*
X-615836Y37028800D01*
%TO.C,C30*%
X3158436Y35996200D02*
X2942764Y35996200D01*
X3158436Y35276200D02*
X2942764Y35276200D01*
%TO.C,C23*%
X4288200Y35426764D02*
X4288200Y35642436D01*
X5008200Y35426764D02*
X5008200Y35642436D01*
%TO.C,C15*%
X12010564Y35666000D02*
X12226236Y35666000D01*
X12010564Y34946000D02*
X12226236Y34946000D01*
%TO.C,R1*%
X24357359Y35508200D02*
X24664641Y35508200D01*
X24357359Y34748200D02*
X24664641Y34748200D01*
%TO.C,C22*%
X16946200Y34239252D02*
X16946200Y32816748D01*
X18766200Y34239252D02*
X18766200Y32816748D01*
%TO.C,C27*%
X-524564Y26598200D02*
X-740236Y26598200D01*
X-524564Y25878200D02*
X-740236Y25878200D01*
%TO.C,C1*%
X22231236Y35462800D02*
X22015564Y35462800D01*
X22231236Y34742800D02*
X22015564Y34742800D01*
%TO.C,C17*%
X10181000Y34931236D02*
X10181000Y34715564D01*
X10901000Y34931236D02*
X10901000Y34715564D01*
%TO.C,C14*%
X13415000Y29607836D02*
X13415000Y29392164D01*
X14135000Y29607836D02*
X14135000Y29392164D01*
%TO.C,R27*%
X19432000Y32183041D02*
X19432000Y31875759D01*
X20192000Y32183041D02*
X20192000Y31875759D01*
%TO.C,C29*%
X2078400Y25787236D02*
X2078400Y25571564D01*
X2798400Y25787236D02*
X2798400Y25571564D01*
%TO.C,C19*%
X5949836Y31043200D02*
X5734164Y31043200D01*
X5949836Y30323200D02*
X5734164Y30323200D01*
%TO.C,U4*%
X-660000Y22390000D02*
X-2610000Y22390000D01*
X-660000Y22390000D02*
X1290000Y22390000D01*
X-660000Y17270000D02*
X-4110000Y17270000D01*
X-660000Y17270000D02*
X1290000Y17270000D01*
%TO.C,C24*%
X6959548Y35936600D02*
X8382052Y35936600D01*
X6959548Y34116600D02*
X8382052Y34116600D01*
%TO.C,C21*%
X15754236Y35183400D02*
X15538564Y35183400D01*
X15754236Y34463400D02*
X15538564Y34463400D01*
%TD*%
M02*
