%TF.GenerationSoftware,KiCad,Pcbnew,8.0.5*%
%TF.CreationDate,2024-11-08T07:47:22+00:00*%
%TF.ProjectId,ADE_Aux_V4,4144455f-4175-4785-9f56-342e6b696361,rev?*%
%TF.SameCoordinates,Original*%
%TF.FileFunction,Copper,L1,Top*%
%TF.FilePolarity,Positive*%
%FSLAX46Y46*%
G04 Gerber Fmt 4.6, Leading zero omitted, Abs format (unit mm)*
G04 Created by KiCad (PCBNEW 8.0.5) date 2024-11-08 07:47:22*
%MOMM*%
%LPD*%
G01*
G04 APERTURE LIST*
G04 Aperture macros list*
%AMRoundRect*
0 Rectangle with rounded corners*
0 $1 Rounding radius*
0 $2 $3 $4 $5 $6 $7 $8 $9 X,Y pos of 4 corners*
0 Add a 4 corners polygon primitive as box body*
4,1,4,$2,$3,$4,$5,$6,$7,$8,$9,$2,$3,0*
0 Add four circle primitives for the rounded corners*
1,1,$1+$1,$2,$3*
1,1,$1+$1,$4,$5*
1,1,$1+$1,$6,$7*
1,1,$1+$1,$8,$9*
0 Add four rect primitives between the rounded corners*
20,1,$1+$1,$2,$3,$4,$5,0*
20,1,$1+$1,$4,$5,$6,$7,0*
20,1,$1+$1,$6,$7,$8,$9,0*
20,1,$1+$1,$8,$9,$2,$3,0*%
G04 Aperture macros list end*
%TA.AperFunction,SMDPad,CuDef*%
%ADD10C,0.500000*%
%TD*%
%TA.AperFunction,SMDPad,CuDef*%
%ADD11RoundRect,0.135000X-0.135000X-0.185000X0.135000X-0.185000X0.135000X0.185000X-0.135000X0.185000X0*%
%TD*%
%TA.AperFunction,SMDPad,CuDef*%
%ADD12RoundRect,0.140000X0.170000X-0.140000X0.170000X0.140000X-0.170000X0.140000X-0.170000X-0.140000X0*%
%TD*%
%TA.AperFunction,SMDPad,CuDef*%
%ADD13RoundRect,0.135000X0.135000X0.185000X-0.135000X0.185000X-0.135000X-0.185000X0.135000X-0.185000X0*%
%TD*%
%TA.AperFunction,SMDPad,CuDef*%
%ADD14RoundRect,0.140000X0.140000X0.170000X-0.140000X0.170000X-0.140000X-0.170000X0.140000X-0.170000X0*%
%TD*%
%TA.AperFunction,SMDPad,CuDef*%
%ADD15RoundRect,0.140000X-0.140000X-0.170000X0.140000X-0.170000X0.140000X0.170000X-0.140000X0.170000X0*%
%TD*%
%TA.AperFunction,SMDPad,CuDef*%
%ADD16C,1.000000*%
%TD*%
%TA.AperFunction,SMDPad,CuDef*%
%ADD17RoundRect,0.250000X0.650000X-0.325000X0.650000X0.325000X-0.650000X0.325000X-0.650000X-0.325000X0*%
%TD*%
%TA.AperFunction,SMDPad,CuDef*%
%ADD18RoundRect,0.135000X0.185000X-0.135000X0.185000X0.135000X-0.185000X0.135000X-0.185000X-0.135000X0*%
%TD*%
%TA.AperFunction,SMDPad,CuDef*%
%ADD19RoundRect,0.135000X-0.185000X0.135000X-0.185000X-0.135000X0.185000X-0.135000X0.185000X0.135000X0*%
%TD*%
%TA.AperFunction,SMDPad,CuDef*%
%ADD20RoundRect,0.250000X-0.650000X0.325000X-0.650000X-0.325000X0.650000X-0.325000X0.650000X0.325000X0*%
%TD*%
%TA.AperFunction,SMDPad,CuDef*%
%ADD21R,0.250000X0.500000*%
%TD*%
%TA.AperFunction,ComponentPad*%
%ADD22C,0.600000*%
%TD*%
%TA.AperFunction,SMDPad,CuDef*%
%ADD23R,1.600000X0.900000*%
%TD*%
%TA.AperFunction,SMDPad,CuDef*%
%ADD24R,0.304800X0.812800*%
%TD*%
%TA.AperFunction,SMDPad,CuDef*%
%ADD25R,0.812800X0.304800*%
%TD*%
%TA.AperFunction,SMDPad,CuDef*%
%ADD26R,4.241800X4.241800*%
%TD*%
%TA.AperFunction,SMDPad,CuDef*%
%ADD27RoundRect,0.250000X0.325000X0.650000X-0.325000X0.650000X-0.325000X-0.650000X0.325000X-0.650000X0*%
%TD*%
%TA.AperFunction,SMDPad,CuDef*%
%ADD28R,0.600000X1.200000*%
%TD*%
%TA.AperFunction,ComponentPad*%
%ADD29R,1.700000X1.700000*%
%TD*%
%TA.AperFunction,ComponentPad*%
%ADD30O,1.700000X1.700000*%
%TD*%
%TA.AperFunction,ConnectorPad*%
%ADD31R,0.700000X4.300000*%
%TD*%
%TA.AperFunction,ViaPad*%
%ADD32C,0.800000*%
%TD*%
%TA.AperFunction,Conductor*%
%ADD33C,0.250000*%
%TD*%
%TA.AperFunction,Conductor*%
%ADD34C,0.200000*%
%TD*%
G04 APERTURE END LIST*
D10*
%TO.P,TP1,1,1*%
%TO.N,unconnected-(TP1-Pad1)*%
X-16789400Y27406600D03*
%TD*%
D11*
%TO.P,R25,1*%
%TO.N,/ITP*%
X-1510000Y27390000D03*
%TO.P,R25,2*%
%TO.N,Net-(U1B--)*%
X-490000Y27390000D03*
%TD*%
D12*
%TO.P,C2,1*%
%TO.N,+3V3*%
X-3937000Y25224800D03*
%TO.P,C2,2*%
%TO.N,GND*%
X-3937000Y26184800D03*
%TD*%
D13*
%TO.P,R18,1*%
%TO.N,Net-(U1B--)*%
X-3390000Y27880000D03*
%TO.P,R18,2*%
%TO.N,/RT*%
X-4410000Y27880000D03*
%TD*%
D11*
%TO.P,R5,1*%
%TO.N,Net-(C4-Pad1)*%
X-9600000Y19200000D03*
%TO.P,R5,2*%
%TO.N,/RNM*%
X-8580000Y19200000D03*
%TD*%
D14*
%TO.P,C11,1*%
%TO.N,/RR*%
X-10780000Y37080000D03*
%TO.P,C11,2*%
%TO.N,GND*%
X-11740000Y37080000D03*
%TD*%
D15*
%TO.P,C13,1*%
%TO.N,/ITP*%
X-1500000Y28710000D03*
%TO.P,C13,2*%
%TO.N,Net-(U1B--)*%
X-540000Y28710000D03*
%TD*%
D14*
%TO.P,C3,1*%
%TO.N,/RN*%
X-10780000Y21410000D03*
%TO.P,C3,2*%
%TO.N,GND*%
X-11740000Y21410000D03*
%TD*%
D16*
%TO.P,FID1,*%
%TO.N,*%
X25908000Y27762200D03*
%TD*%
D13*
%TO.P,R9,1*%
%TO.N,Net-(U3A--)*%
X-3440000Y33440000D03*
%TO.P,R9,2*%
%TO.N,/RS*%
X-4460000Y33440000D03*
%TD*%
D17*
%TO.P,C26,1*%
%TO.N,GND*%
X2410000Y18075000D03*
%TO.P,C26,2*%
%TO.N,/UM*%
X2410000Y21025000D03*
%TD*%
D18*
%TO.P,R20,1*%
%TO.N,Net-(U3B-+)*%
X1250000Y37730000D03*
%TO.P,R20,2*%
%TO.N,GND*%
X1250000Y38750000D03*
%TD*%
D14*
%TO.P,C7,1*%
%TO.N,/RT*%
X-10770000Y26480000D03*
%TO.P,C7,2*%
%TO.N,GND*%
X-11730000Y26480000D03*
%TD*%
D13*
%TO.P,R6,1*%
%TO.N,Net-(U1A--)*%
X-3430000Y21180000D03*
%TO.P,R6,2*%
%TO.N,/RN*%
X-4450000Y21180000D03*
%TD*%
D19*
%TO.P,R8,1*%
%TO.N,Net-(U3A-+)*%
X1280000Y34240000D03*
%TO.P,R8,2*%
%TO.N,GND*%
X1280000Y33220000D03*
%TD*%
D14*
%TO.P,C4,1*%
%TO.N,Net-(C4-Pad1)*%
X-10780000Y18150000D03*
%TO.P,C4,2*%
%TO.N,GND*%
X-11740000Y18150000D03*
%TD*%
D16*
%TO.P,FID4,*%
%TO.N,*%
X-17119600Y40767000D03*
%TD*%
D11*
%TO.P,R26,1*%
%TO.N,/IRP*%
X-1510000Y38280000D03*
%TO.P,R26,2*%
%TO.N,Net-(U3B--)*%
X-490000Y38280000D03*
%TD*%
D14*
%TO.P,C16,1*%
%TO.N,/IRP*%
X-2440000Y38310000D03*
%TO.P,C16,2*%
%TO.N,Net-(U3B--)*%
X-3400000Y38310000D03*
%TD*%
D11*
%TO.P,R4,1*%
%TO.N,/RN*%
X-9600000Y21400000D03*
%TO.P,R4,2*%
%TO.N,/RNP*%
X-8580000Y21400000D03*
%TD*%
D14*
%TO.P,C12,1*%
%TO.N,Net-(C12-Pad1)*%
X-10780000Y34170000D03*
%TO.P,C12,2*%
%TO.N,GND*%
X-11740000Y34170000D03*
%TD*%
D11*
%TO.P,R11,1*%
%TO.N,Net-(C8-Pad1)*%
X-9600000Y23980000D03*
%TO.P,R11,2*%
%TO.N,/RTM*%
X-8580000Y23980000D03*
%TD*%
%TO.P,R24,1*%
%TO.N,/ISP*%
X-1510000Y33820000D03*
%TO.P,R24,2*%
%TO.N,Net-(U3A--)*%
X-490000Y33820000D03*
%TD*%
%TO.P,R14,1*%
%TO.N,/RR*%
X-9600000Y37070000D03*
%TO.P,R14,2*%
%TO.N,/RRP*%
X-8580000Y37070000D03*
%TD*%
%TO.P,R23,1*%
%TO.N,/INP*%
X-1510000Y21090000D03*
%TO.P,R23,2*%
%TO.N,Net-(U1A--)*%
X-490000Y21090000D03*
%TD*%
D20*
%TO.P,C18,1*%
%TO.N,+3V3*%
X17703800Y34495000D03*
%TO.P,C18,2*%
%TO.N,GND*%
X17703800Y31545000D03*
%TD*%
D11*
%TO.P,R10,1*%
%TO.N,/RT*%
X-9600000Y26500000D03*
%TO.P,R10,2*%
%TO.N,/RTP*%
X-8580000Y26500000D03*
%TD*%
%TO.P,R15,1*%
%TO.N,Net-(C12-Pad1)*%
X-9600000Y34160000D03*
%TO.P,R15,2*%
%TO.N,/RRM*%
X-8580000Y34160000D03*
%TD*%
D13*
%TO.P,R21,1*%
%TO.N,Net-(C12-Pad1)*%
X-10730000Y33160000D03*
%TO.P,R21,2*%
%TO.N,GND*%
X-11750000Y33160000D03*
%TD*%
D15*
%TO.P,C6,1*%
%TO.N,/ISP*%
X-1500000Y32750000D03*
%TO.P,C6,2*%
%TO.N,Net-(U3A--)*%
X-540000Y32750000D03*
%TD*%
D13*
%TO.P,R17,1*%
%TO.N,Net-(C8-Pad1)*%
X-10720000Y22960000D03*
%TO.P,R17,2*%
%TO.N,GND*%
X-11740000Y22960000D03*
%TD*%
%TO.P,R7,1*%
%TO.N,Net-(C4-Pad1)*%
X-10730000Y19200000D03*
%TO.P,R7,2*%
%TO.N,GND*%
X-11750000Y19200000D03*
%TD*%
D21*
%TO.P,U3,1*%
%TO.N,/ISP*%
X-1430000Y35150000D03*
%TO.P,U3,2,-*%
%TO.N,Net-(U3A--)*%
X-930000Y35150000D03*
%TO.P,U3,3,+*%
%TO.N,Net-(U3A-+)*%
X-430000Y35150000D03*
%TO.P,U3,4,V-*%
%TO.N,/UM*%
X70000Y35150000D03*
%TO.P,U3,5,+*%
%TO.N,Net-(U3B-+)*%
X70000Y37050000D03*
%TO.P,U3,6,-*%
%TO.N,Net-(U3B--)*%
X-430000Y37050000D03*
%TO.P,U3,7*%
%TO.N,/IRP*%
X-930000Y37050000D03*
%TO.P,U3,8,V+*%
%TO.N,+3V3*%
X-1430000Y37050000D03*
D22*
%TO.P,U3,9,PAD*%
%TO.N,/UM*%
X-1180000Y36100000D03*
D23*
X-680000Y36100000D03*
D22*
X-180000Y36100000D03*
%TD*%
D14*
%TO.P,C9,1*%
%TO.N,/RS*%
X-10780000Y31700000D03*
%TO.P,C9,2*%
%TO.N,GND*%
X-11740000Y31700000D03*
%TD*%
%TO.P,C10,1*%
%TO.N,Net-(C10-Pad1)*%
X-10780000Y28940000D03*
%TO.P,C10,2*%
%TO.N,GND*%
X-11740000Y28940000D03*
%TD*%
D11*
%TO.P,R16,1*%
%TO.N,Net-(U1B-+)*%
X570000Y27050000D03*
%TO.P,R16,2*%
%TO.N,GND*%
X1590000Y27050000D03*
%TD*%
D24*
%TO.P,U2,1,PullHigh*%
%TO.N,+3V3*%
X10287000Y37160200D03*
%TO.P,U2,2,DGND*%
%TO.N,GND*%
X9779000Y37160200D03*
%TO.P,U2,3,DVDDOUT*%
%TO.N,/DVDDOUT*%
X9271000Y37160200D03*
%TO.P,U2,4,PM0*%
%TO.N,GND*%
X8788400Y37160200D03*
%TO.P,U2,5,PM1*%
%TO.N,/PM1*%
X8280400Y37160200D03*
%TO.P,U2,6,RESET*%
%TO.N,/ADE_Reset*%
X7772400Y37160200D03*
%TO.P,U2,7,IAP*%
%TO.N,/IRP*%
X7264400Y37160200D03*
%TO.P,U2,8,IAN*%
%TO.N,GND*%
X6781800Y37160200D03*
%TO.P,U2,9,IBP*%
%TO.N,/ISP*%
X6273800Y37160200D03*
%TO.P,U2,10,IBN*%
%TO.N,GND*%
X5765800Y37160200D03*
D25*
%TO.P,U2,11,ICP*%
%TO.N,/ITP*%
X5130800Y36525200D03*
%TO.P,U2,12,ICN*%
%TO.N,GND*%
X5130800Y36017200D03*
%TO.P,U2,13,INP*%
%TO.N,/INP*%
X5130800Y35509200D03*
%TO.P,U2,14,INN*%
%TO.N,GND*%
X5130800Y35026600D03*
%TO.P,U2,15,REFGND*%
X5130800Y34518600D03*
%TO.P,U2,16,REF*%
%TO.N,/REF*%
X5130800Y34010600D03*
%TO.P,U2,17,NC1*%
%TO.N,GND*%
X5130800Y33502600D03*
%TO.P,U2,18,NC2*%
X5130800Y33020000D03*
%TO.P,U2,19,VAN*%
%TO.N,/UR+*%
X5130800Y32512000D03*
%TO.P,U2,20,VAP*%
%TO.N,/UR-*%
X5130800Y32004000D03*
D24*
%TO.P,U2,21,VBN*%
%TO.N,/US+*%
X5765800Y31369000D03*
%TO.P,U2,22,VBP*%
%TO.N,/US-*%
X6273800Y31369000D03*
%TO.P,U2,23,VCN*%
%TO.N,/UT+*%
X6781800Y31369000D03*
%TO.P,U2,24,VCP*%
%TO.N,/UT-*%
X7264400Y31369000D03*
%TO.P,U2,25,AVDDOUT*%
%TO.N,/AVDDOUT*%
X7772400Y31369000D03*
%TO.P,U2,26,AGND*%
%TO.N,GND*%
X8280400Y31369000D03*
%TO.P,U2,27,VDD*%
%TO.N,+3V3*%
X8788400Y31369000D03*
%TO.P,U2,28,GND*%
%TO.N,GND*%
X9271000Y31369000D03*
%TO.P,U2,29,CLKIN*%
%TO.N,/O_IN*%
X9779000Y31369000D03*
%TO.P,U2,30,CLKOUT*%
%TO.N,/O_OUT*%
X10287000Y31369000D03*
D25*
%TO.P,U2,31,IRQ0*%
%TO.N,/IRQ1*%
X10922000Y32004000D03*
%TO.P,U2,32,IRQ1*%
%TO.N,/IRQ2*%
X10922000Y32512000D03*
%TO.P,U2,33,CF1*%
%TO.N,unconnected-(U2-CF1-Pad33)*%
X10922000Y33020000D03*
%TO.P,U2,34,CF2*%
%TO.N,unconnected-(U2-CF2-Pad34)*%
X10922000Y33502600D03*
%TO.P,U2,35,CF3/ZX*%
%TO.N,unconnected-(U2-CF3{slash}ZX-Pad35)*%
X10922000Y34010600D03*
%TO.P,U2,36,CF4/READY*%
%TO.N,/READY*%
X10922000Y34518600D03*
%TO.P,U2,37,SCLK*%
%TO.N,/SCLK*%
X10922000Y35026600D03*
%TO.P,U2,38,MISO*%
%TO.N,/MISO*%
X10922000Y35509200D03*
%TO.P,U2,39,MOSI*%
%TO.N,/MOSI*%
X10922000Y36017200D03*
%TO.P,U2,40,SS*%
%TO.N,/SS*%
X10922000Y36525200D03*
D26*
%TO.P,U2,41,EP*%
%TO.N,GND*%
X8026400Y34264600D03*
%TD*%
D15*
%TO.P,C5,1*%
%TO.N,/INP*%
X-1500000Y22200000D03*
%TO.P,C5,2*%
%TO.N,Net-(U1A--)*%
X-540000Y22200000D03*
%TD*%
D13*
%TO.P,R22,1*%
%TO.N,Net-(U3B--)*%
X-3440000Y36620000D03*
%TO.P,R22,2*%
%TO.N,/RR*%
X-4460000Y36620000D03*
%TD*%
D11*
%TO.P,R12,1*%
%TO.N,/RS*%
X-9600000Y31690000D03*
%TO.P,R12,2*%
%TO.N,/RSP*%
X-8580000Y31690000D03*
%TD*%
D21*
%TO.P,U1,1*%
%TO.N,/INP*%
X-1430000Y23860000D03*
%TO.P,U1,2,-*%
%TO.N,Net-(U1A--)*%
X-930000Y23860000D03*
%TO.P,U1,3,+*%
%TO.N,Net-(U1A-+)*%
X-430000Y23860000D03*
%TO.P,U1,4,V-*%
%TO.N,/UM*%
X70000Y23860000D03*
%TO.P,U1,5,+*%
%TO.N,Net-(U1B-+)*%
X70000Y25760000D03*
%TO.P,U1,6,-*%
%TO.N,Net-(U1B--)*%
X-430000Y25760000D03*
%TO.P,U1,7*%
%TO.N,/ITP*%
X-930000Y25760000D03*
%TO.P,U1,8,V+*%
%TO.N,+3V3*%
X-1430000Y25760000D03*
D22*
%TO.P,U1,9,PAD*%
%TO.N,/UM*%
X-1180000Y24810000D03*
D23*
X-680000Y24810000D03*
D22*
X-180000Y24810000D03*
%TD*%
D19*
%TO.P,R3,1*%
%TO.N,Net-(U1A-+)*%
X650000Y22680000D03*
%TO.P,R3,2*%
%TO.N,GND*%
X650000Y21660000D03*
%TD*%
D13*
%TO.P,R19,1*%
%TO.N,Net-(C10-Pad1)*%
X-10730000Y27900000D03*
%TO.P,R19,2*%
%TO.N,GND*%
X-11750000Y27900000D03*
%TD*%
%TO.P,R2,1*%
%TO.N,GND*%
X8993600Y38963600D03*
%TO.P,R2,2*%
%TO.N,/PM1*%
X7973600Y38963600D03*
%TD*%
D14*
%TO.P,C31,1*%
%TO.N,GND*%
X25448200Y29540200D03*
%TO.P,C31,2*%
%TO.N,+3V3*%
X24488200Y29540200D03*
%TD*%
D11*
%TO.P,R13,1*%
%TO.N,Net-(C10-Pad1)*%
X-9600000Y28930000D03*
%TO.P,R13,2*%
%TO.N,/RSM*%
X-8580000Y28930000D03*
%TD*%
D27*
%TO.P,C25,1*%
%TO.N,/C+*%
X-1105000Y18670000D03*
%TO.P,C25,2*%
%TO.N,/C-*%
X-4055000Y18670000D03*
%TD*%
D28*
%TO.P,U99,1,OE*%
%TO.N,/SYN*%
X23050000Y33240000D03*
%TO.P,U99,2,A*%
%TO.N,/MISO*%
X22100000Y33240000D03*
%TO.P,U99,3,GND*%
%TO.N,GND*%
X21150000Y33240000D03*
%TO.P,U99,4,Y*%
%TO.N,/MOSI*%
X21150000Y30740000D03*
%TO.P,U99,5,VCC*%
%TO.N,+3V3*%
X23050000Y30740000D03*
%TD*%
D14*
%TO.P,C8,1*%
%TO.N,Net-(C8-Pad1)*%
X-10730000Y24000000D03*
%TO.P,C8,2*%
%TO.N,GND*%
X-11690000Y24000000D03*
%TD*%
D29*
%TO.P,J15,1,Pin_1*%
%TO.N,/RRP*%
X-6750200Y36692980D03*
D30*
%TO.P,J15,2,Pin_2*%
%TO.N,/RRM*%
X-6750200Y34152980D03*
%TO.P,J15,3,Pin_3*%
%TO.N,/RSP*%
X-6750200Y31612980D03*
%TO.P,J15,4,Pin_4*%
%TO.N,/RSM*%
X-6750200Y29072980D03*
%TO.P,J15,5,Pin_5*%
%TO.N,/RTP*%
X-6750200Y26532980D03*
%TO.P,J15,6,Pin_6*%
%TO.N,/RTM*%
X-6750200Y23992980D03*
%TO.P,J15,7,Pin_7*%
%TO.N,/RNP*%
X-6750200Y21452980D03*
%TO.P,J15,8,Pin_8*%
%TO.N,/RNM*%
X-6750200Y18912980D03*
%TD*%
D31*
%TO.P,J2,A1*%
%TO.N,+3V3*%
X27000000Y23000000D03*
%TO.P,J2,A2*%
X26000000Y23000000D03*
%TO.P,J2,A3*%
%TO.N,/SYN*%
X25000000Y23000000D03*
%TO.P,J2,A4*%
X24000000Y23000000D03*
%TO.P,J2,A5*%
%TO.N,/SCLK*%
X23000000Y23000000D03*
%TO.P,J2,A6*%
X22000000Y23000000D03*
%TO.P,J2,A7*%
%TO.N,/MOSI*%
X21000000Y23000000D03*
%TO.P,J2,A8*%
X20000000Y23000000D03*
%TO.P,J2,A9*%
%TO.N,/SS*%
X19000000Y23000000D03*
%TO.P,J2,A10*%
X18000000Y23000000D03*
%TO.P,J2,A11*%
%TO.N,GND*%
X17000000Y23000000D03*
%TO.P,J2,A12*%
X14000000Y23000000D03*
%TO.P,J2,A13*%
%TO.N,/UR-*%
X13000000Y23000000D03*
%TO.P,J2,A14*%
%TO.N,/UR+*%
X12000000Y23000000D03*
%TO.P,J2,A15*%
%TO.N,/US-*%
X11000000Y23000000D03*
%TO.P,J2,A16*%
%TO.N,/US+*%
X10000000Y23000000D03*
%TO.P,J2,A17*%
%TO.N,/UT-*%
X9000000Y23000000D03*
%TO.P,J2,A18*%
%TO.N,/UT+*%
X8000000Y23000000D03*
%TD*%
D32*
%TO.N,GND*%
X-11020000Y41360000D03*
X26593800Y39192200D03*
X-18640000Y36280000D03*
X-16100000Y33740000D03*
X16459200Y28346400D03*
X-5940000Y38820000D03*
X4430000Y37400000D03*
X-3400000Y31200000D03*
X-14440000Y37200000D03*
X-14100000Y23060000D03*
X-18640000Y28660000D03*
X24540000Y33740000D03*
X-18640000Y26120000D03*
X26339800Y31191200D03*
X4428453Y33111500D03*
X17170400Y25933400D03*
X-16100000Y36280000D03*
X-13450000Y18140000D03*
X-16100000Y23580000D03*
X24540000Y38820000D03*
X390000Y17940000D03*
X9457677Y29825500D03*
X13716000Y27940000D03*
X-16100000Y38820000D03*
X5540000Y38930000D03*
X-13560000Y41360000D03*
X-18640000Y31200000D03*
X22000000Y28660000D03*
X24540000Y36280000D03*
X-16100000Y31200000D03*
X-18640000Y21040000D03*
X-2870200Y39344600D03*
X12598400Y31826200D03*
X-16100000Y26120000D03*
X13868400Y25857200D03*
X24540000Y31200000D03*
X11836400Y28092400D03*
X-18640000Y33740000D03*
X12954000Y28930600D03*
X1001000Y26060000D03*
X3429000Y37338000D03*
X670000Y28320000D03*
X-16100000Y21040000D03*
X19460000Y33740000D03*
X11836400Y34137600D03*
X-5230000Y25880000D03*
X660000Y31690000D03*
X-18640000Y38820000D03*
X-16100000Y28660000D03*
X-860000Y31200000D03*
X1850000Y39045500D03*
X-18640000Y23580000D03*
X26517600Y33604200D03*
X-14520000Y29090000D03*
%TO.N,+3V3*%
X19507200Y34950400D03*
X11861800Y29667200D03*
X11050000Y37425000D03*
X10575000Y28775000D03*
X-2190000Y25740000D03*
X26924000Y26187400D03*
X25806400Y26111200D03*
X-5420000Y17550000D03*
X-1975500Y37553372D03*
X25831800Y35128200D03*
X23444200Y29514800D03*
%TO.N,/AVDDOUT*%
X7863900Y30124400D03*
%TO.N,/DVDDOUT*%
X9753600Y38150800D03*
%TO.N,/REF*%
X4013200Y33985200D03*
%TO.N,/ISP*%
X1040000Y35730000D03*
X-2150000Y34820000D03*
%TO.N,/INP*%
X2550000Y23540000D03*
X-2510000Y23480000D03*
%TO.N,/UR+*%
X11970000Y26540000D03*
X3524020Y28620000D03*
%TO.N,/US+*%
X10000000Y25800000D03*
X9143911Y27833911D03*
X5100000Y29720000D03*
%TO.N,/UT+*%
X8050000Y25740000D03*
%TO.N,/ADE_Reset*%
X21869400Y38455600D03*
X24841200Y25958800D03*
%TO.N,/O_IN*%
X10375000Y29850000D03*
%TO.N,Net-(U1A--)*%
X-3410000Y23230000D03*
X230000Y20824500D03*
%TO.N,Net-(U3A--)*%
X260000Y33020000D03*
X-2650000Y33470000D03*
%TO.N,Net-(U1B--)*%
X-700000Y29710000D03*
X-3390000Y29150000D03*
%TO.N,/SCLK*%
X20570000Y27480000D03*
%TO.N,/MOSI*%
X14230000Y35660000D03*
X18630000Y26960000D03*
X19650000Y30410000D03*
%TO.N,/SS*%
X12420000Y36650000D03*
X13868400Y31292800D03*
%TO.N,/RN*%
X-5934500Y22738843D03*
X-4520000Y22670000D03*
%TO.N,Net-(U3B--)*%
X309163Y38610563D03*
X-2600000Y36690000D03*
%TO.N,/UM*%
X1610000Y23910000D03*
X1625500Y35047145D03*
X2277484Y22357547D03*
%TO.N,/C+*%
X-70000Y18890000D03*
%TO.N,/UR-*%
X4230000Y29490000D03*
X13040000Y26640000D03*
%TO.N,/US-*%
X11000000Y25870000D03*
X6182300Y29546200D03*
X8393411Y29123411D03*
%TO.N,/UT-*%
X9020000Y25950000D03*
%TO.N,/C-*%
X-4765656Y20033911D03*
%TO.N,/SYN*%
X23393400Y26136600D03*
%TD*%
D33*
%TO.N,GND*%
X390000Y17940000D02*
X2275000Y17940000D01*
X5130800Y33020000D02*
X4419600Y33020000D01*
X1380000Y28320000D02*
X670000Y28320000D01*
X-11690000Y24000000D02*
X-11690000Y23010000D01*
X9271000Y33020000D02*
X8026400Y34264600D01*
X-11750000Y33160000D02*
X-11750000Y34160000D01*
X4419600Y33102647D02*
X4428453Y33111500D01*
X-13440000Y18150000D02*
X-13450000Y18140000D01*
X-11730000Y27880000D02*
X-11750000Y27900000D01*
X8788400Y37160200D02*
X8788400Y35026600D01*
X6781800Y37986704D02*
X6781800Y37160200D01*
X940000Y18490000D02*
X390000Y17940000D01*
X1690000Y39190000D02*
X1850000Y39190000D01*
X5130800Y33020000D02*
X6781800Y33020000D01*
X6273800Y36017200D02*
X8026400Y34264600D01*
X8280400Y34010600D02*
X8026400Y34264600D01*
X-11740000Y31700000D02*
X-11740000Y33150000D01*
X8788400Y35026600D02*
X8026400Y34264600D01*
X9457677Y29842323D02*
X9271000Y30029000D01*
X-11740000Y34170000D02*
X-11740000Y37080000D01*
X-14000000Y22960000D02*
X-14100000Y23060000D01*
X-5230000Y25935800D02*
X-4981000Y26184800D01*
X-11690000Y23010000D02*
X-11740000Y22960000D01*
X1280000Y33220000D02*
X1280000Y32310000D01*
X9779000Y36017200D02*
X8026400Y34264600D01*
X2275000Y17940000D02*
X2410000Y18075000D01*
X-11740000Y19210000D02*
X-11750000Y19200000D01*
X5840000Y38930000D02*
X5540000Y38930000D01*
X1590000Y27050000D02*
X1590000Y28110000D01*
X6118504Y38651496D02*
X5840000Y38930000D01*
X1590000Y27050000D02*
X1590000Y26580000D01*
X17000000Y23000000D02*
X17000000Y25763000D01*
X-11740000Y22960000D02*
X-14000000Y22960000D01*
X940000Y21000000D02*
X940000Y18490000D01*
X14000000Y23000000D02*
X14000000Y25725600D01*
X4419600Y33020000D02*
X4419600Y33102647D01*
X9271000Y31369000D02*
X9271000Y33020000D01*
X8788400Y37160200D02*
X8788400Y38758400D01*
X17000000Y25763000D02*
X17170400Y25933400D01*
X9271000Y30029000D02*
X9271000Y31369000D01*
X5130800Y33502600D02*
X7264400Y33502600D01*
X650000Y21660000D02*
X650000Y21287693D01*
X9779000Y37160200D02*
X9779000Y36017200D01*
X8788400Y38758400D02*
X8993600Y38963600D01*
X6118504Y38650000D02*
X6118504Y38651496D01*
X4669800Y37160200D02*
X4430000Y37400000D01*
X-11690000Y24000000D02*
X-11690000Y26440000D01*
X-11750000Y27900000D02*
X-11750000Y28930000D01*
X5130800Y34518600D02*
X7772400Y34518600D01*
X-11740000Y37080000D02*
X-14320000Y37080000D01*
X-4981000Y26184800D02*
X-3937000Y26184800D01*
X1850000Y39190000D02*
X1850000Y39045500D01*
X-11690000Y26440000D02*
X-11730000Y26480000D01*
X1590000Y28110000D02*
X1380000Y28320000D01*
X-11750000Y19200000D02*
X-11750000Y18160000D01*
X8280400Y31369000D02*
X8280400Y34010600D01*
X-11740000Y21410000D02*
X-11740000Y19210000D01*
X5765800Y37160200D02*
X4669800Y37160200D01*
X1590000Y26580000D02*
X1070000Y26060000D01*
X-11730000Y26480000D02*
X-11730000Y27880000D01*
X937693Y21000000D02*
X940000Y21000000D01*
X-11750000Y28930000D02*
X-11740000Y28940000D01*
X7264400Y35026600D02*
X8026400Y34264600D01*
X6781800Y33020000D02*
X8026400Y34264600D01*
X-11750000Y34160000D02*
X-11740000Y34170000D01*
X-11740000Y33150000D02*
X-11750000Y33160000D01*
X-11740000Y22960000D02*
X-11740000Y21410000D01*
X650000Y21287693D02*
X937693Y21000000D01*
X6118504Y38650000D02*
X6781800Y37986704D01*
X-11750000Y18160000D02*
X-11740000Y18150000D01*
X14000000Y25725600D02*
X13868400Y25857200D01*
X1070000Y26060000D02*
X1001000Y26060000D01*
X7772400Y34518600D02*
X8026400Y34264600D01*
X5130800Y35026600D02*
X7264400Y35026600D01*
X-14370000Y28940000D02*
X-14520000Y29090000D01*
X9457677Y29825500D02*
X9457677Y29842323D01*
X-11740000Y28940000D02*
X-11740000Y31700000D01*
X1280000Y32310000D02*
X660000Y31690000D01*
X-5230000Y25880000D02*
X-5230000Y25935800D01*
X1250000Y38750000D02*
X1690000Y39190000D01*
X-11740000Y28940000D02*
X-14370000Y28940000D01*
X-14320000Y37080000D02*
X-14440000Y37200000D01*
X5130800Y36017200D02*
X6273800Y36017200D01*
X-11740000Y18150000D02*
X-13440000Y18150000D01*
%TO.N,+3V3*%
X27000000Y23550000D02*
X27000000Y26111400D01*
X-3937000Y25224800D02*
X-2705200Y25224800D01*
X-1430000Y25760000D02*
X-2170000Y25760000D01*
X23050000Y29909000D02*
X23444200Y29514800D01*
X24462800Y29514800D02*
X24488200Y29540200D01*
X23444200Y29514800D02*
X24462800Y29514800D01*
X10575000Y28775000D02*
X10445000Y28775000D01*
X8788400Y29611600D02*
X8788400Y31369000D01*
X26000000Y23000000D02*
X26000000Y25917600D01*
X19253200Y34772600D02*
X19431000Y34950400D01*
X10287000Y37617400D02*
X10375900Y37706300D01*
X9210000Y29190000D02*
X8788400Y29611600D01*
X10445000Y28775000D02*
X10030000Y29190000D01*
X26000000Y25917600D02*
X25806400Y26111200D01*
X-1975500Y37553372D02*
X-1933372Y37553372D01*
X27000000Y26111400D02*
X26924000Y26187400D01*
X10287000Y37160200D02*
X10287000Y37617400D01*
X17703800Y34495000D02*
X18975600Y34495000D01*
X-2170000Y25760000D02*
X-2190000Y25740000D01*
X-1933372Y37553372D02*
X-1430000Y37050000D01*
X23050000Y30740000D02*
X23050000Y29909000D01*
X10768700Y37706300D02*
X10375900Y37706300D01*
X18975600Y34495000D02*
X19253200Y34772600D01*
X19431000Y34950400D02*
X19507200Y34950400D01*
X-2705200Y25224800D02*
X-2190000Y25740000D01*
X11050000Y37425000D02*
X10768700Y37706300D01*
X10030000Y29190000D02*
X9210000Y29190000D01*
%TO.N,/AVDDOUT*%
X7772400Y31369000D02*
X7772400Y30175200D01*
X7772400Y30175200D02*
X7823200Y30124400D01*
X7823200Y30124400D02*
X7863900Y30124400D01*
%TO.N,/DVDDOUT*%
X9398000Y38150800D02*
X9753600Y38150800D01*
X9271000Y38023800D02*
X9271000Y37160200D01*
X9271000Y38023800D02*
X9398000Y38150800D01*
%TO.N,/REF*%
X4038600Y34010600D02*
X4013200Y33985200D01*
X5130800Y34010600D02*
X4038600Y34010600D01*
%TO.N,/IRP*%
X6290000Y39670000D02*
X290000Y39670000D01*
X-930000Y37560000D02*
X-1510000Y38140000D01*
X6451400Y38811400D02*
X6451400Y39508600D01*
X-1030000Y39270000D02*
X-1510000Y38790000D01*
X290000Y39670000D02*
X-110000Y39270000D01*
X6451400Y39508600D02*
X6290000Y39670000D01*
X-1510000Y38790000D02*
X-1510000Y38280000D01*
X-930000Y37050000D02*
X-930000Y37560000D01*
X-1540000Y38310000D02*
X-1510000Y38280000D01*
X7264400Y37998400D02*
X6451400Y38811400D01*
X7264400Y37160200D02*
X7264400Y37998400D01*
X-1510000Y38140000D02*
X-1510000Y38280000D01*
X-2440000Y38310000D02*
X-1540000Y38310000D01*
X-110000Y39270000D02*
X-1030000Y39270000D01*
%TO.N,/ISP*%
X-1500000Y32750000D02*
X-1500000Y33810000D01*
X-1510000Y35070000D02*
X-1430000Y35150000D01*
X1058076Y35748076D02*
X1040000Y35730000D01*
X-1510000Y33820000D02*
X-1510000Y34600000D01*
X-1730000Y34820000D02*
X-1510000Y34600000D01*
X6273800Y38000408D02*
X6273800Y37160200D01*
X-1500000Y33810000D02*
X-1510000Y33820000D01*
X-2150000Y34820000D02*
X-1730000Y34820000D01*
X1550962Y36199038D02*
X1550962Y36875962D01*
X1550962Y36875962D02*
X2825000Y38150000D01*
X1100000Y35748076D02*
X1058076Y35748076D01*
X2825000Y38150000D02*
X6124208Y38150000D01*
X-1510000Y34600000D02*
X-1510000Y35070000D01*
X6124208Y38150000D02*
X6273800Y38000408D01*
X1100000Y35748076D02*
X1550962Y36199038D01*
%TO.N,/ITP*%
X1950000Y30730000D02*
X1950000Y31990000D01*
X-930000Y26320000D02*
X-1530000Y26920000D01*
X-1510000Y28700000D02*
X-1500000Y28710000D01*
X2250000Y32290000D02*
X2250000Y36362200D01*
X2250000Y36362200D02*
X2413000Y36525200D01*
X-1500000Y28710000D02*
X-1500000Y29950000D01*
X-1510000Y27390000D02*
X-1510000Y28700000D01*
X-1115489Y30334511D02*
X445489Y30334511D01*
X-1530000Y27370000D02*
X-1510000Y27390000D01*
X-1500000Y29950000D02*
X-1115489Y30334511D01*
X610000Y30170000D02*
X1390000Y30170000D01*
X-1530000Y26920000D02*
X-1530000Y27370000D01*
X-930000Y25760000D02*
X-930000Y26320000D01*
X1950000Y31990000D02*
X2250000Y32290000D01*
X1390000Y30170000D02*
X1950000Y30730000D01*
X2413000Y36525200D02*
X5130800Y36525200D01*
X445489Y30334511D02*
X610000Y30170000D01*
%TO.N,/INP*%
X2950000Y32300000D02*
X2550000Y31900000D01*
X2550000Y31900000D02*
X2550000Y23540000D01*
X-1430000Y23160000D02*
X-2190000Y23160000D01*
X-1430000Y23860000D02*
X-1430000Y23160000D01*
X5130800Y35509200D02*
X3509200Y35509200D01*
X-1500000Y22200000D02*
X-1500000Y21100000D01*
X-2190000Y23160000D02*
X-2510000Y23480000D01*
X2950000Y34950000D02*
X2950000Y32300000D01*
X3509200Y35509200D02*
X2950000Y34950000D01*
X-1430000Y22270000D02*
X-1500000Y22200000D01*
X-1430000Y23160000D02*
X-1430000Y22270000D01*
X-1500000Y21100000D02*
X-1510000Y21090000D01*
D34*
%TO.N,/UR+*%
X12000000Y26510000D02*
X11970000Y26540000D01*
X4175000Y32318200D02*
X4175000Y31905000D01*
X5130800Y32512000D02*
X4368800Y32512000D01*
X3490000Y29870000D02*
X3490000Y28620000D01*
X3490000Y28620000D02*
X3524020Y28620000D01*
X4170000Y30550000D02*
X3490000Y29870000D01*
X4170000Y31900000D02*
X4170000Y30550000D01*
X4368800Y32512000D02*
X4175000Y32318200D01*
X4175000Y31905000D02*
X4170000Y31900000D01*
X12000000Y23000000D02*
X12000000Y26510000D01*
%TO.N,/US+*%
X5765800Y30225800D02*
X5270000Y29730000D01*
X5270000Y29720000D02*
X5100000Y29720000D01*
X5765800Y31369000D02*
X5765800Y30225800D01*
X5270000Y29730000D02*
X5270000Y29720000D01*
X9143911Y27833911D02*
X10000000Y26977822D01*
X10000000Y26977822D02*
X10000000Y23000000D01*
D33*
%TO.N,/PM1*%
X8280400Y38656800D02*
X7973600Y38963600D01*
X8280400Y37160200D02*
X8280400Y38656800D01*
%TO.N,/RSP*%
X-6827220Y31690000D02*
X-6750200Y31612980D01*
X-8580000Y31690000D02*
X-6827220Y31690000D01*
%TO.N,/RSM*%
X-8580000Y28930000D02*
X-6893180Y28930000D01*
X-6893180Y28930000D02*
X-6750200Y29072980D01*
%TO.N,/RTP*%
X-6783180Y26500000D02*
X-6750200Y26532980D01*
X-8580000Y26500000D02*
X-6783180Y26500000D01*
%TO.N,/RTM*%
X-6763180Y23980000D02*
X-6750200Y23992980D01*
X-8580000Y23980000D02*
X-6763180Y23980000D01*
%TO.N,/RRP*%
X-7127220Y37070000D02*
X-6750200Y36692980D01*
X-8580000Y37070000D02*
X-7127220Y37070000D01*
%TO.N,/RRM*%
X-8580000Y34160000D02*
X-6757220Y34160000D01*
X-6757220Y34160000D02*
X-6750200Y34152980D01*
%TO.N,/RNP*%
X-8580000Y21400000D02*
X-6803180Y21400000D01*
X-6803180Y21400000D02*
X-6750200Y21452980D01*
%TO.N,/RNM*%
X-7037220Y19200000D02*
X-6750200Y18912980D01*
X-8580000Y19200000D02*
X-7037220Y19200000D01*
D34*
%TO.N,/UT+*%
X8000000Y27590000D02*
X6781800Y28808200D01*
X8000000Y23000000D02*
X8000000Y27590000D01*
X6781800Y28808200D02*
X6781800Y31369000D01*
D33*
%TO.N,/ADE_Reset*%
X7772400Y37160200D02*
X7772400Y38074600D01*
X20675589Y39649411D02*
X21869400Y38455600D01*
X7399411Y39649411D02*
X20675589Y39649411D01*
X7772400Y38074600D02*
X6985000Y38862000D01*
X6985000Y38862000D02*
X6985000Y39243000D01*
X6993000Y39243000D02*
X7399411Y39649411D01*
X6985000Y39243000D02*
X6993000Y39243000D01*
%TO.N,/O_IN*%
X9779000Y31369000D02*
X9779000Y30446000D01*
X9779000Y30446000D02*
X10375000Y29850000D01*
%TO.N,Net-(U1A--)*%
X-3430000Y21900000D02*
X-3430000Y21180000D01*
X-490000Y22150000D02*
X-540000Y22200000D01*
X-3410000Y21920000D02*
X-3430000Y21900000D01*
X-490000Y21090000D02*
X-130000Y20730000D01*
X-930000Y23860000D02*
X-930000Y22920000D01*
X-490000Y21090000D02*
X-490000Y22150000D01*
X230000Y20730000D02*
X230000Y20824500D01*
X-3410000Y23230000D02*
X-3410000Y21920000D01*
X-540000Y22530000D02*
X-540000Y22200000D01*
X-130000Y20730000D02*
X230000Y20730000D01*
X-930000Y22920000D02*
X-540000Y22530000D01*
%TO.N,Net-(U3A--)*%
X-540000Y32750000D02*
X-540000Y33770000D01*
X-540000Y33770000D02*
X-490000Y33820000D01*
X-490000Y34220000D02*
X-940000Y34670000D01*
X-490000Y33820000D02*
X-490000Y34220000D01*
X-3440000Y33440000D02*
X-2680000Y33440000D01*
X-940000Y35140000D02*
X-930000Y35150000D01*
X-540000Y32750000D02*
X-270000Y33020000D01*
X-940000Y34670000D02*
X-940000Y35140000D01*
X-2680000Y33440000D02*
X-2650000Y33470000D01*
X-270000Y33020000D02*
X260000Y33020000D01*
%TO.N,Net-(U1B--)*%
X-540000Y29550000D02*
X-700000Y29710000D01*
X-430000Y27330000D02*
X-490000Y27390000D01*
X-490000Y28660000D02*
X-540000Y28710000D01*
X-3390000Y29150000D02*
X-3390000Y27880000D01*
X-540000Y28710000D02*
X-540000Y29550000D01*
X-490000Y27390000D02*
X-490000Y28660000D01*
X-430000Y25760000D02*
X-430000Y27330000D01*
%TO.N,/SCLK*%
X22000000Y23000000D02*
X22000000Y26260000D01*
X13855700Y32270700D02*
X12725400Y33401000D01*
X12725400Y34442400D02*
X12141200Y35026600D01*
X12725400Y33401000D02*
X12725400Y34442400D01*
X20570000Y27480000D02*
X20570000Y26721600D01*
X22000000Y26260000D02*
X21539200Y26720800D01*
X23000000Y23000000D02*
X22000000Y23000000D01*
X20570000Y26721600D02*
X20569200Y26720800D01*
X19304000Y28117800D02*
X15151100Y32270700D01*
X15151100Y32270700D02*
X13855700Y32270700D01*
X20066000Y26720800D02*
X19304000Y27482800D01*
X21539200Y26720800D02*
X20569200Y26720800D01*
X19304000Y27482800D02*
X19304000Y28117800D01*
X20569200Y26720800D02*
X20066000Y26720800D01*
X12141200Y35026600D02*
X10922000Y35026600D01*
%TO.N,/MISO*%
X21463000Y32156400D02*
X22100000Y32793400D01*
X20091400Y32156400D02*
X21463000Y32156400D01*
X13298500Y34761500D02*
X13298500Y33589900D01*
X12550800Y35509200D02*
X13298500Y34761500D01*
X13298500Y33589900D02*
X14108400Y32780000D01*
X10922000Y35509200D02*
X12550800Y35509200D01*
X14108400Y32780000D02*
X19467800Y32780000D01*
X19467800Y32780000D02*
X20091400Y32156400D01*
X22100000Y32793400D02*
X22100000Y33240000D01*
%TO.N,/MOSI*%
X21150000Y30740000D02*
X20800000Y30390000D01*
X13872800Y36017200D02*
X14230000Y35660000D01*
X10922000Y36017200D02*
X13872800Y36017200D01*
X18658000Y26452400D02*
X18999200Y26111200D01*
X19670000Y30390000D02*
X19650000Y30410000D01*
X18999200Y26111200D02*
X19558000Y26111200D01*
X18658000Y26452400D02*
X18658000Y26932000D01*
X20000000Y25669200D02*
X20000000Y23000000D01*
X19558000Y26111200D02*
X20000000Y25669200D01*
X21000000Y23000000D02*
X20000000Y23000000D01*
X20800000Y30390000D02*
X19670000Y30390000D01*
X18658000Y26932000D02*
X18630000Y26960000D01*
%TO.N,/SS*%
X19000000Y23000000D02*
X18000000Y23000000D01*
X18000000Y28625000D02*
X18000000Y23000000D01*
X10922000Y36525200D02*
X12295200Y36525200D01*
X13868400Y31292800D02*
X15332200Y31292800D01*
X12295200Y36525200D02*
X12420000Y36650000D01*
X15332200Y31292800D02*
X18000000Y28625000D01*
%TO.N,/RN*%
X-8891157Y22738843D02*
X-9600000Y22030000D01*
X-9610000Y21410000D02*
X-9600000Y21400000D01*
X-4450000Y21180000D02*
X-4450000Y22600000D01*
X-9600000Y22030000D02*
X-9600000Y21400000D01*
X-4450000Y22600000D02*
X-4520000Y22670000D01*
X-10780000Y21410000D02*
X-9610000Y21410000D01*
X-5934500Y22738843D02*
X-8891157Y22738843D01*
%TO.N,/RT*%
X-9540000Y26560000D02*
X-9600000Y26500000D01*
X-9540000Y27230000D02*
X-9540000Y26560000D01*
X-4420000Y27870000D02*
X-8900000Y27870000D01*
X-8900000Y27870000D02*
X-9540000Y27230000D01*
X-10750000Y26500000D02*
X-10770000Y26480000D01*
X-9600000Y26500000D02*
X-10750000Y26500000D01*
X-4410000Y27880000D02*
X-4420000Y27870000D01*
%TO.N,Net-(C4-Pad1)*%
X-10780000Y18150000D02*
X-10780000Y19150000D01*
X-9600000Y19200000D02*
X-10730000Y19200000D01*
X-10780000Y19150000D02*
X-10730000Y19200000D01*
%TO.N,Net-(U3B--)*%
X-2870000Y37220000D02*
X-3180000Y37530000D01*
X-430000Y38220000D02*
X-490000Y38280000D01*
X309163Y38679163D02*
X309163Y38610563D01*
X-3440000Y36620000D02*
X-2670000Y36620000D01*
X200000Y38790000D02*
X310000Y38680000D01*
X-3180000Y37530000D02*
X-3200000Y37530000D01*
X-2600000Y36690000D02*
X-2870000Y36960000D01*
X-2870000Y36960000D02*
X-2870000Y37220000D01*
X310000Y38680000D02*
X309163Y38679163D01*
X-3200000Y37530000D02*
X-3400000Y37730000D01*
X-3400000Y37730000D02*
X-3400000Y38310000D01*
X-2670000Y36620000D02*
X-2600000Y36690000D01*
X-430000Y37050000D02*
X-430000Y38220000D01*
X-490000Y38790000D02*
X200000Y38790000D01*
X-490000Y38280000D02*
X-490000Y38790000D01*
%TO.N,Net-(U1A-+)*%
X-430000Y23860000D02*
X-430000Y23220000D01*
X-80000Y22870000D02*
X460000Y22870000D01*
X460000Y22870000D02*
X650000Y22680000D01*
X-430000Y23220000D02*
X-80000Y22870000D01*
%TO.N,Net-(C8-Pad1)*%
X-10690000Y24040000D02*
X-10730000Y24000000D01*
X-10730000Y24000000D02*
X-10730000Y22970000D01*
X-9600000Y23980000D02*
X-9660000Y24040000D01*
X-9660000Y24040000D02*
X-10690000Y24040000D01*
X-10730000Y22970000D02*
X-10720000Y22960000D01*
%TO.N,Net-(C10-Pad1)*%
X-9600000Y28930000D02*
X-10770000Y28930000D01*
X-10770000Y28930000D02*
X-10780000Y28940000D01*
X-10780000Y27950000D02*
X-10730000Y27900000D01*
X-10780000Y28940000D02*
X-10780000Y27950000D01*
%TO.N,Net-(C12-Pad1)*%
X-9600000Y34160000D02*
X-10770000Y34160000D01*
X-10770000Y34160000D02*
X-10780000Y34170000D01*
X-10780000Y34170000D02*
X-10780000Y33210000D01*
X-10780000Y33210000D02*
X-10730000Y33160000D01*
%TO.N,Net-(U3A-+)*%
X190000Y34240000D02*
X1280000Y34240000D01*
X-430000Y34860000D02*
X190000Y34240000D01*
X-430000Y35150000D02*
X-430000Y34860000D01*
%TO.N,Net-(U1B-+)*%
X70000Y26550000D02*
X570000Y27050000D01*
X70000Y25760000D02*
X70000Y26550000D01*
%TO.N,/RS*%
X-5370000Y30370000D02*
X-9020000Y30370000D01*
X-10770000Y31690000D02*
X-10780000Y31700000D01*
X-9600000Y30950000D02*
X-9600000Y31690000D01*
X-9600000Y31690000D02*
X-10770000Y31690000D01*
X-4460000Y33440000D02*
X-4460000Y31280000D01*
X-9020000Y30370000D02*
X-9600000Y30950000D01*
X-4460000Y31280000D02*
X-5370000Y30370000D01*
%TO.N,/RR*%
X-4460000Y36620000D02*
X-4460000Y36300000D01*
X-9610000Y37080000D02*
X-9600000Y37070000D01*
X-4460000Y36300000D02*
X-5360000Y35400000D01*
X-10780000Y37080000D02*
X-9610000Y37080000D01*
X-9200000Y35400000D02*
X-9600000Y35800000D01*
X-9600000Y35800000D02*
X-9600000Y37070000D01*
X-5360000Y35400000D02*
X-9200000Y35400000D01*
%TO.N,Net-(U3B-+)*%
X1250000Y37420000D02*
X1250000Y37730000D01*
X70000Y37050000D02*
X880000Y37050000D01*
X880000Y37050000D02*
X1250000Y37420000D01*
%TO.N,/UM*%
X2152453Y22357547D02*
X1610000Y22900000D01*
X2410000Y22225031D02*
X2410000Y21025000D01*
X1647145Y35047145D02*
X1625500Y35047145D01*
X70000Y35850000D02*
X-180000Y36100000D01*
X70000Y24560000D02*
X-180000Y24810000D01*
X70000Y35150000D02*
X114511Y35105489D01*
X1610000Y22900000D02*
X1610000Y23910000D01*
X70000Y35150000D02*
X70000Y35850000D01*
X1705489Y35105489D02*
X1647145Y35047145D01*
X70000Y23860000D02*
X70000Y24560000D01*
X70000Y23860000D02*
X1560000Y23860000D01*
X2277484Y22357547D02*
X2410000Y22225031D01*
X114511Y35105489D02*
X1705489Y35105489D01*
X2277484Y22357547D02*
X2152453Y22357547D01*
X1560000Y23860000D02*
X1610000Y23910000D01*
D34*
%TO.N,/C+*%
X-70000Y18890000D02*
X-885000Y18890000D01*
X-885000Y18890000D02*
X-1105000Y18670000D01*
%TO.N,/UR-*%
X4530000Y30250000D02*
X4230000Y29950000D01*
X4530000Y31830000D02*
X4530000Y30250000D01*
X5130800Y32004000D02*
X4704000Y32004000D01*
X13000000Y26600000D02*
X13040000Y26640000D01*
X13000000Y23000000D02*
X13000000Y26600000D01*
X4704000Y32004000D02*
X4530000Y31830000D01*
X4230000Y29950000D02*
X4230000Y29490000D01*
%TO.N,/US-*%
X6273800Y31369000D02*
X6273800Y29546200D01*
X8393411Y29123411D02*
X8393411Y29060011D01*
X8393411Y29060011D02*
X8791711Y28661711D01*
X8791711Y28661711D02*
X9518289Y28661711D01*
X11000000Y27180000D02*
X11000000Y23000000D01*
X9518289Y28661711D02*
X11000000Y27180000D01*
%TO.N,/UT-*%
X9000000Y26610000D02*
X9000000Y26990000D01*
X9020000Y25950000D02*
X9000000Y25970000D01*
X7264400Y28865600D02*
X9000000Y27130000D01*
X9000000Y25930000D02*
X9020000Y25950000D01*
X7264400Y31369000D02*
X7264400Y28865600D01*
X9000000Y27130000D02*
X9000000Y26610000D01*
X9000000Y25970000D02*
X9000000Y26610000D01*
X9000000Y23000000D02*
X9000000Y25930000D01*
%TO.N,/C-*%
X-4765656Y20033911D02*
X-4765656Y19380656D01*
X-4765656Y19380656D02*
X-4055000Y18670000D01*
D33*
%TO.N,/SYN*%
X24000000Y26210000D02*
X24000000Y27638200D01*
X25000000Y23000000D02*
X24000000Y23000000D01*
X23466800Y26210000D02*
X24000000Y26210000D01*
X23050000Y32590000D02*
X23050000Y33240000D01*
X23393400Y26136600D02*
X23466800Y26210000D01*
X22190000Y31730000D02*
X23050000Y32590000D01*
X24000000Y27638200D02*
X22190000Y29448200D01*
X22190000Y29448200D02*
X22190000Y31730000D01*
X24000000Y26210000D02*
X24000000Y23000000D01*
%TD*%
%TA.AperFunction,Conductor*%
%TO.N,GND*%
G36*
X-9057879Y42479998D02*
G01*
X-9011386Y42426342D01*
X-9000000Y42374000D01*
X-9000000Y40000000D01*
X-144518Y40000000D01*
X-76397Y39979998D01*
X-29904Y39926342D01*
X-19800Y39856068D01*
X-49294Y39791488D01*
X-55422Y39784905D01*
X-207923Y39632403D01*
X-270233Y39598380D01*
X-297017Y39595500D01*
X-979413Y39595500D01*
X-979429Y39595501D01*
X-987147Y39595501D01*
X-1072852Y39595501D01*
X-1155638Y39573318D01*
X-1229862Y39530465D01*
X-1229868Y39530459D01*
X-1300831Y39459496D01*
X-1300838Y39459486D01*
X-1770465Y38989862D01*
X-1813318Y38915639D01*
X-1829121Y38856661D01*
X-1829766Y38854253D01*
X-1835499Y38832857D01*
X-1835500Y38832850D01*
X-1835500Y38801231D01*
X-1855502Y38733110D01*
X-1909158Y38686617D01*
X-1979432Y38676513D01*
X-2044012Y38706007D01*
X-2050595Y38712136D01*
X-2101682Y38763223D01*
X-2101684Y38763224D01*
X-2210513Y38813972D01*
X-2260099Y38820500D01*
X-2619900Y38820499D01*
X-2619903Y38820498D01*
X-2619910Y38820498D01*
X-2638513Y38818048D01*
X-2669487Y38813972D01*
X-2778316Y38763224D01*
X-2778317Y38763223D01*
X-2778318Y38763222D01*
X-2830905Y38710636D01*
X-2893217Y38676610D01*
X-2964032Y38681675D01*
X-3009095Y38710636D01*
X-3061682Y38763223D01*
X-3061684Y38763224D01*
X-3170513Y38813972D01*
X-3220099Y38820500D01*
X-3579900Y38820499D01*
X-3579903Y38820498D01*
X-3579910Y38820498D01*
X-3598513Y38818048D01*
X-3629487Y38813972D01*
X-3738316Y38763224D01*
X-3823224Y38678316D01*
X-3873972Y38569487D01*
X-3880500Y38519901D01*
X-3880499Y38307722D01*
X-3880499Y38100101D01*
X-3880498Y38100089D01*
X-3877871Y38080137D01*
X-3873972Y38050513D01*
X-3823224Y37941684D01*
X-3823223Y37941682D01*
X-3762405Y37880864D01*
X-3728379Y37818552D01*
X-3725500Y37791769D01*
X-3725500Y37772853D01*
X-3725500Y37687147D01*
X-3703318Y37604361D01*
X-3703315Y37604356D01*
X-3662733Y37534065D01*
X-3660465Y37530138D01*
X-3485920Y37355593D01*
X-3451897Y37293284D01*
X-3456961Y37222468D01*
X-3499508Y37165632D01*
X-3566028Y37140821D01*
X-3575017Y37140500D01*
X-3614316Y37140500D01*
X-3663173Y37134068D01*
X-3770404Y37084065D01*
X-3770405Y37084064D01*
X-3770406Y37084063D01*
X-3860905Y36993565D01*
X-3923217Y36959539D01*
X-3994032Y36964604D01*
X-4039095Y36993565D01*
X-4129594Y37084064D01*
X-4129596Y37084065D01*
X-4236827Y37134068D01*
X-4285684Y37140500D01*
X-4634316Y37140500D01*
X-4683173Y37134068D01*
X-4790404Y37084065D01*
X-4874065Y37000404D01*
X-4924068Y36893173D01*
X-4930500Y36844316D01*
X-4930500Y36395684D01*
X-4929377Y36387157D01*
X-4926295Y36363744D01*
X-4937235Y36293596D01*
X-4962119Y36258206D01*
X-5358227Y35862100D01*
X-5457923Y35762404D01*
X-5520235Y35728379D01*
X-5547018Y35725500D01*
X-5573700Y35725500D01*
X-5641821Y35745502D01*
X-5688314Y35799158D01*
X-5699700Y35851500D01*
X-5699700Y37562730D01*
X-5711332Y37621208D01*
X-5711333Y37621211D01*
X-5727117Y37644833D01*
X-5755648Y37687532D01*
X-5821969Y37731847D01*
X-5880452Y37743480D01*
X-7619948Y37743480D01*
X-7678431Y37731847D01*
X-7744752Y37687532D01*
X-7789067Y37621211D01*
X-7800700Y37562728D01*
X-7800700Y37562726D01*
X-7800700Y37521500D01*
X-7820702Y37453379D01*
X-7874358Y37406886D01*
X-7926700Y37395500D01*
X-8061900Y37395500D01*
X-8130021Y37415502D01*
X-8165116Y37449234D01*
X-8165937Y37450407D01*
X-8249594Y37534064D01*
X-8295958Y37555684D01*
X-8356827Y37584068D01*
X-8405684Y37590500D01*
X-8754316Y37590500D01*
X-8803173Y37584068D01*
X-8910404Y37534065D01*
X-8910405Y37534064D01*
X-8910406Y37534063D01*
X-9000905Y37443565D01*
X-9063217Y37409539D01*
X-9134032Y37414604D01*
X-9179095Y37443565D01*
X-9269594Y37534064D01*
X-9315958Y37555684D01*
X-9376827Y37584068D01*
X-9425684Y37590500D01*
X-9774316Y37590500D01*
X-9823173Y37584068D01*
X-9930404Y37534065D01*
X-9930405Y37534064D01*
X-9930406Y37534063D01*
X-10021860Y37442610D01*
X-10024873Y37445623D01*
X-10063517Y37414830D01*
X-10111099Y37405500D01*
X-10261769Y37405500D01*
X-10329890Y37425502D01*
X-10350864Y37442405D01*
X-10441682Y37533223D01*
X-10441684Y37533224D01*
X-10550513Y37583972D01*
X-10600099Y37590500D01*
X-10959900Y37590499D01*
X-10959903Y37590498D01*
X-10959910Y37590498D01*
X-10978513Y37588048D01*
X-11009487Y37583972D01*
X-11118316Y37533224D01*
X-11203224Y37448316D01*
X-11253972Y37339487D01*
X-11260500Y37289901D01*
X-11260499Y37078282D01*
X-11260499Y36870101D01*
X-11260498Y36870089D01*
X-11257427Y36846762D01*
X-11253972Y36820513D01*
X-11221847Y36751621D01*
X-11203223Y36711682D01*
X-11118317Y36626776D01*
X-11009485Y36576027D01*
X-10972955Y36571218D01*
X-10959901Y36569500D01*
X-10959899Y36569500D01*
X-10600101Y36569500D01*
X-10600089Y36569501D01*
X-10550516Y36576027D01*
X-10550510Y36576029D01*
X-10441682Y36626776D01*
X-10441681Y36626777D01*
X-10350864Y36717595D01*
X-10288552Y36751621D01*
X-10261769Y36754500D01*
X-10124601Y36754500D01*
X-10056480Y36734498D01*
X-10023338Y36696558D01*
X-10020387Y36698625D01*
X-10014062Y36689592D01*
X-9962405Y36637935D01*
X-9928379Y36575623D01*
X-9925500Y36548840D01*
X-9925500Y35842853D01*
X-9925500Y35757147D01*
X-9903318Y35674361D01*
X-9898819Y35666568D01*
X-9877852Y35630252D01*
X-9860465Y35600138D01*
X-9460466Y35200139D01*
X-9460465Y35200138D01*
X-9429650Y35169323D01*
X-9399863Y35139536D01*
X-9399858Y35139532D01*
X-9325642Y35096683D01*
X-9325638Y35096682D01*
X-9242853Y35074500D01*
X-7619305Y35074500D01*
X-7551184Y35054498D01*
X-7504691Y35000842D01*
X-7494587Y34930568D01*
X-7521904Y34868568D01*
X-7627885Y34739430D01*
X-7720853Y34565500D01*
X-7728014Y34552103D01*
X-7777767Y34501455D01*
X-7839136Y34485500D01*
X-8061900Y34485500D01*
X-8130021Y34505502D01*
X-8165116Y34539234D01*
X-8165937Y34540407D01*
X-8249594Y34624064D01*
X-8290676Y34643221D01*
X-8356827Y34674068D01*
X-8405684Y34680500D01*
X-8754316Y34680500D01*
X-8803173Y34674068D01*
X-8910404Y34624065D01*
X-8910405Y34624064D01*
X-8910406Y34624063D01*
X-9000905Y34533565D01*
X-9063217Y34499539D01*
X-9134032Y34504604D01*
X-9179095Y34533565D01*
X-9269594Y34624064D01*
X-9310676Y34643221D01*
X-9376827Y34674068D01*
X-9425684Y34680500D01*
X-9774316Y34680500D01*
X-9823173Y34674068D01*
X-9930404Y34624065D01*
X-10014065Y34540404D01*
X-10014066Y34540400D01*
X-10014884Y34539234D01*
X-10016638Y34537831D01*
X-10021860Y34532610D01*
X-10022442Y34533192D01*
X-10070339Y34494903D01*
X-10118100Y34485500D01*
X-10254202Y34485500D01*
X-10322323Y34505502D01*
X-10348674Y34530828D01*
X-10348981Y34530522D01*
X-10441682Y34623223D01*
X-10443483Y34624063D01*
X-10550513Y34673972D01*
X-10600099Y34680500D01*
X-10959900Y34680499D01*
X-10959903Y34680498D01*
X-10959910Y34680498D01*
X-10978513Y34678048D01*
X-11009487Y34673972D01*
X-11118316Y34623224D01*
X-11203224Y34538316D01*
X-11253972Y34429487D01*
X-11260500Y34379901D01*
X-11260499Y34169500D01*
X-11260499Y33960101D01*
X-11260498Y33960089D01*
X-11260106Y33957114D01*
X-11253972Y33910513D01*
X-11214532Y33825935D01*
X-11203223Y33801682D01*
X-11142405Y33740864D01*
X-11108379Y33678552D01*
X-11105500Y33651769D01*
X-11105500Y33631159D01*
X-11125502Y33563038D01*
X-11142404Y33542064D01*
X-11144065Y33540404D01*
X-11194068Y33433173D01*
X-11200500Y33384316D01*
X-11200500Y32935684D01*
X-11194068Y32886827D01*
X-11149859Y32792022D01*
X-11144064Y32779594D01*
X-11060405Y32695935D01*
X-10953171Y32645931D01*
X-10904322Y32639500D01*
X-10904316Y32639500D01*
X-10555677Y32639500D01*
X-10506828Y32645931D01*
X-10399594Y32695935D01*
X-10315935Y32779594D01*
X-10265931Y32886828D01*
X-10259500Y32935677D01*
X-10259500Y33384322D01*
X-10265931Y33433171D01*
X-10315935Y33540405D01*
X-10377899Y33602369D01*
X-10411925Y33664681D01*
X-10406860Y33735496D01*
X-10377905Y33780554D01*
X-10369388Y33789072D01*
X-10360868Y33797591D01*
X-10298560Y33831619D01*
X-10271770Y33834500D01*
X-10118100Y33834500D01*
X-10049979Y33814498D01*
X-10014884Y33780766D01*
X-10014062Y33779592D01*
X-9930405Y33695935D01*
X-9823171Y33645931D01*
X-9774322Y33639500D01*
X-9774316Y33639500D01*
X-9425677Y33639500D01*
X-9376828Y33645931D01*
X-9269594Y33695935D01*
X-9269593Y33695936D01*
X-9179095Y33786435D01*
X-9116783Y33820461D01*
X-9045968Y33815396D01*
X-9000905Y33786435D01*
X-8910405Y33695935D01*
X-8803171Y33645931D01*
X-8754322Y33639500D01*
X-8754316Y33639500D01*
X-8405677Y33639500D01*
X-8356828Y33645931D01*
X-8249594Y33695935D01*
X-8165937Y33779592D01*
X-8165116Y33780766D01*
X-8163361Y33782168D01*
X-8158140Y33787390D01*
X-8157557Y33786807D01*
X-8109661Y33825097D01*
X-8061900Y33834500D01*
X-7844809Y33834500D01*
X-7776688Y33814498D01*
X-7730195Y33760842D01*
X-7727878Y33754715D01*
X-7727802Y33754747D01*
X-7725432Y33749026D01*
X-7627885Y33566530D01*
X-7496610Y33406570D01*
X-7336650Y33275295D01*
X-7336648Y33275294D01*
X-7336647Y33275293D01*
X-7225142Y33215692D01*
X-7154154Y33177748D01*
X-6958231Y33118316D01*
X-6956127Y33117678D01*
X-6750203Y33097397D01*
X-6750200Y33097397D01*
X-6750197Y33097397D01*
X-6544272Y33117678D01*
X-6346245Y33177748D01*
X-6163752Y33275293D01*
X-6003790Y33406570D01*
X-5872513Y33566532D01*
X-5774968Y33749025D01*
X-5714898Y33947052D01*
X-5694617Y34152976D01*
X-5694617Y34152983D01*
X-5714898Y34358907D01*
X-5721268Y34379905D01*
X-5774968Y34556934D01*
X-5799946Y34603665D01*
X-5872513Y34739427D01*
X-5879565Y34748020D01*
X-5978495Y34868568D01*
X-6006248Y34933914D01*
X-5994266Y35003892D01*
X-5946353Y35056284D01*
X-5881095Y35074500D01*
X-5317149Y35074500D01*
X-5317147Y35074500D01*
X-5234361Y35096682D01*
X-5234359Y35096683D01*
X-5234356Y35096684D01*
X-5160141Y35139532D01*
X-5160135Y35139537D01*
X-4199535Y36100138D01*
X-4194508Y36106690D01*
X-4192788Y36105370D01*
X-4149680Y36146460D01*
X-4145221Y36148648D01*
X-4129593Y36155936D01*
X-4039095Y36246435D01*
X-3976783Y36280461D01*
X-3905968Y36275396D01*
X-3860905Y36246435D01*
X-3770405Y36155935D01*
X-3663171Y36105931D01*
X-3614322Y36099500D01*
X-3614316Y36099500D01*
X-3265677Y36099500D01*
X-3216828Y36105931D01*
X-3109595Y36155935D01*
X-3092569Y36172961D01*
X-3030256Y36206985D01*
X-2959440Y36201919D01*
X-2926773Y36183827D01*
X-2902841Y36165464D01*
X-2902839Y36165463D01*
X-2756760Y36104955D01*
X-2600000Y36084318D01*
X-2443239Y36104955D01*
X-2297160Y36165463D01*
X-2297157Y36165465D01*
X-2171718Y36261718D01*
X-2075465Y36387157D01*
X-2075463Y36387160D01*
X-2014955Y36533239D01*
X-1994318Y36689999D01*
X-1994318Y36690004D01*
X-1994530Y36691616D01*
X-1994318Y36692974D01*
X-1994318Y36698258D01*
X-1993494Y36698258D01*
X-1983586Y36761764D01*
X-1936454Y36814860D01*
X-1868099Y36834045D01*
X-1800223Y36813229D01*
X-1754375Y36759021D01*
X-1746029Y36732641D01*
X-1743867Y36721769D01*
X-1700636Y36657071D01*
X-1679423Y36589322D01*
X-1680010Y36574717D01*
X-1680500Y36569743D01*
X-1680500Y36144807D01*
X-1681783Y36126874D01*
X-1685647Y36100001D01*
X-1681782Y36073117D01*
X-1680500Y36055187D01*
X-1680500Y35630253D01*
X-1680010Y35625280D01*
X-1693237Y35555527D01*
X-1700633Y35542934D01*
X-1743867Y35478231D01*
X-1746346Y35465766D01*
X-1779251Y35402858D01*
X-1840946Y35367725D01*
X-1911840Y35371523D01*
X-1918124Y35373930D01*
X-1993238Y35405044D01*
X-2150000Y35425682D01*
X-2306762Y35405044D01*
X-2452841Y35344536D01*
X-2578282Y35248282D01*
X-2674536Y35122841D01*
X-2735044Y34976762D01*
X-2744531Y34904700D01*
X-2755682Y34820000D01*
X-2755682Y34819999D01*
X-2749442Y34772600D01*
X-2735044Y34663238D01*
X-2674536Y34517159D01*
X-2578282Y34391718D01*
X-2517030Y34344718D01*
X-2452840Y34295463D01*
X-2450067Y34293863D01*
X-2448193Y34291898D01*
X-2446289Y34290437D01*
X-2446516Y34290140D01*
X-2401072Y34242483D01*
X-2387632Y34172770D01*
X-2414015Y34106858D01*
X-2471845Y34065673D01*
X-2529508Y34059819D01*
X-2650000Y34075682D01*
X-2806762Y34055044D01*
X-2952841Y33994536D01*
X-3014731Y33947046D01*
X-3024771Y33939342D01*
X-3090991Y33913741D01*
X-3154725Y33925109D01*
X-3179543Y33936682D01*
X-3216827Y33954068D01*
X-3265684Y33960500D01*
X-3614316Y33960500D01*
X-3663173Y33954068D01*
X-3770404Y33904065D01*
X-3770405Y33904064D01*
X-3770406Y33904063D01*
X-3860905Y33813565D01*
X-3923217Y33779539D01*
X-3994032Y33784604D01*
X-4039095Y33813565D01*
X-4129594Y33904064D01*
X-4129596Y33904065D01*
X-4236827Y33954068D01*
X-4285684Y33960500D01*
X-4634316Y33960500D01*
X-4683173Y33954068D01*
X-4790404Y33904065D01*
X-4874065Y33820404D01*
X-4924068Y33713173D01*
X-4930500Y33664316D01*
X-4930500Y33215684D01*
X-4924068Y33166827D01*
X-4893121Y33100461D01*
X-4874064Y33059594D01*
X-4822405Y33007935D01*
X-4788379Y32945623D01*
X-4785500Y32918840D01*
X-4785500Y31467017D01*
X-4805502Y31398896D01*
X-4822405Y31377922D01*
X-5467922Y30732405D01*
X-5530234Y30698379D01*
X-5557017Y30695500D01*
X-5877779Y30695500D01*
X-5945900Y30715502D01*
X-5992393Y30769158D01*
X-6002497Y30839432D01*
X-5975179Y30901433D01*
X-5962389Y30917017D01*
X-5927220Y30959871D01*
X-5872513Y31026532D01*
X-5774968Y31209025D01*
X-5714898Y31407052D01*
X-5694617Y31612976D01*
X-5694617Y31612983D01*
X-5714898Y31818907D01*
X-5717691Y31828113D01*
X-5774968Y32016934D01*
X-5798430Y32060828D01*
X-5872513Y32199427D01*
X-5876243Y32203972D01*
X-6003790Y32359390D01*
X-6163750Y32490665D01*
X-6346246Y32588212D01*
X-6544266Y32648280D01*
X-6544270Y32648280D01*
X-6544272Y32648281D01*
X-6750197Y32668563D01*
X-6750203Y32668563D01*
X-6956127Y32648281D01*
X-6956128Y32648280D01*
X-6956134Y32648280D01*
X-7154154Y32588212D01*
X-7336650Y32490665D01*
X-7496610Y32359390D01*
X-7627885Y32199430D01*
X-7690598Y32082103D01*
X-7740351Y32031455D01*
X-7801720Y32015500D01*
X-8061900Y32015500D01*
X-8130021Y32035502D01*
X-8165116Y32069234D01*
X-8165937Y32070407D01*
X-8249594Y32154064D01*
X-8293123Y32174362D01*
X-8356827Y32204068D01*
X-8405684Y32210500D01*
X-8754316Y32210500D01*
X-8803173Y32204068D01*
X-8910404Y32154065D01*
X-8910405Y32154064D01*
X-8910406Y32154063D01*
X-9000905Y32063565D01*
X-9063217Y32029539D01*
X-9134032Y32034604D01*
X-9179095Y32063565D01*
X-9269594Y32154064D01*
X-9313123Y32174362D01*
X-9376827Y32204068D01*
X-9425684Y32210500D01*
X-9774316Y32210500D01*
X-9823173Y32204068D01*
X-9930404Y32154065D01*
X-10014065Y32070404D01*
X-10014066Y32070400D01*
X-10014884Y32069234D01*
X-10016638Y32067831D01*
X-10021860Y32062610D01*
X-10022442Y32063192D01*
X-10070339Y32024903D01*
X-10118100Y32015500D01*
X-10254202Y32015500D01*
X-10322323Y32035502D01*
X-10348674Y32060828D01*
X-10348981Y32060522D01*
X-10441682Y32153223D01*
X-10443483Y32154063D01*
X-10550513Y32203972D01*
X-10600099Y32210500D01*
X-10959900Y32210499D01*
X-10959903Y32210498D01*
X-10959910Y32210498D01*
X-10978513Y32208048D01*
X-11009487Y32203972D01*
X-11118316Y32153224D01*
X-11203224Y32068316D01*
X-11253972Y31959487D01*
X-11260500Y31909901D01*
X-11260499Y31490100D01*
X-11253972Y31440513D01*
X-11214142Y31355097D01*
X-11203223Y31331682D01*
X-11118317Y31246776D01*
X-11009485Y31196027D01*
X-10972955Y31191218D01*
X-10959901Y31189500D01*
X-10959899Y31189500D01*
X-10600101Y31189500D01*
X-10600089Y31189501D01*
X-10550516Y31196027D01*
X-10550510Y31196029D01*
X-10441683Y31246776D01*
X-10395660Y31292800D01*
X-10360863Y31327596D01*
X-10298554Y31361620D01*
X-10271770Y31364500D01*
X-10118100Y31364500D01*
X-10049979Y31344498D01*
X-10014884Y31310766D01*
X-10014062Y31309592D01*
X-9962405Y31257935D01*
X-9928379Y31195623D01*
X-9925500Y31168840D01*
X-9925500Y30992853D01*
X-9925500Y30907147D01*
X-9903318Y30824361D01*
X-9903315Y30824356D01*
X-9860467Y30750141D01*
X-9860459Y30750131D01*
X-9219868Y30109540D01*
X-9219858Y30109532D01*
X-9145643Y30066684D01*
X-9145641Y30066683D01*
X-9145639Y30066682D01*
X-9062853Y30044500D01*
X-8977147Y30044500D01*
X-7574459Y30044500D01*
X-7506338Y30024498D01*
X-7459845Y29970842D01*
X-7449741Y29900568D01*
X-7479235Y29835988D01*
X-7494528Y29821099D01*
X-7496610Y29819390D01*
X-7627885Y29659430D01*
X-7725432Y29476934D01*
X-7759581Y29364359D01*
X-7765476Y29344925D01*
X-7804391Y29285543D01*
X-7869233Y29256627D01*
X-7886051Y29255500D01*
X-8061900Y29255500D01*
X-8130021Y29275502D01*
X-8165116Y29309234D01*
X-8165937Y29310407D01*
X-8249594Y29394064D01*
X-8273790Y29405347D01*
X-8356827Y29444068D01*
X-8405684Y29450500D01*
X-8754316Y29450500D01*
X-8803173Y29444068D01*
X-8910404Y29394065D01*
X-8910405Y29394064D01*
X-8910406Y29394063D01*
X-9000905Y29303565D01*
X-9063217Y29269539D01*
X-9134032Y29274604D01*
X-9179095Y29303565D01*
X-9269594Y29394064D01*
X-9293790Y29405347D01*
X-9376827Y29444068D01*
X-9425684Y29450500D01*
X-9774316Y29450500D01*
X-9823173Y29444068D01*
X-9930404Y29394065D01*
X-10014065Y29310404D01*
X-10014066Y29310400D01*
X-10014884Y29309234D01*
X-10016638Y29307831D01*
X-10021860Y29302610D01*
X-10022442Y29303192D01*
X-10070339Y29264903D01*
X-10118100Y29255500D01*
X-10254202Y29255500D01*
X-10322323Y29275502D01*
X-10348674Y29300828D01*
X-10348981Y29300522D01*
X-10441682Y29393223D01*
X-10443483Y29394063D01*
X-10550513Y29443972D01*
X-10600099Y29450500D01*
X-10959900Y29450499D01*
X-10959903Y29450498D01*
X-10959910Y29450498D01*
X-10978513Y29448048D01*
X-11009487Y29443972D01*
X-11118316Y29393224D01*
X-11203224Y29308316D01*
X-11253972Y29199487D01*
X-11260500Y29149901D01*
X-11260499Y28931762D01*
X-11260499Y28730101D01*
X-11260498Y28730089D01*
X-11257285Y28705684D01*
X-11253972Y28680513D01*
X-11215546Y28598109D01*
X-11203223Y28571682D01*
X-11142405Y28510864D01*
X-11108379Y28448552D01*
X-11105500Y28421769D01*
X-11105500Y28371159D01*
X-11125502Y28303038D01*
X-11142404Y28282064D01*
X-11144065Y28280404D01*
X-11194068Y28173173D01*
X-11200500Y28124316D01*
X-11200500Y27675684D01*
X-11194068Y27626827D01*
X-11153709Y27540277D01*
X-11144064Y27519594D01*
X-11060405Y27435935D01*
X-10953171Y27385931D01*
X-10904322Y27379500D01*
X-10904316Y27379500D01*
X-10555677Y27379500D01*
X-10506828Y27385931D01*
X-10399594Y27435935D01*
X-10315935Y27519594D01*
X-10265931Y27626828D01*
X-10259500Y27675677D01*
X-10259500Y28124322D01*
X-10265931Y28173171D01*
X-10315935Y28280405D01*
X-10392899Y28357369D01*
X-10426925Y28419681D01*
X-10421860Y28490496D01*
X-10392902Y28535557D01*
X-10371070Y28557390D01*
X-10360865Y28567594D01*
X-10298557Y28601620D01*
X-10271770Y28604500D01*
X-10118100Y28604500D01*
X-10049979Y28584498D01*
X-10014884Y28550766D01*
X-10014062Y28549592D01*
X-9930405Y28465935D01*
X-9823171Y28415931D01*
X-9774322Y28409500D01*
X-9774316Y28409500D01*
X-9425677Y28409500D01*
X-9376828Y28415931D01*
X-9269594Y28465935D01*
X-9269593Y28465936D01*
X-9179095Y28556435D01*
X-9116783Y28590461D01*
X-9045968Y28585396D01*
X-9000905Y28556435D01*
X-8910405Y28465935D01*
X-8890173Y28456501D01*
X-8845555Y28435695D01*
X-8792271Y28388779D01*
X-8772810Y28320501D01*
X-8793352Y28252541D01*
X-8847375Y28206476D01*
X-8898806Y28195501D01*
X-8942853Y28195501D01*
X-8993520Y28181924D01*
X-9016055Y28175886D01*
X-9025639Y28173318D01*
X-9060528Y28153174D01*
X-9060529Y28153174D01*
X-9071347Y28146928D01*
X-9099862Y28130465D01*
X-9099868Y28130459D01*
X-9170831Y28059496D01*
X-9170838Y28059486D01*
X-9800465Y27429862D01*
X-9843318Y27355639D01*
X-9852577Y27321082D01*
X-9861670Y27287147D01*
X-9865499Y27272856D01*
X-9865500Y27272852D01*
X-9865500Y27074600D01*
X-9885502Y27006479D01*
X-9923446Y26973345D01*
X-9921375Y26970387D01*
X-9930400Y26964066D01*
X-9930404Y26964065D01*
X-10014065Y26880404D01*
X-10014066Y26880400D01*
X-10014884Y26879234D01*
X-10016638Y26877831D01*
X-10021860Y26872610D01*
X-10022442Y26873192D01*
X-10070339Y26834903D01*
X-10118100Y26825500D01*
X-10271769Y26825500D01*
X-10339890Y26845502D01*
X-10360864Y26862405D01*
X-10431682Y26933223D01*
X-10439640Y26936934D01*
X-10540513Y26983972D01*
X-10590099Y26990500D01*
X-10949900Y26990499D01*
X-10949903Y26990498D01*
X-10949910Y26990498D01*
X-10968513Y26988048D01*
X-10999487Y26983972D01*
X-11108316Y26933224D01*
X-11193224Y26848316D01*
X-11243972Y26739487D01*
X-11250500Y26689901D01*
X-11250499Y26475544D01*
X-11250499Y26270101D01*
X-11250498Y26270089D01*
X-11248034Y26251372D01*
X-11243972Y26220513D01*
X-11196442Y26118585D01*
X-11193223Y26111682D01*
X-11108317Y26026776D01*
X-10999485Y25976027D01*
X-10962955Y25971218D01*
X-10949901Y25969500D01*
X-10949899Y25969500D01*
X-10590101Y25969500D01*
X-10590089Y25969501D01*
X-10540516Y25976027D01*
X-10540510Y25976029D01*
X-10431682Y26026776D01*
X-10346777Y26111681D01*
X-10340452Y26120715D01*
X-10336968Y26118276D01*
X-10303846Y26155440D01*
X-10237213Y26174500D01*
X-10118100Y26174500D01*
X-10049979Y26154498D01*
X-10014884Y26120766D01*
X-10014062Y26119592D01*
X-9930405Y26035935D01*
X-9823171Y25985931D01*
X-9774322Y25979500D01*
X-9774316Y25979500D01*
X-9425677Y25979500D01*
X-9376828Y25985931D01*
X-9269594Y26035935D01*
X-9269593Y26035936D01*
X-9179095Y26126435D01*
X-9116783Y26160461D01*
X-9045968Y26155396D01*
X-9000905Y26126435D01*
X-8910405Y26035935D01*
X-8803171Y25985931D01*
X-8754322Y25979500D01*
X-8754316Y25979500D01*
X-8405677Y25979500D01*
X-8356828Y25985931D01*
X-8249594Y26035935D01*
X-8165937Y26119592D01*
X-8165116Y26120766D01*
X-8163361Y26122168D01*
X-8158140Y26127390D01*
X-8157557Y26126807D01*
X-8109661Y26165097D01*
X-8061900Y26174500D01*
X-7825260Y26174500D01*
X-7757139Y26154498D01*
X-7714138Y26107897D01*
X-7627885Y25946530D01*
X-7496610Y25786570D01*
X-7336650Y25655295D01*
X-7336648Y25655294D01*
X-7336647Y25655293D01*
X-7219935Y25592909D01*
X-7154154Y25557748D01*
X-7035378Y25521718D01*
X-6956127Y25497678D01*
X-6750203Y25477397D01*
X-6750200Y25477397D01*
X-6750197Y25477397D01*
X-6544272Y25497678D01*
X-6346245Y25557748D01*
X-6163752Y25655293D01*
X-6003790Y25786570D01*
X-5872513Y25946532D01*
X-5774968Y26129025D01*
X-5714898Y26327052D01*
X-5694617Y26532976D01*
X-5694617Y26532983D01*
X-5714898Y26738907D01*
X-5720344Y26756859D01*
X-5774968Y26936934D01*
X-5784716Y26955171D01*
X-5872513Y27119427D01*
X-5872949Y27119958D01*
X-5998428Y27272856D01*
X-6003789Y27279389D01*
X-6013242Y27287147D01*
X-6054616Y27321101D01*
X-6094584Y27379777D01*
X-6096485Y27450748D01*
X-6059715Y27511480D01*
X-5995947Y27542693D01*
X-5974682Y27544500D01*
X-4921099Y27544500D01*
X-4852978Y27524498D01*
X-4833471Y27505778D01*
X-4831860Y27507390D01*
X-4740405Y27415935D01*
X-4633171Y27365931D01*
X-4584322Y27359500D01*
X-4584316Y27359500D01*
X-4235677Y27359500D01*
X-4186828Y27365931D01*
X-4079594Y27415935D01*
X-4079593Y27415936D01*
X-3989095Y27506435D01*
X-3926783Y27540461D01*
X-3855968Y27535396D01*
X-3810905Y27506435D01*
X-3720405Y27415935D01*
X-3613171Y27365931D01*
X-3564322Y27359500D01*
X-3564316Y27359500D01*
X-3215677Y27359500D01*
X-3166828Y27365931D01*
X-3059594Y27415935D01*
X-2975935Y27499594D01*
X-2925931Y27606828D01*
X-2919500Y27655677D01*
X-2919500Y28104322D01*
X-2925931Y28153171D01*
X-2975935Y28260405D01*
X-3027595Y28312065D01*
X-3061621Y28374377D01*
X-3064500Y28401160D01*
X-3064500Y28580714D01*
X-3044498Y28648835D01*
X-3015204Y28680676D01*
X-2961720Y28721715D01*
X-2865465Y28847157D01*
X-2865463Y28847160D01*
X-2804955Y28993239D01*
X-2784318Y29149999D01*
X-2784318Y29150000D01*
X-2804955Y29306760D01*
X-2865463Y29452839D01*
X-2865465Y29452842D01*
X-2909660Y29510438D01*
X-2961718Y29578282D01*
X-3087159Y29674536D01*
X-3233238Y29735044D01*
X-3390000Y29755682D01*
X-3546762Y29735044D01*
X-3692841Y29674536D01*
X-3818282Y29578282D01*
X-3914536Y29452841D01*
X-3975044Y29306762D01*
X-3993154Y29169200D01*
X-3995682Y29150000D01*
X-3995682Y29149999D01*
X-3986782Y29082399D01*
X-3975044Y28993238D01*
X-3914536Y28847159D01*
X-3818282Y28721718D01*
X-3818280Y28721716D01*
X-3818279Y28721715D01*
X-3764796Y28680676D01*
X-3722929Y28623338D01*
X-3715500Y28580714D01*
X-3715500Y28401160D01*
X-3735502Y28333039D01*
X-3752405Y28312065D01*
X-3810905Y28253565D01*
X-3873217Y28219539D01*
X-3944032Y28224604D01*
X-3989095Y28253565D01*
X-4079594Y28344064D01*
X-4084498Y28346351D01*
X-4186827Y28394068D01*
X-4235684Y28400500D01*
X-4584316Y28400500D01*
X-4633173Y28394068D01*
X-4740404Y28344065D01*
X-4824065Y28260404D01*
X-4824066Y28260400D01*
X-4830387Y28251375D01*
X-4833403Y28253486D01*
X-4867333Y28214959D01*
X-4934601Y28195500D01*
X-5844952Y28195500D01*
X-5913073Y28215502D01*
X-5959566Y28269158D01*
X-5969670Y28339432D01*
X-5942352Y28401433D01*
X-5872513Y28486532D01*
X-5774968Y28669025D01*
X-5714898Y28867052D01*
X-5694617Y29072976D01*
X-5694617Y29072983D01*
X-5714898Y29278907D01*
X-5721548Y29300828D01*
X-5774968Y29476934D01*
X-5803245Y29529837D01*
X-5872513Y29659427D01*
X-5884911Y29674534D01*
X-6003790Y29819390D01*
X-6005872Y29821099D01*
X-6006671Y29822272D01*
X-6008167Y29823768D01*
X-6007883Y29824051D01*
X-6045843Y29879775D01*
X-6047745Y29950746D01*
X-6010975Y30011480D01*
X-5947208Y30042692D01*
X-5925941Y30044500D01*
X-5327149Y30044500D01*
X-5327147Y30044500D01*
X-5244361Y30066682D01*
X-5244359Y30066683D01*
X-5244356Y30066684D01*
X-5170141Y30109532D01*
X-5170131Y30109540D01*
X-4199540Y31080131D01*
X-4199534Y31080138D01*
X-4192145Y31092938D01*
X-4192144Y31092940D01*
X-4192143Y31092939D01*
X-4156683Y31154357D01*
X-4134500Y31237148D01*
X-4134500Y32918840D01*
X-4114498Y32986961D01*
X-4097595Y33007935D01*
X-4039095Y33066435D01*
X-3976783Y33100461D01*
X-3905968Y33095396D01*
X-3860905Y33066435D01*
X-3770405Y32975935D01*
X-3663171Y32925931D01*
X-3614322Y32919500D01*
X-3614316Y32919500D01*
X-3265677Y32919500D01*
X-3216828Y32925931D01*
X-3106089Y32977570D01*
X-3035897Y32988231D01*
X-2976136Y32963339D01*
X-2971656Y32959901D01*
X-2952842Y32945465D01*
X-2952839Y32945463D01*
X-2806760Y32884955D01*
X-2650000Y32864318D01*
X-2493239Y32884955D01*
X-2347160Y32945463D01*
X-2347157Y32945465D01*
X-2221716Y33041719D01*
X-2203800Y33065068D01*
X-2146461Y33106934D01*
X-2075590Y33111155D01*
X-2013688Y33076389D01*
X-1980408Y33013676D01*
X-1978918Y32971916D01*
X-1980500Y32959901D01*
X-1980499Y32742631D01*
X-1980499Y32540101D01*
X-1980498Y32540089D01*
X-1977696Y32518805D01*
X-1973972Y32490513D01*
X-1923224Y32381685D01*
X-1923223Y32381682D01*
X-1838317Y32296776D01*
X-1729485Y32246027D01*
X-1692955Y32241218D01*
X-1679901Y32239500D01*
X-1679899Y32239500D01*
X-1320101Y32239500D01*
X-1320089Y32239501D01*
X-1270516Y32246027D01*
X-1270510Y32246029D01*
X-1161682Y32296776D01*
X-1161681Y32296777D01*
X-1109095Y32349364D01*
X-1046783Y32383390D01*
X-975968Y32378325D01*
X-930905Y32349364D01*
X-878317Y32296776D01*
X-769485Y32246027D01*
X-732955Y32241218D01*
X-719901Y32239500D01*
X-719899Y32239500D01*
X-360101Y32239500D01*
X-360089Y32239501D01*
X-310516Y32246027D01*
X-310510Y32246029D01*
X-201682Y32296776D01*
X-116777Y32381681D01*
X-116774Y32381685D01*
X-111316Y32393392D01*
X-64400Y32446678D01*
X3877Y32466140D01*
X51096Y32456553D01*
X103237Y32434956D01*
X260000Y32414318D01*
X416760Y32434955D01*
X562839Y32495463D01*
X562842Y32495465D01*
X572283Y32502709D01*
X688282Y32591718D01*
X784536Y32717159D01*
X845044Y32863238D01*
X864298Y33009487D01*
X865682Y33019999D01*
X865682Y33020000D01*
X855756Y33095396D01*
X845044Y33176762D01*
X784536Y33322841D01*
X688282Y33448282D01*
X562841Y33544536D01*
X416762Y33605044D01*
X260000Y33625682D01*
X122944Y33607638D01*
X52798Y33618577D01*
X-301Y33665705D01*
X-19500Y33732560D01*
X-19500Y33794946D01*
X502Y33863067D01*
X54158Y33909560D01*
X124432Y33919664D01*
X139106Y33916654D01*
X147144Y33914500D01*
X147147Y33914500D01*
X232853Y33914500D01*
X758841Y33914500D01*
X826962Y33894498D01*
X847931Y33877599D01*
X877681Y33847850D01*
X899596Y33825935D01*
X1006828Y33775931D01*
X1055677Y33769500D01*
X1055684Y33769500D01*
X1504322Y33769500D01*
X1553171Y33775931D01*
X1660405Y33825935D01*
X1709405Y33874935D01*
X1771717Y33908961D01*
X1842532Y33903896D01*
X1899368Y33861349D01*
X1924179Y33794829D01*
X1924500Y33785840D01*
X1924500Y32477017D01*
X1904498Y32408896D01*
X1887599Y32387926D01*
X1782255Y32282582D01*
X1689537Y32189864D01*
X1689532Y32189858D01*
X1646684Y32115643D01*
X1646682Y32115639D01*
X1646680Y32115633D01*
X1646680Y32115632D01*
X1636526Y32077738D01*
X1624500Y32032855D01*
X1624500Y30917017D01*
X1604498Y30848896D01*
X1587595Y30827921D01*
X1292077Y30532404D01*
X1229765Y30498379D01*
X1202982Y30495500D01*
X797017Y30495500D01*
X728896Y30515502D01*
X707926Y30532400D01*
X645351Y30594976D01*
X571128Y30637829D01*
X488342Y30660011D01*
X488340Y30660011D01*
X-1064902Y30660011D01*
X-1064918Y30660012D01*
X-1072636Y30660012D01*
X-1158342Y30660012D01*
X-1241128Y30637829D01*
X-1264214Y30624500D01*
X-1315351Y30594976D01*
X-1315357Y30594970D01*
X-1386320Y30524007D01*
X-1386327Y30523997D01*
X-1760465Y30149862D01*
X-1803318Y30075639D01*
X-1820144Y30012841D01*
X-1825500Y29992853D01*
X-1825500Y29228231D01*
X-1845502Y29160110D01*
X-1862405Y29139136D01*
X-1914564Y29086976D01*
X-1923224Y29078316D01*
X-1973972Y28969487D01*
X-1980500Y28919901D01*
X-1980499Y28705684D01*
X-1980499Y28500101D01*
X-1980498Y28500089D01*
X-1977485Y28477200D01*
X-1973972Y28450513D01*
X-1923224Y28341684D01*
X-1923223Y28341682D01*
X-1872405Y28290864D01*
X-1838379Y28228552D01*
X-1835500Y28201769D01*
X-1835500Y27911160D01*
X-1855502Y27843039D01*
X-1872405Y27822065D01*
X-1924063Y27770406D01*
X-1924064Y27770406D01*
X-1924064Y27770404D01*
X-1924065Y27770404D01*
X-1974068Y27663173D01*
X-1980500Y27614316D01*
X-1980500Y27165684D01*
X-1974068Y27116827D01*
X-1930837Y27024118D01*
X-1924064Y27009594D01*
X-1892405Y26977935D01*
X-1858379Y26915623D01*
X-1855500Y26888840D01*
X-1855500Y26877147D01*
X-1833318Y26794361D01*
X-1825505Y26780828D01*
X-1791335Y26721644D01*
X-1790465Y26720138D01*
X-1495554Y26425227D01*
X-1461531Y26362917D01*
X-1466595Y26292102D01*
X-1509142Y26235266D01*
X-1568757Y26212119D01*
X-1568676Y26211708D01*
X-1571017Y26211242D01*
X-1572311Y26210740D01*
X-1574748Y26210500D01*
X-1633231Y26198867D01*
X-1648144Y26188901D01*
X-1715893Y26167687D01*
X-1784360Y26186469D01*
X-1794849Y26193704D01*
X-1887159Y26264536D01*
X-2033238Y26325044D01*
X-2190000Y26345682D01*
X-2346762Y26325044D01*
X-2492841Y26264536D01*
X-2618282Y26168282D01*
X-2714536Y26042841D01*
X-2775044Y25896762D01*
X-2789666Y25785699D01*
X-2795682Y25740000D01*
X-2795682Y25739998D01*
X-2789461Y25692746D01*
X-2800400Y25622598D01*
X-2847528Y25569499D01*
X-2914383Y25550300D01*
X-3418769Y25550300D01*
X-3486890Y25570302D01*
X-3507864Y25587205D01*
X-3568682Y25648023D01*
X-3568684Y25648024D01*
X-3677513Y25698772D01*
X-3727099Y25705300D01*
X-4146900Y25705299D01*
X-4146903Y25705298D01*
X-4146910Y25705298D01*
X-4165513Y25702848D01*
X-4196487Y25698772D01*
X-4305316Y25648024D01*
X-4390224Y25563116D01*
X-4440972Y25454287D01*
X-4447500Y25404701D01*
X-4447499Y25218500D01*
X-4447499Y25044901D01*
X-4447498Y25044889D01*
X-4444029Y25018543D01*
X-4440972Y24995313D01*
X-4426525Y24964332D01*
X-4390223Y24886482D01*
X-4305317Y24801576D01*
X-4196485Y24750827D01*
X-4159955Y24746018D01*
X-4146901Y24744300D01*
X-4146899Y24744300D01*
X-3727101Y24744300D01*
X-3727089Y24744301D01*
X-3677516Y24750827D01*
X-3677510Y24750829D01*
X-3568682Y24801576D01*
X-3568681Y24801577D01*
X-3507864Y24862395D01*
X-3445552Y24896421D01*
X-3418769Y24899300D01*
X-2662349Y24899300D01*
X-2662347Y24899300D01*
X-2579561Y24921482D01*
X-2579559Y24921483D01*
X-2579556Y24921484D01*
X-2505341Y24964332D01*
X-2505331Y24964340D01*
X-2362382Y25107290D01*
X-2300070Y25141316D01*
X-2256842Y25143117D01*
X-2190002Y25134318D01*
X-2190000Y25134318D01*
X-2033239Y25154955D01*
X-1887160Y25215463D01*
X-1887153Y25215468D01*
X-1883202Y25218500D01*
X-1816981Y25244099D01*
X-1747433Y25229833D01*
X-1696638Y25180231D01*
X-1680500Y25118536D01*
X-1680500Y24854807D01*
X-1681783Y24836874D01*
X-1685647Y24810001D01*
X-1681782Y24783117D01*
X-1680500Y24765187D01*
X-1680500Y24340253D01*
X-1680010Y24335280D01*
X-1693237Y24265527D01*
X-1700633Y24252934D01*
X-1743867Y24188231D01*
X-1755500Y24129748D01*
X-1755500Y24129746D01*
X-1755500Y23854330D01*
X-1775502Y23786209D01*
X-1829158Y23739716D01*
X-1899432Y23729612D01*
X-1964012Y23759106D01*
X-1981463Y23777626D01*
X-1985463Y23782839D01*
X-1985464Y23782841D01*
X-2081718Y23908282D01*
X-2207159Y24004536D01*
X-2353238Y24065044D01*
X-2510000Y24085682D01*
X-2666762Y24065044D01*
X-2812841Y24004536D01*
X-2938282Y23908282D01*
X-3009675Y23815239D01*
X-3067012Y23773373D01*
X-3137883Y23769151D01*
X-3157855Y23775535D01*
X-3175493Y23782841D01*
X-3253238Y23815044D01*
X-3410000Y23835682D01*
X-3566762Y23815044D01*
X-3712841Y23754536D01*
X-3838282Y23658282D01*
X-3934536Y23532841D01*
X-3995044Y23386762D01*
X-4009922Y23273744D01*
X-4038644Y23208820D01*
X-4097909Y23169728D01*
X-4168900Y23168883D01*
X-4211545Y23190228D01*
X-4217159Y23194536D01*
X-4363238Y23255044D01*
X-4520000Y23275682D01*
X-4676762Y23255044D01*
X-4822841Y23194536D01*
X-4948282Y23098282D01*
X-5044536Y22972841D01*
X-5103680Y22830054D01*
X-5148226Y22774776D01*
X-5215589Y22752355D01*
X-5284381Y22769913D01*
X-5332759Y22821875D01*
X-5345009Y22861828D01*
X-5349455Y22895603D01*
X-5409963Y23041682D01*
X-5409965Y23041685D01*
X-5427351Y23064343D01*
X-5506218Y23167125D01*
X-5631659Y23263379D01*
X-5763064Y23317808D01*
X-5818344Y23362356D01*
X-5840765Y23429720D01*
X-5825967Y23493613D01*
X-5774968Y23589025D01*
X-5714898Y23787052D01*
X-5694617Y23992976D01*
X-5694617Y23992983D01*
X-5714898Y24198907D01*
X-5716899Y24205502D01*
X-5774968Y24396934D01*
X-5805056Y24453224D01*
X-5872513Y24579427D01*
X-5872515Y24579430D01*
X-6003790Y24739390D01*
X-6163750Y24870665D01*
X-6346246Y24968212D01*
X-6544266Y25028280D01*
X-6544270Y25028280D01*
X-6544272Y25028281D01*
X-6750197Y25048563D01*
X-6750203Y25048563D01*
X-6956127Y25028281D01*
X-6956128Y25028280D01*
X-6956134Y25028280D01*
X-7154154Y24968212D01*
X-7336650Y24870665D01*
X-7496610Y24739390D01*
X-7627885Y24579430D01*
X-7725432Y24396934D01*
X-7725432Y24396933D01*
X-7726040Y24394930D01*
X-7726644Y24394007D01*
X-7727802Y24391213D01*
X-7728331Y24391432D01*
X-7764952Y24335547D01*
X-7829792Y24306628D01*
X-7846616Y24305500D01*
X-8061900Y24305500D01*
X-8130021Y24325502D01*
X-8165116Y24359234D01*
X-8165937Y24360407D01*
X-8249594Y24444064D01*
X-8264241Y24450894D01*
X-8356827Y24494068D01*
X-8405684Y24500500D01*
X-8754316Y24500500D01*
X-8803173Y24494068D01*
X-8910404Y24444065D01*
X-8910405Y24444064D01*
X-8910406Y24444063D01*
X-9000905Y24353565D01*
X-9063217Y24319539D01*
X-9134032Y24324604D01*
X-9179095Y24353565D01*
X-9269594Y24444064D01*
X-9284241Y24450894D01*
X-9376827Y24494068D01*
X-9425684Y24500500D01*
X-9774316Y24500500D01*
X-9823173Y24494068D01*
X-9930404Y24444065D01*
X-9972065Y24402403D01*
X-10034375Y24368380D01*
X-10061159Y24365500D01*
X-10251769Y24365500D01*
X-10319890Y24385502D01*
X-10340864Y24402405D01*
X-10391682Y24453223D01*
X-10391684Y24453224D01*
X-10500513Y24503972D01*
X-10550099Y24510500D01*
X-10909900Y24510499D01*
X-10909903Y24510498D01*
X-10909910Y24510498D01*
X-10928513Y24508048D01*
X-10959487Y24503972D01*
X-11068316Y24453224D01*
X-11153224Y24368316D01*
X-11203972Y24259487D01*
X-11210500Y24209901D01*
X-11210499Y23790100D01*
X-11203972Y23740513D01*
X-11157918Y23641751D01*
X-11153223Y23631682D01*
X-11092405Y23570864D01*
X-11058379Y23508552D01*
X-11055500Y23481769D01*
X-11055500Y23471159D01*
X-11075502Y23403038D01*
X-11092400Y23382068D01*
X-11134065Y23340404D01*
X-11184068Y23233173D01*
X-11190500Y23184316D01*
X-11190500Y22735684D01*
X-11184068Y22686827D01*
X-11161732Y22638928D01*
X-11134064Y22579594D01*
X-11050405Y22495935D01*
X-10943171Y22445931D01*
X-10894322Y22439500D01*
X-10894316Y22439500D01*
X-10545677Y22439500D01*
X-10496828Y22445931D01*
X-10389594Y22495935D01*
X-10305935Y22579594D01*
X-10255931Y22686828D01*
X-10249500Y22735677D01*
X-10249500Y23184322D01*
X-10255931Y23233171D01*
X-10305935Y23340405D01*
X-10362899Y23397369D01*
X-10396925Y23459681D01*
X-10391860Y23530496D01*
X-10362900Y23575559D01*
X-10306774Y23631685D01*
X-10302081Y23641751D01*
X-10255164Y23695036D01*
X-10187887Y23714500D01*
X-10147917Y23714500D01*
X-10079796Y23694498D01*
X-10033723Y23641751D01*
X-10014065Y23599596D01*
X-10014063Y23599593D01*
X-9930405Y23515935D01*
X-9823171Y23465931D01*
X-9774322Y23459500D01*
X-9774316Y23459500D01*
X-9425677Y23459500D01*
X-9376828Y23465931D01*
X-9269594Y23515935D01*
X-9269593Y23515936D01*
X-9179095Y23606435D01*
X-9116783Y23640461D01*
X-9045968Y23635396D01*
X-9000905Y23606435D01*
X-8910405Y23515935D01*
X-8803171Y23465931D01*
X-8754322Y23459500D01*
X-8754316Y23459500D01*
X-8405677Y23459500D01*
X-8356828Y23465931D01*
X-8249594Y23515935D01*
X-8165937Y23599592D01*
X-8165116Y23600766D01*
X-8163361Y23602168D01*
X-8158140Y23607390D01*
X-8157557Y23606807D01*
X-8109661Y23645097D01*
X-8061900Y23654500D01*
X-7835950Y23654500D01*
X-7767829Y23634498D01*
X-7724828Y23587896D01*
X-7627885Y23406530D01*
X-7573618Y23340405D01*
X-7516065Y23270276D01*
X-7488312Y23204928D01*
X-7500294Y23134950D01*
X-7548207Y23082559D01*
X-7613465Y23064343D01*
X-8934010Y23064343D01*
X-9016795Y23042161D01*
X-9067558Y23012853D01*
X-9091019Y22999308D01*
X-9860465Y22229862D01*
X-9903318Y22155639D01*
X-9903811Y22153799D01*
X-9906340Y22144362D01*
X-9909341Y22133161D01*
X-9925500Y22072853D01*
X-9925500Y22072852D01*
X-9925500Y21921160D01*
X-9945502Y21853039D01*
X-9962405Y21832065D01*
X-10021860Y21772610D01*
X-10024873Y21775623D01*
X-10063517Y21744830D01*
X-10111099Y21735500D01*
X-10261769Y21735500D01*
X-10329890Y21755502D01*
X-10350864Y21772405D01*
X-10441682Y21863223D01*
X-10443483Y21864063D01*
X-10550513Y21913972D01*
X-10600099Y21920500D01*
X-10959900Y21920499D01*
X-10959903Y21920498D01*
X-10959910Y21920498D01*
X-10978513Y21918048D01*
X-11009487Y21913972D01*
X-11118316Y21863224D01*
X-11203224Y21778316D01*
X-11253972Y21669487D01*
X-11260500Y21619901D01*
X-11260499Y21200100D01*
X-11253972Y21150513D01*
X-11221847Y21081621D01*
X-11203223Y21041682D01*
X-11118317Y20956776D01*
X-11009485Y20906027D01*
X-10972955Y20901218D01*
X-10959901Y20899500D01*
X-10959899Y20899500D01*
X-10600101Y20899500D01*
X-10600089Y20899501D01*
X-10550516Y20906027D01*
X-10550510Y20906029D01*
X-10441682Y20956776D01*
X-10441681Y20956777D01*
X-10350864Y21047595D01*
X-10288552Y21081621D01*
X-10261769Y21084500D01*
X-10124601Y21084500D01*
X-10056480Y21064498D01*
X-10023338Y21026558D01*
X-10020387Y21028625D01*
X-10014062Y21019592D01*
X-9930405Y20935935D01*
X-9823171Y20885931D01*
X-9774322Y20879500D01*
X-9774316Y20879500D01*
X-9425677Y20879500D01*
X-9376828Y20885931D01*
X-9269594Y20935935D01*
X-9269593Y20935936D01*
X-9179095Y21026435D01*
X-9116783Y21060461D01*
X-9045968Y21055396D01*
X-9000905Y21026435D01*
X-8910405Y20935935D01*
X-8803171Y20885931D01*
X-8754322Y20879500D01*
X-8754316Y20879500D01*
X-8405677Y20879500D01*
X-8356828Y20885931D01*
X-8249594Y20935935D01*
X-8165937Y21019592D01*
X-8165116Y21020766D01*
X-8163361Y21022168D01*
X-8158140Y21027390D01*
X-8157557Y21026807D01*
X-8109661Y21065097D01*
X-8061900Y21074500D01*
X-7814569Y21074500D01*
X-7746448Y21054498D01*
X-7703447Y21007896D01*
X-7627885Y20866530D01*
X-7496610Y20706570D01*
X-7336650Y20575295D01*
X-7336648Y20575294D01*
X-7336647Y20575293D01*
X-7171684Y20487118D01*
X-7154154Y20477748D01*
X-6985807Y20426681D01*
X-6956127Y20417678D01*
X-6750203Y20397397D01*
X-6750200Y20397397D01*
X-6750197Y20397397D01*
X-6544272Y20417678D01*
X-6346245Y20477748D01*
X-6163752Y20575293D01*
X-6003790Y20706570D01*
X-5872513Y20866532D01*
X-5774968Y21049025D01*
X-5714898Y21247052D01*
X-5694617Y21452976D01*
X-5694617Y21452983D01*
X-5714898Y21658907D01*
X-5740894Y21744604D01*
X-5774968Y21856934D01*
X-5780237Y21866792D01*
X-5839851Y21978321D01*
X-5854323Y22047827D01*
X-5828919Y22114123D01*
X-5776948Y22154125D01*
X-5631664Y22214304D01*
X-5631657Y22214308D01*
X-5506218Y22310561D01*
X-5409965Y22436000D01*
X-5409965Y22436001D01*
X-5409964Y22436002D01*
X-5350820Y22578786D01*
X-5306272Y22634066D01*
X-5238909Y22656487D01*
X-5170117Y22638928D01*
X-5121739Y22586966D01*
X-5109490Y22547014D01*
X-5105044Y22513238D01*
X-5044536Y22367159D01*
X-4948282Y22241718D01*
X-4948280Y22241716D01*
X-4948279Y22241715D01*
X-4824796Y22146963D01*
X-4782929Y22089625D01*
X-4775500Y22047001D01*
X-4775500Y21701160D01*
X-4795502Y21633039D01*
X-4812405Y21612065D01*
X-4840092Y21584377D01*
X-4864065Y21560404D01*
X-4914068Y21453173D01*
X-4920500Y21404316D01*
X-4920500Y20955684D01*
X-4914068Y20906827D01*
X-4875285Y20823658D01*
X-4859406Y20789605D01*
X-4862812Y20788016D01*
X-4846495Y20739628D01*
X-4863781Y20670768D01*
X-4915552Y20622185D01*
X-4924156Y20618235D01*
X-5068497Y20558447D01*
X-5193938Y20462193D01*
X-5290192Y20336752D01*
X-5350700Y20190673D01*
X-5371338Y20033911D01*
X-5350700Y19877149D01*
X-5290192Y19731070D01*
X-5193938Y19605629D01*
X-5193936Y19605627D01*
X-5193935Y19605626D01*
X-5115452Y19545404D01*
X-5073585Y19488067D01*
X-5066156Y19445442D01*
X-5066156Y19341094D01*
X-5066155Y19341090D01*
X-5060044Y19318282D01*
X-5045677Y19264667D01*
X-5045675Y19264663D01*
X-5045674Y19264661D01*
X-5027952Y19233966D01*
X-5027951Y19233965D01*
X-5006116Y19196145D01*
X-5006114Y19196143D01*
X-5006112Y19196140D01*
X-4867405Y19057433D01*
X-4833379Y18995121D01*
X-4830500Y18968338D01*
X-4830500Y18110077D01*
X-4850502Y18041956D01*
X-4904158Y17995463D01*
X-4974432Y17985359D01*
X-5033204Y18010115D01*
X-5117152Y18074531D01*
X-5117154Y18074532D01*
X-5117159Y18074536D01*
X-5263238Y18135044D01*
X-5420000Y18155682D01*
X-5576762Y18135044D01*
X-5722841Y18074536D01*
X-5816662Y18002544D01*
X-5849193Y17989967D01*
X-5856189Y17968306D01*
X-5860354Y17962549D01*
X-5944536Y17852841D01*
X-6005044Y17706762D01*
X-6025682Y17550000D01*
X-6005044Y17393238D01*
X-5944536Y17247159D01*
X-5848282Y17121718D01*
X-5722842Y17025465D01*
X-5722839Y17025463D01*
X-5576760Y16964955D01*
X-5420000Y16944318D01*
X-5263239Y16964955D01*
X-5117160Y17025463D01*
X-5117157Y17025465D01*
X-4991718Y17121718D01*
X-4895465Y17247157D01*
X-4895463Y17247160D01*
X-4834955Y17393239D01*
X-4814523Y17548436D01*
X-4785800Y17613363D01*
X-4726535Y17652454D01*
X-4655543Y17653299D01*
X-4614778Y17633367D01*
X-4592882Y17617207D01*
X-4592881Y17617206D01*
X-4464704Y17572355D01*
X-4464700Y17572354D01*
X-4434266Y17569500D01*
X-3675733Y17569500D01*
X-3645299Y17572354D01*
X-3645295Y17572355D01*
X-3517118Y17617206D01*
X-3517114Y17617208D01*
X-3407849Y17697849D01*
X-3327208Y17807114D01*
X-3327206Y17807118D01*
X-3282355Y17935295D01*
X-3282354Y17935299D01*
X-3279500Y17965733D01*
X-3279500Y19374266D01*
X-1880500Y19374266D01*
X-1880500Y17965734D01*
X-1877646Y17935301D01*
X-1877645Y17935299D01*
X-1877644Y17935295D01*
X-1832793Y17807118D01*
X-1832791Y17807114D01*
X-1752150Y17697849D01*
X-1642885Y17617208D01*
X-1642881Y17617206D01*
X-1514704Y17572355D01*
X-1514700Y17572354D01*
X-1484266Y17569500D01*
X-725733Y17569500D01*
X-695299Y17572354D01*
X-695295Y17572355D01*
X-567118Y17617206D01*
X-567114Y17617208D01*
X-457849Y17697849D01*
X-377208Y17807114D01*
X-377206Y17807118D01*
X-332355Y17935295D01*
X-332354Y17935299D01*
X-329500Y17965733D01*
X-329500Y18174806D01*
X-309498Y18242927D01*
X-255842Y18289420D01*
X-187054Y18299728D01*
X-70000Y18284318D01*
X86760Y18304955D01*
X232839Y18365463D01*
X232842Y18365465D01*
X358282Y18461718D01*
X454536Y18587159D01*
X515044Y18733238D01*
X531793Y18860461D01*
X535682Y18889999D01*
X535682Y18890000D01*
X530834Y18926827D01*
X515044Y19046762D01*
X454536Y19192841D01*
X358282Y19318282D01*
X232841Y19414536D01*
X86762Y19475044D01*
X-70000Y19495682D01*
X-226762Y19475044D01*
X-226772Y19475039D01*
X-234703Y19472915D01*
X-305680Y19474601D01*
X-364478Y19514392D01*
X-373090Y19527303D01*
X-377210Y19532885D01*
X-457850Y19642150D01*
X-457851Y19642152D01*
X-567114Y19722791D01*
X-567118Y19722793D01*
X-695295Y19767644D01*
X-695301Y19767646D01*
X-725734Y19770500D01*
X-1484266Y19770500D01*
X-1514699Y19767646D01*
X-1642882Y19722793D01*
X-1642884Y19722791D01*
X-1642885Y19722791D01*
X-1752150Y19642150D01*
X-1831301Y19534903D01*
X-1832793Y19532882D01*
X-1877646Y19404699D01*
X-1880500Y19374266D01*
X-3279500Y19374266D01*
X-3282354Y19404700D01*
X-3282355Y19404704D01*
X-3327206Y19532881D01*
X-3327208Y19532885D01*
X-3407849Y19642150D01*
X-3517114Y19722791D01*
X-3517118Y19722793D01*
X-3645295Y19767644D01*
X-3645301Y19767646D01*
X-3675734Y19770500D01*
X-3675736Y19770500D01*
X-4050977Y19770500D01*
X-4119098Y19790502D01*
X-4165591Y19844158D01*
X-4175899Y19912946D01*
X-4159974Y20033910D01*
X-4159974Y20033911D01*
X-4180611Y20190671D01*
X-4241119Y20336750D01*
X-4241121Y20336753D01*
X-4286750Y20396218D01*
X-4336367Y20460881D01*
X-4361967Y20527101D01*
X-4347702Y20596649D01*
X-4298101Y20647445D01*
X-4252849Y20662506D01*
X-4226828Y20665931D01*
X-4119594Y20715935D01*
X-4119593Y20715936D01*
X-4029095Y20806435D01*
X-3966783Y20840461D01*
X-3895968Y20835396D01*
X-3850905Y20806435D01*
X-3760405Y20715935D01*
X-3653171Y20665931D01*
X-3604322Y20659500D01*
X-3604316Y20659500D01*
X-3255677Y20659500D01*
X-3206828Y20665931D01*
X-3099594Y20715935D01*
X-3015935Y20799594D01*
X-2965931Y20906828D01*
X-2959500Y20955677D01*
X-2959500Y21404322D01*
X-2965931Y21453171D01*
X-3015935Y21560405D01*
X-3067595Y21612065D01*
X-3101621Y21674377D01*
X-3104500Y21701160D01*
X-3104500Y21785916D01*
X-3100207Y21818526D01*
X-3084500Y21877146D01*
X-3084500Y22660714D01*
X-3064498Y22728835D01*
X-3035204Y22760676D01*
X-2981717Y22801717D01*
X-2910324Y22894759D01*
X-2852986Y22936626D01*
X-2782115Y22940848D01*
X-2762145Y22934464D01*
X-2666762Y22894956D01*
X-2510001Y22874318D01*
X-2510000Y22874318D01*
X-2509998Y22874318D01*
X-2419006Y22886296D01*
X-2348857Y22875356D01*
X-2339563Y22870494D01*
X-2315641Y22856683D01*
X-2315642Y22856683D01*
X-2315638Y22856682D01*
X-2232853Y22834500D01*
X-2147147Y22834500D01*
X-1961230Y22834500D01*
X-1893109Y22814498D01*
X-1846616Y22760842D01*
X-1836512Y22690568D01*
X-1866006Y22625988D01*
X-1872121Y22619418D01*
X-1923224Y22568316D01*
X-1973972Y22459487D01*
X-1980500Y22409901D01*
X-1980499Y22199390D01*
X-1980499Y21990101D01*
X-1980498Y21990089D01*
X-1978949Y21978321D01*
X-1973972Y21940513D01*
X-1937931Y21863224D01*
X-1923223Y21831682D01*
X-1862405Y21770864D01*
X-1828379Y21708552D01*
X-1825500Y21681769D01*
X-1825500Y21621160D01*
X-1845502Y21553039D01*
X-1862405Y21532065D01*
X-1910795Y21483674D01*
X-1924065Y21470404D01*
X-1974068Y21363173D01*
X-1980500Y21314316D01*
X-1980500Y20865684D01*
X-1974068Y20816827D01*
X-1924065Y20709596D01*
X-1924064Y20709594D01*
X-1840405Y20625935D01*
X-1733171Y20575931D01*
X-1684322Y20569500D01*
X-1684316Y20569500D01*
X-1335677Y20569500D01*
X-1286828Y20575931D01*
X-1179594Y20625935D01*
X-1179593Y20625936D01*
X-1089095Y20716435D01*
X-1026783Y20750461D01*
X-955968Y20745396D01*
X-910905Y20716435D01*
X-820405Y20625935D01*
X-713171Y20575931D01*
X-664322Y20569500D01*
X-664316Y20569500D01*
X-482017Y20569500D01*
X-413896Y20549498D01*
X-392926Y20532599D01*
X-347445Y20487118D01*
X-329863Y20469536D01*
X-329858Y20469532D01*
X-255637Y20426681D01*
X-251506Y20425574D01*
X-206227Y20399430D01*
X-204834Y20401246D01*
X-198282Y20396219D01*
X-198282Y20396218D01*
X-72842Y20299965D01*
X-72839Y20299963D01*
X73239Y20239455D01*
X230000Y20218818D01*
X386760Y20239455D01*
X532839Y20299963D01*
X532842Y20299965D01*
X658282Y20396218D01*
X754536Y20521659D01*
X815044Y20667738D01*
X835682Y20824500D01*
X815044Y20981262D01*
X754536Y21127341D01*
X658282Y21252782D01*
X532841Y21349036D01*
X386762Y21409544D01*
X230000Y21430182D01*
X73238Y21409544D01*
X73235Y21409543D01*
X67982Y21408136D01*
X-2994Y21409827D01*
X-61789Y21449622D01*
X-69331Y21461568D01*
X-69611Y21461373D01*
X-75936Y21470406D01*
X-127595Y21522065D01*
X-161621Y21584377D01*
X-164500Y21611160D01*
X-164500Y21731769D01*
X-144498Y21799890D01*
X-127595Y21820864D01*
X-116777Y21831681D01*
X-116776Y21831682D01*
X-66027Y21940514D01*
X-59500Y21990094D01*
X-59500Y21990107D01*
X-59500Y22146963D01*
X-59500Y22307584D01*
X-39499Y22375704D01*
X14156Y22422197D01*
X84430Y22432302D01*
X149011Y22402809D01*
X180692Y22360837D01*
X185933Y22349598D01*
X185936Y22349593D01*
X269594Y22265935D01*
X376828Y22215931D01*
X425677Y22209500D01*
X425684Y22209500D01*
X874322Y22209500D01*
X923171Y22215931D01*
X1030405Y22265935D01*
X1114064Y22349594D01*
X1142186Y22409901D01*
X1164068Y22456827D01*
X1170500Y22505684D01*
X1170500Y22574981D01*
X1190502Y22643102D01*
X1244158Y22689595D01*
X1314432Y22699699D01*
X1379012Y22670205D01*
X1385596Y22664076D01*
X1638477Y22411194D01*
X1672502Y22348882D01*
X1674303Y22338546D01*
X1692439Y22200786D01*
X1752947Y22054707D01*
X1752952Y22054699D01*
X1792959Y22002561D01*
X1818559Y21936340D01*
X1804294Y21866792D01*
X1754692Y21815996D01*
X1704761Y21800408D01*
X1675301Y21797646D01*
X1675295Y21797644D01*
X1547118Y21752793D01*
X1547114Y21752791D01*
X1437849Y21672150D01*
X1357208Y21562885D01*
X1357206Y21562881D01*
X1312355Y21434704D01*
X1312354Y21434700D01*
X1309500Y21404266D01*
X1309500Y20645733D01*
X1312354Y20615299D01*
X1312355Y20615295D01*
X1357206Y20487118D01*
X1357208Y20487114D01*
X1437849Y20377849D01*
X1547114Y20297208D01*
X1547118Y20297206D01*
X1675295Y20252355D01*
X1675299Y20252354D01*
X1705733Y20249500D01*
X1705734Y20249500D01*
X3114266Y20249500D01*
X3144700Y20252354D01*
X3144704Y20252355D01*
X3272881Y20297206D01*
X3272885Y20297208D01*
X3382150Y20377849D01*
X3462791Y20487114D01*
X3462793Y20487118D01*
X3505071Y20607940D01*
X3546449Y20665632D01*
X3612450Y20691794D01*
X3682117Y20678121D01*
X3733333Y20628954D01*
X3750000Y20566325D01*
X3750000Y16626000D01*
X3729998Y16557879D01*
X3676342Y16511386D01*
X3624000Y16500000D01*
X-19874000Y16500000D01*
X-19942121Y16520002D01*
X-19988614Y16573658D01*
X-20000000Y16626000D01*
X-20000000Y18359901D01*
X-11260500Y18359901D01*
X-11260499Y18136641D01*
X-11260499Y17940101D01*
X-11260498Y17940089D01*
X-11259867Y17935299D01*
X-11253972Y17890513D01*
X-11236408Y17852847D01*
X-11203223Y17781682D01*
X-11118317Y17696776D01*
X-11009485Y17646027D01*
X-10972955Y17641218D01*
X-10959901Y17639500D01*
X-10959899Y17639500D01*
X-10600101Y17639500D01*
X-10600089Y17639501D01*
X-10550516Y17646027D01*
X-10550510Y17646029D01*
X-10441682Y17696776D01*
X-10356776Y17781682D01*
X-10306027Y17890514D01*
X-10299500Y17940094D01*
X-10299500Y18359898D01*
X-10299501Y18359910D01*
X-10306027Y18409483D01*
X-10306029Y18409489D01*
X-10356776Y18518317D01*
X-10397899Y18559440D01*
X-10431925Y18621752D01*
X-10426860Y18692567D01*
X-10397900Y18737630D01*
X-10315935Y18819595D01*
X-10315116Y18820766D01*
X-10313365Y18822165D01*
X-10308141Y18827390D01*
X-10307558Y18826807D01*
X-10259661Y18865097D01*
X-10211900Y18874500D01*
X-10118100Y18874500D01*
X-10049979Y18854498D01*
X-10014884Y18820766D01*
X-10014062Y18819592D01*
X-9930405Y18735935D01*
X-9823171Y18685931D01*
X-9774322Y18679500D01*
X-9774316Y18679500D01*
X-9425677Y18679500D01*
X-9376828Y18685931D01*
X-9269594Y18735935D01*
X-9269593Y18735936D01*
X-9179095Y18826435D01*
X-9116783Y18860461D01*
X-9045968Y18855396D01*
X-9000905Y18826435D01*
X-8910405Y18735935D01*
X-8803171Y18685931D01*
X-8754322Y18679500D01*
X-8754316Y18679500D01*
X-8405677Y18679500D01*
X-8356828Y18685931D01*
X-8249594Y18735935D01*
X-8165937Y18819592D01*
X-8165116Y18820766D01*
X-8163361Y18822168D01*
X-8158140Y18827390D01*
X-8157557Y18826807D01*
X-8109661Y18865097D01*
X-8061900Y18874500D01*
X-7916193Y18874500D01*
X-7848072Y18854498D01*
X-7801579Y18800842D01*
X-7790800Y18760850D01*
X-7788080Y18733239D01*
X-7785500Y18707046D01*
X-7725432Y18509026D01*
X-7627885Y18326530D01*
X-7496610Y18166570D01*
X-7336650Y18035295D01*
X-7336648Y18035294D01*
X-7336647Y18035293D01*
X-7206514Y17965735D01*
X-7154154Y17937748D01*
X-6998443Y17890514D01*
X-6956127Y17877678D01*
X-6750203Y17857397D01*
X-6750200Y17857397D01*
X-6750197Y17857397D01*
X-6544272Y17877678D01*
X-6346245Y17937748D01*
X-6163752Y18035293D01*
X-6040258Y18136641D01*
X-6004034Y18152024D01*
X-5995125Y18176810D01*
X-5990765Y18182440D01*
X-5872513Y18326532D01*
X-5774968Y18509025D01*
X-5714898Y18707052D01*
X-5694617Y18912976D01*
X-5694617Y18912983D01*
X-5714898Y19118907D01*
X-5738328Y19196145D01*
X-5774968Y19316934D01*
X-5827138Y19414536D01*
X-5872513Y19499427D01*
X-5895390Y19527303D01*
X-6003790Y19659390D01*
X-6163750Y19790665D01*
X-6346246Y19888212D01*
X-6544266Y19948280D01*
X-6544270Y19948280D01*
X-6544272Y19948281D01*
X-6750197Y19968563D01*
X-6750203Y19968563D01*
X-6956127Y19948281D01*
X-6956128Y19948280D01*
X-6956134Y19948280D01*
X-7154154Y19888212D01*
X-7336650Y19790665D01*
X-7496610Y19659390D01*
X-7561429Y19580407D01*
X-7568684Y19571567D01*
X-7627361Y19531598D01*
X-7666084Y19525500D01*
X-8061900Y19525500D01*
X-8130021Y19545502D01*
X-8165116Y19579234D01*
X-8165937Y19580407D01*
X-8249594Y19664064D01*
X-8249596Y19664065D01*
X-8356827Y19714068D01*
X-8405684Y19720500D01*
X-8754316Y19720500D01*
X-8803173Y19714068D01*
X-8910404Y19664065D01*
X-8910405Y19664064D01*
X-8910406Y19664063D01*
X-9000905Y19573565D01*
X-9063217Y19539539D01*
X-9134032Y19544604D01*
X-9179095Y19573565D01*
X-9269594Y19664064D01*
X-9269596Y19664065D01*
X-9376827Y19714068D01*
X-9425684Y19720500D01*
X-9774316Y19720500D01*
X-9823173Y19714068D01*
X-9930404Y19664065D01*
X-10014065Y19580404D01*
X-10014066Y19580400D01*
X-10014884Y19579234D01*
X-10016638Y19577831D01*
X-10021860Y19572610D01*
X-10022442Y19573192D01*
X-10070339Y19534903D01*
X-10118100Y19525500D01*
X-10211900Y19525500D01*
X-10280021Y19545502D01*
X-10315116Y19579234D01*
X-10315937Y19580407D01*
X-10399594Y19664064D01*
X-10399596Y19664065D01*
X-10506827Y19714068D01*
X-10555684Y19720500D01*
X-10904316Y19720500D01*
X-10953173Y19714068D01*
X-11060404Y19664065D01*
X-11144065Y19580404D01*
X-11194068Y19473173D01*
X-11200500Y19424316D01*
X-11200500Y18975684D01*
X-11194068Y18926827D01*
X-11147254Y18826435D01*
X-11144064Y18819594D01*
X-11142405Y18817935D01*
X-11140643Y18814709D01*
X-11137743Y18810567D01*
X-11138204Y18810243D01*
X-11108379Y18755623D01*
X-11105500Y18728840D01*
X-11105500Y18668231D01*
X-11125502Y18600110D01*
X-11142405Y18579136D01*
X-11203222Y18518318D01*
X-11203224Y18518316D01*
X-11253972Y18409487D01*
X-11260500Y18359901D01*
X-20000000Y18359901D01*
X-20000000Y27406600D01*
X-17244533Y27406600D01*
X-17226097Y27278374D01*
X-17172282Y27160537D01*
X-17114461Y27093807D01*
X-17087448Y27062632D01*
X-16978473Y26992598D01*
X-16978470Y26992596D01*
X-16978469Y26992596D01*
X-16978466Y26992595D01*
X-16854176Y26956101D01*
X-16854174Y26956100D01*
X-16854172Y26956100D01*
X-16854168Y26956100D01*
X-16724632Y26956100D01*
X-16724628Y26956100D01*
X-16724625Y26956100D01*
X-16724623Y26956101D01*
X-16600333Y26992595D01*
X-16600326Y26992598D01*
X-16491351Y27062632D01*
X-16406518Y27160537D01*
X-16379562Y27219562D01*
X-16352703Y27278374D01*
X-16334267Y27406600D01*
X-16352703Y27534826D01*
X-16406518Y27652663D01*
X-16491351Y27750567D01*
X-16522646Y27770679D01*
X-16600326Y27820601D01*
X-16600331Y27820604D01*
X-16724628Y27857100D01*
X-16854172Y27857100D01*
X-16978469Y27820604D01*
X-17087449Y27750567D01*
X-17172282Y27652663D01*
X-17226097Y27534826D01*
X-17244533Y27406600D01*
X-20000000Y27406600D01*
X-20000000Y40767003D01*
X-18124941Y40767003D01*
X-18124941Y40766996D01*
X-18105625Y40570875D01*
X-18105625Y40570873D01*
X-18105624Y40570870D01*
X-18105624Y40570868D01*
X-18048414Y40382273D01*
X-17955510Y40208462D01*
X-17830483Y40056117D01*
X-17704505Y39952729D01*
X-17678138Y39931090D01*
X-17504328Y39838186D01*
X-17315725Y39780974D01*
X-17119603Y39761659D01*
X-17119600Y39761659D01*
X-17119597Y39761659D01*
X-16923475Y39780974D01*
X-16923473Y39780974D01*
X-16734871Y39838186D01*
X-16561061Y39931090D01*
X-16408717Y40056117D01*
X-16283690Y40208461D01*
X-16190786Y40382271D01*
X-16133574Y40570873D01*
X-16133574Y40570875D01*
X-16114259Y40766996D01*
X-16114259Y40767003D01*
X-16133574Y40963124D01*
X-16133574Y40963126D01*
X-16190786Y41151728D01*
X-16283690Y41325538D01*
X-16408717Y41477883D01*
X-16561062Y41602910D01*
X-16734873Y41695814D01*
X-16923468Y41753024D01*
X-16923472Y41753024D01*
X-16923474Y41753025D01*
X-17119597Y41772341D01*
X-17119603Y41772341D01*
X-17315724Y41753025D01*
X-17315726Y41753025D01*
X-17315727Y41753024D01*
X-17315732Y41753024D01*
X-17504327Y41695814D01*
X-17678138Y41602910D01*
X-17830483Y41477883D01*
X-17955510Y41325538D01*
X-18048414Y41151727D01*
X-18105624Y40963132D01*
X-18105624Y40963127D01*
X-18105625Y40963126D01*
X-18105625Y40963124D01*
X-18124941Y40767003D01*
X-20000000Y40767003D01*
X-20000000Y42374000D01*
X-19979998Y42442121D01*
X-19926342Y42488614D01*
X-19874000Y42500000D01*
X-9126000Y42500000D01*
X-9057879Y42479998D01*
G37*
%TD.AperFunction*%
%TA.AperFunction,Conductor*%
G36*
X12022304Y34681098D02*
G01*
X12043278Y34664195D01*
X12362995Y34344478D01*
X12397021Y34282166D01*
X12399900Y34255383D01*
X12399900Y33443853D01*
X12399900Y33358147D01*
X12422082Y33275361D01*
X12422083Y33275359D01*
X12422084Y33275356D01*
X12464932Y33201141D01*
X12464940Y33201131D01*
X13316709Y32349364D01*
X13595233Y32070840D01*
X13595235Y32070838D01*
X13616515Y32049558D01*
X13632457Y32033616D01*
X13666481Y31971304D01*
X13661415Y31900488D01*
X13618868Y31843653D01*
X13591580Y31828114D01*
X13565559Y31817336D01*
X13440118Y31721082D01*
X13376599Y31638302D01*
X13343865Y31595642D01*
X13343863Y31595639D01*
X13283355Y31449560D01*
X13262718Y31292800D01*
X13262718Y31292799D01*
X13283355Y31136039D01*
X13343863Y30989960D01*
X13343865Y30989957D01*
X13440118Y30864518D01*
X13565557Y30768265D01*
X13565560Y30768263D01*
X13711639Y30707755D01*
X13868400Y30687118D01*
X14025160Y30707755D01*
X14171239Y30768263D01*
X14171242Y30768265D01*
X14178368Y30773733D01*
X14296682Y30864518D01*
X14296684Y30864520D01*
X14337724Y30918004D01*
X14395062Y30959871D01*
X14437686Y30967300D01*
X15145183Y30967300D01*
X15213304Y30947298D01*
X15234278Y30930395D01*
X17637595Y28527078D01*
X17671621Y28464766D01*
X17674500Y28437983D01*
X17674500Y25462707D01*
X17654498Y25394586D01*
X17600842Y25348093D01*
X17573080Y25339128D01*
X17572721Y25339056D01*
X17571769Y25338867D01*
X17505448Y25294552D01*
X17495553Y25279743D01*
X17461133Y25228231D01*
X17461132Y25228228D01*
X17449500Y25169750D01*
X17449500Y20876000D01*
X17429498Y20807879D01*
X17375842Y20761386D01*
X17323500Y20750000D01*
X16576000Y20750000D01*
X16507879Y20770002D01*
X16461386Y20823658D01*
X16450000Y20876000D01*
X16450000Y27000000D01*
X16447398Y27099574D01*
X16447398Y27099576D01*
X16405992Y27294375D01*
X16324990Y27476308D01*
X16207932Y27637425D01*
X16059934Y27770683D01*
X15887464Y27870258D01*
X15698060Y27931800D01*
X15500000Y27952617D01*
X15301940Y27931800D01*
X15112536Y27870258D01*
X14940066Y27770683D01*
X14940063Y27770680D01*
X14940061Y27770679D01*
X14792069Y27637427D01*
X14675012Y27476312D01*
X14675010Y27476308D01*
X14632032Y27379777D01*
X14594008Y27294375D01*
X14552601Y27099574D01*
X14550000Y27000000D01*
X14550000Y20876000D01*
X14529998Y20807879D01*
X14476342Y20761386D01*
X14424000Y20750000D01*
X13676500Y20750000D01*
X13608379Y20770002D01*
X13561886Y20823658D01*
X13550500Y20876000D01*
X13550500Y25169746D01*
X13550500Y25169748D01*
X13538867Y25228231D01*
X13494552Y25294552D01*
X13428231Y25338867D01*
X13401918Y25344101D01*
X13339009Y25377009D01*
X13303877Y25438704D01*
X13300500Y25467680D01*
X13300500Y26020838D01*
X13320502Y26088959D01*
X13349796Y26120801D01*
X13351578Y26122168D01*
X13468282Y26211718D01*
X13564536Y26337159D01*
X13625044Y26483238D01*
X13638858Y26588166D01*
X13645682Y26639999D01*
X13645682Y26640000D01*
X13633626Y26731575D01*
X13625044Y26796762D01*
X13564536Y26942841D01*
X13468282Y27068282D01*
X13342841Y27164536D01*
X13196762Y27225044D01*
X13040000Y27245682D01*
X12883238Y27225044D01*
X12737159Y27164536D01*
X12611718Y27068282D01*
X12611716Y27068280D01*
X12611715Y27068279D01*
X12561027Y27002221D01*
X12503689Y26960354D01*
X12432818Y26956132D01*
X12384365Y26978960D01*
X12272841Y27064536D01*
X12126762Y27125044D01*
X11970000Y27145682D01*
X11813238Y27125044D01*
X11667159Y27064536D01*
X11541718Y26968282D01*
X11541717Y26968280D01*
X11541716Y26968280D01*
X11526463Y26948401D01*
X11469126Y26906533D01*
X11398255Y26902311D01*
X11336352Y26937074D01*
X11303070Y26999786D01*
X11300500Y27025104D01*
X11300500Y27219562D01*
X11292381Y27249862D01*
X11280022Y27295988D01*
X11240460Y27364511D01*
X10632529Y27972440D01*
X10598506Y28034751D01*
X10603570Y28105566D01*
X10646117Y28162402D01*
X10705178Y28186456D01*
X10720099Y28188420D01*
X10731762Y28189956D01*
X10835054Y28232741D01*
X10877839Y28250463D01*
X10877842Y28250465D01*
X10879028Y28251375D01*
X11003282Y28346718D01*
X11099536Y28472159D01*
X11160044Y28618238D01*
X11179844Y28768634D01*
X11180682Y28774999D01*
X11180682Y28775000D01*
X11168563Y28867052D01*
X11160044Y28931762D01*
X11099536Y29077841D01*
X11003282Y29203282D01*
X10877841Y29299536D01*
X10877838Y29299536D01*
X10871866Y29304120D01*
X10829998Y29361458D01*
X10825776Y29432329D01*
X10848607Y29480787D01*
X10899531Y29547152D01*
X10899532Y29547154D01*
X10899536Y29547159D01*
X10949259Y29667200D01*
X11256118Y29667200D01*
X11256118Y29667199D01*
X11276755Y29510439D01*
X11337263Y29364360D01*
X11337265Y29364357D01*
X11433518Y29238918D01*
X11558957Y29142665D01*
X11558960Y29142663D01*
X11705039Y29082155D01*
X11861800Y29061518D01*
X12018560Y29082155D01*
X12164639Y29142663D01*
X12164642Y29142665D01*
X12174072Y29149901D01*
X12290082Y29238918D01*
X12386336Y29364359D01*
X12446844Y29510438D01*
X12467482Y29667200D01*
X12446844Y29823962D01*
X12386336Y29970041D01*
X12290082Y30095482D01*
X12164641Y30191736D01*
X12018562Y30252244D01*
X11861800Y30272882D01*
X11705038Y30252244D01*
X11558959Y30191736D01*
X11433518Y30095482D01*
X11337265Y29970042D01*
X11337263Y29970039D01*
X11276755Y29823960D01*
X11256118Y29667200D01*
X10949259Y29667200D01*
X10960044Y29693238D01*
X10974058Y29799687D01*
X10980682Y29849999D01*
X10980682Y29850000D01*
X10978486Y29866682D01*
X10960044Y30006762D01*
X10899536Y30152841D01*
X10803282Y30278282D01*
X10677841Y30374536D01*
X10531762Y30435044D01*
X10375000Y30455682D01*
X10308158Y30446881D01*
X10238013Y30457819D01*
X10202621Y30482704D01*
X10141403Y30543923D01*
X10107379Y30606235D01*
X10104500Y30633017D01*
X10104500Y30636100D01*
X10124502Y30704221D01*
X10178158Y30750714D01*
X10230500Y30762100D01*
X10459150Y30762100D01*
X10517628Y30773732D01*
X10517631Y30773733D01*
X10538061Y30787384D01*
X10583952Y30818048D01*
X10628267Y30884369D01*
X10639900Y30942852D01*
X10639900Y31525100D01*
X10659902Y31593221D01*
X10713558Y31639714D01*
X10765900Y31651100D01*
X11348150Y31651100D01*
X11406628Y31662732D01*
X11406631Y31662733D01*
X11439105Y31684432D01*
X11472952Y31707048D01*
X11517267Y31773369D01*
X11528900Y31831852D01*
X11528900Y32176148D01*
X11517508Y32233420D01*
X11517508Y32282582D01*
X11528900Y32339852D01*
X11528900Y32684148D01*
X11517508Y32741420D01*
X11517508Y32790582D01*
X11517794Y32792019D01*
X11528900Y32847852D01*
X11528900Y33192148D01*
X11520034Y33236720D01*
X11520034Y33285881D01*
X11528900Y33330452D01*
X11528900Y33674748D01*
X11517508Y33732020D01*
X11517508Y33781182D01*
X11521586Y33801684D01*
X11528900Y33838452D01*
X11528900Y34182748D01*
X11517508Y34240020D01*
X11517508Y34289182D01*
X11517758Y34290437D01*
X11528900Y34346452D01*
X11528900Y34575100D01*
X11548902Y34643221D01*
X11602558Y34689714D01*
X11654900Y34701100D01*
X11954183Y34701100D01*
X12022304Y34681098D01*
G37*
%TD.AperFunction*%
%TA.AperFunction,Conductor*%
G36*
X2142532Y30358038D02*
G01*
X2199368Y30315491D01*
X2224179Y30248971D01*
X2224500Y30239982D01*
X2224500Y24450894D01*
X2204498Y24382773D01*
X2150842Y24336280D01*
X2080568Y24326176D01*
X2021796Y24350932D01*
X2009448Y24360407D01*
X1912841Y24434536D01*
X1766762Y24495044D01*
X1610000Y24515682D01*
X1453238Y24495044D01*
X1307159Y24434536D01*
X1181718Y24338282D01*
X1117470Y24254552D01*
X1102311Y24234796D01*
X1044973Y24192929D01*
X1002348Y24185500D01*
X521500Y24185500D01*
X453379Y24205502D01*
X406886Y24259158D01*
X395500Y24311500D01*
X395500Y24602851D01*
X395500Y24602853D01*
X373318Y24685638D01*
X342527Y24738969D01*
X325647Y24801968D01*
X325647Y24810001D01*
X321783Y24836874D01*
X320500Y24854807D01*
X320500Y25279743D01*
X320010Y25284717D01*
X333236Y25354471D01*
X340629Y25367060D01*
X383867Y25431769D01*
X395500Y25490252D01*
X395500Y26029748D01*
X395500Y26362983D01*
X415502Y26431104D01*
X432405Y26452078D01*
X472922Y26492595D01*
X535234Y26526621D01*
X562017Y26529500D01*
X744322Y26529500D01*
X793171Y26535931D01*
X900405Y26585935D01*
X984064Y26669594D01*
X996733Y26696762D01*
X1034068Y26776827D01*
X1040500Y26825684D01*
X1040500Y27274316D01*
X1034068Y27323173D01*
X984065Y27430404D01*
X900404Y27514065D01*
X793173Y27564068D01*
X744316Y27570500D01*
X395684Y27570500D01*
X346827Y27564068D01*
X251457Y27519596D01*
X239594Y27514064D01*
X195595Y27470065D01*
X133283Y27436039D01*
X62468Y27441104D01*
X5632Y27483651D01*
X-19179Y27550171D01*
X-19500Y27559160D01*
X-19500Y27614322D01*
X-25931Y27663171D01*
X-75936Y27770406D01*
X-127595Y27822065D01*
X-161621Y27884377D01*
X-164500Y27911160D01*
X-164500Y28241769D01*
X-144498Y28309890D01*
X-127595Y28330864D01*
X-116777Y28341681D01*
X-116776Y28341682D01*
X-66027Y28450514D01*
X-59500Y28500094D01*
X-59500Y28919898D01*
X-59501Y28919910D01*
X-66027Y28969483D01*
X-66029Y28969489D01*
X-116776Y29078317D01*
X-177595Y29139136D01*
X-211621Y29201448D01*
X-214500Y29228231D01*
X-214500Y29313514D01*
X-194498Y29381635D01*
X-188464Y29390216D01*
X-175468Y29407153D01*
X-175463Y29407160D01*
X-114955Y29553239D01*
X-94318Y29709999D01*
X-94318Y29710000D01*
X-114930Y29866565D01*
X-103991Y29936714D01*
X-56862Y29989812D01*
X9992Y30009011D01*
X258471Y30009011D01*
X315978Y29992125D01*
X316787Y29993742D01*
X316789Y29993741D01*
X321128Y29990613D01*
X326592Y29989009D01*
X347566Y29972106D01*
X349528Y29970143D01*
X349533Y29970139D01*
X349534Y29970139D01*
X349535Y29970138D01*
X368540Y29951133D01*
X410136Y29909536D01*
X410139Y29909534D01*
X439032Y29892853D01*
X439031Y29892852D01*
X484355Y29866684D01*
X484367Y29866679D01*
X567143Y29844499D01*
X567147Y29844499D01*
X660571Y29844499D01*
X660587Y29844500D01*
X1432851Y29844500D01*
X1432853Y29844500D01*
X1515639Y29866682D01*
X1515641Y29866683D01*
X1515643Y29866684D01*
X1589858Y29909532D01*
X1589868Y29909540D01*
X2009405Y30329077D01*
X2071717Y30363103D01*
X2142532Y30358038D01*
G37*
%TD.AperFunction*%
%TA.AperFunction,Conductor*%
G36*
X19348904Y32434498D02*
G01*
X19369878Y32417595D01*
X19830933Y31956540D01*
X19830935Y31956538D01*
X19847911Y31939562D01*
X19891536Y31895936D01*
X19891541Y31895932D01*
X19922872Y31877843D01*
X19922873Y31877844D01*
X19965765Y31853080D01*
X20048544Y31830899D01*
X20048548Y31830899D01*
X20141971Y31830899D01*
X20141987Y31830900D01*
X21505851Y31830900D01*
X21505853Y31830900D01*
X21588639Y31853082D01*
X21588641Y31853083D01*
X21588643Y31853084D01*
X21662861Y31895934D01*
X21663854Y31896696D01*
X21664841Y31897077D01*
X21670014Y31900064D01*
X21670479Y31899257D01*
X21730074Y31922295D01*
X21799623Y31908029D01*
X21850418Y31858427D01*
X21866333Y31789238D01*
X21865479Y31780290D01*
X21864500Y31772851D01*
X21864500Y31495913D01*
X21844498Y31427792D01*
X21790842Y31381299D01*
X21720568Y31371195D01*
X21655988Y31400689D01*
X21633735Y31425911D01*
X21617933Y31449560D01*
X21594552Y31484552D01*
X21528231Y31528867D01*
X21469748Y31540500D01*
X20830252Y31540500D01*
X20771769Y31528867D01*
X20705448Y31484552D01*
X20692841Y31465684D01*
X20661133Y31418231D01*
X20661132Y31418228D01*
X20649500Y31359750D01*
X20649500Y30841500D01*
X20629498Y30773379D01*
X20575842Y30726886D01*
X20523500Y30715500D01*
X20234632Y30715500D01*
X20166511Y30735502D01*
X20134671Y30764793D01*
X20078282Y30838282D01*
X19952841Y30934536D01*
X19806762Y30995044D01*
X19650000Y31015682D01*
X19493238Y30995044D01*
X19347159Y30934536D01*
X19221718Y30838282D01*
X19125465Y30712842D01*
X19125463Y30712839D01*
X19064955Y30566760D01*
X19044318Y30410000D01*
X19044318Y30409999D01*
X19064955Y30253239D01*
X19125463Y30107160D01*
X19125465Y30107157D01*
X19221718Y29981718D01*
X19347157Y29885465D01*
X19347160Y29885463D01*
X19493239Y29824955D01*
X19650000Y29804318D01*
X19806760Y29824955D01*
X19952839Y29885463D01*
X19952842Y29885465D01*
X19962469Y29892852D01*
X20078282Y29981718D01*
X20103977Y30015205D01*
X20161314Y30057071D01*
X20203939Y30064500D01*
X20591960Y30064500D01*
X20660081Y30044498D01*
X20696724Y30008504D01*
X20705448Y29995447D01*
X20771768Y29951133D01*
X20771771Y29951132D01*
X20830249Y29939500D01*
X20830252Y29939500D01*
X21469750Y29939500D01*
X21528228Y29951132D01*
X21528231Y29951133D01*
X21594552Y29995448D01*
X21633736Y30054089D01*
X21688213Y30099616D01*
X21758656Y30108463D01*
X21822700Y30077822D01*
X21860011Y30017419D01*
X21864500Y29984086D01*
X21864500Y29491053D01*
X21864500Y29405347D01*
X21886682Y29322561D01*
X21886683Y29322559D01*
X21886684Y29322556D01*
X21929532Y29248341D01*
X21929540Y29248331D01*
X23637595Y27540277D01*
X23671621Y27477965D01*
X23674500Y27451182D01*
X23674500Y26848949D01*
X23654498Y26780828D01*
X23600842Y26734335D01*
X23532056Y26724027D01*
X23393400Y26742282D01*
X23236638Y26721644D01*
X23090559Y26661136D01*
X22965118Y26564882D01*
X22868865Y26439442D01*
X22868863Y26439439D01*
X22808355Y26293360D01*
X22787718Y26136600D01*
X22787718Y26136599D01*
X22808355Y25979839D01*
X22868863Y25833760D01*
X22868865Y25833757D01*
X22965118Y25708318D01*
X23090557Y25612065D01*
X23090558Y25612064D01*
X23090559Y25612064D01*
X23136806Y25592907D01*
X23192085Y25548360D01*
X23214506Y25480997D01*
X23196948Y25412206D01*
X23144985Y25363827D01*
X23088586Y25350500D01*
X22630252Y25350500D01*
X22571769Y25338867D01*
X22570002Y25337686D01*
X22565566Y25336297D01*
X22560306Y25334118D01*
X22560110Y25334588D01*
X22502249Y25316471D01*
X22433782Y25335254D01*
X22429998Y25337686D01*
X22428231Y25338867D01*
X22427208Y25339070D01*
X22426920Y25339128D01*
X22424333Y25340481D01*
X22416763Y25343617D01*
X22417043Y25344294D01*
X22364010Y25372035D01*
X22328877Y25433729D01*
X22325500Y25462707D01*
X22325500Y26209412D01*
X22325501Y26209430D01*
X22325501Y26302853D01*
X22325500Y26302856D01*
X22303320Y26385631D01*
X22303319Y26385631D01*
X22303318Y26385638D01*
X22298181Y26394536D01*
X22288228Y26411775D01*
X22273837Y26436700D01*
X22260465Y26459862D01*
X22199862Y26520465D01*
X22189496Y26530831D01*
X22189486Y26530838D01*
X21739062Y26981265D01*
X21664839Y27024118D01*
X21582053Y27046300D01*
X21582051Y27046300D01*
X21228904Y27046300D01*
X21160783Y27066302D01*
X21114290Y27119958D01*
X21104186Y27190232D01*
X21112492Y27220509D01*
X21155044Y27323238D01*
X21175196Y27476308D01*
X21175682Y27479999D01*
X21175682Y27480000D01*
X21173049Y27500000D01*
X21155044Y27636762D01*
X21094536Y27782841D01*
X20998282Y27908282D01*
X20872841Y28004536D01*
X20726762Y28065044D01*
X20570000Y28085682D01*
X20413238Y28065044D01*
X20267159Y28004536D01*
X20141718Y27908282D01*
X20045465Y27782842D01*
X20045463Y27782839D01*
X19984955Y27636760D01*
X19974727Y27559065D01*
X19946005Y27494138D01*
X19886739Y27455046D01*
X19815748Y27454201D01*
X19760710Y27486416D01*
X19666405Y27580721D01*
X19632379Y27643033D01*
X19629500Y27669816D01*
X19629500Y28067212D01*
X19629501Y28067230D01*
X19629501Y28160652D01*
X19629500Y28160655D01*
X19626106Y28173320D01*
X19611307Y28228552D01*
X19607319Y28243435D01*
X19607318Y28243435D01*
X19607318Y28243438D01*
X19583662Y28284411D01*
X19579936Y28290864D01*
X19567696Y28312065D01*
X19564465Y28317662D01*
X19503862Y28378265D01*
X19493495Y28388632D01*
X19493485Y28388639D01*
X15642722Y32239405D01*
X15608696Y32301717D01*
X15613761Y32372533D01*
X15656308Y32429368D01*
X15722828Y32454179D01*
X15731817Y32454500D01*
X19280783Y32454500D01*
X19348904Y32434498D01*
G37*
%TD.AperFunction*%
%TA.AperFunction,Conductor*%
G36*
X27592121Y39979998D02*
G01*
X27638614Y39926342D01*
X27650000Y39874000D01*
X27650000Y26598872D01*
X27629998Y26530751D01*
X27576342Y26484258D01*
X27506068Y26474154D01*
X27441488Y26503648D01*
X27424040Y26522164D01*
X27352282Y26615682D01*
X27226841Y26711936D01*
X27080762Y26772444D01*
X26924000Y26793082D01*
X26767238Y26772444D01*
X26621159Y26711936D01*
X26495718Y26615682D01*
X26495716Y26615680D01*
X26495715Y26615679D01*
X26435926Y26537761D01*
X26378588Y26495894D01*
X26307717Y26491672D01*
X26245814Y26526436D01*
X26236007Y26537754D01*
X26234682Y26539482D01*
X26171234Y26588167D01*
X26129367Y26645504D01*
X26125145Y26716374D01*
X26159908Y26778278D01*
X26211362Y26808703D01*
X26292721Y26833383D01*
X26292726Y26833385D01*
X26466538Y26926290D01*
X26486705Y26942841D01*
X26618883Y27051317D01*
X26743910Y27203662D01*
X26836814Y27377473D01*
X26894024Y27566068D01*
X26894024Y27566070D01*
X26894025Y27566073D01*
X26894025Y27566075D01*
X26913341Y27762196D01*
X26913341Y27762203D01*
X26894025Y27958324D01*
X26894025Y27958326D01*
X26894024Y27958327D01*
X26894024Y27958332D01*
X26836814Y28146927D01*
X26743910Y28320738D01*
X26618883Y28473083D01*
X26466538Y28598110D01*
X26292727Y28691014D01*
X26104132Y28748224D01*
X26104126Y28748224D01*
X26104125Y28748225D01*
X25908003Y28767541D01*
X25907997Y28767541D01*
X25711875Y28748225D01*
X25711873Y28748225D01*
X25711870Y28748224D01*
X25711868Y28748224D01*
X25523273Y28691014D01*
X25349462Y28598110D01*
X25197117Y28473083D01*
X25080400Y28330864D01*
X25072090Y28320738D01*
X24979186Y28146928D01*
X24921974Y27958326D01*
X24921974Y27958324D01*
X24902659Y27762203D01*
X24902659Y27762196D01*
X24921974Y27566075D01*
X24921974Y27566073D01*
X24979186Y27377471D01*
X25072090Y27203661D01*
X25197117Y27051317D01*
X25349459Y26926291D01*
X25491132Y26850565D01*
X25541780Y26800812D01*
X25557489Y26731575D01*
X25533273Y26664836D01*
X25508439Y26639480D01*
X25503560Y26635736D01*
X25503559Y26635736D01*
X25378118Y26539482D01*
X25378116Y26539480D01*
X25378115Y26539479D01*
X25340958Y26491055D01*
X25283620Y26449188D01*
X25212749Y26444966D01*
X25164293Y26467795D01*
X25144041Y26483336D01*
X24997962Y26543844D01*
X24841200Y26564482D01*
X24684438Y26543844D01*
X24538359Y26483336D01*
X24528203Y26475543D01*
X24461985Y26449943D01*
X24392436Y26464207D01*
X24341639Y26513808D01*
X24325500Y26575506D01*
X24325500Y27587612D01*
X24325501Y27587630D01*
X24325501Y27681052D01*
X24325500Y27681055D01*
X24303320Y27763831D01*
X24303319Y27763831D01*
X24303318Y27763838D01*
X24299527Y27770404D01*
X24260465Y27838062D01*
X24199862Y27898665D01*
X24189497Y27909030D01*
X24189488Y27909036D01*
X23399713Y28698812D01*
X23365690Y28761121D01*
X23370755Y28831937D01*
X23413302Y28888772D01*
X23472365Y28912826D01*
X23600960Y28929755D01*
X23747039Y28990263D01*
X23747042Y28990265D01*
X23750917Y28993238D01*
X23872482Y29086518D01*
X23872834Y29086976D01*
X23893755Y29114242D01*
X23905657Y29129752D01*
X23962993Y29171620D01*
X24033864Y29175842D01*
X24094714Y29142145D01*
X24149883Y29086976D01*
X24258714Y29036227D01*
X24301772Y29030559D01*
X24308299Y29029700D01*
X24308300Y29029700D01*
X24668098Y29029700D01*
X24668110Y29029701D01*
X24717683Y29036227D01*
X24717685Y29036227D01*
X24717687Y29036228D01*
X24761645Y29056726D01*
X24826517Y29086976D01*
X24911423Y29171882D01*
X24922419Y29195463D01*
X24962172Y29280713D01*
X24968700Y29330299D01*
X24968699Y29750100D01*
X24962172Y29799687D01*
X24911424Y29908516D01*
X24826516Y29993424D01*
X24717687Y30044172D01*
X24668101Y30050700D01*
X24308300Y30050699D01*
X24308298Y30050698D01*
X24308289Y30050698D01*
X24281943Y30047229D01*
X24258713Y30044172D01*
X24150566Y29993742D01*
X24149882Y29993423D01*
X24072658Y29916199D01*
X24010346Y29882173D01*
X23939531Y29887238D01*
X23883599Y29928592D01*
X23872482Y29943082D01*
X23747041Y30039336D01*
X23628280Y30088528D01*
X23573001Y30133075D01*
X23550580Y30200439D01*
X23550500Y30204936D01*
X23550500Y31359746D01*
X23550500Y31359748D01*
X23538867Y31418231D01*
X23494552Y31484552D01*
X23428231Y31528867D01*
X23369748Y31540500D01*
X22765018Y31540500D01*
X22696897Y31560502D01*
X22650404Y31614158D01*
X22640300Y31684432D01*
X22669794Y31749012D01*
X22675922Y31755595D01*
X23245455Y32325129D01*
X23245478Y32325150D01*
X23310459Y32390131D01*
X23310462Y32390135D01*
X23310465Y32390138D01*
X23310466Y32390141D01*
X23315492Y32396690D01*
X23318335Y32394508D01*
X23357855Y32432158D01*
X23390961Y32443719D01*
X23428228Y32451132D01*
X23428231Y32451133D01*
X23450690Y32466140D01*
X23494552Y32495448D01*
X23538867Y32561769D01*
X23550500Y32620252D01*
X23550500Y33859748D01*
X23538867Y33918231D01*
X23494552Y33984552D01*
X23428231Y34028867D01*
X23369748Y34040500D01*
X22730252Y34040500D01*
X22671769Y34028867D01*
X22645003Y34010982D01*
X22577250Y33989766D01*
X22508783Y34008548D01*
X22504997Y34010982D01*
X22478231Y34028867D01*
X22419748Y34040500D01*
X21780252Y34040500D01*
X21721769Y34028867D01*
X21655448Y33984552D01*
X21635079Y33954068D01*
X21611133Y33918231D01*
X21611132Y33918228D01*
X21599500Y33859750D01*
X21599500Y32805417D01*
X21579498Y32737296D01*
X21562595Y32716322D01*
X21365078Y32518805D01*
X21302766Y32484779D01*
X21275983Y32481900D01*
X20278417Y32481900D01*
X20210296Y32501902D01*
X20189321Y32518805D01*
X19954899Y32753227D01*
X19667662Y33040465D01*
X19593439Y33083318D01*
X19510653Y33105500D01*
X19510651Y33105500D01*
X14295416Y33105500D01*
X14227295Y33125502D01*
X14206321Y33142405D01*
X13660905Y33687821D01*
X13626879Y33750133D01*
X13624000Y33776916D01*
X13624000Y34804351D01*
X13624000Y34804353D01*
X13605267Y34874266D01*
X16603300Y34874266D01*
X16603300Y34115733D01*
X16606154Y34085299D01*
X16606155Y34085295D01*
X16651006Y33957118D01*
X16651008Y33957114D01*
X16731649Y33847849D01*
X16840914Y33767208D01*
X16840918Y33767206D01*
X16969095Y33722355D01*
X16969099Y33722354D01*
X16999533Y33719500D01*
X16999534Y33719500D01*
X18408066Y33719500D01*
X18438500Y33722354D01*
X18438504Y33722355D01*
X18566681Y33767206D01*
X18566685Y33767208D01*
X18675950Y33847849D01*
X18756591Y33957114D01*
X18756592Y33957116D01*
X18757633Y33960089D01*
X18777486Y34016827D01*
X18801382Y34085116D01*
X18842760Y34142807D01*
X18908761Y34168969D01*
X18920311Y34169500D01*
X19018451Y34169500D01*
X19018453Y34169500D01*
X19101239Y34191682D01*
X19101241Y34191683D01*
X19101243Y34191684D01*
X19175458Y34234532D01*
X19175463Y34234536D01*
X19205527Y34264600D01*
X19267483Y34326556D01*
X19329793Y34360580D01*
X19373023Y34362382D01*
X19507199Y34344718D01*
X19507200Y34344718D01*
X19663960Y34365355D01*
X19810039Y34425863D01*
X19810042Y34425865D01*
X19814760Y34429485D01*
X19935482Y34522118D01*
X20031736Y34647559D01*
X20092244Y34793638D01*
X20112882Y34950400D01*
X20092244Y35107162D01*
X20083530Y35128200D01*
X25226118Y35128200D01*
X25226118Y35128199D01*
X25246755Y34971439D01*
X25307263Y34825360D01*
X25307265Y34825357D01*
X25403518Y34699918D01*
X25528957Y34603665D01*
X25528960Y34603663D01*
X25675039Y34543155D01*
X25831800Y34522518D01*
X25988560Y34543155D01*
X26134639Y34603663D01*
X26134642Y34603665D01*
X26260082Y34699918D01*
X26356336Y34825359D01*
X26416844Y34971438D01*
X26436776Y35122839D01*
X26437482Y35128199D01*
X26437482Y35128200D01*
X26428194Y35198748D01*
X26416844Y35284962D01*
X26356336Y35431041D01*
X26260082Y35556482D01*
X26134641Y35652736D01*
X25988562Y35713244D01*
X25831800Y35733882D01*
X25675038Y35713244D01*
X25528959Y35652736D01*
X25403518Y35556482D01*
X25333912Y35465769D01*
X25307265Y35431042D01*
X25307263Y35431039D01*
X25246755Y35284960D01*
X25226118Y35128200D01*
X20083530Y35128200D01*
X20031736Y35253241D01*
X19935482Y35378682D01*
X19810041Y35474936D01*
X19663962Y35535444D01*
X19507200Y35556082D01*
X19350438Y35535444D01*
X19204359Y35474936D01*
X19078918Y35378682D01*
X18982664Y35253241D01*
X18928650Y35122839D01*
X18928281Y35121948D01*
X18883732Y35066668D01*
X18816369Y35044247D01*
X18747578Y35061805D01*
X18710494Y35095344D01*
X18675950Y35142150D01*
X18566682Y35222793D01*
X18438499Y35267646D01*
X18408066Y35270500D01*
X16999534Y35270500D01*
X16969101Y35267646D01*
X16969095Y35267644D01*
X16840918Y35222793D01*
X16840914Y35222791D01*
X16731649Y35142150D01*
X16651008Y35032885D01*
X16651006Y35032881D01*
X16606155Y34904704D01*
X16606154Y34904700D01*
X16603300Y34874266D01*
X13605267Y34874266D01*
X13601818Y34887138D01*
X13594744Y34899390D01*
X13558967Y34961358D01*
X13558965Y34961362D01*
X13498362Y35021965D01*
X13043722Y35476605D01*
X13009696Y35538917D01*
X13014761Y35609732D01*
X13057308Y35666568D01*
X13123828Y35691379D01*
X13132817Y35691700D01*
X13509646Y35691700D01*
X13577767Y35671698D01*
X13624260Y35618042D01*
X13634567Y35582148D01*
X13635934Y35571769D01*
X13644955Y35503239D01*
X13705463Y35357160D01*
X13705465Y35357157D01*
X13801718Y35231718D01*
X13927157Y35135465D01*
X13927160Y35135463D01*
X14073239Y35074955D01*
X14230000Y35054318D01*
X14386760Y35074955D01*
X14532839Y35135463D01*
X14532842Y35135465D01*
X14658282Y35231718D01*
X14754536Y35357159D01*
X14815044Y35503238D01*
X14834567Y35651530D01*
X14835682Y35659999D01*
X14835682Y35660000D01*
X14825560Y35736886D01*
X14815044Y35816762D01*
X14754536Y35962841D01*
X14658282Y36088282D01*
X14532841Y36184536D01*
X14386762Y36245044D01*
X14230000Y36265682D01*
X14160778Y36256568D01*
X14090631Y36267507D01*
X14080057Y36273954D01*
X14079816Y36273535D01*
X14043385Y36294568D01*
X13998439Y36320518D01*
X13915653Y36342700D01*
X13915651Y36342700D01*
X13128901Y36342700D01*
X13060780Y36362702D01*
X13014287Y36416358D01*
X13003979Y36485146D01*
X13025682Y36649999D01*
X13025682Y36650000D01*
X13022316Y36675569D01*
X13005044Y36806762D01*
X12944536Y36952841D01*
X12848282Y37078282D01*
X12722841Y37174536D01*
X12576762Y37235044D01*
X12420000Y37255682D01*
X12263238Y37235044D01*
X12117159Y37174536D01*
X11991718Y37078282D01*
X11907348Y36968328D01*
X11895461Y36952837D01*
X11885374Y36928483D01*
X11840826Y36873202D01*
X11773463Y36850780D01*
X11768965Y36850700D01*
X11621741Y36850700D01*
X11553620Y36870702D01*
X11507127Y36924358D01*
X11497023Y36994632D01*
X11521777Y37053402D01*
X11574536Y37122159D01*
X11635044Y37268238D01*
X11655682Y37425000D01*
X11635044Y37581762D01*
X11574536Y37727841D01*
X11478282Y37853282D01*
X11352841Y37949536D01*
X11206762Y38010044D01*
X11050000Y38030682D01*
X10917757Y38013272D01*
X10868701Y38016486D01*
X10811553Y38031800D01*
X10811551Y38031800D01*
X10485282Y38031800D01*
X10417161Y38051802D01*
X10370668Y38105458D01*
X10362523Y38142897D01*
X10360360Y38142613D01*
X10345678Y38254136D01*
X10338644Y38307562D01*
X10278136Y38453641D01*
X10181882Y38579082D01*
X10056441Y38675336D01*
X9910362Y38735844D01*
X9753600Y38756482D01*
X9596838Y38735844D01*
X9450759Y38675336D01*
X9325318Y38579082D01*
X9229064Y38453641D01*
X9229063Y38453639D01*
X9224935Y38446489D01*
X9223804Y38447141D01*
X9203245Y38416373D01*
X9010540Y38223668D01*
X9010532Y38223658D01*
X8967684Y38149443D01*
X8967682Y38149439D01*
X8955898Y38105458D01*
X8949113Y38080137D01*
X8945500Y38066654D01*
X8945500Y37706650D01*
X8931123Y37657688D01*
X8934482Y37656297D01*
X8929733Y37644833D01*
X8918100Y37586350D01*
X8918100Y36734049D01*
X8929732Y36675571D01*
X8929733Y36675568D01*
X8974048Y36609248D01*
X9040368Y36564933D01*
X9040371Y36564932D01*
X9098849Y36553300D01*
X9098852Y36553300D01*
X9443150Y36553300D01*
X9501628Y36564932D01*
X9501631Y36564933D01*
X9508467Y36569501D01*
X9567952Y36609248D01*
X9612267Y36675569D01*
X9623900Y36734052D01*
X9623900Y37419118D01*
X9643902Y37487239D01*
X9697558Y37533732D01*
X9749900Y37545118D01*
X9753603Y37545118D01*
X9791656Y37550127D01*
X9861805Y37539187D01*
X9914902Y37492058D01*
X9934100Y37425205D01*
X9934100Y36734049D01*
X9945732Y36675571D01*
X9945733Y36675568D01*
X9990048Y36609248D01*
X10056368Y36564933D01*
X10056371Y36564932D01*
X10114849Y36553300D01*
X10114852Y36553300D01*
X10189100Y36553300D01*
X10257221Y36533298D01*
X10303714Y36479642D01*
X10315100Y36427300D01*
X10315100Y36353044D01*
X10326491Y36295780D01*
X10326491Y36246620D01*
X10315100Y36189355D01*
X10315100Y35845044D01*
X10326491Y35787780D01*
X10326491Y35738620D01*
X10315100Y35681355D01*
X10315100Y35337046D01*
X10323965Y35292481D01*
X10323965Y35243319D01*
X10315100Y35198753D01*
X10315100Y34854444D01*
X10326491Y34797180D01*
X10326491Y34748020D01*
X10315100Y34690755D01*
X10315100Y34346444D01*
X10326491Y34289180D01*
X10326491Y34240020D01*
X10315100Y34182755D01*
X10315100Y33838444D01*
X10326491Y33781180D01*
X10326491Y33732020D01*
X10315100Y33674755D01*
X10315100Y33330446D01*
X10323965Y33285881D01*
X10323965Y33236719D01*
X10315100Y33192153D01*
X10315100Y32847844D01*
X10326491Y32790580D01*
X10326491Y32741420D01*
X10315100Y32684155D01*
X10315100Y32339844D01*
X10326491Y32282580D01*
X10326491Y32233420D01*
X10315100Y32176155D01*
X10315100Y32101900D01*
X10295098Y32033779D01*
X10241442Y31987286D01*
X10189100Y31975900D01*
X10114852Y31975900D01*
X10057581Y31964508D01*
X10008419Y31964508D01*
X9951148Y31975900D01*
X9606852Y31975900D01*
X9548369Y31964267D01*
X9482048Y31919952D01*
X9453912Y31877844D01*
X9437733Y31853631D01*
X9437732Y31853628D01*
X9426100Y31795150D01*
X9426100Y30942849D01*
X9437732Y30884369D01*
X9442482Y30872904D01*
X9438884Y30871413D01*
X9453480Y30824790D01*
X9453500Y30822550D01*
X9453500Y30488853D01*
X9453500Y30403147D01*
X9475682Y30320361D01*
X9475683Y30320359D01*
X9475684Y30320356D01*
X9518532Y30246141D01*
X9518537Y30246135D01*
X9742291Y30022380D01*
X9776316Y29960068D01*
X9778117Y29916839D01*
X9769318Y29850001D01*
X9769318Y29849999D01*
X9789955Y29693239D01*
X9791416Y29689714D01*
X9791761Y29686499D01*
X9792093Y29685262D01*
X9791899Y29685210D01*
X9799002Y29619124D01*
X9767221Y29555638D01*
X9706161Y29519413D01*
X9675005Y29515500D01*
X9397017Y29515500D01*
X9328896Y29535502D01*
X9307922Y29552405D01*
X9150805Y29709522D01*
X9116779Y29771834D01*
X9113900Y29798617D01*
X9113900Y30822550D01*
X9128276Y30871512D01*
X9124918Y30872904D01*
X9129667Y30884369D01*
X9139645Y30934534D01*
X9141300Y30942852D01*
X9141300Y31795148D01*
X9129667Y31853631D01*
X9085352Y31919952D01*
X9019031Y31964267D01*
X8960548Y31975900D01*
X8616252Y31975900D01*
X8557769Y31964267D01*
X8491448Y31919952D01*
X8463312Y31877844D01*
X8447133Y31853631D01*
X8447132Y31853628D01*
X8435500Y31795150D01*
X8435500Y30942849D01*
X8447132Y30884369D01*
X8451882Y30872904D01*
X8448284Y30871413D01*
X8462880Y30824790D01*
X8462900Y30822550D01*
X8462900Y30677188D01*
X8442898Y30609067D01*
X8389242Y30562574D01*
X8318968Y30552470D01*
X8260197Y30577224D01*
X8166741Y30648936D01*
X8166737Y30648937D01*
X8160903Y30652306D01*
X8111908Y30703687D01*
X8097900Y30761427D01*
X8097900Y30822550D01*
X8112276Y30871512D01*
X8108918Y30872904D01*
X8113667Y30884369D01*
X8123645Y30934534D01*
X8125300Y30942852D01*
X8125300Y31795148D01*
X8113667Y31853631D01*
X8069352Y31919952D01*
X8003031Y31964267D01*
X7944548Y31975900D01*
X7600252Y31975900D01*
X7542981Y31964508D01*
X7493819Y31964508D01*
X7436548Y31975900D01*
X7092252Y31975900D01*
X7047680Y31967034D01*
X6998520Y31967034D01*
X6953948Y31975900D01*
X6609652Y31975900D01*
X6552381Y31964508D01*
X6503219Y31964508D01*
X6445948Y31975900D01*
X6101652Y31975900D01*
X6044381Y31964508D01*
X5995219Y31964508D01*
X5937948Y31975900D01*
X5937947Y31975900D01*
X5863700Y31975900D01*
X5795579Y31995902D01*
X5749086Y32049558D01*
X5737700Y32101900D01*
X5737700Y32176146D01*
X5737700Y32176148D01*
X5726308Y32233420D01*
X5726308Y32282582D01*
X5737700Y32339852D01*
X5737700Y32684148D01*
X5726067Y32742631D01*
X5681752Y32808952D01*
X5615431Y32853267D01*
X5556948Y32864900D01*
X4704652Y32864900D01*
X4646169Y32853267D01*
X4646168Y32853266D01*
X4616938Y32833735D01*
X4549185Y32812520D01*
X4546936Y32812500D01*
X4408362Y32812500D01*
X4329238Y32812500D01*
X4252812Y32792022D01*
X4184289Y32752460D01*
X3990489Y32558660D01*
X3934540Y32502711D01*
X3895158Y32434498D01*
X3894977Y32434185D01*
X3874500Y32357765D01*
X3874500Y31974810D01*
X3870205Y31942193D01*
X3869500Y31939562D01*
X3869500Y30726661D01*
X3849498Y30658540D01*
X3832595Y30637566D01*
X3305489Y30110460D01*
X3249540Y30054511D01*
X3213943Y29992854D01*
X3209977Y29985985D01*
X3189500Y29909565D01*
X3189500Y29182363D01*
X3169498Y29114242D01*
X3140204Y29082402D01*
X3112988Y29061518D01*
X3095734Y29048279D01*
X3090595Y29043140D01*
X3028283Y29009114D01*
X2957468Y29014179D01*
X2900632Y29056726D01*
X2875821Y29123246D01*
X2875500Y29132235D01*
X2875500Y31712982D01*
X2895502Y31781103D01*
X2912405Y31802077D01*
X3210461Y32100133D01*
X3210468Y32100142D01*
X3227991Y32130494D01*
X3227991Y32130496D01*
X3227994Y32130500D01*
X3253318Y32174362D01*
X3275500Y32257147D01*
X3275500Y33588975D01*
X3295502Y33657096D01*
X3349158Y33703589D01*
X3419432Y33713693D01*
X3484012Y33684199D01*
X3501462Y33665679D01*
X3584915Y33556920D01*
X3710357Y33460665D01*
X3710360Y33460663D01*
X3856439Y33400155D01*
X4013200Y33379518D01*
X4169960Y33400155D01*
X4316039Y33460663D01*
X4316042Y33460665D01*
X4419962Y33540405D01*
X4441482Y33556918D01*
X4497445Y33629851D01*
X4554783Y33671719D01*
X4625654Y33675941D01*
X4645619Y33669560D01*
X4646165Y33669333D01*
X4704649Y33657700D01*
X4704652Y33657700D01*
X5556950Y33657700D01*
X5615428Y33669332D01*
X5615431Y33669333D01*
X5637679Y33684199D01*
X5681752Y33713648D01*
X5726067Y33779969D01*
X5737700Y33838452D01*
X5737700Y34182748D01*
X5726067Y34241231D01*
X5681752Y34307552D01*
X5615431Y34351867D01*
X5556948Y34363500D01*
X4704652Y34363500D01*
X4646169Y34351867D01*
X4634704Y34347118D01*
X4633213Y34350715D01*
X4586590Y34336120D01*
X4584350Y34336100D01*
X4562996Y34336100D01*
X4494875Y34356102D01*
X4463034Y34385395D01*
X4458182Y34391718D01*
X4441482Y34413482D01*
X4316041Y34509736D01*
X4169962Y34570244D01*
X4013200Y34590882D01*
X3856438Y34570244D01*
X3710359Y34509736D01*
X3584918Y34413482D01*
X3501461Y34304718D01*
X3444125Y34262853D01*
X3373254Y34258631D01*
X3311351Y34293395D01*
X3278070Y34356107D01*
X3275500Y34381424D01*
X3275500Y34762983D01*
X3295502Y34831104D01*
X3312405Y34852078D01*
X3607122Y35146795D01*
X3669434Y35180821D01*
X3696217Y35183700D01*
X4584350Y35183700D01*
X4633312Y35169323D01*
X4634704Y35172682D01*
X4646169Y35167932D01*
X4704649Y35156300D01*
X4704652Y35156300D01*
X5556950Y35156300D01*
X5615428Y35167932D01*
X5615431Y35167933D01*
X5634719Y35180821D01*
X5681752Y35212248D01*
X5726067Y35278569D01*
X5737700Y35337052D01*
X5737700Y35681348D01*
X5726067Y35739831D01*
X5681752Y35806152D01*
X5615431Y35850467D01*
X5556948Y35862100D01*
X4704652Y35862100D01*
X4651362Y35851500D01*
X4646169Y35850467D01*
X4634704Y35845718D01*
X4633213Y35849315D01*
X4586590Y35834720D01*
X4584350Y35834700D01*
X3552053Y35834700D01*
X3466347Y35834700D01*
X3383561Y35812518D01*
X3309338Y35769665D01*
X3309336Y35769663D01*
X3309331Y35769659D01*
X2790595Y35250923D01*
X2728283Y35216897D01*
X2657468Y35221962D01*
X2600632Y35264509D01*
X2575821Y35331029D01*
X2575500Y35340018D01*
X2575500Y36073700D01*
X2595502Y36141821D01*
X2649158Y36188314D01*
X2701500Y36199700D01*
X4584350Y36199700D01*
X4633312Y36185323D01*
X4634704Y36188682D01*
X4646169Y36183932D01*
X4704649Y36172300D01*
X4704652Y36172300D01*
X5556950Y36172300D01*
X5615428Y36183932D01*
X5615431Y36183933D01*
X5617511Y36185323D01*
X5681752Y36228248D01*
X5726067Y36294569D01*
X5737700Y36353052D01*
X5737700Y36551791D01*
X5757702Y36619912D01*
X5811358Y36666405D01*
X5881632Y36676509D01*
X5946212Y36647015D01*
X5968464Y36621795D01*
X5976848Y36609247D01*
X6043168Y36564933D01*
X6043171Y36564932D01*
X6101649Y36553300D01*
X6101652Y36553300D01*
X6445950Y36553300D01*
X6504428Y36564932D01*
X6504431Y36564933D01*
X6511267Y36569501D01*
X6570752Y36609248D01*
X6615067Y36675569D01*
X6626700Y36734052D01*
X6626700Y37586348D01*
X6615067Y37644831D01*
X6615066Y37644833D01*
X6610318Y37656297D01*
X6613916Y37657787D01*
X6599320Y37704397D01*
X6599300Y37706650D01*
X6599300Y37898982D01*
X6619302Y37967103D01*
X6672958Y38013596D01*
X6743232Y38023700D01*
X6807812Y37994206D01*
X6814395Y37988077D01*
X6901995Y37900477D01*
X6936021Y37838165D01*
X6938900Y37811382D01*
X6938900Y37706650D01*
X6924523Y37657688D01*
X6927882Y37656297D01*
X6923133Y37644833D01*
X6911500Y37586350D01*
X6911500Y36734049D01*
X6923132Y36675571D01*
X6923133Y36675568D01*
X6967448Y36609248D01*
X7033768Y36564933D01*
X7033771Y36564932D01*
X7092249Y36553300D01*
X7092252Y36553300D01*
X7436555Y36553300D01*
X7493820Y36564691D01*
X7542980Y36564691D01*
X7600244Y36553300D01*
X7600252Y36553300D01*
X7944555Y36553300D01*
X8001820Y36564691D01*
X8050980Y36564691D01*
X8108244Y36553300D01*
X8108252Y36553300D01*
X8452550Y36553300D01*
X8511028Y36564932D01*
X8511031Y36564933D01*
X8517867Y36569501D01*
X8577352Y36609248D01*
X8621667Y36675569D01*
X8633300Y36734052D01*
X8633300Y37586348D01*
X8621667Y37644831D01*
X8621666Y37644833D01*
X8616918Y37656297D01*
X8620516Y37657787D01*
X8605920Y37704397D01*
X8605900Y37706650D01*
X8605900Y38606212D01*
X8605901Y38606230D01*
X8605901Y38699653D01*
X8605900Y38699656D01*
X8583720Y38782432D01*
X8583719Y38782432D01*
X8583718Y38782439D01*
X8551662Y38837961D01*
X8540865Y38856662D01*
X8513645Y38883882D01*
X8481005Y38916523D01*
X8446979Y38978835D01*
X8444100Y39005618D01*
X8444100Y39187911D01*
X8443985Y39189665D01*
X8444100Y39190179D01*
X8444100Y39192041D01*
X8444517Y39192041D01*
X8459486Y39258948D01*
X8509984Y39308853D01*
X8569715Y39323911D01*
X20488572Y39323911D01*
X20556693Y39303909D01*
X20577662Y39287010D01*
X20911247Y38953426D01*
X21236691Y38627982D01*
X21270716Y38565670D01*
X21272517Y38522442D01*
X21263718Y38455601D01*
X21263718Y38455599D01*
X21284355Y38298839D01*
X21344863Y38152760D01*
X21344865Y38152757D01*
X21441118Y38027318D01*
X21566557Y37931065D01*
X21566560Y37931063D01*
X21712639Y37870555D01*
X21869400Y37849918D01*
X22026160Y37870555D01*
X22172239Y37931063D01*
X22172242Y37931065D01*
X22172960Y37931616D01*
X22297682Y38027318D01*
X22393936Y38152759D01*
X22454444Y38298838D01*
X22473968Y38447141D01*
X22475082Y38455599D01*
X22475082Y38455600D01*
X22460089Y38569485D01*
X22454444Y38612362D01*
X22393936Y38758441D01*
X22297682Y38883882D01*
X22172241Y38980136D01*
X22026162Y39040644D01*
X21869400Y39061282D01*
X21802556Y39052481D01*
X21732411Y39063419D01*
X21697019Y39088305D01*
X21128655Y39656671D01*
X21000422Y39784905D01*
X20966397Y39847217D01*
X20971462Y39918033D01*
X21014009Y39974868D01*
X21080530Y39999679D01*
X21089518Y40000000D01*
X27524000Y40000000D01*
X27592121Y39979998D01*
G37*
%TD.AperFunction*%
%TA.AperFunction,Conductor*%
G36*
X5886503Y37804498D02*
G01*
X5932996Y37750842D01*
X5943100Y37680568D01*
X5934790Y37650281D01*
X5932533Y37644833D01*
X5920900Y37586350D01*
X5920900Y36879608D01*
X5900898Y36811487D01*
X5847242Y36764994D01*
X5776968Y36754890D01*
X5712388Y36784384D01*
X5690135Y36809606D01*
X5686624Y36814860D01*
X5681752Y36822152D01*
X5615431Y36866467D01*
X5556948Y36878100D01*
X4704652Y36878100D01*
X4646169Y36866467D01*
X4634704Y36861718D01*
X4633213Y36865315D01*
X4586590Y36850720D01*
X4584350Y36850700D01*
X2455853Y36850700D01*
X2370147Y36850700D01*
X2299639Y36831808D01*
X2228667Y36833498D01*
X2169871Y36873292D01*
X2141923Y36938556D01*
X2153696Y37008570D01*
X2177934Y37042607D01*
X2922922Y37787596D01*
X2985233Y37821620D01*
X3012016Y37824500D01*
X5818382Y37824500D01*
X5886503Y37804498D01*
G37*
%TD.AperFunction*%
%TA.AperFunction,Conductor*%
G36*
X6068021Y39324498D02*
G01*
X6114514Y39270842D01*
X6125900Y39218500D01*
X6125900Y38854253D01*
X6125900Y38768547D01*
X6148082Y38685761D01*
X6148083Y38685758D01*
X6160358Y38664499D01*
X6177095Y38595504D01*
X6153874Y38528412D01*
X6098067Y38484525D01*
X6051238Y38475500D01*
X2867853Y38475500D01*
X2782147Y38475500D01*
X2699361Y38453318D01*
X2668741Y38435639D01*
X2625138Y38410465D01*
X2625135Y38410462D01*
X2625131Y38410459D01*
X2560145Y38345473D01*
X2560124Y38345450D01*
X1985595Y37770921D01*
X1923283Y37736895D01*
X1852468Y37741960D01*
X1795632Y37784507D01*
X1770821Y37851027D01*
X1770500Y37860016D01*
X1770500Y37904307D01*
X1770500Y37904312D01*
X1770500Y37904316D01*
X1764068Y37953173D01*
X1714065Y38060404D01*
X1630404Y38144065D01*
X1523173Y38194068D01*
X1474316Y38200500D01*
X1025684Y38200500D01*
X992020Y38196068D01*
X921873Y38207008D01*
X868775Y38254136D01*
X849585Y38322490D01*
X859167Y38369208D01*
X876254Y38410459D01*
X894207Y38453801D01*
X910700Y38579081D01*
X914845Y38610562D01*
X914845Y38610563D01*
X906318Y38675334D01*
X894207Y38767325D01*
X833699Y38913404D01*
X737445Y39038845D01*
X633585Y39118538D01*
X591720Y39175875D01*
X587498Y39246746D01*
X622262Y39308649D01*
X684974Y39341930D01*
X710291Y39344500D01*
X5999900Y39344500D01*
X6068021Y39324498D01*
G37*
%TD.AperFunction*%
%TD*%
M02*
