%TF.GenerationSoftware,KiCad,Pcbnew,8.0.5*%
%TF.CreationDate,2024-11-08T07:47:22+00:00*%
%TF.ProjectId,ADE_Aux_V4,4144455f-4175-4785-9f56-342e6b696361,rev?*%
%TF.SameCoordinates,Original*%
%TF.FileFunction,Copper,L4,Bot*%
%TF.FilePolarity,Positive*%
%FSLAX46Y46*%
G04 Gerber Fmt 4.6, Leading zero omitted, Abs format (unit mm)*
G04 Created by KiCad (PCBNEW 8.0.5) date 2024-11-08 07:47:22*
%MOMM*%
%LPD*%
G01*
G04 APERTURE LIST*
G04 Aperture macros list*
%AMRoundRect*
0 Rectangle with rounded corners*
0 $1 Rounding radius*
0 $2 $3 $4 $5 $6 $7 $8 $9 X,Y pos of 4 corners*
0 Add a 4 corners polygon primitive as box body*
4,1,4,$2,$3,$4,$5,$6,$7,$8,$9,$2,$3,0*
0 Add four circle primitives for the rounded corners*
1,1,$1+$1,$2,$3*
1,1,$1+$1,$4,$5*
1,1,$1+$1,$6,$7*
1,1,$1+$1,$8,$9*
0 Add four rect primitives between the rounded corners*
20,1,$1+$1,$2,$3,$4,$5,0*
20,1,$1+$1,$4,$5,$6,$7,0*
20,1,$1+$1,$6,$7,$8,$9,0*
20,1,$1+$1,$8,$9,$2,$3,0*%
G04 Aperture macros list end*
%TA.AperFunction,ComponentPad*%
%ADD10C,0.600000*%
%TD*%
%TA.AperFunction,SMDPad,CuDef*%
%ADD11R,1.600000X0.900000*%
%TD*%
%TA.AperFunction,SMDPad,CuDef*%
%ADD12C,1.000000*%
%TD*%
%TA.AperFunction,SMDPad,CuDef*%
%ADD13RoundRect,0.250000X0.325000X0.650000X-0.325000X0.650000X-0.325000X-0.650000X0.325000X-0.650000X0*%
%TD*%
%TA.AperFunction,SMDPad,CuDef*%
%ADD14R,1.400000X1.200000*%
%TD*%
%TA.AperFunction,SMDPad,CuDef*%
%ADD15RoundRect,0.325000X1.925000X-0.325000X1.925000X0.325000X-1.925000X0.325000X-1.925000X-0.325000X0*%
%TD*%
%TA.AperFunction,SMDPad,CuDef*%
%ADD16RoundRect,0.300001X1.649999X-0.599999X1.649999X0.599999X-1.649999X0.599999X-1.649999X-0.599999X0*%
%TD*%
%TA.AperFunction,ComponentPad*%
%ADD17R,1.700000X1.700000*%
%TD*%
%TA.AperFunction,ComponentPad*%
%ADD18O,1.700000X1.700000*%
%TD*%
%TA.AperFunction,SMDPad,CuDef*%
%ADD19RoundRect,0.140000X0.140000X0.170000X-0.140000X0.170000X-0.140000X-0.170000X0.140000X-0.170000X0*%
%TD*%
%TA.AperFunction,SMDPad,CuDef*%
%ADD20RoundRect,0.140000X0.170000X-0.140000X0.170000X0.140000X-0.170000X0.140000X-0.170000X-0.140000X0*%
%TD*%
%TA.AperFunction,SMDPad,CuDef*%
%ADD21RoundRect,0.140000X-0.140000X-0.170000X0.140000X-0.170000X0.140000X0.170000X-0.140000X0.170000X0*%
%TD*%
%TA.AperFunction,SMDPad,CuDef*%
%ADD22RoundRect,0.135000X-0.135000X-0.185000X0.135000X-0.185000X0.135000X0.185000X-0.135000X0.185000X0*%
%TD*%
%TA.AperFunction,SMDPad,CuDef*%
%ADD23RoundRect,0.250000X-0.650000X0.325000X-0.650000X-0.325000X0.650000X-0.325000X0.650000X0.325000X0*%
%TD*%
%TA.AperFunction,ConnectorPad*%
%ADD24R,0.700000X4.300000*%
%TD*%
%TA.AperFunction,SMDPad,CuDef*%
%ADD25RoundRect,0.140000X-0.170000X0.140000X-0.170000X-0.140000X0.170000X-0.140000X0.170000X0.140000X0*%
%TD*%
%TA.AperFunction,SMDPad,CuDef*%
%ADD26RoundRect,0.135000X-0.185000X0.135000X-0.185000X-0.135000X0.185000X-0.135000X0.185000X0.135000X0*%
%TD*%
%TA.AperFunction,SMDPad,CuDef*%
%ADD27RoundRect,0.150000X-0.725000X-0.150000X0.725000X-0.150000X0.725000X0.150000X-0.725000X0.150000X0*%
%TD*%
%TA.AperFunction,SMDPad,CuDef*%
%ADD28RoundRect,0.250000X-0.325000X-0.650000X0.325000X-0.650000X0.325000X0.650000X-0.325000X0.650000X0*%
%TD*%
%TA.AperFunction,ViaPad*%
%ADD29C,0.800000*%
%TD*%
%TA.AperFunction,Conductor*%
%ADD30C,0.250000*%
%TD*%
%TA.AperFunction,Conductor*%
%ADD31C,0.200000*%
%TD*%
G04 APERTURE END LIST*
D10*
%TO.P,U3,9,PAD*%
%TO.N,/UM*%
X-1180000Y36100000D03*
D11*
X-680000Y36100000D03*
D10*
X-180000Y36100000D03*
%TD*%
%TO.P,U1,9,PAD*%
%TO.N,/UM*%
X-1180000Y24810000D03*
D11*
X-680000Y24810000D03*
D10*
X-180000Y24810000D03*
%TD*%
D12*
%TO.P,FID3,*%
%TO.N,*%
X-10744200Y18745200D03*
%TD*%
D13*
%TO.P,C20,1*%
%TO.N,/AVDDOUT*%
X5975000Y32375000D03*
%TO.P,C20,2*%
%TO.N,GND*%
X3025000Y32375000D03*
%TD*%
D14*
%TO.P,Y2,1,TRI-STATE*%
%TO.N,+3V3*%
X11707500Y30725000D03*
%TO.P,Y2,2,GND*%
%TO.N,GND*%
X9167500Y30725000D03*
%TO.P,Y2,3,OUTPUT*%
%TO.N,/O_IN*%
X9167500Y32925000D03*
%TO.P,Y2,4,VDD*%
%TO.N,+3V3*%
X11707500Y32925000D03*
%TD*%
D15*
%TO.P,J1,1,Pin_1*%
%TO.N,/RRP*%
X-10750000Y38400000D03*
%TO.P,J1,2,Pin_2*%
%TO.N,/RRM*%
X-10750000Y36000000D03*
%TO.P,J1,3,Pin_3*%
%TO.N,/RSP*%
X-10750000Y33500000D03*
%TO.P,J1,4,Pin_4*%
%TO.N,/RSM*%
X-10750000Y31000000D03*
%TO.P,J1,5,Pin_5*%
%TO.N,/RTP*%
X-10750000Y28500000D03*
%TO.P,J1,6,Pin_6*%
%TO.N,/RTM*%
X-10750000Y26000000D03*
%TO.P,J1,7,Pin_7*%
%TO.N,/RNP*%
X-10750000Y23500000D03*
%TO.P,J1,8,Pin_8*%
%TO.N,/RNM*%
X-10750000Y21125000D03*
D16*
%TO.P,J1,MP*%
%TO.N,N/C*%
X-17600000Y17900000D03*
X-17600000Y41600000D03*
%TD*%
D17*
%TO.P,J15,1,Pin_1*%
%TO.N,/RRP*%
X-6750200Y36692980D03*
D18*
%TO.P,J15,2,Pin_2*%
%TO.N,/RRM*%
X-6750200Y34152980D03*
%TO.P,J15,3,Pin_3*%
%TO.N,/RSP*%
X-6750200Y31612980D03*
%TO.P,J15,4,Pin_4*%
%TO.N,/RSM*%
X-6750200Y29072980D03*
%TO.P,J15,5,Pin_5*%
%TO.N,/RTP*%
X-6750200Y26532980D03*
%TO.P,J15,6,Pin_6*%
%TO.N,/RTM*%
X-6750200Y23992980D03*
%TO.P,J15,7,Pin_7*%
%TO.N,/RNP*%
X-6750200Y21452980D03*
%TO.P,J15,8,Pin_8*%
%TO.N,/RNM*%
X-6750200Y18912980D03*
%TD*%
D19*
%TO.P,C28,1*%
%TO.N,GND*%
X-28000Y37388800D03*
%TO.P,C28,2*%
%TO.N,+3V3*%
X-988000Y37388800D03*
%TD*%
%TO.P,C30,1*%
%TO.N,GND*%
X3530600Y35636200D03*
%TO.P,C30,2*%
%TO.N,/UM*%
X2570600Y35636200D03*
%TD*%
D20*
%TO.P,C23,1*%
%TO.N,/REF*%
X4648200Y35054600D03*
%TO.P,C23,2*%
%TO.N,GND*%
X4648200Y36014600D03*
%TD*%
D21*
%TO.P,C15,1*%
%TO.N,+3V3*%
X11638400Y35306000D03*
%TO.P,C15,2*%
%TO.N,GND*%
X12598400Y35306000D03*
%TD*%
D22*
%TO.P,R1,1*%
%TO.N,/ADE_Reset*%
X24001000Y35128200D03*
%TO.P,R1,2*%
%TO.N,+3V3*%
X25021000Y35128200D03*
%TD*%
D23*
%TO.P,C22,1*%
%TO.N,/DVDDOUT*%
X17856200Y35003000D03*
%TO.P,C22,2*%
%TO.N,GND*%
X17856200Y32053000D03*
%TD*%
D19*
%TO.P,C27,1*%
%TO.N,GND*%
X-152400Y26238200D03*
%TO.P,C27,2*%
%TO.N,+3V3*%
X-1112400Y26238200D03*
%TD*%
%TO.P,C1,1*%
%TO.N,/ADE_Reset*%
X22603400Y35102800D03*
%TO.P,C1,2*%
%TO.N,GND*%
X21643400Y35102800D03*
%TD*%
D24*
%TO.P,J2,B1*%
%TO.N,+3V3*%
X27000000Y23000000D03*
%TO.P,J2,B2*%
X26000000Y23000000D03*
%TO.P,J2,B3*%
%TO.N,/ADE_Reset*%
X25000000Y23000000D03*
%TO.P,J2,B4*%
%TO.N,/SYN*%
X24000000Y23000000D03*
%TO.P,J2,B5*%
%TO.N,/SCLK*%
X23000000Y23000000D03*
%TO.P,J2,B6*%
X22000000Y23000000D03*
%TO.P,J2,B7*%
%TO.N,/MOSI*%
X21000000Y23000000D03*
%TO.P,J2,B8*%
X20000000Y23000000D03*
%TO.P,J2,B9*%
%TO.N,/SS*%
X19000000Y23000000D03*
%TO.P,J2,B10*%
X18000000Y23000000D03*
%TO.P,J2,B11*%
%TO.N,GND*%
X17000000Y23000000D03*
%TO.P,J2,B12*%
X14000000Y23000000D03*
%TO.P,J2,B13*%
%TO.N,/UR-*%
X13000000Y23000000D03*
%TO.P,J2,B14*%
%TO.N,/UR+*%
X12000000Y23000000D03*
%TO.P,J2,B15*%
%TO.N,/US-*%
X11000000Y23000000D03*
%TO.P,J2,B16*%
%TO.N,/US+*%
X10000000Y23000000D03*
%TO.P,J2,B17*%
%TO.N,/UT-*%
X9000000Y23000000D03*
%TO.P,J2,B18*%
%TO.N,/UT+*%
X8000000Y23000000D03*
%TD*%
D25*
%TO.P,C17,1*%
%TO.N,+3V3*%
X10541000Y35303400D03*
%TO.P,C17,2*%
%TO.N,GND*%
X10541000Y34343400D03*
%TD*%
%TO.P,C14,1*%
%TO.N,+3V3*%
X13775000Y29980000D03*
%TO.P,C14,2*%
%TO.N,GND*%
X13775000Y29020000D03*
%TD*%
D26*
%TO.P,R27,1*%
%TO.N,+3V3*%
X19812000Y32539400D03*
%TO.P,R27,2*%
%TO.N,/MOSI*%
X19812000Y31519400D03*
%TD*%
D25*
%TO.P,C29,1*%
%TO.N,GND*%
X2438400Y26159400D03*
%TO.P,C29,2*%
%TO.N,/UM*%
X2438400Y25199400D03*
%TD*%
D19*
%TO.P,C19,1*%
%TO.N,/AVDDOUT*%
X6322000Y30683200D03*
%TO.P,C19,2*%
%TO.N,GND*%
X5362000Y30683200D03*
%TD*%
D27*
%TO.P,U4,1,NC*%
%TO.N,unconnected-(U4-NC-Pad1)*%
X-3235000Y17925000D03*
%TO.P,U4,2,CAP+*%
%TO.N,/C+*%
X-3235000Y19195000D03*
%TO.P,U4,3,GND*%
%TO.N,GND*%
X-3235000Y20465000D03*
%TO.P,U4,4,CAP-*%
%TO.N,/C-*%
X-3235000Y21735000D03*
%TO.P,U4,5,VOUT*%
%TO.N,/UM*%
X1915000Y21735000D03*
%TO.P,U4,6,LV*%
%TO.N,GND*%
X1915000Y20465000D03*
%TO.P,U4,7,OSC*%
%TO.N,unconnected-(U4-OSC-Pad7)*%
X1915000Y19195000D03*
%TO.P,U4,8,V+*%
%TO.N,+3V3*%
X1915000Y17925000D03*
%TD*%
D12*
%TO.P,FID2,*%
%TO.N,*%
X25501600Y32461200D03*
%TD*%
D28*
%TO.P,C24,1*%
%TO.N,/REF*%
X6195800Y35026600D03*
%TO.P,C24,2*%
%TO.N,GND*%
X9145800Y35026600D03*
%TD*%
D19*
%TO.P,C21,1*%
%TO.N,/DVDDOUT*%
X16126400Y34823400D03*
%TO.P,C21,2*%
%TO.N,GND*%
X15166400Y34823400D03*
%TD*%
D29*
%TO.N,GND*%
X-11020000Y41360000D03*
X26593800Y39192200D03*
X-18640000Y36280000D03*
X-16100000Y33740000D03*
X16459200Y28346400D03*
X-5940000Y38820000D03*
X4430000Y37400000D03*
X-3400000Y31200000D03*
X-14440000Y37200000D03*
X-14100000Y23060000D03*
X-18640000Y28660000D03*
X24540000Y33740000D03*
X-18640000Y26120000D03*
X26339800Y31191200D03*
X4428453Y33111500D03*
X17170400Y25933400D03*
X-16100000Y36280000D03*
X-13450000Y18140000D03*
X-16100000Y23580000D03*
X24540000Y38820000D03*
X390000Y17940000D03*
X9457677Y29825500D03*
X13716000Y27940000D03*
X-16100000Y38820000D03*
X5540000Y38930000D03*
X-13560000Y41360000D03*
X-18640000Y31200000D03*
X22000000Y28660000D03*
X24540000Y36280000D03*
X-16100000Y31200000D03*
X-18640000Y21040000D03*
X-2870200Y39344600D03*
X12598400Y31826200D03*
X-16100000Y26120000D03*
X13868400Y25857200D03*
X24540000Y31200000D03*
X11836400Y28092400D03*
X-18640000Y33740000D03*
X12954000Y28930600D03*
X1001000Y26060000D03*
X3429000Y37338000D03*
X670000Y28320000D03*
X-16100000Y21040000D03*
X19460000Y33740000D03*
X11836400Y34137600D03*
X-5230000Y25880000D03*
X660000Y31690000D03*
X-18640000Y38820000D03*
X-16100000Y28660000D03*
X-860000Y31200000D03*
X1850000Y39045500D03*
X-18640000Y23580000D03*
X26517600Y33604200D03*
X-14520000Y29090000D03*
%TO.N,+3V3*%
X19507200Y34950400D03*
X11861800Y29667200D03*
X11050000Y37425000D03*
X10575000Y28775000D03*
X-2190000Y25740000D03*
X26924000Y26187400D03*
X25806400Y26111200D03*
X-5420000Y17550000D03*
X-1975500Y37553372D03*
X25831800Y35128200D03*
X23444200Y29514800D03*
%TO.N,/AVDDOUT*%
X7863900Y30124400D03*
%TO.N,/DVDDOUT*%
X9753600Y38150800D03*
%TO.N,/REF*%
X4013200Y33985200D03*
%TO.N,/ISP*%
X1040000Y35730000D03*
X-2150000Y34820000D03*
%TO.N,/INP*%
X2550000Y23540000D03*
X-2510000Y23480000D03*
%TO.N,/UR+*%
X11970000Y26540000D03*
X3524020Y28620000D03*
%TO.N,/US+*%
X10000000Y25800000D03*
X9143911Y27833911D03*
X5100000Y29720000D03*
%TO.N,/UT+*%
X8050000Y25740000D03*
%TO.N,/ADE_Reset*%
X21869400Y38455600D03*
X24841200Y25958800D03*
%TO.N,/O_IN*%
X10375000Y29850000D03*
%TO.N,Net-(U1A--)*%
X-3410000Y23230000D03*
X230000Y20824500D03*
%TO.N,Net-(U3A--)*%
X260000Y33020000D03*
X-2650000Y33470000D03*
%TO.N,Net-(U1B--)*%
X-700000Y29710000D03*
X-3390000Y29150000D03*
%TO.N,/SCLK*%
X20570000Y27480000D03*
%TO.N,/MOSI*%
X14230000Y35660000D03*
X18630000Y26960000D03*
X19650000Y30410000D03*
%TO.N,/SS*%
X12420000Y36650000D03*
X13868400Y31292800D03*
%TO.N,/RN*%
X-5934500Y22738843D03*
X-4520000Y22670000D03*
%TO.N,Net-(U3B--)*%
X309163Y38610563D03*
X-2600000Y36690000D03*
%TO.N,/UM*%
X1610000Y23910000D03*
X1625500Y35047145D03*
X2277484Y22357547D03*
%TO.N,/C+*%
X-70000Y18890000D03*
%TO.N,/UR-*%
X4230000Y29490000D03*
X13040000Y26640000D03*
%TO.N,/US-*%
X11000000Y25870000D03*
X6182300Y29546200D03*
X8393411Y29123411D03*
%TO.N,/UT-*%
X9020000Y25950000D03*
%TO.N,/C-*%
X-4765656Y20033911D03*
%TO.N,/SYN*%
X23393400Y26136600D03*
%TD*%
D30*
%TO.N,GND*%
X3050600Y26159400D02*
X2438400Y26159400D01*
X3352800Y20904200D02*
X3352800Y25857200D01*
X3352800Y25857200D02*
X3050600Y26159400D01*
X13775000Y29020000D02*
X13043400Y29020000D01*
X9167500Y30725000D02*
X9167500Y30115677D01*
X2913600Y20465000D02*
X3352800Y20904200D01*
X17000000Y23000000D02*
X17000000Y25763000D01*
X3025000Y32375000D02*
X3691953Y32375000D01*
X14000000Y23000000D02*
X14000000Y25725600D01*
X-152400Y26238200D02*
X822800Y26238200D01*
X1915000Y20465000D02*
X2913600Y20465000D01*
X13043400Y29020000D02*
X12954000Y28930600D01*
X5616000Y30708600D02*
X5616000Y30502800D01*
X14000000Y25725600D02*
X13868400Y25857200D01*
X17000000Y25763000D02*
X17170400Y25933400D01*
X3691953Y32375000D02*
X4428453Y33111500D01*
X9167500Y30925000D02*
X9300000Y30925000D01*
X822800Y26238200D02*
X1001000Y26060000D01*
%TO.N,+3V3*%
X11050000Y37425000D02*
X11557000Y36918000D01*
X-1810928Y37388800D02*
X-1975500Y37553372D01*
X11707500Y32925000D02*
X11707500Y30725000D01*
X25021000Y35128200D02*
X25831800Y35128200D01*
X11050000Y37425000D02*
X10515600Y36890600D01*
X11707500Y30725000D02*
X11861800Y30570700D01*
X20320000Y34518600D02*
X19888200Y34950400D01*
X-988000Y37388800D02*
X-1810928Y37388800D01*
X-2190000Y25826200D02*
X-1778000Y26238200D01*
X12452500Y29980000D02*
X11707500Y30725000D01*
X19888200Y34950400D02*
X19507200Y34950400D01*
X19812000Y32613600D02*
X20320000Y33121600D01*
X19812000Y32539400D02*
X19812000Y32613600D01*
X20320000Y33121600D02*
X20320000Y34518600D01*
X11557000Y35387400D02*
X11638400Y35306000D01*
X-1778000Y26238200D02*
X-1112400Y26238200D01*
X1320000Y17300000D02*
X-5170000Y17300000D01*
X-5170000Y17300000D02*
X-5420000Y17550000D01*
X1915000Y17925000D02*
X1915000Y17895000D01*
X27000000Y23000000D02*
X26000000Y23000000D01*
X11557000Y36918000D02*
X11557000Y35387400D01*
X10515600Y35328800D02*
X10541000Y35303400D01*
X10515600Y36890600D02*
X10515600Y35328800D01*
X26000000Y25575000D02*
X26550000Y26125000D01*
X11861800Y30570700D02*
X11861800Y29667200D01*
X13775000Y29980000D02*
X12452500Y29980000D01*
X26000000Y23000000D02*
X26000000Y25575000D01*
X1915000Y17895000D02*
X1320000Y17300000D01*
X-2190000Y25740000D02*
X-2190000Y25826200D01*
%TO.N,/AVDDOUT*%
X5975000Y32099600D02*
X6324600Y31750000D01*
X6322000Y30683200D02*
X7305100Y30683200D01*
X5975000Y32375000D02*
X5975000Y32099600D01*
X7305100Y30683200D02*
X7863900Y30124400D01*
X6324600Y31750000D02*
X6324600Y30685800D01*
X6324600Y30685800D02*
X6322000Y30683200D01*
%TO.N,/DVDDOUT*%
X14198600Y38150800D02*
X16090900Y36258500D01*
X16126400Y34823400D02*
X16126400Y36223000D01*
X16126400Y36223000D02*
X16090900Y36258500D01*
X16408400Y35941000D02*
X17653000Y35941000D01*
X17856200Y35737800D02*
X17856200Y35003000D01*
X16090900Y36258500D02*
X16408400Y35941000D01*
X17653000Y35941000D02*
X17856200Y35737800D01*
X9753600Y38150800D02*
X14198600Y38150800D01*
%TO.N,/REF*%
X4422200Y35054600D02*
X4648200Y35054600D01*
X6167800Y35054600D02*
X6195800Y35026600D01*
X4648200Y35054600D02*
X6167800Y35054600D01*
X4013200Y34645600D02*
X4422200Y35054600D01*
X4013200Y33985200D02*
X4013200Y34645600D01*
%TO.N,/ISP*%
X1040000Y35730000D02*
X1040000Y35550000D01*
X1040000Y35550000D02*
X310000Y34820000D01*
X310000Y34820000D02*
X-2150000Y34820000D01*
%TO.N,/INP*%
X-2510000Y23360000D02*
X-2100000Y22950000D01*
X-2100000Y22950000D02*
X2080000Y22950000D01*
X2080000Y22950000D02*
X2550000Y23420000D01*
X-2510000Y23480000D02*
X-2510000Y23360000D01*
X2550000Y23420000D02*
X2550000Y23540000D01*
D31*
%TO.N,/UR+*%
X4950000Y28270000D02*
X7426414Y28270000D01*
X8640000Y26690000D02*
X7818207Y27511793D01*
X12000000Y26510000D02*
X11970000Y26540000D01*
X3524020Y28620000D02*
X4600000Y28620000D01*
X11970000Y26540000D02*
X11820000Y26690000D01*
X4600000Y28620000D02*
X4950000Y28270000D01*
X11820000Y26690000D02*
X8640000Y26690000D01*
X7818207Y27511793D02*
X7818207Y27878207D01*
X12000000Y23000000D02*
X12000000Y26510000D01*
X7426414Y28270000D02*
X7818207Y27878207D01*
%TO.N,/US+*%
X5100000Y29540000D02*
X5100000Y29720000D01*
X9143911Y27833911D02*
X8786089Y27833911D01*
X8786089Y27833911D02*
X7673311Y28946689D01*
X7673311Y28946689D02*
X5693311Y28946689D01*
X10000000Y23000000D02*
X10000000Y25800000D01*
X5693311Y28946689D02*
X5100000Y29540000D01*
D30*
%TO.N,/RSP*%
X-6750200Y31612980D02*
X-8637220Y33500000D01*
%TO.N,/RSM*%
X-6750200Y29072980D02*
X-8677220Y31000000D01*
%TO.N,/RTP*%
X-6750200Y26532980D02*
X-8717220Y28500000D01*
%TO.N,/RTM*%
X-6750200Y23992980D02*
X-8757220Y26000000D01*
%TO.N,/RRP*%
X-6750200Y37350200D02*
X-7800000Y38400000D01*
X-7800000Y38400000D02*
X-10750000Y38400000D01*
X-6750200Y36692980D02*
X-6750200Y37350200D01*
%TO.N,/RRM*%
X-8370000Y35780000D02*
X-8370000Y35772780D01*
X-8370000Y35772780D02*
X-6750200Y34152980D01*
X-8590000Y36000000D02*
X-8370000Y35780000D01*
X-10750000Y36000000D02*
X-8590000Y36000000D01*
%TO.N,/RNP*%
X-6750200Y21452980D02*
X-8797220Y23500000D01*
%TO.N,/RNM*%
X-6750200Y18912980D02*
X-8962220Y21125000D01*
D31*
%TO.N,/UT+*%
X8000000Y23000000D02*
X8000000Y25690000D01*
X8000000Y25690000D02*
X8050000Y25740000D01*
D30*
%TO.N,/ADE_Reset*%
X25000000Y23000000D02*
X25000000Y25800000D01*
X23269000Y37056000D02*
X23269000Y35128200D01*
X25000000Y25800000D02*
X24841200Y25958800D01*
X23243600Y35102800D02*
X23269000Y35128200D01*
X23269000Y35128200D02*
X24001000Y35128200D01*
X21869400Y38455600D02*
X23269000Y37056000D01*
X22603400Y35102800D02*
X23243600Y35102800D01*
%TO.N,/O_IN*%
X10375000Y29850000D02*
X10375000Y31717500D01*
X10375000Y31717500D02*
X9167500Y32925000D01*
%TO.N,Net-(U1A--)*%
X-3410000Y23230000D02*
X-2780480Y22600480D01*
X-1545980Y22600480D02*
X230000Y20824500D01*
X-2780480Y22600480D02*
X-1545980Y22600480D01*
%TO.N,Net-(U3A--)*%
X-2200000Y33020000D02*
X-2650000Y33470000D01*
X260000Y33020000D02*
X-2200000Y33020000D01*
%TO.N,Net-(U1B--)*%
X-2830000Y29710000D02*
X-3390000Y29150000D01*
X-700000Y29710000D02*
X-2830000Y29710000D01*
%TO.N,/SCLK*%
X22000000Y26100000D02*
X22000000Y23000000D01*
X20620000Y27480000D02*
X20570000Y27480000D01*
X21545000Y26555000D02*
X22000000Y26100000D01*
X23000000Y23000000D02*
X22000000Y23000000D01*
X21545000Y26555000D02*
X20620000Y27480000D01*
%TO.N,/MOSI*%
X20000000Y25875000D02*
X19225000Y25875000D01*
X20000000Y23000000D02*
X21000000Y23000000D01*
X18630000Y26470000D02*
X18630000Y26960000D01*
X19650000Y31357400D02*
X19812000Y31519400D01*
X19225000Y25875000D02*
X18630000Y26470000D01*
X19650000Y30410000D02*
X19650000Y31357400D01*
X14230000Y35660000D02*
X14230000Y32200000D01*
X20000000Y23000000D02*
X20000000Y25875000D01*
X14230000Y32200000D02*
X16020000Y30410000D01*
X17290000Y30410000D02*
X18670000Y30410000D01*
X18670000Y30410000D02*
X19650000Y30410000D01*
X16020000Y30410000D02*
X17290000Y30410000D01*
X18630000Y26960000D02*
X18630000Y30370000D01*
X18630000Y30370000D02*
X18670000Y30410000D01*
%TO.N,/SS*%
X16825000Y29150000D02*
X15925000Y29150000D01*
X19000000Y23000000D02*
X18000000Y23000000D01*
X14327500Y30747500D02*
X14000000Y31075000D01*
X13868400Y31292800D02*
X13868400Y31206600D01*
X18000000Y27975000D02*
X16825000Y29150000D01*
X13868400Y31206600D02*
X14327500Y30747500D01*
X15925000Y29150000D02*
X14327500Y30747500D01*
X18000000Y23000000D02*
X18000000Y27975000D01*
%TO.N,/RN*%
X-4520000Y22670000D02*
X-4590000Y22740000D01*
X-5933343Y22740000D02*
X-5934500Y22738843D01*
X-4590000Y22740000D02*
X-5933343Y22740000D01*
%TO.N,Net-(U3B--)*%
X-2600000Y37812065D02*
X-2234182Y38177883D01*
X-123517Y38177883D02*
X309163Y38610563D01*
X-2600000Y36690000D02*
X-2600000Y37812065D01*
X-2234182Y38177883D02*
X-123517Y38177883D01*
%TO.N,/UM*%
X1625500Y35153500D02*
X2108200Y35636200D01*
X1625500Y25298500D02*
X1625500Y23925500D01*
X2277484Y22357547D02*
X2277484Y22097484D01*
X1625500Y35047145D02*
X1625500Y25298500D01*
X2277484Y22097484D02*
X1915000Y21735000D01*
X2108200Y35636200D02*
X2570600Y35636200D01*
X2438400Y25199400D02*
X1724600Y25199400D01*
X1625500Y35047145D02*
X1625500Y35153500D01*
X1724600Y25199400D02*
X1625500Y25298500D01*
X1625500Y23925500D02*
X1610000Y23910000D01*
D31*
%TO.N,/C+*%
X-70000Y18890000D02*
X-420000Y19240000D01*
X-420000Y19240000D02*
X-3190000Y19240000D01*
X-3190000Y19240000D02*
X-3235000Y19195000D01*
%TO.N,/UR-*%
X13000000Y23000000D02*
X13000000Y26600000D01*
X13040000Y26640000D02*
X12520000Y27160000D01*
X7472831Y28647169D02*
X5072831Y28647169D01*
X8600000Y27160000D02*
X8170000Y27590000D01*
X13000000Y26600000D02*
X13040000Y26640000D01*
X12520000Y27160000D02*
X8600000Y27160000D01*
X5072831Y28647169D02*
X4230000Y29490000D01*
X8170000Y27590000D02*
X8170000Y27950000D01*
X8170000Y27950000D02*
X7472831Y28647169D01*
%TO.N,/US-*%
X8540000Y29270000D02*
X8393411Y29123411D01*
X7683800Y29546200D02*
X7960000Y29270000D01*
X7960000Y29270000D02*
X8540000Y29270000D01*
X11000000Y25870000D02*
X11000000Y23000000D01*
X6182300Y29546200D02*
X7683800Y29546200D01*
%TO.N,/UT-*%
X9020000Y25950000D02*
X9000000Y25930000D01*
X9000000Y25930000D02*
X9000000Y23550000D01*
%TO.N,/C-*%
X-4880000Y20148255D02*
X-4880000Y21550000D01*
X-4880000Y21550000D02*
X-4740000Y21690000D01*
X-4765656Y20033911D02*
X-4880000Y20148255D01*
X-4740000Y21690000D02*
X-3280000Y21690000D01*
X-3280000Y21690000D02*
X-3235000Y21735000D01*
D30*
%TO.N,/SYN*%
X24000000Y25530000D02*
X24000000Y23000000D01*
X23393400Y26136600D02*
X24000000Y25530000D01*
%TD*%
%TA.AperFunction,Conductor*%
%TO.N,GND*%
G36*
X-9057879Y42479998D02*
G01*
X-9011386Y42426342D01*
X-9000000Y42374000D01*
X-9000000Y40000000D01*
X27524000Y40000000D01*
X27592121Y39979998D01*
X27638614Y39926342D01*
X27650000Y39874000D01*
X27650000Y26598872D01*
X27629998Y26530751D01*
X27576342Y26484258D01*
X27506068Y26474154D01*
X27441488Y26503648D01*
X27424040Y26522164D01*
X27352282Y26615682D01*
X27226841Y26711936D01*
X27080762Y26772444D01*
X26924000Y26793082D01*
X26767238Y26772444D01*
X26621159Y26711936D01*
X26495718Y26615682D01*
X26495716Y26615680D01*
X26495715Y26615679D01*
X26435926Y26537761D01*
X26378588Y26495894D01*
X26307717Y26491672D01*
X26245814Y26526436D01*
X26236007Y26537754D01*
X26234682Y26539482D01*
X26109241Y26635736D01*
X25963162Y26696244D01*
X25806400Y26716882D01*
X25649638Y26696244D01*
X25503559Y26635736D01*
X25378118Y26539482D01*
X25378116Y26539480D01*
X25378115Y26539479D01*
X25340958Y26491055D01*
X25283620Y26449188D01*
X25212749Y26444966D01*
X25164293Y26467795D01*
X25144041Y26483336D01*
X24997962Y26543844D01*
X24841200Y26564482D01*
X24684438Y26543844D01*
X24538359Y26483336D01*
X24412918Y26387082D01*
X24318884Y26264534D01*
X24316665Y26261642D01*
X24316663Y26261639D01*
X24256155Y26115560D01*
X24245136Y26031857D01*
X24216414Y25966929D01*
X24157148Y25927838D01*
X24086157Y25926993D01*
X24031127Y25959199D01*
X24026114Y25964211D01*
X23992085Y26026517D01*
X23990281Y26069755D01*
X23999082Y26136600D01*
X23978444Y26293362D01*
X23917936Y26439441D01*
X23821682Y26564882D01*
X23696241Y26661136D01*
X23550162Y26721644D01*
X23393400Y26742282D01*
X23236638Y26721644D01*
X23090559Y26661136D01*
X22965118Y26564882D01*
X22868865Y26439442D01*
X22868863Y26439439D01*
X22808355Y26293360D01*
X22787718Y26136600D01*
X22787718Y26136599D01*
X22808355Y25979839D01*
X22868863Y25833760D01*
X22868865Y25833757D01*
X22965118Y25708318D01*
X23090557Y25612065D01*
X23090558Y25612064D01*
X23090559Y25612064D01*
X23136806Y25592907D01*
X23192085Y25548360D01*
X23214506Y25480997D01*
X23196948Y25412206D01*
X23144985Y25363827D01*
X23088586Y25350500D01*
X22630252Y25350500D01*
X22571769Y25338867D01*
X22570813Y25338228D01*
X22570002Y25337686D01*
X22565566Y25336297D01*
X22560306Y25334118D01*
X22560110Y25334588D01*
X22502249Y25316471D01*
X22433782Y25335254D01*
X22429998Y25337686D01*
X22428231Y25338867D01*
X22427208Y25339070D01*
X22426920Y25339128D01*
X22424333Y25340481D01*
X22416763Y25343617D01*
X22417043Y25344294D01*
X22364010Y25372035D01*
X22328877Y25433729D01*
X22325500Y25462707D01*
X22325500Y26142851D01*
X22325500Y26142853D01*
X22323579Y26150021D01*
X22303318Y26225639D01*
X22260465Y26299862D01*
X21744862Y26815465D01*
X21734495Y26825832D01*
X21734485Y26825839D01*
X21208523Y27351801D01*
X21174499Y27414111D01*
X21172698Y27457337D01*
X21175682Y27480000D01*
X21155044Y27636762D01*
X21094536Y27782841D01*
X20998282Y27908282D01*
X20872841Y28004536D01*
X20726762Y28065044D01*
X20570000Y28085682D01*
X20413238Y28065044D01*
X20267159Y28004536D01*
X20141718Y27908282D01*
X20084651Y27833910D01*
X20045465Y27782842D01*
X20045463Y27782839D01*
X19984955Y27636760D01*
X19964318Y27480000D01*
X19964318Y27479999D01*
X19984955Y27323239D01*
X20045463Y27177160D01*
X20045465Y27177157D01*
X20141718Y27051718D01*
X20267157Y26955465D01*
X20267160Y26955463D01*
X20413239Y26894955D01*
X20570000Y26874318D01*
X20570001Y26874318D01*
X20681024Y26888934D01*
X20751173Y26877994D01*
X20786565Y26853108D01*
X21284533Y26355140D01*
X21637595Y26002078D01*
X21671621Y25939766D01*
X21674500Y25912983D01*
X21674500Y25462707D01*
X21654498Y25394586D01*
X21600842Y25348093D01*
X21573080Y25339128D01*
X21572721Y25339056D01*
X21571769Y25338867D01*
X21570813Y25338228D01*
X21570002Y25337686D01*
X21565566Y25336297D01*
X21560306Y25334118D01*
X21560110Y25334588D01*
X21502249Y25316471D01*
X21433782Y25335254D01*
X21429998Y25337686D01*
X21428231Y25338867D01*
X21369748Y25350500D01*
X20630252Y25350500D01*
X20571769Y25338867D01*
X20570813Y25338228D01*
X20570002Y25337686D01*
X20565566Y25336297D01*
X20560306Y25334118D01*
X20560110Y25334588D01*
X20502249Y25316471D01*
X20433782Y25335254D01*
X20429998Y25337686D01*
X20428231Y25338867D01*
X20427208Y25339070D01*
X20426920Y25339128D01*
X20424333Y25340481D01*
X20416763Y25343617D01*
X20417043Y25344294D01*
X20364010Y25372035D01*
X20328877Y25433729D01*
X20325500Y25462707D01*
X20325500Y25917851D01*
X20325500Y25917853D01*
X20303318Y26000638D01*
X20297923Y26009982D01*
X20260467Y26074858D01*
X20260465Y26074862D01*
X20199862Y26135465D01*
X20141928Y26168913D01*
X20125642Y26178316D01*
X20125641Y26178316D01*
X20125638Y26178318D01*
X20042853Y26200500D01*
X20042851Y26200500D01*
X19412018Y26200500D01*
X19343897Y26220502D01*
X19322923Y26237404D01*
X19290189Y26270138D01*
X19123531Y26436794D01*
X19089508Y26499104D01*
X19094572Y26569920D01*
X19112665Y26602592D01*
X19122707Y26615679D01*
X19154536Y26657159D01*
X19215044Y26803238D01*
X19235682Y26960000D01*
X19215044Y27116762D01*
X19154536Y27262841D01*
X19058282Y27388282D01*
X19004796Y27429322D01*
X18962929Y27486659D01*
X18955500Y27529285D01*
X18955500Y29514800D01*
X22838518Y29514800D01*
X22838518Y29514799D01*
X22859155Y29358039D01*
X22919663Y29211960D01*
X22919665Y29211957D01*
X23015918Y29086518D01*
X23141357Y28990265D01*
X23141360Y28990263D01*
X23287439Y28929755D01*
X23444200Y28909118D01*
X23600960Y28929755D01*
X23747039Y28990263D01*
X23747042Y28990265D01*
X23872482Y29086518D01*
X23968736Y29211959D01*
X24029244Y29358038D01*
X24049882Y29514800D01*
X24029244Y29671562D01*
X23968736Y29817641D01*
X23872482Y29943082D01*
X23747041Y30039336D01*
X23600962Y30099844D01*
X23444200Y30120482D01*
X23287438Y30099844D01*
X23141359Y30039336D01*
X23015918Y29943082D01*
X22919665Y29817642D01*
X22919663Y29817639D01*
X22859155Y29671560D01*
X22838518Y29514800D01*
X18955500Y29514800D01*
X18955500Y29957475D01*
X18975502Y30025596D01*
X19029158Y30072089D01*
X19099432Y30082193D01*
X19164012Y30052699D01*
X19181462Y30034180D01*
X19221717Y29981718D01*
X19347157Y29885465D01*
X19347160Y29885463D01*
X19493239Y29824955D01*
X19650000Y29804318D01*
X19806760Y29824955D01*
X19952839Y29885463D01*
X19952842Y29885465D01*
X19953804Y29886203D01*
X20078282Y29981718D01*
X20174536Y30107159D01*
X20235044Y30253238D01*
X20255682Y30410000D01*
X20235044Y30566762D01*
X20174536Y30712841D01*
X20078282Y30838282D01*
X20069679Y30844882D01*
X20027811Y30902217D01*
X20023586Y30973088D01*
X20058347Y31034992D01*
X20093129Y31059041D01*
X20192403Y31105334D01*
X20192406Y31105336D01*
X20276064Y31188994D01*
X20285405Y31209026D01*
X20326068Y31296227D01*
X20332500Y31345084D01*
X20332500Y31693716D01*
X20326068Y31742573D01*
X20276065Y31849804D01*
X20232446Y31893423D01*
X20185565Y31940305D01*
X20151539Y32002617D01*
X20156604Y32073432D01*
X20185565Y32118495D01*
X20276064Y32208994D01*
X20291853Y32242853D01*
X20326068Y32316227D01*
X20332500Y32365084D01*
X20332500Y32461203D01*
X24496259Y32461203D01*
X24496259Y32461196D01*
X24515574Y32265075D01*
X24515574Y32265073D01*
X24572786Y32076471D01*
X24665690Y31902661D01*
X24790717Y31750317D01*
X24943061Y31625290D01*
X25116871Y31532386D01*
X25305474Y31475174D01*
X25501597Y31455859D01*
X25501600Y31455859D01*
X25501603Y31455859D01*
X25697724Y31475174D01*
X25697726Y31475174D01*
X25886328Y31532386D01*
X26060138Y31625290D01*
X26212483Y31750317D01*
X26337510Y31902662D01*
X26430414Y32076473D01*
X26487624Y32265068D01*
X26487624Y32265070D01*
X26487625Y32265073D01*
X26487625Y32265075D01*
X26506941Y32461196D01*
X26506941Y32461203D01*
X26487625Y32657324D01*
X26487625Y32657326D01*
X26487624Y32657327D01*
X26487624Y32657332D01*
X26430414Y32845927D01*
X26337510Y33019738D01*
X26212483Y33172083D01*
X26060138Y33297110D01*
X25886327Y33390014D01*
X25697732Y33447224D01*
X25697726Y33447224D01*
X25697725Y33447225D01*
X25501603Y33466541D01*
X25501597Y33466541D01*
X25305475Y33447225D01*
X25305473Y33447225D01*
X25305470Y33447224D01*
X25305468Y33447224D01*
X25116873Y33390014D01*
X24943062Y33297110D01*
X24790717Y33172083D01*
X24683729Y33041718D01*
X24665690Y33019738D01*
X24572786Y32845928D01*
X24515574Y32657326D01*
X24515574Y32657324D01*
X24496259Y32461203D01*
X20332500Y32461203D01*
X20332500Y32621582D01*
X20352502Y32689703D01*
X20369405Y32710677D01*
X20580459Y32921731D01*
X20580467Y32921741D01*
X20623317Y32995961D01*
X20623318Y32995962D01*
X20645500Y33078747D01*
X20645500Y34561453D01*
X20623318Y34644238D01*
X20622167Y34646231D01*
X20591171Y34699918D01*
X20580465Y34718462D01*
X20519862Y34779065D01*
X20088062Y35210865D01*
X20067017Y35223015D01*
X20030059Y35255426D01*
X19935482Y35378682D01*
X19810041Y35474936D01*
X19663962Y35535444D01*
X19507200Y35556082D01*
X19350438Y35535444D01*
X19204359Y35474936D01*
X19204354Y35474932D01*
X19204352Y35474931D01*
X19127832Y35416215D01*
X19061612Y35390614D01*
X18992063Y35404879D01*
X18941267Y35454480D01*
X18932202Y35474553D01*
X18908993Y35540882D01*
X18899134Y35554240D01*
X18828350Y35650150D01*
X18719085Y35730791D01*
X18719084Y35730791D01*
X18719082Y35730793D01*
X18590899Y35775646D01*
X18560466Y35778500D01*
X18560464Y35778500D01*
X18278892Y35778500D01*
X18210771Y35798502D01*
X18164278Y35852158D01*
X18162486Y35856275D01*
X18159519Y35863433D01*
X18159518Y35863439D01*
X18116665Y35937662D01*
X17852862Y36201465D01*
X17778639Y36244318D01*
X17695853Y36266500D01*
X17695851Y36266500D01*
X16595417Y36266500D01*
X16527296Y36286502D01*
X16506321Y36303405D01*
X16290762Y36518965D01*
X14398468Y38411259D01*
X14398462Y38411265D01*
X14324239Y38454118D01*
X14318708Y38455600D01*
X21263718Y38455600D01*
X21263718Y38455599D01*
X21284355Y38298839D01*
X21344863Y38152760D01*
X21344865Y38152757D01*
X21441118Y38027318D01*
X21566557Y37931065D01*
X21566560Y37931063D01*
X21712639Y37870555D01*
X21869400Y37849918D01*
X21869402Y37849918D01*
X21936239Y37858717D01*
X22006388Y37847777D01*
X22041780Y37822891D01*
X22906595Y36958077D01*
X22940620Y36895764D01*
X22943500Y36868981D01*
X22943500Y35735884D01*
X22923498Y35667763D01*
X22869842Y35621270D01*
X22801055Y35610962D01*
X22783301Y35613300D01*
X22423500Y35613299D01*
X22423498Y35613298D01*
X22423489Y35613298D01*
X22399713Y35610168D01*
X22373913Y35606772D01*
X22265084Y35556024D01*
X22265082Y35556023D01*
X22180176Y35471117D01*
X22129427Y35362285D01*
X22122900Y35312705D01*
X22122900Y34892901D01*
X22122901Y34892889D01*
X22129427Y34843316D01*
X22129429Y34843310D01*
X22180176Y34734482D01*
X22265082Y34649576D01*
X22373914Y34598827D01*
X22416972Y34593159D01*
X22423499Y34592300D01*
X22423500Y34592300D01*
X22783298Y34592300D01*
X22783310Y34592301D01*
X22832883Y34598827D01*
X22832885Y34598827D01*
X22832887Y34598828D01*
X22851913Y34607700D01*
X22941717Y34649576D01*
X23032536Y34740395D01*
X23094848Y34774421D01*
X23121631Y34777300D01*
X23286453Y34777300D01*
X23365228Y34798407D01*
X23397838Y34802700D01*
X23482900Y34802700D01*
X23551021Y34782698D01*
X23586116Y34748966D01*
X23586937Y34747792D01*
X23670594Y34664135D01*
X23777828Y34614131D01*
X23826677Y34607700D01*
X23826684Y34607700D01*
X24175322Y34607700D01*
X24224171Y34614131D01*
X24331405Y34664135D01*
X24421905Y34754635D01*
X24484217Y34788661D01*
X24555032Y34783596D01*
X24600095Y34754635D01*
X24690593Y34664136D01*
X24690594Y34664135D01*
X24797828Y34614131D01*
X24846677Y34607700D01*
X24846684Y34607700D01*
X25195322Y34607700D01*
X25244171Y34614131D01*
X25343530Y34660463D01*
X25413722Y34671124D01*
X25473483Y34646231D01*
X25528952Y34603668D01*
X25528960Y34603663D01*
X25675039Y34543155D01*
X25831800Y34522518D01*
X25988560Y34543155D01*
X26134639Y34603663D01*
X26134642Y34603665D01*
X26134646Y34603668D01*
X26260082Y34699918D01*
X26356336Y34825359D01*
X26416844Y34971438D01*
X26431516Y35082885D01*
X26437482Y35128199D01*
X26437482Y35128200D01*
X26429120Y35191717D01*
X26416844Y35284962D01*
X26356336Y35431041D01*
X26260082Y35556482D01*
X26134641Y35652736D01*
X25988562Y35713244D01*
X25831800Y35733882D01*
X25675038Y35713244D01*
X25528959Y35652736D01*
X25473482Y35610167D01*
X25407264Y35584568D01*
X25343529Y35595937D01*
X25320298Y35606770D01*
X25244173Y35642268D01*
X25195316Y35648700D01*
X24846684Y35648700D01*
X24797827Y35642268D01*
X24721702Y35606770D01*
X24690594Y35592264D01*
X24600095Y35501765D01*
X24537783Y35467739D01*
X24466968Y35472804D01*
X24421905Y35501765D01*
X24331406Y35592263D01*
X24331405Y35592264D01*
X24331404Y35592265D01*
X24224173Y35642268D01*
X24175316Y35648700D01*
X23826684Y35648700D01*
X23777827Y35642268D01*
X23773755Y35640369D01*
X23768649Y35639593D01*
X23768573Y35639571D01*
X23768570Y35639581D01*
X23703564Y35629704D01*
X23638750Y35658681D01*
X23599891Y35718099D01*
X23594500Y35754561D01*
X23594500Y37098851D01*
X23594500Y37098853D01*
X23572318Y37181638D01*
X23529465Y37255862D01*
X23468862Y37316465D01*
X22502105Y38283220D01*
X22468083Y38345529D01*
X22466281Y38388754D01*
X22475082Y38455600D01*
X22454444Y38612362D01*
X22393936Y38758441D01*
X22297682Y38883882D01*
X22172241Y38980136D01*
X22026162Y39040644D01*
X21869400Y39061282D01*
X21712638Y39040644D01*
X21566559Y38980136D01*
X21441118Y38883882D01*
X21344865Y38758442D01*
X21344863Y38758439D01*
X21284355Y38612360D01*
X21263718Y38455600D01*
X14318708Y38455600D01*
X14241453Y38476300D01*
X14241451Y38476300D01*
X10322886Y38476300D01*
X10254765Y38496302D01*
X10222924Y38525596D01*
X10181884Y38579079D01*
X10181882Y38579082D01*
X10056441Y38675336D01*
X9910362Y38735844D01*
X9753600Y38756482D01*
X9596838Y38735844D01*
X9450759Y38675336D01*
X9325318Y38579082D01*
X9229430Y38454118D01*
X9229065Y38453642D01*
X9229063Y38453639D01*
X9168555Y38307560D01*
X9147918Y38150800D01*
X9147918Y38150799D01*
X9168555Y37994039D01*
X9229063Y37847960D01*
X9229065Y37847957D01*
X9325318Y37722518D01*
X9450757Y37626265D01*
X9450760Y37626263D01*
X9596839Y37565755D01*
X9753600Y37545118D01*
X9910360Y37565755D01*
X10056439Y37626263D01*
X10056442Y37626265D01*
X10181882Y37722518D01*
X10181884Y37722520D01*
X10222924Y37776004D01*
X10280262Y37817871D01*
X10322886Y37825300D01*
X10377261Y37825300D01*
X10445382Y37805298D01*
X10491875Y37751642D01*
X10501979Y37681368D01*
X10493671Y37651086D01*
X10477744Y37612635D01*
X10464955Y37581760D01*
X10444318Y37425000D01*
X10444318Y37424998D01*
X10453117Y37358157D01*
X10442177Y37288008D01*
X10417291Y37252617D01*
X10255135Y37090462D01*
X10255134Y37090460D01*
X10212282Y37016240D01*
X10206014Y36992843D01*
X10206012Y36992841D01*
X10206013Y36992841D01*
X10190100Y36933453D01*
X10190100Y36933451D01*
X10190100Y35796231D01*
X10170098Y35728110D01*
X10153195Y35707136D01*
X10087776Y35641717D01*
X10037027Y35532885D01*
X10030500Y35483304D01*
X10030500Y35123501D01*
X10030501Y35123489D01*
X10037027Y35073916D01*
X10037029Y35073910D01*
X10087776Y34965082D01*
X10172682Y34880176D01*
X10281514Y34829427D01*
X10324572Y34823759D01*
X10331099Y34822900D01*
X10331100Y34822900D01*
X10750898Y34822900D01*
X10750910Y34822901D01*
X10800483Y34829427D01*
X10800485Y34829427D01*
X10800487Y34829428D01*
X10830257Y34843310D01*
X10909317Y34880176D01*
X11002019Y34972878D01*
X11002963Y34971933D01*
X11049468Y35009102D01*
X11120088Y35016408D01*
X11183447Y34984374D01*
X11211413Y34945753D01*
X11215176Y34937683D01*
X11215177Y34937681D01*
X11300082Y34852776D01*
X11408914Y34802027D01*
X11451972Y34796359D01*
X11458499Y34795500D01*
X11458500Y34795500D01*
X11818298Y34795500D01*
X11818310Y34795501D01*
X11867883Y34802027D01*
X11867885Y34802027D01*
X11867887Y34802028D01*
X11917916Y34825357D01*
X11976717Y34852776D01*
X12061623Y34937682D01*
X12077364Y34971439D01*
X12112372Y35046513D01*
X12118900Y35096099D01*
X12118899Y35515900D01*
X12112372Y35565487D01*
X12061624Y35674316D01*
X11976716Y35759224D01*
X11955250Y35769233D01*
X11901965Y35816150D01*
X11882500Y35883428D01*
X11882500Y36050021D01*
X11902502Y36118142D01*
X11956158Y36164635D01*
X12026432Y36174739D01*
X12085203Y36149984D01*
X12117152Y36125468D01*
X12117160Y36125463D01*
X12263239Y36064955D01*
X12420000Y36044318D01*
X12576760Y36064955D01*
X12722839Y36125463D01*
X12722842Y36125465D01*
X12722846Y36125468D01*
X12848282Y36221718D01*
X12944536Y36347159D01*
X13005044Y36493238D01*
X13025682Y36650000D01*
X13005044Y36806762D01*
X12944536Y36952841D01*
X12848282Y37078282D01*
X12722841Y37174536D01*
X12576762Y37235044D01*
X12420000Y37255682D01*
X12263238Y37235044D01*
X12117159Y37174536D01*
X12000780Y37085236D01*
X11934563Y37059637D01*
X11865014Y37073902D01*
X11824586Y37112917D01*
X11822492Y37111310D01*
X11817468Y37117855D01*
X11817465Y37117862D01*
X11682706Y37252619D01*
X11648683Y37314929D01*
X11646881Y37358157D01*
X11655682Y37425000D01*
X11635044Y37581762D01*
X11606329Y37651084D01*
X11598741Y37721671D01*
X11630520Y37785158D01*
X11691578Y37821386D01*
X11722739Y37825300D01*
X14011583Y37825300D01*
X14079704Y37805298D01*
X14100678Y37788395D01*
X15763995Y36125078D01*
X15798021Y36062766D01*
X15800900Y36035983D01*
X15800900Y35341631D01*
X15780898Y35273510D01*
X15763995Y35252536D01*
X15703176Y35191717D01*
X15652427Y35082885D01*
X15645900Y35033305D01*
X15645900Y34613501D01*
X15645901Y34613489D01*
X15652427Y34563916D01*
X15652429Y34563910D01*
X15703176Y34455082D01*
X15788082Y34370176D01*
X15896914Y34319427D01*
X15937209Y34314123D01*
X15946499Y34312900D01*
X15946500Y34312900D01*
X16306298Y34312900D01*
X16306310Y34312901D01*
X16355883Y34319427D01*
X16355885Y34319427D01*
X16355887Y34319428D01*
X16369629Y34325836D01*
X16464717Y34370176D01*
X16549622Y34455081D01*
X16549623Y34455083D01*
X16549624Y34455084D01*
X16565757Y34489682D01*
X16612673Y34542967D01*
X16680950Y34562429D01*
X16748910Y34541888D01*
X16794977Y34487866D01*
X16798879Y34478054D01*
X16803405Y34465120D01*
X16803408Y34465114D01*
X16884049Y34355849D01*
X16993314Y34275208D01*
X16993318Y34275206D01*
X17121495Y34230355D01*
X17121499Y34230354D01*
X17151933Y34227500D01*
X17151934Y34227500D01*
X18560466Y34227500D01*
X18590900Y34230354D01*
X18590904Y34230355D01*
X18719081Y34275206D01*
X18719085Y34275208D01*
X18828350Y34355849D01*
X18908988Y34465110D01*
X18908990Y34465114D01*
X18908993Y34465118D01*
X18908994Y34465122D01*
X18909727Y34466508D01*
X18910940Y34467754D01*
X18914601Y34472715D01*
X18915279Y34472214D01*
X18959238Y34517392D01*
X19028400Y34533430D01*
X19095253Y34509531D01*
X19097833Y34507603D01*
X19204352Y34425868D01*
X19204360Y34425863D01*
X19350439Y34365355D01*
X19507200Y34344718D01*
X19663960Y34365355D01*
X19727610Y34391720D01*
X19810041Y34425864D01*
X19810042Y34425865D01*
X19817671Y34429025D01*
X19818734Y34426456D01*
X19874512Y34439979D01*
X19941601Y34416750D01*
X19985481Y34360937D01*
X19994500Y34314123D01*
X19994500Y33308617D01*
X19974498Y33240496D01*
X19957595Y33219522D01*
X19784878Y33046805D01*
X19722566Y33012779D01*
X19695783Y33009900D01*
X19587684Y33009900D01*
X19538827Y33003468D01*
X19431596Y32953465D01*
X19431594Y32953464D01*
X19347935Y32869805D01*
X19297931Y32762571D01*
X19291500Y32713722D01*
X19291500Y32365077D01*
X19297931Y32316228D01*
X19347935Y32208994D01*
X19347936Y32208993D01*
X19438435Y32118495D01*
X19472461Y32056183D01*
X19467396Y31985368D01*
X19438435Y31940305D01*
X19347935Y31849805D01*
X19297931Y31742571D01*
X19291500Y31693722D01*
X19291500Y31345079D01*
X19297931Y31296229D01*
X19297933Y31296223D01*
X19312695Y31264566D01*
X19324500Y31211317D01*
X19324500Y30979285D01*
X19304498Y30911164D01*
X19275203Y30879322D01*
X19221717Y30838281D01*
X19180676Y30784796D01*
X19123338Y30742929D01*
X19080714Y30735500D01*
X18720587Y30735500D01*
X18720571Y30735501D01*
X18712853Y30735501D01*
X18627148Y30735501D01*
X18619430Y30735501D01*
X18619414Y30735500D01*
X16207017Y30735500D01*
X16138896Y30755502D01*
X16117922Y30772405D01*
X14592405Y32297922D01*
X14558379Y32360234D01*
X14555500Y32387017D01*
X14555500Y35090714D01*
X14575502Y35158835D01*
X14604796Y35190676D01*
X14658279Y35231715D01*
X14658280Y35231716D01*
X14658282Y35231718D01*
X14754536Y35357159D01*
X14815044Y35503238D01*
X14829534Y35613300D01*
X14835682Y35659999D01*
X14835682Y35660000D01*
X14821892Y35764748D01*
X14815044Y35816762D01*
X14754536Y35962841D01*
X14658282Y36088282D01*
X14532841Y36184536D01*
X14386762Y36245044D01*
X14230000Y36265682D01*
X14073238Y36245044D01*
X13927159Y36184536D01*
X13801718Y36088282D01*
X13706248Y35963863D01*
X13705465Y35962842D01*
X13705463Y35962839D01*
X13644955Y35816760D01*
X13624318Y35660000D01*
X13624318Y35659999D01*
X13644955Y35503239D01*
X13705463Y35357160D01*
X13705465Y35357157D01*
X13801720Y35231715D01*
X13855204Y35190676D01*
X13897071Y35133338D01*
X13904500Y35090714D01*
X13904500Y32242853D01*
X13904500Y32157147D01*
X13926682Y32074361D01*
X13926684Y32074355D01*
X13929843Y32066732D01*
X13926608Y32065392D01*
X13939359Y32011789D01*
X13915840Y31944802D01*
X13859838Y31901163D01*
X13829979Y31893423D01*
X13711638Y31877844D01*
X13565559Y31817336D01*
X13440118Y31721082D01*
X13357171Y31612983D01*
X13343865Y31595642D01*
X13343863Y31595639D01*
X13283355Y31449560D01*
X13262718Y31292800D01*
X13262718Y31292799D01*
X13283355Y31136039D01*
X13343863Y30989960D01*
X13343865Y30989957D01*
X13440118Y30864518D01*
X13565557Y30768265D01*
X13565560Y30768263D01*
X13626723Y30742929D01*
X13711638Y30707756D01*
X13711639Y30707755D01*
X13719268Y30704596D01*
X13718585Y30702948D01*
X13770588Y30671248D01*
X13801605Y30607385D01*
X13793171Y30536891D01*
X13747965Y30482147D01*
X13680338Y30460534D01*
X13677370Y30460499D01*
X13565100Y30460499D01*
X13565098Y30460498D01*
X13565089Y30460498D01*
X13538743Y30457029D01*
X13515513Y30453972D01*
X13431983Y30415021D01*
X13406682Y30403223D01*
X13345864Y30342405D01*
X13283552Y30308379D01*
X13256769Y30305500D01*
X12734000Y30305500D01*
X12665879Y30325502D01*
X12619386Y30379158D01*
X12608000Y30431500D01*
X12608000Y31344746D01*
X12608000Y31344748D01*
X12596367Y31403231D01*
X12552052Y31469552D01*
X12485731Y31513867D01*
X12427248Y31525500D01*
X12427247Y31525500D01*
X12159000Y31525500D01*
X12090879Y31545502D01*
X12044386Y31599158D01*
X12033000Y31651500D01*
X12033000Y31998500D01*
X12053002Y32066621D01*
X12106658Y32113114D01*
X12159000Y32124500D01*
X12427250Y32124500D01*
X12485728Y32136132D01*
X12485731Y32136133D01*
X12517180Y32157147D01*
X12552052Y32180448D01*
X12596367Y32246769D01*
X12608000Y32305252D01*
X12608000Y33544748D01*
X12596367Y33603231D01*
X12552052Y33669552D01*
X12485731Y33713867D01*
X12427248Y33725500D01*
X10987752Y33725500D01*
X10929269Y33713867D01*
X10862948Y33669552D01*
X10848557Y33648014D01*
X10818633Y33603231D01*
X10818632Y33603228D01*
X10807000Y33544750D01*
X10807000Y32305249D01*
X10818632Y32246771D01*
X10818633Y32246768D01*
X10862948Y32180448D01*
X10929268Y32136133D01*
X10929271Y32136132D01*
X10987749Y32124500D01*
X10987752Y32124500D01*
X11256000Y32124500D01*
X11324121Y32104498D01*
X11370614Y32050842D01*
X11382000Y31998500D01*
X11382000Y31651500D01*
X11361998Y31583379D01*
X11308342Y31536886D01*
X11256000Y31525500D01*
X10987752Y31525500D01*
X10929269Y31513867D01*
X10896499Y31491971D01*
X10828750Y31470757D01*
X10760283Y31489539D01*
X10712839Y31542356D01*
X10700500Y31596737D01*
X10700500Y31760350D01*
X10700499Y31760357D01*
X10695272Y31779864D01*
X10693263Y31787361D01*
X10678318Y31843139D01*
X10635465Y31917362D01*
X10104903Y32447923D01*
X10070880Y32510234D01*
X10068000Y32537017D01*
X10068000Y33544746D01*
X10068000Y33544748D01*
X10056367Y33603231D01*
X10012052Y33669552D01*
X9945731Y33713867D01*
X9887248Y33725500D01*
X8447752Y33725500D01*
X8389269Y33713867D01*
X8322948Y33669552D01*
X8308557Y33648014D01*
X8278633Y33603231D01*
X8278632Y33603228D01*
X8267000Y33544750D01*
X8267000Y32305249D01*
X8278632Y32246771D01*
X8278633Y32246768D01*
X8322948Y32180448D01*
X8389268Y32136133D01*
X8389271Y32136132D01*
X8447749Y32124500D01*
X8447752Y32124500D01*
X9455483Y32124500D01*
X9523604Y32104498D01*
X9544578Y32087595D01*
X10012595Y31619578D01*
X10046621Y31557266D01*
X10049500Y31530483D01*
X10049500Y30419285D01*
X10029498Y30351164D01*
X10000203Y30319322D01*
X9981595Y30305044D01*
X9950469Y30281160D01*
X9946718Y30278282D01*
X9865703Y30172700D01*
X9850465Y30152842D01*
X9850463Y30152839D01*
X9789955Y30006760D01*
X9769318Y29850000D01*
X9769318Y29849999D01*
X9789955Y29693239D01*
X9850463Y29547160D01*
X9850465Y29547157D01*
X9946720Y29421715D01*
X10078134Y29320878D01*
X10120001Y29263540D01*
X10124223Y29192669D01*
X10101392Y29144212D01*
X10050468Y29077847D01*
X10050463Y29077839D01*
X9989955Y28931760D01*
X9969318Y28775000D01*
X9969318Y28774999D01*
X9989955Y28618239D01*
X10050463Y28472160D01*
X10050465Y28472157D01*
X10146718Y28346718D01*
X10272157Y28250465D01*
X10272160Y28250463D01*
X10418239Y28189955D01*
X10575000Y28169318D01*
X10731760Y28189955D01*
X10877839Y28250463D01*
X10877842Y28250465D01*
X10893125Y28262192D01*
X11003282Y28346718D01*
X11099536Y28472159D01*
X11160044Y28618238D01*
X11180682Y28775000D01*
X11160044Y28931762D01*
X11099536Y29077841D01*
X11003282Y29203282D01*
X10877841Y29299536D01*
X10877838Y29299536D01*
X10871866Y29304120D01*
X10829998Y29361458D01*
X10825776Y29432329D01*
X10848607Y29480787D01*
X10899531Y29547152D01*
X10899534Y29547157D01*
X10899536Y29547159D01*
X10960044Y29693238D01*
X10976067Y29814946D01*
X11004789Y29879873D01*
X11064054Y29918965D01*
X11100989Y29924500D01*
X11146317Y29924500D01*
X11214438Y29904498D01*
X11260931Y29850842D01*
X11271238Y29782054D01*
X11259546Y29693239D01*
X11256118Y29667199D01*
X11276755Y29510439D01*
X11337263Y29364360D01*
X11337265Y29364357D01*
X11433518Y29238918D01*
X11558957Y29142665D01*
X11558960Y29142663D01*
X11705039Y29082155D01*
X11861800Y29061518D01*
X12018560Y29082155D01*
X12164639Y29142663D01*
X12164642Y29142665D01*
X12167078Y29144534D01*
X12290082Y29238918D01*
X12386336Y29364359D01*
X12446844Y29510438D01*
X12451387Y29544946D01*
X12480109Y29609873D01*
X12539374Y29648965D01*
X12576309Y29654500D01*
X13256769Y29654500D01*
X13324890Y29634498D01*
X13345864Y29617595D01*
X13406681Y29556777D01*
X13406682Y29556776D01*
X13515514Y29506027D01*
X13558572Y29500359D01*
X13565099Y29499500D01*
X13565100Y29499500D01*
X13984898Y29499500D01*
X13984910Y29499501D01*
X14034483Y29506027D01*
X14034485Y29506027D01*
X14034487Y29506028D01*
X14117947Y29544946D01*
X14143317Y29556776D01*
X14228223Y29641682D01*
X14230592Y29646762D01*
X14278972Y29750513D01*
X14285500Y29800099D01*
X14285499Y30024983D01*
X14305501Y30093103D01*
X14359156Y30139596D01*
X14429430Y30149701D01*
X14494011Y30120208D01*
X14500594Y30114078D01*
X15725131Y28889540D01*
X15725141Y28889532D01*
X15799356Y28846684D01*
X15799359Y28846683D01*
X15799361Y28846682D01*
X15882147Y28824500D01*
X15967853Y28824500D01*
X16637983Y28824500D01*
X16706104Y28804498D01*
X16727078Y28787595D01*
X17637595Y27877078D01*
X17671621Y27814766D01*
X17674500Y27787983D01*
X17674500Y25462707D01*
X17654498Y25394586D01*
X17600842Y25348093D01*
X17573080Y25339128D01*
X17572721Y25339056D01*
X17571769Y25338867D01*
X17505448Y25294552D01*
X17471736Y25244099D01*
X17461133Y25228231D01*
X17461132Y25228228D01*
X17449500Y25169750D01*
X17449500Y20876000D01*
X17429498Y20807879D01*
X17375842Y20761386D01*
X17323500Y20750000D01*
X16576000Y20750000D01*
X16507879Y20770002D01*
X16461386Y20823658D01*
X16450000Y20876000D01*
X16450000Y27000000D01*
X16447398Y27099574D01*
X16443745Y27116760D01*
X16405992Y27294375D01*
X16324990Y27476308D01*
X16207932Y27637425D01*
X16194521Y27649500D01*
X16124403Y27712635D01*
X16059934Y27770683D01*
X15887464Y27870258D01*
X15698060Y27931800D01*
X15500000Y27952617D01*
X15301940Y27931800D01*
X15112536Y27870258D01*
X14940066Y27770683D01*
X14940063Y27770680D01*
X14940061Y27770679D01*
X14792069Y27637427D01*
X14675012Y27476312D01*
X14675010Y27476308D01*
X14609694Y27329606D01*
X14594008Y27294375D01*
X14552601Y27099574D01*
X14550000Y27000000D01*
X14550000Y20876000D01*
X14529998Y20807879D01*
X14476342Y20761386D01*
X14424000Y20750000D01*
X13676500Y20750000D01*
X13608379Y20770002D01*
X13561886Y20823658D01*
X13550500Y20876000D01*
X13550500Y25169746D01*
X13550500Y25169748D01*
X13538867Y25228231D01*
X13494552Y25294552D01*
X13428231Y25338867D01*
X13401918Y25344101D01*
X13339009Y25377009D01*
X13303877Y25438704D01*
X13300500Y25467680D01*
X13300500Y26020838D01*
X13320502Y26088959D01*
X13349796Y26120801D01*
X13354742Y26124596D01*
X13468282Y26211718D01*
X13564536Y26337159D01*
X13625044Y26483238D01*
X13642480Y26615681D01*
X13645682Y26639999D01*
X13645682Y26640000D01*
X13631372Y26748698D01*
X13625044Y26796762D01*
X13564536Y26942841D01*
X13468282Y27068282D01*
X13342841Y27164536D01*
X13196762Y27225044D01*
X13040000Y27245682D01*
X12941916Y27232769D01*
X12871768Y27243708D01*
X12836374Y27268596D01*
X12810595Y27294375D01*
X12704511Y27400460D01*
X12686835Y27410665D01*
X12635989Y27440021D01*
X12559562Y27460500D01*
X9827788Y27460500D01*
X9759667Y27480502D01*
X9713174Y27534158D01*
X9703070Y27604432D01*
X9711379Y27634718D01*
X9712501Y27637425D01*
X9728955Y27677149D01*
X9742870Y27782842D01*
X9749593Y27833910D01*
X9749593Y27833911D01*
X9736706Y27931800D01*
X9728955Y27990673D01*
X9668447Y28136752D01*
X9572193Y28262193D01*
X9446752Y28358447D01*
X9300673Y28418955D01*
X9143911Y28439593D01*
X8987149Y28418955D01*
X8841070Y28358447D01*
X8841066Y28358444D01*
X8833916Y28354316D01*
X8833232Y28355499D01*
X8775066Y28333013D01*
X8705518Y28347278D01*
X8675491Y28369478D01*
X8652702Y28392267D01*
X8618678Y28454577D01*
X8623743Y28525392D01*
X8666290Y28582228D01*
X8693579Y28597768D01*
X8696248Y28598873D01*
X8696249Y28598874D01*
X8696252Y28598875D01*
X8821693Y28695129D01*
X8917947Y28820570D01*
X8978455Y28966649D01*
X8999093Y29123411D01*
X8978455Y29280173D01*
X8917947Y29426252D01*
X8821693Y29551693D01*
X8696252Y29647947D01*
X8550173Y29708455D01*
X8515174Y29713062D01*
X8450248Y29741783D01*
X8411155Y29801048D01*
X8410310Y29872039D01*
X8415203Y29886181D01*
X8448944Y29967638D01*
X8469582Y30124400D01*
X8448944Y30281162D01*
X8388436Y30427241D01*
X8292182Y30552682D01*
X8166741Y30648936D01*
X8020662Y30709444D01*
X7863900Y30730082D01*
X7797056Y30721281D01*
X7726911Y30732219D01*
X7691520Y30757104D01*
X7504962Y30943665D01*
X7430739Y30986518D01*
X7347953Y31008700D01*
X7347951Y31008700D01*
X6840231Y31008700D01*
X6772110Y31028702D01*
X6751136Y31045605D01*
X6687005Y31109736D01*
X6652979Y31172048D01*
X6650100Y31198831D01*
X6650100Y31399259D01*
X6670102Y31467380D01*
X6674721Y31474080D01*
X6702791Y31512113D01*
X6702793Y31512118D01*
X6747644Y31640295D01*
X6747645Y31640299D01*
X6747646Y31640301D01*
X6750500Y31670734D01*
X6750500Y33079266D01*
X6747646Y33109699D01*
X6702793Y33237882D01*
X6650588Y33308617D01*
X6622150Y33347150D01*
X6512885Y33427791D01*
X6512884Y33427791D01*
X6512882Y33427793D01*
X6384699Y33472646D01*
X6354266Y33475500D01*
X5595734Y33475500D01*
X5565301Y33472646D01*
X5565295Y33472644D01*
X5437118Y33427793D01*
X5437114Y33427791D01*
X5327849Y33347150D01*
X5247208Y33237885D01*
X5247206Y33237881D01*
X5202355Y33109704D01*
X5202354Y33109700D01*
X5199500Y33079266D01*
X5199500Y31670733D01*
X5202354Y31640299D01*
X5202355Y31640295D01*
X5247206Y31512118D01*
X5247208Y31512114D01*
X5327849Y31402849D01*
X5437114Y31322208D01*
X5437118Y31322206D01*
X5565295Y31277355D01*
X5565299Y31277354D01*
X5595733Y31274500D01*
X5595734Y31274500D01*
X5817569Y31274500D01*
X5885690Y31254498D01*
X5932183Y31200842D01*
X5942287Y31130568D01*
X5912793Y31065988D01*
X5906664Y31059405D01*
X5898776Y31051517D01*
X5848027Y30942685D01*
X5841500Y30893105D01*
X5841500Y30473301D01*
X5841501Y30473289D01*
X5848027Y30423716D01*
X5848029Y30423710D01*
X5898776Y30314883D01*
X5932417Y30281242D01*
X5966441Y30218930D01*
X5961375Y30148114D01*
X5918828Y30091279D01*
X5891539Y30075740D01*
X5890347Y30075246D01*
X5879459Y30070736D01*
X5879453Y30070731D01*
X5879452Y30070731D01*
X5852311Y30049905D01*
X5796087Y30006762D01*
X5795839Y30006572D01*
X5729619Y29980971D01*
X5660070Y29995235D01*
X5619172Y30029831D01*
X5528282Y30148282D01*
X5402841Y30244536D01*
X5256762Y30305044D01*
X5100000Y30325682D01*
X4943238Y30305044D01*
X4797159Y30244536D01*
X4671718Y30148282D01*
X4619205Y30079845D01*
X4561867Y30037978D01*
X4490996Y30033756D01*
X4471032Y30040137D01*
X4386762Y30075044D01*
X4230000Y30095682D01*
X4073238Y30075044D01*
X3927159Y30014536D01*
X3801718Y29918282D01*
X3711030Y29800095D01*
X3705465Y29792842D01*
X3705463Y29792839D01*
X3644955Y29646760D01*
X3624318Y29490000D01*
X3624318Y29489999D01*
X3640368Y29368086D01*
X3629429Y29297937D01*
X3582300Y29244839D01*
X3531892Y29226718D01*
X3524021Y29225681D01*
X3524020Y29225682D01*
X3367258Y29205044D01*
X3221179Y29144536D01*
X3095738Y29048282D01*
X2999485Y28922842D01*
X2999483Y28922839D01*
X2938975Y28776760D01*
X2918338Y28620000D01*
X2918338Y28619999D01*
X2938975Y28463239D01*
X2999483Y28317160D01*
X2999485Y28317157D01*
X3095738Y28191718D01*
X3221177Y28095465D01*
X3221180Y28095463D01*
X3367259Y28034955D01*
X3524020Y28014318D01*
X3680780Y28034955D01*
X3826859Y28095463D01*
X3826862Y28095465D01*
X3827855Y28096227D01*
X3952302Y28191718D01*
X3952304Y28191720D01*
X4012527Y28270204D01*
X4069864Y28312071D01*
X4112489Y28319500D01*
X4423339Y28319500D01*
X4491460Y28299498D01*
X4512429Y28282599D01*
X4599734Y28195295D01*
X4629934Y28165095D01*
X4663959Y28102783D01*
X4658893Y28031967D01*
X4616347Y27975131D01*
X4549826Y27950321D01*
X4540838Y27950000D01*
X4200000Y27950000D01*
X3800000Y27550000D01*
X3750000Y27500000D01*
X3750000Y27499999D01*
X3750000Y16626000D01*
X3729998Y16557879D01*
X3676342Y16511386D01*
X3624000Y16500000D01*
X-19874000Y16500000D01*
X-19942121Y16520002D01*
X-19988614Y16573658D01*
X-20000000Y16626000D01*
X-20000000Y17222120D01*
X-19979998Y17290241D01*
X-19926342Y17336734D01*
X-19856068Y17346838D01*
X-19791488Y17317344D01*
X-19753104Y17257618D01*
X-19748722Y17235591D01*
X-19744091Y17192518D01*
X-19744090Y17192516D01*
X-19693796Y17057670D01*
X-19607546Y16942453D01*
X-19492329Y16856203D01*
X-19357482Y16805909D01*
X-19357485Y16805909D01*
X-19297877Y16799500D01*
X-19297872Y16799500D01*
X-15902122Y16799500D01*
X-15842516Y16805909D01*
X-15707670Y16856203D01*
X-15592453Y16942453D01*
X-15506203Y17057670D01*
X-15455909Y17192516D01*
X-15449500Y17252122D01*
X-15449500Y17550000D01*
X-6025682Y17550000D01*
X-6005044Y17393238D01*
X-5944536Y17247159D01*
X-5848282Y17121718D01*
X-5722842Y17025465D01*
X-5722839Y17025463D01*
X-5576760Y16964955D01*
X-5420000Y16944318D01*
X-5263239Y16964955D01*
X-5255259Y16967094D01*
X-5255112Y16966547D01*
X-5215134Y16974500D01*
X1362851Y16974500D01*
X1362853Y16974500D01*
X1445639Y16996682D01*
X1445641Y16996683D01*
X1445643Y16996684D01*
X1519858Y17039532D01*
X1519864Y17039537D01*
X1672845Y17192518D01*
X1867923Y17387596D01*
X1930234Y17421620D01*
X1957017Y17424500D01*
X2673261Y17424500D01*
X2741394Y17434427D01*
X2846482Y17485801D01*
X2846485Y17485803D01*
X2929196Y17568514D01*
X2929198Y17568517D01*
X2980572Y17673605D01*
X2980573Y17673607D01*
X2990500Y17741740D01*
X2990500Y18108260D01*
X2980573Y18176393D01*
X2929198Y18281483D01*
X2846483Y18364198D01*
X2741393Y18415573D01*
X2673260Y18425500D01*
X1156740Y18425500D01*
X1088607Y18415573D01*
X1088605Y18415572D01*
X983517Y18364198D01*
X983514Y18364196D01*
X900803Y18281485D01*
X900801Y18281482D01*
X849427Y18176394D01*
X839500Y18108261D01*
X839500Y17751500D01*
X819498Y17683379D01*
X765842Y17636886D01*
X713500Y17625500D01*
X-2033500Y17625500D01*
X-2101621Y17645502D01*
X-2148114Y17699158D01*
X-2159500Y17751500D01*
X-2159500Y18108261D01*
X-2169427Y18176394D01*
X-2220801Y18281482D01*
X-2220803Y18281485D01*
X-2303514Y18364196D01*
X-2303517Y18364198D01*
X-2408605Y18415572D01*
X-2408607Y18415573D01*
X-2476740Y18425500D01*
X-3993260Y18425500D01*
X-4061393Y18415573D01*
X-4166483Y18364198D01*
X-4249198Y18281483D01*
X-4300573Y18176393D01*
X-4310500Y18108260D01*
X-4310500Y18108255D01*
X-4310500Y17751500D01*
X-4330502Y17683379D01*
X-4384158Y17636886D01*
X-4436500Y17625500D01*
X-4717106Y17625500D01*
X-4785227Y17645502D01*
X-4831720Y17699158D01*
X-4833515Y17703282D01*
X-4848666Y17739859D01*
X-4895464Y17852841D01*
X-4991718Y17978282D01*
X-5117159Y18074536D01*
X-5263238Y18135044D01*
X-5420000Y18155682D01*
X-5576762Y18135044D01*
X-5722841Y18074536D01*
X-5816662Y18002544D01*
X-5849193Y17989967D01*
X-5856189Y17968306D01*
X-5860354Y17962549D01*
X-5944536Y17852841D01*
X-6005044Y17706762D01*
X-6025682Y17550000D01*
X-15449500Y17550000D01*
X-15449500Y18547877D01*
X-15455909Y18607483D01*
X-15506203Y18742329D01*
X-15508354Y18745203D01*
X-11749541Y18745203D01*
X-11749541Y18745196D01*
X-11730225Y18549075D01*
X-11730225Y18549073D01*
X-11730224Y18549070D01*
X-11730224Y18549068D01*
X-11673014Y18360473D01*
X-11580110Y18186662D01*
X-11455083Y18034317D01*
X-11367619Y17962537D01*
X-11302738Y17909290D01*
X-11128928Y17816386D01*
X-10940325Y17759174D01*
X-10744203Y17739859D01*
X-10744200Y17739859D01*
X-10744197Y17739859D01*
X-10548075Y17759174D01*
X-10548073Y17759174D01*
X-10359471Y17816386D01*
X-10185661Y17909290D01*
X-10033317Y18034317D01*
X-9908290Y18186661D01*
X-9815386Y18360471D01*
X-9758174Y18549073D01*
X-9758174Y18549075D01*
X-9738859Y18745196D01*
X-9738859Y18745203D01*
X-9758174Y18941324D01*
X-9758174Y18941326D01*
X-9815386Y19129928D01*
X-9908290Y19303738D01*
X-9920226Y19318282D01*
X-10033317Y19456083D01*
X-10185662Y19581110D01*
X-10359473Y19674014D01*
X-10548068Y19731224D01*
X-10548072Y19731224D01*
X-10548074Y19731225D01*
X-10744197Y19750541D01*
X-10744203Y19750541D01*
X-10940324Y19731225D01*
X-10940326Y19731225D01*
X-10940327Y19731224D01*
X-10940332Y19731224D01*
X-11128927Y19674014D01*
X-11302738Y19581110D01*
X-11455083Y19456083D01*
X-11580110Y19303738D01*
X-11673014Y19129927D01*
X-11730224Y18941332D01*
X-11730224Y18941327D01*
X-11730225Y18941326D01*
X-11730225Y18941324D01*
X-11749541Y18745203D01*
X-15508354Y18745203D01*
X-15592453Y18857546D01*
X-15707670Y18943796D01*
X-15842515Y18994090D01*
X-15842518Y18994091D01*
X-15902128Y19000500D01*
X-19297872Y19000500D01*
X-19357482Y18994091D01*
X-19492330Y18943796D01*
X-19607546Y18857546D01*
X-19693796Y18742330D01*
X-19744091Y18607482D01*
X-19748722Y18564408D01*
X-19775892Y18498817D01*
X-19834211Y18458326D01*
X-19905162Y18455793D01*
X-19966220Y18492022D01*
X-19997998Y18555509D01*
X-20000000Y18577879D01*
X-20000000Y21491144D01*
X-13200500Y21491144D01*
X-13200500Y20758856D01*
X-13199436Y20750000D01*
X-13190359Y20674409D01*
X-13137364Y20540025D01*
X-13137361Y20540021D01*
X-13050078Y20424921D01*
X-12934978Y20337638D01*
X-12934974Y20337635D01*
X-12800590Y20284640D01*
X-12800591Y20284640D01*
X-12716146Y20274500D01*
X-12716144Y20274500D01*
X-8783853Y20274500D01*
X-8699413Y20284640D01*
X-8699401Y20284643D01*
X-8692218Y20287476D01*
X-8621509Y20293857D01*
X-8558575Y20260997D01*
X-8556903Y20259356D01*
X-7752467Y19454921D01*
X-7718442Y19392608D01*
X-7723506Y19321793D01*
X-7725155Y19317601D01*
X-7725423Y19316949D01*
X-7725432Y19316934D01*
X-7785500Y19118914D01*
X-7785500Y19118908D01*
X-7785501Y19118907D01*
X-7805783Y18912983D01*
X-7805783Y18912976D01*
X-7788976Y18742329D01*
X-7785500Y18707046D01*
X-7725432Y18509026D01*
X-7627885Y18326530D01*
X-7496610Y18166570D01*
X-7336650Y18035295D01*
X-7336648Y18035294D01*
X-7336647Y18035293D01*
X-7154154Y17937748D01*
X-6956127Y17877678D01*
X-6750203Y17857397D01*
X-6750200Y17857397D01*
X-6750197Y17857397D01*
X-6544272Y17877678D01*
X-6346245Y17937748D01*
X-6163752Y18035293D01*
X-6040258Y18136641D01*
X-6004034Y18152024D01*
X-5995125Y18176810D01*
X-5990765Y18182440D01*
X-5872513Y18326532D01*
X-5774968Y18509025D01*
X-5714898Y18707052D01*
X-5694617Y18912976D01*
X-5694617Y18912983D01*
X-5714898Y19118907D01*
X-5774968Y19316934D01*
X-5872513Y19499427D01*
X-5880677Y19509375D01*
X-6003790Y19659390D01*
X-6163750Y19790665D01*
X-6346246Y19888212D01*
X-6544266Y19948280D01*
X-6544270Y19948280D01*
X-6544272Y19948281D01*
X-6750197Y19968563D01*
X-6750203Y19968563D01*
X-6956127Y19948281D01*
X-6956128Y19948280D01*
X-6956134Y19948280D01*
X-7154154Y19888212D01*
X-7154164Y19888206D01*
X-7154806Y19887941D01*
X-7155180Y19887900D01*
X-7160078Y19886415D01*
X-7160359Y19887342D01*
X-7225394Y19880339D01*
X-7288887Y19912107D01*
X-7292140Y19915246D01*
X-8262595Y20885701D01*
X-8296621Y20948013D01*
X-8299500Y20974796D01*
X-8299500Y21491146D01*
X-8309640Y21575590D01*
X-8362635Y21709974D01*
X-8362638Y21709978D01*
X-8449921Y21825078D01*
X-8565021Y21912361D01*
X-8565025Y21912364D01*
X-8699409Y21965359D01*
X-8699408Y21965359D01*
X-8722457Y21968126D01*
X-8783856Y21975500D01*
X-12716144Y21975500D01*
X-12800590Y21965359D01*
X-12934975Y21912364D01*
X-13050078Y21825078D01*
X-13137364Y21709975D01*
X-13190359Y21575590D01*
X-13200500Y21491144D01*
X-20000000Y21491144D01*
X-20000000Y26366144D01*
X-13200500Y26366144D01*
X-13200500Y25633856D01*
X-13194833Y25586664D01*
X-13190359Y25549409D01*
X-13137364Y25415025D01*
X-13137361Y25415021D01*
X-13050078Y25299921D01*
X-12934978Y25212638D01*
X-12934974Y25212635D01*
X-12800590Y25159640D01*
X-12800591Y25159640D01*
X-12716146Y25149500D01*
X-12716144Y25149500D01*
X-8783853Y25149500D01*
X-8699409Y25159640D01*
X-8565021Y25212637D01*
X-8561997Y25214338D01*
X-8558896Y25215052D01*
X-8557007Y25215798D01*
X-8556895Y25215514D01*
X-8492816Y25230289D01*
X-8425993Y25206305D01*
X-8411150Y25193603D01*
X-7752467Y24534920D01*
X-7718441Y24472608D01*
X-7723506Y24401793D01*
X-7725155Y24397601D01*
X-7725423Y24396949D01*
X-7725432Y24396934D01*
X-7785500Y24198914D01*
X-7785500Y24198908D01*
X-7785501Y24198907D01*
X-7805783Y23992983D01*
X-7805783Y23992976D01*
X-7790291Y23835682D01*
X-7785500Y23787046D01*
X-7725432Y23589026D01*
X-7627885Y23406530D01*
X-7496610Y23246570D01*
X-7336650Y23115295D01*
X-7336648Y23115294D01*
X-7336647Y23115293D01*
X-7295415Y23093254D01*
X-7154154Y23017748D01*
X-6997223Y22970144D01*
X-6956127Y22957678D01*
X-6750203Y22937397D01*
X-6750200Y22937397D01*
X-6750195Y22937397D01*
X-6668932Y22945400D01*
X-6599179Y22932171D01*
X-6547651Y22883330D01*
X-6530708Y22814385D01*
X-6531658Y22803582D01*
X-6540182Y22738843D01*
X-6531119Y22670000D01*
X-6527430Y22641981D01*
X-6538369Y22571832D01*
X-6585498Y22518734D01*
X-6653851Y22499544D01*
X-6664699Y22500141D01*
X-6704034Y22504016D01*
X-6750198Y22508563D01*
X-6750203Y22508563D01*
X-6956127Y22488281D01*
X-6956128Y22488280D01*
X-6956134Y22488280D01*
X-7154154Y22428212D01*
X-7154169Y22428203D01*
X-7154821Y22427935D01*
X-7155202Y22427893D01*
X-7160078Y22426415D01*
X-7160358Y22427339D01*
X-7225411Y22420343D01*
X-7288899Y22452119D01*
X-7292140Y22455247D01*
X-8262595Y23425702D01*
X-8296621Y23488014D01*
X-8299500Y23514797D01*
X-8299500Y23866146D01*
X-8309640Y23950590D01*
X-8362635Y24084974D01*
X-8362638Y24084978D01*
X-8449921Y24200078D01*
X-8565021Y24287361D01*
X-8565025Y24287364D01*
X-8699409Y24340359D01*
X-8699408Y24340359D01*
X-8722457Y24343126D01*
X-8783856Y24350500D01*
X-12716144Y24350500D01*
X-12800590Y24340359D01*
X-12934975Y24287364D01*
X-13050078Y24200078D01*
X-13137364Y24084975D01*
X-13190359Y23950590D01*
X-13200500Y23866144D01*
X-13200500Y23133856D01*
X-13198211Y23114796D01*
X-13190359Y23049409D01*
X-13137364Y22915025D01*
X-13137361Y22915021D01*
X-13050078Y22799921D01*
X-12934978Y22712638D01*
X-12934974Y22712635D01*
X-12800590Y22659640D01*
X-12800591Y22659640D01*
X-12716146Y22649500D01*
X-12716144Y22649500D01*
X-8783853Y22649500D01*
X-8699409Y22659640D01*
X-8573887Y22709141D01*
X-8503178Y22715524D01*
X-8440243Y22682666D01*
X-8438568Y22681021D01*
X-7752467Y21994920D01*
X-7718441Y21932608D01*
X-7723506Y21861793D01*
X-7725155Y21857601D01*
X-7725423Y21856949D01*
X-7725432Y21856934D01*
X-7785500Y21658914D01*
X-7785500Y21658908D01*
X-7785501Y21658907D01*
X-7805783Y21452983D01*
X-7805783Y21452976D01*
X-7790303Y21295802D01*
X-7785500Y21247046D01*
X-7725432Y21049026D01*
X-7627885Y20866530D01*
X-7496610Y20706570D01*
X-7336650Y20575295D01*
X-7336648Y20575294D01*
X-7336647Y20575293D01*
X-7154154Y20477748D01*
X-6980005Y20424921D01*
X-6956127Y20417678D01*
X-6750203Y20397397D01*
X-6750200Y20397397D01*
X-6750197Y20397397D01*
X-6544272Y20417678D01*
X-6346245Y20477748D01*
X-6163752Y20575293D01*
X-6003790Y20706570D01*
X-5872513Y20866532D01*
X-5774968Y21049025D01*
X-5714898Y21247052D01*
X-5694617Y21452976D01*
X-5694617Y21452983D01*
X-5714898Y21658907D01*
X-5774968Y21856934D01*
X-5839851Y21978321D01*
X-5854323Y22047827D01*
X-5828919Y22114123D01*
X-5776948Y22154125D01*
X-5631664Y22214304D01*
X-5631657Y22214308D01*
X-5506215Y22310563D01*
X-5464288Y22365204D01*
X-5406950Y22407071D01*
X-5364326Y22414500D01*
X-5142998Y22414500D01*
X-5074877Y22394498D01*
X-5043037Y22365206D01*
X-4948282Y22241718D01*
X-4948280Y22241716D01*
X-4948279Y22241715D01*
X-4856205Y22171064D01*
X-4814338Y22113726D01*
X-4810116Y22042855D01*
X-4844880Y21980952D01*
X-4869902Y21961988D01*
X-4901850Y21943543D01*
X-4924511Y21930460D01*
X-5064511Y21790460D01*
X-5120460Y21734511D01*
X-5160021Y21665989D01*
X-5160022Y21665985D01*
X-5180499Y21589565D01*
X-5180500Y21589562D01*
X-5180500Y20522476D01*
X-5200502Y20454355D01*
X-5206535Y20445775D01*
X-5290192Y20336752D01*
X-5350700Y20190673D01*
X-5371338Y20033911D01*
X-5350700Y19877149D01*
X-5290192Y19731070D01*
X-5193938Y19605629D01*
X-5082372Y19520022D01*
X-5068498Y19509376D01*
X-5068495Y19509374D01*
X-4922416Y19448866D01*
X-4765656Y19428229D01*
X-4608895Y19448866D01*
X-4484637Y19500336D01*
X-4414047Y19507925D01*
X-4350560Y19476145D01*
X-4314333Y19415087D01*
X-4311471Y19382819D01*
X-4310500Y19382819D01*
X-4310500Y19378261D01*
X-4310500Y19378260D01*
X-4310500Y19011740D01*
X-4300573Y18943607D01*
X-4300572Y18943605D01*
X-4249198Y18838517D01*
X-4249196Y18838514D01*
X-4166485Y18755803D01*
X-4166482Y18755801D01*
X-4061394Y18704427D01*
X-3993261Y18694500D01*
X-3993260Y18694500D01*
X-2476738Y18694500D01*
X-2408605Y18704427D01*
X-2303517Y18755801D01*
X-2303514Y18755803D01*
X-2220803Y18838514D01*
X-2205978Y18868840D01*
X-2158089Y18921253D01*
X-2092781Y18939500D01*
X-792698Y18939500D01*
X-724577Y18919498D01*
X-678084Y18865842D01*
X-667776Y18829947D01*
X-655044Y18733238D01*
X-594536Y18587159D01*
X-498282Y18461718D01*
X-451080Y18425499D01*
X-372842Y18365465D01*
X-372839Y18365463D01*
X-226760Y18304955D01*
X-70000Y18284318D01*
X86760Y18304955D01*
X232839Y18365463D01*
X232842Y18365465D01*
X311080Y18425499D01*
X358282Y18461718D01*
X454536Y18587159D01*
X515044Y18733238D01*
X535682Y18890000D01*
X515044Y19046762D01*
X454536Y19192841D01*
X358282Y19318282D01*
X280116Y19378261D01*
X839500Y19378261D01*
X839500Y19011738D01*
X849427Y18943605D01*
X900801Y18838517D01*
X900803Y18838514D01*
X983514Y18755803D01*
X983517Y18755801D01*
X1088605Y18704427D01*
X1156738Y18694500D01*
X1156740Y18694500D01*
X2673261Y18694500D01*
X2741394Y18704427D01*
X2846482Y18755801D01*
X2846485Y18755803D01*
X2929196Y18838514D01*
X2929198Y18838517D01*
X2980572Y18943605D01*
X2980573Y18943607D01*
X2990500Y19011740D01*
X2990500Y19378260D01*
X2980573Y19446393D01*
X2929198Y19551483D01*
X2846483Y19634198D01*
X2741393Y19685573D01*
X2673260Y19695500D01*
X1156740Y19695500D01*
X1088607Y19685573D01*
X1035048Y19659390D01*
X983517Y19634198D01*
X983514Y19634196D01*
X900803Y19551485D01*
X900801Y19551482D01*
X849427Y19446394D01*
X839500Y19378261D01*
X280116Y19378261D01*
X232841Y19414536D01*
X86762Y19475044D01*
X-70000Y19495682D01*
X-183825Y19480697D01*
X-253974Y19491636D01*
X-263264Y19496496D01*
X-304011Y19520021D01*
X-304013Y19520021D01*
X-304014Y19520022D01*
X-380434Y19540499D01*
X-380438Y19540500D01*
X-2157628Y19540500D01*
X-2225749Y19560502D01*
X-2246723Y19577405D01*
X-2303514Y19634196D01*
X-2303517Y19634198D01*
X-2355048Y19659390D01*
X-2408607Y19685573D01*
X-2476740Y19695500D01*
X-3993260Y19695500D01*
X-4024971Y19690879D01*
X-4053282Y19686755D01*
X-4123575Y19696726D01*
X-4177318Y19743117D01*
X-4197449Y19811200D01*
X-4187858Y19859655D01*
X-4180612Y19877148D01*
X-4159974Y20033910D01*
X-4159974Y20033911D01*
X-4180611Y20190671D01*
X-4241119Y20336750D01*
X-4241121Y20336753D01*
X-4241798Y20337635D01*
X-4337374Y20462193D01*
X-4462815Y20558447D01*
X-4462818Y20558449D01*
X-4501717Y20574561D01*
X-4556998Y20619108D01*
X-4579420Y20686471D01*
X-4579500Y20690970D01*
X-4579500Y21263500D01*
X-4559498Y21331621D01*
X-4505842Y21378114D01*
X-4453500Y21389500D01*
X-4312372Y21389500D01*
X-4244251Y21369498D01*
X-4223277Y21352595D01*
X-4166485Y21295803D01*
X-4166482Y21295801D01*
X-4061394Y21244427D01*
X-3993261Y21234500D01*
X-3993260Y21234500D01*
X-2476738Y21234500D01*
X-2408605Y21244427D01*
X-2303517Y21295801D01*
X-2303514Y21295803D01*
X-2220803Y21378514D01*
X-2220801Y21378517D01*
X-2169427Y21483605D01*
X-2159500Y21551738D01*
X-2159500Y21918261D01*
X-2169427Y21986394D01*
X-2221857Y22093642D01*
X-2233806Y22163626D01*
X-2206021Y22228960D01*
X-2147325Y22268901D01*
X-2108660Y22274980D01*
X-1732997Y22274980D01*
X-1664876Y22254978D01*
X-1643902Y22238075D01*
X-402708Y20996881D01*
X-368682Y20934569D01*
X-366881Y20891343D01*
X-375682Y20824500D01*
X-355044Y20667738D01*
X-294536Y20521659D01*
X-198282Y20396218D01*
X-96076Y20317793D01*
X-72842Y20299965D01*
X-72839Y20299963D01*
X73239Y20239455D01*
X230000Y20218818D01*
X386760Y20239455D01*
X532839Y20299963D01*
X532842Y20299965D01*
X556076Y20317793D01*
X658282Y20396218D01*
X754536Y20521659D01*
X815044Y20667738D01*
X835682Y20824500D01*
X815044Y20981262D01*
X754536Y21127341D01*
X658282Y21252782D01*
X532841Y21349036D01*
X386762Y21409544D01*
X230000Y21430182D01*
X163156Y21421381D01*
X93011Y21432319D01*
X57622Y21457203D01*
X-894579Y22409406D01*
X-928604Y22471717D01*
X-923539Y22542533D01*
X-880992Y22599368D01*
X-814472Y22624179D01*
X-805483Y22624500D01*
X1563272Y22624500D01*
X1631393Y22604498D01*
X1677886Y22550842D01*
X1688193Y22482054D01*
X1672810Y22365204D01*
X1670724Y22349358D01*
X1668329Y22349673D01*
X1651800Y22293379D01*
X1598144Y22246886D01*
X1545802Y22235500D01*
X1156740Y22235500D01*
X1088607Y22225573D01*
X1088605Y22225572D01*
X983517Y22174198D01*
X983514Y22174196D01*
X900803Y22091485D01*
X900801Y22091482D01*
X849427Y21986394D01*
X839500Y21918261D01*
X839500Y21551738D01*
X849427Y21483605D01*
X900801Y21378517D01*
X900803Y21378514D01*
X983514Y21295803D01*
X983517Y21295801D01*
X1088605Y21244427D01*
X1156738Y21234500D01*
X1156740Y21234500D01*
X2673261Y21234500D01*
X2741394Y21244427D01*
X2846482Y21295801D01*
X2846485Y21295803D01*
X2929196Y21378514D01*
X2929198Y21378517D01*
X2980572Y21483605D01*
X2980573Y21483607D01*
X2990500Y21551740D01*
X2990500Y21918260D01*
X2980573Y21986393D01*
X2929198Y22091483D01*
X2901505Y22119175D01*
X2867480Y22181483D01*
X2865678Y22224713D01*
X2883166Y22357547D01*
X2862528Y22514309D01*
X2802020Y22660388D01*
X2707491Y22783580D01*
X2681891Y22849799D01*
X2696156Y22919348D01*
X2745757Y22970144D01*
X2759228Y22976688D01*
X2852841Y23015464D01*
X2978282Y23111718D01*
X3074536Y23237159D01*
X3135044Y23383238D01*
X3155682Y23540000D01*
X3135044Y23696762D01*
X3074536Y23842841D01*
X2978282Y23968282D01*
X2852841Y24064536D01*
X2706762Y24125044D01*
X2550000Y24145682D01*
X2393238Y24125044D01*
X2319869Y24094653D01*
X2249281Y24087065D01*
X2185794Y24118844D01*
X2155245Y24162843D01*
X2134536Y24212841D01*
X2038282Y24338282D01*
X2000296Y24367429D01*
X1958429Y24424766D01*
X1951000Y24467391D01*
X1951000Y24633925D01*
X1971002Y24702046D01*
X2024658Y24748539D01*
X2094932Y24758643D01*
X2130250Y24748120D01*
X2178914Y24725427D01*
X2221972Y24719759D01*
X2228499Y24718900D01*
X2228500Y24718900D01*
X2648298Y24718900D01*
X2648310Y24718901D01*
X2697883Y24725427D01*
X2697885Y24725427D01*
X2697887Y24725428D01*
X2711629Y24731836D01*
X2806717Y24776176D01*
X2891623Y24861082D01*
X2937909Y24960343D01*
X2942372Y24969913D01*
X2948900Y25019499D01*
X2948899Y25379300D01*
X2942372Y25428887D01*
X2891624Y25537716D01*
X2806716Y25622624D01*
X2697887Y25673372D01*
X2648301Y25679900D01*
X2228500Y25679899D01*
X2228498Y25679898D01*
X2228489Y25679898D01*
X2202143Y25676429D01*
X2178913Y25673372D01*
X2130249Y25650679D01*
X2060060Y25640018D01*
X1995247Y25668997D01*
X1956390Y25728416D01*
X1951000Y25764874D01*
X1951000Y33985200D01*
X3407518Y33985200D01*
X3407518Y33985199D01*
X3428155Y33828439D01*
X3488663Y33682360D01*
X3488665Y33682357D01*
X3584918Y33556918D01*
X3710357Y33460665D01*
X3710360Y33460663D01*
X3856439Y33400155D01*
X4013200Y33379518D01*
X4169960Y33400155D01*
X4316039Y33460663D01*
X4316042Y33460665D01*
X4323700Y33466541D01*
X4441482Y33556918D01*
X4537736Y33682359D01*
X4598244Y33828438D01*
X4618882Y33985200D01*
X4598244Y34141962D01*
X4537736Y34288041D01*
X4473773Y34371398D01*
X4448174Y34437616D01*
X4462438Y34507164D01*
X4512039Y34557961D01*
X4573737Y34574100D01*
X4858098Y34574100D01*
X4858110Y34574101D01*
X4907683Y34580627D01*
X4907685Y34580627D01*
X4907687Y34580628D01*
X4946719Y34598829D01*
X5016517Y34631376D01*
X5077336Y34692195D01*
X5139648Y34726221D01*
X5166431Y34729100D01*
X5294300Y34729100D01*
X5362421Y34709098D01*
X5408914Y34655442D01*
X5420300Y34603100D01*
X5420300Y34322333D01*
X5423154Y34291899D01*
X5423155Y34291895D01*
X5468006Y34163718D01*
X5468008Y34163714D01*
X5548649Y34054449D01*
X5657914Y33973808D01*
X5657918Y33973806D01*
X5786095Y33928955D01*
X5786099Y33928954D01*
X5816533Y33926100D01*
X5816534Y33926100D01*
X6575066Y33926100D01*
X6605500Y33928954D01*
X6605504Y33928955D01*
X6733681Y33973806D01*
X6733685Y33973808D01*
X6842950Y34054449D01*
X6923591Y34163714D01*
X6923593Y34163718D01*
X6968444Y34291895D01*
X6968445Y34291899D01*
X6968446Y34291901D01*
X6971300Y34322334D01*
X6971300Y35730866D01*
X6968446Y35761299D01*
X6923593Y35889482D01*
X6919016Y35895683D01*
X6842950Y35998750D01*
X6733685Y36079391D01*
X6733684Y36079391D01*
X6733682Y36079393D01*
X6605499Y36124246D01*
X6575066Y36127100D01*
X5816534Y36127100D01*
X5786101Y36124246D01*
X5786095Y36124244D01*
X5657918Y36079393D01*
X5657914Y36079391D01*
X5548649Y35998750D01*
X5468008Y35889485D01*
X5468006Y35889481D01*
X5423155Y35761304D01*
X5423154Y35761300D01*
X5420300Y35730866D01*
X5420300Y35506100D01*
X5400298Y35437979D01*
X5346642Y35391486D01*
X5294300Y35380100D01*
X5166431Y35380100D01*
X5098310Y35400102D01*
X5077336Y35417005D01*
X5016518Y35477822D01*
X5016517Y35477823D01*
X5016516Y35477824D01*
X4907687Y35528572D01*
X4858101Y35535100D01*
X4438300Y35535099D01*
X4438298Y35535098D01*
X4438289Y35535098D01*
X4411943Y35531629D01*
X4388713Y35528572D01*
X4279884Y35477824D01*
X4279882Y35477823D01*
X4194976Y35392917D01*
X4144227Y35284086D01*
X4142664Y35272210D01*
X4113940Y35207284D01*
X4106848Y35199575D01*
X3927355Y35020082D01*
X3752737Y34845464D01*
X3752732Y34845458D01*
X3717016Y34783596D01*
X3709882Y34771239D01*
X3695158Y34716284D01*
X3691090Y34701103D01*
X3691088Y34701097D01*
X3687700Y34688456D01*
X3687700Y34554485D01*
X3667698Y34486364D01*
X3638403Y34454522D01*
X3584918Y34413482D01*
X3491622Y34291895D01*
X3488665Y34288042D01*
X3488663Y34288039D01*
X3428155Y34141960D01*
X3407518Y33985200D01*
X1951000Y33985200D01*
X1951000Y34477859D01*
X1971002Y34545980D01*
X2000296Y34577821D01*
X2053779Y34618860D01*
X2053780Y34618861D01*
X2053782Y34618863D01*
X2150036Y34744304D01*
X2210544Y34890383D01*
X2227619Y35020082D01*
X2256341Y35085009D01*
X2315606Y35124101D01*
X2368982Y35128558D01*
X2390699Y35125700D01*
X2390703Y35125700D01*
X2390704Y35125700D01*
X2750498Y35125700D01*
X2750510Y35125701D01*
X2800083Y35132227D01*
X2800085Y35132227D01*
X2800087Y35132228D01*
X2837127Y35149500D01*
X2908917Y35182976D01*
X2993823Y35267882D01*
X2996447Y35273510D01*
X3044572Y35376713D01*
X3051100Y35426299D01*
X3051099Y35846100D01*
X3050140Y35853383D01*
X3046380Y35881952D01*
X3044572Y35895687D01*
X2993824Y36004516D01*
X2908916Y36089424D01*
X2800087Y36140172D01*
X2750501Y36146700D01*
X2390700Y36146699D01*
X2390698Y36146698D01*
X2390689Y36146698D01*
X2364343Y36143229D01*
X2341113Y36140172D01*
X2232284Y36089424D01*
X2232282Y36089423D01*
X2140748Y35997889D01*
X2078436Y35963863D01*
X2068096Y35962062D01*
X2065351Y35961700D01*
X2065347Y35961700D01*
X1982561Y35939518D01*
X1960510Y35926786D01*
X1913900Y35899876D01*
X1908338Y35896665D01*
X1908336Y35896663D01*
X1908331Y35896659D01*
X1837135Y35825463D01*
X1774823Y35791437D01*
X1704008Y35796502D01*
X1647172Y35839049D01*
X1626332Y35881952D01*
X1625044Y35886756D01*
X1625044Y35886762D01*
X1564536Y36032841D01*
X1468282Y36158282D01*
X1342841Y36254536D01*
X1196762Y36315044D01*
X1040000Y36335682D01*
X883238Y36315044D01*
X737159Y36254536D01*
X611718Y36158282D01*
X546461Y36073237D01*
X489125Y36031372D01*
X418254Y36027150D01*
X356351Y36061914D01*
X323070Y36124626D01*
X320500Y36149943D01*
X320500Y36569746D01*
X320500Y36569748D01*
X308867Y36628231D01*
X264552Y36694552D01*
X198231Y36738867D01*
X139748Y36750500D01*
X-530569Y36750500D01*
X-598690Y36770502D01*
X-645183Y36824158D01*
X-655287Y36894432D01*
X-625793Y36959012D01*
X-619664Y36965595D01*
X-564777Y37020481D01*
X-564776Y37020482D01*
X-514027Y37129314D01*
X-507500Y37178894D01*
X-507500Y37598698D01*
X-507501Y37598710D01*
X-514027Y37648283D01*
X-514029Y37648289D01*
X-525614Y37673133D01*
X-536275Y37743325D01*
X-507295Y37808137D01*
X-447875Y37846994D01*
X-411419Y37852383D01*
X-80666Y37852383D01*
X-80664Y37852383D01*
X2122Y37874565D01*
X2124Y37874566D01*
X2126Y37874567D01*
X76341Y37917415D01*
X76351Y37917423D01*
X136781Y37977853D01*
X199093Y38011879D01*
X242321Y38013680D01*
X309161Y38004881D01*
X309163Y38004881D01*
X465923Y38025518D01*
X612002Y38086026D01*
X612005Y38086028D01*
X737445Y38182281D01*
X833699Y38307722D01*
X894207Y38453801D01*
X910700Y38579081D01*
X914845Y38610562D01*
X914845Y38610563D01*
X906318Y38675334D01*
X894207Y38767325D01*
X833699Y38913404D01*
X737445Y39038845D01*
X612004Y39135099D01*
X465925Y39195607D01*
X309163Y39216245D01*
X152401Y39195607D01*
X6322Y39135099D01*
X-119119Y39038845D01*
X-215373Y38913404D01*
X-275881Y38767325D01*
X-281387Y38725500D01*
X-296207Y38612936D01*
X-324930Y38548009D01*
X-384195Y38508918D01*
X-421129Y38503383D01*
X-2183595Y38503383D01*
X-2183611Y38503384D01*
X-2191329Y38503384D01*
X-2277035Y38503384D01*
X-2359821Y38481201D01*
X-2396929Y38459775D01*
X-2396933Y38459774D01*
X-2434039Y38438351D01*
X-2434044Y38438348D01*
X-2434048Y38438344D01*
X-2505013Y38367379D01*
X-2505020Y38367369D01*
X-2860465Y38011927D01*
X-2903318Y37937704D01*
X-2915357Y37892772D01*
X-2925500Y37854918D01*
X-2925500Y37854916D01*
X-2925500Y37259285D01*
X-2945502Y37191164D01*
X-2974796Y37159322D01*
X-3028282Y37118282D01*
X-3124536Y36992841D01*
X-3185044Y36846762D01*
X-3205682Y36690000D01*
X-3185044Y36533238D01*
X-3124536Y36387159D01*
X-3028282Y36261718D01*
X-2914928Y36174739D01*
X-2902842Y36165465D01*
X-2902839Y36165463D01*
X-2756760Y36104955D01*
X-2600000Y36084318D01*
X-2443239Y36104955D01*
X-2297160Y36165463D01*
X-2297157Y36165465D01*
X-2171718Y36261718D01*
X-2075465Y36387157D01*
X-2075463Y36387160D01*
X-2014955Y36533239D01*
X-1994318Y36689999D01*
X-1994318Y36690000D01*
X-2010898Y36815942D01*
X-1999958Y36886091D01*
X-1952830Y36939189D01*
X-1902423Y36957310D01*
X-1818739Y36968327D01*
X-1672660Y37028835D01*
X-1672655Y37028838D01*
X-1664928Y37034767D01*
X-1661678Y37037261D01*
X-1595460Y37062863D01*
X-1584974Y37063300D01*
X-1506231Y37063300D01*
X-1438110Y37043298D01*
X-1417136Y37026395D01*
X-1356336Y36965595D01*
X-1322310Y36903283D01*
X-1327375Y36832468D01*
X-1369922Y36775632D01*
X-1436442Y36750821D01*
X-1445431Y36750500D01*
X-1499748Y36750500D01*
X-1558231Y36738867D01*
X-1624552Y36694552D01*
X-1668867Y36628231D01*
X-1680500Y36569748D01*
X-1680500Y36569746D01*
X-1680500Y36144807D01*
X-1681783Y36126874D01*
X-1685647Y36100001D01*
X-1681782Y36073117D01*
X-1680500Y36055187D01*
X-1680500Y35630252D01*
X-1668867Y35571769D01*
X-1624552Y35505448D01*
X-1573173Y35471117D01*
X-1558231Y35461133D01*
X-1558228Y35461132D01*
X-1499750Y35449500D01*
X-1499748Y35449500D01*
X139753Y35449500D01*
X156069Y35452746D01*
X226783Y35446418D01*
X282850Y35402863D01*
X306469Y35335911D01*
X290142Y35266817D01*
X269745Y35240072D01*
X212078Y35182405D01*
X149766Y35148379D01*
X122983Y35145500D01*
X-1580714Y35145500D01*
X-1648835Y35165502D01*
X-1680676Y35194796D01*
X-1721715Y35248279D01*
X-1721716Y35248280D01*
X-1721718Y35248282D01*
X-1847159Y35344536D01*
X-1993238Y35405044D01*
X-2150000Y35425682D01*
X-2306762Y35405044D01*
X-2452841Y35344536D01*
X-2578282Y35248282D01*
X-2674536Y35122841D01*
X-2735044Y34976762D01*
X-2746086Y34892889D01*
X-2755682Y34820000D01*
X-2755682Y34819999D01*
X-2749681Y34774421D01*
X-2735044Y34663238D01*
X-2674536Y34517159D01*
X-2578282Y34391718D01*
X-2524564Y34350499D01*
X-2452840Y34295463D01*
X-2450067Y34293863D01*
X-2448193Y34291898D01*
X-2446289Y34290437D01*
X-2446516Y34290140D01*
X-2401072Y34242483D01*
X-2388445Y34176991D01*
X-2385986Y34183138D01*
X-2328157Y34224325D01*
X-2270492Y34230180D01*
X-2150002Y34214318D01*
X-2150000Y34214318D01*
X-1993239Y34234955D01*
X-1847160Y34295463D01*
X-1847157Y34295465D01*
X-1721715Y34391720D01*
X-1680676Y34445204D01*
X-1623338Y34487071D01*
X-1580714Y34494500D01*
X352851Y34494500D01*
X352853Y34494500D01*
X435639Y34516682D01*
X435641Y34516683D01*
X435643Y34516684D01*
X509858Y34559532D01*
X509864Y34559537D01*
X676548Y34726221D01*
X848612Y34898285D01*
X910923Y34932309D01*
X981738Y34927245D01*
X1038574Y34884698D01*
X1054113Y34857409D01*
X1100964Y34744304D01*
X1100965Y34744303D01*
X1100965Y34744302D01*
X1197220Y34618860D01*
X1250704Y34577821D01*
X1292571Y34520483D01*
X1300000Y34477859D01*
X1300000Y24491178D01*
X1279998Y24423057D01*
X1250704Y24391216D01*
X1219702Y24367428D01*
X1184287Y24340253D01*
X1181718Y24338282D01*
X1087465Y24215448D01*
X1085465Y24212842D01*
X1085463Y24212839D01*
X1024955Y24066760D01*
X1004318Y23910000D01*
X1004318Y23909999D01*
X1024955Y23753239D01*
X1085463Y23607160D01*
X1085465Y23607157D01*
X1131267Y23547466D01*
X1181718Y23481718D01*
X1181719Y23481716D01*
X1184415Y23478204D01*
X1210015Y23411984D01*
X1195750Y23342435D01*
X1146149Y23291639D01*
X1084452Y23275500D01*
X-1787566Y23275500D01*
X-1855687Y23295502D01*
X-1902180Y23349158D01*
X-1912487Y23417944D01*
X-1904318Y23480000D01*
X-1911274Y23532839D01*
X-1924955Y23636760D01*
X-1985463Y23782839D01*
X-1985465Y23782842D01*
X-1988695Y23787052D01*
X-2081718Y23908282D01*
X-2207159Y24004536D01*
X-2353238Y24065044D01*
X-2510000Y24085682D01*
X-2666762Y24065044D01*
X-2812841Y24004536D01*
X-2938282Y23908282D01*
X-3009675Y23815239D01*
X-3067012Y23773373D01*
X-3137883Y23769151D01*
X-3157855Y23775535D01*
X-3253238Y23815044D01*
X-3410000Y23835682D01*
X-3566762Y23815044D01*
X-3712841Y23754536D01*
X-3838282Y23658282D01*
X-3934536Y23532841D01*
X-3995044Y23386762D01*
X-4009922Y23273744D01*
X-4038644Y23208820D01*
X-4097909Y23169728D01*
X-4168900Y23168883D01*
X-4211545Y23190228D01*
X-4217159Y23194536D01*
X-4363238Y23255044D01*
X-4520000Y23275682D01*
X-4676762Y23255044D01*
X-4822841Y23194536D01*
X-4948282Y23098282D01*
X-4948282Y23098280D01*
X-4954834Y23093254D01*
X-4956630Y23095595D01*
X-5006472Y23068379D01*
X-5033255Y23065500D01*
X-5366102Y23065500D01*
X-5434223Y23085502D01*
X-5466065Y23114796D01*
X-5480690Y23133856D01*
X-5506218Y23167125D01*
X-5631659Y23263379D01*
X-5763064Y23317808D01*
X-5818344Y23362356D01*
X-5840765Y23429720D01*
X-5825967Y23493613D01*
X-5774968Y23589025D01*
X-5714898Y23787052D01*
X-5694617Y23992976D01*
X-5694617Y23992983D01*
X-5714898Y24198907D01*
X-5719124Y24212837D01*
X-5774968Y24396934D01*
X-5825343Y24491178D01*
X-5872513Y24579427D01*
X-5973143Y24702046D01*
X-6003790Y24739390D01*
X-6163750Y24870665D01*
X-6346246Y24968212D01*
X-6544266Y25028280D01*
X-6544270Y25028280D01*
X-6544272Y25028281D01*
X-6750197Y25048563D01*
X-6750203Y25048563D01*
X-6956127Y25028281D01*
X-6956128Y25028280D01*
X-6956134Y25028280D01*
X-7154154Y24968212D01*
X-7154169Y24968203D01*
X-7154821Y24967935D01*
X-7155202Y24967893D01*
X-7160078Y24966415D01*
X-7160358Y24967339D01*
X-7225411Y24960343D01*
X-7288899Y24992119D01*
X-7292140Y24995247D01*
X-8262595Y25965702D01*
X-8296621Y26028014D01*
X-8299500Y26054797D01*
X-8299500Y26366146D01*
X-8309640Y26450590D01*
X-8362635Y26584974D01*
X-8362638Y26584978D01*
X-8449921Y26700078D01*
X-8565021Y26787361D01*
X-8565025Y26787364D01*
X-8699409Y26840359D01*
X-8699408Y26840359D01*
X-8722457Y26843126D01*
X-8783856Y26850500D01*
X-12716144Y26850500D01*
X-12800590Y26840359D01*
X-12934975Y26787364D01*
X-13050078Y26700078D01*
X-13137364Y26584975D01*
X-13190359Y26450590D01*
X-13200500Y26366144D01*
X-20000000Y26366144D01*
X-20000000Y28866144D01*
X-13200500Y28866144D01*
X-13200500Y28133856D01*
X-13195889Y28095463D01*
X-13190359Y28049409D01*
X-13137364Y27915025D01*
X-13137361Y27915021D01*
X-13050078Y27799921D01*
X-12934978Y27712638D01*
X-12934974Y27712635D01*
X-12800590Y27659640D01*
X-12800591Y27659640D01*
X-12716146Y27649500D01*
X-12716144Y27649500D01*
X-8783853Y27649500D01*
X-8699409Y27659640D01*
X-8565026Y27712635D01*
X-8553128Y27721658D01*
X-8486763Y27746880D01*
X-8417297Y27732218D01*
X-8387901Y27710354D01*
X-7752467Y27074920D01*
X-7718441Y27012608D01*
X-7723506Y26941793D01*
X-7725155Y26937601D01*
X-7725423Y26936949D01*
X-7725432Y26936934D01*
X-7785500Y26738914D01*
X-7785500Y26738908D01*
X-7785501Y26738907D01*
X-7805783Y26532983D01*
X-7805783Y26532976D01*
X-7786497Y26337160D01*
X-7785500Y26327046D01*
X-7725432Y26129026D01*
X-7627885Y25946530D01*
X-7496610Y25786570D01*
X-7336650Y25655295D01*
X-7336648Y25655294D01*
X-7336647Y25655293D01*
X-7171761Y25567159D01*
X-7154154Y25557748D01*
X-7035378Y25521718D01*
X-6956127Y25497678D01*
X-6750203Y25477397D01*
X-6750200Y25477397D01*
X-6750197Y25477397D01*
X-6544272Y25497678D01*
X-6346245Y25557748D01*
X-6163752Y25655293D01*
X-6060536Y25740000D01*
X-2795682Y25740000D01*
X-2775044Y25583238D01*
X-2714536Y25437159D01*
X-2618282Y25311718D01*
X-2493276Y25215798D01*
X-2492842Y25215465D01*
X-2492839Y25215463D01*
X-2346760Y25154955D01*
X-2190000Y25134318D01*
X-2033239Y25154955D01*
X-1887160Y25215463D01*
X-1887153Y25215468D01*
X-1883202Y25218500D01*
X-1816981Y25244099D01*
X-1747433Y25229833D01*
X-1696638Y25180231D01*
X-1680500Y25118536D01*
X-1680500Y24854807D01*
X-1681783Y24836874D01*
X-1685647Y24810001D01*
X-1681782Y24783117D01*
X-1680500Y24765187D01*
X-1680500Y24340252D01*
X-1668867Y24281769D01*
X-1624552Y24215448D01*
X-1558231Y24171133D01*
X-1558228Y24171132D01*
X-1499750Y24159500D01*
X-1499748Y24159500D01*
X139750Y24159500D01*
X198228Y24171132D01*
X198231Y24171133D01*
X264552Y24215448D01*
X308867Y24281769D01*
X320500Y24340252D01*
X320500Y24765187D01*
X321782Y24783117D01*
X325647Y24810001D01*
X321783Y24836874D01*
X320500Y24854807D01*
X320500Y25279746D01*
X320500Y25279748D01*
X308867Y25338231D01*
X264552Y25404552D01*
X198231Y25448867D01*
X139748Y25460500D01*
X-1477439Y25460500D01*
X-1545560Y25480502D01*
X-1592053Y25534158D01*
X-1602361Y25602947D01*
X-1593441Y25670699D01*
X-1564718Y25735626D01*
X-1505453Y25774717D01*
X-1434461Y25775562D01*
X-1415271Y25768448D01*
X-1356370Y25740982D01*
X-1341885Y25734227D01*
X-1305355Y25729418D01*
X-1292301Y25727700D01*
X-1292299Y25727700D01*
X-932501Y25727700D01*
X-932489Y25727701D01*
X-882916Y25734227D01*
X-882910Y25734229D01*
X-774082Y25784976D01*
X-689176Y25869882D01*
X-638427Y25978714D01*
X-631900Y26028294D01*
X-631900Y26448098D01*
X-631901Y26448110D01*
X-638427Y26497683D01*
X-638429Y26497689D01*
X-689176Y26606517D01*
X-774082Y26691423D01*
X-774084Y26691424D01*
X-882913Y26742172D01*
X-932499Y26748700D01*
X-1292300Y26748699D01*
X-1292303Y26748698D01*
X-1292310Y26748698D01*
X-1310913Y26746248D01*
X-1341887Y26742172D01*
X-1450716Y26691424D01*
X-1450717Y26691423D01*
X-1450718Y26691422D01*
X-1541536Y26600605D01*
X-1603848Y26566579D01*
X-1630631Y26563700D01*
X-1735147Y26563700D01*
X-1820853Y26563700D01*
X-1903639Y26541518D01*
X-1977862Y26498665D01*
X-2062485Y26414041D01*
X-2093939Y26382587D01*
X-2156251Y26348562D01*
X-2183035Y26345682D01*
X-2190000Y26345682D01*
X-2346762Y26325044D01*
X-2492841Y26264536D01*
X-2618282Y26168282D01*
X-2714536Y26042841D01*
X-2775044Y25896762D01*
X-2795682Y25740000D01*
X-6060536Y25740000D01*
X-6003790Y25786570D01*
X-5872513Y25946532D01*
X-5774968Y26129025D01*
X-5714898Y26327052D01*
X-5694617Y26532976D01*
X-5694617Y26532983D01*
X-5714898Y26738907D01*
X-5731332Y26793082D01*
X-5774968Y26936934D01*
X-5845175Y27068281D01*
X-5872513Y27119427D01*
X-5909531Y27164534D01*
X-6003790Y27279390D01*
X-6163750Y27410665D01*
X-6346246Y27508212D01*
X-6544266Y27568280D01*
X-6544270Y27568280D01*
X-6544272Y27568281D01*
X-6750197Y27588563D01*
X-6750203Y27588563D01*
X-6956127Y27568281D01*
X-6956128Y27568280D01*
X-6956134Y27568280D01*
X-7154154Y27508212D01*
X-7154169Y27508203D01*
X-7154821Y27507935D01*
X-7155202Y27507893D01*
X-7160078Y27506415D01*
X-7160358Y27507339D01*
X-7225411Y27500343D01*
X-7288899Y27532119D01*
X-7292140Y27535247D01*
X-8262595Y28505702D01*
X-8296621Y28568014D01*
X-8299500Y28594797D01*
X-8299500Y28866146D01*
X-8309640Y28950590D01*
X-8362635Y29084974D01*
X-8362638Y29084978D01*
X-8449921Y29200078D01*
X-8565021Y29287361D01*
X-8565025Y29287364D01*
X-8699409Y29340359D01*
X-8699408Y29340359D01*
X-8722457Y29343126D01*
X-8783856Y29350500D01*
X-12716144Y29350500D01*
X-12800590Y29340359D01*
X-12934975Y29287364D01*
X-13050078Y29200078D01*
X-13137364Y29084975D01*
X-13190359Y28950590D01*
X-13200500Y28866144D01*
X-20000000Y28866144D01*
X-20000000Y31366144D01*
X-13200500Y31366144D01*
X-13200500Y30633856D01*
X-13197321Y30607385D01*
X-13190359Y30549409D01*
X-13137364Y30415025D01*
X-13137361Y30415021D01*
X-13050078Y30299921D01*
X-12934978Y30212638D01*
X-12934974Y30212635D01*
X-12800590Y30159640D01*
X-12800591Y30159640D01*
X-12716146Y30149500D01*
X-12716144Y30149500D01*
X-8783853Y30149500D01*
X-8699409Y30159640D01*
X-8565025Y30212635D01*
X-8565021Y30212638D01*
X-8530381Y30238907D01*
X-8464016Y30264131D01*
X-8394550Y30249471D01*
X-8365152Y30227605D01*
X-7752467Y29614920D01*
X-7718441Y29552608D01*
X-7723506Y29481793D01*
X-7725155Y29477601D01*
X-7725423Y29476949D01*
X-7725432Y29476934D01*
X-7785500Y29278914D01*
X-7785500Y29278908D01*
X-7785501Y29278907D01*
X-7805783Y29072983D01*
X-7805783Y29072976D01*
X-7787716Y28889540D01*
X-7785500Y28867046D01*
X-7725432Y28669026D01*
X-7627885Y28486530D01*
X-7496610Y28326570D01*
X-7336650Y28195295D01*
X-7336648Y28195294D01*
X-7336647Y28195293D01*
X-7221707Y28133856D01*
X-7154154Y28097748D01*
X-6994800Y28049409D01*
X-6956127Y28037678D01*
X-6750203Y28017397D01*
X-6750200Y28017397D01*
X-6750197Y28017397D01*
X-6544272Y28037678D01*
X-6346245Y28097748D01*
X-6163752Y28195293D01*
X-6003790Y28326570D01*
X-5872513Y28486532D01*
X-5774968Y28669025D01*
X-5714898Y28867052D01*
X-5694617Y29072976D01*
X-5694617Y29072983D01*
X-5702202Y29150000D01*
X-3995682Y29150000D01*
X-3995682Y29149999D01*
X-3987122Y29084978D01*
X-3975044Y28993238D01*
X-3914536Y28847159D01*
X-3818282Y28721718D01*
X-3692842Y28625465D01*
X-3692839Y28625463D01*
X-3546760Y28564955D01*
X-3390000Y28544318D01*
X-3233239Y28564955D01*
X-3087160Y28625463D01*
X-3087157Y28625465D01*
X-2961718Y28721718D01*
X-2865465Y28847157D01*
X-2865463Y28847160D01*
X-2804955Y28993239D01*
X-2784318Y29149999D01*
X-2784318Y29150001D01*
X-2793117Y29216841D01*
X-2782177Y29286989D01*
X-2757294Y29322378D01*
X-2732082Y29347592D01*
X-2669771Y29381619D01*
X-2642983Y29384500D01*
X-1269286Y29384500D01*
X-1201165Y29364498D01*
X-1169324Y29335204D01*
X-1132327Y29286989D01*
X-1128282Y29281718D01*
X-1002842Y29185465D01*
X-1002839Y29185463D01*
X-856760Y29124955D01*
X-700000Y29104318D01*
X-543239Y29124955D01*
X-397160Y29185463D01*
X-397157Y29185465D01*
X-271718Y29281718D01*
X-175465Y29407157D01*
X-175463Y29407160D01*
X-114955Y29553239D01*
X-94318Y29709999D01*
X-94318Y29710000D01*
X-114955Y29866760D01*
X-175463Y30012839D01*
X-175465Y30012842D01*
X-176765Y30014536D01*
X-271718Y30138282D01*
X-397159Y30234536D01*
X-543238Y30295044D01*
X-700000Y30315682D01*
X-856762Y30295044D01*
X-1002841Y30234536D01*
X-1128282Y30138282D01*
X-1128284Y30138279D01*
X-1169324Y30084796D01*
X-1226662Y30042929D01*
X-1269286Y30035500D01*
X-2779413Y30035500D01*
X-2779429Y30035501D01*
X-2787147Y30035501D01*
X-2872853Y30035501D01*
X-2955638Y30013318D01*
X-3029862Y29970465D01*
X-3029868Y29970459D01*
X-3100832Y29899495D01*
X-3100839Y29899485D01*
X-3217618Y29782706D01*
X-3279928Y29748682D01*
X-3323154Y29746881D01*
X-3390000Y29755682D01*
X-3546762Y29735044D01*
X-3692841Y29674536D01*
X-3818282Y29578282D01*
X-3914536Y29452841D01*
X-3975044Y29306762D01*
X-3991013Y29185465D01*
X-3995682Y29150000D01*
X-5702202Y29150000D01*
X-5714898Y29278907D01*
X-5717350Y29286989D01*
X-5774968Y29476934D01*
X-5811321Y29544946D01*
X-5872513Y29659427D01*
X-5882470Y29671560D01*
X-6003790Y29819390D01*
X-6163750Y29950665D01*
X-6346246Y30048212D01*
X-6544266Y30108280D01*
X-6544270Y30108280D01*
X-6544272Y30108281D01*
X-6750197Y30128563D01*
X-6750203Y30128563D01*
X-6956127Y30108281D01*
X-6956128Y30108280D01*
X-6956134Y30108280D01*
X-7154154Y30048212D01*
X-7154169Y30048203D01*
X-7154821Y30047935D01*
X-7155202Y30047893D01*
X-7160078Y30046415D01*
X-7160358Y30047339D01*
X-7225411Y30040343D01*
X-7288899Y30072119D01*
X-7292113Y30075220D01*
X-8262596Y31045702D01*
X-8296620Y31108013D01*
X-8299500Y31134796D01*
X-8299500Y31366146D01*
X-8309640Y31450590D01*
X-8362635Y31584974D01*
X-8362638Y31584978D01*
X-8449921Y31700078D01*
X-8565021Y31787361D01*
X-8565025Y31787364D01*
X-8699409Y31840359D01*
X-8699408Y31840359D01*
X-8722593Y31843143D01*
X-8783856Y31850500D01*
X-12716144Y31850500D01*
X-12800590Y31840359D01*
X-12934975Y31787364D01*
X-13050078Y31700078D01*
X-13137364Y31584975D01*
X-13190359Y31450590D01*
X-13200500Y31366144D01*
X-20000000Y31366144D01*
X-20000000Y33866144D01*
X-13200500Y33866144D01*
X-13200500Y33133856D01*
X-13193944Y33079266D01*
X-13190359Y33049409D01*
X-13137364Y32915025D01*
X-13137361Y32915021D01*
X-13050078Y32799921D01*
X-12934978Y32712638D01*
X-12934974Y32712635D01*
X-12800590Y32659640D01*
X-12800591Y32659640D01*
X-12716146Y32649500D01*
X-12716144Y32649500D01*
X-8783853Y32649500D01*
X-8699409Y32659640D01*
X-8565025Y32712635D01*
X-8565021Y32712638D01*
X-8507632Y32756158D01*
X-8441267Y32781382D01*
X-8371801Y32766721D01*
X-8342403Y32744856D01*
X-7752467Y32154920D01*
X-7718441Y32092608D01*
X-7723506Y32021793D01*
X-7725155Y32017601D01*
X-7725423Y32016949D01*
X-7725432Y32016934D01*
X-7785500Y31818914D01*
X-7785500Y31818908D01*
X-7785501Y31818907D01*
X-7805783Y31612983D01*
X-7805783Y31612976D01*
X-7789688Y31449560D01*
X-7785500Y31407046D01*
X-7725432Y31209026D01*
X-7627885Y31026530D01*
X-7496610Y30866570D01*
X-7336650Y30735295D01*
X-7336648Y30735294D01*
X-7336647Y30735293D01*
X-7154154Y30637748D01*
X-6956127Y30577678D01*
X-6750203Y30557397D01*
X-6750200Y30557397D01*
X-6750197Y30557397D01*
X-6544272Y30577678D01*
X-6346245Y30637748D01*
X-6163752Y30735293D01*
X-6003790Y30866570D01*
X-5872513Y31026532D01*
X-5774968Y31209025D01*
X-5714898Y31407052D01*
X-5694617Y31612976D01*
X-5694617Y31612983D01*
X-5714898Y31818907D01*
X-5722249Y31843139D01*
X-5774968Y32016934D01*
X-5795947Y32056183D01*
X-5872513Y32199427D01*
X-5872515Y32199430D01*
X-6003790Y32359390D01*
X-6163750Y32490665D01*
X-6346246Y32588212D01*
X-6544266Y32648280D01*
X-6544270Y32648280D01*
X-6544272Y32648281D01*
X-6750197Y32668563D01*
X-6750203Y32668563D01*
X-6956127Y32648281D01*
X-6956128Y32648280D01*
X-6956134Y32648280D01*
X-7154154Y32588212D01*
X-7154169Y32588203D01*
X-7154821Y32587935D01*
X-7155202Y32587893D01*
X-7160078Y32586415D01*
X-7160358Y32587339D01*
X-7225411Y32580343D01*
X-7288899Y32612119D01*
X-7292140Y32615247D01*
X-8262595Y33585702D01*
X-8296621Y33648014D01*
X-8299500Y33674797D01*
X-8299500Y33866146D01*
X-8309640Y33950590D01*
X-8362635Y34084974D01*
X-8362638Y34084978D01*
X-8449921Y34200078D01*
X-8565021Y34287361D01*
X-8565025Y34287364D01*
X-8699409Y34340359D01*
X-8699408Y34340359D01*
X-8722457Y34343126D01*
X-8783856Y34350500D01*
X-12716144Y34350500D01*
X-12800590Y34340359D01*
X-12934975Y34287364D01*
X-13050078Y34200078D01*
X-13137364Y34084975D01*
X-13190359Y33950590D01*
X-13200500Y33866144D01*
X-20000000Y33866144D01*
X-20000000Y38766144D01*
X-13200500Y38766144D01*
X-13200500Y38033856D01*
X-13197020Y38004881D01*
X-13190359Y37949409D01*
X-13137364Y37815025D01*
X-13137361Y37815021D01*
X-13050078Y37699921D01*
X-12934978Y37612638D01*
X-12934974Y37612635D01*
X-12800590Y37559640D01*
X-12800591Y37559640D01*
X-12716146Y37549500D01*
X-12716144Y37549500D01*
X-8783853Y37549500D01*
X-8699409Y37559640D01*
X-8565025Y37612635D01*
X-8565021Y37612638D01*
X-8449921Y37699921D01*
X-8362638Y37815021D01*
X-8362635Y37815025D01*
X-8309640Y37949409D01*
X-8307946Y37963523D01*
X-8279965Y38028773D01*
X-8221149Y38068537D01*
X-8182845Y38074500D01*
X-7987017Y38074500D01*
X-7918896Y38054498D01*
X-7897922Y38037595D01*
X-7735286Y37874959D01*
X-7701260Y37812647D01*
X-7706325Y37741832D01*
X-7738509Y37698838D01*
X-7735978Y37696307D01*
X-7744749Y37687535D01*
X-7744750Y37687533D01*
X-7744752Y37687532D01*
X-7789067Y37621211D01*
X-7800700Y37562728D01*
X-7800700Y37562726D01*
X-7800700Y35967997D01*
X-7820702Y35899876D01*
X-7874358Y35853383D01*
X-7944632Y35843279D01*
X-8009212Y35872773D01*
X-8015795Y35878902D01*
X-8087940Y35951047D01*
X-8107962Y35977139D01*
X-8109530Y35979855D01*
X-8109532Y35979858D01*
X-8109535Y35979862D01*
X-8262596Y36132923D01*
X-8296620Y36195233D01*
X-8299500Y36222017D01*
X-8299500Y36366146D01*
X-8309640Y36450590D01*
X-8362635Y36584974D01*
X-8362638Y36584978D01*
X-8449921Y36700078D01*
X-8565021Y36787361D01*
X-8565025Y36787364D01*
X-8699409Y36840359D01*
X-8699408Y36840359D01*
X-8722457Y36843126D01*
X-8783856Y36850500D01*
X-12716144Y36850500D01*
X-12800590Y36840359D01*
X-12934975Y36787364D01*
X-13050078Y36700078D01*
X-13137364Y36584975D01*
X-13190359Y36450590D01*
X-13200500Y36366144D01*
X-13200500Y35633856D01*
X-13197247Y35606770D01*
X-13190359Y35549409D01*
X-13137364Y35415025D01*
X-13137361Y35415021D01*
X-13050078Y35299921D01*
X-12934978Y35212638D01*
X-12934974Y35212635D01*
X-12800590Y35159640D01*
X-12800591Y35159640D01*
X-12716146Y35149500D01*
X-12716144Y35149500D01*
X-8783853Y35149500D01*
X-8699409Y35159640D01*
X-8565025Y35212635D01*
X-8565021Y35212638D01*
X-8484883Y35273409D01*
X-8418518Y35298633D01*
X-8349051Y35283972D01*
X-8319654Y35262107D01*
X-7752467Y34694920D01*
X-7718441Y34632608D01*
X-7723506Y34561793D01*
X-7725155Y34557601D01*
X-7725423Y34556949D01*
X-7725432Y34556934D01*
X-7785500Y34358914D01*
X-7785500Y34358908D01*
X-7785501Y34358907D01*
X-7805783Y34152983D01*
X-7805783Y34152976D01*
X-7790178Y33994534D01*
X-7785500Y33947046D01*
X-7725432Y33749026D01*
X-7627885Y33566530D01*
X-7496610Y33406570D01*
X-7336650Y33275295D01*
X-7336648Y33275294D01*
X-7336647Y33275293D01*
X-7266656Y33237882D01*
X-7154154Y33177748D01*
X-7009460Y33133856D01*
X-6956127Y33117678D01*
X-6750203Y33097397D01*
X-6750200Y33097397D01*
X-6750197Y33097397D01*
X-6544272Y33117678D01*
X-6346245Y33177748D01*
X-6163752Y33275293D01*
X-6003790Y33406570D01*
X-5951735Y33470000D01*
X-3255682Y33470000D01*
X-3255682Y33469999D01*
X-3250125Y33427793D01*
X-3235044Y33313238D01*
X-3174536Y33167159D01*
X-3078282Y33041718D01*
X-2952842Y32945465D01*
X-2952839Y32945463D01*
X-2806760Y32884955D01*
X-2650000Y32864318D01*
X-2649998Y32864318D01*
X-2583158Y32873117D01*
X-2513009Y32862177D01*
X-2477618Y32837290D01*
X-2399868Y32759540D01*
X-2399858Y32759532D01*
X-2325643Y32716684D01*
X-2325641Y32716683D01*
X-2325639Y32716682D01*
X-2242853Y32694500D01*
X-309286Y32694500D01*
X-241165Y32674498D01*
X-209324Y32645204D01*
X-168284Y32591720D01*
X-168282Y32591718D01*
X-42842Y32495465D01*
X-42839Y32495463D01*
X103239Y32434955D01*
X260000Y32414318D01*
X416760Y32434955D01*
X562839Y32495463D01*
X562842Y32495465D01*
X688282Y32591718D01*
X784536Y32717159D01*
X845044Y32863238D01*
X865682Y33020000D01*
X845044Y33176762D01*
X784536Y33322841D01*
X688282Y33448282D01*
X562841Y33544536D01*
X416762Y33605044D01*
X260000Y33625682D01*
X103238Y33605044D01*
X-42841Y33544536D01*
X-168282Y33448282D01*
X-168284Y33448279D01*
X-209324Y33394796D01*
X-266662Y33352929D01*
X-309286Y33345500D01*
X-1918318Y33345500D01*
X-1986439Y33365502D01*
X-2032932Y33419158D01*
X-2042239Y33461943D01*
X-2043240Y33461812D01*
X-2064955Y33626760D01*
X-2125463Y33772839D01*
X-2125465Y33772842D01*
X-2168126Y33828439D01*
X-2221718Y33898282D01*
X-2347159Y33994536D01*
X-2349928Y33996134D01*
X-2351798Y33998095D01*
X-2353711Y33999563D01*
X-2353482Y33999860D01*
X-2398926Y34047512D01*
X-2411553Y34113006D01*
X-2414015Y34106858D01*
X-2471845Y34065673D01*
X-2529508Y34059819D01*
X-2650000Y34075682D01*
X-2806762Y34055044D01*
X-2952841Y33994536D01*
X-3078282Y33898282D01*
X-3174536Y33772841D01*
X-3235044Y33626762D01*
X-3245869Y33544536D01*
X-3255682Y33470000D01*
X-5951735Y33470000D01*
X-5872513Y33566532D01*
X-5774968Y33749025D01*
X-5714898Y33947052D01*
X-5694617Y34152976D01*
X-5694617Y34152983D01*
X-5714898Y34358907D01*
X-5724852Y34391720D01*
X-5774968Y34556934D01*
X-5797361Y34598828D01*
X-5872513Y34739427D01*
X-5873307Y34740395D01*
X-6003790Y34899390D01*
X-6163750Y35030665D01*
X-6346246Y35128212D01*
X-6544266Y35188280D01*
X-6544270Y35188280D01*
X-6544272Y35188281D01*
X-6750197Y35208563D01*
X-6750203Y35208563D01*
X-6956127Y35188281D01*
X-6956128Y35188280D01*
X-6956134Y35188280D01*
X-7154154Y35128212D01*
X-7154169Y35128203D01*
X-7154821Y35127935D01*
X-7155202Y35127893D01*
X-7160078Y35126415D01*
X-7160358Y35127339D01*
X-7225411Y35120343D01*
X-7288899Y35152119D01*
X-7292140Y35155247D01*
X-7564278Y35427385D01*
X-7598304Y35489697D01*
X-7593239Y35560512D01*
X-7550692Y35617348D01*
X-7484172Y35642159D01*
X-7475183Y35642480D01*
X-5880449Y35642480D01*
X-5821971Y35654112D01*
X-5821968Y35654113D01*
X-5755648Y35698428D01*
X-5711333Y35764748D01*
X-5711332Y35764751D01*
X-5699700Y35823229D01*
X-5699700Y37562730D01*
X-5711332Y37621208D01*
X-5711333Y37621211D01*
X-5714710Y37626265D01*
X-5755648Y37687532D01*
X-5821969Y37731847D01*
X-5880452Y37743480D01*
X-5880453Y37743480D01*
X-6630963Y37743480D01*
X-6699084Y37763482D01*
X-6720053Y37780380D01*
X-7600138Y38660465D01*
X-7625892Y38675334D01*
X-7674356Y38703315D01*
X-7674361Y38703318D01*
X-7757147Y38725500D01*
X-7757149Y38725500D01*
X-8182845Y38725500D01*
X-8250966Y38745502D01*
X-8297459Y38799158D01*
X-8307946Y38836477D01*
X-8309640Y38850590D01*
X-8362635Y38984974D01*
X-8362638Y38984978D01*
X-8449921Y39100078D01*
X-8565021Y39187361D01*
X-8565025Y39187364D01*
X-8699409Y39240359D01*
X-8699408Y39240359D01*
X-8722457Y39243126D01*
X-8783856Y39250500D01*
X-12716144Y39250500D01*
X-12800590Y39240359D01*
X-12934975Y39187364D01*
X-13050078Y39100078D01*
X-13137364Y38984975D01*
X-13190359Y38850590D01*
X-13200500Y38766144D01*
X-20000000Y38766144D01*
X-20000000Y40922120D01*
X-19979998Y40990241D01*
X-19926342Y41036734D01*
X-19856068Y41046838D01*
X-19791488Y41017344D01*
X-19753104Y40957618D01*
X-19748722Y40935591D01*
X-19744091Y40892518D01*
X-19744090Y40892516D01*
X-19693796Y40757670D01*
X-19607546Y40642453D01*
X-19492329Y40556203D01*
X-19357482Y40505909D01*
X-19357485Y40505909D01*
X-19297877Y40499500D01*
X-19297872Y40499500D01*
X-15902122Y40499500D01*
X-15842516Y40505909D01*
X-15707670Y40556203D01*
X-15592453Y40642453D01*
X-15506203Y40757670D01*
X-15455909Y40892516D01*
X-15449500Y40952122D01*
X-15449500Y42247877D01*
X-15455909Y42307483D01*
X-15464296Y42329969D01*
X-15469360Y42400784D01*
X-15435335Y42463096D01*
X-15373022Y42497121D01*
X-15346240Y42500000D01*
X-9126000Y42500000D01*
X-9057879Y42479998D01*
G37*
%TD.AperFunction*%
%TD*%
M02*
