%TF.GenerationSoftware,KiCad,Pcbnew,8.0.5*%
%TF.CreationDate,2024-11-08T07:47:15+00:00*%
%TF.ProjectId,ADE_Aux_V4,4144455f-4175-4785-9f56-342e6b696361,rev?*%
%TF.SameCoordinates,Original*%
%TF.FileFunction,Drillmap*%
%TF.FilePolarity,Positive*%
%FSLAX45Y45*%
G04 Gerber Fmt 4.5, Leading zero omitted, Abs format (unit mm)*
G04 Created by KiCad (PCBNEW 8.0.5) date 2024-11-08 07:47:15*
%MOMM*%
%LPD*%
G01*
G04 APERTURE LIST*
%ADD10C,0.100000*%
%ADD11C,0.200000*%
G04 APERTURE END LIST*
D10*
X380000Y2755000D02*
X420000Y2795000D01*
X-2000000Y4250000D02*
X-2000000Y1650000D01*
X2765000Y2795000D02*
X2765000Y4000000D01*
X-900000Y4250000D02*
X-2000000Y4250000D01*
X-2000000Y1650000D02*
X375000Y1650000D01*
X-900000Y4000000D02*
X2765000Y4000000D01*
X-900000Y4250000D02*
X-900000Y4000000D01*
X735000Y2795000D02*
X420000Y2795000D01*
X375000Y2750000D02*
X375000Y1650000D01*
X380000Y2755000D02*
X375000Y2750000D01*
X735000Y2795000D02*
X735000Y2005000D01*
X735000Y2005000D02*
X785000Y1955000D01*
X1405000Y1955000D02*
X785000Y1955000D01*
X1455000Y2700000D02*
X1455000Y2005000D01*
X1455000Y2005000D02*
X1405000Y1955000D01*
X1645000Y2700000D02*
X1645000Y2005000D01*
X1645000Y2005000D02*
X1695000Y1955000D01*
X2715000Y1955000D02*
X1695000Y1955000D01*
X2765000Y2795000D02*
X2765000Y2005000D01*
X2765000Y2005000D02*
X2715000Y1955000D01*
X1455000Y2700000D02*
G75*
G02*
X1645000Y2700000I95000J0D01*
G01*
D11*
X-1744223Y1333516D02*
X-1744223Y1533516D01*
X-1744223Y1533516D02*
X-1696604Y1533516D01*
X-1696604Y1533516D02*
X-1668033Y1523992D01*
X-1668033Y1523992D02*
X-1648985Y1504945D01*
X-1648985Y1504945D02*
X-1639461Y1485897D01*
X-1639461Y1485897D02*
X-1629937Y1447802D01*
X-1629937Y1447802D02*
X-1629937Y1419230D01*
X-1629937Y1419230D02*
X-1639461Y1381135D01*
X-1639461Y1381135D02*
X-1648985Y1362088D01*
X-1648985Y1362088D02*
X-1668033Y1343040D01*
X-1668033Y1343040D02*
X-1696604Y1333516D01*
X-1696604Y1333516D02*
X-1744223Y1333516D01*
X-1544223Y1333516D02*
X-1544223Y1466849D01*
X-1544223Y1428754D02*
X-1534699Y1447802D01*
X-1534699Y1447802D02*
X-1525175Y1457326D01*
X-1525175Y1457326D02*
X-1506128Y1466849D01*
X-1506128Y1466849D02*
X-1487080Y1466849D01*
X-1420414Y1333516D02*
X-1420414Y1466849D01*
X-1420414Y1533516D02*
X-1429937Y1523992D01*
X-1429937Y1523992D02*
X-1420414Y1514468D01*
X-1420414Y1514468D02*
X-1410890Y1523992D01*
X-1410890Y1523992D02*
X-1420414Y1533516D01*
X-1420414Y1533516D02*
X-1420414Y1514468D01*
X-1296604Y1333516D02*
X-1315652Y1343040D01*
X-1315652Y1343040D02*
X-1325176Y1362088D01*
X-1325176Y1362088D02*
X-1325176Y1533516D01*
X-1191842Y1333516D02*
X-1210890Y1343040D01*
X-1210890Y1343040D02*
X-1220414Y1362088D01*
X-1220414Y1362088D02*
X-1220414Y1533516D01*
X-963271Y1333516D02*
X-963271Y1533516D01*
X-963271Y1533516D02*
X-896604Y1390659D01*
X-896604Y1390659D02*
X-829937Y1533516D01*
X-829937Y1533516D02*
X-829937Y1333516D01*
X-648985Y1333516D02*
X-648985Y1438278D01*
X-648985Y1438278D02*
X-658509Y1457326D01*
X-658509Y1457326D02*
X-677556Y1466849D01*
X-677556Y1466849D02*
X-715652Y1466849D01*
X-715652Y1466849D02*
X-734699Y1457326D01*
X-648985Y1343040D02*
X-668033Y1333516D01*
X-668033Y1333516D02*
X-715652Y1333516D01*
X-715652Y1333516D02*
X-734699Y1343040D01*
X-734699Y1343040D02*
X-744223Y1362088D01*
X-744223Y1362088D02*
X-744223Y1381135D01*
X-744223Y1381135D02*
X-734699Y1400183D01*
X-734699Y1400183D02*
X-715652Y1409707D01*
X-715652Y1409707D02*
X-668033Y1409707D01*
X-668033Y1409707D02*
X-648985Y1419230D01*
X-553747Y1466849D02*
X-553747Y1266850D01*
X-553747Y1457326D02*
X-534699Y1466849D01*
X-534699Y1466849D02*
X-496604Y1466849D01*
X-496604Y1466849D02*
X-477556Y1457326D01*
X-477556Y1457326D02*
X-468033Y1447802D01*
X-468033Y1447802D02*
X-458509Y1428754D01*
X-458509Y1428754D02*
X-458509Y1371611D01*
X-458509Y1371611D02*
X-468033Y1352564D01*
X-468033Y1352564D02*
X-477556Y1343040D01*
X-477556Y1343040D02*
X-496604Y1333516D01*
X-496604Y1333516D02*
X-534699Y1333516D01*
X-534699Y1333516D02*
X-553747Y1343040D01*
X-372794Y1352564D02*
X-363271Y1343040D01*
X-363271Y1343040D02*
X-372794Y1333516D01*
X-372794Y1333516D02*
X-382318Y1343040D01*
X-382318Y1343040D02*
X-372794Y1352564D01*
X-372794Y1352564D02*
X-372794Y1333516D01*
X-372794Y1457326D02*
X-363271Y1447802D01*
X-363271Y1447802D02*
X-372794Y1438278D01*
X-372794Y1438278D02*
X-382318Y1447802D01*
X-382318Y1447802D02*
X-372794Y1457326D01*
X-372794Y1457326D02*
X-372794Y1438278D01*
M02*
