%TF.GenerationSoftware,KiCad,Pcbnew,8.0.4*%
%TF.CreationDate,2024-09-18T09:12:31+01:00*%
%TF.ProjectId,BG95V4,42473935-5634-42e6-9b69-6361645f7063,rev?*%
%TF.SameCoordinates,Original*%
%TF.FileFunction,Copper,L4,Bot*%
%TF.FilePolarity,Positive*%
%FSLAX46Y46*%
G04 Gerber Fmt 4.6, Leading zero omitted, Abs format (unit mm)*
G04 Created by KiCad (PCBNEW 8.0.4) date 2024-09-18 09:12:31*
%MOMM*%
%LPD*%
G01*
G04 APERTURE LIST*
G04 Aperture macros list*
%AMRoundRect*
0 Rectangle with rounded corners*
0 $1 Rounding radius*
0 $2 $3 $4 $5 $6 $7 $8 $9 X,Y pos of 4 corners*
0 Add a 4 corners polygon primitive as box body*
4,1,4,$2,$3,$4,$5,$6,$7,$8,$9,$2,$3,0*
0 Add four circle primitives for the rounded corners*
1,1,$1+$1,$2,$3*
1,1,$1+$1,$4,$5*
1,1,$1+$1,$6,$7*
1,1,$1+$1,$8,$9*
0 Add four rect primitives between the rounded corners*
20,1,$1+$1,$2,$3,$4,$5,0*
20,1,$1+$1,$4,$5,$6,$7,0*
20,1,$1+$1,$6,$7,$8,$9,0*
20,1,$1+$1,$8,$9,$2,$3,0*%
%AMRotRect*
0 Rectangle, with rotation*
0 The origin of the aperture is its center*
0 $1 length*
0 $2 width*
0 $3 Rotation angle, in degrees counterclockwise*
0 Add horizontal line*
21,1,$1,$2,0,0,$3*%
G04 Aperture macros list end*
%TA.AperFunction,ComponentPad*%
%ADD10R,2.400000X2.400000*%
%TD*%
%TA.AperFunction,ComponentPad*%
%ADD11C,2.400000*%
%TD*%
%TA.AperFunction,ComponentPad*%
%ADD12R,1.700000X1.700000*%
%TD*%
%TA.AperFunction,ComponentPad*%
%ADD13O,1.700000X1.700000*%
%TD*%
%TA.AperFunction,SMDPad,CuDef*%
%ADD14R,0.700000X1.100000*%
%TD*%
%TA.AperFunction,SMDPad,CuDef*%
%ADD15R,1.100000X0.700000*%
%TD*%
%TA.AperFunction,SMDPad,CuDef*%
%ADD16R,1.000000X1.000000*%
%TD*%
%TA.AperFunction,SMDPad,CuDef*%
%ADD17RoundRect,0.250001X-1.399999X0.837499X-1.399999X-0.837499X1.399999X-0.837499X1.399999X0.837499X0*%
%TD*%
%TA.AperFunction,SMDPad,CuDef*%
%ADD18R,1.050000X2.200000*%
%TD*%
%TA.AperFunction,SMDPad,CuDef*%
%ADD19R,3.150000X1.000000*%
%TD*%
%TA.AperFunction,SMDPad,CuDef*%
%ADD20RotRect,5.100000X5.100000X170.000000*%
%TD*%
%TA.AperFunction,SMDPad,CuDef*%
%ADD21C,1.000000*%
%TD*%
%TA.AperFunction,SMDPad,CuDef*%
%ADD22RoundRect,0.200000X-0.200000X-0.275000X0.200000X-0.275000X0.200000X0.275000X-0.200000X0.275000X0*%
%TD*%
%TA.AperFunction,SMDPad,CuDef*%
%ADD23RoundRect,0.150000X0.150000X-0.587500X0.150000X0.587500X-0.150000X0.587500X-0.150000X-0.587500X0*%
%TD*%
%TA.AperFunction,SMDPad,CuDef*%
%ADD24RoundRect,0.225000X-0.250000X0.225000X-0.250000X-0.225000X0.250000X-0.225000X0.250000X0.225000X0*%
%TD*%
%TA.AperFunction,SMDPad,CuDef*%
%ADD25RotRect,5.100000X5.100000X165.000000*%
%TD*%
%TA.AperFunction,SMDPad,CuDef*%
%ADD26RotRect,5.100000X5.100000X125.000000*%
%TD*%
%TA.AperFunction,SMDPad,CuDef*%
%ADD27RoundRect,0.200000X-0.275000X0.200000X-0.275000X-0.200000X0.275000X-0.200000X0.275000X0.200000X0*%
%TD*%
%TA.AperFunction,ViaPad*%
%ADD28C,0.800000*%
%TD*%
%TA.AperFunction,ViaPad*%
%ADD29C,1.200000*%
%TD*%
%TA.AperFunction,Conductor*%
%ADD30C,0.250000*%
%TD*%
%TA.AperFunction,Conductor*%
%ADD31C,1.000000*%
%TD*%
%TA.AperFunction,Conductor*%
%ADD32C,0.200000*%
%TD*%
%TA.AperFunction,Conductor*%
%ADD33C,0.625000*%
%TD*%
G04 APERTURE END LIST*
D10*
%TO.P,BT1,1,+*%
%TO.N,/+3V6d*%
X11750000Y19500000D03*
D11*
%TO.P,BT1,2,-*%
%TO.N,GND*%
X11750000Y-1500000D03*
%TO.P,BT1,3,-*%
X15500000Y-1500000D03*
%TO.P,BT1,4,-*%
X8000000Y-1500000D03*
%TD*%
D12*
%TO.P,J1,1,Pin_1*%
%TO.N,/+3V6*%
X4800000Y21100000D03*
D13*
%TO.P,J1,2,Pin_2*%
%TO.N,/+3V6d*%
X7340000Y21100000D03*
%TD*%
D14*
%TO.P,U1,1,PSM_IND*%
%TO.N,unconnected-(U1-Pad1)*%
X35900000Y20050000D03*
%TO.P,U1,2,ADC1*%
%TO.N,unconnected-(U1-Pad2)*%
X37000000Y20050000D03*
%TO.P,U1,3,GND*%
%TO.N,GND*%
X38100000Y20050000D03*
%TO.P,U1,4,PCM_CLK*%
%TO.N,unconnected-(U1-Pad4)*%
X39200000Y20050000D03*
%TO.P,U1,5,PCM_SYNC*%
%TO.N,unconnected-(U1-Pad5)*%
X40300000Y20050000D03*
%TO.P,U1,6,PCM_IN*%
%TO.N,unconnected-(U1-Pad6)*%
X41400000Y20050000D03*
%TO.P,U1,7,PCM_OUT*%
%TO.N,unconnected-(U1-Pad7)*%
X42500000Y20050000D03*
%TO.P,U1,8,USB_VBUS*%
%TO.N,/Vbus*%
X43600000Y20050000D03*
%TO.P,U1,9,USB_DP*%
%TO.N,/D+*%
X44700000Y20050000D03*
%TO.P,U1,10,USB_DM*%
%TO.N,/D-*%
X45800000Y20050000D03*
%TO.P,U1,11,RESERVED*%
%TO.N,unconnected-(U1-Pad11)*%
X47500000Y20050000D03*
%TO.P,U1,12,RESERVED*%
X48600000Y20050000D03*
%TO.P,U1,13,RESERVED*%
X49700000Y20050000D03*
%TO.P,U1,14,RESERVED*%
X50800000Y20050000D03*
%TO.P,U1,15,PWRKEY*%
%TO.N,/PWRKEY*%
X51900000Y20050000D03*
%TO.P,U1,16,RESERVED*%
%TO.N,unconnected-(U1-Pad11)*%
X53000000Y20050000D03*
%TO.P,U1,17,~{RESET}*%
%TO.N,unconnected-(U1-Pad17)*%
X54100000Y20050000D03*
%TO.P,U1,18,W_DISABLE#*%
%TO.N,unconnected-(U1-Pad18)*%
X55200000Y20050000D03*
D15*
%TO.P,U1,19,AP_READY*%
%TO.N,unconnected-(U1-Pad19)*%
X56600000Y18350000D03*
%TO.P,U1,20,STATUS*%
%TO.N,/Status*%
X56600000Y17250000D03*
%TO.P,U1,21,NETLIGHT*%
%TO.N,unconnected-(U1-Pad21)*%
X56600000Y16150000D03*
%TO.P,U1,22,DBG_RXD*%
%TO.N,/R*%
X56600000Y15050000D03*
%TO.P,U1,23,DBG_TXD*%
%TO.N,/T*%
X56600000Y13950000D03*
%TO.P,U1,24,ADC0*%
%TO.N,unconnected-(U1-Pad24)*%
X56600000Y12850000D03*
%TO.P,U1,25,GPIO25*%
%TO.N,unconnected-(U1-Pad25)*%
X56600000Y10350000D03*
%TO.P,U1,26,GPIO26*%
%TO.N,unconnected-(U1-Pad26)*%
X56600000Y9250000D03*
%TO.P,U1,27,UART3_TXD*%
%TO.N,unconnected-(U1-Pad27)*%
X56600000Y8150000D03*
%TO.P,U1,28,UART3_RXD*%
%TO.N,unconnected-(U1-Pad28)*%
X56600000Y7050000D03*
%TO.P,U1,29,VDD_EXT*%
%TO.N,/VDD_EXT*%
X56600000Y5950000D03*
%TO.P,U1,30,DTR*%
%TO.N,/DTR*%
X56600000Y4850000D03*
%TO.P,U1,31,GND*%
%TO.N,GND*%
X56600000Y3750000D03*
D14*
%TO.P,U1,32,VBAT_BB*%
%TO.N,/VBAT*%
X55200000Y1750000D03*
%TO.P,U1,33,VBAT_BB*%
X54100000Y1750000D03*
%TO.P,U1,34,RXD*%
%TO.N,/RXD*%
X53000000Y1750000D03*
%TO.P,U1,35,TXD*%
%TO.N,/TXD*%
X51900000Y1750000D03*
%TO.P,U1,36,CTS*%
%TO.N,unconnected-(U1-Pad36)*%
X50800000Y1750000D03*
%TO.P,U1,37,RTS*%
%TO.N,unconnected-(U1-Pad37)*%
X49700000Y1750000D03*
%TO.P,U1,38,DCD*%
%TO.N,/DCD*%
X48600000Y1750000D03*
%TO.P,U1,39,RI*%
%TO.N,unconnected-(U1-Pad39)*%
X47500000Y1750000D03*
%TO.P,U1,40,I2C_SCL*%
%TO.N,unconnected-(U1-Pad40)*%
X45800000Y1750000D03*
%TO.P,U1,41,I2C_SDA*%
%TO.N,unconnected-(U1-Pad41)*%
X44700000Y1750000D03*
%TO.P,U1,42,USIM_PRESENCE*%
%TO.N,unconnected-(U1-Pad42)*%
X43600000Y1750000D03*
%TO.P,U1,43,USIM_VDD*%
%TO.N,/uVDD*%
X42500000Y1750000D03*
%TO.P,U1,44,USIM_RST*%
%TO.N,/uRST*%
X41400000Y1750000D03*
%TO.P,U1,45,USIM_DATA*%
%TO.N,/uData*%
X40300000Y1750000D03*
%TO.P,U1,46,USIM_CLK*%
%TO.N,/uCLK*%
X39200000Y1750000D03*
%TO.P,U1,47,USIM_GND*%
%TO.N,/uGND*%
X38100000Y1750000D03*
%TO.P,U1,48,GND*%
%TO.N,GND*%
X37000000Y1750000D03*
%TO.P,U1,49,ANT_GNSS*%
%TO.N,unconnected-(U1-Pad49)*%
X35900000Y1750000D03*
D15*
%TO.P,U1,50,GND*%
%TO.N,GND*%
X34600000Y3750000D03*
%TO.P,U1,51,RESERVED*%
%TO.N,unconnected-(U1-Pad11)*%
X34600000Y4850000D03*
%TO.P,U1,52,VBAT_RF*%
%TO.N,/VBAT*%
X34600000Y5950000D03*
%TO.P,U1,53,VBAT_RF*%
X34600000Y7050000D03*
%TO.P,U1,54,GND*%
%TO.N,GND*%
X34600000Y8150000D03*
%TO.P,U1,55,GND*%
X34600000Y9250000D03*
%TO.P,U1,56,RESERVED*%
%TO.N,unconnected-(U1-Pad11)*%
X34600000Y10350000D03*
%TO.P,U1,57,RESERVED*%
X34600000Y12850000D03*
%TO.P,U1,58,GND*%
%TO.N,GND*%
X34600000Y13950000D03*
%TO.P,U1,59,GND*%
X34600000Y15050000D03*
%TO.P,U1,60,ANT_MAIN*%
%TO.N,/RF_OUT*%
X34600000Y16150000D03*
%TO.P,U1,61,GND*%
%TO.N,GND*%
X34600000Y17250000D03*
%TO.P,U1,62,GND*%
X34600000Y18350000D03*
D16*
%TO.P,U1,63,RESERVED*%
%TO.N,unconnected-(U1-Pad11)*%
X41350000Y16850000D03*
%TO.P,U1,64,GPIO64*%
%TO.N,unconnected-(U1-Pad64)*%
X43050000Y16850000D03*
%TO.P,U1,65,GPIO65*%
%TO.N,unconnected-(U1-Pad65)*%
X44750000Y16850000D03*
%TO.P,U1,66,GPIO66*%
%TO.N,unconnected-(U1-Pad66)*%
X46450000Y16850000D03*
%TO.P,U1,67,GND*%
%TO.N,GND*%
X48150000Y16850000D03*
%TO.P,U1,68,GND*%
X49850000Y16850000D03*
%TO.P,U1,69,GND*%
X53250000Y13450000D03*
%TO.P,U1,70,GND*%
X53250000Y11750000D03*
%TO.P,U1,71,GND*%
X53250000Y10050000D03*
%TO.P,U1,72,GND*%
X53250000Y8350000D03*
%TO.P,U1,73,GND*%
X49850000Y4950000D03*
%TO.P,U1,74,GND*%
X48150000Y4950000D03*
%TO.P,U1,75,USB_BOOT*%
%TO.N,unconnected-(U1-Pad75)*%
X46450000Y4950000D03*
%TO.P,U1,76,RESERVED*%
%TO.N,unconnected-(U1-Pad11)*%
X44750000Y4950000D03*
%TO.P,U1,77,RESERVED*%
X43050000Y4950000D03*
%TO.P,U1,78,RESERVED*%
X41350000Y4950000D03*
%TO.P,U1,79,GND*%
%TO.N,GND*%
X37950000Y8350000D03*
%TO.P,U1,80,GND*%
X37950000Y10050000D03*
%TO.P,U1,81,GND*%
X37950000Y11750000D03*
%TO.P,U1,82,GND*%
X37950000Y13450000D03*
%TO.P,U1,83,RESERVED*%
%TO.N,unconnected-(U1-Pad11)*%
X41350000Y15150000D03*
%TO.P,U1,84,RESERVED*%
X43050000Y15150000D03*
%TO.P,U1,85,GPIO85*%
%TO.N,unconnected-(U1-Pad85)*%
X44750000Y15150000D03*
%TO.P,U1,86,GPIO86*%
%TO.N,unconnected-(U1-Pad86)*%
X46450000Y15150000D03*
%TO.P,U1,87,GPIO87*%
%TO.N,unconnected-(U1-Pad87)*%
X48150000Y15150000D03*
%TO.P,U1,88,GPIO88*%
%TO.N,unconnected-(U1-Pad88)*%
X49850000Y15150000D03*
%TO.P,U1,89,GND*%
%TO.N,GND*%
X51550000Y13450000D03*
%TO.P,U1,90,GND*%
X51550000Y11750000D03*
%TO.P,U1,91,GND*%
X51550000Y10050000D03*
%TO.P,U1,92,RESERVED*%
%TO.N,unconnected-(U1-Pad11)*%
X51550000Y8350000D03*
%TO.P,U1,93,RESERVED*%
X49850000Y6650000D03*
%TO.P,U1,94,RESERVED*%
X48150000Y6650000D03*
%TO.P,U1,95,RESERVED*%
X46450000Y6650000D03*
%TO.P,U1,96,RESERVED*%
X44750000Y6650000D03*
%TO.P,U1,97,RESERVED*%
X43050000Y6650000D03*
%TO.P,U1,98,RESERVED*%
X41350000Y6650000D03*
%TO.P,U1,99,RESERVED*%
X39650000Y8350000D03*
%TO.P,U1,100,GND*%
%TO.N,GND*%
X39650000Y10050000D03*
%TO.P,U1,101,GND*%
X39650000Y11750000D03*
%TO.P,U1,102,GND*%
X39650000Y13450000D03*
%TD*%
D17*
%TO.P,C5,1*%
%TO.N,/VBAT*%
X30060000Y9667500D03*
%TO.P,C5,2*%
%TO.N,GND*%
X30060000Y3292500D03*
%TD*%
D16*
%TO.P,J12,1,Pin_1*%
%TO.N,/RF_OUT1*%
X27381200Y18235800D03*
D18*
%TO.P,J12,2,Pin_2*%
%TO.N,GND*%
X28856200Y19735800D03*
D16*
X27381200Y21235800D03*
D18*
X25906200Y19735800D03*
%TD*%
D19*
%TO.P,J3,1,Pin_1*%
%TO.N,/uDTR*%
X66350000Y19840000D03*
%TO.P,J3,2,Pin_2*%
%TO.N,/uDCD*%
X66350000Y17300000D03*
%TO.P,J3,3,Pin_3*%
%TO.N,/uStatus*%
X66350000Y14760000D03*
%TO.P,J3,4,Pin_4*%
%TO.N,/uPWRKEY*%
X66350000Y12220000D03*
%TO.P,J3,5,Pin_5*%
%TO.N,/TxD*%
X66350000Y9680000D03*
%TO.P,J3,6,Pin_6*%
%TO.N,/RxD*%
X66350000Y7140000D03*
%TO.P,J3,7,Pin_7*%
%TO.N,/Alim*%
X66350000Y4600000D03*
%TO.P,J3,8,Pin_8*%
%TO.N,/+3V3_UC*%
X66350000Y2060000D03*
%TO.P,J3,9,Pin_9*%
%TO.N,/D-*%
X61300000Y19840000D03*
%TO.P,J3,10,Pin_10*%
%TO.N,/D+*%
X61300000Y17300000D03*
%TO.P,J3,11,Pin_11*%
%TO.N,/Vbus*%
X61300000Y14760000D03*
%TO.P,J3,12,Pin_12*%
%TO.N,/R*%
X61300000Y12220000D03*
%TO.P,J3,13,Pin_13*%
%TO.N,/T*%
X61300000Y9680000D03*
%TO.P,J3,14,Pin_14*%
%TO.N,GND*%
X61300000Y7140000D03*
%TO.P,J3,15,Pin_15*%
X61300000Y4600000D03*
%TO.P,J3,16,Pin_16*%
X61300000Y2060000D03*
%TD*%
D20*
%TO.P,J5,1,Pin_1*%
%TO.N,unconnected-(J5-Pad1)*%
X18897600Y19431000D03*
%TD*%
D21*
%TO.P,FID2,*%
%TO.N,*%
X66776600Y-1092200D03*
%TD*%
D22*
%TO.P,R4,1*%
%TO.N,/RF_OUT1*%
X28900000Y16150000D03*
%TO.P,R4,2*%
%TO.N,/RF_OUT*%
X30550000Y16150000D03*
%TD*%
D19*
%TO.P,J2,1,Pin_1*%
%TO.N,GND*%
X17700000Y1970000D03*
%TO.P,J2,2,Pin_2*%
X17700000Y4510000D03*
%TO.P,J2,3,Pin_3*%
X17700000Y7050000D03*
%TO.P,J2,4,Pin_4*%
X17700000Y9590000D03*
%TO.P,J2,5,Pin_5*%
X17700000Y12130000D03*
%TO.P,J2,6,Pin_6*%
%TO.N,/+3V6*%
X22750000Y1970000D03*
%TO.P,J2,7,Pin_7*%
X22750000Y4510000D03*
%TO.P,J2,8,Pin_8*%
X22750000Y7050000D03*
%TO.P,J2,9,Pin_9*%
X22750000Y9590000D03*
%TO.P,J2,10,Pin_10*%
X22750000Y12130000D03*
%TD*%
D23*
%TO.P,Q1,1,B*%
%TO.N,/Alim*%
X12888000Y1805700D03*
%TO.P,Q1,2,E*%
%TO.N,GND*%
X10988000Y1805700D03*
%TO.P,Q1,3,C*%
%TO.N,Net-(Q1-Pad3)*%
X11938000Y3680700D03*
%TD*%
D24*
%TO.P,C13,1*%
%TO.N,/RF_OUT1*%
X27375000Y16150000D03*
%TO.P,C13,2*%
%TO.N,GND*%
X27375000Y14600000D03*
%TD*%
D25*
%TO.P,J6,1,Pin_1*%
%TO.N,unconnected-(J6-Pad1)*%
X71805800Y19227800D03*
%TD*%
D26*
%TO.P,J4,1,Pin_1*%
%TO.N,unconnected-(J4-Pad1)*%
X7467600Y7950200D03*
%TD*%
D27*
%TO.P,R2,1*%
%TO.N,/+3V6d*%
X12725400Y7175000D03*
%TO.P,R2,2*%
%TO.N,Net-(Q1-Pad3)*%
X12725400Y5525000D03*
%TD*%
D21*
%TO.P,FID3,*%
%TO.N,*%
X6197600Y13309600D03*
%TD*%
D24*
%TO.P,C14,1*%
%TO.N,/RF_OUT*%
X32000000Y16150000D03*
%TO.P,C14,2*%
%TO.N,GND*%
X32000000Y14600000D03*
%TD*%
D28*
%TO.N,GND*%
X73533000Y13685394D03*
X31369000Y17399000D03*
X39370000Y16510000D03*
X73533000Y6065394D03*
X65913000Y21305394D03*
X73533000Y985394D03*
X73533000Y8605394D03*
X58432288Y3644211D03*
X48133000Y-1554606D03*
X15113000Y11145394D03*
X36195000Y13335000D03*
X70993000Y8605394D03*
X17653000Y-1554606D03*
X37973000Y-1554606D03*
X58293000Y-1554606D03*
X63373000Y21305394D03*
X44450000Y8890000D03*
X4749800Y15214600D03*
X35560000Y-1270000D03*
X30353000Y21305394D03*
X60147200Y10947400D03*
X73533000Y-1554606D03*
X41910000Y8890000D03*
X31496000Y13208000D03*
X18135600Y16179800D03*
X22733000Y16225394D03*
X20193000Y-1554606D03*
X7493000Y18765394D03*
X12573000Y11145394D03*
X70993000Y11145394D03*
X53213000Y-1554606D03*
X32893000Y13208000D03*
X60833000Y21305394D03*
X28575000Y13462000D03*
X55880000Y-1270000D03*
X36195000Y14478000D03*
X25273000Y985394D03*
X45720000Y-1270000D03*
X45593000Y3525394D03*
X12573000Y8605394D03*
X25908000Y14859000D03*
X22733000Y-1554606D03*
X15113000Y3525394D03*
X68453000Y21305394D03*
X10033000Y3525394D03*
X22707600Y21285200D03*
X32893000Y-1554606D03*
X25400000Y3810000D03*
X36195000Y16637000D03*
X32893000Y21305394D03*
X49430000Y13150000D03*
X36195000Y15494000D03*
X24511000Y14986000D03*
X22733000Y18765394D03*
X30353000Y-1554606D03*
X27051000Y13335000D03*
X11099800Y17170400D03*
X28829000Y14859000D03*
X14046200Y17170400D03*
X60833000Y-1554606D03*
X31089600Y19634200D03*
X70993000Y13685394D03*
X73533000Y11145394D03*
X70993000Y985394D03*
X68453000Y-1554606D03*
X63373000Y-1554606D03*
X54250000Y6740000D03*
X13106400Y13055600D03*
X10033000Y11145394D03*
X70993000Y3525394D03*
X20193000Y3525394D03*
X70993000Y-1554606D03*
X4953000Y11145394D03*
X73533000Y3525394D03*
X40640000Y-1270000D03*
X30607000Y14859000D03*
X50800000Y-1270000D03*
X7493000Y985394D03*
X43053000Y-1554606D03*
X9779000Y13055600D03*
X8331200Y17043400D03*
%TO.N,/uGND*%
X42675000Y10600000D03*
X34510000Y1960000D03*
X42400000Y13250000D03*
%TO.N,/uRST*%
X41540000Y719989D03*
%TO.N,/uCLK*%
X32580000Y9900000D03*
X39200000Y5700000D03*
%TO.N,/uData*%
X40130000Y720000D03*
%TO.N,/uVDD*%
X43070000Y530000D03*
%TO.N,/VBAT*%
X57960000Y830000D03*
X47233980Y10491020D03*
D29*
X28200000Y11900000D03*
D28*
%TO.N,/uStatus*%
X67825000Y16100000D03*
%TO.N,/uPWRKEY*%
X68675000Y13500000D03*
%TO.N,/uDTR*%
X63275000Y16125000D03*
%TO.N,/TxD*%
X64050000Y11275000D03*
%TO.N,/RxD*%
X64050000Y7550000D03*
%TO.N,/uDCD*%
X64625000Y16025000D03*
%TO.N,Net-(Q1-Pad3)*%
X15417800Y5308600D03*
%TO.N,/RXD*%
X50775000Y3850000D03*
%TO.N,/TXD*%
X51800000Y2950000D03*
%TO.N,/VDD_EXT*%
X58350000Y14625000D03*
%TO.N,/DTR*%
X58975000Y13350000D03*
%TO.N,/DCD*%
X48768000Y3048000D03*
%TO.N,/PWRKEY*%
X51917600Y21234400D03*
%TO.N,/Status*%
X53695600Y16738600D03*
%TO.N,/Alim*%
X20400000Y475000D03*
X30962600Y330200D03*
%TO.N,/+3V6d*%
X19126200Y13233400D03*
X15392400Y7239000D03*
%TO.N,/+3V3_UC*%
X68500000Y3275000D03*
X67250000Y13500000D03*
X63525000Y14300000D03*
%TO.N,/T*%
X59512200Y8763000D03*
X54889400Y13182600D03*
%TO.N,/D+*%
X59283600Y18389600D03*
X44983400Y21234400D03*
%TO.N,/D-*%
X46151800Y21183600D03*
X59125498Y19659600D03*
%TD*%
D30*
%TO.N,/uGND*%
X42675000Y12975000D02*
X42400000Y13250000D01*
X35310000Y2760000D02*
X37690000Y2760000D01*
X38100000Y2350000D02*
X38100000Y1750000D01*
X42675000Y10600000D02*
X42675000Y12975000D01*
X34510000Y1960000D02*
X35310000Y2760000D01*
X37690000Y2760000D02*
X38100000Y2350000D01*
%TO.N,/uRST*%
X41400000Y670000D02*
X41449989Y719989D01*
X41400000Y1750000D02*
X41400000Y670000D01*
X41449989Y719989D02*
X41540000Y719989D01*
%TO.N,/uCLK*%
X36910000Y7140000D02*
X38350000Y5700000D01*
X36530000Y11500000D02*
X36910000Y11120000D01*
X32580000Y9900000D02*
X32580000Y10940000D01*
X32580000Y10940000D02*
X33140000Y11500000D01*
X33140000Y11500000D02*
X36530000Y11500000D01*
X36910000Y11120000D02*
X36910000Y7140000D01*
X39200000Y1900000D02*
X39300000Y1800000D01*
X39200000Y5700000D02*
X39200000Y1900000D01*
X38350000Y5700000D02*
X39200000Y5700000D01*
%TO.N,/uData*%
X40300000Y1750000D02*
X40300000Y890000D01*
X40300000Y890000D02*
X40130000Y720000D01*
%TO.N,/uVDD*%
X42500000Y1750000D02*
X42500000Y1100000D01*
X42500000Y1100000D02*
X43070000Y530000D01*
D31*
%TO.N,/VBAT*%
X54350000Y1750000D02*
X54300000Y1700000D01*
X30060000Y7520000D02*
X30060000Y9667500D01*
X30680001Y6899999D02*
X30060000Y7520000D01*
X28200000Y11900000D02*
X28200000Y11527500D01*
X55200000Y1750000D02*
X54350000Y1750000D01*
X34700000Y6200000D02*
X34700000Y6899999D01*
X34700000Y6899999D02*
X30680001Y6899999D01*
X28200000Y11527500D02*
X30060000Y9667500D01*
X55200000Y1750000D02*
X58050000Y1750000D01*
X58050000Y1750000D02*
X58050000Y920000D01*
X58050000Y920000D02*
X57960000Y830000D01*
D32*
%TO.N,/uStatus*%
X67210000Y14760000D02*
X67825000Y15375000D01*
X67825000Y15375000D02*
X67825000Y16100000D01*
X66350000Y14760000D02*
X67210000Y14760000D01*
%TO.N,/uPWRKEY*%
X68700000Y13475000D02*
X68675000Y13500000D01*
X66350000Y12220000D02*
X68170000Y12220000D01*
X68700000Y12750000D02*
X68700000Y13475000D01*
X68170000Y12220000D02*
X68700000Y12750000D01*
D31*
%TO.N,/+3V6*%
X22750000Y2005000D02*
X22750000Y12130000D01*
X4800000Y17831400D02*
X4800000Y21100000D01*
X22750000Y12130000D02*
X22750000Y13075000D01*
X7772400Y14859000D02*
X4800000Y17831400D01*
X20966000Y14859000D02*
X7772400Y14859000D01*
X22750000Y13075000D02*
X20966000Y14859000D01*
D32*
%TO.N,/uDTR*%
X64215000Y19840000D02*
X66350000Y19840000D01*
X63275000Y16125000D02*
X63275000Y18900000D01*
X63275000Y18900000D02*
X64215000Y19840000D01*
%TO.N,/TxD*%
X65000000Y10225000D02*
X65000000Y10825000D01*
X64550000Y11275000D02*
X64050000Y11275000D01*
X65000000Y10825000D02*
X64550000Y11275000D01*
X65545000Y9680000D02*
X65000000Y10225000D01*
X66350000Y9680000D02*
X65545000Y9680000D01*
%TO.N,/RxD*%
X64460000Y7140000D02*
X64050000Y7550000D01*
X66350000Y7140000D02*
X64460000Y7140000D01*
%TO.N,/uDCD*%
X65900000Y17300000D02*
X66350000Y17300000D01*
X64625000Y16025000D02*
X65900000Y17300000D01*
D33*
%TO.N,/RF_OUT*%
X32000000Y16150000D02*
X30550000Y16150000D01*
X34600000Y16150000D02*
X32000000Y16150000D01*
D30*
%TO.N,Net-(Q1-Pad3)*%
X11938000Y3680700D02*
X13129500Y3680700D01*
X13614400Y5308600D02*
X13919200Y5308600D01*
X13919200Y4470400D02*
X13919200Y5308600D01*
X12725400Y5525000D02*
X13398000Y5525000D01*
X13398000Y5525000D02*
X13614400Y5308600D01*
X13129500Y3680700D02*
X13919200Y4470400D01*
X13919200Y5308600D02*
X15417800Y5308600D01*
%TO.N,/RXD*%
X53000000Y1750000D02*
X53000000Y2950000D01*
X53000000Y2950000D02*
X52100000Y3850000D01*
X52100000Y3850000D02*
X50775000Y3850000D01*
%TO.N,/TXD*%
X51900000Y2850000D02*
X51800000Y2950000D01*
X51900000Y1750000D02*
X51900000Y2850000D01*
%TO.N,/VDD_EXT*%
X58166000Y6350000D02*
X57766000Y5950000D01*
X57766000Y5950000D02*
X56600000Y5950000D01*
X58350000Y13825000D02*
X58166001Y13641001D01*
X58166001Y13641001D02*
X58166000Y6350000D01*
X58350000Y14625000D02*
X58350000Y13825000D01*
%TO.N,/DTR*%
X58928000Y13303000D02*
X58928000Y11176000D01*
X58674000Y10922000D02*
X58674000Y5080000D01*
X58674000Y5080000D02*
X58444000Y4850000D01*
X58444000Y4850000D02*
X56600000Y4850000D01*
X58928000Y11176000D02*
X58674000Y10922000D01*
X58975000Y13350000D02*
X58928000Y13303000D01*
%TO.N,/DCD*%
X48600000Y2880000D02*
X48768000Y3048000D01*
X48600000Y1750000D02*
X48600000Y2880000D01*
%TO.N,/PWRKEY*%
X51900000Y21216800D02*
X51917600Y21234400D01*
X51900000Y20050000D02*
X51900000Y21216800D01*
%TO.N,/Status*%
X54157000Y17200000D02*
X53695600Y16738600D01*
X56600000Y17200000D02*
X54157000Y17200000D01*
%TO.N,/Alim*%
X20163800Y711200D02*
X20400000Y475000D01*
X43525000Y-50000D02*
X43375000Y-200000D01*
X65050000Y4600000D02*
X63900000Y3450000D01*
X63900000Y3450000D02*
X63900000Y725000D01*
X43375000Y-200000D02*
X34312200Y-200000D01*
X31492800Y-200000D02*
X30962600Y330200D01*
X14755100Y1805700D02*
X15849600Y711200D01*
X63900000Y725000D02*
X63125000Y-50000D01*
X12888000Y1805700D02*
X14755100Y1805700D01*
X63125000Y-50000D02*
X43525000Y-50000D01*
X15849600Y711200D02*
X20163800Y711200D01*
X66350000Y4600000D02*
X65050000Y4600000D01*
X34312200Y-200000D02*
X31492800Y-200000D01*
%TO.N,/+3V6d*%
X15265400Y7366000D02*
X15392400Y7239000D01*
D31*
X10150000Y21100000D02*
X7340000Y21100000D01*
X11750000Y19500000D02*
X10150000Y21100000D01*
D30*
X13893800Y7188200D02*
X14071600Y7366000D01*
X14071600Y7366000D02*
X15265400Y7366000D01*
X13880600Y7175000D02*
X14071600Y7366000D01*
X12725400Y7175000D02*
X13880600Y7175000D01*
D32*
%TO.N,/+3V3_UC*%
X64325000Y13500000D02*
X67250000Y13500000D01*
X68500000Y2650000D02*
X68500000Y3275000D01*
X66350000Y2060000D02*
X67910000Y2060000D01*
X63525000Y14300000D02*
X64325000Y13500000D01*
X67910000Y2060000D02*
X68500000Y2650000D01*
D33*
%TO.N,/RF_OUT1*%
X27388200Y18228800D02*
X27388200Y16163200D01*
X28900000Y16150000D02*
X27375000Y16150000D01*
X27388200Y16163200D02*
X27375000Y16150000D01*
D30*
%TO.N,/T*%
X55656800Y13950000D02*
X56600000Y13950000D01*
X54889400Y13182600D02*
X55656800Y13950000D01*
X61300000Y9680000D02*
X60429200Y9680000D01*
X60429200Y9680000D02*
X59512200Y8763000D01*
%TO.N,/R*%
X58953400Y15494000D02*
X59143900Y15303500D01*
X59258200Y14249400D02*
X59258200Y15189200D01*
X59258200Y15189200D02*
X59143900Y15303500D01*
X57505600Y15494000D02*
X58953400Y15494000D01*
X61300000Y13096600D02*
X60985400Y13411200D01*
X61300000Y12220000D02*
X61300000Y13096600D01*
X60096400Y13411200D02*
X59258200Y14249400D01*
X56600000Y15050000D02*
X57061600Y15050000D01*
X57061600Y15050000D02*
X57505600Y15494000D01*
X60985400Y13411200D02*
X60096400Y13411200D01*
D32*
%TO.N,/D+*%
X59283600Y18389600D02*
X60210400Y18389600D01*
X44700000Y20951000D02*
X44983400Y21234400D01*
X60210400Y18389600D02*
X61300000Y17300000D01*
X44700000Y20050000D02*
X44700000Y20951000D01*
%TO.N,/D-*%
X59305898Y19840000D02*
X61300000Y19840000D01*
X59125498Y19659600D02*
X59305898Y19840000D01*
X45800000Y20831800D02*
X46151800Y21183600D01*
X45800000Y20050000D02*
X45800000Y20831800D01*
D30*
%TO.N,/Vbus*%
X58547000Y16078200D02*
X60223400Y16078200D01*
X58039000Y18542000D02*
X58039000Y16586200D01*
X60248800Y16103600D02*
X60756800Y16103600D01*
X57404000Y19177000D02*
X58039000Y18542000D01*
X55600600Y19177000D02*
X57404000Y19177000D01*
X61300000Y15560400D02*
X61300000Y14760000D01*
X43600000Y20050000D02*
X43600000Y19250000D01*
X43600000Y19250000D02*
X44003200Y18846800D01*
X44003200Y18846800D02*
X55270400Y18846800D01*
X55270400Y18846800D02*
X55600600Y19177000D01*
X60223400Y16078200D02*
X60248800Y16103600D01*
X58039000Y16586200D02*
X58547000Y16078200D01*
X60756800Y16103600D02*
X61300000Y15560400D01*
%TD*%
%TA.AperFunction,Conductor*%
%TO.N,GND*%
G36*
X3764691Y22264398D02*
G01*
X3811184Y22210742D01*
X3821288Y22140468D01*
X3801335Y22088398D01*
X3768027Y22038550D01*
X3768025Y22038546D01*
X3761133Y22028231D01*
X3749500Y21969748D01*
X3749500Y20230252D01*
X3750707Y20224184D01*
X3754331Y20205967D01*
X3761133Y20171769D01*
X3805448Y20105448D01*
X3871769Y20061133D01*
X3883938Y20058712D01*
X3883939Y20058712D01*
X3924184Y20050707D01*
X3930252Y20049500D01*
X3973500Y20049500D01*
X4041621Y20029498D01*
X4088114Y19975842D01*
X4099500Y19923500D01*
X4099500Y17860041D01*
X4099208Y17851471D01*
X4096010Y17804556D01*
X4095322Y17794470D01*
X4096627Y17786994D01*
X4096627Y17786991D01*
X4106178Y17732268D01*
X4107141Y17725742D01*
X4114724Y17663080D01*
X4117409Y17655973D01*
X4118218Y17652680D01*
X4122177Y17638209D01*
X4123166Y17634933D01*
X4124473Y17627446D01*
X4127528Y17620487D01*
X4127528Y17620486D01*
X4149847Y17569640D01*
X4152339Y17563534D01*
X4169873Y17517133D01*
X4174655Y17504477D01*
X4178954Y17498222D01*
X4180535Y17495197D01*
X4187825Y17482101D01*
X4189566Y17479157D01*
X4192621Y17472198D01*
X4197246Y17466170D01*
X4197247Y17466169D01*
X4231042Y17422127D01*
X4234919Y17416791D01*
X4266381Y17371014D01*
X4266386Y17371008D01*
X4270688Y17364749D01*
X4304956Y17334217D01*
X4316657Y17323792D01*
X4321933Y17318811D01*
X7256811Y14383933D01*
X7262664Y14377668D01*
X7300231Y14334604D01*
X7306442Y14330239D01*
X7306445Y14330236D01*
X7351893Y14298295D01*
X7357188Y14294362D01*
X7406857Y14255417D01*
X7413784Y14252289D01*
X7416715Y14250514D01*
X7429718Y14243097D01*
X7432732Y14241481D01*
X7438947Y14237113D01*
X7446023Y14234354D01*
X7446027Y14234352D01*
X7497764Y14214181D01*
X7503845Y14211625D01*
X7525348Y14201916D01*
X7561384Y14185645D01*
X7568850Y14184261D01*
X7572099Y14183243D01*
X7586564Y14179123D01*
X7589837Y14178283D01*
X7596913Y14175524D01*
X7637994Y14170116D01*
X7659506Y14167284D01*
X7666023Y14166252D01*
X7706840Y14158687D01*
X7728092Y14154748D01*
X7735672Y14155185D01*
X7735673Y14155185D01*
X7789538Y14158291D01*
X7796791Y14158500D01*
X20623654Y14158500D01*
X20691775Y14138498D01*
X20712749Y14121595D01*
X21788748Y13045595D01*
X21822774Y12983283D01*
X21817709Y12912467D01*
X21775162Y12855632D01*
X21708642Y12830821D01*
X21699653Y12830500D01*
X21155252Y12830500D01*
X21149184Y12829293D01*
X21108939Y12821288D01*
X21108938Y12821288D01*
X21096769Y12818867D01*
X21086453Y12811974D01*
X21069079Y12800365D01*
X21030448Y12774552D01*
X20986133Y12708231D01*
X20974500Y12649748D01*
X20974500Y11610252D01*
X20975707Y11604184D01*
X20982794Y11568557D01*
X20986133Y11551769D01*
X21030448Y11485448D01*
X21096769Y11441133D01*
X21108938Y11438712D01*
X21108939Y11438712D01*
X21143880Y11431762D01*
X21155252Y11429500D01*
X21923500Y11429500D01*
X21991621Y11409498D01*
X22038114Y11355842D01*
X22049500Y11303500D01*
X22049500Y10416500D01*
X22029498Y10348379D01*
X21975842Y10301886D01*
X21923500Y10290500D01*
X21155252Y10290500D01*
X21149184Y10289293D01*
X21108939Y10281288D01*
X21108938Y10281288D01*
X21096769Y10278867D01*
X21030448Y10234552D01*
X20986133Y10168231D01*
X20974500Y10109748D01*
X20974500Y9070252D01*
X20975707Y9064184D01*
X20982794Y9028557D01*
X20986133Y9011769D01*
X21030448Y8945448D01*
X21096769Y8901133D01*
X21108938Y8898712D01*
X21108939Y8898712D01*
X21145469Y8891446D01*
X21155252Y8889500D01*
X21923500Y8889500D01*
X21991621Y8869498D01*
X22038114Y8815842D01*
X22049500Y8763500D01*
X22049500Y7876500D01*
X22029498Y7808379D01*
X21975842Y7761886D01*
X21923500Y7750500D01*
X21155252Y7750500D01*
X21149184Y7749293D01*
X21108939Y7741288D01*
X21108938Y7741288D01*
X21096769Y7738867D01*
X21030448Y7694552D01*
X21023557Y7684239D01*
X21007853Y7660736D01*
X20986133Y7628231D01*
X20983712Y7616062D01*
X20983712Y7616061D01*
X20978594Y7590330D01*
X20974500Y7569748D01*
X20974500Y6530252D01*
X20975707Y6524184D01*
X20983536Y6484827D01*
X20986133Y6471769D01*
X21030448Y6405448D01*
X21096769Y6361133D01*
X21108938Y6358712D01*
X21108939Y6358712D01*
X21149184Y6350707D01*
X21155252Y6349500D01*
X21923500Y6349500D01*
X21991621Y6329498D01*
X22038114Y6275842D01*
X22049500Y6223500D01*
X22049500Y5336500D01*
X22029498Y5268379D01*
X21975842Y5221886D01*
X21923500Y5210500D01*
X21155252Y5210500D01*
X21149184Y5209293D01*
X21108939Y5201288D01*
X21108938Y5201288D01*
X21096769Y5198867D01*
X21030448Y5154552D01*
X20986133Y5088231D01*
X20983712Y5076062D01*
X20983712Y5076061D01*
X20979604Y5055406D01*
X20974500Y5029748D01*
X20974500Y3990252D01*
X20986133Y3931769D01*
X21030448Y3865448D01*
X21096769Y3821133D01*
X21108938Y3818712D01*
X21108939Y3818712D01*
X21149184Y3810707D01*
X21155252Y3809500D01*
X21923500Y3809500D01*
X21991621Y3789498D01*
X22038114Y3735842D01*
X22049500Y3683500D01*
X22049500Y2796500D01*
X22029498Y2728379D01*
X21975842Y2681886D01*
X21923500Y2670500D01*
X21155252Y2670500D01*
X21149184Y2669293D01*
X21108939Y2661288D01*
X21108938Y2661288D01*
X21096769Y2658867D01*
X21030448Y2614552D01*
X20986133Y2548231D01*
X20983712Y2536062D01*
X20983712Y2536061D01*
X20978971Y2512227D01*
X20974500Y2489748D01*
X20974500Y1450252D01*
X20975707Y1444184D01*
X20982794Y1408557D01*
X20986133Y1391769D01*
X21030448Y1325448D01*
X21096769Y1281133D01*
X21108938Y1278712D01*
X21108939Y1278712D01*
X21149184Y1270707D01*
X21155252Y1269500D01*
X24344748Y1269500D01*
X24350816Y1270707D01*
X24391061Y1278712D01*
X24391062Y1278712D01*
X24403231Y1281133D01*
X24469552Y1325448D01*
X24513867Y1391769D01*
X24517207Y1408557D01*
X24524293Y1444184D01*
X24525500Y1450252D01*
X24525500Y2489748D01*
X24521029Y2512227D01*
X24516288Y2536061D01*
X24516288Y2536062D01*
X24513867Y2548231D01*
X24469552Y2614552D01*
X24403231Y2658867D01*
X24391062Y2661288D01*
X24391061Y2661288D01*
X24350816Y2669293D01*
X24344748Y2670500D01*
X23576500Y2670500D01*
X23508379Y2690502D01*
X23461886Y2744158D01*
X23450500Y2796500D01*
X23450500Y3683500D01*
X23470502Y3751621D01*
X23524158Y3798114D01*
X23576500Y3809500D01*
X24344748Y3809500D01*
X24350816Y3810707D01*
X24391061Y3818712D01*
X24391062Y3818712D01*
X24403231Y3821133D01*
X24469552Y3865448D01*
X24513867Y3931769D01*
X24525500Y3990252D01*
X24525500Y5029748D01*
X24520396Y5055406D01*
X24516288Y5076061D01*
X24516288Y5076062D01*
X24513867Y5088231D01*
X24469552Y5154552D01*
X24403231Y5198867D01*
X24391062Y5201288D01*
X24391061Y5201288D01*
X24350816Y5209293D01*
X24344748Y5210500D01*
X23576500Y5210500D01*
X23508379Y5230502D01*
X23461886Y5284158D01*
X23450500Y5336500D01*
X23450500Y6223500D01*
X23470502Y6291621D01*
X23524158Y6338114D01*
X23576500Y6349500D01*
X24344748Y6349500D01*
X24350816Y6350707D01*
X24391061Y6358712D01*
X24391062Y6358712D01*
X24403231Y6361133D01*
X24469552Y6405448D01*
X24513867Y6471769D01*
X24516465Y6484827D01*
X24524293Y6524184D01*
X24525500Y6530252D01*
X24525500Y7569748D01*
X24521406Y7590330D01*
X24516288Y7616061D01*
X24516288Y7616062D01*
X24513867Y7628231D01*
X24492148Y7660736D01*
X24476443Y7684239D01*
X24469552Y7694552D01*
X24403231Y7738867D01*
X24391062Y7741288D01*
X24391061Y7741288D01*
X24350816Y7749293D01*
X24344748Y7750500D01*
X23576500Y7750500D01*
X23508379Y7770502D01*
X23461886Y7824158D01*
X23450500Y7876500D01*
X23450500Y8763500D01*
X23470502Y8831621D01*
X23524158Y8878114D01*
X23576500Y8889500D01*
X24344748Y8889500D01*
X24354531Y8891446D01*
X24391061Y8898712D01*
X24391062Y8898712D01*
X24403231Y8901133D01*
X24469552Y8945448D01*
X24513867Y9011769D01*
X24517207Y9028557D01*
X24524293Y9064184D01*
X24525500Y9070252D01*
X24525500Y10109748D01*
X24513867Y10168231D01*
X24469552Y10234552D01*
X24403231Y10278867D01*
X24391062Y10281288D01*
X24391061Y10281288D01*
X24350816Y10289293D01*
X24344748Y10290500D01*
X23576500Y10290500D01*
X23508379Y10310502D01*
X23461886Y10364158D01*
X23450500Y10416500D01*
X23450500Y11303500D01*
X23470502Y11371621D01*
X23524158Y11418114D01*
X23576500Y11429500D01*
X24344748Y11429500D01*
X24356120Y11431762D01*
X24391061Y11438712D01*
X24391062Y11438712D01*
X24403231Y11441133D01*
X24469552Y11485448D01*
X24513867Y11551769D01*
X24517207Y11568557D01*
X24524293Y11604184D01*
X24525500Y11610252D01*
X24525500Y11911247D01*
X27394514Y11911247D01*
X27395201Y11904240D01*
X27395201Y11904237D01*
X27399844Y11856884D01*
X27412039Y11732514D01*
X27414262Y11725832D01*
X27414262Y11725831D01*
X27417461Y11716215D01*
X27468726Y11562104D01*
X27478343Y11546223D01*
X27495348Y11490949D01*
X27495322Y11490570D01*
X27496629Y11483082D01*
X27506178Y11428368D01*
X27507141Y11421842D01*
X27514724Y11359180D01*
X27517409Y11352073D01*
X27518218Y11348780D01*
X27522177Y11334309D01*
X27523166Y11331033D01*
X27524473Y11323546D01*
X27527528Y11316587D01*
X27527528Y11316586D01*
X27549847Y11265740D01*
X27552339Y11259634D01*
X27566487Y11222194D01*
X27574655Y11200577D01*
X27578954Y11194322D01*
X27580535Y11191297D01*
X27587825Y11178201D01*
X27589566Y11175257D01*
X27592621Y11168298D01*
X27597246Y11162270D01*
X27597247Y11162269D01*
X27631042Y11118227D01*
X27634919Y11112891D01*
X27666381Y11067114D01*
X27666386Y11067108D01*
X27670688Y11060849D01*
X27707240Y11028282D01*
X27716657Y11019892D01*
X27721933Y11014911D01*
X28172595Y10564249D01*
X28206621Y10501937D01*
X28209500Y10475154D01*
X28209501Y8776168D01*
X28209780Y8773219D01*
X28209780Y8773213D01*
X28210698Y8763500D01*
X28212481Y8744632D01*
X28215024Y8737391D01*
X28215024Y8737390D01*
X28252738Y8629997D01*
X28257366Y8616817D01*
X28337850Y8507850D01*
X28446817Y8427366D01*
X28455704Y8424245D01*
X28455706Y8424244D01*
X28554000Y8389726D01*
X28574632Y8382481D01*
X28582278Y8381758D01*
X28582279Y8381758D01*
X28588249Y8381194D01*
X28606167Y8379500D01*
X29233500Y8379500D01*
X29301621Y8359498D01*
X29348114Y8305842D01*
X29359500Y8253500D01*
X29359500Y7548641D01*
X29359208Y7540071D01*
X29356707Y7503380D01*
X29355322Y7483070D01*
X29356627Y7475594D01*
X29356627Y7475591D01*
X29366178Y7420868D01*
X29367141Y7414342D01*
X29370618Y7385609D01*
X29374724Y7351680D01*
X29377409Y7344573D01*
X29378218Y7341280D01*
X29382177Y7326809D01*
X29383166Y7323533D01*
X29384473Y7316046D01*
X29387528Y7309087D01*
X29387528Y7309086D01*
X29409847Y7258240D01*
X29412339Y7252134D01*
X29416695Y7240608D01*
X29434655Y7193077D01*
X29438954Y7186822D01*
X29440535Y7183797D01*
X29447825Y7170701D01*
X29449566Y7167757D01*
X29452621Y7160798D01*
X29457246Y7154770D01*
X29457247Y7154769D01*
X29491042Y7110727D01*
X29494919Y7105391D01*
X29526381Y7059614D01*
X29526386Y7059608D01*
X29530688Y7053349D01*
X29565532Y7022304D01*
X29576648Y7012400D01*
X29581925Y7007419D01*
X30164425Y6424918D01*
X30170278Y6418652D01*
X30207832Y6375603D01*
X30259474Y6339309D01*
X30264759Y6335383D01*
X30308477Y6301104D01*
X30308481Y6301102D01*
X30314458Y6296415D01*
X30321381Y6293289D01*
X30324329Y6291504D01*
X30337289Y6284112D01*
X30340335Y6282479D01*
X30346548Y6278112D01*
X30405367Y6255179D01*
X30411446Y6252624D01*
X30468985Y6226644D01*
X30476456Y6225259D01*
X30479724Y6224235D01*
X30494165Y6220122D01*
X30497438Y6219282D01*
X30504514Y6216523D01*
X30549184Y6210643D01*
X30567107Y6208283D01*
X30573624Y6207251D01*
X30615036Y6199576D01*
X30635693Y6195747D01*
X30643273Y6196184D01*
X30643274Y6196184D01*
X30697145Y6199290D01*
X30704397Y6199499D01*
X33723500Y6199499D01*
X33791621Y6179497D01*
X33838114Y6125841D01*
X33849500Y6073499D01*
X33849500Y5580252D01*
X33850707Y5574184D01*
X33857796Y5538547D01*
X33861133Y5521769D01*
X33868027Y5511452D01*
X33868028Y5511449D01*
X33895722Y5470003D01*
X33916938Y5402251D01*
X33895722Y5329997D01*
X33868028Y5288551D01*
X33868027Y5288548D01*
X33861133Y5278231D01*
X33858712Y5266062D01*
X33858712Y5266061D01*
X33855350Y5249158D01*
X33849500Y5219748D01*
X33849500Y4480252D01*
X33850707Y4474184D01*
X33856432Y4445405D01*
X33861133Y4421769D01*
X33905448Y4355448D01*
X33971769Y4311133D01*
X33983938Y4308712D01*
X33983939Y4308712D01*
X34024184Y4300707D01*
X34030252Y4299500D01*
X35169748Y4299500D01*
X35175816Y4300707D01*
X35216061Y4308712D01*
X35216062Y4308712D01*
X35228231Y4311133D01*
X35294552Y4355448D01*
X35338867Y4421769D01*
X35343569Y4445405D01*
X35349293Y4474184D01*
X35350500Y4480252D01*
X35350500Y5219748D01*
X35344650Y5249158D01*
X35341288Y5266061D01*
X35341288Y5266062D01*
X35338867Y5278231D01*
X35331973Y5288548D01*
X35331972Y5288551D01*
X35304278Y5329997D01*
X35283062Y5397749D01*
X35304278Y5470003D01*
X35331972Y5511449D01*
X35331973Y5511452D01*
X35338867Y5521769D01*
X35342205Y5538547D01*
X35349293Y5574184D01*
X35350500Y5580252D01*
X35350500Y5916241D01*
X35359107Y5962011D01*
X35362360Y5970353D01*
X35383476Y6024513D01*
X35388465Y6062405D01*
X35399962Y6149739D01*
X35399962Y6149740D01*
X35400500Y6153826D01*
X35400500Y6891280D01*
X35400502Y6891940D01*
X35400606Y6911859D01*
X35400969Y6981104D01*
X35393039Y7014134D01*
X35392303Y7017202D01*
X35389735Y7031476D01*
X35386189Y7060777D01*
X35386189Y7060779D01*
X35385276Y7068319D01*
X35382590Y7075428D01*
X35373692Y7098977D01*
X35369040Y7114098D01*
X35363163Y7138576D01*
X35363161Y7138580D01*
X35361388Y7145967D01*
X35358299Y7151952D01*
X35350500Y7195298D01*
X35350500Y7419748D01*
X35338867Y7478231D01*
X35294552Y7544552D01*
X35228231Y7588867D01*
X35216062Y7591288D01*
X35216061Y7591288D01*
X35175816Y7599293D01*
X35169748Y7600500D01*
X34708528Y7600500D01*
X34707868Y7600502D01*
X34618895Y7600968D01*
X34617394Y7600608D01*
X34615528Y7600500D01*
X34030252Y7600500D01*
X34030249Y7600499D01*
X31022348Y7600499D01*
X30954227Y7620501D01*
X30933252Y7637404D01*
X30797404Y7773253D01*
X30763379Y7835565D01*
X30760500Y7862348D01*
X30760500Y8253501D01*
X30780502Y8321622D01*
X30834158Y8368115D01*
X30886500Y8379501D01*
X31513832Y8379501D01*
X31516782Y8379780D01*
X31516787Y8379780D01*
X31527406Y8380784D01*
X31545368Y8382481D01*
X31552609Y8385024D01*
X31552610Y8385024D01*
X31664294Y8424244D01*
X31664296Y8424245D01*
X31673183Y8427366D01*
X31782150Y8507850D01*
X31862634Y8616817D01*
X31867263Y8629997D01*
X31904974Y8737385D01*
X31907519Y8744632D01*
X31910500Y8776167D01*
X31910500Y9414895D01*
X31930502Y9483016D01*
X31984158Y9529509D01*
X32054432Y9539613D01*
X32119012Y9510119D01*
X32136463Y9491598D01*
X32146692Y9478267D01*
X32146695Y9478264D01*
X32151718Y9471718D01*
X32277159Y9375464D01*
X32423238Y9314956D01*
X32580000Y9294318D01*
X32588188Y9295396D01*
X32728574Y9313878D01*
X32736762Y9314956D01*
X32882841Y9375464D01*
X33008282Y9471718D01*
X33104536Y9597159D01*
X33165044Y9743238D01*
X33173983Y9811133D01*
X33184604Y9891812D01*
X33185682Y9900000D01*
X33175117Y9980252D01*
X33849500Y9980252D01*
X33861133Y9921769D01*
X33905448Y9855448D01*
X33971769Y9811133D01*
X33983938Y9808712D01*
X33983939Y9808712D01*
X34016422Y9802251D01*
X34030252Y9799500D01*
X35169748Y9799500D01*
X35183578Y9802251D01*
X35216061Y9808712D01*
X35216062Y9808712D01*
X35228231Y9811133D01*
X35294552Y9855448D01*
X35338867Y9921769D01*
X35350500Y9980252D01*
X35350500Y10719748D01*
X35343390Y10755494D01*
X35341288Y10766061D01*
X35341288Y10766062D01*
X35338867Y10778231D01*
X35294552Y10844552D01*
X35228231Y10888867D01*
X35216062Y10891288D01*
X35216061Y10891288D01*
X35175816Y10899293D01*
X35169748Y10900500D01*
X34030252Y10900500D01*
X34024184Y10899293D01*
X33983939Y10891288D01*
X33983938Y10891288D01*
X33971769Y10888867D01*
X33905448Y10844552D01*
X33861133Y10778231D01*
X33858712Y10766062D01*
X33858712Y10766061D01*
X33856610Y10755494D01*
X33849500Y10719748D01*
X33849500Y9980252D01*
X33175117Y9980252D01*
X33165044Y10056762D01*
X33104536Y10202841D01*
X33008282Y10328282D01*
X32954796Y10369323D01*
X32912929Y10426661D01*
X32905500Y10469286D01*
X32905500Y10752984D01*
X32925502Y10821105D01*
X32942405Y10842079D01*
X33237921Y11137595D01*
X33300233Y11171621D01*
X33327016Y11174500D01*
X36342983Y11174500D01*
X36411104Y11154498D01*
X36432079Y11137595D01*
X36547596Y11022077D01*
X36581621Y10959765D01*
X36584500Y10932982D01*
X36584500Y7159710D01*
X36584020Y7148728D01*
X36582181Y7127705D01*
X36580736Y7111193D01*
X36586301Y7090426D01*
X36590491Y7074790D01*
X36592870Y7064058D01*
X36599412Y7026955D01*
X36604923Y7017410D01*
X36606115Y7014134D01*
X36607592Y7010966D01*
X36610446Y7000316D01*
X36623899Y6981104D01*
X36632055Y6969456D01*
X36637961Y6960185D01*
X36641214Y6954551D01*
X36656806Y6927545D01*
X36665251Y6920459D01*
X36685682Y6903315D01*
X36693785Y6895889D01*
X38105889Y5483785D01*
X38113316Y5475681D01*
X38137545Y5446806D01*
X38147094Y5441293D01*
X38170185Y5427961D01*
X38179456Y5422055D01*
X38210316Y5400446D01*
X38220969Y5397591D01*
X38224131Y5396117D01*
X38227407Y5394925D01*
X38236955Y5389412D01*
X38247810Y5387498D01*
X38247815Y5387496D01*
X38274065Y5382867D01*
X38284792Y5380489D01*
X38310548Y5373588D01*
X38310551Y5373588D01*
X38321194Y5370736D01*
X38332169Y5371696D01*
X38332171Y5371696D01*
X38358744Y5374021D01*
X38369725Y5374500D01*
X38630714Y5374500D01*
X38698835Y5354498D01*
X38730677Y5325204D01*
X38762173Y5284158D01*
X38771718Y5271718D01*
X38778264Y5266695D01*
X38825204Y5230677D01*
X38867071Y5173339D01*
X38874500Y5130714D01*
X38874500Y2612707D01*
X38854498Y2544586D01*
X38800842Y2498093D01*
X38795295Y2496302D01*
X38795405Y2496037D01*
X38783940Y2491288D01*
X38771769Y2488867D01*
X38761452Y2481973D01*
X38761449Y2481972D01*
X38720003Y2454278D01*
X38652251Y2433062D01*
X38579997Y2454278D01*
X38538551Y2481972D01*
X38538548Y2481973D01*
X38528231Y2488867D01*
X38516062Y2491288D01*
X38516061Y2491288D01*
X38475816Y2499293D01*
X38469748Y2500500D01*
X38461436Y2500500D01*
X38460363Y2500815D01*
X38457398Y2501107D01*
X38457453Y2501669D01*
X38393315Y2520502D01*
X38364914Y2545510D01*
X38358704Y2552911D01*
X38353194Y2562455D01*
X38339959Y2573561D01*
X38324318Y2586685D01*
X38316215Y2594111D01*
X37934111Y2976215D01*
X37926684Y2984319D01*
X37920506Y2991682D01*
X37902455Y3013194D01*
X37892906Y3018707D01*
X37869815Y3032039D01*
X37860544Y3037945D01*
X37838715Y3053230D01*
X37829684Y3059554D01*
X37819034Y3062408D01*
X37815866Y3063885D01*
X37812590Y3065077D01*
X37803045Y3070588D01*
X37769301Y3076538D01*
X37765942Y3077130D01*
X37755215Y3079508D01*
X37718807Y3089264D01*
X37707822Y3088303D01*
X37707820Y3088303D01*
X37681272Y3085980D01*
X37670290Y3085500D01*
X35329710Y3085500D01*
X35318728Y3085980D01*
X35292180Y3088303D01*
X35292178Y3088303D01*
X35281193Y3089264D01*
X35244785Y3079508D01*
X35234058Y3077130D01*
X35230699Y3076538D01*
X35196955Y3070588D01*
X35187410Y3065077D01*
X35184134Y3063885D01*
X35180966Y3062408D01*
X35170316Y3059554D01*
X35161285Y3053230D01*
X35139456Y3037945D01*
X35130185Y3032039D01*
X35107094Y3018707D01*
X35097545Y3013194D01*
X35073316Y2984319D01*
X35073315Y2984318D01*
X35065889Y2976215D01*
X34682383Y2592709D01*
X34620071Y2558683D01*
X34576843Y2556882D01*
X34510000Y2565682D01*
X34353238Y2545044D01*
X34207159Y2484536D01*
X34140616Y2433476D01*
X34102952Y2404575D01*
X34081718Y2388282D01*
X33985464Y2262841D01*
X33924956Y2116762D01*
X33904318Y1960000D01*
X33924956Y1803238D01*
X33985464Y1657159D01*
X34081718Y1531718D01*
X34207159Y1435464D01*
X34353238Y1374956D01*
X34510000Y1354318D01*
X34518188Y1355396D01*
X34558530Y1360707D01*
X34666762Y1374956D01*
X34812841Y1435464D01*
X34938282Y1531718D01*
X35034536Y1657159D01*
X35095044Y1803238D01*
X35098578Y1830082D01*
X35127300Y1895009D01*
X35186565Y1934101D01*
X35257557Y1934946D01*
X35317736Y1897276D01*
X35347995Y1833051D01*
X35349500Y1813636D01*
X35349500Y1180252D01*
X35350707Y1174184D01*
X35358663Y1134189D01*
X35361133Y1121769D01*
X35405448Y1055448D01*
X35471769Y1011133D01*
X35483938Y1008712D01*
X35483939Y1008712D01*
X35524184Y1000707D01*
X35530252Y999500D01*
X36269748Y999500D01*
X36275816Y1000707D01*
X36316061Y1008712D01*
X36316062Y1008712D01*
X36328231Y1011133D01*
X36394552Y1055448D01*
X36438867Y1121769D01*
X36441338Y1134189D01*
X36449293Y1174184D01*
X36450500Y1180252D01*
X36450500Y2308500D01*
X36470502Y2376621D01*
X36524158Y2423114D01*
X36576500Y2434500D01*
X37423500Y2434500D01*
X37491621Y2414498D01*
X37538114Y2360842D01*
X37549500Y2308500D01*
X37549500Y1180252D01*
X37550707Y1174184D01*
X37558663Y1134189D01*
X37561133Y1121769D01*
X37605448Y1055448D01*
X37671769Y1011133D01*
X37683938Y1008712D01*
X37683939Y1008712D01*
X37724184Y1000707D01*
X37730252Y999500D01*
X38469748Y999500D01*
X38475816Y1000707D01*
X38516061Y1008712D01*
X38516062Y1008712D01*
X38528231Y1011133D01*
X38538548Y1018027D01*
X38538551Y1018028D01*
X38579997Y1045722D01*
X38647749Y1066938D01*
X38720003Y1045722D01*
X38761449Y1018028D01*
X38761452Y1018027D01*
X38771769Y1011133D01*
X38783938Y1008712D01*
X38783939Y1008712D01*
X38824184Y1000707D01*
X38830252Y999500D01*
X39417439Y999500D01*
X39485560Y979498D01*
X39532053Y925842D01*
X39542361Y857054D01*
X39528522Y751936D01*
X39524318Y720000D01*
X39544956Y563238D01*
X39605464Y417159D01*
X39632883Y381426D01*
X39673721Y328204D01*
X39699321Y261983D01*
X39685056Y192434D01*
X39635455Y141639D01*
X39573758Y125500D01*
X31685008Y125500D01*
X31616887Y145502D01*
X31570394Y199158D01*
X31560086Y267947D01*
X31561081Y275500D01*
X31568282Y330200D01*
X31547644Y486962D01*
X31487136Y633041D01*
X31390882Y758482D01*
X31375597Y770211D01*
X31319021Y813623D01*
X31265441Y854736D01*
X31119362Y915244D01*
X30962600Y935882D01*
X30805838Y915244D01*
X30659759Y854736D01*
X30606179Y813623D01*
X30549604Y770211D01*
X30534318Y758482D01*
X30438064Y633041D01*
X30377556Y486962D01*
X30356918Y330200D01*
X30377556Y173438D01*
X30438064Y27359D01*
X30534318Y-98082D01*
X30659759Y-194336D01*
X30805838Y-254844D01*
X30962600Y-275482D01*
X31029443Y-266682D01*
X31099590Y-277621D01*
X31134983Y-302509D01*
X31248689Y-416215D01*
X31256115Y-424318D01*
X31280345Y-453194D01*
X31289894Y-458707D01*
X31312985Y-472039D01*
X31322256Y-477945D01*
X31353116Y-499554D01*
X31363766Y-502408D01*
X31366934Y-503885D01*
X31370210Y-505077D01*
X31379755Y-510588D01*
X31413499Y-516538D01*
X31416858Y-517130D01*
X31427585Y-519508D01*
X31463993Y-529264D01*
X31474978Y-528303D01*
X31474980Y-528303D01*
X31501528Y-525980D01*
X31512510Y-525500D01*
X43355290Y-525500D01*
X43366272Y-525980D01*
X43392820Y-528303D01*
X43392822Y-528303D01*
X43403807Y-529264D01*
X43440215Y-519508D01*
X43450942Y-517130D01*
X43454301Y-516538D01*
X43488045Y-510588D01*
X43497590Y-505077D01*
X43500866Y-503885D01*
X43504034Y-502408D01*
X43514684Y-499554D01*
X43545544Y-477945D01*
X43554815Y-472039D01*
X43577906Y-458707D01*
X43587455Y-453194D01*
X43611685Y-424317D01*
X43619111Y-416215D01*
X43622921Y-412405D01*
X43685233Y-378379D01*
X43712016Y-375500D01*
X63105290Y-375500D01*
X63116272Y-375980D01*
X63142820Y-378303D01*
X63142822Y-378303D01*
X63153807Y-379264D01*
X63190215Y-369508D01*
X63200942Y-367130D01*
X63204301Y-366538D01*
X63238045Y-360588D01*
X63247590Y-355077D01*
X63250866Y-353885D01*
X63254034Y-352408D01*
X63264684Y-349554D01*
X63295544Y-327945D01*
X63304815Y-322039D01*
X63327906Y-308707D01*
X63337455Y-303194D01*
X63361685Y-274317D01*
X63369111Y-266215D01*
X64116215Y480889D01*
X64124319Y488316D01*
X64140847Y502185D01*
X64153194Y512545D01*
X64158707Y522094D01*
X64172039Y545185D01*
X64177945Y554456D01*
X64184346Y563598D01*
X64199554Y585316D01*
X64202409Y595969D01*
X64203883Y599131D01*
X64205075Y602407D01*
X64210588Y611955D01*
X64212502Y622810D01*
X64212504Y622815D01*
X64217133Y649065D01*
X64219511Y659792D01*
X64226412Y685548D01*
X64226412Y685551D01*
X64229264Y696194D01*
X64228162Y708799D01*
X64225979Y733744D01*
X64225500Y744725D01*
X64225500Y3262984D01*
X64245502Y3331105D01*
X64262405Y3352079D01*
X64772921Y3862595D01*
X64835233Y3896621D01*
X64862016Y3899500D01*
X67944748Y3899500D01*
X67950814Y3900707D01*
X67956230Y3901240D01*
X68025983Y3888011D01*
X68077511Y3839171D01*
X68094454Y3770225D01*
X68068542Y3699143D01*
X67975464Y3577841D01*
X67914956Y3431762D01*
X67894318Y3275000D01*
X67914956Y3118238D01*
X67918116Y3110609D01*
X67920727Y3104306D01*
X67975464Y2972159D01*
X67980491Y2965608D01*
X67980493Y2965605D01*
X67982337Y2963201D01*
X67983262Y2960808D01*
X67984621Y2958454D01*
X67984254Y2958242D01*
X68007935Y2896980D01*
X67993669Y2827432D01*
X67944066Y2776637D01*
X67882372Y2760500D01*
X64755252Y2760500D01*
X64749184Y2759293D01*
X64708939Y2751288D01*
X64708938Y2751288D01*
X64696769Y2748867D01*
X64630448Y2704552D01*
X64586133Y2638231D01*
X64583712Y2626062D01*
X64583712Y2626061D01*
X64579350Y2604129D01*
X64574500Y2579748D01*
X64574500Y1540252D01*
X64586133Y1481769D01*
X64593026Y1471453D01*
X64603058Y1456439D01*
X64630448Y1415448D01*
X64696769Y1371133D01*
X64708938Y1368712D01*
X64708939Y1368712D01*
X64749184Y1360707D01*
X64755252Y1359500D01*
X67944748Y1359500D01*
X67950816Y1360707D01*
X67991061Y1368712D01*
X67991062Y1368712D01*
X68003231Y1371133D01*
X68069552Y1415448D01*
X68096942Y1456439D01*
X68106974Y1471453D01*
X68113867Y1481769D01*
X68125500Y1540252D01*
X68125500Y1798339D01*
X68145502Y1866460D01*
X68162405Y1887434D01*
X68675452Y2400481D01*
X68677486Y2402237D01*
X68682269Y2404575D01*
X68699467Y2423114D01*
X68715573Y2440477D01*
X68718853Y2443882D01*
X68732248Y2457277D01*
X68734972Y2461247D01*
X68737297Y2463895D01*
X68750492Y2478119D01*
X68750494Y2478122D01*
X68758401Y2486646D01*
X68762711Y2497450D01*
X68765233Y2501439D01*
X68770994Y2512227D01*
X68772911Y2516552D01*
X68779492Y2526146D01*
X68784233Y2546122D01*
X68785183Y2550127D01*
X68790748Y2567724D01*
X68796588Y2582362D01*
X68796589Y2582365D01*
X68799883Y2590622D01*
X68800500Y2596915D01*
X68800500Y2599994D01*
X68800650Y2603067D01*
X68800866Y2603056D01*
X68802198Y2614431D01*
X68802654Y2623746D01*
X68805340Y2635066D01*
X68801651Y2662173D01*
X68800500Y2679164D01*
X68800500Y2686531D01*
X68820502Y2754652D01*
X68849796Y2786494D01*
X68854061Y2789766D01*
X68928282Y2846718D01*
X69024536Y2972159D01*
X69079273Y3104306D01*
X69081884Y3110609D01*
X69085044Y3118238D01*
X69105682Y3275000D01*
X69085044Y3431762D01*
X69024536Y3577841D01*
X68928282Y3703282D01*
X68802841Y3799536D01*
X68656762Y3860044D01*
X68500000Y3880682D01*
X68343238Y3860044D01*
X68335611Y3856885D01*
X68335608Y3856884D01*
X68260425Y3825742D01*
X68189835Y3818153D01*
X68126348Y3849933D01*
X68090121Y3910991D01*
X68092655Y3981942D01*
X68106281Y4009779D01*
X68106975Y4011455D01*
X68113867Y4021769D01*
X68122708Y4066213D01*
X68124293Y4074184D01*
X68125500Y4080252D01*
X68125500Y5119748D01*
X68123319Y5130714D01*
X68116288Y5166061D01*
X68116288Y5166062D01*
X68113867Y5178231D01*
X68069552Y5244552D01*
X68003231Y5288867D01*
X67991062Y5291288D01*
X67991061Y5291288D01*
X67950816Y5299293D01*
X67944748Y5300500D01*
X64755252Y5300500D01*
X64749184Y5299293D01*
X64708939Y5291288D01*
X64708938Y5291288D01*
X64696769Y5288867D01*
X64630448Y5244552D01*
X64586133Y5178231D01*
X64583712Y5166062D01*
X64583712Y5166061D01*
X64576681Y5130714D01*
X64574500Y5119748D01*
X64574500Y4637016D01*
X64554498Y4568895D01*
X64537595Y4547921D01*
X63683785Y3694111D01*
X63675681Y3686684D01*
X63669195Y3681241D01*
X63646806Y3662455D01*
X63641293Y3652906D01*
X63627961Y3629815D01*
X63622055Y3620544D01*
X63600446Y3589684D01*
X63597592Y3579034D01*
X63596115Y3575866D01*
X63594923Y3572590D01*
X63589412Y3563045D01*
X63585456Y3540608D01*
X63582870Y3525942D01*
X63580492Y3515215D01*
X63570736Y3478807D01*
X63571697Y3467822D01*
X63571697Y3467820D01*
X63574020Y3441272D01*
X63574500Y3430290D01*
X63574500Y912016D01*
X63554498Y843895D01*
X63537595Y822921D01*
X63027079Y312405D01*
X62964767Y278379D01*
X62937984Y275500D01*
X58695841Y275500D01*
X58627720Y295502D01*
X58581227Y349158D01*
X58571123Y419432D01*
X58592754Y473950D01*
X58610705Y499492D01*
X58614638Y504788D01*
X58639482Y536473D01*
X58653583Y554457D01*
X58656711Y561384D01*
X58658486Y564315D01*
X58665903Y577318D01*
X58667519Y580332D01*
X58671887Y586547D01*
X58674646Y593623D01*
X58674648Y593627D01*
X58694819Y645364D01*
X58697375Y651445D01*
X58720231Y702065D01*
X58720231Y702066D01*
X58723355Y708984D01*
X58724739Y716450D01*
X58725757Y719699D01*
X58729877Y734164D01*
X58730717Y737437D01*
X58733476Y744513D01*
X58741716Y807106D01*
X58742748Y813623D01*
X58752868Y868225D01*
X58754252Y875692D01*
X58751910Y916322D01*
X58750709Y937144D01*
X58750500Y944396D01*
X58750500Y1741281D01*
X58750502Y1741941D01*
X58750866Y1811426D01*
X58750969Y1831105D01*
X58742303Y1867203D01*
X58739735Y1881477D01*
X58736189Y1910778D01*
X58736189Y1910780D01*
X58735276Y1918320D01*
X58728994Y1934946D01*
X58723692Y1948978D01*
X58719040Y1964099D01*
X58713161Y1988584D01*
X58713160Y1988586D01*
X58711388Y1995968D01*
X58707908Y2002710D01*
X58707906Y2002716D01*
X58694366Y2028949D01*
X58688466Y2042199D01*
X58685349Y2050449D01*
X58675345Y2076923D01*
X58656781Y2103933D01*
X58648654Y2117513D01*
X58637111Y2139877D01*
X58637111Y2139878D01*
X58633625Y2146631D01*
X58609227Y2174599D01*
X58600336Y2186061D01*
X58583614Y2210392D01*
X58583613Y2210394D01*
X58579312Y2216651D01*
X58554841Y2238454D01*
X58543716Y2249696D01*
X58538905Y2255211D01*
X58522169Y2274396D01*
X58491795Y2295743D01*
X58480433Y2304749D01*
X58458394Y2324386D01*
X58458392Y2324388D01*
X58452721Y2329440D01*
X58423759Y2344775D01*
X58410270Y2353041D01*
X58389666Y2367521D01*
X58389663Y2367523D01*
X58383453Y2371887D01*
X58348875Y2385369D01*
X58335687Y2391407D01*
X58309596Y2405222D01*
X58309586Y2405226D01*
X58302881Y2408776D01*
X58295519Y2410625D01*
X58295517Y2410626D01*
X58271096Y2416760D01*
X58256027Y2421569D01*
X58225487Y2433476D01*
X58217709Y2434500D01*
X58188688Y2438321D01*
X58174441Y2441039D01*
X58145814Y2448229D01*
X58138441Y2450081D01*
X58130842Y2450121D01*
X58130840Y2450121D01*
X58098766Y2450289D01*
X58097413Y2450337D01*
X58096174Y2450500D01*
X58058719Y2450500D01*
X58058059Y2450502D01*
X57968895Y2450969D01*
X57967391Y2450608D01*
X57965519Y2450500D01*
X55723872Y2450500D01*
X55653871Y2471734D01*
X55628231Y2488867D01*
X55569748Y2500500D01*
X54830252Y2500500D01*
X54771769Y2488867D01*
X54746129Y2471734D01*
X54676128Y2450500D01*
X54623872Y2450500D01*
X54553871Y2471734D01*
X54528231Y2488867D01*
X54469748Y2500500D01*
X53730252Y2500500D01*
X53724184Y2499293D01*
X53683939Y2491288D01*
X53683938Y2491288D01*
X53671769Y2488867D01*
X53661452Y2481973D01*
X53661449Y2481972D01*
X53620003Y2454278D01*
X53552251Y2433062D01*
X53479997Y2454278D01*
X53438551Y2481972D01*
X53438548Y2481973D01*
X53428231Y2488867D01*
X53416060Y2491288D01*
X53404595Y2496037D01*
X53406218Y2499956D01*
X53364007Y2522037D01*
X53328877Y2583733D01*
X53325500Y2612707D01*
X53325500Y2930287D01*
X53325979Y2941268D01*
X53328303Y2967830D01*
X53328303Y2967832D01*
X53329263Y2978807D01*
X53319508Y3015217D01*
X53317133Y3025928D01*
X53310588Y3063045D01*
X53305078Y3072589D01*
X53303886Y3075865D01*
X53302407Y3079036D01*
X53299554Y3089684D01*
X53277940Y3120552D01*
X53272036Y3129821D01*
X53258707Y3152908D01*
X53258704Y3152912D01*
X53253194Y3162455D01*
X53224324Y3186680D01*
X53216221Y3194106D01*
X52344114Y4066213D01*
X52336688Y4074316D01*
X52319540Y4094751D01*
X52319539Y4094752D01*
X52312455Y4103194D01*
X52302911Y4108704D01*
X52302910Y4108705D01*
X52279815Y4122039D01*
X52270544Y4127945D01*
X52248715Y4143230D01*
X52239684Y4149554D01*
X52229034Y4152408D01*
X52225866Y4153885D01*
X52222590Y4155077D01*
X52213045Y4160588D01*
X52179301Y4166538D01*
X52175942Y4167130D01*
X52165215Y4169508D01*
X52128807Y4179264D01*
X52117822Y4178303D01*
X52117820Y4178303D01*
X52091272Y4175980D01*
X52080290Y4175500D01*
X51344286Y4175500D01*
X51276165Y4195502D01*
X51244323Y4224796D01*
X51208305Y4271736D01*
X51203282Y4278282D01*
X51173131Y4301418D01*
X51134948Y4330716D01*
X51077841Y4374536D01*
X50943331Y4430252D01*
X50939391Y4431884D01*
X50931762Y4435044D01*
X50775000Y4455682D01*
X50618238Y4435044D01*
X50610609Y4431884D01*
X50606669Y4430252D01*
X50472159Y4374536D01*
X50415052Y4330716D01*
X50376870Y4301418D01*
X50346718Y4278282D01*
X50250464Y4152841D01*
X50189956Y4006762D01*
X50169318Y3850000D01*
X50189956Y3693238D01*
X50250464Y3547159D01*
X50346718Y3421718D01*
X50353264Y3416695D01*
X50371431Y3402755D01*
X50472159Y3325464D01*
X50618238Y3264956D01*
X50775000Y3244318D01*
X50783188Y3245396D01*
X50923574Y3263878D01*
X50931762Y3264956D01*
X50939389Y3268115D01*
X50939392Y3268116D01*
X51071669Y3322907D01*
X51142259Y3330496D01*
X51205746Y3298717D01*
X51241973Y3237658D01*
X51239439Y3166707D01*
X51236295Y3158279D01*
X51218117Y3114395D01*
X51218116Y3114390D01*
X51214956Y3106762D01*
X51194318Y2950000D01*
X51214956Y2793238D01*
X51264031Y2674762D01*
X51264049Y2674718D01*
X51271638Y2604129D01*
X51239859Y2540642D01*
X51178801Y2504414D01*
X51147640Y2500500D01*
X50430252Y2500500D01*
X50424184Y2499293D01*
X50383939Y2491288D01*
X50383938Y2491288D01*
X50371769Y2488867D01*
X50361452Y2481973D01*
X50361449Y2481972D01*
X50320003Y2454278D01*
X50252251Y2433062D01*
X50179997Y2454278D01*
X50138551Y2481972D01*
X50138548Y2481973D01*
X50128231Y2488867D01*
X50116062Y2491288D01*
X50116061Y2491288D01*
X50075816Y2499293D01*
X50069748Y2500500D01*
X49360306Y2500500D01*
X49292185Y2520502D01*
X49245692Y2574158D01*
X49235588Y2644432D01*
X49260343Y2703204D01*
X49287509Y2738608D01*
X49292536Y2745159D01*
X49353044Y2891238D01*
X49373682Y3048000D01*
X49353044Y3204762D01*
X49292536Y3350841D01*
X49196282Y3476282D01*
X49070841Y3572536D01*
X48943053Y3625468D01*
X48932391Y3629884D01*
X48924762Y3633044D01*
X48768000Y3653682D01*
X48611238Y3633044D01*
X48603609Y3629884D01*
X48592947Y3625468D01*
X48465159Y3572536D01*
X48339718Y3476282D01*
X48243464Y3350841D01*
X48182956Y3204762D01*
X48162318Y3048000D01*
X48182956Y2891238D01*
X48243464Y2745159D01*
X48248491Y2738608D01*
X48252621Y2731454D01*
X48251494Y2730804D01*
X48274063Y2672422D01*
X48274500Y2661940D01*
X48274500Y2612707D01*
X48254498Y2544586D01*
X48200842Y2498093D01*
X48195295Y2496302D01*
X48195405Y2496037D01*
X48183940Y2491288D01*
X48171769Y2488867D01*
X48161452Y2481973D01*
X48161449Y2481972D01*
X48120003Y2454278D01*
X48052251Y2433062D01*
X47979997Y2454278D01*
X47938551Y2481972D01*
X47938548Y2481973D01*
X47928231Y2488867D01*
X47916062Y2491288D01*
X47916061Y2491288D01*
X47875816Y2499293D01*
X47869748Y2500500D01*
X47130252Y2500500D01*
X47124184Y2499293D01*
X47083939Y2491288D01*
X47083938Y2491288D01*
X47071769Y2488867D01*
X47005448Y2444552D01*
X46961133Y2378231D01*
X46949500Y2319748D01*
X46949500Y1180252D01*
X46950707Y1174184D01*
X46958663Y1134189D01*
X46961133Y1121769D01*
X47005448Y1055448D01*
X47071769Y1011133D01*
X47083938Y1008712D01*
X47083939Y1008712D01*
X47124184Y1000707D01*
X47130252Y999500D01*
X47869748Y999500D01*
X47875816Y1000707D01*
X47916061Y1008712D01*
X47916062Y1008712D01*
X47928231Y1011133D01*
X47938548Y1018027D01*
X47938551Y1018028D01*
X47979997Y1045722D01*
X48047749Y1066938D01*
X48120003Y1045722D01*
X48161449Y1018028D01*
X48161452Y1018027D01*
X48171769Y1011133D01*
X48183938Y1008712D01*
X48183939Y1008712D01*
X48224184Y1000707D01*
X48230252Y999500D01*
X48969748Y999500D01*
X48975816Y1000707D01*
X49016061Y1008712D01*
X49016062Y1008712D01*
X49028231Y1011133D01*
X49038548Y1018027D01*
X49038551Y1018028D01*
X49079997Y1045722D01*
X49147749Y1066938D01*
X49220003Y1045722D01*
X49261449Y1018028D01*
X49261452Y1018027D01*
X49271769Y1011133D01*
X49283938Y1008712D01*
X49283939Y1008712D01*
X49324184Y1000707D01*
X49330252Y999500D01*
X50069748Y999500D01*
X50075816Y1000707D01*
X50116061Y1008712D01*
X50116062Y1008712D01*
X50128231Y1011133D01*
X50138548Y1018027D01*
X50138551Y1018028D01*
X50179997Y1045722D01*
X50247749Y1066938D01*
X50320003Y1045722D01*
X50361449Y1018028D01*
X50361452Y1018027D01*
X50371769Y1011133D01*
X50383938Y1008712D01*
X50383939Y1008712D01*
X50424184Y1000707D01*
X50430252Y999500D01*
X51169748Y999500D01*
X51175816Y1000707D01*
X51216061Y1008712D01*
X51216062Y1008712D01*
X51228231Y1011133D01*
X51238548Y1018027D01*
X51238551Y1018028D01*
X51279997Y1045722D01*
X51347749Y1066938D01*
X51420003Y1045722D01*
X51461449Y1018028D01*
X51461452Y1018027D01*
X51471769Y1011133D01*
X51483938Y1008712D01*
X51483939Y1008712D01*
X51524184Y1000707D01*
X51530252Y999500D01*
X52269748Y999500D01*
X52275816Y1000707D01*
X52316061Y1008712D01*
X52316062Y1008712D01*
X52328231Y1011133D01*
X52338548Y1018027D01*
X52338551Y1018028D01*
X52379997Y1045722D01*
X52447749Y1066938D01*
X52520003Y1045722D01*
X52561449Y1018028D01*
X52561452Y1018027D01*
X52571769Y1011133D01*
X52583938Y1008712D01*
X52583939Y1008712D01*
X52624184Y1000707D01*
X52630252Y999500D01*
X53369748Y999500D01*
X53375816Y1000707D01*
X53416061Y1008712D01*
X53416062Y1008712D01*
X53428231Y1011133D01*
X53438548Y1018027D01*
X53438551Y1018028D01*
X53479997Y1045722D01*
X53547749Y1066938D01*
X53620003Y1045722D01*
X53661449Y1018028D01*
X53661452Y1018027D01*
X53671769Y1011133D01*
X53683938Y1008712D01*
X53683939Y1008712D01*
X53724184Y1000707D01*
X53730252Y999500D01*
X54271359Y999500D01*
X54279929Y999208D01*
X54329354Y995838D01*
X54329358Y995838D01*
X54336930Y995322D01*
X54350120Y997624D01*
X54371783Y999500D01*
X54469748Y999500D01*
X54528231Y1011133D01*
X54553871Y1028266D01*
X54623872Y1049500D01*
X54676128Y1049500D01*
X54746129Y1028266D01*
X54771769Y1011133D01*
X54830252Y999500D01*
X55569748Y999500D01*
X55628231Y1011133D01*
X55653871Y1028266D01*
X55723872Y1049500D01*
X57136720Y1049500D01*
X57204841Y1029498D01*
X57251334Y975842D01*
X57260610Y900540D01*
X57255748Y874308D01*
X57265507Y705041D01*
X57315361Y542989D01*
X57346423Y491088D01*
X57361315Y466205D01*
X57379134Y397481D01*
X57356969Y330033D01*
X57301858Y285275D01*
X57253198Y275500D01*
X43785852Y275500D01*
X43717731Y295502D01*
X43671238Y349158D01*
X43660930Y417946D01*
X43674604Y521812D01*
X43675682Y530000D01*
X43655044Y686762D01*
X43597667Y825282D01*
X43590078Y895872D01*
X43621857Y959359D01*
X43682915Y995586D01*
X43714076Y999500D01*
X43969748Y999500D01*
X43975816Y1000707D01*
X44016061Y1008712D01*
X44016062Y1008712D01*
X44028231Y1011133D01*
X44038548Y1018027D01*
X44038551Y1018028D01*
X44079997Y1045722D01*
X44147749Y1066938D01*
X44220003Y1045722D01*
X44261449Y1018028D01*
X44261452Y1018027D01*
X44271769Y1011133D01*
X44283938Y1008712D01*
X44283939Y1008712D01*
X44324184Y1000707D01*
X44330252Y999500D01*
X45069748Y999500D01*
X45075816Y1000707D01*
X45116061Y1008712D01*
X45116062Y1008712D01*
X45128231Y1011133D01*
X45138548Y1018027D01*
X45138551Y1018028D01*
X45179997Y1045722D01*
X45247749Y1066938D01*
X45320003Y1045722D01*
X45361449Y1018028D01*
X45361452Y1018027D01*
X45371769Y1011133D01*
X45383938Y1008712D01*
X45383939Y1008712D01*
X45424184Y1000707D01*
X45430252Y999500D01*
X46169748Y999500D01*
X46175816Y1000707D01*
X46216061Y1008712D01*
X46216062Y1008712D01*
X46228231Y1011133D01*
X46294552Y1055448D01*
X46338867Y1121769D01*
X46341338Y1134189D01*
X46349293Y1174184D01*
X46350500Y1180252D01*
X46350500Y2319748D01*
X46338867Y2378231D01*
X46294552Y2444552D01*
X46228231Y2488867D01*
X46216062Y2491288D01*
X46216061Y2491288D01*
X46175816Y2499293D01*
X46169748Y2500500D01*
X45430252Y2500500D01*
X45424184Y2499293D01*
X45383939Y2491288D01*
X45383938Y2491288D01*
X45371769Y2488867D01*
X45361452Y2481973D01*
X45361449Y2481972D01*
X45320003Y2454278D01*
X45252251Y2433062D01*
X45179997Y2454278D01*
X45138551Y2481972D01*
X45138548Y2481973D01*
X45128231Y2488867D01*
X45116062Y2491288D01*
X45116061Y2491288D01*
X45075816Y2499293D01*
X45069748Y2500500D01*
X44330252Y2500500D01*
X44324184Y2499293D01*
X44283939Y2491288D01*
X44283938Y2491288D01*
X44271769Y2488867D01*
X44261452Y2481973D01*
X44261449Y2481972D01*
X44220003Y2454278D01*
X44152251Y2433062D01*
X44079997Y2454278D01*
X44038551Y2481972D01*
X44038548Y2481973D01*
X44028231Y2488867D01*
X44016062Y2491288D01*
X44016061Y2491288D01*
X43975816Y2499293D01*
X43969748Y2500500D01*
X43230252Y2500500D01*
X43224184Y2499293D01*
X43183939Y2491288D01*
X43183938Y2491288D01*
X43171769Y2488867D01*
X43161452Y2481973D01*
X43161449Y2481972D01*
X43120003Y2454278D01*
X43052251Y2433062D01*
X42979997Y2454278D01*
X42938551Y2481972D01*
X42938548Y2481973D01*
X42928231Y2488867D01*
X42916062Y2491288D01*
X42916061Y2491288D01*
X42875816Y2499293D01*
X42869748Y2500500D01*
X42130252Y2500500D01*
X42124184Y2499293D01*
X42083939Y2491288D01*
X42083938Y2491288D01*
X42071769Y2488867D01*
X42061452Y2481973D01*
X42061449Y2481972D01*
X42020003Y2454278D01*
X41952251Y2433062D01*
X41879997Y2454278D01*
X41838551Y2481972D01*
X41838548Y2481973D01*
X41828231Y2488867D01*
X41816062Y2491288D01*
X41816061Y2491288D01*
X41775816Y2499293D01*
X41769748Y2500500D01*
X41030252Y2500500D01*
X41024184Y2499293D01*
X40983939Y2491288D01*
X40983938Y2491288D01*
X40971769Y2488867D01*
X40961452Y2481973D01*
X40961449Y2481972D01*
X40920003Y2454278D01*
X40852251Y2433062D01*
X40779997Y2454278D01*
X40738551Y2481972D01*
X40738548Y2481973D01*
X40728231Y2488867D01*
X40716062Y2491288D01*
X40716061Y2491288D01*
X40675816Y2499293D01*
X40669748Y2500500D01*
X39930252Y2500500D01*
X39924184Y2499293D01*
X39883939Y2491288D01*
X39883938Y2491288D01*
X39871769Y2488867D01*
X39861452Y2481973D01*
X39861449Y2481972D01*
X39820003Y2454278D01*
X39752251Y2433062D01*
X39679997Y2454278D01*
X39638551Y2481972D01*
X39638548Y2481973D01*
X39628231Y2488867D01*
X39616060Y2491288D01*
X39604595Y2496037D01*
X39606218Y2499956D01*
X39564007Y2522037D01*
X39528877Y2583733D01*
X39525500Y2612707D01*
X39525500Y4430252D01*
X40649500Y4430252D01*
X40661133Y4371769D01*
X40668026Y4361453D01*
X40676643Y4348557D01*
X40705448Y4305448D01*
X40771769Y4261133D01*
X40783938Y4258712D01*
X40783939Y4258712D01*
X40823420Y4250859D01*
X40830252Y4249500D01*
X41869748Y4249500D01*
X41876580Y4250859D01*
X41916061Y4258712D01*
X41916062Y4258712D01*
X41928231Y4261133D01*
X41994552Y4305448D01*
X42023357Y4348557D01*
X42031974Y4361453D01*
X42038867Y4371769D01*
X42050500Y4430252D01*
X42349500Y4430252D01*
X42361133Y4371769D01*
X42368026Y4361453D01*
X42376643Y4348557D01*
X42405448Y4305448D01*
X42471769Y4261133D01*
X42483938Y4258712D01*
X42483939Y4258712D01*
X42523420Y4250859D01*
X42530252Y4249500D01*
X43569748Y4249500D01*
X43576580Y4250859D01*
X43616061Y4258712D01*
X43616062Y4258712D01*
X43628231Y4261133D01*
X43694552Y4305448D01*
X43723357Y4348557D01*
X43731974Y4361453D01*
X43738867Y4371769D01*
X43750500Y4430252D01*
X44049500Y4430252D01*
X44061133Y4371769D01*
X44068026Y4361453D01*
X44076643Y4348557D01*
X44105448Y4305448D01*
X44171769Y4261133D01*
X44183938Y4258712D01*
X44183939Y4258712D01*
X44223420Y4250859D01*
X44230252Y4249500D01*
X45269748Y4249500D01*
X45276580Y4250859D01*
X45316061Y4258712D01*
X45316062Y4258712D01*
X45328231Y4261133D01*
X45394552Y4305448D01*
X45423357Y4348557D01*
X45431974Y4361453D01*
X45438867Y4371769D01*
X45450500Y4430252D01*
X45749500Y4430252D01*
X45761133Y4371769D01*
X45768026Y4361453D01*
X45776643Y4348557D01*
X45805448Y4305448D01*
X45871769Y4261133D01*
X45883938Y4258712D01*
X45883939Y4258712D01*
X45923420Y4250859D01*
X45930252Y4249500D01*
X46969748Y4249500D01*
X46976580Y4250859D01*
X47016061Y4258712D01*
X47016062Y4258712D01*
X47028231Y4261133D01*
X47094552Y4305448D01*
X47123357Y4348557D01*
X47131974Y4361453D01*
X47138867Y4371769D01*
X47150500Y4430252D01*
X47150500Y5469748D01*
X47138867Y5528231D01*
X47128840Y5543238D01*
X47101443Y5584239D01*
X47094552Y5594552D01*
X47028231Y5638867D01*
X47016062Y5641288D01*
X47016061Y5641288D01*
X46975816Y5649293D01*
X46969748Y5650500D01*
X45930252Y5650500D01*
X45924184Y5649293D01*
X45883939Y5641288D01*
X45883938Y5641288D01*
X45871769Y5638867D01*
X45805448Y5594552D01*
X45798557Y5584239D01*
X45771161Y5543238D01*
X45761133Y5528231D01*
X45749500Y5469748D01*
X45749500Y4430252D01*
X45450500Y4430252D01*
X45450500Y5469748D01*
X45438867Y5528231D01*
X45428840Y5543238D01*
X45401443Y5584239D01*
X45394552Y5594552D01*
X45328231Y5638867D01*
X45316062Y5641288D01*
X45316061Y5641288D01*
X45275816Y5649293D01*
X45269748Y5650500D01*
X44230252Y5650500D01*
X44224184Y5649293D01*
X44183939Y5641288D01*
X44183938Y5641288D01*
X44171769Y5638867D01*
X44105448Y5594552D01*
X44098557Y5584239D01*
X44071161Y5543238D01*
X44061133Y5528231D01*
X44049500Y5469748D01*
X44049500Y4430252D01*
X43750500Y4430252D01*
X43750500Y5469748D01*
X43738867Y5528231D01*
X43728840Y5543238D01*
X43701443Y5584239D01*
X43694552Y5594552D01*
X43628231Y5638867D01*
X43616062Y5641288D01*
X43616061Y5641288D01*
X43575816Y5649293D01*
X43569748Y5650500D01*
X42530252Y5650500D01*
X42524184Y5649293D01*
X42483939Y5641288D01*
X42483938Y5641288D01*
X42471769Y5638867D01*
X42405448Y5594552D01*
X42398557Y5584239D01*
X42371161Y5543238D01*
X42361133Y5528231D01*
X42349500Y5469748D01*
X42349500Y4430252D01*
X42050500Y4430252D01*
X42050500Y5469748D01*
X42038867Y5528231D01*
X42028840Y5543238D01*
X42001443Y5584239D01*
X41994552Y5594552D01*
X41928231Y5638867D01*
X41916062Y5641288D01*
X41916061Y5641288D01*
X41875816Y5649293D01*
X41869748Y5650500D01*
X40830252Y5650500D01*
X40824184Y5649293D01*
X40783939Y5641288D01*
X40783938Y5641288D01*
X40771769Y5638867D01*
X40705448Y5594552D01*
X40698557Y5584239D01*
X40671161Y5543238D01*
X40661133Y5528231D01*
X40649500Y5469748D01*
X40649500Y4430252D01*
X39525500Y4430252D01*
X39525500Y5130714D01*
X39545502Y5198835D01*
X39574796Y5230677D01*
X39621736Y5266695D01*
X39628282Y5271718D01*
X39724536Y5397159D01*
X39785044Y5543238D01*
X39790732Y5586439D01*
X39802419Y5675213D01*
X39805682Y5700000D01*
X39785044Y5856762D01*
X39724536Y6002841D01*
X39628282Y6128282D01*
X39625715Y6130252D01*
X40649500Y6130252D01*
X40650707Y6124184D01*
X40654296Y6106143D01*
X40661133Y6071769D01*
X40705448Y6005448D01*
X40715761Y5998557D01*
X40757971Y5970353D01*
X40771769Y5961133D01*
X40783938Y5958712D01*
X40783939Y5958712D01*
X40805070Y5954509D01*
X40830252Y5949500D01*
X41869748Y5949500D01*
X41894930Y5954509D01*
X41916061Y5958712D01*
X41916062Y5958712D01*
X41928231Y5961133D01*
X41942030Y5970353D01*
X41984239Y5998557D01*
X41994552Y6005448D01*
X42038867Y6071769D01*
X42045705Y6106143D01*
X42049293Y6124184D01*
X42050500Y6130252D01*
X42349500Y6130252D01*
X42350707Y6124184D01*
X42354296Y6106143D01*
X42361133Y6071769D01*
X42405448Y6005448D01*
X42415761Y5998557D01*
X42457971Y5970353D01*
X42471769Y5961133D01*
X42483938Y5958712D01*
X42483939Y5958712D01*
X42505070Y5954509D01*
X42530252Y5949500D01*
X43569748Y5949500D01*
X43594930Y5954509D01*
X43616061Y5958712D01*
X43616062Y5958712D01*
X43628231Y5961133D01*
X43642030Y5970353D01*
X43684239Y5998557D01*
X43694552Y6005448D01*
X43738867Y6071769D01*
X43745705Y6106143D01*
X43749293Y6124184D01*
X43750500Y6130252D01*
X44049500Y6130252D01*
X44050707Y6124184D01*
X44054296Y6106143D01*
X44061133Y6071769D01*
X44105448Y6005448D01*
X44115761Y5998557D01*
X44157971Y5970353D01*
X44171769Y5961133D01*
X44183938Y5958712D01*
X44183939Y5958712D01*
X44205070Y5954509D01*
X44230252Y5949500D01*
X45269748Y5949500D01*
X45294930Y5954509D01*
X45316061Y5958712D01*
X45316062Y5958712D01*
X45328231Y5961133D01*
X45342030Y5970353D01*
X45384239Y5998557D01*
X45394552Y6005448D01*
X45438867Y6071769D01*
X45445705Y6106143D01*
X45449293Y6124184D01*
X45450500Y6130252D01*
X45749500Y6130252D01*
X45750707Y6124184D01*
X45754296Y6106143D01*
X45761133Y6071769D01*
X45805448Y6005448D01*
X45815761Y5998557D01*
X45857971Y5970353D01*
X45871769Y5961133D01*
X45883938Y5958712D01*
X45883939Y5958712D01*
X45905070Y5954509D01*
X45930252Y5949500D01*
X46969748Y5949500D01*
X46994930Y5954509D01*
X47016061Y5958712D01*
X47016062Y5958712D01*
X47028231Y5961133D01*
X47042030Y5970353D01*
X47084239Y5998557D01*
X47094552Y6005448D01*
X47138867Y6071769D01*
X47145705Y6106143D01*
X47149293Y6124184D01*
X47150500Y6130252D01*
X47449500Y6130252D01*
X47450707Y6124184D01*
X47454296Y6106143D01*
X47461133Y6071769D01*
X47505448Y6005448D01*
X47515761Y5998557D01*
X47557971Y5970353D01*
X47571769Y5961133D01*
X47583938Y5958712D01*
X47583939Y5958712D01*
X47605070Y5954509D01*
X47630252Y5949500D01*
X48669748Y5949500D01*
X48694930Y5954509D01*
X48716061Y5958712D01*
X48716062Y5958712D01*
X48728231Y5961133D01*
X48742030Y5970353D01*
X48784239Y5998557D01*
X48794552Y6005448D01*
X48838867Y6071769D01*
X48845705Y6106143D01*
X48849293Y6124184D01*
X48850500Y6130252D01*
X49149500Y6130252D01*
X49150707Y6124184D01*
X49154296Y6106143D01*
X49161133Y6071769D01*
X49205448Y6005448D01*
X49215761Y5998557D01*
X49257971Y5970353D01*
X49271769Y5961133D01*
X49283938Y5958712D01*
X49283939Y5958712D01*
X49305070Y5954509D01*
X49330252Y5949500D01*
X50369748Y5949500D01*
X50394930Y5954509D01*
X50416061Y5958712D01*
X50416062Y5958712D01*
X50428231Y5961133D01*
X50442030Y5970353D01*
X50484239Y5998557D01*
X50494552Y6005448D01*
X50538867Y6071769D01*
X50545705Y6106143D01*
X50549293Y6124184D01*
X50550500Y6130252D01*
X50550500Y7169748D01*
X50548901Y7177787D01*
X50541288Y7216061D01*
X50541288Y7216062D01*
X50538867Y7228231D01*
X50494552Y7294552D01*
X50428231Y7338867D01*
X50416062Y7341288D01*
X50416061Y7341288D01*
X50375816Y7349293D01*
X50369748Y7350500D01*
X49330252Y7350500D01*
X49324184Y7349293D01*
X49283939Y7341288D01*
X49283938Y7341288D01*
X49271769Y7338867D01*
X49205448Y7294552D01*
X49161133Y7228231D01*
X49158712Y7216062D01*
X49158712Y7216061D01*
X49151099Y7177787D01*
X49149500Y7169748D01*
X49149500Y6130252D01*
X48850500Y6130252D01*
X48850500Y7169748D01*
X48848901Y7177787D01*
X48841288Y7216061D01*
X48841288Y7216062D01*
X48838867Y7228231D01*
X48794552Y7294552D01*
X48728231Y7338867D01*
X48716062Y7341288D01*
X48716061Y7341288D01*
X48675816Y7349293D01*
X48669748Y7350500D01*
X47630252Y7350500D01*
X47624184Y7349293D01*
X47583939Y7341288D01*
X47583938Y7341288D01*
X47571769Y7338867D01*
X47505448Y7294552D01*
X47461133Y7228231D01*
X47458712Y7216062D01*
X47458712Y7216061D01*
X47451099Y7177787D01*
X47449500Y7169748D01*
X47449500Y6130252D01*
X47150500Y6130252D01*
X47150500Y7169748D01*
X47148901Y7177787D01*
X47141288Y7216061D01*
X47141288Y7216062D01*
X47138867Y7228231D01*
X47094552Y7294552D01*
X47028231Y7338867D01*
X47016062Y7341288D01*
X47016061Y7341288D01*
X46975816Y7349293D01*
X46969748Y7350500D01*
X45930252Y7350500D01*
X45924184Y7349293D01*
X45883939Y7341288D01*
X45883938Y7341288D01*
X45871769Y7338867D01*
X45805448Y7294552D01*
X45761133Y7228231D01*
X45758712Y7216062D01*
X45758712Y7216061D01*
X45751099Y7177787D01*
X45749500Y7169748D01*
X45749500Y6130252D01*
X45450500Y6130252D01*
X45450500Y7169748D01*
X45448901Y7177787D01*
X45441288Y7216061D01*
X45441288Y7216062D01*
X45438867Y7228231D01*
X45394552Y7294552D01*
X45328231Y7338867D01*
X45316062Y7341288D01*
X45316061Y7341288D01*
X45275816Y7349293D01*
X45269748Y7350500D01*
X44230252Y7350500D01*
X44224184Y7349293D01*
X44183939Y7341288D01*
X44183938Y7341288D01*
X44171769Y7338867D01*
X44105448Y7294552D01*
X44061133Y7228231D01*
X44058712Y7216062D01*
X44058712Y7216061D01*
X44051099Y7177787D01*
X44049500Y7169748D01*
X44049500Y6130252D01*
X43750500Y6130252D01*
X43750500Y7169748D01*
X43748901Y7177787D01*
X43741288Y7216061D01*
X43741288Y7216062D01*
X43738867Y7228231D01*
X43694552Y7294552D01*
X43628231Y7338867D01*
X43616062Y7341288D01*
X43616061Y7341288D01*
X43575816Y7349293D01*
X43569748Y7350500D01*
X42530252Y7350500D01*
X42524184Y7349293D01*
X42483939Y7341288D01*
X42483938Y7341288D01*
X42471769Y7338867D01*
X42405448Y7294552D01*
X42361133Y7228231D01*
X42358712Y7216062D01*
X42358712Y7216061D01*
X42351099Y7177787D01*
X42349500Y7169748D01*
X42349500Y6130252D01*
X42050500Y6130252D01*
X42050500Y7169748D01*
X42048901Y7177787D01*
X42041288Y7216061D01*
X42041288Y7216062D01*
X42038867Y7228231D01*
X41994552Y7294552D01*
X41928231Y7338867D01*
X41916062Y7341288D01*
X41916061Y7341288D01*
X41875816Y7349293D01*
X41869748Y7350500D01*
X40830252Y7350500D01*
X40824184Y7349293D01*
X40783939Y7341288D01*
X40783938Y7341288D01*
X40771769Y7338867D01*
X40705448Y7294552D01*
X40661133Y7228231D01*
X40658712Y7216062D01*
X40658712Y7216061D01*
X40651099Y7177787D01*
X40649500Y7169748D01*
X40649500Y6130252D01*
X39625715Y6130252D01*
X39502841Y6224536D01*
X39356762Y6285044D01*
X39306805Y6291621D01*
X39270390Y6296415D01*
X39200000Y6305682D01*
X39129610Y6296415D01*
X39093196Y6291621D01*
X39043238Y6285044D01*
X38897159Y6224536D01*
X38771718Y6128282D01*
X38766695Y6121736D01*
X38730677Y6074796D01*
X38673339Y6032929D01*
X38630714Y6025500D01*
X38537016Y6025500D01*
X38468895Y6045502D01*
X38447921Y6062405D01*
X37272405Y7237921D01*
X37238379Y7300233D01*
X37235500Y7327016D01*
X37235500Y7830252D01*
X38949500Y7830252D01*
X38950707Y7824184D01*
X38957220Y7791443D01*
X38961133Y7771769D01*
X38968026Y7761453D01*
X38969993Y7758509D01*
X39005448Y7705448D01*
X39071769Y7661133D01*
X39083938Y7658712D01*
X39083939Y7658712D01*
X39100349Y7655448D01*
X39130252Y7649500D01*
X40169748Y7649500D01*
X40199651Y7655448D01*
X40216061Y7658712D01*
X40216062Y7658712D01*
X40228231Y7661133D01*
X40294552Y7705448D01*
X40330007Y7758509D01*
X40331974Y7761453D01*
X40338867Y7771769D01*
X40342781Y7791443D01*
X40349293Y7824184D01*
X40350500Y7830252D01*
X50849500Y7830252D01*
X50850707Y7824184D01*
X50857220Y7791443D01*
X50861133Y7771769D01*
X50868026Y7761453D01*
X50869993Y7758509D01*
X50905448Y7705448D01*
X50971769Y7661133D01*
X50983938Y7658712D01*
X50983939Y7658712D01*
X51000349Y7655448D01*
X51030252Y7649500D01*
X52069748Y7649500D01*
X52099651Y7655448D01*
X52116061Y7658712D01*
X52116062Y7658712D01*
X52128231Y7661133D01*
X52194552Y7705448D01*
X52230007Y7758509D01*
X52231974Y7761453D01*
X52238867Y7771769D01*
X52242781Y7791443D01*
X52249293Y7824184D01*
X52250500Y7830252D01*
X52250500Y8869748D01*
X52244739Y8898712D01*
X52241288Y8916061D01*
X52241288Y8916062D01*
X52238867Y8928231D01*
X52194552Y8994552D01*
X52128231Y9038867D01*
X52116062Y9041288D01*
X52116061Y9041288D01*
X52075816Y9049293D01*
X52069748Y9050500D01*
X51030252Y9050500D01*
X51024184Y9049293D01*
X50983939Y9041288D01*
X50983938Y9041288D01*
X50971769Y9038867D01*
X50905448Y8994552D01*
X50861133Y8928231D01*
X50858712Y8916062D01*
X50858712Y8916061D01*
X50855261Y8898712D01*
X50849500Y8869748D01*
X50849500Y7830252D01*
X40350500Y7830252D01*
X40350500Y8869748D01*
X40344739Y8898712D01*
X40341288Y8916061D01*
X40341288Y8916062D01*
X40338867Y8928231D01*
X40294552Y8994552D01*
X40228231Y9038867D01*
X40216062Y9041288D01*
X40216061Y9041288D01*
X40175816Y9049293D01*
X40169748Y9050500D01*
X39130252Y9050500D01*
X39124184Y9049293D01*
X39083939Y9041288D01*
X39083938Y9041288D01*
X39071769Y9038867D01*
X39005448Y8994552D01*
X38961133Y8928231D01*
X38958712Y8916062D01*
X38958712Y8916061D01*
X38955261Y8898712D01*
X38949500Y8869748D01*
X38949500Y7830252D01*
X37235500Y7830252D01*
X37235500Y11100287D01*
X37235979Y11111268D01*
X37238303Y11137830D01*
X37238303Y11137832D01*
X37239263Y11148807D01*
X37229508Y11185217D01*
X37227133Y11195928D01*
X37220588Y11233045D01*
X37215078Y11242589D01*
X37213886Y11245865D01*
X37212407Y11249036D01*
X37209554Y11259684D01*
X37187940Y11290552D01*
X37182036Y11299821D01*
X37168707Y11322908D01*
X37168704Y11322912D01*
X37163194Y11332455D01*
X37134330Y11356675D01*
X37126227Y11364100D01*
X36774104Y11716222D01*
X36766677Y11724327D01*
X36749541Y11744749D01*
X36742455Y11753194D01*
X36730258Y11760236D01*
X36709815Y11772039D01*
X36700544Y11777945D01*
X36678715Y11793230D01*
X36669684Y11799554D01*
X36659034Y11802408D01*
X36655866Y11803885D01*
X36652590Y11805077D01*
X36643045Y11810588D01*
X36607626Y11816833D01*
X36605942Y11817130D01*
X36595215Y11819508D01*
X36558807Y11829264D01*
X36547822Y11828303D01*
X36547820Y11828303D01*
X36521272Y11825980D01*
X36510290Y11825500D01*
X33159710Y11825500D01*
X33148728Y11825980D01*
X33122180Y11828303D01*
X33122178Y11828303D01*
X33111193Y11829264D01*
X33074785Y11819508D01*
X33064058Y11817130D01*
X33062374Y11816833D01*
X33026955Y11810588D01*
X33017410Y11805077D01*
X33014134Y11803885D01*
X33010966Y11802408D01*
X33000316Y11799554D01*
X32991285Y11793230D01*
X32969456Y11777945D01*
X32960185Y11772039D01*
X32939742Y11760236D01*
X32927545Y11753194D01*
X32910758Y11733188D01*
X32903315Y11724318D01*
X32895889Y11716215D01*
X32363785Y11184111D01*
X32355681Y11176684D01*
X32326806Y11152455D01*
X32321293Y11142906D01*
X32307961Y11119815D01*
X32302055Y11110544D01*
X32280446Y11079684D01*
X32277592Y11069034D01*
X32276115Y11065866D01*
X32274923Y11062590D01*
X32269412Y11053045D01*
X32263952Y11022077D01*
X32262870Y11015942D01*
X32260492Y11005215D01*
X32250736Y10968807D01*
X32251697Y10957822D01*
X32251697Y10957820D01*
X32254020Y10931272D01*
X32254500Y10920290D01*
X32254500Y10469286D01*
X32234498Y10401165D01*
X32205204Y10369323D01*
X32151718Y10328282D01*
X32146695Y10321736D01*
X32136462Y10308400D01*
X32079124Y10266533D01*
X32008253Y10262311D01*
X31946350Y10297075D01*
X31913068Y10359788D01*
X31910499Y10385104D01*
X31910499Y10558832D01*
X31907519Y10590368D01*
X31901261Y10608188D01*
X31865756Y10709294D01*
X31865755Y10709296D01*
X31862634Y10718183D01*
X31782150Y10827150D01*
X31673183Y10907634D01*
X31664296Y10910755D01*
X31664294Y10910756D01*
X31552615Y10949974D01*
X31545368Y10952519D01*
X31537722Y10953242D01*
X31537721Y10953242D01*
X31531751Y10953806D01*
X31513833Y10955500D01*
X31419754Y10955500D01*
X29814848Y10955499D01*
X29746727Y10975501D01*
X29725753Y10992404D01*
X29029391Y11688766D01*
X28995365Y11751078D01*
X28993712Y11795395D01*
X29004699Y11873580D01*
X29005251Y11877507D01*
X29005565Y11900000D01*
X28985546Y12078472D01*
X28979427Y12096045D01*
X28928803Y12241416D01*
X28926485Y12248073D01*
X28888594Y12308712D01*
X28835049Y12394401D01*
X28831316Y12400375D01*
X28758020Y12474184D01*
X28751994Y12480252D01*
X33849500Y12480252D01*
X33850707Y12474184D01*
X33853929Y12457988D01*
X33861133Y12421769D01*
X33905448Y12355448D01*
X33971769Y12311133D01*
X33983938Y12308712D01*
X33983939Y12308712D01*
X34024184Y12300707D01*
X34030252Y12299500D01*
X35169748Y12299500D01*
X35175816Y12300707D01*
X35216061Y12308712D01*
X35216062Y12308712D01*
X35228231Y12311133D01*
X35294552Y12355448D01*
X35338867Y12421769D01*
X35346072Y12457988D01*
X35349293Y12474184D01*
X35350500Y12480252D01*
X35350500Y13219748D01*
X35345811Y13243320D01*
X35344482Y13250000D01*
X41794318Y13250000D01*
X41802137Y13190608D01*
X41812584Y13111259D01*
X41814956Y13093238D01*
X41875464Y12947159D01*
X41906629Y12906544D01*
X41965906Y12829293D01*
X41971718Y12821718D01*
X42097159Y12725464D01*
X42243238Y12664956D01*
X42251426Y12663878D01*
X42256110Y12662623D01*
X42316733Y12625672D01*
X42347755Y12561811D01*
X42349500Y12540916D01*
X42349500Y11169286D01*
X42329498Y11101165D01*
X42300204Y11069323D01*
X42275198Y11050135D01*
X42246718Y11028282D01*
X42150464Y10902841D01*
X42089956Y10756762D01*
X42088878Y10748574D01*
X42083707Y10709294D01*
X42069318Y10600000D01*
X42089956Y10443238D01*
X42150464Y10297159D01*
X42246718Y10171718D01*
X42372159Y10075464D01*
X42518238Y10014956D01*
X42675000Y9994318D01*
X42683188Y9995396D01*
X42823574Y10013878D01*
X42831762Y10014956D01*
X42977841Y10075464D01*
X43103282Y10171718D01*
X43199536Y10297159D01*
X43260044Y10443238D01*
X43266335Y10491020D01*
X46628298Y10491020D01*
X46648936Y10334258D01*
X46709444Y10188179D01*
X46805698Y10062738D01*
X46931139Y9966484D01*
X47077218Y9905976D01*
X47233980Y9885338D01*
X47242168Y9886416D01*
X47382554Y9904898D01*
X47390742Y9905976D01*
X47536821Y9966484D01*
X47662262Y10062738D01*
X47758516Y10188179D01*
X47819024Y10334258D01*
X47839662Y10491020D01*
X47819024Y10647782D01*
X47758516Y10793861D01*
X47662262Y10919302D01*
X47536821Y11015556D01*
X47390742Y11076064D01*
X47233980Y11096702D01*
X47077218Y11076064D01*
X46931139Y11015556D01*
X46805698Y10919302D01*
X46709444Y10793861D01*
X46648936Y10647782D01*
X46628298Y10491020D01*
X43266335Y10491020D01*
X43280682Y10600000D01*
X43266293Y10709294D01*
X43261122Y10748574D01*
X43260044Y10756762D01*
X43199536Y10902841D01*
X43103282Y11028282D01*
X43074803Y11050135D01*
X43049796Y11069323D01*
X43007929Y11126661D01*
X43000500Y11169286D01*
X43000500Y12955290D01*
X43000980Y12966272D01*
X43003303Y12992820D01*
X43003303Y12992822D01*
X43004264Y13003807D01*
X42994508Y13040215D01*
X42992131Y13050939D01*
X42988253Y13072929D01*
X42987416Y13111259D01*
X42987505Y13111930D01*
X43005682Y13250000D01*
X42985044Y13406762D01*
X42924536Y13552841D01*
X42828282Y13678282D01*
X42702841Y13774536D01*
X42556762Y13835044D01*
X42538829Y13837405D01*
X42408188Y13854604D01*
X42400000Y13855682D01*
X42391812Y13854604D01*
X42261172Y13837405D01*
X42243238Y13835044D01*
X42097159Y13774536D01*
X41971718Y13678282D01*
X41875464Y13552841D01*
X41814956Y13406762D01*
X41794318Y13250000D01*
X35344482Y13250000D01*
X35341288Y13266061D01*
X35341288Y13266062D01*
X35338867Y13278231D01*
X35294552Y13344552D01*
X35228231Y13388867D01*
X35216062Y13391288D01*
X35216061Y13391288D01*
X35175816Y13399293D01*
X35169748Y13400500D01*
X34030252Y13400500D01*
X34024184Y13399293D01*
X33983939Y13391288D01*
X33983938Y13391288D01*
X33971769Y13388867D01*
X33905448Y13344552D01*
X33861133Y13278231D01*
X33858712Y13266062D01*
X33858712Y13266061D01*
X33854189Y13243320D01*
X33849500Y13219748D01*
X33849500Y12480252D01*
X28751994Y12480252D01*
X28709733Y12522810D01*
X28709729Y12522813D01*
X28704770Y12527807D01*
X28693761Y12534794D01*
X28646860Y12564558D01*
X28553136Y12624037D01*
X28515429Y12637464D01*
X28390586Y12681919D01*
X28390581Y12681920D01*
X28383951Y12684281D01*
X28376965Y12685114D01*
X28376961Y12685115D01*
X28249177Y12700352D01*
X28205624Y12705545D01*
X28198621Y12704809D01*
X28198620Y12704809D01*
X28034025Y12687510D01*
X28034021Y12687509D01*
X28027017Y12686773D01*
X28020346Y12684502D01*
X27863677Y12631168D01*
X27863674Y12631167D01*
X27857007Y12628897D01*
X27851009Y12625207D01*
X27851007Y12625206D01*
X27810801Y12600471D01*
X27704045Y12534794D01*
X27699014Y12529868D01*
X27699011Y12529865D01*
X27654666Y12486439D01*
X27575732Y12409141D01*
X27571913Y12403216D01*
X27571912Y12403214D01*
X27508586Y12304951D01*
X27478446Y12258183D01*
X27417022Y12089422D01*
X27394514Y11911247D01*
X24525500Y11911247D01*
X24525500Y12649748D01*
X24513867Y12708231D01*
X24469552Y12774552D01*
X24430921Y12800365D01*
X24413547Y12811974D01*
X24403231Y12818867D01*
X24391062Y12821288D01*
X24391061Y12821288D01*
X24350816Y12829293D01*
X24344748Y12830500D01*
X23576500Y12830500D01*
X23508379Y12850502D01*
X23461886Y12904158D01*
X23450500Y12956500D01*
X23450500Y13046359D01*
X23450792Y13054929D01*
X23454162Y13104354D01*
X23454162Y13104358D01*
X23454678Y13111930D01*
X23452886Y13122197D01*
X23443822Y13174132D01*
X23442859Y13180658D01*
X23436189Y13235774D01*
X23435276Y13243320D01*
X23432591Y13250427D01*
X23431782Y13253720D01*
X23427823Y13268191D01*
X23426834Y13271467D01*
X23425527Y13278954D01*
X23421314Y13288551D01*
X23400153Y13336760D01*
X23397661Y13342866D01*
X23378030Y13394818D01*
X23378029Y13394820D01*
X23375345Y13401923D01*
X23371046Y13408178D01*
X23369465Y13411203D01*
X23362175Y13424299D01*
X23360434Y13427243D01*
X23357379Y13434202D01*
X23331944Y13467350D01*
X23318958Y13484273D01*
X23315081Y13489609D01*
X23283619Y13535386D01*
X23283614Y13535392D01*
X23279312Y13541651D01*
X23233342Y13582609D01*
X23228067Y13587589D01*
X22185405Y14630252D01*
X40649500Y14630252D01*
X40661133Y14571769D01*
X40668026Y14561453D01*
X40684137Y14537342D01*
X40705448Y14505448D01*
X40771769Y14461133D01*
X40783938Y14458712D01*
X40783939Y14458712D01*
X40793743Y14456762D01*
X40830252Y14449500D01*
X41869748Y14449500D01*
X41906257Y14456762D01*
X41916061Y14458712D01*
X41916062Y14458712D01*
X41928231Y14461133D01*
X41994552Y14505448D01*
X42015863Y14537342D01*
X42031974Y14561453D01*
X42038867Y14571769D01*
X42050500Y14630252D01*
X42349500Y14630252D01*
X42361133Y14571769D01*
X42368026Y14561453D01*
X42384137Y14537342D01*
X42405448Y14505448D01*
X42471769Y14461133D01*
X42483938Y14458712D01*
X42483939Y14458712D01*
X42493743Y14456762D01*
X42530252Y14449500D01*
X43569748Y14449500D01*
X43606257Y14456762D01*
X43616061Y14458712D01*
X43616062Y14458712D01*
X43628231Y14461133D01*
X43694552Y14505448D01*
X43715863Y14537342D01*
X43731974Y14561453D01*
X43738867Y14571769D01*
X43750500Y14630252D01*
X44049500Y14630252D01*
X44061133Y14571769D01*
X44068026Y14561453D01*
X44084137Y14537342D01*
X44105448Y14505448D01*
X44171769Y14461133D01*
X44183938Y14458712D01*
X44183939Y14458712D01*
X44193743Y14456762D01*
X44230252Y14449500D01*
X45269748Y14449500D01*
X45306257Y14456762D01*
X45316061Y14458712D01*
X45316062Y14458712D01*
X45328231Y14461133D01*
X45394552Y14505448D01*
X45415863Y14537342D01*
X45431974Y14561453D01*
X45438867Y14571769D01*
X45450500Y14630252D01*
X45749500Y14630252D01*
X45761133Y14571769D01*
X45768026Y14561453D01*
X45784137Y14537342D01*
X45805448Y14505448D01*
X45871769Y14461133D01*
X45883938Y14458712D01*
X45883939Y14458712D01*
X45893743Y14456762D01*
X45930252Y14449500D01*
X46969748Y14449500D01*
X47006257Y14456762D01*
X47016061Y14458712D01*
X47016062Y14458712D01*
X47028231Y14461133D01*
X47094552Y14505448D01*
X47115863Y14537342D01*
X47131974Y14561453D01*
X47138867Y14571769D01*
X47150500Y14630252D01*
X47449500Y14630252D01*
X47461133Y14571769D01*
X47468026Y14561453D01*
X47484137Y14537342D01*
X47505448Y14505448D01*
X47571769Y14461133D01*
X47583938Y14458712D01*
X47583939Y14458712D01*
X47593743Y14456762D01*
X47630252Y14449500D01*
X48669748Y14449500D01*
X48706257Y14456762D01*
X48716061Y14458712D01*
X48716062Y14458712D01*
X48728231Y14461133D01*
X48794552Y14505448D01*
X48815863Y14537342D01*
X48831974Y14561453D01*
X48838867Y14571769D01*
X48850500Y14630252D01*
X49149500Y14630252D01*
X49161133Y14571769D01*
X49168026Y14561453D01*
X49184137Y14537342D01*
X49205448Y14505448D01*
X49271769Y14461133D01*
X49283938Y14458712D01*
X49283939Y14458712D01*
X49293743Y14456762D01*
X49330252Y14449500D01*
X50369748Y14449500D01*
X50406257Y14456762D01*
X50416061Y14458712D01*
X50416062Y14458712D01*
X50428231Y14461133D01*
X50494552Y14505448D01*
X50515863Y14537342D01*
X50531974Y14561453D01*
X50538867Y14571769D01*
X50550500Y14630252D01*
X50550500Y15669748D01*
X50546135Y15691694D01*
X50541288Y15716061D01*
X50541288Y15716062D01*
X50538867Y15728231D01*
X50494552Y15794552D01*
X50428231Y15838867D01*
X50416062Y15841288D01*
X50416061Y15841288D01*
X50375816Y15849293D01*
X50369748Y15850500D01*
X49330252Y15850500D01*
X49324184Y15849293D01*
X49283939Y15841288D01*
X49283938Y15841288D01*
X49271769Y15838867D01*
X49205448Y15794552D01*
X49161133Y15728231D01*
X49158712Y15716062D01*
X49158712Y15716061D01*
X49153865Y15691694D01*
X49149500Y15669748D01*
X49149500Y14630252D01*
X48850500Y14630252D01*
X48850500Y15669748D01*
X48846135Y15691694D01*
X48841288Y15716061D01*
X48841288Y15716062D01*
X48838867Y15728231D01*
X48794552Y15794552D01*
X48728231Y15838867D01*
X48716062Y15841288D01*
X48716061Y15841288D01*
X48675816Y15849293D01*
X48669748Y15850500D01*
X47630252Y15850500D01*
X47624184Y15849293D01*
X47583939Y15841288D01*
X47583938Y15841288D01*
X47571769Y15838867D01*
X47505448Y15794552D01*
X47461133Y15728231D01*
X47458712Y15716062D01*
X47458712Y15716061D01*
X47453865Y15691694D01*
X47449500Y15669748D01*
X47449500Y14630252D01*
X47150500Y14630252D01*
X47150500Y15669748D01*
X47146135Y15691694D01*
X47141288Y15716061D01*
X47141288Y15716062D01*
X47138867Y15728231D01*
X47094552Y15794552D01*
X47028231Y15838867D01*
X47016062Y15841288D01*
X47016061Y15841288D01*
X46975816Y15849293D01*
X46969748Y15850500D01*
X45930252Y15850500D01*
X45924184Y15849293D01*
X45883939Y15841288D01*
X45883938Y15841288D01*
X45871769Y15838867D01*
X45805448Y15794552D01*
X45761133Y15728231D01*
X45758712Y15716062D01*
X45758712Y15716061D01*
X45753865Y15691694D01*
X45749500Y15669748D01*
X45749500Y14630252D01*
X45450500Y14630252D01*
X45450500Y15669748D01*
X45446135Y15691694D01*
X45441288Y15716061D01*
X45441288Y15716062D01*
X45438867Y15728231D01*
X45394552Y15794552D01*
X45328231Y15838867D01*
X45316062Y15841288D01*
X45316061Y15841288D01*
X45275816Y15849293D01*
X45269748Y15850500D01*
X44230252Y15850500D01*
X44224184Y15849293D01*
X44183939Y15841288D01*
X44183938Y15841288D01*
X44171769Y15838867D01*
X44105448Y15794552D01*
X44061133Y15728231D01*
X44058712Y15716062D01*
X44058712Y15716061D01*
X44053865Y15691694D01*
X44049500Y15669748D01*
X44049500Y14630252D01*
X43750500Y14630252D01*
X43750500Y15669748D01*
X43746135Y15691694D01*
X43741288Y15716061D01*
X43741288Y15716062D01*
X43738867Y15728231D01*
X43694552Y15794552D01*
X43628231Y15838867D01*
X43616062Y15841288D01*
X43616061Y15841288D01*
X43575816Y15849293D01*
X43569748Y15850500D01*
X42530252Y15850500D01*
X42524184Y15849293D01*
X42483939Y15841288D01*
X42483938Y15841288D01*
X42471769Y15838867D01*
X42405448Y15794552D01*
X42361133Y15728231D01*
X42358712Y15716062D01*
X42358712Y15716061D01*
X42353865Y15691694D01*
X42349500Y15669748D01*
X42349500Y14630252D01*
X42050500Y14630252D01*
X42050500Y15669748D01*
X42046135Y15691694D01*
X42041288Y15716061D01*
X42041288Y15716062D01*
X42038867Y15728231D01*
X41994552Y15794552D01*
X41928231Y15838867D01*
X41916062Y15841288D01*
X41916061Y15841288D01*
X41875816Y15849293D01*
X41869748Y15850500D01*
X40830252Y15850500D01*
X40824184Y15849293D01*
X40783939Y15841288D01*
X40783938Y15841288D01*
X40771769Y15838867D01*
X40705448Y15794552D01*
X40661133Y15728231D01*
X40658712Y15716062D01*
X40658712Y15716061D01*
X40653865Y15691694D01*
X40649500Y15669748D01*
X40649500Y14630252D01*
X22185405Y14630252D01*
X21481583Y15334074D01*
X21475729Y15340340D01*
X21443165Y15377669D01*
X21438169Y15383396D01*
X21386527Y15419690D01*
X21381242Y15423616D01*
X21337524Y15457895D01*
X21337520Y15457897D01*
X21331543Y15462584D01*
X21324620Y15465710D01*
X21321672Y15467495D01*
X21308712Y15474887D01*
X21305666Y15476520D01*
X21299453Y15480887D01*
X21240633Y15503820D01*
X21234554Y15506376D01*
X21223137Y15511531D01*
X21177016Y15532355D01*
X21169545Y15533740D01*
X21166277Y15534764D01*
X21151836Y15538877D01*
X21148563Y15539717D01*
X21141487Y15542476D01*
X21096817Y15548356D01*
X21078894Y15550716D01*
X21072377Y15551748D01*
X21017775Y15561868D01*
X21010308Y15563252D01*
X21002728Y15562815D01*
X21002727Y15562815D01*
X20948856Y15559709D01*
X20941604Y15559500D01*
X8114747Y15559500D01*
X8046626Y15579502D01*
X8025652Y15596405D01*
X5537405Y18084652D01*
X5503379Y18146964D01*
X5500500Y18173747D01*
X5500500Y19923500D01*
X5520502Y19991621D01*
X5574158Y20038114D01*
X5626500Y20049500D01*
X5669748Y20049500D01*
X5675816Y20050707D01*
X5716061Y20058712D01*
X5716062Y20058712D01*
X5728231Y20061133D01*
X5794552Y20105448D01*
X5838867Y20171769D01*
X5845670Y20205967D01*
X5849293Y20224184D01*
X5850500Y20230252D01*
X5850500Y21969748D01*
X5838867Y22028231D01*
X5831975Y22038546D01*
X5831973Y22038550D01*
X5798665Y22088398D01*
X5777450Y22156150D01*
X5796233Y22224617D01*
X5849050Y22272061D01*
X5903430Y22284400D01*
X6825022Y22284400D01*
X6893143Y22264398D01*
X6939636Y22210742D01*
X6949740Y22140468D01*
X6920246Y22075888D01*
X6883398Y22046739D01*
X6847996Y22028231D01*
X6762002Y21983274D01*
X6757201Y21979414D01*
X6757198Y21979412D01*
X6606254Y21858050D01*
X6601447Y21854185D01*
X6469024Y21696370D01*
X6466056Y21690972D01*
X6466053Y21690967D01*
X6390225Y21553035D01*
X6369776Y21515838D01*
X6307484Y21319468D01*
X6306798Y21313351D01*
X6306797Y21313347D01*
X6286584Y21133136D01*
X6284520Y21114738D01*
X6285036Y21108594D01*
X6301068Y20917680D01*
X6301759Y20909447D01*
X6303458Y20903522D01*
X6352337Y20733062D01*
X6358544Y20711414D01*
X6361359Y20705937D01*
X6361360Y20705934D01*
X6446381Y20540500D01*
X6452712Y20528182D01*
X6580677Y20366730D01*
X6585370Y20362736D01*
X6585371Y20362735D01*
X6727840Y20241485D01*
X6737564Y20233209D01*
X6742942Y20230203D01*
X6742944Y20230202D01*
X6786308Y20205967D01*
X6917398Y20132703D01*
X7012238Y20101887D01*
X7107471Y20070944D01*
X7107475Y20070943D01*
X7113329Y20069041D01*
X7317894Y20044649D01*
X7324029Y20045121D01*
X7324031Y20045121D01*
X7396625Y20050707D01*
X7523300Y20060454D01*
X7529230Y20062110D01*
X7529232Y20062110D01*
X7659770Y20098557D01*
X7721725Y20115855D01*
X7727214Y20118628D01*
X7727220Y20118630D01*
X7863154Y20187296D01*
X7905610Y20208742D01*
X7917797Y20218263D01*
X8063095Y20331782D01*
X8063096Y20331783D01*
X8067951Y20335576D01*
X8085436Y20355832D01*
X8145088Y20394329D01*
X8180816Y20399500D01*
X9807654Y20399500D01*
X9875775Y20379498D01*
X9896749Y20362595D01*
X10312595Y19946749D01*
X10346621Y19884437D01*
X10349500Y19857654D01*
X10349500Y18280252D01*
X10350707Y18274184D01*
X10357303Y18241026D01*
X10361133Y18221769D01*
X10405448Y18155448D01*
X10471769Y18111133D01*
X10483938Y18108712D01*
X10483939Y18108712D01*
X10524184Y18100707D01*
X10530252Y18099500D01*
X12969748Y18099500D01*
X12975816Y18100707D01*
X13016061Y18108712D01*
X13016062Y18108712D01*
X13028231Y18111133D01*
X13094552Y18155448D01*
X13138867Y18221769D01*
X13142698Y18241026D01*
X13149293Y18274184D01*
X13150500Y18280252D01*
X13150500Y20719748D01*
X13144424Y20750295D01*
X13141288Y20766061D01*
X13141288Y20766062D01*
X13138867Y20778231D01*
X13094552Y20844552D01*
X13028231Y20888867D01*
X13016062Y20891288D01*
X13016061Y20891288D01*
X12975816Y20899293D01*
X12969748Y20900500D01*
X11392347Y20900500D01*
X11324226Y20920502D01*
X11303252Y20937405D01*
X10665583Y21575074D01*
X10659729Y21581340D01*
X10627165Y21618669D01*
X10622169Y21624396D01*
X10570527Y21660690D01*
X10565242Y21664616D01*
X10521524Y21698895D01*
X10521520Y21698897D01*
X10515543Y21703584D01*
X10508620Y21706710D01*
X10505672Y21708495D01*
X10492712Y21715887D01*
X10489666Y21717520D01*
X10483453Y21721887D01*
X10424633Y21744820D01*
X10418554Y21747376D01*
X10385952Y21762096D01*
X10361016Y21773355D01*
X10353545Y21774740D01*
X10350277Y21775764D01*
X10335836Y21779877D01*
X10332563Y21780717D01*
X10325487Y21783476D01*
X10280817Y21789356D01*
X10262894Y21791716D01*
X10256377Y21792748D01*
X10201775Y21802868D01*
X10194308Y21804252D01*
X10186728Y21803815D01*
X10186727Y21803815D01*
X10132856Y21800709D01*
X10125604Y21800500D01*
X8183611Y21800500D01*
X8115490Y21820502D01*
X8094205Y21837716D01*
X8092907Y21839023D01*
X8089011Y21843800D01*
X8009643Y21909459D01*
X7935025Y21971189D01*
X7935021Y21971191D01*
X7930275Y21975118D01*
X7854552Y22016061D01*
X7796289Y22047564D01*
X7745880Y22097559D01*
X7730503Y22166870D01*
X7755039Y22233492D01*
X7811699Y22276273D01*
X7856218Y22284400D01*
X16457639Y22284400D01*
X16525760Y22264398D01*
X16572253Y22210742D01*
X16581725Y22136520D01*
X16503210Y21691239D01*
X15742654Y17377912D01*
X15742789Y17371724D01*
X15743608Y17334217D01*
X15743955Y17318297D01*
X15776080Y17245288D01*
X15833698Y17190130D01*
X15889273Y17168518D01*
X20950688Y16276054D01*
X20956876Y16276189D01*
X20997897Y16277084D01*
X20997898Y16277084D01*
X21010303Y16277355D01*
X21083312Y16309480D01*
X21118258Y16345985D01*
X21129886Y16358131D01*
X21138470Y16367098D01*
X21152370Y16402841D01*
X21157839Y16416905D01*
X21157839Y16416906D01*
X21160082Y16422673D01*
X21388140Y17716052D01*
X26680700Y17716052D01*
X26692333Y17657569D01*
X26736648Y17591248D01*
X26802969Y17546933D01*
X26803704Y17546787D01*
X26852698Y17507307D01*
X26875200Y17435444D01*
X26875200Y16779138D01*
X26855198Y16711017D01*
X26838295Y16690043D01*
X26776472Y16628220D01*
X26715281Y16508126D01*
X26699500Y16408488D01*
X26699500Y15891512D01*
X26706323Y15848434D01*
X26713280Y15804511D01*
X26715281Y15791874D01*
X26776472Y15671780D01*
X26871780Y15576472D01*
X26991874Y15515281D01*
X27001663Y15513731D01*
X27001665Y15513730D01*
X27031149Y15509060D01*
X27091512Y15499500D01*
X27658488Y15499500D01*
X27718851Y15509060D01*
X27748335Y15513730D01*
X27748337Y15513731D01*
X27758126Y15515281D01*
X27878220Y15576472D01*
X27901843Y15600095D01*
X27964155Y15634121D01*
X27990938Y15637000D01*
X28319418Y15637000D01*
X28387539Y15616998D01*
X28408513Y15600095D01*
X28461658Y15546950D01*
X28574696Y15489354D01*
X28584485Y15487804D01*
X28584487Y15487803D01*
X28610735Y15483646D01*
X28668481Y15474500D01*
X28899953Y15474500D01*
X29131518Y15474501D01*
X29136412Y15475276D01*
X29215506Y15487802D01*
X29215508Y15487803D01*
X29225304Y15489354D01*
X29239039Y15496352D01*
X29258711Y15506376D01*
X29338342Y15546950D01*
X29428050Y15636658D01*
X29485646Y15749696D01*
X29487448Y15761070D01*
X29493163Y15797159D01*
X29500500Y15843481D01*
X29500499Y16456518D01*
X29500499Y16456519D01*
X29949500Y16456519D01*
X29949501Y15843482D01*
X29950276Y15838591D01*
X29950276Y15838588D01*
X29962553Y15761070D01*
X29964354Y15749696D01*
X29968855Y15740863D01*
X29968857Y15740858D01*
X29973909Y15730944D01*
X30021950Y15636658D01*
X30111658Y15546950D01*
X30224696Y15489354D01*
X30234485Y15487804D01*
X30234487Y15487803D01*
X30260735Y15483646D01*
X30318481Y15474500D01*
X30549953Y15474500D01*
X30781518Y15474501D01*
X30786412Y15475276D01*
X30865506Y15487802D01*
X30865508Y15487803D01*
X30875304Y15489354D01*
X30889039Y15496352D01*
X30908711Y15506376D01*
X30988342Y15546950D01*
X31041487Y15600095D01*
X31103799Y15634121D01*
X31130582Y15637000D01*
X31384062Y15637000D01*
X31452183Y15616998D01*
X31473157Y15600095D01*
X31496780Y15576472D01*
X31616874Y15515281D01*
X31626663Y15513731D01*
X31626665Y15513730D01*
X31656149Y15509060D01*
X31716512Y15499500D01*
X32283488Y15499500D01*
X32343851Y15509060D01*
X32373335Y15513730D01*
X32373337Y15513731D01*
X32383126Y15515281D01*
X32503220Y15576472D01*
X32526843Y15600095D01*
X32589155Y15634121D01*
X32615938Y15637000D01*
X33894834Y15637000D01*
X33949061Y15620550D01*
X33949983Y15622777D01*
X33961453Y15618026D01*
X33971769Y15611133D01*
X33983938Y15608712D01*
X33983939Y15608712D01*
X34000133Y15605491D01*
X34030252Y15599500D01*
X35169748Y15599500D01*
X35199867Y15605491D01*
X35216061Y15608712D01*
X35216062Y15608712D01*
X35228231Y15611133D01*
X35294552Y15655448D01*
X35338867Y15721769D01*
X35342205Y15738547D01*
X35349293Y15774184D01*
X35350500Y15780252D01*
X35350500Y16330252D01*
X40649500Y16330252D01*
X40650707Y16324184D01*
X40656388Y16295626D01*
X40661133Y16271769D01*
X40668026Y16261453D01*
X40676632Y16248574D01*
X40705448Y16205448D01*
X40771769Y16161133D01*
X40783938Y16158712D01*
X40783939Y16158712D01*
X40824184Y16150707D01*
X40830252Y16149500D01*
X41869748Y16149500D01*
X41875816Y16150707D01*
X41916061Y16158712D01*
X41916062Y16158712D01*
X41928231Y16161133D01*
X41994552Y16205448D01*
X42023368Y16248574D01*
X42031974Y16261453D01*
X42038867Y16271769D01*
X42043613Y16295626D01*
X42049293Y16324184D01*
X42050500Y16330252D01*
X42349500Y16330252D01*
X42350707Y16324184D01*
X42356388Y16295626D01*
X42361133Y16271769D01*
X42368026Y16261453D01*
X42376632Y16248574D01*
X42405448Y16205448D01*
X42471769Y16161133D01*
X42483938Y16158712D01*
X42483939Y16158712D01*
X42524184Y16150707D01*
X42530252Y16149500D01*
X43569748Y16149500D01*
X43575816Y16150707D01*
X43616061Y16158712D01*
X43616062Y16158712D01*
X43628231Y16161133D01*
X43694552Y16205448D01*
X43723368Y16248574D01*
X43731974Y16261453D01*
X43738867Y16271769D01*
X43743613Y16295626D01*
X43749293Y16324184D01*
X43750500Y16330252D01*
X44049500Y16330252D01*
X44050707Y16324184D01*
X44056388Y16295626D01*
X44061133Y16271769D01*
X44068026Y16261453D01*
X44076632Y16248574D01*
X44105448Y16205448D01*
X44171769Y16161133D01*
X44183938Y16158712D01*
X44183939Y16158712D01*
X44224184Y16150707D01*
X44230252Y16149500D01*
X45269748Y16149500D01*
X45275816Y16150707D01*
X45316061Y16158712D01*
X45316062Y16158712D01*
X45328231Y16161133D01*
X45394552Y16205448D01*
X45423368Y16248574D01*
X45431974Y16261453D01*
X45438867Y16271769D01*
X45443613Y16295626D01*
X45449293Y16324184D01*
X45450500Y16330252D01*
X45749500Y16330252D01*
X45750707Y16324184D01*
X45756388Y16295626D01*
X45761133Y16271769D01*
X45768026Y16261453D01*
X45776632Y16248574D01*
X45805448Y16205448D01*
X45871769Y16161133D01*
X45883938Y16158712D01*
X45883939Y16158712D01*
X45924184Y16150707D01*
X45930252Y16149500D01*
X46969748Y16149500D01*
X46975816Y16150707D01*
X47016061Y16158712D01*
X47016062Y16158712D01*
X47028231Y16161133D01*
X47094552Y16205448D01*
X47123368Y16248574D01*
X47131974Y16261453D01*
X47138867Y16271769D01*
X47143613Y16295626D01*
X47149293Y16324184D01*
X47150500Y16330252D01*
X47150500Y17369748D01*
X47147219Y17386244D01*
X47141288Y17416061D01*
X47141288Y17416062D01*
X47138867Y17428231D01*
X47123437Y17451324D01*
X47101443Y17484239D01*
X47094552Y17494552D01*
X47028231Y17538867D01*
X47016062Y17541288D01*
X47016061Y17541288D01*
X46975816Y17549293D01*
X46969748Y17550500D01*
X45930252Y17550500D01*
X45924184Y17549293D01*
X45883939Y17541288D01*
X45883938Y17541288D01*
X45871769Y17538867D01*
X45805448Y17494552D01*
X45798557Y17484239D01*
X45776564Y17451324D01*
X45761133Y17428231D01*
X45758712Y17416062D01*
X45758712Y17416061D01*
X45752781Y17386244D01*
X45749500Y17369748D01*
X45749500Y16330252D01*
X45450500Y16330252D01*
X45450500Y17369748D01*
X45447219Y17386244D01*
X45441288Y17416061D01*
X45441288Y17416062D01*
X45438867Y17428231D01*
X45423437Y17451324D01*
X45401443Y17484239D01*
X45394552Y17494552D01*
X45328231Y17538867D01*
X45316062Y17541288D01*
X45316061Y17541288D01*
X45275816Y17549293D01*
X45269748Y17550500D01*
X44230252Y17550500D01*
X44224184Y17549293D01*
X44183939Y17541288D01*
X44183938Y17541288D01*
X44171769Y17538867D01*
X44105448Y17494552D01*
X44098557Y17484239D01*
X44076564Y17451324D01*
X44061133Y17428231D01*
X44058712Y17416062D01*
X44058712Y17416061D01*
X44052781Y17386244D01*
X44049500Y17369748D01*
X44049500Y16330252D01*
X43750500Y16330252D01*
X43750500Y17369748D01*
X43747219Y17386244D01*
X43741288Y17416061D01*
X43741288Y17416062D01*
X43738867Y17428231D01*
X43723437Y17451324D01*
X43701443Y17484239D01*
X43694552Y17494552D01*
X43628231Y17538867D01*
X43616062Y17541288D01*
X43616061Y17541288D01*
X43575816Y17549293D01*
X43569748Y17550500D01*
X42530252Y17550500D01*
X42524184Y17549293D01*
X42483939Y17541288D01*
X42483938Y17541288D01*
X42471769Y17538867D01*
X42405448Y17494552D01*
X42398557Y17484239D01*
X42376564Y17451324D01*
X42361133Y17428231D01*
X42358712Y17416062D01*
X42358712Y17416061D01*
X42352781Y17386244D01*
X42349500Y17369748D01*
X42349500Y16330252D01*
X42050500Y16330252D01*
X42050500Y17369748D01*
X42047219Y17386244D01*
X42041288Y17416061D01*
X42041288Y17416062D01*
X42038867Y17428231D01*
X42023437Y17451324D01*
X42001443Y17484239D01*
X41994552Y17494552D01*
X41928231Y17538867D01*
X41916062Y17541288D01*
X41916061Y17541288D01*
X41875816Y17549293D01*
X41869748Y17550500D01*
X40830252Y17550500D01*
X40824184Y17549293D01*
X40783939Y17541288D01*
X40783938Y17541288D01*
X40771769Y17538867D01*
X40705448Y17494552D01*
X40698557Y17484239D01*
X40676564Y17451324D01*
X40661133Y17428231D01*
X40658712Y17416062D01*
X40658712Y17416061D01*
X40652781Y17386244D01*
X40649500Y17369748D01*
X40649500Y16330252D01*
X35350500Y16330252D01*
X35350500Y16519748D01*
X35338867Y16578231D01*
X35329287Y16592569D01*
X35301443Y16634239D01*
X35294552Y16644552D01*
X35228231Y16688867D01*
X35216062Y16691288D01*
X35216061Y16691288D01*
X35175816Y16699293D01*
X35169748Y16700500D01*
X34030252Y16700500D01*
X34024184Y16699293D01*
X33983939Y16691288D01*
X33983938Y16691288D01*
X33971769Y16688867D01*
X33961453Y16681974D01*
X33949983Y16677223D01*
X33949061Y16679450D01*
X33894834Y16663000D01*
X32615938Y16663000D01*
X32547817Y16683002D01*
X32526843Y16699905D01*
X32503220Y16723528D01*
X32383126Y16784719D01*
X32373337Y16786269D01*
X32373335Y16786270D01*
X32343851Y16790940D01*
X32283488Y16800500D01*
X31716512Y16800500D01*
X31656149Y16790940D01*
X31626665Y16786270D01*
X31626663Y16786269D01*
X31616874Y16784719D01*
X31496780Y16723528D01*
X31473157Y16699905D01*
X31410845Y16665879D01*
X31384062Y16663000D01*
X31130582Y16663000D01*
X31062461Y16683002D01*
X31041487Y16699905D01*
X30988342Y16753050D01*
X30875304Y16810646D01*
X30865515Y16812196D01*
X30865513Y16812197D01*
X30837579Y16816621D01*
X30781519Y16825500D01*
X30550047Y16825500D01*
X30318482Y16825499D01*
X30313589Y16824724D01*
X30313588Y16824724D01*
X30234494Y16812198D01*
X30234492Y16812197D01*
X30224696Y16810646D01*
X30111658Y16753050D01*
X30021950Y16663342D01*
X29964354Y16550304D01*
X29962804Y16540515D01*
X29962803Y16540513D01*
X29959829Y16521736D01*
X29949500Y16456519D01*
X29500499Y16456519D01*
X29495913Y16485474D01*
X29487198Y16540506D01*
X29487197Y16540508D01*
X29485646Y16550304D01*
X29477618Y16566061D01*
X29466158Y16588551D01*
X29428050Y16663342D01*
X29338342Y16753050D01*
X29225304Y16810646D01*
X29215515Y16812196D01*
X29215513Y16812197D01*
X29187579Y16816621D01*
X29131519Y16825500D01*
X28900047Y16825500D01*
X28668482Y16825499D01*
X28663589Y16824724D01*
X28663588Y16824724D01*
X28584494Y16812198D01*
X28584492Y16812197D01*
X28574696Y16810646D01*
X28461658Y16753050D01*
X28408513Y16699905D01*
X28346201Y16665879D01*
X28319418Y16663000D01*
X28027200Y16663000D01*
X27959079Y16683002D01*
X27912586Y16736658D01*
X27901200Y16789000D01*
X27901200Y17441243D01*
X27921202Y17509364D01*
X27961843Y17543323D01*
X27959431Y17546933D01*
X28015439Y17584357D01*
X28025752Y17591248D01*
X28070067Y17657569D01*
X28081700Y17716052D01*
X28081700Y18755548D01*
X28076948Y18779437D01*
X28072488Y18801861D01*
X28072488Y18801862D01*
X28070067Y18814031D01*
X28025752Y18880352D01*
X27976778Y18913076D01*
X27969747Y18917774D01*
X27959431Y18924667D01*
X27947262Y18927088D01*
X27947261Y18927088D01*
X27907016Y18935093D01*
X27900948Y18936300D01*
X26861452Y18936300D01*
X26855384Y18935093D01*
X26815139Y18927088D01*
X26815138Y18927088D01*
X26802969Y18924667D01*
X26792653Y18917774D01*
X26785622Y18913076D01*
X26736648Y18880352D01*
X26692333Y18814031D01*
X26689912Y18801862D01*
X26689912Y18801861D01*
X26685452Y18779437D01*
X26680700Y18755548D01*
X26680700Y17716052D01*
X21388140Y17716052D01*
X21699216Y19480252D01*
X35349500Y19480252D01*
X35350707Y19474184D01*
X35358361Y19435707D01*
X35361133Y19421769D01*
X35405448Y19355448D01*
X35471769Y19311133D01*
X35483938Y19308712D01*
X35483939Y19308712D01*
X35507815Y19303963D01*
X35530252Y19299500D01*
X36269748Y19299500D01*
X36292185Y19303963D01*
X36316061Y19308712D01*
X36316062Y19308712D01*
X36328231Y19311133D01*
X36338548Y19318027D01*
X36338551Y19318028D01*
X36379997Y19345722D01*
X36447749Y19366938D01*
X36520003Y19345722D01*
X36561449Y19318028D01*
X36561452Y19318027D01*
X36571769Y19311133D01*
X36583938Y19308712D01*
X36583939Y19308712D01*
X36607815Y19303963D01*
X36630252Y19299500D01*
X37369748Y19299500D01*
X37392185Y19303963D01*
X37416061Y19308712D01*
X37416062Y19308712D01*
X37428231Y19311133D01*
X37494552Y19355448D01*
X37538867Y19421769D01*
X37541640Y19435707D01*
X37549293Y19474184D01*
X37550500Y19480252D01*
X38649500Y19480252D01*
X38650707Y19474184D01*
X38658361Y19435707D01*
X38661133Y19421769D01*
X38705448Y19355448D01*
X38771769Y19311133D01*
X38783938Y19308712D01*
X38783939Y19308712D01*
X38807815Y19303963D01*
X38830252Y19299500D01*
X39569748Y19299500D01*
X39592185Y19303963D01*
X39616061Y19308712D01*
X39616062Y19308712D01*
X39628231Y19311133D01*
X39638548Y19318027D01*
X39638551Y19318028D01*
X39679997Y19345722D01*
X39747749Y19366938D01*
X39820003Y19345722D01*
X39861449Y19318028D01*
X39861452Y19318027D01*
X39871769Y19311133D01*
X39883938Y19308712D01*
X39883939Y19308712D01*
X39907815Y19303963D01*
X39930252Y19299500D01*
X40669748Y19299500D01*
X40692185Y19303963D01*
X40716061Y19308712D01*
X40716062Y19308712D01*
X40728231Y19311133D01*
X40738548Y19318027D01*
X40738551Y19318028D01*
X40779997Y19345722D01*
X40847749Y19366938D01*
X40920003Y19345722D01*
X40961449Y19318028D01*
X40961452Y19318027D01*
X40971769Y19311133D01*
X40983938Y19308712D01*
X40983939Y19308712D01*
X41007815Y19303963D01*
X41030252Y19299500D01*
X41769748Y19299500D01*
X41792185Y19303963D01*
X41816061Y19308712D01*
X41816062Y19308712D01*
X41828231Y19311133D01*
X41838548Y19318027D01*
X41838551Y19318028D01*
X41879997Y19345722D01*
X41947749Y19366938D01*
X42020003Y19345722D01*
X42061449Y19318028D01*
X42061452Y19318027D01*
X42071769Y19311133D01*
X42083938Y19308712D01*
X42083939Y19308712D01*
X42107815Y19303963D01*
X42130252Y19299500D01*
X42869748Y19299500D01*
X42892185Y19303963D01*
X42916061Y19308712D01*
X42916062Y19308712D01*
X42928231Y19311133D01*
X42938548Y19318027D01*
X42938551Y19318028D01*
X42979997Y19345722D01*
X43047749Y19366938D01*
X43120003Y19345722D01*
X43161449Y19318028D01*
X43161452Y19318027D01*
X43171769Y19311133D01*
X43183940Y19308712D01*
X43195405Y19303963D01*
X43193884Y19300291D01*
X43236924Y19277772D01*
X43271130Y19219721D01*
X43280490Y19184790D01*
X43282870Y19174058D01*
X43289412Y19136955D01*
X43294923Y19127410D01*
X43296115Y19124134D01*
X43297592Y19120966D01*
X43300446Y19110316D01*
X43306770Y19101285D01*
X43322055Y19079456D01*
X43327961Y19070185D01*
X43330469Y19065842D01*
X43346806Y19037545D01*
X43355251Y19030459D01*
X43375682Y19013315D01*
X43383785Y19005889D01*
X43759089Y18630585D01*
X43766516Y18622481D01*
X43767047Y18621848D01*
X43790745Y18593606D01*
X43800294Y18588093D01*
X43823385Y18574761D01*
X43832656Y18568855D01*
X43863516Y18547246D01*
X43874166Y18544392D01*
X43877334Y18542915D01*
X43880610Y18541723D01*
X43890155Y18536212D01*
X43923899Y18530262D01*
X43927258Y18529670D01*
X43937985Y18527292D01*
X43974393Y18517536D01*
X43985378Y18518497D01*
X43985380Y18518497D01*
X44011928Y18520820D01*
X44022910Y18521300D01*
X55250690Y18521300D01*
X55261672Y18520820D01*
X55288220Y18518497D01*
X55288222Y18518497D01*
X55299207Y18517536D01*
X55335615Y18527292D01*
X55346342Y18529670D01*
X55349701Y18530262D01*
X55383445Y18536212D01*
X55392990Y18541723D01*
X55396266Y18542915D01*
X55399434Y18544392D01*
X55410084Y18547246D01*
X55440944Y18568855D01*
X55450215Y18574761D01*
X55473306Y18588093D01*
X55482855Y18593606D01*
X55507084Y18622481D01*
X55514506Y18630580D01*
X55634405Y18750478D01*
X55696717Y18784503D01*
X55767533Y18779437D01*
X55824369Y18736891D01*
X55849179Y18670370D01*
X55849500Y18661382D01*
X55849500Y17980252D01*
X55850707Y17974184D01*
X55858653Y17934239D01*
X55861133Y17921769D01*
X55868027Y17911452D01*
X55868028Y17911449D01*
X55895722Y17870003D01*
X55916938Y17802251D01*
X55895722Y17729997D01*
X55868028Y17688551D01*
X55868027Y17688548D01*
X55861133Y17678231D01*
X55858712Y17666062D01*
X55858712Y17666061D01*
X55850926Y17626918D01*
X55818018Y17564008D01*
X55756323Y17528877D01*
X55727347Y17525500D01*
X54176713Y17525500D01*
X54165732Y17525979D01*
X54139170Y17528303D01*
X54139168Y17528303D01*
X54128193Y17529263D01*
X54091783Y17519508D01*
X54081076Y17517134D01*
X54043955Y17510588D01*
X54034412Y17505079D01*
X54031140Y17503888D01*
X54027967Y17502408D01*
X54017316Y17499554D01*
X53992391Y17482101D01*
X53986456Y17477945D01*
X53977185Y17472039D01*
X53962340Y17463468D01*
X53944545Y17453194D01*
X53937459Y17444749D01*
X53920315Y17424318D01*
X53912889Y17416215D01*
X53867983Y17371309D01*
X53805671Y17337283D01*
X53762443Y17335482D01*
X53695600Y17344282D01*
X53538838Y17323644D01*
X53392759Y17263136D01*
X53267318Y17166882D01*
X53171064Y17041441D01*
X53110556Y16895362D01*
X53089918Y16738600D01*
X53110556Y16581838D01*
X53171064Y16435759D01*
X53267318Y16310318D01*
X53392759Y16214064D01*
X53538838Y16153556D01*
X53547026Y16152478D01*
X53617219Y16143237D01*
X53695600Y16132918D01*
X53703788Y16133996D01*
X53844174Y16152478D01*
X53852362Y16153556D01*
X53998441Y16214064D01*
X54123882Y16310318D01*
X54220136Y16435759D01*
X54280644Y16581838D01*
X54301282Y16738600D01*
X54300204Y16746788D01*
X54300204Y16748500D01*
X54320206Y16816621D01*
X54373862Y16863114D01*
X54426204Y16874500D01*
X55758550Y16874500D01*
X55826671Y16854498D01*
X55863314Y16818504D01*
X55883029Y16789000D01*
X55892928Y16774186D01*
X55895722Y16770004D01*
X55916938Y16702251D01*
X55895722Y16629997D01*
X55868028Y16588551D01*
X55868027Y16588548D01*
X55861133Y16578231D01*
X55849500Y16519748D01*
X55849500Y15780252D01*
X55850707Y15774184D01*
X55857796Y15738547D01*
X55861133Y15721769D01*
X55868026Y15711453D01*
X55868028Y15711449D01*
X55895722Y15670003D01*
X55916938Y15602251D01*
X55895722Y15529997D01*
X55868028Y15488551D01*
X55868027Y15488548D01*
X55861133Y15478231D01*
X55858712Y15466062D01*
X55858712Y15466061D01*
X55857670Y15460821D01*
X55849500Y15419748D01*
X55849500Y14680252D01*
X55861133Y14621769D01*
X55868027Y14611452D01*
X55868028Y14611449D01*
X55895722Y14570003D01*
X55916938Y14502251D01*
X55895722Y14429997D01*
X55868028Y14388551D01*
X55868027Y14388548D01*
X55861133Y14378231D01*
X55858712Y14366061D01*
X55853963Y14354595D01*
X55850044Y14356218D01*
X55827963Y14314007D01*
X55766267Y14278877D01*
X55737293Y14275500D01*
X55676498Y14275500D01*
X55665516Y14275980D01*
X55638980Y14278302D01*
X55638978Y14278302D01*
X55627993Y14279263D01*
X55617343Y14276409D01*
X55617341Y14276409D01*
X55591604Y14269512D01*
X55580869Y14267132D01*
X55573308Y14265799D01*
X55543755Y14260588D01*
X55534207Y14255076D01*
X55530930Y14253883D01*
X55527762Y14252406D01*
X55517116Y14249553D01*
X55508087Y14243231D01*
X55486253Y14227943D01*
X55476985Y14222039D01*
X55444345Y14203194D01*
X55437262Y14194753D01*
X55437261Y14194752D01*
X55420120Y14174324D01*
X55412694Y14166221D01*
X55061782Y13815309D01*
X54999470Y13781283D01*
X54956242Y13779482D01*
X54889400Y13788282D01*
X54881212Y13787204D01*
X54777917Y13773605D01*
X54732638Y13767644D01*
X54586559Y13707136D01*
X54461118Y13610882D01*
X54364864Y13485441D01*
X54304356Y13339362D01*
X54283718Y13182600D01*
X54284796Y13174412D01*
X54295809Y13090763D01*
X54304356Y13025838D01*
X54364864Y12879759D01*
X54406526Y12825464D01*
X54440436Y12781272D01*
X54461118Y12754318D01*
X54467664Y12749295D01*
X54472198Y12745816D01*
X54586559Y12658064D01*
X54732638Y12597556D01*
X54889400Y12576918D01*
X54897588Y12577996D01*
X55037974Y12596478D01*
X55046162Y12597556D01*
X55192241Y12658064D01*
X55306602Y12745816D01*
X55311136Y12749295D01*
X55317682Y12754318D01*
X55338365Y12781272D01*
X55372274Y12825464D01*
X55413936Y12879759D01*
X55474444Y13025838D01*
X55482992Y13090763D01*
X55494004Y13174412D01*
X55495082Y13182600D01*
X55486282Y13249441D01*
X55497221Y13319589D01*
X55522109Y13354982D01*
X55683581Y13516454D01*
X55745893Y13550480D01*
X55816708Y13545415D01*
X55877439Y13497364D01*
X55895721Y13470005D01*
X55916938Y13402253D01*
X55895722Y13329997D01*
X55868028Y13288551D01*
X55868027Y13288548D01*
X55861133Y13278231D01*
X55858712Y13266062D01*
X55858712Y13266061D01*
X55854189Y13243320D01*
X55849500Y13219748D01*
X55849500Y12480252D01*
X55850707Y12474184D01*
X55853929Y12457988D01*
X55861133Y12421769D01*
X55905448Y12355448D01*
X55971769Y12311133D01*
X55983938Y12308712D01*
X55983939Y12308712D01*
X56024184Y12300707D01*
X56030252Y12299500D01*
X57169748Y12299500D01*
X57175816Y12300707D01*
X57216061Y12308712D01*
X57216062Y12308712D01*
X57228231Y12311133D01*
X57294552Y12355448D01*
X57338867Y12421769D01*
X57346072Y12457988D01*
X57349293Y12474184D01*
X57350500Y12480252D01*
X57350500Y13219748D01*
X57345811Y13243320D01*
X57341288Y13266061D01*
X57341288Y13266062D01*
X57338867Y13278231D01*
X57331973Y13288548D01*
X57331972Y13288551D01*
X57304278Y13329997D01*
X57283062Y13397749D01*
X57304278Y13470003D01*
X57331972Y13511449D01*
X57331973Y13511452D01*
X57338867Y13521769D01*
X57343571Y13545415D01*
X57349293Y13574184D01*
X57350500Y13580252D01*
X57350500Y14319748D01*
X57346406Y14340329D01*
X57341288Y14366061D01*
X57341288Y14366062D01*
X57338867Y14378231D01*
X57331973Y14388548D01*
X57331972Y14388551D01*
X57304278Y14429997D01*
X57283062Y14497749D01*
X57304278Y14570003D01*
X57331972Y14611449D01*
X57331973Y14611452D01*
X57338867Y14621769D01*
X57350500Y14680252D01*
X57350500Y14826384D01*
X57370502Y14894505D01*
X57387405Y14915479D01*
X57603521Y15131595D01*
X57665833Y15165621D01*
X57692616Y15168500D01*
X57754625Y15168500D01*
X57822746Y15148498D01*
X57869239Y15094842D01*
X57879343Y15024568D01*
X57854587Y14965796D01*
X57830494Y14934397D01*
X57830492Y14934394D01*
X57825464Y14927841D01*
X57764956Y14781762D01*
X57744318Y14625000D01*
X57745396Y14616812D01*
X57758700Y14515761D01*
X57764956Y14468238D01*
X57768116Y14460609D01*
X57772218Y14450707D01*
X57825464Y14322159D01*
X57921718Y14196718D01*
X57928264Y14191695D01*
X57975204Y14155677D01*
X58017071Y14098339D01*
X58024500Y14055714D01*
X58024500Y14012016D01*
X58004498Y13943895D01*
X57987595Y13922921D01*
X57949786Y13885112D01*
X57941682Y13877685D01*
X57912807Y13853456D01*
X57907294Y13843907D01*
X57893962Y13820816D01*
X57888056Y13811545D01*
X57866447Y13780685D01*
X57863593Y13770035D01*
X57862116Y13766867D01*
X57860924Y13763591D01*
X57855413Y13754046D01*
X57850879Y13728330D01*
X57848871Y13716943D01*
X57846493Y13706216D01*
X57836737Y13669808D01*
X57837698Y13658823D01*
X57837698Y13658821D01*
X57840021Y13632273D01*
X57840501Y13621291D01*
X57840500Y6537018D01*
X57820498Y6468897D01*
X57803596Y6447923D01*
X57668079Y6312405D01*
X57605767Y6278380D01*
X57578983Y6275500D01*
X57462707Y6275500D01*
X57394586Y6295502D01*
X57348093Y6349158D01*
X57346302Y6354705D01*
X57346037Y6354595D01*
X57341288Y6366061D01*
X57338867Y6378231D01*
X57331973Y6388548D01*
X57331972Y6388551D01*
X57304278Y6429997D01*
X57283062Y6497749D01*
X57304278Y6570003D01*
X57331972Y6611449D01*
X57331973Y6611452D01*
X57338867Y6621769D01*
X57345270Y6653956D01*
X57349293Y6674184D01*
X57350500Y6680252D01*
X57350500Y7419748D01*
X57338867Y7478231D01*
X57331973Y7488548D01*
X57331972Y7488551D01*
X57304278Y7529997D01*
X57283062Y7597749D01*
X57304278Y7670003D01*
X57331972Y7711449D01*
X57331973Y7711452D01*
X57338867Y7721769D01*
X57345705Y7756143D01*
X57349293Y7774184D01*
X57350500Y7780252D01*
X57350500Y8519748D01*
X57338867Y8578231D01*
X57331973Y8588548D01*
X57331972Y8588551D01*
X57304278Y8629997D01*
X57283062Y8697749D01*
X57304278Y8770003D01*
X57331972Y8811449D01*
X57331973Y8811452D01*
X57338867Y8821769D01*
X57350500Y8880252D01*
X57350500Y9619748D01*
X57338867Y9678231D01*
X57331973Y9688548D01*
X57331972Y9688551D01*
X57304278Y9729997D01*
X57283062Y9797749D01*
X57304278Y9870003D01*
X57331972Y9911449D01*
X57331974Y9911453D01*
X57338867Y9921769D01*
X57350500Y9980252D01*
X57350500Y10719748D01*
X57343390Y10755494D01*
X57341288Y10766061D01*
X57341288Y10766062D01*
X57338867Y10778231D01*
X57294552Y10844552D01*
X57228231Y10888867D01*
X57216062Y10891288D01*
X57216061Y10891288D01*
X57175816Y10899293D01*
X57169748Y10900500D01*
X56030252Y10900500D01*
X56024184Y10899293D01*
X55983939Y10891288D01*
X55983938Y10891288D01*
X55971769Y10888867D01*
X55905448Y10844552D01*
X55861133Y10778231D01*
X55858712Y10766062D01*
X55858712Y10766061D01*
X55856610Y10755494D01*
X55849500Y10719748D01*
X55849500Y9980252D01*
X55861133Y9921769D01*
X55868026Y9911453D01*
X55868028Y9911449D01*
X55895722Y9870003D01*
X55916938Y9802251D01*
X55895722Y9729997D01*
X55868028Y9688551D01*
X55868027Y9688548D01*
X55861133Y9678231D01*
X55849500Y9619748D01*
X55849500Y8880252D01*
X55861133Y8821769D01*
X55868027Y8811452D01*
X55868028Y8811449D01*
X55895722Y8770003D01*
X55916938Y8702251D01*
X55895722Y8629997D01*
X55868028Y8588551D01*
X55868027Y8588548D01*
X55861133Y8578231D01*
X55849500Y8519748D01*
X55849500Y7780252D01*
X55850707Y7774184D01*
X55854296Y7756143D01*
X55861133Y7721769D01*
X55868027Y7711452D01*
X55868028Y7711449D01*
X55895722Y7670003D01*
X55916938Y7602251D01*
X55895722Y7529997D01*
X55868028Y7488551D01*
X55868027Y7488548D01*
X55861133Y7478231D01*
X55849500Y7419748D01*
X55849500Y6680252D01*
X55850707Y6674184D01*
X55854731Y6653956D01*
X55861133Y6621769D01*
X55868027Y6611452D01*
X55868028Y6611449D01*
X55895722Y6570003D01*
X55916938Y6502251D01*
X55895722Y6429997D01*
X55868028Y6388551D01*
X55868027Y6388548D01*
X55861133Y6378231D01*
X55858712Y6366062D01*
X55858712Y6366061D01*
X55855658Y6350707D01*
X55849500Y6319748D01*
X55849500Y5580252D01*
X55850707Y5574184D01*
X55857796Y5538547D01*
X55861133Y5521769D01*
X55868027Y5511452D01*
X55868028Y5511449D01*
X55895722Y5470003D01*
X55916938Y5402251D01*
X55895722Y5329997D01*
X55868028Y5288551D01*
X55868027Y5288548D01*
X55861133Y5278231D01*
X55858712Y5266062D01*
X55858712Y5266061D01*
X55855350Y5249158D01*
X55849500Y5219748D01*
X55849500Y4480252D01*
X55850707Y4474184D01*
X55856432Y4445405D01*
X55861133Y4421769D01*
X55905448Y4355448D01*
X55971769Y4311133D01*
X55983938Y4308712D01*
X55983939Y4308712D01*
X56024184Y4300707D01*
X56030252Y4299500D01*
X57169748Y4299500D01*
X57175816Y4300707D01*
X57216061Y4308712D01*
X57216062Y4308712D01*
X57228231Y4311133D01*
X57294552Y4355448D01*
X57338867Y4421769D01*
X57341288Y4433939D01*
X57346037Y4445405D01*
X57349956Y4443782D01*
X57372037Y4485993D01*
X57433733Y4521123D01*
X57462707Y4524500D01*
X58424290Y4524500D01*
X58435272Y4524020D01*
X58461820Y4521697D01*
X58461822Y4521697D01*
X58472807Y4520736D01*
X58509215Y4530492D01*
X58519942Y4532870D01*
X58523301Y4533462D01*
X58557045Y4539412D01*
X58566590Y4544923D01*
X58569866Y4546115D01*
X58573034Y4547592D01*
X58583684Y4550446D01*
X58614544Y4572055D01*
X58623815Y4577961D01*
X58646906Y4591293D01*
X58656455Y4596806D01*
X58680685Y4625683D01*
X58688111Y4633785D01*
X58890215Y4835889D01*
X58898319Y4843316D01*
X58918749Y4860459D01*
X58927194Y4867545D01*
X58939117Y4888196D01*
X58946039Y4900185D01*
X58951945Y4909456D01*
X58962984Y4925221D01*
X58973554Y4940316D01*
X58976408Y4950967D01*
X58977888Y4954140D01*
X58979079Y4957412D01*
X58984588Y4966955D01*
X58991134Y5004076D01*
X58993508Y5014783D01*
X59003263Y5051193D01*
X59001088Y5076061D01*
X58999979Y5088731D01*
X58999500Y5099712D01*
X58999500Y7550000D01*
X63444318Y7550000D01*
X63445396Y7541812D01*
X63463208Y7406519D01*
X63464956Y7393238D01*
X63525464Y7247159D01*
X63621718Y7121718D01*
X63628264Y7116695D01*
X63635434Y7111193D01*
X63747159Y7025464D01*
X63893238Y6964956D01*
X63901426Y6963878D01*
X63940112Y6958785D01*
X64050000Y6944318D01*
X64148068Y6957229D01*
X64218215Y6946290D01*
X64250349Y6924546D01*
X64250627Y6924288D01*
X64253882Y6921147D01*
X64267277Y6907752D01*
X64271247Y6905028D01*
X64273895Y6902703D01*
X64277042Y6899784D01*
X64296646Y6881599D01*
X64307453Y6877287D01*
X64311438Y6874768D01*
X64322247Y6868996D01*
X64326552Y6867089D01*
X64336146Y6860507D01*
X64360099Y6854823D01*
X64360136Y6854814D01*
X64377732Y6849249D01*
X64400622Y6840117D01*
X64406915Y6839500D01*
X64409997Y6839500D01*
X64413067Y6839350D01*
X64413056Y6839134D01*
X64424431Y6837802D01*
X64433745Y6837347D01*
X64445066Y6834660D01*
X64455398Y6836066D01*
X64521718Y6813017D01*
X64565534Y6757154D01*
X64574500Y6710474D01*
X64574500Y6620252D01*
X64575707Y6614184D01*
X64583601Y6574500D01*
X64586133Y6561769D01*
X64630448Y6495448D01*
X64696769Y6451133D01*
X64708938Y6448712D01*
X64708939Y6448712D01*
X64749184Y6440707D01*
X64755252Y6439500D01*
X67944748Y6439500D01*
X67950816Y6440707D01*
X67991061Y6448712D01*
X67991062Y6448712D01*
X68003231Y6451133D01*
X68069552Y6495448D01*
X68113867Y6561769D01*
X68116400Y6574500D01*
X68124293Y6614184D01*
X68125500Y6620252D01*
X68125500Y7659748D01*
X68120659Y7684085D01*
X68116288Y7706061D01*
X68116288Y7706062D01*
X68113867Y7718231D01*
X68069552Y7784552D01*
X68003231Y7828867D01*
X67991062Y7831288D01*
X67991061Y7831288D01*
X67950816Y7839293D01*
X67944748Y7840500D01*
X64755252Y7840500D01*
X64696769Y7828867D01*
X64696559Y7829921D01*
X64638235Y7823651D01*
X64574748Y7855430D01*
X64560644Y7870945D01*
X64483305Y7971736D01*
X64478282Y7978282D01*
X64352841Y8074536D01*
X64206762Y8135044D01*
X64050000Y8155682D01*
X63893238Y8135044D01*
X63747159Y8074536D01*
X63621718Y7978282D01*
X63525464Y7852841D01*
X63487918Y7762197D01*
X63468684Y7715761D01*
X63464956Y7706762D01*
X63463878Y7698574D01*
X63456270Y7640786D01*
X63444318Y7550000D01*
X58999500Y7550000D01*
X58999500Y8143991D01*
X59019502Y8212112D01*
X59073158Y8258605D01*
X59143432Y8268709D01*
X59195232Y8246891D01*
X59195654Y8247621D01*
X59201469Y8244264D01*
X59202202Y8243955D01*
X59202804Y8243493D01*
X59202808Y8243491D01*
X59209359Y8238464D01*
X59355438Y8177956D01*
X59512200Y8157318D01*
X59520388Y8158396D01*
X59660774Y8176878D01*
X59668962Y8177956D01*
X59815041Y8238464D01*
X59940482Y8334718D01*
X60036736Y8460159D01*
X60097244Y8606238D01*
X60117882Y8763000D01*
X60109082Y8829843D01*
X60120021Y8899990D01*
X60144909Y8935383D01*
X60152121Y8942595D01*
X60214433Y8976621D01*
X60241216Y8979500D01*
X62894748Y8979500D01*
X62918573Y8984239D01*
X62941061Y8988712D01*
X62941062Y8988712D01*
X62953231Y8991133D01*
X63019552Y9035448D01*
X63063867Y9101769D01*
X63075500Y9160252D01*
X63075500Y10199748D01*
X63073582Y10209392D01*
X63066288Y10246061D01*
X63066288Y10246062D01*
X63063867Y10258231D01*
X63019552Y10324552D01*
X62983893Y10348379D01*
X62963547Y10361974D01*
X62953231Y10368867D01*
X62941062Y10371288D01*
X62941061Y10371288D01*
X62900816Y10379293D01*
X62894748Y10380500D01*
X59705252Y10380500D01*
X59699184Y10379293D01*
X59658939Y10371288D01*
X59658938Y10371288D01*
X59646769Y10368867D01*
X59636453Y10361974D01*
X59616107Y10348379D01*
X59580448Y10324552D01*
X59536133Y10258231D01*
X59533712Y10246062D01*
X59533712Y10246061D01*
X59526418Y10209392D01*
X59524500Y10199748D01*
X59524500Y9480800D01*
X59504498Y9412679D01*
X59450842Y9366186D01*
X59414948Y9355879D01*
X59355438Y9348044D01*
X59209359Y9287536D01*
X59202808Y9282509D01*
X59202804Y9282507D01*
X59202202Y9282045D01*
X59201602Y9281813D01*
X59195654Y9278379D01*
X59195118Y9279307D01*
X59135981Y9256446D01*
X59066433Y9270712D01*
X59015638Y9320314D01*
X58999500Y9382009D01*
X58999500Y10734983D01*
X59019502Y10803104D01*
X59036405Y10824079D01*
X59144228Y10931901D01*
X59152332Y10939327D01*
X59159039Y10944955D01*
X59181194Y10963545D01*
X59186704Y10973088D01*
X59186707Y10973092D01*
X59200036Y10996179D01*
X59205941Y11005449D01*
X59221232Y11027287D01*
X59227554Y11036316D01*
X59230407Y11046964D01*
X59231886Y11050135D01*
X59233078Y11053411D01*
X59238588Y11062955D01*
X59245134Y11100076D01*
X59247508Y11110783D01*
X59257263Y11147193D01*
X59253979Y11184731D01*
X59253500Y11195712D01*
X59253500Y12744650D01*
X59273502Y12812771D01*
X59302800Y12844615D01*
X59323876Y12860786D01*
X59390097Y12886384D01*
X59459645Y12872117D01*
X59510439Y12822514D01*
X59525969Y12748468D01*
X59525708Y12745823D01*
X59524500Y12739748D01*
X59524500Y11700252D01*
X59536133Y11641769D01*
X59580448Y11575448D01*
X59646769Y11531133D01*
X59658938Y11528712D01*
X59658939Y11528712D01*
X59699184Y11520707D01*
X59705252Y11519500D01*
X62894748Y11519500D01*
X62900816Y11520707D01*
X62941061Y11528712D01*
X62941062Y11528712D01*
X62953231Y11531133D01*
X63019552Y11575448D01*
X63063867Y11641769D01*
X63075500Y11700252D01*
X63075500Y12739748D01*
X63071039Y12762173D01*
X63066288Y12786061D01*
X63066288Y12786062D01*
X63063867Y12798231D01*
X63019552Y12864552D01*
X62953231Y12908867D01*
X62941062Y12911288D01*
X62941061Y12911288D01*
X62900816Y12919293D01*
X62894748Y12920500D01*
X61751500Y12920500D01*
X61683379Y12940502D01*
X61636886Y12994158D01*
X61625500Y13046500D01*
X61625500Y13076890D01*
X61625980Y13087872D01*
X61628303Y13114420D01*
X61628303Y13114422D01*
X61629264Y13125407D01*
X61619508Y13161815D01*
X61617130Y13172542D01*
X61614826Y13185608D01*
X61610588Y13209645D01*
X61605077Y13219190D01*
X61603885Y13222466D01*
X61602408Y13225634D01*
X61599554Y13236284D01*
X61577945Y13267144D01*
X61572039Y13276415D01*
X61558707Y13299506D01*
X61553194Y13309055D01*
X61524317Y13333285D01*
X61516215Y13340711D01*
X61229511Y13627415D01*
X61222084Y13635519D01*
X61216641Y13642005D01*
X61197855Y13664394D01*
X61185138Y13671736D01*
X61165215Y13683239D01*
X61155944Y13689145D01*
X61125084Y13710754D01*
X61114434Y13713608D01*
X61111266Y13715085D01*
X61107990Y13716277D01*
X61098445Y13721788D01*
X61064701Y13727738D01*
X61061342Y13728330D01*
X61050615Y13730708D01*
X61014207Y13740464D01*
X61003222Y13739503D01*
X61003220Y13739503D01*
X60976672Y13737180D01*
X60965690Y13736700D01*
X60283416Y13736700D01*
X60215295Y13756702D01*
X60194321Y13773605D01*
X60123521Y13844405D01*
X60089495Y13906717D01*
X60094560Y13977532D01*
X60137107Y14034368D01*
X60203627Y14059179D01*
X60212616Y14059500D01*
X62892969Y14059500D01*
X62961090Y14039498D01*
X62999698Y13999009D01*
X63000464Y13997159D01*
X63096718Y13871718D01*
X63222159Y13775464D01*
X63368238Y13714956D01*
X63376426Y13713878D01*
X63427637Y13707136D01*
X63525000Y13694318D01*
X63623084Y13707231D01*
X63693232Y13696292D01*
X63728625Y13671404D01*
X64075481Y13324548D01*
X64077237Y13322514D01*
X64079575Y13317731D01*
X64088104Y13309819D01*
X64088105Y13309818D01*
X64115477Y13284427D01*
X64118882Y13281147D01*
X64132277Y13267752D01*
X64136247Y13265028D01*
X64138895Y13262703D01*
X64146428Y13255715D01*
X64161646Y13241599D01*
X64172453Y13237287D01*
X64176438Y13234768D01*
X64187247Y13228996D01*
X64191552Y13227089D01*
X64201146Y13220507D01*
X64225099Y13214823D01*
X64225136Y13214814D01*
X64242732Y13209249D01*
X64265622Y13200117D01*
X64271915Y13199500D01*
X64274997Y13199500D01*
X64278067Y13199350D01*
X64278056Y13199134D01*
X64289431Y13197802D01*
X64298745Y13197347D01*
X64310066Y13194660D01*
X64321595Y13196229D01*
X64321596Y13196229D01*
X64337173Y13198349D01*
X64354164Y13199500D01*
X66661531Y13199500D01*
X66729652Y13179498D01*
X66761493Y13150204D01*
X66782211Y13123204D01*
X66807812Y13056984D01*
X66793548Y12987435D01*
X66743946Y12936639D01*
X66682249Y12920500D01*
X64755252Y12920500D01*
X64749184Y12919293D01*
X64708939Y12911288D01*
X64708938Y12911288D01*
X64696769Y12908867D01*
X64630448Y12864552D01*
X64586133Y12798231D01*
X64583712Y12786062D01*
X64583712Y12786061D01*
X64578961Y12762173D01*
X64574500Y12739748D01*
X64574500Y11884954D01*
X64554498Y11816833D01*
X64500842Y11770340D01*
X64430568Y11760236D01*
X64371795Y11784992D01*
X64359393Y11794509D01*
X64359390Y11794511D01*
X64352841Y11799536D01*
X64206762Y11860044D01*
X64050000Y11880682D01*
X63893238Y11860044D01*
X63747159Y11799536D01*
X63686765Y11753194D01*
X63651105Y11725831D01*
X63621718Y11703282D01*
X63616695Y11696736D01*
X63603637Y11679718D01*
X63525464Y11577841D01*
X63464956Y11431762D01*
X63444318Y11275000D01*
X63445396Y11266812D01*
X63458366Y11168298D01*
X63464956Y11118238D01*
X63525464Y10972159D01*
X63621718Y10846718D01*
X63747159Y10750464D01*
X63893238Y10689956D01*
X64050000Y10669318D01*
X64058188Y10670396D01*
X64198574Y10688878D01*
X64206762Y10689956D01*
X64352841Y10750464D01*
X64359394Y10755492D01*
X64359397Y10755494D01*
X64433071Y10812026D01*
X64499291Y10837627D01*
X64568840Y10823362D01*
X64598870Y10801159D01*
X64662595Y10737434D01*
X64696621Y10675122D01*
X64699500Y10648339D01*
X64699500Y10438040D01*
X64679498Y10369919D01*
X64643501Y10333275D01*
X64640765Y10331447D01*
X64640761Y10331443D01*
X64630448Y10324552D01*
X64586133Y10258231D01*
X64583712Y10246062D01*
X64583712Y10246061D01*
X64576418Y10209392D01*
X64574500Y10199748D01*
X64574500Y9160252D01*
X64586133Y9101769D01*
X64630448Y9035448D01*
X64696769Y8991133D01*
X64708938Y8988712D01*
X64708939Y8988712D01*
X64731427Y8984239D01*
X64755252Y8979500D01*
X67944748Y8979500D01*
X67968573Y8984239D01*
X67991061Y8988712D01*
X67991062Y8988712D01*
X68003231Y8991133D01*
X68069552Y9035448D01*
X68113867Y9101769D01*
X68125500Y9160252D01*
X68125500Y10199748D01*
X68123582Y10209392D01*
X68116288Y10246061D01*
X68116288Y10246062D01*
X68113867Y10258231D01*
X68069552Y10324552D01*
X68033893Y10348379D01*
X68013547Y10361974D01*
X68003231Y10368867D01*
X67991062Y10371288D01*
X67991061Y10371288D01*
X67950816Y10379293D01*
X67944748Y10380500D01*
X65426500Y10380500D01*
X65358379Y10400502D01*
X65311886Y10454158D01*
X65300500Y10506500D01*
X65300500Y10772634D01*
X65300696Y10775307D01*
X65302425Y10780342D01*
X65300589Y10829255D01*
X65300500Y10833981D01*
X65300500Y10852948D01*
X65299618Y10857683D01*
X65299390Y10861209D01*
X65298662Y10880585D01*
X65298226Y10892208D01*
X65293636Y10902893D01*
X65292599Y10907493D01*
X65289038Y10919214D01*
X65287339Y10923617D01*
X65285209Y10935053D01*
X65272272Y10956041D01*
X65263769Y10972411D01*
X65257549Y10986888D01*
X65257547Y10986892D01*
X65254036Y10995063D01*
X65250022Y10999949D01*
X65247837Y11002134D01*
X65245785Y11004397D01*
X65245945Y11004542D01*
X65238825Y11013549D01*
X65232573Y11020444D01*
X65226468Y11030348D01*
X65204680Y11046916D01*
X65191861Y11058110D01*
X64945566Y11304405D01*
X64911540Y11366717D01*
X64916605Y11437532D01*
X64959152Y11494368D01*
X65025672Y11519179D01*
X65034661Y11519500D01*
X67944748Y11519500D01*
X67950816Y11520707D01*
X67991061Y11528712D01*
X67991062Y11528712D01*
X68003231Y11531133D01*
X68069552Y11575448D01*
X68113867Y11641769D01*
X68125500Y11700252D01*
X68125500Y11798018D01*
X68145502Y11866139D01*
X68199158Y11912632D01*
X68223799Y11920935D01*
X68225586Y11921338D01*
X68237208Y11921774D01*
X68247895Y11926365D01*
X68252495Y11927402D01*
X68264214Y11930962D01*
X68268617Y11932661D01*
X68280053Y11934791D01*
X68301041Y11947728D01*
X68317411Y11956231D01*
X68331888Y11962451D01*
X68331892Y11962453D01*
X68340063Y11965964D01*
X68344949Y11969978D01*
X68347134Y11972163D01*
X68349397Y11974215D01*
X68349542Y11974055D01*
X68358549Y11981175D01*
X68365444Y11987427D01*
X68375348Y11993532D01*
X68391906Y12015307D01*
X68403107Y12028136D01*
X68639081Y12264109D01*
X68875460Y12500488D01*
X68877486Y12502237D01*
X68882269Y12504575D01*
X68915585Y12540490D01*
X68918841Y12543869D01*
X68932248Y12557276D01*
X68934978Y12561255D01*
X68937286Y12563884D01*
X68958401Y12586646D01*
X68962712Y12597453D01*
X68965238Y12601448D01*
X68971001Y12612242D01*
X68972912Y12616554D01*
X68979492Y12626146D01*
X68985183Y12650127D01*
X68990748Y12667724D01*
X68996588Y12682362D01*
X68996589Y12682365D01*
X68999883Y12690622D01*
X69000500Y12696915D01*
X69000500Y12699994D01*
X69000650Y12703067D01*
X69000866Y12703056D01*
X69002198Y12714431D01*
X69002654Y12723746D01*
X69005340Y12735066D01*
X69003683Y12747246D01*
X69001651Y12762173D01*
X69000500Y12779164D01*
X69000500Y12930714D01*
X69020502Y12998835D01*
X69049796Y13030677D01*
X69096736Y13066695D01*
X69103282Y13071718D01*
X69199536Y13197159D01*
X69255921Y13333285D01*
X69256884Y13335609D01*
X69260044Y13343238D01*
X69268983Y13411133D01*
X69278611Y13484269D01*
X69280682Y13500000D01*
X69260044Y13656762D01*
X69255926Y13666705D01*
X69232317Y13723701D01*
X69199536Y13802841D01*
X69103282Y13928282D01*
X68977841Y14024536D01*
X68848705Y14078026D01*
X68839391Y14081884D01*
X68831762Y14085044D01*
X68675000Y14105682D01*
X68518238Y14085044D01*
X68510609Y14081884D01*
X68501295Y14078026D01*
X68372159Y14024536D01*
X68246718Y13928282D01*
X68150464Y13802841D01*
X68117683Y13723701D01*
X68094075Y13666705D01*
X68089956Y13656762D01*
X68088878Y13648574D01*
X68087422Y13637514D01*
X68058700Y13572587D01*
X67999435Y13533495D01*
X67928443Y13532650D01*
X67868264Y13570320D01*
X67837578Y13637514D01*
X67836122Y13648574D01*
X67835044Y13656762D01*
X67830926Y13666705D01*
X67807317Y13723701D01*
X67774536Y13802841D01*
X67733135Y13856796D01*
X67707535Y13923017D01*
X67721800Y13992565D01*
X67771401Y14043361D01*
X67833098Y14059500D01*
X67944748Y14059500D01*
X67950816Y14060707D01*
X67991061Y14068712D01*
X67991062Y14068712D01*
X68003231Y14071133D01*
X68069552Y14115448D01*
X68113867Y14181769D01*
X68116450Y14194752D01*
X68124293Y14234184D01*
X68125500Y14240252D01*
X68125500Y15279748D01*
X68124293Y15285816D01*
X68124103Y15287746D01*
X68126056Y15315507D01*
X68124883Y15315622D01*
X68125199Y15318849D01*
X68125500Y15321915D01*
X68125500Y15325001D01*
X68125650Y15328067D01*
X68125866Y15328056D01*
X68127198Y15339431D01*
X68127654Y15348746D01*
X68130340Y15360066D01*
X68126651Y15387173D01*
X68125500Y15404164D01*
X68125500Y15511531D01*
X68145502Y15579652D01*
X68174796Y15611494D01*
X68177128Y15613283D01*
X68232078Y15655448D01*
X68246736Y15666695D01*
X68253282Y15671718D01*
X68349536Y15797159D01*
X68410044Y15943238D01*
X68430682Y16100000D01*
X68410044Y16256762D01*
X68349536Y16402841D01*
X68253282Y16528282D01*
X68161098Y16599017D01*
X68119231Y16656355D01*
X68114223Y16723560D01*
X68125500Y16780252D01*
X68125500Y17819748D01*
X68124293Y17825816D01*
X68116288Y17866061D01*
X68116288Y17866062D01*
X68113867Y17878231D01*
X68069552Y17944552D01*
X68003231Y17988867D01*
X67991062Y17991288D01*
X67991061Y17991288D01*
X67950816Y17999293D01*
X67944748Y18000500D01*
X64755252Y18000500D01*
X64749184Y17999293D01*
X64708939Y17991288D01*
X64708938Y17991288D01*
X64696769Y17988867D01*
X64630448Y17944552D01*
X64586133Y17878231D01*
X64583712Y17866062D01*
X64583712Y17866061D01*
X64575707Y17825816D01*
X64574500Y17819748D01*
X64574500Y16780252D01*
X64575706Y16774187D01*
X64575707Y16774181D01*
X64578535Y16759967D01*
X64572209Y16689253D01*
X64528656Y16633185D01*
X64483831Y16615391D01*
X64484402Y16613259D01*
X64476426Y16611122D01*
X64468238Y16610044D01*
X64322159Y16549536D01*
X64196718Y16453282D01*
X64100464Y16327841D01*
X64097305Y16320213D01*
X64097302Y16320209D01*
X64087120Y16295626D01*
X64042572Y16240345D01*
X63975209Y16217923D01*
X63906418Y16235481D01*
X63858039Y16287442D01*
X63854302Y16295625D01*
X63824878Y16366659D01*
X63799536Y16427841D01*
X63703282Y16553282D01*
X63624796Y16613507D01*
X63582929Y16670844D01*
X63575500Y16713469D01*
X63575500Y18723339D01*
X63595502Y18791460D01*
X63612405Y18812434D01*
X64302566Y19502595D01*
X64364878Y19536621D01*
X64391661Y19539500D01*
X64448500Y19539500D01*
X64516621Y19519498D01*
X64563114Y19465842D01*
X64574500Y19413500D01*
X64574500Y19320252D01*
X64586133Y19261769D01*
X64630448Y19195448D01*
X64696769Y19151133D01*
X64708938Y19148712D01*
X64708939Y19148712D01*
X64746374Y19141266D01*
X64755252Y19139500D01*
X67944748Y19139500D01*
X67953626Y19141266D01*
X67991061Y19148712D01*
X67991062Y19148712D01*
X68003231Y19151133D01*
X68069552Y19195448D01*
X68113867Y19261769D01*
X68125500Y19320252D01*
X68125500Y20359748D01*
X68123150Y20371561D01*
X68116288Y20406061D01*
X68116288Y20406062D01*
X68113867Y20418231D01*
X68069552Y20484552D01*
X68003231Y20528867D01*
X67991062Y20531288D01*
X67991061Y20531288D01*
X67950816Y20539293D01*
X67944748Y20540500D01*
X64755252Y20540500D01*
X64749184Y20539293D01*
X64708939Y20531288D01*
X64708938Y20531288D01*
X64696769Y20528867D01*
X64630448Y20484552D01*
X64586133Y20418231D01*
X64583712Y20406062D01*
X64583712Y20406061D01*
X64576850Y20371561D01*
X64574500Y20359748D01*
X64574500Y20266500D01*
X64554498Y20198379D01*
X64500842Y20151886D01*
X64448500Y20140500D01*
X64267370Y20140500D01*
X64264695Y20140696D01*
X64259658Y20142426D01*
X64210730Y20140589D01*
X64206003Y20140500D01*
X64187052Y20140500D01*
X64182319Y20139618D01*
X64178792Y20139390D01*
X64159420Y20138663D01*
X64159418Y20138662D01*
X64147792Y20138226D01*
X64137100Y20133632D01*
X64132497Y20132595D01*
X64120786Y20129038D01*
X64116383Y20127339D01*
X64104947Y20125209D01*
X64087087Y20114200D01*
X64083961Y20112273D01*
X64067589Y20103769D01*
X64053109Y20097548D01*
X64053104Y20097545D01*
X64044937Y20094036D01*
X64040051Y20090023D01*
X64037868Y20087840D01*
X64035592Y20085776D01*
X64035446Y20085937D01*
X64026460Y20078834D01*
X64019553Y20072571D01*
X64009652Y20066468D01*
X64002613Y20057211D01*
X64002611Y20057209D01*
X63993093Y20044691D01*
X63981890Y20031861D01*
X63290595Y19340566D01*
X63228283Y19306540D01*
X63157468Y19311605D01*
X63100632Y19354152D01*
X63075821Y19420672D01*
X63075500Y19429661D01*
X63075500Y20359748D01*
X63073150Y20371561D01*
X63066288Y20406061D01*
X63066288Y20406062D01*
X63063867Y20418231D01*
X63019552Y20484552D01*
X62953231Y20528867D01*
X62941062Y20531288D01*
X62941061Y20531288D01*
X62900816Y20539293D01*
X62894748Y20540500D01*
X59705252Y20540500D01*
X59699184Y20539293D01*
X59658939Y20531288D01*
X59658938Y20531288D01*
X59646769Y20528867D01*
X59580448Y20484552D01*
X59536133Y20418231D01*
X59533712Y20406062D01*
X59533712Y20406061D01*
X59526850Y20371561D01*
X59524500Y20359748D01*
X59524500Y20332877D01*
X59504498Y20264756D01*
X59450842Y20218263D01*
X59380568Y20208159D01*
X59350286Y20216467D01*
X59282260Y20244644D01*
X59125498Y20265282D01*
X58968736Y20244644D01*
X58822657Y20184136D01*
X58750852Y20129038D01*
X58720109Y20105448D01*
X58697216Y20087882D01*
X58692193Y20081336D01*
X58676691Y20061133D01*
X58600962Y19962441D01*
X58540454Y19816362D01*
X58519816Y19659600D01*
X58540454Y19502838D01*
X58600962Y19356759D01*
X58697216Y19231318D01*
X58703762Y19226295D01*
X58730523Y19205761D01*
X58822657Y19135064D01*
X58860237Y19119498D01*
X58910689Y19098600D01*
X58965970Y19054052D01*
X58988391Y18986688D01*
X58970833Y18917897D01*
X58939175Y18882229D01*
X58861868Y18822909D01*
X58861864Y18822905D01*
X58855318Y18817882D01*
X58759064Y18692441D01*
X58698556Y18546362D01*
X58697478Y18538174D01*
X58694761Y18517536D01*
X58677918Y18389600D01*
X58698556Y18232838D01*
X58759064Y18086759D01*
X58855318Y17961318D01*
X58980759Y17865064D01*
X59126838Y17804556D01*
X59135026Y17803478D01*
X59185143Y17796880D01*
X59283600Y17783918D01*
X59382055Y17796880D01*
X59452202Y17785941D01*
X59505301Y17738813D01*
X59524500Y17671958D01*
X59524500Y16780252D01*
X59536133Y16721769D01*
X59580448Y16655448D01*
X59590761Y16648557D01*
X59590763Y16648555D01*
X59611850Y16634465D01*
X59657378Y16579988D01*
X59666225Y16509545D01*
X59635584Y16445501D01*
X59575182Y16408189D01*
X59541848Y16403700D01*
X58734018Y16403700D01*
X58665897Y16423702D01*
X58644923Y16440604D01*
X58401405Y16684121D01*
X58367380Y16746434D01*
X58364500Y16773217D01*
X58364500Y18522290D01*
X58364980Y18533272D01*
X58367303Y18559820D01*
X58367303Y18559822D01*
X58368264Y18570807D01*
X58358508Y18607215D01*
X58356130Y18617942D01*
X58354588Y18626688D01*
X58349588Y18655045D01*
X58344077Y18664590D01*
X58342885Y18667866D01*
X58341408Y18671034D01*
X58338554Y18681684D01*
X58316945Y18712544D01*
X58311039Y18721815D01*
X58297707Y18744906D01*
X58292194Y18754455D01*
X58263317Y18778685D01*
X58255215Y18786111D01*
X57648111Y19393215D01*
X57640684Y19401319D01*
X57632183Y19411450D01*
X57616455Y19430194D01*
X57606906Y19435707D01*
X57583815Y19449039D01*
X57574544Y19454945D01*
X57552715Y19470230D01*
X57543684Y19476554D01*
X57533034Y19479408D01*
X57529866Y19480885D01*
X57526590Y19482077D01*
X57517045Y19487588D01*
X57483301Y19493538D01*
X57479942Y19494130D01*
X57469215Y19496508D01*
X57432807Y19506264D01*
X57421822Y19505303D01*
X57421820Y19505303D01*
X57395272Y19502980D01*
X57384290Y19502500D01*
X55876500Y19502500D01*
X55808379Y19522502D01*
X55761886Y19576158D01*
X55750500Y19628500D01*
X55750500Y20619748D01*
X55738867Y20678231D01*
X55694552Y20744552D01*
X55628231Y20788867D01*
X55616062Y20791288D01*
X55616061Y20791288D01*
X55575816Y20799293D01*
X55569748Y20800500D01*
X54830252Y20800500D01*
X54824184Y20799293D01*
X54783939Y20791288D01*
X54783938Y20791288D01*
X54771769Y20788867D01*
X54761452Y20781973D01*
X54761449Y20781972D01*
X54720003Y20754278D01*
X54652251Y20733062D01*
X54579997Y20754278D01*
X54538551Y20781972D01*
X54538548Y20781973D01*
X54528231Y20788867D01*
X54516062Y20791288D01*
X54516061Y20791288D01*
X54475816Y20799293D01*
X54469748Y20800500D01*
X53730252Y20800500D01*
X53724184Y20799293D01*
X53683939Y20791288D01*
X53683938Y20791288D01*
X53671769Y20788867D01*
X53661452Y20781973D01*
X53661449Y20781972D01*
X53620003Y20754278D01*
X53552251Y20733062D01*
X53479997Y20754278D01*
X53438551Y20781972D01*
X53438548Y20781973D01*
X53428231Y20788867D01*
X53416062Y20791288D01*
X53416061Y20791288D01*
X53375816Y20799293D01*
X53369748Y20800500D01*
X52630252Y20800500D01*
X52597283Y20793942D01*
X52526571Y20800270D01*
X52470504Y20843824D01*
X52446884Y20910776D01*
X52456294Y20965739D01*
X52499484Y21070008D01*
X52499485Y21070011D01*
X52502644Y21077638D01*
X52523282Y21234400D01*
X52502644Y21391162D01*
X52442136Y21537241D01*
X52345882Y21662682D01*
X52220441Y21758936D01*
X52074362Y21819444D01*
X51917600Y21840082D01*
X51760838Y21819444D01*
X51614759Y21758936D01*
X51489318Y21662682D01*
X51393064Y21537241D01*
X51332556Y21391162D01*
X51311918Y21234400D01*
X51332556Y21077638D01*
X51335715Y21070011D01*
X51335716Y21070008D01*
X51383449Y20954771D01*
X51391038Y20884181D01*
X51359259Y20820694D01*
X51298200Y20784467D01*
X51231237Y20786859D01*
X51228231Y20788867D01*
X51216062Y20791288D01*
X51216061Y20791288D01*
X51175816Y20799293D01*
X51169748Y20800500D01*
X50430252Y20800500D01*
X50424184Y20799293D01*
X50383939Y20791288D01*
X50383938Y20791288D01*
X50371769Y20788867D01*
X50361452Y20781973D01*
X50361449Y20781972D01*
X50320003Y20754278D01*
X50252251Y20733062D01*
X50179997Y20754278D01*
X50138551Y20781972D01*
X50138548Y20781973D01*
X50128231Y20788867D01*
X50116062Y20791288D01*
X50116061Y20791288D01*
X50075816Y20799293D01*
X50069748Y20800500D01*
X49330252Y20800500D01*
X49324184Y20799293D01*
X49283939Y20791288D01*
X49283938Y20791288D01*
X49271769Y20788867D01*
X49261452Y20781973D01*
X49261449Y20781972D01*
X49220003Y20754278D01*
X49152251Y20733062D01*
X49079997Y20754278D01*
X49038551Y20781972D01*
X49038548Y20781973D01*
X49028231Y20788867D01*
X49016062Y20791288D01*
X49016061Y20791288D01*
X48975816Y20799293D01*
X48969748Y20800500D01*
X48230252Y20800500D01*
X48224184Y20799293D01*
X48183939Y20791288D01*
X48183938Y20791288D01*
X48171769Y20788867D01*
X48161452Y20781973D01*
X48161449Y20781972D01*
X48120003Y20754278D01*
X48052251Y20733062D01*
X47979997Y20754278D01*
X47938551Y20781972D01*
X47938548Y20781973D01*
X47928231Y20788867D01*
X47916062Y20791288D01*
X47916061Y20791288D01*
X47875816Y20799293D01*
X47869748Y20800500D01*
X47130252Y20800500D01*
X47124184Y20799293D01*
X47083939Y20791288D01*
X47083938Y20791288D01*
X47071769Y20788867D01*
X47005448Y20744552D01*
X46961133Y20678231D01*
X46949500Y20619748D01*
X46949500Y19480252D01*
X46950707Y19474184D01*
X46958361Y19435707D01*
X46961133Y19421769D01*
X46968025Y19411454D01*
X46968027Y19411450D01*
X46996858Y19368302D01*
X47018073Y19300549D01*
X46999290Y19232082D01*
X46946473Y19184639D01*
X46892093Y19172300D01*
X46407907Y19172300D01*
X46339786Y19192302D01*
X46293293Y19245958D01*
X46283189Y19316232D01*
X46303142Y19368302D01*
X46331973Y19411450D01*
X46331975Y19411454D01*
X46338867Y19421769D01*
X46341640Y19435707D01*
X46349293Y19474184D01*
X46350500Y19480252D01*
X46350500Y20531737D01*
X46370502Y20599858D01*
X46428283Y20648146D01*
X46447009Y20655902D01*
X46447013Y20655904D01*
X46454641Y20659064D01*
X46552611Y20734239D01*
X46573536Y20750295D01*
X46580082Y20755318D01*
X46676336Y20880759D01*
X46736844Y21026838D01*
X46757482Y21183600D01*
X46736844Y21340362D01*
X46676336Y21486441D01*
X46580082Y21611882D01*
X46454641Y21708136D01*
X46308562Y21768644D01*
X46296531Y21770228D01*
X46159988Y21788204D01*
X46151800Y21789282D01*
X46143612Y21788204D01*
X46007070Y21770228D01*
X45995038Y21768644D01*
X45848959Y21708136D01*
X45723518Y21611882D01*
X45718495Y21605336D01*
X45718491Y21605332D01*
X45687052Y21564360D01*
X45629714Y21522493D01*
X45558843Y21518271D01*
X45496941Y21553035D01*
X45487127Y21564360D01*
X45416705Y21656136D01*
X45411682Y21662682D01*
X45286241Y21758936D01*
X45140162Y21819444D01*
X44983400Y21840082D01*
X44826638Y21819444D01*
X44680559Y21758936D01*
X44555118Y21662682D01*
X44458864Y21537241D01*
X44398356Y21391162D01*
X44377718Y21234400D01*
X44378796Y21226212D01*
X44394281Y21108594D01*
X44398356Y21077638D01*
X44400737Y21071889D01*
X44401412Y21013623D01*
X44400117Y21010378D01*
X44399500Y21004085D01*
X44399500Y21001003D01*
X44399350Y20997933D01*
X44399134Y20997944D01*
X44397802Y20986569D01*
X44397346Y20977254D01*
X44394660Y20965934D01*
X44396229Y20954405D01*
X44396229Y20954404D01*
X44398349Y20938827D01*
X44399500Y20921836D01*
X44399500Y20917680D01*
X44379498Y20849559D01*
X44325842Y20803066D01*
X44298082Y20794101D01*
X44283939Y20791288D01*
X44283938Y20791288D01*
X44271769Y20788867D01*
X44261452Y20781973D01*
X44261449Y20781972D01*
X44220003Y20754278D01*
X44152251Y20733062D01*
X44079997Y20754278D01*
X44038551Y20781972D01*
X44038548Y20781973D01*
X44028231Y20788867D01*
X44016062Y20791288D01*
X44016061Y20791288D01*
X43975816Y20799293D01*
X43969748Y20800500D01*
X43230252Y20800500D01*
X43224184Y20799293D01*
X43183939Y20791288D01*
X43183938Y20791288D01*
X43171769Y20788867D01*
X43161452Y20781973D01*
X43161449Y20781972D01*
X43120003Y20754278D01*
X43052251Y20733062D01*
X42979997Y20754278D01*
X42938551Y20781972D01*
X42938548Y20781973D01*
X42928231Y20788867D01*
X42916062Y20791288D01*
X42916061Y20791288D01*
X42875816Y20799293D01*
X42869748Y20800500D01*
X42130252Y20800500D01*
X42124184Y20799293D01*
X42083939Y20791288D01*
X42083938Y20791288D01*
X42071769Y20788867D01*
X42061452Y20781973D01*
X42061449Y20781972D01*
X42020003Y20754278D01*
X41952251Y20733062D01*
X41879997Y20754278D01*
X41838551Y20781972D01*
X41838548Y20781973D01*
X41828231Y20788867D01*
X41816062Y20791288D01*
X41816061Y20791288D01*
X41775816Y20799293D01*
X41769748Y20800500D01*
X41030252Y20800500D01*
X41024184Y20799293D01*
X40983939Y20791288D01*
X40983938Y20791288D01*
X40971769Y20788867D01*
X40961452Y20781973D01*
X40961449Y20781972D01*
X40920003Y20754278D01*
X40852251Y20733062D01*
X40779997Y20754278D01*
X40738551Y20781972D01*
X40738548Y20781973D01*
X40728231Y20788867D01*
X40716062Y20791288D01*
X40716061Y20791288D01*
X40675816Y20799293D01*
X40669748Y20800500D01*
X39930252Y20800500D01*
X39924184Y20799293D01*
X39883939Y20791288D01*
X39883938Y20791288D01*
X39871769Y20788867D01*
X39861452Y20781973D01*
X39861449Y20781972D01*
X39820003Y20754278D01*
X39752251Y20733062D01*
X39679997Y20754278D01*
X39638551Y20781972D01*
X39638548Y20781973D01*
X39628231Y20788867D01*
X39616062Y20791288D01*
X39616061Y20791288D01*
X39575816Y20799293D01*
X39569748Y20800500D01*
X38830252Y20800500D01*
X38824184Y20799293D01*
X38783939Y20791288D01*
X38783938Y20791288D01*
X38771769Y20788867D01*
X38705448Y20744552D01*
X38661133Y20678231D01*
X38649500Y20619748D01*
X38649500Y19480252D01*
X37550500Y19480252D01*
X37550500Y20619748D01*
X37538867Y20678231D01*
X37494552Y20744552D01*
X37428231Y20788867D01*
X37416062Y20791288D01*
X37416061Y20791288D01*
X37375816Y20799293D01*
X37369748Y20800500D01*
X36630252Y20800500D01*
X36624184Y20799293D01*
X36583939Y20791288D01*
X36583938Y20791288D01*
X36571769Y20788867D01*
X36561452Y20781973D01*
X36561449Y20781972D01*
X36520003Y20754278D01*
X36452251Y20733062D01*
X36379997Y20754278D01*
X36338551Y20781972D01*
X36338548Y20781973D01*
X36328231Y20788867D01*
X36316062Y20791288D01*
X36316061Y20791288D01*
X36275816Y20799293D01*
X36269748Y20800500D01*
X35530252Y20800500D01*
X35524184Y20799293D01*
X35483939Y20791288D01*
X35483938Y20791288D01*
X35471769Y20788867D01*
X35405448Y20744552D01*
X35361133Y20678231D01*
X35349500Y20619748D01*
X35349500Y19480252D01*
X21699216Y19480252D01*
X22052546Y21484088D01*
X22051800Y21518271D01*
X22051516Y21531297D01*
X22051516Y21531298D01*
X22051245Y21543703D01*
X22019120Y21616712D01*
X21961502Y21671870D01*
X21905927Y21693482D01*
X19972972Y22034314D01*
X19909360Y22065841D01*
X19872890Y22126755D01*
X19875143Y22197716D01*
X19915402Y22256194D01*
X19980886Y22283624D01*
X19994852Y22284400D01*
X69613080Y22284400D01*
X69681201Y22264398D01*
X69727694Y22210742D01*
X69737798Y22140468D01*
X69734787Y22125789D01*
X68491087Y17484239D01*
X68483921Y17457496D01*
X68483517Y17451329D01*
X68483516Y17451324D01*
X68482091Y17429570D01*
X68480021Y17397995D01*
X68484010Y17386244D01*
X68498621Y17343204D01*
X68505661Y17322464D01*
X68558253Y17262494D01*
X68611732Y17236121D01*
X68617705Y17234521D01*
X68617709Y17234519D01*
X73570132Y15907521D01*
X73570134Y15907521D01*
X73576104Y15905921D01*
X73582271Y15905517D01*
X73582276Y15905516D01*
X73607319Y15903875D01*
X73635605Y15902021D01*
X73651807Y15907521D01*
X73699383Y15923671D01*
X73699384Y15923672D01*
X73711136Y15927661D01*
X73771106Y15980253D01*
X73797479Y16033732D01*
X73813042Y16091812D01*
X74171493Y17429570D01*
X74208445Y17490193D01*
X74272305Y17521214D01*
X74342800Y17512786D01*
X74397547Y17467583D01*
X74419200Y17396959D01*
X74419200Y-2654000D01*
X74399198Y-2722121D01*
X74345542Y-2768614D01*
X74293200Y-2780000D01*
X28280674Y-2780000D01*
X28212553Y-2759998D01*
X28166060Y-2706342D01*
X28155956Y-2636068D01*
X28185450Y-2571488D01*
X28219492Y-2543851D01*
X28369835Y-2460343D01*
X28369836Y-2460342D01*
X28373828Y-2458125D01*
X28593078Y-2290798D01*
X28596273Y-2287530D01*
X28782683Y-2096842D01*
X28782687Y-2096837D01*
X28785877Y-2093574D01*
X28793762Y-2082741D01*
X28945500Y-1874276D01*
X28945502Y-1874273D01*
X28948187Y-1870584D01*
X29076606Y-1626499D01*
X29168445Y-1366432D01*
X29204916Y-1181392D01*
X29220899Y-1100304D01*
X29220900Y-1100298D01*
X29221780Y-1095832D01*
X29222660Y-1078163D01*
X65771357Y-1078163D01*
X65787775Y-1273683D01*
X65841858Y-1462291D01*
X65844676Y-1467774D01*
X65928723Y-1631313D01*
X65928726Y-1631317D01*
X65931544Y-1636801D01*
X66053418Y-1790569D01*
X66058111Y-1794563D01*
X66058112Y-1794564D01*
X66151774Y-1874276D01*
X66202838Y-1917735D01*
X66208216Y-1920741D01*
X66208218Y-1920742D01*
X66240893Y-1939003D01*
X66374113Y-2013457D01*
X66560718Y-2074089D01*
X66755546Y-2097321D01*
X66761681Y-2096849D01*
X66761683Y-2096849D01*
X66945034Y-2082741D01*
X66945038Y-2082740D01*
X66951176Y-2082268D01*
X67140156Y-2029503D01*
X67315289Y-1941037D01*
X67345115Y-1917735D01*
X67465053Y-1824029D01*
X67469903Y-1820240D01*
X67499684Y-1785739D01*
X67594085Y-1676373D01*
X67594085Y-1676372D01*
X67598109Y-1671711D01*
X67695025Y-1501109D01*
X67756958Y-1314932D01*
X67781549Y-1120271D01*
X67781941Y-1092200D01*
X67762794Y-896928D01*
X67761013Y-891029D01*
X67761012Y-891024D01*
X67707865Y-714993D01*
X67706084Y-709094D01*
X67613970Y-535853D01*
X67489961Y-383802D01*
X67338780Y-258735D01*
X67166185Y-165413D01*
X67053987Y-130682D01*
X66984639Y-109215D01*
X66984636Y-109214D01*
X66978752Y-107393D01*
X66972627Y-106749D01*
X66972626Y-106749D01*
X66789747Y-87527D01*
X66789746Y-87527D01*
X66783619Y-86883D01*
X66676101Y-96668D01*
X66594359Y-104107D01*
X66594358Y-104107D01*
X66588218Y-104666D01*
X66582304Y-106407D01*
X66582302Y-106407D01*
X66499824Y-130682D01*
X66399993Y-160064D01*
X66394528Y-162921D01*
X66231572Y-248112D01*
X66231568Y-248115D01*
X66226112Y-250967D01*
X66221312Y-254827D01*
X66221311Y-254827D01*
X66207147Y-266215D01*
X66073200Y-373911D01*
X65947080Y-524216D01*
X65944116Y-529608D01*
X65944113Y-529612D01*
X65885668Y-635924D01*
X65852556Y-696154D01*
X65793228Y-883178D01*
X65771357Y-1078163D01*
X29222660Y-1078163D01*
X29222965Y-1072038D01*
X29235267Y-824936D01*
X29235267Y-824930D01*
X29235494Y-820367D01*
X29209298Y-545808D01*
X29205692Y-531069D01*
X29144829Y-282344D01*
X29143743Y-277906D01*
X29040201Y-22274D01*
X29037900Y-18344D01*
X29037897Y-18338D01*
X28903145Y211803D01*
X28903140Y211810D01*
X28900842Y215735D01*
X28840077Y291718D01*
X28731436Y427566D01*
X28731435Y427567D01*
X28728584Y431132D01*
X28675320Y480889D01*
X28530372Y616292D01*
X28530369Y616294D01*
X28527036Y619408D01*
X28300421Y776616D01*
X28296343Y778645D01*
X28057573Y897432D01*
X28057570Y897433D01*
X28053486Y899465D01*
X27791402Y985380D01*
X27759760Y990874D01*
X27523443Y1031906D01*
X27523435Y1031907D01*
X27519662Y1032562D01*
X27509429Y1033071D01*
X27434095Y1036822D01*
X27434087Y1036822D01*
X27432524Y1036900D01*
X27260330Y1036900D01*
X27258062Y1036735D01*
X27258050Y1036735D01*
X27123797Y1026994D01*
X27055317Y1022025D01*
X27050862Y1021041D01*
X27050859Y1021041D01*
X26790453Y963548D01*
X26790450Y963547D01*
X26785997Y962564D01*
X26528081Y864849D01*
X26524094Y862635D01*
X26524093Y862634D01*
X26324799Y751936D01*
X26286972Y730925D01*
X26243542Y697780D01*
X26145315Y622815D01*
X26067722Y563598D01*
X26064529Y560332D01*
X26064527Y560330D01*
X25878117Y369642D01*
X25878113Y369637D01*
X25874923Y366374D01*
X25872236Y362682D01*
X25872234Y362680D01*
X25728936Y165809D01*
X25712613Y143384D01*
X25584194Y-100701D01*
X25492355Y-360768D01*
X25480659Y-420110D01*
X25454987Y-550360D01*
X25439020Y-631368D01*
X25438793Y-635922D01*
X25438793Y-635924D01*
X25426484Y-883178D01*
X25425306Y-906833D01*
X25451502Y-1181392D01*
X25452587Y-1185826D01*
X25452588Y-1185832D01*
X25484179Y-1314932D01*
X25517057Y-1449294D01*
X25620599Y-1704926D01*
X25622900Y-1708856D01*
X25622903Y-1708862D01*
X25757655Y-1939003D01*
X25757660Y-1939010D01*
X25759958Y-1942935D01*
X25762805Y-1946495D01*
X25883047Y-2096849D01*
X25932216Y-2158332D01*
X26133764Y-2346608D01*
X26360379Y-2503816D01*
X26364455Y-2505844D01*
X26364457Y-2505845D01*
X26435501Y-2541189D01*
X26487582Y-2589440D01*
X26505308Y-2658188D01*
X26483053Y-2725606D01*
X26427882Y-2770290D01*
X26379378Y-2780000D01*
X4326000Y-2780000D01*
X4257879Y-2759998D01*
X4211386Y-2706342D01*
X4200000Y-2654000D01*
X4200000Y1184982D01*
X12387500Y1184982D01*
X12388170Y1180432D01*
X12388170Y1180429D01*
X12396216Y1125774D01*
X12397642Y1116088D01*
X12415555Y1079604D01*
X12444308Y1021041D01*
X12449068Y1011345D01*
X12469575Y990874D01*
X12523399Y937144D01*
X12531650Y928907D01*
X12541006Y924334D01*
X12541007Y924333D01*
X12566066Y912084D01*
X12636482Y877664D01*
X12666973Y873216D01*
X12700256Y868360D01*
X12700260Y868360D01*
X12704782Y867700D01*
X13071218Y867700D01*
X13075768Y868370D01*
X13075771Y868370D01*
X13130426Y876416D01*
X13130427Y876416D01*
X13140112Y877842D01*
X13209855Y912084D01*
X13235507Y924678D01*
X13235509Y924679D01*
X13244855Y929268D01*
X13314965Y999500D01*
X13319935Y1004479D01*
X13319935Y1004480D01*
X13327293Y1011850D01*
X13341013Y1039917D01*
X13354221Y1066938D01*
X13378536Y1116682D01*
X13388500Y1184982D01*
X13388500Y1354200D01*
X13408502Y1422321D01*
X13462158Y1468814D01*
X13514500Y1480200D01*
X14568084Y1480200D01*
X14636205Y1460198D01*
X14657179Y1443295D01*
X15605489Y494985D01*
X15612916Y486881D01*
X15637145Y458006D01*
X15646694Y452493D01*
X15669785Y439161D01*
X15679056Y433255D01*
X15709916Y411646D01*
X15720566Y408792D01*
X15723734Y407315D01*
X15727010Y406123D01*
X15736555Y400612D01*
X15770299Y394662D01*
X15773658Y394070D01*
X15784385Y391692D01*
X15820793Y381936D01*
X15831769Y382896D01*
X15831772Y382896D01*
X15858343Y385221D01*
X15869324Y385700D01*
X19702822Y385700D01*
X19770943Y365698D01*
X19819230Y307919D01*
X19875464Y172159D01*
X19971718Y46718D01*
X19978264Y41695D01*
X19996947Y27359D01*
X20097159Y-49536D01*
X20198556Y-91536D01*
X20234458Y-106407D01*
X20243238Y-110044D01*
X20400000Y-130682D01*
X20408188Y-129604D01*
X20548574Y-111122D01*
X20556762Y-110044D01*
X20565543Y-106407D01*
X20601444Y-91536D01*
X20702841Y-49536D01*
X20803053Y27359D01*
X20821736Y41695D01*
X20828282Y46718D01*
X20924536Y172159D01*
X20985044Y318238D01*
X21005682Y475000D01*
X20985044Y631762D01*
X20924536Y777841D01*
X20850514Y874308D01*
X20833305Y896736D01*
X20828282Y903282D01*
X20805463Y920792D01*
X20755201Y959359D01*
X20702841Y999536D01*
X20556762Y1060044D01*
X20400000Y1080682D01*
X20391812Y1079604D01*
X20251424Y1061122D01*
X20251422Y1061121D01*
X20243238Y1060044D01*
X20235610Y1056884D01*
X20235609Y1056884D01*
X20214784Y1048258D01*
X20177551Y1039147D01*
X20155052Y1037178D01*
X20144090Y1036700D01*
X16036616Y1036700D01*
X15968495Y1056702D01*
X15947521Y1073605D01*
X14999211Y2021915D01*
X14991784Y2030019D01*
X14974641Y2050449D01*
X14974642Y2050449D01*
X14967555Y2058894D01*
X14948627Y2069822D01*
X14934915Y2077739D01*
X14925644Y2083645D01*
X14903815Y2098930D01*
X14894784Y2105254D01*
X14884134Y2108108D01*
X14880966Y2109585D01*
X14877690Y2110777D01*
X14868145Y2116288D01*
X14834401Y2122238D01*
X14831042Y2122830D01*
X14820315Y2125208D01*
X14783907Y2134964D01*
X14772922Y2134003D01*
X14772920Y2134003D01*
X14746372Y2131680D01*
X14735390Y2131200D01*
X13514500Y2131200D01*
X13446379Y2151202D01*
X13399886Y2204858D01*
X13388500Y2257200D01*
X13388500Y2426418D01*
X13386431Y2440477D01*
X13379784Y2485626D01*
X13379784Y2485627D01*
X13378358Y2495312D01*
X13345393Y2562455D01*
X13331522Y2590707D01*
X13331521Y2590709D01*
X13326932Y2600055D01*
X13264939Y2661940D01*
X13251721Y2675135D01*
X13251720Y2675135D01*
X13244350Y2682493D01*
X13227966Y2690502D01*
X13198895Y2704712D01*
X13139518Y2733736D01*
X13106122Y2738608D01*
X13075744Y2743040D01*
X13075740Y2743040D01*
X13071218Y2743700D01*
X12704782Y2743700D01*
X12700232Y2743030D01*
X12700229Y2743030D01*
X12645574Y2734984D01*
X12645573Y2734984D01*
X12635888Y2733558D01*
X12625340Y2728379D01*
X12540493Y2686722D01*
X12540491Y2686721D01*
X12531145Y2682132D01*
X12448707Y2599550D01*
X12444134Y2590194D01*
X12444133Y2590193D01*
X12436295Y2574158D01*
X12397464Y2494718D01*
X12394111Y2471735D01*
X12388530Y2433476D01*
X12387500Y2426418D01*
X12387500Y1184982D01*
X4200000Y1184982D01*
X4200000Y3059982D01*
X11437500Y3059982D01*
X11438170Y3055432D01*
X11438170Y3055429D01*
X11446216Y3000774D01*
X11447642Y2991088D01*
X11463769Y2958242D01*
X11493847Y2896980D01*
X11499068Y2886345D01*
X11581650Y2803907D01*
X11686482Y2752664D01*
X11712509Y2748867D01*
X11750256Y2743360D01*
X11750260Y2743360D01*
X11754782Y2742700D01*
X12121218Y2742700D01*
X12125768Y2743370D01*
X12125771Y2743370D01*
X12180426Y2751416D01*
X12180427Y2751416D01*
X12190112Y2752842D01*
X12256851Y2785609D01*
X12285507Y2799678D01*
X12285509Y2799679D01*
X12294855Y2804268D01*
X12377293Y2886850D01*
X12428536Y2991682D01*
X12434424Y3032039D01*
X12437840Y3055456D01*
X12437840Y3055460D01*
X12438500Y3059982D01*
X12438500Y3229200D01*
X12458502Y3297321D01*
X12512158Y3343814D01*
X12564500Y3355200D01*
X13109790Y3355200D01*
X13120772Y3354720D01*
X13147320Y3352397D01*
X13147322Y3352397D01*
X13158307Y3351436D01*
X13194715Y3361192D01*
X13205442Y3363570D01*
X13208801Y3364162D01*
X13242545Y3370112D01*
X13252090Y3375623D01*
X13255366Y3376815D01*
X13258534Y3378292D01*
X13269184Y3381146D01*
X13300044Y3402755D01*
X13309315Y3408661D01*
X13332406Y3421993D01*
X13341955Y3427506D01*
X13366179Y3456375D01*
X13373606Y3464480D01*
X14135428Y4226301D01*
X14143532Y4233727D01*
X14144947Y4234914D01*
X14172394Y4257945D01*
X14191239Y4290585D01*
X14197143Y4299853D01*
X14212431Y4321687D01*
X14218753Y4330716D01*
X14221606Y4341362D01*
X14223083Y4344530D01*
X14224276Y4347807D01*
X14229788Y4357355D01*
X14236332Y4394469D01*
X14238712Y4405204D01*
X14245610Y4430946D01*
X14248463Y4441593D01*
X14247231Y4455682D01*
X14245179Y4479131D01*
X14244700Y4490112D01*
X14244700Y4857100D01*
X14264702Y4925221D01*
X14318358Y4971714D01*
X14370700Y4983100D01*
X14848514Y4983100D01*
X14916635Y4963098D01*
X14948477Y4933804D01*
X14989518Y4880318D01*
X15114959Y4784064D01*
X15261038Y4723556D01*
X15417800Y4702918D01*
X15425988Y4703996D01*
X15566374Y4722478D01*
X15574562Y4723556D01*
X15720641Y4784064D01*
X15846082Y4880318D01*
X15942336Y5005759D01*
X16002844Y5151838D01*
X16004717Y5166061D01*
X16020264Y5284158D01*
X16023482Y5308600D01*
X16012843Y5389412D01*
X16003922Y5457174D01*
X16002844Y5465362D01*
X15942336Y5611441D01*
X15846082Y5736882D01*
X15835357Y5745112D01*
X15803249Y5769749D01*
X15720641Y5833136D01*
X15574562Y5893644D01*
X15417800Y5914282D01*
X15261038Y5893644D01*
X15114959Y5833136D01*
X15032351Y5769749D01*
X15000244Y5745112D01*
X14989518Y5736882D01*
X14984495Y5730336D01*
X14948477Y5683396D01*
X14891139Y5641529D01*
X14848514Y5634100D01*
X13801416Y5634100D01*
X13733295Y5654102D01*
X13712321Y5671005D01*
X13642111Y5741215D01*
X13634684Y5749319D01*
X13617541Y5769749D01*
X13617542Y5769749D01*
X13610455Y5778194D01*
X13600906Y5783707D01*
X13577815Y5797039D01*
X13568544Y5802945D01*
X13546715Y5818230D01*
X13537684Y5824554D01*
X13527034Y5827408D01*
X13523866Y5828885D01*
X13520590Y5830077D01*
X13511045Y5835588D01*
X13477301Y5841538D01*
X13473942Y5842130D01*
X13463210Y5844510D01*
X13431451Y5853020D01*
X13370829Y5889971D01*
X13351796Y5917523D01*
X13328450Y5963342D01*
X13238742Y6053050D01*
X13125704Y6110646D01*
X13115915Y6112196D01*
X13115913Y6112197D01*
X13088551Y6116530D01*
X13031919Y6125500D01*
X12725462Y6125500D01*
X12418882Y6125499D01*
X12413989Y6124724D01*
X12413988Y6124724D01*
X12334894Y6112198D01*
X12334892Y6112197D01*
X12325096Y6110646D01*
X12212058Y6053050D01*
X12122350Y5963342D01*
X12064754Y5850304D01*
X12063204Y5840515D01*
X12063203Y5840513D01*
X12061272Y5828318D01*
X12049900Y5756519D01*
X12049901Y5293482D01*
X12050676Y5288589D01*
X12050676Y5288588D01*
X12061240Y5221886D01*
X12064754Y5199696D01*
X12069257Y5190859D01*
X12069257Y5190858D01*
X12078184Y5173339D01*
X12122350Y5086658D01*
X12212058Y4996950D01*
X12325096Y4939354D01*
X12334885Y4937804D01*
X12334887Y4937803D01*
X12362249Y4933470D01*
X12418881Y4924500D01*
X12725338Y4924500D01*
X13031918Y4924501D01*
X13036812Y4925276D01*
X13115906Y4937802D01*
X13115908Y4937803D01*
X13125704Y4939354D01*
X13238742Y4996950D01*
X13267173Y5025381D01*
X13329485Y5059407D01*
X13400300Y5054342D01*
X13419267Y5045405D01*
X13427675Y5040551D01*
X13434589Y5036559D01*
X13443856Y5030655D01*
X13474716Y5009046D01*
X13485369Y5006191D01*
X13488527Y5004719D01*
X13491805Y5003526D01*
X13501355Y4998012D01*
X13511270Y4996264D01*
X13567967Y4954518D01*
X13593304Y4888196D01*
X13593700Y4878212D01*
X13593700Y4657418D01*
X13573698Y4589297D01*
X13556796Y4568323D01*
X13031579Y4043105D01*
X12969266Y4009080D01*
X12942483Y4006200D01*
X12564500Y4006200D01*
X12496379Y4026202D01*
X12449886Y4079858D01*
X12438500Y4132200D01*
X12438500Y4301418D01*
X12432154Y4344530D01*
X12429784Y4360626D01*
X12429784Y4360627D01*
X12428358Y4370312D01*
X12396047Y4436122D01*
X12381522Y4465707D01*
X12381521Y4465709D01*
X12376932Y4475055D01*
X12328312Y4523590D01*
X12301721Y4550135D01*
X12301720Y4550135D01*
X12294350Y4557493D01*
X12189518Y4608736D01*
X12159027Y4613184D01*
X12125744Y4618040D01*
X12125740Y4618040D01*
X12121218Y4618700D01*
X11754782Y4618700D01*
X11750232Y4618030D01*
X11750229Y4618030D01*
X11695574Y4609984D01*
X11695573Y4609984D01*
X11685888Y4608558D01*
X11661952Y4596806D01*
X11590493Y4561722D01*
X11590491Y4561721D01*
X11581145Y4557132D01*
X11498707Y4474550D01*
X11447464Y4369718D01*
X11437500Y4301418D01*
X11437500Y3059982D01*
X4200000Y3059982D01*
X4200000Y6994123D01*
X4200033Y7031258D01*
X4200033Y7031260D01*
X4200045Y7045449D01*
X4193902Y7058242D01*
X4192773Y7063210D01*
X4190215Y7070535D01*
X4188006Y7075125D01*
X4184850Y7088962D01*
X4176006Y7100061D01*
X4173636Y7104985D01*
X4170084Y7110647D01*
X4166688Y7114916D01*
X4160547Y7127705D01*
X4149464Y7136568D01*
X4146293Y7140554D01*
X4140809Y7146048D01*
X4136827Y7149227D01*
X4127985Y7160323D01*
X4115207Y7166486D01*
X4110936Y7169896D01*
X4105286Y7173454D01*
X4100366Y7175832D01*
X4089285Y7184694D01*
X4075457Y7187874D01*
X4070876Y7190088D01*
X4063551Y7192661D01*
X4058580Y7193799D01*
X4045798Y7199965D01*
X4022787Y7199985D01*
X4022789Y7201997D01*
X4022723Y7202012D01*
X4022723Y7200000D01*
X4005877Y7200000D01*
X3954551Y7200045D01*
X3954555Y7204850D01*
X3954457Y7204856D01*
X3954457Y7200000D01*
X3326000Y7200000D01*
X3257879Y7220002D01*
X3211386Y7273658D01*
X3200000Y7326000D01*
X3200000Y8611916D01*
X3714821Y8611916D01*
X3716560Y8532171D01*
X3740575Y8477592D01*
X5082049Y6561769D01*
X6657962Y4311133D01*
X6688469Y4267564D01*
X6731543Y4226330D01*
X6805884Y4197421D01*
X6845023Y4198274D01*
X6873221Y4198889D01*
X6873223Y4198889D01*
X6885629Y4199160D01*
X6896988Y4204158D01*
X6934543Y4220682D01*
X6934546Y4220684D01*
X6940208Y4223175D01*
X9092018Y5729889D01*
X11145165Y7167518D01*
X11145167Y7167519D01*
X11150236Y7171069D01*
X11191470Y7214143D01*
X11196949Y7228231D01*
X11208618Y7258240D01*
X11220379Y7288484D01*
X11219431Y7331974D01*
X11218911Y7355821D01*
X11218911Y7355823D01*
X11218640Y7368229D01*
X11207636Y7393238D01*
X11201792Y7406519D01*
X12049900Y7406519D01*
X12049901Y6943482D01*
X12050676Y6938589D01*
X12050676Y6938588D01*
X12058449Y6889510D01*
X12064754Y6849696D01*
X12069257Y6840859D01*
X12069257Y6840858D01*
X12074953Y6829680D01*
X12122350Y6736658D01*
X12212058Y6646950D01*
X12325096Y6589354D01*
X12334885Y6587804D01*
X12334887Y6587803D01*
X12362249Y6583470D01*
X12418881Y6574500D01*
X12725338Y6574500D01*
X13031918Y6574501D01*
X13036812Y6575276D01*
X13115906Y6587802D01*
X13115908Y6587803D01*
X13125704Y6589354D01*
X13238742Y6646950D01*
X13328450Y6736658D01*
X13350892Y6780703D01*
X13399640Y6832318D01*
X13463159Y6849500D01*
X13860890Y6849500D01*
X13871872Y6849020D01*
X13898420Y6846697D01*
X13898422Y6846697D01*
X13909407Y6845736D01*
X13945815Y6855492D01*
X13956542Y6857870D01*
X13959901Y6858462D01*
X13993645Y6864412D01*
X14003190Y6869923D01*
X14006466Y6871115D01*
X14009634Y6872592D01*
X14020284Y6875446D01*
X14051144Y6897055D01*
X14060415Y6902961D01*
X14083506Y6916293D01*
X14093055Y6921806D01*
X14117285Y6950683D01*
X14124711Y6958785D01*
X14169521Y7003595D01*
X14231833Y7037621D01*
X14258616Y7040500D01*
X14740453Y7040500D01*
X14808574Y7020498D01*
X14856861Y6962720D01*
X14864038Y6945396D01*
X14867864Y6936159D01*
X14964118Y6810718D01*
X15089559Y6714464D01*
X15235638Y6653956D01*
X15392400Y6633318D01*
X15400588Y6634396D01*
X15540974Y6652878D01*
X15549162Y6653956D01*
X15695241Y6714464D01*
X15820682Y6810718D01*
X15916936Y6936159D01*
X15977444Y7082238D01*
X15998082Y7239000D01*
X15977444Y7395762D01*
X15916936Y7541841D01*
X15833400Y7650707D01*
X15825705Y7660736D01*
X15820682Y7667282D01*
X15695241Y7763536D01*
X15549162Y7824044D01*
X15512528Y7828867D01*
X15433334Y7839293D01*
X15392400Y7844682D01*
X15351466Y7839293D01*
X15272273Y7828867D01*
X15235638Y7824044D01*
X15089559Y7763536D01*
X15029611Y7717536D01*
X14963392Y7691937D01*
X14952909Y7691500D01*
X14091310Y7691500D01*
X14080328Y7691980D01*
X14053780Y7694303D01*
X14053778Y7694303D01*
X14042793Y7695264D01*
X14006385Y7685508D01*
X13995658Y7683130D01*
X13991759Y7682442D01*
X13958555Y7676588D01*
X13949003Y7671073D01*
X13945714Y7669876D01*
X13942564Y7668407D01*
X13938365Y7667282D01*
X13931916Y7665554D01*
X13917483Y7655448D01*
X13901049Y7643941D01*
X13891779Y7638036D01*
X13868692Y7624707D01*
X13868688Y7624704D01*
X13859145Y7619194D01*
X13843459Y7600500D01*
X13834925Y7590330D01*
X13827500Y7582228D01*
X13782679Y7537406D01*
X13720368Y7503380D01*
X13693583Y7500500D01*
X13463159Y7500500D01*
X13395038Y7520502D01*
X13350892Y7569297D01*
X13334992Y7600502D01*
X13328450Y7613342D01*
X13238742Y7703050D01*
X13125704Y7760646D01*
X13115915Y7762196D01*
X13115913Y7762197D01*
X13087506Y7766696D01*
X13031919Y7775500D01*
X12725462Y7775500D01*
X12418882Y7775499D01*
X12413989Y7774724D01*
X12413988Y7774724D01*
X12334894Y7762198D01*
X12334892Y7762197D01*
X12325096Y7760646D01*
X12316259Y7756143D01*
X12316258Y7756143D01*
X12293505Y7744549D01*
X12212058Y7703050D01*
X12122350Y7613342D01*
X12064754Y7500304D01*
X12063204Y7490515D01*
X12063203Y7490513D01*
X12062892Y7488547D01*
X12049900Y7406519D01*
X11201792Y7406519D01*
X11197118Y7417143D01*
X11197116Y7417146D01*
X11194625Y7422808D01*
X9460076Y9900000D01*
X8250282Y11627765D01*
X8250281Y11627767D01*
X8246731Y11632836D01*
X8203657Y11674070D01*
X8129316Y11702979D01*
X8090177Y11702126D01*
X8061979Y11701511D01*
X8061977Y11701511D01*
X8049571Y11701240D01*
X8038212Y11696242D01*
X8000657Y11679718D01*
X8000654Y11679716D01*
X7994992Y11677225D01*
X6555552Y10669318D01*
X3821355Y8754812D01*
X3784964Y8729331D01*
X3743730Y8686257D01*
X3714821Y8611916D01*
X3200000Y8611916D01*
X3200000Y13323637D01*
X5192357Y13323637D01*
X5208775Y13128117D01*
X5262858Y12939509D01*
X5272001Y12921718D01*
X5349723Y12770487D01*
X5349726Y12770483D01*
X5352544Y12764999D01*
X5474418Y12611231D01*
X5479111Y12607237D01*
X5479112Y12607236D01*
X5578313Y12522810D01*
X5623838Y12484065D01*
X5629216Y12481059D01*
X5629218Y12481058D01*
X5665532Y12460763D01*
X5795113Y12388343D01*
X5981718Y12327711D01*
X6176546Y12304479D01*
X6182681Y12304951D01*
X6182683Y12304951D01*
X6366034Y12319059D01*
X6366038Y12319060D01*
X6372176Y12319532D01*
X6561156Y12372297D01*
X6736289Y12460763D01*
X6766115Y12484065D01*
X6842660Y12543869D01*
X6890903Y12581560D01*
X6904711Y12597556D01*
X7015085Y12725427D01*
X7015085Y12725428D01*
X7019109Y12730089D01*
X7028487Y12746596D01*
X7069542Y12818867D01*
X7116025Y12900691D01*
X7177958Y13086868D01*
X7196469Y13233400D01*
X18520518Y13233400D01*
X18524981Y13199500D01*
X18535026Y13123204D01*
X18541156Y13076638D01*
X18601664Y12930559D01*
X18697918Y12805118D01*
X18823359Y12708864D01*
X18969438Y12648356D01*
X19126200Y12627718D01*
X19134388Y12628796D01*
X19274774Y12647278D01*
X19282962Y12648356D01*
X19429041Y12708864D01*
X19554482Y12805118D01*
X19650736Y12930559D01*
X19711244Y13076638D01*
X19717375Y13123204D01*
X19727419Y13199500D01*
X19731882Y13233400D01*
X19711244Y13390162D01*
X19650736Y13536241D01*
X19554482Y13661682D01*
X19429041Y13757936D01*
X19282962Y13818444D01*
X19126200Y13839082D01*
X18969438Y13818444D01*
X18823359Y13757936D01*
X18697918Y13661682D01*
X18601664Y13536241D01*
X18541156Y13390162D01*
X18520518Y13233400D01*
X7196469Y13233400D01*
X7202549Y13281529D01*
X7202941Y13309600D01*
X7183794Y13504872D01*
X7182013Y13510771D01*
X7182012Y13510776D01*
X7128865Y13686807D01*
X7127084Y13692706D01*
X7034970Y13865947D01*
X6910961Y14017998D01*
X6759780Y14143065D01*
X6587185Y14236387D01*
X6487864Y14267132D01*
X6405639Y14292585D01*
X6405636Y14292586D01*
X6399752Y14294407D01*
X6393627Y14295051D01*
X6393626Y14295051D01*
X6210747Y14314273D01*
X6210746Y14314273D01*
X6204619Y14314917D01*
X6081983Y14303756D01*
X6015359Y14297693D01*
X6015358Y14297693D01*
X6009218Y14297134D01*
X6003304Y14295393D01*
X6003302Y14295393D01*
X5891549Y14262502D01*
X5820993Y14241736D01*
X5815528Y14238879D01*
X5652572Y14153688D01*
X5652568Y14153685D01*
X5647112Y14150833D01*
X5642312Y14146973D01*
X5642311Y14146973D01*
X5631770Y14138498D01*
X5494200Y14027889D01*
X5368080Y13877584D01*
X5365116Y13872192D01*
X5365113Y13872188D01*
X5304040Y13761096D01*
X5273556Y13705646D01*
X5271695Y13699779D01*
X5271694Y13699777D01*
X5249976Y13631312D01*
X5214228Y13518622D01*
X5192357Y13323637D01*
X3200000Y13323637D01*
X3200000Y22158400D01*
X3220002Y22226521D01*
X3273658Y22273014D01*
X3326000Y22284400D01*
X3696570Y22284400D01*
X3764691Y22264398D01*
G37*
%TD.AperFunction*%
%TD*%
M02*
