%TF.GenerationSoftware,KiCad,Pcbnew,8.0.4*%
%TF.CreationDate,2024-09-18T09:12:31+01:00*%
%TF.ProjectId,BG95V4,42473935-5634-42e6-9b69-6361645f7063,rev?*%
%TF.SameCoordinates,Original*%
%TF.FileFunction,Copper,L1,Top*%
%TF.FilePolarity,Positive*%
%FSLAX46Y46*%
G04 Gerber Fmt 4.6, Leading zero omitted, Abs format (unit mm)*
G04 Created by KiCad (PCBNEW 8.0.4) date 2024-09-18 09:12:31*
%MOMM*%
%LPD*%
G01*
G04 APERTURE LIST*
G04 Aperture macros list*
%AMRoundRect*
0 Rectangle with rounded corners*
0 $1 Rounding radius*
0 $2 $3 $4 $5 $6 $7 $8 $9 X,Y pos of 4 corners*
0 Add a 4 corners polygon primitive as box body*
4,1,4,$2,$3,$4,$5,$6,$7,$8,$9,$2,$3,0*
0 Add four circle primitives for the rounded corners*
1,1,$1+$1,$2,$3*
1,1,$1+$1,$4,$5*
1,1,$1+$1,$6,$7*
1,1,$1+$1,$8,$9*
0 Add four rect primitives between the rounded corners*
20,1,$1+$1,$2,$3,$4,$5,0*
20,1,$1+$1,$4,$5,$6,$7,0*
20,1,$1+$1,$6,$7,$8,$9,0*
20,1,$1+$1,$8,$9,$2,$3,0*%
G04 Aperture macros list end*
%TA.AperFunction,SMDPad,CuDef*%
%ADD10RoundRect,0.218750X0.218750X0.256250X-0.218750X0.256250X-0.218750X-0.256250X0.218750X-0.256250X0*%
%TD*%
%TA.AperFunction,SMDPad,CuDef*%
%ADD11RoundRect,0.218750X-0.256250X0.218750X-0.256250X-0.218750X0.256250X-0.218750X0.256250X0.218750X0*%
%TD*%
%TA.AperFunction,SMDPad,CuDef*%
%ADD12RoundRect,0.250001X-0.837499X-1.399999X0.837499X-1.399999X0.837499X1.399999X-0.837499X1.399999X0*%
%TD*%
%TA.AperFunction,SMDPad,CuDef*%
%ADD13RoundRect,0.237500X0.237500X-0.287500X0.237500X0.287500X-0.237500X0.287500X-0.237500X-0.287500X0*%
%TD*%
%TA.AperFunction,SMDPad,CuDef*%
%ADD14RoundRect,0.237500X0.287500X0.237500X-0.287500X0.237500X-0.287500X-0.237500X0.287500X-0.237500X0*%
%TD*%
%TA.AperFunction,SMDPad,CuDef*%
%ADD15RoundRect,0.237500X-0.237500X0.287500X-0.237500X-0.287500X0.237500X-0.287500X0.237500X0.287500X0*%
%TD*%
%TA.AperFunction,SMDPad,CuDef*%
%ADD16R,0.800000X0.350000*%
%TD*%
%TA.AperFunction,SMDPad,CuDef*%
%ADD17RoundRect,0.150000X-0.825000X-0.150000X0.825000X-0.150000X0.825000X0.150000X-0.825000X0.150000X0*%
%TD*%
%TA.AperFunction,SMDPad,CuDef*%
%ADD18R,0.900000X0.800000*%
%TD*%
%TA.AperFunction,SMDPad,CuDef*%
%ADD19R,0.650000X1.150000*%
%TD*%
%TA.AperFunction,SMDPad,CuDef*%
%ADD20R,0.450000X1.300000*%
%TD*%
%TA.AperFunction,SMDPad,CuDef*%
%ADD21R,1.400000X1.700000*%
%TD*%
%TA.AperFunction,SMDPad,CuDef*%
%ADD22R,0.540000X0.800000*%
%TD*%
%TA.AperFunction,SMDPad,CuDef*%
%ADD23R,0.600000X0.200000*%
%TD*%
%TA.AperFunction,SMDPad,CuDef*%
%ADD24R,0.150000X0.250000*%
%TD*%
%TA.AperFunction,SMDPad,CuDef*%
%ADD25R,0.200000X0.600000*%
%TD*%
%TA.AperFunction,SMDPad,CuDef*%
%ADD26RoundRect,0.200000X-0.200000X-0.275000X0.200000X-0.275000X0.200000X0.275000X-0.200000X0.275000X0*%
%TD*%
%TA.AperFunction,ComponentPad*%
%ADD27R,2.400000X2.400000*%
%TD*%
%TA.AperFunction,ComponentPad*%
%ADD28C,2.400000*%
%TD*%
%TA.AperFunction,SMDPad,CuDef*%
%ADD29C,1.000000*%
%TD*%
%TA.AperFunction,ComponentPad*%
%ADD30R,1.700000X1.700000*%
%TD*%
%TA.AperFunction,ComponentPad*%
%ADD31O,1.700000X1.700000*%
%TD*%
%TA.AperFunction,SMDPad,CuDef*%
%ADD32C,0.500000*%
%TD*%
%TA.AperFunction,SMDPad,CuDef*%
%ADD33RoundRect,0.150000X-0.587500X-0.150000X0.587500X-0.150000X0.587500X0.150000X-0.587500X0.150000X0*%
%TD*%
%TA.AperFunction,ViaPad*%
%ADD34C,0.800000*%
%TD*%
%TA.AperFunction,ViaPad*%
%ADD35C,1.200000*%
%TD*%
%TA.AperFunction,Conductor*%
%ADD36C,0.250000*%
%TD*%
%TA.AperFunction,Conductor*%
%ADD37C,1.000000*%
%TD*%
%TA.AperFunction,Conductor*%
%ADD38C,0.200000*%
%TD*%
G04 APERTURE END LIST*
D10*
%TO.P,C1,1*%
%TO.N,/uRST*%
X31297500Y6500000D03*
%TO.P,C1,2*%
%TO.N,/uGND*%
X29722500Y6500000D03*
%TD*%
%TO.P,C2,1*%
%TO.N,/uCLK*%
X31047500Y10190000D03*
%TO.P,C2,2*%
%TO.N,/uGND*%
X29472500Y10190000D03*
%TD*%
%TO.P,C3,1*%
%TO.N,/uData*%
X31750100Y4860000D03*
%TO.P,C3,2*%
%TO.N,/uGND*%
X30175100Y4860000D03*
%TD*%
D11*
%TO.P,C4,1*%
%TO.N,/uGND*%
X26797000Y7010500D03*
%TO.P,C4,2*%
%TO.N,/uVDD*%
X26797000Y5435500D03*
%TD*%
D12*
%TO.P,C6,1*%
%TO.N,/VBAT*%
X49390500Y8890000D03*
%TO.P,C6,2*%
%TO.N,GND*%
X55765500Y8890000D03*
%TD*%
D13*
%TO.P,C7,1*%
%TO.N,/VBAT*%
X53300000Y1525000D03*
%TO.P,C7,2*%
%TO.N,GND*%
X53300000Y3275000D03*
%TD*%
D14*
%TO.P,C8,1*%
%TO.N,/VBAT*%
X24141400Y11734800D03*
%TO.P,C8,2*%
%TO.N,GND*%
X22391400Y11734800D03*
%TD*%
D13*
%TO.P,C9,1*%
%TO.N,/VBAT*%
X54900000Y1525000D03*
%TO.P,C9,2*%
%TO.N,GND*%
X54900000Y3275000D03*
%TD*%
D14*
%TO.P,C10,1*%
%TO.N,/VBAT*%
X24141400Y13309600D03*
%TO.P,C10,2*%
%TO.N,GND*%
X22391400Y13309600D03*
%TD*%
D13*
%TO.P,C11,1*%
%TO.N,/VBAT*%
X56500000Y1525000D03*
%TO.P,C11,2*%
%TO.N,GND*%
X56500000Y3275000D03*
%TD*%
D15*
%TO.P,C12,1*%
%TO.N,/VBAT*%
X26797000Y10287000D03*
%TO.P,C12,2*%
%TO.N,GND*%
X26797000Y8537000D03*
%TD*%
D16*
%TO.P,D1,1*%
%TO.N,unconnected-(D1-Pad1)*%
X29560000Y9050000D03*
%TO.P,D1,2*%
%TO.N,/uGND*%
X29560000Y8400000D03*
%TO.P,D1,3*%
%TO.N,unconnected-(D1-Pad3)*%
X29560000Y7750000D03*
%TO.P,D1,4*%
%TO.N,/uRST*%
X31460000Y7750000D03*
%TO.P,D1,5*%
%TO.N,/uData*%
X31460000Y8400000D03*
%TO.P,D1,6*%
%TO.N,/uCLK*%
X31460000Y9050000D03*
%TD*%
D17*
%TO.P,Q2,1,S*%
%TO.N,/+3V6d*%
X19150000Y9555000D03*
%TO.P,Q2,2,S*%
X19150000Y8285000D03*
%TO.P,Q2,3,S*%
X19150000Y7015000D03*
%TO.P,Q2,4,G*%
%TO.N,Net-(Q1-Pad3)*%
X19150000Y5745000D03*
%TO.P,Q2,5,D*%
%TO.N,/VBAT*%
X24100000Y5745000D03*
%TO.P,Q2,6,D*%
X24100000Y7015000D03*
%TO.P,Q2,7,D*%
X24100000Y8285000D03*
%TO.P,Q2,8,D*%
X24100000Y9555000D03*
%TD*%
D18*
%TO.P,Q8,1,B*%
%TO.N,/Status*%
X52594000Y15428000D03*
%TO.P,Q8,2,E*%
%TO.N,GND*%
X52594000Y13528000D03*
%TO.P,Q8,3,C*%
%TO.N,/uStatus*%
X54594000Y14478000D03*
%TD*%
D10*
%TO.P,R1,1*%
%TO.N,/uVDD*%
X38658900Y711200D03*
%TO.P,R1,2*%
%TO.N,/uData*%
X37083900Y711200D03*
%TD*%
D19*
%TO.P,J11,C1,VCC*%
%TO.N,/uVDD*%
X36945000Y3605000D03*
%TO.P,J11,C2,RST*%
%TO.N,/uRST*%
X39485000Y3605000D03*
%TO.P,J11,C3,CLK*%
%TO.N,/uCLK*%
X42025000Y3605000D03*
%TO.P,J11,C5,GND*%
%TO.N,/uGND*%
X35675000Y3605000D03*
%TO.P,J11,C6,VPP*%
%TO.N,unconnected-(J11-PadC6)*%
X38215000Y3605000D03*
%TO.P,J11,C7,I/O*%
%TO.N,/uData*%
X40755000Y3605000D03*
D20*
%TO.P,J11,G1,GND*%
%TO.N,/uGND*%
X33430000Y5775000D03*
%TO.P,J11,G2,GND*%
X33430000Y7775000D03*
%TO.P,J11,G3,GND*%
X45970000Y5775000D03*
%TO.P,J11,G4,GND*%
X45970000Y7775000D03*
D21*
%TO.P,J11,G5,GND*%
X45805000Y17335000D03*
%TO.P,J11,G6,GND*%
X33595000Y17335000D03*
D22*
%TO.P,J11,X1*%
%TO.N,N/C*%
X37160000Y16755000D03*
%TO.P,J11,X2*%
X42240000Y16755000D03*
%TD*%
D23*
%TO.P,U2,1,VCCA*%
%TO.N,/VDD_EXT*%
X60425000Y13425000D03*
D24*
X60650000Y13600000D03*
D23*
%TO.P,U2,2,A1*%
%TO.N,/DTR*%
X60425000Y13025000D03*
%TO.P,U2,3,A2*%
%TO.N,/DCD*%
X60425000Y12625000D03*
%TO.P,U2,4,A3*%
%TO.N,/RXD*%
X60425000Y12225000D03*
%TO.P,U2,5,A4*%
%TO.N,/TXD*%
X60425000Y11825000D03*
D25*
%TO.P,U2,6,GND*%
%TO.N,GND*%
X61075000Y11825000D03*
D23*
%TO.P,U2,7,B4*%
%TO.N,/RxD*%
X61725000Y11825000D03*
%TO.P,U2,8,B3*%
%TO.N,/TxD*%
X61725000Y12225000D03*
%TO.P,U2,9,B2*%
%TO.N,/uDCD*%
X61725000Y12625000D03*
%TO.P,U2,10,B1*%
%TO.N,/uDTR*%
X61725000Y13025000D03*
%TO.P,U2,11,VCCB*%
%TO.N,/+3V3_UC*%
X61725000Y13425000D03*
D25*
%TO.P,U2,12,OE*%
%TO.N,Net-(R3-Pad2)*%
X61075000Y13425000D03*
%TD*%
D26*
%TO.P,R3,1*%
%TO.N,/VDD_EXT*%
X60300000Y15725000D03*
%TO.P,R3,2*%
%TO.N,Net-(R3-Pad2)*%
X61950000Y15725000D03*
%TD*%
D27*
%TO.P,BT1,1,+*%
%TO.N,/+3V6d*%
X11750000Y19500000D03*
D28*
%TO.P,BT1,2,-*%
%TO.N,GND*%
X11750000Y-1500000D03*
%TO.P,BT1,3,-*%
X15500000Y-1500000D03*
%TO.P,BT1,4,-*%
X8000000Y-1500000D03*
%TD*%
D29*
%TO.P,FID1,*%
%TO.N,*%
X72237600Y20294600D03*
%TD*%
D30*
%TO.P,J1,1,Pin_1*%
%TO.N,/+3V6*%
X4800000Y21100000D03*
D31*
%TO.P,J1,2,Pin_2*%
%TO.N,/+3V6d*%
X7340000Y21100000D03*
%TD*%
D29*
%TO.P,FID4,*%
%TO.N,*%
X6223000Y2794000D03*
%TD*%
D32*
%TO.P,TP1,1,1*%
%TO.N,unconnected-(TP1-Pad1)*%
X71689600Y5511800D03*
%TD*%
D33*
%TO.P,Q3,1,B*%
%TO.N,/uPWRKEY*%
X48671000Y16190000D03*
%TO.P,Q3,2,E*%
%TO.N,GND*%
X48671000Y14290000D03*
%TO.P,Q3,3,C*%
%TO.N,/PWRKEY*%
X50546000Y15240000D03*
%TD*%
D34*
%TO.N,GND*%
X73533000Y13685394D03*
X31369000Y17399000D03*
X39370000Y16510000D03*
X73533000Y6065394D03*
X65913000Y21305394D03*
X73533000Y985394D03*
X73533000Y8605394D03*
X58432288Y3644211D03*
X48133000Y-1554606D03*
X15113000Y11145394D03*
X36195000Y13335000D03*
X70993000Y8605394D03*
X17653000Y-1554606D03*
X37973000Y-1554606D03*
X58293000Y-1554606D03*
X63373000Y21305394D03*
X44450000Y8890000D03*
X4749800Y15214600D03*
X35560000Y-1270000D03*
X30353000Y21305394D03*
X60147200Y10947400D03*
X73533000Y-1554606D03*
X41910000Y8890000D03*
X31496000Y13208000D03*
X18135600Y16179800D03*
X22733000Y16225394D03*
X20193000Y-1554606D03*
X7493000Y18765394D03*
X12573000Y11145394D03*
X70993000Y11145394D03*
X53213000Y-1554606D03*
X32893000Y13208000D03*
X60833000Y21305394D03*
X28575000Y13462000D03*
X55880000Y-1270000D03*
X36195000Y14478000D03*
X25273000Y985394D03*
X45720000Y-1270000D03*
X45593000Y3525394D03*
X12573000Y8605394D03*
X25908000Y14859000D03*
X22733000Y-1554606D03*
X15113000Y3525394D03*
X68453000Y21305394D03*
X10033000Y3525394D03*
X22707600Y21285200D03*
X32893000Y-1554606D03*
X25400000Y3810000D03*
X36195000Y16637000D03*
X32893000Y21305394D03*
X49430000Y13150000D03*
X36195000Y15494000D03*
X24511000Y14986000D03*
X22733000Y18765394D03*
X30353000Y-1554606D03*
X27051000Y13335000D03*
X11099800Y17170400D03*
X28829000Y14859000D03*
X14046200Y17170400D03*
X60833000Y-1554606D03*
X31089600Y19634200D03*
X70993000Y13685394D03*
X73533000Y11145394D03*
X70993000Y985394D03*
X68453000Y-1554606D03*
X63373000Y-1554606D03*
X54250000Y6740000D03*
X13106400Y13055600D03*
X10033000Y11145394D03*
X70993000Y3525394D03*
X20193000Y3525394D03*
X70993000Y-1554606D03*
X4953000Y11145394D03*
X73533000Y3525394D03*
X40640000Y-1270000D03*
X30607000Y14859000D03*
X50800000Y-1270000D03*
X7493000Y985394D03*
X43053000Y-1554606D03*
X9779000Y13055600D03*
X8331200Y17043400D03*
%TO.N,/uGND*%
X42675000Y10600000D03*
X34510000Y1960000D03*
X42400000Y13250000D03*
%TO.N,/uRST*%
X41540000Y719989D03*
%TO.N,/uCLK*%
X32580000Y9900000D03*
X39200000Y5700000D03*
%TO.N,/uData*%
X40130000Y720000D03*
%TO.N,/uVDD*%
X43070000Y530000D03*
%TO.N,/VBAT*%
X57960000Y830000D03*
X47233980Y10491020D03*
D35*
X28200000Y11900000D03*
D34*
%TO.N,/uStatus*%
X67825000Y16100000D03*
%TO.N,/uPWRKEY*%
X68675000Y13500000D03*
%TO.N,/uDTR*%
X63275000Y16125000D03*
%TO.N,/TxD*%
X64050000Y11275000D03*
%TO.N,/RxD*%
X64050000Y7550000D03*
%TO.N,/uDCD*%
X64625000Y16025000D03*
%TO.N,Net-(Q1-Pad3)*%
X15417800Y5308600D03*
%TO.N,/RXD*%
X50775000Y3850000D03*
%TO.N,/TXD*%
X51800000Y2950000D03*
%TO.N,/VDD_EXT*%
X58350000Y14625000D03*
%TO.N,/DTR*%
X58975000Y13350000D03*
%TO.N,/DCD*%
X48768000Y3048000D03*
%TO.N,/PWRKEY*%
X51917600Y21234400D03*
%TO.N,/Status*%
X53695600Y16738600D03*
%TO.N,/Alim*%
X20400000Y475000D03*
X30962600Y330200D03*
%TO.N,/+3V6d*%
X19126200Y13233400D03*
X15392400Y7239000D03*
%TO.N,/+3V3_UC*%
X68500000Y3275000D03*
X67250000Y13500000D03*
X63525000Y14300000D03*
%TO.N,/T*%
X59512200Y8763000D03*
X54889400Y13182600D03*
%TO.N,/D+*%
X59283600Y18389600D03*
X44983400Y21234400D03*
%TO.N,/D-*%
X46151800Y21183600D03*
X59125498Y19659600D03*
%TD*%
D36*
%TO.N,GND*%
X56250000Y3250000D02*
X56300000Y3200000D01*
X55765500Y8255500D02*
X54250000Y6740000D01*
X60406600Y10775000D02*
X60250000Y10775000D01*
X56500000Y3275000D02*
X58055000Y3275000D01*
X53300000Y3275000D02*
X54875000Y3275000D01*
X61075000Y11825000D02*
X61075000Y11025000D01*
X55765500Y8890000D02*
X55765500Y8255500D01*
X60825000Y10775000D02*
X60406600Y10775000D01*
X49430000Y13150000D02*
X49808000Y13528000D01*
X60406600Y10775000D02*
X60319600Y10775000D01*
X58432288Y3647712D02*
X58432288Y3644211D01*
X60319600Y10775000D02*
X60147200Y10947400D01*
X48900000Y13150000D02*
X49430000Y13150000D01*
X60250000Y10775000D02*
X60225000Y10800000D01*
X58055000Y3275000D02*
X58430000Y3650000D01*
X48671000Y14290000D02*
X48671000Y13379000D01*
X54900000Y3275000D02*
X56275000Y3275000D01*
X48671000Y13379000D02*
X48900000Y13150000D01*
X54875000Y3275000D02*
X54900000Y3250000D01*
X49808000Y13528000D02*
X52594000Y13528000D01*
X54875000Y3275000D02*
X54900000Y3300000D01*
X58430000Y3650000D02*
X58432288Y3647712D01*
X61075000Y11025000D02*
X60825000Y10775000D01*
%TO.N,/uGND*%
X33430000Y7775000D02*
X35925000Y7775000D01*
X35675000Y4725000D02*
X34500000Y5900000D01*
X43025000Y7775000D02*
X43025000Y10250000D01*
X42400000Y13250000D02*
X45175000Y13250000D01*
X28010000Y6900000D02*
X28410000Y6500000D01*
X34500000Y5900000D02*
X33600000Y5900000D01*
X29472500Y10190000D02*
X29472500Y10922500D01*
X36795000Y7775000D02*
X43025000Y7775000D01*
X45240000Y17900000D02*
X45805000Y17335000D01*
X28410000Y6500000D02*
X29610000Y6500000D01*
X28110000Y8400000D02*
X28010000Y8300000D01*
X27899500Y7010500D02*
X28010000Y6900000D01*
X26797000Y7010500D02*
X27899500Y7010500D01*
X29600000Y11050000D02*
X29010000Y11050000D01*
X32785480Y11050000D02*
X29600000Y11050000D01*
X45925000Y7775000D02*
X46000000Y7700000D01*
X29472500Y10922500D02*
X29600000Y11050000D01*
X35550000Y17900000D02*
X45240000Y17900000D01*
X46000000Y7700000D02*
X46000000Y5800000D01*
X29722500Y5312600D02*
X30175100Y4860000D01*
X35675000Y3605000D02*
X35675000Y3135000D01*
X29010000Y11050000D02*
X28160000Y10200000D01*
X43025000Y10250000D02*
X42675000Y10600000D01*
X35675000Y3605000D02*
X35675000Y4725000D01*
X28010000Y10050000D02*
X28010000Y8300000D01*
X45805000Y13880000D02*
X45805000Y17335000D01*
X43025000Y7775000D02*
X45925000Y7775000D01*
X35925000Y7775000D02*
X36795000Y7775000D01*
X34985000Y17335000D02*
X35550000Y17900000D01*
X33400000Y5900000D02*
X33400000Y7800000D01*
X33600000Y5900000D02*
X33400000Y5900000D01*
X29722500Y6500000D02*
X29722500Y5312600D01*
X33430000Y10405480D02*
X32785480Y11050000D01*
X28010000Y6900000D02*
X28010000Y8300000D01*
X35675000Y3135000D02*
X35675000Y3125000D01*
X29560000Y8400000D02*
X28110000Y8400000D01*
X45175000Y13250000D02*
X45805000Y13880000D01*
X28160000Y10200000D02*
X28010000Y10050000D01*
X33595000Y17335000D02*
X34985000Y17335000D01*
X33430000Y7775000D02*
X33430000Y10405480D01*
X35675000Y3125000D02*
X34510000Y1960000D01*
%TO.N,/uRST*%
X32380000Y6500000D02*
X32870000Y6010000D01*
X36590000Y2630000D02*
X39320000Y2630000D01*
X42950000Y5380000D02*
X42950000Y2980978D01*
X32870000Y2380000D02*
X34050000Y1200000D01*
X41905489Y6424511D02*
X42950000Y5380000D01*
X31297500Y6500000D02*
X31297500Y7587500D01*
X41540000Y1570978D02*
X41540000Y719989D01*
X38475489Y5104511D02*
X38475489Y6000103D01*
X39485000Y4095000D02*
X38475489Y5104511D01*
X32870000Y6010000D02*
X32870000Y2380000D01*
X34050000Y1200000D02*
X35160000Y1200000D01*
X39485000Y3605000D02*
X39485000Y4095000D01*
X35160000Y1200000D02*
X36590000Y2630000D01*
X39320000Y2630000D02*
X39485000Y2795000D01*
X39485000Y2795000D02*
X39485000Y3605000D01*
X38899897Y6424511D02*
X41905489Y6424511D01*
X38475489Y6000103D02*
X38899897Y6424511D01*
X31297500Y6500000D02*
X32380000Y6500000D01*
X31297500Y7587500D02*
X31460000Y7750000D01*
X42950000Y2980978D02*
X41540000Y1570978D01*
%TO.N,/uCLK*%
X32330000Y9050000D02*
X32580000Y9300000D01*
X41500000Y5700000D02*
X39200000Y5700000D01*
X42025000Y5175000D02*
X41500000Y5700000D01*
X31460000Y9050000D02*
X32330000Y9050000D01*
X31047500Y9462500D02*
X31460000Y9050000D01*
X31047500Y10190000D02*
X31047500Y9462500D01*
X42025000Y3605000D02*
X42025000Y5175000D01*
X32580000Y9300000D02*
X32580000Y9900000D01*
%TO.N,/uData*%
X40500480Y2180480D02*
X37181680Y2180480D01*
X31750100Y2870100D02*
X31750100Y4860000D01*
X37083900Y2082700D02*
X37181680Y2180480D01*
X40130000Y720000D02*
X40755000Y1345000D01*
X40755000Y2435000D02*
X40500480Y2180480D01*
X40755000Y2435000D02*
X40755000Y3605000D01*
X36840480Y2180480D02*
X35410000Y750000D01*
X31460000Y8400000D02*
X30810000Y8400000D01*
X30810000Y8400000D02*
X30520000Y8110000D01*
X30810200Y5562600D02*
X31343600Y5562600D01*
X33864283Y750000D02*
X32420480Y2193803D01*
X37083900Y711200D02*
X37083900Y2082700D01*
X30520000Y8110000D02*
X30520000Y5852800D01*
X31750100Y5156100D02*
X31750100Y4860000D01*
X32420480Y2199720D02*
X31750100Y2870100D01*
X31343600Y5562600D02*
X31750100Y5156100D01*
X40755000Y1345000D02*
X40755000Y2435000D01*
X32420480Y2193803D02*
X32420480Y2199720D01*
X30520000Y5852800D02*
X30810200Y5562600D01*
X35410000Y750000D02*
X33864283Y750000D01*
X37181680Y2180480D02*
X36840480Y2180480D01*
%TO.N,/uVDD*%
X38658900Y-330300D02*
X38760400Y-431800D01*
X43070000Y530000D02*
X43410000Y870000D01*
X38760400Y-431800D02*
X42108200Y-431800D01*
X29692600Y3937000D02*
X28194100Y5435500D01*
X28194100Y5435500D02*
X26797000Y5435500D01*
X36945000Y5945000D02*
X36945000Y3605000D01*
X31191200Y3505200D02*
X30759400Y3937000D01*
X31191200Y2743200D02*
X31191200Y3505200D01*
X30759400Y3937000D02*
X29692600Y3937000D01*
X43410000Y870000D02*
X43410000Y5610000D01*
X37874031Y6874031D02*
X36945000Y5945000D01*
X42108200Y-431800D02*
X43070000Y530000D01*
X34366200Y-431800D02*
X31191200Y2743200D01*
X38658900Y711200D02*
X38658900Y-330300D01*
X43410000Y5610000D02*
X42145969Y6874031D01*
X38760400Y-431800D02*
X34366200Y-431800D01*
X42145969Y6874031D02*
X37874031Y6874031D01*
D37*
%TO.N,/VBAT*%
X24100000Y7015000D02*
X24100000Y5745000D01*
X26835000Y10325000D02*
X26797000Y10287000D01*
X26835000Y11900000D02*
X26835000Y10325000D01*
X28200000Y11900000D02*
X26835000Y11900000D01*
X47233980Y10491020D02*
X47233980Y9408020D01*
X24141400Y11734800D02*
X24141400Y13309600D01*
X47752000Y8890000D02*
X49390500Y8890000D01*
X24100000Y9555000D02*
X24100000Y8285000D01*
X26835000Y11900000D02*
X24306600Y11900000D01*
X24100000Y9555000D02*
X24100000Y11693400D01*
X47233980Y9408020D02*
X47752000Y8890000D01*
X53300000Y1525000D02*
X54475000Y1525000D01*
X56500000Y1525000D02*
X57265000Y1525000D01*
X57265000Y1525000D02*
X57960000Y830000D01*
X53300000Y1525000D02*
X56500000Y1525000D01*
X24100000Y11693400D02*
X24141400Y11734800D01*
X24100000Y8285000D02*
X24100000Y7015000D01*
X54475000Y1525000D02*
X54500000Y1500000D01*
X54825000Y1525000D02*
X54900000Y1600000D01*
X24306600Y11900000D02*
X24141400Y11734800D01*
D38*
%TO.N,/uStatus*%
X67050000Y16875000D02*
X67825000Y16100000D01*
X59125000Y16875000D02*
X67050000Y16875000D01*
X54594000Y14478000D02*
X56728000Y14478000D01*
X56728000Y14478000D02*
X59125000Y16875000D01*
D36*
%TO.N,/uPWRKEY*%
X48671000Y16190000D02*
X49483980Y15377020D01*
X58900000Y17400000D02*
X67750000Y17400000D01*
X67750000Y17400000D02*
X68675000Y16475000D01*
X56740000Y15240000D02*
X58900000Y17400000D01*
X49483980Y15377020D02*
X49483980Y14893448D01*
X49899428Y14478000D02*
X52860511Y14478000D01*
X52860511Y14478000D02*
X53086000Y14703489D01*
X53848000Y15240000D02*
X56740000Y15240000D01*
X49483980Y14893448D02*
X49899428Y14478000D01*
X53086000Y14703489D02*
X53311489Y14703489D01*
X68675000Y16475000D02*
X68675000Y13500000D01*
X53311489Y14703489D02*
X53848000Y15240000D01*
D38*
%TO.N,/uDTR*%
X64100000Y13425000D02*
X63475000Y13425000D01*
X64350000Y14875000D02*
X64350000Y13675000D01*
X63475000Y13425000D02*
X63075000Y13025000D01*
X64350000Y13675000D02*
X64100000Y13425000D01*
X63975000Y15250000D02*
X64350000Y14875000D01*
X63975000Y15250000D02*
X63275000Y15950000D01*
X63075000Y13025000D02*
X61725000Y13025000D01*
X63275000Y15950000D02*
X63275000Y16125000D01*
%TO.N,/TxD*%
X61725000Y12225000D02*
X63600000Y12225000D01*
X64050000Y11775000D02*
X64050000Y11275000D01*
X63600000Y12225000D02*
X64050000Y11775000D01*
%TO.N,/RxD*%
X63175000Y11275000D02*
X63175000Y8425000D01*
X61725000Y11825000D02*
X62625000Y11825000D01*
X63175000Y8425000D02*
X64050000Y7550000D01*
X62625000Y11825000D02*
X63175000Y11275000D01*
%TO.N,/uDCD*%
X61725000Y12625000D02*
X64350000Y12625000D01*
X64950000Y15800000D02*
X64725000Y16025000D01*
X64350000Y12625000D02*
X64950000Y13225000D01*
X64725000Y16025000D02*
X64625000Y16025000D01*
X64950000Y13225000D02*
X64950000Y15800000D01*
D36*
%TO.N,Net-(Q1-Pad3)*%
X15430000Y5296400D02*
X15417800Y5308600D01*
X19150000Y5745000D02*
X17339600Y5745000D01*
X16891000Y5296400D02*
X15430000Y5296400D01*
X17339600Y5745000D02*
X16891000Y5296400D01*
%TO.N,/RXD*%
X57850000Y4750000D02*
X58325000Y5225000D01*
X58325000Y5225000D02*
X58325000Y12100000D01*
D38*
X58450000Y12225000D02*
X58325000Y12100000D01*
X60425000Y12225000D02*
X58450000Y12225000D01*
D36*
X50775000Y3850000D02*
X50775000Y4350000D01*
X51175000Y4750000D02*
X57850000Y4750000D01*
X50775000Y4350000D02*
X51175000Y4750000D01*
D38*
%TO.N,/TXD*%
X60425000Y11825000D02*
X59200000Y11825000D01*
X59200000Y11825000D02*
X58825000Y11450000D01*
D36*
X58787699Y5012699D02*
X58787699Y11412699D01*
X58075000Y4300000D02*
X58787699Y5012699D01*
X51800000Y2950000D02*
X51800000Y4175000D01*
X51925000Y4300000D02*
X58075000Y4300000D01*
X58787699Y11412699D02*
X58825000Y11450000D01*
X51800000Y4175000D02*
X51925000Y4300000D01*
D38*
%TO.N,/VDD_EXT*%
X60225000Y14625000D02*
X60025000Y14625000D01*
X60300000Y15725000D02*
X60025000Y15450000D01*
X60025000Y15450000D02*
X60025000Y14625000D01*
X60650000Y14200000D02*
X60225000Y14625000D01*
X60650000Y13600000D02*
X60650000Y14200000D01*
X60025000Y14625000D02*
X58350000Y14625000D01*
%TO.N,/DTR*%
X59350000Y13350000D02*
X58975000Y13350000D01*
X59675000Y13025000D02*
X59350000Y13350000D01*
X60425000Y13025000D02*
X59675000Y13025000D01*
D36*
%TO.N,/DCD*%
X57774960Y12299960D02*
X58000000Y12525000D01*
X50937040Y5217040D02*
X57166960Y5217040D01*
D38*
X60425000Y12625000D02*
X58100000Y12625000D01*
D36*
X48768000Y3048000D02*
X50937040Y5217040D01*
X57166960Y5217040D02*
X57774960Y5825040D01*
D38*
X58100000Y12625000D02*
X58000000Y12525000D01*
D36*
X57774960Y5825040D02*
X57774960Y12299960D01*
%TO.N,/PWRKEY*%
X51130200Y21234400D02*
X51917600Y21234400D01*
X50546000Y20650200D02*
X51130200Y21234400D01*
X50546000Y15240000D02*
X50546000Y20650200D01*
%TO.N,/Status*%
X52594000Y15637000D02*
X53695600Y16738600D01*
X52594000Y15428000D02*
X52594000Y15637000D01*
D37*
%TO.N,/+3V6d*%
X19150000Y11936400D02*
X19150000Y9555000D01*
X19126200Y13233400D02*
X19126200Y11960200D01*
X19126200Y11960200D02*
X19150000Y11936400D01*
X19150000Y8285000D02*
X19150000Y9555000D01*
X19150000Y7015000D02*
X19150000Y8285000D01*
D36*
X15824200Y7239000D02*
X15392400Y7239000D01*
X16116800Y6946400D02*
X15824200Y7239000D01*
X19081400Y6946400D02*
X16116800Y6946400D01*
X19150000Y7015000D02*
X19081400Y6946400D01*
D38*
%TO.N,/+3V3_UC*%
X68075000Y3700000D02*
X68500000Y3275000D01*
X67250000Y13500000D02*
X68075000Y12675000D01*
X63400000Y14300000D02*
X63525000Y14300000D01*
X68075000Y12675000D02*
X68075000Y3700000D01*
X61725000Y13425000D02*
X62525000Y13425000D01*
X62525000Y13425000D02*
X63400000Y14300000D01*
%TO.N,Net-(R3-Pad2)*%
X61075000Y14300000D02*
X61400000Y14625000D01*
X61075000Y13425000D02*
X61075000Y14300000D01*
X61675000Y14625000D02*
X61950000Y14900000D01*
X61400000Y14625000D02*
X61675000Y14625000D01*
X61950000Y14900000D02*
X61950000Y15725000D01*
%TD*%
%TA.AperFunction,Conductor*%
%TO.N,GND*%
G36*
X32386500Y16436866D02*
G01*
X32393255Y16374684D01*
X32444385Y16238295D01*
X32531739Y16121739D01*
X32538919Y16116358D01*
X32600000Y16070580D01*
X32600000Y15900000D01*
X35400000Y15900000D01*
X35400000Y12800000D01*
X28851076Y12800000D01*
X28710288Y12888831D01*
X28710283Y12888833D01*
X28705404Y12891912D01*
X28516180Y12967405D01*
X28316366Y13007151D01*
X28310592Y13007227D01*
X28310588Y13007227D01*
X28207452Y13008576D01*
X28112655Y13009817D01*
X28106958Y13008838D01*
X28106957Y13008838D01*
X27917567Y12976295D01*
X27911870Y12975316D01*
X27781182Y12927103D01*
X27751868Y12916288D01*
X27708257Y12908500D01*
X27500000Y12908500D01*
X27500000Y17900000D01*
X32386500Y17900000D01*
X32386500Y16436866D01*
G37*
%TD.AperFunction*%
%TD*%
%TA.AperFunction,Conductor*%
%TO.N,GND*%
G36*
X3764691Y22264398D02*
G01*
X3811184Y22210742D01*
X3821288Y22140468D01*
X3801335Y22088398D01*
X3768027Y22038550D01*
X3768025Y22038546D01*
X3761133Y22028231D01*
X3749500Y21969748D01*
X3749500Y20230252D01*
X3750707Y20224184D01*
X3754331Y20205967D01*
X3761133Y20171769D01*
X3805448Y20105448D01*
X3871769Y20061133D01*
X3883938Y20058712D01*
X3883939Y20058712D01*
X3924184Y20050707D01*
X3930252Y20049500D01*
X5669748Y20049500D01*
X5675816Y20050707D01*
X5716061Y20058712D01*
X5716062Y20058712D01*
X5728231Y20061133D01*
X5794552Y20105448D01*
X5838867Y20171769D01*
X5845670Y20205967D01*
X5849293Y20224184D01*
X5850500Y20230252D01*
X5850500Y21969748D01*
X5838867Y22028231D01*
X5831975Y22038546D01*
X5831973Y22038550D01*
X5798665Y22088398D01*
X5777450Y22156150D01*
X5796233Y22224617D01*
X5849050Y22272061D01*
X5903430Y22284400D01*
X6825022Y22284400D01*
X6893143Y22264398D01*
X6939636Y22210742D01*
X6949740Y22140468D01*
X6920246Y22075888D01*
X6883398Y22046739D01*
X6762002Y21983274D01*
X6757201Y21979414D01*
X6757198Y21979412D01*
X6606254Y21858050D01*
X6601447Y21854185D01*
X6469024Y21696370D01*
X6466056Y21690972D01*
X6466053Y21690967D01*
X6390225Y21553035D01*
X6369776Y21515838D01*
X6307484Y21319468D01*
X6306798Y21313351D01*
X6306797Y21313347D01*
X6287206Y21138688D01*
X6284520Y21114738D01*
X6285036Y21108594D01*
X6292749Y21016748D01*
X6301759Y20909447D01*
X6303458Y20903522D01*
X6345955Y20755318D01*
X6358544Y20711414D01*
X6361359Y20705937D01*
X6361360Y20705934D01*
X6414921Y20601716D01*
X6452712Y20528182D01*
X6580677Y20366730D01*
X6585370Y20362736D01*
X6585371Y20362735D01*
X6665430Y20294600D01*
X6737564Y20233209D01*
X6917398Y20132703D01*
X6995897Y20107197D01*
X7107471Y20070944D01*
X7107475Y20070943D01*
X7113329Y20069041D01*
X7317894Y20044649D01*
X7324029Y20045121D01*
X7324031Y20045121D01*
X7396625Y20050707D01*
X7523300Y20060454D01*
X7529230Y20062110D01*
X7529232Y20062110D01*
X7690715Y20107197D01*
X7721725Y20115855D01*
X7727214Y20118628D01*
X7727220Y20118630D01*
X7900116Y20205967D01*
X7905610Y20208742D01*
X7952943Y20245722D01*
X7986780Y20272159D01*
X8067951Y20335576D01*
X8202564Y20491528D01*
X8205959Y20497503D01*
X8263364Y20598556D01*
X8304323Y20670656D01*
X8369351Y20866137D01*
X8395171Y21070526D01*
X8395583Y21100000D01*
X8382405Y21234400D01*
X44377718Y21234400D01*
X44398356Y21077638D01*
X44458864Y20931559D01*
X44555118Y20806118D01*
X44680559Y20709864D01*
X44826638Y20649356D01*
X44983400Y20628718D01*
X44991588Y20629796D01*
X45131974Y20648278D01*
X45140162Y20649356D01*
X45286241Y20709864D01*
X45411682Y20806118D01*
X45416705Y20812664D01*
X45416709Y20812668D01*
X45448148Y20853640D01*
X45505486Y20895507D01*
X45576357Y20899729D01*
X45638259Y20864965D01*
X45648073Y20853640D01*
X45707598Y20776066D01*
X45723518Y20755318D01*
X45848959Y20659064D01*
X45995038Y20598556D01*
X46151800Y20577918D01*
X46159988Y20578996D01*
X46300374Y20597478D01*
X46308562Y20598556D01*
X46454641Y20659064D01*
X46580082Y20755318D01*
X46596003Y20776066D01*
X46649278Y20845496D01*
X46676336Y20880759D01*
X46736844Y21026838D01*
X46757482Y21183600D01*
X46736844Y21340362D01*
X46676336Y21486441D01*
X46580082Y21611882D01*
X46454641Y21708136D01*
X46308562Y21768644D01*
X46151800Y21789282D01*
X45995038Y21768644D01*
X45848959Y21708136D01*
X45723518Y21611882D01*
X45718495Y21605336D01*
X45718491Y21605332D01*
X45687052Y21564360D01*
X45629714Y21522493D01*
X45558843Y21518271D01*
X45496941Y21553035D01*
X45487127Y21564360D01*
X45416705Y21656136D01*
X45411682Y21662682D01*
X45286241Y21758936D01*
X45140162Y21819444D01*
X44983400Y21840082D01*
X44826638Y21819444D01*
X44680559Y21758936D01*
X44555118Y21662682D01*
X44458864Y21537241D01*
X44398356Y21391162D01*
X44377718Y21234400D01*
X8382405Y21234400D01*
X8375480Y21305030D01*
X8315935Y21502251D01*
X8219218Y21684151D01*
X8111453Y21816284D01*
X8092906Y21839025D01*
X8092903Y21839028D01*
X8089011Y21843800D01*
X8071786Y21858050D01*
X7935025Y21971189D01*
X7935021Y21971191D01*
X7930275Y21975118D01*
X7854552Y22016061D01*
X7796289Y22047564D01*
X7745880Y22097559D01*
X7730503Y22166870D01*
X7755039Y22233492D01*
X7811699Y22276273D01*
X7856218Y22284400D01*
X74293200Y22284400D01*
X74361321Y22264398D01*
X74407814Y22210742D01*
X74419200Y22158400D01*
X74419200Y-2654000D01*
X74399198Y-2722121D01*
X74345542Y-2768614D01*
X74293200Y-2780000D01*
X28280674Y-2780000D01*
X28212553Y-2759998D01*
X28166060Y-2706342D01*
X28155956Y-2636068D01*
X28185450Y-2571488D01*
X28219492Y-2543851D01*
X28369835Y-2460343D01*
X28369836Y-2460342D01*
X28373828Y-2458125D01*
X28593078Y-2290798D01*
X28596273Y-2287530D01*
X28782683Y-2096842D01*
X28782687Y-2096837D01*
X28785877Y-2093574D01*
X28948187Y-1870584D01*
X29076606Y-1626499D01*
X29168445Y-1366432D01*
X29204916Y-1181392D01*
X29220899Y-1100304D01*
X29220900Y-1100298D01*
X29221780Y-1095832D01*
X29222007Y-1091276D01*
X29235267Y-824936D01*
X29235267Y-824930D01*
X29235494Y-820367D01*
X29209298Y-545808D01*
X29143743Y-277906D01*
X29040201Y-22274D01*
X29037900Y-18344D01*
X29037897Y-18338D01*
X28903145Y211803D01*
X28903140Y211810D01*
X28900842Y215735D01*
X28851226Y277777D01*
X28809302Y330200D01*
X30356918Y330200D01*
X30377556Y173438D01*
X30438064Y27359D01*
X30534318Y-98082D01*
X30659759Y-194336D01*
X30805838Y-254844D01*
X30962600Y-275482D01*
X30970788Y-274404D01*
X30976326Y-273675D01*
X31119362Y-254844D01*
X31265441Y-194336D01*
X31390882Y-98082D01*
X31487136Y27359D01*
X31547644Y173438D01*
X31568282Y330200D01*
X31555930Y424020D01*
X31548722Y478774D01*
X31547644Y486962D01*
X31543567Y496806D01*
X31527292Y536096D01*
X31487136Y633041D01*
X31390882Y758482D01*
X31375597Y770211D01*
X31337425Y799501D01*
X31265441Y854736D01*
X31119362Y915244D01*
X30962600Y935882D01*
X30805838Y915244D01*
X30659759Y854736D01*
X30587775Y799501D01*
X30549604Y770211D01*
X30534318Y758482D01*
X30438064Y633041D01*
X30397908Y536096D01*
X30381634Y496806D01*
X30377556Y486962D01*
X30376478Y478774D01*
X30369270Y424020D01*
X30356918Y330200D01*
X28809302Y330200D01*
X28731436Y427566D01*
X28731435Y427567D01*
X28728584Y431132D01*
X28677584Y478774D01*
X28530372Y616292D01*
X28530369Y616294D01*
X28527036Y619408D01*
X28300421Y776616D01*
X28296343Y778645D01*
X28057573Y897432D01*
X28057570Y897433D01*
X28053486Y899465D01*
X27791402Y985380D01*
X27786910Y986160D01*
X27523443Y1031906D01*
X27523435Y1031907D01*
X27519662Y1032562D01*
X27509429Y1033071D01*
X27434095Y1036822D01*
X27434087Y1036822D01*
X27432524Y1036900D01*
X27260330Y1036900D01*
X27258062Y1036735D01*
X27258050Y1036735D01*
X27123797Y1026994D01*
X27055317Y1022025D01*
X27050862Y1021041D01*
X27050859Y1021041D01*
X26790453Y963548D01*
X26790450Y963547D01*
X26785997Y962564D01*
X26528081Y864849D01*
X26524094Y862635D01*
X26524093Y862634D01*
X26400633Y794058D01*
X26286972Y730925D01*
X26067722Y563598D01*
X26064529Y560332D01*
X26064527Y560330D01*
X25878117Y369642D01*
X25878113Y369637D01*
X25874923Y366374D01*
X25872236Y362682D01*
X25872234Y362680D01*
X25724541Y159771D01*
X25712613Y143384D01*
X25584194Y-100701D01*
X25492355Y-360768D01*
X25491475Y-365234D01*
X25454987Y-550360D01*
X25439020Y-631368D01*
X25438793Y-635922D01*
X25438793Y-635924D01*
X25429611Y-820367D01*
X25425306Y-906833D01*
X25451502Y-1181392D01*
X25517057Y-1449294D01*
X25620599Y-1704926D01*
X25622900Y-1708856D01*
X25622903Y-1708862D01*
X25757655Y-1939003D01*
X25757660Y-1939010D01*
X25759958Y-1942935D01*
X25762805Y-1946495D01*
X25880428Y-2093574D01*
X25932216Y-2158332D01*
X26133764Y-2346608D01*
X26360379Y-2503816D01*
X26364455Y-2505844D01*
X26364457Y-2505845D01*
X26435501Y-2541189D01*
X26487582Y-2589440D01*
X26505308Y-2658188D01*
X26483053Y-2725606D01*
X26427882Y-2770290D01*
X26379378Y-2780000D01*
X4326000Y-2780000D01*
X4257879Y-2759998D01*
X4211386Y-2706342D01*
X4200000Y-2654000D01*
X4200000Y475000D01*
X19794318Y475000D01*
X19814956Y318238D01*
X19875464Y172159D01*
X19971718Y46718D01*
X19978264Y41695D01*
X19996947Y27359D01*
X20097159Y-49536D01*
X20243238Y-110044D01*
X20400000Y-130682D01*
X20408188Y-129604D01*
X20548574Y-111122D01*
X20556762Y-110044D01*
X20702841Y-49536D01*
X20803053Y27359D01*
X20821736Y41695D01*
X20828282Y46718D01*
X20924536Y172159D01*
X20985044Y318238D01*
X21005682Y475000D01*
X20985044Y631762D01*
X20924536Y777841D01*
X20828282Y903282D01*
X20702841Y999536D01*
X20575053Y1052468D01*
X20564391Y1056884D01*
X20556762Y1060044D01*
X20400000Y1080682D01*
X20243238Y1060044D01*
X20235609Y1056884D01*
X20224947Y1052468D01*
X20097159Y999536D01*
X19971718Y903282D01*
X19875464Y777841D01*
X19814956Y631762D01*
X19794318Y475000D01*
X4200000Y475000D01*
X4200000Y2808037D01*
X5217757Y2808037D01*
X5234175Y2612517D01*
X5288258Y2423909D01*
X5291076Y2418426D01*
X5375123Y2254887D01*
X5375126Y2254883D01*
X5377944Y2249399D01*
X5499818Y2095631D01*
X5504511Y2091637D01*
X5504512Y2091636D01*
X5608527Y2003113D01*
X5649238Y1968465D01*
X5654616Y1965459D01*
X5654618Y1965458D01*
X5690932Y1945163D01*
X5820513Y1872743D01*
X6007118Y1812111D01*
X6201946Y1788879D01*
X6208081Y1789351D01*
X6208083Y1789351D01*
X6391434Y1803459D01*
X6391438Y1803460D01*
X6397576Y1803932D01*
X6586556Y1856697D01*
X6761689Y1945163D01*
X6791515Y1968465D01*
X6866878Y2027345D01*
X6916303Y2065960D01*
X6933328Y2085683D01*
X7040485Y2209827D01*
X7040485Y2209828D01*
X7044509Y2214489D01*
X7052110Y2227868D01*
X7095744Y2304678D01*
X7141425Y2385091D01*
X7203358Y2571268D01*
X7227949Y2765929D01*
X7228341Y2794000D01*
X7209194Y2989272D01*
X7207413Y2995171D01*
X7207412Y2995176D01*
X7154265Y3171207D01*
X7152484Y3177106D01*
X7060370Y3350347D01*
X6936361Y3502398D01*
X6785180Y3627465D01*
X6612585Y3720787D01*
X6510569Y3752366D01*
X6431039Y3776985D01*
X6431036Y3776986D01*
X6425152Y3778807D01*
X6419027Y3779451D01*
X6419026Y3779451D01*
X6236147Y3798673D01*
X6236146Y3798673D01*
X6230019Y3799317D01*
X6107383Y3788156D01*
X6040759Y3782093D01*
X6040758Y3782093D01*
X6034618Y3781534D01*
X6028704Y3779793D01*
X6028702Y3779793D01*
X5935514Y3752366D01*
X5846393Y3726136D01*
X5840928Y3723279D01*
X5677972Y3638088D01*
X5677968Y3638085D01*
X5672512Y3635233D01*
X5667712Y3631373D01*
X5667711Y3631373D01*
X5653404Y3619870D01*
X5519600Y3512289D01*
X5393480Y3361984D01*
X5390516Y3356592D01*
X5390513Y3356588D01*
X5337079Y3259392D01*
X5298956Y3190046D01*
X5239628Y3003022D01*
X5217757Y2808037D01*
X4200000Y2808037D01*
X4200000Y6994123D01*
X4200033Y7031258D01*
X4200033Y7031260D01*
X4200045Y7045449D01*
X4193902Y7058242D01*
X4192773Y7063210D01*
X4190215Y7070535D01*
X4188006Y7075125D01*
X4184850Y7088962D01*
X4176006Y7100061D01*
X4173636Y7104985D01*
X4170084Y7110647D01*
X4166688Y7114916D01*
X4160547Y7127705D01*
X4149464Y7136568D01*
X4146293Y7140554D01*
X4140809Y7146048D01*
X4136827Y7149227D01*
X4127985Y7160323D01*
X4115207Y7166486D01*
X4110936Y7169896D01*
X4105286Y7173454D01*
X4100366Y7175832D01*
X4089285Y7184694D01*
X4075457Y7187874D01*
X4070876Y7190088D01*
X4063551Y7192661D01*
X4058580Y7193799D01*
X4045798Y7199965D01*
X4022787Y7199985D01*
X4022789Y7201997D01*
X4022723Y7202012D01*
X4022723Y7200000D01*
X4005877Y7200000D01*
X3954551Y7200045D01*
X3954555Y7204850D01*
X3954457Y7204856D01*
X3954457Y7200000D01*
X3326000Y7200000D01*
X3257879Y7220002D01*
X3241417Y7239000D01*
X14786718Y7239000D01*
X14807356Y7082238D01*
X14867864Y6936159D01*
X14964118Y6810718D01*
X15089559Y6714464D01*
X15235638Y6653956D01*
X15243826Y6652878D01*
X15255972Y6651279D01*
X15392400Y6633318D01*
X15400588Y6634396D01*
X15462259Y6642515D01*
X15528828Y6651279D01*
X15540974Y6652878D01*
X15549162Y6653956D01*
X15695241Y6714464D01*
X15715900Y6730316D01*
X15782117Y6755917D01*
X15851666Y6741653D01*
X15889124Y6711345D01*
X15904345Y6693206D01*
X15913894Y6687693D01*
X15936985Y6674361D01*
X15946256Y6668455D01*
X15977116Y6646846D01*
X15987766Y6643992D01*
X15990934Y6642515D01*
X15994210Y6641323D01*
X16003755Y6635812D01*
X16037499Y6629862D01*
X16040858Y6629270D01*
X16051585Y6626892D01*
X16087993Y6617136D01*
X16098978Y6618097D01*
X16098980Y6618097D01*
X16125528Y6620420D01*
X16136510Y6620900D01*
X18021251Y6620900D01*
X18089372Y6600898D01*
X18110267Y6584075D01*
X18118650Y6575707D01*
X18128006Y6571134D01*
X18128007Y6571133D01*
X18152340Y6559239D01*
X18223482Y6524464D01*
X18253973Y6520016D01*
X18287256Y6515160D01*
X18287260Y6515160D01*
X18291782Y6514500D01*
X18610691Y6514500D01*
X18678812Y6494498D01*
X18694501Y6482583D01*
X18713592Y6465574D01*
X18751146Y6405325D01*
X18750165Y6334335D01*
X18710960Y6275145D01*
X18645978Y6246547D01*
X18629771Y6245500D01*
X18291782Y6245500D01*
X18287232Y6244830D01*
X18287229Y6244830D01*
X18232574Y6236784D01*
X18232573Y6236784D01*
X18222888Y6235358D01*
X18187707Y6218085D01*
X18127493Y6188522D01*
X18127491Y6188521D01*
X18118145Y6183932D01*
X18108251Y6174021D01*
X18041828Y6107482D01*
X17979545Y6073403D01*
X17952655Y6070500D01*
X17359313Y6070500D01*
X17348332Y6070979D01*
X17321770Y6073303D01*
X17321768Y6073303D01*
X17310793Y6074263D01*
X17274383Y6064508D01*
X17263676Y6062134D01*
X17226555Y6055588D01*
X17217011Y6050078D01*
X17213735Y6048886D01*
X17210564Y6047407D01*
X17199916Y6044554D01*
X17190887Y6038232D01*
X17169049Y6022941D01*
X17159779Y6017036D01*
X17136692Y6003707D01*
X17136688Y6003704D01*
X17127145Y5998194D01*
X17112208Y5980393D01*
X17102925Y5969330D01*
X17095500Y5961227D01*
X16928528Y5794254D01*
X16793079Y5658805D01*
X16730766Y5624780D01*
X16703983Y5621900D01*
X15996447Y5621900D01*
X15928326Y5641902D01*
X15896485Y5671196D01*
X15851111Y5730329D01*
X15851108Y5730332D01*
X15846082Y5736882D01*
X15834085Y5746088D01*
X15747005Y5812906D01*
X15720641Y5833136D01*
X15574562Y5893644D01*
X15564916Y5894914D01*
X15444537Y5910762D01*
X15417800Y5914282D01*
X15391063Y5910762D01*
X15270685Y5894914D01*
X15261038Y5893644D01*
X15114959Y5833136D01*
X15046420Y5780544D01*
X15001516Y5746088D01*
X14989518Y5736882D01*
X14984495Y5730336D01*
X14971534Y5713445D01*
X14893264Y5611441D01*
X14832756Y5465362D01*
X14812118Y5308600D01*
X14832756Y5151838D01*
X14893264Y5005759D01*
X14989518Y4880318D01*
X15114959Y4784064D01*
X15261038Y4723556D01*
X15417800Y4702918D01*
X15425988Y4703996D01*
X15566374Y4722478D01*
X15574562Y4723556D01*
X15720641Y4784064D01*
X15846082Y4880318D01*
X15851105Y4886864D01*
X15851109Y4886868D01*
X15877763Y4921604D01*
X15935101Y4963471D01*
X15977725Y4970900D01*
X16871290Y4970900D01*
X16882272Y4970420D01*
X16908820Y4968097D01*
X16908822Y4968097D01*
X16919807Y4967136D01*
X16956215Y4976892D01*
X16966942Y4979270D01*
X16970301Y4979862D01*
X17004045Y4985812D01*
X17013590Y4991323D01*
X17016866Y4992515D01*
X17020034Y4993992D01*
X17030684Y4996846D01*
X17061544Y5018455D01*
X17070815Y5024361D01*
X17093906Y5037693D01*
X17103455Y5043206D01*
X17127679Y5072075D01*
X17135106Y5080180D01*
X17437523Y5382596D01*
X17499835Y5416621D01*
X17526618Y5419500D01*
X17952532Y5419500D01*
X18020653Y5399498D01*
X18041548Y5382675D01*
X18118650Y5305707D01*
X18223482Y5254464D01*
X18249701Y5250639D01*
X18287256Y5245160D01*
X18287260Y5245160D01*
X18291782Y5244500D01*
X20008218Y5244500D01*
X20012768Y5245170D01*
X20012771Y5245170D01*
X20067426Y5253216D01*
X20067427Y5253216D01*
X20077112Y5254642D01*
X20136486Y5283793D01*
X20172507Y5301478D01*
X20172509Y5301479D01*
X20181855Y5306068D01*
X20264293Y5388650D01*
X20269016Y5398311D01*
X20301202Y5464158D01*
X20315536Y5493482D01*
X20320517Y5527628D01*
X20324840Y5557256D01*
X20324840Y5557260D01*
X20325500Y5561782D01*
X22924500Y5561782D01*
X22925170Y5557232D01*
X22925170Y5557229D01*
X22933216Y5502574D01*
X22934642Y5492888D01*
X22938958Y5484098D01*
X22981077Y5398311D01*
X22986068Y5388145D01*
X23017084Y5357183D01*
X23051203Y5323124D01*
X23068650Y5305707D01*
X23173482Y5254464D01*
X23199701Y5250639D01*
X23237256Y5245160D01*
X23237260Y5245160D01*
X23241782Y5244500D01*
X23560691Y5244500D01*
X23628812Y5224498D01*
X23644501Y5212583D01*
X23697279Y5165560D01*
X23703988Y5162008D01*
X23703989Y5162007D01*
X23711761Y5157892D01*
X23847119Y5086224D01*
X24011559Y5044919D01*
X24019157Y5044879D01*
X24019159Y5044879D01*
X24096332Y5044475D01*
X24181105Y5044031D01*
X24188492Y5045805D01*
X24188496Y5045805D01*
X24338583Y5081839D01*
X24345968Y5083612D01*
X24352712Y5087093D01*
X24352715Y5087094D01*
X24489883Y5157892D01*
X24489884Y5157892D01*
X24496631Y5161375D01*
X24504544Y5168278D01*
X24556325Y5213449D01*
X24620807Y5243157D01*
X24639154Y5244500D01*
X24958218Y5244500D01*
X24962768Y5245170D01*
X24962771Y5245170D01*
X25017426Y5253216D01*
X25017427Y5253216D01*
X25027112Y5254642D01*
X25086486Y5283793D01*
X25122507Y5301478D01*
X25122509Y5301479D01*
X25131855Y5306068D01*
X25214293Y5388650D01*
X25219016Y5398311D01*
X25251202Y5464158D01*
X25265536Y5493482D01*
X25270517Y5527628D01*
X25274840Y5557256D01*
X25274840Y5557260D01*
X25275500Y5561782D01*
X25275500Y5928218D01*
X25274315Y5936272D01*
X25266784Y5987426D01*
X25266784Y5987427D01*
X25265358Y5997112D01*
X25234726Y6059502D01*
X25218522Y6092507D01*
X25218521Y6092509D01*
X25213932Y6101855D01*
X25143968Y6171697D01*
X25138721Y6176935D01*
X25138720Y6176935D01*
X25131350Y6184293D01*
X25121488Y6189114D01*
X25077556Y6210588D01*
X25026518Y6235536D01*
X24987049Y6241294D01*
X24962744Y6244840D01*
X24962740Y6244840D01*
X24958218Y6245500D01*
X24926500Y6245500D01*
X24858379Y6265502D01*
X24811886Y6319158D01*
X24800500Y6371500D01*
X24800500Y6388500D01*
X24820502Y6456621D01*
X24874158Y6503114D01*
X24926500Y6514500D01*
X24958218Y6514500D01*
X24962768Y6515170D01*
X24962771Y6515170D01*
X25017426Y6523216D01*
X25017427Y6523216D01*
X25027112Y6524642D01*
X25096688Y6558802D01*
X25122507Y6571478D01*
X25122509Y6571479D01*
X25131855Y6576068D01*
X25202510Y6646846D01*
X25206935Y6651279D01*
X25206935Y6651280D01*
X25214293Y6658650D01*
X25220024Y6670373D01*
X25247355Y6726288D01*
X25265536Y6763482D01*
X25270857Y6799955D01*
X25274840Y6827256D01*
X25274840Y6827260D01*
X25275500Y6831782D01*
X25275500Y7198218D01*
X25269497Y7239000D01*
X25266784Y7257426D01*
X25266784Y7257427D01*
X25265358Y7267112D01*
X25225946Y7347386D01*
X25218522Y7362507D01*
X25218521Y7362509D01*
X25213932Y7371855D01*
X25147557Y7438114D01*
X25138721Y7446935D01*
X25138720Y7446935D01*
X25131350Y7454293D01*
X25121492Y7459112D01*
X25066971Y7485762D01*
X25026518Y7505536D01*
X24988797Y7511039D01*
X24962744Y7514840D01*
X24962740Y7514840D01*
X24958218Y7515500D01*
X24926500Y7515500D01*
X24858379Y7535502D01*
X24811886Y7589158D01*
X24800500Y7641500D01*
X24800500Y7658500D01*
X24820502Y7726621D01*
X24874158Y7773114D01*
X24926500Y7784500D01*
X24958218Y7784500D01*
X24962768Y7785170D01*
X24962771Y7785170D01*
X25017426Y7793216D01*
X25017427Y7793216D01*
X25027112Y7794642D01*
X25121804Y7841133D01*
X25122507Y7841478D01*
X25122509Y7841479D01*
X25131855Y7846068D01*
X25214293Y7928650D01*
X25265536Y8033482D01*
X25273741Y8089722D01*
X25274840Y8097256D01*
X25274840Y8097260D01*
X25275500Y8101782D01*
X25275500Y8468218D01*
X25274154Y8477366D01*
X25266784Y8527426D01*
X25266784Y8527427D01*
X25265358Y8537112D01*
X25231058Y8606974D01*
X25218522Y8632507D01*
X25218521Y8632509D01*
X25213932Y8641855D01*
X25151794Y8703885D01*
X25138721Y8716935D01*
X25138720Y8716935D01*
X25131350Y8724293D01*
X25121181Y8729264D01*
X25064909Y8756770D01*
X25026518Y8775536D01*
X24996027Y8779984D01*
X24962744Y8784840D01*
X24962740Y8784840D01*
X24958218Y8785500D01*
X24926500Y8785500D01*
X24858379Y8805502D01*
X24811886Y8859158D01*
X24800500Y8911500D01*
X24800500Y8928500D01*
X24820502Y8996621D01*
X24874158Y9043114D01*
X24926500Y9054500D01*
X24958218Y9054500D01*
X24962768Y9055170D01*
X24962771Y9055170D01*
X25017426Y9063216D01*
X25017427Y9063216D01*
X25027112Y9064642D01*
X25077008Y9089140D01*
X25122507Y9111478D01*
X25122509Y9111479D01*
X25131855Y9116068D01*
X25200403Y9184736D01*
X25206935Y9191279D01*
X25206935Y9191280D01*
X25214293Y9198650D01*
X25222202Y9214829D01*
X25261240Y9294694D01*
X25265536Y9303482D01*
X25275500Y9371782D01*
X25275500Y9738218D01*
X25266871Y9796838D01*
X25266784Y9797426D01*
X25266784Y9797427D01*
X25265358Y9807112D01*
X25237926Y9862984D01*
X25218522Y9902507D01*
X25218521Y9902509D01*
X25213932Y9911855D01*
X25131350Y9994293D01*
X25026518Y10045536D01*
X24996027Y10049984D01*
X24962744Y10054840D01*
X24962740Y10054840D01*
X24958218Y10055500D01*
X24926500Y10055500D01*
X24858379Y10075502D01*
X24811886Y10129158D01*
X24800500Y10181500D01*
X24800500Y11073500D01*
X24820502Y11141621D01*
X24874158Y11188114D01*
X24926500Y11199500D01*
X26008500Y11199500D01*
X26076621Y11179498D01*
X26123114Y11125842D01*
X26134500Y11073500D01*
X26134500Y10707743D01*
X26128453Y10672273D01*
X26128589Y10672243D01*
X26127956Y10669358D01*
X26127382Y10665995D01*
X26124399Y10657500D01*
X26121500Y10626833D01*
X26121500Y10498020D01*
X26119390Y10475059D01*
X26092748Y10331308D01*
X26102507Y10162041D01*
X26104741Y10154780D01*
X26104741Y10154779D01*
X26115931Y10118405D01*
X26121501Y10081356D01*
X26121501Y9947168D01*
X26124399Y9916500D01*
X26126944Y9909252D01*
X26126945Y9909249D01*
X26159727Y9815902D01*
X26168039Y9792232D01*
X26173634Y9784657D01*
X26173635Y9784655D01*
X26211336Y9733612D01*
X26246289Y9686289D01*
X26253860Y9680697D01*
X26344655Y9613635D01*
X26344657Y9613634D01*
X26352232Y9608039D01*
X26361119Y9604918D01*
X26361121Y9604917D01*
X26469252Y9566944D01*
X26469254Y9566943D01*
X26476500Y9564399D01*
X26484144Y9563676D01*
X26484146Y9563676D01*
X26492121Y9562922D01*
X26507167Y9561500D01*
X26796853Y9561500D01*
X27086832Y9561501D01*
X27089782Y9561780D01*
X27089787Y9561780D01*
X27109850Y9563676D01*
X27109851Y9563676D01*
X27117500Y9564399D01*
X27124748Y9566944D01*
X27124751Y9566945D01*
X27232879Y9604917D01*
X27232881Y9604918D01*
X27241768Y9608039D01*
X27249343Y9613634D01*
X27249345Y9613635D01*
X27340140Y9680697D01*
X27347711Y9686289D01*
X27382664Y9733612D01*
X27420365Y9784655D01*
X27420366Y9784657D01*
X27425961Y9792232D01*
X27439618Y9831121D01*
X27481061Y9888766D01*
X27547091Y9914854D01*
X27616743Y9901103D01*
X27667903Y9851878D01*
X27684500Y9789372D01*
X27684500Y8355361D01*
X27684021Y8344379D01*
X27683591Y8339460D01*
X27680736Y8328807D01*
X27681697Y8317821D01*
X27681697Y8317819D01*
X27684020Y8291272D01*
X27684500Y8280290D01*
X27684500Y7462000D01*
X27664498Y7393879D01*
X27610842Y7347386D01*
X27558500Y7336000D01*
X27546607Y7336000D01*
X27478486Y7356002D01*
X27434341Y7404797D01*
X27401162Y7469914D01*
X27401158Y7469920D01*
X27396658Y7478751D01*
X27302751Y7572658D01*
X27184420Y7632951D01*
X27086246Y7648500D01*
X26507754Y7648500D01*
X26409580Y7632951D01*
X26291249Y7572658D01*
X26197342Y7478751D01*
X26171405Y7427847D01*
X26149884Y7385609D01*
X26137049Y7360420D01*
X26121500Y7262246D01*
X26121500Y6758754D01*
X26137049Y6660580D01*
X26197342Y6542249D01*
X26291249Y6448342D01*
X26409580Y6388049D01*
X26507754Y6372500D01*
X27086246Y6372500D01*
X27184420Y6388049D01*
X27302751Y6448342D01*
X27396658Y6542249D01*
X27401159Y6551082D01*
X27401162Y6551086D01*
X27434341Y6616203D01*
X27483089Y6667818D01*
X27546607Y6685000D01*
X27712483Y6685000D01*
X27780604Y6664998D01*
X27801579Y6648095D01*
X27984097Y6465576D01*
X28165901Y6283772D01*
X28173327Y6275669D01*
X28197545Y6246806D01*
X28224849Y6231042D01*
X28230184Y6227962D01*
X28239452Y6222058D01*
X28270316Y6200447D01*
X28280962Y6197594D01*
X28284130Y6196117D01*
X28287407Y6194924D01*
X28296955Y6189412D01*
X28325988Y6184293D01*
X28334069Y6182868D01*
X28344803Y6180488D01*
X28381193Y6170737D01*
X28392169Y6171697D01*
X28392172Y6171697D01*
X28418731Y6174021D01*
X28429712Y6174500D01*
X28991286Y6174500D01*
X29059407Y6154498D01*
X29103553Y6105703D01*
X29160342Y5994249D01*
X29254249Y5900342D01*
X29263080Y5895842D01*
X29263086Y5895838D01*
X29328203Y5862659D01*
X29379818Y5813911D01*
X29397000Y5750393D01*
X29397000Y5332310D01*
X29396520Y5321328D01*
X29393236Y5283793D01*
X29401095Y5254464D01*
X29402991Y5247390D01*
X29405370Y5236658D01*
X29411912Y5199555D01*
X29417423Y5190010D01*
X29418615Y5186734D01*
X29420092Y5183566D01*
X29422946Y5172916D01*
X29435290Y5155287D01*
X29444555Y5142056D01*
X29450461Y5132785D01*
X29462981Y5111100D01*
X29469306Y5100145D01*
X29485340Y5086691D01*
X29492092Y5081025D01*
X29531418Y5021915D01*
X29537100Y4984504D01*
X29537100Y4857016D01*
X29517098Y4788895D01*
X29463442Y4742402D01*
X29393168Y4732298D01*
X29328588Y4761792D01*
X29322005Y4767921D01*
X28438211Y5651715D01*
X28430784Y5659819D01*
X28425341Y5666305D01*
X28406555Y5688694D01*
X28397006Y5694207D01*
X28373915Y5707539D01*
X28364644Y5713445D01*
X28342815Y5728730D01*
X28333784Y5735054D01*
X28323134Y5737908D01*
X28319966Y5739385D01*
X28316690Y5740577D01*
X28307145Y5746088D01*
X28273401Y5752038D01*
X28270042Y5752630D01*
X28259315Y5755008D01*
X28222907Y5764764D01*
X28211922Y5763803D01*
X28211920Y5763803D01*
X28185372Y5761480D01*
X28174390Y5761000D01*
X27546607Y5761000D01*
X27478486Y5781002D01*
X27434341Y5829797D01*
X27401162Y5894914D01*
X27401158Y5894920D01*
X27396658Y5903751D01*
X27302751Y5997658D01*
X27184420Y6057951D01*
X27086246Y6073500D01*
X26507754Y6073500D01*
X26409580Y6057951D01*
X26291249Y5997658D01*
X26197342Y5903751D01*
X26137049Y5785420D01*
X26121500Y5687246D01*
X26121500Y5183754D01*
X26137049Y5085580D01*
X26197342Y4967249D01*
X26291249Y4873342D01*
X26409580Y4813049D01*
X26507754Y4797500D01*
X27086246Y4797500D01*
X27184420Y4813049D01*
X27302751Y4873342D01*
X27396658Y4967249D01*
X27401159Y4976082D01*
X27401162Y4976086D01*
X27434341Y5041203D01*
X27483089Y5092818D01*
X27546607Y5110000D01*
X28007084Y5110000D01*
X28075205Y5089998D01*
X28096179Y5073095D01*
X29448489Y3720785D01*
X29455916Y3712681D01*
X29480145Y3683806D01*
X29489694Y3678293D01*
X29512785Y3664961D01*
X29522056Y3659055D01*
X29552916Y3637446D01*
X29563566Y3634592D01*
X29566734Y3633115D01*
X29570010Y3631923D01*
X29579555Y3626412D01*
X29613299Y3620462D01*
X29616658Y3619870D01*
X29627385Y3617492D01*
X29663793Y3607736D01*
X29674778Y3608697D01*
X29674780Y3608697D01*
X29701328Y3611020D01*
X29712310Y3611500D01*
X30572383Y3611500D01*
X30640504Y3591498D01*
X30661479Y3574595D01*
X30828796Y3407277D01*
X30862821Y3344965D01*
X30865700Y3318182D01*
X30865700Y2762910D01*
X30865220Y2751928D01*
X30864055Y2738608D01*
X30861936Y2714393D01*
X30871691Y2677990D01*
X30874070Y2667258D01*
X30880612Y2630155D01*
X30886123Y2620610D01*
X30887315Y2617334D01*
X30888792Y2614166D01*
X30891646Y2603516D01*
X30908366Y2579638D01*
X30913255Y2572656D01*
X30919161Y2563385D01*
X30921876Y2558683D01*
X30938006Y2530745D01*
X30966882Y2506515D01*
X30974985Y2499089D01*
X34122089Y-648015D01*
X34129515Y-656118D01*
X34153745Y-684994D01*
X34163294Y-690507D01*
X34186385Y-703839D01*
X34195656Y-709745D01*
X34226516Y-731354D01*
X34237166Y-734208D01*
X34240334Y-735685D01*
X34243610Y-736877D01*
X34253155Y-742388D01*
X34286899Y-748338D01*
X34290258Y-748930D01*
X34300985Y-751308D01*
X34337393Y-761064D01*
X34348378Y-760103D01*
X34348380Y-760103D01*
X34374928Y-757780D01*
X34385910Y-757300D01*
X38705037Y-757300D01*
X38716022Y-757780D01*
X38720946Y-758211D01*
X38731593Y-761064D01*
X38742569Y-760104D01*
X38742572Y-760104D01*
X38769143Y-757779D01*
X38780124Y-757300D01*
X42088490Y-757300D01*
X42099472Y-757780D01*
X42126020Y-760103D01*
X42126022Y-760103D01*
X42137007Y-761064D01*
X42173415Y-751308D01*
X42184142Y-748930D01*
X42187501Y-748338D01*
X42221245Y-742388D01*
X42230790Y-736877D01*
X42234066Y-735685D01*
X42237234Y-734208D01*
X42247884Y-731354D01*
X42278744Y-709745D01*
X42288015Y-703839D01*
X42311106Y-690507D01*
X42320655Y-684994D01*
X42344885Y-656117D01*
X42352311Y-648015D01*
X42897617Y-102709D01*
X42959929Y-68683D01*
X43003157Y-66882D01*
X43070000Y-75682D01*
X43078188Y-74604D01*
X43127493Y-68113D01*
X43226762Y-55044D01*
X43240060Y-49536D01*
X43295668Y-26502D01*
X43372841Y5464D01*
X43498282Y101718D01*
X43594536Y227159D01*
X43655044Y373238D01*
X43675682Y530000D01*
X43665272Y609072D01*
X43676211Y679219D01*
X43681103Y688565D01*
X43682067Y690233D01*
X43687945Y699456D01*
X43703230Y721285D01*
X43709554Y730316D01*
X43712408Y740966D01*
X43713885Y744134D01*
X43715077Y747410D01*
X43720588Y756955D01*
X43727130Y794058D01*
X43729509Y804790D01*
X43739264Y841193D01*
X43738080Y854736D01*
X43735979Y878743D01*
X43735500Y889724D01*
X43735500Y1443895D01*
X52599031Y1443895D01*
X52600805Y1436508D01*
X52600805Y1436504D01*
X52621019Y1352311D01*
X52624501Y1322896D01*
X52624501Y1185168D01*
X52627399Y1154500D01*
X52629944Y1147252D01*
X52629945Y1147249D01*
X52660570Y1060044D01*
X52671039Y1030232D01*
X52676634Y1022657D01*
X52676635Y1022655D01*
X52740726Y935882D01*
X52749289Y924289D01*
X52756860Y918697D01*
X52847655Y851635D01*
X52847657Y851634D01*
X52855232Y846039D01*
X52864119Y842918D01*
X52864121Y842917D01*
X52972252Y804944D01*
X52972254Y804943D01*
X52979500Y802399D01*
X52987144Y801676D01*
X52987146Y801676D01*
X52995121Y800922D01*
X53010167Y799500D01*
X53299853Y799500D01*
X53589832Y799501D01*
X53592782Y799780D01*
X53592787Y799780D01*
X53612850Y801676D01*
X53612851Y801676D01*
X53620500Y802399D01*
X53627748Y804944D01*
X53627751Y804945D01*
X53663165Y817382D01*
X53704914Y824500D01*
X54288982Y824500D01*
X54311942Y822390D01*
X54455692Y795748D01*
X54463272Y796185D01*
X54463273Y796185D01*
X54566724Y802150D01*
X54585834Y801800D01*
X54599573Y800501D01*
X54610167Y799500D01*
X54899853Y799500D01*
X55189832Y799501D01*
X55192782Y799780D01*
X55192787Y799780D01*
X55212850Y801676D01*
X55212851Y801676D01*
X55220500Y802399D01*
X55227748Y804944D01*
X55227751Y804945D01*
X55263165Y817382D01*
X55304914Y824500D01*
X56095086Y824500D01*
X56136835Y817382D01*
X56172252Y804944D01*
X56172255Y804943D01*
X56179500Y802399D01*
X56187144Y801676D01*
X56187146Y801676D01*
X56195121Y800922D01*
X56210167Y799500D01*
X56499853Y799500D01*
X56789832Y799501D01*
X56792782Y799780D01*
X56792787Y799780D01*
X56812850Y801676D01*
X56812851Y801676D01*
X56820500Y802399D01*
X56827748Y804944D01*
X56827751Y804945D01*
X56863165Y817382D01*
X56904914Y824500D01*
X56922654Y824500D01*
X56990775Y804498D01*
X57011749Y787595D01*
X57494735Y304609D01*
X57497722Y302267D01*
X57497723Y302266D01*
X57583780Y234789D01*
X57594457Y226417D01*
X57748983Y156645D01*
X57756451Y155261D01*
X57756454Y155260D01*
X57865388Y135071D01*
X57915692Y125748D01*
X57923272Y126185D01*
X57923273Y126185D01*
X57958804Y128234D01*
X58084959Y135508D01*
X58247011Y185361D01*
X58280576Y205449D01*
X58385973Y268528D01*
X58385974Y268529D01*
X58392494Y272431D01*
X58513010Y391690D01*
X58528558Y417062D01*
X58597629Y529778D01*
X58597630Y529781D01*
X58601597Y536254D01*
X58653145Y697776D01*
X58654660Y719989D01*
X58658727Y779649D01*
X58664678Y866930D01*
X58661633Y884380D01*
X58636832Y1026477D01*
X58635527Y1033954D01*
X58624075Y1060044D01*
X58585794Y1147249D01*
X58567378Y1189203D01*
X58546086Y1216951D01*
X58490489Y1289407D01*
X58490487Y1289410D01*
X58487978Y1292679D01*
X57780582Y2000075D01*
X57774728Y2006341D01*
X57742165Y2043669D01*
X57737169Y2049396D01*
X57685527Y2085690D01*
X57680242Y2089616D01*
X57636524Y2123895D01*
X57636520Y2123897D01*
X57630543Y2128584D01*
X57623620Y2131710D01*
X57620672Y2133495D01*
X57607712Y2140887D01*
X57604666Y2142520D01*
X57598453Y2146887D01*
X57539633Y2169820D01*
X57533554Y2172376D01*
X57476016Y2198355D01*
X57468545Y2199740D01*
X57465277Y2200764D01*
X57450836Y2204877D01*
X57447563Y2205717D01*
X57440487Y2208476D01*
X57394810Y2214489D01*
X57377894Y2216716D01*
X57371377Y2217748D01*
X57316775Y2227868D01*
X57309308Y2229252D01*
X57301728Y2228815D01*
X57301727Y2228815D01*
X57247856Y2225709D01*
X57240604Y2225500D01*
X56904914Y2225500D01*
X56863165Y2232618D01*
X56827748Y2245056D01*
X56827745Y2245057D01*
X56820500Y2247601D01*
X56812856Y2248324D01*
X56812854Y2248324D01*
X56804879Y2249078D01*
X56789833Y2250500D01*
X56500147Y2250500D01*
X56210168Y2250499D01*
X56207218Y2250220D01*
X56207213Y2250220D01*
X56187150Y2248324D01*
X56187149Y2248324D01*
X56179500Y2247601D01*
X56172252Y2245056D01*
X56172249Y2245055D01*
X56136835Y2232618D01*
X56095086Y2225500D01*
X55304914Y2225500D01*
X55263165Y2232618D01*
X55227748Y2245056D01*
X55227745Y2245057D01*
X55220500Y2247601D01*
X55212856Y2248324D01*
X55212854Y2248324D01*
X55204879Y2249078D01*
X55189833Y2250500D01*
X55185470Y2250500D01*
X55184862Y2250595D01*
X55183900Y2250640D01*
X55183905Y2250744D01*
X55147162Y2256465D01*
X55039464Y2290836D01*
X55039462Y2290836D01*
X55032225Y2293146D01*
X55024645Y2293663D01*
X55024644Y2293663D01*
X54870646Y2304162D01*
X54870642Y2304162D01*
X54863070Y2304678D01*
X54855593Y2303373D01*
X54855592Y2303373D01*
X54703523Y2276832D01*
X54696046Y2275527D01*
X54689097Y2272477D01*
X54689095Y2272476D01*
X54663237Y2261125D01*
X54616075Y2251230D01*
X54616103Y2250639D01*
X54613133Y2250499D01*
X54610168Y2250499D01*
X54607218Y2250220D01*
X54607213Y2250220D01*
X54598527Y2249399D01*
X54579500Y2247601D01*
X54572259Y2245058D01*
X54572258Y2245058D01*
X54570857Y2244566D01*
X54545566Y2235685D01*
X54511073Y2228777D01*
X54458341Y2225737D01*
X54457856Y2225709D01*
X54450604Y2225500D01*
X53704914Y2225500D01*
X53663165Y2232618D01*
X53627748Y2245056D01*
X53627745Y2245057D01*
X53620500Y2247601D01*
X53612856Y2248324D01*
X53612854Y2248324D01*
X53604879Y2249078D01*
X53589833Y2250500D01*
X53300147Y2250500D01*
X53010168Y2250499D01*
X53007218Y2250220D01*
X53007213Y2250220D01*
X52987150Y2248324D01*
X52987149Y2248324D01*
X52979500Y2247601D01*
X52972252Y2245056D01*
X52972249Y2245055D01*
X52864121Y2207083D01*
X52864119Y2207082D01*
X52855232Y2203961D01*
X52847657Y2198366D01*
X52847655Y2198365D01*
X52843408Y2195228D01*
X52749289Y2125711D01*
X52743697Y2118140D01*
X52705157Y2065960D01*
X52671039Y2019768D01*
X52667918Y2010881D01*
X52667917Y2010879D01*
X52631236Y1906427D01*
X52627399Y1895500D01*
X52624500Y1864833D01*
X52624500Y1726886D01*
X52620704Y1696191D01*
X52606968Y1641503D01*
X52599919Y1613441D01*
X52599031Y1443895D01*
X43735500Y1443895D01*
X43735500Y5590290D01*
X43735980Y5601272D01*
X43738303Y5627820D01*
X43738303Y5627822D01*
X43739264Y5638807D01*
X43729508Y5675215D01*
X43727130Y5685942D01*
X43726037Y5692138D01*
X43720588Y5723045D01*
X43715077Y5732590D01*
X43713885Y5735866D01*
X43712408Y5739034D01*
X43709554Y5749684D01*
X43687945Y5780544D01*
X43682039Y5789815D01*
X43668707Y5812906D01*
X43663194Y5822455D01*
X43634317Y5846685D01*
X43626215Y5854111D01*
X42390080Y7090246D01*
X42382653Y7098350D01*
X42374608Y7107938D01*
X42358424Y7127225D01*
X42348875Y7132738D01*
X42325784Y7146070D01*
X42316513Y7151976D01*
X42305124Y7159951D01*
X42285653Y7173585D01*
X42275003Y7176439D01*
X42271835Y7177916D01*
X42268559Y7179108D01*
X42259014Y7184619D01*
X42225270Y7190569D01*
X42221911Y7191161D01*
X42211180Y7193540D01*
X42209712Y7193933D01*
X42180377Y7201794D01*
X42119756Y7238745D01*
X42088735Y7302605D01*
X42097163Y7373100D01*
X42142366Y7427847D01*
X42212990Y7449500D01*
X45418500Y7449500D01*
X45486621Y7429498D01*
X45533114Y7375842D01*
X45544500Y7323500D01*
X45544500Y7105252D01*
X45545707Y7099184D01*
X45552863Y7063210D01*
X45556133Y7046769D01*
X45600448Y6980448D01*
X45610761Y6973557D01*
X45610763Y6973555D01*
X45618502Y6968384D01*
X45664030Y6913907D01*
X45674500Y6863619D01*
X45674500Y6686381D01*
X45654498Y6618260D01*
X45618502Y6581616D01*
X45610763Y6576445D01*
X45610761Y6576443D01*
X45600448Y6569552D01*
X45593557Y6559239D01*
X45564111Y6515170D01*
X45556133Y6503231D01*
X45544500Y6444748D01*
X45544500Y5105252D01*
X45545707Y5099184D01*
X45553000Y5062522D01*
X45556133Y5046769D01*
X45600448Y4980448D01*
X45666769Y4936133D01*
X45678938Y4933712D01*
X45678939Y4933712D01*
X45700331Y4929457D01*
X45725252Y4924500D01*
X46214748Y4924500D01*
X46239669Y4929457D01*
X46261061Y4933712D01*
X46261062Y4933712D01*
X46273231Y4936133D01*
X46339552Y4980448D01*
X46383867Y5046769D01*
X46387001Y5062522D01*
X46394293Y5099184D01*
X46395500Y5105252D01*
X46395500Y6444748D01*
X46383867Y6503231D01*
X46375890Y6515170D01*
X46346735Y6558802D01*
X46325500Y6628805D01*
X46325500Y6921195D01*
X46346735Y6991198D01*
X46376974Y7036453D01*
X46383867Y7046769D01*
X46387138Y7063210D01*
X46394293Y7099184D01*
X46395500Y7105252D01*
X46395500Y8444748D01*
X46383867Y8503231D01*
X46339552Y8569552D01*
X46273231Y8613867D01*
X46261062Y8616288D01*
X46261061Y8616288D01*
X46220816Y8624293D01*
X46214748Y8625500D01*
X45725252Y8625500D01*
X45719184Y8624293D01*
X45678939Y8616288D01*
X45678938Y8616288D01*
X45666769Y8613867D01*
X45600448Y8569552D01*
X45556133Y8503231D01*
X45544500Y8444748D01*
X45544500Y8226500D01*
X45524498Y8158379D01*
X45470842Y8111886D01*
X45418500Y8100500D01*
X43476500Y8100500D01*
X43408379Y8120502D01*
X43361886Y8174158D01*
X43350500Y8226500D01*
X43350500Y9371090D01*
X46529302Y9371090D01*
X46530607Y9363614D01*
X46530607Y9363611D01*
X46540158Y9308888D01*
X46541121Y9302362D01*
X46542489Y9291061D01*
X46548704Y9239700D01*
X46551389Y9232593D01*
X46552198Y9229300D01*
X46556157Y9214829D01*
X46557146Y9211553D01*
X46558453Y9204066D01*
X46561508Y9197107D01*
X46561508Y9197106D01*
X46583827Y9146260D01*
X46586319Y9140154D01*
X46602591Y9097093D01*
X46608635Y9081097D01*
X46612934Y9074842D01*
X46614515Y9071817D01*
X46621805Y9058721D01*
X46623546Y9055777D01*
X46626601Y9048818D01*
X46631226Y9042790D01*
X46631227Y9042789D01*
X46665022Y8998747D01*
X46668899Y8993411D01*
X46700361Y8947634D01*
X46700366Y8947628D01*
X46704668Y8941369D01*
X46710342Y8936314D01*
X46750628Y8900420D01*
X46755905Y8895439D01*
X47236424Y8414919D01*
X47242277Y8408653D01*
X47279831Y8365604D01*
X47331473Y8329310D01*
X47336758Y8325384D01*
X47380476Y8291105D01*
X47380480Y8291103D01*
X47386457Y8286416D01*
X47393380Y8283290D01*
X47396328Y8281505D01*
X47409288Y8274113D01*
X47412334Y8272480D01*
X47418547Y8268113D01*
X47431374Y8263112D01*
X47477366Y8245180D01*
X47483445Y8242625D01*
X47540984Y8216645D01*
X47548455Y8215260D01*
X47551723Y8214236D01*
X47566164Y8210123D01*
X47569437Y8209283D01*
X47576513Y8206524D01*
X47621183Y8200644D01*
X47639106Y8198284D01*
X47645623Y8197252D01*
X47687035Y8189577D01*
X47707692Y8185748D01*
X47715272Y8186185D01*
X47715273Y8186185D01*
X47769144Y8189291D01*
X47776396Y8189500D01*
X47976501Y8189500D01*
X48044622Y8169498D01*
X48091115Y8115842D01*
X48102501Y8063500D01*
X48102501Y7436168D01*
X48102780Y7433219D01*
X48102780Y7433213D01*
X48103131Y7429498D01*
X48105481Y7404632D01*
X48108024Y7397391D01*
X48108024Y7397390D01*
X48145069Y7291902D01*
X48150366Y7276817D01*
X48230850Y7167850D01*
X48339817Y7087366D01*
X48348704Y7084245D01*
X48348706Y7084244D01*
X48417081Y7060233D01*
X48467632Y7042481D01*
X48475278Y7041758D01*
X48475279Y7041758D01*
X48481249Y7041194D01*
X48499167Y7039500D01*
X49390048Y7039500D01*
X50281832Y7039501D01*
X50284782Y7039780D01*
X50284787Y7039780D01*
X50295406Y7040784D01*
X50313368Y7042481D01*
X50320609Y7045024D01*
X50320610Y7045024D01*
X50432294Y7084244D01*
X50432296Y7084245D01*
X50441183Y7087366D01*
X50550150Y7167850D01*
X50630634Y7276817D01*
X50635932Y7291902D01*
X50672974Y7397385D01*
X50675519Y7404632D01*
X50678500Y7436167D01*
X50678499Y10343832D01*
X50675519Y10375368D01*
X50667320Y10398715D01*
X50633756Y10494294D01*
X50633755Y10494296D01*
X50630634Y10503183D01*
X50550150Y10612150D01*
X50441183Y10692634D01*
X50432296Y10695755D01*
X50432294Y10695756D01*
X50320615Y10734974D01*
X50313368Y10737519D01*
X50305722Y10738242D01*
X50305721Y10738242D01*
X50299751Y10738806D01*
X50281833Y10740500D01*
X49390952Y10740500D01*
X48499168Y10740499D01*
X48496218Y10740220D01*
X48496213Y10740220D01*
X48485594Y10739216D01*
X48467632Y10737519D01*
X48460391Y10734976D01*
X48460390Y10734976D01*
X48348706Y10695756D01*
X48348704Y10695755D01*
X48339817Y10692634D01*
X48230850Y10612150D01*
X48225255Y10604575D01*
X48156379Y10511324D01*
X48099818Y10468413D01*
X48029037Y10462893D01*
X47966507Y10496517D01*
X47932082Y10558609D01*
X47929941Y10571045D01*
X47924967Y10612150D01*
X47919256Y10659340D01*
X47859325Y10817943D01*
X47799350Y10905207D01*
X47767594Y10951412D01*
X47767593Y10951413D01*
X47763292Y10957671D01*
X47746991Y10972195D01*
X47642372Y11065408D01*
X47642368Y11065410D01*
X47636701Y11070460D01*
X47486861Y11149796D01*
X47322421Y11191101D01*
X47314823Y11191141D01*
X47314821Y11191141D01*
X47237648Y11191545D01*
X47152875Y11191989D01*
X47145488Y11190215D01*
X47145484Y11190215D01*
X47002142Y11155800D01*
X46988012Y11152408D01*
X46981268Y11148927D01*
X46981265Y11148926D01*
X46868038Y11090485D01*
X46837349Y11074645D01*
X46709584Y10963189D01*
X46705217Y10956975D01*
X46624197Y10841695D01*
X46612093Y10824473D01*
X46550504Y10666507D01*
X46549512Y10658974D01*
X46549512Y10658973D01*
X46543348Y10612150D01*
X46533480Y10537194D01*
X46533480Y9436661D01*
X46533188Y9428091D01*
X46530357Y9386558D01*
X46529302Y9371090D01*
X43350500Y9371090D01*
X43350500Y10230290D01*
X43350980Y10241272D01*
X43353303Y10267820D01*
X43353303Y10267822D01*
X43354264Y10278807D01*
X43344508Y10315215D01*
X43342130Y10325942D01*
X43340832Y10333305D01*
X43335588Y10363045D01*
X43330077Y10372590D01*
X43328885Y10375866D01*
X43327408Y10379034D01*
X43324554Y10389684D01*
X43302945Y10420544D01*
X43297040Y10429814D01*
X43286861Y10447444D01*
X43270122Y10516439D01*
X43271057Y10526891D01*
X43271614Y10531117D01*
X43280682Y10600000D01*
X43260044Y10756762D01*
X43199536Y10902841D01*
X43103282Y11028282D01*
X43086364Y11041264D01*
X43016007Y11095250D01*
X42977841Y11124536D01*
X42831762Y11185044D01*
X42785451Y11191141D01*
X42683188Y11204604D01*
X42675000Y11205682D01*
X42666812Y11204604D01*
X42564550Y11191141D01*
X42518238Y11185044D01*
X42372159Y11124536D01*
X42333993Y11095250D01*
X42263637Y11041264D01*
X42246718Y11028282D01*
X42150464Y10902841D01*
X42089956Y10756762D01*
X42069318Y10600000D01*
X42089956Y10443238D01*
X42150464Y10297159D01*
X42246718Y10171718D01*
X42372159Y10075464D01*
X42518238Y10014956D01*
X42589946Y10005515D01*
X42654873Y9976794D01*
X42693965Y9917529D01*
X42699500Y9880594D01*
X42699500Y8226500D01*
X42679498Y8158379D01*
X42625842Y8111886D01*
X42573500Y8100500D01*
X33981500Y8100500D01*
X33913379Y8120502D01*
X33866886Y8174158D01*
X33855500Y8226500D01*
X33855500Y8444748D01*
X33843867Y8503231D01*
X33799552Y8569552D01*
X33791501Y8574932D01*
X33758380Y8635585D01*
X33755500Y8662371D01*
X33755500Y10385770D01*
X33755980Y10396752D01*
X33758303Y10423300D01*
X33758303Y10423302D01*
X33759264Y10434287D01*
X33749508Y10470695D01*
X33747130Y10481422D01*
X33744203Y10498020D01*
X33740588Y10518525D01*
X33735077Y10528070D01*
X33733885Y10531346D01*
X33732408Y10534514D01*
X33729554Y10545164D01*
X33707945Y10576024D01*
X33702039Y10585295D01*
X33688707Y10608386D01*
X33683194Y10617935D01*
X33654317Y10642165D01*
X33646215Y10649591D01*
X33029591Y11266215D01*
X33022164Y11274319D01*
X33005021Y11294749D01*
X33005022Y11294749D01*
X32997935Y11303194D01*
X32985599Y11310316D01*
X32965295Y11322039D01*
X32956024Y11327945D01*
X32934195Y11343230D01*
X32925164Y11349554D01*
X32914514Y11352408D01*
X32911346Y11353885D01*
X32908070Y11355077D01*
X32898525Y11360588D01*
X32864781Y11366538D01*
X32861422Y11367130D01*
X32850695Y11369508D01*
X32814287Y11379264D01*
X32803302Y11378303D01*
X32803300Y11378303D01*
X32776752Y11375980D01*
X32765770Y11375500D01*
X29619713Y11375500D01*
X29608732Y11375979D01*
X29582170Y11378303D01*
X29582168Y11378303D01*
X29571193Y11379263D01*
X29560550Y11376411D01*
X29555622Y11375980D01*
X29544640Y11375500D01*
X29039766Y11375500D01*
X28971645Y11395502D01*
X28925152Y11449158D01*
X28915048Y11519432D01*
X28921978Y11546244D01*
X28977757Y11693082D01*
X28977758Y11693084D01*
X28980257Y11699664D01*
X28981237Y11706636D01*
X29004700Y11873584D01*
X29004700Y11873589D01*
X29005251Y11877507D01*
X29005565Y11900000D01*
X28985546Y12078472D01*
X28971700Y12118234D01*
X28928803Y12241416D01*
X28926485Y12248073D01*
X28879659Y12323011D01*
X28835049Y12394401D01*
X28831316Y12400375D01*
X28752468Y12479775D01*
X28709733Y12522810D01*
X28709729Y12522813D01*
X28704770Y12527807D01*
X28690846Y12536644D01*
X28646860Y12564558D01*
X28553136Y12624037D01*
X28505386Y12641040D01*
X28390586Y12681919D01*
X28390581Y12681920D01*
X28383951Y12684281D01*
X28376965Y12685114D01*
X28376961Y12685115D01*
X28227403Y12702948D01*
X28205624Y12705545D01*
X28198621Y12704809D01*
X28198620Y12704809D01*
X28034025Y12687510D01*
X28034021Y12687509D01*
X28027017Y12686773D01*
X28020346Y12684502D01*
X27863677Y12631168D01*
X27863674Y12631167D01*
X27857007Y12628897D01*
X27842965Y12620258D01*
X27841214Y12619181D01*
X27775193Y12600500D01*
X26843719Y12600500D01*
X26843059Y12600502D01*
X26753895Y12600969D01*
X26752391Y12600608D01*
X26750519Y12600500D01*
X24967900Y12600500D01*
X24899779Y12620502D01*
X24853286Y12674158D01*
X24841900Y12726500D01*
X24841900Y12904686D01*
X24849018Y12946435D01*
X24861456Y12981852D01*
X24861457Y12981855D01*
X24864001Y12989100D01*
X24864730Y12996806D01*
X24866494Y13015477D01*
X24866900Y13019767D01*
X24866899Y13599432D01*
X24865343Y13615905D01*
X24864724Y13622450D01*
X24864724Y13622451D01*
X24864001Y13630100D01*
X24861455Y13637351D01*
X24823483Y13745479D01*
X24823482Y13745481D01*
X24820361Y13754368D01*
X24811065Y13766955D01*
X24747703Y13852740D01*
X24742111Y13860311D01*
X24698969Y13892176D01*
X24643745Y13932965D01*
X24643743Y13932966D01*
X24636168Y13938561D01*
X24627281Y13941682D01*
X24627279Y13941683D01*
X24519148Y13979656D01*
X24519146Y13979657D01*
X24511900Y13982201D01*
X24504256Y13982924D01*
X24504254Y13982924D01*
X24496279Y13983678D01*
X24481233Y13985100D01*
X24343286Y13985100D01*
X24312591Y13988896D01*
X24237212Y14007830D01*
X24237208Y14007830D01*
X24229841Y14009681D01*
X24222243Y14009721D01*
X24222241Y14009721D01*
X24145068Y14010125D01*
X24060295Y14010569D01*
X24052908Y14008795D01*
X24052904Y14008795D01*
X23968711Y13988581D01*
X23939296Y13985099D01*
X23801568Y13985099D01*
X23798618Y13984820D01*
X23798613Y13984820D01*
X23778550Y13982924D01*
X23778549Y13982924D01*
X23770900Y13982201D01*
X23763652Y13979656D01*
X23763649Y13979655D01*
X23655521Y13941683D01*
X23655519Y13941682D01*
X23646632Y13938561D01*
X23639057Y13932966D01*
X23639055Y13932965D01*
X23583831Y13892176D01*
X23540689Y13860311D01*
X23535097Y13852740D01*
X23471736Y13766955D01*
X23462439Y13754368D01*
X23459318Y13745481D01*
X23459317Y13745479D01*
X23421345Y13637351D01*
X23418799Y13630100D01*
X23415900Y13599433D01*
X23415901Y13019768D01*
X23418799Y12989100D01*
X23421344Y12981852D01*
X23421345Y12981849D01*
X23433782Y12946435D01*
X23440900Y12904686D01*
X23440900Y12139714D01*
X23433782Y12097965D01*
X23424479Y12071473D01*
X23418799Y12055300D01*
X23418076Y12047656D01*
X23418076Y12047654D01*
X23417547Y12042058D01*
X23415900Y12024633D01*
X23415900Y11872404D01*
X23414822Y11855961D01*
X23408285Y11806298D01*
X23407257Y11799804D01*
X23395748Y11737708D01*
X23396185Y11730128D01*
X23396185Y11730127D01*
X23399291Y11676256D01*
X23399500Y11669004D01*
X23399500Y10181500D01*
X23379498Y10113379D01*
X23325842Y10066886D01*
X23273500Y10055500D01*
X23241782Y10055500D01*
X23237232Y10054830D01*
X23237229Y10054830D01*
X23182574Y10046784D01*
X23182573Y10046784D01*
X23172888Y10045358D01*
X23144850Y10031592D01*
X23077493Y9998522D01*
X23077491Y9998521D01*
X23068145Y9993932D01*
X23060787Y9986562D01*
X23060788Y9986562D01*
X23005428Y9931105D01*
X22985707Y9911350D01*
X22981134Y9901994D01*
X22981133Y9901993D01*
X22974668Y9888766D01*
X22934464Y9806518D01*
X22924500Y9738218D01*
X22924500Y9371782D01*
X22925170Y9367232D01*
X22925170Y9367229D01*
X22933216Y9312574D01*
X22934642Y9302888D01*
X22955898Y9259594D01*
X22977877Y9214829D01*
X22986068Y9198145D01*
X23023963Y9160316D01*
X23047735Y9136586D01*
X23068650Y9115707D01*
X23173482Y9064464D01*
X23203973Y9060016D01*
X23237256Y9055160D01*
X23237260Y9055160D01*
X23241782Y9054500D01*
X23273500Y9054500D01*
X23341621Y9034498D01*
X23388114Y8980842D01*
X23399500Y8928500D01*
X23399500Y8911500D01*
X23379498Y8843379D01*
X23325842Y8796886D01*
X23273500Y8785500D01*
X23241782Y8785500D01*
X23237232Y8784830D01*
X23237229Y8784830D01*
X23182574Y8776784D01*
X23182573Y8776784D01*
X23172888Y8775358D01*
X23122992Y8750860D01*
X23077493Y8728522D01*
X23077491Y8728521D01*
X23068145Y8723932D01*
X22985707Y8641350D01*
X22981134Y8631994D01*
X22981133Y8631993D01*
X22977369Y8624293D01*
X22934464Y8536518D01*
X22933052Y8526838D01*
X22925835Y8477366D01*
X22924500Y8468218D01*
X22924500Y8101782D01*
X22925170Y8097232D01*
X22925170Y8097229D01*
X22933216Y8042574D01*
X22934642Y8032888D01*
X22986068Y7928145D01*
X23068650Y7845707D01*
X23173482Y7794464D01*
X23203973Y7790016D01*
X23237256Y7785160D01*
X23237260Y7785160D01*
X23241782Y7784500D01*
X23273500Y7784500D01*
X23341621Y7764498D01*
X23388114Y7710842D01*
X23399500Y7658500D01*
X23399500Y7641500D01*
X23379498Y7573379D01*
X23325842Y7526886D01*
X23273500Y7515500D01*
X23241782Y7515500D01*
X23237232Y7514830D01*
X23237229Y7514830D01*
X23182574Y7506784D01*
X23182573Y7506784D01*
X23172888Y7505358D01*
X23122992Y7480860D01*
X23077493Y7458522D01*
X23077491Y7458521D01*
X23068145Y7453932D01*
X22985707Y7371350D01*
X22981135Y7361996D01*
X22981133Y7361993D01*
X22975577Y7350627D01*
X22934464Y7266518D01*
X22933052Y7256838D01*
X22925241Y7203294D01*
X22924500Y7198218D01*
X22924500Y6831782D01*
X22925170Y6827232D01*
X22925170Y6827229D01*
X22933216Y6772574D01*
X22934642Y6762888D01*
X22952612Y6726288D01*
X22981319Y6667818D01*
X22986068Y6658145D01*
X23068650Y6575707D01*
X23078006Y6571134D01*
X23078007Y6571133D01*
X23102340Y6559239D01*
X23173482Y6524464D01*
X23203973Y6520016D01*
X23237256Y6515160D01*
X23237260Y6515160D01*
X23241782Y6514500D01*
X23273500Y6514500D01*
X23341621Y6494498D01*
X23388114Y6440842D01*
X23399500Y6388500D01*
X23399500Y6371500D01*
X23379498Y6303379D01*
X23325842Y6256886D01*
X23273500Y6245500D01*
X23241782Y6245500D01*
X23237232Y6244830D01*
X23237229Y6244830D01*
X23182574Y6236784D01*
X23182573Y6236784D01*
X23172888Y6235358D01*
X23137707Y6218085D01*
X23077493Y6188522D01*
X23077491Y6188521D01*
X23068145Y6183932D01*
X22985707Y6101350D01*
X22981134Y6091994D01*
X22981133Y6091993D01*
X22972094Y6073500D01*
X22934464Y5996518D01*
X22924500Y5928218D01*
X22924500Y5561782D01*
X20325500Y5561782D01*
X20325500Y5928218D01*
X20324315Y5936272D01*
X20316784Y5987426D01*
X20316784Y5987427D01*
X20315358Y5997112D01*
X20284726Y6059502D01*
X20268522Y6092507D01*
X20268521Y6092509D01*
X20263932Y6101855D01*
X20193968Y6171697D01*
X20188721Y6176935D01*
X20188720Y6176935D01*
X20181350Y6184293D01*
X20171488Y6189114D01*
X20127556Y6210588D01*
X20076518Y6235536D01*
X20037049Y6241294D01*
X20012744Y6244840D01*
X20012740Y6244840D01*
X20008218Y6245500D01*
X19669666Y6245500D01*
X19601545Y6265502D01*
X19555052Y6319158D01*
X19544948Y6389432D01*
X19574442Y6454012D01*
X19586838Y6466450D01*
X19606326Y6483450D01*
X19670809Y6513157D01*
X19689154Y6514500D01*
X20008218Y6514500D01*
X20012768Y6515170D01*
X20012771Y6515170D01*
X20067426Y6523216D01*
X20067427Y6523216D01*
X20077112Y6524642D01*
X20146688Y6558802D01*
X20172507Y6571478D01*
X20172509Y6571479D01*
X20181855Y6576068D01*
X20252510Y6646846D01*
X20256935Y6651279D01*
X20256935Y6651280D01*
X20264293Y6658650D01*
X20270024Y6670373D01*
X20297355Y6726288D01*
X20315536Y6763482D01*
X20320857Y6799955D01*
X20324840Y6827256D01*
X20324840Y6827260D01*
X20325500Y6831782D01*
X20325500Y7198218D01*
X20319497Y7239000D01*
X20316784Y7257426D01*
X20316784Y7257427D01*
X20315358Y7267112D01*
X20275946Y7347386D01*
X20268522Y7362507D01*
X20268521Y7362509D01*
X20263932Y7371855D01*
X20197557Y7438114D01*
X20188721Y7446935D01*
X20188720Y7446935D01*
X20181350Y7454293D01*
X20171492Y7459112D01*
X20116971Y7485762D01*
X20076518Y7505536D01*
X20038797Y7511039D01*
X20012744Y7514840D01*
X20012740Y7514840D01*
X20008218Y7515500D01*
X19976500Y7515500D01*
X19908379Y7535502D01*
X19861886Y7589158D01*
X19850500Y7641500D01*
X19850500Y7658500D01*
X19870502Y7726621D01*
X19924158Y7773114D01*
X19976500Y7784500D01*
X20008218Y7784500D01*
X20012768Y7785170D01*
X20012771Y7785170D01*
X20067426Y7793216D01*
X20067427Y7793216D01*
X20077112Y7794642D01*
X20171804Y7841133D01*
X20172507Y7841478D01*
X20172509Y7841479D01*
X20181855Y7846068D01*
X20264293Y7928650D01*
X20315536Y8033482D01*
X20323741Y8089722D01*
X20324840Y8097256D01*
X20324840Y8097260D01*
X20325500Y8101782D01*
X20325500Y8468218D01*
X20324154Y8477366D01*
X20316784Y8527426D01*
X20316784Y8527427D01*
X20315358Y8537112D01*
X20281058Y8606974D01*
X20268522Y8632507D01*
X20268521Y8632509D01*
X20263932Y8641855D01*
X20201794Y8703885D01*
X20188721Y8716935D01*
X20188720Y8716935D01*
X20181350Y8724293D01*
X20171181Y8729264D01*
X20114909Y8756770D01*
X20076518Y8775536D01*
X20046027Y8779984D01*
X20012744Y8784840D01*
X20012740Y8784840D01*
X20008218Y8785500D01*
X19976500Y8785500D01*
X19908379Y8805502D01*
X19861886Y8859158D01*
X19850500Y8911500D01*
X19850500Y8928500D01*
X19870502Y8996621D01*
X19924158Y9043114D01*
X19976500Y9054500D01*
X20008218Y9054500D01*
X20012768Y9055170D01*
X20012771Y9055170D01*
X20067426Y9063216D01*
X20067427Y9063216D01*
X20077112Y9064642D01*
X20127008Y9089140D01*
X20172507Y9111478D01*
X20172509Y9111479D01*
X20181855Y9116068D01*
X20250403Y9184736D01*
X20256935Y9191279D01*
X20256935Y9191280D01*
X20264293Y9198650D01*
X20272202Y9214829D01*
X20311240Y9294694D01*
X20315536Y9303482D01*
X20325500Y9371782D01*
X20325500Y9738218D01*
X20316871Y9796838D01*
X20316784Y9797426D01*
X20316784Y9797427D01*
X20315358Y9807112D01*
X20287926Y9862984D01*
X20268522Y9902507D01*
X20268521Y9902509D01*
X20263932Y9911855D01*
X20181350Y9994293D01*
X20076518Y10045536D01*
X20046027Y10049984D01*
X20012744Y10054840D01*
X20012740Y10054840D01*
X20008218Y10055500D01*
X19976500Y10055500D01*
X19908379Y10075502D01*
X19861886Y10129158D01*
X19850500Y10181500D01*
X19850500Y11907763D01*
X19850792Y11916334D01*
X19852729Y11944748D01*
X19854678Y11973330D01*
X19853373Y11980806D01*
X19853373Y11980810D01*
X19843822Y12035532D01*
X19842859Y12042058D01*
X19836189Y12097174D01*
X19835276Y12104720D01*
X19832590Y12111829D01*
X19830779Y12119203D01*
X19832335Y12119585D01*
X19826700Y12150427D01*
X19826700Y13275916D01*
X19811476Y13401720D01*
X19751545Y13560323D01*
X19727367Y13595502D01*
X19659814Y13693792D01*
X19659813Y13693793D01*
X19655512Y13700051D01*
X19643714Y13710563D01*
X19534592Y13807788D01*
X19534588Y13807790D01*
X19528921Y13812840D01*
X19468516Y13844823D01*
X19448006Y13855682D01*
X19379081Y13892176D01*
X19214641Y13933481D01*
X19207043Y13933521D01*
X19207041Y13933521D01*
X19129868Y13933925D01*
X19045095Y13934369D01*
X19037708Y13932595D01*
X19037704Y13932595D01*
X18954843Y13912701D01*
X18880232Y13894788D01*
X18873488Y13891307D01*
X18873485Y13891306D01*
X18736317Y13820508D01*
X18729569Y13817025D01*
X18723847Y13812033D01*
X18723845Y13812032D01*
X18680863Y13774536D01*
X18601804Y13705569D01*
X18569350Y13659392D01*
X18512248Y13578143D01*
X18504313Y13566853D01*
X18442724Y13408887D01*
X18441732Y13401354D01*
X18441732Y13401353D01*
X18434902Y13349471D01*
X18425700Y13279574D01*
X18425700Y11988841D01*
X18425408Y11980271D01*
X18423008Y11945063D01*
X18421522Y11923270D01*
X18422827Y11915794D01*
X18422827Y11915791D01*
X18432378Y11861068D01*
X18433341Y11854542D01*
X18437053Y11823870D01*
X18440924Y11791880D01*
X18443610Y11784771D01*
X18445421Y11777397D01*
X18443865Y11777015D01*
X18449500Y11746173D01*
X18449500Y10181500D01*
X18429498Y10113379D01*
X18375842Y10066886D01*
X18323500Y10055500D01*
X18291782Y10055500D01*
X18287232Y10054830D01*
X18287229Y10054830D01*
X18232574Y10046784D01*
X18232573Y10046784D01*
X18222888Y10045358D01*
X18194850Y10031592D01*
X18127493Y9998522D01*
X18127491Y9998521D01*
X18118145Y9993932D01*
X18110787Y9986562D01*
X18110788Y9986562D01*
X18055428Y9931105D01*
X18035707Y9911350D01*
X18031134Y9901994D01*
X18031133Y9901993D01*
X18024668Y9888766D01*
X17984464Y9806518D01*
X17974500Y9738218D01*
X17974500Y9371782D01*
X17975170Y9367232D01*
X17975170Y9367229D01*
X17983216Y9312574D01*
X17984642Y9302888D01*
X18005898Y9259594D01*
X18027877Y9214829D01*
X18036068Y9198145D01*
X18073963Y9160316D01*
X18097735Y9136586D01*
X18118650Y9115707D01*
X18223482Y9064464D01*
X18253973Y9060016D01*
X18287256Y9055160D01*
X18287260Y9055160D01*
X18291782Y9054500D01*
X18323500Y9054500D01*
X18391621Y9034498D01*
X18438114Y8980842D01*
X18449500Y8928500D01*
X18449500Y8911500D01*
X18429498Y8843379D01*
X18375842Y8796886D01*
X18323500Y8785500D01*
X18291782Y8785500D01*
X18287232Y8784830D01*
X18287229Y8784830D01*
X18232574Y8776784D01*
X18232573Y8776784D01*
X18222888Y8775358D01*
X18172992Y8750860D01*
X18127493Y8728522D01*
X18127491Y8728521D01*
X18118145Y8723932D01*
X18035707Y8641350D01*
X18031134Y8631994D01*
X18031133Y8631993D01*
X18027369Y8624293D01*
X17984464Y8536518D01*
X17983052Y8526838D01*
X17975835Y8477366D01*
X17974500Y8468218D01*
X17974500Y8101782D01*
X17975170Y8097232D01*
X17975170Y8097229D01*
X17983216Y8042574D01*
X17984642Y8032888D01*
X18036068Y7928145D01*
X18118650Y7845707D01*
X18223482Y7794464D01*
X18253973Y7790016D01*
X18287256Y7785160D01*
X18287260Y7785160D01*
X18291782Y7784500D01*
X18323500Y7784500D01*
X18391621Y7764498D01*
X18438114Y7710842D01*
X18449500Y7658500D01*
X18449500Y7641500D01*
X18429498Y7573379D01*
X18375842Y7526886D01*
X18323500Y7515500D01*
X18291782Y7515500D01*
X18287232Y7514830D01*
X18287229Y7514830D01*
X18232574Y7506784D01*
X18232573Y7506784D01*
X18222888Y7505358D01*
X18172992Y7480860D01*
X18127493Y7458522D01*
X18127491Y7458521D01*
X18118145Y7453932D01*
X18035707Y7371350D01*
X18021637Y7342566D01*
X17973754Y7290151D01*
X17908438Y7271900D01*
X16303816Y7271900D01*
X16235695Y7291902D01*
X16214721Y7308805D01*
X16068311Y7455215D01*
X16060884Y7463319D01*
X16043741Y7483749D01*
X16043742Y7483749D01*
X16036655Y7492194D01*
X16027106Y7497707D01*
X16004015Y7511039D01*
X15994744Y7516945D01*
X15972915Y7532230D01*
X15963884Y7538554D01*
X15953232Y7541408D01*
X15950076Y7542880D01*
X15946796Y7544074D01*
X15937245Y7549588D01*
X15933753Y7550204D01*
X15880632Y7589153D01*
X15820682Y7667282D01*
X15695241Y7763536D01*
X15549162Y7824044D01*
X15392400Y7844682D01*
X15235638Y7824044D01*
X15089559Y7763536D01*
X14964118Y7667282D01*
X14867864Y7541841D01*
X14807356Y7395762D01*
X14806278Y7387574D01*
X14804209Y7371855D01*
X14786718Y7239000D01*
X3241417Y7239000D01*
X3211386Y7273658D01*
X3200000Y7326000D01*
X3200000Y16465252D01*
X32694500Y16465252D01*
X32695707Y16459184D01*
X32701942Y16427841D01*
X32706133Y16406769D01*
X32713026Y16396453D01*
X32725509Y16377771D01*
X32750448Y16340448D01*
X32816769Y16296133D01*
X32828938Y16293712D01*
X32828939Y16293712D01*
X32869184Y16285707D01*
X32875252Y16284500D01*
X34314748Y16284500D01*
X34320816Y16285707D01*
X34361061Y16293712D01*
X34361062Y16293712D01*
X34373231Y16296133D01*
X34439552Y16340448D01*
X34464491Y16377771D01*
X34476974Y16396453D01*
X34483867Y16406769D01*
X34488059Y16427841D01*
X34494293Y16459184D01*
X34495500Y16465252D01*
X34495500Y16883500D01*
X34515502Y16951621D01*
X34569158Y16998114D01*
X34621500Y17009500D01*
X34965290Y17009500D01*
X34976272Y17009020D01*
X35002820Y17006697D01*
X35002822Y17006697D01*
X35013807Y17005736D01*
X35050215Y17015492D01*
X35060942Y17017870D01*
X35064301Y17018462D01*
X35098045Y17024412D01*
X35107590Y17029923D01*
X35110866Y17031115D01*
X35114034Y17032592D01*
X35124684Y17035446D01*
X35155544Y17057055D01*
X35164815Y17062961D01*
X35187906Y17076293D01*
X35197455Y17081806D01*
X35221685Y17110683D01*
X35229111Y17118785D01*
X35647921Y17537595D01*
X35710233Y17571621D01*
X35737016Y17574500D01*
X36741568Y17574500D01*
X36809689Y17554498D01*
X36856182Y17500842D01*
X36866286Y17430568D01*
X36836792Y17365988D01*
X36811571Y17343736D01*
X36755764Y17306446D01*
X36755761Y17306443D01*
X36745448Y17299552D01*
X36701133Y17233231D01*
X36689500Y17174748D01*
X36689500Y16335252D01*
X36690707Y16329184D01*
X36697383Y16295624D01*
X36701133Y16276769D01*
X36745448Y16210448D01*
X36811769Y16166133D01*
X36823938Y16163712D01*
X36823939Y16163712D01*
X36859111Y16156716D01*
X36870252Y16154500D01*
X37449748Y16154500D01*
X37460889Y16156716D01*
X37496061Y16163712D01*
X37496062Y16163712D01*
X37508231Y16166133D01*
X37574552Y16210448D01*
X37618867Y16276769D01*
X37622618Y16295624D01*
X37629293Y16329184D01*
X37630500Y16335252D01*
X37630500Y17174748D01*
X37618867Y17233231D01*
X37574552Y17299552D01*
X37564239Y17306443D01*
X37564236Y17306446D01*
X37508429Y17343736D01*
X37462902Y17398213D01*
X37454055Y17468656D01*
X37484696Y17532700D01*
X37545099Y17570011D01*
X37578432Y17574500D01*
X41821568Y17574500D01*
X41889689Y17554498D01*
X41936182Y17500842D01*
X41946286Y17430568D01*
X41916792Y17365988D01*
X41891571Y17343736D01*
X41835764Y17306446D01*
X41835761Y17306443D01*
X41825448Y17299552D01*
X41781133Y17233231D01*
X41769500Y17174748D01*
X41769500Y16335252D01*
X41770707Y16329184D01*
X41777383Y16295624D01*
X41781133Y16276769D01*
X41825448Y16210448D01*
X41891769Y16166133D01*
X41903938Y16163712D01*
X41903939Y16163712D01*
X41939111Y16156716D01*
X41950252Y16154500D01*
X42529748Y16154500D01*
X42540889Y16156716D01*
X42576061Y16163712D01*
X42576062Y16163712D01*
X42588231Y16166133D01*
X42654552Y16210448D01*
X42698867Y16276769D01*
X42702618Y16295624D01*
X42709293Y16329184D01*
X42710500Y16335252D01*
X42710500Y17174748D01*
X42698867Y17233231D01*
X42654552Y17299552D01*
X42644239Y17306443D01*
X42644236Y17306446D01*
X42588429Y17343736D01*
X42542902Y17398213D01*
X42534055Y17468656D01*
X42564696Y17532700D01*
X42625099Y17570011D01*
X42658432Y17574500D01*
X44778500Y17574500D01*
X44846621Y17554498D01*
X44893114Y17500842D01*
X44904500Y17448500D01*
X44904500Y16465252D01*
X44905707Y16459184D01*
X44911942Y16427841D01*
X44916133Y16406769D01*
X44923026Y16396453D01*
X44935509Y16377771D01*
X44960448Y16340448D01*
X45026769Y16296133D01*
X45038938Y16293712D01*
X45038939Y16293712D01*
X45079184Y16285707D01*
X45085252Y16284500D01*
X45353500Y16284500D01*
X45421621Y16264498D01*
X45468114Y16210842D01*
X45479500Y16158500D01*
X45479500Y14067016D01*
X45459498Y13998895D01*
X45442595Y13977921D01*
X45077079Y13612405D01*
X45014767Y13578379D01*
X44987984Y13575500D01*
X42969286Y13575500D01*
X42901165Y13595502D01*
X42869323Y13624796D01*
X42833305Y13671736D01*
X42828282Y13678282D01*
X42702841Y13774536D01*
X42556762Y13835044D01*
X42400000Y13855682D01*
X42243238Y13835044D01*
X42097159Y13774536D01*
X41971718Y13678282D01*
X41966695Y13671736D01*
X41957223Y13659392D01*
X41875464Y13552841D01*
X41814956Y13406762D01*
X41794318Y13250000D01*
X41814956Y13093238D01*
X41875464Y12947159D01*
X41971718Y12821718D01*
X42097159Y12725464D01*
X42243238Y12664956D01*
X42400000Y12644318D01*
X42408188Y12645396D01*
X42548574Y12663878D01*
X42556762Y12664956D01*
X42702841Y12725464D01*
X42828282Y12821718D01*
X42869323Y12875204D01*
X42926661Y12917071D01*
X42969286Y12924500D01*
X45155290Y12924500D01*
X45166272Y12924020D01*
X45192820Y12921697D01*
X45192822Y12921697D01*
X45203807Y12920736D01*
X45240215Y12930492D01*
X45250942Y12932870D01*
X45254301Y12933462D01*
X45288045Y12939412D01*
X45297590Y12944923D01*
X45300866Y12946115D01*
X45304034Y12947592D01*
X45314684Y12950446D01*
X45345544Y12972055D01*
X45354815Y12977961D01*
X45377906Y12991293D01*
X45387455Y12996806D01*
X45411685Y13025683D01*
X45419111Y13033785D01*
X46021215Y13635889D01*
X46029319Y13643316D01*
X46048295Y13659239D01*
X46058194Y13667545D01*
X46072555Y13692419D01*
X46077039Y13700185D01*
X46082945Y13709456D01*
X46087729Y13716288D01*
X46104554Y13740316D01*
X46107408Y13750966D01*
X46108885Y13754134D01*
X46110077Y13757410D01*
X46115588Y13766955D01*
X46122130Y13804058D01*
X46124509Y13814790D01*
X46126041Y13820508D01*
X46134264Y13851193D01*
X46132978Y13865903D01*
X46130979Y13888743D01*
X46130500Y13899724D01*
X46130500Y16006782D01*
X47733000Y16006782D01*
X47733670Y16002232D01*
X47733670Y16002229D01*
X47741716Y15947574D01*
X47743142Y15937888D01*
X47747458Y15929098D01*
X47783551Y15855585D01*
X47794568Y15833145D01*
X47824199Y15803566D01*
X47860863Y15766966D01*
X47877150Y15750707D01*
X47886506Y15746134D01*
X47886507Y15746133D01*
X47899402Y15739830D01*
X47981982Y15699464D01*
X48012473Y15695016D01*
X48045756Y15690160D01*
X48045760Y15690160D01*
X48050282Y15689500D01*
X48658983Y15689500D01*
X48727104Y15669498D01*
X48748079Y15652595D01*
X49121576Y15279097D01*
X49155601Y15216785D01*
X49158480Y15190002D01*
X49158480Y14913158D01*
X49158000Y14902176D01*
X49156225Y14881884D01*
X49154716Y14864641D01*
X49163367Y14832358D01*
X49164471Y14828238D01*
X49166850Y14817506D01*
X49173392Y14780403D01*
X49178903Y14770858D01*
X49180095Y14767582D01*
X49181572Y14764414D01*
X49184426Y14753764D01*
X49198752Y14733305D01*
X49206035Y14722904D01*
X49211941Y14713633D01*
X49213005Y14711791D01*
X49230786Y14680993D01*
X49239231Y14673907D01*
X49259655Y14656769D01*
X49267760Y14649342D01*
X49655329Y14261772D01*
X49662755Y14253669D01*
X49686973Y14224806D01*
X49696516Y14219296D01*
X49696520Y14219293D01*
X49719607Y14205964D01*
X49728876Y14200060D01*
X49759744Y14178446D01*
X49770392Y14175593D01*
X49773563Y14174114D01*
X49776839Y14172922D01*
X49786383Y14167412D01*
X49823504Y14160866D01*
X49834211Y14158492D01*
X49870621Y14148737D01*
X49881596Y14149697D01*
X49881598Y14149697D01*
X49908159Y14152021D01*
X49919140Y14152500D01*
X52840801Y14152500D01*
X52851783Y14152020D01*
X52878331Y14149697D01*
X52878333Y14149697D01*
X52889318Y14148736D01*
X52925726Y14158492D01*
X52936453Y14160870D01*
X52939812Y14161462D01*
X52973556Y14167412D01*
X52983101Y14172923D01*
X52986377Y14174115D01*
X52989545Y14175592D01*
X53000195Y14178446D01*
X53031061Y14200059D01*
X53040326Y14205961D01*
X53063417Y14219293D01*
X53072966Y14224806D01*
X53097196Y14253683D01*
X53104622Y14261785D01*
X53183921Y14341084D01*
X53246233Y14375110D01*
X53273016Y14377989D01*
X53291779Y14377989D01*
X53302761Y14377509D01*
X53329309Y14375186D01*
X53329311Y14375186D01*
X53340296Y14374225D01*
X53376704Y14383981D01*
X53387431Y14386359D01*
X53394083Y14387532D01*
X53424534Y14392901D01*
X53434079Y14398412D01*
X53437355Y14399604D01*
X53440523Y14401081D01*
X53451173Y14403935D01*
X53482033Y14425544D01*
X53491304Y14431450D01*
X53514395Y14444782D01*
X53523944Y14450295D01*
X53548174Y14479172D01*
X53555600Y14487274D01*
X53728405Y14660079D01*
X53790717Y14694105D01*
X53861532Y14689040D01*
X53918368Y14646493D01*
X53943179Y14579973D01*
X53943500Y14570984D01*
X53943500Y14058252D01*
X53944707Y14052184D01*
X53950445Y14023339D01*
X53955133Y13999769D01*
X53999448Y13933448D01*
X54009761Y13926557D01*
X54052185Y13898210D01*
X54065769Y13889133D01*
X54077938Y13886712D01*
X54077939Y13886712D01*
X54118184Y13878707D01*
X54124252Y13877500D01*
X54437397Y13877500D01*
X54505518Y13857498D01*
X54552011Y13803842D01*
X54562115Y13733568D01*
X54532621Y13668988D01*
X54514102Y13651538D01*
X54461118Y13610882D01*
X54456095Y13604336D01*
X54445909Y13591061D01*
X54364864Y13485441D01*
X54304356Y13339362D01*
X54283718Y13182600D01*
X54304356Y13025838D01*
X54364864Y12879759D01*
X54406882Y12825000D01*
X54445020Y12775298D01*
X54461118Y12754318D01*
X54586559Y12658064D01*
X54732638Y12597556D01*
X54889400Y12576918D01*
X54897588Y12577996D01*
X55037974Y12596478D01*
X55046162Y12597556D01*
X55192241Y12658064D01*
X55317682Y12754318D01*
X55333781Y12775298D01*
X55371918Y12825000D01*
X55413936Y12879759D01*
X55474444Y13025838D01*
X55495082Y13182600D01*
X55474444Y13339362D01*
X55413936Y13485441D01*
X55332891Y13591061D01*
X55322705Y13604336D01*
X55317682Y13610882D01*
X55192241Y13707136D01*
X55184615Y13710295D01*
X55183042Y13711203D01*
X55134049Y13762585D01*
X55120613Y13832299D01*
X55146999Y13898210D01*
X55176040Y13925087D01*
X55178237Y13926555D01*
X55178239Y13926557D01*
X55188552Y13933448D01*
X55232867Y13999769D01*
X55237556Y14023339D01*
X55243293Y14052184D01*
X55244500Y14058252D01*
X55244500Y14063994D01*
X55271024Y14129682D01*
X55328979Y14170692D01*
X55369835Y14177500D01*
X56675634Y14177500D01*
X56678307Y14177304D01*
X56683342Y14175575D01*
X56694964Y14176011D01*
X56694966Y14176011D01*
X56732255Y14177411D01*
X56736981Y14177500D01*
X56755948Y14177500D01*
X56760683Y14178382D01*
X56764209Y14178610D01*
X56767949Y14178751D01*
X56795208Y14179774D01*
X56805893Y14184364D01*
X56810493Y14185401D01*
X56822214Y14188962D01*
X56826617Y14190661D01*
X56838053Y14192791D01*
X56859041Y14205728D01*
X56875411Y14214231D01*
X56889888Y14220451D01*
X56889892Y14220453D01*
X56898063Y14223964D01*
X56902949Y14227978D01*
X56905134Y14230163D01*
X56907397Y14232215D01*
X56907542Y14232055D01*
X56916549Y14239175D01*
X56923444Y14245427D01*
X56933348Y14251532D01*
X56949916Y14273320D01*
X56961110Y14286139D01*
X57549220Y14874249D01*
X57611532Y14908275D01*
X57682347Y14903210D01*
X57739183Y14860663D01*
X57763994Y14794143D01*
X57763237Y14768708D01*
X57750757Y14673907D01*
X57744318Y14625000D01*
X57745396Y14616812D01*
X57761733Y14492723D01*
X57764956Y14468238D01*
X57768116Y14460609D01*
X57772388Y14450295D01*
X57825464Y14322159D01*
X57872555Y14260789D01*
X57912707Y14208462D01*
X57921718Y14196718D01*
X57928264Y14191695D01*
X57946763Y14177500D01*
X58047159Y14100464D01*
X58193238Y14039956D01*
X58350000Y14019318D01*
X58500426Y14039122D01*
X58570573Y14028183D01*
X58623672Y13981055D01*
X58642862Y13912701D01*
X58622051Y13844823D01*
X58593575Y13814238D01*
X58553268Y13783309D01*
X58553264Y13783305D01*
X58546718Y13778282D01*
X58541695Y13771736D01*
X58534673Y13762585D01*
X58450464Y13652841D01*
X58389956Y13506762D01*
X58388878Y13498574D01*
X58387988Y13491812D01*
X58369318Y13350000D01*
X58389956Y13193238D01*
X58393115Y13185611D01*
X58393116Y13185608D01*
X58428693Y13099718D01*
X58436282Y13029128D01*
X58404503Y12965641D01*
X58343444Y12929414D01*
X58312284Y12925500D01*
X58152366Y12925500D01*
X58149693Y12925696D01*
X58144658Y12927425D01*
X58133036Y12926989D01*
X58133034Y12926989D01*
X58095744Y12925589D01*
X58091018Y12925500D01*
X58072052Y12925500D01*
X58067317Y12924619D01*
X58063790Y12924390D01*
X58059254Y12924220D01*
X58032791Y12923226D01*
X58022104Y12918634D01*
X58017492Y12917595D01*
X58005800Y12914043D01*
X58001383Y12912339D01*
X57989947Y12910209D01*
X57976748Y12902073D01*
X57968961Y12897273D01*
X57952589Y12888769D01*
X57938112Y12882549D01*
X57938108Y12882547D01*
X57929937Y12879036D01*
X57925051Y12875022D01*
X57922866Y12872837D01*
X57920603Y12870785D01*
X57920458Y12870945D01*
X57911451Y12863826D01*
X57904553Y12857571D01*
X57894652Y12851468D01*
X57887611Y12842209D01*
X57885745Y12840517D01*
X57862667Y12825184D01*
X57860316Y12824554D01*
X57789972Y12775298D01*
X57558745Y12544071D01*
X57550641Y12536644D01*
X57521766Y12512415D01*
X57516253Y12502866D01*
X57502921Y12479775D01*
X57497015Y12470504D01*
X57475406Y12439644D01*
X57472552Y12428994D01*
X57471075Y12425826D01*
X57469883Y12422550D01*
X57464372Y12413005D01*
X57458422Y12379261D01*
X57457830Y12375902D01*
X57455452Y12365175D01*
X57445696Y12328767D01*
X57446657Y12317782D01*
X57446657Y12317780D01*
X57448980Y12291232D01*
X57449460Y12280250D01*
X57449460Y6012056D01*
X57429458Y5943935D01*
X57412555Y5922961D01*
X57069039Y5579445D01*
X57006727Y5545419D01*
X56979944Y5542540D01*
X50956750Y5542540D01*
X50945768Y5543020D01*
X50919220Y5545343D01*
X50919218Y5545343D01*
X50908233Y5546304D01*
X50871825Y5536548D01*
X50861098Y5534170D01*
X50857739Y5533578D01*
X50823995Y5527628D01*
X50814450Y5522117D01*
X50811174Y5520925D01*
X50808006Y5519448D01*
X50797356Y5516594D01*
X50781573Y5505542D01*
X50766496Y5494985D01*
X50757225Y5489079D01*
X50734134Y5475747D01*
X50724585Y5470234D01*
X50717499Y5461789D01*
X50700355Y5441358D01*
X50692929Y5433255D01*
X48940383Y3680709D01*
X48878071Y3646683D01*
X48834843Y3644882D01*
X48768000Y3653682D01*
X48611238Y3633044D01*
X48465159Y3572536D01*
X48395762Y3519286D01*
X48367532Y3497624D01*
X48339718Y3476282D01*
X48243464Y3350841D01*
X48182956Y3204762D01*
X48162318Y3048000D01*
X48182956Y2891238D01*
X48243464Y2745159D01*
X48339718Y2619718D01*
X48346264Y2614695D01*
X48356818Y2606597D01*
X48465159Y2523464D01*
X48611238Y2462956D01*
X48768000Y2442318D01*
X48776188Y2443396D01*
X48916574Y2461878D01*
X48924762Y2462956D01*
X49070841Y2523464D01*
X49179182Y2606597D01*
X49189736Y2614695D01*
X49196282Y2619718D01*
X49292536Y2745159D01*
X49353044Y2891238D01*
X49373682Y3048000D01*
X49364882Y3114843D01*
X49375821Y3184990D01*
X49400709Y3220383D01*
X49972481Y3792155D01*
X50034793Y3826181D01*
X50105608Y3821116D01*
X50162444Y3778569D01*
X50186498Y3719505D01*
X50189956Y3693238D01*
X50250464Y3547159D01*
X50346718Y3421718D01*
X50472159Y3325464D01*
X50618238Y3264956D01*
X50775000Y3244318D01*
X50783188Y3245396D01*
X50923574Y3263878D01*
X50931762Y3264956D01*
X50939389Y3268115D01*
X50939392Y3268116D01*
X51071669Y3322907D01*
X51142259Y3330496D01*
X51205746Y3298717D01*
X51241973Y3237658D01*
X51239439Y3166707D01*
X51236295Y3158279D01*
X51218117Y3114395D01*
X51218116Y3114391D01*
X51214956Y3106762D01*
X51194318Y2950000D01*
X51214956Y2793238D01*
X51275464Y2647159D01*
X51371718Y2521718D01*
X51497159Y2425464D01*
X51643238Y2364956D01*
X51800000Y2344318D01*
X51808188Y2345396D01*
X51948574Y2363878D01*
X51956762Y2364956D01*
X52102841Y2425464D01*
X52228282Y2521718D01*
X52324536Y2647159D01*
X52385044Y2793238D01*
X52405682Y2950000D01*
X52385044Y3106762D01*
X52380291Y3118238D01*
X52356180Y3176446D01*
X52324536Y3252841D01*
X52228282Y3378282D01*
X52174796Y3419323D01*
X52132929Y3476661D01*
X52125500Y3519286D01*
X52125500Y3848500D01*
X52145502Y3916621D01*
X52199158Y3963114D01*
X52251500Y3974500D01*
X58055290Y3974500D01*
X58066272Y3974020D01*
X58092820Y3971697D01*
X58092822Y3971697D01*
X58103807Y3970736D01*
X58140215Y3980492D01*
X58150942Y3982870D01*
X58154301Y3983462D01*
X58188045Y3989412D01*
X58197590Y3994923D01*
X58200866Y3996115D01*
X58204034Y3997592D01*
X58214684Y4000446D01*
X58245544Y4022055D01*
X58254815Y4027961D01*
X58277906Y4041293D01*
X58287455Y4046806D01*
X58311685Y4075683D01*
X58319111Y4083785D01*
X59003914Y4768588D01*
X59012018Y4776015D01*
X59032448Y4793158D01*
X59040893Y4800244D01*
X59048286Y4813049D01*
X59059738Y4832884D01*
X59065644Y4842155D01*
X59076050Y4857016D01*
X59087253Y4873015D01*
X59090107Y4883665D01*
X59091584Y4886833D01*
X59092776Y4890109D01*
X59098287Y4899654D01*
X59104829Y4936757D01*
X59107208Y4947489D01*
X59109434Y4955796D01*
X59116963Y4983892D01*
X59115624Y4999208D01*
X59113678Y5021442D01*
X59113199Y5032423D01*
X59113199Y8089722D01*
X59133201Y8157843D01*
X59186857Y8204336D01*
X59257131Y8214440D01*
X59287417Y8206131D01*
X59347808Y8181116D01*
X59347811Y8181115D01*
X59355438Y8177956D01*
X59512200Y8157318D01*
X59520388Y8158396D01*
X59660774Y8176878D01*
X59668962Y8177956D01*
X59815041Y8238464D01*
X59940482Y8334718D01*
X59952373Y8350214D01*
X60031709Y8453608D01*
X60036736Y8460159D01*
X60097244Y8606238D01*
X60098558Y8616215D01*
X60116804Y8754812D01*
X60117882Y8763000D01*
X60097244Y8919762D01*
X60036736Y9065841D01*
X59953873Y9173831D01*
X59945505Y9184736D01*
X59940482Y9191282D01*
X59918686Y9208007D01*
X59873134Y9242960D01*
X59815041Y9287536D01*
X59668962Y9348044D01*
X59658245Y9349455D01*
X59550718Y9363611D01*
X59512200Y9368682D01*
X59473682Y9363611D01*
X59366156Y9349455D01*
X59355438Y9348044D01*
X59347811Y9344885D01*
X59347808Y9344884D01*
X59287417Y9319869D01*
X59216827Y9312280D01*
X59153340Y9344060D01*
X59117113Y9405118D01*
X59113199Y9436278D01*
X59113199Y11261038D01*
X59133201Y11329159D01*
X59150104Y11350133D01*
X59287566Y11487595D01*
X59349878Y11521621D01*
X59376661Y11524500D01*
X60744748Y11524500D01*
X60750816Y11525707D01*
X60791061Y11533712D01*
X60791062Y11533712D01*
X60803231Y11536133D01*
X60869552Y11580448D01*
X60913867Y11646769D01*
X60925500Y11705252D01*
X60925500Y11944748D01*
X60914426Y12000421D01*
X60914426Y12049579D01*
X60925500Y12105252D01*
X60925500Y12344748D01*
X60914426Y12400421D01*
X60914426Y12449579D01*
X60925500Y12505252D01*
X60925500Y12744748D01*
X60924294Y12750811D01*
X60924293Y12750821D01*
X60919698Y12773921D01*
X60926027Y12844634D01*
X60969582Y12900701D01*
X61043277Y12924500D01*
X61106723Y12924500D01*
X61174844Y12904498D01*
X61221337Y12850842D01*
X61230302Y12773921D01*
X61225707Y12750821D01*
X61225706Y12750811D01*
X61224500Y12744748D01*
X61224500Y12505252D01*
X61235574Y12449579D01*
X61235574Y12400421D01*
X61224500Y12344748D01*
X61224500Y12105252D01*
X61235574Y12049579D01*
X61235574Y12000421D01*
X61224500Y11944748D01*
X61224500Y11705252D01*
X61236133Y11646769D01*
X61280448Y11580448D01*
X61346769Y11536133D01*
X61358938Y11533712D01*
X61358939Y11533712D01*
X61399184Y11525707D01*
X61405252Y11524500D01*
X62448339Y11524500D01*
X62516460Y11504498D01*
X62537434Y11487595D01*
X62837595Y11187434D01*
X62871621Y11125122D01*
X62874500Y11098339D01*
X62874500Y8477366D01*
X62874304Y8474693D01*
X62872575Y8469658D01*
X62873011Y8458036D01*
X62873011Y8458034D01*
X62874411Y8420745D01*
X62874500Y8416019D01*
X62874500Y8397052D01*
X62875382Y8392317D01*
X62875610Y8388791D01*
X62876774Y8357792D01*
X62881364Y8347107D01*
X62882401Y8342507D01*
X62885962Y8330786D01*
X62887661Y8326383D01*
X62889791Y8314947D01*
X62895895Y8305045D01*
X62902727Y8293961D01*
X62911231Y8277589D01*
X62917451Y8263112D01*
X62917453Y8263108D01*
X62920964Y8254937D01*
X62924978Y8250051D01*
X62927163Y8247866D01*
X62929215Y8245603D01*
X62929055Y8245458D01*
X62936175Y8236451D01*
X62942427Y8229556D01*
X62948532Y8219652D01*
X62970320Y8203084D01*
X62983139Y8191890D01*
X63421404Y7753625D01*
X63455430Y7691313D01*
X63457231Y7648084D01*
X63444318Y7550000D01*
X63445396Y7541812D01*
X63458700Y7440761D01*
X63464956Y7393238D01*
X63525464Y7247159D01*
X63621718Y7121718D01*
X63747159Y7025464D01*
X63893238Y6964956D01*
X64050000Y6944318D01*
X64058188Y6945396D01*
X64198574Y6963878D01*
X64206762Y6964956D01*
X64352841Y7025464D01*
X64478282Y7121718D01*
X64574536Y7247159D01*
X64635044Y7393238D01*
X64641301Y7440761D01*
X64654604Y7541812D01*
X64655682Y7550000D01*
X64635044Y7706762D01*
X64574536Y7852841D01*
X64478282Y7978282D01*
X64352841Y8074536D01*
X64206762Y8135044D01*
X64148085Y8142769D01*
X64058188Y8154604D01*
X64050000Y8155682D01*
X63951916Y8142769D01*
X63881768Y8153708D01*
X63846375Y8178596D01*
X63512405Y8512566D01*
X63478379Y8574878D01*
X63475500Y8601661D01*
X63475500Y10703412D01*
X63495502Y10771533D01*
X63549158Y10818026D01*
X63619432Y10828130D01*
X63678204Y10803375D01*
X63747159Y10750464D01*
X63893238Y10689956D01*
X64050000Y10669318D01*
X64058188Y10670396D01*
X64072218Y10672243D01*
X64206762Y10689956D01*
X64352841Y10750464D01*
X64478282Y10846718D01*
X64574536Y10972159D01*
X64635044Y11118238D01*
X64655682Y11275000D01*
X64635044Y11431762D01*
X64574536Y11577841D01*
X64499020Y11676256D01*
X64483305Y11696736D01*
X64478282Y11703282D01*
X64392433Y11769156D01*
X64350567Y11826493D01*
X64348557Y11833395D01*
X64348226Y11842208D01*
X64343632Y11852900D01*
X64342595Y11857503D01*
X64339038Y11869214D01*
X64337339Y11873617D01*
X64335209Y11885053D01*
X64322272Y11906041D01*
X64313769Y11922411D01*
X64307549Y11936888D01*
X64307547Y11936892D01*
X64304036Y11945063D01*
X64300022Y11949949D01*
X64297837Y11952134D01*
X64295785Y11954397D01*
X64295945Y11954542D01*
X64288825Y11963549D01*
X64282573Y11970444D01*
X64276468Y11980348D01*
X64254680Y11996916D01*
X64241861Y12008110D01*
X64140566Y12109405D01*
X64106540Y12171717D01*
X64111605Y12242532D01*
X64154152Y12299368D01*
X64220672Y12324179D01*
X64229661Y12324500D01*
X64297634Y12324500D01*
X64300307Y12324304D01*
X64305342Y12322575D01*
X64316964Y12323011D01*
X64316966Y12323011D01*
X64354255Y12324411D01*
X64358981Y12324500D01*
X64377948Y12324500D01*
X64382683Y12325382D01*
X64386209Y12325610D01*
X64389949Y12325751D01*
X64417208Y12326774D01*
X64427893Y12331364D01*
X64432493Y12332401D01*
X64444214Y12335962D01*
X64448617Y12337661D01*
X64460053Y12339791D01*
X64481041Y12352728D01*
X64497411Y12361231D01*
X64511888Y12367451D01*
X64511892Y12367453D01*
X64520063Y12370964D01*
X64524949Y12374978D01*
X64527134Y12377163D01*
X64529397Y12379215D01*
X64529542Y12379055D01*
X64538549Y12386175D01*
X64545444Y12392427D01*
X64555348Y12398532D01*
X64571916Y12420320D01*
X64583110Y12433139D01*
X65125452Y12975481D01*
X65127486Y12977237D01*
X65132269Y12979575D01*
X65148198Y12996746D01*
X65165573Y13015477D01*
X65168853Y13018882D01*
X65182248Y13032277D01*
X65184972Y13036247D01*
X65187297Y13038895D01*
X65200492Y13053119D01*
X65200494Y13053122D01*
X65208401Y13061646D01*
X65212711Y13072450D01*
X65215233Y13076439D01*
X65220994Y13087227D01*
X65222911Y13091552D01*
X65229492Y13101146D01*
X65235183Y13125127D01*
X65240748Y13142724D01*
X65246588Y13157362D01*
X65246589Y13157365D01*
X65249883Y13165622D01*
X65250500Y13171915D01*
X65250500Y13174994D01*
X65250650Y13178067D01*
X65250866Y13178056D01*
X65252198Y13189431D01*
X65252654Y13198746D01*
X65255340Y13210066D01*
X65251651Y13237173D01*
X65250500Y13254164D01*
X65250500Y15747634D01*
X65250696Y15750307D01*
X65252425Y15755342D01*
X65250589Y15804255D01*
X65250500Y15808981D01*
X65250500Y15827948D01*
X65249618Y15832683D01*
X65249390Y15836209D01*
X65249131Y15843105D01*
X65248226Y15867208D01*
X65243636Y15877893D01*
X65242599Y15882493D01*
X65239038Y15894213D01*
X65237339Y15898616D01*
X65235209Y15910053D01*
X65231183Y15916584D01*
X65224162Y15975472D01*
X65229604Y16016810D01*
X65229604Y16016812D01*
X65230682Y16025000D01*
X65213341Y16156716D01*
X65211122Y16173574D01*
X65210044Y16181762D01*
X65149536Y16327841D01*
X65144508Y16334394D01*
X65144506Y16334397D01*
X65115809Y16371796D01*
X65090208Y16438016D01*
X65104473Y16507565D01*
X65154074Y16558361D01*
X65215771Y16574500D01*
X66873339Y16574500D01*
X66941460Y16554498D01*
X66962434Y16537595D01*
X67196404Y16303625D01*
X67230430Y16241313D01*
X67232231Y16198084D01*
X67219318Y16100000D01*
X67239956Y15943238D01*
X67300464Y15797159D01*
X67351722Y15730358D01*
X67391183Y15678932D01*
X67396718Y15671718D01*
X67522159Y15575464D01*
X67668238Y15514956D01*
X67825000Y15494318D01*
X67833188Y15495396D01*
X67973574Y15513878D01*
X67981762Y15514956D01*
X68127841Y15575464D01*
X68134390Y15580489D01*
X68134393Y15580491D01*
X68146795Y15590008D01*
X68213015Y15615609D01*
X68282564Y15601345D01*
X68333361Y15551744D01*
X68349500Y15490046D01*
X68349500Y14069286D01*
X68329498Y14001165D01*
X68300204Y13969323D01*
X68253494Y13933481D01*
X68246718Y13928282D01*
X68150464Y13802841D01*
X68089956Y13656762D01*
X68088878Y13648574D01*
X68087422Y13637514D01*
X68058700Y13572587D01*
X67999435Y13533495D01*
X67928443Y13532650D01*
X67868264Y13570320D01*
X67837578Y13637514D01*
X67836122Y13648574D01*
X67835044Y13656762D01*
X67774536Y13802841D01*
X67678282Y13928282D01*
X67671455Y13933521D01*
X67604235Y13985100D01*
X67552841Y14024536D01*
X67406762Y14085044D01*
X67250000Y14105682D01*
X67093238Y14085044D01*
X66947159Y14024536D01*
X66895765Y13985100D01*
X66828546Y13933521D01*
X66821718Y13928282D01*
X66725464Y13802841D01*
X66664956Y13656762D01*
X66663878Y13648574D01*
X66662400Y13637348D01*
X66644318Y13500000D01*
X66645396Y13491812D01*
X66658794Y13390047D01*
X66664956Y13343238D01*
X66725464Y13197159D01*
X66745564Y13170964D01*
X66809818Y13087227D01*
X66821718Y13071718D01*
X66947159Y12975464D01*
X67093238Y12914956D01*
X67101426Y12913878D01*
X67166948Y12905252D01*
X67250000Y12894318D01*
X67348084Y12907231D01*
X67418231Y12896292D01*
X67453625Y12871404D01*
X67598528Y12726500D01*
X67737596Y12587432D01*
X67771621Y12525120D01*
X67774500Y12498337D01*
X67774500Y3752366D01*
X67774304Y3749693D01*
X67772575Y3744658D01*
X67773011Y3733036D01*
X67773011Y3733034D01*
X67774411Y3695745D01*
X67774500Y3691019D01*
X67774500Y3672052D01*
X67775382Y3667317D01*
X67775610Y3663791D01*
X67776774Y3632792D01*
X67781364Y3622107D01*
X67782401Y3617507D01*
X67785962Y3605786D01*
X67787661Y3601383D01*
X67789791Y3589947D01*
X67802727Y3568961D01*
X67811231Y3552589D01*
X67817451Y3538112D01*
X67817453Y3538108D01*
X67820964Y3529937D01*
X67824978Y3525051D01*
X67827163Y3522866D01*
X67829215Y3520603D01*
X67829055Y3520458D01*
X67836175Y3511451D01*
X67842427Y3504556D01*
X67848532Y3494652D01*
X67857794Y3487609D01*
X67858243Y3487267D01*
X67858848Y3486446D01*
X67865606Y3478993D01*
X67864847Y3478305D01*
X67900358Y3430111D01*
X67906894Y3370528D01*
X67900003Y3318182D01*
X67894318Y3275000D01*
X67914956Y3118238D01*
X67918116Y3110609D01*
X67922532Y3099947D01*
X67975464Y2972159D01*
X68071718Y2846718D01*
X68078264Y2841695D01*
X68080189Y2840218D01*
X68197159Y2750464D01*
X68343238Y2689956D01*
X68500000Y2669318D01*
X68508188Y2670396D01*
X68648574Y2688878D01*
X68656762Y2689956D01*
X68802841Y2750464D01*
X68919811Y2840218D01*
X68921736Y2841695D01*
X68928282Y2846718D01*
X69024536Y2972159D01*
X69077468Y3099947D01*
X69081884Y3110609D01*
X69085044Y3118238D01*
X69105682Y3275000D01*
X69091423Y3383305D01*
X69086122Y3423574D01*
X69085044Y3431762D01*
X69024536Y3577841D01*
X68928282Y3703282D01*
X68909288Y3717857D01*
X68830166Y3778569D01*
X68802841Y3799536D01*
X68656762Y3860044D01*
X68500000Y3880682D01*
X68498501Y3880485D01*
X68433379Y3899606D01*
X68386886Y3953262D01*
X68375500Y4005604D01*
X68375500Y5517360D01*
X71234501Y5517360D01*
X71235665Y5508458D01*
X71235665Y5508455D01*
X71250068Y5398311D01*
X71250069Y5398307D01*
X71251233Y5389406D01*
X71254850Y5381186D01*
X71297704Y5283793D01*
X71303205Y5271290D01*
X71308982Y5264417D01*
X71308983Y5264416D01*
X71379529Y5180491D01*
X71386239Y5172509D01*
X71403840Y5160793D01*
X71475280Y5113239D01*
X71493660Y5101004D01*
X71616833Y5062522D01*
X71625803Y5062358D01*
X71625807Y5062357D01*
X71684542Y5061281D01*
X71745855Y5060157D01*
X71834685Y5084375D01*
X71861692Y5091738D01*
X71861693Y5091738D01*
X71870355Y5094100D01*
X71878005Y5098797D01*
X71878007Y5098798D01*
X71972672Y5156922D01*
X71972675Y5156925D01*
X71980324Y5161621D01*
X71989994Y5172304D01*
X72060900Y5250639D01*
X72060903Y5250643D01*
X72066922Y5257293D01*
X72123188Y5373425D01*
X72125549Y5387455D01*
X72143790Y5495883D01*
X72144597Y5500680D01*
X72144733Y5511800D01*
X72143508Y5520358D01*
X72127712Y5630655D01*
X72127711Y5630658D01*
X72126439Y5639541D01*
X72117219Y5659819D01*
X72076745Y5748838D01*
X72076743Y5748841D01*
X72073028Y5757012D01*
X72024001Y5813911D01*
X71994651Y5847974D01*
X71994649Y5847976D01*
X71988793Y5854772D01*
X71880506Y5924959D01*
X71871911Y5927529D01*
X71871910Y5927530D01*
X71765474Y5959362D01*
X71765472Y5959362D01*
X71756873Y5961934D01*
X71747898Y5961989D01*
X71747897Y5961989D01*
X71693241Y5962323D01*
X71627831Y5962722D01*
X71565793Y5944992D01*
X71512386Y5929728D01*
X71512384Y5929727D01*
X71503755Y5927261D01*
X71496165Y5922472D01*
X71408270Y5867014D01*
X71394619Y5858401D01*
X71388676Y5851672D01*
X71388675Y5851671D01*
X71356990Y5815794D01*
X71309196Y5761678D01*
X71305382Y5753555D01*
X71305381Y5753553D01*
X71298903Y5739755D01*
X71254354Y5644868D01*
X71247566Y5601272D01*
X71235882Y5526233D01*
X71235882Y5526229D01*
X71234501Y5517360D01*
X68375500Y5517360D01*
X68375500Y12622634D01*
X68375696Y12625307D01*
X68377425Y12630342D01*
X68376901Y12644318D01*
X68375589Y12679256D01*
X68375500Y12683982D01*
X68375500Y12702948D01*
X68374619Y12707683D01*
X68374390Y12711210D01*
X68373973Y12722304D01*
X68373226Y12742209D01*
X68368634Y12752896D01*
X68366076Y12764249D01*
X68369930Y12765118D01*
X68363979Y12814413D01*
X68394928Y12878309D01*
X68455508Y12915329D01*
X68517249Y12915366D01*
X68518238Y12914956D01*
X68675000Y12894318D01*
X68683188Y12895396D01*
X68697446Y12897273D01*
X68758052Y12905252D01*
X68823574Y12913878D01*
X68831762Y12914956D01*
X68977841Y12975464D01*
X69103282Y13071718D01*
X69115183Y13087227D01*
X69179436Y13170964D01*
X69199536Y13197159D01*
X69260044Y13343238D01*
X69266207Y13390047D01*
X69279604Y13491812D01*
X69280682Y13500000D01*
X69262600Y13637348D01*
X69261122Y13648574D01*
X69260044Y13656762D01*
X69199536Y13802841D01*
X69103282Y13928282D01*
X69096507Y13933481D01*
X69049796Y13969323D01*
X69007929Y14026661D01*
X69000500Y14069286D01*
X69000500Y16455290D01*
X69000980Y16466272D01*
X69003303Y16492820D01*
X69003303Y16492822D01*
X69004264Y16503807D01*
X68994508Y16540215D01*
X68992130Y16550942D01*
X68989607Y16565250D01*
X68985588Y16588045D01*
X68980077Y16597590D01*
X68978885Y16600866D01*
X68977408Y16604034D01*
X68974554Y16614684D01*
X68952945Y16645544D01*
X68947039Y16654815D01*
X68933707Y16677906D01*
X68928194Y16687455D01*
X68899317Y16711685D01*
X68891215Y16719111D01*
X67994111Y17616215D01*
X67986684Y17624319D01*
X67969541Y17644749D01*
X67969540Y17644750D01*
X67962455Y17653194D01*
X67952906Y17658707D01*
X67929815Y17672039D01*
X67920544Y17677945D01*
X67898715Y17693230D01*
X67889684Y17699554D01*
X67879034Y17702408D01*
X67875866Y17703885D01*
X67872590Y17705077D01*
X67863045Y17710588D01*
X67829301Y17716538D01*
X67825942Y17717130D01*
X67815215Y17719508D01*
X67778807Y17729264D01*
X67767822Y17728303D01*
X67767820Y17728303D01*
X67741272Y17725980D01*
X67730290Y17725500D01*
X59775743Y17725500D01*
X59707622Y17745502D01*
X59661129Y17799158D01*
X59651025Y17869432D01*
X59680519Y17934012D01*
X59699038Y17951462D01*
X59705335Y17956294D01*
X59705336Y17956295D01*
X59711882Y17961318D01*
X59808136Y18086759D01*
X59868644Y18232838D01*
X59889282Y18389600D01*
X59868644Y18546362D01*
X59808136Y18692441D01*
X59711882Y18817882D01*
X59586441Y18914136D01*
X59498409Y18950600D01*
X59443128Y18995148D01*
X59420707Y19062512D01*
X59438265Y19131303D01*
X59469923Y19166971D01*
X59547230Y19226291D01*
X59547234Y19226295D01*
X59553780Y19231318D01*
X59650034Y19356759D01*
X59710542Y19502838D01*
X59731180Y19659600D01*
X59710542Y19816362D01*
X59650034Y19962441D01*
X59574305Y20061133D01*
X59558803Y20081336D01*
X59553780Y20087882D01*
X59530888Y20105448D01*
X59434890Y20179109D01*
X59428339Y20184136D01*
X59282260Y20244644D01*
X59125498Y20265282D01*
X58968736Y20244644D01*
X58822657Y20184136D01*
X58816106Y20179109D01*
X58720109Y20105448D01*
X58697216Y20087882D01*
X58692193Y20081336D01*
X58676691Y20061133D01*
X58600962Y19962441D01*
X58540454Y19816362D01*
X58519816Y19659600D01*
X58540454Y19502838D01*
X58600962Y19356759D01*
X58697216Y19231318D01*
X58822657Y19135064D01*
X58910689Y19098600D01*
X58965970Y19054052D01*
X58988391Y18986688D01*
X58970833Y18917897D01*
X58939175Y18882229D01*
X58861868Y18822909D01*
X58861864Y18822905D01*
X58855318Y18817882D01*
X58759064Y18692441D01*
X58698556Y18546362D01*
X58677918Y18389600D01*
X58698556Y18232838D01*
X58759064Y18086759D01*
X58855318Y17961318D01*
X58861864Y17956295D01*
X58861865Y17956294D01*
X58880871Y17941710D01*
X58922738Y17884372D01*
X58926959Y17813501D01*
X58892194Y17751598D01*
X58836784Y17720044D01*
X58834785Y17719508D01*
X58824076Y17717134D01*
X58786955Y17710588D01*
X58777411Y17705078D01*
X58774135Y17703886D01*
X58770964Y17702407D01*
X58760316Y17699554D01*
X58733107Y17680502D01*
X58729449Y17677941D01*
X58720179Y17672036D01*
X58697092Y17658707D01*
X58697088Y17658704D01*
X58687545Y17653194D01*
X58680459Y17644750D01*
X58680460Y17644750D01*
X58663320Y17624323D01*
X58655892Y17616218D01*
X56642079Y15602405D01*
X56579767Y15568379D01*
X56552984Y15565500D01*
X53867713Y15565500D01*
X53856732Y15565979D01*
X53830170Y15568303D01*
X53830168Y15568303D01*
X53819193Y15569263D01*
X53782783Y15559508D01*
X53772076Y15557134D01*
X53734955Y15550588D01*
X53725412Y15545079D01*
X53722140Y15543888D01*
X53718967Y15542408D01*
X53708316Y15539554D01*
X53686153Y15524035D01*
X53677456Y15517945D01*
X53668185Y15512039D01*
X53648896Y15500902D01*
X53635545Y15493194D01*
X53628459Y15484749D01*
X53611315Y15464318D01*
X53603889Y15456215D01*
X53459595Y15311921D01*
X53397283Y15277895D01*
X53326468Y15282960D01*
X53269632Y15325507D01*
X53244821Y15392027D01*
X53244500Y15401016D01*
X53244500Y15774984D01*
X53264502Y15843105D01*
X53281405Y15864079D01*
X53523217Y16105891D01*
X53585529Y16139917D01*
X53628757Y16141718D01*
X53695600Y16132918D01*
X53703788Y16133996D01*
X53844174Y16152478D01*
X53852362Y16153556D01*
X53998441Y16214064D01*
X54114379Y16303026D01*
X54117336Y16305295D01*
X54123882Y16310318D01*
X54132109Y16321039D01*
X54181683Y16385646D01*
X54220136Y16435759D01*
X54280644Y16581838D01*
X54301282Y16738600D01*
X54280644Y16895362D01*
X54220136Y17041441D01*
X54123882Y17166882D01*
X53998441Y17263136D01*
X53852362Y17323644D01*
X53695600Y17344282D01*
X53538838Y17323644D01*
X53392759Y17263136D01*
X53267318Y17166882D01*
X53171064Y17041441D01*
X53110556Y16895362D01*
X53089918Y16738600D01*
X53097909Y16677906D01*
X53098718Y16671758D01*
X53087779Y16601610D01*
X53062891Y16566217D01*
X52562079Y16065405D01*
X52499767Y16031379D01*
X52472984Y16028500D01*
X52124252Y16028500D01*
X52118184Y16027293D01*
X52077939Y16019288D01*
X52077938Y16019288D01*
X52065769Y16016867D01*
X51999448Y15972552D01*
X51955133Y15906231D01*
X51943500Y15847748D01*
X51943500Y15008252D01*
X51944707Y15002184D01*
X51954275Y14954081D01*
X51947947Y14883367D01*
X51904392Y14827300D01*
X51830696Y14803500D01*
X51585452Y14803500D01*
X51517331Y14823502D01*
X51470838Y14877158D01*
X51460734Y14947432D01*
X51467712Y14970090D01*
X51466854Y14970355D01*
X51469740Y14979694D01*
X51474036Y14988482D01*
X51481935Y15042624D01*
X51483340Y15052256D01*
X51483340Y15052260D01*
X51484000Y15056782D01*
X51484000Y15423218D01*
X51482794Y15431414D01*
X51475284Y15482426D01*
X51475284Y15482427D01*
X51473858Y15492112D01*
X51444209Y15552501D01*
X51427022Y15587507D01*
X51427021Y15587509D01*
X51422432Y15596855D01*
X51339850Y15679293D01*
X51317619Y15690160D01*
X51273812Y15711573D01*
X51235018Y15730536D01*
X51204527Y15734984D01*
X51171244Y15739840D01*
X51171240Y15739840D01*
X51166718Y15740500D01*
X50997500Y15740500D01*
X50929379Y15760502D01*
X50882886Y15814158D01*
X50871500Y15866500D01*
X50871500Y20308637D01*
X71232357Y20308637D01*
X71248775Y20113117D01*
X71302858Y19924509D01*
X71305676Y19919026D01*
X71389723Y19755487D01*
X71389726Y19755483D01*
X71392544Y19749999D01*
X71514418Y19596231D01*
X71663838Y19469065D01*
X71669216Y19466059D01*
X71669218Y19466058D01*
X71705532Y19445763D01*
X71835113Y19373343D01*
X72021718Y19312711D01*
X72216546Y19289479D01*
X72222681Y19289951D01*
X72222683Y19289951D01*
X72406034Y19304059D01*
X72406038Y19304060D01*
X72412176Y19304532D01*
X72601156Y19357297D01*
X72776289Y19445763D01*
X72806115Y19469065D01*
X72926053Y19562771D01*
X72930903Y19566560D01*
X72960684Y19601061D01*
X73055085Y19710427D01*
X73055085Y19710428D01*
X73059109Y19715089D01*
X73156025Y19885691D01*
X73217958Y20071868D01*
X73242549Y20266529D01*
X73242941Y20294600D01*
X73223794Y20489872D01*
X73222013Y20495771D01*
X73222012Y20495776D01*
X73168865Y20671807D01*
X73167084Y20677706D01*
X73074970Y20850947D01*
X72950961Y21002998D01*
X72799780Y21128065D01*
X72627185Y21221387D01*
X72533469Y21250397D01*
X72445639Y21277585D01*
X72445636Y21277586D01*
X72439752Y21279407D01*
X72433627Y21280051D01*
X72433626Y21280051D01*
X72250747Y21299273D01*
X72250746Y21299273D01*
X72244619Y21299917D01*
X72121983Y21288756D01*
X72055359Y21282693D01*
X72055358Y21282693D01*
X72049218Y21282134D01*
X72043304Y21280393D01*
X72043302Y21280393D01*
X71914853Y21242588D01*
X71860993Y21226736D01*
X71855528Y21223879D01*
X71692572Y21138688D01*
X71692568Y21138685D01*
X71687112Y21135833D01*
X71682312Y21131973D01*
X71682311Y21131973D01*
X71668493Y21120863D01*
X71534200Y21012889D01*
X71408080Y20862584D01*
X71405116Y20857192D01*
X71405113Y20857188D01*
X71349110Y20755318D01*
X71313556Y20690646D01*
X71311695Y20684779D01*
X71311694Y20684777D01*
X71284343Y20598556D01*
X71254228Y20503622D01*
X71232357Y20308637D01*
X50871500Y20308637D01*
X50871500Y20463184D01*
X50891502Y20531305D01*
X50908405Y20552279D01*
X51228121Y20871995D01*
X51290433Y20906021D01*
X51317216Y20908900D01*
X51348314Y20908900D01*
X51416435Y20888898D01*
X51448277Y20859604D01*
X51474635Y20825254D01*
X51489318Y20806118D01*
X51614759Y20709864D01*
X51760838Y20649356D01*
X51917600Y20628718D01*
X51925788Y20629796D01*
X52066174Y20648278D01*
X52074362Y20649356D01*
X52220441Y20709864D01*
X52345882Y20806118D01*
X52442136Y20931559D01*
X52502644Y21077638D01*
X52523282Y21234400D01*
X52502644Y21391162D01*
X52442136Y21537241D01*
X52345882Y21662682D01*
X52220441Y21758936D01*
X52074362Y21819444D01*
X51917600Y21840082D01*
X51760838Y21819444D01*
X51614759Y21758936D01*
X51489318Y21662682D01*
X51484295Y21656136D01*
X51448277Y21609196D01*
X51390939Y21567329D01*
X51348314Y21559900D01*
X51149910Y21559900D01*
X51138928Y21560380D01*
X51112380Y21562703D01*
X51112378Y21562703D01*
X51101393Y21563664D01*
X51064985Y21553908D01*
X51054258Y21551530D01*
X51050899Y21550938D01*
X51017155Y21544988D01*
X51007610Y21539477D01*
X51004334Y21538285D01*
X51001166Y21536808D01*
X50990516Y21533954D01*
X50972352Y21521235D01*
X50959656Y21512345D01*
X50950385Y21506439D01*
X50932913Y21496351D01*
X50917745Y21487594D01*
X50910659Y21479149D01*
X50893515Y21458718D01*
X50886089Y21450615D01*
X50329785Y20894311D01*
X50321681Y20886884D01*
X50292806Y20862655D01*
X50287293Y20853106D01*
X50273961Y20830015D01*
X50268055Y20820744D01*
X50246446Y20789884D01*
X50243592Y20779234D01*
X50242115Y20776066D01*
X50240923Y20772790D01*
X50235412Y20763245D01*
X50233129Y20750295D01*
X50228870Y20726142D01*
X50226492Y20715415D01*
X50216736Y20679007D01*
X50217697Y20668022D01*
X50217697Y20668020D01*
X50220020Y20641472D01*
X50220500Y20630490D01*
X50220500Y15866500D01*
X50200498Y15798379D01*
X50146842Y15751886D01*
X50094500Y15740500D01*
X49925282Y15740500D01*
X49920732Y15739830D01*
X49920729Y15739830D01*
X49866074Y15731784D01*
X49866073Y15731784D01*
X49856388Y15730358D01*
X49759268Y15682675D01*
X49689307Y15670607D01*
X49623925Y15698280D01*
X49614644Y15706683D01*
X49591665Y15729662D01*
X49557639Y15791974D01*
X49562704Y15862789D01*
X49567553Y15874074D01*
X49599036Y15938482D01*
X49609000Y16006782D01*
X49609000Y16373218D01*
X49607269Y16384981D01*
X49600284Y16432426D01*
X49600284Y16432427D01*
X49598858Y16442112D01*
X49570023Y16500842D01*
X49552022Y16537507D01*
X49552021Y16537509D01*
X49547432Y16546855D01*
X49492581Y16601610D01*
X49472221Y16621935D01*
X49472220Y16621935D01*
X49464850Y16629293D01*
X49360018Y16680536D01*
X49329117Y16685044D01*
X49296244Y16689840D01*
X49296240Y16689840D01*
X49291718Y16690500D01*
X48050282Y16690500D01*
X48045732Y16689830D01*
X48045729Y16689830D01*
X47991074Y16681784D01*
X47991073Y16681784D01*
X47981388Y16680358D01*
X47963872Y16671758D01*
X47885993Y16633522D01*
X47885991Y16633521D01*
X47876645Y16628932D01*
X47794207Y16546350D01*
X47789634Y16536994D01*
X47789633Y16536993D01*
X47778617Y16514456D01*
X47742964Y16441518D01*
X47733000Y16373218D01*
X47733000Y16006782D01*
X46130500Y16006782D01*
X46130500Y16158500D01*
X46150502Y16226621D01*
X46204158Y16273114D01*
X46256500Y16284500D01*
X46524748Y16284500D01*
X46530816Y16285707D01*
X46571061Y16293712D01*
X46571062Y16293712D01*
X46583231Y16296133D01*
X46649552Y16340448D01*
X46674491Y16377771D01*
X46686974Y16396453D01*
X46693867Y16406769D01*
X46698059Y16427841D01*
X46704293Y16459184D01*
X46705500Y16465252D01*
X46705500Y18204748D01*
X46700815Y18228303D01*
X46696288Y18251061D01*
X46696288Y18251062D01*
X46693867Y18263231D01*
X46649552Y18329552D01*
X46583231Y18373867D01*
X46571062Y18376288D01*
X46571061Y18376288D01*
X46530816Y18384293D01*
X46524748Y18385500D01*
X45085252Y18385500D01*
X45079184Y18384293D01*
X45038939Y18376288D01*
X45038938Y18376288D01*
X45026769Y18373867D01*
X44960448Y18329552D01*
X44953557Y18319239D01*
X44953554Y18319236D01*
X44928337Y18281497D01*
X44873860Y18235970D01*
X44823573Y18225500D01*
X35569710Y18225500D01*
X35558728Y18225980D01*
X35532180Y18228303D01*
X35532178Y18228303D01*
X35521193Y18229264D01*
X35484785Y18219508D01*
X35474058Y18217130D01*
X35470699Y18216538D01*
X35436955Y18210588D01*
X35427410Y18205077D01*
X35424134Y18203885D01*
X35420966Y18202408D01*
X35410316Y18199554D01*
X35401285Y18193230D01*
X35379456Y18177945D01*
X35370185Y18172039D01*
X35359312Y18165761D01*
X35337545Y18153194D01*
X35330459Y18144749D01*
X35313315Y18124318D01*
X35305889Y18116215D01*
X34887079Y17697405D01*
X34824767Y17663379D01*
X34797984Y17660500D01*
X34621500Y17660500D01*
X34553379Y17680502D01*
X34506886Y17734158D01*
X34495500Y17786500D01*
X34495500Y18204748D01*
X34490815Y18228303D01*
X34486288Y18251061D01*
X34486288Y18251062D01*
X34483867Y18263231D01*
X34439552Y18329552D01*
X34373231Y18373867D01*
X34361062Y18376288D01*
X34361061Y18376288D01*
X34320816Y18384293D01*
X34314748Y18385500D01*
X32875252Y18385500D01*
X32869184Y18384293D01*
X32828939Y18376288D01*
X32828938Y18376288D01*
X32816769Y18373867D01*
X32750448Y18329552D01*
X32706133Y18263231D01*
X32703712Y18251062D01*
X32703712Y18251061D01*
X32699185Y18228303D01*
X32694500Y18204748D01*
X32694500Y16465252D01*
X3200000Y16465252D01*
X3200000Y18280252D01*
X10349500Y18280252D01*
X10350707Y18274184D01*
X10357303Y18241026D01*
X10361133Y18221769D01*
X10405448Y18155448D01*
X10471769Y18111133D01*
X10483938Y18108712D01*
X10483939Y18108712D01*
X10524184Y18100707D01*
X10530252Y18099500D01*
X12969748Y18099500D01*
X12975816Y18100707D01*
X13016061Y18108712D01*
X13016062Y18108712D01*
X13028231Y18111133D01*
X13094552Y18155448D01*
X13138867Y18221769D01*
X13142698Y18241026D01*
X13149293Y18274184D01*
X13150500Y18280252D01*
X13150500Y20719748D01*
X13138867Y20778231D01*
X13094552Y20844552D01*
X13028231Y20888867D01*
X13016062Y20891288D01*
X13016061Y20891288D01*
X12975816Y20899293D01*
X12969748Y20900500D01*
X10530252Y20900500D01*
X10524184Y20899293D01*
X10483939Y20891288D01*
X10483938Y20891288D01*
X10471769Y20888867D01*
X10405448Y20844552D01*
X10361133Y20778231D01*
X10349500Y20719748D01*
X10349500Y18280252D01*
X3200000Y18280252D01*
X3200000Y22158400D01*
X3220002Y22226521D01*
X3273658Y22273014D01*
X3326000Y22284400D01*
X3696570Y22284400D01*
X3764691Y22264398D01*
G37*
%TD.AperFunction*%
%TD*%
M02*
