%TF.GenerationSoftware,KiCad,Pcbnew,8.0.4*%
%TF.CreationDate,2024-09-18T09:12:31+01:00*%
%TF.ProjectId,BG95V4,42473935-5634-42e6-9b69-6361645f7063,rev?*%
%TF.SameCoordinates,Original*%
%TF.FileFunction,Legend,Top*%
%TF.FilePolarity,Positive*%
%FSLAX46Y46*%
G04 Gerber Fmt 4.6, Leading zero omitted, Abs format (unit mm)*
G04 Created by KiCad (PCBNEW 8.0.4) date 2024-09-18 09:12:31*
%MOMM*%
%LPD*%
G01*
G04 APERTURE LIST*
%ADD10C,0.200000*%
%ADD11C,0.100000*%
%ADD12C,0.300000*%
%ADD13C,0.450000*%
%ADD14C,0.120000*%
%ADD15C,0.127000*%
G04 APERTURE END LIST*
D10*
X28758047Y9398000D02*
G75*
G02*
X28137953Y9398000I-310047J0D01*
G01*
X28137953Y9398000D02*
G75*
G02*
X28758047Y9398000I310047J0D01*
G01*
X59873047Y14173200D02*
G75*
G02*
X59252953Y14173200I-310047J0D01*
G01*
X59252953Y14173200D02*
G75*
G02*
X59873047Y14173200I310047J0D01*
G01*
X17759847Y11049000D02*
G75*
G02*
X17139753Y11049000I-310047J0D01*
G01*
X17139753Y11049000D02*
G75*
G02*
X17759847Y11049000I310047J0D01*
G01*
D11*
X61137800Y6858000D02*
X65252600Y6858000D01*
X65252600Y3200400D01*
X61137800Y3200400D01*
X61137800Y6858000D01*
D10*
X74422494Y17978219D02*
X74422494Y16978219D01*
X74422494Y16978219D02*
X74041542Y16978219D01*
X74041542Y16978219D02*
X73946304Y17025838D01*
X73946304Y17025838D02*
X73898685Y17073457D01*
X73898685Y17073457D02*
X73851066Y17168695D01*
X73851066Y17168695D02*
X73851066Y17311552D01*
X73851066Y17311552D02*
X73898685Y17406790D01*
X73898685Y17406790D02*
X73946304Y17454409D01*
X73946304Y17454409D02*
X74041542Y17502028D01*
X74041542Y17502028D02*
X74422494Y17502028D01*
X72851066Y17882980D02*
X72898685Y17930600D01*
X72898685Y17930600D02*
X73041542Y17978219D01*
X73041542Y17978219D02*
X73136780Y17978219D01*
X73136780Y17978219D02*
X73279637Y17930600D01*
X73279637Y17930600D02*
X73374875Y17835361D01*
X73374875Y17835361D02*
X73422494Y17740123D01*
X73422494Y17740123D02*
X73470113Y17549647D01*
X73470113Y17549647D02*
X73470113Y17406790D01*
X73470113Y17406790D02*
X73422494Y17216314D01*
X73422494Y17216314D02*
X73374875Y17121076D01*
X73374875Y17121076D02*
X73279637Y17025838D01*
X73279637Y17025838D02*
X73136780Y16978219D01*
X73136780Y16978219D02*
X73041542Y16978219D01*
X73041542Y16978219D02*
X72898685Y17025838D01*
X72898685Y17025838D02*
X72851066Y17073457D01*
X72089161Y17454409D02*
X71946304Y17502028D01*
X71946304Y17502028D02*
X71898685Y17549647D01*
X71898685Y17549647D02*
X71851066Y17644885D01*
X71851066Y17644885D02*
X71851066Y17787742D01*
X71851066Y17787742D02*
X71898685Y17882980D01*
X71898685Y17882980D02*
X71946304Y17930600D01*
X71946304Y17930600D02*
X72041542Y17978219D01*
X72041542Y17978219D02*
X72422494Y17978219D01*
X72422494Y17978219D02*
X72422494Y16978219D01*
X72422494Y16978219D02*
X72089161Y16978219D01*
X72089161Y16978219D02*
X71993923Y17025838D01*
X71993923Y17025838D02*
X71946304Y17073457D01*
X71946304Y17073457D02*
X71898685Y17168695D01*
X71898685Y17168695D02*
X71898685Y17263933D01*
X71898685Y17263933D02*
X71946304Y17359171D01*
X71946304Y17359171D02*
X71993923Y17406790D01*
X71993923Y17406790D02*
X72089161Y17454409D01*
X72089161Y17454409D02*
X72422494Y17454409D01*
X70660589Y17882980D02*
X70612970Y17930600D01*
X70612970Y17930600D02*
X70660589Y17978219D01*
X70660589Y17978219D02*
X70708208Y17930600D01*
X70708208Y17930600D02*
X70660589Y17882980D01*
X70660589Y17882980D02*
X70660589Y17978219D01*
X70660589Y17359171D02*
X70612970Y17406790D01*
X70612970Y17406790D02*
X70660589Y17454409D01*
X70660589Y17454409D02*
X70708208Y17406790D01*
X70708208Y17406790D02*
X70660589Y17359171D01*
X70660589Y17359171D02*
X70660589Y17454409D01*
X68993923Y17311552D02*
X68993923Y17978219D01*
X69232018Y16930600D02*
X69470113Y17644885D01*
X69470113Y17644885D02*
X68851066Y17644885D01*
X68422494Y17978219D02*
X68232018Y17978219D01*
X68232018Y17978219D02*
X68136780Y17930600D01*
X68136780Y17930600D02*
X68089161Y17882980D01*
X68089161Y17882980D02*
X67993923Y17740123D01*
X67993923Y17740123D02*
X67946304Y17549647D01*
X67946304Y17549647D02*
X67946304Y17168695D01*
X67946304Y17168695D02*
X67993923Y17073457D01*
X67993923Y17073457D02*
X68041542Y17025838D01*
X68041542Y17025838D02*
X68136780Y16978219D01*
X68136780Y16978219D02*
X68327256Y16978219D01*
X68327256Y16978219D02*
X68422494Y17025838D01*
X68422494Y17025838D02*
X68470113Y17073457D01*
X68470113Y17073457D02*
X68517732Y17168695D01*
X68517732Y17168695D02*
X68517732Y17406790D01*
X68517732Y17406790D02*
X68470113Y17502028D01*
X68470113Y17502028D02*
X68422494Y17549647D01*
X68422494Y17549647D02*
X68327256Y17597266D01*
X68327256Y17597266D02*
X68136780Y17597266D01*
X68136780Y17597266D02*
X68041542Y17549647D01*
X68041542Y17549647D02*
X67993923Y17502028D01*
X67993923Y17502028D02*
X67946304Y17406790D01*
X67327256Y16978219D02*
X67232018Y16978219D01*
X67232018Y16978219D02*
X67136780Y17025838D01*
X67136780Y17025838D02*
X67089161Y17073457D01*
X67089161Y17073457D02*
X67041542Y17168695D01*
X67041542Y17168695D02*
X66993923Y17359171D01*
X66993923Y17359171D02*
X66993923Y17597266D01*
X66993923Y17597266D02*
X67041542Y17787742D01*
X67041542Y17787742D02*
X67089161Y17882980D01*
X67089161Y17882980D02*
X67136780Y17930600D01*
X67136780Y17930600D02*
X67232018Y17978219D01*
X67232018Y17978219D02*
X67327256Y17978219D01*
X67327256Y17978219D02*
X67422494Y17930600D01*
X67422494Y17930600D02*
X67470113Y17882980D01*
X67470113Y17882980D02*
X67517732Y17787742D01*
X67517732Y17787742D02*
X67565351Y17597266D01*
X67565351Y17597266D02*
X67565351Y17359171D01*
X67565351Y17359171D02*
X67517732Y17168695D01*
X67517732Y17168695D02*
X67470113Y17073457D01*
X67470113Y17073457D02*
X67422494Y17025838D01*
X67422494Y17025838D02*
X67327256Y16978219D01*
X66612970Y17073457D02*
X66565351Y17025838D01*
X66565351Y17025838D02*
X66470113Y16978219D01*
X66470113Y16978219D02*
X66232018Y16978219D01*
X66232018Y16978219D02*
X66136780Y17025838D01*
X66136780Y17025838D02*
X66089161Y17073457D01*
X66089161Y17073457D02*
X66041542Y17168695D01*
X66041542Y17168695D02*
X66041542Y17263933D01*
X66041542Y17263933D02*
X66089161Y17406790D01*
X66089161Y17406790D02*
X66660589Y17978219D01*
X66660589Y17978219D02*
X66041542Y17978219D01*
X65612970Y17597266D02*
X64851066Y17597266D01*
X64470113Y16978219D02*
X63851066Y16978219D01*
X63851066Y16978219D02*
X64184399Y17359171D01*
X64184399Y17359171D02*
X64041542Y17359171D01*
X64041542Y17359171D02*
X63946304Y17406790D01*
X63946304Y17406790D02*
X63898685Y17454409D01*
X63898685Y17454409D02*
X63851066Y17549647D01*
X63851066Y17549647D02*
X63851066Y17787742D01*
X63851066Y17787742D02*
X63898685Y17882980D01*
X63898685Y17882980D02*
X63946304Y17930600D01*
X63946304Y17930600D02*
X64041542Y17978219D01*
X64041542Y17978219D02*
X64327256Y17978219D01*
X64327256Y17978219D02*
X64422494Y17930600D01*
X64422494Y17930600D02*
X64470113Y17882980D01*
X63232018Y16978219D02*
X63136780Y16978219D01*
X63136780Y16978219D02*
X63041542Y17025838D01*
X63041542Y17025838D02*
X62993923Y17073457D01*
X62993923Y17073457D02*
X62946304Y17168695D01*
X62946304Y17168695D02*
X62898685Y17359171D01*
X62898685Y17359171D02*
X62898685Y17597266D01*
X62898685Y17597266D02*
X62946304Y17787742D01*
X62946304Y17787742D02*
X62993923Y17882980D01*
X62993923Y17882980D02*
X63041542Y17930600D01*
X63041542Y17930600D02*
X63136780Y17978219D01*
X63136780Y17978219D02*
X63232018Y17978219D01*
X63232018Y17978219D02*
X63327256Y17930600D01*
X63327256Y17930600D02*
X63374875Y17882980D01*
X63374875Y17882980D02*
X63422494Y17787742D01*
X63422494Y17787742D02*
X63470113Y17597266D01*
X63470113Y17597266D02*
X63470113Y17359171D01*
X63470113Y17359171D02*
X63422494Y17168695D01*
X63422494Y17168695D02*
X63374875Y17073457D01*
X63374875Y17073457D02*
X63327256Y17025838D01*
X63327256Y17025838D02*
X63232018Y16978219D01*
X62279637Y16978219D02*
X62184399Y16978219D01*
X62184399Y16978219D02*
X62089161Y17025838D01*
X62089161Y17025838D02*
X62041542Y17073457D01*
X62041542Y17073457D02*
X61993923Y17168695D01*
X61993923Y17168695D02*
X61946304Y17359171D01*
X61946304Y17359171D02*
X61946304Y17597266D01*
X61946304Y17597266D02*
X61993923Y17787742D01*
X61993923Y17787742D02*
X62041542Y17882980D01*
X62041542Y17882980D02*
X62089161Y17930600D01*
X62089161Y17930600D02*
X62184399Y17978219D01*
X62184399Y17978219D02*
X62279637Y17978219D01*
X62279637Y17978219D02*
X62374875Y17930600D01*
X62374875Y17930600D02*
X62422494Y17882980D01*
X62422494Y17882980D02*
X62470113Y17787742D01*
X62470113Y17787742D02*
X62517732Y17597266D01*
X62517732Y17597266D02*
X62517732Y17359171D01*
X62517732Y17359171D02*
X62470113Y17168695D01*
X62470113Y17168695D02*
X62422494Y17073457D01*
X62422494Y17073457D02*
X62374875Y17025838D01*
X62374875Y17025838D02*
X62279637Y16978219D01*
X61565351Y17073457D02*
X61517732Y17025838D01*
X61517732Y17025838D02*
X61422494Y16978219D01*
X61422494Y16978219D02*
X61184399Y16978219D01*
X61184399Y16978219D02*
X61089161Y17025838D01*
X61089161Y17025838D02*
X61041542Y17073457D01*
X61041542Y17073457D02*
X60993923Y17168695D01*
X60993923Y17168695D02*
X60993923Y17263933D01*
X60993923Y17263933D02*
X61041542Y17406790D01*
X61041542Y17406790D02*
X61612970Y17978219D01*
X61612970Y17978219D02*
X60993923Y17978219D01*
X60517732Y17978219D02*
X60327256Y17978219D01*
X60327256Y17978219D02*
X60232018Y17930600D01*
X60232018Y17930600D02*
X60184399Y17882980D01*
X60184399Y17882980D02*
X60089161Y17740123D01*
X60089161Y17740123D02*
X60041542Y17549647D01*
X60041542Y17549647D02*
X60041542Y17168695D01*
X60041542Y17168695D02*
X60089161Y17073457D01*
X60089161Y17073457D02*
X60136780Y17025838D01*
X60136780Y17025838D02*
X60232018Y16978219D01*
X60232018Y16978219D02*
X60422494Y16978219D01*
X60422494Y16978219D02*
X60517732Y17025838D01*
X60517732Y17025838D02*
X60565351Y17073457D01*
X60565351Y17073457D02*
X60612970Y17168695D01*
X60612970Y17168695D02*
X60612970Y17406790D01*
X60612970Y17406790D02*
X60565351Y17502028D01*
X60565351Y17502028D02*
X60517732Y17549647D01*
X60517732Y17549647D02*
X60422494Y17597266D01*
X60422494Y17597266D02*
X60232018Y17597266D01*
X60232018Y17597266D02*
X60136780Y17549647D01*
X60136780Y17549647D02*
X60089161Y17502028D01*
X60089161Y17502028D02*
X60041542Y17406790D01*
X59612970Y17597266D02*
X58851066Y17597266D01*
X58184399Y16978219D02*
X58089161Y16978219D01*
X58089161Y16978219D02*
X57993923Y17025838D01*
X57993923Y17025838D02*
X57946304Y17073457D01*
X57946304Y17073457D02*
X57898685Y17168695D01*
X57898685Y17168695D02*
X57851066Y17359171D01*
X57851066Y17359171D02*
X57851066Y17597266D01*
X57851066Y17597266D02*
X57898685Y17787742D01*
X57898685Y17787742D02*
X57946304Y17882980D01*
X57946304Y17882980D02*
X57993923Y17930600D01*
X57993923Y17930600D02*
X58089161Y17978219D01*
X58089161Y17978219D02*
X58184399Y17978219D01*
X58184399Y17978219D02*
X58279637Y17930600D01*
X58279637Y17930600D02*
X58327256Y17882980D01*
X58327256Y17882980D02*
X58374875Y17787742D01*
X58374875Y17787742D02*
X58422494Y17597266D01*
X58422494Y17597266D02*
X58422494Y17359171D01*
X58422494Y17359171D02*
X58374875Y17168695D01*
X58374875Y17168695D02*
X58327256Y17073457D01*
X58327256Y17073457D02*
X58279637Y17025838D01*
X58279637Y17025838D02*
X58184399Y16978219D01*
X56993923Y16978219D02*
X57184399Y16978219D01*
X57184399Y16978219D02*
X57279637Y17025838D01*
X57279637Y17025838D02*
X57327256Y17073457D01*
X57327256Y17073457D02*
X57422494Y17216314D01*
X57422494Y17216314D02*
X57470113Y17406790D01*
X57470113Y17406790D02*
X57470113Y17787742D01*
X57470113Y17787742D02*
X57422494Y17882980D01*
X57422494Y17882980D02*
X57374875Y17930600D01*
X57374875Y17930600D02*
X57279637Y17978219D01*
X57279637Y17978219D02*
X57089161Y17978219D01*
X57089161Y17978219D02*
X56993923Y17930600D01*
X56993923Y17930600D02*
X56946304Y17882980D01*
X56946304Y17882980D02*
X56898685Y17787742D01*
X56898685Y17787742D02*
X56898685Y17549647D01*
X56898685Y17549647D02*
X56946304Y17454409D01*
X56946304Y17454409D02*
X56993923Y17406790D01*
X56993923Y17406790D02*
X57089161Y17359171D01*
X57089161Y17359171D02*
X57279637Y17359171D01*
X57279637Y17359171D02*
X57374875Y17406790D01*
X57374875Y17406790D02*
X57422494Y17454409D01*
X57422494Y17454409D02*
X57470113Y17549647D01*
X67594762Y-997152D02*
X67261429Y2847D01*
X67261429Y2847D02*
X66928096Y-997152D01*
X66737619Y-997152D02*
X66166191Y-997152D01*
X66451905Y2847D02*
X66451905Y-997152D01*
X65070952Y-520962D02*
X64737619Y-520962D01*
X64594762Y2847D02*
X65070952Y2847D01*
X65070952Y2847D02*
X65070952Y-997152D01*
X65070952Y-997152D02*
X64594762Y-997152D01*
X64023333Y2847D02*
X64118571Y-44772D01*
X64118571Y-44772D02*
X64166190Y-140010D01*
X64166190Y-140010D02*
X64166190Y-997152D01*
X63261428Y-44772D02*
X63356666Y2847D01*
X63356666Y2847D02*
X63547142Y2847D01*
X63547142Y2847D02*
X63642380Y-44772D01*
X63642380Y-44772D02*
X63689999Y-140010D01*
X63689999Y-140010D02*
X63689999Y-520962D01*
X63689999Y-520962D02*
X63642380Y-616200D01*
X63642380Y-616200D02*
X63547142Y-663819D01*
X63547142Y-663819D02*
X63356666Y-663819D01*
X63356666Y-663819D02*
X63261428Y-616200D01*
X63261428Y-616200D02*
X63213809Y-520962D01*
X63213809Y-520962D02*
X63213809Y-425724D01*
X63213809Y-425724D02*
X63689999Y-330486D01*
X62356666Y-44772D02*
X62451904Y2847D01*
X62451904Y2847D02*
X62642380Y2847D01*
X62642380Y2847D02*
X62737618Y-44772D01*
X62737618Y-44772D02*
X62785237Y-92391D01*
X62785237Y-92391D02*
X62832856Y-187629D01*
X62832856Y-187629D02*
X62832856Y-473343D01*
X62832856Y-473343D02*
X62785237Y-568581D01*
X62785237Y-568581D02*
X62737618Y-616200D01*
X62737618Y-616200D02*
X62642380Y-663819D01*
X62642380Y-663819D02*
X62451904Y-663819D01*
X62451904Y-663819D02*
X62356666Y-616200D01*
X62070951Y-663819D02*
X61689999Y-663819D01*
X61928094Y-997152D02*
X61928094Y-140010D01*
X61928094Y-140010D02*
X61880475Y-44772D01*
X61880475Y-44772D02*
X61785237Y2847D01*
X61785237Y2847D02*
X61689999Y2847D01*
X61356665Y2847D02*
X61356665Y-663819D01*
X61356665Y-473343D02*
X61309046Y-568581D01*
X61309046Y-568581D02*
X61261427Y-616200D01*
X61261427Y-616200D02*
X61166189Y-663819D01*
X61166189Y-663819D02*
X61070951Y-663819D01*
X60594760Y2847D02*
X60689998Y-44772D01*
X60689998Y-44772D02*
X60737617Y-92391D01*
X60737617Y-92391D02*
X60785236Y-187629D01*
X60785236Y-187629D02*
X60785236Y-473343D01*
X60785236Y-473343D02*
X60737617Y-568581D01*
X60737617Y-568581D02*
X60689998Y-616200D01*
X60689998Y-616200D02*
X60594760Y-663819D01*
X60594760Y-663819D02*
X60451903Y-663819D01*
X60451903Y-663819D02*
X60356665Y-616200D01*
X60356665Y-616200D02*
X60309046Y-568581D01*
X60309046Y-568581D02*
X60261427Y-473343D01*
X60261427Y-473343D02*
X60261427Y-187629D01*
X60261427Y-187629D02*
X60309046Y-92391D01*
X60309046Y-92391D02*
X60356665Y-44772D01*
X60356665Y-44772D02*
X60451903Y2847D01*
X60451903Y2847D02*
X60594760Y2847D01*
X59832855Y-663819D02*
X59832855Y2847D01*
X59832855Y-568581D02*
X59785236Y-616200D01*
X59785236Y-616200D02*
X59689998Y-663819D01*
X59689998Y-663819D02*
X59547141Y-663819D01*
X59547141Y-663819D02*
X59451903Y-616200D01*
X59451903Y-616200D02*
X59404284Y-520962D01*
X59404284Y-520962D02*
X59404284Y2847D01*
X57547140Y-997152D02*
X57213807Y2847D01*
X57213807Y2847D02*
X56880474Y-997152D01*
X56166188Y-44772D02*
X56261426Y2847D01*
X56261426Y2847D02*
X56451902Y2847D01*
X56451902Y2847D02*
X56547140Y-44772D01*
X56547140Y-44772D02*
X56594759Y-140010D01*
X56594759Y-140010D02*
X56594759Y-520962D01*
X56594759Y-520962D02*
X56547140Y-616200D01*
X56547140Y-616200D02*
X56451902Y-663819D01*
X56451902Y-663819D02*
X56261426Y-663819D01*
X56261426Y-663819D02*
X56166188Y-616200D01*
X56166188Y-616200D02*
X56118569Y-520962D01*
X56118569Y-520962D02*
X56118569Y-425724D01*
X56118569Y-425724D02*
X56594759Y-330486D01*
X55689997Y2847D02*
X55689997Y-663819D01*
X55689997Y-473343D02*
X55642378Y-568581D01*
X55642378Y-568581D02*
X55594759Y-616200D01*
X55594759Y-616200D02*
X55499521Y-663819D01*
X55499521Y-663819D02*
X55404283Y-663819D01*
X55070949Y-92391D02*
X55023330Y-44772D01*
X55023330Y-44772D02*
X55070949Y2847D01*
X55070949Y2847D02*
X55118568Y-44772D01*
X55118568Y-44772D02*
X55070949Y-92391D01*
X55070949Y-92391D02*
X55070949Y2847D01*
X53404283Y-663819D02*
X53404283Y2847D01*
X53642378Y-1044772D02*
X53880473Y-330486D01*
X53880473Y-330486D02*
X53261426Y-330486D01*
X52880473Y-92391D02*
X52832854Y-44772D01*
X52832854Y-44772D02*
X52880473Y2847D01*
X52880473Y2847D02*
X52928092Y-44772D01*
X52928092Y-44772D02*
X52880473Y-92391D01*
X52880473Y-92391D02*
X52880473Y2847D01*
X51975712Y-663819D02*
X51975712Y2847D01*
X52213807Y-1044772D02*
X52451902Y-330486D01*
X52451902Y-330486D02*
X51832855Y-330486D01*
D12*
X72651471Y7389571D02*
X72651471Y8103857D01*
X72651471Y8103857D02*
X74151471Y8103857D01*
X72651471Y6246714D02*
X73437185Y6246714D01*
X73437185Y6246714D02*
X73580042Y6318142D01*
X73580042Y6318142D02*
X73651471Y6460999D01*
X73651471Y6460999D02*
X73651471Y6746714D01*
X73651471Y6746714D02*
X73580042Y6889571D01*
X72722900Y6246714D02*
X72651471Y6389571D01*
X72651471Y6389571D02*
X72651471Y6746714D01*
X72651471Y6746714D02*
X72722900Y6889571D01*
X72722900Y6889571D02*
X72865757Y6960999D01*
X72865757Y6960999D02*
X73008614Y6960999D01*
X73008614Y6960999D02*
X73151471Y6889571D01*
X73151471Y6889571D02*
X73222900Y6746714D01*
X73222900Y6746714D02*
X73222900Y6389571D01*
X73222900Y6389571D02*
X73294328Y6246714D01*
X72651471Y5532428D02*
X74151471Y5532428D01*
X73580042Y5532428D02*
X73651471Y5389571D01*
X73651471Y5389571D02*
X73651471Y5103856D01*
X73651471Y5103856D02*
X73580042Y4960999D01*
X73580042Y4960999D02*
X73508614Y4889571D01*
X73508614Y4889571D02*
X73365757Y4818142D01*
X73365757Y4818142D02*
X72937185Y4818142D01*
X72937185Y4818142D02*
X72794328Y4889571D01*
X72794328Y4889571D02*
X72722900Y4960999D01*
X72722900Y4960999D02*
X72651471Y5103856D01*
X72651471Y5103856D02*
X72651471Y5389571D01*
X72651471Y5389571D02*
X72722900Y5532428D01*
X72722900Y3603856D02*
X72651471Y3746713D01*
X72651471Y3746713D02*
X72651471Y4032428D01*
X72651471Y4032428D02*
X72722900Y4175285D01*
X72722900Y4175285D02*
X72865757Y4246713D01*
X72865757Y4246713D02*
X73437185Y4246713D01*
X73437185Y4246713D02*
X73580042Y4175285D01*
X73580042Y4175285D02*
X73651471Y4032428D01*
X73651471Y4032428D02*
X73651471Y3746713D01*
X73651471Y3746713D02*
X73580042Y3603856D01*
X73580042Y3603856D02*
X73437185Y3532428D01*
X73437185Y3532428D02*
X73294328Y3532428D01*
X73294328Y3532428D02*
X73151471Y4246713D01*
X72651471Y2675285D02*
X72722900Y2818142D01*
X72722900Y2818142D02*
X72865757Y2889571D01*
X72865757Y2889571D02*
X74151471Y2889571D01*
D11*
X64372180Y2537509D02*
X64372180Y2037509D01*
X64372180Y2037509D02*
X64181704Y2037509D01*
X64181704Y2037509D02*
X64134085Y2061319D01*
X64134085Y2061319D02*
X64110275Y2085128D01*
X64110275Y2085128D02*
X64086466Y2132747D01*
X64086466Y2132747D02*
X64086466Y2204176D01*
X64086466Y2204176D02*
X64110275Y2251795D01*
X64110275Y2251795D02*
X64134085Y2275604D01*
X64134085Y2275604D02*
X64181704Y2299414D01*
X64181704Y2299414D02*
X64372180Y2299414D01*
X63657894Y2537509D02*
X63657894Y2275604D01*
X63657894Y2275604D02*
X63681704Y2227985D01*
X63681704Y2227985D02*
X63729323Y2204176D01*
X63729323Y2204176D02*
X63824561Y2204176D01*
X63824561Y2204176D02*
X63872180Y2227985D01*
X63657894Y2513700D02*
X63705513Y2537509D01*
X63705513Y2537509D02*
X63824561Y2537509D01*
X63824561Y2537509D02*
X63872180Y2513700D01*
X63872180Y2513700D02*
X63895989Y2466080D01*
X63895989Y2466080D02*
X63895989Y2418461D01*
X63895989Y2418461D02*
X63872180Y2370842D01*
X63872180Y2370842D02*
X63824561Y2347033D01*
X63824561Y2347033D02*
X63705513Y2347033D01*
X63705513Y2347033D02*
X63657894Y2323223D01*
X63443608Y2513700D02*
X63395989Y2537509D01*
X63395989Y2537509D02*
X63300751Y2537509D01*
X63300751Y2537509D02*
X63253132Y2513700D01*
X63253132Y2513700D02*
X63229323Y2466080D01*
X63229323Y2466080D02*
X63229323Y2442271D01*
X63229323Y2442271D02*
X63253132Y2394652D01*
X63253132Y2394652D02*
X63300751Y2370842D01*
X63300751Y2370842D02*
X63372180Y2370842D01*
X63372180Y2370842D02*
X63419799Y2347033D01*
X63419799Y2347033D02*
X63443608Y2299414D01*
X63443608Y2299414D02*
X63443608Y2275604D01*
X63443608Y2275604D02*
X63419799Y2227985D01*
X63419799Y2227985D02*
X63372180Y2204176D01*
X63372180Y2204176D02*
X63300751Y2204176D01*
X63300751Y2204176D02*
X63253132Y2227985D01*
X63038846Y2513700D02*
X62991227Y2537509D01*
X62991227Y2537509D02*
X62895989Y2537509D01*
X62895989Y2537509D02*
X62848370Y2513700D01*
X62848370Y2513700D02*
X62824561Y2466080D01*
X62824561Y2466080D02*
X62824561Y2442271D01*
X62824561Y2442271D02*
X62848370Y2394652D01*
X62848370Y2394652D02*
X62895989Y2370842D01*
X62895989Y2370842D02*
X62967418Y2370842D01*
X62967418Y2370842D02*
X63015037Y2347033D01*
X63015037Y2347033D02*
X63038846Y2299414D01*
X63038846Y2299414D02*
X63038846Y2275604D01*
X63038846Y2275604D02*
X63015037Y2227985D01*
X63015037Y2227985D02*
X62967418Y2204176D01*
X62967418Y2204176D02*
X62895989Y2204176D01*
X62895989Y2204176D02*
X62848370Y2227985D01*
X62419799Y2513700D02*
X62467418Y2537509D01*
X62467418Y2537509D02*
X62562656Y2537509D01*
X62562656Y2537509D02*
X62610275Y2513700D01*
X62610275Y2513700D02*
X62634084Y2466080D01*
X62634084Y2466080D02*
X62634084Y2275604D01*
X62634084Y2275604D02*
X62610275Y2227985D01*
X62610275Y2227985D02*
X62562656Y2204176D01*
X62562656Y2204176D02*
X62467418Y2204176D01*
X62467418Y2204176D02*
X62419799Y2227985D01*
X62419799Y2227985D02*
X62395989Y2275604D01*
X62395989Y2275604D02*
X62395989Y2323223D01*
X62395989Y2323223D02*
X62634084Y2370842D01*
X61967418Y2537509D02*
X61967418Y2037509D01*
X61967418Y2513700D02*
X62015037Y2537509D01*
X62015037Y2537509D02*
X62110275Y2537509D01*
X62110275Y2537509D02*
X62157894Y2513700D01*
X62157894Y2513700D02*
X62181704Y2489890D01*
X62181704Y2489890D02*
X62205513Y2442271D01*
X62205513Y2442271D02*
X62205513Y2299414D01*
X62205513Y2299414D02*
X62181704Y2251795D01*
X62181704Y2251795D02*
X62157894Y2227985D01*
X62157894Y2227985D02*
X62110275Y2204176D01*
X62110275Y2204176D02*
X62015037Y2204176D01*
X62015037Y2204176D02*
X61967418Y2227985D01*
D10*
X67487323Y1482408D02*
X67534942Y1530028D01*
X67534942Y1530028D02*
X67677799Y1577647D01*
X67677799Y1577647D02*
X67773037Y1577647D01*
X67773037Y1577647D02*
X67915894Y1530028D01*
X67915894Y1530028D02*
X68011132Y1434789D01*
X68011132Y1434789D02*
X68058751Y1339551D01*
X68058751Y1339551D02*
X68106370Y1149075D01*
X68106370Y1149075D02*
X68106370Y1006218D01*
X68106370Y1006218D02*
X68058751Y815742D01*
X68058751Y815742D02*
X68011132Y720504D01*
X68011132Y720504D02*
X67915894Y625266D01*
X67915894Y625266D02*
X67773037Y577647D01*
X67773037Y577647D02*
X67677799Y577647D01*
X67677799Y577647D02*
X67534942Y625266D01*
X67534942Y625266D02*
X67487323Y672885D01*
X66915894Y1577647D02*
X67011132Y1530028D01*
X67011132Y1530028D02*
X67058751Y1482408D01*
X67058751Y1482408D02*
X67106370Y1387170D01*
X67106370Y1387170D02*
X67106370Y1101456D01*
X67106370Y1101456D02*
X67058751Y1006218D01*
X67058751Y1006218D02*
X67011132Y958599D01*
X67011132Y958599D02*
X66915894Y910980D01*
X66915894Y910980D02*
X66773037Y910980D01*
X66773037Y910980D02*
X66677799Y958599D01*
X66677799Y958599D02*
X66630180Y1006218D01*
X66630180Y1006218D02*
X66582561Y1101456D01*
X66582561Y1101456D02*
X66582561Y1387170D01*
X66582561Y1387170D02*
X66630180Y1482408D01*
X66630180Y1482408D02*
X66677799Y1530028D01*
X66677799Y1530028D02*
X66773037Y1577647D01*
X66773037Y1577647D02*
X66915894Y1577647D01*
X66153989Y1577647D02*
X66153989Y910980D01*
X66153989Y1006218D02*
X66106370Y958599D01*
X66106370Y958599D02*
X66011132Y910980D01*
X66011132Y910980D02*
X65868275Y910980D01*
X65868275Y910980D02*
X65773037Y958599D01*
X65773037Y958599D02*
X65725418Y1053837D01*
X65725418Y1053837D02*
X65725418Y1577647D01*
X65725418Y1053837D02*
X65677799Y958599D01*
X65677799Y958599D02*
X65582561Y910980D01*
X65582561Y910980D02*
X65439704Y910980D01*
X65439704Y910980D02*
X65344465Y958599D01*
X65344465Y958599D02*
X65296846Y1053837D01*
X65296846Y1053837D02*
X65296846Y1577647D01*
X64820656Y1577647D02*
X64820656Y910980D01*
X64820656Y1006218D02*
X64773037Y958599D01*
X64773037Y958599D02*
X64677799Y910980D01*
X64677799Y910980D02*
X64534942Y910980D01*
X64534942Y910980D02*
X64439704Y958599D01*
X64439704Y958599D02*
X64392085Y1053837D01*
X64392085Y1053837D02*
X64392085Y1577647D01*
X64392085Y1053837D02*
X64344466Y958599D01*
X64344466Y958599D02*
X64249228Y910980D01*
X64249228Y910980D02*
X64106371Y910980D01*
X64106371Y910980D02*
X64011132Y958599D01*
X64011132Y958599D02*
X63963513Y1053837D01*
X63963513Y1053837D02*
X63963513Y1577647D01*
X62392085Y1053837D02*
X62249228Y1101456D01*
X62249228Y1101456D02*
X62201609Y1149075D01*
X62201609Y1149075D02*
X62153990Y1244313D01*
X62153990Y1244313D02*
X62153990Y1387170D01*
X62153990Y1387170D02*
X62201609Y1482408D01*
X62201609Y1482408D02*
X62249228Y1530028D01*
X62249228Y1530028D02*
X62344466Y1577647D01*
X62344466Y1577647D02*
X62725418Y1577647D01*
X62725418Y1577647D02*
X62725418Y577647D01*
X62725418Y577647D02*
X62392085Y577647D01*
X62392085Y577647D02*
X62296847Y625266D01*
X62296847Y625266D02*
X62249228Y672885D01*
X62249228Y672885D02*
X62201609Y768123D01*
X62201609Y768123D02*
X62201609Y863361D01*
X62201609Y863361D02*
X62249228Y958599D01*
X62249228Y958599D02*
X62296847Y1006218D01*
X62296847Y1006218D02*
X62392085Y1053837D01*
X62392085Y1053837D02*
X62725418Y1053837D01*
X61201609Y625266D02*
X61296847Y577647D01*
X61296847Y577647D02*
X61439704Y577647D01*
X61439704Y577647D02*
X61582561Y625266D01*
X61582561Y625266D02*
X61677799Y720504D01*
X61677799Y720504D02*
X61725418Y815742D01*
X61725418Y815742D02*
X61773037Y1006218D01*
X61773037Y1006218D02*
X61773037Y1149075D01*
X61773037Y1149075D02*
X61725418Y1339551D01*
X61725418Y1339551D02*
X61677799Y1434789D01*
X61677799Y1434789D02*
X61582561Y1530028D01*
X61582561Y1530028D02*
X61439704Y1577647D01*
X61439704Y1577647D02*
X61344466Y1577647D01*
X61344466Y1577647D02*
X61201609Y1530028D01*
X61201609Y1530028D02*
X61153990Y1482408D01*
X61153990Y1482408D02*
X61153990Y1149075D01*
X61153990Y1149075D02*
X61344466Y1149075D01*
X60677799Y1577647D02*
X60487323Y1577647D01*
X60487323Y1577647D02*
X60392085Y1530028D01*
X60392085Y1530028D02*
X60344466Y1482408D01*
X60344466Y1482408D02*
X60249228Y1339551D01*
X60249228Y1339551D02*
X60201609Y1149075D01*
X60201609Y1149075D02*
X60201609Y768123D01*
X60201609Y768123D02*
X60249228Y672885D01*
X60249228Y672885D02*
X60296847Y625266D01*
X60296847Y625266D02*
X60392085Y577647D01*
X60392085Y577647D02*
X60582561Y577647D01*
X60582561Y577647D02*
X60677799Y625266D01*
X60677799Y625266D02*
X60725418Y672885D01*
X60725418Y672885D02*
X60773037Y768123D01*
X60773037Y768123D02*
X60773037Y1006218D01*
X60773037Y1006218D02*
X60725418Y1101456D01*
X60725418Y1101456D02*
X60677799Y1149075D01*
X60677799Y1149075D02*
X60582561Y1196694D01*
X60582561Y1196694D02*
X60392085Y1196694D01*
X60392085Y1196694D02*
X60296847Y1149075D01*
X60296847Y1149075D02*
X60249228Y1101456D01*
X60249228Y1101456D02*
X60201609Y1006218D01*
X59296847Y577647D02*
X59773037Y577647D01*
X59773037Y577647D02*
X59820656Y1053837D01*
X59820656Y1053837D02*
X59773037Y1006218D01*
X59773037Y1006218D02*
X59677799Y958599D01*
X59677799Y958599D02*
X59439704Y958599D01*
X59439704Y958599D02*
X59344466Y1006218D01*
X59344466Y1006218D02*
X59296847Y1053837D01*
X59296847Y1053837D02*
X59249228Y1149075D01*
X59249228Y1149075D02*
X59249228Y1387170D01*
X59249228Y1387170D02*
X59296847Y1482408D01*
X59296847Y1482408D02*
X59344466Y1530028D01*
X59344466Y1530028D02*
X59439704Y1577647D01*
X59439704Y1577647D02*
X59677799Y1577647D01*
X59677799Y1577647D02*
X59773037Y1530028D01*
X59773037Y1530028D02*
X59820656Y1482408D01*
D12*
X46672571Y7055900D02*
X47815429Y7055900D01*
X47244000Y6484471D02*
X47244000Y7627328D01*
D11*
X28263066Y6222309D02*
X28239257Y6198500D01*
X28239257Y6198500D02*
X28167828Y6174690D01*
X28167828Y6174690D02*
X28120209Y6174690D01*
X28120209Y6174690D02*
X28048781Y6198500D01*
X28048781Y6198500D02*
X28001162Y6246119D01*
X28001162Y6246119D02*
X27977352Y6293738D01*
X27977352Y6293738D02*
X27953543Y6388976D01*
X27953543Y6388976D02*
X27953543Y6460404D01*
X27953543Y6460404D02*
X27977352Y6555642D01*
X27977352Y6555642D02*
X28001162Y6603261D01*
X28001162Y6603261D02*
X28048781Y6650880D01*
X28048781Y6650880D02*
X28120209Y6674690D01*
X28120209Y6674690D02*
X28167828Y6674690D01*
X28167828Y6674690D02*
X28239257Y6650880D01*
X28239257Y6650880D02*
X28263066Y6627071D01*
X28739257Y6174690D02*
X28453543Y6174690D01*
X28596400Y6174690D02*
X28596400Y6674690D01*
X28596400Y6674690D02*
X28548781Y6603261D01*
X28548781Y6603261D02*
X28501162Y6555642D01*
X28501162Y6555642D02*
X28453543Y6531833D01*
X30345866Y11327709D02*
X30322057Y11303900D01*
X30322057Y11303900D02*
X30250628Y11280090D01*
X30250628Y11280090D02*
X30203009Y11280090D01*
X30203009Y11280090D02*
X30131581Y11303900D01*
X30131581Y11303900D02*
X30083962Y11351519D01*
X30083962Y11351519D02*
X30060152Y11399138D01*
X30060152Y11399138D02*
X30036343Y11494376D01*
X30036343Y11494376D02*
X30036343Y11565804D01*
X30036343Y11565804D02*
X30060152Y11661042D01*
X30060152Y11661042D02*
X30083962Y11708661D01*
X30083962Y11708661D02*
X30131581Y11756280D01*
X30131581Y11756280D02*
X30203009Y11780090D01*
X30203009Y11780090D02*
X30250628Y11780090D01*
X30250628Y11780090D02*
X30322057Y11756280D01*
X30322057Y11756280D02*
X30345866Y11732471D01*
X30536343Y11732471D02*
X30560152Y11756280D01*
X30560152Y11756280D02*
X30607771Y11780090D01*
X30607771Y11780090D02*
X30726819Y11780090D01*
X30726819Y11780090D02*
X30774438Y11756280D01*
X30774438Y11756280D02*
X30798247Y11732471D01*
X30798247Y11732471D02*
X30822057Y11684852D01*
X30822057Y11684852D02*
X30822057Y11637233D01*
X30822057Y11637233D02*
X30798247Y11565804D01*
X30798247Y11565804D02*
X30512533Y11280090D01*
X30512533Y11280090D02*
X30822057Y11280090D01*
X28771066Y4393509D02*
X28747257Y4369700D01*
X28747257Y4369700D02*
X28675828Y4345890D01*
X28675828Y4345890D02*
X28628209Y4345890D01*
X28628209Y4345890D02*
X28556781Y4369700D01*
X28556781Y4369700D02*
X28509162Y4417319D01*
X28509162Y4417319D02*
X28485352Y4464938D01*
X28485352Y4464938D02*
X28461543Y4560176D01*
X28461543Y4560176D02*
X28461543Y4631604D01*
X28461543Y4631604D02*
X28485352Y4726842D01*
X28485352Y4726842D02*
X28509162Y4774461D01*
X28509162Y4774461D02*
X28556781Y4822080D01*
X28556781Y4822080D02*
X28628209Y4845890D01*
X28628209Y4845890D02*
X28675828Y4845890D01*
X28675828Y4845890D02*
X28747257Y4822080D01*
X28747257Y4822080D02*
X28771066Y4798271D01*
X28937733Y4845890D02*
X29247257Y4845890D01*
X29247257Y4845890D02*
X29080590Y4655414D01*
X29080590Y4655414D02*
X29152019Y4655414D01*
X29152019Y4655414D02*
X29199638Y4631604D01*
X29199638Y4631604D02*
X29223447Y4607795D01*
X29223447Y4607795D02*
X29247257Y4560176D01*
X29247257Y4560176D02*
X29247257Y4441128D01*
X29247257Y4441128D02*
X29223447Y4393509D01*
X29223447Y4393509D02*
X29199638Y4369700D01*
X29199638Y4369700D02*
X29152019Y4345890D01*
X29152019Y4345890D02*
X29009162Y4345890D01*
X29009162Y4345890D02*
X28961543Y4369700D01*
X28961543Y4369700D02*
X28937733Y4393509D01*
X26561266Y3910909D02*
X26537457Y3887100D01*
X26537457Y3887100D02*
X26466028Y3863290D01*
X26466028Y3863290D02*
X26418409Y3863290D01*
X26418409Y3863290D02*
X26346981Y3887100D01*
X26346981Y3887100D02*
X26299362Y3934719D01*
X26299362Y3934719D02*
X26275552Y3982338D01*
X26275552Y3982338D02*
X26251743Y4077576D01*
X26251743Y4077576D02*
X26251743Y4149004D01*
X26251743Y4149004D02*
X26275552Y4244242D01*
X26275552Y4244242D02*
X26299362Y4291861D01*
X26299362Y4291861D02*
X26346981Y4339480D01*
X26346981Y4339480D02*
X26418409Y4363290D01*
X26418409Y4363290D02*
X26466028Y4363290D01*
X26466028Y4363290D02*
X26537457Y4339480D01*
X26537457Y4339480D02*
X26561266Y4315671D01*
X26989838Y4196623D02*
X26989838Y3863290D01*
X26870790Y4387100D02*
X26751743Y4029957D01*
X26751743Y4029957D02*
X27061266Y4029957D01*
X47465466Y12597709D02*
X47441657Y12573900D01*
X47441657Y12573900D02*
X47370228Y12550090D01*
X47370228Y12550090D02*
X47322609Y12550090D01*
X47322609Y12550090D02*
X47251181Y12573900D01*
X47251181Y12573900D02*
X47203562Y12621519D01*
X47203562Y12621519D02*
X47179752Y12669138D01*
X47179752Y12669138D02*
X47155943Y12764376D01*
X47155943Y12764376D02*
X47155943Y12835804D01*
X47155943Y12835804D02*
X47179752Y12931042D01*
X47179752Y12931042D02*
X47203562Y12978661D01*
X47203562Y12978661D02*
X47251181Y13026280D01*
X47251181Y13026280D02*
X47322609Y13050090D01*
X47322609Y13050090D02*
X47370228Y13050090D01*
X47370228Y13050090D02*
X47441657Y13026280D01*
X47441657Y13026280D02*
X47465466Y13002471D01*
X47894038Y13050090D02*
X47798800Y13050090D01*
X47798800Y13050090D02*
X47751181Y13026280D01*
X47751181Y13026280D02*
X47727371Y13002471D01*
X47727371Y13002471D02*
X47679752Y12931042D01*
X47679752Y12931042D02*
X47655943Y12835804D01*
X47655943Y12835804D02*
X47655943Y12645328D01*
X47655943Y12645328D02*
X47679752Y12597709D01*
X47679752Y12597709D02*
X47703562Y12573900D01*
X47703562Y12573900D02*
X47751181Y12550090D01*
X47751181Y12550090D02*
X47846419Y12550090D01*
X47846419Y12550090D02*
X47894038Y12573900D01*
X47894038Y12573900D02*
X47917847Y12597709D01*
X47917847Y12597709D02*
X47941657Y12645328D01*
X47941657Y12645328D02*
X47941657Y12764376D01*
X47941657Y12764376D02*
X47917847Y12811995D01*
X47917847Y12811995D02*
X47894038Y12835804D01*
X47894038Y12835804D02*
X47846419Y12859614D01*
X47846419Y12859614D02*
X47751181Y12859614D01*
X47751181Y12859614D02*
X47703562Y12835804D01*
X47703562Y12835804D02*
X47679752Y12811995D01*
X47679752Y12811995D02*
X47655943Y12764376D01*
X53016666Y4521509D02*
X52992857Y4497700D01*
X52992857Y4497700D02*
X52921428Y4473890D01*
X52921428Y4473890D02*
X52873809Y4473890D01*
X52873809Y4473890D02*
X52802381Y4497700D01*
X52802381Y4497700D02*
X52754762Y4545319D01*
X52754762Y4545319D02*
X52730952Y4592938D01*
X52730952Y4592938D02*
X52707143Y4688176D01*
X52707143Y4688176D02*
X52707143Y4759604D01*
X52707143Y4759604D02*
X52730952Y4854842D01*
X52730952Y4854842D02*
X52754762Y4902461D01*
X52754762Y4902461D02*
X52802381Y4950080D01*
X52802381Y4950080D02*
X52873809Y4973890D01*
X52873809Y4973890D02*
X52921428Y4973890D01*
X52921428Y4973890D02*
X52992857Y4950080D01*
X52992857Y4950080D02*
X53016666Y4926271D01*
X53183333Y4973890D02*
X53516666Y4973890D01*
X53516666Y4973890D02*
X53302381Y4473890D01*
X25443666Y12115109D02*
X25419857Y12091300D01*
X25419857Y12091300D02*
X25348428Y12067490D01*
X25348428Y12067490D02*
X25300809Y12067490D01*
X25300809Y12067490D02*
X25229381Y12091300D01*
X25229381Y12091300D02*
X25181762Y12138919D01*
X25181762Y12138919D02*
X25157952Y12186538D01*
X25157952Y12186538D02*
X25134143Y12281776D01*
X25134143Y12281776D02*
X25134143Y12353204D01*
X25134143Y12353204D02*
X25157952Y12448442D01*
X25157952Y12448442D02*
X25181762Y12496061D01*
X25181762Y12496061D02*
X25229381Y12543680D01*
X25229381Y12543680D02*
X25300809Y12567490D01*
X25300809Y12567490D02*
X25348428Y12567490D01*
X25348428Y12567490D02*
X25419857Y12543680D01*
X25419857Y12543680D02*
X25443666Y12519871D01*
X25729381Y12353204D02*
X25681762Y12377014D01*
X25681762Y12377014D02*
X25657952Y12400823D01*
X25657952Y12400823D02*
X25634143Y12448442D01*
X25634143Y12448442D02*
X25634143Y12472252D01*
X25634143Y12472252D02*
X25657952Y12519871D01*
X25657952Y12519871D02*
X25681762Y12543680D01*
X25681762Y12543680D02*
X25729381Y12567490D01*
X25729381Y12567490D02*
X25824619Y12567490D01*
X25824619Y12567490D02*
X25872238Y12543680D01*
X25872238Y12543680D02*
X25896047Y12519871D01*
X25896047Y12519871D02*
X25919857Y12472252D01*
X25919857Y12472252D02*
X25919857Y12448442D01*
X25919857Y12448442D02*
X25896047Y12400823D01*
X25896047Y12400823D02*
X25872238Y12377014D01*
X25872238Y12377014D02*
X25824619Y12353204D01*
X25824619Y12353204D02*
X25729381Y12353204D01*
X25729381Y12353204D02*
X25681762Y12329395D01*
X25681762Y12329395D02*
X25657952Y12305585D01*
X25657952Y12305585D02*
X25634143Y12257966D01*
X25634143Y12257966D02*
X25634143Y12162728D01*
X25634143Y12162728D02*
X25657952Y12115109D01*
X25657952Y12115109D02*
X25681762Y12091300D01*
X25681762Y12091300D02*
X25729381Y12067490D01*
X25729381Y12067490D02*
X25824619Y12067490D01*
X25824619Y12067490D02*
X25872238Y12091300D01*
X25872238Y12091300D02*
X25896047Y12115109D01*
X25896047Y12115109D02*
X25919857Y12162728D01*
X25919857Y12162728D02*
X25919857Y12257966D01*
X25919857Y12257966D02*
X25896047Y12305585D01*
X25896047Y12305585D02*
X25872238Y12329395D01*
X25872238Y12329395D02*
X25824619Y12353204D01*
X54716666Y4521509D02*
X54692857Y4497700D01*
X54692857Y4497700D02*
X54621428Y4473890D01*
X54621428Y4473890D02*
X54573809Y4473890D01*
X54573809Y4473890D02*
X54502381Y4497700D01*
X54502381Y4497700D02*
X54454762Y4545319D01*
X54454762Y4545319D02*
X54430952Y4592938D01*
X54430952Y4592938D02*
X54407143Y4688176D01*
X54407143Y4688176D02*
X54407143Y4759604D01*
X54407143Y4759604D02*
X54430952Y4854842D01*
X54430952Y4854842D02*
X54454762Y4902461D01*
X54454762Y4902461D02*
X54502381Y4950080D01*
X54502381Y4950080D02*
X54573809Y4973890D01*
X54573809Y4973890D02*
X54621428Y4973890D01*
X54621428Y4973890D02*
X54692857Y4950080D01*
X54692857Y4950080D02*
X54716666Y4926271D01*
X54954762Y4473890D02*
X55050000Y4473890D01*
X55050000Y4473890D02*
X55097619Y4497700D01*
X55097619Y4497700D02*
X55121428Y4521509D01*
X55121428Y4521509D02*
X55169047Y4592938D01*
X55169047Y4592938D02*
X55192857Y4688176D01*
X55192857Y4688176D02*
X55192857Y4878652D01*
X55192857Y4878652D02*
X55169047Y4926271D01*
X55169047Y4926271D02*
X55145238Y4950080D01*
X55145238Y4950080D02*
X55097619Y4973890D01*
X55097619Y4973890D02*
X55002381Y4973890D01*
X55002381Y4973890D02*
X54954762Y4950080D01*
X54954762Y4950080D02*
X54930952Y4926271D01*
X54930952Y4926271D02*
X54907143Y4878652D01*
X54907143Y4878652D02*
X54907143Y4759604D01*
X54907143Y4759604D02*
X54930952Y4711985D01*
X54930952Y4711985D02*
X54954762Y4688176D01*
X54954762Y4688176D02*
X55002381Y4664366D01*
X55002381Y4664366D02*
X55097619Y4664366D01*
X55097619Y4664366D02*
X55145238Y4688176D01*
X55145238Y4688176D02*
X55169047Y4711985D01*
X55169047Y4711985D02*
X55192857Y4759604D01*
X25357971Y13664509D02*
X25334162Y13640700D01*
X25334162Y13640700D02*
X25262733Y13616890D01*
X25262733Y13616890D02*
X25215114Y13616890D01*
X25215114Y13616890D02*
X25143686Y13640700D01*
X25143686Y13640700D02*
X25096067Y13688319D01*
X25096067Y13688319D02*
X25072257Y13735938D01*
X25072257Y13735938D02*
X25048448Y13831176D01*
X25048448Y13831176D02*
X25048448Y13902604D01*
X25048448Y13902604D02*
X25072257Y13997842D01*
X25072257Y13997842D02*
X25096067Y14045461D01*
X25096067Y14045461D02*
X25143686Y14093080D01*
X25143686Y14093080D02*
X25215114Y14116890D01*
X25215114Y14116890D02*
X25262733Y14116890D01*
X25262733Y14116890D02*
X25334162Y14093080D01*
X25334162Y14093080D02*
X25357971Y14069271D01*
X25834162Y13616890D02*
X25548448Y13616890D01*
X25691305Y13616890D02*
X25691305Y14116890D01*
X25691305Y14116890D02*
X25643686Y14045461D01*
X25643686Y14045461D02*
X25596067Y13997842D01*
X25596067Y13997842D02*
X25548448Y13974033D01*
X26143685Y14116890D02*
X26191304Y14116890D01*
X26191304Y14116890D02*
X26238923Y14093080D01*
X26238923Y14093080D02*
X26262733Y14069271D01*
X26262733Y14069271D02*
X26286542Y14021652D01*
X26286542Y14021652D02*
X26310352Y13926414D01*
X26310352Y13926414D02*
X26310352Y13807366D01*
X26310352Y13807366D02*
X26286542Y13712128D01*
X26286542Y13712128D02*
X26262733Y13664509D01*
X26262733Y13664509D02*
X26238923Y13640700D01*
X26238923Y13640700D02*
X26191304Y13616890D01*
X26191304Y13616890D02*
X26143685Y13616890D01*
X26143685Y13616890D02*
X26096066Y13640700D01*
X26096066Y13640700D02*
X26072257Y13664509D01*
X26072257Y13664509D02*
X26048447Y13712128D01*
X26048447Y13712128D02*
X26024638Y13807366D01*
X26024638Y13807366D02*
X26024638Y13926414D01*
X26024638Y13926414D02*
X26048447Y14021652D01*
X26048447Y14021652D02*
X26072257Y14069271D01*
X26072257Y14069271D02*
X26096066Y14093080D01*
X26096066Y14093080D02*
X26143685Y14116890D01*
X56378571Y4521509D02*
X56354762Y4497700D01*
X56354762Y4497700D02*
X56283333Y4473890D01*
X56283333Y4473890D02*
X56235714Y4473890D01*
X56235714Y4473890D02*
X56164286Y4497700D01*
X56164286Y4497700D02*
X56116667Y4545319D01*
X56116667Y4545319D02*
X56092857Y4592938D01*
X56092857Y4592938D02*
X56069048Y4688176D01*
X56069048Y4688176D02*
X56069048Y4759604D01*
X56069048Y4759604D02*
X56092857Y4854842D01*
X56092857Y4854842D02*
X56116667Y4902461D01*
X56116667Y4902461D02*
X56164286Y4950080D01*
X56164286Y4950080D02*
X56235714Y4973890D01*
X56235714Y4973890D02*
X56283333Y4973890D01*
X56283333Y4973890D02*
X56354762Y4950080D01*
X56354762Y4950080D02*
X56378571Y4926271D01*
X56854762Y4473890D02*
X56569048Y4473890D01*
X56711905Y4473890D02*
X56711905Y4973890D01*
X56711905Y4973890D02*
X56664286Y4902461D01*
X56664286Y4902461D02*
X56616667Y4854842D01*
X56616667Y4854842D02*
X56569048Y4831033D01*
X57330952Y4473890D02*
X57045238Y4473890D01*
X57188095Y4473890D02*
X57188095Y4973890D01*
X57188095Y4973890D02*
X57140476Y4902461D01*
X57140476Y4902461D02*
X57092857Y4854842D01*
X57092857Y4854842D02*
X57045238Y4831033D01*
X26069171Y11429309D02*
X26045362Y11405500D01*
X26045362Y11405500D02*
X25973933Y11381690D01*
X25973933Y11381690D02*
X25926314Y11381690D01*
X25926314Y11381690D02*
X25854886Y11405500D01*
X25854886Y11405500D02*
X25807267Y11453119D01*
X25807267Y11453119D02*
X25783457Y11500738D01*
X25783457Y11500738D02*
X25759648Y11595976D01*
X25759648Y11595976D02*
X25759648Y11667404D01*
X25759648Y11667404D02*
X25783457Y11762642D01*
X25783457Y11762642D02*
X25807267Y11810261D01*
X25807267Y11810261D02*
X25854886Y11857880D01*
X25854886Y11857880D02*
X25926314Y11881690D01*
X25926314Y11881690D02*
X25973933Y11881690D01*
X25973933Y11881690D02*
X26045362Y11857880D01*
X26045362Y11857880D02*
X26069171Y11834071D01*
X26545362Y11381690D02*
X26259648Y11381690D01*
X26402505Y11381690D02*
X26402505Y11881690D01*
X26402505Y11881690D02*
X26354886Y11810261D01*
X26354886Y11810261D02*
X26307267Y11762642D01*
X26307267Y11762642D02*
X26259648Y11738833D01*
X26735838Y11834071D02*
X26759647Y11857880D01*
X26759647Y11857880D02*
X26807266Y11881690D01*
X26807266Y11881690D02*
X26926314Y11881690D01*
X26926314Y11881690D02*
X26973933Y11857880D01*
X26973933Y11857880D02*
X26997742Y11834071D01*
X26997742Y11834071D02*
X27021552Y11786452D01*
X27021552Y11786452D02*
X27021552Y11738833D01*
X27021552Y11738833D02*
X26997742Y11667404D01*
X26997742Y11667404D02*
X26712028Y11381690D01*
X26712028Y11381690D02*
X27021552Y11381690D01*
X28028152Y8333690D02*
X28028152Y8833690D01*
X28028152Y8833690D02*
X28147200Y8833690D01*
X28147200Y8833690D02*
X28218628Y8809880D01*
X28218628Y8809880D02*
X28266247Y8762261D01*
X28266247Y8762261D02*
X28290057Y8714642D01*
X28290057Y8714642D02*
X28313866Y8619404D01*
X28313866Y8619404D02*
X28313866Y8547976D01*
X28313866Y8547976D02*
X28290057Y8452738D01*
X28290057Y8452738D02*
X28266247Y8405119D01*
X28266247Y8405119D02*
X28218628Y8357500D01*
X28218628Y8357500D02*
X28147200Y8333690D01*
X28147200Y8333690D02*
X28028152Y8333690D01*
X28790057Y8333690D02*
X28504343Y8333690D01*
X28647200Y8333690D02*
X28647200Y8833690D01*
X28647200Y8833690D02*
X28599581Y8762261D01*
X28599581Y8762261D02*
X28551962Y8714642D01*
X28551962Y8714642D02*
X28504343Y8690833D01*
X24031580Y4044271D02*
X23983961Y4068080D01*
X23983961Y4068080D02*
X23936342Y4115700D01*
X23936342Y4115700D02*
X23864914Y4187128D01*
X23864914Y4187128D02*
X23817295Y4210938D01*
X23817295Y4210938D02*
X23769676Y4210938D01*
X23793485Y4091890D02*
X23745866Y4115700D01*
X23745866Y4115700D02*
X23698247Y4163319D01*
X23698247Y4163319D02*
X23674438Y4258557D01*
X23674438Y4258557D02*
X23674438Y4425223D01*
X23674438Y4425223D02*
X23698247Y4520461D01*
X23698247Y4520461D02*
X23745866Y4568080D01*
X23745866Y4568080D02*
X23793485Y4591890D01*
X23793485Y4591890D02*
X23888723Y4591890D01*
X23888723Y4591890D02*
X23936342Y4568080D01*
X23936342Y4568080D02*
X23983961Y4520461D01*
X23983961Y4520461D02*
X24007771Y4425223D01*
X24007771Y4425223D02*
X24007771Y4258557D01*
X24007771Y4258557D02*
X23983961Y4163319D01*
X23983961Y4163319D02*
X23936342Y4115700D01*
X23936342Y4115700D02*
X23888723Y4091890D01*
X23888723Y4091890D02*
X23793485Y4091890D01*
X24198248Y4544271D02*
X24222057Y4568080D01*
X24222057Y4568080D02*
X24269676Y4591890D01*
X24269676Y4591890D02*
X24388724Y4591890D01*
X24388724Y4591890D02*
X24436343Y4568080D01*
X24436343Y4568080D02*
X24460152Y4544271D01*
X24460152Y4544271D02*
X24483962Y4496652D01*
X24483962Y4496652D02*
X24483962Y4449033D01*
X24483962Y4449033D02*
X24460152Y4377604D01*
X24460152Y4377604D02*
X24174438Y4091890D01*
X24174438Y4091890D02*
X24483962Y4091890D01*
X55095780Y16490271D02*
X55048161Y16514080D01*
X55048161Y16514080D02*
X55000542Y16561700D01*
X55000542Y16561700D02*
X54929114Y16633128D01*
X54929114Y16633128D02*
X54881495Y16656938D01*
X54881495Y16656938D02*
X54833876Y16656938D01*
X54857685Y16537890D02*
X54810066Y16561700D01*
X54810066Y16561700D02*
X54762447Y16609319D01*
X54762447Y16609319D02*
X54738638Y16704557D01*
X54738638Y16704557D02*
X54738638Y16871223D01*
X54738638Y16871223D02*
X54762447Y16966461D01*
X54762447Y16966461D02*
X54810066Y17014080D01*
X54810066Y17014080D02*
X54857685Y17037890D01*
X54857685Y17037890D02*
X54952923Y17037890D01*
X54952923Y17037890D02*
X55000542Y17014080D01*
X55000542Y17014080D02*
X55048161Y16966461D01*
X55048161Y16966461D02*
X55071971Y16871223D01*
X55071971Y16871223D02*
X55071971Y16704557D01*
X55071971Y16704557D02*
X55048161Y16609319D01*
X55048161Y16609319D02*
X55000542Y16561700D01*
X55000542Y16561700D02*
X54952923Y16537890D01*
X54952923Y16537890D02*
X54857685Y16537890D01*
X55357686Y16823604D02*
X55310067Y16847414D01*
X55310067Y16847414D02*
X55286257Y16871223D01*
X55286257Y16871223D02*
X55262448Y16918842D01*
X55262448Y16918842D02*
X55262448Y16942652D01*
X55262448Y16942652D02*
X55286257Y16990271D01*
X55286257Y16990271D02*
X55310067Y17014080D01*
X55310067Y17014080D02*
X55357686Y17037890D01*
X55357686Y17037890D02*
X55452924Y17037890D01*
X55452924Y17037890D02*
X55500543Y17014080D01*
X55500543Y17014080D02*
X55524352Y16990271D01*
X55524352Y16990271D02*
X55548162Y16942652D01*
X55548162Y16942652D02*
X55548162Y16918842D01*
X55548162Y16918842D02*
X55524352Y16871223D01*
X55524352Y16871223D02*
X55500543Y16847414D01*
X55500543Y16847414D02*
X55452924Y16823604D01*
X55452924Y16823604D02*
X55357686Y16823604D01*
X55357686Y16823604D02*
X55310067Y16799795D01*
X55310067Y16799795D02*
X55286257Y16775985D01*
X55286257Y16775985D02*
X55262448Y16728366D01*
X55262448Y16728366D02*
X55262448Y16633128D01*
X55262448Y16633128D02*
X55286257Y16585509D01*
X55286257Y16585509D02*
X55310067Y16561700D01*
X55310067Y16561700D02*
X55357686Y16537890D01*
X55357686Y16537890D02*
X55452924Y16537890D01*
X55452924Y16537890D02*
X55500543Y16561700D01*
X55500543Y16561700D02*
X55524352Y16585509D01*
X55524352Y16585509D02*
X55548162Y16633128D01*
X55548162Y16633128D02*
X55548162Y16728366D01*
X55548162Y16728366D02*
X55524352Y16775985D01*
X55524352Y16775985D02*
X55500543Y16799795D01*
X55500543Y16799795D02*
X55452924Y16823604D01*
X35349666Y358090D02*
X35183000Y596185D01*
X35063952Y358090D02*
X35063952Y858090D01*
X35063952Y858090D02*
X35254428Y858090D01*
X35254428Y858090D02*
X35302047Y834280D01*
X35302047Y834280D02*
X35325857Y810471D01*
X35325857Y810471D02*
X35349666Y762852D01*
X35349666Y762852D02*
X35349666Y691423D01*
X35349666Y691423D02*
X35325857Y643804D01*
X35325857Y643804D02*
X35302047Y619995D01*
X35302047Y619995D02*
X35254428Y596185D01*
X35254428Y596185D02*
X35063952Y596185D01*
X35825857Y358090D02*
X35540143Y358090D01*
X35683000Y358090D02*
X35683000Y858090D01*
X35683000Y858090D02*
X35635381Y786661D01*
X35635381Y786661D02*
X35587762Y739042D01*
X35587762Y739042D02*
X35540143Y715233D01*
X31446838Y15564690D02*
X31446838Y15207547D01*
X31446838Y15207547D02*
X31423029Y15136119D01*
X31423029Y15136119D02*
X31375410Y15088500D01*
X31375410Y15088500D02*
X31303981Y15064690D01*
X31303981Y15064690D02*
X31256362Y15064690D01*
X31946838Y15064690D02*
X31661124Y15064690D01*
X31803981Y15064690D02*
X31803981Y15564690D01*
X31803981Y15564690D02*
X31756362Y15493261D01*
X31756362Y15493261D02*
X31708743Y15445642D01*
X31708743Y15445642D02*
X31661124Y15421833D01*
X32423028Y15064690D02*
X32137314Y15064690D01*
X32280171Y15064690D02*
X32280171Y15564690D01*
X32280171Y15564690D02*
X32232552Y15493261D01*
X32232552Y15493261D02*
X32184933Y15445642D01*
X32184933Y15445642D02*
X32137314Y15421833D01*
X61671247Y10764090D02*
X61671247Y10359328D01*
X61671247Y10359328D02*
X61695057Y10311709D01*
X61695057Y10311709D02*
X61718866Y10287900D01*
X61718866Y10287900D02*
X61766485Y10264090D01*
X61766485Y10264090D02*
X61861723Y10264090D01*
X61861723Y10264090D02*
X61909342Y10287900D01*
X61909342Y10287900D02*
X61933152Y10311709D01*
X61933152Y10311709D02*
X61956961Y10359328D01*
X61956961Y10359328D02*
X61956961Y10764090D01*
X62171248Y10716471D02*
X62195057Y10740280D01*
X62195057Y10740280D02*
X62242676Y10764090D01*
X62242676Y10764090D02*
X62361724Y10764090D01*
X62361724Y10764090D02*
X62409343Y10740280D01*
X62409343Y10740280D02*
X62433152Y10716471D01*
X62433152Y10716471D02*
X62456962Y10668852D01*
X62456962Y10668852D02*
X62456962Y10621233D01*
X62456962Y10621233D02*
X62433152Y10549804D01*
X62433152Y10549804D02*
X62147438Y10264090D01*
X62147438Y10264090D02*
X62456962Y10264090D01*
X60841666Y14198890D02*
X60675000Y14436985D01*
X60555952Y14198890D02*
X60555952Y14698890D01*
X60555952Y14698890D02*
X60746428Y14698890D01*
X60746428Y14698890D02*
X60794047Y14675080D01*
X60794047Y14675080D02*
X60817857Y14651271D01*
X60817857Y14651271D02*
X60841666Y14603652D01*
X60841666Y14603652D02*
X60841666Y14532223D01*
X60841666Y14532223D02*
X60817857Y14484604D01*
X60817857Y14484604D02*
X60794047Y14460795D01*
X60794047Y14460795D02*
X60746428Y14436985D01*
X60746428Y14436985D02*
X60555952Y14436985D01*
X61008333Y14698890D02*
X61317857Y14698890D01*
X61317857Y14698890D02*
X61151190Y14508414D01*
X61151190Y14508414D02*
X61222619Y14508414D01*
X61222619Y14508414D02*
X61270238Y14484604D01*
X61270238Y14484604D02*
X61294047Y14460795D01*
X61294047Y14460795D02*
X61317857Y14413176D01*
X61317857Y14413176D02*
X61317857Y14294128D01*
X61317857Y14294128D02*
X61294047Y14246509D01*
X61294047Y14246509D02*
X61270238Y14222700D01*
X61270238Y14222700D02*
X61222619Y14198890D01*
X61222619Y14198890D02*
X61079762Y14198890D01*
X61079762Y14198890D02*
X61032143Y14222700D01*
X61032143Y14222700D02*
X61008333Y14246509D01*
X14491543Y18882595D02*
X14562971Y18858785D01*
X14562971Y18858785D02*
X14586781Y18834976D01*
X14586781Y18834976D02*
X14610590Y18787357D01*
X14610590Y18787357D02*
X14610590Y18715928D01*
X14610590Y18715928D02*
X14586781Y18668309D01*
X14586781Y18668309D02*
X14562971Y18644500D01*
X14562971Y18644500D02*
X14515352Y18620690D01*
X14515352Y18620690D02*
X14324876Y18620690D01*
X14324876Y18620690D02*
X14324876Y19120690D01*
X14324876Y19120690D02*
X14491543Y19120690D01*
X14491543Y19120690D02*
X14539162Y19096880D01*
X14539162Y19096880D02*
X14562971Y19073071D01*
X14562971Y19073071D02*
X14586781Y19025452D01*
X14586781Y19025452D02*
X14586781Y18977833D01*
X14586781Y18977833D02*
X14562971Y18930214D01*
X14562971Y18930214D02*
X14539162Y18906404D01*
X14539162Y18906404D02*
X14491543Y18882595D01*
X14491543Y18882595D02*
X14324876Y18882595D01*
X14753448Y19120690D02*
X15039162Y19120690D01*
X14896305Y18620690D02*
X14896305Y19120690D01*
X15467733Y18620690D02*
X15182019Y18620690D01*
X15324876Y18620690D02*
X15324876Y19120690D01*
X15324876Y19120690D02*
X15277257Y19049261D01*
X15277257Y19049261D02*
X15229638Y19001642D01*
X15229638Y19001642D02*
X15182019Y18977833D01*
D13*
X14699600Y19761342D02*
X14699600Y22047057D01*
X15842457Y20904199D02*
X13556742Y20904199D01*
D11*
X9409133Y22244890D02*
X9409133Y21887747D01*
X9409133Y21887747D02*
X9385324Y21816319D01*
X9385324Y21816319D02*
X9337705Y21768700D01*
X9337705Y21768700D02*
X9266276Y21744890D01*
X9266276Y21744890D02*
X9218657Y21744890D01*
X9909133Y21744890D02*
X9623419Y21744890D01*
X9766276Y21744890D02*
X9766276Y22244890D01*
X9766276Y22244890D02*
X9718657Y22173461D01*
X9718657Y22173461D02*
X9671038Y22125842D01*
X9671038Y22125842D02*
X9623419Y22102033D01*
X49560880Y17366271D02*
X49513261Y17390080D01*
X49513261Y17390080D02*
X49465642Y17437700D01*
X49465642Y17437700D02*
X49394214Y17509128D01*
X49394214Y17509128D02*
X49346595Y17532938D01*
X49346595Y17532938D02*
X49298976Y17532938D01*
X49322785Y17413890D02*
X49275166Y17437700D01*
X49275166Y17437700D02*
X49227547Y17485319D01*
X49227547Y17485319D02*
X49203738Y17580557D01*
X49203738Y17580557D02*
X49203738Y17747223D01*
X49203738Y17747223D02*
X49227547Y17842461D01*
X49227547Y17842461D02*
X49275166Y17890080D01*
X49275166Y17890080D02*
X49322785Y17913890D01*
X49322785Y17913890D02*
X49418023Y17913890D01*
X49418023Y17913890D02*
X49465642Y17890080D01*
X49465642Y17890080D02*
X49513261Y17842461D01*
X49513261Y17842461D02*
X49537071Y17747223D01*
X49537071Y17747223D02*
X49537071Y17580557D01*
X49537071Y17580557D02*
X49513261Y17485319D01*
X49513261Y17485319D02*
X49465642Y17437700D01*
X49465642Y17437700D02*
X49418023Y17413890D01*
X49418023Y17413890D02*
X49322785Y17413890D01*
X49703738Y17913890D02*
X50013262Y17913890D01*
X50013262Y17913890D02*
X49846595Y17723414D01*
X49846595Y17723414D02*
X49918024Y17723414D01*
X49918024Y17723414D02*
X49965643Y17699604D01*
X49965643Y17699604D02*
X49989452Y17675795D01*
X49989452Y17675795D02*
X50013262Y17628176D01*
X50013262Y17628176D02*
X50013262Y17509128D01*
X50013262Y17509128D02*
X49989452Y17461509D01*
X49989452Y17461509D02*
X49965643Y17437700D01*
X49965643Y17437700D02*
X49918024Y17413890D01*
X49918024Y17413890D02*
X49775167Y17413890D01*
X49775167Y17413890D02*
X49727548Y17437700D01*
X49727548Y17437700D02*
X49703738Y17461509D01*
D14*
%TO.C,C1*%
X30672779Y7010000D02*
X30347221Y7010000D01*
X30672779Y5990000D02*
X30347221Y5990000D01*
%TO.C,C2*%
X30422779Y10700000D02*
X30097221Y10700000D01*
X30422779Y9680000D02*
X30097221Y9680000D01*
%TO.C,C3*%
X31125379Y5370000D02*
X30799821Y5370000D01*
X31125379Y4350000D02*
X30799821Y4350000D01*
%TO.C,C4*%
X26287000Y6385779D02*
X26287000Y6060221D01*
X27307000Y6385779D02*
X27307000Y6060221D01*
%TO.C,C6*%
X48043000Y12050000D02*
X48043000Y5730000D01*
X48043000Y5730000D02*
X56228000Y5730000D01*
X56228000Y12050000D02*
X48043000Y12050000D01*
%TO.C,C7*%
X52790000Y2228733D02*
X52790000Y2571267D01*
X53810000Y2228733D02*
X53810000Y2571267D01*
%TO.C,C8*%
X23437667Y12244800D02*
X23095133Y12244800D01*
X23437667Y11224800D02*
X23095133Y11224800D01*
%TO.C,C9*%
X54390000Y2228733D02*
X54390000Y2571267D01*
X55410000Y2228733D02*
X55410000Y2571267D01*
%TO.C,C10*%
X23437667Y13819600D02*
X23095133Y13819600D01*
X23437667Y12799600D02*
X23095133Y12799600D01*
%TO.C,C11*%
X55990000Y2228733D02*
X55990000Y2571267D01*
X57010000Y2228733D02*
X57010000Y2571267D01*
%TO.C,C12*%
X26287000Y9583267D02*
X26287000Y9240733D01*
X27307000Y9583267D02*
X27307000Y9240733D01*
%TO.C,Q2*%
X21625000Y10210000D02*
X18175000Y10210000D01*
X21625000Y10210000D02*
X23575000Y10210000D01*
X21625000Y5090000D02*
X19675000Y5090000D01*
X21625000Y5090000D02*
X23575000Y5090000D01*
%TO.C,Q8*%
X54354000Y16058000D02*
X52194000Y16058000D01*
X54354000Y16058000D02*
X54354000Y15128000D01*
X54354000Y12898000D02*
X52894000Y12898000D01*
X54354000Y12898000D02*
X54354000Y13828000D01*
%TO.C,R1*%
X38034179Y1221200D02*
X37708621Y1221200D01*
X38034179Y201200D02*
X37708621Y201200D01*
D15*
%TO.C,J11*%
X33375000Y18625000D02*
X46025000Y18625000D01*
X33375000Y9605000D02*
X33375000Y15605000D01*
X33375000Y3175000D02*
X33375000Y4875000D01*
X33375000Y3175000D02*
X34620000Y3175000D01*
X42700000Y3175000D02*
X46025000Y3175000D01*
X46025000Y9105000D02*
X46025000Y16105000D01*
X46025000Y3175000D02*
X46025000Y4875000D01*
D10*
X37045000Y2105000D02*
G75*
G02*
X36845000Y2105000I-100000J0D01*
G01*
X36845000Y2105000D02*
G75*
G02*
X37045000Y2105000I100000J0D01*
G01*
D11*
%TO.C,U2*%
X61575000Y11325000D02*
X60575000Y11325000D01*
D14*
X61675000Y13925000D02*
X59985000Y13925000D01*
%TO.C,R3*%
X60887742Y16247500D02*
X61362258Y16247500D01*
X60887742Y15202500D02*
X61362258Y15202500D01*
%TO.C,J1*%
X3470000Y19770000D02*
X3470000Y21100000D01*
X4800000Y19770000D02*
X3470000Y19770000D01*
X6070000Y22430000D02*
X8670000Y22430000D01*
X6070000Y19770000D02*
X6070000Y22430000D01*
X6070000Y19770000D02*
X8670000Y19770000D01*
X8670000Y19770000D02*
X8670000Y22430000D01*
%TO.C,TP1*%
X74729600Y13511800D02*
X68729600Y13511800D01*
X68729600Y-2488200D01*
X74729600Y-2488200D01*
X74729600Y13511800D01*
%TO.C,Q3*%
X49608500Y16800000D02*
X47933500Y16800000D01*
X49608500Y16800000D02*
X50258500Y16800000D01*
X49608500Y13680000D02*
X48958500Y13680000D01*
X49608500Y13680000D02*
X50258500Y13680000D01*
%TD*%
M02*
