%TF.GenerationSoftware,KiCad,Pcbnew,8.0.4*%
%TF.CreationDate,2024-09-18T09:12:31+01:00*%
%TF.ProjectId,BG95V4,42473935-5634-42e6-9b69-6361645f7063,rev?*%
%TF.SameCoordinates,Original*%
%TF.FileFunction,Copper,L2,Inr*%
%TF.FilePolarity,Positive*%
%FSLAX46Y46*%
G04 Gerber Fmt 4.6, Leading zero omitted, Abs format (unit mm)*
G04 Created by KiCad (PCBNEW 8.0.4) date 2024-09-18 09:12:31*
%MOMM*%
%LPD*%
G01*
G04 APERTURE LIST*
%TA.AperFunction,ComponentPad*%
%ADD10R,2.400000X2.400000*%
%TD*%
%TA.AperFunction,ComponentPad*%
%ADD11C,2.400000*%
%TD*%
%TA.AperFunction,ComponentPad*%
%ADD12R,1.700000X1.700000*%
%TD*%
%TA.AperFunction,ComponentPad*%
%ADD13O,1.700000X1.700000*%
%TD*%
%TA.AperFunction,ViaPad*%
%ADD14C,0.800000*%
%TD*%
%TA.AperFunction,ViaPad*%
%ADD15C,1.200000*%
%TD*%
%TA.AperFunction,Conductor*%
%ADD16C,0.250000*%
%TD*%
%TA.AperFunction,Conductor*%
%ADD17C,0.200000*%
%TD*%
G04 APERTURE END LIST*
D10*
%TO.N,/+3V6d*%
%TO.C,BT1*%
X11750000Y19500000D03*
D11*
%TO.N,GND*%
X11750000Y-1500000D03*
X15500000Y-1500000D03*
X8000000Y-1500000D03*
%TD*%
D12*
%TO.N,/+3V6*%
%TO.C,J1*%
X4800000Y21100000D03*
D13*
%TO.N,/+3V6d*%
X7340000Y21100000D03*
%TD*%
D14*
%TO.N,GND*%
X73533000Y13685394D03*
X31369000Y17399000D03*
X39370000Y16510000D03*
X73533000Y6065394D03*
X65913000Y21305394D03*
X73533000Y985394D03*
X73533000Y8605394D03*
X58432288Y3644211D03*
X48133000Y-1554606D03*
X15113000Y11145394D03*
X36195000Y13335000D03*
X70993000Y8605394D03*
X17653000Y-1554606D03*
X37973000Y-1554606D03*
X58293000Y-1554606D03*
X63373000Y21305394D03*
X44450000Y8890000D03*
X4749800Y15214600D03*
X35560000Y-1270000D03*
X30353000Y21305394D03*
X60147200Y10947400D03*
X73533000Y-1554606D03*
X41910000Y8890000D03*
X31496000Y13208000D03*
X18135600Y16179800D03*
X22733000Y16225394D03*
X20193000Y-1554606D03*
X7493000Y18765394D03*
X12573000Y11145394D03*
X70993000Y11145394D03*
X53213000Y-1554606D03*
X32893000Y13208000D03*
X60833000Y21305394D03*
X28575000Y13462000D03*
X55880000Y-1270000D03*
X36195000Y14478000D03*
X25273000Y985394D03*
X45720000Y-1270000D03*
X45593000Y3525394D03*
X12573000Y8605394D03*
X25908000Y14859000D03*
X22733000Y-1554606D03*
X15113000Y3525394D03*
X68453000Y21305394D03*
X10033000Y3525394D03*
X22707600Y21285200D03*
X32893000Y-1554606D03*
X25400000Y3810000D03*
X36195000Y16637000D03*
X32893000Y21305394D03*
X49430000Y13150000D03*
X36195000Y15494000D03*
X24511000Y14986000D03*
X22733000Y18765394D03*
X30353000Y-1554606D03*
X27051000Y13335000D03*
X11099800Y17170400D03*
X28829000Y14859000D03*
X14046200Y17170400D03*
X60833000Y-1554606D03*
X31089600Y19634200D03*
X70993000Y13685394D03*
X73533000Y11145394D03*
X70993000Y985394D03*
X68453000Y-1554606D03*
X63373000Y-1554606D03*
X54250000Y6740000D03*
X13106400Y13055600D03*
X10033000Y11145394D03*
X70993000Y3525394D03*
X20193000Y3525394D03*
X70993000Y-1554606D03*
X4953000Y11145394D03*
X73533000Y3525394D03*
X40640000Y-1270000D03*
X30607000Y14859000D03*
X50800000Y-1270000D03*
X7493000Y985394D03*
X43053000Y-1554606D03*
X9779000Y13055600D03*
X8331200Y17043400D03*
%TO.N,/uGND*%
X42675000Y10600000D03*
X34510000Y1960000D03*
X42400000Y13250000D03*
%TO.N,/uRST*%
X41540000Y719989D03*
%TO.N,/uCLK*%
X32580000Y9900000D03*
X39200000Y5700000D03*
%TO.N,/uData*%
X40130000Y720000D03*
%TO.N,/uVDD*%
X43070000Y530000D03*
%TO.N,/VBAT*%
X57960000Y830000D03*
X47233980Y10491020D03*
D15*
X28200000Y11900000D03*
D14*
%TO.N,/uStatus*%
X67825000Y16100000D03*
%TO.N,/uPWRKEY*%
X68675000Y13500000D03*
%TO.N,/uDTR*%
X63275000Y16125000D03*
%TO.N,/TxD*%
X64050000Y11275000D03*
%TO.N,/RxD*%
X64050000Y7550000D03*
%TO.N,/uDCD*%
X64625000Y16025000D03*
%TO.N,Net-(Q1-Pad3)*%
X15417800Y5308600D03*
%TO.N,/RXD*%
X50775000Y3850000D03*
%TO.N,/TXD*%
X51800000Y2950000D03*
%TO.N,/VDD_EXT*%
X58350000Y14625000D03*
%TO.N,/DTR*%
X58975000Y13350000D03*
%TO.N,/DCD*%
X48768000Y3048000D03*
%TO.N,/PWRKEY*%
X51917600Y21234400D03*
%TO.N,/Status*%
X53695600Y16738600D03*
%TO.N,/Alim*%
X20400000Y475000D03*
X30962600Y330200D03*
%TO.N,/+3V6d*%
X19126200Y13233400D03*
X15392400Y7239000D03*
%TO.N,/+3V3_UC*%
X68500000Y3275000D03*
X67250000Y13500000D03*
X63525000Y14300000D03*
%TO.N,/T*%
X59512200Y8763000D03*
X54889400Y13182600D03*
%TO.N,/D+*%
X59283600Y18389600D03*
X44983400Y21234400D03*
%TO.N,/D-*%
X46151800Y21183600D03*
X59125498Y19659600D03*
%TD*%
D16*
%TO.N,/Alim*%
X30454600Y2286000D02*
X20802600Y2286000D01*
X20400000Y1883400D02*
X20400000Y475000D01*
X20802600Y2286000D02*
X20400000Y1883400D01*
X30962600Y1778000D02*
X30454600Y2286000D01*
X30962600Y330200D02*
X30962600Y1778000D01*
%TO.N,/T*%
X54889400Y12801600D02*
X54889400Y13182600D01*
X58089800Y11963400D02*
X55727600Y11963400D01*
X59512200Y8763000D02*
X59512200Y10541000D01*
X59512200Y10541000D02*
X58089800Y11963400D01*
X55727600Y11963400D02*
X54889400Y12801600D01*
D17*
%TO.N,/D+*%
X45367999Y20849801D02*
X45367999Y20531601D01*
X44983400Y21234400D02*
X45367999Y20849801D01*
X58746600Y18926600D02*
X59283600Y18389600D01*
X46973000Y18926600D02*
X58746600Y18926600D01*
X45367999Y20531601D02*
X46973000Y18926600D01*
%TO.N,/D-*%
X46151800Y21183600D02*
X45818001Y20849801D01*
X45818001Y20849801D02*
X45818001Y20717999D01*
X58848200Y19376600D02*
X59131200Y19659600D01*
X47159400Y19376600D02*
X58848200Y19376600D01*
X59131200Y19659600D02*
X59125498Y19659600D01*
X45818001Y20717999D02*
X47159400Y19376600D01*
%TD*%
%TA.AperFunction,Conductor*%
%TO.N,GND*%
G36*
X3764691Y22264398D02*
G01*
X3811184Y22210742D01*
X3821288Y22140468D01*
X3801335Y22088398D01*
X3768027Y22038550D01*
X3768025Y22038546D01*
X3761133Y22028231D01*
X3749500Y21969748D01*
X3749500Y20230252D01*
X3750707Y20224184D01*
X3754331Y20205967D01*
X3761133Y20171769D01*
X3805448Y20105448D01*
X3871769Y20061133D01*
X3883938Y20058712D01*
X3883939Y20058712D01*
X3924184Y20050707D01*
X3930252Y20049500D01*
X5669748Y20049500D01*
X5675816Y20050707D01*
X5716061Y20058712D01*
X5716062Y20058712D01*
X5728231Y20061133D01*
X5794552Y20105448D01*
X5838867Y20171769D01*
X5845670Y20205967D01*
X5849293Y20224184D01*
X5850500Y20230252D01*
X5850500Y21969748D01*
X5838867Y22028231D01*
X5831975Y22038546D01*
X5831973Y22038550D01*
X5798665Y22088398D01*
X5777450Y22156150D01*
X5796233Y22224617D01*
X5849050Y22272061D01*
X5903430Y22284400D01*
X6825022Y22284400D01*
X6893143Y22264398D01*
X6939636Y22210742D01*
X6949740Y22140468D01*
X6920246Y22075888D01*
X6883398Y22046739D01*
X6762002Y21983274D01*
X6757201Y21979414D01*
X6757198Y21979412D01*
X6606254Y21858050D01*
X6601447Y21854185D01*
X6469024Y21696370D01*
X6466056Y21690972D01*
X6466053Y21690967D01*
X6396451Y21564360D01*
X6369776Y21515838D01*
X6307484Y21319468D01*
X6306798Y21313351D01*
X6306797Y21313347D01*
X6285207Y21120863D01*
X6284520Y21114738D01*
X6301759Y20909447D01*
X6303458Y20903522D01*
X6345955Y20755318D01*
X6358544Y20711414D01*
X6361359Y20705937D01*
X6361360Y20705934D01*
X6425122Y20581866D01*
X6452712Y20528182D01*
X6580677Y20366730D01*
X6585370Y20362736D01*
X6585371Y20362735D01*
X6608499Y20343052D01*
X6737564Y20233209D01*
X6917398Y20132703D01*
X7001280Y20105448D01*
X7107471Y20070944D01*
X7107475Y20070943D01*
X7113329Y20069041D01*
X7317894Y20044649D01*
X7324029Y20045121D01*
X7324031Y20045121D01*
X7396625Y20050707D01*
X7523300Y20060454D01*
X7529230Y20062110D01*
X7529232Y20062110D01*
X7715797Y20114200D01*
X7715796Y20114200D01*
X7721725Y20115855D01*
X7727214Y20118628D01*
X7727220Y20118630D01*
X7900116Y20205967D01*
X7905610Y20208742D01*
X7952943Y20245722D01*
X8063101Y20331787D01*
X8067951Y20335576D01*
X8117248Y20392687D01*
X8198540Y20486866D01*
X8198540Y20486867D01*
X8202564Y20491528D01*
X8216032Y20515235D01*
X8281111Y20629796D01*
X8304323Y20670656D01*
X8369351Y20866137D01*
X8395171Y21070526D01*
X8395583Y21100000D01*
X8382405Y21234400D01*
X44377718Y21234400D01*
X44398356Y21077638D01*
X44458864Y20931559D01*
X44555118Y20806118D01*
X44680559Y20709864D01*
X44826638Y20649356D01*
X44875388Y20642938D01*
X44957945Y20632069D01*
X45022873Y20603347D01*
X45061964Y20544081D01*
X45066296Y20515173D01*
X45066966Y20515235D01*
X45067499Y20509461D01*
X45067499Y20503653D01*
X45068381Y20498918D01*
X45068609Y20495392D01*
X45069773Y20464393D01*
X45074363Y20453708D01*
X45075400Y20449108D01*
X45078961Y20437387D01*
X45080660Y20432984D01*
X45082790Y20421548D01*
X45088894Y20411646D01*
X45095726Y20400562D01*
X45104230Y20384190D01*
X45110450Y20369713D01*
X45110452Y20369709D01*
X45113963Y20361538D01*
X45117977Y20356652D01*
X45120162Y20354467D01*
X45122214Y20352204D01*
X45122054Y20352059D01*
X45129174Y20343052D01*
X45135426Y20336157D01*
X45141531Y20326253D01*
X45163319Y20309685D01*
X45176138Y20298491D01*
X46723481Y18751148D01*
X46725237Y18749114D01*
X46727575Y18744331D01*
X46736104Y18736419D01*
X46736105Y18736418D01*
X46763477Y18711027D01*
X46766882Y18707747D01*
X46780277Y18694352D01*
X46784247Y18691628D01*
X46786895Y18689303D01*
X46801119Y18676108D01*
X46801122Y18676106D01*
X46809646Y18668199D01*
X46820450Y18663889D01*
X46824439Y18661367D01*
X46835227Y18655606D01*
X46839552Y18653689D01*
X46849146Y18647108D01*
X46860465Y18644422D01*
X46860467Y18644421D01*
X46873127Y18641417D01*
X46890724Y18635852D01*
X46905362Y18630012D01*
X46905365Y18630011D01*
X46913622Y18626717D01*
X46919915Y18626100D01*
X46922994Y18626100D01*
X46926067Y18625950D01*
X46926056Y18625734D01*
X46937431Y18624402D01*
X46946746Y18623946D01*
X46958066Y18621260D01*
X46969595Y18622829D01*
X46969596Y18622829D01*
X46985173Y18624949D01*
X47002164Y18626100D01*
X58565378Y18626100D01*
X58633499Y18606098D01*
X58679992Y18552442D01*
X58690300Y18483654D01*
X58677918Y18389600D01*
X58698556Y18232838D01*
X58759064Y18086759D01*
X58855318Y17961318D01*
X58980759Y17865064D01*
X59126838Y17804556D01*
X59283600Y17783918D01*
X59291788Y17784996D01*
X59432174Y17803478D01*
X59440362Y17804556D01*
X59586441Y17865064D01*
X59711882Y17961318D01*
X59808136Y18086759D01*
X59868644Y18232838D01*
X59889282Y18389600D01*
X59868644Y18546362D01*
X59808136Y18692441D01*
X59711882Y18817882D01*
X59586441Y18914136D01*
X59498409Y18950600D01*
X59443128Y18995148D01*
X59420707Y19062512D01*
X59438265Y19131303D01*
X59469923Y19166971D01*
X59547230Y19226291D01*
X59547234Y19226295D01*
X59553780Y19231318D01*
X59650034Y19356759D01*
X59710542Y19502838D01*
X59731180Y19659600D01*
X59710542Y19816362D01*
X59650034Y19962441D01*
X59574305Y20061133D01*
X59558803Y20081336D01*
X59553780Y20087882D01*
X59530888Y20105448D01*
X59434890Y20179109D01*
X59428339Y20184136D01*
X59282260Y20244644D01*
X59125498Y20265282D01*
X58968736Y20244644D01*
X58822657Y20184136D01*
X58816106Y20179109D01*
X58720109Y20105448D01*
X58697216Y20087882D01*
X58692193Y20081336D01*
X58676691Y20061133D01*
X58600962Y19962441D01*
X58540454Y19816362D01*
X58539376Y19808174D01*
X58536543Y19786654D01*
X58507821Y19721727D01*
X58448556Y19682635D01*
X58411621Y19677100D01*
X47336063Y19677100D01*
X47267942Y19697102D01*
X47246968Y19714004D01*
X46862415Y20098557D01*
X46469815Y20491156D01*
X46435790Y20553469D01*
X46440854Y20624284D01*
X46482206Y20680214D01*
X46573532Y20750291D01*
X46573536Y20750295D01*
X46580082Y20755318D01*
X46676336Y20880759D01*
X46736844Y21026838D01*
X46757482Y21183600D01*
X46750794Y21234400D01*
X51311918Y21234400D01*
X51332556Y21077638D01*
X51393064Y20931559D01*
X51489318Y20806118D01*
X51614759Y20709864D01*
X51760838Y20649356D01*
X51917600Y20628718D01*
X51925788Y20629796D01*
X51943054Y20632069D01*
X52074362Y20649356D01*
X52220441Y20709864D01*
X52345882Y20806118D01*
X52442136Y20931559D01*
X52502644Y21077638D01*
X52523282Y21234400D01*
X52502644Y21391162D01*
X52442136Y21537241D01*
X52345882Y21662682D01*
X52220441Y21758936D01*
X52074362Y21819444D01*
X51917600Y21840082D01*
X51760838Y21819444D01*
X51614759Y21758936D01*
X51489318Y21662682D01*
X51393064Y21537241D01*
X51332556Y21391162D01*
X51311918Y21234400D01*
X46750794Y21234400D01*
X46736844Y21340362D01*
X46676336Y21486441D01*
X46580082Y21611882D01*
X46454641Y21708136D01*
X46308562Y21768644D01*
X46151800Y21789282D01*
X45995038Y21768644D01*
X45848959Y21708136D01*
X45723518Y21611882D01*
X45718495Y21605336D01*
X45718491Y21605332D01*
X45687052Y21564360D01*
X45629714Y21522493D01*
X45558843Y21518271D01*
X45496941Y21553035D01*
X45487127Y21564360D01*
X45416705Y21656136D01*
X45411682Y21662682D01*
X45286241Y21758936D01*
X45140162Y21819444D01*
X44983400Y21840082D01*
X44826638Y21819444D01*
X44680559Y21758936D01*
X44555118Y21662682D01*
X44458864Y21537241D01*
X44398356Y21391162D01*
X44377718Y21234400D01*
X8382405Y21234400D01*
X8375480Y21305030D01*
X8315935Y21502251D01*
X8219218Y21684151D01*
X8111453Y21816284D01*
X8092906Y21839025D01*
X8092903Y21839028D01*
X8089011Y21843800D01*
X8071786Y21858050D01*
X7935025Y21971189D01*
X7935021Y21971191D01*
X7930275Y21975118D01*
X7854552Y22016061D01*
X7796289Y22047564D01*
X7745880Y22097559D01*
X7730503Y22166870D01*
X7755039Y22233492D01*
X7811699Y22276273D01*
X7856218Y22284400D01*
X74293200Y22284400D01*
X74361321Y22264398D01*
X74407814Y22210742D01*
X74419200Y22158400D01*
X74419200Y-2654000D01*
X74399198Y-2722121D01*
X74345542Y-2768614D01*
X74293200Y-2780000D01*
X28280674Y-2780000D01*
X28212553Y-2759998D01*
X28166060Y-2706342D01*
X28155956Y-2636068D01*
X28185450Y-2571488D01*
X28219492Y-2543851D01*
X28369835Y-2460343D01*
X28369836Y-2460342D01*
X28373828Y-2458125D01*
X28593078Y-2290798D01*
X28596273Y-2287530D01*
X28782683Y-2096842D01*
X28782687Y-2096837D01*
X28785877Y-2093574D01*
X28948187Y-1870584D01*
X29076606Y-1626499D01*
X29168445Y-1366432D01*
X29204916Y-1181392D01*
X29220899Y-1100304D01*
X29220900Y-1100298D01*
X29221780Y-1095832D01*
X29222007Y-1091276D01*
X29235267Y-824936D01*
X29235267Y-824930D01*
X29235494Y-820367D01*
X29209298Y-545808D01*
X29143743Y-277906D01*
X29040201Y-22274D01*
X29037900Y-18344D01*
X29037897Y-18338D01*
X28903145Y211803D01*
X28903140Y211810D01*
X28900842Y215735D01*
X28874946Y248116D01*
X28731436Y427566D01*
X28731435Y427567D01*
X28728584Y431132D01*
X28677584Y478774D01*
X28530372Y616292D01*
X28530369Y616294D01*
X28527036Y619408D01*
X28300421Y776616D01*
X28261639Y795910D01*
X28057573Y897432D01*
X28057570Y897433D01*
X28053486Y899465D01*
X27791402Y985380D01*
X27783443Y986762D01*
X27523443Y1031906D01*
X27523435Y1031907D01*
X27519662Y1032562D01*
X27509429Y1033071D01*
X27434095Y1036822D01*
X27434087Y1036822D01*
X27432524Y1036900D01*
X27260330Y1036900D01*
X27258062Y1036735D01*
X27258050Y1036735D01*
X27123797Y1026994D01*
X27055317Y1022025D01*
X27050862Y1021041D01*
X27050859Y1021041D01*
X26790453Y963548D01*
X26790450Y963547D01*
X26785997Y962564D01*
X26528081Y864849D01*
X26524094Y862635D01*
X26524093Y862634D01*
X26444639Y818501D01*
X26286972Y730925D01*
X26067722Y563598D01*
X26064529Y560332D01*
X26064527Y560330D01*
X25878117Y369642D01*
X25878113Y369637D01*
X25874923Y366374D01*
X25872236Y362682D01*
X25872234Y362680D01*
X25728936Y165809D01*
X25712613Y143384D01*
X25584194Y-100701D01*
X25492355Y-360768D01*
X25491475Y-365234D01*
X25454987Y-550360D01*
X25439020Y-631368D01*
X25438793Y-635922D01*
X25438793Y-635924D01*
X25429611Y-820367D01*
X25425306Y-906833D01*
X25451502Y-1181392D01*
X25517057Y-1449294D01*
X25620599Y-1704926D01*
X25622900Y-1708856D01*
X25622903Y-1708862D01*
X25757655Y-1939003D01*
X25757660Y-1939010D01*
X25759958Y-1942935D01*
X25762805Y-1946495D01*
X25880428Y-2093574D01*
X25932216Y-2158332D01*
X26133764Y-2346608D01*
X26360379Y-2503816D01*
X26364455Y-2505844D01*
X26364457Y-2505845D01*
X26435501Y-2541189D01*
X26487582Y-2589440D01*
X26505308Y-2658188D01*
X26483053Y-2725606D01*
X26427882Y-2770290D01*
X26379378Y-2780000D01*
X4326000Y-2780000D01*
X4257879Y-2759998D01*
X4211386Y-2706342D01*
X4200000Y-2654000D01*
X4200000Y475000D01*
X19794318Y475000D01*
X19814956Y318238D01*
X19875464Y172159D01*
X19971718Y46718D01*
X19978264Y41695D01*
X19996947Y27359D01*
X20097159Y-49536D01*
X20243238Y-110044D01*
X20400000Y-130682D01*
X20408188Y-129604D01*
X20548574Y-111122D01*
X20556762Y-110044D01*
X20702841Y-49536D01*
X20803053Y27359D01*
X20821736Y41695D01*
X20828282Y46718D01*
X20924536Y172159D01*
X20985044Y318238D01*
X21005682Y475000D01*
X20985044Y631762D01*
X20924536Y777841D01*
X20828282Y903282D01*
X20774796Y944323D01*
X20732929Y1001661D01*
X20725500Y1044286D01*
X20725500Y1696383D01*
X20745502Y1764504D01*
X20762405Y1785479D01*
X20900523Y1923596D01*
X20962835Y1957621D01*
X20989618Y1960500D01*
X30267583Y1960500D01*
X30335704Y1940498D01*
X30356679Y1923595D01*
X30600196Y1680077D01*
X30634221Y1617765D01*
X30637100Y1590982D01*
X30637100Y899486D01*
X30617098Y831365D01*
X30587804Y799523D01*
X30534318Y758482D01*
X30438064Y633041D01*
X30377556Y486962D01*
X30356918Y330200D01*
X30377556Y173438D01*
X30438064Y27359D01*
X30534318Y-98082D01*
X30659759Y-194336D01*
X30805838Y-254844D01*
X30962600Y-275482D01*
X30970788Y-274404D01*
X30976326Y-273675D01*
X31119362Y-254844D01*
X31265441Y-194336D01*
X31390882Y-98082D01*
X31487136Y27359D01*
X31547644Y173438D01*
X31568282Y330200D01*
X31547644Y486962D01*
X31487136Y633041D01*
X31420410Y720000D01*
X39524318Y720000D01*
X39544956Y563238D01*
X39605464Y417159D01*
X39701718Y291718D01*
X39827159Y195464D01*
X39973238Y134956D01*
X40130000Y114318D01*
X40138188Y115396D01*
X40278574Y133878D01*
X40286762Y134956D01*
X40432841Y195464D01*
X40558282Y291718D01*
X40654536Y417159D01*
X40711879Y555597D01*
X40711885Y555611D01*
X40711885Y555612D01*
X40715044Y563238D01*
X40715128Y563877D01*
X40750245Y621488D01*
X40814106Y652509D01*
X40884601Y644079D01*
X40939347Y598875D01*
X40954685Y565286D01*
X40954956Y563227D01*
X40958115Y555600D01*
X40958116Y555597D01*
X40972609Y520608D01*
X41015464Y417148D01*
X41111718Y291707D01*
X41237159Y195453D01*
X41364947Y142521D01*
X41375583Y138116D01*
X41383238Y134945D01*
X41540000Y114307D01*
X41548188Y115385D01*
X41688574Y133867D01*
X41696762Y134945D01*
X41704418Y138116D01*
X41715053Y142521D01*
X41842841Y195453D01*
X41968282Y291707D01*
X42064536Y417148D01*
X42111281Y530000D01*
X42464318Y530000D01*
X42484956Y373238D01*
X42545464Y227159D01*
X42587667Y172159D01*
X42631223Y115396D01*
X42641718Y101718D01*
X42767159Y5464D01*
X42844332Y-26502D01*
X42899941Y-49536D01*
X42913238Y-55044D01*
X43070000Y-75682D01*
X43078188Y-74604D01*
X43218574Y-56122D01*
X43226762Y-55044D01*
X43240060Y-49536D01*
X43295668Y-26502D01*
X43372841Y5464D01*
X43498282Y101718D01*
X43508778Y115396D01*
X43552333Y172159D01*
X43594536Y227159D01*
X43655044Y373238D01*
X43675682Y530000D01*
X43655044Y686762D01*
X43595713Y830000D01*
X57354318Y830000D01*
X57374956Y673238D01*
X57435464Y527159D01*
X57531718Y401718D01*
X57657159Y305464D01*
X57803238Y244956D01*
X57960000Y224318D01*
X57968188Y225396D01*
X57981580Y227159D01*
X58116762Y244956D01*
X58262841Y305464D01*
X58388282Y401718D01*
X58484536Y527159D01*
X58545044Y673238D01*
X58565682Y830000D01*
X58545044Y986762D01*
X58484536Y1132841D01*
X58388282Y1258282D01*
X58262841Y1354536D01*
X58116762Y1415044D01*
X57960000Y1435682D01*
X57803238Y1415044D01*
X57657159Y1354536D01*
X57531718Y1258282D01*
X57435464Y1132841D01*
X57374956Y986762D01*
X57354318Y830000D01*
X43595713Y830000D01*
X43594536Y832841D01*
X43498282Y958282D01*
X43372841Y1054536D01*
X43226762Y1115044D01*
X43070000Y1135682D01*
X42913238Y1115044D01*
X42767159Y1054536D01*
X42641718Y958282D01*
X42545464Y832841D01*
X42484956Y686762D01*
X42464318Y530000D01*
X42111281Y530000D01*
X42125044Y563227D01*
X42145682Y719989D01*
X42125044Y876751D01*
X42064536Y1022830D01*
X41968282Y1148271D01*
X41842841Y1244525D01*
X41696762Y1305033D01*
X41540000Y1325671D01*
X41383238Y1305033D01*
X41237159Y1244525D01*
X41111718Y1148271D01*
X41015464Y1022830D01*
X40997133Y978574D01*
X40958121Y884391D01*
X40954956Y876751D01*
X40954872Y876112D01*
X40919755Y818501D01*
X40855894Y787480D01*
X40785399Y795910D01*
X40730653Y841114D01*
X40715315Y874703D01*
X40715044Y876762D01*
X40706771Y896736D01*
X40657696Y1015211D01*
X40654536Y1022841D01*
X40570130Y1132841D01*
X40563305Y1141736D01*
X40558282Y1148282D01*
X40432841Y1244536D01*
X40305053Y1297468D01*
X40294391Y1301884D01*
X40286762Y1305044D01*
X40130000Y1325682D01*
X39973238Y1305044D01*
X39965609Y1301884D01*
X39954947Y1297468D01*
X39827159Y1244536D01*
X39701718Y1148282D01*
X39696695Y1141736D01*
X39689870Y1132841D01*
X39605464Y1022841D01*
X39544956Y876762D01*
X39543878Y868574D01*
X39543388Y864849D01*
X39524318Y720000D01*
X31420410Y720000D01*
X31390882Y758482D01*
X31337396Y799523D01*
X31295529Y856861D01*
X31288100Y899486D01*
X31288100Y1758302D01*
X31288580Y1769284D01*
X31290902Y1795820D01*
X31290902Y1795822D01*
X31291863Y1806807D01*
X31282112Y1843197D01*
X31279732Y1853931D01*
X31275102Y1880188D01*
X31273188Y1891045D01*
X31267676Y1900593D01*
X31266483Y1903870D01*
X31265006Y1907038D01*
X31262153Y1917684D01*
X31240542Y1948548D01*
X31234638Y1957816D01*
X31233377Y1960000D01*
X33904318Y1960000D01*
X33924956Y1803238D01*
X33985464Y1657159D01*
X34081718Y1531718D01*
X34207159Y1435464D01*
X34353238Y1374956D01*
X34510000Y1354318D01*
X34518188Y1355396D01*
X34535659Y1357696D01*
X34666762Y1374956D01*
X34812841Y1435464D01*
X34938282Y1531718D01*
X35034536Y1657159D01*
X35095044Y1803238D01*
X35115682Y1960000D01*
X35095044Y2116762D01*
X35034536Y2262841D01*
X34938282Y2388282D01*
X34812841Y2484536D01*
X34666762Y2545044D01*
X34510000Y2565682D01*
X34353238Y2545044D01*
X34207159Y2484536D01*
X34081718Y2388282D01*
X33985464Y2262841D01*
X33924956Y2116762D01*
X33904318Y1960000D01*
X31233377Y1960000D01*
X31221304Y1980911D01*
X31215794Y1990455D01*
X31186930Y2014675D01*
X31178827Y2022100D01*
X30698704Y2502222D01*
X30691277Y2510327D01*
X30667055Y2539194D01*
X30655055Y2546122D01*
X30634415Y2558039D01*
X30625144Y2563945D01*
X30603315Y2579230D01*
X30594284Y2585554D01*
X30583634Y2588408D01*
X30580466Y2589885D01*
X30577190Y2591077D01*
X30567645Y2596588D01*
X30533901Y2602538D01*
X30530542Y2603130D01*
X30519815Y2605508D01*
X30483407Y2615264D01*
X30472422Y2614303D01*
X30472420Y2614303D01*
X30445872Y2611980D01*
X30434890Y2611500D01*
X20822310Y2611500D01*
X20811328Y2611980D01*
X20784777Y2614303D01*
X20784771Y2614302D01*
X20773793Y2615263D01*
X20763146Y2612410D01*
X20737404Y2605512D01*
X20726669Y2603132D01*
X20726658Y2603130D01*
X20689555Y2596588D01*
X20680007Y2591076D01*
X20676730Y2589883D01*
X20673562Y2588406D01*
X20662916Y2585553D01*
X20653887Y2579231D01*
X20632053Y2563943D01*
X20622785Y2558039D01*
X20590145Y2539194D01*
X20583062Y2530753D01*
X20583061Y2530752D01*
X20565925Y2510330D01*
X20558500Y2502227D01*
X20183778Y2127504D01*
X20175674Y2120078D01*
X20146806Y2095855D01*
X20141293Y2086306D01*
X20127961Y2063215D01*
X20122055Y2053944D01*
X20100446Y2023084D01*
X20097592Y2012434D01*
X20096115Y2009266D01*
X20094923Y2005990D01*
X20089412Y1996445D01*
X20084430Y1968188D01*
X20082870Y1959342D01*
X20080492Y1948615D01*
X20070736Y1912207D01*
X20071697Y1901222D01*
X20071697Y1901220D01*
X20074020Y1874672D01*
X20074500Y1863690D01*
X20074500Y1044286D01*
X20054498Y976165D01*
X20025204Y944323D01*
X19971718Y903282D01*
X19875464Y777841D01*
X19814956Y631762D01*
X19794318Y475000D01*
X4200000Y475000D01*
X4200000Y3048000D01*
X48162318Y3048000D01*
X48182956Y2891238D01*
X48243464Y2745159D01*
X48339718Y2619718D01*
X48465159Y2523464D01*
X48611238Y2462956D01*
X48768000Y2442318D01*
X48776188Y2443396D01*
X48916574Y2461878D01*
X48924762Y2462956D01*
X49070841Y2523464D01*
X49196282Y2619718D01*
X49292536Y2745159D01*
X49353044Y2891238D01*
X49373682Y3048000D01*
X49353044Y3204762D01*
X49292536Y3350841D01*
X49196282Y3476282D01*
X49070841Y3572536D01*
X48924762Y3633044D01*
X48768000Y3653682D01*
X48611238Y3633044D01*
X48465159Y3572536D01*
X48339718Y3476282D01*
X48243464Y3350841D01*
X48182956Y3204762D01*
X48162318Y3048000D01*
X4200000Y3048000D01*
X4200000Y3850000D01*
X50169318Y3850000D01*
X50189956Y3693238D01*
X50250464Y3547159D01*
X50346718Y3421718D01*
X50472159Y3325464D01*
X50618238Y3264956D01*
X50775000Y3244318D01*
X50783188Y3245396D01*
X50923574Y3263878D01*
X50931762Y3264956D01*
X50939389Y3268115D01*
X50939392Y3268116D01*
X51071669Y3322907D01*
X51142259Y3330496D01*
X51205746Y3298717D01*
X51241973Y3237658D01*
X51239439Y3166707D01*
X51236295Y3158279D01*
X51218117Y3114395D01*
X51218116Y3114391D01*
X51214956Y3106762D01*
X51194318Y2950000D01*
X51214956Y2793238D01*
X51275464Y2647159D01*
X51371718Y2521718D01*
X51497159Y2425464D01*
X51643238Y2364956D01*
X51800000Y2344318D01*
X51808188Y2345396D01*
X51948574Y2363878D01*
X51956762Y2364956D01*
X52102841Y2425464D01*
X52228282Y2521718D01*
X52324536Y2647159D01*
X52385044Y2793238D01*
X52405682Y2950000D01*
X52385044Y3106762D01*
X52380291Y3118238D01*
X52360214Y3166707D01*
X52324536Y3252841D01*
X52307533Y3275000D01*
X67894318Y3275000D01*
X67914956Y3118238D01*
X67918116Y3110609D01*
X67922532Y3099947D01*
X67975464Y2972159D01*
X68071718Y2846718D01*
X68197159Y2750464D01*
X68343238Y2689956D01*
X68500000Y2669318D01*
X68508188Y2670396D01*
X68648574Y2688878D01*
X68656762Y2689956D01*
X68802841Y2750464D01*
X68928282Y2846718D01*
X69024536Y2972159D01*
X69077468Y3099947D01*
X69081884Y3110609D01*
X69085044Y3118238D01*
X69105682Y3275000D01*
X69085044Y3431762D01*
X69024536Y3577841D01*
X68928282Y3703282D01*
X68802841Y3799536D01*
X68656762Y3860044D01*
X68500000Y3880682D01*
X68343238Y3860044D01*
X68197159Y3799536D01*
X68071718Y3703282D01*
X67975464Y3577841D01*
X67914956Y3431762D01*
X67894318Y3275000D01*
X52307533Y3275000D01*
X52228282Y3378282D01*
X52102841Y3474536D01*
X51956762Y3535044D01*
X51800000Y3555682D01*
X51643238Y3535044D01*
X51635611Y3531885D01*
X51635608Y3531884D01*
X51503331Y3477093D01*
X51432741Y3469504D01*
X51369254Y3501283D01*
X51333027Y3562342D01*
X51335561Y3633293D01*
X51338705Y3641721D01*
X51356883Y3685605D01*
X51356884Y3685610D01*
X51360044Y3693238D01*
X51380682Y3850000D01*
X51360044Y4006762D01*
X51299536Y4152841D01*
X51203282Y4278282D01*
X51077841Y4374536D01*
X50931762Y4435044D01*
X50775000Y4455682D01*
X50618238Y4435044D01*
X50472159Y4374536D01*
X50346718Y4278282D01*
X50250464Y4152841D01*
X50189956Y4006762D01*
X50169318Y3850000D01*
X4200000Y3850000D01*
X4200000Y5308600D01*
X14812118Y5308600D01*
X14832756Y5151838D01*
X14893264Y5005759D01*
X14989518Y4880318D01*
X15114959Y4784064D01*
X15261038Y4723556D01*
X15417800Y4702918D01*
X15425988Y4703996D01*
X15566374Y4722478D01*
X15574562Y4723556D01*
X15720641Y4784064D01*
X15846082Y4880318D01*
X15942336Y5005759D01*
X16002844Y5151838D01*
X16023482Y5308600D01*
X16013163Y5386981D01*
X16003922Y5457174D01*
X16002844Y5465362D01*
X15942336Y5611441D01*
X15874382Y5700000D01*
X38594318Y5700000D01*
X38595396Y5691812D01*
X38605115Y5617992D01*
X38614956Y5543238D01*
X38675464Y5397159D01*
X38771718Y5271718D01*
X38897159Y5175464D01*
X39043238Y5114956D01*
X39200000Y5094318D01*
X39208188Y5095396D01*
X39348574Y5113878D01*
X39356762Y5114956D01*
X39502841Y5175464D01*
X39628282Y5271718D01*
X39724536Y5397159D01*
X39785044Y5543238D01*
X39794886Y5617992D01*
X39804604Y5691812D01*
X39805682Y5700000D01*
X39785044Y5856762D01*
X39724536Y6002841D01*
X39628282Y6128282D01*
X39502841Y6224536D01*
X39356762Y6285044D01*
X39200000Y6305682D01*
X39043238Y6285044D01*
X38897159Y6224536D01*
X38771718Y6128282D01*
X38675464Y6002841D01*
X38614956Y5856762D01*
X38594318Y5700000D01*
X15874382Y5700000D01*
X15846082Y5736882D01*
X15720641Y5833136D01*
X15574562Y5893644D01*
X15417800Y5914282D01*
X15261038Y5893644D01*
X15114959Y5833136D01*
X14989518Y5736882D01*
X14893264Y5611441D01*
X14832756Y5465362D01*
X14831678Y5457174D01*
X14822437Y5386981D01*
X14812118Y5308600D01*
X4200000Y5308600D01*
X4200000Y6994123D01*
X4200033Y7031258D01*
X4200033Y7031260D01*
X4200045Y7045449D01*
X4193902Y7058242D01*
X4192773Y7063210D01*
X4190215Y7070535D01*
X4188006Y7075125D01*
X4184850Y7088962D01*
X4176006Y7100061D01*
X4173636Y7104985D01*
X4170084Y7110647D01*
X4166688Y7114916D01*
X4160547Y7127705D01*
X4149464Y7136568D01*
X4146293Y7140554D01*
X4140809Y7146048D01*
X4136827Y7149227D01*
X4127985Y7160323D01*
X4115207Y7166486D01*
X4110936Y7169896D01*
X4105286Y7173454D01*
X4100366Y7175832D01*
X4089285Y7184694D01*
X4075457Y7187874D01*
X4070876Y7190088D01*
X4063551Y7192661D01*
X4058580Y7193799D01*
X4045798Y7199965D01*
X4022787Y7199985D01*
X4022789Y7201997D01*
X4022723Y7202012D01*
X4022723Y7200000D01*
X4005877Y7200000D01*
X3954551Y7200045D01*
X3954555Y7204850D01*
X3954457Y7204856D01*
X3954457Y7200000D01*
X3326000Y7200000D01*
X3257879Y7220002D01*
X3241417Y7239000D01*
X14786718Y7239000D01*
X14807356Y7082238D01*
X14867864Y6936159D01*
X14964118Y6810718D01*
X15089559Y6714464D01*
X15235638Y6653956D01*
X15392400Y6633318D01*
X15400588Y6634396D01*
X15540974Y6652878D01*
X15549162Y6653956D01*
X15695241Y6714464D01*
X15820682Y6810718D01*
X15916936Y6936159D01*
X15977444Y7082238D01*
X15998082Y7239000D01*
X15977444Y7395762D01*
X15916936Y7541841D01*
X15910675Y7550000D01*
X63444318Y7550000D01*
X63464956Y7393238D01*
X63525464Y7247159D01*
X63621718Y7121718D01*
X63747159Y7025464D01*
X63893238Y6964956D01*
X64050000Y6944318D01*
X64058188Y6945396D01*
X64198574Y6963878D01*
X64206762Y6964956D01*
X64352841Y7025464D01*
X64478282Y7121718D01*
X64574536Y7247159D01*
X64635044Y7393238D01*
X64655682Y7550000D01*
X64635044Y7706762D01*
X64574536Y7852841D01*
X64478282Y7978282D01*
X64352841Y8074536D01*
X64206762Y8135044D01*
X64050000Y8155682D01*
X63893238Y8135044D01*
X63747159Y8074536D01*
X63621718Y7978282D01*
X63525464Y7852841D01*
X63464956Y7706762D01*
X63444318Y7550000D01*
X15910675Y7550000D01*
X15820682Y7667282D01*
X15695241Y7763536D01*
X15549162Y7824044D01*
X15392400Y7844682D01*
X15235638Y7824044D01*
X15089559Y7763536D01*
X14964118Y7667282D01*
X14867864Y7541841D01*
X14807356Y7395762D01*
X14786718Y7239000D01*
X3241417Y7239000D01*
X3211386Y7273658D01*
X3200000Y7326000D01*
X3200000Y9900000D01*
X31974318Y9900000D01*
X31994956Y9743238D01*
X32055464Y9597159D01*
X32151718Y9471718D01*
X32277159Y9375464D01*
X32423238Y9314956D01*
X32580000Y9294318D01*
X32588188Y9295396D01*
X32728574Y9313878D01*
X32736762Y9314956D01*
X32882841Y9375464D01*
X33008282Y9471718D01*
X33104536Y9597159D01*
X33165044Y9743238D01*
X33185682Y9900000D01*
X33165044Y10056762D01*
X33104536Y10202841D01*
X33008282Y10328282D01*
X32882841Y10424536D01*
X32736762Y10485044D01*
X32580000Y10505682D01*
X32423238Y10485044D01*
X32277159Y10424536D01*
X32151718Y10328282D01*
X32055464Y10202841D01*
X31994956Y10056762D01*
X31974318Y9900000D01*
X3200000Y9900000D01*
X3200000Y10600000D01*
X42069318Y10600000D01*
X42089956Y10443238D01*
X42150464Y10297159D01*
X42246718Y10171718D01*
X42372159Y10075464D01*
X42518238Y10014956D01*
X42675000Y9994318D01*
X42683188Y9995396D01*
X42823574Y10013878D01*
X42831762Y10014956D01*
X42977841Y10075464D01*
X43103282Y10171718D01*
X43199536Y10297159D01*
X43260044Y10443238D01*
X43266335Y10491020D01*
X46628298Y10491020D01*
X46648936Y10334258D01*
X46709444Y10188179D01*
X46805698Y10062738D01*
X46931139Y9966484D01*
X47077218Y9905976D01*
X47233980Y9885338D01*
X47242168Y9886416D01*
X47382554Y9904898D01*
X47390742Y9905976D01*
X47536821Y9966484D01*
X47662262Y10062738D01*
X47758516Y10188179D01*
X47819024Y10334258D01*
X47839662Y10491020D01*
X47819024Y10647782D01*
X47758516Y10793861D01*
X47662262Y10919302D01*
X47536821Y11015556D01*
X47390742Y11076064D01*
X47233980Y11096702D01*
X47077218Y11076064D01*
X46931139Y11015556D01*
X46805698Y10919302D01*
X46709444Y10793861D01*
X46648936Y10647782D01*
X46628298Y10491020D01*
X43266335Y10491020D01*
X43280682Y10600000D01*
X43260044Y10756762D01*
X43199536Y10902841D01*
X43103282Y11028282D01*
X42977841Y11124536D01*
X42831762Y11185044D01*
X42675000Y11205682D01*
X42518238Y11185044D01*
X42372159Y11124536D01*
X42246718Y11028282D01*
X42150464Y10902841D01*
X42089956Y10756762D01*
X42069318Y10600000D01*
X3200000Y10600000D01*
X3200000Y11911247D01*
X27394514Y11911247D01*
X27395201Y11904240D01*
X27395201Y11904237D01*
X27399844Y11856884D01*
X27412039Y11732514D01*
X27414262Y11725832D01*
X27414262Y11725831D01*
X27444765Y11634136D01*
X27468726Y11562104D01*
X27472373Y11556082D01*
X27552623Y11423574D01*
X27561759Y11408488D01*
X27686514Y11279301D01*
X27836789Y11180964D01*
X28005116Y11118364D01*
X28012097Y11117433D01*
X28012099Y11117432D01*
X28176149Y11095543D01*
X28176153Y11095543D01*
X28183130Y11094612D01*
X28190142Y11095250D01*
X28190146Y11095250D01*
X28354960Y11110249D01*
X28354961Y11110249D01*
X28361981Y11110888D01*
X28532782Y11166385D01*
X28564083Y11185044D01*
X28680992Y11254735D01*
X28680994Y11254736D01*
X28687044Y11258343D01*
X28817099Y11382193D01*
X28834570Y11408488D01*
X28912582Y11525907D01*
X28916483Y11531778D01*
X28949197Y11617898D01*
X28977757Y11693081D01*
X28977758Y11693086D01*
X28980257Y11699664D01*
X28981237Y11706636D01*
X29004700Y11873584D01*
X29004700Y11873589D01*
X29005251Y11877507D01*
X29005565Y11900000D01*
X28985546Y12078472D01*
X28979427Y12096045D01*
X28935527Y12222107D01*
X28926485Y12248073D01*
X28917187Y12262954D01*
X28835049Y12394401D01*
X28831316Y12400375D01*
X28767771Y12464365D01*
X28709733Y12522810D01*
X28709729Y12522813D01*
X28704770Y12527807D01*
X28693761Y12534794D01*
X28646297Y12564915D01*
X28553136Y12624037D01*
X28523352Y12634643D01*
X28390586Y12681919D01*
X28390581Y12681920D01*
X28383951Y12684281D01*
X28376965Y12685114D01*
X28376961Y12685115D01*
X28249177Y12700352D01*
X28205624Y12705545D01*
X28198621Y12704809D01*
X28198620Y12704809D01*
X28034025Y12687510D01*
X28034021Y12687509D01*
X28027017Y12686773D01*
X28020346Y12684502D01*
X27863677Y12631168D01*
X27863674Y12631167D01*
X27857007Y12628897D01*
X27851009Y12625207D01*
X27851007Y12625206D01*
X27807906Y12598690D01*
X27704045Y12534794D01*
X27699014Y12529868D01*
X27699011Y12529865D01*
X27691807Y12522810D01*
X27575732Y12409141D01*
X27571913Y12403216D01*
X27571912Y12403214D01*
X27500048Y12291703D01*
X27478446Y12258183D01*
X27476037Y12251563D01*
X27476035Y12251560D01*
X27451268Y12183512D01*
X27417022Y12089422D01*
X27394514Y11911247D01*
X3200000Y11911247D01*
X3200000Y13233400D01*
X18520518Y13233400D01*
X18541156Y13076638D01*
X18601664Y12930559D01*
X18697918Y12805118D01*
X18704464Y12800095D01*
X18725131Y12784237D01*
X18823359Y12708864D01*
X18969438Y12648356D01*
X18977626Y12647278D01*
X19000110Y12644318D01*
X19126200Y12627718D01*
X19134388Y12628796D01*
X19274774Y12647278D01*
X19282962Y12648356D01*
X19429041Y12708864D01*
X19527269Y12784237D01*
X19547936Y12800095D01*
X19554482Y12805118D01*
X19650736Y12930559D01*
X19711244Y13076638D01*
X19731882Y13233400D01*
X19729697Y13250000D01*
X41794318Y13250000D01*
X41814956Y13093238D01*
X41875464Y12947159D01*
X41971718Y12821718D01*
X42097159Y12725464D01*
X42243238Y12664956D01*
X42251426Y12663878D01*
X42295588Y12658064D01*
X42400000Y12644318D01*
X42408188Y12645396D01*
X42422484Y12647278D01*
X42504412Y12658064D01*
X42548574Y12663878D01*
X42556762Y12664956D01*
X42702841Y12725464D01*
X42828282Y12821718D01*
X42924536Y12947159D01*
X42985044Y13093238D01*
X42996809Y13182600D01*
X54283718Y13182600D01*
X54284796Y13174412D01*
X54302412Y13040608D01*
X54304356Y13025838D01*
X54364864Y12879759D01*
X54461118Y12754318D01*
X54555471Y12681919D01*
X54584108Y12659945D01*
X54610598Y12632280D01*
X54611447Y12631067D01*
X54617355Y12621797D01*
X54636206Y12589145D01*
X54644651Y12582059D01*
X54665082Y12564915D01*
X54673185Y12557489D01*
X55483489Y11747185D01*
X55490916Y11739081D01*
X55515145Y11710206D01*
X55524694Y11704693D01*
X55547785Y11691361D01*
X55557056Y11685455D01*
X55587916Y11663846D01*
X55598566Y11660992D01*
X55601734Y11659515D01*
X55605010Y11658323D01*
X55614555Y11652812D01*
X55648299Y11646862D01*
X55651658Y11646270D01*
X55662385Y11643892D01*
X55698793Y11634136D01*
X55709769Y11635096D01*
X55709772Y11635096D01*
X55736343Y11637421D01*
X55747324Y11637900D01*
X57902784Y11637900D01*
X57970905Y11617898D01*
X57991879Y11600995D01*
X59149795Y10443078D01*
X59183821Y10380766D01*
X59186700Y10353983D01*
X59186700Y9332286D01*
X59166698Y9264165D01*
X59137404Y9232323D01*
X59083918Y9191282D01*
X58987664Y9065841D01*
X58927156Y8919762D01*
X58906518Y8763000D01*
X58927156Y8606238D01*
X58987664Y8460159D01*
X59083918Y8334718D01*
X59209359Y8238464D01*
X59355438Y8177956D01*
X59512200Y8157318D01*
X59520388Y8158396D01*
X59660774Y8176878D01*
X59668962Y8177956D01*
X59815041Y8238464D01*
X59940482Y8334718D01*
X60036736Y8460159D01*
X60097244Y8606238D01*
X60117882Y8763000D01*
X60097244Y8919762D01*
X60036736Y9065841D01*
X59940482Y9191282D01*
X59886996Y9232323D01*
X59845129Y9289661D01*
X59837700Y9332286D01*
X59837700Y10521290D01*
X59838180Y10532272D01*
X59840503Y10558825D01*
X59840503Y10558830D01*
X59841463Y10569807D01*
X59831708Y10606217D01*
X59829333Y10616928D01*
X59824701Y10643194D01*
X59822788Y10654045D01*
X59817278Y10663589D01*
X59816086Y10666865D01*
X59814607Y10670036D01*
X59811754Y10680684D01*
X59790140Y10711552D01*
X59784236Y10720821D01*
X59770907Y10743908D01*
X59770904Y10743912D01*
X59765394Y10753455D01*
X59736524Y10777680D01*
X59728421Y10785106D01*
X59238527Y11275000D01*
X63444318Y11275000D01*
X63464956Y11118238D01*
X63525464Y10972159D01*
X63621718Y10846718D01*
X63747159Y10750464D01*
X63893238Y10689956D01*
X64050000Y10669318D01*
X64058188Y10670396D01*
X64198574Y10688878D01*
X64206762Y10689956D01*
X64352841Y10750464D01*
X64478282Y10846718D01*
X64574536Y10972159D01*
X64635044Y11118238D01*
X64655682Y11275000D01*
X64635044Y11431762D01*
X64574536Y11577841D01*
X64487429Y11691361D01*
X64483305Y11696736D01*
X64478282Y11703282D01*
X64469259Y11710206D01*
X64359392Y11794509D01*
X64352841Y11799536D01*
X64206762Y11860044D01*
X64050000Y11880682D01*
X63893238Y11860044D01*
X63747159Y11799536D01*
X63740608Y11794509D01*
X63630742Y11710206D01*
X63621718Y11703282D01*
X63616695Y11696736D01*
X63612571Y11691361D01*
X63525464Y11577841D01*
X63464956Y11431762D01*
X63444318Y11275000D01*
X59238527Y11275000D01*
X58333910Y12179616D01*
X58326483Y12187720D01*
X58309341Y12208149D01*
X58309342Y12208149D01*
X58302255Y12216594D01*
X58292706Y12222107D01*
X58269615Y12235439D01*
X58260344Y12241345D01*
X58238515Y12256630D01*
X58229484Y12262954D01*
X58218834Y12265808D01*
X58215666Y12267285D01*
X58212390Y12268477D01*
X58202845Y12273988D01*
X58169101Y12279938D01*
X58165742Y12280530D01*
X58155015Y12282908D01*
X58118607Y12292664D01*
X58107622Y12291703D01*
X58107620Y12291703D01*
X58081072Y12289380D01*
X58070090Y12288900D01*
X55914616Y12288900D01*
X55846495Y12308902D01*
X55825521Y12325805D01*
X55429401Y12721925D01*
X55395375Y12784237D01*
X55400440Y12855052D01*
X55409132Y12873498D01*
X55413936Y12879759D01*
X55474444Y13025838D01*
X55476389Y13040608D01*
X55494004Y13174412D01*
X55495082Y13182600D01*
X55474444Y13339362D01*
X55413936Y13485441D01*
X55317682Y13610882D01*
X55192241Y13707136D01*
X55046162Y13767644D01*
X54889400Y13788282D01*
X54732638Y13767644D01*
X54586559Y13707136D01*
X54461118Y13610882D01*
X54364864Y13485441D01*
X54304356Y13339362D01*
X54283718Y13182600D01*
X42996809Y13182600D01*
X43005682Y13250000D01*
X42985044Y13406762D01*
X42924536Y13552841D01*
X42828282Y13678282D01*
X42702841Y13774536D01*
X42556762Y13835044D01*
X42534279Y13838004D01*
X42408188Y13854604D01*
X42400000Y13855682D01*
X42391812Y13854604D01*
X42265722Y13838004D01*
X42243238Y13835044D01*
X42097159Y13774536D01*
X41971718Y13678282D01*
X41875464Y13552841D01*
X41814956Y13406762D01*
X41794318Y13250000D01*
X19729697Y13250000D01*
X19711244Y13390162D01*
X19650736Y13536241D01*
X19554482Y13661682D01*
X19429041Y13757936D01*
X19282962Y13818444D01*
X19126200Y13839082D01*
X18969438Y13818444D01*
X18823359Y13757936D01*
X18697918Y13661682D01*
X18601664Y13536241D01*
X18541156Y13390162D01*
X18520518Y13233400D01*
X3200000Y13233400D01*
X3200000Y14625000D01*
X57744318Y14625000D01*
X57764956Y14468238D01*
X57768116Y14460609D01*
X57772532Y14449947D01*
X57825464Y14322159D01*
X57921718Y14196718D01*
X58047159Y14100464D01*
X58193238Y14039956D01*
X58350000Y14019318D01*
X58500426Y14039122D01*
X58570573Y14028183D01*
X58623672Y13981055D01*
X58642862Y13912701D01*
X58622051Y13844823D01*
X58593575Y13814238D01*
X58553268Y13783309D01*
X58553264Y13783305D01*
X58546718Y13778282D01*
X58450464Y13652841D01*
X58389956Y13506762D01*
X58388878Y13498574D01*
X58387988Y13491812D01*
X58369318Y13350000D01*
X58389956Y13193238D01*
X58450464Y13047159D01*
X58546718Y12921718D01*
X58672159Y12825464D01*
X58818238Y12764956D01*
X58975000Y12744318D01*
X58983188Y12745396D01*
X59123574Y12763878D01*
X59131762Y12764956D01*
X59277841Y12825464D01*
X59403282Y12921718D01*
X59499536Y13047159D01*
X59560044Y13193238D01*
X59580682Y13350000D01*
X59562012Y13491812D01*
X59561122Y13498574D01*
X59560934Y13500000D01*
X66644318Y13500000D01*
X66664956Y13343238D01*
X66725464Y13197159D01*
X66821718Y13071718D01*
X66947159Y12975464D01*
X67093238Y12914956D01*
X67250000Y12894318D01*
X67258188Y12895396D01*
X67398574Y12913878D01*
X67406762Y12914956D01*
X67552841Y12975464D01*
X67678282Y13071718D01*
X67774536Y13197159D01*
X67835044Y13343238D01*
X67837578Y13362486D01*
X67866300Y13427413D01*
X67925565Y13466505D01*
X67996557Y13467350D01*
X68056736Y13429680D01*
X68087422Y13362486D01*
X68089956Y13343238D01*
X68150464Y13197159D01*
X68246718Y13071718D01*
X68372159Y12975464D01*
X68518238Y12914956D01*
X68675000Y12894318D01*
X68683188Y12895396D01*
X68823574Y12913878D01*
X68831762Y12914956D01*
X68977841Y12975464D01*
X69103282Y13071718D01*
X69199536Y13197159D01*
X69260044Y13343238D01*
X69280682Y13500000D01*
X69260044Y13656762D01*
X69199536Y13802841D01*
X69103282Y13928282D01*
X68977841Y14024536D01*
X68831762Y14085044D01*
X68675000Y14105682D01*
X68518238Y14085044D01*
X68372159Y14024536D01*
X68246718Y13928282D01*
X68150464Y13802841D01*
X68089956Y13656762D01*
X68088878Y13648574D01*
X68087422Y13637514D01*
X68058700Y13572587D01*
X67999435Y13533495D01*
X67928443Y13532650D01*
X67868264Y13570320D01*
X67837578Y13637514D01*
X67836122Y13648574D01*
X67835044Y13656762D01*
X67774536Y13802841D01*
X67678282Y13928282D01*
X67552841Y14024536D01*
X67406762Y14085044D01*
X67250000Y14105682D01*
X67093238Y14085044D01*
X66947159Y14024536D01*
X66821718Y13928282D01*
X66725464Y13802841D01*
X66664956Y13656762D01*
X66644318Y13500000D01*
X59560934Y13500000D01*
X59560044Y13506762D01*
X59499536Y13652841D01*
X59403282Y13778282D01*
X59277841Y13874536D01*
X59131762Y13935044D01*
X58975000Y13955682D01*
X58824574Y13935878D01*
X58754427Y13946817D01*
X58701328Y13993945D01*
X58682138Y14062299D01*
X58702949Y14130177D01*
X58731425Y14160762D01*
X58771732Y14191691D01*
X58771736Y14191695D01*
X58778282Y14196718D01*
X58857533Y14300000D01*
X62919318Y14300000D01*
X62939956Y14143238D01*
X63000464Y13997159D01*
X63096718Y13871718D01*
X63222159Y13775464D01*
X63368238Y13714956D01*
X63525000Y13694318D01*
X63533188Y13695396D01*
X63673574Y13713878D01*
X63681762Y13714956D01*
X63827841Y13775464D01*
X63953282Y13871718D01*
X64049536Y13997159D01*
X64110044Y14143238D01*
X64130682Y14300000D01*
X64110044Y14456762D01*
X64105291Y14468238D01*
X64052696Y14595211D01*
X64049536Y14602841D01*
X63953282Y14728282D01*
X63827841Y14824536D01*
X63681762Y14885044D01*
X63525000Y14905682D01*
X63368238Y14885044D01*
X63222159Y14824536D01*
X63096718Y14728282D01*
X63000464Y14602841D01*
X62997304Y14595211D01*
X62944710Y14468238D01*
X62939956Y14456762D01*
X62919318Y14300000D01*
X58857533Y14300000D01*
X58874536Y14322159D01*
X58927468Y14449947D01*
X58931884Y14460609D01*
X58935044Y14468238D01*
X58955682Y14625000D01*
X58935044Y14781762D01*
X58874536Y14927841D01*
X58778282Y15053282D01*
X58652841Y15149536D01*
X58506762Y15210044D01*
X58350000Y15230682D01*
X58193238Y15210044D01*
X58047159Y15149536D01*
X57921718Y15053282D01*
X57825464Y14927841D01*
X57764956Y14781762D01*
X57744318Y14625000D01*
X3200000Y14625000D01*
X3200000Y16125000D01*
X62669318Y16125000D01*
X62689956Y15968238D01*
X62750464Y15822159D01*
X62846718Y15696718D01*
X62972159Y15600464D01*
X63118238Y15539956D01*
X63275000Y15519318D01*
X63283188Y15520396D01*
X63423574Y15538878D01*
X63431762Y15539956D01*
X63577841Y15600464D01*
X63703282Y15696718D01*
X63799536Y15822159D01*
X63802695Y15829787D01*
X63802698Y15829791D01*
X63812880Y15854374D01*
X63857428Y15909655D01*
X63924791Y15932077D01*
X63993582Y15914519D01*
X64041961Y15862558D01*
X64045698Y15854375D01*
X64055881Y15829791D01*
X64100464Y15722159D01*
X64196718Y15596718D01*
X64322159Y15500464D01*
X64468238Y15439956D01*
X64625000Y15419318D01*
X64633188Y15420396D01*
X64773574Y15438878D01*
X64781762Y15439956D01*
X64927841Y15500464D01*
X65053282Y15596718D01*
X65149536Y15722159D01*
X65210044Y15868238D01*
X65230682Y16025000D01*
X65220808Y16100000D01*
X67219318Y16100000D01*
X67239956Y15943238D01*
X67300464Y15797159D01*
X67396718Y15671718D01*
X67522159Y15575464D01*
X67668238Y15514956D01*
X67825000Y15494318D01*
X67833188Y15495396D01*
X67973574Y15513878D01*
X67981762Y15514956D01*
X68127841Y15575464D01*
X68253282Y15671718D01*
X68349536Y15797159D01*
X68410044Y15943238D01*
X68430682Y16100000D01*
X68410044Y16256762D01*
X68349536Y16402841D01*
X68253282Y16528282D01*
X68127841Y16624536D01*
X67981762Y16685044D01*
X67825000Y16705682D01*
X67668238Y16685044D01*
X67522159Y16624536D01*
X67396718Y16528282D01*
X67300464Y16402841D01*
X67239956Y16256762D01*
X67219318Y16100000D01*
X65220808Y16100000D01*
X65210044Y16181762D01*
X65149536Y16327841D01*
X65053282Y16453282D01*
X64927841Y16549536D01*
X64781762Y16610044D01*
X64625000Y16630682D01*
X64468238Y16610044D01*
X64322159Y16549536D01*
X64196718Y16453282D01*
X64100464Y16327841D01*
X64097305Y16320213D01*
X64097302Y16320209D01*
X64087120Y16295626D01*
X64042572Y16240345D01*
X63975209Y16217923D01*
X63906418Y16235481D01*
X63858039Y16287442D01*
X63854302Y16295625D01*
X63835904Y16340040D01*
X63799536Y16427841D01*
X63703282Y16553282D01*
X63577841Y16649536D01*
X63431762Y16710044D01*
X63275000Y16730682D01*
X63118238Y16710044D01*
X62972159Y16649536D01*
X62846718Y16553282D01*
X62750464Y16427841D01*
X62689956Y16281762D01*
X62669318Y16125000D01*
X3200000Y16125000D01*
X3200000Y16738600D01*
X53089918Y16738600D01*
X53110556Y16581838D01*
X53171064Y16435759D01*
X53267318Y16310318D01*
X53392759Y16214064D01*
X53538838Y16153556D01*
X53695600Y16132918D01*
X53703788Y16133996D01*
X53844174Y16152478D01*
X53852362Y16153556D01*
X53998441Y16214064D01*
X54123882Y16310318D01*
X54220136Y16435759D01*
X54280644Y16581838D01*
X54301282Y16738600D01*
X54280644Y16895362D01*
X54220136Y17041441D01*
X54123882Y17166882D01*
X53998441Y17263136D01*
X53852362Y17323644D01*
X53695600Y17344282D01*
X53538838Y17323644D01*
X53392759Y17263136D01*
X53267318Y17166882D01*
X53171064Y17041441D01*
X53110556Y16895362D01*
X53089918Y16738600D01*
X3200000Y16738600D01*
X3200000Y18280252D01*
X10349500Y18280252D01*
X10350707Y18274184D01*
X10357303Y18241026D01*
X10361133Y18221769D01*
X10405448Y18155448D01*
X10471769Y18111133D01*
X10483938Y18108712D01*
X10483939Y18108712D01*
X10524184Y18100707D01*
X10530252Y18099500D01*
X12969748Y18099500D01*
X12975816Y18100707D01*
X13016061Y18108712D01*
X13016062Y18108712D01*
X13028231Y18111133D01*
X13094552Y18155448D01*
X13138867Y18221769D01*
X13142698Y18241026D01*
X13149293Y18274184D01*
X13150500Y18280252D01*
X13150500Y20719748D01*
X13138867Y20778231D01*
X13094552Y20844552D01*
X13028231Y20888867D01*
X13016062Y20891288D01*
X13016061Y20891288D01*
X12975816Y20899293D01*
X12969748Y20900500D01*
X10530252Y20900500D01*
X10524184Y20899293D01*
X10483939Y20891288D01*
X10483938Y20891288D01*
X10471769Y20888867D01*
X10405448Y20844552D01*
X10361133Y20778231D01*
X10349500Y20719748D01*
X10349500Y18280252D01*
X3200000Y18280252D01*
X3200000Y22158400D01*
X3220002Y22226521D01*
X3273658Y22273014D01*
X3326000Y22284400D01*
X3696570Y22284400D01*
X3764691Y22264398D01*
G37*
%TD.AperFunction*%
%TD*%
M02*
