M48
; DRILL file {KiCad 8.0.4} date 2024-09-18T09:12:38+0100
; FORMAT={-:-/ absolute / inch / decimal}
; #@! TF.CreationDate,2024-09-18T09:12:38+01:00
; #@! TF.GenerationSoftware,Kicad,Pcbnew,8.0.4
; #@! TF.FileFunction,Plated,1,4,PTH
FMAT,2
INCH
; #@! TA.AperFunction,Plated,PTH,ViaDrill
T1C0.0157
; #@! TA.AperFunction,Plated,PTH,ComponentDrill
T2C0.0394
; #@! TA.AperFunction,Plated,PTH,ComponentDrill
T3C0.0472
%
G90
G05
T1
X0.187Y0.599
X0.195Y0.4388
X0.295Y0.7388
X0.295Y0.0388
X0.328Y0.671
X0.385Y0.514
X0.395Y0.4388
X0.395Y0.1388
X0.437Y0.676
X0.495Y0.4388
X0.495Y0.3388
X0.516Y0.514
X0.553Y0.676
X0.595Y0.4388
X0.595Y0.1388
X0.606Y0.285
X0.607Y0.209
X0.695Y-0.0612
X0.714Y0.637
X0.753Y0.521
X0.795Y0.1388
X0.795Y-0.0612
X0.8031Y0.0187
X0.894Y0.838
X0.895Y0.7388
X0.895Y0.6388
X0.895Y-0.0612
X0.965Y0.59
X0.995Y0.0388
X1.0Y0.15
X1.02Y0.585
X1.065Y0.525
X1.1102Y0.4685
X1.125Y0.53
X1.135Y0.585
X1.195Y0.8388
X1.195Y-0.0612
X1.205Y0.585
X1.219Y0.013
X1.224Y0.773
X1.235Y0.685
X1.24Y0.52
X1.2827Y0.3898
X1.295Y0.8388
X1.295Y0.52
X1.295Y-0.0612
X1.3587Y0.0772
X1.4Y-0.05
X1.425Y0.655
X1.425Y0.61
X1.425Y0.57
X1.425Y0.525
X1.495Y-0.0612
X1.5433Y0.2244
X1.55Y0.65
X1.5799Y0.0283
X1.6Y-0.05
X1.6354Y0.0283
X1.65Y0.35
X1.6693Y0.5217
X1.6801Y0.4173
X1.695Y-0.0612
X1.6957Y0.0209
X1.75Y0.35
X1.771Y0.836
X1.795Y0.1388
X1.8Y-0.05
X1.817Y0.834
X1.8596Y0.413
X1.895Y-0.0612
X1.92Y0.12
X1.9461Y0.5177
X1.999Y0.1516
X2.0Y-0.05
X2.0394Y0.1161
X2.044Y0.836
X2.095Y-0.0612
X2.114Y0.659
X2.1358Y0.2654
X2.161Y0.519
X2.2Y-0.05
X2.2819Y0.0327
X2.295Y-0.0612
X2.2972Y0.5758
X2.3005Y0.1435
X2.3219Y0.5256
X2.3278Y0.774
X2.334Y0.724
X2.343Y0.345
X2.368Y0.431
X2.395Y0.8388
X2.395Y-0.0612
X2.4911Y0.6348
X2.495Y0.8388
X2.495Y-0.0612
X2.501Y0.563
X2.5217Y0.4439
X2.5217Y0.2972
X2.5443Y0.6309
X2.595Y0.8388
X2.6476Y0.5315
X2.6703Y0.6339
X2.695Y0.8388
X2.695Y-0.0612
X2.6969Y0.1289
X2.7037Y0.5315
X2.795Y0.5388
X2.795Y0.4388
X2.795Y0.3388
X2.795Y0.1388
X2.795Y0.0388
X2.795Y-0.0612
X2.895Y0.5388
X2.895Y0.4388
X2.895Y0.3388
X2.895Y0.2388
X2.895Y0.1388
X2.895Y0.0388
X2.895Y-0.0612
T2
X0.189Y0.8307
X0.289Y0.8307
T3
X0.315Y-0.0591
X0.4626Y0.7677
X0.4626Y-0.0591
X0.6102Y-0.0591
M30
