M48
; DRILL file {KiCad 8.0.5} date 2024-10-08T13:53:20+0300
; FORMAT={-:-/ absolute / inch / decimal}
; #@! TF.CreationDate,2024-10-08T13:53:20+03:00
; #@! TF.GenerationSoftware,Kicad,Pcbnew,8.0.5
; #@! TF.FileFunction,Plated,1,4,PTH
FMAT,2
INCH
; #@! TA.AperFunction,Plated,PTH,ViaDrill
T1C0.0079
; #@! TA.AperFunction,Plated,PTH,ComponentDrill
T2C0.0098
; #@! TA.AperFunction,Plated,PTH,ViaDrill
T3C0.0118
; #@! TA.AperFunction,Plated,PTH,ViaDrill
T4C0.0157
; #@! TA.AperFunction,Plated,PTH,ComponentDrill
T5C0.0472
%
G90
G05
T1
X1.0567Y0.6882
X1.0681Y0.6677
X1.0768Y0.6472
X1.0921Y0.6287
X1.111Y0.6142
X1.1315Y0.6043
X1.1386Y0.6878
X1.1551Y0.674
X1.1807Y0.674
X1.2043Y0.6752
X1.2283Y0.6772
X1.2283Y0.5906
X1.252Y0.6772
X1.252Y0.5906
X1.2756Y0.6772
X1.2756Y0.5906
X1.2992Y0.6772
X1.2992Y0.5906
X1.3228Y0.6772
X1.3228Y0.5906
X1.3465Y0.6772
X1.3701Y0.6772
X1.3937Y0.6693
X1.3937Y0.5984
X1.4173Y0.6693
X1.4173Y0.5984
X1.4409Y0.6693
X1.4409Y0.5984
X2.2362Y0.6378
X2.2441Y0.7244
X2.6693Y0.4173
T2
X1.0413Y0.2618
X1.0413Y0.2224
T3
X0.195Y0.8109
X0.195Y0.7609
X0.195Y0.7109
X0.195Y0.6609
X0.195Y0.6109
X0.195Y0.4609
X0.195Y0.1609
X0.195Y0.0609
X0.195Y0.0109
X0.195Y-0.0391
X0.245Y0.8109
X0.245Y0.7609
X0.245Y0.7109
X0.245Y0.6609
X0.245Y0.6109
X0.245Y0.4609
X0.245Y0.0109
X0.295Y0.8109
X0.295Y0.7609
X0.295Y0.7109
X0.295Y0.6609
X0.295Y0.6109
X0.295Y0.5609
X0.295Y0.0609
X0.345Y0.8109
X0.345Y0.7609
X0.345Y0.7109
X0.345Y0.6609
X0.345Y0.6109
X0.345Y0.5609
X0.345Y0.5109
X0.345Y0.1609
X0.345Y0.1109
X0.345Y0.0609
X0.395Y0.6609
X0.395Y0.6109
X0.395Y0.5609
X0.395Y0.5109
X0.395Y0.4609
X0.395Y0.1609
X0.395Y0.1109
X0.395Y0.0609
X0.395Y0.0109
X0.445Y0.6609
X0.445Y0.6109
X0.445Y0.5609
X0.445Y0.5109
X0.445Y0.4609
X0.445Y0.4109
X0.445Y0.3609
X0.445Y0.2109
X0.445Y0.1609
X0.445Y0.1109
X0.445Y0.0609
X0.495Y0.6609
X0.495Y0.6109
X0.495Y0.5609
X0.495Y0.5109
X0.495Y0.4609
X0.495Y0.4109
X0.495Y0.3609
X0.495Y0.3109
X0.495Y0.2609
X0.495Y0.2109
X0.495Y0.1609
X0.495Y0.1109
X0.495Y0.0609
X0.545Y0.8109
X0.545Y0.7609
X0.545Y0.7109
X0.545Y0.6609
X0.545Y0.6109
X0.545Y0.5609
X0.545Y0.5109
X0.545Y0.4609
X0.545Y0.4109
X0.545Y0.3609
X0.545Y0.3109
X0.545Y0.2609
X0.545Y0.2109
X0.545Y0.1609
X0.545Y0.1109
X0.545Y0.0609
X0.545Y0.0109
X0.595Y0.6109
X0.595Y0.5609
X0.595Y0.5109
X0.595Y0.4609
X0.595Y0.4109
X0.595Y0.3609
X0.595Y0.3109
X0.595Y0.2609
X0.595Y0.2109
X0.595Y0.1609
X0.595Y0.1109
X0.595Y0.0609
X0.645Y0.6109
X0.645Y0.5609
X0.695Y0.6109
X0.695Y0.5609
X0.695Y0.0109
X0.695Y-0.0391
X0.745Y0.6109
X0.745Y0.5609
X0.745Y0.0109
X0.745Y-0.0391
X0.795Y0.6109
X0.795Y0.5609
X0.795Y0.5109
X0.795Y0.4609
X0.795Y0.4109
X0.795Y0.3609
X0.795Y0.3109
X0.795Y0.2609
X0.795Y0.2109
X0.795Y0.1609
X0.795Y0.1109
X0.795Y0.0609
X0.795Y0.0109
X0.795Y-0.0391
X0.845Y0.7609
X0.845Y0.7109
X0.845Y0.6609
X0.845Y0.6109
X0.845Y0.5609
X0.845Y0.0109
X0.845Y-0.0391
X0.895Y0.7609
X0.895Y0.7109
X0.895Y0.6609
X0.895Y0.6109
X0.895Y0.5609
X0.895Y0.0109
X0.895Y-0.0391
X0.945Y0.7609
X0.945Y0.7109
X0.945Y0.6609
X0.945Y0.6109
X0.945Y0.5609
X0.945Y0.0109
X0.945Y-0.0391
X0.995Y0.6609
X0.995Y0.6109
X0.995Y0.5609
X0.995Y0.5109
X0.995Y0.4609
X0.995Y0.4109
X0.995Y0.0609
X0.995Y0.0109
X1.045Y0.5609
X1.045Y0.5109
X1.045Y0.4609
X1.045Y0.4109
X1.095Y0.5109
X1.095Y0.4609
X1.145Y0.5109
X1.145Y0.4609
X1.195Y0.5109
X1.195Y0.4609
X1.195Y-0.0391
X1.245Y0.8109
X1.245Y0.7609
X1.245Y0.5109
X1.245Y0.4609
X1.245Y-0.0391
X1.295Y0.8109
X1.295Y0.7609
X1.295Y0.5109
X1.295Y0.4609
X1.295Y0.4109
X1.345Y0.8109
X1.345Y0.7609
X1.345Y0.5109
X1.345Y0.4609
X1.345Y0.4109
X1.345Y0.3609
X1.395Y0.8109
X1.395Y0.7609
X1.395Y0.5109
X1.395Y0.4609
X1.445Y0.8109
X1.445Y0.7609
X1.495Y0.8109
X1.495Y0.7609
X1.545Y0.8109
X1.545Y0.7609
X1.595Y0.0609
X1.645Y0.1609
X1.645Y0.1109
X1.645Y0.0609
X1.645Y-0.0391
X1.895Y0.8109
X1.895Y0.7609
X1.945Y0.0609
X1.945Y-0.0391
X1.995Y0.0609
X1.995Y-0.0391
X2.045Y0.7609
X2.045Y0.7109
X2.045Y0.6609
X2.045Y-0.0391
X2.095Y-0.0391
X2.145Y-0.0391
X2.195Y0.2609
X2.195Y0.2109
X2.195Y0.0609
X2.195Y-0.0391
X2.245Y0.0609
X2.245Y-0.0391
X2.295Y0.2109
X2.295Y0.0609
X2.295Y-0.0391
X2.345Y-0.0391
X2.395Y-0.0391
X2.445Y-0.0391
X2.495Y-0.0391
X2.545Y-0.0391
X2.695Y0.0109
X2.695Y-0.0391
X2.745Y0.0609
X2.745Y0.0109
X2.745Y-0.0391
X2.795Y0.0609
X2.795Y0.0109
X2.795Y-0.0391
X2.845Y0.5609
X2.845Y0.5109
X2.845Y0.4609
X2.845Y0.4109
X2.845Y0.3609
X2.845Y0.3109
X2.845Y0.2609
X2.845Y0.1609
X2.845Y0.1109
X2.845Y0.0609
X2.845Y0.0109
X2.845Y-0.0391
X2.895Y0.5609
X2.895Y0.5109
X2.895Y0.4609
X2.895Y0.4109
X2.895Y0.3609
X2.895Y0.3109
X2.895Y0.2609
X2.895Y0.2109
X2.895Y0.1609
X2.895Y0.1109
X2.895Y0.0609
X2.895Y0.0109
X2.895Y-0.0391
T4
X0.894Y0.838
X0.8957Y0.4331
X0.8957Y0.3307
X0.8957Y0.2283
X0.8957Y0.1181
X0.9606Y0.3386
X0.9843Y0.189
X1.0394Y0.1339
X1.0945Y0.3307
X1.1496Y0.2835
X1.1654Y0.2362
X1.3937Y0.0315
X1.4016Y-0.063
X1.4252Y0.1732
X1.4409Y0.3543
X1.4488Y0.1181
X1.4803Y0.1811
X1.5394Y-0.002
X1.5669Y0.1654
X1.626Y0.752
X1.685Y0.748
X1.7323Y0.1811
X1.7638Y0.7638
X1.7795Y0.1575
X1.811Y0.7638
X1.8346Y0.1575
X1.8661Y0.5984
X1.8898Y0.1654
X2.0Y0.2047
X2.0394Y0.3258
X2.0738Y0.5551
X2.1339Y0.8268
X2.1969Y0.748
X2.2313Y0.5906
X2.2409Y0.6803
X2.2756Y0.3937
X2.3071Y0.3071
X2.315Y0.5748
X2.321Y0.4923
X2.3228Y0.622
X2.3287Y0.4537
X2.3307Y0.252
X2.3386Y0.5276
X2.3622Y0.4331
X2.4567Y0.4252
X2.5013Y0.622
X2.5294Y0.8216
X2.5407Y0.6224
X2.5512Y0.0378
X2.6476Y0.5315
X2.6969Y0.1289
X2.7031Y0.5823
X2.7165Y0.4409
X2.7165Y0.2835
X2.7274Y0.378
X2.7323Y0.6299
T5
X0.315Y-0.0591
X0.4626Y0.7677
X0.4626Y-0.0591
X0.6102Y-0.0591
M30
