%TF.GenerationSoftware,KiCad,Pcbnew,8.0.5*%
%TF.CreationDate,2024-11-08T09:24:58+00:00*%
%TF.ProjectId,Main_V44,4d61696e-5f56-4343-942e-6b696361645f,rev?*%
%TF.SameCoordinates,Original*%
%TF.FileFunction,Paste,Bot*%
%TF.FilePolarity,Positive*%
%FSLAX46Y46*%
G04 Gerber Fmt 4.6, Leading zero omitted, Abs format (unit mm)*
G04 Created by KiCad (PCBNEW 8.0.5) date 2024-11-08 09:24:58*
%MOMM*%
%LPD*%
G01*
G04 APERTURE LIST*
G04 Aperture macros list*
%AMRoundRect*
0 Rectangle with rounded corners*
0 $1 Rounding radius*
0 $2 $3 $4 $5 $6 $7 $8 $9 X,Y pos of 4 corners*
0 Add a 4 corners polygon primitive as box body*
4,1,4,$2,$3,$4,$5,$6,$7,$8,$9,$2,$3,0*
0 Add four circle primitives for the rounded corners*
1,1,$1+$1,$2,$3*
1,1,$1+$1,$4,$5*
1,1,$1+$1,$6,$7*
1,1,$1+$1,$8,$9*
0 Add four rect primitives between the rounded corners*
20,1,$1+$1,$2,$3,$4,$5,0*
20,1,$1+$1,$4,$5,$6,$7,0*
20,1,$1+$1,$6,$7,$8,$9,0*
20,1,$1+$1,$8,$9,$2,$3,0*%
%AMFreePoly0*
4,1,9,3.862500,-0.866500,0.737500,-0.866500,0.737500,-0.450000,-0.737500,-0.450000,-0.737500,0.450000,0.737500,0.450000,0.737500,0.866500,3.862500,0.866500,3.862500,-0.866500,3.862500,-0.866500,$1*%
G04 Aperture macros list end*
%ADD10C,0.000000*%
%ADD11RoundRect,0.200000X0.200000X0.275000X-0.200000X0.275000X-0.200000X-0.275000X0.200000X-0.275000X0*%
%ADD12RoundRect,0.225000X0.250000X-0.225000X0.250000X0.225000X-0.250000X0.225000X-0.250000X-0.225000X0*%
%ADD13R,2.260600X7.696200*%
%ADD14RoundRect,0.200000X-0.200000X-0.275000X0.200000X-0.275000X0.200000X0.275000X-0.200000X0.275000X0*%
%ADD15RoundRect,0.250000X0.362500X1.425000X-0.362500X1.425000X-0.362500X-1.425000X0.362500X-1.425000X0*%
%ADD16RoundRect,0.200000X0.275000X-0.200000X0.275000X0.200000X-0.275000X0.200000X-0.275000X-0.200000X0*%
%ADD17RoundRect,0.250000X0.650000X-0.325000X0.650000X0.325000X-0.650000X0.325000X-0.650000X-0.325000X0*%
%ADD18RoundRect,0.225000X-0.225000X-0.250000X0.225000X-0.250000X0.225000X0.250000X-0.225000X0.250000X0*%
%ADD19RoundRect,0.150000X-0.150000X0.725000X-0.150000X-0.725000X0.150000X-0.725000X0.150000X0.725000X0*%
%ADD20RoundRect,0.225000X0.225000X0.250000X-0.225000X0.250000X-0.225000X-0.250000X0.225000X-0.250000X0*%
%ADD21R,1.000000X1.800000*%
%ADD22R,0.863600X1.244600*%
%ADD23RoundRect,0.200000X-0.275000X0.200000X-0.275000X-0.200000X0.275000X-0.200000X0.275000X0.200000X0*%
%ADD24R,1.803400X0.558800*%
%ADD25RoundRect,0.250000X-0.325000X-0.650000X0.325000X-0.650000X0.325000X0.650000X-0.325000X0.650000X0*%
%ADD26R,0.750000X0.250000*%
%ADD27RoundRect,0.150000X-0.150000X0.587500X-0.150000X-0.587500X0.150000X-0.587500X0.150000X0.587500X0*%
%ADD28RoundRect,0.225000X-0.250000X0.225000X-0.250000X-0.225000X0.250000X-0.225000X0.250000X0.225000X0*%
%ADD29R,2.500000X1.800000*%
%ADD30R,1.676400X0.558800*%
%ADD31R,0.812800X0.254000*%
%ADD32R,0.254000X0.812800*%
%ADD33R,3.505200X3.505200*%
%ADD34RoundRect,0.150000X-0.875000X-0.150000X0.875000X-0.150000X0.875000X0.150000X-0.875000X0.150000X0*%
%ADD35R,0.965200X0.304800*%
%ADD36R,0.304800X0.965200*%
%ADD37R,3.352800X3.352800*%
%ADD38RoundRect,0.150000X-0.725000X-0.150000X0.725000X-0.150000X0.725000X0.150000X-0.725000X0.150000X0*%
%ADD39RoundRect,0.150000X0.150000X-0.587500X0.150000X0.587500X-0.150000X0.587500X-0.150000X-0.587500X0*%
%ADD40RoundRect,0.250000X-0.700000X0.275000X-0.700000X-0.275000X0.700000X-0.275000X0.700000X0.275000X0*%
%ADD41R,0.900000X1.300000*%
%ADD42FreePoly0,270.000000*%
G04 APERTURE END LIST*
D10*
%TO.C,U22*%
G36*
X89612800Y9396400D02*
G01*
X88060200Y9396400D01*
X88060200Y10949000D01*
X89612800Y10949000D01*
X89612800Y9396400D01*
G37*
G36*
X87860200Y7643800D02*
G01*
X86307600Y7643800D01*
X86307600Y9196400D01*
X87860200Y9196400D01*
X87860200Y7643800D01*
G37*
G36*
X89612800Y7643800D02*
G01*
X88060200Y7643800D01*
X88060200Y9196400D01*
X89612800Y9196400D01*
X89612800Y7643800D01*
G37*
G36*
X87860200Y9396400D02*
G01*
X86307600Y9396400D01*
X86307600Y10949000D01*
X87860200Y10949000D01*
X87860200Y9396400D01*
G37*
%TO.C,U11*%
G36*
X97258200Y12266600D02*
G01*
X95781800Y12266600D01*
X95781800Y13743000D01*
X97258200Y13743000D01*
X97258200Y12266600D01*
G37*
G36*
X98934600Y12266600D02*
G01*
X97458200Y12266600D01*
X97458200Y13743000D01*
X98934600Y13743000D01*
X98934600Y12266600D01*
G37*
G36*
X97258200Y10590200D02*
G01*
X95781800Y10590200D01*
X95781800Y12066600D01*
X97258200Y12066600D01*
X97258200Y10590200D01*
G37*
G36*
X98934600Y10590200D02*
G01*
X97458200Y10590200D01*
X97458200Y12066600D01*
X98934600Y12066600D01*
X98934600Y10590200D01*
G37*
%TO.C,U20*%
G36*
X98960000Y2208200D02*
G01*
X97483600Y2208200D01*
X97483600Y3684600D01*
X98960000Y3684600D01*
X98960000Y2208200D01*
G37*
G36*
X97283600Y2208200D02*
G01*
X95807200Y2208200D01*
X95807200Y3684600D01*
X97283600Y3684600D01*
X97283600Y2208200D01*
G37*
G36*
X97283600Y3884600D02*
G01*
X95807200Y3884600D01*
X95807200Y5361000D01*
X97283600Y5361000D01*
X97283600Y3884600D01*
G37*
G36*
X98960000Y3884600D02*
G01*
X97483600Y3884600D01*
X97483600Y5361000D01*
X98960000Y5361000D01*
X98960000Y3884600D01*
G37*
%TD*%
D11*
%TO.C,R4*%
X130902900Y-51261200D03*
X129252900Y-51261200D03*
%TD*%
D12*
%TO.C,C24*%
X127076200Y-59398200D03*
X127076200Y-57848200D03*
%TD*%
D13*
%TO.C,RV3*%
X177481500Y-42025000D03*
X168718500Y-42025000D03*
%TD*%
D14*
%TO.C,R45*%
X96825000Y-60850000D03*
X98475000Y-60850000D03*
%TD*%
D15*
%TO.C,R5*%
X162690400Y-49911200D03*
X156765400Y-49911200D03*
%TD*%
%TO.C,R20*%
X139085400Y-64391200D03*
X133160400Y-64391200D03*
%TD*%
D12*
%TO.C,C1*%
X121640600Y7962600D03*
X121640600Y9512600D03*
%TD*%
%TO.C,C22*%
X125628400Y-66916600D03*
X125628400Y-65366600D03*
%TD*%
D14*
%TO.C,R32*%
X100089200Y-66573400D03*
X101739200Y-66573400D03*
%TD*%
D16*
%TO.C,R38*%
X89916000Y-57797200D03*
X89916000Y-56147200D03*
%TD*%
D17*
%TO.C,C18*%
X56710000Y-58235000D03*
X56710000Y-55285000D03*
%TD*%
D18*
%TO.C,C48*%
X102552200Y12801600D03*
X104102200Y12801600D03*
%TD*%
D19*
%TO.C,U3*%
X95278554Y-53535000D03*
X96548554Y-53535000D03*
X97818554Y-53535000D03*
X99088554Y-53535000D03*
X99088554Y-58685000D03*
X97818554Y-58685000D03*
X96548554Y-58685000D03*
X95278554Y-58685000D03*
%TD*%
D17*
%TO.C,C19*%
X66810000Y-58225000D03*
X66810000Y-55275000D03*
%TD*%
D18*
%TO.C,C15*%
X149593000Y-23799800D03*
X151143000Y-23799800D03*
%TD*%
D20*
%TO.C,C42*%
X93713600Y9398000D03*
X92163600Y9398000D03*
%TD*%
D18*
%TO.C,C4*%
X129302900Y-57061200D03*
X130852900Y-57061200D03*
%TD*%
D15*
%TO.C,R7*%
X146690400Y-49961200D03*
X140765400Y-49961200D03*
%TD*%
D21*
%TO.C,Y1*%
X86253000Y4089400D03*
X88753000Y4089400D03*
%TD*%
D22*
%TO.C,LED1*%
X4750001Y-18536700D03*
X3249999Y-18536700D03*
X3249999Y-15463300D03*
X4750001Y-15463300D03*
%TD*%
D14*
%TO.C,R37*%
X83925000Y-51100000D03*
X85575000Y-51100000D03*
%TD*%
D13*
%TO.C,RV1*%
X177481500Y-10425000D03*
X168718500Y-10425000D03*
%TD*%
D14*
%TO.C,R27*%
X101079800Y-55600600D03*
X102729800Y-55600600D03*
%TD*%
D20*
%TO.C,C34*%
X71133000Y-62153800D03*
X69583000Y-62153800D03*
%TD*%
D15*
%TO.C,R6*%
X154640400Y-49961200D03*
X148715400Y-49961200D03*
%TD*%
D23*
%TO.C,R42*%
X77300000Y-58475000D03*
X77300000Y-60125000D03*
%TD*%
D16*
%TO.C,R43*%
X69930000Y-57165000D03*
X69930000Y-55515000D03*
%TD*%
D20*
%TO.C,C28*%
X103162400Y-54025800D03*
X101612400Y-54025800D03*
%TD*%
D24*
%TO.C,U4*%
X123373400Y-59515000D03*
X123373400Y-60785000D03*
X123373400Y-62055000D03*
X123373400Y-63325000D03*
X107066600Y-63325000D03*
X107066600Y-62055000D03*
X107066600Y-60785000D03*
X107066600Y-59515000D03*
%TD*%
D20*
%TO.C,C29*%
X104991200Y-61112400D03*
X103441200Y-61112400D03*
%TD*%
D14*
%TO.C,R34*%
X103721400Y9474200D03*
X105371400Y9474200D03*
%TD*%
D25*
%TO.C,C53*%
X139901400Y-43840400D03*
X142851400Y-43840400D03*
%TD*%
D14*
%TO.C,R30*%
X100200000Y-60875000D03*
X101850000Y-60875000D03*
%TD*%
D20*
%TO.C,C31*%
X103162400Y-52476400D03*
X101612400Y-52476400D03*
%TD*%
D14*
%TO.C,R31*%
X102984800Y-69748400D03*
X104634800Y-69748400D03*
%TD*%
D18*
%TO.C,C38*%
X89979200Y-52755800D03*
X91529200Y-52755800D03*
%TD*%
D22*
%TO.C,LED2*%
X4750001Y-36536700D03*
X3249999Y-36536700D03*
X3249999Y-33463300D03*
X4750001Y-33463300D03*
%TD*%
D26*
%TO.C,U9*%
X82753800Y11113200D03*
X82753800Y10613200D03*
X82753800Y10113200D03*
X82753800Y9613200D03*
X79653800Y9613200D03*
X79653800Y10113200D03*
X79653800Y10613200D03*
X79653800Y11113200D03*
%TD*%
D24*
%TO.C,U6*%
X123473400Y-67015000D03*
X123473400Y-68285000D03*
X123473400Y-69555000D03*
X123473400Y-70825000D03*
X107166600Y-70825000D03*
X107166600Y-69555000D03*
X107166600Y-68285000D03*
X107166600Y-67015000D03*
%TD*%
D27*
%TO.C,Q3*%
X83835200Y-64492900D03*
X85735200Y-64492900D03*
X84785200Y-66367900D03*
%TD*%
D17*
%TO.C,C17*%
X66950000Y-64425000D03*
X66950000Y-61475000D03*
%TD*%
D15*
%TO.C,R12*%
X146640400Y-57861200D03*
X140715400Y-57861200D03*
%TD*%
D16*
%TO.C,R3*%
X97993200Y-49567600D03*
X97993200Y-47917600D03*
%TD*%
D18*
%TO.C,C7*%
X129477900Y-65831200D03*
X131027900Y-65831200D03*
%TD*%
D14*
%TO.C,R51*%
X102476800Y4064000D03*
X104126800Y4064000D03*
%TD*%
D18*
%TO.C,C49*%
X101409200Y5638800D03*
X102959200Y5638800D03*
%TD*%
%TO.C,C45*%
X81775000Y1727200D03*
X83325000Y1727200D03*
%TD*%
D13*
%TO.C,RV2*%
X177481500Y-27325000D03*
X168718500Y-27325000D03*
%TD*%
D20*
%TO.C,C35*%
X82385200Y-60248800D03*
X80835200Y-60248800D03*
%TD*%
D16*
%TO.C,R14*%
X132477900Y-54611200D03*
X132477900Y-52961200D03*
%TD*%
D28*
%TO.C,C25*%
X145135600Y7506000D03*
X145135600Y5956000D03*
%TD*%
D29*
%TO.C,D6*%
X184372000Y-37058600D03*
X180372000Y-37058600D03*
%TD*%
D18*
%TO.C,C50*%
X101409200Y7239000D03*
X102959200Y7239000D03*
%TD*%
%TO.C,C37*%
X98475800Y-51231800D03*
X100025800Y-51231800D03*
%TD*%
D30*
%TO.C,PS3*%
X154508200Y-32740600D03*
X154508200Y-35280600D03*
X154508200Y-40360600D03*
X145161000Y-40360600D03*
X145161000Y-32740600D03*
%TD*%
D20*
%TO.C,C33*%
X92951600Y-59969400D03*
X91401600Y-59969400D03*
%TD*%
D15*
%TO.C,R11*%
X154590400Y-57811200D03*
X148665400Y-57811200D03*
%TD*%
D24*
%TO.C,U7*%
X123423400Y-52265000D03*
X123423400Y-53535000D03*
X123423400Y-54805000D03*
X123423400Y-56075000D03*
X107116600Y-56075000D03*
X107116600Y-54805000D03*
X107116600Y-53535000D03*
X107116600Y-52265000D03*
%TD*%
D29*
%TO.C,D5*%
X184372000Y-27609800D03*
X180372000Y-27609800D03*
%TD*%
D18*
%TO.C,C46*%
X103009400Y635000D03*
X104559400Y635000D03*
%TD*%
D15*
%TO.C,R19*%
X147085400Y-64391200D03*
X141160400Y-64391200D03*
%TD*%
D14*
%TO.C,R46*%
X72925000Y-60740000D03*
X74575000Y-60740000D03*
%TD*%
D23*
%TO.C,R35*%
X80425000Y-64250000D03*
X80425000Y-65900000D03*
%TD*%
D12*
%TO.C,C23*%
X126949200Y-51956000D03*
X126949200Y-50406000D03*
%TD*%
D29*
%TO.C,D4*%
X184372000Y-17932400D03*
X180372000Y-17932400D03*
%TD*%
D15*
%TO.C,R8*%
X138740400Y-49961200D03*
X132815400Y-49961200D03*
%TD*%
D20*
%TO.C,C27*%
X105067400Y-67970400D03*
X103517400Y-67970400D03*
%TD*%
D16*
%TO.C,R41*%
X93440000Y-57195000D03*
X93440000Y-55545000D03*
%TD*%
D12*
%TO.C,C20*%
X127285648Y-66942000D03*
X127285648Y-65392000D03*
%TD*%
D31*
%TO.C,U22*%
X85509100Y7546401D03*
X85509100Y8046400D03*
X85509100Y8546399D03*
X85509100Y9046400D03*
X85509100Y9546400D03*
X85509100Y10046401D03*
X85509100Y10546400D03*
X85509100Y11046399D03*
D32*
X86210201Y11747500D03*
X86710200Y11747500D03*
X87210199Y11747500D03*
X87710200Y11747500D03*
X88210200Y11747500D03*
X88710201Y11747500D03*
X89210200Y11747500D03*
X89710199Y11747500D03*
D31*
X90411300Y11046399D03*
X90411300Y10546400D03*
X90411300Y10046401D03*
X90411300Y9546400D03*
X90411300Y9046400D03*
X90411300Y8546399D03*
X90411300Y8046400D03*
X90411300Y7546401D03*
D32*
X89710199Y6845300D03*
X89210200Y6845300D03*
X88710201Y6845300D03*
X88210200Y6845300D03*
X87710200Y6845300D03*
X87210199Y6845300D03*
X86710200Y6845300D03*
X86210201Y6845300D03*
D33*
X87960200Y9296400D03*
%TD*%
D16*
%TO.C,R39*%
X82390000Y-56980000D03*
X82390000Y-55330000D03*
%TD*%
D34*
%TO.C,U2*%
X124990000Y5615000D03*
X124990000Y6885000D03*
X124990000Y8155000D03*
X124990000Y9425000D03*
X124990000Y10695000D03*
X124990000Y11965000D03*
X124990000Y13235000D03*
X124990000Y14505000D03*
X134290000Y14505000D03*
X134290000Y13235000D03*
X134290000Y11965000D03*
X134290000Y10695000D03*
X134290000Y9425000D03*
X134290000Y8155000D03*
X134290000Y6885000D03*
X134290000Y5615000D03*
%TD*%
D35*
%TO.C,U11*%
X99682300Y13466600D03*
X99682300Y12816599D03*
X99682300Y12166600D03*
X99682300Y11516601D03*
X99682300Y10866600D03*
D36*
X98658200Y9842500D03*
X98008199Y9842500D03*
X97358200Y9842500D03*
X96708201Y9842500D03*
X96058200Y9842500D03*
D35*
X95034100Y10866600D03*
X95034100Y11516601D03*
X95034100Y12166600D03*
X95034100Y12816599D03*
X95034100Y13466600D03*
D36*
X96058200Y14490700D03*
X96708201Y14490700D03*
X97358200Y14490700D03*
X98008199Y14490700D03*
X98658200Y14490700D03*
D37*
X97358200Y12166600D03*
%TD*%
D14*
%TO.C,R36*%
X95265000Y-51060000D03*
X96915000Y-51060000D03*
%TD*%
D11*
%TO.C,R28*%
X102552000Y-57378600D03*
X100902000Y-57378600D03*
%TD*%
D35*
%TO.C,U20*%
X99707700Y5084600D03*
X99707700Y4434599D03*
X99707700Y3784600D03*
X99707700Y3134601D03*
X99707700Y2484600D03*
D36*
X98683600Y1460500D03*
X98033599Y1460500D03*
X97383600Y1460500D03*
X96733601Y1460500D03*
X96083600Y1460500D03*
D35*
X95059500Y2484600D03*
X95059500Y3134601D03*
X95059500Y3784600D03*
X95059500Y4434599D03*
X95059500Y5084600D03*
D36*
X96083600Y6108700D03*
X96733601Y6108700D03*
X97383600Y6108700D03*
X98033599Y6108700D03*
X98683600Y6108700D03*
D37*
X97383600Y3784600D03*
%TD*%
D15*
%TO.C,R10*%
X162890400Y-57761200D03*
X156965400Y-57761200D03*
%TD*%
D14*
%TO.C,R53*%
X102451400Y2463800D03*
X104101400Y2463800D03*
%TD*%
D20*
%TO.C,C32*%
X105423000Y-59105800D03*
X103873000Y-59105800D03*
%TD*%
D38*
%TO.C,U21*%
X59135000Y-59055000D03*
X59135000Y-57785000D03*
X59135000Y-56515000D03*
X59135000Y-55245000D03*
X64285000Y-55245000D03*
X64285000Y-56515000D03*
X64285000Y-57785000D03*
X64285000Y-59055000D03*
%TD*%
D11*
%TO.C,R9*%
X130902900Y-49661200D03*
X129252900Y-49661200D03*
%TD*%
D12*
%TO.C,C10*%
X137668000Y6032200D03*
X137668000Y7582200D03*
%TD*%
%TO.C,C39*%
X77825600Y-52654200D03*
X77825600Y-51104200D03*
%TD*%
D16*
%TO.C,R33*%
X77724000Y9639800D03*
X77724000Y11289800D03*
%TD*%
D11*
%TO.C,R21*%
X131097900Y-62591200D03*
X129447900Y-62591200D03*
%TD*%
D39*
%TO.C,Q2*%
X87818000Y-70812900D03*
X85918000Y-70812900D03*
X86868000Y-68937900D03*
%TD*%
D19*
%TO.C,U12*%
X84418554Y-53535000D03*
X85688554Y-53535000D03*
X86958554Y-53535000D03*
X88228554Y-53535000D03*
X88228554Y-58685000D03*
X86958554Y-58685000D03*
X85688554Y-58685000D03*
X84418554Y-58685000D03*
%TD*%
D20*
%TO.C,C41*%
X86677800Y1803400D03*
X85127800Y1803400D03*
%TD*%
D39*
%TO.C,Q4*%
X84236600Y-70812900D03*
X82336600Y-70812900D03*
X83286600Y-68937900D03*
%TD*%
D14*
%TO.C,R22*%
X71755000Y-51080000D03*
X73405000Y-51080000D03*
%TD*%
D11*
%TO.C,R1*%
X130902900Y-55511200D03*
X129252900Y-55511200D03*
%TD*%
D14*
%TO.C,R40*%
X100648000Y-58978800D03*
X102298000Y-58978800D03*
%TD*%
D19*
%TO.C,U13*%
X71778554Y-53535000D03*
X73048554Y-53535000D03*
X74318554Y-53535000D03*
X75588554Y-53535000D03*
X75588554Y-58685000D03*
X74318554Y-58685000D03*
X73048554Y-58685000D03*
X71778554Y-58685000D03*
%TD*%
D20*
%TO.C,C36*%
X62624000Y-61544200D03*
X61074000Y-61544200D03*
%TD*%
D18*
%TO.C,C47*%
X102577600Y14427200D03*
X104127600Y14427200D03*
%TD*%
%TO.C,C44*%
X88404400Y1803400D03*
X89954400Y1803400D03*
%TD*%
D15*
%TO.C,R17*%
X163335400Y-64441200D03*
X157410400Y-64441200D03*
%TD*%
D20*
%TO.C,C30*%
X105042000Y-65786000D03*
X103492000Y-65786000D03*
%TD*%
D22*
%TO.C,LED3*%
X4750001Y-54536700D03*
X3249999Y-54536700D03*
X3249999Y-51463300D03*
X4750001Y-51463300D03*
%TD*%
D12*
%TO.C,C26*%
X125476000Y-59411200D03*
X125476000Y-57861200D03*
%TD*%
D40*
%TO.C,L3*%
X141579600Y-38252200D03*
X141579600Y-41402200D03*
%TD*%
D15*
%TO.C,R18*%
X155135400Y-64291200D03*
X149210400Y-64291200D03*
%TD*%
%TO.C,R13*%
X138776300Y-57861200D03*
X132851300Y-57861200D03*
%TD*%
D11*
%TO.C,R16*%
X131097900Y-64191200D03*
X129447900Y-64191200D03*
%TD*%
D14*
%TO.C,R44*%
X85331800Y-60680600D03*
X86981800Y-60680600D03*
%TD*%
D18*
%TO.C,C43*%
X82943400Y4267200D03*
X84493400Y4267200D03*
%TD*%
D16*
%TO.C,R15*%
X87090000Y-51190000D03*
X87090000Y-49540000D03*
%TD*%
D14*
%TO.C,R29*%
X103035600Y-62839600D03*
X104685600Y-62839600D03*
%TD*%
D18*
%TO.C,C6*%
X129302900Y-52961200D03*
X130852900Y-52961200D03*
%TD*%
D12*
%TO.C,C21*%
X125374400Y-51956000D03*
X125374400Y-50406000D03*
%TD*%
D16*
%TO.C,R2*%
X73660000Y-49390000D03*
X73660000Y-47740000D03*
%TD*%
D11*
%TO.C,R52*%
X105346000Y11074400D03*
X103696000Y11074400D03*
%TD*%
D41*
%TO.C,U5*%
X140028800Y7441200D03*
D42*
X141528800Y7353700D03*
D41*
X143028800Y7441200D03*
%TD*%
D12*
%TO.C,C40*%
X78841600Y12928000D03*
X78841600Y14478000D03*
%TD*%
M02*
