%TF.GenerationSoftware,KiCad,Pcbnew,8.0.5*%
%TF.CreationDate,2024-11-08T09:24:42+00:00*%
%TF.ProjectId,Main_V44,4d61696e-5f56-4343-942e-6b696361645f,rev?*%
%TF.SameCoordinates,Original*%
%TF.FileFunction,Drillmap*%
%TF.FilePolarity,Positive*%
%FSLAX45Y45*%
G04 Gerber Fmt 4.5, Leading zero omitted, Abs format (unit mm)*
G04 Created by KiCad (PCBNEW 8.0.5) date 2024-11-08 09:24:42*
%MOMM*%
%LPD*%
G01*
G04 APERTURE LIST*
%ADD10C,0.100000*%
%ADD11C,0.200000*%
%ADD12C,0.120000*%
%ADD13C,0.130000*%
%ADD14C,0.260000*%
%ADD15C,0.320000*%
G04 APERTURE END LIST*
D10*
X6390000Y505000D02*
X6452000Y443000D01*
X3983000Y443000D02*
X3955000Y471000D01*
X18700000Y1600000D02*
X18700000Y600000D01*
X3155000Y471000D02*
X3155000Y1600000D01*
X6452000Y443000D02*
X6645000Y443000D01*
X19300000Y600000D02*
X18700000Y600000D01*
X18700000Y-7700000D02*
X0Y-7700000D01*
X0Y1600000D02*
X3155000Y1600000D01*
X7492000Y490000D02*
X7492000Y1600000D01*
X4298000Y443000D02*
X3983000Y443000D01*
X18700000Y1600000D02*
X14900000Y1600000D01*
X7492000Y1600000D02*
X14900000Y1600000D01*
X19300000Y600000D02*
X19300000Y-6000000D01*
X0Y1600000D02*
X0Y0D01*
X0Y-7700000D02*
X0Y0D01*
X6645000Y443000D02*
X6692000Y490000D01*
X3155000Y471000D02*
X3955000Y471000D01*
X4360000Y505000D02*
X4298000Y443000D01*
X18700000Y-6000000D02*
X19300000Y-6000000D01*
X6692000Y490000D02*
X7492000Y490000D01*
X18700000Y-6000000D02*
X18700000Y-7700000D01*
X5270000Y600000D02*
X5270000Y1295000D01*
X6340000Y1345000D02*
X5320000Y1345000D01*
X5080000Y600000D02*
X5080000Y1295000D01*
X5030000Y1345000D02*
X4410000Y1345000D01*
X5270000Y1295000D02*
X5320000Y1345000D01*
X6390000Y1295000D02*
X6340000Y1345000D01*
X6390000Y505000D02*
X6390000Y1295000D01*
X5080000Y1295000D02*
X5030000Y1345000D01*
X4360000Y1295000D02*
X4410000Y1345000D01*
X4360000Y505000D02*
X4360000Y1295000D01*
X5270000Y600000D02*
G75*
G02*
X5080000Y600000I-95000J0D01*
G01*
D11*
D12*
X3180000Y-4105000D02*
X3300000Y-4225000D01*
X3300000Y-4105000D02*
X3180000Y-4225000D01*
X3180000Y-5020000D02*
X3300000Y-5140000D01*
X3300000Y-5020000D02*
X3180000Y-5140000D01*
X4680000Y-4105000D02*
X4800000Y-4225000D01*
X4800000Y-4105000D02*
X4680000Y-4225000D01*
X4680000Y-5020000D02*
X4800000Y-5140000D01*
X4800000Y-5020000D02*
X4680000Y-5140000D01*
X6080000Y-4105000D02*
X6200000Y-4225000D01*
X6200000Y-4105000D02*
X6080000Y-4225000D01*
X6080000Y-5020000D02*
X6200000Y-5140000D01*
X6200000Y-5020000D02*
X6080000Y-5140000D01*
X7481000Y-4103000D02*
X7601000Y-4223000D01*
X7601000Y-4103000D02*
X7481000Y-4223000D01*
X7481000Y-5018000D02*
X7601000Y-5138000D01*
X7601000Y-5018000D02*
X7481000Y-5138000D01*
X8880000Y-4105000D02*
X9000000Y-4225000D01*
X9000000Y-4105000D02*
X8880000Y-4225000D01*
X8880000Y-5020000D02*
X9000000Y-5140000D01*
X9000000Y-5020000D02*
X8880000Y-5140000D01*
X10380000Y-3905000D02*
X10500000Y-4025000D01*
X10500000Y-3905000D02*
X10380000Y-4025000D01*
X10380000Y-4820000D02*
X10500000Y-4940000D01*
X10500000Y-4820000D02*
X10380000Y-4940000D01*
D13*
X2032500Y-576500D02*
G75*
G02*
X1902500Y-576500I-65000J0D01*
G01*
X1902500Y-576500D02*
G75*
G02*
X2032500Y-576500I65000J0D01*
G01*
X2032500Y-2100500D02*
G75*
G02*
X1902500Y-2100500I-65000J0D01*
G01*
X1902500Y-2100500D02*
G75*
G02*
X2032500Y-2100500I65000J0D01*
G01*
X6392500Y-571500D02*
G75*
G02*
X6262500Y-571500I-65000J0D01*
G01*
X6262500Y-571500D02*
G75*
G02*
X6392500Y-571500I65000J0D01*
G01*
X6392500Y-1333500D02*
G75*
G02*
X6262500Y-1333500I-65000J0D01*
G01*
X6262500Y-1333500D02*
G75*
G02*
X6392500Y-1333500I65000J0D01*
G01*
D14*
X12903200Y-4017820D02*
X12903200Y-4277820D01*
X12773200Y-4147820D02*
X13033200Y-4147820D01*
X17335500Y739600D02*
X17335500Y479600D01*
X17205500Y609600D02*
X17465500Y609600D01*
X17871440Y-7279180D02*
X17871440Y-7539180D01*
X17741440Y-7409180D02*
X18001440Y-7409180D01*
D15*
X4054278Y-4263158D02*
X4054278Y-4036882D01*
X3828002Y-4036882D01*
X3828002Y-4263158D01*
X4054278Y-4263158D01*
X5725638Y-274138D02*
X5725638Y-47862D01*
X5499362Y-47862D01*
X5499362Y-274138D01*
X5725638Y-274138D01*
X9513138Y-513138D02*
X9513138Y-286862D01*
X9286862Y-286862D01*
X9286862Y-513138D01*
X9513138Y-513138D01*
X9513138Y-6713138D02*
X9513138Y-6486862D01*
X9286862Y-6486862D01*
X9286862Y-6713138D01*
X9513138Y-6713138D01*
X9741438Y-4263158D02*
X9741438Y-4036882D01*
X9515162Y-4036882D01*
X9515162Y-4263158D01*
X9741438Y-4263158D01*
X18513138Y-513138D02*
X18513138Y-286862D01*
X18286862Y-286862D01*
X18286862Y-513138D01*
X18513138Y-513138D01*
X18513138Y-6713138D02*
X18513138Y-6486862D01*
X18286862Y-6486862D01*
X18286862Y-6713138D01*
X18513138Y-6713138D01*
D11*
X255777Y-8016484D02*
X255777Y-7816484D01*
X255777Y-7816484D02*
X303396Y-7816484D01*
X303396Y-7816484D02*
X331967Y-7826008D01*
X331967Y-7826008D02*
X351015Y-7845055D01*
X351015Y-7845055D02*
X360539Y-7864103D01*
X360539Y-7864103D02*
X370062Y-7902198D01*
X370062Y-7902198D02*
X370062Y-7930769D01*
X370062Y-7930769D02*
X360539Y-7968865D01*
X360539Y-7968865D02*
X351015Y-7987912D01*
X351015Y-7987912D02*
X331967Y-8006960D01*
X331967Y-8006960D02*
X303396Y-8016484D01*
X303396Y-8016484D02*
X255777Y-8016484D01*
X455777Y-8016484D02*
X455777Y-7883150D01*
X455777Y-7921246D02*
X465301Y-7902198D01*
X465301Y-7902198D02*
X474824Y-7892674D01*
X474824Y-7892674D02*
X493872Y-7883150D01*
X493872Y-7883150D02*
X512920Y-7883150D01*
X579586Y-8016484D02*
X579586Y-7883150D01*
X579586Y-7816484D02*
X570063Y-7826008D01*
X570063Y-7826008D02*
X579586Y-7835531D01*
X579586Y-7835531D02*
X589110Y-7826008D01*
X589110Y-7826008D02*
X579586Y-7816484D01*
X579586Y-7816484D02*
X579586Y-7835531D01*
X703396Y-8016484D02*
X684348Y-8006960D01*
X684348Y-8006960D02*
X674824Y-7987912D01*
X674824Y-7987912D02*
X674824Y-7816484D01*
X808158Y-8016484D02*
X789110Y-8006960D01*
X789110Y-8006960D02*
X779586Y-7987912D01*
X779586Y-7987912D02*
X779586Y-7816484D01*
X1036729Y-8016484D02*
X1036729Y-7816484D01*
X1036729Y-7816484D02*
X1103396Y-7959341D01*
X1103396Y-7959341D02*
X1170063Y-7816484D01*
X1170063Y-7816484D02*
X1170063Y-8016484D01*
X1351015Y-8016484D02*
X1351015Y-7911722D01*
X1351015Y-7911722D02*
X1341491Y-7892674D01*
X1341491Y-7892674D02*
X1322444Y-7883150D01*
X1322444Y-7883150D02*
X1284348Y-7883150D01*
X1284348Y-7883150D02*
X1265301Y-7892674D01*
X1351015Y-8006960D02*
X1331967Y-8016484D01*
X1331967Y-8016484D02*
X1284348Y-8016484D01*
X1284348Y-8016484D02*
X1265301Y-8006960D01*
X1265301Y-8006960D02*
X1255777Y-7987912D01*
X1255777Y-7987912D02*
X1255777Y-7968865D01*
X1255777Y-7968865D02*
X1265301Y-7949817D01*
X1265301Y-7949817D02*
X1284348Y-7940293D01*
X1284348Y-7940293D02*
X1331967Y-7940293D01*
X1331967Y-7940293D02*
X1351015Y-7930769D01*
X1446253Y-7883150D02*
X1446253Y-8083150D01*
X1446253Y-7892674D02*
X1465301Y-7883150D01*
X1465301Y-7883150D02*
X1503396Y-7883150D01*
X1503396Y-7883150D02*
X1522443Y-7892674D01*
X1522443Y-7892674D02*
X1531967Y-7902198D01*
X1531967Y-7902198D02*
X1541491Y-7921246D01*
X1541491Y-7921246D02*
X1541491Y-7978388D01*
X1541491Y-7978388D02*
X1531967Y-7997436D01*
X1531967Y-7997436D02*
X1522443Y-8006960D01*
X1522443Y-8006960D02*
X1503396Y-8016484D01*
X1503396Y-8016484D02*
X1465301Y-8016484D01*
X1465301Y-8016484D02*
X1446253Y-8006960D01*
X1627205Y-7997436D02*
X1636729Y-8006960D01*
X1636729Y-8006960D02*
X1627205Y-8016484D01*
X1627205Y-8016484D02*
X1617682Y-8006960D01*
X1617682Y-8006960D02*
X1627205Y-7997436D01*
X1627205Y-7997436D02*
X1627205Y-8016484D01*
X1627205Y-7892674D02*
X1636729Y-7902198D01*
X1636729Y-7902198D02*
X1627205Y-7911722D01*
X1627205Y-7911722D02*
X1617682Y-7902198D01*
X1617682Y-7902198D02*
X1627205Y-7892674D01*
X1627205Y-7892674D02*
X1627205Y-7911722D01*
D12*
X-125000Y-8285000D02*
X-5000Y-8405000D01*
X-5000Y-8285000D02*
X-125000Y-8405000D01*
D11*
X360539Y-8436484D02*
X246253Y-8436484D01*
X303396Y-8436484D02*
X303396Y-8236484D01*
X303396Y-8236484D02*
X284348Y-8265055D01*
X284348Y-8265055D02*
X265301Y-8284103D01*
X265301Y-8284103D02*
X246253Y-8293627D01*
X446253Y-8417436D02*
X455777Y-8426960D01*
X455777Y-8426960D02*
X446253Y-8436484D01*
X446253Y-8436484D02*
X436729Y-8426960D01*
X436729Y-8426960D02*
X446253Y-8417436D01*
X446253Y-8417436D02*
X446253Y-8436484D01*
X531967Y-8255531D02*
X541491Y-8246008D01*
X541491Y-8246008D02*
X560539Y-8236484D01*
X560539Y-8236484D02*
X608158Y-8236484D01*
X608158Y-8236484D02*
X627205Y-8246008D01*
X627205Y-8246008D02*
X636729Y-8255531D01*
X636729Y-8255531D02*
X646253Y-8274579D01*
X646253Y-8274579D02*
X646253Y-8293627D01*
X646253Y-8293627D02*
X636729Y-8322198D01*
X636729Y-8322198D02*
X522443Y-8436484D01*
X522443Y-8436484D02*
X646253Y-8436484D01*
X770062Y-8236484D02*
X789110Y-8236484D01*
X789110Y-8236484D02*
X808158Y-8246008D01*
X808158Y-8246008D02*
X817682Y-8255531D01*
X817682Y-8255531D02*
X827205Y-8274579D01*
X827205Y-8274579D02*
X836729Y-8312674D01*
X836729Y-8312674D02*
X836729Y-8360293D01*
X836729Y-8360293D02*
X827205Y-8398389D01*
X827205Y-8398389D02*
X817682Y-8417436D01*
X817682Y-8417436D02*
X808158Y-8426960D01*
X808158Y-8426960D02*
X789110Y-8436484D01*
X789110Y-8436484D02*
X770062Y-8436484D01*
X770062Y-8436484D02*
X751015Y-8426960D01*
X751015Y-8426960D02*
X741491Y-8417436D01*
X741491Y-8417436D02*
X731967Y-8398389D01*
X731967Y-8398389D02*
X722443Y-8360293D01*
X722443Y-8360293D02*
X722443Y-8312674D01*
X722443Y-8312674D02*
X731967Y-8274579D01*
X731967Y-8274579D02*
X741491Y-8255531D01*
X741491Y-8255531D02*
X751015Y-8246008D01*
X751015Y-8246008D02*
X770062Y-8236484D01*
X960539Y-8236484D02*
X979586Y-8236484D01*
X979586Y-8236484D02*
X998634Y-8246008D01*
X998634Y-8246008D02*
X1008158Y-8255531D01*
X1008158Y-8255531D02*
X1017682Y-8274579D01*
X1017682Y-8274579D02*
X1027205Y-8312674D01*
X1027205Y-8312674D02*
X1027205Y-8360293D01*
X1027205Y-8360293D02*
X1017682Y-8398389D01*
X1017682Y-8398389D02*
X1008158Y-8417436D01*
X1008158Y-8417436D02*
X998634Y-8426960D01*
X998634Y-8426960D02*
X979586Y-8436484D01*
X979586Y-8436484D02*
X960539Y-8436484D01*
X960539Y-8436484D02*
X941491Y-8426960D01*
X941491Y-8426960D02*
X931967Y-8417436D01*
X931967Y-8417436D02*
X922443Y-8398389D01*
X922443Y-8398389D02*
X912920Y-8360293D01*
X912920Y-8360293D02*
X912920Y-8312674D01*
X912920Y-8312674D02*
X922443Y-8274579D01*
X922443Y-8274579D02*
X931967Y-8255531D01*
X931967Y-8255531D02*
X941491Y-8246008D01*
X941491Y-8246008D02*
X960539Y-8236484D01*
X1112920Y-8436484D02*
X1112920Y-8303150D01*
X1112920Y-8322198D02*
X1122444Y-8312674D01*
X1122444Y-8312674D02*
X1141491Y-8303150D01*
X1141491Y-8303150D02*
X1170063Y-8303150D01*
X1170063Y-8303150D02*
X1189110Y-8312674D01*
X1189110Y-8312674D02*
X1198634Y-8331722D01*
X1198634Y-8331722D02*
X1198634Y-8436484D01*
X1198634Y-8331722D02*
X1208158Y-8312674D01*
X1208158Y-8312674D02*
X1227205Y-8303150D01*
X1227205Y-8303150D02*
X1255777Y-8303150D01*
X1255777Y-8303150D02*
X1274825Y-8312674D01*
X1274825Y-8312674D02*
X1284348Y-8331722D01*
X1284348Y-8331722D02*
X1284348Y-8436484D01*
X1379586Y-8436484D02*
X1379586Y-8303150D01*
X1379586Y-8322198D02*
X1389110Y-8312674D01*
X1389110Y-8312674D02*
X1408158Y-8303150D01*
X1408158Y-8303150D02*
X1436729Y-8303150D01*
X1436729Y-8303150D02*
X1455777Y-8312674D01*
X1455777Y-8312674D02*
X1465301Y-8331722D01*
X1465301Y-8331722D02*
X1465301Y-8436484D01*
X1465301Y-8331722D02*
X1474824Y-8312674D01*
X1474824Y-8312674D02*
X1493872Y-8303150D01*
X1493872Y-8303150D02*
X1522443Y-8303150D01*
X1522443Y-8303150D02*
X1541491Y-8312674D01*
X1541491Y-8312674D02*
X1551015Y-8331722D01*
X1551015Y-8331722D02*
X1551015Y-8436484D01*
X1941491Y-8226960D02*
X1770063Y-8484103D01*
X2198634Y-8236484D02*
X2217682Y-8236484D01*
X2217682Y-8236484D02*
X2236729Y-8246008D01*
X2236729Y-8246008D02*
X2246253Y-8255531D01*
X2246253Y-8255531D02*
X2255777Y-8274579D01*
X2255777Y-8274579D02*
X2265301Y-8312674D01*
X2265301Y-8312674D02*
X2265301Y-8360293D01*
X2265301Y-8360293D02*
X2255777Y-8398389D01*
X2255777Y-8398389D02*
X2246253Y-8417436D01*
X2246253Y-8417436D02*
X2236729Y-8426960D01*
X2236729Y-8426960D02*
X2217682Y-8436484D01*
X2217682Y-8436484D02*
X2198634Y-8436484D01*
X2198634Y-8436484D02*
X2179587Y-8426960D01*
X2179587Y-8426960D02*
X2170063Y-8417436D01*
X2170063Y-8417436D02*
X2160539Y-8398389D01*
X2160539Y-8398389D02*
X2151015Y-8360293D01*
X2151015Y-8360293D02*
X2151015Y-8312674D01*
X2151015Y-8312674D02*
X2160539Y-8274579D01*
X2160539Y-8274579D02*
X2170063Y-8255531D01*
X2170063Y-8255531D02*
X2179587Y-8246008D01*
X2179587Y-8246008D02*
X2198634Y-8236484D01*
X2351015Y-8417436D02*
X2360539Y-8426960D01*
X2360539Y-8426960D02*
X2351015Y-8436484D01*
X2351015Y-8436484D02*
X2341491Y-8426960D01*
X2341491Y-8426960D02*
X2351015Y-8417436D01*
X2351015Y-8417436D02*
X2351015Y-8436484D01*
X2484348Y-8236484D02*
X2503396Y-8236484D01*
X2503396Y-8236484D02*
X2522444Y-8246008D01*
X2522444Y-8246008D02*
X2531968Y-8255531D01*
X2531968Y-8255531D02*
X2541491Y-8274579D01*
X2541491Y-8274579D02*
X2551015Y-8312674D01*
X2551015Y-8312674D02*
X2551015Y-8360293D01*
X2551015Y-8360293D02*
X2541491Y-8398389D01*
X2541491Y-8398389D02*
X2531968Y-8417436D01*
X2531968Y-8417436D02*
X2522444Y-8426960D01*
X2522444Y-8426960D02*
X2503396Y-8436484D01*
X2503396Y-8436484D02*
X2484348Y-8436484D01*
X2484348Y-8436484D02*
X2465301Y-8426960D01*
X2465301Y-8426960D02*
X2455777Y-8417436D01*
X2455777Y-8417436D02*
X2446253Y-8398389D01*
X2446253Y-8398389D02*
X2436729Y-8360293D01*
X2436729Y-8360293D02*
X2436729Y-8312674D01*
X2436729Y-8312674D02*
X2446253Y-8274579D01*
X2446253Y-8274579D02*
X2455777Y-8255531D01*
X2455777Y-8255531D02*
X2465301Y-8246008D01*
X2465301Y-8246008D02*
X2484348Y-8236484D01*
X2722444Y-8303150D02*
X2722444Y-8436484D01*
X2674825Y-8226960D02*
X2627206Y-8369817D01*
X2627206Y-8369817D02*
X2751015Y-8369817D01*
X2808158Y-8236484D02*
X2941491Y-8236484D01*
X2941491Y-8236484D02*
X2855777Y-8436484D01*
X3008158Y-8255531D02*
X3017682Y-8246008D01*
X3017682Y-8246008D02*
X3036729Y-8236484D01*
X3036729Y-8236484D02*
X3084348Y-8236484D01*
X3084348Y-8236484D02*
X3103396Y-8246008D01*
X3103396Y-8246008D02*
X3112920Y-8255531D01*
X3112920Y-8255531D02*
X3122444Y-8274579D01*
X3122444Y-8274579D02*
X3122444Y-8293627D01*
X3122444Y-8293627D02*
X3112920Y-8322198D01*
X3112920Y-8322198D02*
X2998634Y-8436484D01*
X2998634Y-8436484D02*
X3122444Y-8436484D01*
X3198634Y-8236484D02*
X3198634Y-8274579D01*
X3274825Y-8236484D02*
X3274825Y-8274579D01*
X3570063Y-8512674D02*
X3560539Y-8503150D01*
X3560539Y-8503150D02*
X3541491Y-8474579D01*
X3541491Y-8474579D02*
X3531968Y-8455531D01*
X3531968Y-8455531D02*
X3522444Y-8426960D01*
X3522444Y-8426960D02*
X3512920Y-8379341D01*
X3512920Y-8379341D02*
X3512920Y-8341246D01*
X3512920Y-8341246D02*
X3522444Y-8293627D01*
X3522444Y-8293627D02*
X3531968Y-8265055D01*
X3531968Y-8265055D02*
X3541491Y-8246008D01*
X3541491Y-8246008D02*
X3560539Y-8217436D01*
X3560539Y-8217436D02*
X3570063Y-8207912D01*
X3751015Y-8436484D02*
X3636729Y-8436484D01*
X3693872Y-8436484D02*
X3693872Y-8236484D01*
X3693872Y-8236484D02*
X3674825Y-8265055D01*
X3674825Y-8265055D02*
X3655777Y-8284103D01*
X3655777Y-8284103D02*
X3636729Y-8293627D01*
X3827206Y-8255531D02*
X3836729Y-8246008D01*
X3836729Y-8246008D02*
X3855777Y-8236484D01*
X3855777Y-8236484D02*
X3903396Y-8236484D01*
X3903396Y-8236484D02*
X3922444Y-8246008D01*
X3922444Y-8246008D02*
X3931968Y-8255531D01*
X3931968Y-8255531D02*
X3941491Y-8274579D01*
X3941491Y-8274579D02*
X3941491Y-8293627D01*
X3941491Y-8293627D02*
X3931968Y-8322198D01*
X3931968Y-8322198D02*
X3817682Y-8436484D01*
X3817682Y-8436484D02*
X3941491Y-8436484D01*
X4179587Y-8436484D02*
X4179587Y-8236484D01*
X4265301Y-8436484D02*
X4265301Y-8331722D01*
X4265301Y-8331722D02*
X4255777Y-8312674D01*
X4255777Y-8312674D02*
X4236730Y-8303150D01*
X4236730Y-8303150D02*
X4208158Y-8303150D01*
X4208158Y-8303150D02*
X4189110Y-8312674D01*
X4189110Y-8312674D02*
X4179587Y-8322198D01*
X4389111Y-8436484D02*
X4370063Y-8426960D01*
X4370063Y-8426960D02*
X4360539Y-8417436D01*
X4360539Y-8417436D02*
X4351015Y-8398389D01*
X4351015Y-8398389D02*
X4351015Y-8341246D01*
X4351015Y-8341246D02*
X4360539Y-8322198D01*
X4360539Y-8322198D02*
X4370063Y-8312674D01*
X4370063Y-8312674D02*
X4389111Y-8303150D01*
X4389111Y-8303150D02*
X4417682Y-8303150D01*
X4417682Y-8303150D02*
X4436730Y-8312674D01*
X4436730Y-8312674D02*
X4446253Y-8322198D01*
X4446253Y-8322198D02*
X4455777Y-8341246D01*
X4455777Y-8341246D02*
X4455777Y-8398389D01*
X4455777Y-8398389D02*
X4446253Y-8417436D01*
X4446253Y-8417436D02*
X4436730Y-8426960D01*
X4436730Y-8426960D02*
X4417682Y-8436484D01*
X4417682Y-8436484D02*
X4389111Y-8436484D01*
X4570063Y-8436484D02*
X4551015Y-8426960D01*
X4551015Y-8426960D02*
X4541492Y-8407912D01*
X4541492Y-8407912D02*
X4541492Y-8236484D01*
X4722444Y-8426960D02*
X4703396Y-8436484D01*
X4703396Y-8436484D02*
X4665301Y-8436484D01*
X4665301Y-8436484D02*
X4646253Y-8426960D01*
X4646253Y-8426960D02*
X4636730Y-8407912D01*
X4636730Y-8407912D02*
X4636730Y-8331722D01*
X4636730Y-8331722D02*
X4646253Y-8312674D01*
X4646253Y-8312674D02*
X4665301Y-8303150D01*
X4665301Y-8303150D02*
X4703396Y-8303150D01*
X4703396Y-8303150D02*
X4722444Y-8312674D01*
X4722444Y-8312674D02*
X4731968Y-8331722D01*
X4731968Y-8331722D02*
X4731968Y-8350769D01*
X4731968Y-8350769D02*
X4636730Y-8369817D01*
X4808158Y-8426960D02*
X4827206Y-8436484D01*
X4827206Y-8436484D02*
X4865301Y-8436484D01*
X4865301Y-8436484D02*
X4884349Y-8426960D01*
X4884349Y-8426960D02*
X4893873Y-8407912D01*
X4893873Y-8407912D02*
X4893873Y-8398389D01*
X4893873Y-8398389D02*
X4884349Y-8379341D01*
X4884349Y-8379341D02*
X4865301Y-8369817D01*
X4865301Y-8369817D02*
X4836730Y-8369817D01*
X4836730Y-8369817D02*
X4817682Y-8360293D01*
X4817682Y-8360293D02*
X4808158Y-8341246D01*
X4808158Y-8341246D02*
X4808158Y-8331722D01*
X4808158Y-8331722D02*
X4817682Y-8312674D01*
X4817682Y-8312674D02*
X4836730Y-8303150D01*
X4836730Y-8303150D02*
X4865301Y-8303150D01*
X4865301Y-8303150D02*
X4884349Y-8312674D01*
X4960539Y-8512674D02*
X4970063Y-8503150D01*
X4970063Y-8503150D02*
X4989111Y-8474579D01*
X4989111Y-8474579D02*
X4998634Y-8455531D01*
X4998634Y-8455531D02*
X5008158Y-8426960D01*
X5008158Y-8426960D02*
X5017682Y-8379341D01*
X5017682Y-8379341D02*
X5017682Y-8341246D01*
X5017682Y-8341246D02*
X5008158Y-8293627D01*
X5008158Y-8293627D02*
X4998634Y-8265055D01*
X4998634Y-8265055D02*
X4989111Y-8246008D01*
X4989111Y-8246008D02*
X4970063Y-8217436D01*
X4970063Y-8217436D02*
X4960539Y-8207912D01*
X5322444Y-8512674D02*
X5312920Y-8503150D01*
X5312920Y-8503150D02*
X5293873Y-8474579D01*
X5293873Y-8474579D02*
X5284349Y-8455531D01*
X5284349Y-8455531D02*
X5274825Y-8426960D01*
X5274825Y-8426960D02*
X5265301Y-8379341D01*
X5265301Y-8379341D02*
X5265301Y-8341246D01*
X5265301Y-8341246D02*
X5274825Y-8293627D01*
X5274825Y-8293627D02*
X5284349Y-8265055D01*
X5284349Y-8265055D02*
X5293873Y-8246008D01*
X5293873Y-8246008D02*
X5312920Y-8217436D01*
X5312920Y-8217436D02*
X5322444Y-8207912D01*
X5398634Y-8303150D02*
X5398634Y-8436484D01*
X5398634Y-8322198D02*
X5408158Y-8312674D01*
X5408158Y-8312674D02*
X5427206Y-8303150D01*
X5427206Y-8303150D02*
X5455777Y-8303150D01*
X5455777Y-8303150D02*
X5474825Y-8312674D01*
X5474825Y-8312674D02*
X5484349Y-8331722D01*
X5484349Y-8331722D02*
X5484349Y-8436484D01*
X5608158Y-8436484D02*
X5589111Y-8426960D01*
X5589111Y-8426960D02*
X5579587Y-8417436D01*
X5579587Y-8417436D02*
X5570063Y-8398389D01*
X5570063Y-8398389D02*
X5570063Y-8341246D01*
X5570063Y-8341246D02*
X5579587Y-8322198D01*
X5579587Y-8322198D02*
X5589111Y-8312674D01*
X5589111Y-8312674D02*
X5608158Y-8303150D01*
X5608158Y-8303150D02*
X5636730Y-8303150D01*
X5636730Y-8303150D02*
X5655777Y-8312674D01*
X5655777Y-8312674D02*
X5665301Y-8322198D01*
X5665301Y-8322198D02*
X5674825Y-8341246D01*
X5674825Y-8341246D02*
X5674825Y-8398389D01*
X5674825Y-8398389D02*
X5665301Y-8417436D01*
X5665301Y-8417436D02*
X5655777Y-8426960D01*
X5655777Y-8426960D02*
X5636730Y-8436484D01*
X5636730Y-8436484D02*
X5608158Y-8436484D01*
X5731968Y-8303150D02*
X5808158Y-8303150D01*
X5760539Y-8236484D02*
X5760539Y-8407912D01*
X5760539Y-8407912D02*
X5770063Y-8426960D01*
X5770063Y-8426960D02*
X5789111Y-8436484D01*
X5789111Y-8436484D02*
X5808158Y-8436484D01*
X6027206Y-8303150D02*
X6027206Y-8503150D01*
X6027206Y-8312674D02*
X6046253Y-8303150D01*
X6046253Y-8303150D02*
X6084349Y-8303150D01*
X6084349Y-8303150D02*
X6103396Y-8312674D01*
X6103396Y-8312674D02*
X6112920Y-8322198D01*
X6112920Y-8322198D02*
X6122444Y-8341246D01*
X6122444Y-8341246D02*
X6122444Y-8398389D01*
X6122444Y-8398389D02*
X6112920Y-8417436D01*
X6112920Y-8417436D02*
X6103396Y-8426960D01*
X6103396Y-8426960D02*
X6084349Y-8436484D01*
X6084349Y-8436484D02*
X6046253Y-8436484D01*
X6046253Y-8436484D02*
X6027206Y-8426960D01*
X6236730Y-8436484D02*
X6217682Y-8426960D01*
X6217682Y-8426960D02*
X6208158Y-8407912D01*
X6208158Y-8407912D02*
X6208158Y-8236484D01*
X6398634Y-8436484D02*
X6398634Y-8331722D01*
X6398634Y-8331722D02*
X6389111Y-8312674D01*
X6389111Y-8312674D02*
X6370063Y-8303150D01*
X6370063Y-8303150D02*
X6331968Y-8303150D01*
X6331968Y-8303150D02*
X6312920Y-8312674D01*
X6398634Y-8426960D02*
X6379587Y-8436484D01*
X6379587Y-8436484D02*
X6331968Y-8436484D01*
X6331968Y-8436484D02*
X6312920Y-8426960D01*
X6312920Y-8426960D02*
X6303396Y-8407912D01*
X6303396Y-8407912D02*
X6303396Y-8388865D01*
X6303396Y-8388865D02*
X6312920Y-8369817D01*
X6312920Y-8369817D02*
X6331968Y-8360293D01*
X6331968Y-8360293D02*
X6379587Y-8360293D01*
X6379587Y-8360293D02*
X6398634Y-8350769D01*
X6465301Y-8303150D02*
X6541492Y-8303150D01*
X6493873Y-8236484D02*
X6493873Y-8407912D01*
X6493873Y-8407912D02*
X6503396Y-8426960D01*
X6503396Y-8426960D02*
X6522444Y-8436484D01*
X6522444Y-8436484D02*
X6541492Y-8436484D01*
X6684349Y-8426960D02*
X6665301Y-8436484D01*
X6665301Y-8436484D02*
X6627206Y-8436484D01*
X6627206Y-8436484D02*
X6608158Y-8426960D01*
X6608158Y-8426960D02*
X6598634Y-8407912D01*
X6598634Y-8407912D02*
X6598634Y-8331722D01*
X6598634Y-8331722D02*
X6608158Y-8312674D01*
X6608158Y-8312674D02*
X6627206Y-8303150D01*
X6627206Y-8303150D02*
X6665301Y-8303150D01*
X6665301Y-8303150D02*
X6684349Y-8312674D01*
X6684349Y-8312674D02*
X6693873Y-8331722D01*
X6693873Y-8331722D02*
X6693873Y-8350769D01*
X6693873Y-8350769D02*
X6598634Y-8369817D01*
X6865301Y-8436484D02*
X6865301Y-8236484D01*
X6865301Y-8426960D02*
X6846254Y-8436484D01*
X6846254Y-8436484D02*
X6808158Y-8436484D01*
X6808158Y-8436484D02*
X6789111Y-8426960D01*
X6789111Y-8426960D02*
X6779587Y-8417436D01*
X6779587Y-8417436D02*
X6770063Y-8398389D01*
X6770063Y-8398389D02*
X6770063Y-8341246D01*
X6770063Y-8341246D02*
X6779587Y-8322198D01*
X6779587Y-8322198D02*
X6789111Y-8312674D01*
X6789111Y-8312674D02*
X6808158Y-8303150D01*
X6808158Y-8303150D02*
X6846254Y-8303150D01*
X6846254Y-8303150D02*
X6865301Y-8312674D01*
X6941492Y-8512674D02*
X6951015Y-8503150D01*
X6951015Y-8503150D02*
X6970063Y-8474579D01*
X6970063Y-8474579D02*
X6979587Y-8455531D01*
X6979587Y-8455531D02*
X6989111Y-8426960D01*
X6989111Y-8426960D02*
X6998634Y-8379341D01*
X6998634Y-8379341D02*
X6998634Y-8341246D01*
X6998634Y-8341246D02*
X6989111Y-8293627D01*
X6989111Y-8293627D02*
X6979587Y-8265055D01*
X6979587Y-8265055D02*
X6970063Y-8246008D01*
X6970063Y-8246008D02*
X6951015Y-8217436D01*
X6951015Y-8217436D02*
X6941492Y-8207912D01*
D13*
X-5000Y-8609000D02*
G75*
G02*
X-135000Y-8609000I-65000J0D01*
G01*
X-135000Y-8609000D02*
G75*
G02*
X-5000Y-8609000I65000J0D01*
G01*
D11*
X360539Y-8700484D02*
X246253Y-8700484D01*
X303396Y-8700484D02*
X303396Y-8500484D01*
X303396Y-8500484D02*
X284348Y-8529055D01*
X284348Y-8529055D02*
X265301Y-8548103D01*
X265301Y-8548103D02*
X246253Y-8557627D01*
X446253Y-8681436D02*
X455777Y-8690960D01*
X455777Y-8690960D02*
X446253Y-8700484D01*
X446253Y-8700484D02*
X436729Y-8690960D01*
X436729Y-8690960D02*
X446253Y-8681436D01*
X446253Y-8681436D02*
X446253Y-8700484D01*
X522443Y-8500484D02*
X646253Y-8500484D01*
X646253Y-8500484D02*
X579586Y-8576674D01*
X579586Y-8576674D02*
X608158Y-8576674D01*
X608158Y-8576674D02*
X627205Y-8586198D01*
X627205Y-8586198D02*
X636729Y-8595722D01*
X636729Y-8595722D02*
X646253Y-8614770D01*
X646253Y-8614770D02*
X646253Y-8662389D01*
X646253Y-8662389D02*
X636729Y-8681436D01*
X636729Y-8681436D02*
X627205Y-8690960D01*
X627205Y-8690960D02*
X608158Y-8700484D01*
X608158Y-8700484D02*
X551015Y-8700484D01*
X551015Y-8700484D02*
X531967Y-8690960D01*
X531967Y-8690960D02*
X522443Y-8681436D01*
X770062Y-8500484D02*
X789110Y-8500484D01*
X789110Y-8500484D02*
X808158Y-8510008D01*
X808158Y-8510008D02*
X817682Y-8519531D01*
X817682Y-8519531D02*
X827205Y-8538579D01*
X827205Y-8538579D02*
X836729Y-8576674D01*
X836729Y-8576674D02*
X836729Y-8624293D01*
X836729Y-8624293D02*
X827205Y-8662389D01*
X827205Y-8662389D02*
X817682Y-8681436D01*
X817682Y-8681436D02*
X808158Y-8690960D01*
X808158Y-8690960D02*
X789110Y-8700484D01*
X789110Y-8700484D02*
X770062Y-8700484D01*
X770062Y-8700484D02*
X751015Y-8690960D01*
X751015Y-8690960D02*
X741491Y-8681436D01*
X741491Y-8681436D02*
X731967Y-8662389D01*
X731967Y-8662389D02*
X722443Y-8624293D01*
X722443Y-8624293D02*
X722443Y-8576674D01*
X722443Y-8576674D02*
X731967Y-8538579D01*
X731967Y-8538579D02*
X741491Y-8519531D01*
X741491Y-8519531D02*
X751015Y-8510008D01*
X751015Y-8510008D02*
X770062Y-8500484D01*
X960539Y-8500484D02*
X979586Y-8500484D01*
X979586Y-8500484D02*
X998634Y-8510008D01*
X998634Y-8510008D02*
X1008158Y-8519531D01*
X1008158Y-8519531D02*
X1017682Y-8538579D01*
X1017682Y-8538579D02*
X1027205Y-8576674D01*
X1027205Y-8576674D02*
X1027205Y-8624293D01*
X1027205Y-8624293D02*
X1017682Y-8662389D01*
X1017682Y-8662389D02*
X1008158Y-8681436D01*
X1008158Y-8681436D02*
X998634Y-8690960D01*
X998634Y-8690960D02*
X979586Y-8700484D01*
X979586Y-8700484D02*
X960539Y-8700484D01*
X960539Y-8700484D02*
X941491Y-8690960D01*
X941491Y-8690960D02*
X931967Y-8681436D01*
X931967Y-8681436D02*
X922443Y-8662389D01*
X922443Y-8662389D02*
X912920Y-8624293D01*
X912920Y-8624293D02*
X912920Y-8576674D01*
X912920Y-8576674D02*
X922443Y-8538579D01*
X922443Y-8538579D02*
X931967Y-8519531D01*
X931967Y-8519531D02*
X941491Y-8510008D01*
X941491Y-8510008D02*
X960539Y-8500484D01*
X1112920Y-8700484D02*
X1112920Y-8567150D01*
X1112920Y-8586198D02*
X1122444Y-8576674D01*
X1122444Y-8576674D02*
X1141491Y-8567150D01*
X1141491Y-8567150D02*
X1170063Y-8567150D01*
X1170063Y-8567150D02*
X1189110Y-8576674D01*
X1189110Y-8576674D02*
X1198634Y-8595722D01*
X1198634Y-8595722D02*
X1198634Y-8700484D01*
X1198634Y-8595722D02*
X1208158Y-8576674D01*
X1208158Y-8576674D02*
X1227205Y-8567150D01*
X1227205Y-8567150D02*
X1255777Y-8567150D01*
X1255777Y-8567150D02*
X1274825Y-8576674D01*
X1274825Y-8576674D02*
X1284348Y-8595722D01*
X1284348Y-8595722D02*
X1284348Y-8700484D01*
X1379586Y-8700484D02*
X1379586Y-8567150D01*
X1379586Y-8586198D02*
X1389110Y-8576674D01*
X1389110Y-8576674D02*
X1408158Y-8567150D01*
X1408158Y-8567150D02*
X1436729Y-8567150D01*
X1436729Y-8567150D02*
X1455777Y-8576674D01*
X1455777Y-8576674D02*
X1465301Y-8595722D01*
X1465301Y-8595722D02*
X1465301Y-8700484D01*
X1465301Y-8595722D02*
X1474824Y-8576674D01*
X1474824Y-8576674D02*
X1493872Y-8567150D01*
X1493872Y-8567150D02*
X1522443Y-8567150D01*
X1522443Y-8567150D02*
X1541491Y-8576674D01*
X1541491Y-8576674D02*
X1551015Y-8595722D01*
X1551015Y-8595722D02*
X1551015Y-8700484D01*
X1941491Y-8490960D02*
X1770063Y-8748103D01*
X2198634Y-8500484D02*
X2217682Y-8500484D01*
X2217682Y-8500484D02*
X2236729Y-8510008D01*
X2236729Y-8510008D02*
X2246253Y-8519531D01*
X2246253Y-8519531D02*
X2255777Y-8538579D01*
X2255777Y-8538579D02*
X2265301Y-8576674D01*
X2265301Y-8576674D02*
X2265301Y-8624293D01*
X2265301Y-8624293D02*
X2255777Y-8662389D01*
X2255777Y-8662389D02*
X2246253Y-8681436D01*
X2246253Y-8681436D02*
X2236729Y-8690960D01*
X2236729Y-8690960D02*
X2217682Y-8700484D01*
X2217682Y-8700484D02*
X2198634Y-8700484D01*
X2198634Y-8700484D02*
X2179587Y-8690960D01*
X2179587Y-8690960D02*
X2170063Y-8681436D01*
X2170063Y-8681436D02*
X2160539Y-8662389D01*
X2160539Y-8662389D02*
X2151015Y-8624293D01*
X2151015Y-8624293D02*
X2151015Y-8576674D01*
X2151015Y-8576674D02*
X2160539Y-8538579D01*
X2160539Y-8538579D02*
X2170063Y-8519531D01*
X2170063Y-8519531D02*
X2179587Y-8510008D01*
X2179587Y-8510008D02*
X2198634Y-8500484D01*
X2351015Y-8681436D02*
X2360539Y-8690960D01*
X2360539Y-8690960D02*
X2351015Y-8700484D01*
X2351015Y-8700484D02*
X2341491Y-8690960D01*
X2341491Y-8690960D02*
X2351015Y-8681436D01*
X2351015Y-8681436D02*
X2351015Y-8700484D01*
X2484348Y-8500484D02*
X2503396Y-8500484D01*
X2503396Y-8500484D02*
X2522444Y-8510008D01*
X2522444Y-8510008D02*
X2531968Y-8519531D01*
X2531968Y-8519531D02*
X2541491Y-8538579D01*
X2541491Y-8538579D02*
X2551015Y-8576674D01*
X2551015Y-8576674D02*
X2551015Y-8624293D01*
X2551015Y-8624293D02*
X2541491Y-8662389D01*
X2541491Y-8662389D02*
X2531968Y-8681436D01*
X2531968Y-8681436D02*
X2522444Y-8690960D01*
X2522444Y-8690960D02*
X2503396Y-8700484D01*
X2503396Y-8700484D02*
X2484348Y-8700484D01*
X2484348Y-8700484D02*
X2465301Y-8690960D01*
X2465301Y-8690960D02*
X2455777Y-8681436D01*
X2455777Y-8681436D02*
X2446253Y-8662389D01*
X2446253Y-8662389D02*
X2436729Y-8624293D01*
X2436729Y-8624293D02*
X2436729Y-8576674D01*
X2436729Y-8576674D02*
X2446253Y-8538579D01*
X2446253Y-8538579D02*
X2455777Y-8519531D01*
X2455777Y-8519531D02*
X2465301Y-8510008D01*
X2465301Y-8510008D02*
X2484348Y-8500484D01*
X2731968Y-8500484D02*
X2636729Y-8500484D01*
X2636729Y-8500484D02*
X2627206Y-8595722D01*
X2627206Y-8595722D02*
X2636729Y-8586198D01*
X2636729Y-8586198D02*
X2655777Y-8576674D01*
X2655777Y-8576674D02*
X2703396Y-8576674D01*
X2703396Y-8576674D02*
X2722444Y-8586198D01*
X2722444Y-8586198D02*
X2731968Y-8595722D01*
X2731968Y-8595722D02*
X2741491Y-8614770D01*
X2741491Y-8614770D02*
X2741491Y-8662389D01*
X2741491Y-8662389D02*
X2731968Y-8681436D01*
X2731968Y-8681436D02*
X2722444Y-8690960D01*
X2722444Y-8690960D02*
X2703396Y-8700484D01*
X2703396Y-8700484D02*
X2655777Y-8700484D01*
X2655777Y-8700484D02*
X2636729Y-8690960D01*
X2636729Y-8690960D02*
X2627206Y-8681436D01*
X2931967Y-8700484D02*
X2817682Y-8700484D01*
X2874825Y-8700484D02*
X2874825Y-8500484D01*
X2874825Y-8500484D02*
X2855777Y-8529055D01*
X2855777Y-8529055D02*
X2836729Y-8548103D01*
X2836729Y-8548103D02*
X2817682Y-8557627D01*
X3008158Y-8519531D02*
X3017682Y-8510008D01*
X3017682Y-8510008D02*
X3036729Y-8500484D01*
X3036729Y-8500484D02*
X3084348Y-8500484D01*
X3084348Y-8500484D02*
X3103396Y-8510008D01*
X3103396Y-8510008D02*
X3112920Y-8519531D01*
X3112920Y-8519531D02*
X3122444Y-8538579D01*
X3122444Y-8538579D02*
X3122444Y-8557627D01*
X3122444Y-8557627D02*
X3112920Y-8586198D01*
X3112920Y-8586198D02*
X2998634Y-8700484D01*
X2998634Y-8700484D02*
X3122444Y-8700484D01*
X3198634Y-8500484D02*
X3198634Y-8538579D01*
X3274825Y-8500484D02*
X3274825Y-8538579D01*
X3570063Y-8776674D02*
X3560539Y-8767150D01*
X3560539Y-8767150D02*
X3541491Y-8738579D01*
X3541491Y-8738579D02*
X3531968Y-8719531D01*
X3531968Y-8719531D02*
X3522444Y-8690960D01*
X3522444Y-8690960D02*
X3512920Y-8643341D01*
X3512920Y-8643341D02*
X3512920Y-8605246D01*
X3512920Y-8605246D02*
X3522444Y-8557627D01*
X3522444Y-8557627D02*
X3531968Y-8529055D01*
X3531968Y-8529055D02*
X3541491Y-8510008D01*
X3541491Y-8510008D02*
X3560539Y-8481436D01*
X3560539Y-8481436D02*
X3570063Y-8471912D01*
X3731968Y-8567150D02*
X3731968Y-8700484D01*
X3684348Y-8490960D02*
X3636729Y-8633817D01*
X3636729Y-8633817D02*
X3760539Y-8633817D01*
X3989110Y-8700484D02*
X3989110Y-8500484D01*
X4074825Y-8700484D02*
X4074825Y-8595722D01*
X4074825Y-8595722D02*
X4065301Y-8576674D01*
X4065301Y-8576674D02*
X4046253Y-8567150D01*
X4046253Y-8567150D02*
X4017682Y-8567150D01*
X4017682Y-8567150D02*
X3998634Y-8576674D01*
X3998634Y-8576674D02*
X3989110Y-8586198D01*
X4198634Y-8700484D02*
X4179587Y-8690960D01*
X4179587Y-8690960D02*
X4170063Y-8681436D01*
X4170063Y-8681436D02*
X4160539Y-8662389D01*
X4160539Y-8662389D02*
X4160539Y-8605246D01*
X4160539Y-8605246D02*
X4170063Y-8586198D01*
X4170063Y-8586198D02*
X4179587Y-8576674D01*
X4179587Y-8576674D02*
X4198634Y-8567150D01*
X4198634Y-8567150D02*
X4227206Y-8567150D01*
X4227206Y-8567150D02*
X4246253Y-8576674D01*
X4246253Y-8576674D02*
X4255777Y-8586198D01*
X4255777Y-8586198D02*
X4265301Y-8605246D01*
X4265301Y-8605246D02*
X4265301Y-8662389D01*
X4265301Y-8662389D02*
X4255777Y-8681436D01*
X4255777Y-8681436D02*
X4246253Y-8690960D01*
X4246253Y-8690960D02*
X4227206Y-8700484D01*
X4227206Y-8700484D02*
X4198634Y-8700484D01*
X4379587Y-8700484D02*
X4360539Y-8690960D01*
X4360539Y-8690960D02*
X4351015Y-8671912D01*
X4351015Y-8671912D02*
X4351015Y-8500484D01*
X4531968Y-8690960D02*
X4512920Y-8700484D01*
X4512920Y-8700484D02*
X4474825Y-8700484D01*
X4474825Y-8700484D02*
X4455777Y-8690960D01*
X4455777Y-8690960D02*
X4446253Y-8671912D01*
X4446253Y-8671912D02*
X4446253Y-8595722D01*
X4446253Y-8595722D02*
X4455777Y-8576674D01*
X4455777Y-8576674D02*
X4474825Y-8567150D01*
X4474825Y-8567150D02*
X4512920Y-8567150D01*
X4512920Y-8567150D02*
X4531968Y-8576674D01*
X4531968Y-8576674D02*
X4541492Y-8595722D01*
X4541492Y-8595722D02*
X4541492Y-8614770D01*
X4541492Y-8614770D02*
X4446253Y-8633817D01*
X4617682Y-8690960D02*
X4636730Y-8700484D01*
X4636730Y-8700484D02*
X4674825Y-8700484D01*
X4674825Y-8700484D02*
X4693873Y-8690960D01*
X4693873Y-8690960D02*
X4703396Y-8671912D01*
X4703396Y-8671912D02*
X4703396Y-8662389D01*
X4703396Y-8662389D02*
X4693873Y-8643341D01*
X4693873Y-8643341D02*
X4674825Y-8633817D01*
X4674825Y-8633817D02*
X4646253Y-8633817D01*
X4646253Y-8633817D02*
X4627206Y-8624293D01*
X4627206Y-8624293D02*
X4617682Y-8605246D01*
X4617682Y-8605246D02*
X4617682Y-8595722D01*
X4617682Y-8595722D02*
X4627206Y-8576674D01*
X4627206Y-8576674D02*
X4646253Y-8567150D01*
X4646253Y-8567150D02*
X4674825Y-8567150D01*
X4674825Y-8567150D02*
X4693873Y-8576674D01*
X4770063Y-8776674D02*
X4779587Y-8767150D01*
X4779587Y-8767150D02*
X4798634Y-8738579D01*
X4798634Y-8738579D02*
X4808158Y-8719531D01*
X4808158Y-8719531D02*
X4817682Y-8690960D01*
X4817682Y-8690960D02*
X4827206Y-8643341D01*
X4827206Y-8643341D02*
X4827206Y-8605246D01*
X4827206Y-8605246D02*
X4817682Y-8557627D01*
X4817682Y-8557627D02*
X4808158Y-8529055D01*
X4808158Y-8529055D02*
X4798634Y-8510008D01*
X4798634Y-8510008D02*
X4779587Y-8481436D01*
X4779587Y-8481436D02*
X4770063Y-8471912D01*
X5131968Y-8776674D02*
X5122444Y-8767150D01*
X5122444Y-8767150D02*
X5103396Y-8738579D01*
X5103396Y-8738579D02*
X5093873Y-8719531D01*
X5093873Y-8719531D02*
X5084349Y-8690960D01*
X5084349Y-8690960D02*
X5074825Y-8643341D01*
X5074825Y-8643341D02*
X5074825Y-8605246D01*
X5074825Y-8605246D02*
X5084349Y-8557627D01*
X5084349Y-8557627D02*
X5093873Y-8529055D01*
X5093873Y-8529055D02*
X5103396Y-8510008D01*
X5103396Y-8510008D02*
X5122444Y-8481436D01*
X5122444Y-8481436D02*
X5131968Y-8471912D01*
X5208158Y-8567150D02*
X5208158Y-8700484D01*
X5208158Y-8586198D02*
X5217682Y-8576674D01*
X5217682Y-8576674D02*
X5236730Y-8567150D01*
X5236730Y-8567150D02*
X5265301Y-8567150D01*
X5265301Y-8567150D02*
X5284349Y-8576674D01*
X5284349Y-8576674D02*
X5293873Y-8595722D01*
X5293873Y-8595722D02*
X5293873Y-8700484D01*
X5417682Y-8700484D02*
X5398634Y-8690960D01*
X5398634Y-8690960D02*
X5389111Y-8681436D01*
X5389111Y-8681436D02*
X5379587Y-8662389D01*
X5379587Y-8662389D02*
X5379587Y-8605246D01*
X5379587Y-8605246D02*
X5389111Y-8586198D01*
X5389111Y-8586198D02*
X5398634Y-8576674D01*
X5398634Y-8576674D02*
X5417682Y-8567150D01*
X5417682Y-8567150D02*
X5446254Y-8567150D01*
X5446254Y-8567150D02*
X5465301Y-8576674D01*
X5465301Y-8576674D02*
X5474825Y-8586198D01*
X5474825Y-8586198D02*
X5484349Y-8605246D01*
X5484349Y-8605246D02*
X5484349Y-8662389D01*
X5484349Y-8662389D02*
X5474825Y-8681436D01*
X5474825Y-8681436D02*
X5465301Y-8690960D01*
X5465301Y-8690960D02*
X5446254Y-8700484D01*
X5446254Y-8700484D02*
X5417682Y-8700484D01*
X5541492Y-8567150D02*
X5617682Y-8567150D01*
X5570063Y-8500484D02*
X5570063Y-8671912D01*
X5570063Y-8671912D02*
X5579587Y-8690960D01*
X5579587Y-8690960D02*
X5598634Y-8700484D01*
X5598634Y-8700484D02*
X5617682Y-8700484D01*
X5836730Y-8567150D02*
X5836730Y-8767150D01*
X5836730Y-8576674D02*
X5855777Y-8567150D01*
X5855777Y-8567150D02*
X5893873Y-8567150D01*
X5893873Y-8567150D02*
X5912920Y-8576674D01*
X5912920Y-8576674D02*
X5922444Y-8586198D01*
X5922444Y-8586198D02*
X5931968Y-8605246D01*
X5931968Y-8605246D02*
X5931968Y-8662389D01*
X5931968Y-8662389D02*
X5922444Y-8681436D01*
X5922444Y-8681436D02*
X5912920Y-8690960D01*
X5912920Y-8690960D02*
X5893873Y-8700484D01*
X5893873Y-8700484D02*
X5855777Y-8700484D01*
X5855777Y-8700484D02*
X5836730Y-8690960D01*
X6046253Y-8700484D02*
X6027206Y-8690960D01*
X6027206Y-8690960D02*
X6017682Y-8671912D01*
X6017682Y-8671912D02*
X6017682Y-8500484D01*
X6208158Y-8700484D02*
X6208158Y-8595722D01*
X6208158Y-8595722D02*
X6198634Y-8576674D01*
X6198634Y-8576674D02*
X6179587Y-8567150D01*
X6179587Y-8567150D02*
X6141492Y-8567150D01*
X6141492Y-8567150D02*
X6122444Y-8576674D01*
X6208158Y-8690960D02*
X6189111Y-8700484D01*
X6189111Y-8700484D02*
X6141492Y-8700484D01*
X6141492Y-8700484D02*
X6122444Y-8690960D01*
X6122444Y-8690960D02*
X6112920Y-8671912D01*
X6112920Y-8671912D02*
X6112920Y-8652865D01*
X6112920Y-8652865D02*
X6122444Y-8633817D01*
X6122444Y-8633817D02*
X6141492Y-8624293D01*
X6141492Y-8624293D02*
X6189111Y-8624293D01*
X6189111Y-8624293D02*
X6208158Y-8614770D01*
X6274825Y-8567150D02*
X6351015Y-8567150D01*
X6303396Y-8500484D02*
X6303396Y-8671912D01*
X6303396Y-8671912D02*
X6312920Y-8690960D01*
X6312920Y-8690960D02*
X6331968Y-8700484D01*
X6331968Y-8700484D02*
X6351015Y-8700484D01*
X6493873Y-8690960D02*
X6474825Y-8700484D01*
X6474825Y-8700484D02*
X6436730Y-8700484D01*
X6436730Y-8700484D02*
X6417682Y-8690960D01*
X6417682Y-8690960D02*
X6408158Y-8671912D01*
X6408158Y-8671912D02*
X6408158Y-8595722D01*
X6408158Y-8595722D02*
X6417682Y-8576674D01*
X6417682Y-8576674D02*
X6436730Y-8567150D01*
X6436730Y-8567150D02*
X6474825Y-8567150D01*
X6474825Y-8567150D02*
X6493873Y-8576674D01*
X6493873Y-8576674D02*
X6503396Y-8595722D01*
X6503396Y-8595722D02*
X6503396Y-8614770D01*
X6503396Y-8614770D02*
X6408158Y-8633817D01*
X6674825Y-8700484D02*
X6674825Y-8500484D01*
X6674825Y-8690960D02*
X6655777Y-8700484D01*
X6655777Y-8700484D02*
X6617682Y-8700484D01*
X6617682Y-8700484D02*
X6598634Y-8690960D01*
X6598634Y-8690960D02*
X6589111Y-8681436D01*
X6589111Y-8681436D02*
X6579587Y-8662389D01*
X6579587Y-8662389D02*
X6579587Y-8605246D01*
X6579587Y-8605246D02*
X6589111Y-8586198D01*
X6589111Y-8586198D02*
X6598634Y-8576674D01*
X6598634Y-8576674D02*
X6617682Y-8567150D01*
X6617682Y-8567150D02*
X6655777Y-8567150D01*
X6655777Y-8567150D02*
X6674825Y-8576674D01*
X6751015Y-8776674D02*
X6760539Y-8767150D01*
X6760539Y-8767150D02*
X6779587Y-8738579D01*
X6779587Y-8738579D02*
X6789111Y-8719531D01*
X6789111Y-8719531D02*
X6798634Y-8690960D01*
X6798634Y-8690960D02*
X6808158Y-8643341D01*
X6808158Y-8643341D02*
X6808158Y-8605246D01*
X6808158Y-8605246D02*
X6798634Y-8557627D01*
X6798634Y-8557627D02*
X6789111Y-8529055D01*
X6789111Y-8529055D02*
X6779587Y-8510008D01*
X6779587Y-8510008D02*
X6760539Y-8481436D01*
X6760539Y-8481436D02*
X6751015Y-8471912D01*
X-105000Y-8773000D02*
X-105000Y-8973000D01*
X-205000Y-8873000D02*
X-5000Y-8873000D01*
X246253Y-8783531D02*
X255777Y-8774008D01*
X255777Y-8774008D02*
X274824Y-8764484D01*
X274824Y-8764484D02*
X322444Y-8764484D01*
X322444Y-8764484D02*
X341491Y-8774008D01*
X341491Y-8774008D02*
X351015Y-8783531D01*
X351015Y-8783531D02*
X360539Y-8802579D01*
X360539Y-8802579D02*
X360539Y-8821627D01*
X360539Y-8821627D02*
X351015Y-8850198D01*
X351015Y-8850198D02*
X236729Y-8964484D01*
X236729Y-8964484D02*
X360539Y-8964484D01*
X446253Y-8945436D02*
X455777Y-8954960D01*
X455777Y-8954960D02*
X446253Y-8964484D01*
X446253Y-8964484D02*
X436729Y-8954960D01*
X436729Y-8954960D02*
X446253Y-8945436D01*
X446253Y-8945436D02*
X446253Y-8964484D01*
X627205Y-8764484D02*
X589110Y-8764484D01*
X589110Y-8764484D02*
X570063Y-8774008D01*
X570063Y-8774008D02*
X560539Y-8783531D01*
X560539Y-8783531D02*
X541491Y-8812103D01*
X541491Y-8812103D02*
X531967Y-8850198D01*
X531967Y-8850198D02*
X531967Y-8926389D01*
X531967Y-8926389D02*
X541491Y-8945436D01*
X541491Y-8945436D02*
X551015Y-8954960D01*
X551015Y-8954960D02*
X570063Y-8964484D01*
X570063Y-8964484D02*
X608158Y-8964484D01*
X608158Y-8964484D02*
X627205Y-8954960D01*
X627205Y-8954960D02*
X636729Y-8945436D01*
X636729Y-8945436D02*
X646253Y-8926389D01*
X646253Y-8926389D02*
X646253Y-8878770D01*
X646253Y-8878770D02*
X636729Y-8859722D01*
X636729Y-8859722D02*
X627205Y-8850198D01*
X627205Y-8850198D02*
X608158Y-8840674D01*
X608158Y-8840674D02*
X570063Y-8840674D01*
X570063Y-8840674D02*
X551015Y-8850198D01*
X551015Y-8850198D02*
X541491Y-8859722D01*
X541491Y-8859722D02*
X531967Y-8878770D01*
X770062Y-8764484D02*
X789110Y-8764484D01*
X789110Y-8764484D02*
X808158Y-8774008D01*
X808158Y-8774008D02*
X817682Y-8783531D01*
X817682Y-8783531D02*
X827205Y-8802579D01*
X827205Y-8802579D02*
X836729Y-8840674D01*
X836729Y-8840674D02*
X836729Y-8888293D01*
X836729Y-8888293D02*
X827205Y-8926389D01*
X827205Y-8926389D02*
X817682Y-8945436D01*
X817682Y-8945436D02*
X808158Y-8954960D01*
X808158Y-8954960D02*
X789110Y-8964484D01*
X789110Y-8964484D02*
X770062Y-8964484D01*
X770062Y-8964484D02*
X751015Y-8954960D01*
X751015Y-8954960D02*
X741491Y-8945436D01*
X741491Y-8945436D02*
X731967Y-8926389D01*
X731967Y-8926389D02*
X722443Y-8888293D01*
X722443Y-8888293D02*
X722443Y-8840674D01*
X722443Y-8840674D02*
X731967Y-8802579D01*
X731967Y-8802579D02*
X741491Y-8783531D01*
X741491Y-8783531D02*
X751015Y-8774008D01*
X751015Y-8774008D02*
X770062Y-8764484D01*
X960539Y-8764484D02*
X979586Y-8764484D01*
X979586Y-8764484D02*
X998634Y-8774008D01*
X998634Y-8774008D02*
X1008158Y-8783531D01*
X1008158Y-8783531D02*
X1017682Y-8802579D01*
X1017682Y-8802579D02*
X1027205Y-8840674D01*
X1027205Y-8840674D02*
X1027205Y-8888293D01*
X1027205Y-8888293D02*
X1017682Y-8926389D01*
X1017682Y-8926389D02*
X1008158Y-8945436D01*
X1008158Y-8945436D02*
X998634Y-8954960D01*
X998634Y-8954960D02*
X979586Y-8964484D01*
X979586Y-8964484D02*
X960539Y-8964484D01*
X960539Y-8964484D02*
X941491Y-8954960D01*
X941491Y-8954960D02*
X931967Y-8945436D01*
X931967Y-8945436D02*
X922443Y-8926389D01*
X922443Y-8926389D02*
X912920Y-8888293D01*
X912920Y-8888293D02*
X912920Y-8840674D01*
X912920Y-8840674D02*
X922443Y-8802579D01*
X922443Y-8802579D02*
X931967Y-8783531D01*
X931967Y-8783531D02*
X941491Y-8774008D01*
X941491Y-8774008D02*
X960539Y-8764484D01*
X1112920Y-8964484D02*
X1112920Y-8831150D01*
X1112920Y-8850198D02*
X1122444Y-8840674D01*
X1122444Y-8840674D02*
X1141491Y-8831150D01*
X1141491Y-8831150D02*
X1170063Y-8831150D01*
X1170063Y-8831150D02*
X1189110Y-8840674D01*
X1189110Y-8840674D02*
X1198634Y-8859722D01*
X1198634Y-8859722D02*
X1198634Y-8964484D01*
X1198634Y-8859722D02*
X1208158Y-8840674D01*
X1208158Y-8840674D02*
X1227205Y-8831150D01*
X1227205Y-8831150D02*
X1255777Y-8831150D01*
X1255777Y-8831150D02*
X1274825Y-8840674D01*
X1274825Y-8840674D02*
X1284348Y-8859722D01*
X1284348Y-8859722D02*
X1284348Y-8964484D01*
X1379586Y-8964484D02*
X1379586Y-8831150D01*
X1379586Y-8850198D02*
X1389110Y-8840674D01*
X1389110Y-8840674D02*
X1408158Y-8831150D01*
X1408158Y-8831150D02*
X1436729Y-8831150D01*
X1436729Y-8831150D02*
X1455777Y-8840674D01*
X1455777Y-8840674D02*
X1465301Y-8859722D01*
X1465301Y-8859722D02*
X1465301Y-8964484D01*
X1465301Y-8859722D02*
X1474824Y-8840674D01*
X1474824Y-8840674D02*
X1493872Y-8831150D01*
X1493872Y-8831150D02*
X1522443Y-8831150D01*
X1522443Y-8831150D02*
X1541491Y-8840674D01*
X1541491Y-8840674D02*
X1551015Y-8859722D01*
X1551015Y-8859722D02*
X1551015Y-8964484D01*
X1941491Y-8754960D02*
X1770063Y-9012103D01*
X2198634Y-8764484D02*
X2217682Y-8764484D01*
X2217682Y-8764484D02*
X2236729Y-8774008D01*
X2236729Y-8774008D02*
X2246253Y-8783531D01*
X2246253Y-8783531D02*
X2255777Y-8802579D01*
X2255777Y-8802579D02*
X2265301Y-8840674D01*
X2265301Y-8840674D02*
X2265301Y-8888293D01*
X2265301Y-8888293D02*
X2255777Y-8926389D01*
X2255777Y-8926389D02*
X2246253Y-8945436D01*
X2246253Y-8945436D02*
X2236729Y-8954960D01*
X2236729Y-8954960D02*
X2217682Y-8964484D01*
X2217682Y-8964484D02*
X2198634Y-8964484D01*
X2198634Y-8964484D02*
X2179587Y-8954960D01*
X2179587Y-8954960D02*
X2170063Y-8945436D01*
X2170063Y-8945436D02*
X2160539Y-8926389D01*
X2160539Y-8926389D02*
X2151015Y-8888293D01*
X2151015Y-8888293D02*
X2151015Y-8840674D01*
X2151015Y-8840674D02*
X2160539Y-8802579D01*
X2160539Y-8802579D02*
X2170063Y-8783531D01*
X2170063Y-8783531D02*
X2179587Y-8774008D01*
X2179587Y-8774008D02*
X2198634Y-8764484D01*
X2351015Y-8945436D02*
X2360539Y-8954960D01*
X2360539Y-8954960D02*
X2351015Y-8964484D01*
X2351015Y-8964484D02*
X2341491Y-8954960D01*
X2341491Y-8954960D02*
X2351015Y-8945436D01*
X2351015Y-8945436D02*
X2351015Y-8964484D01*
X2551015Y-8964484D02*
X2436729Y-8964484D01*
X2493872Y-8964484D02*
X2493872Y-8764484D01*
X2493872Y-8764484D02*
X2474825Y-8793055D01*
X2474825Y-8793055D02*
X2455777Y-8812103D01*
X2455777Y-8812103D02*
X2436729Y-8821627D01*
X2674825Y-8764484D02*
X2693872Y-8764484D01*
X2693872Y-8764484D02*
X2712920Y-8774008D01*
X2712920Y-8774008D02*
X2722444Y-8783531D01*
X2722444Y-8783531D02*
X2731968Y-8802579D01*
X2731968Y-8802579D02*
X2741491Y-8840674D01*
X2741491Y-8840674D02*
X2741491Y-8888293D01*
X2741491Y-8888293D02*
X2731968Y-8926389D01*
X2731968Y-8926389D02*
X2722444Y-8945436D01*
X2722444Y-8945436D02*
X2712920Y-8954960D01*
X2712920Y-8954960D02*
X2693872Y-8964484D01*
X2693872Y-8964484D02*
X2674825Y-8964484D01*
X2674825Y-8964484D02*
X2655777Y-8954960D01*
X2655777Y-8954960D02*
X2646253Y-8945436D01*
X2646253Y-8945436D02*
X2636729Y-8926389D01*
X2636729Y-8926389D02*
X2627206Y-8888293D01*
X2627206Y-8888293D02*
X2627206Y-8840674D01*
X2627206Y-8840674D02*
X2636729Y-8802579D01*
X2636729Y-8802579D02*
X2646253Y-8783531D01*
X2646253Y-8783531D02*
X2655777Y-8774008D01*
X2655777Y-8774008D02*
X2674825Y-8764484D01*
X2817682Y-8783531D02*
X2827206Y-8774008D01*
X2827206Y-8774008D02*
X2846253Y-8764484D01*
X2846253Y-8764484D02*
X2893872Y-8764484D01*
X2893872Y-8764484D02*
X2912920Y-8774008D01*
X2912920Y-8774008D02*
X2922444Y-8783531D01*
X2922444Y-8783531D02*
X2931967Y-8802579D01*
X2931967Y-8802579D02*
X2931967Y-8821627D01*
X2931967Y-8821627D02*
X2922444Y-8850198D01*
X2922444Y-8850198D02*
X2808158Y-8964484D01*
X2808158Y-8964484D02*
X2931967Y-8964484D01*
X3103396Y-8831150D02*
X3103396Y-8964484D01*
X3055777Y-8754960D02*
X3008158Y-8897817D01*
X3008158Y-8897817D02*
X3131967Y-8897817D01*
X3198634Y-8764484D02*
X3198634Y-8802579D01*
X3274825Y-8764484D02*
X3274825Y-8802579D01*
X3570063Y-9040674D02*
X3560539Y-9031150D01*
X3560539Y-9031150D02*
X3541491Y-9002579D01*
X3541491Y-9002579D02*
X3531968Y-8983531D01*
X3531968Y-8983531D02*
X3522444Y-8954960D01*
X3522444Y-8954960D02*
X3512920Y-8907341D01*
X3512920Y-8907341D02*
X3512920Y-8869246D01*
X3512920Y-8869246D02*
X3522444Y-8821627D01*
X3522444Y-8821627D02*
X3531968Y-8793055D01*
X3531968Y-8793055D02*
X3541491Y-8774008D01*
X3541491Y-8774008D02*
X3560539Y-8745436D01*
X3560539Y-8745436D02*
X3570063Y-8735912D01*
X3627206Y-8764484D02*
X3751015Y-8764484D01*
X3751015Y-8764484D02*
X3684348Y-8840674D01*
X3684348Y-8840674D02*
X3712920Y-8840674D01*
X3712920Y-8840674D02*
X3731968Y-8850198D01*
X3731968Y-8850198D02*
X3741491Y-8859722D01*
X3741491Y-8859722D02*
X3751015Y-8878770D01*
X3751015Y-8878770D02*
X3751015Y-8926389D01*
X3751015Y-8926389D02*
X3741491Y-8945436D01*
X3741491Y-8945436D02*
X3731968Y-8954960D01*
X3731968Y-8954960D02*
X3712920Y-8964484D01*
X3712920Y-8964484D02*
X3655777Y-8964484D01*
X3655777Y-8964484D02*
X3636729Y-8954960D01*
X3636729Y-8954960D02*
X3627206Y-8945436D01*
X3989110Y-8964484D02*
X3989110Y-8764484D01*
X4074825Y-8964484D02*
X4074825Y-8859722D01*
X4074825Y-8859722D02*
X4065301Y-8840674D01*
X4065301Y-8840674D02*
X4046253Y-8831150D01*
X4046253Y-8831150D02*
X4017682Y-8831150D01*
X4017682Y-8831150D02*
X3998634Y-8840674D01*
X3998634Y-8840674D02*
X3989110Y-8850198D01*
X4198634Y-8964484D02*
X4179587Y-8954960D01*
X4179587Y-8954960D02*
X4170063Y-8945436D01*
X4170063Y-8945436D02*
X4160539Y-8926389D01*
X4160539Y-8926389D02*
X4160539Y-8869246D01*
X4160539Y-8869246D02*
X4170063Y-8850198D01*
X4170063Y-8850198D02*
X4179587Y-8840674D01*
X4179587Y-8840674D02*
X4198634Y-8831150D01*
X4198634Y-8831150D02*
X4227206Y-8831150D01*
X4227206Y-8831150D02*
X4246253Y-8840674D01*
X4246253Y-8840674D02*
X4255777Y-8850198D01*
X4255777Y-8850198D02*
X4265301Y-8869246D01*
X4265301Y-8869246D02*
X4265301Y-8926389D01*
X4265301Y-8926389D02*
X4255777Y-8945436D01*
X4255777Y-8945436D02*
X4246253Y-8954960D01*
X4246253Y-8954960D02*
X4227206Y-8964484D01*
X4227206Y-8964484D02*
X4198634Y-8964484D01*
X4379587Y-8964484D02*
X4360539Y-8954960D01*
X4360539Y-8954960D02*
X4351015Y-8935912D01*
X4351015Y-8935912D02*
X4351015Y-8764484D01*
X4531968Y-8954960D02*
X4512920Y-8964484D01*
X4512920Y-8964484D02*
X4474825Y-8964484D01*
X4474825Y-8964484D02*
X4455777Y-8954960D01*
X4455777Y-8954960D02*
X4446253Y-8935912D01*
X4446253Y-8935912D02*
X4446253Y-8859722D01*
X4446253Y-8859722D02*
X4455777Y-8840674D01*
X4455777Y-8840674D02*
X4474825Y-8831150D01*
X4474825Y-8831150D02*
X4512920Y-8831150D01*
X4512920Y-8831150D02*
X4531968Y-8840674D01*
X4531968Y-8840674D02*
X4541492Y-8859722D01*
X4541492Y-8859722D02*
X4541492Y-8878770D01*
X4541492Y-8878770D02*
X4446253Y-8897817D01*
X4617682Y-8954960D02*
X4636730Y-8964484D01*
X4636730Y-8964484D02*
X4674825Y-8964484D01*
X4674825Y-8964484D02*
X4693873Y-8954960D01*
X4693873Y-8954960D02*
X4703396Y-8935912D01*
X4703396Y-8935912D02*
X4703396Y-8926389D01*
X4703396Y-8926389D02*
X4693873Y-8907341D01*
X4693873Y-8907341D02*
X4674825Y-8897817D01*
X4674825Y-8897817D02*
X4646253Y-8897817D01*
X4646253Y-8897817D02*
X4627206Y-8888293D01*
X4627206Y-8888293D02*
X4617682Y-8869246D01*
X4617682Y-8869246D02*
X4617682Y-8859722D01*
X4617682Y-8859722D02*
X4627206Y-8840674D01*
X4627206Y-8840674D02*
X4646253Y-8831150D01*
X4646253Y-8831150D02*
X4674825Y-8831150D01*
X4674825Y-8831150D02*
X4693873Y-8840674D01*
X4770063Y-9040674D02*
X4779587Y-9031150D01*
X4779587Y-9031150D02*
X4798634Y-9002579D01*
X4798634Y-9002579D02*
X4808158Y-8983531D01*
X4808158Y-8983531D02*
X4817682Y-8954960D01*
X4817682Y-8954960D02*
X4827206Y-8907341D01*
X4827206Y-8907341D02*
X4827206Y-8869246D01*
X4827206Y-8869246D02*
X4817682Y-8821627D01*
X4817682Y-8821627D02*
X4808158Y-8793055D01*
X4808158Y-8793055D02*
X4798634Y-8774008D01*
X4798634Y-8774008D02*
X4779587Y-8745436D01*
X4779587Y-8745436D02*
X4770063Y-8735912D01*
X5131968Y-9040674D02*
X5122444Y-9031150D01*
X5122444Y-9031150D02*
X5103396Y-9002579D01*
X5103396Y-9002579D02*
X5093873Y-8983531D01*
X5093873Y-8983531D02*
X5084349Y-8954960D01*
X5084349Y-8954960D02*
X5074825Y-8907341D01*
X5074825Y-8907341D02*
X5074825Y-8869246D01*
X5074825Y-8869246D02*
X5084349Y-8821627D01*
X5084349Y-8821627D02*
X5093873Y-8793055D01*
X5093873Y-8793055D02*
X5103396Y-8774008D01*
X5103396Y-8774008D02*
X5122444Y-8745436D01*
X5122444Y-8745436D02*
X5131968Y-8735912D01*
X5208158Y-8831150D02*
X5208158Y-8964484D01*
X5208158Y-8850198D02*
X5217682Y-8840674D01*
X5217682Y-8840674D02*
X5236730Y-8831150D01*
X5236730Y-8831150D02*
X5265301Y-8831150D01*
X5265301Y-8831150D02*
X5284349Y-8840674D01*
X5284349Y-8840674D02*
X5293873Y-8859722D01*
X5293873Y-8859722D02*
X5293873Y-8964484D01*
X5417682Y-8964484D02*
X5398634Y-8954960D01*
X5398634Y-8954960D02*
X5389111Y-8945436D01*
X5389111Y-8945436D02*
X5379587Y-8926389D01*
X5379587Y-8926389D02*
X5379587Y-8869246D01*
X5379587Y-8869246D02*
X5389111Y-8850198D01*
X5389111Y-8850198D02*
X5398634Y-8840674D01*
X5398634Y-8840674D02*
X5417682Y-8831150D01*
X5417682Y-8831150D02*
X5446254Y-8831150D01*
X5446254Y-8831150D02*
X5465301Y-8840674D01*
X5465301Y-8840674D02*
X5474825Y-8850198D01*
X5474825Y-8850198D02*
X5484349Y-8869246D01*
X5484349Y-8869246D02*
X5484349Y-8926389D01*
X5484349Y-8926389D02*
X5474825Y-8945436D01*
X5474825Y-8945436D02*
X5465301Y-8954960D01*
X5465301Y-8954960D02*
X5446254Y-8964484D01*
X5446254Y-8964484D02*
X5417682Y-8964484D01*
X5541492Y-8831150D02*
X5617682Y-8831150D01*
X5570063Y-8764484D02*
X5570063Y-8935912D01*
X5570063Y-8935912D02*
X5579587Y-8954960D01*
X5579587Y-8954960D02*
X5598634Y-8964484D01*
X5598634Y-8964484D02*
X5617682Y-8964484D01*
X5836730Y-8831150D02*
X5836730Y-9031150D01*
X5836730Y-8840674D02*
X5855777Y-8831150D01*
X5855777Y-8831150D02*
X5893873Y-8831150D01*
X5893873Y-8831150D02*
X5912920Y-8840674D01*
X5912920Y-8840674D02*
X5922444Y-8850198D01*
X5922444Y-8850198D02*
X5931968Y-8869246D01*
X5931968Y-8869246D02*
X5931968Y-8926389D01*
X5931968Y-8926389D02*
X5922444Y-8945436D01*
X5922444Y-8945436D02*
X5912920Y-8954960D01*
X5912920Y-8954960D02*
X5893873Y-8964484D01*
X5893873Y-8964484D02*
X5855777Y-8964484D01*
X5855777Y-8964484D02*
X5836730Y-8954960D01*
X6046253Y-8964484D02*
X6027206Y-8954960D01*
X6027206Y-8954960D02*
X6017682Y-8935912D01*
X6017682Y-8935912D02*
X6017682Y-8764484D01*
X6208158Y-8964484D02*
X6208158Y-8859722D01*
X6208158Y-8859722D02*
X6198634Y-8840674D01*
X6198634Y-8840674D02*
X6179587Y-8831150D01*
X6179587Y-8831150D02*
X6141492Y-8831150D01*
X6141492Y-8831150D02*
X6122444Y-8840674D01*
X6208158Y-8954960D02*
X6189111Y-8964484D01*
X6189111Y-8964484D02*
X6141492Y-8964484D01*
X6141492Y-8964484D02*
X6122444Y-8954960D01*
X6122444Y-8954960D02*
X6112920Y-8935912D01*
X6112920Y-8935912D02*
X6112920Y-8916865D01*
X6112920Y-8916865D02*
X6122444Y-8897817D01*
X6122444Y-8897817D02*
X6141492Y-8888293D01*
X6141492Y-8888293D02*
X6189111Y-8888293D01*
X6189111Y-8888293D02*
X6208158Y-8878770D01*
X6274825Y-8831150D02*
X6351015Y-8831150D01*
X6303396Y-8764484D02*
X6303396Y-8935912D01*
X6303396Y-8935912D02*
X6312920Y-8954960D01*
X6312920Y-8954960D02*
X6331968Y-8964484D01*
X6331968Y-8964484D02*
X6351015Y-8964484D01*
X6493873Y-8954960D02*
X6474825Y-8964484D01*
X6474825Y-8964484D02*
X6436730Y-8964484D01*
X6436730Y-8964484D02*
X6417682Y-8954960D01*
X6417682Y-8954960D02*
X6408158Y-8935912D01*
X6408158Y-8935912D02*
X6408158Y-8859722D01*
X6408158Y-8859722D02*
X6417682Y-8840674D01*
X6417682Y-8840674D02*
X6436730Y-8831150D01*
X6436730Y-8831150D02*
X6474825Y-8831150D01*
X6474825Y-8831150D02*
X6493873Y-8840674D01*
X6493873Y-8840674D02*
X6503396Y-8859722D01*
X6503396Y-8859722D02*
X6503396Y-8878770D01*
X6503396Y-8878770D02*
X6408158Y-8897817D01*
X6674825Y-8964484D02*
X6674825Y-8764484D01*
X6674825Y-8954960D02*
X6655777Y-8964484D01*
X6655777Y-8964484D02*
X6617682Y-8964484D01*
X6617682Y-8964484D02*
X6598634Y-8954960D01*
X6598634Y-8954960D02*
X6589111Y-8945436D01*
X6589111Y-8945436D02*
X6579587Y-8926389D01*
X6579587Y-8926389D02*
X6579587Y-8869246D01*
X6579587Y-8869246D02*
X6589111Y-8850198D01*
X6589111Y-8850198D02*
X6598634Y-8840674D01*
X6598634Y-8840674D02*
X6617682Y-8831150D01*
X6617682Y-8831150D02*
X6655777Y-8831150D01*
X6655777Y-8831150D02*
X6674825Y-8840674D01*
X6751015Y-9040674D02*
X6760539Y-9031150D01*
X6760539Y-9031150D02*
X6779587Y-9002579D01*
X6779587Y-9002579D02*
X6789111Y-8983531D01*
X6789111Y-8983531D02*
X6798634Y-8954960D01*
X6798634Y-8954960D02*
X6808158Y-8907341D01*
X6808158Y-8907341D02*
X6808158Y-8869246D01*
X6808158Y-8869246D02*
X6798634Y-8821627D01*
X6798634Y-8821627D02*
X6789111Y-8793055D01*
X6789111Y-8793055D02*
X6779587Y-8774008D01*
X6779587Y-8774008D02*
X6760539Y-8745436D01*
X6760539Y-8745436D02*
X6751015Y-8735912D01*
X-34289Y-9263711D02*
X-34289Y-9122289D01*
X-175711Y-9122289D01*
X-175711Y-9263711D01*
X-34289Y-9263711D01*
X236729Y-9084484D02*
X360539Y-9084484D01*
X360539Y-9084484D02*
X293872Y-9160674D01*
X293872Y-9160674D02*
X322444Y-9160674D01*
X322444Y-9160674D02*
X341491Y-9170198D01*
X341491Y-9170198D02*
X351015Y-9179722D01*
X351015Y-9179722D02*
X360539Y-9198770D01*
X360539Y-9198770D02*
X360539Y-9246389D01*
X360539Y-9246389D02*
X351015Y-9265436D01*
X351015Y-9265436D02*
X341491Y-9274960D01*
X341491Y-9274960D02*
X322444Y-9284484D01*
X322444Y-9284484D02*
X265301Y-9284484D01*
X265301Y-9284484D02*
X246253Y-9274960D01*
X246253Y-9274960D02*
X236729Y-9265436D01*
X446253Y-9265436D02*
X455777Y-9274960D01*
X455777Y-9274960D02*
X446253Y-9284484D01*
X446253Y-9284484D02*
X436729Y-9274960D01*
X436729Y-9274960D02*
X446253Y-9265436D01*
X446253Y-9265436D02*
X446253Y-9284484D01*
X531967Y-9103531D02*
X541491Y-9094008D01*
X541491Y-9094008D02*
X560539Y-9084484D01*
X560539Y-9084484D02*
X608158Y-9084484D01*
X608158Y-9084484D02*
X627205Y-9094008D01*
X627205Y-9094008D02*
X636729Y-9103531D01*
X636729Y-9103531D02*
X646253Y-9122579D01*
X646253Y-9122579D02*
X646253Y-9141627D01*
X646253Y-9141627D02*
X636729Y-9170198D01*
X636729Y-9170198D02*
X522443Y-9284484D01*
X522443Y-9284484D02*
X646253Y-9284484D01*
X770062Y-9084484D02*
X789110Y-9084484D01*
X789110Y-9084484D02*
X808158Y-9094008D01*
X808158Y-9094008D02*
X817682Y-9103531D01*
X817682Y-9103531D02*
X827205Y-9122579D01*
X827205Y-9122579D02*
X836729Y-9160674D01*
X836729Y-9160674D02*
X836729Y-9208293D01*
X836729Y-9208293D02*
X827205Y-9246389D01*
X827205Y-9246389D02*
X817682Y-9265436D01*
X817682Y-9265436D02*
X808158Y-9274960D01*
X808158Y-9274960D02*
X789110Y-9284484D01*
X789110Y-9284484D02*
X770062Y-9284484D01*
X770062Y-9284484D02*
X751015Y-9274960D01*
X751015Y-9274960D02*
X741491Y-9265436D01*
X741491Y-9265436D02*
X731967Y-9246389D01*
X731967Y-9246389D02*
X722443Y-9208293D01*
X722443Y-9208293D02*
X722443Y-9160674D01*
X722443Y-9160674D02*
X731967Y-9122579D01*
X731967Y-9122579D02*
X741491Y-9103531D01*
X741491Y-9103531D02*
X751015Y-9094008D01*
X751015Y-9094008D02*
X770062Y-9084484D01*
X960539Y-9084484D02*
X979586Y-9084484D01*
X979586Y-9084484D02*
X998634Y-9094008D01*
X998634Y-9094008D02*
X1008158Y-9103531D01*
X1008158Y-9103531D02*
X1017682Y-9122579D01*
X1017682Y-9122579D02*
X1027205Y-9160674D01*
X1027205Y-9160674D02*
X1027205Y-9208293D01*
X1027205Y-9208293D02*
X1017682Y-9246389D01*
X1017682Y-9246389D02*
X1008158Y-9265436D01*
X1008158Y-9265436D02*
X998634Y-9274960D01*
X998634Y-9274960D02*
X979586Y-9284484D01*
X979586Y-9284484D02*
X960539Y-9284484D01*
X960539Y-9284484D02*
X941491Y-9274960D01*
X941491Y-9274960D02*
X931967Y-9265436D01*
X931967Y-9265436D02*
X922443Y-9246389D01*
X922443Y-9246389D02*
X912920Y-9208293D01*
X912920Y-9208293D02*
X912920Y-9160674D01*
X912920Y-9160674D02*
X922443Y-9122579D01*
X922443Y-9122579D02*
X931967Y-9103531D01*
X931967Y-9103531D02*
X941491Y-9094008D01*
X941491Y-9094008D02*
X960539Y-9084484D01*
X1112920Y-9284484D02*
X1112920Y-9151150D01*
X1112920Y-9170198D02*
X1122444Y-9160674D01*
X1122444Y-9160674D02*
X1141491Y-9151150D01*
X1141491Y-9151150D02*
X1170063Y-9151150D01*
X1170063Y-9151150D02*
X1189110Y-9160674D01*
X1189110Y-9160674D02*
X1198634Y-9179722D01*
X1198634Y-9179722D02*
X1198634Y-9284484D01*
X1198634Y-9179722D02*
X1208158Y-9160674D01*
X1208158Y-9160674D02*
X1227205Y-9151150D01*
X1227205Y-9151150D02*
X1255777Y-9151150D01*
X1255777Y-9151150D02*
X1274825Y-9160674D01*
X1274825Y-9160674D02*
X1284348Y-9179722D01*
X1284348Y-9179722D02*
X1284348Y-9284484D01*
X1379586Y-9284484D02*
X1379586Y-9151150D01*
X1379586Y-9170198D02*
X1389110Y-9160674D01*
X1389110Y-9160674D02*
X1408158Y-9151150D01*
X1408158Y-9151150D02*
X1436729Y-9151150D01*
X1436729Y-9151150D02*
X1455777Y-9160674D01*
X1455777Y-9160674D02*
X1465301Y-9179722D01*
X1465301Y-9179722D02*
X1465301Y-9284484D01*
X1465301Y-9179722D02*
X1474824Y-9160674D01*
X1474824Y-9160674D02*
X1493872Y-9151150D01*
X1493872Y-9151150D02*
X1522443Y-9151150D01*
X1522443Y-9151150D02*
X1541491Y-9160674D01*
X1541491Y-9160674D02*
X1551015Y-9179722D01*
X1551015Y-9179722D02*
X1551015Y-9284484D01*
X1941491Y-9074960D02*
X1770063Y-9332103D01*
X2198634Y-9084484D02*
X2217682Y-9084484D01*
X2217682Y-9084484D02*
X2236729Y-9094008D01*
X2236729Y-9094008D02*
X2246253Y-9103531D01*
X2246253Y-9103531D02*
X2255777Y-9122579D01*
X2255777Y-9122579D02*
X2265301Y-9160674D01*
X2265301Y-9160674D02*
X2265301Y-9208293D01*
X2265301Y-9208293D02*
X2255777Y-9246389D01*
X2255777Y-9246389D02*
X2246253Y-9265436D01*
X2246253Y-9265436D02*
X2236729Y-9274960D01*
X2236729Y-9274960D02*
X2217682Y-9284484D01*
X2217682Y-9284484D02*
X2198634Y-9284484D01*
X2198634Y-9284484D02*
X2179587Y-9274960D01*
X2179587Y-9274960D02*
X2170063Y-9265436D01*
X2170063Y-9265436D02*
X2160539Y-9246389D01*
X2160539Y-9246389D02*
X2151015Y-9208293D01*
X2151015Y-9208293D02*
X2151015Y-9160674D01*
X2151015Y-9160674D02*
X2160539Y-9122579D01*
X2160539Y-9122579D02*
X2170063Y-9103531D01*
X2170063Y-9103531D02*
X2179587Y-9094008D01*
X2179587Y-9094008D02*
X2198634Y-9084484D01*
X2351015Y-9265436D02*
X2360539Y-9274960D01*
X2360539Y-9274960D02*
X2351015Y-9284484D01*
X2351015Y-9284484D02*
X2341491Y-9274960D01*
X2341491Y-9274960D02*
X2351015Y-9265436D01*
X2351015Y-9265436D02*
X2351015Y-9284484D01*
X2551015Y-9284484D02*
X2436729Y-9284484D01*
X2493872Y-9284484D02*
X2493872Y-9084484D01*
X2493872Y-9084484D02*
X2474825Y-9113055D01*
X2474825Y-9113055D02*
X2455777Y-9132103D01*
X2455777Y-9132103D02*
X2436729Y-9141627D01*
X2627206Y-9103531D02*
X2636729Y-9094008D01*
X2636729Y-9094008D02*
X2655777Y-9084484D01*
X2655777Y-9084484D02*
X2703396Y-9084484D01*
X2703396Y-9084484D02*
X2722444Y-9094008D01*
X2722444Y-9094008D02*
X2731968Y-9103531D01*
X2731968Y-9103531D02*
X2741491Y-9122579D01*
X2741491Y-9122579D02*
X2741491Y-9141627D01*
X2741491Y-9141627D02*
X2731968Y-9170198D01*
X2731968Y-9170198D02*
X2617682Y-9284484D01*
X2617682Y-9284484D02*
X2741491Y-9284484D01*
X2912920Y-9084484D02*
X2874825Y-9084484D01*
X2874825Y-9084484D02*
X2855777Y-9094008D01*
X2855777Y-9094008D02*
X2846253Y-9103531D01*
X2846253Y-9103531D02*
X2827206Y-9132103D01*
X2827206Y-9132103D02*
X2817682Y-9170198D01*
X2817682Y-9170198D02*
X2817682Y-9246389D01*
X2817682Y-9246389D02*
X2827206Y-9265436D01*
X2827206Y-9265436D02*
X2836729Y-9274960D01*
X2836729Y-9274960D02*
X2855777Y-9284484D01*
X2855777Y-9284484D02*
X2893872Y-9284484D01*
X2893872Y-9284484D02*
X2912920Y-9274960D01*
X2912920Y-9274960D02*
X2922444Y-9265436D01*
X2922444Y-9265436D02*
X2931967Y-9246389D01*
X2931967Y-9246389D02*
X2931967Y-9198770D01*
X2931967Y-9198770D02*
X2922444Y-9179722D01*
X2922444Y-9179722D02*
X2912920Y-9170198D01*
X2912920Y-9170198D02*
X2893872Y-9160674D01*
X2893872Y-9160674D02*
X2855777Y-9160674D01*
X2855777Y-9160674D02*
X2836729Y-9170198D01*
X2836729Y-9170198D02*
X2827206Y-9179722D01*
X2827206Y-9179722D02*
X2817682Y-9198770D01*
X3055777Y-9084484D02*
X3074825Y-9084484D01*
X3074825Y-9084484D02*
X3093872Y-9094008D01*
X3093872Y-9094008D02*
X3103396Y-9103531D01*
X3103396Y-9103531D02*
X3112920Y-9122579D01*
X3112920Y-9122579D02*
X3122444Y-9160674D01*
X3122444Y-9160674D02*
X3122444Y-9208293D01*
X3122444Y-9208293D02*
X3112920Y-9246389D01*
X3112920Y-9246389D02*
X3103396Y-9265436D01*
X3103396Y-9265436D02*
X3093872Y-9274960D01*
X3093872Y-9274960D02*
X3074825Y-9284484D01*
X3074825Y-9284484D02*
X3055777Y-9284484D01*
X3055777Y-9284484D02*
X3036729Y-9274960D01*
X3036729Y-9274960D02*
X3027206Y-9265436D01*
X3027206Y-9265436D02*
X3017682Y-9246389D01*
X3017682Y-9246389D02*
X3008158Y-9208293D01*
X3008158Y-9208293D02*
X3008158Y-9160674D01*
X3008158Y-9160674D02*
X3017682Y-9122579D01*
X3017682Y-9122579D02*
X3027206Y-9103531D01*
X3027206Y-9103531D02*
X3036729Y-9094008D01*
X3036729Y-9094008D02*
X3055777Y-9084484D01*
X3198634Y-9084484D02*
X3198634Y-9122579D01*
X3274825Y-9084484D02*
X3274825Y-9122579D01*
X3570063Y-9360674D02*
X3560539Y-9351150D01*
X3560539Y-9351150D02*
X3541491Y-9322579D01*
X3541491Y-9322579D02*
X3531968Y-9303531D01*
X3531968Y-9303531D02*
X3522444Y-9274960D01*
X3522444Y-9274960D02*
X3512920Y-9227341D01*
X3512920Y-9227341D02*
X3512920Y-9189246D01*
X3512920Y-9189246D02*
X3522444Y-9141627D01*
X3522444Y-9141627D02*
X3531968Y-9113055D01*
X3531968Y-9113055D02*
X3541491Y-9094008D01*
X3541491Y-9094008D02*
X3560539Y-9065436D01*
X3560539Y-9065436D02*
X3570063Y-9055912D01*
X3627206Y-9084484D02*
X3760539Y-9084484D01*
X3760539Y-9084484D02*
X3674825Y-9284484D01*
X3989110Y-9284484D02*
X3989110Y-9084484D01*
X4074825Y-9284484D02*
X4074825Y-9179722D01*
X4074825Y-9179722D02*
X4065301Y-9160674D01*
X4065301Y-9160674D02*
X4046253Y-9151150D01*
X4046253Y-9151150D02*
X4017682Y-9151150D01*
X4017682Y-9151150D02*
X3998634Y-9160674D01*
X3998634Y-9160674D02*
X3989110Y-9170198D01*
X4198634Y-9284484D02*
X4179587Y-9274960D01*
X4179587Y-9274960D02*
X4170063Y-9265436D01*
X4170063Y-9265436D02*
X4160539Y-9246389D01*
X4160539Y-9246389D02*
X4160539Y-9189246D01*
X4160539Y-9189246D02*
X4170063Y-9170198D01*
X4170063Y-9170198D02*
X4179587Y-9160674D01*
X4179587Y-9160674D02*
X4198634Y-9151150D01*
X4198634Y-9151150D02*
X4227206Y-9151150D01*
X4227206Y-9151150D02*
X4246253Y-9160674D01*
X4246253Y-9160674D02*
X4255777Y-9170198D01*
X4255777Y-9170198D02*
X4265301Y-9189246D01*
X4265301Y-9189246D02*
X4265301Y-9246389D01*
X4265301Y-9246389D02*
X4255777Y-9265436D01*
X4255777Y-9265436D02*
X4246253Y-9274960D01*
X4246253Y-9274960D02*
X4227206Y-9284484D01*
X4227206Y-9284484D02*
X4198634Y-9284484D01*
X4379587Y-9284484D02*
X4360539Y-9274960D01*
X4360539Y-9274960D02*
X4351015Y-9255912D01*
X4351015Y-9255912D02*
X4351015Y-9084484D01*
X4531968Y-9274960D02*
X4512920Y-9284484D01*
X4512920Y-9284484D02*
X4474825Y-9284484D01*
X4474825Y-9284484D02*
X4455777Y-9274960D01*
X4455777Y-9274960D02*
X4446253Y-9255912D01*
X4446253Y-9255912D02*
X4446253Y-9179722D01*
X4446253Y-9179722D02*
X4455777Y-9160674D01*
X4455777Y-9160674D02*
X4474825Y-9151150D01*
X4474825Y-9151150D02*
X4512920Y-9151150D01*
X4512920Y-9151150D02*
X4531968Y-9160674D01*
X4531968Y-9160674D02*
X4541492Y-9179722D01*
X4541492Y-9179722D02*
X4541492Y-9198770D01*
X4541492Y-9198770D02*
X4446253Y-9217817D01*
X4617682Y-9274960D02*
X4636730Y-9284484D01*
X4636730Y-9284484D02*
X4674825Y-9284484D01*
X4674825Y-9284484D02*
X4693873Y-9274960D01*
X4693873Y-9274960D02*
X4703396Y-9255912D01*
X4703396Y-9255912D02*
X4703396Y-9246389D01*
X4703396Y-9246389D02*
X4693873Y-9227341D01*
X4693873Y-9227341D02*
X4674825Y-9217817D01*
X4674825Y-9217817D02*
X4646253Y-9217817D01*
X4646253Y-9217817D02*
X4627206Y-9208293D01*
X4627206Y-9208293D02*
X4617682Y-9189246D01*
X4617682Y-9189246D02*
X4617682Y-9179722D01*
X4617682Y-9179722D02*
X4627206Y-9160674D01*
X4627206Y-9160674D02*
X4646253Y-9151150D01*
X4646253Y-9151150D02*
X4674825Y-9151150D01*
X4674825Y-9151150D02*
X4693873Y-9160674D01*
X4770063Y-9360674D02*
X4779587Y-9351150D01*
X4779587Y-9351150D02*
X4798634Y-9322579D01*
X4798634Y-9322579D02*
X4808158Y-9303531D01*
X4808158Y-9303531D02*
X4817682Y-9274960D01*
X4817682Y-9274960D02*
X4827206Y-9227341D01*
X4827206Y-9227341D02*
X4827206Y-9189246D01*
X4827206Y-9189246D02*
X4817682Y-9141627D01*
X4817682Y-9141627D02*
X4808158Y-9113055D01*
X4808158Y-9113055D02*
X4798634Y-9094008D01*
X4798634Y-9094008D02*
X4779587Y-9065436D01*
X4779587Y-9065436D02*
X4770063Y-9055912D01*
X5131968Y-9360674D02*
X5122444Y-9351150D01*
X5122444Y-9351150D02*
X5103396Y-9322579D01*
X5103396Y-9322579D02*
X5093873Y-9303531D01*
X5093873Y-9303531D02*
X5084349Y-9274960D01*
X5084349Y-9274960D02*
X5074825Y-9227341D01*
X5074825Y-9227341D02*
X5074825Y-9189246D01*
X5074825Y-9189246D02*
X5084349Y-9141627D01*
X5084349Y-9141627D02*
X5093873Y-9113055D01*
X5093873Y-9113055D02*
X5103396Y-9094008D01*
X5103396Y-9094008D02*
X5122444Y-9065436D01*
X5122444Y-9065436D02*
X5131968Y-9055912D01*
X5208158Y-9151150D02*
X5208158Y-9284484D01*
X5208158Y-9170198D02*
X5217682Y-9160674D01*
X5217682Y-9160674D02*
X5236730Y-9151150D01*
X5236730Y-9151150D02*
X5265301Y-9151150D01*
X5265301Y-9151150D02*
X5284349Y-9160674D01*
X5284349Y-9160674D02*
X5293873Y-9179722D01*
X5293873Y-9179722D02*
X5293873Y-9284484D01*
X5417682Y-9284484D02*
X5398634Y-9274960D01*
X5398634Y-9274960D02*
X5389111Y-9265436D01*
X5389111Y-9265436D02*
X5379587Y-9246389D01*
X5379587Y-9246389D02*
X5379587Y-9189246D01*
X5379587Y-9189246D02*
X5389111Y-9170198D01*
X5389111Y-9170198D02*
X5398634Y-9160674D01*
X5398634Y-9160674D02*
X5417682Y-9151150D01*
X5417682Y-9151150D02*
X5446254Y-9151150D01*
X5446254Y-9151150D02*
X5465301Y-9160674D01*
X5465301Y-9160674D02*
X5474825Y-9170198D01*
X5474825Y-9170198D02*
X5484349Y-9189246D01*
X5484349Y-9189246D02*
X5484349Y-9246389D01*
X5484349Y-9246389D02*
X5474825Y-9265436D01*
X5474825Y-9265436D02*
X5465301Y-9274960D01*
X5465301Y-9274960D02*
X5446254Y-9284484D01*
X5446254Y-9284484D02*
X5417682Y-9284484D01*
X5541492Y-9151150D02*
X5617682Y-9151150D01*
X5570063Y-9084484D02*
X5570063Y-9255912D01*
X5570063Y-9255912D02*
X5579587Y-9274960D01*
X5579587Y-9274960D02*
X5598634Y-9284484D01*
X5598634Y-9284484D02*
X5617682Y-9284484D01*
X5836730Y-9151150D02*
X5836730Y-9351150D01*
X5836730Y-9160674D02*
X5855777Y-9151150D01*
X5855777Y-9151150D02*
X5893873Y-9151150D01*
X5893873Y-9151150D02*
X5912920Y-9160674D01*
X5912920Y-9160674D02*
X5922444Y-9170198D01*
X5922444Y-9170198D02*
X5931968Y-9189246D01*
X5931968Y-9189246D02*
X5931968Y-9246389D01*
X5931968Y-9246389D02*
X5922444Y-9265436D01*
X5922444Y-9265436D02*
X5912920Y-9274960D01*
X5912920Y-9274960D02*
X5893873Y-9284484D01*
X5893873Y-9284484D02*
X5855777Y-9284484D01*
X5855777Y-9284484D02*
X5836730Y-9274960D01*
X6046253Y-9284484D02*
X6027206Y-9274960D01*
X6027206Y-9274960D02*
X6017682Y-9255912D01*
X6017682Y-9255912D02*
X6017682Y-9084484D01*
X6208158Y-9284484D02*
X6208158Y-9179722D01*
X6208158Y-9179722D02*
X6198634Y-9160674D01*
X6198634Y-9160674D02*
X6179587Y-9151150D01*
X6179587Y-9151150D02*
X6141492Y-9151150D01*
X6141492Y-9151150D02*
X6122444Y-9160674D01*
X6208158Y-9274960D02*
X6189111Y-9284484D01*
X6189111Y-9284484D02*
X6141492Y-9284484D01*
X6141492Y-9284484D02*
X6122444Y-9274960D01*
X6122444Y-9274960D02*
X6112920Y-9255912D01*
X6112920Y-9255912D02*
X6112920Y-9236865D01*
X6112920Y-9236865D02*
X6122444Y-9217817D01*
X6122444Y-9217817D02*
X6141492Y-9208293D01*
X6141492Y-9208293D02*
X6189111Y-9208293D01*
X6189111Y-9208293D02*
X6208158Y-9198770D01*
X6274825Y-9151150D02*
X6351015Y-9151150D01*
X6303396Y-9084484D02*
X6303396Y-9255912D01*
X6303396Y-9255912D02*
X6312920Y-9274960D01*
X6312920Y-9274960D02*
X6331968Y-9284484D01*
X6331968Y-9284484D02*
X6351015Y-9284484D01*
X6493873Y-9274960D02*
X6474825Y-9284484D01*
X6474825Y-9284484D02*
X6436730Y-9284484D01*
X6436730Y-9284484D02*
X6417682Y-9274960D01*
X6417682Y-9274960D02*
X6408158Y-9255912D01*
X6408158Y-9255912D02*
X6408158Y-9179722D01*
X6408158Y-9179722D02*
X6417682Y-9160674D01*
X6417682Y-9160674D02*
X6436730Y-9151150D01*
X6436730Y-9151150D02*
X6474825Y-9151150D01*
X6474825Y-9151150D02*
X6493873Y-9160674D01*
X6493873Y-9160674D02*
X6503396Y-9179722D01*
X6503396Y-9179722D02*
X6503396Y-9198770D01*
X6503396Y-9198770D02*
X6408158Y-9217817D01*
X6674825Y-9284484D02*
X6674825Y-9084484D01*
X6674825Y-9274960D02*
X6655777Y-9284484D01*
X6655777Y-9284484D02*
X6617682Y-9284484D01*
X6617682Y-9284484D02*
X6598634Y-9274960D01*
X6598634Y-9274960D02*
X6589111Y-9265436D01*
X6589111Y-9265436D02*
X6579587Y-9246389D01*
X6579587Y-9246389D02*
X6579587Y-9189246D01*
X6579587Y-9189246D02*
X6589111Y-9170198D01*
X6589111Y-9170198D02*
X6598634Y-9160674D01*
X6598634Y-9160674D02*
X6617682Y-9151150D01*
X6617682Y-9151150D02*
X6655777Y-9151150D01*
X6655777Y-9151150D02*
X6674825Y-9160674D01*
X6751015Y-9360674D02*
X6760539Y-9351150D01*
X6760539Y-9351150D02*
X6779587Y-9322579D01*
X6779587Y-9322579D02*
X6789111Y-9303531D01*
X6789111Y-9303531D02*
X6798634Y-9274960D01*
X6798634Y-9274960D02*
X6808158Y-9227341D01*
X6808158Y-9227341D02*
X6808158Y-9189246D01*
X6808158Y-9189246D02*
X6798634Y-9141627D01*
X6798634Y-9141627D02*
X6789111Y-9113055D01*
X6789111Y-9113055D02*
X6779587Y-9094008D01*
X6779587Y-9094008D02*
X6760539Y-9065436D01*
X6760539Y-9065436D02*
X6751015Y-9055912D01*
M02*
