%TF.GenerationSoftware,KiCad,Pcbnew,8.0.4*%
%TF.CreationDate,2024-09-17T19:46:24+01:00*%
%TF.ProjectId,ADE_Main_V4,4144455f-4d61-4696-9e5f-56342e6b6963,rev?*%
%TF.SameCoordinates,Original*%
%TF.FileFunction,Copper,L4,Bot*%
%TF.FilePolarity,Positive*%
%FSLAX46Y46*%
G04 Gerber Fmt 4.6, Leading zero omitted, Abs format (unit mm)*
G04 Created by KiCad (PCBNEW 8.0.4) date 2024-09-17 19:46:24*
%MOMM*%
%LPD*%
G01*
G04 APERTURE LIST*
G04 Aperture macros list*
%AMRoundRect*
0 Rectangle with rounded corners*
0 $1 Rounding radius*
0 $2 $3 $4 $5 $6 $7 $8 $9 X,Y pos of 4 corners*
0 Add a 4 corners polygon primitive as box body*
4,1,4,$2,$3,$4,$5,$6,$7,$8,$9,$2,$3,0*
0 Add four circle primitives for the rounded corners*
1,1,$1+$1,$2,$3*
1,1,$1+$1,$4,$5*
1,1,$1+$1,$6,$7*
1,1,$1+$1,$8,$9*
0 Add four rect primitives between the rounded corners*
20,1,$1+$1,$2,$3,$4,$5,0*
20,1,$1+$1,$4,$5,$6,$7,0*
20,1,$1+$1,$6,$7,$8,$9,0*
20,1,$1+$1,$8,$9,$2,$3,0*%
G04 Aperture macros list end*
%TA.AperFunction,SMDPad,CuDef*%
%ADD10R,1.600000X0.900000*%
%TD*%
%TA.AperFunction,ComponentPad*%
%ADD11C,0.600000*%
%TD*%
%TA.AperFunction,SMDPad,CuDef*%
%ADD12C,1.000000*%
%TD*%
%TA.AperFunction,SMDPad,CuDef*%
%ADD13RoundRect,0.250000X0.325000X0.650000X-0.325000X0.650000X-0.325000X-0.650000X0.325000X-0.650000X0*%
%TD*%
%TA.AperFunction,SMDPad,CuDef*%
%ADD14R,1.400000X1.200000*%
%TD*%
%TA.AperFunction,SMDPad,CuDef*%
%ADD15RoundRect,0.325000X1.925000X-0.325000X1.925000X0.325000X-1.925000X0.325000X-1.925000X-0.325000X0*%
%TD*%
%TA.AperFunction,SMDPad,CuDef*%
%ADD16RoundRect,0.300001X1.649999X-0.599999X1.649999X0.599999X-1.649999X0.599999X-1.649999X-0.599999X0*%
%TD*%
%TA.AperFunction,SMDPad,CuDef*%
%ADD17RoundRect,0.140000X-0.170000X0.140000X-0.170000X-0.140000X0.170000X-0.140000X0.170000X0.140000X0*%
%TD*%
%TA.AperFunction,ComponentPad*%
%ADD18R,1.700000X1.700000*%
%TD*%
%TA.AperFunction,ComponentPad*%
%ADD19O,1.700000X1.700000*%
%TD*%
%TA.AperFunction,SMDPad,CuDef*%
%ADD20RoundRect,0.140000X0.170000X-0.140000X0.170000X0.140000X-0.170000X0.140000X-0.170000X-0.140000X0*%
%TD*%
%TA.AperFunction,SMDPad,CuDef*%
%ADD21RoundRect,0.250000X-0.325000X-0.650000X0.325000X-0.650000X0.325000X0.650000X-0.325000X0.650000X0*%
%TD*%
%TA.AperFunction,ConnectorPad*%
%ADD22R,0.700000X4.300000*%
%TD*%
%TA.AperFunction,SMDPad,CuDef*%
%ADD23RoundRect,0.140000X-0.140000X-0.170000X0.140000X-0.170000X0.140000X0.170000X-0.140000X0.170000X0*%
%TD*%
%TA.AperFunction,SMDPad,CuDef*%
%ADD24RoundRect,0.140000X0.140000X0.170000X-0.140000X0.170000X-0.140000X-0.170000X0.140000X-0.170000X0*%
%TD*%
%TA.AperFunction,SMDPad,CuDef*%
%ADD25RoundRect,0.150000X-0.725000X-0.150000X0.725000X-0.150000X0.725000X0.150000X-0.725000X0.150000X0*%
%TD*%
%TA.AperFunction,ViaPad*%
%ADD26C,0.800000*%
%TD*%
%TA.AperFunction,Conductor*%
%ADD27C,0.250000*%
%TD*%
%TA.AperFunction,Conductor*%
%ADD28C,0.200000*%
%TD*%
G04 APERTURE END LIST*
D10*
%TO.P,U3,9,PAD*%
%TO.N,/UM*%
X-680000Y36100000D03*
D11*
X-180000Y36100000D03*
X-1180000Y36100000D03*
%TD*%
%TO.P,U1,9,PAD*%
%TO.N,/UM*%
X-180000Y24810000D03*
X-1180000Y24810000D03*
D10*
X-680000Y24810000D03*
%TD*%
D12*
%TO.P,FID3,*%
%TO.N,*%
X-10744200Y18745200D03*
%TD*%
D13*
%TO.P,C20,1*%
%TO.N,/AVDDOUT*%
X5975000Y32375000D03*
%TO.P,C20,2*%
%TO.N,GND*%
X3025000Y32375000D03*
%TD*%
D14*
%TO.P,Y2,1,TRI-STATE*%
%TO.N,+3V3*%
X11707500Y30725000D03*
%TO.P,Y2,2,GND*%
%TO.N,GND*%
X9167500Y30725000D03*
%TO.P,Y2,3,OUTPUT*%
%TO.N,/O_IN*%
X9167500Y32925000D03*
%TO.P,Y2,4,VDD*%
%TO.N,+3V3*%
X11707500Y32925000D03*
%TD*%
D15*
%TO.P,J1,1,Pin_1*%
%TO.N,/RRP*%
X-10750000Y38400000D03*
%TO.P,J1,2,Pin_2*%
%TO.N,/RRM*%
X-10750000Y36000000D03*
%TO.P,J1,3,Pin_3*%
%TO.N,/RSP*%
X-10750000Y33500000D03*
%TO.P,J1,4,Pin_4*%
%TO.N,/RSM*%
X-10750000Y31000000D03*
%TO.P,J1,5,Pin_5*%
%TO.N,/RTP*%
X-10750000Y28500000D03*
%TO.P,J1,6,Pin_6*%
%TO.N,/RTM*%
X-10750000Y26000000D03*
%TO.P,J1,7,Pin_7*%
%TO.N,/RNP*%
X-10750000Y23500000D03*
%TO.P,J1,8,Pin_8*%
%TO.N,/RNM*%
X-10750000Y21125000D03*
D16*
%TO.P,J1,MP*%
%TO.N,N/C*%
X-17600000Y41600000D03*
X-17600000Y17900000D03*
%TD*%
D17*
%TO.P,C29,1*%
%TO.N,GND*%
X2463800Y26009600D03*
%TO.P,C29,2*%
%TO.N,/UM*%
X2463800Y25049600D03*
%TD*%
D18*
%TO.P,J15,1,Pin_1*%
%TO.N,/RRP*%
X-6750200Y36692980D03*
D19*
%TO.P,J15,2,Pin_2*%
%TO.N,/RRM*%
X-6750200Y34152980D03*
%TO.P,J15,3,Pin_3*%
%TO.N,/RSP*%
X-6750200Y31612980D03*
%TO.P,J15,4,Pin_4*%
%TO.N,/RSM*%
X-6750200Y29072980D03*
%TO.P,J15,5,Pin_5*%
%TO.N,/RTP*%
X-6750200Y26532980D03*
%TO.P,J15,6,Pin_6*%
%TO.N,/RTM*%
X-6750200Y23992980D03*
%TO.P,J15,7,Pin_7*%
%TO.N,/RNP*%
X-6750200Y21452980D03*
%TO.P,J15,8,Pin_8*%
%TO.N,/RNM*%
X-6750200Y18912980D03*
%TD*%
D20*
%TO.P,C23,1*%
%TO.N,/REF*%
X4546600Y35207000D03*
%TO.P,C23,2*%
%TO.N,GND*%
X4546600Y36167000D03*
%TD*%
D17*
%TO.P,C15,1*%
%TO.N,+3V3*%
X11963400Y35377000D03*
%TO.P,C15,2*%
%TO.N,GND*%
X11963400Y34417000D03*
%TD*%
D21*
%TO.P,C22,1*%
%TO.N,/DVDDOUT*%
X17143200Y34366200D03*
%TO.P,C22,2*%
%TO.N,GND*%
X20093200Y34366200D03*
%TD*%
D22*
%TO.P,J2,B1*%
%TO.N,+3V3*%
X27000000Y23000000D03*
%TO.P,J2,B2*%
X26000000Y23000000D03*
%TO.P,J2,B3*%
%TO.N,/ADE_Reset*%
X25000000Y23000000D03*
%TO.P,J2,B4*%
X24000000Y23000000D03*
%TO.P,J2,B5*%
%TO.N,/MOSI*%
X23000000Y23000000D03*
%TO.P,J2,B6*%
X22000000Y23000000D03*
%TO.P,J2,B7*%
%TO.N,/SS*%
X21000000Y23000000D03*
%TO.P,J2,B8*%
X20000000Y23000000D03*
%TO.P,J2,B9*%
%TO.N,/MISO*%
X19000000Y23000000D03*
%TO.P,J2,B10*%
X18000000Y23000000D03*
%TO.P,J2,B11*%
%TO.N,GND*%
X17000000Y23000000D03*
%TO.P,J2,B12*%
X14000000Y23000000D03*
%TO.P,J2,B13*%
%TO.N,/UR-*%
X13000000Y23000000D03*
%TO.P,J2,B14*%
%TO.N,/UR+*%
X12000000Y23000000D03*
%TO.P,J2,B15*%
%TO.N,/US-*%
X11000000Y23000000D03*
%TO.P,J2,B16*%
%TO.N,/US+*%
X10000000Y23000000D03*
%TO.P,J2,B17*%
%TO.N,/UT-*%
X9000000Y23000000D03*
%TO.P,J2,B18*%
%TO.N,/UT+*%
X8000000Y23000000D03*
%TD*%
D17*
%TO.P,C17,1*%
%TO.N,+3V3*%
X10896600Y35377000D03*
%TO.P,C17,2*%
%TO.N,GND*%
X10896600Y34417000D03*
%TD*%
%TO.P,C14,1*%
%TO.N,+3V3*%
X13775000Y29980000D03*
%TO.P,C14,2*%
%TO.N,GND*%
X13775000Y29020000D03*
%TD*%
D23*
%TO.P,C30,1*%
%TO.N,GND*%
X-556200Y34544000D03*
%TO.P,C30,2*%
%TO.N,/UM*%
X403800Y34544000D03*
%TD*%
D24*
%TO.P,C19,1*%
%TO.N,/AVDDOUT*%
X5204400Y30683200D03*
%TO.P,C19,2*%
%TO.N,GND*%
X4244400Y30683200D03*
%TD*%
D25*
%TO.P,U4,1,NC*%
%TO.N,unconnected-(U4-Pad1)*%
X-3235000Y17925000D03*
%TO.P,U4,2,CAP+*%
%TO.N,/C+*%
X-3235000Y19195000D03*
%TO.P,U4,3,GND*%
%TO.N,GND*%
X-3235000Y20465000D03*
%TO.P,U4,4,CAP-*%
%TO.N,/C-*%
X-3235000Y21735000D03*
%TO.P,U4,5,VOUT*%
%TO.N,/UM*%
X1915000Y21735000D03*
%TO.P,U4,6,LV*%
%TO.N,GND*%
X1915000Y20465000D03*
%TO.P,U4,7,OSC*%
%TO.N,unconnected-(U4-Pad7)*%
X1915000Y19195000D03*
%TO.P,U4,8,V+*%
%TO.N,+3V3*%
X1915000Y17925000D03*
%TD*%
D12*
%TO.P,FID2,*%
%TO.N,*%
X26365200Y33934400D03*
%TD*%
D24*
%TO.P,C28,1*%
%TO.N,GND*%
X-104200Y26085800D03*
%TO.P,C28,2*%
%TO.N,+3V3*%
X-1064200Y26085800D03*
%TD*%
%TO.P,C27,1*%
%TO.N,GND*%
X127000Y37363400D03*
%TO.P,C27,2*%
%TO.N,+3V3*%
X-833000Y37363400D03*
%TD*%
D21*
%TO.P,C24,1*%
%TO.N,/REF*%
X6043400Y35128200D03*
%TO.P,C24,2*%
%TO.N,GND*%
X8993400Y35128200D03*
%TD*%
D23*
%TO.P,C21,1*%
%TO.N,/DVDDOUT*%
X17935000Y32588200D03*
%TO.P,C21,2*%
%TO.N,GND*%
X18895000Y32588200D03*
%TD*%
D26*
%TO.N,GND*%
X12877800Y28778200D03*
X-16100000Y27403599D03*
X3048000Y37363400D03*
X-18640000Y32483599D03*
X12065000Y27940000D03*
X24540000Y32483599D03*
X-2540000Y39344600D03*
X-18640000Y24863599D03*
X17246600Y26085800D03*
X-18640000Y27403599D03*
X19460000Y37563599D03*
X4430000Y37400000D03*
X3200400Y19862800D03*
X-14440000Y37200000D03*
X13843000Y27762200D03*
X-14100000Y23060000D03*
X4428453Y33111500D03*
X17018000Y27711400D03*
X-13450000Y18140000D03*
X16920000Y37563599D03*
X-18640000Y29943599D03*
X390000Y17940000D03*
X9457677Y29825500D03*
X16459200Y32664400D03*
X5540000Y38930000D03*
X-13560000Y27403599D03*
X-16100000Y32483599D03*
X13868400Y25908000D03*
X-18640000Y37563599D03*
X-18640000Y22323599D03*
X-16100000Y24863599D03*
X-18640000Y19783599D03*
X1001000Y26060000D03*
X-13560000Y24863599D03*
X-16100000Y22323599D03*
X24540000Y37563599D03*
X670000Y28320000D03*
X-16100000Y29943599D03*
X-5230000Y25880000D03*
X660000Y31690000D03*
X-13560000Y40103599D03*
X-18640000Y35023599D03*
X-16100000Y19783599D03*
X1850000Y39045500D03*
X-11020000Y40103599D03*
X-13560000Y19783599D03*
X-16100000Y35023599D03*
X-16100000Y37563599D03*
X20497800Y32283400D03*
X-14520000Y29090000D03*
%TO.N,+3V3*%
X1955800Y16967200D03*
X26797000Y27305000D03*
X25298400Y26339800D03*
X11050000Y37425000D03*
X15443200Y35737800D03*
X24587200Y34823400D03*
X11277600Y28854400D03*
X-2190000Y25740000D03*
X12166600Y29514800D03*
X-1975500Y37553372D03*
%TO.N,/AVDDOUT*%
X7863900Y30124400D03*
%TO.N,/DVDDOUT*%
X9753600Y38150800D03*
%TO.N,/REF*%
X4013200Y33985200D03*
%TO.N,/ISP*%
X1040000Y35730000D03*
X-2150000Y34820000D03*
%TO.N,/INP*%
X2550000Y23540000D03*
X-2510000Y23480000D03*
%TO.N,/UR+*%
X11970000Y26540000D03*
X3524020Y28620000D03*
%TO.N,/US+*%
X10000000Y25800000D03*
X9143911Y27833911D03*
X5100000Y29720000D03*
%TO.N,/UT+*%
X8050000Y25740000D03*
%TO.N,/ADE_Reset*%
X21717000Y33197800D03*
%TO.N,/O_IN*%
X10375000Y29850000D03*
%TO.N,/SCLK*%
X13250000Y33950000D03*
X13225000Y31200000D03*
%TO.N,/MISO*%
X13214638Y35157566D03*
%TO.N,/MOSI*%
X15409211Y34609211D03*
%TO.N,/SS*%
X14459548Y36442005D03*
%TO.N,/RN*%
X-5934500Y22738843D03*
X-4520000Y22670000D03*
%TO.N,Net-(C5-Pad2)*%
X-3410000Y23230000D03*
X230000Y20824500D03*
%TO.N,Net-(C6-Pad2)*%
X260000Y33020000D03*
X-2650000Y33470000D03*
%TO.N,Net-(C13-Pad2)*%
X-700000Y29710000D03*
X-3390000Y29150000D03*
%TO.N,Net-(C16-Pad2)*%
X309163Y38610563D03*
X-2600000Y36690000D03*
%TO.N,/UM*%
X1610000Y23910000D03*
X1625500Y35047145D03*
X2277484Y22357547D03*
%TO.N,/C+*%
X-70000Y18890000D03*
%TO.N,/UR-*%
X4230000Y29490000D03*
X13040000Y26640000D03*
%TO.N,/US-*%
X11000000Y25870000D03*
X6182300Y29546200D03*
X8393411Y29123411D03*
%TO.N,/UT-*%
X9020000Y25950000D03*
%TO.N,/C-*%
X-4765656Y20033911D03*
%TD*%
D27*
%TO.N,GND*%
X17000000Y25839200D02*
X17246600Y26085800D01*
X9167500Y30725000D02*
X9167500Y30115677D01*
X1915000Y20465000D02*
X2598200Y20465000D01*
X2598200Y20465000D02*
X3200400Y19862800D01*
X3025000Y32375000D02*
X3691953Y32375000D01*
X13775000Y29020000D02*
X13119600Y29020000D01*
X14000000Y23000000D02*
X14000000Y25776400D01*
X975200Y26085800D02*
X1001000Y26060000D01*
X14000000Y25776400D02*
X13868400Y25908000D01*
X3691953Y32375000D02*
X4428453Y33111500D01*
X-104200Y26085800D02*
X975200Y26085800D01*
X17000000Y23000000D02*
X17000000Y25839200D01*
X13119600Y29020000D02*
X12877800Y28778200D01*
X9167500Y30925000D02*
X9300000Y30925000D01*
%TO.N,+3V3*%
X12166600Y29514800D02*
X12166600Y30265900D01*
X-1410000Y25740000D02*
X-1064200Y26085800D01*
X10896600Y37271600D02*
X10896600Y35377000D01*
X26492200Y26416000D02*
X25374600Y26416000D01*
X26000000Y23000000D02*
X26000000Y25638200D01*
X1955800Y17884200D02*
X1915000Y17925000D01*
X11707500Y32925000D02*
X11707500Y30725000D01*
X11050000Y37425000D02*
X10896600Y37271600D01*
X11050000Y37425000D02*
X11647800Y37425000D01*
X1955800Y16967200D02*
X1955800Y17884200D01*
X-2190000Y25740000D02*
X-1410000Y25740000D01*
X27000000Y25908200D02*
X26492200Y26416000D01*
X-1785528Y37363400D02*
X-1975500Y37553372D01*
X12452500Y29980000D02*
X11707500Y30725000D01*
X25374600Y26416000D02*
X25298400Y26339800D01*
X27000000Y23000000D02*
X27000000Y25908200D01*
X1915000Y17925000D02*
X1915000Y17895000D01*
X27000000Y23000000D02*
X26000000Y23000000D01*
X26000000Y25638200D02*
X25298400Y26339800D01*
X13775000Y29980000D02*
X12452500Y29980000D01*
X12166600Y30265900D02*
X11707500Y30725000D01*
X-833000Y37363400D02*
X-1785528Y37363400D01*
X11963400Y37109400D02*
X11963400Y35377000D01*
X11647800Y37425000D02*
X11963400Y37109400D01*
%TO.N,/AVDDOUT*%
X5451000Y32375000D02*
X5975000Y32375000D01*
X6766400Y32375000D02*
X5975000Y32375000D01*
X7467600Y31673800D02*
X6766400Y32375000D01*
X5204400Y32128400D02*
X5451000Y32375000D01*
X7863900Y30286900D02*
X7467600Y30683200D01*
X5204400Y30683200D02*
X5204400Y32128400D01*
X7467600Y30683200D02*
X7467600Y31673800D01*
X7863900Y30124400D02*
X7863900Y30286900D01*
%TO.N,/DVDDOUT*%
X17935000Y32588200D02*
X17935000Y33574400D01*
X17935000Y33574400D02*
X17143200Y34366200D01*
X17143200Y35206200D02*
X17143200Y34366200D01*
X14198600Y38150800D02*
X17143200Y35206200D01*
X9753600Y38150800D02*
X14198600Y38150800D01*
%TO.N,/REF*%
X5156200Y33985200D02*
X6043400Y34872400D01*
X6043400Y34872400D02*
X6043400Y35128200D01*
X4013200Y33985200D02*
X4013200Y34673600D01*
X4013200Y34673600D02*
X4546600Y35207000D01*
X4013200Y33985200D02*
X5156200Y33985200D01*
%TO.N,/ISP*%
X1040000Y35730000D02*
X728800Y35730000D01*
X-1422400Y35204400D02*
X-1473200Y35255200D01*
X-1714800Y35255200D02*
X-2150000Y34820000D01*
X-1473200Y35255200D02*
X-1714800Y35255200D01*
X728800Y35730000D02*
X203200Y35204400D01*
X203200Y35204400D02*
X-1422400Y35204400D01*
%TO.N,/INP*%
X-2510000Y23360000D02*
X-2100000Y22950000D01*
X-2100000Y22950000D02*
X2080000Y22950000D01*
X2080000Y22950000D02*
X2550000Y23420000D01*
X-2510000Y23480000D02*
X-2510000Y23360000D01*
X2550000Y23420000D02*
X2550000Y23540000D01*
D28*
%TO.N,/UR+*%
X4950000Y28270000D02*
X7426414Y28270000D01*
X8640000Y26690000D02*
X7818207Y27511793D01*
X12000000Y26510000D02*
X11970000Y26540000D01*
X3524020Y28620000D02*
X4600000Y28620000D01*
X11970000Y26540000D02*
X11820000Y26690000D01*
X4600000Y28620000D02*
X4950000Y28270000D01*
X11820000Y26690000D02*
X8640000Y26690000D01*
X7818207Y27511793D02*
X7818207Y27878207D01*
X12000000Y23000000D02*
X12000000Y26510000D01*
X7426414Y28270000D02*
X7818207Y27878207D01*
%TO.N,/US+*%
X5100000Y29540000D02*
X5100000Y29720000D01*
X9143911Y27833911D02*
X8786089Y27833911D01*
X8786089Y27833911D02*
X7673311Y28946689D01*
X7673311Y28946689D02*
X5693311Y28946689D01*
X10000000Y23000000D02*
X10000000Y25800000D01*
X5693311Y28946689D02*
X5100000Y29540000D01*
D27*
%TO.N,/RSP*%
X-6750200Y31612980D02*
X-8637220Y33500000D01*
%TO.N,/RSM*%
X-6750200Y29072980D02*
X-8677220Y31000000D01*
%TO.N,/RTP*%
X-6750200Y26532980D02*
X-8717220Y28500000D01*
%TO.N,/RTM*%
X-6750200Y23992980D02*
X-8757220Y26000000D01*
%TO.N,/RRP*%
X-6750200Y37350200D02*
X-7800000Y38400000D01*
X-7800000Y38400000D02*
X-10750000Y38400000D01*
X-6750200Y36692980D02*
X-6750200Y37350200D01*
%TO.N,/RRM*%
X-8370000Y35780000D02*
X-8370000Y35772780D01*
X-8370000Y35772780D02*
X-6750200Y34152980D01*
X-8590000Y36000000D02*
X-8370000Y35780000D01*
X-10750000Y36000000D02*
X-8590000Y36000000D01*
%TO.N,/RNP*%
X-6750200Y21452980D02*
X-8797220Y23500000D01*
%TO.N,/RNM*%
X-6750200Y18912980D02*
X-8962220Y21125000D01*
D28*
%TO.N,/UT+*%
X8000000Y23000000D02*
X8000000Y25690000D01*
X8000000Y25690000D02*
X8050000Y25740000D01*
D27*
%TO.N,/ADE_Reset*%
X21717000Y31058000D02*
X24000000Y28775000D01*
X24000000Y28775000D02*
X24000000Y23000000D01*
X21717000Y33197800D02*
X21717000Y31058000D01*
X25000000Y23000000D02*
X24000000Y23000000D01*
%TO.N,/O_IN*%
X10375000Y29850000D02*
X10375000Y31717500D01*
X10375000Y31717500D02*
X9167500Y32925000D01*
%TO.N,/SCLK*%
X13225000Y33925000D02*
X13225000Y31200000D01*
%TO.N,/MISO*%
X15925000Y29150000D02*
X14000000Y31075000D01*
X14000000Y34372204D02*
X13214638Y35157566D01*
X16825000Y29150000D02*
X15925000Y29150000D01*
X19000000Y23000000D02*
X18000000Y23000000D01*
X14000000Y31075000D02*
X14000000Y34372204D01*
X18000000Y27975000D02*
X16825000Y29150000D01*
X18000000Y23000000D02*
X18000000Y27975000D01*
%TO.N,/MOSI*%
X19200000Y28800000D02*
X19200000Y27125000D01*
X19575000Y26750000D02*
X21350000Y26750000D01*
X15409211Y34609211D02*
X15409211Y31965789D01*
X21350000Y26750000D02*
X22000000Y26100000D01*
X22000000Y26100000D02*
X22000000Y23000000D01*
X16950000Y30425000D02*
X17575000Y30425000D01*
X17575000Y30425000D02*
X19200000Y28800000D01*
X15409211Y31965789D02*
X16950000Y30425000D01*
X23000000Y23000000D02*
X22000000Y23000000D01*
X19200000Y27125000D02*
X19575000Y26750000D01*
%TO.N,/SS*%
X20000000Y23000000D02*
X21000000Y23000000D01*
X18700000Y26400000D02*
X19225000Y25875000D01*
X17200000Y29700000D02*
X18700000Y28200000D01*
X14700000Y31400000D02*
X16400000Y29700000D01*
X20000000Y25875000D02*
X20000000Y23000000D01*
X14459548Y36442005D02*
X14700000Y36201553D01*
X14700000Y36201553D02*
X14700000Y31400000D01*
X19225000Y25875000D02*
X20000000Y25875000D01*
X16400000Y29700000D02*
X17200000Y29700000D01*
X18700000Y28200000D02*
X18700000Y26400000D01*
%TO.N,/RN*%
X-4520000Y22670000D02*
X-4590000Y22740000D01*
X-5933343Y22740000D02*
X-5934500Y22738843D01*
X-4590000Y22740000D02*
X-5933343Y22740000D01*
%TO.N,Net-(C5-Pad2)*%
X-3410000Y23230000D02*
X-2780480Y22600480D01*
X-1545980Y22600480D02*
X230000Y20824500D01*
X-2780480Y22600480D02*
X-1545980Y22600480D01*
%TO.N,Net-(C6-Pad2)*%
X-2200000Y33020000D02*
X-2650000Y33470000D01*
X260000Y33020000D02*
X-2200000Y33020000D01*
%TO.N,Net-(C13-Pad2)*%
X-2830000Y29710000D02*
X-3390000Y29150000D01*
X-700000Y29710000D02*
X-2830000Y29710000D01*
%TO.N,Net-(C16-Pad2)*%
X-2600000Y37812065D02*
X-2234182Y38177883D01*
X-123517Y38177883D02*
X309163Y38610563D01*
X-2600000Y36690000D02*
X-2600000Y37812065D01*
X-2234182Y38177883D02*
X-123517Y38177883D01*
%TO.N,/UM*%
X2108200Y34564445D02*
X1625500Y35047145D01*
X1122355Y34544000D02*
X1625500Y35047145D01*
X1610000Y23910000D02*
X1625500Y23925500D01*
X2277484Y22357547D02*
X2277484Y22097484D01*
X2277484Y22097484D02*
X1915000Y21735000D01*
X2463800Y25049600D02*
X1757800Y25049600D01*
X1625500Y30810100D02*
X2108200Y31292800D01*
X403800Y34544000D02*
X1122355Y34544000D01*
X1625500Y23925500D02*
X1625500Y24917300D01*
X2108200Y31292800D02*
X2108200Y34564445D01*
X1757800Y25049600D02*
X1625500Y24917300D01*
X1625500Y24917300D02*
X1625500Y30810100D01*
D28*
%TO.N,/C+*%
X-70000Y18890000D02*
X-420000Y19240000D01*
X-420000Y19240000D02*
X-3190000Y19240000D01*
X-3190000Y19240000D02*
X-3235000Y19195000D01*
%TO.N,/UR-*%
X13000000Y23000000D02*
X13000000Y26600000D01*
X13040000Y26640000D02*
X12520000Y27160000D01*
X7472831Y28647169D02*
X5072831Y28647169D01*
X8600000Y27160000D02*
X8170000Y27590000D01*
X13000000Y26600000D02*
X13040000Y26640000D01*
X12520000Y27160000D02*
X8600000Y27160000D01*
X5072831Y28647169D02*
X4230000Y29490000D01*
X8170000Y27590000D02*
X8170000Y27950000D01*
X8170000Y27950000D02*
X7472831Y28647169D01*
%TO.N,/US-*%
X8540000Y29270000D02*
X8393411Y29123411D01*
X7683800Y29546200D02*
X7960000Y29270000D01*
X7960000Y29270000D02*
X8540000Y29270000D01*
X11000000Y25870000D02*
X11000000Y23000000D01*
X6182300Y29546200D02*
X7683800Y29546200D01*
%TO.N,/UT-*%
X9020000Y25950000D02*
X9000000Y25930000D01*
X9000000Y25930000D02*
X9000000Y23550000D01*
%TO.N,/C-*%
X-4880000Y20148255D02*
X-4880000Y21550000D01*
X-4880000Y21550000D02*
X-4740000Y21690000D01*
X-4765656Y20033911D02*
X-4880000Y20148255D01*
X-4740000Y21690000D02*
X-3280000Y21690000D01*
X-3280000Y21690000D02*
X-3235000Y21735000D01*
%TD*%
%TA.AperFunction,Conductor*%
%TO.N,GND*%
G36*
X-9259161Y42182212D02*
G01*
X-9212025Y42129120D01*
X-9200000Y42075401D01*
X-9200000Y40005877D01*
X-9200045Y39954551D01*
X-9193902Y39941758D01*
X-9192773Y39936790D01*
X-9190215Y39929465D01*
X-9188006Y39924875D01*
X-9184850Y39911038D01*
X-9176006Y39899939D01*
X-9173636Y39895015D01*
X-9170084Y39889353D01*
X-9166688Y39885084D01*
X-9160547Y39872295D01*
X-9149464Y39863432D01*
X-9146293Y39859446D01*
X-9140809Y39853952D01*
X-9136827Y39850773D01*
X-9127985Y39839677D01*
X-9115207Y39833514D01*
X-9110936Y39830104D01*
X-9105286Y39826546D01*
X-9100366Y39824168D01*
X-9089285Y39815306D01*
X-9075457Y39812126D01*
X-9070876Y39809912D01*
X-9063551Y39807339D01*
X-9058580Y39806201D01*
X-9045798Y39800035D01*
X-9022787Y39800015D01*
X-9022789Y39798003D01*
X-9022723Y39797988D01*
X-9022723Y39800000D01*
X-9005877Y39800000D01*
X-8954551Y39799955D01*
X-8954555Y39795150D01*
X-8954457Y39795144D01*
X-8954457Y39800000D01*
X27281224Y39800000D01*
X27349345Y39779998D01*
X27395838Y39726342D01*
X27407221Y39674922D01*
X27444435Y34582841D01*
X27444737Y34541570D01*
X27425233Y34473305D01*
X27371919Y34426421D01*
X27301720Y34415804D01*
X27236926Y34444824D01*
X27207492Y34481491D01*
X27202570Y34490747D01*
X27078561Y34642798D01*
X26927380Y34767865D01*
X26754785Y34861187D01*
X26640707Y34896500D01*
X26573239Y34917385D01*
X26573236Y34917386D01*
X26567352Y34919207D01*
X26561227Y34919851D01*
X26561226Y34919851D01*
X26378347Y34939073D01*
X26378346Y34939073D01*
X26372219Y34939717D01*
X26249583Y34928556D01*
X26182959Y34922493D01*
X26182958Y34922493D01*
X26176818Y34921934D01*
X26170904Y34920193D01*
X26170902Y34920193D01*
X26055796Y34886315D01*
X25988593Y34866536D01*
X25983128Y34863679D01*
X25820172Y34778488D01*
X25820168Y34778485D01*
X25814712Y34775633D01*
X25809912Y34771773D01*
X25809911Y34771773D01*
X25792513Y34757785D01*
X25661800Y34652689D01*
X25535680Y34502384D01*
X25532716Y34496992D01*
X25532713Y34496988D01*
X25467454Y34378282D01*
X25441156Y34330446D01*
X25439295Y34324579D01*
X25439294Y34324577D01*
X25412681Y34240682D01*
X25381828Y34143422D01*
X25359957Y33948437D01*
X25376375Y33752917D01*
X25430458Y33564309D01*
X25443691Y33538561D01*
X25517323Y33395287D01*
X25517326Y33395283D01*
X25520144Y33389799D01*
X25642018Y33236031D01*
X25646711Y33232037D01*
X25646712Y33232036D01*
X25784124Y33115090D01*
X25791438Y33108865D01*
X25796816Y33105859D01*
X25796818Y33105858D01*
X25845172Y33078834D01*
X25962713Y33013143D01*
X26149318Y32952511D01*
X26344146Y32929279D01*
X26350281Y32929751D01*
X26350283Y32929751D01*
X26533634Y32943859D01*
X26533638Y32943860D01*
X26539776Y32944332D01*
X26728756Y32997097D01*
X26903889Y33085563D01*
X26933715Y33108865D01*
X27008328Y33167159D01*
X27058503Y33206360D01*
X27088284Y33240861D01*
X27182685Y33350227D01*
X27182685Y33350228D01*
X27186709Y33354889D01*
X27202971Y33383514D01*
X27214444Y33403711D01*
X27265483Y33453062D01*
X27335102Y33466984D01*
X27401195Y33441058D01*
X27442780Y33383514D01*
X27450000Y33341474D01*
X27450000Y27811231D01*
X27429998Y27743110D01*
X27376342Y27696617D01*
X27306068Y27686513D01*
X27241488Y27716007D01*
X27234905Y27722136D01*
X27230305Y27726736D01*
X27225282Y27733282D01*
X27099841Y27829536D01*
X26953762Y27890044D01*
X26797000Y27910682D01*
X26640238Y27890044D01*
X26494159Y27829536D01*
X26368718Y27733282D01*
X26272464Y27607841D01*
X26211956Y27461762D01*
X26191318Y27305000D01*
X26211956Y27148238D01*
X26272464Y27002159D01*
X26277491Y26995608D01*
X26277493Y26995604D01*
X26316934Y26944203D01*
X26342534Y26877983D01*
X26328269Y26808434D01*
X26278668Y26757639D01*
X26216971Y26741500D01*
X25803931Y26741500D01*
X25735810Y26761502D01*
X25727050Y26768562D01*
X25726682Y26768082D01*
X25674094Y26808434D01*
X25601241Y26864336D01*
X25455162Y26924844D01*
X25298400Y26945482D01*
X25141638Y26924844D01*
X24995559Y26864336D01*
X24870118Y26768082D01*
X24773864Y26642641D01*
X24713356Y26496562D01*
X24712278Y26488374D01*
X24704501Y26429303D01*
X24692718Y26339800D01*
X24693796Y26331612D01*
X24710242Y26206695D01*
X24713356Y26183038D01*
X24773864Y26036959D01*
X24870118Y25911518D01*
X24995559Y25815264D01*
X25141638Y25754756D01*
X25298400Y25734118D01*
X25365241Y25742918D01*
X25435389Y25731979D01*
X25470782Y25707091D01*
X25629247Y25548626D01*
X25663273Y25486314D01*
X25658208Y25415499D01*
X25615661Y25358663D01*
X25588368Y25343121D01*
X25583945Y25341289D01*
X25571769Y25338867D01*
X25561450Y25331972D01*
X25549982Y25327222D01*
X25548443Y25330937D01*
X25502249Y25316472D01*
X25451711Y25331312D01*
X25450017Y25327223D01*
X25438547Y25331974D01*
X25428231Y25338867D01*
X25416062Y25341288D01*
X25416061Y25341288D01*
X25375816Y25349293D01*
X25369748Y25350500D01*
X24630252Y25350500D01*
X24624184Y25349293D01*
X24583939Y25341288D01*
X24583938Y25341288D01*
X24571769Y25338867D01*
X24561453Y25331974D01*
X24549983Y25327223D01*
X24548445Y25330937D01*
X24502249Y25316472D01*
X24451711Y25331312D01*
X24450017Y25327223D01*
X24438547Y25331974D01*
X24428231Y25338867D01*
X24416061Y25341288D01*
X24404595Y25346037D01*
X24406218Y25349956D01*
X24364007Y25372037D01*
X24328877Y25433733D01*
X24325500Y25462707D01*
X24325500Y28755290D01*
X24325980Y28766272D01*
X24328303Y28792820D01*
X24328303Y28792822D01*
X24329264Y28803807D01*
X24319508Y28840215D01*
X24317130Y28850942D01*
X24315173Y28862040D01*
X24310588Y28888045D01*
X24305077Y28897590D01*
X24303885Y28900866D01*
X24302408Y28904034D01*
X24299554Y28914684D01*
X24277945Y28945544D01*
X24272039Y28954815D01*
X24258707Y28977906D01*
X24253194Y28987455D01*
X24224317Y29011685D01*
X24216215Y29019111D01*
X22079405Y31155921D01*
X22045379Y31218233D01*
X22042500Y31245016D01*
X22042500Y32628514D01*
X22062502Y32696635D01*
X22091796Y32728477D01*
X22138736Y32764495D01*
X22145282Y32769518D01*
X22164049Y32793975D01*
X22211342Y32855609D01*
X22241536Y32894959D01*
X22302044Y33041038D01*
X22322682Y33197800D01*
X22302044Y33354562D01*
X22297513Y33365502D01*
X22286034Y33393214D01*
X22241536Y33500641D01*
X22145282Y33626082D01*
X22134454Y33634391D01*
X22065312Y33687445D01*
X22019841Y33722336D01*
X21873762Y33782844D01*
X21717000Y33803482D01*
X21560238Y33782844D01*
X21414159Y33722336D01*
X21368688Y33687445D01*
X21299547Y33634391D01*
X21288718Y33626082D01*
X21192464Y33500641D01*
X21147966Y33393214D01*
X21136488Y33365502D01*
X21131956Y33354562D01*
X21111318Y33197800D01*
X21131956Y33041038D01*
X21192464Y32894959D01*
X21222658Y32855609D01*
X21269952Y32793975D01*
X21288718Y32769518D01*
X21295264Y32764495D01*
X21342204Y32728477D01*
X21384071Y32671139D01*
X21391500Y32628514D01*
X21391500Y31077710D01*
X21391020Y31066728D01*
X21390092Y31056116D01*
X21387736Y31029193D01*
X21390590Y31018544D01*
X21397491Y30992790D01*
X21399870Y30982058D01*
X21406412Y30944955D01*
X21411923Y30935410D01*
X21413115Y30932134D01*
X21414592Y30928966D01*
X21417446Y30918316D01*
X21432261Y30897159D01*
X21439055Y30887456D01*
X21444961Y30878185D01*
X21453991Y30862545D01*
X21463806Y30845545D01*
X21492682Y30821315D01*
X21500785Y30813889D01*
X23637595Y28677079D01*
X23671621Y28614767D01*
X23674500Y28587984D01*
X23674500Y25462707D01*
X23654498Y25394586D01*
X23600842Y25348093D01*
X23595295Y25346302D01*
X23595405Y25346037D01*
X23583939Y25341288D01*
X23571769Y25338867D01*
X23561453Y25331974D01*
X23549983Y25327223D01*
X23548445Y25330937D01*
X23502249Y25316472D01*
X23451711Y25331312D01*
X23450017Y25327223D01*
X23438547Y25331974D01*
X23428231Y25338867D01*
X23416062Y25341288D01*
X23416061Y25341288D01*
X23375816Y25349293D01*
X23369748Y25350500D01*
X22630252Y25350500D01*
X22624184Y25349293D01*
X22583939Y25341288D01*
X22583938Y25341288D01*
X22571769Y25338867D01*
X22561453Y25331974D01*
X22549983Y25327223D01*
X22548445Y25330937D01*
X22502249Y25316472D01*
X22451711Y25331312D01*
X22450017Y25327223D01*
X22438547Y25331974D01*
X22428231Y25338867D01*
X22416061Y25341288D01*
X22404595Y25346037D01*
X22406218Y25349956D01*
X22364007Y25372037D01*
X22328877Y25433733D01*
X22325500Y25462707D01*
X22325500Y26080290D01*
X22325980Y26091272D01*
X22328303Y26117820D01*
X22328303Y26117822D01*
X22329264Y26128807D01*
X22319508Y26165215D01*
X22317130Y26175942D01*
X22315084Y26187545D01*
X22310588Y26213045D01*
X22305077Y26222590D01*
X22303885Y26225866D01*
X22302408Y26229034D01*
X22299554Y26239684D01*
X22277945Y26270544D01*
X22272039Y26279815D01*
X22258707Y26302906D01*
X22253194Y26312455D01*
X22224317Y26336685D01*
X22216215Y26344111D01*
X21594111Y26966215D01*
X21586684Y26974319D01*
X21569541Y26994749D01*
X21569542Y26994749D01*
X21562455Y27003194D01*
X21547057Y27012084D01*
X21529815Y27022039D01*
X21520544Y27027945D01*
X21498715Y27043230D01*
X21489684Y27049554D01*
X21479034Y27052408D01*
X21475866Y27053885D01*
X21472590Y27055077D01*
X21463045Y27060588D01*
X21429301Y27066538D01*
X21425942Y27067130D01*
X21415215Y27069508D01*
X21378807Y27079264D01*
X21367822Y27078303D01*
X21367820Y27078303D01*
X21341272Y27075980D01*
X21330290Y27075500D01*
X19762016Y27075500D01*
X19693895Y27095502D01*
X19672921Y27112405D01*
X19562405Y27222921D01*
X19528379Y27285233D01*
X19525500Y27312016D01*
X19525500Y28780290D01*
X19525980Y28791272D01*
X19528303Y28817820D01*
X19528303Y28817822D01*
X19529264Y28828807D01*
X19519508Y28865215D01*
X19517130Y28875942D01*
X19514996Y28888045D01*
X19510588Y28913045D01*
X19505077Y28922590D01*
X19503885Y28925866D01*
X19502408Y28929034D01*
X19499554Y28939684D01*
X19477945Y28970544D01*
X19472039Y28979815D01*
X19458707Y29002906D01*
X19453194Y29012455D01*
X19424317Y29036685D01*
X19416215Y29044111D01*
X17819111Y30641215D01*
X17811684Y30649319D01*
X17794541Y30669749D01*
X17794542Y30669749D01*
X17787455Y30678194D01*
X17764919Y30691205D01*
X17754815Y30697039D01*
X17745544Y30702945D01*
X17714684Y30724554D01*
X17704034Y30727408D01*
X17700866Y30728885D01*
X17697590Y30730077D01*
X17688045Y30735588D01*
X17654301Y30741538D01*
X17650942Y30742130D01*
X17640215Y30744508D01*
X17603807Y30754264D01*
X17592822Y30753303D01*
X17592820Y30753303D01*
X17566272Y30750980D01*
X17555290Y30750500D01*
X17137016Y30750500D01*
X17068895Y30770502D01*
X17047921Y30787405D01*
X15771616Y32063710D01*
X15737590Y32126022D01*
X15734711Y32152805D01*
X15734711Y34039925D01*
X15754713Y34108046D01*
X15784007Y34139888D01*
X15830947Y34175906D01*
X15837493Y34180929D01*
X15933747Y34306370D01*
X15994255Y34452449D01*
X16014893Y34609211D01*
X15994255Y34765973D01*
X15933747Y34912052D01*
X15837493Y35037493D01*
X15823837Y35047972D01*
X15807507Y35060502D01*
X15765640Y35117840D01*
X15761418Y35188711D01*
X15796182Y35250614D01*
X15807507Y35260427D01*
X15864932Y35304491D01*
X15864936Y35304495D01*
X15871482Y35309518D01*
X15967736Y35434959D01*
X16028244Y35581038D01*
X16029322Y35589226D01*
X16030006Y35591779D01*
X16066956Y35652402D01*
X16130816Y35683425D01*
X16201311Y35674998D01*
X16240808Y35648265D01*
X16442574Y35446499D01*
X16476600Y35384187D01*
X16471535Y35313372D01*
X16454831Y35282545D01*
X16448048Y35273361D01*
X16415566Y35229384D01*
X16370681Y35101569D01*
X16367700Y35070034D01*
X16367700Y33662366D01*
X16370681Y33630831D01*
X16415566Y33503016D01*
X16421158Y33495446D01*
X16421159Y33495443D01*
X16475375Y33422041D01*
X16496050Y33394050D01*
X16503621Y33388458D01*
X16597443Y33319159D01*
X16597446Y33319158D01*
X16605016Y33313566D01*
X16732831Y33268681D01*
X16740477Y33267958D01*
X16740478Y33267958D01*
X16746448Y33267394D01*
X16764366Y33265700D01*
X17483500Y33265700D01*
X17551621Y33245698D01*
X17598114Y33192042D01*
X17609500Y33139700D01*
X17609500Y33106430D01*
X17589498Y33038309D01*
X17572595Y33017335D01*
X17511776Y32956516D01*
X17507117Y32946524D01*
X17507116Y32946523D01*
X17467786Y32862179D01*
X17461028Y32847687D01*
X17454500Y32798101D01*
X17454501Y32378300D01*
X17461028Y32328713D01*
X17465101Y32319979D01*
X17465101Y32319978D01*
X17489300Y32268084D01*
X17511776Y32219884D01*
X17596684Y32134976D01*
X17606676Y32130317D01*
X17606677Y32130316D01*
X17696776Y32088302D01*
X17705513Y32084228D01*
X17755099Y32077700D01*
X17934934Y32077700D01*
X18114900Y32077701D01*
X18164487Y32084228D01*
X18175817Y32089511D01*
X18263323Y32130316D01*
X18263324Y32130317D01*
X18273316Y32134976D01*
X18358224Y32219884D01*
X18384912Y32277115D01*
X18404898Y32319976D01*
X18404899Y32319978D01*
X18408972Y32328713D01*
X18415500Y32378299D01*
X18415499Y32798100D01*
X18408972Y32847687D01*
X18401721Y32863238D01*
X18362884Y32946523D01*
X18362883Y32946524D01*
X18358224Y32956516D01*
X18297405Y33017335D01*
X18263379Y33079647D01*
X18260500Y33106430D01*
X18260500Y33554687D01*
X18260979Y33565668D01*
X18263303Y33592230D01*
X18263303Y33592232D01*
X18264263Y33603207D01*
X18254508Y33639617D01*
X18252133Y33650328D01*
X18245588Y33687445D01*
X18240078Y33696989D01*
X18238886Y33700265D01*
X18237407Y33703436D01*
X18234554Y33714084D01*
X18223768Y33729489D01*
X18212941Y33744951D01*
X18207036Y33754221D01*
X18193707Y33777308D01*
X18193704Y33777312D01*
X18188194Y33786855D01*
X18159324Y33811080D01*
X18151221Y33818506D01*
X17955605Y34014122D01*
X17921579Y34076434D01*
X17918700Y34103217D01*
X17918700Y34823400D01*
X23981518Y34823400D01*
X24002156Y34666638D01*
X24062664Y34520559D01*
X24158918Y34395118D01*
X24284359Y34298864D01*
X24430438Y34238356D01*
X24438626Y34237278D01*
X24482522Y34231499D01*
X24587200Y34217718D01*
X24595388Y34218796D01*
X24735774Y34237278D01*
X24743962Y34238356D01*
X24890041Y34298864D01*
X25015482Y34395118D01*
X25111736Y34520559D01*
X25172244Y34666638D01*
X25192882Y34823400D01*
X25172244Y34980162D01*
X25111736Y35126241D01*
X25015482Y35251682D01*
X24890041Y35347936D01*
X24743962Y35408444D01*
X24587200Y35429082D01*
X24430438Y35408444D01*
X24284359Y35347936D01*
X24158918Y35251682D01*
X24062664Y35126241D01*
X24002156Y34980162D01*
X23981518Y34823400D01*
X17918700Y34823400D01*
X17918700Y35070034D01*
X17915719Y35101569D01*
X17870834Y35229384D01*
X17865242Y35236954D01*
X17865241Y35236957D01*
X17795942Y35330779D01*
X17790350Y35338350D01*
X17758903Y35361577D01*
X17688957Y35413241D01*
X17688954Y35413242D01*
X17681384Y35418834D01*
X17553569Y35463719D01*
X17545923Y35464442D01*
X17545922Y35464442D01*
X17539952Y35465006D01*
X17522034Y35466700D01*
X17395217Y35466700D01*
X17327096Y35486702D01*
X17306122Y35503605D01*
X14442710Y38367016D01*
X14435283Y38375120D01*
X14418141Y38395549D01*
X14418142Y38395549D01*
X14411055Y38403994D01*
X14401506Y38409507D01*
X14378415Y38422839D01*
X14369144Y38428745D01*
X14365814Y38431077D01*
X14338284Y38450354D01*
X14327634Y38453208D01*
X14324466Y38454685D01*
X14321190Y38455877D01*
X14311645Y38461388D01*
X14277901Y38467338D01*
X14274542Y38467930D01*
X14263815Y38470308D01*
X14227407Y38480064D01*
X14216422Y38479103D01*
X14216420Y38479103D01*
X14189872Y38476780D01*
X14178890Y38476300D01*
X10322886Y38476300D01*
X10254765Y38496302D01*
X10222923Y38525596D01*
X10186905Y38572536D01*
X10181882Y38579082D01*
X10056441Y38675336D01*
X9928568Y38728303D01*
X9917991Y38732684D01*
X9910362Y38735844D01*
X9753600Y38756482D01*
X9596838Y38735844D01*
X9589209Y38732684D01*
X9578632Y38728303D01*
X9450759Y38675336D01*
X9325318Y38579082D01*
X9229064Y38453641D01*
X9168556Y38307562D01*
X9147918Y38150800D01*
X9168556Y37994038D01*
X9229064Y37847959D01*
X9259620Y37808138D01*
X9311723Y37740236D01*
X9325318Y37722518D01*
X9450759Y37626264D01*
X9596838Y37565756D01*
X9753600Y37545118D01*
X9761788Y37546196D01*
X9902174Y37564678D01*
X9910362Y37565756D01*
X10056441Y37626264D01*
X10181882Y37722518D01*
X10197041Y37742273D01*
X10222923Y37776004D01*
X10280261Y37817871D01*
X10322886Y37825300D01*
X10377260Y37825300D01*
X10445381Y37805298D01*
X10491874Y37751642D01*
X10501978Y37681368D01*
X10493669Y37651082D01*
X10476532Y37609708D01*
X10464956Y37581762D01*
X10444318Y37425000D01*
X10464956Y37268238D01*
X10525464Y37122159D01*
X10530491Y37115608D01*
X10545063Y37096617D01*
X10570663Y37030396D01*
X10571100Y37019913D01*
X10571100Y35893458D01*
X10551098Y35825337D01*
X10527610Y35800898D01*
X10528284Y35800224D01*
X10443376Y35715316D01*
X10438717Y35705324D01*
X10438716Y35705323D01*
X10396702Y35615224D01*
X10392628Y35606487D01*
X10386100Y35556901D01*
X10386101Y35197100D01*
X10392628Y35147513D01*
X10396701Y35138779D01*
X10396701Y35138778D01*
X10428757Y35070034D01*
X10443376Y35038684D01*
X10528284Y34953776D01*
X10538276Y34949117D01*
X10538277Y34949116D01*
X10628376Y34907102D01*
X10637113Y34903028D01*
X10686699Y34896500D01*
X10896523Y34896500D01*
X11106500Y34896501D01*
X11156087Y34903028D01*
X11171648Y34910284D01*
X11254923Y34949116D01*
X11254924Y34949117D01*
X11264916Y34953776D01*
X11340905Y35029765D01*
X11403217Y35063791D01*
X11474032Y35058726D01*
X11519095Y35029765D01*
X11595084Y34953776D01*
X11605076Y34949117D01*
X11605077Y34949116D01*
X11695176Y34907102D01*
X11703913Y34903028D01*
X11753499Y34896500D01*
X11963323Y34896500D01*
X12173300Y34896501D01*
X12222887Y34903028D01*
X12238448Y34910284D01*
X12321723Y34949116D01*
X12321724Y34949117D01*
X12331716Y34953776D01*
X12416624Y35038684D01*
X12417612Y35037696D01*
X12463949Y35074731D01*
X12534569Y35082037D01*
X12597928Y35050004D01*
X12627819Y35000069D01*
X12629594Y35000804D01*
X12690102Y34854725D01*
X12744382Y34783986D01*
X12774865Y34744260D01*
X12786356Y34729284D01*
X12792902Y34724261D01*
X12902480Y34640179D01*
X12944347Y34582841D01*
X12948569Y34511970D01*
X12913805Y34450067D01*
X12902480Y34440254D01*
X12828268Y34383309D01*
X12828264Y34383305D01*
X12821718Y34378282D01*
X12816695Y34371736D01*
X12807687Y34359996D01*
X12725464Y34252841D01*
X12664956Y34106762D01*
X12644318Y33950000D01*
X12645396Y33941812D01*
X12645396Y33941811D01*
X12658224Y33844369D01*
X12647284Y33774220D01*
X12600156Y33721122D01*
X12531802Y33701932D01*
X12491097Y33710281D01*
X12485731Y33713867D01*
X12473562Y33716288D01*
X12473561Y33716288D01*
X12433316Y33724293D01*
X12427248Y33725500D01*
X10987752Y33725500D01*
X10981684Y33724293D01*
X10941439Y33716288D01*
X10941438Y33716288D01*
X10929269Y33713867D01*
X10918953Y33706974D01*
X10908573Y33700038D01*
X10862948Y33669552D01*
X10818633Y33603231D01*
X10816212Y33591062D01*
X10816212Y33591061D01*
X10815146Y33585701D01*
X10807000Y33544748D01*
X10807000Y32305252D01*
X10818633Y32246769D01*
X10862948Y32180448D01*
X10929269Y32136133D01*
X10941438Y32133712D01*
X10941439Y32133712D01*
X10980100Y32126022D01*
X10987752Y32124500D01*
X11256000Y32124500D01*
X11324121Y32104498D01*
X11370614Y32050842D01*
X11382000Y31998500D01*
X11382000Y31651500D01*
X11361998Y31583379D01*
X11308342Y31536886D01*
X11256000Y31525500D01*
X10987752Y31525500D01*
X10981684Y31524293D01*
X10941439Y31516288D01*
X10941438Y31516288D01*
X10929269Y31513867D01*
X10918952Y31506973D01*
X10918949Y31506972D01*
X10896503Y31491974D01*
X10828750Y31470758D01*
X10760283Y31489540D01*
X10712839Y31542357D01*
X10700500Y31596738D01*
X10700500Y31697790D01*
X10700980Y31708772D01*
X10703303Y31735320D01*
X10703303Y31735322D01*
X10704264Y31746307D01*
X10694508Y31782715D01*
X10692130Y31793442D01*
X10688596Y31813484D01*
X10685588Y31830545D01*
X10680077Y31840090D01*
X10678885Y31843366D01*
X10677408Y31846534D01*
X10674554Y31857184D01*
X10652945Y31888044D01*
X10647039Y31897315D01*
X10633707Y31920406D01*
X10628194Y31929955D01*
X10599317Y31954185D01*
X10591215Y31961611D01*
X10104905Y32447921D01*
X10070879Y32510233D01*
X10068000Y32537016D01*
X10068000Y33544748D01*
X10059854Y33585701D01*
X10058788Y33591061D01*
X10058788Y33591062D01*
X10056367Y33603231D01*
X10012052Y33669552D01*
X9966427Y33700038D01*
X9956047Y33706974D01*
X9945731Y33713867D01*
X9933562Y33716288D01*
X9933561Y33716288D01*
X9893316Y33724293D01*
X9887248Y33725500D01*
X8447752Y33725500D01*
X8441684Y33724293D01*
X8401439Y33716288D01*
X8401438Y33716288D01*
X8389269Y33713867D01*
X8378953Y33706974D01*
X8368573Y33700038D01*
X8322948Y33669552D01*
X8278633Y33603231D01*
X8276212Y33591062D01*
X8276212Y33591061D01*
X8275146Y33585701D01*
X8267000Y33544748D01*
X8267000Y32305252D01*
X8278633Y32246769D01*
X8322948Y32180448D01*
X8389269Y32136133D01*
X8401438Y32133712D01*
X8401439Y32133712D01*
X8440100Y32126022D01*
X8447752Y32124500D01*
X9455484Y32124500D01*
X9523605Y32104498D01*
X9544579Y32087595D01*
X10012595Y31619579D01*
X10046621Y31557267D01*
X10049500Y31530484D01*
X10049500Y30419286D01*
X10029498Y30351165D01*
X10000204Y30319323D01*
X9964445Y30291884D01*
X9946718Y30278282D01*
X9850464Y30152841D01*
X9789956Y30006762D01*
X9769318Y29850000D01*
X9789956Y29693238D01*
X9850464Y29547159D01*
X9946718Y29421718D01*
X10072159Y29325464D01*
X10218238Y29264956D01*
X10375000Y29244318D01*
X10383188Y29245396D01*
X10523574Y29263878D01*
X10531762Y29264956D01*
X10571720Y29281507D01*
X10642308Y29289096D01*
X10705795Y29257317D01*
X10742023Y29196259D01*
X10739489Y29125308D01*
X10736347Y29116882D01*
X10692556Y29011162D01*
X10671918Y28854400D01*
X10692556Y28697638D01*
X10753064Y28551559D01*
X10849318Y28426118D01*
X10974759Y28329864D01*
X11120838Y28269356D01*
X11277600Y28248718D01*
X11285788Y28249796D01*
X11426174Y28268278D01*
X11434362Y28269356D01*
X11580441Y28329864D01*
X11705882Y28426118D01*
X11802136Y28551559D01*
X11862644Y28697638D01*
X11875175Y28792820D01*
X11878744Y28819928D01*
X11907467Y28884855D01*
X11966732Y28923946D01*
X12020112Y28928403D01*
X12158412Y28910196D01*
X12166600Y28909118D01*
X12174788Y28910196D01*
X12196429Y28913045D01*
X12277476Y28923715D01*
X12315174Y28928678D01*
X12323362Y28929756D01*
X12469441Y28990264D01*
X12594882Y29086518D01*
X12691136Y29211959D01*
X12751644Y29358038D01*
X12760625Y29426252D01*
X12770339Y29500040D01*
X12772282Y29514800D01*
X12771204Y29522988D01*
X12771204Y29528500D01*
X12791206Y29596621D01*
X12844862Y29643114D01*
X12897204Y29654500D01*
X13256770Y29654500D01*
X13324891Y29634498D01*
X13345865Y29617595D01*
X13406684Y29556776D01*
X13416676Y29552117D01*
X13416677Y29552116D01*
X13496701Y29514800D01*
X13515513Y29506028D01*
X13565099Y29499500D01*
X13774923Y29499500D01*
X13984900Y29499501D01*
X14034487Y29506028D01*
X14082679Y29528500D01*
X14133323Y29552116D01*
X14133324Y29552117D01*
X14143316Y29556776D01*
X14228224Y29641684D01*
X14234150Y29654391D01*
X14274898Y29741776D01*
X14274898Y29741777D01*
X14278972Y29750513D01*
X14285500Y29800099D01*
X14285499Y30024985D01*
X14305501Y30093105D01*
X14359156Y30139598D01*
X14429430Y30149703D01*
X14494011Y30120210D01*
X14500594Y30114080D01*
X15680889Y28933785D01*
X15688316Y28925681D01*
X15712545Y28896806D01*
X15722094Y28891293D01*
X15745185Y28877961D01*
X15754456Y28872055D01*
X15785316Y28850446D01*
X15795967Y28847592D01*
X15799140Y28846112D01*
X15802412Y28844921D01*
X15811955Y28839412D01*
X15849076Y28832866D01*
X15859783Y28830492D01*
X15896193Y28820737D01*
X15907168Y28821697D01*
X15907170Y28821697D01*
X15933731Y28824021D01*
X15944712Y28824500D01*
X16637984Y28824500D01*
X16706105Y28804498D01*
X16727079Y28787595D01*
X17637595Y27877079D01*
X17671621Y27814767D01*
X17674500Y27787984D01*
X17674500Y25462707D01*
X17654498Y25394586D01*
X17600842Y25348093D01*
X17595295Y25346302D01*
X17595405Y25346037D01*
X17583939Y25341288D01*
X17571769Y25338867D01*
X17505448Y25294552D01*
X17461133Y25228231D01*
X17458712Y25216062D01*
X17458712Y25216061D01*
X17454416Y25194461D01*
X17449500Y25169748D01*
X17449500Y20872493D01*
X17429498Y20804372D01*
X17375842Y20757879D01*
X17323466Y20746493D01*
X16896626Y20746615D01*
X16775964Y20746650D01*
X16707849Y20766672D01*
X16661371Y20820341D01*
X16650000Y20872650D01*
X16650000Y26962688D01*
X16653254Y26991140D01*
X16655142Y26999284D01*
X16655143Y27000000D01*
X16654316Y27003625D01*
X16654627Y27005395D01*
X16653926Y27005334D01*
X16652616Y27020309D01*
X16636855Y27200458D01*
X16630267Y27225044D01*
X16586198Y27389516D01*
X16586197Y27389518D01*
X16584775Y27394826D01*
X16577470Y27410492D01*
X16502060Y27572210D01*
X16502057Y27572215D01*
X16499734Y27577197D01*
X16402538Y27716007D01*
X16387475Y27737519D01*
X16387473Y27737521D01*
X16384316Y27742030D01*
X16242030Y27884316D01*
X16232311Y27891122D01*
X16132820Y27960786D01*
X16077197Y27999734D01*
X16072215Y28002057D01*
X16072210Y28002060D01*
X15899808Y28082452D01*
X15899807Y28082453D01*
X15894826Y28084775D01*
X15889518Y28086197D01*
X15889516Y28086198D01*
X15705773Y28135431D01*
X15705772Y28135431D01*
X15700458Y28136855D01*
X15500000Y28154393D01*
X15299542Y28136855D01*
X15294228Y28135431D01*
X15294227Y28135431D01*
X15110484Y28086198D01*
X15110482Y28086197D01*
X15105174Y28084775D01*
X15100194Y28082453D01*
X15100192Y28082452D01*
X14927791Y28002060D01*
X14927786Y28002057D01*
X14922804Y27999734D01*
X14918297Y27996578D01*
X14918295Y27996577D01*
X14762481Y27887475D01*
X14762478Y27887473D01*
X14757970Y27884316D01*
X14615684Y27742030D01*
X14612527Y27737521D01*
X14612525Y27737519D01*
X14597462Y27716007D01*
X14500266Y27577197D01*
X14497943Y27572215D01*
X14497940Y27572210D01*
X14422530Y27410492D01*
X14415225Y27394826D01*
X14413803Y27389518D01*
X14413802Y27389516D01*
X14369733Y27225044D01*
X14363145Y27200458D01*
X14346118Y27005842D01*
X14344857Y27000358D01*
X14347988Y26986519D01*
X14347980Y26981631D01*
X14350000Y26963552D01*
X14350000Y20873379D01*
X14329998Y20805258D01*
X14276342Y20758765D01*
X14223965Y20747379D01*
X13676462Y20747536D01*
X13608349Y20767556D01*
X13561871Y20821225D01*
X13550500Y20873535D01*
X13550500Y25169748D01*
X13545584Y25194461D01*
X13541288Y25216061D01*
X13541288Y25216062D01*
X13538867Y25228231D01*
X13494552Y25294552D01*
X13428231Y25338867D01*
X13416062Y25341288D01*
X13416061Y25341288D01*
X13401918Y25344101D01*
X13339008Y25377009D01*
X13303877Y25438704D01*
X13300500Y25467680D01*
X13300500Y26020838D01*
X13320502Y26088959D01*
X13349796Y26120801D01*
X13354745Y26124598D01*
X13468282Y26211718D01*
X13476321Y26222194D01*
X13516881Y26275054D01*
X13564536Y26337159D01*
X13625044Y26483238D01*
X13645682Y26640000D01*
X13628757Y26768562D01*
X13626122Y26788574D01*
X13625044Y26796762D01*
X13564536Y26942841D01*
X13487505Y27043230D01*
X13473305Y27061736D01*
X13468282Y27068282D01*
X13342841Y27164536D01*
X13196762Y27225044D01*
X13138085Y27232769D01*
X13048188Y27244604D01*
X13040000Y27245682D01*
X12941916Y27232769D01*
X12871768Y27243708D01*
X12836375Y27268596D01*
X12769519Y27335452D01*
X12767763Y27337486D01*
X12765425Y27342269D01*
X12729523Y27375573D01*
X12726118Y27378853D01*
X12712723Y27392248D01*
X12708753Y27394972D01*
X12706105Y27397297D01*
X12691881Y27410492D01*
X12691878Y27410494D01*
X12683354Y27418401D01*
X12672550Y27422711D01*
X12668561Y27425233D01*
X12657773Y27430994D01*
X12653448Y27432911D01*
X12643854Y27439492D01*
X12632535Y27442178D01*
X12632533Y27442179D01*
X12619873Y27445183D01*
X12602276Y27450748D01*
X12587638Y27456588D01*
X12587635Y27456589D01*
X12579378Y27459883D01*
X12573085Y27460500D01*
X12570006Y27460500D01*
X12566933Y27460650D01*
X12566944Y27460866D01*
X12555569Y27462198D01*
X12546254Y27462654D01*
X12534934Y27465340D01*
X12523405Y27463771D01*
X12523404Y27463771D01*
X12507827Y27461651D01*
X12490836Y27460500D01*
X9827788Y27460500D01*
X9759667Y27480502D01*
X9713174Y27534158D01*
X9703070Y27604432D01*
X9711380Y27634719D01*
X9725794Y27669516D01*
X9725795Y27669521D01*
X9728955Y27677149D01*
X9749593Y27833911D01*
X9728955Y27990673D01*
X9668447Y28136752D01*
X9572193Y28262193D01*
X9446752Y28358447D01*
X9300673Y28418955D01*
X9143911Y28439593D01*
X8987149Y28418955D01*
X8841070Y28358447D01*
X8834515Y28353418D01*
X8827614Y28349433D01*
X8758619Y28332694D01*
X8691527Y28355913D01*
X8675517Y28369456D01*
X8652707Y28392266D01*
X8618681Y28454578D01*
X8623746Y28525393D01*
X8666293Y28582229D01*
X8681781Y28591049D01*
X8681471Y28591586D01*
X8688622Y28595714D01*
X8696252Y28598875D01*
X8807703Y28684394D01*
X8815147Y28690106D01*
X8821693Y28695129D01*
X8917947Y28820570D01*
X8978455Y28966649D01*
X8981956Y28993238D01*
X8998015Y29115223D01*
X8999093Y29123411D01*
X8988204Y29206122D01*
X8979533Y29271985D01*
X8978455Y29280173D01*
X8917947Y29426252D01*
X8821693Y29551693D01*
X8696252Y29647947D01*
X8550173Y29708455D01*
X8541987Y29709533D01*
X8541986Y29709533D01*
X8515173Y29713063D01*
X8450246Y29741786D01*
X8411155Y29801052D01*
X8410311Y29872044D01*
X8415208Y29886191D01*
X8448944Y29967638D01*
X8469582Y30124400D01*
X8448944Y30281162D01*
X8388436Y30427241D01*
X8319959Y30516482D01*
X8297205Y30546136D01*
X8292182Y30552682D01*
X8166741Y30648936D01*
X8020662Y30709444D01*
X7926047Y30721900D01*
X7861121Y30750622D01*
X7853399Y30757727D01*
X7830005Y30781121D01*
X7795979Y30843433D01*
X7793100Y30870216D01*
X7793100Y31654090D01*
X7793580Y31665072D01*
X7795903Y31691620D01*
X7795903Y31691622D01*
X7796864Y31702607D01*
X7787108Y31739015D01*
X7784730Y31749742D01*
X7783458Y31756956D01*
X7778188Y31786845D01*
X7772677Y31796390D01*
X7771485Y31799666D01*
X7770008Y31802834D01*
X7767154Y31813484D01*
X7745545Y31844344D01*
X7739639Y31853615D01*
X7726307Y31876706D01*
X7720794Y31886255D01*
X7691917Y31910485D01*
X7683815Y31917911D01*
X7010511Y32591215D01*
X7003084Y32599319D01*
X6985941Y32619749D01*
X6985942Y32619749D01*
X6978855Y32628194D01*
X6965307Y32636016D01*
X6946215Y32647039D01*
X6936944Y32652945D01*
X6927053Y32659871D01*
X6906084Y32674554D01*
X6895434Y32677408D01*
X6892266Y32678885D01*
X6888990Y32680077D01*
X6879445Y32685588D01*
X6854620Y32689965D01*
X6791008Y32721493D01*
X6754538Y32782407D01*
X6750500Y32814051D01*
X6750500Y33078834D01*
X6747519Y33110369D01*
X6702634Y33238184D01*
X6697042Y33245754D01*
X6697041Y33245757D01*
X6627742Y33339579D01*
X6622150Y33347150D01*
X6597304Y33365502D01*
X6520757Y33422041D01*
X6520754Y33422042D01*
X6513184Y33427634D01*
X6385369Y33472519D01*
X6377723Y33473242D01*
X6377722Y33473242D01*
X6371752Y33473806D01*
X6353834Y33475500D01*
X5596166Y33475500D01*
X5578248Y33473806D01*
X5572278Y33473242D01*
X5572277Y33473242D01*
X5564631Y33472519D01*
X5436816Y33427634D01*
X5429246Y33422042D01*
X5429243Y33422041D01*
X5352696Y33365502D01*
X5327850Y33347150D01*
X5322258Y33339579D01*
X5252959Y33245757D01*
X5252958Y33245754D01*
X5247366Y33238184D01*
X5202481Y33110369D01*
X5199500Y33078834D01*
X5199500Y32636016D01*
X5179498Y32567895D01*
X5162595Y32546921D01*
X4988185Y32372511D01*
X4980081Y32365084D01*
X4951206Y32340855D01*
X4945693Y32331306D01*
X4932361Y32308215D01*
X4926455Y32298944D01*
X4904846Y32268084D01*
X4901992Y32257434D01*
X4900515Y32254266D01*
X4899323Y32250990D01*
X4893812Y32241445D01*
X4888636Y32212086D01*
X4887270Y32204342D01*
X4884892Y32193615D01*
X4875136Y32157207D01*
X4876097Y32146222D01*
X4876097Y32146220D01*
X4878420Y32119672D01*
X4878900Y32108690D01*
X4878900Y31201430D01*
X4858898Y31133309D01*
X4841995Y31112335D01*
X4781176Y31051516D01*
X4776517Y31041524D01*
X4776516Y31041523D01*
X4736547Y30955809D01*
X4730428Y30942687D01*
X4723900Y30893101D01*
X4723901Y30473300D01*
X4730428Y30423713D01*
X4734500Y30414981D01*
X4734501Y30414977D01*
X4766809Y30345693D01*
X4777470Y30275501D01*
X4748490Y30210688D01*
X4729318Y30192480D01*
X4693369Y30164895D01*
X4671718Y30148282D01*
X4666695Y30141736D01*
X4666692Y30141733D01*
X4619206Y30079847D01*
X4561868Y30037979D01*
X4490997Y30033757D01*
X4471025Y30040141D01*
X4463754Y30043153D01*
X4409299Y30065709D01*
X4394391Y30071884D01*
X4386762Y30075044D01*
X4350280Y30079847D01*
X4238188Y30094604D01*
X4230000Y30095682D01*
X4221812Y30094604D01*
X4109721Y30079847D01*
X4073238Y30075044D01*
X3927159Y30014536D01*
X3867433Y29968707D01*
X3812057Y29926215D01*
X3801718Y29918282D01*
X3705464Y29792841D01*
X3644956Y29646762D01*
X3624318Y29490000D01*
X3640505Y29367049D01*
X3629566Y29296902D01*
X3582438Y29243803D01*
X3523849Y29226978D01*
X3524020Y29225682D01*
X3367258Y29205044D01*
X3221179Y29144536D01*
X3095738Y29048282D01*
X3090715Y29041736D01*
X3086839Y29036685D01*
X2999484Y28922841D01*
X2938976Y28776762D01*
X2918338Y28620000D01*
X2938976Y28463238D01*
X2999484Y28317159D01*
X3095738Y28191718D01*
X3102284Y28186695D01*
X3131938Y28163941D01*
X3221179Y28095464D01*
X3367258Y28034956D01*
X3375446Y28033878D01*
X3399586Y28030700D01*
X3524020Y28014318D01*
X3532208Y28015396D01*
X3549170Y28017629D01*
X3680782Y28034956D01*
X3681164Y28032053D01*
X3738014Y28030700D01*
X3796810Y27990907D01*
X3824759Y27925643D01*
X3812986Y27855629D01*
X3788745Y27821588D01*
X3634088Y27666931D01*
X3632340Y27665370D01*
X3622295Y27660547D01*
X3613435Y27649467D01*
X3613434Y27649467D01*
X3605062Y27638998D01*
X3599263Y27632518D01*
X3597639Y27630482D01*
X3592636Y27625479D01*
X3588875Y27619494D01*
X3586901Y27617020D01*
X3582241Y27610462D01*
X3565306Y27589285D01*
X3562663Y27577789D01*
X3556386Y27567803D01*
X3554792Y27553705D01*
X3553340Y27540862D01*
X3551932Y27532627D01*
X3551596Y27529663D01*
X3550000Y27522723D01*
X3550000Y27515603D01*
X3549684Y27512819D01*
X3549202Y27504262D01*
X3546135Y27477134D01*
X3549859Y27466471D01*
X3550000Y27463941D01*
X3550000Y16982076D01*
X3529998Y16913955D01*
X3476342Y16867462D01*
X3423481Y16856077D01*
X2954143Y16858018D01*
X2685688Y16859129D01*
X2617650Y16879413D01*
X2571380Y16933260D01*
X2561287Y16968682D01*
X2541922Y17115774D01*
X2540844Y17123962D01*
X2488520Y17250284D01*
X2480931Y17320871D01*
X2512710Y17384358D01*
X2573768Y17420586D01*
X2604929Y17424500D01*
X2673218Y17424500D01*
X2677768Y17425170D01*
X2677771Y17425170D01*
X2732426Y17433216D01*
X2732427Y17433216D01*
X2742112Y17434642D01*
X2836804Y17481133D01*
X2837507Y17481478D01*
X2837509Y17481479D01*
X2846855Y17486068D01*
X2929293Y17568650D01*
X2980536Y17673482D01*
X2990500Y17741782D01*
X2990500Y18108218D01*
X2981871Y18166838D01*
X2981784Y18167426D01*
X2981784Y18167427D01*
X2980358Y18177112D01*
X2928932Y18281855D01*
X2846350Y18364293D01*
X2833671Y18370491D01*
X2804540Y18384730D01*
X2741518Y18415536D01*
X2711027Y18419984D01*
X2677744Y18424840D01*
X2677740Y18424840D01*
X2673218Y18425500D01*
X1156782Y18425500D01*
X1152232Y18424830D01*
X1152229Y18424830D01*
X1097574Y18416784D01*
X1097573Y18416784D01*
X1087888Y18415358D01*
X1037992Y18390860D01*
X992493Y18368522D01*
X992491Y18368521D01*
X983145Y18363932D01*
X900707Y18281350D01*
X849464Y18176518D01*
X839500Y18108218D01*
X839500Y17741782D01*
X840170Y17737232D01*
X840170Y17737229D01*
X848216Y17682574D01*
X849642Y17672888D01*
X901068Y17568145D01*
X983650Y17485707D01*
X1088482Y17434464D01*
X1118973Y17430016D01*
X1152256Y17425160D01*
X1152260Y17425160D01*
X1156782Y17424500D01*
X1306671Y17424500D01*
X1374792Y17404498D01*
X1421285Y17350842D01*
X1431389Y17280568D01*
X1423082Y17250287D01*
X1370756Y17123962D01*
X1369678Y17115774D01*
X1351108Y16974721D01*
X1322386Y16909793D01*
X1263120Y16870702D01*
X1225665Y16865168D01*
X-15371446Y16933810D01*
X-15439484Y16954094D01*
X-15485754Y17007941D01*
X-15495567Y17078256D01*
X-15488907Y17104038D01*
X-15458921Y17184026D01*
X-15458921Y17184028D01*
X-15456149Y17191421D01*
X-15449500Y17252624D01*
X-15449500Y18547376D01*
X-15456149Y18608579D01*
X-15506474Y18742823D01*
X-15511854Y18750002D01*
X-15511856Y18750005D01*
X-15518775Y18759237D01*
X-11749443Y18759237D01*
X-11733025Y18563717D01*
X-11678942Y18375109D01*
X-11676124Y18369626D01*
X-11592077Y18206087D01*
X-11592074Y18206083D01*
X-11589256Y18200599D01*
X-11467382Y18046831D01*
X-11462689Y18042837D01*
X-11462688Y18042836D01*
X-11331997Y17931610D01*
X-11317962Y17919665D01*
X-11312584Y17916659D01*
X-11312582Y17916658D01*
X-11276268Y17896363D01*
X-11146687Y17823943D01*
X-10960082Y17763311D01*
X-10765254Y17740079D01*
X-10759119Y17740551D01*
X-10759117Y17740551D01*
X-10743119Y17741782D01*
X-4310500Y17741782D01*
X-4309830Y17737232D01*
X-4309830Y17737229D01*
X-4301784Y17682574D01*
X-4300358Y17672888D01*
X-4248932Y17568145D01*
X-4166350Y17485707D01*
X-4061518Y17434464D01*
X-4031027Y17430016D01*
X-3997744Y17425160D01*
X-3997740Y17425160D01*
X-3993218Y17424500D01*
X-2476782Y17424500D01*
X-2472232Y17425170D01*
X-2472229Y17425170D01*
X-2417574Y17433216D01*
X-2417573Y17433216D01*
X-2407888Y17434642D01*
X-2313196Y17481133D01*
X-2312493Y17481478D01*
X-2312491Y17481479D01*
X-2303145Y17486068D01*
X-2220707Y17568650D01*
X-2169464Y17673482D01*
X-2159500Y17741782D01*
X-2159500Y18108218D01*
X-2168129Y18166838D01*
X-2168216Y18167426D01*
X-2168216Y18167427D01*
X-2169642Y18177112D01*
X-2221068Y18281855D01*
X-2303650Y18364293D01*
X-2316329Y18370491D01*
X-2345460Y18384730D01*
X-2408482Y18415536D01*
X-2438973Y18419984D01*
X-2472256Y18424840D01*
X-2472260Y18424840D01*
X-2476782Y18425500D01*
X-3993218Y18425500D01*
X-3997768Y18424830D01*
X-3997771Y18424830D01*
X-4052426Y18416784D01*
X-4052427Y18416784D01*
X-4062112Y18415358D01*
X-4112008Y18390860D01*
X-4157507Y18368522D01*
X-4157509Y18368521D01*
X-4166855Y18363932D01*
X-4249293Y18281350D01*
X-4300536Y18176518D01*
X-4310500Y18108218D01*
X-4310500Y17741782D01*
X-10743119Y17741782D01*
X-10575766Y17754659D01*
X-10575762Y17754660D01*
X-10569624Y17755132D01*
X-10380644Y17807897D01*
X-10205511Y17896363D01*
X-10175685Y17919665D01*
X-10055747Y18013371D01*
X-10050897Y18017160D01*
X-10043688Y18025511D01*
X-9926715Y18161027D01*
X-9926715Y18161028D01*
X-9922691Y18165689D01*
X-9911981Y18184541D01*
X-9846479Y18299846D01*
X-9825775Y18336291D01*
X-9763842Y18522468D01*
X-9739251Y18717129D01*
X-9738912Y18741426D01*
X-9738908Y18741677D01*
X-9738908Y18741681D01*
X-9738859Y18745200D01*
X-9758006Y18940472D01*
X-9759787Y18946371D01*
X-9759788Y18946376D01*
X-9812935Y19122407D01*
X-9814716Y19128306D01*
X-9906830Y19301547D01*
X-10030839Y19453598D01*
X-10182020Y19578665D01*
X-10354615Y19671987D01*
X-10448331Y19700997D01*
X-10536161Y19728185D01*
X-10536164Y19728186D01*
X-10542048Y19730007D01*
X-10548173Y19730651D01*
X-10548174Y19730651D01*
X-10731053Y19749873D01*
X-10731054Y19749873D01*
X-10737181Y19750517D01*
X-10859817Y19739356D01*
X-10926441Y19733293D01*
X-10926442Y19733293D01*
X-10932582Y19732734D01*
X-10938496Y19730993D01*
X-10938498Y19730993D01*
X-11055534Y19696547D01*
X-11120807Y19677336D01*
X-11126272Y19674479D01*
X-11289228Y19589288D01*
X-11289232Y19589285D01*
X-11294688Y19586433D01*
X-11299488Y19582573D01*
X-11299489Y19582573D01*
X-11326940Y19560502D01*
X-11447600Y19463489D01*
X-11573720Y19313184D01*
X-11576684Y19307792D01*
X-11576687Y19307788D01*
X-11636278Y19199392D01*
X-11668244Y19141246D01*
X-11670105Y19135379D01*
X-11670106Y19135377D01*
X-11689526Y19074158D01*
X-11727572Y18954222D01*
X-11749443Y18759237D01*
X-15518775Y18759237D01*
X-15584920Y18847493D01*
X-15592454Y18857546D01*
X-15635757Y18890000D01*
X-15699995Y18938144D01*
X-15699998Y18938146D01*
X-15707177Y18943526D01*
X-15796562Y18977034D01*
X-15834026Y18991079D01*
X-15834028Y18991079D01*
X-15841421Y18993851D01*
X-15849271Y18994704D01*
X-15849272Y18994704D01*
X-15899227Y19000131D01*
X-15899228Y19000131D01*
X-15902624Y19000500D01*
X-19172817Y19000500D01*
X-19240938Y19020502D01*
X-19287431Y19074158D01*
X-19298790Y19123898D01*
X-19299087Y19138321D01*
X-19347680Y21490829D01*
X-13200500Y21490829D01*
X-13200499Y20759172D01*
X-13190129Y20673472D01*
X-13187151Y20665949D01*
X-13187150Y20665947D01*
X-13180638Y20649500D01*
X-13137128Y20539605D01*
X-13050078Y20424922D01*
X-12935395Y20337872D01*
X-12801528Y20284871D01*
X-12715829Y20274500D01*
X-10751297Y20274500D01*
X-8784172Y20274501D01*
X-8780415Y20274956D01*
X-8780409Y20274956D01*
X-8738954Y20279973D01*
X-8698472Y20284871D01*
X-8690943Y20287852D01*
X-8683107Y20289842D01*
X-8682690Y20288200D01*
X-8621584Y20293799D01*
X-8556809Y20259263D01*
X-7751943Y19454397D01*
X-7717917Y19392085D01*
X-7720936Y19327204D01*
X-7782716Y19132448D01*
X-7783402Y19126331D01*
X-7783403Y19126327D01*
X-7803554Y18946676D01*
X-7805680Y18927718D01*
X-7805164Y18921574D01*
X-7790036Y18741426D01*
X-7788441Y18722427D01*
X-7786742Y18716502D01*
X-7751841Y18594789D01*
X-7731656Y18524394D01*
X-7728841Y18518917D01*
X-7728840Y18518914D01*
X-7640303Y18346639D01*
X-7637488Y18341162D01*
X-7509523Y18179710D01*
X-7504830Y18175716D01*
X-7504829Y18175715D01*
X-7487570Y18161027D01*
X-7352636Y18046189D01*
X-7347258Y18043183D01*
X-7347256Y18043182D01*
X-7308858Y18021722D01*
X-7172802Y17945683D01*
X-7105016Y17923658D01*
X-6982729Y17883924D01*
X-6982725Y17883923D01*
X-6976871Y17882021D01*
X-6772306Y17857629D01*
X-6766171Y17858101D01*
X-6766169Y17858101D01*
X-6710161Y17862411D01*
X-6566900Y17873434D01*
X-6560970Y17875090D01*
X-6560968Y17875090D01*
X-6412088Y17916658D01*
X-6368475Y17928835D01*
X-6362986Y17931608D01*
X-6362980Y17931610D01*
X-6201122Y18013371D01*
X-6184590Y18021722D01*
X-6146269Y18051661D01*
X-6027099Y18144767D01*
X-6022249Y18148556D01*
X-6006468Y18166838D01*
X-5891660Y18299846D01*
X-5891660Y18299847D01*
X-5887636Y18304508D01*
X-5866813Y18341162D01*
X-5827004Y18411240D01*
X-5785877Y18483636D01*
X-5720849Y18679117D01*
X-5695029Y18883506D01*
X-5694617Y18912980D01*
X-5714720Y19118010D01*
X-5774265Y19315231D01*
X-5870982Y19497131D01*
X-5964810Y19612175D01*
X-5997294Y19652005D01*
X-5997297Y19652008D01*
X-6001189Y19656780D01*
X-6026037Y19677336D01*
X-6155175Y19784169D01*
X-6155179Y19784171D01*
X-6159925Y19788098D01*
X-6341145Y19886083D01*
X-6537946Y19947003D01*
X-6544071Y19947647D01*
X-6544072Y19947647D01*
X-6736702Y19967893D01*
X-6736704Y19967893D01*
X-6742831Y19968537D01*
X-6825234Y19961038D01*
X-6941858Y19950425D01*
X-6941861Y19950424D01*
X-6947997Y19949866D01*
X-7145628Y19891700D01*
X-7151092Y19888843D01*
X-7155419Y19887095D01*
X-7226072Y19880120D01*
X-7291718Y19914824D01*
X-8262595Y20885701D01*
X-8296621Y20948013D01*
X-8299500Y20974796D01*
X-8299501Y21487034D01*
X-8299501Y21490828D01*
X-8299956Y21494594D01*
X-8308899Y21568495D01*
X-8309871Y21576528D01*
X-8313355Y21585329D01*
X-8344468Y21663912D01*
X-8362872Y21710395D01*
X-8449922Y21825078D01*
X-8564605Y21912128D01*
X-8698472Y21965129D01*
X-8784171Y21975500D01*
X-10748703Y21975500D01*
X-12715828Y21975499D01*
X-12719585Y21975044D01*
X-12719591Y21975044D01*
X-12789126Y21966630D01*
X-12801528Y21965129D01*
X-12809051Y21962151D01*
X-12809053Y21962150D01*
X-12879749Y21934159D01*
X-12935395Y21912128D01*
X-13050078Y21825078D01*
X-13137128Y21710395D01*
X-13190129Y21576528D01*
X-13200500Y21490829D01*
X-19347680Y21490829D01*
X-19396738Y23865829D01*
X-13200500Y23865829D01*
X-13200499Y23134172D01*
X-13200044Y23130415D01*
X-13200044Y23130409D01*
X-13199533Y23126189D01*
X-13190129Y23048472D01*
X-13187151Y23040949D01*
X-13187150Y23040947D01*
X-13175809Y23012304D01*
X-13137128Y22914605D01*
X-13050078Y22799922D01*
X-12935395Y22712872D01*
X-12801528Y22659871D01*
X-12715829Y22649500D01*
X-10751297Y22649500D01*
X-8784172Y22649501D01*
X-8780415Y22649956D01*
X-8780409Y22649956D01*
X-8706505Y22658899D01*
X-8698472Y22659871D01*
X-8690949Y22662849D01*
X-8690947Y22662850D01*
X-8574086Y22709118D01*
X-8503386Y22715597D01*
X-8438608Y22681061D01*
X-7751943Y21994396D01*
X-7717917Y21932084D01*
X-7720936Y21867204D01*
X-7782716Y21672448D01*
X-7783402Y21666331D01*
X-7783403Y21666327D01*
X-7797816Y21537827D01*
X-7805680Y21467718D01*
X-7804737Y21456486D01*
X-7794251Y21331621D01*
X-7788441Y21262427D01*
X-7731656Y21064394D01*
X-7728841Y21058917D01*
X-7728840Y21058914D01*
X-7658787Y20922606D01*
X-7637488Y20881162D01*
X-7509523Y20719710D01*
X-7504830Y20715716D01*
X-7504829Y20715715D01*
X-7376830Y20606780D01*
X-7352636Y20586189D01*
X-7172802Y20485683D01*
X-7100507Y20462193D01*
X-6982729Y20423924D01*
X-6982725Y20423923D01*
X-6976871Y20422021D01*
X-6772306Y20397629D01*
X-6766171Y20398101D01*
X-6766169Y20398101D01*
X-6705570Y20402764D01*
X-6566900Y20413434D01*
X-6560970Y20415090D01*
X-6560968Y20415090D01*
X-6374403Y20467180D01*
X-6374404Y20467180D01*
X-6368475Y20468835D01*
X-6362986Y20471608D01*
X-6362980Y20471610D01*
X-6201025Y20553420D01*
X-6184590Y20561722D01*
X-6022249Y20688556D01*
X-5972239Y20746493D01*
X-5891660Y20839846D01*
X-5891660Y20839847D01*
X-5887636Y20844508D01*
X-5866813Y20881162D01*
X-5788924Y21018273D01*
X-5785877Y21023636D01*
X-5720849Y21219117D01*
X-5695029Y21423506D01*
X-5694617Y21452980D01*
X-5714720Y21658010D01*
X-5774265Y21855231D01*
X-5838212Y21975499D01*
X-5839867Y21978612D01*
X-5854186Y22048150D01*
X-5828638Y22114390D01*
X-5776833Y22154174D01*
X-5631659Y22214307D01*
X-5506218Y22310561D01*
X-5476446Y22349360D01*
X-5464289Y22365204D01*
X-5406951Y22407071D01*
X-5364326Y22414500D01*
X-5142999Y22414500D01*
X-5074878Y22394498D01*
X-5043036Y22365204D01*
X-4973805Y22274980D01*
X-4948282Y22241718D01*
X-4941736Y22236695D01*
X-4856962Y22171646D01*
X-4815095Y22114308D01*
X-4810873Y22043437D01*
X-4845637Y21981534D01*
X-4867564Y21964415D01*
X-4870722Y21962469D01*
X-4871054Y21962264D01*
X-4887411Y21953769D01*
X-4901888Y21947549D01*
X-4901892Y21947547D01*
X-4910063Y21944036D01*
X-4914949Y21940022D01*
X-4917134Y21937837D01*
X-4919397Y21935785D01*
X-4919542Y21935945D01*
X-4928549Y21928825D01*
X-4935444Y21922573D01*
X-4945348Y21916468D01*
X-4961916Y21894680D01*
X-4973110Y21881861D01*
X-5055452Y21799519D01*
X-5057486Y21797763D01*
X-5062269Y21795425D01*
X-5070181Y21786896D01*
X-5070182Y21786895D01*
X-5095573Y21759523D01*
X-5098853Y21756118D01*
X-5112248Y21742723D01*
X-5114972Y21738753D01*
X-5117297Y21736105D01*
X-5130492Y21721881D01*
X-5130494Y21721878D01*
X-5138401Y21713354D01*
X-5142711Y21702550D01*
X-5145233Y21698561D01*
X-5150994Y21687773D01*
X-5152911Y21683448D01*
X-5159492Y21673854D01*
X-5162178Y21662535D01*
X-5162179Y21662533D01*
X-5165183Y21649873D01*
X-5170748Y21632276D01*
X-5179883Y21609378D01*
X-5180500Y21603085D01*
X-5180500Y21600006D01*
X-5180650Y21596933D01*
X-5180866Y21596944D01*
X-5182198Y21585569D01*
X-5182654Y21576254D01*
X-5185340Y21564934D01*
X-5183771Y21553405D01*
X-5183771Y21553404D01*
X-5181651Y21537827D01*
X-5180500Y21520836D01*
X-5180500Y20522478D01*
X-5200502Y20454357D01*
X-5206537Y20445774D01*
X-5226521Y20419730D01*
X-5290192Y20336752D01*
X-5350700Y20190673D01*
X-5371338Y20033911D01*
X-5350700Y19877149D01*
X-5290192Y19731070D01*
X-5193938Y19605629D01*
X-5187392Y19600606D01*
X-5158798Y19578665D01*
X-5068497Y19509375D01*
X-4922418Y19448867D01*
X-4914230Y19447789D01*
X-4844037Y19438548D01*
X-4765656Y19428229D01*
X-4757468Y19429307D01*
X-4732667Y19432572D01*
X-4687275Y19438548D01*
X-4617082Y19447789D01*
X-4608894Y19448867D01*
X-4601267Y19452026D01*
X-4601264Y19452027D01*
X-4484293Y19500478D01*
X-4413703Y19508067D01*
X-4350216Y19476287D01*
X-4313989Y19415229D01*
X-4310697Y19378218D01*
X-4310500Y19378218D01*
X-4310500Y19011782D01*
X-4309830Y19007232D01*
X-4309830Y19007229D01*
X-4301784Y18952574D01*
X-4300358Y18942888D01*
X-4275860Y18892992D01*
X-4254932Y18850366D01*
X-4248932Y18838145D01*
X-4166350Y18755707D01*
X-4156994Y18751134D01*
X-4156993Y18751133D01*
X-4144855Y18745200D01*
X-4061518Y18704464D01*
X-4031027Y18700016D01*
X-3997744Y18695160D01*
X-3997740Y18695160D01*
X-3993218Y18694500D01*
X-2476782Y18694500D01*
X-2472232Y18695170D01*
X-2472229Y18695170D01*
X-2417574Y18703216D01*
X-2417573Y18703216D01*
X-2407888Y18704642D01*
X-2330122Y18742823D01*
X-2312493Y18751478D01*
X-2312491Y18751479D01*
X-2303145Y18756068D01*
X-2220707Y18838650D01*
X-2205953Y18868833D01*
X-2158068Y18921249D01*
X-2092753Y18939500D01*
X-792698Y18939500D01*
X-724577Y18919498D01*
X-678084Y18865842D01*
X-667776Y18829946D01*
X-655044Y18733238D01*
X-594536Y18587159D01*
X-498282Y18461718D01*
X-372841Y18365464D01*
X-226762Y18304956D01*
X-218574Y18303878D01*
X-148381Y18294637D01*
X-70000Y18284318D01*
X-61812Y18285396D01*
X78574Y18303878D01*
X86762Y18304956D01*
X232841Y18365464D01*
X358282Y18461718D01*
X454536Y18587159D01*
X515044Y18733238D01*
X535682Y18890000D01*
X519649Y19011782D01*
X839500Y19011782D01*
X840170Y19007232D01*
X840170Y19007229D01*
X848216Y18952574D01*
X849642Y18942888D01*
X874140Y18892992D01*
X895068Y18850366D01*
X901068Y18838145D01*
X983650Y18755707D01*
X993006Y18751134D01*
X993007Y18751133D01*
X1005145Y18745200D01*
X1088482Y18704464D01*
X1118973Y18700016D01*
X1152256Y18695160D01*
X1152260Y18695160D01*
X1156782Y18694500D01*
X2673218Y18694500D01*
X2677768Y18695170D01*
X2677771Y18695170D01*
X2732426Y18703216D01*
X2732427Y18703216D01*
X2742112Y18704642D01*
X2819878Y18742823D01*
X2837507Y18751478D01*
X2837509Y18751479D01*
X2846855Y18756068D01*
X2929293Y18838650D01*
X2980536Y18943482D01*
X2988009Y18994704D01*
X2989840Y19007256D01*
X2989840Y19007260D01*
X2990500Y19011782D01*
X2990500Y19378218D01*
X2988838Y19389512D01*
X2981784Y19437426D01*
X2981784Y19437427D01*
X2980358Y19447112D01*
X2948994Y19510994D01*
X2933522Y19542507D01*
X2933521Y19542509D01*
X2928932Y19551855D01*
X2846350Y19634293D01*
X2741518Y19685536D01*
X2711027Y19689984D01*
X2677744Y19694840D01*
X2677740Y19694840D01*
X2673218Y19695500D01*
X1156782Y19695500D01*
X1152232Y19694830D01*
X1152229Y19694830D01*
X1097574Y19686784D01*
X1097573Y19686784D01*
X1087888Y19685358D01*
X1054687Y19669057D01*
X992493Y19638522D01*
X992491Y19638521D01*
X983145Y19633932D01*
X900707Y19551350D01*
X896134Y19541994D01*
X896133Y19541993D01*
X888961Y19527320D01*
X849464Y19446518D01*
X846953Y19429307D01*
X840739Y19386708D01*
X839500Y19378218D01*
X839500Y19011782D01*
X519649Y19011782D01*
X515044Y19046762D01*
X454536Y19192841D01*
X358282Y19318282D01*
X232841Y19414536D01*
X86762Y19475044D01*
X77321Y19476287D01*
X-61812Y19494604D01*
X-70000Y19495682D01*
X-78188Y19494604D01*
X-178994Y19481333D01*
X-249143Y19492273D01*
X-251340Y19493479D01*
X-256646Y19498401D01*
X-267447Y19502710D01*
X-271439Y19505234D01*
X-282227Y19510994D01*
X-286552Y19512911D01*
X-296146Y19519492D01*
X-307465Y19522178D01*
X-307467Y19522179D01*
X-320127Y19525183D01*
X-337724Y19530748D01*
X-352362Y19536588D01*
X-352365Y19536589D01*
X-360622Y19539883D01*
X-366915Y19540500D01*
X-369994Y19540500D01*
X-373067Y19540650D01*
X-373056Y19540866D01*
X-384431Y19542198D01*
X-393746Y19542654D01*
X-405066Y19545340D01*
X-416595Y19543771D01*
X-416596Y19543771D01*
X-432173Y19541651D01*
X-449164Y19540500D01*
X-2157566Y19540500D01*
X-2225687Y19560502D01*
X-2246583Y19577326D01*
X-2296279Y19626935D01*
X-2296280Y19626935D01*
X-2303650Y19634293D01*
X-2408482Y19685536D01*
X-2438973Y19689984D01*
X-2472256Y19694840D01*
X-2472260Y19694840D01*
X-2476782Y19695500D01*
X-3993218Y19695500D01*
X-3997765Y19694831D01*
X-3997774Y19694830D01*
X-4053141Y19686679D01*
X-4123448Y19696547D01*
X-4177260Y19742860D01*
X-4197490Y19810913D01*
X-4187900Y19859554D01*
X-4183772Y19869519D01*
X-4183771Y19869522D01*
X-4180612Y19877149D01*
X-4159974Y20033911D01*
X-4180612Y20190673D01*
X-4241120Y20336752D01*
X-4337374Y20462193D01*
X-4349646Y20471610D01*
X-4415939Y20522478D01*
X-4462815Y20558447D01*
X-4470441Y20561606D01*
X-4470450Y20561611D01*
X-4501719Y20574563D01*
X-4557000Y20619111D01*
X-4579500Y20690971D01*
X-4579500Y21263500D01*
X-4559498Y21331621D01*
X-4505842Y21378114D01*
X-4453500Y21389500D01*
X-4312434Y21389500D01*
X-4244313Y21369498D01*
X-4223417Y21352674D01*
X-4202327Y21331621D01*
X-4166350Y21295707D01*
X-4061518Y21244464D01*
X-4031027Y21240016D01*
X-3997744Y21235160D01*
X-3997740Y21235160D01*
X-3993218Y21234500D01*
X-2476782Y21234500D01*
X-2472232Y21235170D01*
X-2472229Y21235170D01*
X-2417574Y21243216D01*
X-2417573Y21243216D01*
X-2407888Y21244642D01*
X-2313196Y21291133D01*
X-2312493Y21291478D01*
X-2312491Y21291479D01*
X-2303145Y21296068D01*
X-2220707Y21378650D01*
X-2169464Y21483482D01*
X-2164015Y21520836D01*
X-2160160Y21547256D01*
X-2160160Y21547260D01*
X-2159500Y21551782D01*
X-2159500Y21918218D01*
X-2160861Y21927468D01*
X-2168216Y21977426D01*
X-2168216Y21977427D01*
X-2169642Y21987112D01*
X-2221068Y22091855D01*
X-2217782Y22093468D01*
X-2234948Y22142675D01*
X-2218380Y22211711D01*
X-2167118Y22260831D01*
X-2109106Y22274980D01*
X-1732996Y22274980D01*
X-1664875Y22254978D01*
X-1643901Y22238075D01*
X-402709Y20996883D01*
X-368683Y20934571D01*
X-366882Y20891343D01*
X-375682Y20824500D01*
X-355044Y20667738D01*
X-294536Y20521659D01*
X-198282Y20396218D01*
X-72841Y20299964D01*
X73238Y20239456D01*
X230000Y20218818D01*
X238188Y20219896D01*
X378574Y20238378D01*
X386762Y20239456D01*
X532841Y20299964D01*
X658282Y20396218D01*
X754536Y20521659D01*
X815044Y20667738D01*
X835682Y20824500D01*
X815044Y20981262D01*
X754536Y21127341D01*
X658282Y21252782D01*
X532841Y21349036D01*
X386762Y21409544D01*
X230000Y21430182D01*
X163157Y21421382D01*
X93010Y21432321D01*
X57617Y21457209D01*
X-894579Y22409405D01*
X-928605Y22471717D01*
X-923540Y22542532D01*
X-880993Y22599368D01*
X-814473Y22624179D01*
X-805484Y22624500D01*
X1563272Y22624500D01*
X1631393Y22604498D01*
X1677886Y22550842D01*
X1688194Y22482055D01*
X1671802Y22357547D01*
X1671802Y22357546D01*
X1671722Y22357557D01*
X1652878Y22293379D01*
X1599222Y22246886D01*
X1546880Y22235500D01*
X1156782Y22235500D01*
X1152232Y22234830D01*
X1152229Y22234830D01*
X1097574Y22226784D01*
X1097573Y22226784D01*
X1087888Y22225358D01*
X1037992Y22200860D01*
X992493Y22178522D01*
X992491Y22178521D01*
X983145Y22173932D01*
X963047Y22153799D01*
X928457Y22119148D01*
X900707Y22091350D01*
X849464Y21986518D01*
X839500Y21918218D01*
X839500Y21551782D01*
X840170Y21547232D01*
X840170Y21547229D01*
X848216Y21492574D01*
X849642Y21482888D01*
X853958Y21474098D01*
X885123Y21410622D01*
X901068Y21378145D01*
X983650Y21295707D01*
X1088482Y21244464D01*
X1118973Y21240016D01*
X1152256Y21235160D01*
X1152260Y21235160D01*
X1156782Y21234500D01*
X2673218Y21234500D01*
X2677768Y21235170D01*
X2677771Y21235170D01*
X2732426Y21243216D01*
X2732427Y21243216D01*
X2742112Y21244642D01*
X2836804Y21291133D01*
X2837507Y21291478D01*
X2837509Y21291479D01*
X2846855Y21296068D01*
X2929293Y21378650D01*
X2980536Y21483482D01*
X2985985Y21520836D01*
X2989840Y21547256D01*
X2989840Y21547260D01*
X2990500Y21551782D01*
X2990500Y21918218D01*
X2989139Y21927468D01*
X2981784Y21977426D01*
X2981784Y21977427D01*
X2980358Y21987112D01*
X2928932Y22091855D01*
X2901589Y22119151D01*
X2867510Y22181431D01*
X2865685Y22224766D01*
X2883166Y22357547D01*
X2862528Y22514309D01*
X2802020Y22660388D01*
X2796992Y22666941D01*
X2796990Y22666944D01*
X2707493Y22783579D01*
X2681892Y22849799D01*
X2696157Y22919348D01*
X2745758Y22970144D01*
X2759237Y22976692D01*
X2852841Y23015464D01*
X2978282Y23111718D01*
X3074536Y23237159D01*
X3135044Y23383238D01*
X3155682Y23540000D01*
X3135044Y23696762D01*
X3074536Y23842841D01*
X2985364Y23959053D01*
X2983305Y23961736D01*
X2978282Y23968282D01*
X2852841Y24064536D01*
X2706762Y24125044D01*
X2550000Y24145682D01*
X2393238Y24125044D01*
X2385611Y24121885D01*
X2385608Y24121884D01*
X2319872Y24094655D01*
X2249282Y24087066D01*
X2185795Y24118845D01*
X2155246Y24162845D01*
X2137699Y24205207D01*
X2137696Y24205212D01*
X2134536Y24212841D01*
X2075106Y24290292D01*
X2043309Y24331731D01*
X2043308Y24331732D01*
X2038282Y24338282D01*
X2031731Y24343309D01*
X2031729Y24343311D01*
X2000296Y24367430D01*
X1958428Y24424768D01*
X1951000Y24467392D01*
X1951000Y24495969D01*
X1971002Y24564090D01*
X2024658Y24610583D01*
X2094932Y24620687D01*
X2130250Y24610164D01*
X2195575Y24579702D01*
X2195579Y24579701D01*
X2204313Y24575628D01*
X2253899Y24569100D01*
X2463723Y24569100D01*
X2673700Y24569101D01*
X2723287Y24575628D01*
X2736753Y24581907D01*
X2822123Y24621716D01*
X2822124Y24621717D01*
X2832116Y24626376D01*
X2917024Y24711284D01*
X2926687Y24732005D01*
X2963698Y24811376D01*
X2963698Y24811377D01*
X2967772Y24820113D01*
X2974300Y24869699D01*
X2974299Y25229500D01*
X2967772Y25279087D01*
X2958057Y25299922D01*
X2921684Y25377923D01*
X2921683Y25377924D01*
X2917024Y25387916D01*
X2832116Y25472824D01*
X2820800Y25478101D01*
X2732024Y25519498D01*
X2732023Y25519498D01*
X2723287Y25523572D01*
X2673701Y25530100D01*
X2463877Y25530100D01*
X2253900Y25530099D01*
X2204313Y25523572D01*
X2195581Y25519500D01*
X2195577Y25519499D01*
X2130250Y25489036D01*
X2060058Y25478375D01*
X1995245Y25507355D01*
X1956389Y25566775D01*
X1951000Y25603231D01*
X1951000Y30623084D01*
X1971002Y30691205D01*
X1987905Y30712179D01*
X2324415Y31048689D01*
X2332519Y31056116D01*
X2345166Y31066728D01*
X2361394Y31080345D01*
X2366907Y31089894D01*
X2380239Y31112985D01*
X2386145Y31122256D01*
X2407754Y31153116D01*
X2410608Y31163766D01*
X2412085Y31166934D01*
X2413277Y31170210D01*
X2418788Y31179755D01*
X2425330Y31216858D01*
X2427709Y31227590D01*
X2428440Y31230318D01*
X2437464Y31263993D01*
X2434180Y31301528D01*
X2433700Y31312510D01*
X2433700Y33985200D01*
X3407518Y33985200D01*
X3428156Y33828438D01*
X3488664Y33682359D01*
X3584918Y33556918D01*
X3710359Y33460664D01*
X3856438Y33400156D01*
X4013200Y33379518D01*
X4021388Y33380596D01*
X4161774Y33399078D01*
X4169962Y33400156D01*
X4316041Y33460664D01*
X4441482Y33556918D01*
X4482523Y33610404D01*
X4539861Y33652271D01*
X4582486Y33659700D01*
X5136490Y33659700D01*
X5147472Y33659220D01*
X5174020Y33656897D01*
X5174022Y33656897D01*
X5185007Y33655936D01*
X5221415Y33665692D01*
X5232142Y33668070D01*
X5235501Y33668662D01*
X5269245Y33674612D01*
X5278790Y33680123D01*
X5282066Y33681315D01*
X5285234Y33682792D01*
X5295884Y33685646D01*
X5326744Y33707255D01*
X5336015Y33713161D01*
X5359106Y33726493D01*
X5368655Y33732006D01*
X5392879Y33760875D01*
X5400306Y33768980D01*
X5622123Y33990796D01*
X5684435Y34024821D01*
X5711218Y34027700D01*
X6422234Y34027700D01*
X6440152Y34029394D01*
X6446122Y34029958D01*
X6446123Y34029958D01*
X6453769Y34030681D01*
X6581584Y34075566D01*
X6589154Y34081158D01*
X6589157Y34081159D01*
X6682979Y34150458D01*
X6690550Y34156050D01*
X6733588Y34214318D01*
X6765441Y34257443D01*
X6765442Y34257446D01*
X6771034Y34265016D01*
X6815919Y34392831D01*
X6818900Y34424366D01*
X6818900Y35832034D01*
X6816882Y35853382D01*
X6816642Y35855922D01*
X6816642Y35855923D01*
X6815919Y35863569D01*
X6771034Y35991384D01*
X6765442Y35998954D01*
X6765441Y35998957D01*
X6696142Y36092779D01*
X6690550Y36100350D01*
X6670648Y36115050D01*
X6589157Y36175241D01*
X6589154Y36175242D01*
X6581584Y36180834D01*
X6453769Y36225719D01*
X6446123Y36226442D01*
X6446122Y36226442D01*
X6440152Y36227006D01*
X6422234Y36228700D01*
X5664566Y36228700D01*
X5646648Y36227006D01*
X5640678Y36226442D01*
X5640677Y36226442D01*
X5633031Y36225719D01*
X5505216Y36180834D01*
X5497646Y36175242D01*
X5497643Y36175241D01*
X5416152Y36115050D01*
X5396250Y36100350D01*
X5390658Y36092779D01*
X5321359Y35998957D01*
X5321358Y35998954D01*
X5315766Y35991384D01*
X5270881Y35863569D01*
X5270158Y35855923D01*
X5270158Y35855922D01*
X5269918Y35853382D01*
X5267900Y35832034D01*
X5267900Y35538775D01*
X5247898Y35470654D01*
X5194242Y35424161D01*
X5123968Y35414057D01*
X5059388Y35443551D01*
X5027705Y35485525D01*
X5004484Y35535323D01*
X5004483Y35535324D01*
X4999824Y35545316D01*
X4914916Y35630224D01*
X4898314Y35637966D01*
X4814824Y35676898D01*
X4814823Y35676898D01*
X4806087Y35680972D01*
X4756501Y35687500D01*
X4546677Y35687500D01*
X4336700Y35687499D01*
X4287113Y35680972D01*
X4278379Y35676899D01*
X4278378Y35676899D01*
X4190975Y35636142D01*
X4178284Y35630224D01*
X4093376Y35545316D01*
X4088717Y35535324D01*
X4088716Y35535323D01*
X4054140Y35461174D01*
X4042628Y35436487D01*
X4036100Y35386901D01*
X4036101Y35273361D01*
X4036101Y35209018D01*
X4016099Y35140897D01*
X3999196Y35119922D01*
X3796985Y34917711D01*
X3788881Y34910284D01*
X3760006Y34886055D01*
X3754493Y34876506D01*
X3741161Y34853415D01*
X3735255Y34844144D01*
X3713646Y34813284D01*
X3710792Y34802634D01*
X3709315Y34799466D01*
X3708123Y34796190D01*
X3702612Y34786645D01*
X3696839Y34753901D01*
X3696070Y34749542D01*
X3693692Y34738815D01*
X3683936Y34702407D01*
X3684897Y34691422D01*
X3684897Y34691420D01*
X3687220Y34664872D01*
X3687700Y34653890D01*
X3687700Y34554486D01*
X3667698Y34486365D01*
X3638404Y34454523D01*
X3601781Y34426421D01*
X3584918Y34413482D01*
X3579895Y34406936D01*
X3557938Y34378321D01*
X3488664Y34288041D01*
X3428156Y34141962D01*
X3407518Y33985200D01*
X2433700Y33985200D01*
X2433700Y34544735D01*
X2434180Y34555717D01*
X2436503Y34582265D01*
X2436503Y34582267D01*
X2437464Y34593252D01*
X2427708Y34629660D01*
X2425330Y34640387D01*
X2422480Y34656548D01*
X2418788Y34677490D01*
X2413278Y34687034D01*
X2412085Y34690311D01*
X2410608Y34693479D01*
X2407754Y34704129D01*
X2386145Y34734989D01*
X2380239Y34744260D01*
X2366907Y34767351D01*
X2361394Y34776900D01*
X2332517Y34801130D01*
X2324415Y34808556D01*
X2258209Y34874762D01*
X2224183Y34937074D01*
X2222382Y34980303D01*
X2223025Y34985183D01*
X2231182Y35047145D01*
X2210544Y35203907D01*
X2150036Y35349986D01*
X2060693Y35466421D01*
X2058805Y35468881D01*
X2053782Y35475427D01*
X1928341Y35571681D01*
X1782262Y35632189D01*
X1752233Y35636142D01*
X1687307Y35664863D01*
X1648214Y35724128D01*
X1643758Y35744612D01*
X1625044Y35886762D01*
X1564536Y36032841D01*
X1485426Y36135940D01*
X1473305Y36151736D01*
X1468282Y36158282D01*
X1342841Y36254536D01*
X1196762Y36315044D01*
X1040000Y36335682D01*
X883238Y36315044D01*
X737159Y36254536D01*
X611718Y36158282D01*
X606695Y36151736D01*
X546463Y36073240D01*
X489125Y36031373D01*
X418254Y36027151D01*
X356351Y36061915D01*
X323070Y36124628D01*
X320500Y36149944D01*
X320500Y36569748D01*
X317388Y36585395D01*
X311288Y36616061D01*
X311288Y36616062D01*
X308867Y36628231D01*
X264552Y36694552D01*
X198231Y36738867D01*
X186062Y36741288D01*
X186061Y36741288D01*
X145816Y36749293D01*
X139748Y36750500D01*
X-350170Y36750500D01*
X-418291Y36770502D01*
X-464784Y36824158D01*
X-474888Y36894432D01*
X-445394Y36959012D01*
X-439265Y36965595D01*
X-409776Y36995084D01*
X-399137Y37017898D01*
X-363102Y37095176D01*
X-363102Y37095177D01*
X-359028Y37103913D01*
X-352500Y37153499D01*
X-352501Y37573300D01*
X-359028Y37622887D01*
X-363100Y37631619D01*
X-363101Y37631623D01*
X-382458Y37673133D01*
X-393119Y37743325D01*
X-364139Y37808138D01*
X-304719Y37846994D01*
X-268263Y37852383D01*
X-143227Y37852383D01*
X-132245Y37851903D01*
X-105697Y37849580D01*
X-105695Y37849580D01*
X-94710Y37848619D01*
X-58302Y37858375D01*
X-47575Y37860753D01*
X-44216Y37861345D01*
X-10472Y37867295D01*
X-927Y37872806D01*
X2349Y37873998D01*
X5517Y37875475D01*
X16167Y37878329D01*
X47027Y37899938D01*
X56298Y37905844D01*
X79389Y37919176D01*
X88938Y37924689D01*
X113168Y37953566D01*
X120594Y37961668D01*
X136780Y37977854D01*
X199092Y38011880D01*
X242320Y38013681D01*
X309163Y38004881D01*
X317351Y38005959D01*
X457737Y38024441D01*
X465925Y38025519D01*
X477731Y38030409D01*
X539937Y38056176D01*
X612004Y38086027D01*
X737445Y38182281D01*
X833699Y38307722D01*
X894207Y38453801D01*
X914845Y38610563D01*
X894207Y38767325D01*
X833699Y38913404D01*
X737445Y39038845D01*
X612004Y39135099D01*
X465925Y39195607D01*
X309163Y39216245D01*
X152401Y39195607D01*
X6322Y39135099D01*
X-119119Y39038845D01*
X-215373Y38913404D01*
X-275881Y38767325D01*
X-295261Y38620112D01*
X-296206Y38612937D01*
X-324928Y38548010D01*
X-384193Y38508918D01*
X-421128Y38503383D01*
X-2214472Y38503383D01*
X-2225454Y38503863D01*
X-2252002Y38506186D01*
X-2252004Y38506186D01*
X-2262989Y38507147D01*
X-2299397Y38497391D01*
X-2310124Y38495013D01*
X-2313483Y38494421D01*
X-2347227Y38488471D01*
X-2356772Y38482960D01*
X-2360048Y38481768D01*
X-2363216Y38480291D01*
X-2373866Y38477437D01*
X-2386079Y38468885D01*
X-2404726Y38455828D01*
X-2413997Y38449922D01*
X-2437088Y38436590D01*
X-2446637Y38431077D01*
X-2470867Y38402201D01*
X-2478293Y38394098D01*
X-2816215Y38056176D01*
X-2824319Y38048749D01*
X-2853194Y38024520D01*
X-2858707Y38014971D01*
X-2872039Y37991880D01*
X-2877945Y37982609D01*
X-2899554Y37951749D01*
X-2902408Y37941099D01*
X-2903885Y37937931D01*
X-2905077Y37934655D01*
X-2910588Y37925110D01*
X-2914469Y37903096D01*
X-2917130Y37888007D01*
X-2919508Y37877280D01*
X-2929264Y37840872D01*
X-2928303Y37829887D01*
X-2928303Y37829885D01*
X-2925980Y37803337D01*
X-2925500Y37792355D01*
X-2925500Y37259286D01*
X-2945502Y37191165D01*
X-2974796Y37159323D01*
X-3028282Y37118282D01*
X-3124536Y36992841D01*
X-3185044Y36846762D01*
X-3205682Y36690000D01*
X-3185044Y36533238D01*
X-3124536Y36387159D01*
X-3028282Y36261718D01*
X-2902841Y36165464D01*
X-2756762Y36104956D01*
X-2600000Y36084318D01*
X-2591812Y36085396D01*
X-2451426Y36103878D01*
X-2443238Y36104956D01*
X-2297159Y36165464D01*
X-2171718Y36261718D01*
X-2075464Y36387159D01*
X-2014956Y36533238D01*
X-1994318Y36690000D01*
X-2010899Y36815944D01*
X-1999960Y36886091D01*
X-1952832Y36939190D01*
X-1902424Y36957311D01*
X-1818738Y36968328D01*
X-1759558Y36992841D01*
X-1673931Y37028309D01*
X-1625713Y37037900D01*
X-1349458Y37037900D01*
X-1281337Y37017898D01*
X-1256898Y36994410D01*
X-1256224Y36995084D01*
X-1226735Y36965595D01*
X-1192709Y36903283D01*
X-1197774Y36832468D01*
X-1240321Y36775632D01*
X-1306841Y36750821D01*
X-1315830Y36750500D01*
X-1499748Y36750500D01*
X-1505816Y36749293D01*
X-1546061Y36741288D01*
X-1546062Y36741288D01*
X-1558231Y36738867D01*
X-1624552Y36694552D01*
X-1668867Y36628231D01*
X-1671288Y36616062D01*
X-1671288Y36616061D01*
X-1677388Y36585395D01*
X-1680500Y36569748D01*
X-1680500Y36148741D01*
X-1682000Y36129357D01*
X-1685609Y36106177D01*
X-1684445Y36097275D01*
X-1684445Y36097272D01*
X-1681564Y36075244D01*
X-1680500Y36058907D01*
X-1680500Y35698056D01*
X-1700502Y35629935D01*
X-1754158Y35583442D01*
X-1773890Y35576349D01*
X-1779518Y35574841D01*
X-1780018Y35574707D01*
X-1790742Y35572330D01*
X-1794101Y35571738D01*
X-1827845Y35565788D01*
X-1837390Y35560277D01*
X-1840666Y35559085D01*
X-1843834Y35557608D01*
X-1854484Y35554754D01*
X-1874202Y35540947D01*
X-1885344Y35533145D01*
X-1894615Y35527239D01*
X-1917706Y35513907D01*
X-1927255Y35508394D01*
X-1950703Y35480450D01*
X-1951485Y35479518D01*
X-1958911Y35471415D01*
X-1977617Y35452709D01*
X-2039929Y35418683D01*
X-2083157Y35416882D01*
X-2150000Y35425682D01*
X-2306762Y35405044D01*
X-2452841Y35344536D01*
X-2578282Y35248282D01*
X-2583305Y35241736D01*
X-2586972Y35236957D01*
X-2674536Y35122841D01*
X-2735044Y34976762D01*
X-2755682Y34820000D01*
X-2735044Y34663238D01*
X-2674536Y34517159D01*
X-2578282Y34391718D01*
X-2571736Y34386695D01*
X-2567323Y34383309D01*
X-2452841Y34295464D01*
X-2446745Y34292939D01*
X-2398280Y34242114D01*
X-2387199Y34184633D01*
X-2330943Y34224695D01*
X-2273283Y34230548D01*
X-2166872Y34216539D01*
X-2160474Y34215697D01*
X-2158188Y34215396D01*
X-2150000Y34214318D01*
X-2141812Y34215396D01*
X-2139525Y34215697D01*
X-2026720Y34230548D01*
X-2001426Y34233878D01*
X-1993238Y34234956D01*
X-1847159Y34295464D01*
X-1732677Y34383309D01*
X-1728264Y34386695D01*
X-1721718Y34391718D01*
X-1625464Y34517159D01*
X-1564956Y34663238D01*
X-1551259Y34767277D01*
X-1522537Y34832204D01*
X-1463271Y34871296D01*
X-1437319Y34876351D01*
X-1413672Y34878420D01*
X-1402690Y34878900D01*
X-202700Y34878900D01*
X-134579Y34858898D01*
X-88086Y34805242D01*
X-76700Y34752900D01*
X-76699Y34334100D01*
X-70172Y34284513D01*
X-66099Y34275779D01*
X-66099Y34275778D01*
X-35006Y34209100D01*
X-19424Y34175684D01*
X65484Y34090776D01*
X75476Y34086117D01*
X75477Y34086116D01*
X165576Y34044102D01*
X174313Y34040028D01*
X223899Y34033500D01*
X403734Y34033500D01*
X583700Y34033501D01*
X633287Y34040028D01*
X650139Y34047886D01*
X732123Y34086116D01*
X732124Y34086117D01*
X742116Y34090776D01*
X827024Y34175684D01*
X828656Y34174052D01*
X872503Y34209100D01*
X920258Y34218500D01*
X1102645Y34218500D01*
X1113627Y34218020D01*
X1140175Y34215697D01*
X1140177Y34215697D01*
X1151162Y34214736D01*
X1187570Y34224492D01*
X1198297Y34226870D01*
X1201656Y34227462D01*
X1235400Y34233412D01*
X1244945Y34238923D01*
X1248221Y34240115D01*
X1251389Y34241592D01*
X1262039Y34244446D01*
X1292899Y34266055D01*
X1302170Y34271961D01*
X1325261Y34285293D01*
X1334810Y34290806D01*
X1359040Y34319682D01*
X1366466Y34327785D01*
X1453117Y34414436D01*
X1515429Y34448462D01*
X1558657Y34450263D01*
X1625500Y34441463D01*
X1633688Y34442541D01*
X1633693Y34442541D01*
X1640257Y34443405D01*
X1710405Y34432464D01*
X1763503Y34385335D01*
X1782700Y34318483D01*
X1782700Y31479816D01*
X1762698Y31411695D01*
X1745795Y31390721D01*
X1409285Y31054211D01*
X1401181Y31046784D01*
X1372306Y31022555D01*
X1366793Y31013006D01*
X1353461Y30989915D01*
X1347555Y30980644D01*
X1325946Y30949784D01*
X1323092Y30939134D01*
X1321615Y30935966D01*
X1320423Y30932690D01*
X1314912Y30923145D01*
X1310330Y30897159D01*
X1308370Y30886042D01*
X1305992Y30875315D01*
X1296236Y30838907D01*
X1297197Y30827922D01*
X1297197Y30827920D01*
X1299520Y30801372D01*
X1300000Y30790390D01*
X1300000Y24972661D01*
X1299521Y24961679D01*
X1299091Y24956760D01*
X1296236Y24946107D01*
X1297197Y24935121D01*
X1297197Y24935119D01*
X1299520Y24908572D01*
X1300000Y24897590D01*
X1300000Y24491180D01*
X1279998Y24423059D01*
X1250704Y24391218D01*
X1188268Y24343309D01*
X1188264Y24343305D01*
X1181718Y24338282D01*
X1085464Y24212841D01*
X1024956Y24066762D01*
X1004318Y23910000D01*
X1024956Y23753238D01*
X1085464Y23607159D01*
X1130714Y23548188D01*
X1181718Y23481718D01*
X1179952Y23480363D01*
X1208390Y23428283D01*
X1203325Y23357468D01*
X1160778Y23300632D01*
X1094258Y23275821D01*
X1085269Y23275500D01*
X-1787566Y23275500D01*
X-1855687Y23295502D01*
X-1902180Y23349158D01*
X-1912488Y23417945D01*
X-1904318Y23480000D01*
X-1924956Y23636762D01*
X-1985464Y23782841D01*
X-2081718Y23908282D01*
X-2207159Y24004536D01*
X-2353238Y24065044D01*
X-2366287Y24066762D01*
X-2501812Y24084604D01*
X-2510000Y24085682D01*
X-2518188Y24084604D01*
X-2653712Y24066762D01*
X-2666762Y24065044D01*
X-2812841Y24004536D01*
X-2938282Y23908282D01*
X-3008998Y23816122D01*
X-3009675Y23815240D01*
X-3067013Y23773373D01*
X-3137884Y23769151D01*
X-3157848Y23775532D01*
X-3253238Y23815044D01*
X-3410000Y23835682D01*
X-3566762Y23815044D01*
X-3712841Y23754536D01*
X-3838282Y23658282D01*
X-3934536Y23532841D01*
X-3995044Y23386762D01*
X-3996122Y23378574D01*
X-4009923Y23273747D01*
X-4038646Y23208820D01*
X-4097911Y23169729D01*
X-4168903Y23168884D01*
X-4203095Y23186001D01*
X-4203454Y23185379D01*
X-4210607Y23189509D01*
X-4217159Y23194536D01*
X-4363238Y23255044D01*
X-4520000Y23275682D01*
X-4676762Y23255044D01*
X-4822841Y23194536D01*
X-4948282Y23098282D01*
X-4948844Y23099015D01*
X-5004948Y23068379D01*
X-5031731Y23065500D01*
X-5366102Y23065500D01*
X-5434223Y23085502D01*
X-5466065Y23114797D01*
X-5501192Y23160576D01*
X-5501196Y23160580D01*
X-5506218Y23167125D01*
X-5631659Y23263379D01*
X-5762772Y23317688D01*
X-5818053Y23362236D01*
X-5840474Y23429600D01*
X-5824110Y23496334D01*
X-5785877Y23563636D01*
X-5720849Y23759117D01*
X-5695029Y23963506D01*
X-5694617Y23992980D01*
X-5714720Y24198010D01*
X-5774265Y24395231D01*
X-5870982Y24577131D01*
X-5974035Y24703486D01*
X-5997294Y24732005D01*
X-5997297Y24732008D01*
X-6001189Y24736780D01*
X-6038868Y24767951D01*
X-6155175Y24864169D01*
X-6155179Y24864171D01*
X-6159925Y24868098D01*
X-6330117Y24960120D01*
X-6335726Y24963153D01*
X-6341145Y24966083D01*
X-6537946Y25027003D01*
X-6544071Y25027647D01*
X-6544072Y25027647D01*
X-6736702Y25047893D01*
X-6736704Y25047893D01*
X-6742831Y25048537D01*
X-6829671Y25040634D01*
X-6941858Y25030425D01*
X-6941861Y25030424D01*
X-6947997Y25029866D01*
X-7145628Y24971700D01*
X-7151092Y24968843D01*
X-7155419Y24967095D01*
X-7226072Y24960120D01*
X-7291718Y24994824D01*
X-8262596Y25965702D01*
X-8296622Y26028014D01*
X-8299501Y26054797D01*
X-8299501Y26365828D01*
X-8299956Y26369594D01*
X-8308899Y26443495D01*
X-8309871Y26451528D01*
X-8325667Y26491426D01*
X-8359708Y26577403D01*
X-8362872Y26585395D01*
X-8449922Y26700078D01*
X-8564605Y26787128D01*
X-8698472Y26840129D01*
X-8784171Y26850500D01*
X-10748703Y26850500D01*
X-12715828Y26850499D01*
X-12719585Y26850044D01*
X-12719591Y26850044D01*
X-12789126Y26841630D01*
X-12801528Y26840129D01*
X-12809051Y26837151D01*
X-12809053Y26837150D01*
X-12879749Y26809159D01*
X-12935395Y26787128D01*
X-13050078Y26700078D01*
X-13137128Y26585395D01*
X-13190129Y26451528D01*
X-13200500Y26365829D01*
X-13200499Y25634172D01*
X-13200044Y25630415D01*
X-13200044Y25630409D01*
X-13192575Y25568690D01*
X-13190129Y25548472D01*
X-13187151Y25540949D01*
X-13187150Y25540947D01*
X-13171368Y25501087D01*
X-13137128Y25414605D01*
X-13050078Y25299922D01*
X-12935395Y25212872D01*
X-12801528Y25159871D01*
X-12715829Y25149500D01*
X-10751297Y25149500D01*
X-8784172Y25149501D01*
X-8780415Y25149956D01*
X-8780409Y25149956D01*
X-8706505Y25158899D01*
X-8698472Y25159871D01*
X-8690949Y25162849D01*
X-8690947Y25162850D01*
X-8578855Y25207230D01*
X-8564605Y25212872D01*
X-8561029Y25215586D01*
X-8493786Y25231153D01*
X-8426941Y25207230D01*
X-8412007Y25194461D01*
X-7751943Y24534397D01*
X-7717917Y24472085D01*
X-7720936Y24407204D01*
X-7738923Y24350500D01*
X-7782716Y24212448D01*
X-7783402Y24206331D01*
X-7783403Y24206327D01*
X-7799057Y24066762D01*
X-7805680Y24007718D01*
X-7805164Y24001574D01*
X-7789500Y23815044D01*
X-7788441Y23802427D01*
X-7786742Y23796502D01*
X-7738589Y23628574D01*
X-7731656Y23604394D01*
X-7728841Y23598917D01*
X-7728840Y23598914D01*
X-7663519Y23471813D01*
X-7637488Y23421162D01*
X-7509523Y23259710D01*
X-7504830Y23255716D01*
X-7504829Y23255715D01*
X-7357594Y23130409D01*
X-7352636Y23126189D01*
X-7347258Y23123183D01*
X-7347256Y23123182D01*
X-7279835Y23085502D01*
X-7172802Y23025683D01*
X-7077962Y22994867D01*
X-6982729Y22963924D01*
X-6982725Y22963923D01*
X-6976871Y22962021D01*
X-6772306Y22937629D01*
X-6766171Y22938101D01*
X-6766168Y22938101D01*
X-6666229Y22945791D01*
X-6596775Y22931074D01*
X-6546303Y22881143D01*
X-6530837Y22811851D01*
X-6531640Y22803730D01*
X-6540182Y22738843D01*
X-6539104Y22730655D01*
X-6527455Y22642170D01*
X-6538394Y22572021D01*
X-6585523Y22518923D01*
X-6653877Y22499733D01*
X-6665541Y22500414D01*
X-6742831Y22508537D01*
X-6829671Y22500634D01*
X-6941858Y22490425D01*
X-6941861Y22490424D01*
X-6947997Y22489866D01*
X-7145628Y22431700D01*
X-7151087Y22428846D01*
X-7155424Y22427094D01*
X-7226077Y22420122D01*
X-7291718Y22454825D01*
X-8262595Y23425702D01*
X-8296621Y23488014D01*
X-8299500Y23514797D01*
X-8299501Y23862034D01*
X-8299501Y23865828D01*
X-8299956Y23869594D01*
X-8308899Y23943495D01*
X-8309871Y23951528D01*
X-8313912Y23961736D01*
X-8352623Y24059509D01*
X-8362872Y24085395D01*
X-8449922Y24200078D01*
X-8461092Y24208557D01*
X-8483758Y24225761D01*
X-8564605Y24287128D01*
X-8698472Y24340129D01*
X-8784171Y24350500D01*
X-10748703Y24350500D01*
X-12715828Y24350499D01*
X-12719585Y24350044D01*
X-12719591Y24350044D01*
X-12775248Y24343309D01*
X-12801528Y24340129D01*
X-12809051Y24337151D01*
X-12809053Y24337150D01*
X-12879749Y24309159D01*
X-12935395Y24287128D01*
X-13016242Y24225761D01*
X-13038907Y24208557D01*
X-13050078Y24200078D01*
X-13137128Y24085395D01*
X-13190129Y23951528D01*
X-13200500Y23865829D01*
X-19396738Y23865829D01*
X-19500017Y28865829D01*
X-13200500Y28865829D01*
X-13200499Y28134172D01*
X-13200044Y28130415D01*
X-13200044Y28130409D01*
X-13194813Y28087180D01*
X-13190129Y28048472D01*
X-13187151Y28040949D01*
X-13187150Y28040947D01*
X-13170833Y27999734D01*
X-13137128Y27914605D01*
X-13050078Y27799922D01*
X-12935395Y27712872D01*
X-12801528Y27659871D01*
X-12715829Y27649500D01*
X-10751297Y27649500D01*
X-8784172Y27649501D01*
X-8780415Y27649956D01*
X-8780409Y27649956D01*
X-8706505Y27658899D01*
X-8698472Y27659871D01*
X-8690949Y27662849D01*
X-8690947Y27662850D01*
X-8605661Y27696617D01*
X-8564605Y27712872D01*
X-8557764Y27718065D01*
X-8557758Y27718068D01*
X-8553128Y27721582D01*
X-8486774Y27746833D01*
X-8417301Y27732201D01*
X-8387858Y27710311D01*
X-7751943Y27074396D01*
X-7717917Y27012084D01*
X-7720936Y26947204D01*
X-7782716Y26752448D01*
X-7783402Y26746331D01*
X-7783403Y26746327D01*
X-7800231Y26596300D01*
X-7805680Y26547718D01*
X-7805164Y26541574D01*
X-7789749Y26358007D01*
X-7788441Y26342427D01*
X-7783311Y26324536D01*
X-7734455Y26154156D01*
X-7731656Y26144394D01*
X-7728841Y26138917D01*
X-7728840Y26138914D01*
X-7651304Y25988045D01*
X-7637488Y25961162D01*
X-7509523Y25799710D01*
X-7504830Y25795716D01*
X-7504829Y25795715D01*
X-7366101Y25677649D01*
X-7352636Y25666189D01*
X-7347258Y25663183D01*
X-7347256Y25663182D01*
X-7292493Y25632576D01*
X-7172802Y25565683D01*
X-7081798Y25536114D01*
X-6982729Y25503924D01*
X-6982725Y25503923D01*
X-6976871Y25502021D01*
X-6772306Y25477629D01*
X-6766171Y25478101D01*
X-6766169Y25478101D01*
X-6710161Y25482411D01*
X-6566900Y25493434D01*
X-6560970Y25495090D01*
X-6560968Y25495090D01*
X-6374403Y25547180D01*
X-6374404Y25547180D01*
X-6368475Y25548835D01*
X-6362986Y25551608D01*
X-6362980Y25551610D01*
X-6224017Y25621806D01*
X-6184590Y25641722D01*
X-6058799Y25740000D01*
X-2795682Y25740000D01*
X-2775044Y25583238D01*
X-2714536Y25437159D01*
X-2618282Y25311718D01*
X-2492841Y25215464D01*
X-2346762Y25154956D01*
X-2190000Y25134318D01*
X-2181812Y25135396D01*
X-2041426Y25153878D01*
X-2033238Y25154956D01*
X-1887159Y25215464D01*
X-1880607Y25220491D01*
X-1873454Y25224621D01*
X-1872343Y25222697D01*
X-1816988Y25244099D01*
X-1747439Y25229836D01*
X-1696641Y25180237D01*
X-1680500Y25118536D01*
X-1680500Y24858741D01*
X-1682000Y24839357D01*
X-1685609Y24816177D01*
X-1684445Y24807275D01*
X-1684445Y24807272D01*
X-1681564Y24785244D01*
X-1680500Y24768907D01*
X-1680500Y24340252D01*
X-1668867Y24281769D01*
X-1624552Y24215448D01*
X-1558231Y24171133D01*
X-1546062Y24168712D01*
X-1546061Y24168712D01*
X-1505816Y24160707D01*
X-1499748Y24159500D01*
X139748Y24159500D01*
X145816Y24160707D01*
X186061Y24168712D01*
X186062Y24168712D01*
X198231Y24171133D01*
X264552Y24215448D01*
X308867Y24281769D01*
X320500Y24340252D01*
X320500Y24757424D01*
X322246Y24778329D01*
X324689Y24792852D01*
X325496Y24797646D01*
X325647Y24810000D01*
X321773Y24837051D01*
X320500Y24854913D01*
X320500Y25279748D01*
X308867Y25338231D01*
X301476Y25349293D01*
X271443Y25394239D01*
X264552Y25404552D01*
X198231Y25448867D01*
X186062Y25451288D01*
X186061Y25451288D01*
X145816Y25459293D01*
X139748Y25460500D01*
X-593770Y25460500D01*
X-661891Y25480502D01*
X-708384Y25534158D01*
X-718488Y25604432D01*
X-688994Y25669012D01*
X-682865Y25675595D01*
X-640976Y25717484D01*
X-630476Y25740000D01*
X-594302Y25817576D01*
X-594302Y25817577D01*
X-590228Y25826313D01*
X-583700Y25875899D01*
X-583701Y26295700D01*
X-590228Y26345287D01*
X-601562Y26369594D01*
X-636316Y26444123D01*
X-636317Y26444124D01*
X-640976Y26454116D01*
X-725884Y26539024D01*
X-808187Y26577403D01*
X-825976Y26585698D01*
X-825977Y26585698D01*
X-834713Y26589772D01*
X-884299Y26596300D01*
X-1064134Y26596300D01*
X-1244100Y26596299D01*
X-1293687Y26589772D01*
X-1302421Y26585699D01*
X-1302422Y26585699D01*
X-1370737Y26553843D01*
X-1402516Y26539024D01*
X-1487424Y26454116D01*
X-1492083Y26444124D01*
X-1492084Y26444123D01*
X-1526839Y26369591D01*
X-1538172Y26345287D01*
X-1541561Y26319541D01*
X-1543751Y26302906D01*
X-1544700Y26295701D01*
X-1544700Y26253931D01*
X-1564702Y26185810D01*
X-1618358Y26139317D01*
X-1688632Y26129213D01*
X-1753212Y26158707D01*
X-1757270Y26162485D01*
X-1761718Y26168282D01*
X-1772615Y26176644D01*
X-1818325Y26211718D01*
X-1887159Y26264536D01*
X-2020612Y26319814D01*
X-2025609Y26321884D01*
X-2033238Y26325044D01*
X-2190000Y26345682D01*
X-2346762Y26325044D01*
X-2354391Y26321884D01*
X-2359388Y26319814D01*
X-2492841Y26264536D01*
X-2561675Y26211718D01*
X-2607384Y26176644D01*
X-2618282Y26168282D01*
X-2714536Y26042841D01*
X-2775044Y25896762D01*
X-2795682Y25740000D01*
X-6058799Y25740000D01*
X-6022249Y25768556D01*
X-6006403Y25786913D01*
X-5891660Y25919846D01*
X-5891660Y25919847D01*
X-5887636Y25924508D01*
X-5880535Y25937007D01*
X-5843576Y26002068D01*
X-5785877Y26103636D01*
X-5720849Y26299117D01*
X-5695029Y26503506D01*
X-5694617Y26532980D01*
X-5714720Y26738010D01*
X-5774265Y26935231D01*
X-5870982Y27117131D01*
X-5956417Y27221884D01*
X-5997294Y27272005D01*
X-5997297Y27272008D01*
X-6001189Y27276780D01*
X-6005938Y27280709D01*
X-6155175Y27404169D01*
X-6155179Y27404171D01*
X-6159925Y27408098D01*
X-6341145Y27506083D01*
X-6537946Y27567003D01*
X-6544071Y27567647D01*
X-6544072Y27567647D01*
X-6736702Y27587893D01*
X-6736704Y27587893D01*
X-6742831Y27588537D01*
X-6817904Y27581705D01*
X-6941858Y27570425D01*
X-6941861Y27570424D01*
X-6947997Y27569866D01*
X-7145628Y27511700D01*
X-7151087Y27508846D01*
X-7155424Y27507094D01*
X-7226077Y27500122D01*
X-7291716Y27534823D01*
X-8262597Y28505703D01*
X-8296621Y28568014D01*
X-8299501Y28594797D01*
X-8299501Y28865828D01*
X-8299956Y28869594D01*
X-8308899Y28943495D01*
X-8309871Y28951528D01*
X-8315857Y28966649D01*
X-8359708Y29077403D01*
X-8362872Y29085395D01*
X-8449922Y29200078D01*
X-8457884Y29206122D01*
X-8507527Y29243803D01*
X-8564605Y29287128D01*
X-8698472Y29340129D01*
X-8784171Y29350500D01*
X-10748703Y29350500D01*
X-12715828Y29350499D01*
X-12719585Y29350044D01*
X-12719591Y29350044D01*
X-12789126Y29341630D01*
X-12801528Y29340129D01*
X-12809051Y29337151D01*
X-12809053Y29337150D01*
X-12866536Y29314391D01*
X-12935395Y29287128D01*
X-12992473Y29243803D01*
X-13042115Y29206122D01*
X-13050078Y29200078D01*
X-13137128Y29085395D01*
X-13190129Y28951528D01*
X-13200500Y28865829D01*
X-19500017Y28865829D01*
X-19551657Y31365829D01*
X-13200500Y31365829D01*
X-13200499Y30634172D01*
X-13200044Y30630415D01*
X-13200044Y30630409D01*
X-13193092Y30572962D01*
X-13190129Y30548472D01*
X-13187151Y30540949D01*
X-13187150Y30540947D01*
X-13184461Y30534156D01*
X-13137128Y30414605D01*
X-13050078Y30299922D01*
X-13043238Y30294730D01*
X-13035414Y30288791D01*
X-12935395Y30212872D01*
X-12801528Y30159871D01*
X-12715829Y30149500D01*
X-10751297Y30149500D01*
X-8784172Y30149501D01*
X-8780415Y30149956D01*
X-8780409Y30149956D01*
X-8706505Y30158899D01*
X-8698472Y30159871D01*
X-8690949Y30162849D01*
X-8690947Y30162850D01*
X-8573155Y30209487D01*
X-8564605Y30212872D01*
X-8530394Y30238840D01*
X-8464041Y30264094D01*
X-8394568Y30249466D01*
X-8365119Y30227573D01*
X-7751943Y29614397D01*
X-7717917Y29552085D01*
X-7720936Y29487204D01*
X-7755280Y29378936D01*
X-7782716Y29292448D01*
X-7783402Y29286331D01*
X-7783403Y29286327D01*
X-7802409Y29116880D01*
X-7805680Y29087718D01*
X-7805164Y29081574D01*
X-7789648Y28896806D01*
X-7788441Y28882427D01*
X-7786742Y28876502D01*
X-7734734Y28695129D01*
X-7731656Y28684394D01*
X-7728841Y28678917D01*
X-7728840Y28678914D01*
X-7660221Y28545396D01*
X-7637488Y28501162D01*
X-7509523Y28339710D01*
X-7504830Y28335716D01*
X-7504829Y28335715D01*
X-7425590Y28268278D01*
X-7352636Y28206189D01*
X-7347258Y28203183D01*
X-7347256Y28203182D01*
X-7317756Y28186695D01*
X-7172802Y28105683D01*
X-7077962Y28074867D01*
X-6982729Y28043924D01*
X-6982725Y28043923D01*
X-6976871Y28042021D01*
X-6772306Y28017629D01*
X-6766171Y28018101D01*
X-6766169Y28018101D01*
X-6710161Y28022411D01*
X-6566900Y28033434D01*
X-6560970Y28035090D01*
X-6560968Y28035090D01*
X-6407336Y28077985D01*
X-6368475Y28088835D01*
X-6362986Y28091608D01*
X-6362980Y28091610D01*
X-6190084Y28178947D01*
X-6184590Y28181722D01*
X-6171795Y28191718D01*
X-6068378Y28272516D01*
X-6022249Y28308556D01*
X-6003856Y28329864D01*
X-5891660Y28459846D01*
X-5891660Y28459847D01*
X-5887636Y28464508D01*
X-5866813Y28501162D01*
X-5828836Y28568014D01*
X-5785877Y28643636D01*
X-5720849Y28839117D01*
X-5695029Y29043506D01*
X-5694617Y29072980D01*
X-5702169Y29150000D01*
X-3995682Y29150000D01*
X-3975044Y28993238D01*
X-3914536Y28847159D01*
X-3818282Y28721718D01*
X-3692841Y28625464D01*
X-3546762Y28564956D01*
X-3390000Y28544318D01*
X-3381812Y28545396D01*
X-3241426Y28563878D01*
X-3233238Y28564956D01*
X-3087159Y28625464D01*
X-2961718Y28721718D01*
X-2865464Y28847159D01*
X-2804956Y28993238D01*
X-2784318Y29150000D01*
X-2793118Y29216843D01*
X-2782179Y29286990D01*
X-2757291Y29322383D01*
X-2732079Y29347595D01*
X-2669767Y29381621D01*
X-2642984Y29384500D01*
X-1269286Y29384500D01*
X-1201165Y29364498D01*
X-1169323Y29335204D01*
X-1128282Y29281718D01*
X-1121736Y29276695D01*
X-1110554Y29268115D01*
X-1002841Y29185464D01*
X-856762Y29124956D01*
X-848574Y29123878D01*
X-795418Y29116880D01*
X-700000Y29104318D01*
X-691812Y29105396D01*
X-551426Y29123878D01*
X-543238Y29124956D01*
X-397159Y29185464D01*
X-289446Y29268115D01*
X-278264Y29276695D01*
X-271718Y29281718D01*
X-175464Y29407159D01*
X-114956Y29553238D01*
X-94318Y29710000D01*
X-114956Y29866762D01*
X-175464Y30012841D01*
X-264240Y30128537D01*
X-266695Y30131736D01*
X-271718Y30138282D01*
X-397159Y30234536D01*
X-543238Y30295044D01*
X-700000Y30315682D01*
X-856762Y30295044D01*
X-1002841Y30234536D01*
X-1128282Y30138282D01*
X-1133305Y30131736D01*
X-1169323Y30084796D01*
X-1226661Y30042929D01*
X-1269286Y30035500D01*
X-2810290Y30035500D01*
X-2821272Y30035980D01*
X-2847820Y30038303D01*
X-2847822Y30038303D01*
X-2858807Y30039264D01*
X-2895215Y30029508D01*
X-2905942Y30027130D01*
X-2909301Y30026538D01*
X-2943045Y30020588D01*
X-2952590Y30015077D01*
X-2955866Y30013885D01*
X-2959034Y30012408D01*
X-2969684Y30009554D01*
X-2990130Y29995237D01*
X-3000544Y29987945D01*
X-3009815Y29982039D01*
X-3032906Y29968707D01*
X-3042455Y29963194D01*
X-3049541Y29954749D01*
X-3066685Y29934318D01*
X-3074111Y29926215D01*
X-3217617Y29782709D01*
X-3279929Y29748683D01*
X-3323157Y29746882D01*
X-3390000Y29755682D01*
X-3546762Y29735044D01*
X-3692841Y29674536D01*
X-3818282Y29578282D01*
X-3823305Y29571736D01*
X-3831216Y29561426D01*
X-3914536Y29452841D01*
X-3975044Y29306762D01*
X-3976122Y29298574D01*
X-3978772Y29278446D01*
X-3995682Y29150000D01*
X-5702169Y29150000D01*
X-5714720Y29278010D01*
X-5774265Y29475231D01*
X-5870982Y29657131D01*
X-5950479Y29754604D01*
X-5997294Y29812005D01*
X-5997297Y29812008D01*
X-6001189Y29816780D01*
X-6005938Y29820709D01*
X-6155175Y29944169D01*
X-6155179Y29944171D01*
X-6159925Y29948098D01*
X-6341145Y30046083D01*
X-6537946Y30107003D01*
X-6544071Y30107647D01*
X-6544072Y30107647D01*
X-6736702Y30127893D01*
X-6736704Y30127893D01*
X-6742831Y30128537D01*
X-6818157Y30121682D01*
X-6941858Y30110425D01*
X-6941861Y30110424D01*
X-6947997Y30109866D01*
X-7145628Y30051700D01*
X-7151092Y30048843D01*
X-7155419Y30047095D01*
X-7226072Y30040120D01*
X-7291718Y30074824D01*
X-8262596Y31045702D01*
X-8296622Y31108014D01*
X-8299501Y31134797D01*
X-8299501Y31365828D01*
X-8299956Y31369594D01*
X-8308899Y31443495D01*
X-8309871Y31451528D01*
X-8314340Y31462817D01*
X-8345832Y31542357D01*
X-8362872Y31585395D01*
X-8449922Y31700078D01*
X-8459237Y31707149D01*
X-8510826Y31746307D01*
X-8564605Y31787128D01*
X-8698472Y31840129D01*
X-8784171Y31850500D01*
X-10748703Y31850500D01*
X-12715828Y31850499D01*
X-12719585Y31850044D01*
X-12719591Y31850044D01*
X-12789126Y31841630D01*
X-12801528Y31840129D01*
X-12809051Y31837151D01*
X-12809053Y31837150D01*
X-12872885Y31811877D01*
X-12935395Y31787128D01*
X-12989174Y31746307D01*
X-13040762Y31707149D01*
X-13050078Y31700078D01*
X-13137128Y31585395D01*
X-13190129Y31451528D01*
X-13200500Y31365829D01*
X-19551657Y31365829D01*
X-19603297Y33865829D01*
X-13200500Y33865829D01*
X-13200499Y33134172D01*
X-13200044Y33130415D01*
X-13200044Y33130409D01*
X-13196134Y33098101D01*
X-13190129Y33048472D01*
X-13187151Y33040949D01*
X-13187150Y33040947D01*
X-13159159Y32970251D01*
X-13137128Y32914605D01*
X-13050078Y32799922D01*
X-13043238Y32794730D01*
X-13042243Y32793975D01*
X-12935395Y32712872D01*
X-12801528Y32659871D01*
X-12715829Y32649500D01*
X-10751297Y32649500D01*
X-8784172Y32649501D01*
X-8780415Y32649956D01*
X-8780409Y32649956D01*
X-8706505Y32658899D01*
X-8698472Y32659871D01*
X-8690949Y32662849D01*
X-8690947Y32662850D01*
X-8578176Y32707499D01*
X-8564605Y32712872D01*
X-8507655Y32756100D01*
X-8441302Y32781354D01*
X-8371829Y32766726D01*
X-8342380Y32744833D01*
X-7751943Y32154396D01*
X-7717917Y32092084D01*
X-7720936Y32027204D01*
X-7774869Y31857184D01*
X-7780279Y31840129D01*
X-7782716Y31832448D01*
X-7783402Y31826331D01*
X-7783403Y31826327D01*
X-7802645Y31654776D01*
X-7805680Y31627718D01*
X-7788441Y31422427D01*
X-7786742Y31416502D01*
X-7737569Y31245016D01*
X-7731656Y31224394D01*
X-7728841Y31218917D01*
X-7728840Y31218914D01*
X-7640303Y31046639D01*
X-7637488Y31041162D01*
X-7509523Y30879710D01*
X-7504830Y30875716D01*
X-7504829Y30875715D01*
X-7357701Y30750500D01*
X-7352636Y30746189D01*
X-7347258Y30743183D01*
X-7347256Y30743182D01*
X-7269610Y30699787D01*
X-7172802Y30645683D01*
X-7087960Y30618116D01*
X-6982729Y30583924D01*
X-6982725Y30583923D01*
X-6976871Y30582021D01*
X-6772306Y30557629D01*
X-6766171Y30558101D01*
X-6766169Y30558101D01*
X-6710161Y30562411D01*
X-6566900Y30573434D01*
X-6560970Y30575090D01*
X-6560968Y30575090D01*
X-6407318Y30617990D01*
X-6368475Y30628835D01*
X-6362986Y30631608D01*
X-6362980Y30631610D01*
X-6228014Y30699787D01*
X-6184590Y30721722D01*
X-6175421Y30728885D01*
X-6100519Y30787405D01*
X-6022249Y30848556D01*
X-6016605Y30855094D01*
X-5891660Y30999846D01*
X-5891660Y30999847D01*
X-5887636Y31004508D01*
X-5866813Y31041162D01*
X-5826382Y31112335D01*
X-5785877Y31183636D01*
X-5720849Y31379117D01*
X-5695029Y31583506D01*
X-5694617Y31612980D01*
X-5714720Y31818010D01*
X-5774265Y32015231D01*
X-5870982Y32197131D01*
X-5957697Y32303454D01*
X-5997294Y32352005D01*
X-5997297Y32352008D01*
X-6001189Y32356780D01*
X-6005938Y32360709D01*
X-6155175Y32484169D01*
X-6155179Y32484171D01*
X-6159925Y32488098D01*
X-6341145Y32586083D01*
X-6537946Y32647003D01*
X-6544071Y32647647D01*
X-6544072Y32647647D01*
X-6736702Y32667893D01*
X-6736704Y32667893D01*
X-6742831Y32668537D01*
X-6829671Y32660634D01*
X-6941858Y32650425D01*
X-6941861Y32650424D01*
X-6947997Y32649866D01*
X-7145628Y32591700D01*
X-7151087Y32588846D01*
X-7155424Y32587094D01*
X-7226077Y32580122D01*
X-7291716Y32614823D01*
X-8262597Y33585703D01*
X-8296621Y33648014D01*
X-8299501Y33674797D01*
X-8299501Y33865828D01*
X-8299956Y33869594D01*
X-8308899Y33943495D01*
X-8309871Y33951528D01*
X-8319960Y33977012D01*
X-8358600Y34074604D01*
X-8362872Y34085395D01*
X-8449922Y34200078D01*
X-8564605Y34287128D01*
X-8698472Y34340129D01*
X-8784171Y34350500D01*
X-10748703Y34350500D01*
X-12715828Y34350499D01*
X-12719585Y34350044D01*
X-12719591Y34350044D01*
X-12789126Y34341630D01*
X-12801528Y34340129D01*
X-12809051Y34337151D01*
X-12809053Y34337150D01*
X-12858668Y34317506D01*
X-12935395Y34287128D01*
X-13050078Y34200078D01*
X-13137128Y34085395D01*
X-13190129Y33951528D01*
X-13200500Y33865829D01*
X-19603297Y33865829D01*
X-19654937Y36365829D01*
X-13200500Y36365829D01*
X-13200499Y35634172D01*
X-13200044Y35630415D01*
X-13200044Y35630409D01*
X-13193016Y35572330D01*
X-13190129Y35548472D01*
X-13187151Y35540949D01*
X-13187150Y35540947D01*
X-13160298Y35473127D01*
X-13137128Y35414605D01*
X-13050078Y35299922D01*
X-12935395Y35212872D01*
X-12801528Y35159871D01*
X-12715829Y35149500D01*
X-10751297Y35149500D01*
X-8784172Y35149501D01*
X-8780415Y35149956D01*
X-8780409Y35149956D01*
X-8706505Y35158899D01*
X-8698472Y35159871D01*
X-8690949Y35162849D01*
X-8690947Y35162850D01*
X-8604441Y35197100D01*
X-8564605Y35212872D01*
X-8484914Y35273361D01*
X-8418562Y35298615D01*
X-8349089Y35283987D01*
X-8319640Y35262094D01*
X-7751943Y34694397D01*
X-7717917Y34632085D01*
X-7720936Y34567204D01*
X-7745189Y34490747D01*
X-7782716Y34372448D01*
X-7783402Y34366331D01*
X-7783403Y34366327D01*
X-7804970Y34174052D01*
X-7805680Y34167718D01*
X-7803917Y34146729D01*
X-7790353Y33985200D01*
X-7788441Y33962427D01*
X-7786742Y33956502D01*
X-7736040Y33779684D01*
X-7731656Y33764394D01*
X-7728841Y33758917D01*
X-7728840Y33758914D01*
X-7640303Y33586639D01*
X-7637488Y33581162D01*
X-7509523Y33419710D01*
X-7504830Y33415716D01*
X-7504829Y33415715D01*
X-7375454Y33305609D01*
X-7352636Y33286189D01*
X-7347258Y33283183D01*
X-7347256Y33283182D01*
X-7315637Y33265511D01*
X-7172802Y33185683D01*
X-7115791Y33167159D01*
X-6982729Y33123924D01*
X-6982725Y33123923D01*
X-6976871Y33122021D01*
X-6772306Y33097629D01*
X-6766171Y33098101D01*
X-6766169Y33098101D01*
X-6706116Y33102722D01*
X-6566900Y33113434D01*
X-6560970Y33115090D01*
X-6560968Y33115090D01*
X-6374403Y33167180D01*
X-6374404Y33167180D01*
X-6368475Y33168835D01*
X-6362986Y33171608D01*
X-6362980Y33171610D01*
X-6190084Y33258947D01*
X-6184590Y33261722D01*
X-6122224Y33310447D01*
X-6082512Y33341474D01*
X-6022249Y33388556D01*
X-6017506Y33394050D01*
X-5951949Y33470000D01*
X-3255682Y33470000D01*
X-3235044Y33313238D01*
X-3174536Y33167159D01*
X-3078282Y33041718D01*
X-3071736Y33036695D01*
X-3046505Y33017335D01*
X-2952841Y32945464D01*
X-2806762Y32884956D01*
X-2650000Y32864318D01*
X-2583157Y32873118D01*
X-2513010Y32862179D01*
X-2477617Y32837291D01*
X-2444111Y32803785D01*
X-2436684Y32795681D01*
X-2412455Y32766806D01*
X-2402906Y32761293D01*
X-2379815Y32747961D01*
X-2370544Y32742055D01*
X-2339684Y32720446D01*
X-2329033Y32717592D01*
X-2325860Y32716112D01*
X-2322588Y32714921D01*
X-2313045Y32709412D01*
X-2275924Y32702866D01*
X-2265217Y32700492D01*
X-2228807Y32690737D01*
X-2217832Y32691697D01*
X-2217830Y32691697D01*
X-2191269Y32694021D01*
X-2180288Y32694500D01*
X-309286Y32694500D01*
X-241165Y32674498D01*
X-209323Y32645204D01*
X-174114Y32599319D01*
X-168282Y32591718D01*
X-42841Y32495464D01*
X103238Y32434956D01*
X260000Y32414318D01*
X268188Y32415396D01*
X408574Y32433878D01*
X416762Y32434956D01*
X562841Y32495464D01*
X688282Y32591718D01*
X694115Y32599319D01*
X729323Y32645204D01*
X784536Y32717159D01*
X845044Y32863238D01*
X865682Y33020000D01*
X855363Y33098381D01*
X846122Y33168574D01*
X845044Y33176762D01*
X784536Y33322841D01*
X688282Y33448282D01*
X659979Y33470000D01*
X584400Y33527993D01*
X562841Y33544536D01*
X416762Y33605044D01*
X260000Y33625682D01*
X103238Y33605044D01*
X-42841Y33544536D01*
X-64400Y33527993D01*
X-139978Y33470000D01*
X-168282Y33448282D01*
X-173305Y33441736D01*
X-209323Y33394796D01*
X-266661Y33352929D01*
X-309286Y33345500D01*
X-1919396Y33345500D01*
X-1987517Y33365502D01*
X-2034010Y33419158D01*
X-2044601Y33467847D01*
X-2044318Y33470000D01*
X-2064956Y33626762D01*
X-2125464Y33772841D01*
X-2221718Y33898282D01*
X-2347159Y33994536D01*
X-2353255Y33997061D01*
X-2401720Y34047886D01*
X-2412801Y34105367D01*
X-2469057Y34065305D01*
X-2526717Y34059452D01*
X-2641812Y34074604D01*
X-2650000Y34075682D01*
X-2806762Y34055044D01*
X-2952841Y33994536D01*
X-3078282Y33898282D01*
X-3174536Y33772841D01*
X-3235044Y33626762D01*
X-3255682Y33470000D01*
X-5951949Y33470000D01*
X-5891660Y33539846D01*
X-5891660Y33539847D01*
X-5887636Y33544508D01*
X-5884052Y33550816D01*
X-5841523Y33625682D01*
X-5785877Y33723636D01*
X-5720849Y33919117D01*
X-5695029Y34123506D01*
X-5694704Y34146729D01*
X-5694666Y34149458D01*
X-5694666Y34149462D01*
X-5694617Y34152980D01*
X-5714720Y34358010D01*
X-5774265Y34555231D01*
X-5870982Y34737131D01*
X-5945247Y34828188D01*
X-5997294Y34892005D01*
X-5997297Y34892008D01*
X-6001189Y34896780D01*
X-6007221Y34901770D01*
X-6155175Y35024169D01*
X-6155179Y35024171D01*
X-6159925Y35028098D01*
X-6341145Y35126083D01*
X-6537946Y35187003D01*
X-6544071Y35187647D01*
X-6544072Y35187647D01*
X-6736702Y35207893D01*
X-6736704Y35207893D01*
X-6742831Y35208537D01*
X-6823179Y35201225D01*
X-6941858Y35190425D01*
X-6941861Y35190424D01*
X-6947997Y35189866D01*
X-7145628Y35131700D01*
X-7151092Y35128843D01*
X-7155419Y35127095D01*
X-7226072Y35120120D01*
X-7291718Y35154824D01*
X-7564279Y35427385D01*
X-7598305Y35489697D01*
X-7593240Y35560512D01*
X-7550693Y35617348D01*
X-7484173Y35642159D01*
X-7475184Y35642480D01*
X-5880452Y35642480D01*
X-5874384Y35643687D01*
X-5834139Y35651692D01*
X-5834138Y35651692D01*
X-5821969Y35654113D01*
X-5755648Y35698428D01*
X-5711333Y35764749D01*
X-5704276Y35800224D01*
X-5700907Y35817164D01*
X-5699700Y35823232D01*
X-5699700Y37562728D01*
X-5711333Y37621211D01*
X-5755648Y37687532D01*
X-5821969Y37731847D01*
X-5834138Y37734268D01*
X-5834139Y37734268D01*
X-5874384Y37742273D01*
X-5880452Y37743480D01*
X-6630962Y37743480D01*
X-6699083Y37763482D01*
X-6720057Y37780384D01*
X-7555895Y38616221D01*
X-7563322Y38624326D01*
X-7580459Y38644749D01*
X-7580458Y38644749D01*
X-7587545Y38653194D01*
X-7597094Y38658707D01*
X-7620185Y38672039D01*
X-7629456Y38677945D01*
X-7651285Y38693230D01*
X-7660316Y38699554D01*
X-7670966Y38702408D01*
X-7674134Y38703885D01*
X-7677410Y38705077D01*
X-7686955Y38710588D01*
X-7720699Y38716538D01*
X-7724058Y38717130D01*
X-7734785Y38719508D01*
X-7771193Y38729264D01*
X-7782178Y38728303D01*
X-7782180Y38728303D01*
X-7808728Y38725980D01*
X-7819710Y38725500D01*
X-8182948Y38725500D01*
X-8251069Y38745502D01*
X-8297562Y38799158D01*
X-8308035Y38836363D01*
X-8308897Y38843488D01*
X-8308899Y38843497D01*
X-8309871Y38851528D01*
X-8362872Y38985395D01*
X-8449922Y39100078D01*
X-8564605Y39187128D01*
X-8698472Y39240129D01*
X-8784171Y39250500D01*
X-10748703Y39250500D01*
X-12715828Y39250499D01*
X-12719585Y39250044D01*
X-12719591Y39250044D01*
X-12789126Y39241630D01*
X-12801528Y39240129D01*
X-12809051Y39237151D01*
X-12809053Y39237150D01*
X-12861853Y39216245D01*
X-12935395Y39187128D01*
X-13050078Y39100078D01*
X-13137128Y38985395D01*
X-13190129Y38851528D01*
X-13200500Y38765829D01*
X-13200499Y38034172D01*
X-13200044Y38030415D01*
X-13200044Y38030409D01*
X-13194720Y37986409D01*
X-13190129Y37948472D01*
X-13187151Y37940949D01*
X-13187150Y37940947D01*
X-13160868Y37874565D01*
X-13137128Y37814605D01*
X-13050078Y37699922D01*
X-13043238Y37694730D01*
X-13035557Y37688900D01*
X-12935395Y37612872D01*
X-12801528Y37559871D01*
X-12715829Y37549500D01*
X-10751297Y37549500D01*
X-8784172Y37549501D01*
X-8780415Y37549956D01*
X-8780409Y37549956D01*
X-8706505Y37558899D01*
X-8698472Y37559871D01*
X-8690949Y37562849D01*
X-8690947Y37562850D01*
X-8620251Y37590841D01*
X-8564605Y37612872D01*
X-8464443Y37688900D01*
X-8456762Y37694730D01*
X-8449922Y37699922D01*
X-8362872Y37814605D01*
X-8309871Y37948472D01*
X-8308036Y37963638D01*
X-8279997Y38028860D01*
X-8221145Y38068571D01*
X-8182949Y38074500D01*
X-7987016Y38074500D01*
X-7918895Y38054498D01*
X-7897921Y38037595D01*
X-7733689Y37873363D01*
X-7699663Y37811051D01*
X-7704728Y37740236D01*
X-7733689Y37695173D01*
X-7734439Y37694423D01*
X-7744752Y37687532D01*
X-7789067Y37621211D01*
X-7800700Y37562728D01*
X-7800700Y35967996D01*
X-7820702Y35899875D01*
X-7874358Y35853382D01*
X-7944632Y35843278D01*
X-8009212Y35872772D01*
X-8015795Y35878901D01*
X-8087941Y35951047D01*
X-8107965Y35977142D01*
X-8111295Y35982910D01*
X-8111296Y35982911D01*
X-8116806Y35992455D01*
X-8145683Y36016685D01*
X-8153785Y36024111D01*
X-8262596Y36132922D01*
X-8296622Y36195234D01*
X-8299501Y36222017D01*
X-8299501Y36365828D01*
X-8299956Y36369594D01*
X-8308899Y36443495D01*
X-8309871Y36451528D01*
X-8362872Y36585395D01*
X-8449922Y36700078D01*
X-8564605Y36787128D01*
X-8698472Y36840129D01*
X-8784171Y36850500D01*
X-10748703Y36850500D01*
X-12715828Y36850499D01*
X-12719585Y36850044D01*
X-12719591Y36850044D01*
X-12789126Y36841630D01*
X-12801528Y36840129D01*
X-12809051Y36837151D01*
X-12809053Y36837150D01*
X-12841867Y36824158D01*
X-12935395Y36787128D01*
X-13050078Y36700078D01*
X-13137128Y36585395D01*
X-13190129Y36451528D01*
X-13200500Y36365829D01*
X-19654937Y36365829D01*
X-19740070Y40487304D01*
X-19721479Y40555822D01*
X-19668795Y40603413D01*
X-19598745Y40614966D01*
X-19538532Y40590731D01*
X-19500005Y40561856D01*
X-19500002Y40561854D01*
X-19492823Y40556474D01*
X-19403438Y40522966D01*
X-19365974Y40508921D01*
X-19365972Y40508921D01*
X-19358579Y40506149D01*
X-19350729Y40505296D01*
X-19350728Y40505296D01*
X-19300773Y40499869D01*
X-19297376Y40499500D01*
X-15902624Y40499500D01*
X-15899227Y40499869D01*
X-15849272Y40505296D01*
X-15849271Y40505296D01*
X-15841421Y40506149D01*
X-15834028Y40508921D01*
X-15834026Y40508921D01*
X-15796562Y40522966D01*
X-15707177Y40556474D01*
X-15699998Y40561854D01*
X-15699995Y40561856D01*
X-15599634Y40637073D01*
X-15592454Y40642454D01*
X-15576003Y40664404D01*
X-15511856Y40749995D01*
X-15511854Y40749998D01*
X-15506474Y40757177D01*
X-15456149Y40891421D01*
X-15449500Y40952624D01*
X-15449500Y42003161D01*
X-15429498Y42071282D01*
X-15375842Y42117775D01*
X-15325018Y42129152D01*
X-9327518Y42201392D01*
X-9259161Y42182212D01*
G37*
%TD.AperFunction*%
%TD*%
M02*
