%TF.GenerationSoftware,KiCad,Pcbnew,8.0.4*%
%TF.CreationDate,2024-09-17T19:46:24+01:00*%
%TF.ProjectId,ADE_Main_V4,4144455f-4d61-4696-9e5f-56342e6b6963,rev?*%
%TF.SameCoordinates,Original*%
%TF.FileFunction,Copper,L1,Top*%
%TF.FilePolarity,Positive*%
%FSLAX46Y46*%
G04 Gerber Fmt 4.6, Leading zero omitted, Abs format (unit mm)*
G04 Created by KiCad (PCBNEW 8.0.4) date 2024-09-17 19:46:24*
%MOMM*%
%LPD*%
G01*
G04 APERTURE LIST*
G04 Aperture macros list*
%AMRoundRect*
0 Rectangle with rounded corners*
0 $1 Rounding radius*
0 $2 $3 $4 $5 $6 $7 $8 $9 X,Y pos of 4 corners*
0 Add a 4 corners polygon primitive as box body*
4,1,4,$2,$3,$4,$5,$6,$7,$8,$9,$2,$3,0*
0 Add four circle primitives for the rounded corners*
1,1,$1+$1,$2,$3*
1,1,$1+$1,$4,$5*
1,1,$1+$1,$6,$7*
1,1,$1+$1,$8,$9*
0 Add four rect primitives between the rounded corners*
20,1,$1+$1,$2,$3,$4,$5,0*
20,1,$1+$1,$4,$5,$6,$7,0*
20,1,$1+$1,$6,$7,$8,$9,0*
20,1,$1+$1,$8,$9,$2,$3,0*%
G04 Aperture macros list end*
%TA.AperFunction,SMDPad,CuDef*%
%ADD10RoundRect,0.135000X-0.135000X-0.185000X0.135000X-0.185000X0.135000X0.185000X-0.135000X0.185000X0*%
%TD*%
%TA.AperFunction,SMDPad,CuDef*%
%ADD11RoundRect,0.135000X0.135000X0.185000X-0.135000X0.185000X-0.135000X-0.185000X0.135000X-0.185000X0*%
%TD*%
%TA.AperFunction,SMDPad,CuDef*%
%ADD12RoundRect,0.140000X0.140000X0.170000X-0.140000X0.170000X-0.140000X-0.170000X0.140000X-0.170000X0*%
%TD*%
%TA.AperFunction,SMDPad,CuDef*%
%ADD13RoundRect,0.140000X-0.140000X-0.170000X0.140000X-0.170000X0.140000X0.170000X-0.140000X0.170000X0*%
%TD*%
%TA.AperFunction,SMDPad,CuDef*%
%ADD14C,1.000000*%
%TD*%
%TA.AperFunction,SMDPad,CuDef*%
%ADD15RoundRect,0.250000X0.650000X-0.325000X0.650000X0.325000X-0.650000X0.325000X-0.650000X-0.325000X0*%
%TD*%
%TA.AperFunction,SMDPad,CuDef*%
%ADD16RoundRect,0.135000X0.185000X-0.135000X0.185000X0.135000X-0.185000X0.135000X-0.185000X-0.135000X0*%
%TD*%
%TA.AperFunction,SMDPad,CuDef*%
%ADD17RoundRect,0.225000X0.250000X-0.225000X0.250000X0.225000X-0.250000X0.225000X-0.250000X-0.225000X0*%
%TD*%
%TA.AperFunction,SMDPad,CuDef*%
%ADD18C,0.200000*%
%TD*%
%TA.AperFunction,SMDPad,CuDef*%
%ADD19RoundRect,0.135000X-0.185000X0.135000X-0.185000X-0.135000X0.185000X-0.135000X0.185000X0.135000X0*%
%TD*%
%TA.AperFunction,SMDPad,CuDef*%
%ADD20RoundRect,0.250000X-0.325000X-0.650000X0.325000X-0.650000X0.325000X0.650000X-0.325000X0.650000X0*%
%TD*%
%TA.AperFunction,SMDPad,CuDef*%
%ADD21R,0.250000X0.500000*%
%TD*%
%TA.AperFunction,ComponentPad*%
%ADD22C,0.600000*%
%TD*%
%TA.AperFunction,SMDPad,CuDef*%
%ADD23R,1.600000X0.900000*%
%TD*%
%TA.AperFunction,SMDPad,CuDef*%
%ADD24R,0.304800X0.812800*%
%TD*%
%TA.AperFunction,SMDPad,CuDef*%
%ADD25R,0.812800X0.304800*%
%TD*%
%TA.AperFunction,SMDPad,CuDef*%
%ADD26R,4.241800X4.241800*%
%TD*%
%TA.AperFunction,SMDPad,CuDef*%
%ADD27RoundRect,0.250000X0.325000X0.650000X-0.325000X0.650000X-0.325000X-0.650000X0.325000X-0.650000X0*%
%TD*%
%TA.AperFunction,ComponentPad*%
%ADD28R,1.700000X1.700000*%
%TD*%
%TA.AperFunction,ComponentPad*%
%ADD29O,1.700000X1.700000*%
%TD*%
%TA.AperFunction,ConnectorPad*%
%ADD30R,0.700000X4.300000*%
%TD*%
%TA.AperFunction,ViaPad*%
%ADD31C,0.800000*%
%TD*%
%TA.AperFunction,Conductor*%
%ADD32C,0.250000*%
%TD*%
%TA.AperFunction,Conductor*%
%ADD33C,0.200000*%
%TD*%
G04 APERTURE END LIST*
D10*
%TO.P,R25,1*%
%TO.N,/ITP*%
X-1510000Y27390000D03*
%TO.P,R25,2*%
%TO.N,Net-(C13-Pad2)*%
X-490000Y27390000D03*
%TD*%
D11*
%TO.P,R18,1*%
%TO.N,Net-(C13-Pad2)*%
X-3390000Y27880000D03*
%TO.P,R18,2*%
%TO.N,/RT*%
X-4410000Y27880000D03*
%TD*%
D10*
%TO.P,R5,1*%
%TO.N,Net-(C4-Pad1)*%
X-9600000Y19200000D03*
%TO.P,R5,2*%
%TO.N,/RNM*%
X-8580000Y19200000D03*
%TD*%
D12*
%TO.P,C11,1*%
%TO.N,/RR*%
X-10780000Y37080000D03*
%TO.P,C11,2*%
%TO.N,GND*%
X-11740000Y37080000D03*
%TD*%
D13*
%TO.P,C13,1*%
%TO.N,/ITP*%
X-1500000Y28710000D03*
%TO.P,C13,2*%
%TO.N,Net-(C13-Pad2)*%
X-540000Y28710000D03*
%TD*%
D12*
%TO.P,C3,1*%
%TO.N,/RN*%
X-10780000Y21410000D03*
%TO.P,C3,2*%
%TO.N,GND*%
X-11740000Y21410000D03*
%TD*%
D14*
%TO.P,FID1,*%
%TO.N,*%
X25781000Y29210000D03*
%TD*%
D11*
%TO.P,R9,1*%
%TO.N,Net-(C6-Pad2)*%
X-3440000Y33440000D03*
%TO.P,R9,2*%
%TO.N,/RS*%
X-4460000Y33440000D03*
%TD*%
D15*
%TO.P,C26,1*%
%TO.N,GND*%
X2410000Y18075000D03*
%TO.P,C26,2*%
%TO.N,/UM*%
X2410000Y21025000D03*
%TD*%
D16*
%TO.P,R20,1*%
%TO.N,Net-(R20-Pad1)*%
X1250000Y37730000D03*
%TO.P,R20,2*%
%TO.N,GND*%
X1250000Y38750000D03*
%TD*%
D17*
%TO.P,C2,1*%
%TO.N,+3V3*%
X-4030000Y24815000D03*
%TO.P,C2,2*%
%TO.N,GND*%
X-4030000Y26365000D03*
%TD*%
D12*
%TO.P,C7,1*%
%TO.N,/RT*%
X-10770000Y26480000D03*
%TO.P,C7,2*%
%TO.N,GND*%
X-11730000Y26480000D03*
%TD*%
D18*
%TO.P,TP1,1,1*%
%TO.N,unconnected-(TP1-Pad1)*%
X-16789400Y28600400D03*
%TD*%
D11*
%TO.P,R6,1*%
%TO.N,Net-(C5-Pad2)*%
X-3430000Y21180000D03*
%TO.P,R6,2*%
%TO.N,/RN*%
X-4450000Y21180000D03*
%TD*%
D10*
%TO.P,R1,1*%
%TO.N,/ADE_Reset*%
X22654800Y34899600D03*
%TO.P,R1,2*%
%TO.N,+3V3*%
X23674800Y34899600D03*
%TD*%
D19*
%TO.P,R8,1*%
%TO.N,Net-(R8-Pad1)*%
X1280000Y34240000D03*
%TO.P,R8,2*%
%TO.N,GND*%
X1280000Y33220000D03*
%TD*%
D12*
%TO.P,C4,1*%
%TO.N,Net-(C4-Pad1)*%
X-10780000Y18150000D03*
%TO.P,C4,2*%
%TO.N,GND*%
X-11740000Y18150000D03*
%TD*%
D13*
%TO.P,C1,1*%
%TO.N,/ADE_Reset*%
X22684800Y33782000D03*
%TO.P,C1,2*%
%TO.N,GND*%
X23644800Y33782000D03*
%TD*%
D14*
%TO.P,FID4,*%
%TO.N,*%
X-17119600Y40767000D03*
%TD*%
D10*
%TO.P,R26,1*%
%TO.N,/IRP*%
X-1510000Y38280000D03*
%TO.P,R26,2*%
%TO.N,Net-(C16-Pad2)*%
X-490000Y38280000D03*
%TD*%
D12*
%TO.P,C16,1*%
%TO.N,/IRP*%
X-2440000Y38310000D03*
%TO.P,C16,2*%
%TO.N,Net-(C16-Pad2)*%
X-3400000Y38310000D03*
%TD*%
D10*
%TO.P,R4,1*%
%TO.N,/RN*%
X-9600000Y21400000D03*
%TO.P,R4,2*%
%TO.N,/RNP*%
X-8580000Y21400000D03*
%TD*%
D12*
%TO.P,C12,1*%
%TO.N,Net-(C12-Pad1)*%
X-10780000Y34170000D03*
%TO.P,C12,2*%
%TO.N,GND*%
X-11740000Y34170000D03*
%TD*%
D10*
%TO.P,R11,1*%
%TO.N,Net-(C8-Pad1)*%
X-9600000Y23980000D03*
%TO.P,R11,2*%
%TO.N,/RTM*%
X-8580000Y23980000D03*
%TD*%
%TO.P,R24,1*%
%TO.N,/ISP*%
X-1510000Y33820000D03*
%TO.P,R24,2*%
%TO.N,Net-(C6-Pad2)*%
X-490000Y33820000D03*
%TD*%
%TO.P,R14,1*%
%TO.N,/RR*%
X-9600000Y37070000D03*
%TO.P,R14,2*%
%TO.N,/RRP*%
X-8580000Y37070000D03*
%TD*%
%TO.P,R23,1*%
%TO.N,/INP*%
X-1510000Y21090000D03*
%TO.P,R23,2*%
%TO.N,Net-(C5-Pad2)*%
X-490000Y21090000D03*
%TD*%
D20*
%TO.P,C18,1*%
%TO.N,+3V3*%
X17092400Y34340800D03*
%TO.P,C18,2*%
%TO.N,GND*%
X20042400Y34340800D03*
%TD*%
D10*
%TO.P,R10,1*%
%TO.N,/RT*%
X-9600000Y26500000D03*
%TO.P,R10,2*%
%TO.N,/RTP*%
X-8580000Y26500000D03*
%TD*%
%TO.P,R15,1*%
%TO.N,Net-(C12-Pad1)*%
X-9600000Y34160000D03*
%TO.P,R15,2*%
%TO.N,/RRM*%
X-8580000Y34160000D03*
%TD*%
D11*
%TO.P,R21,1*%
%TO.N,Net-(C12-Pad1)*%
X-10730000Y33160000D03*
%TO.P,R21,2*%
%TO.N,GND*%
X-11750000Y33160000D03*
%TD*%
D13*
%TO.P,C6,1*%
%TO.N,/ISP*%
X-1500000Y32750000D03*
%TO.P,C6,2*%
%TO.N,Net-(C6-Pad2)*%
X-540000Y32750000D03*
%TD*%
D11*
%TO.P,R17,1*%
%TO.N,Net-(C8-Pad1)*%
X-10720000Y22960000D03*
%TO.P,R17,2*%
%TO.N,GND*%
X-11740000Y22960000D03*
%TD*%
%TO.P,R7,1*%
%TO.N,Net-(C4-Pad1)*%
X-10730000Y19200000D03*
%TO.P,R7,2*%
%TO.N,GND*%
X-11750000Y19200000D03*
%TD*%
D21*
%TO.P,U3,1*%
%TO.N,/ISP*%
X-1430000Y35150000D03*
%TO.P,U3,2,-*%
%TO.N,Net-(C6-Pad2)*%
X-930000Y35150000D03*
%TO.P,U3,3,+*%
%TO.N,Net-(R8-Pad1)*%
X-430000Y35150000D03*
%TO.P,U3,4,V-*%
%TO.N,/UM*%
X70000Y35150000D03*
%TO.P,U3,5,+*%
%TO.N,Net-(R20-Pad1)*%
X70000Y37050000D03*
%TO.P,U3,6,-*%
%TO.N,Net-(C16-Pad2)*%
X-430000Y37050000D03*
%TO.P,U3,7*%
%TO.N,/IRP*%
X-930000Y37050000D03*
%TO.P,U3,8,V+*%
%TO.N,+3V3*%
X-1430000Y37050000D03*
D22*
%TO.P,U3,9,PAD*%
%TO.N,/UM*%
X-180000Y36100000D03*
D23*
X-680000Y36100000D03*
D22*
X-1180000Y36100000D03*
%TD*%
D12*
%TO.P,C9,1*%
%TO.N,/RS*%
X-10780000Y31700000D03*
%TO.P,C9,2*%
%TO.N,GND*%
X-11740000Y31700000D03*
%TD*%
%TO.P,C10,1*%
%TO.N,Net-(C10-Pad1)*%
X-10780000Y28940000D03*
%TO.P,C10,2*%
%TO.N,GND*%
X-11740000Y28940000D03*
%TD*%
D10*
%TO.P,R16,1*%
%TO.N,Net-(R16-Pad1)*%
X570000Y27050000D03*
%TO.P,R16,2*%
%TO.N,GND*%
X1590000Y27050000D03*
%TD*%
D24*
%TO.P,U2,1,PullHigh*%
%TO.N,+3V3*%
X10287000Y37160200D03*
%TO.P,U2,2,DGND*%
%TO.N,GND*%
X9779000Y37160200D03*
%TO.P,U2,3,DVDDOUT*%
%TO.N,/DVDDOUT*%
X9271000Y37160200D03*
%TO.P,U2,4,PM0*%
%TO.N,GND*%
X8788400Y37160200D03*
%TO.P,U2,5,PM1*%
%TO.N,/PM1*%
X8280400Y37160200D03*
%TO.P,U2,6,RESET*%
%TO.N,/ADE_Reset*%
X7772400Y37160200D03*
%TO.P,U2,7,IAP*%
%TO.N,/IRP*%
X7264400Y37160200D03*
%TO.P,U2,8,IAN*%
%TO.N,GND*%
X6781800Y37160200D03*
%TO.P,U2,9,IBP*%
%TO.N,/ISP*%
X6273800Y37160200D03*
%TO.P,U2,10,IBN*%
%TO.N,GND*%
X5765800Y37160200D03*
D25*
%TO.P,U2,11,ICP*%
%TO.N,/ITP*%
X5130800Y36525200D03*
%TO.P,U2,12,ICN*%
%TO.N,GND*%
X5130800Y36017200D03*
%TO.P,U2,13,INP*%
%TO.N,/INP*%
X5130800Y35509200D03*
%TO.P,U2,14,INN*%
%TO.N,GND*%
X5130800Y35026600D03*
%TO.P,U2,15,REFGND*%
X5130800Y34518600D03*
%TO.P,U2,16,REF*%
%TO.N,/REF*%
X5130800Y34010600D03*
%TO.P,U2,17,NC1*%
%TO.N,GND*%
X5130800Y33502600D03*
%TO.P,U2,18,NC2*%
X5130800Y33020000D03*
%TO.P,U2,19,VAN*%
%TO.N,/UR+*%
X5130800Y32512000D03*
%TO.P,U2,20,VAP*%
%TO.N,/UR-*%
X5130800Y32004000D03*
D24*
%TO.P,U2,21,VBN*%
%TO.N,/US+*%
X5765800Y31369000D03*
%TO.P,U2,22,VBP*%
%TO.N,/US-*%
X6273800Y31369000D03*
%TO.P,U2,23,VCN*%
%TO.N,/UT+*%
X6781800Y31369000D03*
%TO.P,U2,24,VCP*%
%TO.N,/UT-*%
X7264400Y31369000D03*
%TO.P,U2,25,AVDDOUT*%
%TO.N,/AVDDOUT*%
X7772400Y31369000D03*
%TO.P,U2,26,AGND*%
%TO.N,GND*%
X8280400Y31369000D03*
%TO.P,U2,27,VDD*%
%TO.N,+3V3*%
X8788400Y31369000D03*
%TO.P,U2,28,GND*%
%TO.N,GND*%
X9271000Y31369000D03*
%TO.P,U2,29,CLKIN*%
%TO.N,/O_IN*%
X9779000Y31369000D03*
%TO.P,U2,30,CLKOUT*%
%TO.N,/O_OUT*%
X10287000Y31369000D03*
D25*
%TO.P,U2,31,IRQ0*%
%TO.N,/IRQ1*%
X10922000Y32004000D03*
%TO.P,U2,32,IRQ1*%
%TO.N,/IRQ2*%
X10922000Y32512000D03*
%TO.P,U2,33,CF1*%
%TO.N,unconnected-(U2-Pad33)*%
X10922000Y33020000D03*
%TO.P,U2,34,CF2*%
%TO.N,unconnected-(U2-Pad34)*%
X10922000Y33502600D03*
%TO.P,U2,35,CF3/ZX*%
%TO.N,unconnected-(U2-Pad35)*%
X10922000Y34010600D03*
%TO.P,U2,36,CF4/READY*%
%TO.N,/READY*%
X10922000Y34518600D03*
%TO.P,U2,37,SCLK*%
%TO.N,/SCLK*%
X10922000Y35026600D03*
%TO.P,U2,38,MISO*%
%TO.N,/MISO*%
X10922000Y35509200D03*
%TO.P,U2,39,MOSI*%
%TO.N,/MOSI*%
X10922000Y36017200D03*
%TO.P,U2,40,SS*%
%TO.N,/SS*%
X10922000Y36525200D03*
D26*
%TO.P,U2,41,EP*%
%TO.N,GND*%
X8026400Y34264600D03*
%TD*%
D13*
%TO.P,C5,1*%
%TO.N,/INP*%
X-1500000Y22200000D03*
%TO.P,C5,2*%
%TO.N,Net-(C5-Pad2)*%
X-540000Y22200000D03*
%TD*%
D11*
%TO.P,R22,1*%
%TO.N,Net-(C16-Pad2)*%
X-3440000Y36620000D03*
%TO.P,R22,2*%
%TO.N,/RR*%
X-4460000Y36620000D03*
%TD*%
D10*
%TO.P,R12,1*%
%TO.N,/RS*%
X-9600000Y31690000D03*
%TO.P,R12,2*%
%TO.N,/RSP*%
X-8580000Y31690000D03*
%TD*%
D21*
%TO.P,U1,1*%
%TO.N,/INP*%
X-1430000Y23860000D03*
%TO.P,U1,2,-*%
%TO.N,Net-(C5-Pad2)*%
X-930000Y23860000D03*
%TO.P,U1,3,+*%
%TO.N,Net-(R3-Pad1)*%
X-430000Y23860000D03*
%TO.P,U1,4,V-*%
%TO.N,/UM*%
X70000Y23860000D03*
%TO.P,U1,5,+*%
%TO.N,Net-(R16-Pad1)*%
X70000Y25760000D03*
%TO.P,U1,6,-*%
%TO.N,Net-(C13-Pad2)*%
X-430000Y25760000D03*
%TO.P,U1,7*%
%TO.N,/ITP*%
X-930000Y25760000D03*
%TO.P,U1,8,V+*%
%TO.N,+3V3*%
X-1430000Y25760000D03*
D22*
%TO.P,U1,9,PAD*%
%TO.N,/UM*%
X-180000Y24810000D03*
D23*
X-680000Y24810000D03*
D22*
X-1180000Y24810000D03*
%TD*%
D19*
%TO.P,R3,1*%
%TO.N,Net-(R3-Pad1)*%
X650000Y22680000D03*
%TO.P,R3,2*%
%TO.N,GND*%
X650000Y21660000D03*
%TD*%
D11*
%TO.P,R19,1*%
%TO.N,Net-(C10-Pad1)*%
X-10730000Y27900000D03*
%TO.P,R19,2*%
%TO.N,GND*%
X-11750000Y27900000D03*
%TD*%
%TO.P,R2,1*%
%TO.N,GND*%
X8993600Y38963600D03*
%TO.P,R2,2*%
%TO.N,/PM1*%
X7973600Y38963600D03*
%TD*%
D10*
%TO.P,R13,1*%
%TO.N,Net-(C10-Pad1)*%
X-9600000Y28930000D03*
%TO.P,R13,2*%
%TO.N,/RSM*%
X-8580000Y28930000D03*
%TD*%
D27*
%TO.P,C25,1*%
%TO.N,/C+*%
X-1105000Y18670000D03*
%TO.P,C25,2*%
%TO.N,/C-*%
X-4055000Y18670000D03*
%TD*%
D12*
%TO.P,C8,1*%
%TO.N,Net-(C8-Pad1)*%
X-10730000Y24000000D03*
%TO.P,C8,2*%
%TO.N,GND*%
X-11690000Y24000000D03*
%TD*%
D28*
%TO.P,J15,1,Pin_1*%
%TO.N,/RRP*%
X-6750200Y36692980D03*
D29*
%TO.P,J15,2,Pin_2*%
%TO.N,/RRM*%
X-6750200Y34152980D03*
%TO.P,J15,3,Pin_3*%
%TO.N,/RSP*%
X-6750200Y31612980D03*
%TO.P,J15,4,Pin_4*%
%TO.N,/RSM*%
X-6750200Y29072980D03*
%TO.P,J15,5,Pin_5*%
%TO.N,/RTP*%
X-6750200Y26532980D03*
%TO.P,J15,6,Pin_6*%
%TO.N,/RTM*%
X-6750200Y23992980D03*
%TO.P,J15,7,Pin_7*%
%TO.N,/RNP*%
X-6750200Y21452980D03*
%TO.P,J15,8,Pin_8*%
%TO.N,/RNM*%
X-6750200Y18912980D03*
%TD*%
D30*
%TO.P,J2,A1*%
%TO.N,+3V3*%
X27000000Y23000000D03*
%TO.P,J2,A2*%
X26000000Y23000000D03*
%TO.P,J2,A3*%
%TO.N,/READY*%
X25000000Y23000000D03*
%TO.P,J2,A4*%
X24000000Y23000000D03*
%TO.P,J2,A5*%
%TO.N,/IRQ2*%
X23000000Y23000000D03*
%TO.P,J2,A6*%
X22000000Y23000000D03*
%TO.P,J2,A7*%
%TO.N,/IRQ1*%
X21000000Y23000000D03*
%TO.P,J2,A8*%
X20000000Y23000000D03*
%TO.P,J2,A9*%
%TO.N,/SCLK*%
X19000000Y23000000D03*
%TO.P,J2,A10*%
X18000000Y23000000D03*
%TO.P,J2,A11*%
%TO.N,GND*%
X17000000Y23000000D03*
%TO.P,J2,A12*%
X14000000Y23000000D03*
%TO.P,J2,A13*%
%TO.N,/UR-*%
X13000000Y23000000D03*
%TO.P,J2,A14*%
%TO.N,/UR+*%
X12000000Y23000000D03*
%TO.P,J2,A15*%
%TO.N,/US-*%
X11000000Y23000000D03*
%TO.P,J2,A16*%
%TO.N,/US+*%
X10000000Y23000000D03*
%TO.P,J2,A17*%
%TO.N,/UT-*%
X9000000Y23000000D03*
%TO.P,J2,A18*%
%TO.N,/UT+*%
X8000000Y23000000D03*
%TD*%
D31*
%TO.N,GND*%
X12877800Y28778200D03*
X-16100000Y27403599D03*
X3048000Y37363400D03*
X-18640000Y32483599D03*
X12065000Y27940000D03*
X24540000Y32483599D03*
X-2540000Y39344600D03*
X-18640000Y24863599D03*
X17246600Y26085800D03*
X-18640000Y27403599D03*
X19460000Y37563599D03*
X4430000Y37400000D03*
X3200400Y19862800D03*
X-14440000Y37200000D03*
X13843000Y27762200D03*
X-14100000Y23060000D03*
X4428453Y33111500D03*
X17018000Y27711400D03*
X-13450000Y18140000D03*
X16920000Y37563599D03*
X-18640000Y29943599D03*
X390000Y17940000D03*
X9457677Y29825500D03*
X16459200Y32664400D03*
X5540000Y38930000D03*
X-13560000Y27403599D03*
X-16100000Y32483599D03*
X13868400Y25908000D03*
X-18640000Y37563599D03*
X-18640000Y22323599D03*
X-16100000Y24863599D03*
X-18640000Y19783599D03*
X1001000Y26060000D03*
X-13560000Y24863599D03*
X-16100000Y22323599D03*
X24540000Y37563599D03*
X670000Y28320000D03*
X-16100000Y29943599D03*
X-5230000Y25880000D03*
X660000Y31690000D03*
X-13560000Y40103599D03*
X-18640000Y35023599D03*
X-16100000Y19783599D03*
X1850000Y39045500D03*
X-11020000Y40103599D03*
X-13560000Y19783599D03*
X-16100000Y35023599D03*
X-16100000Y37563599D03*
X20497800Y32283400D03*
X-14520000Y29090000D03*
%TO.N,+3V3*%
X1955800Y16967200D03*
X26797000Y27305000D03*
X25298400Y26339800D03*
X11050000Y37425000D03*
X15443200Y35737800D03*
X24587200Y34823400D03*
X11277600Y28854400D03*
X-2190000Y25740000D03*
X12166600Y29514800D03*
X-1975500Y37553372D03*
%TO.N,/AVDDOUT*%
X7863900Y30124400D03*
%TO.N,/DVDDOUT*%
X9753600Y38150800D03*
%TO.N,/REF*%
X4013200Y33985200D03*
%TO.N,/ISP*%
X1040000Y35730000D03*
X-2150000Y34820000D03*
%TO.N,/INP*%
X2550000Y23540000D03*
X-2510000Y23480000D03*
%TO.N,/UR+*%
X11970000Y26540000D03*
X3524020Y28620000D03*
%TO.N,/US+*%
X10000000Y25800000D03*
X9143911Y27833911D03*
X5100000Y29720000D03*
%TO.N,/UT+*%
X8050000Y25740000D03*
%TO.N,/ADE_Reset*%
X21717000Y33197800D03*
%TO.N,/O_IN*%
X10375000Y29850000D03*
%TO.N,/SCLK*%
X13250000Y33950000D03*
X13225000Y31200000D03*
%TO.N,/MISO*%
X13214638Y35157566D03*
%TO.N,/MOSI*%
X15409211Y34609211D03*
%TO.N,/SS*%
X14459548Y36442005D03*
%TO.N,/RN*%
X-5934500Y22738843D03*
X-4520000Y22670000D03*
%TO.N,Net-(C5-Pad2)*%
X-3410000Y23230000D03*
X230000Y20824500D03*
%TO.N,Net-(C6-Pad2)*%
X260000Y33020000D03*
X-2650000Y33470000D03*
%TO.N,Net-(C13-Pad2)*%
X-700000Y29710000D03*
X-3390000Y29150000D03*
%TO.N,Net-(C16-Pad2)*%
X309163Y38610563D03*
X-2600000Y36690000D03*
%TO.N,/UM*%
X1610000Y23910000D03*
X1625500Y35047145D03*
X2277484Y22357547D03*
%TO.N,/C+*%
X-70000Y18890000D03*
%TO.N,/UR-*%
X4230000Y29490000D03*
X13040000Y26640000D03*
%TO.N,/US-*%
X11000000Y25870000D03*
X6182300Y29546200D03*
X8393411Y29123411D03*
%TO.N,/UT-*%
X9020000Y25950000D03*
%TO.N,/C-*%
X-4765656Y20033911D03*
%TD*%
D32*
%TO.N,GND*%
X390000Y17940000D02*
X2275000Y17940000D01*
X5130800Y33020000D02*
X4419600Y33020000D01*
X1380000Y28320000D02*
X670000Y28320000D01*
X-11690000Y24000000D02*
X-11690000Y23010000D01*
X9271000Y33020000D02*
X8026400Y34264600D01*
X-11750000Y33160000D02*
X-11750000Y34160000D01*
X4419600Y33102647D02*
X4428453Y33111500D01*
X-13440000Y18150000D02*
X-13450000Y18140000D01*
X-11730000Y27880000D02*
X-11750000Y27900000D01*
X8788400Y37160200D02*
X8788400Y35026600D01*
X6781800Y37986704D02*
X6781800Y37160200D01*
X940000Y18490000D02*
X390000Y17940000D01*
X1690000Y39190000D02*
X1850000Y39190000D01*
X5130800Y33020000D02*
X6781800Y33020000D01*
X6273800Y36017200D02*
X8026400Y34264600D01*
X8280400Y34010600D02*
X8026400Y34264600D01*
X-11740000Y31700000D02*
X-11740000Y33150000D01*
X8788400Y35026600D02*
X8026400Y34264600D01*
X9457677Y29842323D02*
X9271000Y30029000D01*
X-11740000Y34170000D02*
X-11740000Y37080000D01*
X-14000000Y22960000D02*
X-14100000Y23060000D01*
X-11690000Y23010000D02*
X-11740000Y22960000D01*
X1280000Y33220000D02*
X1280000Y32310000D01*
X9779000Y36017200D02*
X8026400Y34264600D01*
X2275000Y17940000D02*
X2410000Y18075000D01*
X-11740000Y19210000D02*
X-11750000Y19200000D01*
X5840000Y38930000D02*
X5540000Y38930000D01*
X1590000Y27050000D02*
X1590000Y28110000D01*
X6118504Y38651496D02*
X5840000Y38930000D01*
X14000000Y23000000D02*
X14000000Y25776400D01*
X17000000Y23000000D02*
X17000000Y25839200D01*
X1590000Y27050000D02*
X1590000Y26580000D01*
X-11740000Y22960000D02*
X-14000000Y22960000D01*
X940000Y21000000D02*
X940000Y18490000D01*
X4419600Y33020000D02*
X4419600Y33102647D01*
X9271000Y31369000D02*
X9271000Y33020000D01*
X8788400Y37160200D02*
X8788400Y38758400D01*
X-4745000Y26365000D02*
X-5230000Y25880000D01*
X9271000Y30029000D02*
X9271000Y31369000D01*
X5130800Y33502600D02*
X7264400Y33502600D01*
X650000Y21660000D02*
X650000Y21287693D01*
X9779000Y37160200D02*
X9779000Y36017200D01*
X8788400Y38758400D02*
X8993600Y38963600D01*
X6118504Y38650000D02*
X6118504Y38651496D01*
X4669800Y37160200D02*
X4430000Y37400000D01*
X17000000Y25839200D02*
X17246600Y26085800D01*
X-11690000Y24000000D02*
X-11690000Y26440000D01*
X-11750000Y27900000D02*
X-11750000Y28930000D01*
X5130800Y34518600D02*
X7772400Y34518600D01*
X-4030000Y26365000D02*
X-4745000Y26365000D01*
X-11740000Y37080000D02*
X-14320000Y37080000D01*
X1850000Y39190000D02*
X1850000Y39045500D01*
X-11690000Y26440000D02*
X-11730000Y26480000D01*
X1590000Y28110000D02*
X1380000Y28320000D01*
X-11750000Y19200000D02*
X-11750000Y18160000D01*
X8280400Y31369000D02*
X8280400Y34010600D01*
X14000000Y25776400D02*
X13868400Y25908000D01*
X-11740000Y21410000D02*
X-11740000Y19210000D01*
X5765800Y37160200D02*
X4669800Y37160200D01*
X1590000Y26580000D02*
X1070000Y26060000D01*
X-11730000Y26480000D02*
X-11730000Y27880000D01*
X937693Y21000000D02*
X940000Y21000000D01*
X-11750000Y28930000D02*
X-11740000Y28940000D01*
X7264400Y35026600D02*
X8026400Y34264600D01*
X6781800Y33020000D02*
X8026400Y34264600D01*
X-11750000Y34160000D02*
X-11740000Y34170000D01*
X-11740000Y33150000D02*
X-11750000Y33160000D01*
X-11740000Y22960000D02*
X-11740000Y21410000D01*
X650000Y21287693D02*
X937693Y21000000D01*
X6118504Y38650000D02*
X6781800Y37986704D01*
X-11750000Y18160000D02*
X-11740000Y18150000D01*
X1070000Y26060000D02*
X1001000Y26060000D01*
X7772400Y34518600D02*
X8026400Y34264600D01*
X5130800Y35026600D02*
X7264400Y35026600D01*
X-14370000Y28940000D02*
X-14520000Y29090000D01*
X9457677Y29825500D02*
X9457677Y29842323D01*
X-11740000Y28940000D02*
X-11740000Y31700000D01*
X1280000Y32310000D02*
X660000Y31690000D01*
X1250000Y38750000D02*
X1690000Y39190000D01*
X-11740000Y28940000D02*
X-14370000Y28940000D01*
X-14320000Y37080000D02*
X-14440000Y37200000D01*
X5130800Y36017200D02*
X6273800Y36017200D01*
X-11740000Y18150000D02*
X-13440000Y18150000D01*
%TO.N,+3V3*%
X10287000Y37541200D02*
X10515600Y37769800D01*
X26797000Y26568400D02*
X26797000Y27305000D01*
X-1430000Y25760000D02*
X-2170000Y25760000D01*
X26000000Y23000000D02*
X26000000Y25771400D01*
X10365600Y28854400D02*
X10030000Y29190000D01*
X11277600Y28854400D02*
X10365600Y28854400D01*
X10845800Y37769800D02*
X11050000Y37565600D01*
X23674800Y34899600D02*
X24511000Y34899600D01*
X10287000Y37160200D02*
X10287000Y37541200D01*
X26000000Y25771400D02*
X26797000Y26568400D01*
X10030000Y29190000D02*
X9210000Y29190000D01*
X17092400Y34368000D02*
X15824200Y35636200D01*
X11140800Y37515800D02*
X11050000Y37425000D01*
X26797000Y27305000D02*
X27000000Y27102000D01*
X-3115000Y24815000D02*
X-2190000Y25740000D01*
X9210000Y29190000D02*
X8788400Y29611600D01*
X8788400Y29611600D02*
X8788400Y31369000D01*
X10515600Y37769800D02*
X10845800Y37769800D01*
X26000000Y23000000D02*
X27000000Y23000000D01*
X27000000Y27102000D02*
X27000000Y23550000D01*
X-4030000Y24815000D02*
X-3115000Y24815000D01*
X17092400Y34340800D02*
X17092400Y34368000D01*
X-1975500Y37553372D02*
X-1933372Y37553372D01*
X15722600Y35737800D02*
X15443200Y35737800D01*
X-2170000Y25760000D02*
X-2190000Y25740000D01*
X-1933372Y37553372D02*
X-1430000Y37050000D01*
X24511000Y34899600D02*
X24587200Y34823400D01*
X15824200Y35636200D02*
X15722600Y35737800D01*
X11050000Y37565600D02*
X11050000Y37425000D01*
%TO.N,/AVDDOUT*%
X7772400Y31369000D02*
X7772400Y30175200D01*
X7772400Y30175200D02*
X7823200Y30124400D01*
X7823200Y30124400D02*
X7863900Y30124400D01*
%TO.N,/DVDDOUT*%
X9398000Y38150800D02*
X9753600Y38150800D01*
X9271000Y38023800D02*
X9271000Y37160200D01*
X9271000Y38023800D02*
X9398000Y38150800D01*
%TO.N,/REF*%
X4038600Y34010600D02*
X4013200Y33985200D01*
X5130800Y34010600D02*
X4038600Y34010600D01*
%TO.N,/IRP*%
X6290000Y39670000D02*
X290000Y39670000D01*
X-930000Y37560000D02*
X-1510000Y38140000D01*
X6451400Y38811400D02*
X6451400Y39508600D01*
X-1030000Y39270000D02*
X-1510000Y38790000D01*
X290000Y39670000D02*
X-110000Y39270000D01*
X6451400Y39508600D02*
X6290000Y39670000D01*
X-1510000Y38790000D02*
X-1510000Y38280000D01*
X-930000Y37050000D02*
X-930000Y37560000D01*
X-1540000Y38310000D02*
X-1510000Y38280000D01*
X7264400Y37998400D02*
X6451400Y38811400D01*
X7264400Y37160200D02*
X7264400Y37998400D01*
X-1510000Y38140000D02*
X-1510000Y38280000D01*
X-2440000Y38310000D02*
X-1540000Y38310000D01*
X-110000Y39270000D02*
X-1030000Y39270000D01*
%TO.N,/ISP*%
X2032000Y36680076D02*
X2032000Y37744400D01*
X-1500000Y32750000D02*
X-1500000Y33810000D01*
X2032000Y37744400D02*
X2437600Y38150000D01*
X1100000Y35748076D02*
X2032000Y36680076D01*
X1040000Y35730000D02*
X1058076Y35748076D01*
X-1510000Y35070000D02*
X-1430000Y35150000D01*
X-1510000Y33820000D02*
X-1510000Y34600000D01*
X1058076Y35748076D02*
X1100000Y35748076D01*
X-1730000Y34820000D02*
X-1510000Y34600000D01*
X6124208Y38150000D02*
X6273800Y38000408D01*
X-1500000Y33810000D02*
X-1510000Y33820000D01*
X-2150000Y34820000D02*
X-1730000Y34820000D01*
X2437600Y38150000D02*
X6124208Y38150000D01*
X6273800Y38000408D02*
X6273800Y37160200D01*
X-1510000Y34600000D02*
X-1510000Y35070000D01*
%TO.N,/ITP*%
X-930000Y26320000D02*
X-1530000Y26920000D01*
X-1510000Y28700000D02*
X-1500000Y28710000D01*
X5130800Y36525200D02*
X2975200Y36525200D01*
X2250000Y32290000D02*
X1950000Y31990000D01*
X445489Y30334511D02*
X-1115489Y30334511D01*
X610000Y30170000D02*
X445489Y30334511D01*
X-1510000Y27390000D02*
X-1510000Y28700000D01*
X-1115489Y30334511D02*
X-1500000Y29950000D01*
X1950000Y30730000D02*
X1390000Y30170000D01*
X-1530000Y27370000D02*
X-1510000Y27390000D01*
X2250000Y35800000D02*
X2250000Y32290000D01*
X-1530000Y26920000D02*
X-1530000Y27370000D01*
X-930000Y25760000D02*
X-930000Y26320000D01*
X1950000Y31990000D02*
X1950000Y30730000D01*
X-1500000Y29950000D02*
X-1500000Y28710000D01*
X1390000Y30170000D02*
X610000Y30170000D01*
X2975200Y36525200D02*
X2250000Y35800000D01*
%TO.N,/INP*%
X2950000Y32300000D02*
X2550000Y31900000D01*
X2550000Y31900000D02*
X2550000Y23540000D01*
X-1430000Y23160000D02*
X-2190000Y23160000D01*
X-1430000Y23860000D02*
X-1430000Y23160000D01*
X5130800Y35509200D02*
X3509200Y35509200D01*
X-1500000Y22200000D02*
X-1500000Y21100000D01*
X-2190000Y23160000D02*
X-2510000Y23480000D01*
X2950000Y34950000D02*
X2950000Y32300000D01*
X3509200Y35509200D02*
X2950000Y34950000D01*
X-1430000Y22270000D02*
X-1500000Y22200000D01*
X-1430000Y23160000D02*
X-1430000Y22270000D01*
X-1500000Y21100000D02*
X-1510000Y21090000D01*
D33*
%TO.N,/UR+*%
X3225800Y28918220D02*
X3524020Y28620000D01*
X12000000Y26510000D02*
X11970000Y26540000D01*
X4368800Y32512000D02*
X3276600Y31419800D01*
X5130800Y32512000D02*
X4368800Y32512000D01*
X3225800Y31419800D02*
X3225800Y28918220D01*
X12000000Y23000000D02*
X12000000Y26510000D01*
X3276600Y31419800D02*
X3225800Y31419800D01*
%TO.N,/US+*%
X5765800Y30225800D02*
X5270000Y29730000D01*
X5270000Y29720000D02*
X5100000Y29720000D01*
X5765800Y31369000D02*
X5765800Y30225800D01*
X5270000Y29730000D02*
X5270000Y29720000D01*
X9143911Y27833911D02*
X10000000Y26977822D01*
X10000000Y26977822D02*
X10000000Y23000000D01*
D32*
%TO.N,/PM1*%
X8280400Y38656800D02*
X7973600Y38963600D01*
X8280400Y37160200D02*
X8280400Y38656800D01*
%TO.N,/RSP*%
X-6827220Y31690000D02*
X-6750200Y31612980D01*
X-8580000Y31690000D02*
X-6827220Y31690000D01*
%TO.N,/RSM*%
X-8580000Y28930000D02*
X-6893180Y28930000D01*
X-6893180Y28930000D02*
X-6750200Y29072980D01*
%TO.N,/RTP*%
X-6783180Y26500000D02*
X-6750200Y26532980D01*
X-8580000Y26500000D02*
X-6783180Y26500000D01*
%TO.N,/RTM*%
X-6763180Y23980000D02*
X-6750200Y23992980D01*
X-8580000Y23980000D02*
X-6763180Y23980000D01*
%TO.N,/RRP*%
X-7127220Y37070000D02*
X-6750200Y36692980D01*
X-8580000Y37070000D02*
X-7127220Y37070000D01*
%TO.N,/RRM*%
X-8580000Y34160000D02*
X-6757220Y34160000D01*
X-6757220Y34160000D02*
X-6750200Y34152980D01*
%TO.N,/RNP*%
X-8580000Y21400000D02*
X-6803180Y21400000D01*
X-6803180Y21400000D02*
X-6750200Y21452980D01*
%TO.N,/RNM*%
X-7037220Y19200000D02*
X-6750200Y18912980D01*
X-8580000Y19200000D02*
X-7037220Y19200000D01*
D33*
%TO.N,/UT+*%
X8000000Y27590000D02*
X6781800Y28808200D01*
X8000000Y23000000D02*
X8000000Y27590000D01*
X6781800Y28808200D02*
X6781800Y31369000D01*
D32*
%TO.N,/ADE_Reset*%
X21717000Y36093400D02*
X21717000Y35001200D01*
X22684800Y33782000D02*
X21717000Y33782000D01*
X21158189Y39649411D02*
X21717000Y39090600D01*
X6985000Y38862000D02*
X6985000Y39243000D01*
X7772400Y37160200D02*
X7772400Y38074600D01*
X21717000Y39090600D02*
X21717000Y36093400D01*
X6985000Y39243000D02*
X6993000Y39243000D01*
X21717000Y33782000D02*
X21717000Y33197800D01*
X6993000Y39243000D02*
X7399411Y39649411D01*
X22654800Y34899600D02*
X21818600Y34899600D01*
X21818600Y34899600D02*
X21717000Y35001200D01*
X7772400Y38074600D02*
X6985000Y38862000D01*
X21717000Y35001200D02*
X21717000Y33782000D01*
X7399411Y39649411D02*
X21158189Y39649411D01*
%TO.N,/O_IN*%
X9779000Y31369000D02*
X9779000Y30446000D01*
X9779000Y30446000D02*
X10375000Y29850000D01*
%TO.N,/IRQ2*%
X15607200Y30570000D02*
X18248800Y30570000D01*
X14830000Y31330000D02*
X14847200Y31330000D01*
X18248800Y30570000D02*
X19304000Y29514800D01*
X22000000Y26260000D02*
X22000000Y23000000D01*
X10922000Y32512000D02*
X13648000Y32512000D01*
X23000000Y23000000D02*
X22000000Y23000000D01*
X13648000Y32512000D02*
X14830000Y31330000D01*
X19304000Y29514800D02*
X19304000Y27025600D01*
X19608800Y26720800D02*
X21539200Y26720800D01*
X21539200Y26720800D02*
X22000000Y26260000D01*
X19304000Y27025600D02*
X19608800Y26720800D01*
X14847200Y31330000D02*
X15607200Y30570000D01*
%TO.N,/IRQ1*%
X18658000Y29072000D02*
X18658000Y26452400D01*
X18658000Y26452400D02*
X18999200Y26111200D01*
X14270000Y31210000D02*
X14299600Y31210000D01*
X18999200Y26111200D02*
X19558000Y26111200D01*
X13476000Y32004000D02*
X14270000Y31210000D01*
X17660000Y30070000D02*
X18658000Y29072000D01*
X14299600Y31210000D02*
X15439600Y30070000D01*
X10922000Y32004000D02*
X13476000Y32004000D01*
X20000000Y25669200D02*
X20000000Y23000000D01*
X15439600Y30070000D02*
X17660000Y30070000D01*
X19558000Y26111200D02*
X20000000Y25669200D01*
X21000000Y23000000D02*
X20000000Y23000000D01*
%TO.N,/SCLK*%
X19000000Y23000000D02*
X18000000Y23000000D01*
X13225000Y31200000D02*
X13225000Y29701000D01*
X13225000Y29701000D02*
X13741400Y29184600D01*
X13250000Y34171800D02*
X12395200Y35026600D01*
X13741400Y29184600D02*
X17246600Y29184600D01*
X17246600Y29184600D02*
X18000000Y28431200D01*
X13250000Y33950000D02*
X13250000Y34171800D01*
X10922000Y35026600D02*
X12395200Y35026600D01*
X18000000Y28431200D02*
X18000000Y23000000D01*
%TO.N,/MISO*%
X13208000Y35102800D02*
X13214638Y35109438D01*
X12801600Y35509200D02*
X13208000Y35102800D01*
X13214638Y35109438D02*
X13214638Y35157566D01*
X10922000Y35509200D02*
X12801600Y35509200D01*
%TO.N,/MOSI*%
X13614400Y36017200D02*
X10922000Y36017200D01*
X15022389Y34609211D02*
X13614400Y36017200D01*
X15409211Y34609211D02*
X15022389Y34609211D01*
%TO.N,/SS*%
X10922000Y36525200D02*
X14224000Y36525200D01*
X14224000Y36525200D02*
X14376400Y36372800D01*
X14376400Y36372800D02*
X14445605Y36442005D01*
X14445605Y36442005D02*
X14459548Y36442005D01*
%TO.N,/READY*%
X19100800Y31140400D02*
X16052800Y31140400D01*
X24000000Y26647600D02*
X23317200Y27330400D01*
X12625000Y33025000D02*
X12375000Y33275000D01*
X20116800Y27330400D02*
X19913600Y27533600D01*
X25000000Y23000000D02*
X24000000Y23000000D01*
X14168200Y33025000D02*
X12625000Y33025000D01*
X24000000Y23000000D02*
X24000000Y26647600D01*
X19913600Y27533600D02*
X19913600Y30327600D01*
X11731400Y34518600D02*
X10922000Y34518600D01*
X12375000Y33875000D02*
X11731400Y34518600D01*
X19913600Y30327600D02*
X19100800Y31140400D01*
X12375000Y33275000D02*
X12375000Y33875000D01*
X23317200Y27330400D02*
X20116800Y27330400D01*
X16052800Y31140400D02*
X14168200Y33025000D01*
%TO.N,/RN*%
X-8891157Y22738843D02*
X-9600000Y22030000D01*
X-9610000Y21410000D02*
X-9600000Y21400000D01*
X-4450000Y21180000D02*
X-4450000Y22600000D01*
X-9600000Y22030000D02*
X-9600000Y21400000D01*
X-4450000Y22600000D02*
X-4520000Y22670000D01*
X-10780000Y21410000D02*
X-9610000Y21410000D01*
X-5934500Y22738843D02*
X-8891157Y22738843D01*
%TO.N,/RT*%
X-9540000Y26560000D02*
X-9600000Y26500000D01*
X-9540000Y27230000D02*
X-9540000Y26560000D01*
X-4420000Y27870000D02*
X-8900000Y27870000D01*
X-8900000Y27870000D02*
X-9540000Y27230000D01*
X-10750000Y26500000D02*
X-10770000Y26480000D01*
X-9600000Y26500000D02*
X-10750000Y26500000D01*
X-4410000Y27880000D02*
X-4420000Y27870000D01*
%TO.N,Net-(C4-Pad1)*%
X-10780000Y18150000D02*
X-10780000Y19150000D01*
X-9600000Y19200000D02*
X-10730000Y19200000D01*
X-10780000Y19150000D02*
X-10730000Y19200000D01*
%TO.N,Net-(C5-Pad2)*%
X-3430000Y21900000D02*
X-3430000Y21180000D01*
X-490000Y22150000D02*
X-540000Y22200000D01*
X-3410000Y21920000D02*
X-3430000Y21900000D01*
X-490000Y21090000D02*
X-130000Y20730000D01*
X-930000Y23860000D02*
X-930000Y22920000D01*
X-490000Y21090000D02*
X-490000Y22150000D01*
X230000Y20730000D02*
X230000Y20824500D01*
X-3410000Y23230000D02*
X-3410000Y21920000D01*
X-540000Y22530000D02*
X-540000Y22200000D01*
X-130000Y20730000D02*
X230000Y20730000D01*
X-930000Y22920000D02*
X-540000Y22530000D01*
%TO.N,Net-(C6-Pad2)*%
X-540000Y32750000D02*
X-540000Y33770000D01*
X-540000Y33770000D02*
X-490000Y33820000D01*
X-490000Y34220000D02*
X-940000Y34670000D01*
X-490000Y33820000D02*
X-490000Y34220000D01*
X-3440000Y33440000D02*
X-2680000Y33440000D01*
X-940000Y35140000D02*
X-930000Y35150000D01*
X-540000Y32750000D02*
X-270000Y33020000D01*
X-940000Y34670000D02*
X-940000Y35140000D01*
X-2680000Y33440000D02*
X-2650000Y33470000D01*
X-270000Y33020000D02*
X260000Y33020000D01*
%TO.N,Net-(C8-Pad1)*%
X-10690000Y24040000D02*
X-10730000Y24000000D01*
X-10730000Y24000000D02*
X-10730000Y22970000D01*
X-9600000Y23980000D02*
X-9660000Y24040000D01*
X-9660000Y24040000D02*
X-10690000Y24040000D01*
X-10730000Y22970000D02*
X-10720000Y22960000D01*
%TO.N,Net-(C10-Pad1)*%
X-9600000Y28930000D02*
X-10770000Y28930000D01*
X-10770000Y28930000D02*
X-10780000Y28940000D01*
X-10780000Y27950000D02*
X-10730000Y27900000D01*
X-10780000Y28940000D02*
X-10780000Y27950000D01*
%TO.N,Net-(C12-Pad1)*%
X-9600000Y34160000D02*
X-10770000Y34160000D01*
X-10770000Y34160000D02*
X-10780000Y34170000D01*
X-10780000Y34170000D02*
X-10780000Y33210000D01*
X-10780000Y33210000D02*
X-10730000Y33160000D01*
%TO.N,Net-(C13-Pad2)*%
X-540000Y29550000D02*
X-700000Y29710000D01*
X-430000Y27330000D02*
X-490000Y27390000D01*
X-490000Y28660000D02*
X-540000Y28710000D01*
X-3390000Y29150000D02*
X-3390000Y27880000D01*
X-540000Y28710000D02*
X-540000Y29550000D01*
X-490000Y27390000D02*
X-490000Y28660000D01*
X-430000Y25760000D02*
X-430000Y27330000D01*
%TO.N,Net-(C16-Pad2)*%
X-2870000Y37220000D02*
X-3180000Y37530000D01*
X-430000Y38220000D02*
X-490000Y38280000D01*
X309163Y38679163D02*
X309163Y38610563D01*
X-3440000Y36620000D02*
X-2670000Y36620000D01*
X200000Y38790000D02*
X310000Y38680000D01*
X-3180000Y37530000D02*
X-3200000Y37530000D01*
X-2600000Y36690000D02*
X-2870000Y36960000D01*
X-2870000Y36960000D02*
X-2870000Y37220000D01*
X310000Y38680000D02*
X309163Y38679163D01*
X-3200000Y37530000D02*
X-3400000Y37730000D01*
X-3400000Y37730000D02*
X-3400000Y38310000D01*
X-2670000Y36620000D02*
X-2600000Y36690000D01*
X-430000Y37050000D02*
X-430000Y38220000D01*
X-490000Y38790000D02*
X200000Y38790000D01*
X-490000Y38280000D02*
X-490000Y38790000D01*
%TO.N,/RS*%
X-5370000Y30370000D02*
X-9020000Y30370000D01*
X-10770000Y31690000D02*
X-10780000Y31700000D01*
X-9600000Y30950000D02*
X-9600000Y31690000D01*
X-9600000Y31690000D02*
X-10770000Y31690000D01*
X-4460000Y33440000D02*
X-4460000Y31280000D01*
X-9020000Y30370000D02*
X-9600000Y30950000D01*
X-4460000Y31280000D02*
X-5370000Y30370000D01*
%TO.N,/RR*%
X-4460000Y36620000D02*
X-4460000Y36300000D01*
X-9610000Y37080000D02*
X-9600000Y37070000D01*
X-4460000Y36300000D02*
X-5360000Y35400000D01*
X-10780000Y37080000D02*
X-9610000Y37080000D01*
X-9200000Y35400000D02*
X-9600000Y35800000D01*
X-9600000Y35800000D02*
X-9600000Y37070000D01*
X-5360000Y35400000D02*
X-9200000Y35400000D01*
%TO.N,Net-(R3-Pad1)*%
X-430000Y23860000D02*
X-430000Y23220000D01*
X-80000Y22870000D02*
X460000Y22870000D01*
X460000Y22870000D02*
X650000Y22680000D01*
X-430000Y23220000D02*
X-80000Y22870000D01*
%TO.N,Net-(R8-Pad1)*%
X190000Y34240000D02*
X1280000Y34240000D01*
X-430000Y34860000D02*
X190000Y34240000D01*
X-430000Y35150000D02*
X-430000Y34860000D01*
%TO.N,Net-(R16-Pad1)*%
X70000Y26550000D02*
X570000Y27050000D01*
X70000Y25760000D02*
X70000Y26550000D01*
%TO.N,Net-(R20-Pad1)*%
X1250000Y37420000D02*
X1250000Y37730000D01*
X70000Y37050000D02*
X880000Y37050000D01*
X880000Y37050000D02*
X1250000Y37420000D01*
%TO.N,/UM*%
X158200Y24810000D02*
X177800Y24790400D01*
X2152453Y22357547D02*
X1610000Y22900000D01*
X2410000Y22225031D02*
X2410000Y21025000D01*
X-180000Y24810000D02*
X158200Y24810000D01*
X1647145Y35047145D02*
X1625500Y35047145D01*
X177800Y23967800D02*
X70000Y23860000D01*
X70000Y35150000D02*
X114511Y35105489D01*
X1610000Y22900000D02*
X1610000Y23910000D01*
X-57400Y36100000D02*
X152400Y35890200D01*
X1705489Y35105489D02*
X1647145Y35047145D01*
X152400Y35232400D02*
X70000Y35150000D01*
X70000Y23860000D02*
X1560000Y23860000D01*
X177800Y24790400D02*
X177800Y23967800D01*
X2277484Y22357547D02*
X2410000Y22225031D01*
X152400Y35890200D02*
X152400Y35232400D01*
X114511Y35105489D02*
X1705489Y35105489D01*
X2277484Y22357547D02*
X2152453Y22357547D01*
X1560000Y23860000D02*
X1610000Y23910000D01*
X-180000Y36100000D02*
X-57400Y36100000D01*
D33*
%TO.N,/C+*%
X-70000Y18890000D02*
X-885000Y18890000D01*
X-885000Y18890000D02*
X-1105000Y18670000D01*
%TO.N,/UR-*%
X4530000Y30250000D02*
X4230000Y29950000D01*
X4530000Y31830000D02*
X4530000Y30250000D01*
X5130800Y32004000D02*
X4704000Y32004000D01*
X13000000Y26600000D02*
X13040000Y26640000D01*
X13000000Y23000000D02*
X13000000Y26600000D01*
X4704000Y32004000D02*
X4530000Y31830000D01*
X4230000Y29950000D02*
X4230000Y29490000D01*
%TO.N,/US-*%
X6273800Y31369000D02*
X6273800Y29546200D01*
X8393411Y29123411D02*
X8393411Y29060011D01*
X8393411Y29060011D02*
X8791711Y28661711D01*
X8791711Y28661711D02*
X9518289Y28661711D01*
X11000000Y27180000D02*
X11000000Y23000000D01*
X9518289Y28661711D02*
X11000000Y27180000D01*
%TO.N,/UT-*%
X9000000Y26610000D02*
X9000000Y26990000D01*
X9020000Y25950000D02*
X9000000Y25970000D01*
X7264400Y28865600D02*
X9000000Y27130000D01*
X9000000Y25930000D02*
X9020000Y25950000D01*
X7264400Y31369000D02*
X7264400Y28865600D01*
X9000000Y27130000D02*
X9000000Y26610000D01*
X9000000Y25970000D02*
X9000000Y26610000D01*
X9000000Y23000000D02*
X9000000Y25930000D01*
%TO.N,/C-*%
X-4765656Y20033911D02*
X-4765656Y19380656D01*
X-4765656Y19380656D02*
X-4055000Y18670000D01*
%TD*%
%TA.AperFunction,Conductor*%
%TO.N,GND*%
G36*
X-9259161Y42182212D02*
G01*
X-9212025Y42129120D01*
X-9200000Y42075401D01*
X-9200000Y40005877D01*
X-9200045Y39954551D01*
X-9193902Y39941758D01*
X-9192773Y39936790D01*
X-9190215Y39929465D01*
X-9188006Y39924875D01*
X-9184850Y39911038D01*
X-9176006Y39899939D01*
X-9173636Y39895015D01*
X-9170084Y39889353D01*
X-9166688Y39885084D01*
X-9160547Y39872295D01*
X-9149464Y39863432D01*
X-9146293Y39859446D01*
X-9140809Y39853952D01*
X-9136827Y39850773D01*
X-9127985Y39839677D01*
X-9115207Y39833514D01*
X-9110936Y39830104D01*
X-9105286Y39826546D01*
X-9100366Y39824168D01*
X-9089285Y39815306D01*
X-9075457Y39812126D01*
X-9070876Y39809912D01*
X-9063551Y39807339D01*
X-9058580Y39806201D01*
X-9045798Y39800035D01*
X-9022787Y39800015D01*
X-9022789Y39798003D01*
X-9022723Y39797988D01*
X-9022723Y39800000D01*
X-9005877Y39800000D01*
X-8954551Y39799955D01*
X-8954555Y39795150D01*
X-8954457Y39795144D01*
X-8954457Y39800000D01*
X-1239310Y39800000D01*
X-1171189Y39779998D01*
X-1124696Y39726342D01*
X-1114592Y39656068D01*
X-1144086Y39591488D01*
X-1170881Y39571262D01*
X-1169685Y39569553D01*
X-1200544Y39547945D01*
X-1209815Y39542039D01*
X-1232906Y39528707D01*
X-1242455Y39523194D01*
X-1249541Y39514749D01*
X-1266685Y39494318D01*
X-1274111Y39486215D01*
X-1726215Y39034111D01*
X-1734319Y39026684D01*
X-1763194Y39002455D01*
X-1768707Y38992906D01*
X-1782039Y38969815D01*
X-1787945Y38960544D01*
X-1809554Y38929684D01*
X-1812408Y38919034D01*
X-1813885Y38915866D01*
X-1815077Y38912590D01*
X-1820588Y38903045D01*
X-1826538Y38869301D01*
X-1827130Y38865942D01*
X-1829508Y38855215D01*
X-1839264Y38818807D01*
X-1838303Y38807820D01*
X-1839263Y38796844D01*
X-1842571Y38797133D01*
X-1852942Y38745561D01*
X-1902347Y38694574D01*
X-1971475Y38678392D01*
X-2038378Y38702152D01*
X-2053562Y38715102D01*
X-2101684Y38763224D01*
X-2115882Y38769845D01*
X-2201776Y38809898D01*
X-2201777Y38809898D01*
X-2210513Y38813972D01*
X-2260099Y38820500D01*
X-2439934Y38820500D01*
X-2619900Y38820499D01*
X-2669487Y38813972D01*
X-2678221Y38809899D01*
X-2678222Y38809899D01*
X-2768323Y38767884D01*
X-2778316Y38763224D01*
X-2830905Y38710635D01*
X-2893217Y38676609D01*
X-2964032Y38681674D01*
X-3009095Y38710635D01*
X-3061684Y38763224D01*
X-3075882Y38769845D01*
X-3161776Y38809898D01*
X-3161777Y38809898D01*
X-3170513Y38813972D01*
X-3220099Y38820500D01*
X-3399934Y38820500D01*
X-3579900Y38820499D01*
X-3629487Y38813972D01*
X-3638221Y38809899D01*
X-3638222Y38809899D01*
X-3728323Y38767884D01*
X-3738316Y38763224D01*
X-3823224Y38678316D01*
X-3827883Y38668324D01*
X-3827884Y38668323D01*
X-3869498Y38579082D01*
X-3873972Y38569487D01*
X-3880500Y38519901D01*
X-3880499Y38100100D01*
X-3873972Y38050513D01*
X-3869899Y38041779D01*
X-3869899Y38041778D01*
X-3828359Y37952696D01*
X-3823224Y37941684D01*
X-3762405Y37880865D01*
X-3728379Y37818553D01*
X-3725500Y37791770D01*
X-3725500Y37749710D01*
X-3725980Y37738728D01*
X-3729264Y37701193D01*
X-3720484Y37668428D01*
X-3719509Y37664790D01*
X-3717130Y37654058D01*
X-3710588Y37616955D01*
X-3705077Y37607410D01*
X-3703885Y37604134D01*
X-3702408Y37600966D01*
X-3699554Y37590316D01*
X-3678190Y37559806D01*
X-3677945Y37559456D01*
X-3672039Y37550185D01*
X-3663162Y37534810D01*
X-3653194Y37517545D01*
X-3644749Y37510459D01*
X-3624318Y37493315D01*
X-3616215Y37485889D01*
X-3485921Y37355595D01*
X-3451895Y37293283D01*
X-3456960Y37222468D01*
X-3499507Y37165632D01*
X-3566027Y37140821D01*
X-3575016Y37140500D01*
X-3614316Y37140500D01*
X-3663173Y37134068D01*
X-3671909Y37129994D01*
X-3671910Y37129994D01*
X-3688712Y37122159D01*
X-3770404Y37084065D01*
X-3854065Y37000404D01*
X-3854753Y37001092D01*
X-3902247Y36963131D01*
X-3972867Y36955823D01*
X-4036226Y36987856D01*
X-4044579Y36997496D01*
X-4045935Y37000404D01*
X-4129596Y37084065D01*
X-4211288Y37122159D01*
X-4228090Y37129994D01*
X-4228091Y37129994D01*
X-4236827Y37134068D01*
X-4285684Y37140500D01*
X-4634316Y37140500D01*
X-4683173Y37134068D01*
X-4691909Y37129994D01*
X-4691910Y37129994D01*
X-4708712Y37122159D01*
X-4790404Y37084065D01*
X-4874065Y37000404D01*
X-4878725Y36990412D01*
X-4878725Y36990411D01*
X-4898988Y36946956D01*
X-4924068Y36893173D01*
X-4930500Y36844316D01*
X-4930500Y36395684D01*
X-4929377Y36387159D01*
X-4926295Y36363746D01*
X-4937234Y36293597D01*
X-4962122Y36258204D01*
X-5457921Y35762405D01*
X-5520233Y35728379D01*
X-5547016Y35725500D01*
X-5573700Y35725500D01*
X-5641821Y35745502D01*
X-5688314Y35799158D01*
X-5699700Y35851500D01*
X-5699700Y37562728D01*
X-5703115Y37579898D01*
X-5708912Y37609041D01*
X-5708912Y37609042D01*
X-5711333Y37621211D01*
X-5755648Y37687532D01*
X-5821969Y37731847D01*
X-5834138Y37734268D01*
X-5834139Y37734268D01*
X-5874384Y37742273D01*
X-5880452Y37743480D01*
X-7619948Y37743480D01*
X-7626016Y37742273D01*
X-7666261Y37734268D01*
X-7666262Y37734268D01*
X-7678431Y37731847D01*
X-7744752Y37687532D01*
X-7789067Y37621211D01*
X-7791488Y37609042D01*
X-7791488Y37609041D01*
X-7797285Y37579898D01*
X-7800700Y37562728D01*
X-7800700Y37521500D01*
X-7820702Y37453379D01*
X-7874358Y37406886D01*
X-7926700Y37395500D01*
X-8064236Y37395500D01*
X-8132357Y37415502D01*
X-8163712Y37445636D01*
X-8165935Y37450404D01*
X-8249596Y37534065D01*
X-8260584Y37539189D01*
X-8348090Y37579994D01*
X-8348091Y37579994D01*
X-8356827Y37584068D01*
X-8405684Y37590500D01*
X-8754316Y37590500D01*
X-8803173Y37584068D01*
X-8811909Y37579994D01*
X-8811910Y37579994D01*
X-8899416Y37539189D01*
X-8910404Y37534065D01*
X-8994065Y37450404D01*
X-8994753Y37451092D01*
X-9042247Y37413131D01*
X-9112867Y37405823D01*
X-9176226Y37437856D01*
X-9184579Y37447496D01*
X-9185935Y37450404D01*
X-9269596Y37534065D01*
X-9280584Y37539189D01*
X-9368090Y37579994D01*
X-9368091Y37579994D01*
X-9376827Y37584068D01*
X-9425684Y37590500D01*
X-9774316Y37590500D01*
X-9823173Y37584068D01*
X-9831909Y37579994D01*
X-9831910Y37579994D01*
X-9919416Y37539189D01*
X-9930404Y37534065D01*
X-10014065Y37450404D01*
X-10015186Y37451525D01*
X-10061005Y37414901D01*
X-10108761Y37405500D01*
X-10263542Y37405500D01*
X-10331663Y37425502D01*
X-10356102Y37448990D01*
X-10356776Y37448316D01*
X-10441684Y37533224D01*
X-10467190Y37545118D01*
X-10541776Y37579898D01*
X-10541777Y37579898D01*
X-10550513Y37583972D01*
X-10600099Y37590500D01*
X-10779934Y37590500D01*
X-10959900Y37590499D01*
X-11009487Y37583972D01*
X-11018221Y37579899D01*
X-11018222Y37579899D01*
X-11101411Y37541107D01*
X-11118316Y37533224D01*
X-11203224Y37448316D01*
X-11207883Y37438324D01*
X-11207884Y37438323D01*
X-11218806Y37414901D01*
X-11253972Y37339487D01*
X-11260500Y37289901D01*
X-11260499Y36870100D01*
X-11253972Y36820513D01*
X-11249899Y36811779D01*
X-11249899Y36811778D01*
X-11208776Y36723590D01*
X-11203224Y36711684D01*
X-11118316Y36626776D01*
X-11108324Y36622117D01*
X-11108323Y36622116D01*
X-11063629Y36601275D01*
X-11009487Y36576028D01*
X-10959901Y36569500D01*
X-10780066Y36569500D01*
X-10600100Y36569501D01*
X-10550513Y36576028D01*
X-10540819Y36580548D01*
X-10451677Y36622116D01*
X-10451676Y36622117D01*
X-10441684Y36626776D01*
X-10356776Y36711684D01*
X-10355144Y36710052D01*
X-10311297Y36745100D01*
X-10263542Y36754500D01*
X-10122766Y36754500D01*
X-10054645Y36734498D01*
X-10019554Y36700773D01*
X-10018724Y36699588D01*
X-10014065Y36689596D01*
X-9962405Y36637936D01*
X-9928379Y36575624D01*
X-9925500Y36548841D01*
X-9925500Y35819710D01*
X-9925980Y35808728D01*
X-9927507Y35791271D01*
X-9929264Y35771193D01*
X-9920860Y35739831D01*
X-9919509Y35734790D01*
X-9917130Y35724058D01*
X-9910588Y35686955D01*
X-9905077Y35677410D01*
X-9903885Y35674134D01*
X-9902408Y35670966D01*
X-9899554Y35660316D01*
X-9882836Y35636441D01*
X-9877945Y35629456D01*
X-9872039Y35620185D01*
X-9867881Y35612984D01*
X-9853194Y35587545D01*
X-9844749Y35580459D01*
X-9824325Y35563321D01*
X-9816220Y35555894D01*
X-9444099Y35183772D01*
X-9436679Y35175675D01*
X-9412455Y35146806D01*
X-9389836Y35133747D01*
X-9379816Y35127962D01*
X-9370548Y35122058D01*
X-9339684Y35100447D01*
X-9329038Y35097594D01*
X-9325870Y35096117D01*
X-9322593Y35094924D01*
X-9313045Y35089412D01*
X-9283492Y35084201D01*
X-9275931Y35082868D01*
X-9265197Y35080488D01*
X-9228807Y35070737D01*
X-9217831Y35071697D01*
X-9217828Y35071697D01*
X-9191269Y35074021D01*
X-9180288Y35074500D01*
X-7618549Y35074500D01*
X-7550428Y35054498D01*
X-7503935Y35000842D01*
X-7493831Y34930568D01*
X-7522027Y34867511D01*
X-7621176Y34749350D01*
X-7624144Y34743952D01*
X-7624147Y34743947D01*
X-7717457Y34574216D01*
X-7717459Y34574211D01*
X-7720424Y34568818D01*
X-7722286Y34562947D01*
X-7722751Y34561863D01*
X-7767971Y34507131D01*
X-7838562Y34485500D01*
X-8064236Y34485500D01*
X-8132357Y34505502D01*
X-8163712Y34535636D01*
X-8165935Y34540404D01*
X-8249596Y34624065D01*
X-8259589Y34628725D01*
X-8348090Y34669994D01*
X-8348091Y34669994D01*
X-8356827Y34674068D01*
X-8405684Y34680500D01*
X-8754316Y34680500D01*
X-8803173Y34674068D01*
X-8811909Y34669994D01*
X-8811910Y34669994D01*
X-8900411Y34628725D01*
X-8910404Y34624065D01*
X-8994065Y34540404D01*
X-8994753Y34541092D01*
X-9042247Y34503131D01*
X-9112867Y34495823D01*
X-9176226Y34527856D01*
X-9184579Y34537496D01*
X-9185935Y34540404D01*
X-9269596Y34624065D01*
X-9279589Y34628725D01*
X-9368090Y34669994D01*
X-9368091Y34669994D01*
X-9376827Y34674068D01*
X-9425684Y34680500D01*
X-9774316Y34680500D01*
X-9823173Y34674068D01*
X-9831909Y34669994D01*
X-9831910Y34669994D01*
X-9920411Y34628725D01*
X-9930404Y34624065D01*
X-10014065Y34540404D01*
X-10015839Y34536600D01*
X-10068012Y34494899D01*
X-10115764Y34485500D01*
X-10256540Y34485500D01*
X-10324661Y34505502D01*
X-10355130Y34534786D01*
X-10356776Y34538316D01*
X-10441684Y34623224D01*
X-10511133Y34655609D01*
X-10541776Y34669898D01*
X-10541777Y34669898D01*
X-10550513Y34673972D01*
X-10600099Y34680500D01*
X-10779934Y34680500D01*
X-10959900Y34680499D01*
X-11009487Y34673972D01*
X-11018221Y34669899D01*
X-11018222Y34669899D01*
X-11052178Y34654065D01*
X-11118316Y34623224D01*
X-11203224Y34538316D01*
X-11207883Y34528324D01*
X-11207884Y34528323D01*
X-11247516Y34443332D01*
X-11253972Y34429487D01*
X-11260500Y34379901D01*
X-11260499Y33960100D01*
X-11253972Y33910513D01*
X-11249899Y33901779D01*
X-11249899Y33901778D01*
X-11212274Y33821092D01*
X-11203224Y33801684D01*
X-11142405Y33740865D01*
X-11108379Y33678553D01*
X-11105500Y33651770D01*
X-11105500Y33631159D01*
X-11125502Y33563038D01*
X-11130100Y33557332D01*
X-11129948Y33557226D01*
X-11136267Y33548202D01*
X-11144065Y33540404D01*
X-11148725Y33530412D01*
X-11148725Y33530411D01*
X-11178904Y33465691D01*
X-11194068Y33433173D01*
X-11200500Y33384316D01*
X-11200500Y32935684D01*
X-11199962Y32931598D01*
X-11199962Y32931597D01*
X-11199742Y32929928D01*
X-11194068Y32886827D01*
X-11189994Y32878091D01*
X-11189994Y32878090D01*
X-11158348Y32810226D01*
X-11144065Y32779596D01*
X-11060404Y32695935D01*
X-11050412Y32691275D01*
X-11050411Y32691275D01*
X-10962808Y32650425D01*
X-10953173Y32645932D01*
X-10904316Y32639500D01*
X-10555684Y32639500D01*
X-10506827Y32645932D01*
X-10497191Y32650425D01*
X-10409589Y32691275D01*
X-10409588Y32691275D01*
X-10399596Y32695935D01*
X-10315935Y32779596D01*
X-10301652Y32810226D01*
X-10270006Y32878090D01*
X-10270006Y32878091D01*
X-10265932Y32886827D01*
X-10260258Y32929928D01*
X-10260038Y32931597D01*
X-10260038Y32931598D01*
X-10259500Y32935684D01*
X-10259500Y33384316D01*
X-10265932Y33433173D01*
X-10281095Y33465691D01*
X-10311275Y33530411D01*
X-10311275Y33530412D01*
X-10315935Y33540404D01*
X-10377901Y33602370D01*
X-10411927Y33664682D01*
X-10406862Y33735497D01*
X-10377903Y33780557D01*
X-10360861Y33797599D01*
X-10298550Y33831621D01*
X-10271770Y33834500D01*
X-10115764Y33834500D01*
X-10047643Y33814498D01*
X-10016288Y33784364D01*
X-10014065Y33779596D01*
X-9930404Y33695935D01*
X-9920412Y33691275D01*
X-9920411Y33691275D01*
X-9848409Y33657700D01*
X-9823173Y33645932D01*
X-9774316Y33639500D01*
X-9425684Y33639500D01*
X-9376827Y33645932D01*
X-9351590Y33657700D01*
X-9279589Y33691275D01*
X-9279588Y33691275D01*
X-9269596Y33695935D01*
X-9185935Y33779596D01*
X-9185247Y33778908D01*
X-9137753Y33816869D01*
X-9067133Y33824177D01*
X-9003774Y33792144D01*
X-8995421Y33782504D01*
X-8994065Y33779596D01*
X-8910404Y33695935D01*
X-8900412Y33691275D01*
X-8900411Y33691275D01*
X-8828409Y33657700D01*
X-8803173Y33645932D01*
X-8754316Y33639500D01*
X-8405684Y33639500D01*
X-8356827Y33645932D01*
X-8331590Y33657700D01*
X-8259589Y33691275D01*
X-8259588Y33691275D01*
X-8249596Y33695935D01*
X-8165935Y33779596D01*
X-8164161Y33783400D01*
X-8111988Y33825101D01*
X-8064236Y33834500D01*
X-7844396Y33834500D01*
X-7776275Y33814498D01*
X-7734054Y33763162D01*
X-7731656Y33764394D01*
X-7641503Y33588975D01*
X-7637488Y33581162D01*
X-7509523Y33419710D01*
X-7504830Y33415716D01*
X-7504829Y33415715D01*
X-7397517Y33324386D01*
X-7352636Y33286189D01*
X-7347258Y33283183D01*
X-7347256Y33283182D01*
X-7275861Y33243281D01*
X-7172802Y33185683D01*
X-7115791Y33167159D01*
X-6982729Y33123924D01*
X-6982725Y33123923D01*
X-6976871Y33122021D01*
X-6772306Y33097629D01*
X-6766171Y33098101D01*
X-6766169Y33098101D01*
X-6710161Y33102411D01*
X-6566900Y33113434D01*
X-6560970Y33115090D01*
X-6560968Y33115090D01*
X-6433660Y33150635D01*
X-6368475Y33168835D01*
X-6362986Y33171608D01*
X-6362980Y33171610D01*
X-6209144Y33249319D01*
X-6184590Y33261722D01*
X-6172074Y33271500D01*
X-6045357Y33370502D01*
X-6022249Y33388556D01*
X-6013166Y33399078D01*
X-5891660Y33539846D01*
X-5891660Y33539847D01*
X-5887636Y33544508D01*
X-5883439Y33551895D01*
X-5841523Y33625682D01*
X-5785877Y33723636D01*
X-5720849Y33919117D01*
X-5695029Y34123506D01*
X-5694794Y34140323D01*
X-5694666Y34149458D01*
X-5694666Y34149462D01*
X-5694617Y34152980D01*
X-5714720Y34358010D01*
X-5774265Y34555231D01*
X-5870982Y34737131D01*
X-5971713Y34860639D01*
X-5978421Y34868864D01*
X-6005975Y34934296D01*
X-5993780Y35004237D01*
X-5945707Y35056482D01*
X-5880778Y35074500D01*
X-5379710Y35074500D01*
X-5368728Y35074020D01*
X-5342180Y35071697D01*
X-5342178Y35071697D01*
X-5331193Y35070736D01*
X-5294785Y35080492D01*
X-5284058Y35082870D01*
X-5280699Y35083462D01*
X-5246955Y35089412D01*
X-5237410Y35094923D01*
X-5234134Y35096115D01*
X-5230966Y35097592D01*
X-5220316Y35100446D01*
X-5189453Y35122057D01*
X-5180185Y35127961D01*
X-5157094Y35141293D01*
X-5147545Y35146806D01*
X-5123321Y35175675D01*
X-5115894Y35183780D01*
X-4243772Y36055901D01*
X-4235668Y36063327D01*
X-4206806Y36087545D01*
X-4201293Y36097093D01*
X-4201079Y36097463D01*
X-4200660Y36097847D01*
X-4194208Y36105536D01*
X-4193196Y36104687D01*
X-4145217Y36148650D01*
X-4139591Y36151274D01*
X-4139590Y36151275D01*
X-4129596Y36155935D01*
X-4045935Y36239596D01*
X-4045247Y36238908D01*
X-3997753Y36276869D01*
X-3927133Y36284177D01*
X-3863774Y36252144D01*
X-3855421Y36242504D01*
X-3854065Y36239596D01*
X-3770404Y36155935D01*
X-3760412Y36151275D01*
X-3760411Y36151275D01*
X-3682726Y36115050D01*
X-3663173Y36105932D01*
X-3614316Y36099500D01*
X-3265684Y36099500D01*
X-3216827Y36105932D01*
X-3197273Y36115050D01*
X-3119589Y36151275D01*
X-3119588Y36151275D01*
X-3109596Y36155935D01*
X-3092572Y36172959D01*
X-3030260Y36206985D01*
X-2959445Y36201920D01*
X-2926775Y36183828D01*
X-2909396Y36170493D01*
X-2909392Y36170491D01*
X-2902841Y36165464D01*
X-2756762Y36104956D01*
X-2748574Y36103878D01*
X-2699847Y36097463D01*
X-2600000Y36084318D01*
X-2591812Y36085396D01*
X-2575488Y36087545D01*
X-2500153Y36097463D01*
X-2451426Y36103878D01*
X-2443238Y36104956D01*
X-2297159Y36165464D01*
X-2171718Y36261718D01*
X-2075464Y36387159D01*
X-2014956Y36533238D01*
X-1994318Y36690000D01*
X-1995396Y36698188D01*
X-1995396Y36706446D01*
X-1992222Y36706446D01*
X-1987119Y36739116D01*
X-2002396Y36762887D01*
X-2006422Y36781938D01*
X-2006744Y36784385D01*
X-2010899Y36815944D01*
X-1999960Y36886091D01*
X-1952832Y36939189D01*
X-1902416Y36957312D01*
X-1897934Y36957902D01*
X-1827787Y36946956D01*
X-1774693Y36899823D01*
X-1755500Y36832978D01*
X-1755500Y36798385D01*
X-1763790Y36770152D01*
X-1754369Y36759009D01*
X-1746932Y36735495D01*
X-1746288Y36733940D01*
X-1743867Y36721769D01*
X-1736973Y36711452D01*
X-1736972Y36711449D01*
X-1700108Y36656279D01*
X-1678892Y36588526D01*
X-1679431Y36575123D01*
X-1680500Y36569748D01*
X-1680500Y36148741D01*
X-1682000Y36129357D01*
X-1685609Y36106177D01*
X-1684445Y36097275D01*
X-1684445Y36097272D01*
X-1681564Y36075244D01*
X-1680500Y36058907D01*
X-1680500Y35630252D01*
X-1679572Y35625586D01*
X-1692707Y35556322D01*
X-1700108Y35543721D01*
X-1736972Y35488551D01*
X-1736973Y35488548D01*
X-1743867Y35478231D01*
X-1746288Y35466060D01*
X-1746346Y35465769D01*
X-1746647Y35465193D01*
X-1751037Y35454595D01*
X-1751985Y35454988D01*
X-1779252Y35402859D01*
X-1840946Y35367726D01*
X-1918143Y35373939D01*
X-1985608Y35401884D01*
X-1985611Y35401885D01*
X-1993238Y35405044D01*
X-2150000Y35425682D01*
X-2306762Y35405044D01*
X-2452841Y35344536D01*
X-2520679Y35292482D01*
X-2566619Y35257231D01*
X-2578282Y35248282D01*
X-2583305Y35241736D01*
X-2605152Y35213264D01*
X-2674536Y35122841D01*
X-2735044Y34976762D01*
X-2736122Y34968574D01*
X-2737669Y34956821D01*
X-2755682Y34820000D01*
X-2754604Y34811812D01*
X-2737245Y34679960D01*
X-2735044Y34663238D01*
X-2674536Y34517159D01*
X-2578282Y34391718D01*
X-2571736Y34386695D01*
X-2568581Y34384274D01*
X-2452841Y34295464D01*
X-2446745Y34292939D01*
X-2398280Y34242114D01*
X-2387199Y34184633D01*
X-2330943Y34224695D01*
X-2273283Y34230548D01*
X-2158188Y34215396D01*
X-2150000Y34214318D01*
X-2117536Y34218592D01*
X-2047388Y34207653D01*
X-1994289Y34160525D01*
X-1975099Y34092171D01*
X-1976168Y34077225D01*
X-1979745Y34050054D01*
X-1980500Y34044316D01*
X-1980500Y33955105D01*
X-2000502Y33886984D01*
X-2054158Y33840491D01*
X-2124432Y33830387D01*
X-2189012Y33859881D01*
X-2206463Y33878402D01*
X-2216692Y33891733D01*
X-2216695Y33891736D01*
X-2221718Y33898282D01*
X-2229254Y33904065D01*
X-2262288Y33929412D01*
X-2347159Y33994536D01*
X-2353255Y33997061D01*
X-2401720Y34047886D01*
X-2412801Y34105367D01*
X-2469057Y34065305D01*
X-2526717Y34059452D01*
X-2641812Y34074604D01*
X-2650000Y34075682D01*
X-2806762Y34055044D01*
X-2952841Y33994536D01*
X-2959392Y33989509D01*
X-2959396Y33989507D01*
X-3024773Y33939342D01*
X-3090993Y33913742D01*
X-3154726Y33925110D01*
X-3208089Y33949994D01*
X-3208093Y33949995D01*
X-3216827Y33954068D01*
X-3265684Y33960500D01*
X-3614316Y33960500D01*
X-3663173Y33954068D01*
X-3671909Y33949994D01*
X-3671910Y33949994D01*
X-3760411Y33908725D01*
X-3770404Y33904065D01*
X-3854065Y33820404D01*
X-3854753Y33821092D01*
X-3902247Y33783131D01*
X-3972867Y33775823D01*
X-4036226Y33807856D01*
X-4044579Y33817496D01*
X-4045935Y33820404D01*
X-4129596Y33904065D01*
X-4139589Y33908725D01*
X-4228090Y33949994D01*
X-4228091Y33949994D01*
X-4236827Y33954068D01*
X-4285684Y33960500D01*
X-4634316Y33960500D01*
X-4683173Y33954068D01*
X-4691909Y33949994D01*
X-4691910Y33949994D01*
X-4780411Y33908725D01*
X-4790404Y33904065D01*
X-4874065Y33820404D01*
X-4878725Y33810412D01*
X-4878725Y33810411D01*
X-4919037Y33723961D01*
X-4924068Y33713173D01*
X-4930500Y33664316D01*
X-4930500Y33215684D01*
X-4924068Y33166827D01*
X-4919994Y33158091D01*
X-4919994Y33158090D01*
X-4899170Y33113434D01*
X-4874065Y33059596D01*
X-4822405Y33007936D01*
X-4788379Y32945624D01*
X-4785500Y32918841D01*
X-4785500Y31467018D01*
X-4805502Y31398897D01*
X-4822404Y31377923D01*
X-5467921Y30732405D01*
X-5530234Y30698380D01*
X-5557017Y30695500D01*
X-5879155Y30695500D01*
X-5947276Y30715502D01*
X-5993769Y30769158D01*
X-6003873Y30839432D01*
X-5974537Y30903830D01*
X-5891664Y30999840D01*
X-5891658Y30999848D01*
X-5887636Y31004508D01*
X-5866813Y31041162D01*
X-5849144Y31072266D01*
X-5785877Y31183636D01*
X-5720849Y31379117D01*
X-5695029Y31583506D01*
X-5694810Y31599174D01*
X-5694666Y31609458D01*
X-5694666Y31609462D01*
X-5694617Y31612980D01*
X-5714720Y31818010D01*
X-5774265Y32015231D01*
X-5870982Y32197131D01*
X-5982435Y32333786D01*
X-5997294Y32352005D01*
X-5997297Y32352008D01*
X-6001189Y32356780D01*
X-6018414Y32371030D01*
X-6155175Y32484169D01*
X-6155179Y32484171D01*
X-6159925Y32488098D01*
X-6341145Y32586083D01*
X-6537946Y32647003D01*
X-6544071Y32647647D01*
X-6544072Y32647647D01*
X-6736702Y32667893D01*
X-6736704Y32667893D01*
X-6742831Y32668537D01*
X-6829671Y32660634D01*
X-6941858Y32650425D01*
X-6941861Y32650424D01*
X-6947997Y32649866D01*
X-7145628Y32591700D01*
X-7328198Y32496254D01*
X-7332999Y32492394D01*
X-7333002Y32492392D01*
X-7480394Y32373886D01*
X-7488753Y32367165D01*
X-7621176Y32209350D01*
X-7691847Y32080799D01*
X-7742192Y32030741D01*
X-7802262Y32015500D01*
X-8064236Y32015500D01*
X-8132357Y32035502D01*
X-8163712Y32065636D01*
X-8165935Y32070404D01*
X-8249596Y32154065D01*
X-8263490Y32160544D01*
X-8348090Y32199994D01*
X-8348091Y32199994D01*
X-8356827Y32204068D01*
X-8397887Y32209474D01*
X-8401597Y32209962D01*
X-8401598Y32209962D01*
X-8405684Y32210500D01*
X-8754316Y32210500D01*
X-8758402Y32209962D01*
X-8758403Y32209962D01*
X-8762113Y32209474D01*
X-8803173Y32204068D01*
X-8811909Y32199994D01*
X-8811910Y32199994D01*
X-8896510Y32160544D01*
X-8910404Y32154065D01*
X-8994065Y32070404D01*
X-8994753Y32071092D01*
X-9042247Y32033131D01*
X-9112867Y32025823D01*
X-9176226Y32057856D01*
X-9184579Y32067496D01*
X-9185935Y32070404D01*
X-9269596Y32154065D01*
X-9283490Y32160544D01*
X-9368090Y32199994D01*
X-9368091Y32199994D01*
X-9376827Y32204068D01*
X-9417887Y32209474D01*
X-9421597Y32209962D01*
X-9421598Y32209962D01*
X-9425684Y32210500D01*
X-9774316Y32210500D01*
X-9778402Y32209962D01*
X-9778403Y32209962D01*
X-9782113Y32209474D01*
X-9823173Y32204068D01*
X-9831909Y32199994D01*
X-9831910Y32199994D01*
X-9916510Y32160544D01*
X-9930404Y32154065D01*
X-10014065Y32070404D01*
X-10015839Y32066600D01*
X-10068012Y32024899D01*
X-10115764Y32015500D01*
X-10256540Y32015500D01*
X-10324661Y32035502D01*
X-10355130Y32064786D01*
X-10356776Y32068316D01*
X-10441684Y32153224D01*
X-10456892Y32160316D01*
X-10541776Y32199898D01*
X-10541777Y32199898D01*
X-10550513Y32203972D01*
X-10592119Y32209449D01*
X-10596012Y32209962D01*
X-10596013Y32209962D01*
X-10600099Y32210500D01*
X-10779934Y32210500D01*
X-10959900Y32210499D01*
X-11009487Y32203972D01*
X-11018221Y32199899D01*
X-11018222Y32199899D01*
X-11106519Y32158725D01*
X-11118316Y32153224D01*
X-11203224Y32068316D01*
X-11207883Y32058324D01*
X-11207884Y32058323D01*
X-11249898Y31968224D01*
X-11253972Y31959487D01*
X-11260500Y31909901D01*
X-11260499Y31490100D01*
X-11253972Y31440513D01*
X-11249899Y31431779D01*
X-11249899Y31431778D01*
X-11218476Y31364391D01*
X-11203224Y31331684D01*
X-11118316Y31246776D01*
X-11108324Y31242117D01*
X-11108323Y31242116D01*
X-11018224Y31200102D01*
X-11009487Y31196028D01*
X-10959901Y31189500D01*
X-10780066Y31189500D01*
X-10600100Y31189501D01*
X-10550513Y31196028D01*
X-10533262Y31204072D01*
X-10451677Y31242116D01*
X-10451676Y31242117D01*
X-10441684Y31246776D01*
X-10360865Y31327595D01*
X-10298553Y31361621D01*
X-10271770Y31364500D01*
X-10115764Y31364500D01*
X-10047643Y31344498D01*
X-10016288Y31314364D01*
X-10014065Y31309596D01*
X-9962405Y31257936D01*
X-9928379Y31195624D01*
X-9925500Y31168841D01*
X-9925500Y30969710D01*
X-9925980Y30958728D01*
X-9928037Y30935213D01*
X-9929264Y30921193D01*
X-9921068Y30890608D01*
X-9919509Y30884790D01*
X-9917130Y30874058D01*
X-9910588Y30836955D01*
X-9905077Y30827410D01*
X-9903885Y30824134D01*
X-9902408Y30820966D01*
X-9899554Y30810316D01*
X-9885166Y30789768D01*
X-9877945Y30779456D01*
X-9872039Y30770185D01*
X-9867371Y30762100D01*
X-9853194Y30737545D01*
X-9844749Y30730459D01*
X-9824318Y30713315D01*
X-9816215Y30705889D01*
X-9264111Y30153785D01*
X-9256684Y30145681D01*
X-9232455Y30116806D01*
X-9222906Y30111293D01*
X-9199815Y30097961D01*
X-9190544Y30092055D01*
X-9159684Y30070446D01*
X-9149034Y30067592D01*
X-9145866Y30066115D01*
X-9142590Y30064923D01*
X-9133045Y30059412D01*
X-9102849Y30054088D01*
X-9095942Y30052870D01*
X-9085215Y30050492D01*
X-9048807Y30040736D01*
X-9037831Y30041696D01*
X-9037828Y30041696D01*
X-9011257Y30044021D01*
X-9000276Y30044500D01*
X-7574712Y30044500D01*
X-7506591Y30024498D01*
X-7460098Y29970842D01*
X-7449994Y29900568D01*
X-7479488Y29835988D01*
X-7484789Y29830352D01*
X-7488753Y29827165D01*
X-7621176Y29669350D01*
X-7624144Y29663952D01*
X-7624147Y29663947D01*
X-7706140Y29514800D01*
X-7720424Y29488818D01*
X-7764329Y29350409D01*
X-7766552Y29343402D01*
X-7806215Y29284518D01*
X-7871417Y29256425D01*
X-7886654Y29255500D01*
X-8064236Y29255500D01*
X-8132357Y29275502D01*
X-8163712Y29305636D01*
X-8165935Y29310404D01*
X-8249596Y29394065D01*
X-8260475Y29399138D01*
X-8348090Y29439994D01*
X-8348091Y29439994D01*
X-8356827Y29444068D01*
X-8405684Y29450500D01*
X-8754316Y29450500D01*
X-8803173Y29444068D01*
X-8811909Y29439994D01*
X-8811910Y29439994D01*
X-8899525Y29399138D01*
X-8910404Y29394065D01*
X-8994065Y29310404D01*
X-8994753Y29311092D01*
X-9042247Y29273131D01*
X-9112867Y29265823D01*
X-9176226Y29297856D01*
X-9184579Y29307496D01*
X-9185935Y29310404D01*
X-9269596Y29394065D01*
X-9280475Y29399138D01*
X-9368090Y29439994D01*
X-9368091Y29439994D01*
X-9376827Y29444068D01*
X-9425684Y29450500D01*
X-9774316Y29450500D01*
X-9823173Y29444068D01*
X-9831909Y29439994D01*
X-9831910Y29439994D01*
X-9919525Y29399138D01*
X-9930404Y29394065D01*
X-10014065Y29310404D01*
X-10015839Y29306600D01*
X-10068012Y29264899D01*
X-10115764Y29255500D01*
X-10256540Y29255500D01*
X-10324661Y29275502D01*
X-10355130Y29304786D01*
X-10356776Y29308316D01*
X-10441684Y29393224D01*
X-10454366Y29399138D01*
X-10541776Y29439898D01*
X-10541777Y29439898D01*
X-10550513Y29443972D01*
X-10600099Y29450500D01*
X-10779934Y29450500D01*
X-10959900Y29450499D01*
X-11009487Y29443972D01*
X-11018221Y29439899D01*
X-11018222Y29439899D01*
X-11106519Y29398725D01*
X-11118316Y29393224D01*
X-11203224Y29308316D01*
X-11207883Y29298324D01*
X-11207884Y29298323D01*
X-11249070Y29210000D01*
X-11253972Y29199487D01*
X-11260500Y29149901D01*
X-11260499Y28730100D01*
X-11253972Y28680513D01*
X-11249899Y28671779D01*
X-11249899Y28671778D01*
X-11214476Y28595814D01*
X-11203224Y28571684D01*
X-11142405Y28510865D01*
X-11108379Y28448553D01*
X-11105500Y28421770D01*
X-11105500Y28371159D01*
X-11125502Y28303038D01*
X-11130100Y28297332D01*
X-11129948Y28297226D01*
X-11136267Y28288202D01*
X-11144065Y28280404D01*
X-11148725Y28270412D01*
X-11148725Y28270411D01*
X-11187114Y28188085D01*
X-11194068Y28173173D01*
X-11200500Y28124316D01*
X-11200500Y27675684D01*
X-11194068Y27626827D01*
X-11189994Y27618091D01*
X-11189994Y27618090D01*
X-11148725Y27529589D01*
X-11144065Y27519596D01*
X-11060404Y27435935D01*
X-11050412Y27431275D01*
X-11050411Y27431275D01*
X-10984508Y27400544D01*
X-10953173Y27385932D01*
X-10912113Y27380526D01*
X-10910005Y27380249D01*
X-10904316Y27379500D01*
X-10555684Y27379500D01*
X-10549994Y27380249D01*
X-10547887Y27380526D01*
X-10506827Y27385932D01*
X-10475491Y27400544D01*
X-10409589Y27431275D01*
X-10409588Y27431275D01*
X-10399596Y27435935D01*
X-10315935Y27519596D01*
X-10311275Y27529589D01*
X-10270006Y27618090D01*
X-10270006Y27618091D01*
X-10265932Y27626827D01*
X-10259500Y27675684D01*
X-10259500Y28124316D01*
X-10265932Y28173173D01*
X-10272885Y28188085D01*
X-10311275Y28270411D01*
X-10311275Y28270412D01*
X-10315935Y28280404D01*
X-10392901Y28357370D01*
X-10426927Y28419682D01*
X-10421862Y28490497D01*
X-10392904Y28535556D01*
X-10360862Y28567598D01*
X-10298551Y28601621D01*
X-10271770Y28604500D01*
X-10115764Y28604500D01*
X-10047643Y28584498D01*
X-10016288Y28554364D01*
X-10014065Y28549596D01*
X-9930404Y28465935D01*
X-9920412Y28461275D01*
X-9920411Y28461275D01*
X-9841328Y28424398D01*
X-9823173Y28415932D01*
X-9774316Y28409500D01*
X-9425684Y28409500D01*
X-9376827Y28415932D01*
X-9358671Y28424398D01*
X-9279589Y28461275D01*
X-9279588Y28461275D01*
X-9269596Y28465935D01*
X-9185935Y28549596D01*
X-9185247Y28548908D01*
X-9137753Y28586869D01*
X-9067133Y28594177D01*
X-9003774Y28562144D01*
X-8995421Y28552504D01*
X-8994065Y28549596D01*
X-8910404Y28465935D01*
X-8900412Y28461275D01*
X-8900411Y28461275D01*
X-8849831Y28437689D01*
X-8796546Y28390771D01*
X-8777085Y28322494D01*
X-8797627Y28254534D01*
X-8851650Y28208468D01*
X-8914063Y28197974D01*
X-8917820Y28198303D01*
X-8917822Y28198303D01*
X-8928807Y28199264D01*
X-8965215Y28189508D01*
X-8975942Y28187130D01*
X-8978409Y28186695D01*
X-9013045Y28180588D01*
X-9022590Y28175077D01*
X-9025866Y28173885D01*
X-9029034Y28172408D01*
X-9039684Y28169554D01*
X-9062147Y28153825D01*
X-9070544Y28147945D01*
X-9079815Y28142039D01*
X-9092266Y28134850D01*
X-9112455Y28123194D01*
X-9119541Y28114749D01*
X-9136685Y28094318D01*
X-9144111Y28086215D01*
X-9756215Y27474111D01*
X-9764319Y27466684D01*
X-9793194Y27442455D01*
X-9798707Y27432906D01*
X-9812039Y27409815D01*
X-9817945Y27400544D01*
X-9839554Y27369684D01*
X-9842408Y27359034D01*
X-9843885Y27355866D01*
X-9845077Y27352590D01*
X-9850588Y27343045D01*
X-9855777Y27313614D01*
X-9857130Y27305942D01*
X-9859508Y27295215D01*
X-9869264Y27258807D01*
X-9868303Y27247822D01*
X-9868303Y27247820D01*
X-9865980Y27221272D01*
X-9865500Y27210290D01*
X-9865500Y27072766D01*
X-9885502Y27004645D01*
X-9919227Y26969554D01*
X-9920411Y26968725D01*
X-9930404Y26964065D01*
X-10014065Y26880404D01*
X-10015839Y26876600D01*
X-10068012Y26834899D01*
X-10115764Y26825500D01*
X-10271770Y26825500D01*
X-10339891Y26845502D01*
X-10360865Y26862405D01*
X-10431684Y26933224D01*
X-10452307Y26942841D01*
X-10531776Y26979898D01*
X-10531777Y26979898D01*
X-10540513Y26983972D01*
X-10590099Y26990500D01*
X-10769934Y26990500D01*
X-10949900Y26990499D01*
X-10999487Y26983972D01*
X-11008221Y26979899D01*
X-11008222Y26979899D01*
X-11091574Y26941031D01*
X-11108316Y26933224D01*
X-11193224Y26848316D01*
X-11197883Y26838324D01*
X-11197884Y26838323D01*
X-11239898Y26748224D01*
X-11243972Y26739487D01*
X-11250500Y26689901D01*
X-11250499Y26270100D01*
X-11243972Y26220513D01*
X-11239899Y26211779D01*
X-11239899Y26211778D01*
X-11217702Y26164177D01*
X-11193224Y26111684D01*
X-11108316Y26026776D01*
X-11098324Y26022117D01*
X-11098323Y26022116D01*
X-11008224Y25980102D01*
X-10999487Y25976028D01*
X-10949901Y25969500D01*
X-10770066Y25969500D01*
X-10590100Y25969501D01*
X-10540513Y25976028D01*
X-10521971Y25984674D01*
X-10441677Y26022116D01*
X-10441676Y26022117D01*
X-10431684Y26026776D01*
X-10346776Y26111684D01*
X-10342413Y26121041D01*
X-10287290Y26165100D01*
X-10239537Y26174500D01*
X-10115764Y26174500D01*
X-10047643Y26154498D01*
X-10016288Y26124364D01*
X-10014065Y26119596D01*
X-9930404Y26035935D01*
X-9920412Y26031275D01*
X-9920411Y26031275D01*
X-9900769Y26022116D01*
X-9823173Y25985932D01*
X-9774316Y25979500D01*
X-9425684Y25979500D01*
X-9376827Y25985932D01*
X-9299230Y26022116D01*
X-9279589Y26031275D01*
X-9279588Y26031275D01*
X-9269596Y26035935D01*
X-9185935Y26119596D01*
X-9185247Y26118908D01*
X-9137753Y26156869D01*
X-9067133Y26164177D01*
X-9003774Y26132144D01*
X-8995421Y26122504D01*
X-8994065Y26119596D01*
X-8910404Y26035935D01*
X-8900412Y26031275D01*
X-8900411Y26031275D01*
X-8880769Y26022116D01*
X-8803173Y25985932D01*
X-8754316Y25979500D01*
X-8405684Y25979500D01*
X-8356827Y25985932D01*
X-8279230Y26022116D01*
X-8259589Y26031275D01*
X-8259588Y26031275D01*
X-8249596Y26035935D01*
X-8165935Y26119596D01*
X-8164161Y26123400D01*
X-8111988Y26165101D01*
X-8064236Y26174500D01*
X-7824040Y26174500D01*
X-7755919Y26154498D01*
X-7711974Y26106094D01*
X-7640308Y25966647D01*
X-7640303Y25966639D01*
X-7637488Y25961162D01*
X-7509523Y25799710D01*
X-7504830Y25795716D01*
X-7504829Y25795715D01*
X-7377112Y25687020D01*
X-7352636Y25666189D01*
X-7172802Y25565683D01*
X-7081798Y25536114D01*
X-6982729Y25503924D01*
X-6982725Y25503923D01*
X-6976871Y25502021D01*
X-6772306Y25477629D01*
X-6766171Y25478101D01*
X-6766169Y25478101D01*
X-6710161Y25482411D01*
X-6566900Y25493434D01*
X-6560970Y25495090D01*
X-6560968Y25495090D01*
X-6374403Y25547180D01*
X-6374404Y25547180D01*
X-6368475Y25548835D01*
X-6362986Y25551608D01*
X-6362980Y25551610D01*
X-6230248Y25618658D01*
X-6184590Y25641722D01*
X-6170789Y25652504D01*
X-6093053Y25713238D01*
X-6022249Y25768556D01*
X-6010699Y25781936D01*
X-5891660Y25919846D01*
X-5891660Y25919847D01*
X-5887636Y25924508D01*
X-5866813Y25961162D01*
X-5824337Y26035935D01*
X-5785877Y26103636D01*
X-5720849Y26299117D01*
X-5695029Y26503506D01*
X-5694617Y26532980D01*
X-5714720Y26738010D01*
X-5774265Y26935231D01*
X-5870982Y27117131D01*
X-5951788Y27216209D01*
X-5997294Y27272005D01*
X-5997297Y27272008D01*
X-6001189Y27276780D01*
X-6005936Y27280707D01*
X-6005939Y27280710D01*
X-6055144Y27321416D01*
X-6094882Y27380249D01*
X-6096503Y27451228D01*
X-6059494Y27511815D01*
X-5995604Y27542775D01*
X-5974828Y27544500D01*
X-4918761Y27544500D01*
X-4850640Y27524498D01*
X-4824391Y27499270D01*
X-4824065Y27499596D01*
X-4740404Y27415935D01*
X-4730412Y27411275D01*
X-4730411Y27411275D01*
X-4662269Y27379500D01*
X-4633173Y27365932D01*
X-4584316Y27359500D01*
X-4235684Y27359500D01*
X-4186827Y27365932D01*
X-4157730Y27379500D01*
X-4089589Y27411275D01*
X-4089588Y27411275D01*
X-4079596Y27415935D01*
X-3995935Y27499596D01*
X-3995247Y27498908D01*
X-3947753Y27536869D01*
X-3877133Y27544177D01*
X-3813774Y27512144D01*
X-3805421Y27502504D01*
X-3804065Y27499596D01*
X-3720404Y27415935D01*
X-3710412Y27411275D01*
X-3710411Y27411275D01*
X-3642269Y27379500D01*
X-3613173Y27365932D01*
X-3564316Y27359500D01*
X-3215684Y27359500D01*
X-3166827Y27365932D01*
X-3137730Y27379500D01*
X-3069589Y27411275D01*
X-3069588Y27411275D01*
X-3059596Y27415935D01*
X-2975935Y27499596D01*
X-2966609Y27519596D01*
X-2930006Y27598090D01*
X-2930006Y27598091D01*
X-2925932Y27606827D01*
X-2919500Y27655684D01*
X-2919500Y28104316D01*
X-2925932Y28153173D01*
X-2933570Y28169554D01*
X-2971275Y28250411D01*
X-2971275Y28250412D01*
X-2975935Y28260404D01*
X-3027595Y28312064D01*
X-3061621Y28374376D01*
X-3064500Y28401159D01*
X-3064500Y28580714D01*
X-3044498Y28648835D01*
X-3015204Y28680677D01*
X-2968264Y28716695D01*
X-2961718Y28721718D01*
X-2865464Y28847159D01*
X-2804956Y28993238D01*
X-2784318Y29150000D01*
X-2801455Y29280172D01*
X-2803878Y29298574D01*
X-2804956Y29306762D01*
X-2865464Y29452841D01*
X-2961718Y29578282D01*
X-3087159Y29674536D01*
X-3233238Y29735044D01*
X-3390000Y29755682D01*
X-3546762Y29735044D01*
X-3692841Y29674536D01*
X-3818282Y29578282D01*
X-3914536Y29452841D01*
X-3975044Y29306762D01*
X-3976122Y29298574D01*
X-3978545Y29280172D01*
X-3995682Y29150000D01*
X-3975044Y28993238D01*
X-3914536Y28847159D01*
X-3818282Y28721718D01*
X-3811736Y28716695D01*
X-3764796Y28680677D01*
X-3722929Y28623339D01*
X-3715500Y28580714D01*
X-3715500Y28401159D01*
X-3735502Y28333038D01*
X-3752405Y28312064D01*
X-3804065Y28260404D01*
X-3804753Y28261092D01*
X-3852247Y28223131D01*
X-3922867Y28215823D01*
X-3986226Y28247856D01*
X-3994579Y28257496D01*
X-3995935Y28260404D01*
X-4079596Y28344065D01*
X-4108128Y28357370D01*
X-4178090Y28389994D01*
X-4178091Y28389994D01*
X-4186827Y28394068D01*
X-4235684Y28400500D01*
X-4584316Y28400500D01*
X-4633173Y28394068D01*
X-4641909Y28389994D01*
X-4641910Y28389994D01*
X-4711872Y28357370D01*
X-4740404Y28344065D01*
X-4824065Y28260404D01*
X-4828724Y28250412D01*
X-4829554Y28249227D01*
X-4885013Y28204900D01*
X-4932766Y28195500D01*
X-5844629Y28195500D01*
X-5912750Y28215502D01*
X-5959243Y28269158D01*
X-5969347Y28339432D01*
X-5940010Y28403831D01*
X-5891665Y28459840D01*
X-5891664Y28459842D01*
X-5887636Y28464508D01*
X-5866813Y28501162D01*
X-5836317Y28554846D01*
X-5785877Y28643636D01*
X-5720849Y28839117D01*
X-5695029Y29043506D01*
X-5694617Y29072980D01*
X-5714720Y29278010D01*
X-5774265Y29475231D01*
X-5870982Y29657131D01*
X-5950815Y29755016D01*
X-5997294Y29812005D01*
X-5997297Y29812008D01*
X-6001189Y29816780D01*
X-6005937Y29820708D01*
X-6005941Y29820712D01*
X-6006790Y29821414D01*
X-6007112Y29821891D01*
X-6010279Y29825080D01*
X-6009673Y29825682D01*
X-6046530Y29880246D01*
X-6048153Y29951224D01*
X-6011145Y30011813D01*
X-5947256Y30042775D01*
X-5926477Y30044500D01*
X-5389710Y30044500D01*
X-5378728Y30044020D01*
X-5352180Y30041697D01*
X-5352178Y30041697D01*
X-5341193Y30040736D01*
X-5304785Y30050492D01*
X-5294058Y30052870D01*
X-5287151Y30054088D01*
X-5256955Y30059412D01*
X-5247410Y30064923D01*
X-5244134Y30066115D01*
X-5240966Y30067592D01*
X-5230316Y30070446D01*
X-5199456Y30092055D01*
X-5190185Y30097961D01*
X-5167094Y30111293D01*
X-5157545Y30116806D01*
X-5133316Y30145681D01*
X-5125894Y30153780D01*
X-4243772Y31035901D01*
X-4235668Y31043327D01*
X-4215250Y31060460D01*
X-4206806Y31067545D01*
X-4201296Y31077088D01*
X-4201293Y31077092D01*
X-4187964Y31100179D01*
X-4182059Y31109449D01*
X-4166768Y31131287D01*
X-4160446Y31140316D01*
X-4157593Y31150964D01*
X-4156114Y31154135D01*
X-4154922Y31157411D01*
X-4149412Y31166955D01*
X-4142866Y31204076D01*
X-4140492Y31214783D01*
X-4130737Y31251193D01*
X-4134021Y31288731D01*
X-4134500Y31299712D01*
X-4134500Y32918841D01*
X-4114498Y32986962D01*
X-4097595Y33007936D01*
X-4045935Y33059596D01*
X-4045247Y33058908D01*
X-3997753Y33096869D01*
X-3927133Y33104177D01*
X-3863774Y33072144D01*
X-3855421Y33062504D01*
X-3854065Y33059596D01*
X-3770404Y32975935D01*
X-3760412Y32971275D01*
X-3760411Y32971275D01*
X-3698280Y32942303D01*
X-3663173Y32925932D01*
X-3614316Y32919500D01*
X-3265684Y32919500D01*
X-3216827Y32925932D01*
X-3181719Y32942303D01*
X-3109596Y32975935D01*
X-3108187Y32972914D01*
X-3058389Y32989705D01*
X-2989529Y32972417D01*
X-2976696Y32963768D01*
X-2971656Y32959901D01*
X-2952841Y32945464D01*
X-2806762Y32884956D01*
X-2650000Y32864318D01*
X-2641812Y32865396D01*
X-2501426Y32883878D01*
X-2493238Y32884956D01*
X-2347159Y32945464D01*
X-2257918Y33013941D01*
X-2228264Y33036695D01*
X-2221718Y33041718D01*
X-2212734Y33053426D01*
X-2203802Y33065066D01*
X-2146464Y33106933D01*
X-2075593Y33111154D01*
X-2013690Y33076389D01*
X-1980409Y33013677D01*
X-1978918Y32971916D01*
X-1980500Y32959901D01*
X-1980499Y32540100D01*
X-1973972Y32490513D01*
X-1969899Y32481779D01*
X-1969899Y32481778D01*
X-1927885Y32391679D01*
X-1923224Y32381684D01*
X-1838316Y32296776D01*
X-1828324Y32292117D01*
X-1828323Y32292116D01*
X-1760621Y32260546D01*
X-1729487Y32246028D01*
X-1679901Y32239500D01*
X-1500066Y32239500D01*
X-1320100Y32239501D01*
X-1270513Y32246028D01*
X-1216546Y32271193D01*
X-1171677Y32292116D01*
X-1171676Y32292117D01*
X-1161684Y32296776D01*
X-1109095Y32349365D01*
X-1046783Y32383391D01*
X-975968Y32378326D01*
X-930905Y32349365D01*
X-878316Y32296776D01*
X-868324Y32292117D01*
X-868323Y32292116D01*
X-800621Y32260546D01*
X-769487Y32246028D01*
X-719901Y32239500D01*
X-540066Y32239500D01*
X-360100Y32239501D01*
X-310513Y32246028D01*
X-256546Y32271193D01*
X-211677Y32292116D01*
X-211676Y32292117D01*
X-201684Y32296776D01*
X-116776Y32381684D01*
X-112115Y32391679D01*
X-111313Y32393398D01*
X-109350Y32395627D01*
X-105793Y32400707D01*
X-105226Y32400310D01*
X-64394Y32446682D01*
X3884Y32466140D01*
X51098Y32456553D01*
X95608Y32438116D01*
X95611Y32438115D01*
X103238Y32434956D01*
X260000Y32414318D01*
X268188Y32415396D01*
X408574Y32433878D01*
X416762Y32434956D01*
X562841Y32495464D01*
X688282Y32591718D01*
X784536Y32717159D01*
X845044Y32863238D01*
X865682Y33020000D01*
X846308Y33167159D01*
X846122Y33168574D01*
X845044Y33176762D01*
X784536Y33322841D01*
X688282Y33448282D01*
X659979Y33470000D01*
X569392Y33539509D01*
X562841Y33544536D01*
X416762Y33605044D01*
X260000Y33625682D01*
X251812Y33624604D01*
X122946Y33607639D01*
X52797Y33618579D01*
X-301Y33665707D01*
X-19500Y33732561D01*
X-19500Y33794948D01*
X502Y33863069D01*
X54158Y33909562D01*
X124432Y33919666D01*
X139101Y33916657D01*
X161193Y33910737D01*
X172169Y33911697D01*
X172172Y33911697D01*
X198731Y33914021D01*
X209712Y33914500D01*
X758841Y33914500D01*
X826962Y33894498D01*
X847936Y33877595D01*
X899596Y33825935D01*
X909588Y33821275D01*
X909589Y33821275D01*
X991389Y33783131D01*
X1006827Y33775932D01*
X1055684Y33769500D01*
X1504316Y33769500D01*
X1553173Y33775932D01*
X1568612Y33783131D01*
X1650411Y33821275D01*
X1650412Y33821275D01*
X1660404Y33825935D01*
X1709405Y33874936D01*
X1771717Y33908962D01*
X1842532Y33903897D01*
X1899368Y33861350D01*
X1924179Y33794830D01*
X1924500Y33785841D01*
X1924500Y32477016D01*
X1904498Y32408895D01*
X1887595Y32387921D01*
X1733785Y32234111D01*
X1725681Y32226684D01*
X1696806Y32202455D01*
X1691293Y32192906D01*
X1677961Y32169815D01*
X1672055Y32160544D01*
X1650446Y32129684D01*
X1647592Y32119034D01*
X1646115Y32115866D01*
X1644923Y32112590D01*
X1639412Y32103045D01*
X1634901Y32077458D01*
X1632870Y32065942D01*
X1630492Y32055215D01*
X1620736Y32018807D01*
X1621697Y32007822D01*
X1621697Y32007820D01*
X1624020Y31981272D01*
X1624500Y31970290D01*
X1624500Y30917016D01*
X1604498Y30848895D01*
X1587595Y30827921D01*
X1292079Y30532405D01*
X1229767Y30498379D01*
X1202984Y30495500D01*
X797016Y30495500D01*
X728895Y30515502D01*
X707921Y30532405D01*
X689600Y30550726D01*
X682173Y30558830D01*
X674633Y30567816D01*
X657944Y30587705D01*
X636986Y30599805D01*
X625304Y30606550D01*
X616033Y30612456D01*
X594204Y30627741D01*
X585173Y30634065D01*
X574523Y30636919D01*
X571355Y30638396D01*
X568079Y30639588D01*
X558534Y30645099D01*
X524709Y30651063D01*
X521431Y30651641D01*
X510704Y30654019D01*
X474296Y30663775D01*
X463311Y30662814D01*
X463309Y30662814D01*
X436761Y30660491D01*
X425779Y30660011D01*
X-1095779Y30660011D01*
X-1106761Y30660491D01*
X-1133309Y30662814D01*
X-1133311Y30662814D01*
X-1144296Y30663775D01*
X-1180704Y30654019D01*
X-1191431Y30651641D01*
X-1194709Y30651063D01*
X-1228534Y30645099D01*
X-1238079Y30639588D01*
X-1241355Y30638396D01*
X-1244523Y30636919D01*
X-1255173Y30634065D01*
X-1264204Y30627741D01*
X-1286033Y30612456D01*
X-1295304Y30606550D01*
X-1306986Y30599805D01*
X-1327944Y30587705D01*
X-1344633Y30567816D01*
X-1352174Y30558829D01*
X-1359600Y30550726D01*
X-1716215Y30194111D01*
X-1724319Y30186684D01*
X-1753194Y30162455D01*
X-1758707Y30152906D01*
X-1772039Y30129815D01*
X-1777945Y30120544D01*
X-1799554Y30089684D01*
X-1802408Y30079034D01*
X-1803885Y30075866D01*
X-1805077Y30072590D01*
X-1810588Y30063045D01*
X-1816538Y30029301D01*
X-1817130Y30025942D01*
X-1819508Y30015215D01*
X-1829264Y29978807D01*
X-1828303Y29967822D01*
X-1828303Y29967820D01*
X-1825980Y29941272D01*
X-1825500Y29930290D01*
X-1825500Y29228230D01*
X-1845502Y29160109D01*
X-1862405Y29139135D01*
X-1923224Y29078316D01*
X-1927883Y29068324D01*
X-1927884Y29068323D01*
X-1969898Y28978224D01*
X-1973972Y28969487D01*
X-1980500Y28919901D01*
X-1980499Y28500100D01*
X-1973972Y28450513D01*
X-1969899Y28441779D01*
X-1969899Y28441778D01*
X-1932330Y28361211D01*
X-1923224Y28341684D01*
X-1872405Y28290865D01*
X-1838379Y28228553D01*
X-1835500Y28201770D01*
X-1835500Y27911159D01*
X-1855502Y27843038D01*
X-1872405Y27822064D01*
X-1924065Y27770404D01*
X-1928725Y27760412D01*
X-1928725Y27760411D01*
X-1968642Y27674808D01*
X-1974068Y27663173D01*
X-1980500Y27614316D01*
X-1980500Y27165684D01*
X-1974068Y27116827D01*
X-1969994Y27108091D01*
X-1969994Y27108090D01*
X-1940588Y27045030D01*
X-1924065Y27009596D01*
X-1894725Y26980256D01*
X-1860699Y26917944D01*
X-1858304Y26902171D01*
X-1859264Y26891193D01*
X-1856057Y26879226D01*
X-1849509Y26854790D01*
X-1847130Y26844058D01*
X-1840588Y26806955D01*
X-1835077Y26797410D01*
X-1833885Y26794134D01*
X-1832408Y26790966D01*
X-1829554Y26780316D01*
X-1823230Y26771285D01*
X-1807945Y26749456D01*
X-1802039Y26740185D01*
X-1800783Y26738010D01*
X-1783194Y26707545D01*
X-1754318Y26683315D01*
X-1746215Y26675889D01*
X-1495000Y26424674D01*
X-1460974Y26362362D01*
X-1466039Y26291547D01*
X-1508586Y26234711D01*
X-1570937Y26210500D01*
X-1574748Y26210500D01*
X-1593877Y26206695D01*
X-1621061Y26201288D01*
X-1621062Y26201288D01*
X-1633231Y26198867D01*
X-1643546Y26191975D01*
X-1643550Y26191973D01*
X-1648144Y26188903D01*
X-1715896Y26167688D01*
X-1784363Y26186471D01*
X-1794850Y26193705D01*
X-1815162Y26209291D01*
X-1887159Y26264536D01*
X-2033238Y26325044D01*
X-2074870Y26330525D01*
X-2125261Y26337159D01*
X-2190000Y26345682D01*
X-2254739Y26337159D01*
X-2305129Y26330525D01*
X-2346762Y26325044D01*
X-2492841Y26264536D01*
X-2564838Y26209291D01*
X-2604741Y26178672D01*
X-2618282Y26168282D01*
X-2623305Y26161736D01*
X-2628817Y26154552D01*
X-2714536Y26042841D01*
X-2775044Y25896762D01*
X-2776122Y25888574D01*
X-2780146Y25858006D01*
X-2795682Y25740000D01*
X-2790153Y25698007D01*
X-2786882Y25673158D01*
X-2797821Y25603010D01*
X-2822709Y25567617D01*
X-3195981Y25194345D01*
X-3258293Y25160319D01*
X-3329108Y25165384D01*
X-3385944Y25207931D01*
X-3397343Y25226238D01*
X-3426970Y25284386D01*
X-3426973Y25284390D01*
X-3431472Y25293220D01*
X-3526780Y25388528D01*
X-3646874Y25449719D01*
X-3656663Y25451269D01*
X-3656665Y25451270D01*
X-3686149Y25455940D01*
X-3746512Y25465500D01*
X-4313488Y25465500D01*
X-4373851Y25455940D01*
X-4403335Y25451270D01*
X-4403337Y25451269D01*
X-4413126Y25449719D01*
X-4533220Y25388528D01*
X-4628528Y25293220D01*
X-4689719Y25173126D01*
X-4691269Y25163337D01*
X-4691270Y25163335D01*
X-4692597Y25154956D01*
X-4705500Y25073488D01*
X-4705500Y24556512D01*
X-4696945Y24502499D01*
X-4694442Y24486697D01*
X-4689719Y24456874D01*
X-4628528Y24336780D01*
X-4533220Y24241472D01*
X-4413126Y24180281D01*
X-4403337Y24178731D01*
X-4403335Y24178730D01*
X-4373851Y24174060D01*
X-4313488Y24164500D01*
X-3746512Y24164500D01*
X-3686149Y24174060D01*
X-3656665Y24178730D01*
X-3656663Y24178731D01*
X-3646874Y24180281D01*
X-3526780Y24241472D01*
X-3431472Y24336780D01*
X-3388711Y24420703D01*
X-3339963Y24472318D01*
X-3276444Y24489500D01*
X-3134710Y24489500D01*
X-3123728Y24489020D01*
X-3097180Y24486697D01*
X-3097178Y24486697D01*
X-3086193Y24485736D01*
X-3049785Y24495492D01*
X-3039058Y24497870D01*
X-3035699Y24498462D01*
X-3001955Y24504412D01*
X-2992410Y24509923D01*
X-2989134Y24511115D01*
X-2985966Y24512592D01*
X-2975316Y24515446D01*
X-2944456Y24537055D01*
X-2935185Y24542961D01*
X-2912094Y24556293D01*
X-2902545Y24561806D01*
X-2878315Y24590683D01*
X-2870889Y24598785D01*
X-2362383Y25107291D01*
X-2300071Y25141317D01*
X-2256843Y25143118D01*
X-2190000Y25134318D01*
X-2181812Y25135396D01*
X-2041426Y25153878D01*
X-2033238Y25154956D01*
X-1887159Y25215464D01*
X-1880607Y25220491D01*
X-1873454Y25224621D01*
X-1872343Y25222697D01*
X-1816988Y25244099D01*
X-1747439Y25229836D01*
X-1696641Y25180237D01*
X-1680500Y25118536D01*
X-1680500Y24858741D01*
X-1682000Y24839357D01*
X-1683479Y24829856D01*
X-1685609Y24816177D01*
X-1684445Y24807275D01*
X-1684445Y24807272D01*
X-1681564Y24785244D01*
X-1680500Y24768907D01*
X-1680500Y24340252D01*
X-1679572Y24335586D01*
X-1692707Y24266322D01*
X-1700108Y24253721D01*
X-1736972Y24198551D01*
X-1736973Y24198548D01*
X-1743867Y24188231D01*
X-1746288Y24176062D01*
X-1746288Y24176061D01*
X-1754293Y24135816D01*
X-1755500Y24129748D01*
X-1755500Y23852615D01*
X-1775502Y23784494D01*
X-1829158Y23738001D01*
X-1899432Y23727897D01*
X-1964012Y23757391D01*
X-1985196Y23783047D01*
X-1985464Y23782841D01*
X-2076695Y23901736D01*
X-2076696Y23901737D01*
X-2081718Y23908282D01*
X-2207159Y24004536D01*
X-2353238Y24065044D01*
X-2366287Y24066762D01*
X-2501812Y24084604D01*
X-2510000Y24085682D01*
X-2518188Y24084604D01*
X-2653712Y24066762D01*
X-2666762Y24065044D01*
X-2812841Y24004536D01*
X-2938282Y23908282D01*
X-3008998Y23816122D01*
X-3009675Y23815240D01*
X-3067013Y23773373D01*
X-3137884Y23769151D01*
X-3157848Y23775532D01*
X-3253238Y23815044D01*
X-3410000Y23835682D01*
X-3566762Y23815044D01*
X-3712841Y23754536D01*
X-3838282Y23658282D01*
X-3843305Y23651736D01*
X-3848396Y23645101D01*
X-3934536Y23532841D01*
X-3995044Y23386762D01*
X-3996122Y23378574D01*
X-4009923Y23273747D01*
X-4038646Y23208820D01*
X-4097911Y23169729D01*
X-4168903Y23168884D01*
X-4203095Y23186001D01*
X-4203454Y23185379D01*
X-4210607Y23189509D01*
X-4217159Y23194536D01*
X-4363238Y23255044D01*
X-4520000Y23275682D01*
X-4676762Y23255044D01*
X-4822841Y23194536D01*
X-4948282Y23098282D01*
X-5044536Y22972841D01*
X-5078071Y22891880D01*
X-5103679Y22830058D01*
X-5148228Y22774778D01*
X-5215591Y22752357D01*
X-5284383Y22769915D01*
X-5332761Y22821878D01*
X-5345010Y22861832D01*
X-5345916Y22868718D01*
X-5349456Y22895605D01*
X-5409964Y23041684D01*
X-5506218Y23167125D01*
X-5631659Y23263379D01*
X-5762772Y23317688D01*
X-5818053Y23362236D01*
X-5840474Y23429600D01*
X-5824110Y23496334D01*
X-5808377Y23524029D01*
X-5785877Y23563636D01*
X-5720849Y23759117D01*
X-5695029Y23963506D01*
X-5694617Y23992980D01*
X-5714720Y24198010D01*
X-5774265Y24395231D01*
X-5870982Y24577131D01*
X-5944341Y24667078D01*
X-5997294Y24732005D01*
X-5997297Y24732008D01*
X-6001189Y24736780D01*
X-6018414Y24751030D01*
X-6155175Y24864169D01*
X-6155179Y24864171D01*
X-6159925Y24868098D01*
X-6341145Y24966083D01*
X-6537946Y25027003D01*
X-6544071Y25027647D01*
X-6544072Y25027647D01*
X-6736702Y25047893D01*
X-6736704Y25047893D01*
X-6742831Y25048537D01*
X-6829671Y25040634D01*
X-6941858Y25030425D01*
X-6941861Y25030424D01*
X-6947997Y25029866D01*
X-7145628Y24971700D01*
X-7151093Y24968843D01*
X-7161977Y24963153D01*
X-7328198Y24876254D01*
X-7332999Y24872394D01*
X-7333002Y24872392D01*
X-7402919Y24816177D01*
X-7488753Y24747165D01*
X-7621176Y24589350D01*
X-7624144Y24583952D01*
X-7624147Y24583947D01*
X-7709049Y24429509D01*
X-7720424Y24408818D01*
X-7725315Y24393401D01*
X-7764976Y24334519D01*
X-7830178Y24306425D01*
X-7845416Y24305500D01*
X-8064236Y24305500D01*
X-8132357Y24325502D01*
X-8163712Y24355636D01*
X-8165935Y24360404D01*
X-8249596Y24444065D01*
X-8269237Y24453224D01*
X-8348090Y24489994D01*
X-8348091Y24489994D01*
X-8356827Y24494068D01*
X-8405684Y24500500D01*
X-8754316Y24500500D01*
X-8803173Y24494068D01*
X-8811909Y24489994D01*
X-8811910Y24489994D01*
X-8890763Y24453224D01*
X-8910404Y24444065D01*
X-8994065Y24360404D01*
X-8994753Y24361092D01*
X-9042247Y24323131D01*
X-9112867Y24315823D01*
X-9176226Y24347856D01*
X-9184579Y24357496D01*
X-9185935Y24360404D01*
X-9269596Y24444065D01*
X-9289237Y24453224D01*
X-9368090Y24489994D01*
X-9368091Y24489994D01*
X-9376827Y24494068D01*
X-9425684Y24500500D01*
X-9774316Y24500500D01*
X-9823173Y24494068D01*
X-9831909Y24489994D01*
X-9831910Y24489994D01*
X-9910763Y24453224D01*
X-9930404Y24444065D01*
X-9972064Y24402405D01*
X-10034376Y24368379D01*
X-10061159Y24365500D01*
X-10251770Y24365500D01*
X-10319891Y24385502D01*
X-10340865Y24402405D01*
X-10391684Y24453224D01*
X-10463466Y24486697D01*
X-10491776Y24499898D01*
X-10491777Y24499898D01*
X-10500513Y24503972D01*
X-10550099Y24510500D01*
X-10729934Y24510500D01*
X-10909900Y24510499D01*
X-10959487Y24503972D01*
X-10968221Y24499899D01*
X-10968222Y24499899D01*
X-10998594Y24485736D01*
X-11068316Y24453224D01*
X-11153224Y24368316D01*
X-11157883Y24358324D01*
X-11157884Y24358323D01*
X-11182516Y24305500D01*
X-11203972Y24259487D01*
X-11210500Y24209901D01*
X-11210499Y23790100D01*
X-11203972Y23740513D01*
X-11199899Y23731779D01*
X-11199899Y23731778D01*
X-11157918Y23641750D01*
X-11153224Y23631684D01*
X-11092405Y23570865D01*
X-11058379Y23508553D01*
X-11055500Y23481770D01*
X-11055500Y23471159D01*
X-11075502Y23403038D01*
X-11092405Y23382064D01*
X-11134065Y23340404D01*
X-11184068Y23233173D01*
X-11190500Y23184316D01*
X-11190500Y22735684D01*
X-11184068Y22686827D01*
X-11179994Y22678091D01*
X-11179994Y22678090D01*
X-11141733Y22596040D01*
X-11134065Y22579596D01*
X-11050404Y22495935D01*
X-11040412Y22491275D01*
X-11040411Y22491275D01*
X-10966537Y22456827D01*
X-10943173Y22445932D01*
X-10894316Y22439500D01*
X-10545684Y22439500D01*
X-10496827Y22445932D01*
X-10473462Y22456827D01*
X-10399589Y22491275D01*
X-10399588Y22491275D01*
X-10389596Y22495935D01*
X-10305935Y22579596D01*
X-10298267Y22596040D01*
X-10260006Y22678090D01*
X-10260006Y22678091D01*
X-10255932Y22686827D01*
X-10249500Y22735684D01*
X-10249500Y23184316D01*
X-10255932Y23233173D01*
X-10305935Y23340404D01*
X-10362901Y23397370D01*
X-10396927Y23459682D01*
X-10391862Y23530497D01*
X-10362905Y23575555D01*
X-10306776Y23631684D01*
X-10302116Y23641677D01*
X-10302114Y23641680D01*
X-10302081Y23641751D01*
X-10302000Y23641844D01*
X-10295793Y23650707D01*
X-10294805Y23650015D01*
X-10255163Y23695036D01*
X-10187887Y23714500D01*
X-10147917Y23714500D01*
X-10079796Y23694498D01*
X-10033722Y23641750D01*
X-10014065Y23599596D01*
X-9930404Y23515935D01*
X-9920412Y23511275D01*
X-9920411Y23511275D01*
X-9834382Y23471159D01*
X-9823173Y23465932D01*
X-9774316Y23459500D01*
X-9425684Y23459500D01*
X-9376827Y23465932D01*
X-9365617Y23471159D01*
X-9279589Y23511275D01*
X-9279588Y23511275D01*
X-9269596Y23515935D01*
X-9185935Y23599596D01*
X-9185247Y23598908D01*
X-9137753Y23636869D01*
X-9067133Y23644177D01*
X-9003774Y23612144D01*
X-8995421Y23602504D01*
X-8994065Y23599596D01*
X-8910404Y23515935D01*
X-8900412Y23511275D01*
X-8900411Y23511275D01*
X-8814382Y23471159D01*
X-8803173Y23465932D01*
X-8754316Y23459500D01*
X-8405684Y23459500D01*
X-8356827Y23465932D01*
X-8345617Y23471159D01*
X-8259589Y23511275D01*
X-8259588Y23511275D01*
X-8249596Y23515935D01*
X-8165935Y23599596D01*
X-8164161Y23603400D01*
X-8111988Y23645101D01*
X-8064236Y23654500D01*
X-7834318Y23654500D01*
X-7766197Y23634498D01*
X-7722251Y23586094D01*
X-7698973Y23540800D01*
X-7657284Y23459682D01*
X-7637488Y23421162D01*
X-7633665Y23416338D01*
X-7633662Y23416334D01*
X-7590784Y23362236D01*
X-7520648Y23273747D01*
X-7516575Y23268608D01*
X-7489937Y23202798D01*
X-7503108Y23133033D01*
X-7551905Y23081465D01*
X-7615320Y23064343D01*
X-8871447Y23064343D01*
X-8882429Y23064823D01*
X-8908980Y23067146D01*
X-8908986Y23067145D01*
X-8919964Y23068106D01*
X-8930611Y23065253D01*
X-8956353Y23058355D01*
X-8967088Y23055975D01*
X-8972254Y23055064D01*
X-9004202Y23049431D01*
X-9013750Y23043919D01*
X-9017027Y23042726D01*
X-9020195Y23041249D01*
X-9030841Y23038396D01*
X-9039870Y23032074D01*
X-9061704Y23016786D01*
X-9070972Y23010882D01*
X-9103612Y22992037D01*
X-9110695Y22983596D01*
X-9110696Y22983595D01*
X-9127832Y22963173D01*
X-9135257Y22955070D01*
X-9816222Y22274104D01*
X-9824326Y22266678D01*
X-9853194Y22242455D01*
X-9858707Y22232906D01*
X-9872039Y22209815D01*
X-9877945Y22200544D01*
X-9899554Y22169684D01*
X-9902408Y22159034D01*
X-9903885Y22155866D01*
X-9905077Y22152590D01*
X-9910588Y22143045D01*
X-9915640Y22114390D01*
X-9917130Y22105942D01*
X-9919508Y22095215D01*
X-9929264Y22058807D01*
X-9928303Y22047822D01*
X-9928303Y22047820D01*
X-9925980Y22021272D01*
X-9925500Y22010290D01*
X-9925500Y21921159D01*
X-9945502Y21853038D01*
X-9962405Y21832064D01*
X-10014065Y21780404D01*
X-10015186Y21781525D01*
X-10061005Y21744901D01*
X-10108761Y21735500D01*
X-10263542Y21735500D01*
X-10331663Y21755502D01*
X-10356102Y21778990D01*
X-10356776Y21778316D01*
X-10441684Y21863224D01*
X-10478841Y21880551D01*
X-10541776Y21909898D01*
X-10541777Y21909898D01*
X-10550513Y21913972D01*
X-10600099Y21920500D01*
X-10779934Y21920500D01*
X-10959900Y21920499D01*
X-11009487Y21913972D01*
X-11018221Y21909899D01*
X-11018222Y21909899D01*
X-11081718Y21880290D01*
X-11118316Y21863224D01*
X-11203224Y21778316D01*
X-11207883Y21768324D01*
X-11207884Y21768323D01*
X-11218806Y21744901D01*
X-11253972Y21669487D01*
X-11260500Y21619901D01*
X-11260499Y21200100D01*
X-11253972Y21150513D01*
X-11249899Y21141779D01*
X-11249899Y21141778D01*
X-11213814Y21064394D01*
X-11203224Y21041684D01*
X-11118316Y20956776D01*
X-11108324Y20952117D01*
X-11108323Y20952116D01*
X-11073623Y20935935D01*
X-11009487Y20906028D01*
X-10959901Y20899500D01*
X-10780066Y20899500D01*
X-10600100Y20899501D01*
X-10550513Y20906028D01*
X-10496370Y20931275D01*
X-10451677Y20952116D01*
X-10451676Y20952117D01*
X-10441684Y20956776D01*
X-10356776Y21041684D01*
X-10355144Y21040052D01*
X-10311297Y21075100D01*
X-10263542Y21084500D01*
X-10122766Y21084500D01*
X-10054645Y21064498D01*
X-10019554Y21030773D01*
X-10018724Y21029588D01*
X-10014065Y21019596D01*
X-9930404Y20935935D01*
X-9920412Y20931275D01*
X-9920411Y20931275D01*
X-9852269Y20899500D01*
X-9823173Y20885932D01*
X-9774316Y20879500D01*
X-9425684Y20879500D01*
X-9376827Y20885932D01*
X-9347730Y20899500D01*
X-9279589Y20931275D01*
X-9279588Y20931275D01*
X-9269596Y20935935D01*
X-9185935Y21019596D01*
X-9185247Y21018908D01*
X-9137753Y21056869D01*
X-9067133Y21064177D01*
X-9003774Y21032144D01*
X-8995421Y21022504D01*
X-8994065Y21019596D01*
X-8910404Y20935935D01*
X-8900412Y20931275D01*
X-8900411Y20931275D01*
X-8832269Y20899500D01*
X-8803173Y20885932D01*
X-8754316Y20879500D01*
X-8405684Y20879500D01*
X-8356827Y20885932D01*
X-8327730Y20899500D01*
X-8259589Y20931275D01*
X-8259588Y20931275D01*
X-8249596Y20935935D01*
X-8165935Y21019596D01*
X-8164161Y21023400D01*
X-8111988Y21065101D01*
X-8064236Y21074500D01*
X-7813761Y21074500D01*
X-7745640Y21054498D01*
X-7701694Y21006094D01*
X-7646912Y20899500D01*
X-7637488Y20881162D01*
X-7509523Y20719710D01*
X-7504830Y20715716D01*
X-7504829Y20715715D01*
X-7364926Y20596649D01*
X-7352636Y20586189D01*
X-7347258Y20583183D01*
X-7347256Y20583182D01*
X-7322775Y20569500D01*
X-7172802Y20485683D01*
X-7100507Y20462193D01*
X-6982729Y20423924D01*
X-6982725Y20423923D01*
X-6976871Y20422021D01*
X-6772306Y20397629D01*
X-6766171Y20398101D01*
X-6766169Y20398101D01*
X-6705570Y20402764D01*
X-6566900Y20413434D01*
X-6560970Y20415090D01*
X-6560968Y20415090D01*
X-6437096Y20449676D01*
X-6368475Y20468835D01*
X-6362986Y20471608D01*
X-6362980Y20471610D01*
X-6230248Y20538658D01*
X-6184590Y20561722D01*
X-6174634Y20569500D01*
X-6027099Y20684767D01*
X-6022249Y20688556D01*
X-6010176Y20702542D01*
X-5891660Y20839846D01*
X-5891660Y20839847D01*
X-5887636Y20844508D01*
X-5866813Y20881162D01*
X-5805615Y20988891D01*
X-5785877Y21023636D01*
X-5720849Y21219117D01*
X-5695029Y21423506D01*
X-5694748Y21443614D01*
X-5694666Y21449458D01*
X-5694666Y21449462D01*
X-5694617Y21452980D01*
X-5714720Y21658010D01*
X-5774265Y21855231D01*
X-5819610Y21940513D01*
X-5839867Y21978612D01*
X-5854186Y22048150D01*
X-5828638Y22114390D01*
X-5776833Y22154174D01*
X-5772748Y22155866D01*
X-5631659Y22214307D01*
X-5506218Y22310561D01*
X-5409964Y22436002D01*
X-5359297Y22558323D01*
X-5350821Y22578785D01*
X-5306272Y22634065D01*
X-5238909Y22656486D01*
X-5170117Y22638928D01*
X-5121739Y22586965D01*
X-5109490Y22547013D01*
X-5105044Y22513238D01*
X-5044536Y22367159D01*
X-4948282Y22241718D01*
X-4941736Y22236695D01*
X-4824796Y22146964D01*
X-4782929Y22089626D01*
X-4775500Y22047001D01*
X-4775500Y21701159D01*
X-4795502Y21633038D01*
X-4812405Y21612064D01*
X-4864065Y21560404D01*
X-4868725Y21550412D01*
X-4868725Y21550411D01*
X-4886606Y21512064D01*
X-4914068Y21453173D01*
X-4920500Y21404316D01*
X-4920500Y20955684D01*
X-4914068Y20906827D01*
X-4909994Y20898091D01*
X-4909994Y20898090D01*
X-4876557Y20826386D01*
X-4866187Y20804146D01*
X-4866186Y20804144D01*
X-4864065Y20799596D01*
X-4864572Y20799360D01*
X-4844679Y20740382D01*
X-4861961Y20671521D01*
X-4913728Y20622934D01*
X-4922654Y20619524D01*
X-4922418Y20618955D01*
X-5068497Y20558447D01*
X-5109349Y20527100D01*
X-5181665Y20471610D01*
X-5193938Y20462193D01*
X-5290192Y20336752D01*
X-5350700Y20190673D01*
X-5371338Y20033911D01*
X-5350700Y19877149D01*
X-5290192Y19731070D01*
X-5193938Y19605629D01*
X-5115578Y19545502D01*
X-5115452Y19545405D01*
X-5073585Y19488067D01*
X-5066156Y19445442D01*
X-5066156Y19433022D01*
X-5066352Y19430349D01*
X-5068081Y19425314D01*
X-5067645Y19413692D01*
X-5067645Y19413690D01*
X-5066245Y19376401D01*
X-5066156Y19371675D01*
X-5066156Y19352708D01*
X-5065274Y19347973D01*
X-5065046Y19344447D01*
X-5063882Y19313448D01*
X-5059292Y19302763D01*
X-5058255Y19298163D01*
X-5054694Y19286442D01*
X-5052995Y19282039D01*
X-5050865Y19270603D01*
X-5044761Y19260701D01*
X-5037929Y19249617D01*
X-5029425Y19233245D01*
X-5023205Y19218768D01*
X-5023203Y19218764D01*
X-5019692Y19210593D01*
X-5015678Y19205707D01*
X-5013493Y19203522D01*
X-5011441Y19201259D01*
X-5011601Y19201114D01*
X-5004481Y19192107D01*
X-4998229Y19185212D01*
X-4992124Y19175308D01*
X-4970336Y19158740D01*
X-4957517Y19147546D01*
X-4867405Y19057434D01*
X-4833379Y18995122D01*
X-4830500Y18968339D01*
X-4830500Y17966166D01*
X-4827519Y17934631D01*
X-4782634Y17806816D01*
X-4777042Y17799246D01*
X-4777041Y17799243D01*
X-4714665Y17714794D01*
X-4702150Y17697850D01*
X-4694579Y17692258D01*
X-4600757Y17622959D01*
X-4600754Y17622958D01*
X-4593184Y17617366D01*
X-4465369Y17572481D01*
X-4457723Y17571758D01*
X-4457722Y17571758D01*
X-4451752Y17571194D01*
X-4433834Y17569500D01*
X-3676166Y17569500D01*
X-3658248Y17571194D01*
X-3652278Y17571758D01*
X-3652277Y17571758D01*
X-3644631Y17572481D01*
X-3516816Y17617366D01*
X-3509246Y17622958D01*
X-3509243Y17622959D01*
X-3415421Y17692258D01*
X-3407850Y17697850D01*
X-3395335Y17714794D01*
X-3332959Y17799243D01*
X-3332958Y17799246D01*
X-3327366Y17806816D01*
X-3282481Y17934631D01*
X-3279500Y17966166D01*
X-1880500Y17966166D01*
X-1877519Y17934631D01*
X-1832634Y17806816D01*
X-1827042Y17799246D01*
X-1827041Y17799243D01*
X-1764665Y17714794D01*
X-1752150Y17697850D01*
X-1744579Y17692258D01*
X-1650757Y17622959D01*
X-1650754Y17622958D01*
X-1643184Y17617366D01*
X-1515369Y17572481D01*
X-1507723Y17571758D01*
X-1507722Y17571758D01*
X-1501752Y17571194D01*
X-1483834Y17569500D01*
X-726166Y17569500D01*
X-708248Y17571194D01*
X-702278Y17571758D01*
X-702277Y17571758D01*
X-694631Y17572481D01*
X-566816Y17617366D01*
X-559246Y17622958D01*
X-559243Y17622959D01*
X-465421Y17692258D01*
X-457850Y17697850D01*
X-445335Y17714794D01*
X-382959Y17799243D01*
X-382958Y17799246D01*
X-377366Y17806816D01*
X-332481Y17934631D01*
X-329500Y17966166D01*
X-329500Y18174806D01*
X-309498Y18242927D01*
X-255842Y18289420D01*
X-187054Y18299728D01*
X-78188Y18285396D01*
X-70000Y18284318D01*
X-61812Y18285396D01*
X78574Y18303878D01*
X86762Y18304956D01*
X232841Y18365464D01*
X358282Y18461718D01*
X454536Y18587159D01*
X515044Y18733238D01*
X535682Y18890000D01*
X523859Y18979806D01*
X516122Y19038574D01*
X515044Y19046762D01*
X454536Y19192841D01*
X358282Y19318282D01*
X232841Y19414536D01*
X86762Y19475044D01*
X-70000Y19495682D01*
X-226762Y19475044D01*
X-234394Y19471883D01*
X-235580Y19471565D01*
X-306557Y19473253D01*
X-365353Y19513047D01*
X-375780Y19528668D01*
X-377366Y19533184D01*
X-457850Y19642150D01*
X-496942Y19671024D01*
X-559243Y19717041D01*
X-559246Y19717042D01*
X-566816Y19722634D01*
X-694631Y19767519D01*
X-702277Y19768242D01*
X-702278Y19768242D01*
X-708248Y19768806D01*
X-726166Y19770500D01*
X-1483834Y19770500D01*
X-1501752Y19768806D01*
X-1507722Y19768242D01*
X-1507723Y19768242D01*
X-1515369Y19767519D01*
X-1643184Y19722634D01*
X-1650754Y19717042D01*
X-1650757Y19717041D01*
X-1713058Y19671024D01*
X-1752150Y19642150D01*
X-1757742Y19634579D01*
X-1827041Y19540757D01*
X-1827042Y19540754D01*
X-1832634Y19533184D01*
X-1877519Y19405369D01*
X-1880500Y19373834D01*
X-1880500Y17966166D01*
X-3279500Y17966166D01*
X-3279500Y19373834D01*
X-3282481Y19405369D01*
X-3327366Y19533184D01*
X-3332958Y19540754D01*
X-3332959Y19540757D01*
X-3402258Y19634579D01*
X-3407850Y19642150D01*
X-3446942Y19671024D01*
X-3509243Y19717041D01*
X-3509246Y19717042D01*
X-3516816Y19722634D01*
X-3644631Y19767519D01*
X-3652277Y19768242D01*
X-3652278Y19768242D01*
X-3658248Y19768806D01*
X-3676166Y19770500D01*
X-4050977Y19770500D01*
X-4119098Y19790502D01*
X-4165591Y19844158D01*
X-4175899Y19912946D01*
X-4162813Y20012349D01*
X-4159974Y20033911D01*
X-4180612Y20190673D01*
X-4241120Y20336752D01*
X-4246148Y20343305D01*
X-4246150Y20343308D01*
X-4336366Y20460880D01*
X-4361967Y20527100D01*
X-4347702Y20596649D01*
X-4298101Y20647445D01*
X-4252850Y20662506D01*
X-4236387Y20664673D01*
X-4236384Y20664674D01*
X-4226827Y20665932D01*
X-4205924Y20675679D01*
X-4129589Y20711275D01*
X-4129588Y20711275D01*
X-4119596Y20715935D01*
X-4035935Y20799596D01*
X-4035247Y20798908D01*
X-3987753Y20836869D01*
X-3917133Y20844177D01*
X-3853774Y20812144D01*
X-3845421Y20802504D01*
X-3844065Y20799596D01*
X-3760404Y20715935D01*
X-3750412Y20711275D01*
X-3750411Y20711275D01*
X-3674075Y20675679D01*
X-3653173Y20665932D01*
X-3604316Y20659500D01*
X-3255684Y20659500D01*
X-3206827Y20665932D01*
X-3185924Y20675679D01*
X-3109589Y20711275D01*
X-3109588Y20711275D01*
X-3099596Y20715935D01*
X-3015935Y20799596D01*
X-3004322Y20824500D01*
X-2970006Y20898090D01*
X-2970006Y20898091D01*
X-2965932Y20906827D01*
X-2959500Y20955684D01*
X-2959500Y21404316D01*
X-2965932Y21453173D01*
X-2993393Y21512064D01*
X-3011275Y21550411D01*
X-3011275Y21550412D01*
X-3015935Y21560404D01*
X-3067595Y21612064D01*
X-3101621Y21674376D01*
X-3104500Y21701159D01*
X-3104500Y21776354D01*
X-3099113Y21806901D01*
X-3099412Y21806954D01*
X-3092867Y21844072D01*
X-3090492Y21854783D01*
X-3080737Y21891193D01*
X-3083358Y21921159D01*
X-3084021Y21928731D01*
X-3084500Y21939712D01*
X-3084500Y22660714D01*
X-3064498Y22728835D01*
X-3035204Y22760677D01*
X-2988264Y22796695D01*
X-2981718Y22801718D01*
X-2910324Y22894761D01*
X-2852987Y22936627D01*
X-2782116Y22940849D01*
X-2762152Y22934468D01*
X-2666762Y22894956D01*
X-2658574Y22893878D01*
X-2609490Y22887416D01*
X-2510000Y22874318D01*
X-2423476Y22885709D01*
X-2353329Y22874770D01*
X-2342894Y22868718D01*
X-2338714Y22866769D01*
X-2329684Y22860446D01*
X-2319036Y22857592D01*
X-2315865Y22856114D01*
X-2312589Y22854922D01*
X-2303045Y22849412D01*
X-2265924Y22842866D01*
X-2255217Y22840492D01*
X-2218807Y22830737D01*
X-2207832Y22831697D01*
X-2207830Y22831697D01*
X-2181269Y22834021D01*
X-2170288Y22834500D01*
X-1961230Y22834500D01*
X-1893109Y22814498D01*
X-1846616Y22760842D01*
X-1836512Y22690568D01*
X-1866006Y22625988D01*
X-1872135Y22619405D01*
X-1923224Y22568316D01*
X-1927883Y22558324D01*
X-1927884Y22558323D01*
X-1950508Y22509806D01*
X-1973972Y22459487D01*
X-1980500Y22409901D01*
X-1980499Y21990100D01*
X-1973972Y21940513D01*
X-1969899Y21931779D01*
X-1969899Y21931778D01*
X-1934687Y21856267D01*
X-1923224Y21831684D01*
X-1862405Y21770865D01*
X-1828379Y21708553D01*
X-1825500Y21681770D01*
X-1825500Y21621159D01*
X-1845502Y21553038D01*
X-1862405Y21532064D01*
X-1924065Y21470404D01*
X-1928725Y21460412D01*
X-1928725Y21460411D01*
X-1936557Y21443614D01*
X-1974068Y21363173D01*
X-1980500Y21314316D01*
X-1980500Y20865684D01*
X-1974068Y20816827D01*
X-1969994Y20808091D01*
X-1969994Y20808090D01*
X-1938421Y20740382D01*
X-1924065Y20709596D01*
X-1840404Y20625935D01*
X-1830412Y20621275D01*
X-1830411Y20621275D01*
X-1777600Y20596649D01*
X-1733173Y20575932D01*
X-1684316Y20569500D01*
X-1335684Y20569500D01*
X-1286827Y20575932D01*
X-1242399Y20596649D01*
X-1189589Y20621275D01*
X-1189588Y20621275D01*
X-1179596Y20625935D01*
X-1095935Y20709596D01*
X-1095247Y20708908D01*
X-1047753Y20746869D01*
X-977133Y20754177D01*
X-913774Y20722144D01*
X-905421Y20712504D01*
X-904065Y20709596D01*
X-820404Y20625935D01*
X-810412Y20621275D01*
X-810411Y20621275D01*
X-757600Y20596649D01*
X-713173Y20575932D01*
X-664316Y20569500D01*
X-482016Y20569500D01*
X-413895Y20549498D01*
X-392921Y20532595D01*
X-374111Y20513785D01*
X-366684Y20505681D01*
X-342455Y20476806D01*
X-332906Y20471293D01*
X-309815Y20457961D01*
X-300544Y20452055D01*
X-269684Y20430446D01*
X-259031Y20427591D01*
X-255869Y20426117D01*
X-252593Y20424925D01*
X-243045Y20419412D01*
X-234559Y20417916D01*
X-199012Y20395267D01*
X-198282Y20396218D01*
X-72841Y20299964D01*
X73238Y20239456D01*
X230000Y20218818D01*
X238188Y20219896D01*
X378574Y20238378D01*
X386762Y20239456D01*
X532841Y20299964D01*
X658282Y20396218D01*
X754536Y20521659D01*
X815044Y20667738D01*
X835682Y20824500D01*
X815044Y20981262D01*
X754536Y21127341D01*
X658282Y21252782D01*
X532841Y21349036D01*
X400547Y21403834D01*
X394391Y21406384D01*
X386762Y21409544D01*
X230000Y21430182D01*
X73238Y21409544D01*
X66817Y21406884D01*
X-3554Y21408560D01*
X-62349Y21448355D01*
X-68398Y21456304D01*
X-71278Y21460416D01*
X-75935Y21470404D01*
X-127595Y21522064D01*
X-161621Y21584376D01*
X-164500Y21611159D01*
X-164500Y21731770D01*
X-144498Y21799891D01*
X-127595Y21820865D01*
X-116776Y21831684D01*
X-103259Y21860670D01*
X-70102Y21931776D01*
X-70101Y21931778D01*
X-66028Y21940513D01*
X-59500Y21990099D01*
X-59501Y22307586D01*
X-39499Y22375705D01*
X14156Y22422198D01*
X84430Y22432303D01*
X149011Y22402810D01*
X174865Y22368558D01*
X174952Y22368619D01*
X176667Y22366170D01*
X180693Y22360836D01*
X181273Y22359592D01*
X181275Y22359589D01*
X185935Y22349596D01*
X269596Y22265935D01*
X279588Y22261275D01*
X279589Y22261275D01*
X319949Y22242455D01*
X376827Y22215932D01*
X425684Y22209500D01*
X874316Y22209500D01*
X923173Y22215932D01*
X980052Y22242455D01*
X1020411Y22261275D01*
X1020412Y22261275D01*
X1030404Y22265935D01*
X1114065Y22349596D01*
X1142018Y22409541D01*
X1159994Y22448090D01*
X1159994Y22448091D01*
X1164068Y22456827D01*
X1170500Y22505684D01*
X1170500Y22573666D01*
X1190502Y22641787D01*
X1244158Y22688280D01*
X1314432Y22698384D01*
X1377490Y22670189D01*
X1385674Y22663322D01*
X1393780Y22655894D01*
X1638477Y22411196D01*
X1672502Y22348884D01*
X1674303Y22338548D01*
X1689998Y22219334D01*
X1692440Y22200785D01*
X1752948Y22054706D01*
X1757976Y22048153D01*
X1757978Y22048150D01*
X1792988Y22002524D01*
X1818589Y21936304D01*
X1804325Y21866755D01*
X1754724Y21815959D01*
X1704885Y21800379D01*
X1682277Y21798242D01*
X1682275Y21798242D01*
X1674631Y21797519D01*
X1546816Y21752634D01*
X1539246Y21747042D01*
X1539243Y21747041D01*
X1499227Y21717484D01*
X1437850Y21672150D01*
X1432258Y21664579D01*
X1362959Y21570757D01*
X1362958Y21570754D01*
X1357366Y21563184D01*
X1312481Y21435369D01*
X1309500Y21403834D01*
X1309500Y20646166D01*
X1312481Y20614631D01*
X1357366Y20486816D01*
X1362958Y20479246D01*
X1362959Y20479243D01*
X1407490Y20418954D01*
X1437850Y20377850D01*
X1445421Y20372258D01*
X1539243Y20302959D01*
X1539246Y20302958D01*
X1546816Y20297366D01*
X1674631Y20252481D01*
X1682277Y20251758D01*
X1682278Y20251758D01*
X1688248Y20251194D01*
X1706166Y20249500D01*
X3113834Y20249500D01*
X3131752Y20251194D01*
X3137722Y20251758D01*
X3137723Y20251758D01*
X3145369Y20252481D01*
X3273184Y20297366D01*
X3280754Y20302957D01*
X3280761Y20302961D01*
X3349141Y20353468D01*
X3415819Y20377851D01*
X3485095Y20362314D01*
X3534973Y20311791D01*
X3550000Y20252117D01*
X3550000Y16982076D01*
X3529998Y16913955D01*
X3476342Y16867462D01*
X3423481Y16856077D01*
X2954143Y16858018D01*
X2685688Y16859129D01*
X2617650Y16879413D01*
X2571380Y16933260D01*
X2561287Y16968682D01*
X2541922Y17115774D01*
X2540844Y17123962D01*
X2480336Y17270041D01*
X2384082Y17395482D01*
X2258641Y17491736D01*
X2112562Y17552244D01*
X1955800Y17572882D01*
X1799038Y17552244D01*
X1652959Y17491736D01*
X1527518Y17395482D01*
X1431264Y17270041D01*
X1370756Y17123962D01*
X1369678Y17115774D01*
X1351108Y16974721D01*
X1322386Y16909793D01*
X1263120Y16870702D01*
X1225665Y16865168D01*
X-19130969Y16949358D01*
X-19199007Y16969642D01*
X-19245277Y17023489D01*
X-19256421Y17072755D01*
X-19283008Y18359901D01*
X-11260500Y18359901D01*
X-11260499Y17940100D01*
X-11253972Y17890513D01*
X-11203224Y17781684D01*
X-11118316Y17696776D01*
X-11009487Y17646028D01*
X-10959901Y17639500D01*
X-10780066Y17639500D01*
X-10600100Y17639501D01*
X-10550513Y17646028D01*
X-10441684Y17696776D01*
X-10356776Y17781684D01*
X-10306028Y17890513D01*
X-10299500Y17940099D01*
X-10299501Y18359900D01*
X-10306028Y18409487D01*
X-10328041Y18456695D01*
X-10352116Y18508323D01*
X-10352117Y18508324D01*
X-10356776Y18518316D01*
X-10397901Y18559441D01*
X-10431927Y18621753D01*
X-10426862Y18692568D01*
X-10397905Y18737626D01*
X-10315935Y18819596D01*
X-10314161Y18823400D01*
X-10261988Y18865101D01*
X-10214236Y18874500D01*
X-10115764Y18874500D01*
X-10047643Y18854498D01*
X-10016288Y18824364D01*
X-10014065Y18819596D01*
X-9930404Y18735935D01*
X-9920412Y18731275D01*
X-9920411Y18731275D01*
X-9888732Y18716503D01*
X-9823173Y18685932D01*
X-9774316Y18679500D01*
X-9425684Y18679500D01*
X-9376827Y18685932D01*
X-9311267Y18716503D01*
X-9279589Y18731275D01*
X-9279588Y18731275D01*
X-9269596Y18735935D01*
X-9185935Y18819596D01*
X-9185247Y18818908D01*
X-9137753Y18856869D01*
X-9067133Y18864177D01*
X-9003774Y18832144D01*
X-8995421Y18822504D01*
X-8994065Y18819596D01*
X-8910404Y18735935D01*
X-8900412Y18731275D01*
X-8900411Y18731275D01*
X-8868732Y18716503D01*
X-8803173Y18685932D01*
X-8754316Y18679500D01*
X-8405684Y18679500D01*
X-8356827Y18685932D01*
X-8291267Y18716503D01*
X-8259589Y18731275D01*
X-8259588Y18731275D01*
X-8249596Y18735935D01*
X-8165935Y18819596D01*
X-8164161Y18823400D01*
X-8111988Y18865101D01*
X-8064236Y18874500D01*
X-7917074Y18874500D01*
X-7848953Y18854498D01*
X-7802460Y18800842D01*
X-7791516Y18759044D01*
X-7789575Y18735935D01*
X-7788441Y18722427D01*
X-7776286Y18680038D01*
X-7751841Y18594789D01*
X-7731656Y18524394D01*
X-7728841Y18518917D01*
X-7728840Y18518914D01*
X-7640303Y18346639D01*
X-7637488Y18341162D01*
X-7509523Y18179710D01*
X-7352636Y18046189D01*
X-7172802Y17945683D01*
X-7077962Y17914867D01*
X-6982729Y17883924D01*
X-6982725Y17883923D01*
X-6976871Y17882021D01*
X-6772306Y17857629D01*
X-6766171Y17858101D01*
X-6766169Y17858101D01*
X-6710161Y17862411D01*
X-6566900Y17873434D01*
X-6560970Y17875090D01*
X-6560968Y17875090D01*
X-6374403Y17927180D01*
X-6374404Y17927180D01*
X-6368475Y17928835D01*
X-6362986Y17931608D01*
X-6362980Y17931610D01*
X-6190084Y18018947D01*
X-6184590Y18021722D01*
X-6022249Y18148556D01*
X-5999590Y18174806D01*
X-5891660Y18299846D01*
X-5891660Y18299847D01*
X-5887636Y18304508D01*
X-5866813Y18341162D01*
X-5828000Y18409487D01*
X-5785877Y18483636D01*
X-5720849Y18679117D01*
X-5695029Y18883506D01*
X-5694617Y18912980D01*
X-5714720Y19118010D01*
X-5774265Y19315231D01*
X-5870982Y19497131D01*
X-5944651Y19587458D01*
X-5997294Y19652005D01*
X-5997297Y19652008D01*
X-6001189Y19656780D01*
X-6018407Y19671024D01*
X-6155175Y19784169D01*
X-6155179Y19784171D01*
X-6159925Y19788098D01*
X-6341145Y19886083D01*
X-6537946Y19947003D01*
X-6544071Y19947647D01*
X-6544072Y19947647D01*
X-6736702Y19967893D01*
X-6736704Y19967893D01*
X-6742831Y19968537D01*
X-6825234Y19961038D01*
X-6941858Y19950425D01*
X-6941861Y19950424D01*
X-6947997Y19949866D01*
X-7145628Y19891700D01*
X-7328198Y19796254D01*
X-7332999Y19792394D01*
X-7333002Y19792392D01*
X-7367103Y19764974D01*
X-7488753Y19667165D01*
X-7555011Y19588202D01*
X-7569857Y19570509D01*
X-7628967Y19531182D01*
X-7666379Y19525500D01*
X-8064236Y19525500D01*
X-8132357Y19545502D01*
X-8163712Y19575636D01*
X-8165935Y19580404D01*
X-8249596Y19664065D01*
X-8259589Y19668725D01*
X-8348090Y19709994D01*
X-8348091Y19709994D01*
X-8356827Y19714068D01*
X-8405684Y19720500D01*
X-8754316Y19720500D01*
X-8803173Y19714068D01*
X-8811909Y19709994D01*
X-8811910Y19709994D01*
X-8900411Y19668725D01*
X-8910404Y19664065D01*
X-8994065Y19580404D01*
X-8994753Y19581092D01*
X-9042247Y19543131D01*
X-9112867Y19535823D01*
X-9176226Y19567856D01*
X-9184579Y19577496D01*
X-9185935Y19580404D01*
X-9269596Y19664065D01*
X-9279589Y19668725D01*
X-9368090Y19709994D01*
X-9368091Y19709994D01*
X-9376827Y19714068D01*
X-9425684Y19720500D01*
X-9774316Y19720500D01*
X-9823173Y19714068D01*
X-9831909Y19709994D01*
X-9831910Y19709994D01*
X-9920411Y19668725D01*
X-9930404Y19664065D01*
X-10014065Y19580404D01*
X-10015839Y19576600D01*
X-10068012Y19534899D01*
X-10115764Y19525500D01*
X-10214236Y19525500D01*
X-10282357Y19545502D01*
X-10313712Y19575636D01*
X-10315935Y19580404D01*
X-10399596Y19664065D01*
X-10409589Y19668725D01*
X-10498090Y19709994D01*
X-10498091Y19709994D01*
X-10506827Y19714068D01*
X-10555684Y19720500D01*
X-10904316Y19720500D01*
X-10953173Y19714068D01*
X-10961909Y19709994D01*
X-10961910Y19709994D01*
X-11050411Y19668725D01*
X-11060404Y19664065D01*
X-11144065Y19580404D01*
X-11148725Y19570412D01*
X-11148725Y19570411D01*
X-11184074Y19494604D01*
X-11194068Y19473173D01*
X-11200500Y19424316D01*
X-11200500Y18975684D01*
X-11194068Y18926827D01*
X-11189994Y18918091D01*
X-11189994Y18918090D01*
X-11164854Y18864177D01*
X-11144065Y18819596D01*
X-11136267Y18811798D01*
X-11129948Y18802774D01*
X-11132970Y18800658D01*
X-11108379Y18755624D01*
X-11105500Y18728841D01*
X-11105500Y18668230D01*
X-11125502Y18600109D01*
X-11142405Y18579135D01*
X-11203224Y18518316D01*
X-11207883Y18508324D01*
X-11207884Y18508323D01*
X-11249898Y18418224D01*
X-11253972Y18409487D01*
X-11260500Y18359901D01*
X-19283008Y18359901D01*
X-19494535Y28600400D01*
X-17094536Y28600400D01*
X-17076134Y28496037D01*
X-17023148Y28404262D01*
X-17014703Y28397176D01*
X-16950411Y28343228D01*
X-16950409Y28343227D01*
X-16941968Y28336144D01*
X-16924713Y28329864D01*
X-16852742Y28303669D01*
X-16852741Y28303669D01*
X-16842386Y28299900D01*
X-16736414Y28299900D01*
X-16726059Y28303669D01*
X-16726058Y28303669D01*
X-16654087Y28329864D01*
X-16636832Y28336144D01*
X-16628391Y28343227D01*
X-16628389Y28343228D01*
X-16564097Y28397176D01*
X-16555652Y28404262D01*
X-16502666Y28496037D01*
X-16484264Y28600400D01*
X-16502666Y28704763D01*
X-16555652Y28796538D01*
X-16595906Y28830315D01*
X-16628389Y28857572D01*
X-16628391Y28857573D01*
X-16636832Y28864656D01*
X-16710230Y28891370D01*
X-16726058Y28897131D01*
X-16726059Y28897131D01*
X-16736414Y28900900D01*
X-16842386Y28900900D01*
X-16852741Y28897131D01*
X-16852742Y28897131D01*
X-16868570Y28891370D01*
X-16941968Y28864656D01*
X-16950409Y28857573D01*
X-16950411Y28857572D01*
X-16982894Y28830315D01*
X-17023148Y28796538D01*
X-17076134Y28704763D01*
X-17094536Y28600400D01*
X-19494535Y28600400D01*
X-19746137Y40781037D01*
X-18124843Y40781037D01*
X-18108425Y40585517D01*
X-18054342Y40396909D01*
X-18051524Y40391426D01*
X-17967477Y40227887D01*
X-17967474Y40227883D01*
X-17964656Y40222399D01*
X-17842782Y40068631D01*
X-17838089Y40064637D01*
X-17838088Y40064636D01*
X-17725412Y39968742D01*
X-17693362Y39941465D01*
X-17687984Y39938459D01*
X-17687982Y39938458D01*
X-17651668Y39918163D01*
X-17522087Y39845743D01*
X-17335482Y39785111D01*
X-17140654Y39761879D01*
X-17134519Y39762351D01*
X-17134517Y39762351D01*
X-16951166Y39776459D01*
X-16951162Y39776460D01*
X-16945024Y39776932D01*
X-16756044Y39829697D01*
X-16580911Y39918163D01*
X-16551085Y39941465D01*
X-16431147Y40035171D01*
X-16426297Y40038960D01*
X-16396516Y40073461D01*
X-16302115Y40182827D01*
X-16302115Y40182828D01*
X-16298091Y40187489D01*
X-16291003Y40199965D01*
X-16204222Y40352728D01*
X-16201175Y40358091D01*
X-16139242Y40544268D01*
X-16114651Y40738929D01*
X-16114259Y40767000D01*
X-16133406Y40962272D01*
X-16135187Y40968171D01*
X-16135188Y40968176D01*
X-16188335Y41144207D01*
X-16190116Y41150106D01*
X-16282230Y41323347D01*
X-16406239Y41475398D01*
X-16557420Y41600465D01*
X-16730015Y41693787D01*
X-16823732Y41722797D01*
X-16911561Y41749985D01*
X-16911564Y41749986D01*
X-16917448Y41751807D01*
X-16923573Y41752451D01*
X-16923574Y41752451D01*
X-17106453Y41771673D01*
X-17106454Y41771673D01*
X-17112581Y41772317D01*
X-17235217Y41761156D01*
X-17301841Y41755093D01*
X-17301842Y41755093D01*
X-17307982Y41754534D01*
X-17313896Y41752793D01*
X-17313898Y41752793D01*
X-17442866Y41714835D01*
X-17496207Y41699136D01*
X-17501672Y41696279D01*
X-17664628Y41611088D01*
X-17664632Y41611085D01*
X-17670088Y41608233D01*
X-17674888Y41604373D01*
X-17674889Y41604373D01*
X-17709274Y41576727D01*
X-17823000Y41485289D01*
X-17949120Y41334984D01*
X-17952084Y41329592D01*
X-17952087Y41329588D01*
X-18030787Y41186433D01*
X-18043644Y41163046D01*
X-18102972Y40976022D01*
X-18124843Y40781037D01*
X-19746137Y40781037D01*
X-19770252Y41948516D01*
X-19751661Y42017035D01*
X-19698977Y42064626D01*
X-19645798Y42077109D01*
X-10819081Y42183426D01*
X-9327518Y42201392D01*
X-9259161Y42182212D01*
G37*
%TD.AperFunction*%
%TA.AperFunction,Conductor*%
G36*
X12970765Y29487304D02*
G01*
X12971806Y29488545D01*
X13000682Y29464315D01*
X13008785Y29456889D01*
X13497289Y28968385D01*
X13504716Y28960281D01*
X13528945Y28931406D01*
X13538494Y28925893D01*
X13561585Y28912561D01*
X13570856Y28906655D01*
X13601716Y28885046D01*
X13612366Y28882192D01*
X13615534Y28880715D01*
X13618810Y28879523D01*
X13628355Y28874012D01*
X13662099Y28868062D01*
X13665458Y28867470D01*
X13676185Y28865092D01*
X13712593Y28855336D01*
X13723569Y28856296D01*
X13723572Y28856296D01*
X13750143Y28858621D01*
X13761124Y28859100D01*
X17059583Y28859100D01*
X17127704Y28839098D01*
X17148679Y28822195D01*
X17637596Y28333277D01*
X17671621Y28270965D01*
X17674500Y28244182D01*
X17674500Y25462707D01*
X17654498Y25394586D01*
X17600842Y25348093D01*
X17595295Y25346302D01*
X17595405Y25346037D01*
X17583939Y25341288D01*
X17571769Y25338867D01*
X17505448Y25294552D01*
X17461133Y25228231D01*
X17449500Y25169748D01*
X17449500Y20872493D01*
X17429498Y20804372D01*
X17375842Y20757879D01*
X17323466Y20746493D01*
X16896626Y20746615D01*
X16775964Y20746650D01*
X16707849Y20766672D01*
X16661371Y20820341D01*
X16650000Y20872650D01*
X16650000Y26962688D01*
X16653254Y26991140D01*
X16655142Y26999284D01*
X16655143Y27000000D01*
X16654316Y27003625D01*
X16654627Y27005395D01*
X16653926Y27005334D01*
X16653417Y27011150D01*
X16636855Y27200458D01*
X16630264Y27225057D01*
X16586198Y27389516D01*
X16586197Y27389518D01*
X16584775Y27394826D01*
X16582109Y27400544D01*
X16502060Y27572210D01*
X16502057Y27572215D01*
X16499734Y27577197D01*
X16398246Y27722136D01*
X16387475Y27737519D01*
X16387473Y27737521D01*
X16384316Y27742030D01*
X16242030Y27884316D01*
X16232311Y27891122D01*
X16084653Y27994513D01*
X16077197Y27999734D01*
X16072215Y28002057D01*
X16072210Y28002060D01*
X15899808Y28082452D01*
X15899807Y28082453D01*
X15894826Y28084775D01*
X15889518Y28086197D01*
X15889516Y28086198D01*
X15705773Y28135431D01*
X15705772Y28135431D01*
X15700458Y28136855D01*
X15500000Y28154393D01*
X15299542Y28136855D01*
X15294228Y28135431D01*
X15294227Y28135431D01*
X15110484Y28086198D01*
X15110482Y28086197D01*
X15105174Y28084775D01*
X15100194Y28082453D01*
X15100192Y28082452D01*
X14927791Y28002060D01*
X14927786Y28002057D01*
X14922804Y27999734D01*
X14918297Y27996578D01*
X14918295Y27996577D01*
X14762481Y27887475D01*
X14762478Y27887473D01*
X14757970Y27884316D01*
X14615684Y27742030D01*
X14612527Y27737521D01*
X14612525Y27737519D01*
X14601754Y27722136D01*
X14500266Y27577197D01*
X14497943Y27572215D01*
X14497940Y27572210D01*
X14417891Y27400544D01*
X14415225Y27394826D01*
X14413803Y27389518D01*
X14413802Y27389516D01*
X14369736Y27225057D01*
X14363145Y27200458D01*
X14346118Y27005842D01*
X14344857Y27000358D01*
X14347988Y26986519D01*
X14347980Y26981631D01*
X14350000Y26963552D01*
X14350000Y20873379D01*
X14329998Y20805258D01*
X14276342Y20758765D01*
X14223965Y20747379D01*
X13676462Y20747536D01*
X13608349Y20767556D01*
X13561871Y20821225D01*
X13550500Y20873535D01*
X13550500Y25169748D01*
X13538867Y25228231D01*
X13494552Y25294552D01*
X13428231Y25338867D01*
X13416062Y25341288D01*
X13416061Y25341288D01*
X13401918Y25344101D01*
X13339008Y25377009D01*
X13303877Y25438704D01*
X13300500Y25467680D01*
X13300500Y26020838D01*
X13320502Y26088959D01*
X13349796Y26120801D01*
X13355072Y26124849D01*
X13468282Y26211718D01*
X13480750Y26227966D01*
X13529537Y26291547D01*
X13564536Y26337159D01*
X13625044Y26483238D01*
X13645682Y26640000D01*
X13628398Y26771285D01*
X13626122Y26788574D01*
X13625044Y26796762D01*
X13564536Y26942841D01*
X13478068Y27055529D01*
X13473305Y27061736D01*
X13468282Y27068282D01*
X13342841Y27164536D01*
X13196762Y27225044D01*
X13040000Y27245682D01*
X12883238Y27225044D01*
X12737159Y27164536D01*
X12611718Y27068282D01*
X12606695Y27061736D01*
X12606692Y27061733D01*
X12561029Y27002223D01*
X12503691Y26960355D01*
X12432820Y26956133D01*
X12384362Y26978963D01*
X12383313Y26979768D01*
X12272841Y27064536D01*
X12126762Y27125044D01*
X12116569Y27126386D01*
X12048381Y27135363D01*
X11970000Y27145682D01*
X11891619Y27135363D01*
X11823432Y27126386D01*
X11813238Y27125044D01*
X11667159Y27064536D01*
X11585397Y27001798D01*
X11562806Y26984463D01*
X11541718Y26968282D01*
X11536695Y26961736D01*
X11536692Y26961733D01*
X11526463Y26948402D01*
X11469125Y26906534D01*
X11398254Y26902312D01*
X11336351Y26937075D01*
X11303070Y26999788D01*
X11300500Y27025105D01*
X11300500Y27127634D01*
X11300696Y27130307D01*
X11302425Y27135342D01*
X11301955Y27147884D01*
X11300589Y27184255D01*
X11300500Y27188981D01*
X11300500Y27207948D01*
X11299618Y27212683D01*
X11299390Y27216209D01*
X11298662Y27235585D01*
X11298226Y27247208D01*
X11293636Y27257893D01*
X11292599Y27262493D01*
X11289038Y27274214D01*
X11287339Y27278617D01*
X11285209Y27290053D01*
X11272272Y27311041D01*
X11263769Y27327411D01*
X11257549Y27341888D01*
X11257547Y27341892D01*
X11254036Y27350063D01*
X11250022Y27354949D01*
X11247837Y27357134D01*
X11245785Y27359397D01*
X11245945Y27359542D01*
X11238825Y27368549D01*
X11232573Y27375444D01*
X11226468Y27385348D01*
X11204680Y27401916D01*
X11191861Y27413110D01*
X10291572Y28313399D01*
X10257546Y28375711D01*
X10262611Y28446526D01*
X10305158Y28503362D01*
X10369689Y28528014D01*
X10374344Y28528421D01*
X10385310Y28528900D01*
X10708314Y28528900D01*
X10776435Y28508898D01*
X10808277Y28479604D01*
X10849318Y28426118D01*
X10855864Y28421095D01*
X10861203Y28416998D01*
X10974759Y28329864D01*
X11120838Y28269356D01*
X11129026Y28268278D01*
X11129626Y28268199D01*
X11277600Y28248718D01*
X11285788Y28249796D01*
X11290460Y28250411D01*
X11425574Y28268199D01*
X11426174Y28268278D01*
X11434362Y28269356D01*
X11580441Y28329864D01*
X11693997Y28416998D01*
X11699336Y28421095D01*
X11705882Y28426118D01*
X11802136Y28551559D01*
X11862644Y28697638D01*
X11869882Y28752615D01*
X11878744Y28819928D01*
X11907467Y28884855D01*
X11966732Y28923946D01*
X12020112Y28928403D01*
X12158412Y28910196D01*
X12166600Y28909118D01*
X12174788Y28910196D01*
X12217196Y28915779D01*
X12277324Y28923695D01*
X12315174Y28928678D01*
X12323362Y28929756D01*
X12469441Y28990264D01*
X12594882Y29086518D01*
X12691136Y29211959D01*
X12751644Y29358038D01*
X12759315Y29416308D01*
X12788037Y29481235D01*
X12847302Y29520327D01*
X12918293Y29521172D01*
X12970765Y29487304D01*
G37*
%TD.AperFunction*%
%TA.AperFunction,Conductor*%
G36*
X2142532Y30358040D02*
G01*
X2199368Y30315493D01*
X2224179Y30248973D01*
X2224500Y30239984D01*
X2224500Y24450895D01*
X2204498Y24382774D01*
X2150842Y24336281D01*
X2080568Y24326177D01*
X2021796Y24350932D01*
X1980299Y24382774D01*
X1912841Y24434536D01*
X1766762Y24495044D01*
X1752551Y24496915D01*
X1618188Y24514604D01*
X1610000Y24515682D01*
X1601812Y24514604D01*
X1467450Y24496915D01*
X1453238Y24495044D01*
X1307159Y24434536D01*
X1181718Y24338282D01*
X1176695Y24331736D01*
X1171912Y24325502D01*
X1103981Y24236972D01*
X1102311Y24234796D01*
X1044973Y24192929D01*
X1002348Y24185500D01*
X629300Y24185500D01*
X561179Y24205502D01*
X514686Y24259158D01*
X503300Y24311500D01*
X503300Y24770690D01*
X503780Y24781672D01*
X506103Y24808220D01*
X506103Y24808222D01*
X507064Y24819207D01*
X497308Y24855615D01*
X494930Y24866342D01*
X492678Y24879111D01*
X488388Y24903445D01*
X482877Y24912990D01*
X481685Y24916266D01*
X480208Y24919434D01*
X477354Y24930084D01*
X455745Y24960944D01*
X449839Y24970215D01*
X436508Y24993306D01*
X436505Y24993310D01*
X430994Y25002855D01*
X406624Y25023304D01*
X391101Y25038828D01*
X377744Y25054747D01*
X377740Y25054750D01*
X370655Y25063194D01*
X364265Y25066883D01*
X326182Y25124123D01*
X320500Y25161535D01*
X320500Y25279748D01*
X319572Y25284414D01*
X332707Y25353678D01*
X340108Y25366279D01*
X376972Y25421449D01*
X376973Y25421452D01*
X383867Y25431769D01*
X387438Y25449719D01*
X394293Y25484184D01*
X395500Y25490252D01*
X395500Y26362984D01*
X415502Y26431105D01*
X432405Y26452079D01*
X472921Y26492595D01*
X535233Y26526621D01*
X562016Y26529500D01*
X744316Y26529500D01*
X793173Y26535932D01*
X822654Y26549679D01*
X890411Y26581275D01*
X890412Y26581275D01*
X900404Y26585935D01*
X984065Y26669596D01*
X992207Y26687056D01*
X1029994Y26768090D01*
X1029994Y26768091D01*
X1034068Y26776827D01*
X1040500Y26825684D01*
X1040500Y27274316D01*
X1034068Y27323173D01*
X1024802Y27343045D01*
X988725Y27420411D01*
X988725Y27420412D01*
X984065Y27430404D01*
X900404Y27514065D01*
X860598Y27532627D01*
X801910Y27559994D01*
X801909Y27559994D01*
X793173Y27564068D01*
X744316Y27570500D01*
X395684Y27570500D01*
X346827Y27564068D01*
X338091Y27559994D01*
X338090Y27559994D01*
X279402Y27532627D01*
X239596Y27514065D01*
X195595Y27470064D01*
X133283Y27436038D01*
X62468Y27441103D01*
X5632Y27483650D01*
X-19179Y27550170D01*
X-19500Y27559159D01*
X-19500Y27614316D01*
X-25932Y27663173D01*
X-31357Y27674808D01*
X-71275Y27760411D01*
X-71275Y27760412D01*
X-75935Y27770404D01*
X-127595Y27822064D01*
X-161621Y27884376D01*
X-164500Y27911159D01*
X-164500Y28241770D01*
X-144498Y28309891D01*
X-127595Y28330865D01*
X-116776Y28341684D01*
X-107382Y28361828D01*
X-70102Y28441776D01*
X-70101Y28441778D01*
X-66028Y28450513D01*
X-59500Y28500099D01*
X-59501Y28919900D01*
X-66028Y28969487D01*
X-71590Y28981416D01*
X-112116Y29068323D01*
X-112117Y29068324D01*
X-116776Y29078316D01*
X-177595Y29139135D01*
X-211621Y29201447D01*
X-214500Y29228230D01*
X-214500Y29313514D01*
X-194498Y29381635D01*
X-188463Y29390217D01*
X-180493Y29400603D01*
X-180488Y29400611D01*
X-175464Y29407159D01*
X-114956Y29553238D01*
X-94318Y29710000D01*
X-109049Y29821891D01*
X-114930Y29866565D01*
X-103991Y29936714D01*
X-56862Y29989812D01*
X9992Y30009011D01*
X258473Y30009011D01*
X326594Y29989009D01*
X347568Y29972106D01*
X365889Y29953785D01*
X373315Y29945682D01*
X397545Y29916806D01*
X407094Y29911293D01*
X430185Y29897961D01*
X439456Y29892055D01*
X470316Y29870446D01*
X480966Y29867592D01*
X484134Y29866115D01*
X487410Y29864923D01*
X496955Y29859412D01*
X528909Y29853778D01*
X534058Y29852870D01*
X544785Y29850492D01*
X581193Y29840736D01*
X592169Y29841696D01*
X592172Y29841696D01*
X618743Y29844021D01*
X629724Y29844500D01*
X1370290Y29844500D01*
X1381272Y29844020D01*
X1407820Y29841697D01*
X1407822Y29841697D01*
X1418807Y29840736D01*
X1455215Y29850492D01*
X1465942Y29852870D01*
X1471091Y29853778D01*
X1503045Y29859412D01*
X1512590Y29864923D01*
X1515866Y29866115D01*
X1519034Y29867592D01*
X1529684Y29870446D01*
X1560544Y29892055D01*
X1569815Y29897961D01*
X1592906Y29911293D01*
X1602455Y29916806D01*
X1626685Y29945683D01*
X1634111Y29953785D01*
X2009405Y30329079D01*
X2071717Y30363105D01*
X2142532Y30358040D01*
G37*
%TD.AperFunction*%
%TA.AperFunction,Conductor*%
G36*
X27349345Y39779998D02*
G01*
X27395838Y39726342D01*
X27407221Y39674922D01*
X27448150Y34074604D01*
X27449997Y33821830D01*
X27450000Y33820909D01*
X27450000Y27811231D01*
X27429998Y27743110D01*
X27376342Y27696617D01*
X27306068Y27686513D01*
X27241488Y27716007D01*
X27234905Y27722136D01*
X27230305Y27726736D01*
X27225282Y27733282D01*
X27099841Y27829536D01*
X26953762Y27890044D01*
X26797000Y27910682D01*
X26640238Y27890044D01*
X26494159Y27829536D01*
X26368718Y27733282D01*
X26363695Y27726736D01*
X26360165Y27722136D01*
X26272464Y27607841D01*
X26211956Y27461762D01*
X26191318Y27305000D01*
X26211956Y27148238D01*
X26272464Y27002159D01*
X26313394Y26948818D01*
X26359908Y26888200D01*
X26368718Y26876718D01*
X26375264Y26871695D01*
X26375267Y26871692D01*
X26411054Y26844232D01*
X26452922Y26786894D01*
X26457144Y26716023D01*
X26423447Y26655174D01*
X26153911Y26385637D01*
X26108482Y26340208D01*
X26046169Y26306183D01*
X25975354Y26311247D01*
X25918518Y26353794D01*
X25894464Y26412857D01*
X25884522Y26488374D01*
X25883444Y26496562D01*
X25822936Y26642641D01*
X25726682Y26768082D01*
X25719666Y26773466D01*
X25650648Y26826425D01*
X25601241Y26864336D01*
X25455162Y26924844D01*
X25298400Y26945482D01*
X25141638Y26924844D01*
X24995559Y26864336D01*
X24946152Y26826425D01*
X24877135Y26773466D01*
X24870118Y26768082D01*
X24773864Y26642641D01*
X24713356Y26496562D01*
X24692718Y26339800D01*
X24693796Y26331612D01*
X24710242Y26206695D01*
X24713356Y26183038D01*
X24773864Y26036959D01*
X24870118Y25911518D01*
X24995559Y25815264D01*
X25141638Y25754756D01*
X25149826Y25753678D01*
X25220019Y25744437D01*
X25298400Y25734118D01*
X25306588Y25735196D01*
X25446974Y25753678D01*
X25455162Y25754756D01*
X25462790Y25757916D01*
X25462795Y25757917D01*
X25500283Y25773445D01*
X25570872Y25781034D01*
X25634359Y25749254D01*
X25670586Y25688196D01*
X25674500Y25657036D01*
X25674500Y25462707D01*
X25654498Y25394586D01*
X25600842Y25348093D01*
X25595295Y25346302D01*
X25595405Y25346037D01*
X25583939Y25341288D01*
X25571769Y25338867D01*
X25561453Y25331974D01*
X25549983Y25327223D01*
X25548445Y25330937D01*
X25502249Y25316472D01*
X25451711Y25331312D01*
X25450017Y25327223D01*
X25438547Y25331974D01*
X25428231Y25338867D01*
X25416062Y25341288D01*
X25416061Y25341288D01*
X25375816Y25349293D01*
X25369748Y25350500D01*
X24630252Y25350500D01*
X24624184Y25349293D01*
X24583939Y25341288D01*
X24583938Y25341288D01*
X24571769Y25338867D01*
X24561453Y25331974D01*
X24549983Y25327223D01*
X24548445Y25330937D01*
X24502249Y25316472D01*
X24451711Y25331312D01*
X24450017Y25327223D01*
X24438547Y25331974D01*
X24428231Y25338867D01*
X24416061Y25341288D01*
X24404595Y25346037D01*
X24406218Y25349956D01*
X24364007Y25372037D01*
X24328877Y25433733D01*
X24325500Y25462707D01*
X24325500Y26627890D01*
X24325980Y26638872D01*
X24328303Y26665420D01*
X24328303Y26665422D01*
X24329264Y26676407D01*
X24319508Y26712815D01*
X24317130Y26723542D01*
X24314579Y26738010D01*
X24310588Y26760645D01*
X24305077Y26770190D01*
X24303885Y26773466D01*
X24302408Y26776634D01*
X24299554Y26787284D01*
X24277945Y26818144D01*
X24272039Y26827415D01*
X24258707Y26850506D01*
X24253194Y26860055D01*
X24224317Y26884285D01*
X24216215Y26891711D01*
X23561311Y27546615D01*
X23553884Y27554719D01*
X23542905Y27567803D01*
X23529655Y27583594D01*
X23504547Y27598090D01*
X23497015Y27602439D01*
X23487744Y27608345D01*
X23479108Y27614392D01*
X23456884Y27629954D01*
X23446234Y27632808D01*
X23443066Y27634285D01*
X23439790Y27635477D01*
X23430245Y27640988D01*
X23396501Y27646938D01*
X23393142Y27647530D01*
X23382415Y27649908D01*
X23346007Y27659664D01*
X23335022Y27658703D01*
X23335020Y27658703D01*
X23308472Y27656380D01*
X23297490Y27655900D01*
X20365100Y27655900D01*
X20296979Y27675902D01*
X20250486Y27729558D01*
X20239100Y27781900D01*
X20239100Y29224037D01*
X24775757Y29224037D01*
X24792175Y29028517D01*
X24846258Y28839909D01*
X24849076Y28834426D01*
X24933123Y28670887D01*
X24933126Y28670883D01*
X24935944Y28665399D01*
X25057818Y28511631D01*
X25062511Y28507637D01*
X25062512Y28507636D01*
X25201126Y28389667D01*
X25207238Y28384465D01*
X25212616Y28381459D01*
X25212618Y28381458D01*
X25281023Y28343228D01*
X25378513Y28288743D01*
X25565118Y28228111D01*
X25759946Y28204879D01*
X25766081Y28205351D01*
X25766083Y28205351D01*
X25949434Y28219459D01*
X25949438Y28219460D01*
X25955576Y28219932D01*
X26144556Y28272697D01*
X26319689Y28361163D01*
X26332484Y28371159D01*
X26406436Y28428937D01*
X26474303Y28481960D01*
X26479033Y28487439D01*
X26598485Y28625827D01*
X26598485Y28625828D01*
X26602509Y28630489D01*
X26609989Y28643655D01*
X26653526Y28720295D01*
X26699425Y28801091D01*
X26761358Y28987268D01*
X26785949Y29181929D01*
X26786341Y29210000D01*
X26767194Y29405272D01*
X26765413Y29411171D01*
X26765412Y29411176D01*
X26712265Y29587207D01*
X26710484Y29593106D01*
X26618370Y29766347D01*
X26494361Y29918398D01*
X26343180Y30043465D01*
X26170585Y30136787D01*
X26046638Y30175155D01*
X25989039Y30192985D01*
X25989036Y30192986D01*
X25983152Y30194807D01*
X25977027Y30195451D01*
X25977026Y30195451D01*
X25794147Y30214673D01*
X25794146Y30214673D01*
X25788019Y30215317D01*
X25683281Y30205785D01*
X25598759Y30198093D01*
X25598758Y30198093D01*
X25592618Y30197534D01*
X25586704Y30195793D01*
X25586702Y30195793D01*
X25490120Y30167367D01*
X25404393Y30142136D01*
X25398928Y30139279D01*
X25235972Y30054088D01*
X25235968Y30054085D01*
X25230512Y30051233D01*
X25225712Y30047373D01*
X25225711Y30047373D01*
X25215715Y30039336D01*
X25077600Y29928289D01*
X24951480Y29777984D01*
X24948516Y29772592D01*
X24948513Y29772588D01*
X24904890Y29693238D01*
X24856956Y29606046D01*
X24855095Y29600179D01*
X24855094Y29600177D01*
X24835792Y29539329D01*
X24797628Y29419022D01*
X24775757Y29224037D01*
X20239100Y29224037D01*
X20239100Y30307890D01*
X20239580Y30318872D01*
X20241903Y30345420D01*
X20241903Y30345422D01*
X20242864Y30356407D01*
X20233108Y30392815D01*
X20230730Y30403542D01*
X20228323Y30417193D01*
X20224188Y30440645D01*
X20218677Y30450190D01*
X20217485Y30453466D01*
X20216008Y30456634D01*
X20213154Y30467284D01*
X20191545Y30498144D01*
X20185639Y30507415D01*
X20172307Y30530506D01*
X20166794Y30540055D01*
X20137917Y30564285D01*
X20129815Y30571711D01*
X19344911Y31356615D01*
X19337484Y31364719D01*
X19320341Y31385149D01*
X19320342Y31385149D01*
X19313255Y31393594D01*
X19303706Y31399107D01*
X19280615Y31412439D01*
X19271344Y31418345D01*
X19249515Y31433630D01*
X19240484Y31439954D01*
X19229834Y31442808D01*
X19226666Y31444285D01*
X19223390Y31445477D01*
X19213845Y31450988D01*
X19180101Y31456938D01*
X19176742Y31457530D01*
X19166015Y31459908D01*
X19129607Y31469664D01*
X19118622Y31468703D01*
X19118620Y31468703D01*
X19092072Y31466380D01*
X19081090Y31465900D01*
X16239816Y31465900D01*
X16171695Y31485902D01*
X16150721Y31502805D01*
X14412311Y33241215D01*
X14404884Y33249319D01*
X14387741Y33269749D01*
X14387742Y33269749D01*
X14380655Y33278194D01*
X14363383Y33288166D01*
X14348015Y33297039D01*
X14338744Y33302945D01*
X14316915Y33318230D01*
X14307884Y33324554D01*
X14297234Y33327408D01*
X14294066Y33328885D01*
X14290790Y33330077D01*
X14281245Y33335588D01*
X14247501Y33341538D01*
X14244142Y33342130D01*
X14233415Y33344508D01*
X14197007Y33354264D01*
X14186022Y33353303D01*
X14186020Y33353303D01*
X14159472Y33350980D01*
X14148490Y33350500D01*
X13802405Y33350500D01*
X13734284Y33370502D01*
X13687791Y33424158D01*
X13677687Y33494432D01*
X13702442Y33553204D01*
X13716941Y33572099D01*
X13774536Y33647159D01*
X13835044Y33793238D01*
X13836969Y33807856D01*
X13854604Y33941812D01*
X13855682Y33950000D01*
X13835044Y34106762D01*
X13830752Y34117125D01*
X13826648Y34127031D01*
X13774536Y34252841D01*
X13696693Y34354288D01*
X13683305Y34371736D01*
X13678282Y34378282D01*
X13640193Y34407509D01*
X13562158Y34467387D01*
X13520291Y34524725D01*
X13516069Y34595596D01*
X13550833Y34657499D01*
X13562158Y34667312D01*
X13636370Y34724257D01*
X13636374Y34724261D01*
X13642920Y34729284D01*
X13739174Y34854725D01*
X13799682Y35000804D01*
X13809468Y35075140D01*
X13838190Y35140067D01*
X13897455Y35179159D01*
X13968446Y35180004D01*
X14023485Y35147789D01*
X14778278Y34392996D01*
X14785705Y34384892D01*
X14809934Y34356017D01*
X14819483Y34350504D01*
X14842574Y34337172D01*
X14851839Y34331270D01*
X14865626Y34321616D01*
X14893315Y34295110D01*
X14980929Y34180929D01*
X15106370Y34084675D01*
X15252449Y34024167D01*
X15409211Y34003529D01*
X15417399Y34004607D01*
X15557785Y34023089D01*
X15565973Y34024167D01*
X15712052Y34084675D01*
X15837493Y34180929D01*
X15933747Y34306370D01*
X15994255Y34452449D01*
X16014893Y34609211D01*
X16006340Y34674176D01*
X16017279Y34744324D01*
X16064407Y34797423D01*
X16132761Y34816613D01*
X16200639Y34795802D01*
X16220357Y34779717D01*
X16279995Y34720079D01*
X16314021Y34657767D01*
X16316900Y34630984D01*
X16316900Y33636966D01*
X16319881Y33605431D01*
X16364766Y33477616D01*
X16370358Y33470046D01*
X16370359Y33470043D01*
X16405273Y33422774D01*
X16445250Y33368650D01*
X16452821Y33363058D01*
X16546643Y33293759D01*
X16546646Y33293758D01*
X16554216Y33288166D01*
X16682031Y33243281D01*
X16689677Y33242558D01*
X16689678Y33242558D01*
X16695648Y33241994D01*
X16713566Y33240300D01*
X17471234Y33240300D01*
X17489152Y33241994D01*
X17495122Y33242558D01*
X17495123Y33242558D01*
X17502769Y33243281D01*
X17630584Y33288166D01*
X17638154Y33293758D01*
X17638157Y33293759D01*
X17731979Y33363058D01*
X17739550Y33368650D01*
X17779527Y33422774D01*
X17814441Y33470043D01*
X17814442Y33470046D01*
X17820034Y33477616D01*
X17864919Y33605431D01*
X17867900Y33636966D01*
X17867900Y35044634D01*
X17864919Y35076169D01*
X17820034Y35203984D01*
X17814442Y35211554D01*
X17814441Y35211557D01*
X17745142Y35305379D01*
X17739550Y35312950D01*
X17715131Y35330986D01*
X17638157Y35387841D01*
X17638154Y35387842D01*
X17630584Y35393434D01*
X17502769Y35438319D01*
X17495123Y35439042D01*
X17495122Y35439042D01*
X17489152Y35439606D01*
X17471234Y35441300D01*
X16713566Y35441300D01*
X16695648Y35439606D01*
X16689678Y35439042D01*
X16689677Y35439042D01*
X16682031Y35438319D01*
X16674784Y35435774D01*
X16609080Y35412701D01*
X16538180Y35409003D01*
X16478237Y35442489D01*
X16047438Y35873288D01*
X16020124Y35914165D01*
X15967736Y36040641D01*
X15871482Y36166082D01*
X15746041Y36262336D01*
X15599962Y36322844D01*
X15443200Y36343482D01*
X15286438Y36322844D01*
X15278811Y36319685D01*
X15278808Y36319684D01*
X15237504Y36302575D01*
X15166914Y36294986D01*
X15103427Y36326765D01*
X15067200Y36387824D01*
X15064953Y36425559D01*
X15064152Y36425559D01*
X15064152Y36433817D01*
X15065230Y36442005D01*
X15048139Y36571826D01*
X15045670Y36590579D01*
X15044592Y36598767D01*
X14984084Y36744846D01*
X14907457Y36844709D01*
X14892853Y36863741D01*
X14887830Y36870287D01*
X14762389Y36966541D01*
X14616310Y37027049D01*
X14459548Y37047687D01*
X14302786Y37027049D01*
X14156707Y36966541D01*
X14121061Y36939189D01*
X14039672Y36876737D01*
X13973452Y36851137D01*
X13962968Y36850700D01*
X11621742Y36850700D01*
X11553621Y36870702D01*
X11507128Y36924358D01*
X11497024Y36994632D01*
X11521779Y37053403D01*
X11569507Y37115604D01*
X11569509Y37115608D01*
X11574536Y37122159D01*
X11635044Y37268238D01*
X11655682Y37425000D01*
X11635044Y37581762D01*
X11574536Y37727841D01*
X11478282Y37853282D01*
X11352841Y37949536D01*
X11206762Y38010044D01*
X11069128Y38028164D01*
X11013306Y38049873D01*
X10985484Y38069354D01*
X10974834Y38072208D01*
X10971666Y38073685D01*
X10968390Y38074877D01*
X10958845Y38080388D01*
X10925101Y38086338D01*
X10921742Y38086930D01*
X10911015Y38089308D01*
X10874607Y38099064D01*
X10863622Y38098103D01*
X10863620Y38098103D01*
X10837072Y38095780D01*
X10826090Y38095300D01*
X10535313Y38095300D01*
X10524332Y38095779D01*
X10497771Y38098103D01*
X10497769Y38098103D01*
X10486793Y38099063D01*
X10483364Y38098144D01*
X10418275Y38111224D01*
X10367282Y38160623D01*
X10351974Y38206311D01*
X10339722Y38299374D01*
X10338644Y38307562D01*
X10278136Y38453641D01*
X10196579Y38559928D01*
X10186905Y38572536D01*
X10181882Y38579082D01*
X10056441Y38675336D01*
X9910362Y38735844D01*
X9753600Y38756482D01*
X9596838Y38735844D01*
X9450759Y38675336D01*
X9325318Y38579082D01*
X9320295Y38572536D01*
X9310621Y38559928D01*
X9229064Y38453641D01*
X9225904Y38446013D01*
X9225085Y38444594D01*
X9196956Y38411070D01*
X9195092Y38409506D01*
X9185545Y38403994D01*
X9161315Y38375118D01*
X9153889Y38367015D01*
X9054785Y38267911D01*
X9046681Y38260484D01*
X9017806Y38236255D01*
X9012293Y38226706D01*
X8998961Y38203615D01*
X8993055Y38194344D01*
X8971446Y38163484D01*
X8968592Y38152834D01*
X8967115Y38149666D01*
X8965923Y38146390D01*
X8960412Y38136845D01*
X8954661Y38104225D01*
X8953870Y38099742D01*
X8951492Y38089015D01*
X8941736Y38052607D01*
X8942697Y38041622D01*
X8942697Y38041620D01*
X8945020Y38015072D01*
X8945500Y38004090D01*
X8945500Y37701632D01*
X8936096Y37654354D01*
X8929733Y37644831D01*
X8918100Y37586348D01*
X8918100Y36734052D01*
X8919307Y36727984D01*
X8927080Y36688908D01*
X8929733Y36675569D01*
X8974048Y36609248D01*
X9040369Y36564933D01*
X9052538Y36562512D01*
X9052539Y36562512D01*
X9084303Y36556194D01*
X9098852Y36553300D01*
X9443148Y36553300D01*
X9457697Y36556194D01*
X9489461Y36562512D01*
X9489462Y36562512D01*
X9501631Y36564933D01*
X9567952Y36609248D01*
X9612267Y36675569D01*
X9614921Y36688908D01*
X9622693Y36727984D01*
X9623900Y36734052D01*
X9623900Y37420196D01*
X9643902Y37488317D01*
X9697558Y37534810D01*
X9748208Y37545828D01*
X9753600Y37545118D01*
X9791654Y37550128D01*
X9861802Y37539189D01*
X9914901Y37492061D01*
X9934100Y37425206D01*
X9934100Y36734052D01*
X9935307Y36727984D01*
X9943080Y36688908D01*
X9945733Y36675569D01*
X9990048Y36609248D01*
X10056369Y36564933D01*
X10068538Y36562512D01*
X10068539Y36562512D01*
X10100303Y36556194D01*
X10114852Y36553300D01*
X10189100Y36553300D01*
X10257221Y36533298D01*
X10303714Y36479642D01*
X10315100Y36427300D01*
X10315100Y36353052D01*
X10325141Y36302575D01*
X10326492Y36295782D01*
X10326492Y36246619D01*
X10315100Y36189348D01*
X10315100Y35845052D01*
X10325798Y35791271D01*
X10326492Y35787782D01*
X10326492Y35738619D01*
X10315100Y35681348D01*
X10315100Y35337052D01*
X10321401Y35305379D01*
X10323966Y35292482D01*
X10323966Y35243320D01*
X10315100Y35198748D01*
X10315100Y34854452D01*
X10322913Y34815174D01*
X10326492Y34797182D01*
X10326492Y34748019D01*
X10315100Y34690748D01*
X10315100Y34346452D01*
X10325242Y34295464D01*
X10326492Y34289182D01*
X10326492Y34240019D01*
X10315100Y34182748D01*
X10315100Y33838452D01*
X10325565Y33785841D01*
X10326492Y33781182D01*
X10326492Y33732019D01*
X10315100Y33674748D01*
X10315100Y33330452D01*
X10323905Y33286189D01*
X10323966Y33285882D01*
X10323966Y33236720D01*
X10315100Y33192148D01*
X10315100Y32847852D01*
X10322838Y32808952D01*
X10326492Y32790582D01*
X10326492Y32741419D01*
X10315100Y32684148D01*
X10315100Y32339852D01*
X10326492Y32282582D01*
X10326492Y32233419D01*
X10315100Y32176148D01*
X10315100Y32101900D01*
X10295098Y32033779D01*
X10241442Y31987286D01*
X10189100Y31975900D01*
X10114852Y31975900D01*
X10057581Y31964508D01*
X10008419Y31964508D01*
X9951148Y31975900D01*
X9606852Y31975900D01*
X9600784Y31974693D01*
X9560539Y31966688D01*
X9560538Y31966688D01*
X9548369Y31964267D01*
X9538053Y31957374D01*
X9525000Y31948652D01*
X9482048Y31919952D01*
X9437733Y31853631D01*
X9435312Y31841462D01*
X9435312Y31841461D01*
X9429428Y31811877D01*
X9426100Y31795148D01*
X9426100Y30942852D01*
X9437733Y30884369D01*
X9444096Y30874846D01*
X9453500Y30827568D01*
X9453500Y30465710D01*
X9453020Y30454728D01*
X9451196Y30433877D01*
X9449736Y30417193D01*
X9452590Y30406544D01*
X9459491Y30380790D01*
X9461870Y30370058D01*
X9468412Y30332955D01*
X9473923Y30323410D01*
X9475115Y30320134D01*
X9476592Y30316966D01*
X9479446Y30306316D01*
X9499076Y30278282D01*
X9501055Y30275456D01*
X9506961Y30266185D01*
X9516899Y30248973D01*
X9525806Y30233545D01*
X9548297Y30214673D01*
X9554681Y30209316D01*
X9562785Y30201889D01*
X9742291Y30022383D01*
X9776317Y29960071D01*
X9778118Y29916843D01*
X9769318Y29850000D01*
X9789956Y29693238D01*
X9793116Y29685609D01*
X9795254Y29677630D01*
X9792785Y29676968D01*
X9799003Y29619127D01*
X9767223Y29555641D01*
X9706165Y29519414D01*
X9675005Y29515500D01*
X9397018Y29515500D01*
X9328897Y29535502D01*
X9307923Y29552404D01*
X9150805Y29709521D01*
X9116780Y29771833D01*
X9113900Y29798617D01*
X9113900Y30827568D01*
X9123304Y30874846D01*
X9129667Y30884369D01*
X9141300Y30942852D01*
X9141300Y31795148D01*
X9137972Y31811877D01*
X9132088Y31841461D01*
X9132088Y31841462D01*
X9129667Y31853631D01*
X9085352Y31919952D01*
X9042400Y31948652D01*
X9029347Y31957374D01*
X9019031Y31964267D01*
X9006862Y31966688D01*
X9006861Y31966688D01*
X8966616Y31974693D01*
X8960548Y31975900D01*
X8616252Y31975900D01*
X8610184Y31974693D01*
X8569939Y31966688D01*
X8569938Y31966688D01*
X8557769Y31964267D01*
X8547453Y31957374D01*
X8534400Y31948652D01*
X8491448Y31919952D01*
X8447133Y31853631D01*
X8444712Y31841462D01*
X8444712Y31841461D01*
X8438828Y31811877D01*
X8435500Y31795148D01*
X8435500Y30942852D01*
X8447133Y30884369D01*
X8453496Y30874846D01*
X8462900Y30827568D01*
X8462900Y30677189D01*
X8442898Y30609068D01*
X8389242Y30562575D01*
X8318968Y30552471D01*
X8260196Y30577226D01*
X8173292Y30643909D01*
X8166741Y30648936D01*
X8160441Y30651546D01*
X8111907Y30702445D01*
X8097900Y30760183D01*
X8097900Y30827568D01*
X8107304Y30874846D01*
X8113667Y30884369D01*
X8125300Y30942852D01*
X8125300Y31795148D01*
X8121972Y31811877D01*
X8116088Y31841461D01*
X8116088Y31841462D01*
X8113667Y31853631D01*
X8069352Y31919952D01*
X8026400Y31948652D01*
X8013347Y31957374D01*
X8003031Y31964267D01*
X7990862Y31966688D01*
X7990861Y31966688D01*
X7950616Y31974693D01*
X7944548Y31975900D01*
X7600252Y31975900D01*
X7542981Y31964508D01*
X7493819Y31964508D01*
X7436548Y31975900D01*
X7092252Y31975900D01*
X7047680Y31967034D01*
X6998520Y31967034D01*
X6953948Y31975900D01*
X6609652Y31975900D01*
X6552381Y31964508D01*
X6503219Y31964508D01*
X6445948Y31975900D01*
X6101652Y31975900D01*
X6044381Y31964508D01*
X5995219Y31964508D01*
X5937948Y31975900D01*
X5863700Y31975900D01*
X5795579Y31995902D01*
X5749086Y32049558D01*
X5737700Y32101900D01*
X5737700Y32176148D01*
X5726308Y32233419D01*
X5726308Y32282582D01*
X5737700Y32339852D01*
X5737700Y32684148D01*
X5729616Y32724789D01*
X5728488Y32730461D01*
X5728488Y32730462D01*
X5726067Y32742631D01*
X5681752Y32808952D01*
X5615431Y32853267D01*
X5603262Y32855688D01*
X5603261Y32855688D01*
X5563016Y32863693D01*
X5556948Y32864900D01*
X4704652Y32864900D01*
X4698584Y32863693D01*
X4658339Y32855688D01*
X4658338Y32855688D01*
X4646169Y32853267D01*
X4635852Y32846373D01*
X4635849Y32846372D01*
X4616938Y32833736D01*
X4546935Y32812500D01*
X4421166Y32812500D01*
X4418493Y32812696D01*
X4413458Y32814425D01*
X4401836Y32813989D01*
X4401834Y32813989D01*
X4364545Y32812589D01*
X4359819Y32812500D01*
X4340852Y32812500D01*
X4336117Y32811618D01*
X4332591Y32811390D01*
X4328851Y32811249D01*
X4301592Y32810226D01*
X4290907Y32805636D01*
X4286307Y32804599D01*
X4274586Y32801038D01*
X4270183Y32799339D01*
X4258747Y32797209D01*
X4237761Y32784273D01*
X4221389Y32775769D01*
X4206912Y32769549D01*
X4206908Y32769547D01*
X4198737Y32766036D01*
X4193851Y32762022D01*
X4191666Y32759837D01*
X4189403Y32757785D01*
X4189258Y32757945D01*
X4180251Y32750825D01*
X4173356Y32744573D01*
X4163452Y32738468D01*
X4146884Y32716680D01*
X4135690Y32703861D01*
X3451544Y32019715D01*
X3389232Y31985689D01*
X3318417Y31990754D01*
X3261581Y32033301D01*
X3236770Y32099821D01*
X3247354Y32157176D01*
X3249553Y32160316D01*
X3252406Y32170962D01*
X3253883Y32174130D01*
X3255076Y32177407D01*
X3260588Y32186955D01*
X3267132Y32224069D01*
X3269512Y32234804D01*
X3276410Y32260546D01*
X3279263Y32271193D01*
X3275979Y32308731D01*
X3275500Y32319712D01*
X3275500Y33588975D01*
X3295502Y33657096D01*
X3349158Y33703589D01*
X3419432Y33713693D01*
X3484012Y33684199D01*
X3501463Y33665679D01*
X3545999Y33607639D01*
X3584918Y33556918D01*
X3591464Y33551895D01*
X3607167Y33539846D01*
X3710359Y33460664D01*
X3856438Y33400156D01*
X3864626Y33399078D01*
X3909168Y33393214D01*
X4013200Y33379518D01*
X4021388Y33380596D01*
X4049645Y33384316D01*
X4117232Y33393214D01*
X4161774Y33399078D01*
X4169962Y33400156D01*
X4316041Y33460664D01*
X4419233Y33539846D01*
X4434936Y33551895D01*
X4441482Y33556918D01*
X4498973Y33631841D01*
X4556310Y33673708D01*
X4627181Y33677930D01*
X4638918Y33674178D01*
X4646169Y33669333D01*
X4658338Y33666912D01*
X4658339Y33666912D01*
X4692114Y33660194D01*
X4704652Y33657700D01*
X5556948Y33657700D01*
X5569486Y33660194D01*
X5603261Y33666912D01*
X5603262Y33666912D01*
X5615431Y33669333D01*
X5629230Y33678553D01*
X5671439Y33706757D01*
X5681752Y33713648D01*
X5726067Y33779969D01*
X5728707Y33793238D01*
X5736493Y33832384D01*
X5736493Y33832386D01*
X5737700Y33838452D01*
X5737700Y34182748D01*
X5726067Y34241231D01*
X5681752Y34307552D01*
X5615431Y34351867D01*
X5603262Y34354288D01*
X5603261Y34354288D01*
X5563016Y34362293D01*
X5556948Y34363500D01*
X4704652Y34363500D01*
X4646169Y34351867D01*
X4636646Y34345504D01*
X4589368Y34336100D01*
X4562996Y34336100D01*
X4494875Y34356102D01*
X4463033Y34385396D01*
X4446505Y34406936D01*
X4441482Y34413482D01*
X4316041Y34509736D01*
X4169962Y34570244D01*
X4013200Y34590882D01*
X3856438Y34570244D01*
X3710359Y34509736D01*
X3584918Y34413482D01*
X3579895Y34406936D01*
X3555696Y34375399D01*
X3501508Y34304779D01*
X3501463Y34304721D01*
X3444125Y34262854D01*
X3373254Y34258632D01*
X3311351Y34293396D01*
X3278070Y34356109D01*
X3275500Y34381425D01*
X3275500Y34762983D01*
X3295502Y34831104D01*
X3312405Y34852079D01*
X3607123Y35146796D01*
X3669435Y35180821D01*
X3696218Y35183700D01*
X4589368Y35183700D01*
X4636646Y35174296D01*
X4646169Y35167933D01*
X4704652Y35156300D01*
X5556948Y35156300D01*
X5563313Y35157566D01*
X5603261Y35165512D01*
X5603262Y35165512D01*
X5615431Y35167933D01*
X5681752Y35212248D01*
X5726067Y35278569D01*
X5728835Y35292482D01*
X5736493Y35330984D01*
X5736493Y35330986D01*
X5737700Y35337052D01*
X5737700Y35681348D01*
X5733576Y35702079D01*
X5728488Y35727661D01*
X5728488Y35727662D01*
X5726067Y35739831D01*
X5681752Y35806152D01*
X5615431Y35850467D01*
X5603262Y35852888D01*
X5603261Y35852888D01*
X5563016Y35860893D01*
X5556948Y35862100D01*
X4704652Y35862100D01*
X4646169Y35850467D01*
X4636646Y35844104D01*
X4589368Y35834700D01*
X3528913Y35834700D01*
X3517932Y35835179D01*
X3491370Y35837503D01*
X3491368Y35837503D01*
X3480393Y35838463D01*
X3443983Y35828708D01*
X3433276Y35826334D01*
X3396155Y35819788D01*
X3386611Y35814278D01*
X3383335Y35813086D01*
X3380164Y35811607D01*
X3369516Y35808754D01*
X3360487Y35802432D01*
X3338649Y35787141D01*
X3329379Y35781236D01*
X3306292Y35767907D01*
X3306288Y35767904D01*
X3296745Y35762394D01*
X3282571Y35745502D01*
X3272525Y35733530D01*
X3265100Y35725427D01*
X3004867Y35465193D01*
X2790596Y35250922D01*
X2728283Y35216897D01*
X2657468Y35221961D01*
X2600632Y35264508D01*
X2575821Y35331028D01*
X2575500Y35340017D01*
X2575500Y35612984D01*
X2595502Y35681105D01*
X2612405Y35702079D01*
X3073121Y36162795D01*
X3135433Y36196821D01*
X3162216Y36199700D01*
X4589368Y36199700D01*
X4636646Y36190296D01*
X4646169Y36183933D01*
X4704652Y36172300D01*
X5556948Y36172300D01*
X5563016Y36173507D01*
X5603261Y36181512D01*
X5603262Y36181512D01*
X5615431Y36183933D01*
X5681752Y36228248D01*
X5726067Y36294569D01*
X5731525Y36322005D01*
X5736493Y36346984D01*
X5736493Y36346986D01*
X5737700Y36353052D01*
X5737700Y36551791D01*
X5757702Y36619912D01*
X5811358Y36666405D01*
X5881632Y36676509D01*
X5946212Y36647015D01*
X5968465Y36621793D01*
X5969955Y36619563D01*
X5969957Y36619561D01*
X5976848Y36609248D01*
X6043169Y36564933D01*
X6055338Y36562512D01*
X6055339Y36562512D01*
X6087103Y36556194D01*
X6101652Y36553300D01*
X6445948Y36553300D01*
X6460497Y36556194D01*
X6492261Y36562512D01*
X6492262Y36562512D01*
X6504431Y36564933D01*
X6570752Y36609248D01*
X6615067Y36675569D01*
X6617721Y36688908D01*
X6625493Y36727984D01*
X6626700Y36734052D01*
X6626700Y37586348D01*
X6615067Y37644831D01*
X6608704Y37654354D01*
X6599300Y37701632D01*
X6599300Y37898984D01*
X6619302Y37967105D01*
X6672958Y38013598D01*
X6743232Y38023702D01*
X6807812Y37994208D01*
X6814395Y37988079D01*
X6901995Y37900479D01*
X6936021Y37838167D01*
X6938900Y37811384D01*
X6938900Y37701632D01*
X6929496Y37654354D01*
X6923133Y37644831D01*
X6911500Y37586348D01*
X6911500Y36734052D01*
X6912707Y36727984D01*
X6920480Y36688908D01*
X6923133Y36675569D01*
X6967448Y36609248D01*
X7033769Y36564933D01*
X7045938Y36562512D01*
X7045939Y36562512D01*
X7077703Y36556194D01*
X7092252Y36553300D01*
X7436548Y36553300D01*
X7493819Y36564692D01*
X7542981Y36564692D01*
X7600252Y36553300D01*
X7944548Y36553300D01*
X8001819Y36564692D01*
X8050981Y36564692D01*
X8108252Y36553300D01*
X8452548Y36553300D01*
X8467097Y36556194D01*
X8498861Y36562512D01*
X8498862Y36562512D01*
X8511031Y36564933D01*
X8577352Y36609248D01*
X8621667Y36675569D01*
X8624321Y36688908D01*
X8632093Y36727984D01*
X8633300Y36734052D01*
X8633300Y37586348D01*
X8621667Y37644831D01*
X8615304Y37654354D01*
X8605900Y37701632D01*
X8605900Y38637090D01*
X8606380Y38648072D01*
X8608703Y38674620D01*
X8608703Y38674622D01*
X8609664Y38685607D01*
X8599908Y38722015D01*
X8597530Y38732742D01*
X8595533Y38744065D01*
X8590988Y38769845D01*
X8585477Y38779390D01*
X8584285Y38782666D01*
X8582808Y38785834D01*
X8579954Y38796484D01*
X8558345Y38827344D01*
X8552439Y38836615D01*
X8539107Y38859706D01*
X8533594Y38869255D01*
X8504717Y38893485D01*
X8496615Y38900911D01*
X8481005Y38916521D01*
X8446979Y38978833D01*
X8444100Y39005616D01*
X8444100Y39187916D01*
X8443812Y39190105D01*
X8459219Y39258954D01*
X8509720Y39308857D01*
X8569445Y39323911D01*
X20971173Y39323911D01*
X21039294Y39303909D01*
X21060268Y39287006D01*
X21354595Y38992679D01*
X21388621Y38930367D01*
X21391500Y38903584D01*
X21391500Y35020910D01*
X21391020Y35009928D01*
X21388786Y34984391D01*
X21387736Y34972393D01*
X21390591Y34961740D01*
X21391021Y34956821D01*
X21391500Y34945839D01*
X21391500Y33767086D01*
X21371498Y33698965D01*
X21342204Y33667123D01*
X21295335Y33631159D01*
X21288718Y33626082D01*
X21192464Y33500641D01*
X21131956Y33354562D01*
X21130878Y33346374D01*
X21130445Y33343085D01*
X21111318Y33197800D01*
X21131956Y33041038D01*
X21192464Y32894959D01*
X21288718Y32769518D01*
X21414159Y32673264D01*
X21560238Y32612756D01*
X21717000Y32592118D01*
X21725188Y32593196D01*
X21727042Y32593440D01*
X21873762Y32612756D01*
X22019841Y32673264D01*
X22145282Y32769518D01*
X22241536Y32894959D01*
X22302044Y33041038D01*
X22309494Y33097629D01*
X22318878Y33168904D01*
X22347601Y33233831D01*
X22406866Y33272922D01*
X22460244Y33277379D01*
X22504899Y33271500D01*
X22684734Y33271500D01*
X22864700Y33271501D01*
X22914287Y33278028D01*
X22929340Y33285047D01*
X23013123Y33324116D01*
X23013124Y33324117D01*
X23023116Y33328776D01*
X23108024Y33413684D01*
X23124158Y33448282D01*
X23154698Y33513776D01*
X23154698Y33513777D01*
X23158772Y33522513D01*
X23165300Y33572099D01*
X23165299Y33991900D01*
X23158772Y34041487D01*
X23147666Y34065305D01*
X23112684Y34140323D01*
X23112683Y34140324D01*
X23108024Y34150316D01*
X23023116Y34235224D01*
X23013123Y34239884D01*
X23004631Y34245830D01*
X22960302Y34301288D01*
X22952994Y34371907D01*
X22987807Y34438138D01*
X23068865Y34519196D01*
X23069553Y34518508D01*
X23117047Y34556469D01*
X23187667Y34563777D01*
X23251026Y34531744D01*
X23259379Y34522104D01*
X23260735Y34519196D01*
X23344396Y34435535D01*
X23354388Y34430875D01*
X23354389Y34430875D01*
X23441842Y34390095D01*
X23451627Y34385532D01*
X23492687Y34380126D01*
X23494400Y34379901D01*
X23500484Y34379100D01*
X23849116Y34379100D01*
X23855201Y34379901D01*
X23856913Y34380126D01*
X23897973Y34385532D01*
X23907750Y34390091D01*
X24003920Y34434936D01*
X24074112Y34445597D01*
X24138924Y34416617D01*
X24147807Y34407264D01*
X24148052Y34407509D01*
X24153890Y34401671D01*
X24158918Y34395118D01*
X24165468Y34390092D01*
X24165469Y34390091D01*
X24212129Y34354288D01*
X24284359Y34298864D01*
X24430438Y34238356D01*
X24438626Y34237278D01*
X24472997Y34232753D01*
X24587200Y34217718D01*
X24595388Y34218796D01*
X24735774Y34237278D01*
X24743962Y34238356D01*
X24890041Y34298864D01*
X25015482Y34395118D01*
X25111736Y34520559D01*
X25167676Y34655609D01*
X25169084Y34659009D01*
X25172244Y34666638D01*
X25192882Y34823400D01*
X25172244Y34980162D01*
X25111736Y35126241D01*
X25015482Y35251682D01*
X24890041Y35347936D01*
X24743962Y35408444D01*
X24716314Y35412084D01*
X24595388Y35428004D01*
X24587200Y35429082D01*
X24579012Y35428004D01*
X24458087Y35412084D01*
X24430438Y35408444D01*
X24284359Y35347936D01*
X24277810Y35342911D01*
X24277807Y35342909D01*
X24248918Y35320741D01*
X24222970Y35300831D01*
X24156750Y35275230D01*
X24087202Y35289494D01*
X24057171Y35311698D01*
X24005204Y35363665D01*
X23995211Y35368325D01*
X23906710Y35409594D01*
X23906709Y35409594D01*
X23897973Y35413668D01*
X23849116Y35420100D01*
X23500484Y35420100D01*
X23451627Y35413668D01*
X23442891Y35409594D01*
X23442890Y35409594D01*
X23354389Y35368325D01*
X23344396Y35363665D01*
X23260735Y35280004D01*
X23260047Y35280692D01*
X23212553Y35242731D01*
X23141933Y35235423D01*
X23078574Y35267456D01*
X23070221Y35277096D01*
X23068865Y35280004D01*
X22985204Y35363665D01*
X22975211Y35368325D01*
X22886710Y35409594D01*
X22886709Y35409594D01*
X22877973Y35413668D01*
X22829116Y35420100D01*
X22480484Y35420100D01*
X22431627Y35413668D01*
X22422891Y35409594D01*
X22422890Y35409594D01*
X22334389Y35368325D01*
X22324396Y35363665D01*
X22257595Y35296864D01*
X22195283Y35262838D01*
X22124468Y35267903D01*
X22067632Y35310450D01*
X22042821Y35376970D01*
X22042500Y35385959D01*
X22042500Y39070887D01*
X22042979Y39081868D01*
X22045303Y39108430D01*
X22045303Y39108432D01*
X22046263Y39119407D01*
X22036508Y39155817D01*
X22034133Y39166528D01*
X22031088Y39183797D01*
X22027588Y39203645D01*
X22022079Y39213188D01*
X22020888Y39216460D01*
X22019408Y39219633D01*
X22016554Y39230284D01*
X21994945Y39261144D01*
X21989039Y39270415D01*
X21975707Y39293506D01*
X21970194Y39303055D01*
X21941317Y39327285D01*
X21933215Y39334711D01*
X21683021Y39584905D01*
X21648995Y39647217D01*
X21654060Y39718032D01*
X21696607Y39774868D01*
X21763127Y39799679D01*
X21772116Y39800000D01*
X27281224Y39800000D01*
X27349345Y39779998D01*
G37*
%TD.AperFunction*%
%TA.AperFunction,Conductor*%
G36*
X5889124Y37804498D02*
G01*
X5935617Y37750842D01*
X5945721Y37680568D01*
X5938272Y37653421D01*
X5932533Y37644831D01*
X5930112Y37632662D01*
X5930112Y37632661D01*
X5922573Y37594760D01*
X5920900Y37586348D01*
X5920900Y36879609D01*
X5900898Y36811488D01*
X5847242Y36764995D01*
X5776968Y36754891D01*
X5712388Y36784385D01*
X5690135Y36809607D01*
X5688645Y36811837D01*
X5688643Y36811839D01*
X5681752Y36822152D01*
X5634833Y36853503D01*
X5625747Y36859574D01*
X5615431Y36866467D01*
X5603262Y36868888D01*
X5603261Y36868888D01*
X5563016Y36876893D01*
X5556948Y36878100D01*
X4704652Y36878100D01*
X4646169Y36866467D01*
X4636646Y36860104D01*
X4589368Y36850700D01*
X2994910Y36850700D01*
X2983928Y36851180D01*
X2957380Y36853503D01*
X2957378Y36853503D01*
X2946393Y36854464D01*
X2909985Y36844708D01*
X2899258Y36842330D01*
X2895899Y36841738D01*
X2862155Y36835788D01*
X2852610Y36830277D01*
X2849334Y36829085D01*
X2846166Y36827608D01*
X2835516Y36824754D01*
X2807664Y36805251D01*
X2804656Y36803145D01*
X2795385Y36797239D01*
X2785087Y36791293D01*
X2762745Y36778394D01*
X2742695Y36754500D01*
X2738515Y36749518D01*
X2731089Y36741415D01*
X2574829Y36585155D01*
X2512517Y36551129D01*
X2441702Y36556194D01*
X2384866Y36598741D01*
X2360214Y36663265D01*
X2357978Y36688825D01*
X2357500Y36699786D01*
X2357500Y37557384D01*
X2377502Y37625505D01*
X2394405Y37646479D01*
X2535521Y37787595D01*
X2597833Y37821621D01*
X2624616Y37824500D01*
X5821003Y37824500D01*
X5889124Y37804498D01*
G37*
%TD.AperFunction*%
%TA.AperFunction,Conductor*%
G36*
X6068021Y39324498D02*
G01*
X6114514Y39270842D01*
X6125900Y39218500D01*
X6125900Y38831110D01*
X6125420Y38820128D01*
X6122136Y38782593D01*
X6131891Y38746190D01*
X6134270Y38735458D01*
X6140812Y38698355D01*
X6146323Y38688810D01*
X6147515Y38685534D01*
X6148992Y38682366D01*
X6151846Y38671716D01*
X6158170Y38662685D01*
X6161870Y38654750D01*
X6172531Y38584558D01*
X6143551Y38519745D01*
X6084131Y38480889D01*
X6047675Y38475500D01*
X2457310Y38475500D01*
X2446328Y38475980D01*
X2419780Y38478303D01*
X2419778Y38478303D01*
X2408793Y38479264D01*
X2372385Y38469508D01*
X2361658Y38467130D01*
X2358299Y38466538D01*
X2324555Y38460588D01*
X2315010Y38455077D01*
X2311734Y38453885D01*
X2308566Y38452408D01*
X2297916Y38449554D01*
X2288885Y38443230D01*
X2267056Y38427945D01*
X2257785Y38422039D01*
X2238787Y38411070D01*
X2225145Y38403194D01*
X2218059Y38394749D01*
X2200915Y38374318D01*
X2193489Y38366215D01*
X1889967Y38062693D01*
X1827655Y38028667D01*
X1756840Y38033732D01*
X1711777Y38062692D01*
X1630404Y38144065D01*
X1588760Y38163484D01*
X1531910Y38189994D01*
X1531909Y38189994D01*
X1523173Y38194068D01*
X1474316Y38200500D01*
X1025684Y38200500D01*
X992022Y38196068D01*
X921876Y38207007D01*
X868777Y38254134D01*
X849586Y38322488D01*
X859168Y38369207D01*
X891046Y38446168D01*
X891047Y38446173D01*
X894207Y38453801D01*
X914845Y38610563D01*
X894207Y38767325D01*
X833699Y38913404D01*
X759931Y39009541D01*
X742468Y39032299D01*
X737445Y39038845D01*
X633588Y39118537D01*
X591721Y39175875D01*
X587499Y39246746D01*
X622263Y39308649D01*
X684976Y39341930D01*
X710292Y39344500D01*
X5999900Y39344500D01*
X6068021Y39324498D01*
G37*
%TD.AperFunction*%
%TD*%
M02*
