%TF.GenerationSoftware,KiCad,Pcbnew,8.0.4*%
%TF.CreationDate,2024-09-17T19:46:24+01:00*%
%TF.ProjectId,ADE_Main_V4,4144455f-4d61-4696-9e5f-56342e6b6963,rev?*%
%TF.SameCoordinates,Original*%
%TF.FileFunction,Copper,L3,Inr*%
%TF.FilePolarity,Positive*%
%FSLAX46Y46*%
G04 Gerber Fmt 4.6, Leading zero omitted, Abs format (unit mm)*
G04 Created by KiCad (PCBNEW 8.0.4) date 2024-09-17 19:46:24*
%MOMM*%
%LPD*%
G01*
G04 APERTURE LIST*
%TA.AperFunction,ComponentPad*%
%ADD10C,0.600000*%
%TD*%
%TA.AperFunction,ComponentPad*%
%ADD11R,1.700000X1.700000*%
%TD*%
%TA.AperFunction,ComponentPad*%
%ADD12O,1.700000X1.700000*%
%TD*%
%TA.AperFunction,ViaPad*%
%ADD13C,0.800000*%
%TD*%
G04 APERTURE END LIST*
D10*
%TO.N,/UM*%
%TO.C,U3*%
X-180000Y36100000D03*
X-1180000Y36100000D03*
%TD*%
%TO.N,/UM*%
%TO.C,U1*%
X-180000Y24810000D03*
X-1180000Y24810000D03*
%TD*%
D11*
%TO.N,/RRP*%
%TO.C,J15*%
X-6750200Y36692980D03*
D12*
%TO.N,/RRM*%
X-6750200Y34152980D03*
%TO.N,/RSP*%
X-6750200Y31612980D03*
%TO.N,/RSM*%
X-6750200Y29072980D03*
%TO.N,/RTP*%
X-6750200Y26532980D03*
%TO.N,/RTM*%
X-6750200Y23992980D03*
%TO.N,/RNP*%
X-6750200Y21452980D03*
%TO.N,/RNM*%
X-6750200Y18912980D03*
%TD*%
D13*
%TO.N,GND*%
X12877800Y28778200D03*
X-16100000Y27403599D03*
X3048000Y37363400D03*
X-18640000Y32483599D03*
X12065000Y27940000D03*
X24540000Y32483599D03*
X-2540000Y39344600D03*
X-18640000Y24863599D03*
X17246600Y26085800D03*
X-18640000Y27403599D03*
X19460000Y37563599D03*
X4430000Y37400000D03*
X3200400Y19862800D03*
X-14440000Y37200000D03*
X13843000Y27762200D03*
X-14100000Y23060000D03*
X4428453Y33111500D03*
X17018000Y27711400D03*
X-13450000Y18140000D03*
X16920000Y37563599D03*
X-18640000Y29943599D03*
X390000Y17940000D03*
X9457677Y29825500D03*
X16459200Y32664400D03*
X5540000Y38930000D03*
X-13560000Y27403599D03*
X-16100000Y32483599D03*
X13868400Y25908000D03*
X-18640000Y37563599D03*
X-18640000Y22323599D03*
X-16100000Y24863599D03*
X-18640000Y19783599D03*
X1001000Y26060000D03*
X-13560000Y24863599D03*
X-16100000Y22323599D03*
X24540000Y37563599D03*
X670000Y28320000D03*
X-16100000Y29943599D03*
X-5230000Y25880000D03*
X660000Y31690000D03*
X-13560000Y40103599D03*
X-18640000Y35023599D03*
X-16100000Y19783599D03*
X1850000Y39045500D03*
X-11020000Y40103599D03*
X-13560000Y19783599D03*
X-16100000Y35023599D03*
X-16100000Y37563599D03*
X20497800Y32283400D03*
X-14520000Y29090000D03*
%TO.N,+3V3*%
X1955800Y16967200D03*
X26797000Y27305000D03*
X25298400Y26339800D03*
X11050000Y37425000D03*
X15443200Y35737800D03*
X24587200Y34823400D03*
X11277600Y28854400D03*
X-2190000Y25740000D03*
X12166600Y29514800D03*
X-1975500Y37553372D03*
%TO.N,/AVDDOUT*%
X7863900Y30124400D03*
%TO.N,/DVDDOUT*%
X9753600Y38150800D03*
%TO.N,/REF*%
X4013200Y33985200D03*
%TO.N,/ISP*%
X1040000Y35730000D03*
X-2150000Y34820000D03*
%TO.N,/INP*%
X2550000Y23540000D03*
X-2510000Y23480000D03*
%TO.N,/UR+*%
X11970000Y26540000D03*
X3524020Y28620000D03*
%TO.N,/US+*%
X10000000Y25800000D03*
X9143911Y27833911D03*
X5100000Y29720000D03*
%TO.N,/UT+*%
X8050000Y25740000D03*
%TO.N,/ADE_Reset*%
X21717000Y33197800D03*
%TO.N,/O_IN*%
X10375000Y29850000D03*
%TO.N,/SCLK*%
X13250000Y33950000D03*
X13225000Y31200000D03*
%TO.N,/MISO*%
X13214638Y35157566D03*
%TO.N,/MOSI*%
X15409211Y34609211D03*
%TO.N,/SS*%
X14459548Y36442005D03*
%TO.N,/RN*%
X-5934500Y22738843D03*
X-4520000Y22670000D03*
%TO.N,Net-(C5-Pad2)*%
X-3410000Y23230000D03*
X230000Y20824500D03*
%TO.N,Net-(C6-Pad2)*%
X260000Y33020000D03*
X-2650000Y33470000D03*
%TO.N,Net-(C13-Pad2)*%
X-700000Y29710000D03*
X-3390000Y29150000D03*
%TO.N,Net-(C16-Pad2)*%
X309163Y38610563D03*
X-2600000Y36690000D03*
%TO.N,/UM*%
X1610000Y23910000D03*
X1625500Y35047145D03*
X2277484Y22357547D03*
%TO.N,/C+*%
X-70000Y18890000D03*
%TO.N,/UR-*%
X4230000Y29490000D03*
X13040000Y26640000D03*
%TO.N,/US-*%
X11000000Y25870000D03*
X6182300Y29546200D03*
X8393411Y29123411D03*
%TO.N,/UT-*%
X9020000Y25950000D03*
%TO.N,/C-*%
X-4765656Y20033911D03*
%TD*%
%TA.AperFunction,Conductor*%
%TO.N,+3V3*%
G36*
X-13929157Y39629398D02*
G01*
X-13920575Y39623363D01*
X-13862841Y39579063D01*
X-13716762Y39518555D01*
X-13560000Y39497917D01*
X-13551812Y39498995D01*
X-13533832Y39501362D01*
X-13403238Y39518555D01*
X-13257159Y39579063D01*
X-13199426Y39623363D01*
X-13133206Y39648963D01*
X-13122722Y39649400D01*
X-11457278Y39649400D01*
X-11389157Y39629398D01*
X-11380575Y39623363D01*
X-11322841Y39579063D01*
X-11176762Y39518555D01*
X-11020000Y39497917D01*
X-11011812Y39498995D01*
X-10993832Y39501362D01*
X-10863238Y39518555D01*
X-10717159Y39579063D01*
X-10659426Y39623363D01*
X-10593206Y39648963D01*
X-10582722Y39649400D01*
X-3248468Y39649400D01*
X-3180347Y39629398D01*
X-3133854Y39575742D01*
X-3123750Y39505468D01*
X-3124149Y39503523D01*
X-3125044Y39501362D01*
X-3145682Y39344600D01*
X-3125044Y39187838D01*
X-3064536Y39041759D01*
X-2968282Y38916318D01*
X-2842841Y38820064D01*
X-2696762Y38759556D01*
X-2540000Y38738918D01*
X-2531812Y38739996D01*
X-2391426Y38758478D01*
X-2383238Y38759556D01*
X-2237159Y38820064D01*
X-2111718Y38916318D01*
X-2015464Y39041759D01*
X-1954956Y39187838D01*
X-1934318Y39344600D01*
X-1954956Y39501362D01*
X-1952983Y39501622D01*
X-1951547Y39561773D01*
X-1911749Y39620566D01*
X-1846483Y39648510D01*
X-1831532Y39649400D01*
X1300971Y39649400D01*
X1369092Y39629398D01*
X1415585Y39575742D01*
X1425689Y39505468D01*
X1400934Y39446696D01*
X1383087Y39423437D01*
X1325464Y39348341D01*
X1264956Y39202262D01*
X1244318Y39045500D01*
X1264956Y38888738D01*
X1325464Y38742659D01*
X1421718Y38617218D01*
X1547159Y38520964D01*
X1693238Y38460456D01*
X1850000Y38439818D01*
X1858188Y38440896D01*
X1998574Y38459378D01*
X2006762Y38460456D01*
X2152841Y38520964D01*
X2278282Y38617218D01*
X2374536Y38742659D01*
X2435044Y38888738D01*
X2455682Y39045500D01*
X2435044Y39202262D01*
X2374536Y39348341D01*
X2316913Y39423437D01*
X2299066Y39446696D01*
X2273466Y39512917D01*
X2287731Y39582465D01*
X2337332Y39633261D01*
X2399029Y39649400D01*
X5119926Y39649400D01*
X5188047Y39629398D01*
X5234540Y39575742D01*
X5244644Y39505468D01*
X5215150Y39440888D01*
X5196631Y39423437D01*
X5111718Y39358282D01*
X5015464Y39232841D01*
X4954956Y39086762D01*
X4934318Y38930000D01*
X4954956Y38773238D01*
X5015464Y38627159D01*
X5111718Y38501718D01*
X5237159Y38405464D01*
X5383238Y38344956D01*
X5540000Y38324318D01*
X5548188Y38325396D01*
X5688574Y38343878D01*
X5696762Y38344956D01*
X5842841Y38405464D01*
X5968282Y38501718D01*
X6064536Y38627159D01*
X6125044Y38773238D01*
X6145682Y38930000D01*
X6125044Y39086762D01*
X6064536Y39232841D01*
X5968282Y39358282D01*
X5883370Y39423437D01*
X5841503Y39480775D01*
X5837281Y39551646D01*
X5872045Y39613549D01*
X5934758Y39646830D01*
X5960074Y39649400D01*
X27153600Y39649400D01*
X27221721Y39629398D01*
X27268214Y39575742D01*
X27279600Y39523400D01*
X27279600Y20014633D01*
X27259598Y19946512D01*
X27242695Y19925538D01*
X27104062Y19786905D01*
X27041750Y19752879D01*
X27014967Y19750000D01*
X17085033Y19750000D01*
X17016912Y19770002D01*
X16995938Y19786905D01*
X16686905Y20095938D01*
X16652879Y20158250D01*
X16650000Y20185033D01*
X16650000Y25531170D01*
X16670002Y25599291D01*
X16723658Y25645784D01*
X16793932Y25655888D01*
X16852704Y25631132D01*
X16937203Y25566294D01*
X16937206Y25566292D01*
X16943759Y25561264D01*
X17089838Y25500756D01*
X17246600Y25480118D01*
X17254788Y25481196D01*
X17395174Y25499678D01*
X17403362Y25500756D01*
X17549441Y25561264D01*
X17674882Y25657518D01*
X17681536Y25666189D01*
X17751339Y25757159D01*
X17771136Y25782959D01*
X17831644Y25929038D01*
X17852282Y26085800D01*
X17831644Y26242562D01*
X17771136Y26388641D01*
X17674882Y26514082D01*
X17659421Y26525946D01*
X17623064Y26553843D01*
X17549441Y26610336D01*
X17403362Y26670844D01*
X17246600Y26691482D01*
X17089838Y26670844D01*
X16943759Y26610336D01*
X16937208Y26605309D01*
X16937203Y26605306D01*
X16852704Y26540468D01*
X16786484Y26514867D01*
X16716935Y26529132D01*
X16666139Y26578733D01*
X16650000Y26640430D01*
X16650000Y26962688D01*
X16653254Y26991140D01*
X16655142Y26999284D01*
X16655143Y27000000D01*
X16654316Y27003625D01*
X16654628Y27005399D01*
X16653926Y27005338D01*
X16653242Y27013159D01*
X16667233Y27082764D01*
X16716634Y27133755D01*
X16785761Y27149943D01*
X16826982Y27140545D01*
X16853605Y27129517D01*
X16853610Y27129516D01*
X16861238Y27126356D01*
X16869426Y27125278D01*
X16879536Y27123947D01*
X17018000Y27105718D01*
X17026188Y27106796D01*
X17166574Y27125278D01*
X17174762Y27126356D01*
X17320841Y27186864D01*
X17446282Y27283118D01*
X17542536Y27408559D01*
X17603044Y27554638D01*
X17607458Y27588162D01*
X17620251Y27685337D01*
X17623682Y27711400D01*
X17603044Y27868162D01*
X17542536Y28014241D01*
X17472370Y28105683D01*
X17451305Y28133136D01*
X17446282Y28139682D01*
X17427851Y28153825D01*
X17327392Y28230909D01*
X17320841Y28235936D01*
X17174762Y28296444D01*
X17018000Y28317082D01*
X16861238Y28296444D01*
X16715159Y28235936D01*
X16708608Y28230909D01*
X16608150Y28153825D01*
X16589718Y28139682D01*
X16584695Y28133136D01*
X16563630Y28105683D01*
X16493464Y28014241D01*
X16453998Y27918962D01*
X16453930Y27918797D01*
X16409382Y27863516D01*
X16342018Y27841095D01*
X16273227Y27858653D01*
X16248426Y27877920D01*
X16242030Y27884316D01*
X16222111Y27898264D01*
X16103583Y27981258D01*
X16077197Y27999734D01*
X16072215Y28002057D01*
X16072210Y28002060D01*
X15899808Y28082452D01*
X15899807Y28082453D01*
X15894826Y28084775D01*
X15889518Y28086197D01*
X15889516Y28086198D01*
X15705773Y28135431D01*
X15705772Y28135431D01*
X15700458Y28136855D01*
X15500000Y28154393D01*
X15299542Y28136855D01*
X15294228Y28135431D01*
X15294227Y28135431D01*
X15110484Y28086198D01*
X15110482Y28086197D01*
X15105174Y28084775D01*
X15100194Y28082453D01*
X15100192Y28082452D01*
X14927791Y28002060D01*
X14927786Y28002057D01*
X14922804Y27999734D01*
X14918297Y27996578D01*
X14918295Y27996577D01*
X14762481Y27887475D01*
X14762478Y27887473D01*
X14757970Y27884316D01*
X14651124Y27777470D01*
X14588812Y27743444D01*
X14517997Y27748509D01*
X14461161Y27791056D01*
X14437107Y27850119D01*
X14435344Y27863516D01*
X14428044Y27918962D01*
X14422936Y27931295D01*
X14399181Y27988643D01*
X14367536Y28065041D01*
X14271282Y28190482D01*
X14145841Y28286736D01*
X13999762Y28347244D01*
X13843000Y28367882D01*
X13686238Y28347244D01*
X13557179Y28293786D01*
X13486591Y28286197D01*
X13423104Y28317976D01*
X13386876Y28379034D01*
X13389410Y28449985D01*
X13398665Y28470575D01*
X13402336Y28475359D01*
X13414149Y28503878D01*
X13459684Y28613809D01*
X13462844Y28621438D01*
X13483482Y28778200D01*
X13462844Y28934962D01*
X13402336Y29081041D01*
X13306082Y29206482D01*
X13180641Y29302736D01*
X13034562Y29363244D01*
X12877800Y29383882D01*
X12721038Y29363244D01*
X12574959Y29302736D01*
X12449518Y29206482D01*
X12353264Y29081041D01*
X12292756Y28934962D01*
X12272118Y28778200D01*
X12273196Y28770012D01*
X12285489Y28676634D01*
X12274549Y28606485D01*
X12227421Y28553387D01*
X12159067Y28534197D01*
X12144121Y28535266D01*
X12073189Y28544604D01*
X12073188Y28544604D01*
X12065000Y28545682D01*
X11908238Y28525044D01*
X11762159Y28464536D01*
X11636718Y28368282D01*
X11540464Y28242841D01*
X11479956Y28096762D01*
X11478878Y28088574D01*
X11478565Y28086198D01*
X11459318Y27940000D01*
X11479956Y27783238D01*
X11540464Y27637159D01*
X11636718Y27511718D01*
X11762159Y27415464D01*
X11831392Y27386787D01*
X11872070Y27369937D01*
X11927351Y27325388D01*
X11949772Y27258025D01*
X11932214Y27189234D01*
X11880251Y27140855D01*
X11840297Y27128606D01*
X11813238Y27125044D01*
X11667159Y27064536D01*
X11541718Y26968282D01*
X11445464Y26842841D01*
X11384956Y26696762D01*
X11365151Y26546323D01*
X11364412Y26540713D01*
X11335690Y26475786D01*
X11276425Y26436694D01*
X11205433Y26435849D01*
X11191273Y26440750D01*
X11164395Y26451883D01*
X11164390Y26451884D01*
X11156762Y26455044D01*
X11000000Y26475682D01*
X10843238Y26455044D01*
X10697159Y26394536D01*
X10571718Y26298282D01*
X10566695Y26291736D01*
X10566692Y26291733D01*
X10561459Y26284913D01*
X10504121Y26243045D01*
X10433251Y26238823D01*
X10384792Y26261653D01*
X10348339Y26289624D01*
X10302841Y26324536D01*
X10156762Y26385044D01*
X10000000Y26405682D01*
X9843238Y26385044D01*
X9697159Y26324536D01*
X9690608Y26319509D01*
X9690603Y26319506D01*
X9666433Y26300960D01*
X9600213Y26275359D01*
X9530664Y26289624D01*
X9489766Y26324219D01*
X9453308Y26371733D01*
X9453304Y26371737D01*
X9448282Y26378282D01*
X9322841Y26474536D01*
X9176762Y26535044D01*
X9135563Y26540468D01*
X9080493Y26547718D01*
X9020000Y26555682D01*
X8959507Y26547718D01*
X8904438Y26540468D01*
X8863238Y26535044D01*
X8717159Y26474536D01*
X8591718Y26378282D01*
X8532983Y26301736D01*
X8524503Y26290685D01*
X8467165Y26248818D01*
X8396294Y26244596D01*
X8361543Y26258268D01*
X8359389Y26259512D01*
X8352841Y26264536D01*
X8345215Y26267695D01*
X8345213Y26267696D01*
X8214391Y26321884D01*
X8206762Y26325044D01*
X8050000Y26345682D01*
X7893238Y26325044D01*
X7885609Y26321884D01*
X7754787Y26267696D01*
X7754785Y26267695D01*
X7747159Y26264536D01*
X7740609Y26259510D01*
X7739000Y26258581D01*
X7670005Y26241843D01*
X7602913Y26265063D01*
X7559026Y26320871D01*
X7550000Y26367700D01*
X7550000Y27833911D01*
X8538229Y27833911D01*
X8558867Y27677149D01*
X8619375Y27531070D01*
X8668546Y27466989D01*
X8710440Y27412392D01*
X8715629Y27405629D01*
X8841070Y27309375D01*
X8987149Y27248867D01*
X8995337Y27247789D01*
X9018368Y27244757D01*
X9143911Y27228229D01*
X9152099Y27229307D01*
X9191575Y27234504D01*
X9269454Y27244757D01*
X9292485Y27247789D01*
X9300673Y27248867D01*
X9446752Y27309375D01*
X9572193Y27405629D01*
X9577383Y27412392D01*
X9619276Y27466989D01*
X9668447Y27531070D01*
X9728955Y27677149D01*
X9749593Y27833911D01*
X9728955Y27990673D01*
X9668447Y28136752D01*
X9572193Y28262193D01*
X9446752Y28358447D01*
X9300673Y28418955D01*
X9143911Y28439593D01*
X8987149Y28418955D01*
X8841070Y28358447D01*
X8715629Y28262193D01*
X8619375Y28136752D01*
X8558867Y27990673D01*
X8538229Y27833911D01*
X7550000Y27833911D01*
X7550000Y27944123D01*
X7550033Y27981258D01*
X7550033Y27981260D01*
X7550045Y27995449D01*
X7543902Y28008242D01*
X7542773Y28013210D01*
X7540215Y28020535D01*
X7538006Y28025125D01*
X7534850Y28038962D01*
X7526006Y28050061D01*
X7523636Y28054985D01*
X7520084Y28060647D01*
X7516688Y28064916D01*
X7510547Y28077705D01*
X7499464Y28086568D01*
X7496293Y28090554D01*
X7490809Y28096048D01*
X7486827Y28099227D01*
X7477985Y28110323D01*
X7465207Y28116486D01*
X7460936Y28119896D01*
X7455286Y28123454D01*
X7450366Y28125832D01*
X7439285Y28134694D01*
X7425457Y28137874D01*
X7420876Y28140088D01*
X7413551Y28142661D01*
X7408580Y28143799D01*
X7395798Y28149965D01*
X7372787Y28149985D01*
X7372789Y28151997D01*
X7372723Y28152012D01*
X7372723Y28150000D01*
X7355877Y28150000D01*
X7304551Y28150045D01*
X7304555Y28154850D01*
X7304457Y28154856D01*
X7304457Y28150000D01*
X4236076Y28150000D01*
X4233737Y28150133D01*
X4223223Y28153825D01*
X4209124Y28152256D01*
X4209123Y28152256D01*
X4195800Y28150773D01*
X4187106Y28150291D01*
X4184523Y28150000D01*
X4177454Y28150000D01*
X4177454Y28150375D01*
X4111592Y28161914D01*
X4059386Y28210029D01*
X4041480Y28278731D01*
X4051012Y28323088D01*
X4105904Y28455609D01*
X4109064Y28463238D01*
X4129702Y28620000D01*
X4113515Y28742951D01*
X4124454Y28813098D01*
X4171582Y28866197D01*
X4230171Y28883022D01*
X4230000Y28884318D01*
X4386762Y28904956D01*
X4532841Y28965464D01*
X4634548Y29043506D01*
X4651736Y29056695D01*
X4658282Y29061718D01*
X4663305Y29068264D01*
X4663308Y29068267D01*
X4710794Y29130153D01*
X4768132Y29172021D01*
X4839003Y29176243D01*
X4858974Y29169859D01*
X4943238Y29134956D01*
X4951426Y29133878D01*
X4995193Y29128116D01*
X5100000Y29114318D01*
X5108188Y29115396D01*
X5248574Y29133878D01*
X5256762Y29134956D01*
X5402841Y29195464D01*
X5409394Y29200492D01*
X5409397Y29200494D01*
X5486461Y29259627D01*
X5552681Y29285228D01*
X5622230Y29270963D01*
X5663127Y29236370D01*
X5714162Y29169859D01*
X5748618Y29124956D01*
X5754018Y29117918D01*
X5879459Y29021664D01*
X6025538Y28961156D01*
X6033726Y28960078D01*
X6103919Y28950837D01*
X6182300Y28940518D01*
X6190488Y28941596D01*
X6330874Y28960078D01*
X6339062Y28961156D01*
X6485141Y29021664D01*
X6610582Y29117918D01*
X6615983Y29124956D01*
X6670085Y29195464D01*
X6706836Y29243359D01*
X6767344Y29389438D01*
X6787982Y29546200D01*
X6767344Y29702962D01*
X6706836Y29849041D01*
X6622377Y29959111D01*
X6615605Y29967936D01*
X6610582Y29974482D01*
X6583534Y29995237D01*
X6547559Y30022841D01*
X6485141Y30070736D01*
X6355585Y30124400D01*
X7258218Y30124400D01*
X7278856Y29967638D01*
X7339364Y29821559D01*
X7344391Y29815008D01*
X7426152Y29708455D01*
X7435618Y29696118D01*
X7561059Y29599864D01*
X7707138Y29539356D01*
X7715324Y29538278D01*
X7715325Y29538278D01*
X7742138Y29534748D01*
X7807065Y29506025D01*
X7846156Y29446759D01*
X7847000Y29375767D01*
X7842103Y29361620D01*
X7808367Y29280173D01*
X7787729Y29123411D01*
X7788807Y29115223D01*
X7804867Y28993238D01*
X7808367Y28966649D01*
X7868875Y28820570D01*
X7965129Y28695129D01*
X8090570Y28598875D01*
X8236649Y28538367D01*
X8244837Y28537289D01*
X8268323Y28534197D01*
X8393411Y28517729D01*
X8401599Y28518807D01*
X8424972Y28521884D01*
X8518499Y28534197D01*
X8541985Y28537289D01*
X8550173Y28538367D01*
X8696252Y28598875D01*
X8821693Y28695129D01*
X8917947Y28820570D01*
X8978455Y28966649D01*
X8981956Y28993238D01*
X8998015Y29115223D01*
X8999093Y29123411D01*
X8993872Y29163066D01*
X9004811Y29233212D01*
X9051938Y29286311D01*
X9120292Y29305502D01*
X9167012Y29295920D01*
X9293285Y29243616D01*
X9293288Y29243615D01*
X9300915Y29240456D01*
X9457677Y29219818D01*
X9465865Y29220896D01*
X9606251Y29239378D01*
X9614439Y29240456D01*
X9760518Y29300964D01*
X9855599Y29373922D01*
X9921820Y29399522D01*
X9991368Y29385257D01*
X10009007Y29373922D01*
X10072159Y29325464D01*
X10218238Y29264956D01*
X10375000Y29244318D01*
X10383188Y29245396D01*
X10425672Y29250989D01*
X10531762Y29264956D01*
X10677841Y29325464D01*
X10803282Y29421718D01*
X10899536Y29547159D01*
X10960044Y29693238D01*
X10980682Y29850000D01*
X10960044Y30006762D01*
X10899536Y30152841D01*
X10803282Y30278282D01*
X10785556Y30291884D01*
X10684392Y30369509D01*
X10677841Y30374536D01*
X10531762Y30435044D01*
X10375000Y30455682D01*
X10218238Y30435044D01*
X10072159Y30374536D01*
X10065608Y30369509D01*
X9977078Y30301578D01*
X9910857Y30275978D01*
X9841309Y30290243D01*
X9823670Y30301578D01*
X9767069Y30345009D01*
X9760518Y30350036D01*
X9614439Y30410544D01*
X9457677Y30431182D01*
X9300915Y30410544D01*
X9154836Y30350036D01*
X9029395Y30253782D01*
X8933141Y30128341D01*
X8872633Y29982262D01*
X8851995Y29825500D01*
X8857216Y29785845D01*
X8846277Y29715699D01*
X8799150Y29662600D01*
X8730796Y29643409D01*
X8684076Y29652991D01*
X8557803Y29705295D01*
X8557800Y29705296D01*
X8550173Y29708455D01*
X8541987Y29709533D01*
X8541986Y29709533D01*
X8515173Y29713063D01*
X8450246Y29741786D01*
X8411155Y29801052D01*
X8410311Y29872044D01*
X8415208Y29886191D01*
X8448944Y29967638D01*
X8469582Y30124400D01*
X8448944Y30281162D01*
X8388436Y30427241D01*
X8292182Y30552682D01*
X8166741Y30648936D01*
X8020662Y30709444D01*
X7863900Y30730082D01*
X7707138Y30709444D01*
X7561059Y30648936D01*
X7435618Y30552682D01*
X7339364Y30427241D01*
X7278856Y30281162D01*
X7258218Y30124400D01*
X6355585Y30124400D01*
X6339062Y30131244D01*
X6328854Y30132588D01*
X6247449Y30143305D01*
X6182300Y30151882D01*
X6117151Y30143305D01*
X6035747Y30132588D01*
X6025538Y30131244D01*
X5879459Y30070736D01*
X5872908Y30065709D01*
X5872903Y30065706D01*
X5795839Y30006573D01*
X5729619Y29980972D01*
X5660070Y29995237D01*
X5619172Y30029831D01*
X5616160Y30033757D01*
X5540324Y30132588D01*
X5533305Y30141736D01*
X5528282Y30148282D01*
X5402841Y30244536D01*
X5256762Y30305044D01*
X5100000Y30325682D01*
X4943238Y30305044D01*
X4797159Y30244536D01*
X4671718Y30148282D01*
X4666695Y30141736D01*
X4666692Y30141733D01*
X4619206Y30079847D01*
X4561868Y30037979D01*
X4490997Y30033757D01*
X4471025Y30040141D01*
X4463754Y30043153D01*
X4409299Y30065709D01*
X4394391Y30071884D01*
X4386762Y30075044D01*
X4350280Y30079847D01*
X4308381Y30085363D01*
X4230000Y30095682D01*
X4151619Y30085363D01*
X4109721Y30079847D01*
X4073238Y30075044D01*
X3927159Y30014536D01*
X3801718Y29918282D01*
X3705464Y29792841D01*
X3644956Y29646762D01*
X3624318Y29490000D01*
X3640505Y29367049D01*
X3629566Y29296902D01*
X3582438Y29243803D01*
X3523849Y29226978D01*
X3524020Y29225682D01*
X3378181Y29206482D01*
X3367258Y29205044D01*
X3221179Y29144536D01*
X3095738Y29048282D01*
X3090715Y29041736D01*
X3079171Y29026691D01*
X2999484Y28922841D01*
X2938976Y28776762D01*
X2918338Y28620000D01*
X2938976Y28463238D01*
X2999484Y28317159D01*
X3023242Y28286197D01*
X3081688Y28210029D01*
X3095738Y28191718D01*
X3102284Y28186695D01*
X3119355Y28173596D01*
X3221179Y28095464D01*
X3367258Y28034956D01*
X3375446Y28033878D01*
X3399586Y28030700D01*
X3524020Y28014318D01*
X3532208Y28015396D01*
X3545600Y28017159D01*
X3680782Y28034956D01*
X3681164Y28032053D01*
X3738014Y28030700D01*
X3796810Y27990907D01*
X3824759Y27925643D01*
X3812986Y27855629D01*
X3788745Y27821588D01*
X3634088Y27666931D01*
X3632340Y27665370D01*
X3622295Y27660547D01*
X3613435Y27649467D01*
X3613434Y27649467D01*
X3605062Y27638998D01*
X3599263Y27632518D01*
X3597639Y27630482D01*
X3592636Y27625479D01*
X3588875Y27619494D01*
X3586901Y27617020D01*
X3582241Y27610462D01*
X3565306Y27589285D01*
X3562663Y27577789D01*
X3556386Y27567803D01*
X3554792Y27553705D01*
X3553340Y27540862D01*
X3551932Y27532627D01*
X3551596Y27529663D01*
X3550000Y27522723D01*
X3550000Y27515603D01*
X3549684Y27512819D01*
X3549202Y27504262D01*
X3546135Y27477134D01*
X3549859Y27466471D01*
X3550000Y27463941D01*
X3550000Y20556540D01*
X3529998Y20488419D01*
X3476342Y20441926D01*
X3406068Y20431822D01*
X3375780Y20440132D01*
X3364792Y20444684D01*
X3364789Y20444685D01*
X3357162Y20447844D01*
X3200400Y20468482D01*
X3043638Y20447844D01*
X2897559Y20387336D01*
X2772118Y20291082D01*
X2675864Y20165641D01*
X2615356Y20019562D01*
X2594718Y19862800D01*
X2615356Y19706038D01*
X2675864Y19559959D01*
X2772118Y19434518D01*
X2897559Y19338264D01*
X3043638Y19277756D01*
X3200400Y19257118D01*
X3208588Y19258196D01*
X3348974Y19276678D01*
X3357162Y19277756D01*
X3364789Y19280915D01*
X3364792Y19280916D01*
X3375780Y19285468D01*
X3446370Y19293058D01*
X3509857Y19261280D01*
X3546086Y19200223D01*
X3550000Y19169060D01*
X3550000Y16915400D01*
X3529998Y16847279D01*
X3476342Y16800786D01*
X3424000Y16789400D01*
X-19660600Y16789400D01*
X-19728721Y16809402D01*
X-19775214Y16863058D01*
X-19786600Y16915400D01*
X-19786600Y18140000D01*
X-14055682Y18140000D01*
X-14054604Y18131812D01*
X-14040110Y18021722D01*
X-14035044Y17983238D01*
X-13974536Y17837159D01*
X-13878282Y17711718D01*
X-13752841Y17615464D01*
X-13606762Y17554956D01*
X-13450000Y17534318D01*
X-13441812Y17535396D01*
X-13301426Y17553878D01*
X-13293238Y17554956D01*
X-13147159Y17615464D01*
X-13021718Y17711718D01*
X-12925464Y17837159D01*
X-12864956Y17983238D01*
X-12859889Y18021722D01*
X-12845396Y18131812D01*
X-12844318Y18140000D01*
X-12864956Y18296762D01*
X-12868164Y18304508D01*
X-12891869Y18361736D01*
X-12925464Y18442841D01*
X-13021718Y18568282D01*
X-13147159Y18664536D01*
X-13293238Y18725044D01*
X-13450000Y18745682D01*
X-13606762Y18725044D01*
X-13752841Y18664536D01*
X-13878282Y18568282D01*
X-13974536Y18442841D01*
X-14008131Y18361736D01*
X-14031835Y18304508D01*
X-14035044Y18296762D01*
X-14055682Y18140000D01*
X-19786600Y18140000D01*
X-19786600Y18927718D01*
X-7805680Y18927718D01*
X-7805164Y18921574D01*
X-7790036Y18741426D01*
X-7788441Y18722427D01*
X-7786742Y18716502D01*
X-7751841Y18594789D01*
X-7731656Y18524394D01*
X-7728841Y18518917D01*
X-7728840Y18518914D01*
X-7648062Y18361736D01*
X-7637488Y18341162D01*
X-7509523Y18179710D01*
X-7504830Y18175716D01*
X-7504829Y18175715D01*
X-7402438Y18088574D01*
X-7352636Y18046189D01*
X-7172802Y17945683D01*
X-7077962Y17914867D01*
X-6982729Y17883924D01*
X-6982725Y17883923D01*
X-6976871Y17882021D01*
X-6772306Y17857629D01*
X-6766171Y17858101D01*
X-6766169Y17858101D01*
X-6710161Y17862411D01*
X-6566900Y17873434D01*
X-6560970Y17875090D01*
X-6560968Y17875090D01*
X-6374403Y17927180D01*
X-6374404Y17927180D01*
X-6368475Y17928835D01*
X-6362986Y17931608D01*
X-6362980Y17931610D01*
X-6190084Y18018947D01*
X-6184590Y18021722D01*
X-6022249Y18148556D01*
X-5978224Y18199559D01*
X-5891660Y18299846D01*
X-5891660Y18299847D01*
X-5887636Y18304508D01*
X-5866813Y18341162D01*
X-5809052Y18442841D01*
X-5785877Y18483636D01*
X-5720849Y18679117D01*
X-5695029Y18883506D01*
X-5694938Y18890000D01*
X-675682Y18890000D01*
X-655044Y18733238D01*
X-594536Y18587159D01*
X-498282Y18461718D01*
X-372841Y18365464D01*
X-242489Y18311471D01*
X-187209Y18266923D01*
X-164788Y18199559D01*
X-174298Y18146846D01*
X-195044Y18096762D01*
X-215682Y17940000D01*
X-195044Y17783238D01*
X-134536Y17637159D01*
X-38282Y17511718D01*
X87159Y17415464D01*
X233238Y17354956D01*
X390000Y17334318D01*
X398188Y17335396D01*
X538574Y17353878D01*
X546762Y17354956D01*
X692841Y17415464D01*
X818282Y17511718D01*
X914536Y17637159D01*
X975044Y17783238D01*
X995682Y17940000D01*
X975044Y18096762D01*
X914536Y18242841D01*
X846059Y18332082D01*
X823305Y18361736D01*
X818282Y18368282D01*
X692841Y18464536D01*
X562489Y18518529D01*
X507209Y18563077D01*
X484788Y18630441D01*
X494298Y18683154D01*
X515044Y18733238D01*
X535682Y18890000D01*
X515044Y19046762D01*
X454536Y19192841D01*
X358282Y19318282D01*
X232841Y19414536D01*
X86762Y19475044D01*
X-70000Y19495682D01*
X-226762Y19475044D01*
X-372841Y19414536D01*
X-498282Y19318282D01*
X-594536Y19192841D01*
X-655044Y19046762D01*
X-675682Y18890000D01*
X-5694938Y18890000D01*
X-5694617Y18912980D01*
X-5714720Y19118010D01*
X-5774265Y19315231D01*
X-5870982Y19497131D01*
X-5983446Y19635025D01*
X-5997294Y19652005D01*
X-5997297Y19652008D01*
X-6001189Y19656780D01*
X-6018414Y19671030D01*
X-6155175Y19784169D01*
X-6155179Y19784171D01*
X-6159925Y19788098D01*
X-6341145Y19886083D01*
X-6537946Y19947003D01*
X-6544071Y19947647D01*
X-6544072Y19947647D01*
X-6736702Y19967893D01*
X-6736704Y19967893D01*
X-6742831Y19968537D01*
X-6825234Y19961038D01*
X-6941858Y19950425D01*
X-6941861Y19950424D01*
X-6947997Y19949866D01*
X-7145628Y19891700D01*
X-7328198Y19796254D01*
X-7332999Y19792394D01*
X-7333002Y19792392D01*
X-7382146Y19752879D01*
X-7488753Y19667165D01*
X-7621176Y19509350D01*
X-7624144Y19503952D01*
X-7624147Y19503947D01*
X-7705333Y19356268D01*
X-7720424Y19328818D01*
X-7782716Y19132448D01*
X-7783402Y19126331D01*
X-7783403Y19126327D01*
X-7792327Y19046762D01*
X-7805680Y18927718D01*
X-19786600Y18927718D01*
X-19786600Y19783599D01*
X-19245682Y19783599D01*
X-19225044Y19626837D01*
X-19164536Y19480758D01*
X-19068282Y19355317D01*
X-18942841Y19259063D01*
X-18796762Y19198555D01*
X-18640000Y19177917D01*
X-18631812Y19178995D01*
X-18491426Y19197477D01*
X-18483238Y19198555D01*
X-18337159Y19259063D01*
X-18211718Y19355317D01*
X-18115464Y19480758D01*
X-18054956Y19626837D01*
X-18034318Y19783599D01*
X-16705682Y19783599D01*
X-16685044Y19626837D01*
X-16624536Y19480758D01*
X-16528282Y19355317D01*
X-16402841Y19259063D01*
X-16256762Y19198555D01*
X-16100000Y19177917D01*
X-16091812Y19178995D01*
X-15951426Y19197477D01*
X-15943238Y19198555D01*
X-15797159Y19259063D01*
X-15671718Y19355317D01*
X-15575464Y19480758D01*
X-15514956Y19626837D01*
X-15494318Y19783599D01*
X-14165682Y19783599D01*
X-14145044Y19626837D01*
X-14084536Y19480758D01*
X-13988282Y19355317D01*
X-13862841Y19259063D01*
X-13716762Y19198555D01*
X-13560000Y19177917D01*
X-13551812Y19178995D01*
X-13411426Y19197477D01*
X-13403238Y19198555D01*
X-13257159Y19259063D01*
X-13131718Y19355317D01*
X-13035464Y19480758D01*
X-12974956Y19626837D01*
X-12954318Y19783599D01*
X-12972887Y19924646D01*
X-12973878Y19932173D01*
X-12974956Y19940361D01*
X-13013706Y20033911D01*
X-5371338Y20033911D01*
X-5368800Y20014633D01*
X-5357070Y19925538D01*
X-5350700Y19877149D01*
X-5290192Y19731070D01*
X-5193938Y19605629D01*
X-5068497Y19509375D01*
X-4922418Y19448867D01*
X-4765656Y19428229D01*
X-4757468Y19429307D01*
X-4732667Y19432572D01*
X-4608894Y19448867D01*
X-4462815Y19509375D01*
X-4337374Y19605629D01*
X-4241120Y19731070D01*
X-4180612Y19877149D01*
X-4174241Y19925538D01*
X-4162512Y20014633D01*
X-4159974Y20033911D01*
X-4180612Y20190673D01*
X-4241120Y20336752D01*
X-4337374Y20462193D01*
X-4349646Y20471610D01*
X-4414872Y20521659D01*
X-4462815Y20558447D01*
X-4608894Y20618955D01*
X-4765656Y20639593D01*
X-4922418Y20618955D01*
X-5068497Y20558447D01*
X-5116440Y20521659D01*
X-5181665Y20471610D01*
X-5193938Y20462193D01*
X-5290192Y20336752D01*
X-5350700Y20190673D01*
X-5371338Y20033911D01*
X-13013706Y20033911D01*
X-13035464Y20086440D01*
X-13131718Y20211881D01*
X-13257159Y20308135D01*
X-13403238Y20368643D01*
X-13560000Y20389281D01*
X-13716762Y20368643D01*
X-13862841Y20308135D01*
X-13988282Y20211881D01*
X-14084536Y20086440D01*
X-14145044Y19940361D01*
X-14146122Y19932173D01*
X-14147113Y19924646D01*
X-14165682Y19783599D01*
X-15494318Y19783599D01*
X-15512887Y19924646D01*
X-15513878Y19932173D01*
X-15514956Y19940361D01*
X-15575464Y20086440D01*
X-15671718Y20211881D01*
X-15797159Y20308135D01*
X-15943238Y20368643D01*
X-16100000Y20389281D01*
X-16256762Y20368643D01*
X-16402841Y20308135D01*
X-16528282Y20211881D01*
X-16624536Y20086440D01*
X-16685044Y19940361D01*
X-16686122Y19932173D01*
X-16687113Y19924646D01*
X-16705682Y19783599D01*
X-18034318Y19783599D01*
X-18052887Y19924646D01*
X-18053878Y19932173D01*
X-18054956Y19940361D01*
X-18115464Y20086440D01*
X-18211718Y20211881D01*
X-18337159Y20308135D01*
X-18483238Y20368643D01*
X-18640000Y20389281D01*
X-18796762Y20368643D01*
X-18942841Y20308135D01*
X-19068282Y20211881D01*
X-19164536Y20086440D01*
X-19225044Y19940361D01*
X-19226122Y19932173D01*
X-19227113Y19924646D01*
X-19245682Y19783599D01*
X-19786600Y19783599D01*
X-19786600Y21467718D01*
X-7805680Y21467718D01*
X-7788441Y21262427D01*
X-7731656Y21064394D01*
X-7728841Y21058917D01*
X-7728840Y21058914D01*
X-7707953Y21018273D01*
X-7637488Y20881162D01*
X-7509523Y20719710D01*
X-7352636Y20586189D01*
X-7347258Y20583183D01*
X-7347256Y20583182D01*
X-7294003Y20553420D01*
X-7172802Y20485683D01*
X-7100507Y20462193D01*
X-6982729Y20423924D01*
X-6982725Y20423923D01*
X-6976871Y20422021D01*
X-6772306Y20397629D01*
X-6766171Y20398101D01*
X-6766169Y20398101D01*
X-6705570Y20402764D01*
X-6566900Y20413434D01*
X-6560970Y20415090D01*
X-6560968Y20415090D01*
X-6374403Y20467180D01*
X-6374404Y20467180D01*
X-6368475Y20468835D01*
X-6362986Y20471608D01*
X-6362980Y20471610D01*
X-6194849Y20556540D01*
X-6184590Y20561722D01*
X-6022249Y20688556D01*
X-5904906Y20824500D01*
X-375682Y20824500D01*
X-355044Y20667738D01*
X-294536Y20521659D01*
X-198282Y20396218D01*
X-72841Y20299964D01*
X73238Y20239456D01*
X230000Y20218818D01*
X238188Y20219896D01*
X378574Y20238378D01*
X386762Y20239456D01*
X532841Y20299964D01*
X658282Y20396218D01*
X754536Y20521659D01*
X815044Y20667738D01*
X835682Y20824500D01*
X815044Y20981262D01*
X754536Y21127341D01*
X658282Y21252782D01*
X532841Y21349036D01*
X386762Y21409544D01*
X230000Y21430182D01*
X73238Y21409544D01*
X-72841Y21349036D01*
X-198282Y21252782D01*
X-294536Y21127341D01*
X-355044Y20981262D01*
X-375682Y20824500D01*
X-5904906Y20824500D01*
X-5887636Y20844508D01*
X-5866813Y20881162D01*
X-5788924Y21018273D01*
X-5785877Y21023636D01*
X-5720849Y21219117D01*
X-5695029Y21423506D01*
X-5694617Y21452980D01*
X-5714720Y21658010D01*
X-5774265Y21855231D01*
X-5839867Y21978612D01*
X-5854186Y22048150D01*
X-5828638Y22114390D01*
X-5776833Y22154174D01*
X-5746262Y22166837D01*
X-5631659Y22214307D01*
X-5506218Y22310561D01*
X-5489466Y22332392D01*
X-5476447Y22349359D01*
X-5409964Y22436002D01*
X-5350821Y22578785D01*
X-5306272Y22634065D01*
X-5238909Y22656486D01*
X-5170117Y22638928D01*
X-5121739Y22586965D01*
X-5109490Y22547013D01*
X-5105044Y22513238D01*
X-5044536Y22367159D01*
X-4948282Y22241718D01*
X-4822841Y22145464D01*
X-4676762Y22084956D01*
X-4520000Y22064318D01*
X-4511812Y22065396D01*
X-4371426Y22083878D01*
X-4363238Y22084956D01*
X-4217159Y22145464D01*
X-4091718Y22241718D01*
X-3995464Y22367159D01*
X-3934956Y22513238D01*
X-3927217Y22572021D01*
X-3920077Y22626253D01*
X-3891354Y22691180D01*
X-3832089Y22730271D01*
X-3761097Y22731116D01*
X-3726905Y22713999D01*
X-3726546Y22714621D01*
X-3719393Y22710491D01*
X-3712841Y22705464D01*
X-3566762Y22644956D01*
X-3410000Y22624318D01*
X-3401812Y22625396D01*
X-3261426Y22643878D01*
X-3253238Y22644956D01*
X-3107159Y22705464D01*
X-2981718Y22801718D01*
X-2910324Y22894761D01*
X-2852987Y22936627D01*
X-2782116Y22940849D01*
X-2762152Y22934468D01*
X-2666762Y22894956D01*
X-2510000Y22874318D01*
X-2501812Y22875396D01*
X-2361426Y22893878D01*
X-2353238Y22894956D01*
X-2207159Y22955464D01*
X-2081718Y23051718D01*
X-1985464Y23177159D01*
X-1924956Y23323238D01*
X-1904318Y23480000D01*
X-1924956Y23636762D01*
X-1928386Y23645044D01*
X-1933870Y23658282D01*
X-1985464Y23782841D01*
X-2081718Y23908282D01*
X-2083957Y23910000D01*
X1004318Y23910000D01*
X1024956Y23753238D01*
X1085464Y23607159D01*
X1181718Y23481718D01*
X1307159Y23385464D01*
X1453238Y23324956D01*
X1461426Y23323878D01*
X1508444Y23317688D01*
X1610000Y23304318D01*
X1618188Y23305396D01*
X1758574Y23323878D01*
X1766762Y23324956D01*
X1774389Y23328115D01*
X1774392Y23328116D01*
X1840128Y23355345D01*
X1910718Y23362934D01*
X1974205Y23331155D01*
X2004754Y23287155D01*
X2022301Y23244793D01*
X2022304Y23244788D01*
X2025464Y23237159D01*
X2030491Y23230608D01*
X2030494Y23230603D01*
X2119991Y23113968D01*
X2145592Y23047748D01*
X2131327Y22978199D01*
X2081726Y22927403D01*
X2068249Y22920856D01*
X1974643Y22882083D01*
X1849202Y22785829D01*
X1752948Y22660388D01*
X1692440Y22514309D01*
X1671802Y22357547D01*
X1692440Y22200785D01*
X1752948Y22054706D01*
X1849202Y21929265D01*
X1974643Y21833011D01*
X2120722Y21772503D01*
X2277484Y21751865D01*
X2285672Y21752943D01*
X2426058Y21771425D01*
X2434246Y21772503D01*
X2580325Y21833011D01*
X2705766Y21929265D01*
X2802020Y22054706D01*
X2862528Y22200785D01*
X2883166Y22357547D01*
X2862528Y22514309D01*
X2802020Y22660388D01*
X2796992Y22666941D01*
X2796990Y22666944D01*
X2707493Y22783579D01*
X2681892Y22849799D01*
X2696157Y22919348D01*
X2745758Y22970144D01*
X2759237Y22976692D01*
X2762875Y22978199D01*
X2852841Y23015464D01*
X2978282Y23111718D01*
X3074536Y23237159D01*
X3135044Y23383238D01*
X3155682Y23540000D01*
X3135044Y23696762D01*
X3074536Y23842841D01*
X3006059Y23932082D01*
X2983305Y23961736D01*
X2978282Y23968282D01*
X2852841Y24064536D01*
X2706762Y24125044D01*
X2550000Y24145682D01*
X2393238Y24125044D01*
X2385611Y24121885D01*
X2385608Y24121884D01*
X2319872Y24094655D01*
X2249282Y24087066D01*
X2185795Y24118845D01*
X2155246Y24162845D01*
X2137699Y24205207D01*
X2137696Y24205212D01*
X2134536Y24212841D01*
X2038282Y24338282D01*
X2021798Y24350931D01*
X1921868Y24427609D01*
X1912841Y24434536D01*
X1766762Y24495044D01*
X1610000Y24515682D01*
X1453238Y24495044D01*
X1307159Y24434536D01*
X1298132Y24427609D01*
X1198203Y24350931D01*
X1181718Y24338282D01*
X1085464Y24212841D01*
X1024956Y24066762D01*
X1004318Y23910000D01*
X-2083957Y23910000D01*
X-2207159Y24004536D01*
X-2353238Y24065044D01*
X-2366287Y24066762D01*
X-2501812Y24084604D01*
X-2510000Y24085682D01*
X-2518188Y24084604D01*
X-2653712Y24066762D01*
X-2666762Y24065044D01*
X-2812841Y24004536D01*
X-2938282Y23908282D01*
X-3008998Y23816122D01*
X-3009675Y23815240D01*
X-3067013Y23773373D01*
X-3137884Y23769151D01*
X-3157848Y23775532D01*
X-3253238Y23815044D01*
X-3410000Y23835682D01*
X-3566762Y23815044D01*
X-3712841Y23754536D01*
X-3838282Y23658282D01*
X-3934536Y23532841D01*
X-3995044Y23386762D01*
X-3996122Y23378574D01*
X-4009923Y23273747D01*
X-4038646Y23208820D01*
X-4097911Y23169729D01*
X-4168903Y23168884D01*
X-4203095Y23186001D01*
X-4203454Y23185379D01*
X-4210607Y23189509D01*
X-4217159Y23194536D01*
X-4363238Y23255044D01*
X-4520000Y23275682D01*
X-4676762Y23255044D01*
X-4822841Y23194536D01*
X-4948282Y23098282D01*
X-5044536Y22972841D01*
X-5084899Y22875396D01*
X-5103679Y22830058D01*
X-5148228Y22774778D01*
X-5215591Y22752357D01*
X-5284383Y22769915D01*
X-5332761Y22821878D01*
X-5345010Y22861832D01*
X-5346795Y22875396D01*
X-5349456Y22895605D01*
X-5409964Y23041684D01*
X-5506218Y23167125D01*
X-5631659Y23263379D01*
X-5762772Y23317688D01*
X-5818053Y23362236D01*
X-5840474Y23429600D01*
X-5824110Y23496334D01*
X-5785877Y23563636D01*
X-5720849Y23759117D01*
X-5695029Y23963506D01*
X-5694617Y23992980D01*
X-5714720Y24198010D01*
X-5774265Y24395231D01*
X-5870982Y24577131D01*
X-5950004Y24674021D01*
X-5997294Y24732005D01*
X-5997297Y24732008D01*
X-6001189Y24736780D01*
X-6086399Y24807272D01*
X-6097163Y24816177D01*
X-1685609Y24816177D01*
X-1684445Y24807275D01*
X-1684445Y24807272D01*
X-1683186Y24797646D01*
X-1667020Y24674021D01*
X-1609280Y24542797D01*
X-1603503Y24535924D01*
X-1603502Y24535923D01*
X-1522810Y24439928D01*
X-1517030Y24433052D01*
X-1397687Y24353610D01*
X-1260843Y24310858D01*
X-1251871Y24310694D01*
X-1251868Y24310693D01*
X-1186537Y24309496D01*
X-1117501Y24308230D01*
X-1108467Y24310693D01*
X-987842Y24343579D01*
X-987840Y24343580D01*
X-979183Y24345940D01*
X-857009Y24420955D01*
X-850986Y24427609D01*
X-850982Y24427612D01*
X-772387Y24514443D01*
X-711844Y24551524D01*
X-640864Y24549987D01*
X-582521Y24510963D01*
X-522810Y24439928D01*
X-517030Y24433052D01*
X-397687Y24353610D01*
X-260843Y24310858D01*
X-251871Y24310694D01*
X-251868Y24310693D01*
X-186537Y24309496D01*
X-117501Y24308230D01*
X-108467Y24310693D01*
X12158Y24343579D01*
X12160Y24343580D01*
X20817Y24345940D01*
X142991Y24420955D01*
X239200Y24527246D01*
X301710Y24656267D01*
X325496Y24797646D01*
X325647Y24810000D01*
X305323Y24951918D01*
X245984Y25082428D01*
X227598Y25103766D01*
X158260Y25184237D01*
X158257Y25184240D01*
X152400Y25191037D01*
X32095Y25269015D01*
X-105261Y25310093D01*
X-114237Y25310148D01*
X-114238Y25310148D01*
X-174445Y25310516D01*
X-248624Y25310969D01*
X-386471Y25271572D01*
X-507720Y25195070D01*
X-513662Y25188342D01*
X-513663Y25188341D01*
X-527219Y25172991D01*
X-584877Y25107705D01*
X-585901Y25106546D01*
X-645987Y25068727D01*
X-716980Y25069397D01*
X-775796Y25107705D01*
X-841740Y25184237D01*
X-841743Y25184240D01*
X-847600Y25191037D01*
X-967905Y25269015D01*
X-1105261Y25310093D01*
X-1114237Y25310148D01*
X-1114238Y25310148D01*
X-1174445Y25310516D01*
X-1248624Y25310969D01*
X-1386471Y25271572D01*
X-1507720Y25195070D01*
X-1513662Y25188342D01*
X-1513663Y25188341D01*
X-1527219Y25172991D01*
X-1602623Y25087612D01*
X-1663553Y24957837D01*
X-1664934Y24948965D01*
X-1679500Y24855411D01*
X-1685609Y24816177D01*
X-6097163Y24816177D01*
X-6155175Y24864169D01*
X-6155179Y24864171D01*
X-6159925Y24868098D01*
X-6341145Y24966083D01*
X-6537946Y25027003D01*
X-6544071Y25027647D01*
X-6544072Y25027647D01*
X-6736702Y25047893D01*
X-6736704Y25047893D01*
X-6742831Y25048537D01*
X-6829671Y25040634D01*
X-6941858Y25030425D01*
X-6941861Y25030424D01*
X-6947997Y25029866D01*
X-7145628Y24971700D01*
X-7151093Y24968843D01*
X-7172145Y24957837D01*
X-7328198Y24876254D01*
X-7332999Y24872394D01*
X-7333002Y24872392D01*
X-7483946Y24751030D01*
X-7488753Y24747165D01*
X-7621176Y24589350D01*
X-7624144Y24583952D01*
X-7624147Y24583947D01*
X-7707101Y24433052D01*
X-7720424Y24408818D01*
X-7782716Y24212448D01*
X-7783402Y24206331D01*
X-7783403Y24206327D01*
X-7799057Y24066762D01*
X-7805680Y24007718D01*
X-7805164Y24001574D01*
X-7789500Y23815044D01*
X-7788441Y23802427D01*
X-7786742Y23796502D01*
X-7738589Y23628574D01*
X-7731656Y23604394D01*
X-7728841Y23598917D01*
X-7728840Y23598914D01*
X-7641825Y23429600D01*
X-7637488Y23421162D01*
X-7509523Y23259710D01*
X-7504830Y23255716D01*
X-7504829Y23255715D01*
X-7403795Y23169729D01*
X-7352636Y23126189D01*
X-7347258Y23123183D01*
X-7347256Y23123182D01*
X-7290990Y23091736D01*
X-7172802Y23025683D01*
X-7077962Y22994867D01*
X-6982729Y22963924D01*
X-6982725Y22963923D01*
X-6976871Y22962021D01*
X-6772306Y22937629D01*
X-6766171Y22938101D01*
X-6766168Y22938101D01*
X-6666229Y22945791D01*
X-6596775Y22931074D01*
X-6546303Y22881143D01*
X-6530837Y22811851D01*
X-6531640Y22803730D01*
X-6540182Y22738843D01*
X-6539104Y22730655D01*
X-6527455Y22642170D01*
X-6538394Y22572021D01*
X-6585523Y22518923D01*
X-6653877Y22499733D01*
X-6665541Y22500414D01*
X-6742831Y22508537D01*
X-6829671Y22500634D01*
X-6941858Y22490425D01*
X-6941861Y22490424D01*
X-6947997Y22489866D01*
X-7145628Y22431700D01*
X-7328198Y22336254D01*
X-7332999Y22332394D01*
X-7333002Y22332392D01*
X-7437636Y22248264D01*
X-7488753Y22207165D01*
X-7621176Y22049350D01*
X-7624144Y22043952D01*
X-7624147Y22043947D01*
X-7705856Y21895317D01*
X-7720424Y21868818D01*
X-7782716Y21672448D01*
X-7783402Y21666331D01*
X-7783403Y21666327D01*
X-7804993Y21473843D01*
X-7805680Y21467718D01*
X-19786600Y21467718D01*
X-19786600Y22323599D01*
X-19245682Y22323599D01*
X-19243304Y22305538D01*
X-19230877Y22211147D01*
X-19225044Y22166837D01*
X-19164536Y22020758D01*
X-19068282Y21895317D01*
X-18942841Y21799063D01*
X-18796762Y21738555D01*
X-18640000Y21717917D01*
X-18631812Y21718995D01*
X-18491426Y21737477D01*
X-18483238Y21738555D01*
X-18337159Y21799063D01*
X-18211718Y21895317D01*
X-18115464Y22020758D01*
X-18054956Y22166837D01*
X-18049122Y22211147D01*
X-18036696Y22305538D01*
X-18034318Y22323599D01*
X-16705682Y22323599D01*
X-16703304Y22305538D01*
X-16690877Y22211147D01*
X-16685044Y22166837D01*
X-16624536Y22020758D01*
X-16528282Y21895317D01*
X-16402841Y21799063D01*
X-16256762Y21738555D01*
X-16100000Y21717917D01*
X-16091812Y21718995D01*
X-15951426Y21737477D01*
X-15943238Y21738555D01*
X-15797159Y21799063D01*
X-15671718Y21895317D01*
X-15575464Y22020758D01*
X-15514956Y22166837D01*
X-15509122Y22211147D01*
X-15496696Y22305538D01*
X-15494318Y22323599D01*
X-15514956Y22480361D01*
X-15575464Y22626440D01*
X-15671718Y22751881D01*
X-15797159Y22848135D01*
X-15924947Y22901067D01*
X-15935609Y22905483D01*
X-15943238Y22908643D01*
X-16100000Y22929281D01*
X-16256762Y22908643D01*
X-16264391Y22905483D01*
X-16275053Y22901067D01*
X-16402841Y22848135D01*
X-16528282Y22751881D01*
X-16624536Y22626440D01*
X-16685044Y22480361D01*
X-16705682Y22323599D01*
X-18034318Y22323599D01*
X-18054956Y22480361D01*
X-18115464Y22626440D01*
X-18211718Y22751881D01*
X-18337159Y22848135D01*
X-18464947Y22901067D01*
X-18475609Y22905483D01*
X-18483238Y22908643D01*
X-18640000Y22929281D01*
X-18796762Y22908643D01*
X-18804391Y22905483D01*
X-18815053Y22901067D01*
X-18942841Y22848135D01*
X-19068282Y22751881D01*
X-19164536Y22626440D01*
X-19225044Y22480361D01*
X-19245682Y22323599D01*
X-19786600Y22323599D01*
X-19786600Y23060000D01*
X-14705682Y23060000D01*
X-14685044Y22903238D01*
X-14681884Y22895609D01*
X-14681532Y22894760D01*
X-14624536Y22757159D01*
X-14591418Y22713999D01*
X-14533814Y22638928D01*
X-14528282Y22631718D01*
X-14402841Y22535464D01*
X-14256762Y22474956D01*
X-14100000Y22454318D01*
X-14091812Y22455396D01*
X-13951426Y22473878D01*
X-13943238Y22474956D01*
X-13797159Y22535464D01*
X-13671718Y22631718D01*
X-13666185Y22638928D01*
X-13608582Y22713999D01*
X-13575464Y22757159D01*
X-13518468Y22894760D01*
X-13518116Y22895609D01*
X-13514956Y22903238D01*
X-13494318Y23060000D01*
X-13514956Y23216762D01*
X-13575464Y23362841D01*
X-13671718Y23488282D01*
X-13682211Y23496334D01*
X-13738326Y23539392D01*
X-13797159Y23584536D01*
X-13943238Y23645044D01*
X-14100000Y23665682D01*
X-14256762Y23645044D01*
X-14402841Y23584536D01*
X-14461674Y23539392D01*
X-14517788Y23496334D01*
X-14528282Y23488282D01*
X-14624536Y23362841D01*
X-14685044Y23216762D01*
X-14705682Y23060000D01*
X-19786600Y23060000D01*
X-19786600Y24863599D01*
X-19245682Y24863599D01*
X-19225044Y24706837D01*
X-19164536Y24560758D01*
X-19068282Y24435317D01*
X-18942841Y24339063D01*
X-18796762Y24278555D01*
X-18640000Y24257917D01*
X-18631812Y24258995D01*
X-18491426Y24277477D01*
X-18483238Y24278555D01*
X-18337159Y24339063D01*
X-18211718Y24435317D01*
X-18115464Y24560758D01*
X-18054956Y24706837D01*
X-18034318Y24863599D01*
X-16705682Y24863599D01*
X-16685044Y24706837D01*
X-16624536Y24560758D01*
X-16528282Y24435317D01*
X-16402841Y24339063D01*
X-16256762Y24278555D01*
X-16100000Y24257917D01*
X-16091812Y24258995D01*
X-15951426Y24277477D01*
X-15943238Y24278555D01*
X-15797159Y24339063D01*
X-15671718Y24435317D01*
X-15575464Y24560758D01*
X-15514956Y24706837D01*
X-15494318Y24863599D01*
X-14165682Y24863599D01*
X-14145044Y24706837D01*
X-14084536Y24560758D01*
X-13988282Y24435317D01*
X-13862841Y24339063D01*
X-13716762Y24278555D01*
X-13560000Y24257917D01*
X-13551812Y24258995D01*
X-13411426Y24277477D01*
X-13403238Y24278555D01*
X-13257159Y24339063D01*
X-13131718Y24435317D01*
X-13035464Y24560758D01*
X-12974956Y24706837D01*
X-12954318Y24863599D01*
X-12974956Y25020361D01*
X-13035464Y25166440D01*
X-13131718Y25291881D01*
X-13257159Y25388135D01*
X-13403238Y25448643D01*
X-13560000Y25469281D01*
X-13716762Y25448643D01*
X-13862841Y25388135D01*
X-13988282Y25291881D01*
X-14084536Y25166440D01*
X-14145044Y25020361D01*
X-14165682Y24863599D01*
X-15494318Y24863599D01*
X-15514956Y25020361D01*
X-15575464Y25166440D01*
X-15671718Y25291881D01*
X-15797159Y25388135D01*
X-15943238Y25448643D01*
X-16100000Y25469281D01*
X-16256762Y25448643D01*
X-16402841Y25388135D01*
X-16528282Y25291881D01*
X-16624536Y25166440D01*
X-16685044Y25020361D01*
X-16705682Y24863599D01*
X-18034318Y24863599D01*
X-18054956Y25020361D01*
X-18115464Y25166440D01*
X-18211718Y25291881D01*
X-18337159Y25388135D01*
X-18483238Y25448643D01*
X-18640000Y25469281D01*
X-18796762Y25448643D01*
X-18942841Y25388135D01*
X-19068282Y25291881D01*
X-19164536Y25166440D01*
X-19225044Y25020361D01*
X-19245682Y24863599D01*
X-19786600Y24863599D01*
X-19786600Y26547718D01*
X-7805680Y26547718D01*
X-7805164Y26541574D01*
X-7790705Y26369392D01*
X-7788441Y26342427D01*
X-7783311Y26324536D01*
X-7741228Y26177777D01*
X-7731656Y26144394D01*
X-7728841Y26138917D01*
X-7728840Y26138914D01*
X-7643729Y25973306D01*
X-7637488Y25961162D01*
X-7509523Y25799710D01*
X-7504830Y25795716D01*
X-7504829Y25795715D01*
X-7398954Y25705609D01*
X-7352636Y25666189D01*
X-7172802Y25565683D01*
X-7095269Y25540491D01*
X-6982729Y25503924D01*
X-6982725Y25503923D01*
X-6976871Y25502021D01*
X-6772306Y25477629D01*
X-6766171Y25478101D01*
X-6766169Y25478101D01*
X-6710161Y25482411D01*
X-6566900Y25493434D01*
X-6560970Y25495090D01*
X-6560968Y25495090D01*
X-6374403Y25547180D01*
X-6374404Y25547180D01*
X-6368475Y25548835D01*
X-6362986Y25551608D01*
X-6362980Y25551610D01*
X-6230248Y25618658D01*
X-6184590Y25641722D01*
X-6148162Y25670182D01*
X-6027105Y25764762D01*
X-6027104Y25764763D01*
X-6022249Y25768556D01*
X-6019298Y25771974D01*
X-5956681Y25804206D01*
X-5886011Y25797413D01*
X-5830231Y25753491D01*
X-5815834Y25722911D01*
X-5815044Y25723238D01*
X-5754536Y25577159D01*
X-5733085Y25549204D01*
X-5664925Y25460376D01*
X-5658282Y25451718D01*
X-5651736Y25446695D01*
X-5645250Y25441718D01*
X-5532841Y25355464D01*
X-5386762Y25294956D01*
X-5230000Y25274318D01*
X-5221812Y25275396D01*
X-5081426Y25293878D01*
X-5073238Y25294956D01*
X-4927159Y25355464D01*
X-4814750Y25441718D01*
X-4808264Y25446695D01*
X-4801718Y25451718D01*
X-4795074Y25460376D01*
X-4726915Y25549204D01*
X-4705464Y25577159D01*
X-4644956Y25723238D01*
X-4624318Y25880000D01*
X-4644956Y26036762D01*
X-4654582Y26060000D01*
X395318Y26060000D01*
X415956Y25903238D01*
X476464Y25757159D01*
X572718Y25631718D01*
X698159Y25535464D01*
X799628Y25493434D01*
X832742Y25479718D01*
X844238Y25474956D01*
X1001000Y25454318D01*
X1009188Y25455396D01*
X1149574Y25473878D01*
X1157762Y25474956D01*
X1169259Y25479718D01*
X1202372Y25493434D01*
X1303841Y25535464D01*
X1429282Y25631718D01*
X1525536Y25757159D01*
X1586044Y25903238D01*
X1606682Y26060000D01*
X1586044Y26216762D01*
X1525536Y26362841D01*
X1439830Y26474536D01*
X1434305Y26481736D01*
X1429282Y26488282D01*
X1303841Y26584536D01*
X1157762Y26645044D01*
X1001000Y26665682D01*
X844238Y26645044D01*
X698159Y26584536D01*
X572718Y26488282D01*
X567695Y26481736D01*
X562170Y26474536D01*
X476464Y26362841D01*
X415956Y26216762D01*
X395318Y26060000D01*
X-4654582Y26060000D01*
X-4705464Y26182841D01*
X-4788215Y26290685D01*
X-4796695Y26301736D01*
X-4801718Y26308282D01*
X-4819444Y26321884D01*
X-4884409Y26371733D01*
X-4927159Y26404536D01*
X-5073238Y26465044D01*
X-5230000Y26485682D01*
X-5386762Y26465044D01*
X-5394391Y26461884D01*
X-5520483Y26409655D01*
X-5591073Y26402066D01*
X-5654560Y26433845D01*
X-5690787Y26494903D01*
X-5694466Y26525946D01*
X-5694519Y26525944D01*
X-5694548Y26526633D01*
X-5694689Y26527824D01*
X-5694666Y26529457D01*
X-5694666Y26529461D01*
X-5694617Y26532980D01*
X-5714720Y26738010D01*
X-5774265Y26935231D01*
X-5870982Y27117131D01*
X-5959873Y27226122D01*
X-5997294Y27272005D01*
X-5997297Y27272008D01*
X-6001189Y27276780D01*
X-6035364Y27305052D01*
X-6155175Y27404169D01*
X-6155179Y27404171D01*
X-6159925Y27408098D01*
X-6341145Y27506083D01*
X-6537946Y27567003D01*
X-6544071Y27567647D01*
X-6544072Y27567647D01*
X-6736702Y27587893D01*
X-6736704Y27587893D01*
X-6742831Y27588537D01*
X-6829671Y27580634D01*
X-6941858Y27570425D01*
X-6941861Y27570424D01*
X-6947997Y27569866D01*
X-7145628Y27511700D01*
X-7151093Y27508843D01*
X-7161977Y27503153D01*
X-7328198Y27416254D01*
X-7332999Y27412394D01*
X-7333002Y27412392D01*
X-7466506Y27305052D01*
X-7488753Y27287165D01*
X-7621176Y27129350D01*
X-7624144Y27123952D01*
X-7624147Y27123947D01*
X-7702385Y26981631D01*
X-7720424Y26948818D01*
X-7782716Y26752448D01*
X-7783402Y26746331D01*
X-7783403Y26746327D01*
X-7794763Y26645044D01*
X-7805680Y26547718D01*
X-19786600Y26547718D01*
X-19786600Y27403599D01*
X-19245682Y27403599D01*
X-19225044Y27246837D01*
X-19221884Y27239208D01*
X-19217783Y27229307D01*
X-19164536Y27100758D01*
X-19128185Y27053384D01*
X-19086672Y26999284D01*
X-19068282Y26975317D01*
X-18942841Y26879063D01*
X-18796762Y26818555D01*
X-18640000Y26797917D01*
X-18631812Y26798995D01*
X-18491426Y26817477D01*
X-18483238Y26818555D01*
X-18337159Y26879063D01*
X-18211718Y26975317D01*
X-18193327Y26999284D01*
X-18151815Y27053384D01*
X-18115464Y27100758D01*
X-18062217Y27229307D01*
X-18058116Y27239208D01*
X-18054956Y27246837D01*
X-18034318Y27403599D01*
X-16705682Y27403599D01*
X-16685044Y27246837D01*
X-16681884Y27239208D01*
X-16677783Y27229307D01*
X-16624536Y27100758D01*
X-16588185Y27053384D01*
X-16546672Y26999284D01*
X-16528282Y26975317D01*
X-16402841Y26879063D01*
X-16256762Y26818555D01*
X-16100000Y26797917D01*
X-16091812Y26798995D01*
X-15951426Y26817477D01*
X-15943238Y26818555D01*
X-15797159Y26879063D01*
X-15671718Y26975317D01*
X-15653327Y26999284D01*
X-15611815Y27053384D01*
X-15575464Y27100758D01*
X-15522217Y27229307D01*
X-15518116Y27239208D01*
X-15514956Y27246837D01*
X-15494318Y27403599D01*
X-14165682Y27403599D01*
X-14145044Y27246837D01*
X-14141884Y27239208D01*
X-14137783Y27229307D01*
X-14084536Y27100758D01*
X-14048185Y27053384D01*
X-14006672Y26999284D01*
X-13988282Y26975317D01*
X-13862841Y26879063D01*
X-13716762Y26818555D01*
X-13560000Y26797917D01*
X-13551812Y26798995D01*
X-13411426Y26817477D01*
X-13403238Y26818555D01*
X-13257159Y26879063D01*
X-13131718Y26975317D01*
X-13113327Y26999284D01*
X-13071815Y27053384D01*
X-13035464Y27100758D01*
X-12982217Y27229307D01*
X-12978116Y27239208D01*
X-12974956Y27246837D01*
X-12954318Y27403599D01*
X-12974956Y27560361D01*
X-13035464Y27706440D01*
X-13131718Y27831881D01*
X-13257159Y27928135D01*
X-13403238Y27988643D01*
X-13560000Y28009281D01*
X-13716762Y27988643D01*
X-13862841Y27928135D01*
X-13988282Y27831881D01*
X-14084536Y27706440D01*
X-14145044Y27560361D01*
X-14165682Y27403599D01*
X-15494318Y27403599D01*
X-15514956Y27560361D01*
X-15575464Y27706440D01*
X-15671718Y27831881D01*
X-15797159Y27928135D01*
X-15943238Y27988643D01*
X-16100000Y28009281D01*
X-16256762Y27988643D01*
X-16402841Y27928135D01*
X-16528282Y27831881D01*
X-16624536Y27706440D01*
X-16685044Y27560361D01*
X-16705682Y27403599D01*
X-18034318Y27403599D01*
X-18054956Y27560361D01*
X-18115464Y27706440D01*
X-18211718Y27831881D01*
X-18337159Y27928135D01*
X-18483238Y27988643D01*
X-18640000Y28009281D01*
X-18796762Y27988643D01*
X-18942841Y27928135D01*
X-19068282Y27831881D01*
X-19164536Y27706440D01*
X-19225044Y27560361D01*
X-19245682Y27403599D01*
X-19786600Y27403599D01*
X-19786600Y29090000D01*
X-15125682Y29090000D01*
X-15105044Y28933238D01*
X-15044536Y28787159D01*
X-15009682Y28741736D01*
X-14970227Y28690318D01*
X-14948282Y28661718D01*
X-14822841Y28565464D01*
X-14676762Y28504956D01*
X-14520000Y28484318D01*
X-14511812Y28485396D01*
X-14371426Y28503878D01*
X-14363238Y28504956D01*
X-14217159Y28565464D01*
X-14091718Y28661718D01*
X-14069772Y28690318D01*
X-14030318Y28741736D01*
X-13995464Y28787159D01*
X-13934956Y28933238D01*
X-13914618Y29087718D01*
X-7805680Y29087718D01*
X-7805164Y29081574D01*
X-7790242Y28903878D01*
X-7788441Y28882427D01*
X-7786742Y28876502D01*
X-7734734Y28695129D01*
X-7731656Y28684394D01*
X-7728841Y28678917D01*
X-7728840Y28678914D01*
X-7668911Y28562304D01*
X-7637488Y28501162D01*
X-7509523Y28339710D01*
X-7504830Y28335716D01*
X-7504829Y28335715D01*
X-7400135Y28246614D01*
X-7352636Y28206189D01*
X-7347258Y28203183D01*
X-7347256Y28203182D01*
X-7275784Y28163238D01*
X-7172802Y28105683D01*
X-7086695Y28077705D01*
X-6982729Y28043924D01*
X-6982725Y28043923D01*
X-6976871Y28042021D01*
X-6772306Y28017629D01*
X-6766171Y28018101D01*
X-6766169Y28018101D01*
X-6710161Y28022411D01*
X-6566900Y28033434D01*
X-6560970Y28035090D01*
X-6560968Y28035090D01*
X-6430233Y28071592D01*
X-6368475Y28088835D01*
X-6362986Y28091608D01*
X-6362980Y28091610D01*
X-6190084Y28178947D01*
X-6184590Y28181722D01*
X-6173377Y28190482D01*
X-6075162Y28267216D01*
X-6022249Y28308556D01*
X-6014889Y28317082D01*
X-6012370Y28320000D01*
X64318Y28320000D01*
X84956Y28163238D01*
X145464Y28017159D01*
X166518Y27989721D01*
X215687Y27925643D01*
X241718Y27891718D01*
X248264Y27886695D01*
X272417Y27868162D01*
X367159Y27795464D01*
X513238Y27734956D01*
X670000Y27714318D01*
X678188Y27715396D01*
X818574Y27733878D01*
X826762Y27734956D01*
X972841Y27795464D01*
X1067583Y27868162D01*
X1091736Y27886695D01*
X1098282Y27891718D01*
X1124314Y27925643D01*
X1173482Y27989721D01*
X1194536Y28017159D01*
X1255044Y28163238D01*
X1275682Y28320000D01*
X1255044Y28476762D01*
X1194536Y28622841D01*
X1126059Y28712082D01*
X1103305Y28741736D01*
X1098282Y28748282D01*
X972841Y28844536D01*
X895669Y28876502D01*
X834391Y28901884D01*
X826762Y28905044D01*
X670000Y28925682D01*
X513238Y28905044D01*
X505609Y28901884D01*
X444332Y28876502D01*
X367159Y28844536D01*
X241718Y28748282D01*
X236695Y28741736D01*
X213941Y28712082D01*
X145464Y28622841D01*
X84956Y28476762D01*
X64318Y28320000D01*
X-6012370Y28320000D01*
X-5891660Y28459846D01*
X-5891660Y28459847D01*
X-5887636Y28464508D01*
X-5866813Y28501162D01*
X-5830285Y28565464D01*
X-5785877Y28643636D01*
X-5720849Y28839117D01*
X-5695029Y29043506D01*
X-5694617Y29072980D01*
X-5702169Y29150000D01*
X-3995682Y29150000D01*
X-3975044Y28993238D01*
X-3914536Y28847159D01*
X-3863470Y28780608D01*
X-3842519Y28753305D01*
X-3818282Y28721718D01*
X-3692841Y28625464D01*
X-3546762Y28564956D01*
X-3390000Y28544318D01*
X-3381812Y28545396D01*
X-3379639Y28545682D01*
X-3233238Y28564956D01*
X-3087159Y28625464D01*
X-2961718Y28721718D01*
X-2937480Y28753305D01*
X-2916530Y28780608D01*
X-2865464Y28847159D01*
X-2804956Y28993238D01*
X-2784318Y29150000D01*
X-2801171Y29278010D01*
X-2803878Y29298574D01*
X-2804956Y29306762D01*
X-2865464Y29452841D01*
X-2961718Y29578282D01*
X-3087159Y29674536D01*
X-3172777Y29710000D01*
X-1305682Y29710000D01*
X-1285044Y29553238D01*
X-1224536Y29407159D01*
X-1128282Y29281718D01*
X-1121736Y29276695D01*
X-1106437Y29264956D01*
X-1002841Y29185464D01*
X-856762Y29124956D01*
X-848574Y29123878D01*
X-803303Y29117918D01*
X-700000Y29104318D01*
X-691812Y29105396D01*
X-551426Y29123878D01*
X-543238Y29124956D01*
X-397159Y29185464D01*
X-293563Y29264956D01*
X-278264Y29276695D01*
X-271718Y29281718D01*
X-175464Y29407159D01*
X-114956Y29553238D01*
X-94318Y29710000D01*
X-114956Y29866762D01*
X-175464Y30012841D01*
X-264240Y30128537D01*
X-266695Y30131736D01*
X-271718Y30138282D01*
X-397159Y30234536D01*
X-543238Y30295044D01*
X-700000Y30315682D01*
X-856762Y30295044D01*
X-1002841Y30234536D01*
X-1128282Y30138282D01*
X-1133305Y30131736D01*
X-1135760Y30128537D01*
X-1224536Y30012841D01*
X-1285044Y29866762D01*
X-1305682Y29710000D01*
X-3172777Y29710000D01*
X-3233238Y29735044D01*
X-3390000Y29755682D01*
X-3546762Y29735044D01*
X-3692841Y29674536D01*
X-3818282Y29578282D01*
X-3914536Y29452841D01*
X-3975044Y29306762D01*
X-3976122Y29298574D01*
X-3978829Y29278010D01*
X-3995682Y29150000D01*
X-5702169Y29150000D01*
X-5714720Y29278010D01*
X-5774265Y29475231D01*
X-5870982Y29657131D01*
X-5950479Y29754604D01*
X-5997294Y29812005D01*
X-5997297Y29812008D01*
X-6001189Y29816780D01*
X-6005938Y29820709D01*
X-6155175Y29944169D01*
X-6155179Y29944171D01*
X-6159925Y29948098D01*
X-6341145Y30046083D01*
X-6537946Y30107003D01*
X-6544071Y30107647D01*
X-6544072Y30107647D01*
X-6736702Y30127893D01*
X-6736704Y30127893D01*
X-6742831Y30128537D01*
X-6828827Y30120711D01*
X-6941858Y30110425D01*
X-6941861Y30110424D01*
X-6947997Y30109866D01*
X-7145628Y30051700D01*
X-7328198Y29956254D01*
X-7332999Y29952394D01*
X-7333002Y29952392D01*
X-7480640Y29833688D01*
X-7488753Y29827165D01*
X-7621176Y29669350D01*
X-7624144Y29663952D01*
X-7624147Y29663947D01*
X-7703986Y29518718D01*
X-7720424Y29488818D01*
X-7782716Y29292448D01*
X-7783402Y29286331D01*
X-7783403Y29286327D01*
X-7802595Y29115223D01*
X-7805680Y29087718D01*
X-13914618Y29087718D01*
X-13914318Y29090000D01*
X-13927548Y29190491D01*
X-13933878Y29238574D01*
X-13934956Y29246762D01*
X-13995464Y29392841D01*
X-14069110Y29488818D01*
X-14086695Y29511736D01*
X-14091718Y29518282D01*
X-14217159Y29614536D01*
X-14363238Y29675044D01*
X-14520000Y29695682D01*
X-14676762Y29675044D01*
X-14822841Y29614536D01*
X-14948282Y29518282D01*
X-14953305Y29511736D01*
X-14970890Y29488818D01*
X-15044536Y29392841D01*
X-15105044Y29246762D01*
X-15106122Y29238574D01*
X-15112452Y29190491D01*
X-15125682Y29090000D01*
X-19786600Y29090000D01*
X-19786600Y29943599D01*
X-19245682Y29943599D01*
X-19225044Y29786837D01*
X-19164536Y29640758D01*
X-19068282Y29515317D01*
X-18942841Y29419063D01*
X-18796762Y29358555D01*
X-18640000Y29337917D01*
X-18631812Y29338995D01*
X-18491426Y29357477D01*
X-18483238Y29358555D01*
X-18337159Y29419063D01*
X-18211718Y29515317D01*
X-18115464Y29640758D01*
X-18054956Y29786837D01*
X-18034318Y29943599D01*
X-16705682Y29943599D01*
X-16685044Y29786837D01*
X-16624536Y29640758D01*
X-16528282Y29515317D01*
X-16402841Y29419063D01*
X-16256762Y29358555D01*
X-16100000Y29337917D01*
X-16091812Y29338995D01*
X-15951426Y29357477D01*
X-15943238Y29358555D01*
X-15797159Y29419063D01*
X-15671718Y29515317D01*
X-15575464Y29640758D01*
X-15514956Y29786837D01*
X-15494318Y29943599D01*
X-15514956Y30100361D01*
X-15575464Y30246440D01*
X-15654956Y30350036D01*
X-15666695Y30365335D01*
X-15671718Y30371881D01*
X-15797159Y30468135D01*
X-15943238Y30528643D01*
X-16100000Y30549281D01*
X-16256762Y30528643D01*
X-16402841Y30468135D01*
X-16528282Y30371881D01*
X-16533305Y30365335D01*
X-16545044Y30350036D01*
X-16624536Y30246440D01*
X-16685044Y30100361D01*
X-16705682Y29943599D01*
X-18034318Y29943599D01*
X-18054956Y30100361D01*
X-18115464Y30246440D01*
X-18194956Y30350036D01*
X-18206695Y30365335D01*
X-18211718Y30371881D01*
X-18337159Y30468135D01*
X-18483238Y30528643D01*
X-18640000Y30549281D01*
X-18796762Y30528643D01*
X-18942841Y30468135D01*
X-19068282Y30371881D01*
X-19073305Y30365335D01*
X-19085044Y30350036D01*
X-19164536Y30246440D01*
X-19225044Y30100361D01*
X-19245682Y29943599D01*
X-19786600Y29943599D01*
X-19786600Y31627718D01*
X-7805680Y31627718D01*
X-7788441Y31422427D01*
X-7786742Y31416502D01*
X-7742358Y31261718D01*
X-7731656Y31224394D01*
X-7728841Y31218917D01*
X-7728840Y31218914D01*
X-7660221Y31085396D01*
X-7637488Y31041162D01*
X-7509523Y30879710D01*
X-7352636Y30746189D01*
X-7172802Y30645683D01*
X-7087960Y30618116D01*
X-6982729Y30583924D01*
X-6982725Y30583923D01*
X-6976871Y30582021D01*
X-6772306Y30557629D01*
X-6766171Y30558101D01*
X-6766169Y30558101D01*
X-6710161Y30562411D01*
X-6566900Y30573434D01*
X-6560970Y30575090D01*
X-6560968Y30575090D01*
X-6418184Y30614956D01*
X-6368475Y30628835D01*
X-6362986Y30631608D01*
X-6362980Y30631610D01*
X-6215152Y30706284D01*
X-6184590Y30721722D01*
X-6173889Y30730082D01*
X-6027099Y30844767D01*
X-6022249Y30848556D01*
X-5887636Y31004508D01*
X-5866813Y31041162D01*
X-5830574Y31104956D01*
X-5785877Y31183636D01*
X-5720849Y31379117D01*
X-5695029Y31583506D01*
X-5694617Y31612980D01*
X-5714720Y31818010D01*
X-5774265Y32015231D01*
X-5870982Y32197131D01*
X-5944341Y32287078D01*
X-5997294Y32352005D01*
X-5997297Y32352008D01*
X-6001189Y32356780D01*
X-6005938Y32360709D01*
X-6155175Y32484169D01*
X-6155179Y32484171D01*
X-6159925Y32488098D01*
X-6341145Y32586083D01*
X-6537946Y32647003D01*
X-6544071Y32647647D01*
X-6544072Y32647647D01*
X-6736702Y32667893D01*
X-6736704Y32667893D01*
X-6742831Y32668537D01*
X-6829671Y32660634D01*
X-6941858Y32650425D01*
X-6941861Y32650424D01*
X-6947997Y32649866D01*
X-7145628Y32591700D01*
X-7328198Y32496254D01*
X-7332999Y32492394D01*
X-7333002Y32492392D01*
X-7433126Y32411890D01*
X-7488753Y32367165D01*
X-7621176Y32209350D01*
X-7624144Y32203952D01*
X-7624147Y32203947D01*
X-7703394Y32059796D01*
X-7720424Y32028818D01*
X-7782716Y31832448D01*
X-7783402Y31826331D01*
X-7783403Y31826327D01*
X-7799951Y31678796D01*
X-7805680Y31627718D01*
X-19786600Y31627718D01*
X-19786600Y32483599D01*
X-19245682Y32483599D01*
X-19225044Y32326837D01*
X-19164536Y32180758D01*
X-19068282Y32055317D01*
X-18942841Y31959063D01*
X-18796762Y31898555D01*
X-18640000Y31877917D01*
X-18631812Y31878995D01*
X-18491426Y31897477D01*
X-18483238Y31898555D01*
X-18337159Y31959063D01*
X-18211718Y32055317D01*
X-18115464Y32180758D01*
X-18054956Y32326837D01*
X-18034318Y32483599D01*
X-16705682Y32483599D01*
X-16685044Y32326837D01*
X-16624536Y32180758D01*
X-16528282Y32055317D01*
X-16402841Y31959063D01*
X-16256762Y31898555D01*
X-16100000Y31877917D01*
X-16091812Y31878995D01*
X-15951426Y31897477D01*
X-15943238Y31898555D01*
X-15797159Y31959063D01*
X-15671718Y32055317D01*
X-15575464Y32180758D01*
X-15514956Y32326837D01*
X-15494318Y32483599D01*
X-15504637Y32561980D01*
X-15513878Y32632173D01*
X-15514956Y32640361D01*
X-15575464Y32786440D01*
X-15653397Y32888004D01*
X-15666695Y32905335D01*
X-15671718Y32911881D01*
X-15797159Y33008135D01*
X-15943238Y33068643D01*
X-16100000Y33089281D01*
X-16256762Y33068643D01*
X-16402841Y33008135D01*
X-16528282Y32911881D01*
X-16533305Y32905335D01*
X-16546603Y32888004D01*
X-16624536Y32786440D01*
X-16685044Y32640361D01*
X-16686122Y32632173D01*
X-16695363Y32561980D01*
X-16705682Y32483599D01*
X-18034318Y32483599D01*
X-18044637Y32561980D01*
X-18053878Y32632173D01*
X-18054956Y32640361D01*
X-18115464Y32786440D01*
X-18193397Y32888004D01*
X-18206695Y32905335D01*
X-18211718Y32911881D01*
X-18337159Y33008135D01*
X-18483238Y33068643D01*
X-18640000Y33089281D01*
X-18796762Y33068643D01*
X-18942841Y33008135D01*
X-19068282Y32911881D01*
X-19073305Y32905335D01*
X-19086603Y32888004D01*
X-19164536Y32786440D01*
X-19225044Y32640361D01*
X-19226122Y32632173D01*
X-19235363Y32561980D01*
X-19245682Y32483599D01*
X-19786600Y32483599D01*
X-19786600Y34167718D01*
X-7805680Y34167718D01*
X-7805164Y34161574D01*
X-7790353Y33985200D01*
X-7788441Y33962427D01*
X-7786742Y33956502D01*
X-7736040Y33779684D01*
X-7731656Y33764394D01*
X-7728841Y33758917D01*
X-7728840Y33758914D01*
X-7656715Y33618574D01*
X-7637488Y33581162D01*
X-7509523Y33419710D01*
X-7504830Y33415716D01*
X-7504829Y33415715D01*
X-7375454Y33305609D01*
X-7352636Y33286189D01*
X-7347258Y33283183D01*
X-7347256Y33283182D01*
X-7315637Y33265511D01*
X-7172802Y33185683D01*
X-7115791Y33167159D01*
X-6982729Y33123924D01*
X-6982725Y33123923D01*
X-6976871Y33122021D01*
X-6772306Y33097629D01*
X-6766171Y33098101D01*
X-6766169Y33098101D01*
X-6710161Y33102411D01*
X-6566900Y33113434D01*
X-6560970Y33115090D01*
X-6560968Y33115090D01*
X-6374403Y33167180D01*
X-6374404Y33167180D01*
X-6368475Y33168835D01*
X-6362986Y33171608D01*
X-6362980Y33171610D01*
X-6215152Y33246284D01*
X-6184590Y33261722D01*
X-6173889Y33270082D01*
X-6027099Y33384767D01*
X-6022249Y33388556D01*
X-6016719Y33394962D01*
X-5951949Y33470000D01*
X-3255682Y33470000D01*
X-3235044Y33313238D01*
X-3174536Y33167159D01*
X-3169509Y33160608D01*
X-3096517Y33065483D01*
X-3078282Y33041718D01*
X-3071736Y33036695D01*
X-3042082Y33013941D01*
X-2952841Y32945464D01*
X-2806762Y32884956D01*
X-2650000Y32864318D01*
X-2641812Y32865396D01*
X-2610471Y32869522D01*
X-2493238Y32884956D01*
X-2347159Y32945464D01*
X-2257918Y33013941D01*
X-2250022Y33020000D01*
X-345682Y33020000D01*
X-344604Y33011812D01*
X-328304Y32888004D01*
X-325044Y32863238D01*
X-264536Y32717159D01*
X-168282Y32591718D01*
X-42841Y32495464D01*
X103238Y32434956D01*
X111426Y32433878D01*
X260000Y32414318D01*
X259680Y32411890D01*
X315861Y32395394D01*
X362354Y32341738D01*
X372458Y32271464D01*
X342964Y32206884D01*
X324444Y32189433D01*
X313139Y32180758D01*
X231718Y32118282D01*
X135464Y31992841D01*
X74956Y31846762D01*
X54318Y31690000D01*
X74956Y31533238D01*
X135464Y31387159D01*
X231718Y31261718D01*
X357159Y31165464D01*
X503238Y31104956D01*
X660000Y31084318D01*
X668188Y31085396D01*
X808574Y31103878D01*
X816762Y31104956D01*
X962841Y31165464D01*
X1007849Y31200000D01*
X12619318Y31200000D01*
X12639956Y31043238D01*
X12700464Y30897159D01*
X12796718Y30771718D01*
X12922159Y30675464D01*
X13068238Y30614956D01*
X13225000Y30594318D01*
X13233188Y30595396D01*
X13373574Y30613878D01*
X13381762Y30614956D01*
X13527841Y30675464D01*
X13653282Y30771718D01*
X13749536Y30897159D01*
X13810044Y31043238D01*
X13830682Y31200000D01*
X13810044Y31356762D01*
X13749536Y31502841D01*
X13653282Y31628282D01*
X13527841Y31724536D01*
X13381762Y31785044D01*
X13225000Y31805682D01*
X13068238Y31785044D01*
X12922159Y31724536D01*
X12796718Y31628282D01*
X12700464Y31502841D01*
X12639956Y31356762D01*
X12619318Y31200000D01*
X1007849Y31200000D01*
X1088282Y31261718D01*
X1184536Y31387159D01*
X1245044Y31533238D01*
X1265682Y31690000D01*
X1245044Y31846762D01*
X1184536Y31992841D01*
X1088282Y32118282D01*
X962841Y32214536D01*
X816762Y32275044D01*
X660000Y32295682D01*
X660320Y32298110D01*
X604139Y32314606D01*
X557646Y32368262D01*
X547542Y32438536D01*
X577036Y32503116D01*
X595556Y32520567D01*
X681736Y32586695D01*
X688282Y32591718D01*
X784536Y32717159D01*
X845044Y32863238D01*
X848305Y32888004D01*
X864604Y33011812D01*
X865682Y33020000D01*
X846308Y33167159D01*
X846122Y33168574D01*
X845044Y33176762D01*
X784536Y33322841D01*
X705791Y33425464D01*
X693305Y33441736D01*
X688282Y33448282D01*
X659979Y33470000D01*
X569392Y33539509D01*
X562841Y33544536D01*
X416762Y33605044D01*
X260000Y33625682D01*
X103238Y33605044D01*
X-42841Y33544536D01*
X-49392Y33539509D01*
X-139978Y33470000D01*
X-168282Y33448282D01*
X-173305Y33441736D01*
X-185791Y33425464D01*
X-264536Y33322841D01*
X-325044Y33176762D01*
X-326122Y33168574D01*
X-326308Y33167159D01*
X-345682Y33020000D01*
X-2250022Y33020000D01*
X-2228264Y33036695D01*
X-2221718Y33041718D01*
X-2203482Y33065483D01*
X-2130491Y33160608D01*
X-2125464Y33167159D01*
X-2064956Y33313238D01*
X-2044318Y33470000D01*
X-2064956Y33626762D01*
X-2125464Y33772841D01*
X-2221718Y33898282D01*
X-2334992Y33985200D01*
X3407518Y33985200D01*
X3428156Y33828438D01*
X3488664Y33682359D01*
X3584918Y33556918D01*
X3710359Y33460664D01*
X3740252Y33448282D01*
X3775540Y33433665D01*
X3830821Y33389116D01*
X3853242Y33321753D01*
X3846502Y33284461D01*
X3848707Y33283870D01*
X3846569Y33275891D01*
X3843409Y33268262D01*
X3822771Y33111500D01*
X3823849Y33103312D01*
X3840901Y32973792D01*
X3843409Y32954738D01*
X3903917Y32808659D01*
X4000171Y32683218D01*
X4006717Y32678195D01*
X4019304Y32668537D01*
X4125612Y32586964D01*
X4271691Y32526456D01*
X4428453Y32505818D01*
X4436641Y32506896D01*
X4577027Y32525378D01*
X4585215Y32526456D01*
X4731294Y32586964D01*
X4832211Y32664400D01*
X15853518Y32664400D01*
X15874156Y32507638D01*
X15934664Y32361559D01*
X16030918Y32236118D01*
X16156359Y32139864D01*
X16302438Y32079356D01*
X16459200Y32058718D01*
X16467388Y32059796D01*
X16607774Y32078278D01*
X16615962Y32079356D01*
X16762041Y32139864D01*
X16887482Y32236118D01*
X16923763Y32283400D01*
X19892118Y32283400D01*
X19901846Y32209509D01*
X19904627Y32188388D01*
X19912756Y32126638D01*
X19973264Y31980559D01*
X20069518Y31855118D01*
X20194959Y31758864D01*
X20341038Y31698356D01*
X20497800Y31677718D01*
X20505988Y31678796D01*
X20646374Y31697278D01*
X20654562Y31698356D01*
X20800641Y31758864D01*
X20926082Y31855118D01*
X21022336Y31980559D01*
X21082844Y32126638D01*
X21090974Y32188388D01*
X21093754Y32209509D01*
X21103482Y32283400D01*
X21082844Y32440162D01*
X21064852Y32483599D01*
X23934318Y32483599D01*
X23954956Y32326837D01*
X24015464Y32180758D01*
X24111718Y32055317D01*
X24237159Y31959063D01*
X24383238Y31898555D01*
X24540000Y31877917D01*
X24548188Y31878995D01*
X24688574Y31897477D01*
X24696762Y31898555D01*
X24842841Y31959063D01*
X24968282Y32055317D01*
X25064536Y32180758D01*
X25125044Y32326837D01*
X25145682Y32483599D01*
X25135363Y32561980D01*
X25126122Y32632173D01*
X25125044Y32640361D01*
X25064536Y32786440D01*
X24986603Y32888004D01*
X24973305Y32905335D01*
X24968282Y32911881D01*
X24842841Y33008135D01*
X24696762Y33068643D01*
X24540000Y33089281D01*
X24383238Y33068643D01*
X24237159Y33008135D01*
X24111718Y32911881D01*
X24106695Y32905335D01*
X24093397Y32888004D01*
X24015464Y32786440D01*
X23954956Y32640361D01*
X23953878Y32632173D01*
X23944637Y32561980D01*
X23934318Y32483599D01*
X21064852Y32483599D01*
X21022336Y32586241D01*
X20926082Y32711682D01*
X20800641Y32807936D01*
X20654562Y32868444D01*
X20631912Y32871426D01*
X20576181Y32878763D01*
X20497800Y32889082D01*
X20419419Y32878763D01*
X20363689Y32871426D01*
X20341038Y32868444D01*
X20194959Y32807936D01*
X20069518Y32711682D01*
X19973264Y32586241D01*
X19912756Y32440162D01*
X19892118Y32283400D01*
X16923763Y32283400D01*
X16983736Y32361559D01*
X17044244Y32507638D01*
X17064882Y32664400D01*
X17047953Y32792991D01*
X17045322Y32812974D01*
X17044244Y32821162D01*
X16983736Y32967241D01*
X16887482Y33092682D01*
X16762041Y33188936D01*
X16740641Y33197800D01*
X21111318Y33197800D01*
X21131956Y33041038D01*
X21192464Y32894959D01*
X21288718Y32769518D01*
X21414159Y32673264D01*
X21560238Y32612756D01*
X21717000Y32592118D01*
X21725188Y32593196D01*
X21727042Y32593440D01*
X21873762Y32612756D01*
X22019841Y32673264D01*
X22145282Y32769518D01*
X22241536Y32894959D01*
X22302044Y33041038D01*
X22322682Y33197800D01*
X22302044Y33354562D01*
X22241536Y33500641D01*
X22145282Y33626082D01*
X22134454Y33634391D01*
X22071940Y33682359D01*
X22019841Y33722336D01*
X21873762Y33782844D01*
X21717000Y33803482D01*
X21560238Y33782844D01*
X21414159Y33722336D01*
X21362060Y33682359D01*
X21299547Y33634391D01*
X21288718Y33626082D01*
X21192464Y33500641D01*
X21131956Y33354562D01*
X21111318Y33197800D01*
X16740641Y33197800D01*
X16615962Y33249444D01*
X16459200Y33270082D01*
X16302438Y33249444D01*
X16156359Y33188936D01*
X16030918Y33092682D01*
X15934664Y32967241D01*
X15874156Y32821162D01*
X15873078Y32812974D01*
X15870447Y32792991D01*
X15853518Y32664400D01*
X4832211Y32664400D01*
X4837602Y32668537D01*
X4850189Y32678195D01*
X4856735Y32683218D01*
X4952989Y32808659D01*
X5013497Y32954738D01*
X5016006Y32973792D01*
X5033057Y33103312D01*
X5034135Y33111500D01*
X5013497Y33268262D01*
X4952989Y33414341D01*
X4856735Y33539782D01*
X4731294Y33636036D01*
X4666113Y33663035D01*
X4610832Y33707584D01*
X4588411Y33774947D01*
X4595151Y33812239D01*
X4592946Y33812830D01*
X4595084Y33820809D01*
X4598244Y33828438D01*
X4618882Y33985200D01*
X4598244Y34141962D01*
X4537736Y34288041D01*
X4464638Y34383305D01*
X4446505Y34406936D01*
X4441482Y34413482D01*
X4316041Y34509736D01*
X4169962Y34570244D01*
X4013200Y34590882D01*
X3856438Y34570244D01*
X3710359Y34509736D01*
X3584918Y34413482D01*
X3579895Y34406936D01*
X3561762Y34383305D01*
X3488664Y34288041D01*
X3428156Y34141962D01*
X3407518Y33985200D01*
X-2334992Y33985200D01*
X-2347159Y33994536D01*
X-2353255Y33997061D01*
X-2401720Y34047886D01*
X-2412801Y34105367D01*
X-2469057Y34065305D01*
X-2526717Y34059452D01*
X-2641812Y34074604D01*
X-2650000Y34075682D01*
X-2806762Y34055044D01*
X-2952841Y33994536D01*
X-3078282Y33898282D01*
X-3174536Y33772841D01*
X-3235044Y33626762D01*
X-3255682Y33470000D01*
X-5951949Y33470000D01*
X-5891660Y33539846D01*
X-5891660Y33539847D01*
X-5887636Y33544508D01*
X-5883439Y33551895D01*
X-5841523Y33625682D01*
X-5785877Y33723636D01*
X-5720849Y33919117D01*
X-5695029Y34123506D01*
X-5694617Y34152980D01*
X-5714720Y34358010D01*
X-5774265Y34555231D01*
X-5870982Y34737131D01*
X-5938569Y34820000D01*
X-2755682Y34820000D01*
X-2735044Y34663238D01*
X-2674536Y34517159D01*
X-2578282Y34391718D01*
X-2452841Y34295464D01*
X-2446745Y34292939D01*
X-2398280Y34242114D01*
X-2387199Y34184633D01*
X-2330943Y34224695D01*
X-2273283Y34230548D01*
X-2158188Y34215396D01*
X-2150000Y34214318D01*
X-2141812Y34215396D01*
X-2001426Y34233878D01*
X-1993238Y34234956D01*
X-1847159Y34295464D01*
X-1721718Y34391718D01*
X-1625464Y34517159D01*
X-1564956Y34663238D01*
X-1544318Y34820000D01*
X-1564956Y34976762D01*
X-1625464Y35122841D01*
X-1721718Y35248282D01*
X-1847159Y35344536D01*
X-1993238Y35405044D01*
X-2150000Y35425682D01*
X-2306762Y35405044D01*
X-2452841Y35344536D01*
X-2578282Y35248282D01*
X-2674536Y35122841D01*
X-2735044Y34976762D01*
X-2755682Y34820000D01*
X-5938569Y34820000D01*
X-5961547Y34848174D01*
X-5997294Y34892005D01*
X-5997297Y34892008D01*
X-6001189Y34896780D01*
X-6008027Y34902437D01*
X-6155175Y35024169D01*
X-6155179Y35024171D01*
X-6159925Y35028098D01*
X-6297109Y35102273D01*
X-6335726Y35123153D01*
X-6341145Y35126083D01*
X-6537946Y35187003D01*
X-6544071Y35187647D01*
X-6544072Y35187647D01*
X-6736702Y35207893D01*
X-6736704Y35207893D01*
X-6742831Y35208537D01*
X-6811322Y35202304D01*
X-6941858Y35190425D01*
X-6941861Y35190424D01*
X-6947997Y35189866D01*
X-7145628Y35131700D01*
X-7151093Y35128843D01*
X-7161977Y35123153D01*
X-7328198Y35036254D01*
X-7332999Y35032394D01*
X-7333002Y35032392D01*
X-7474527Y34918603D01*
X-7488753Y34907165D01*
X-7621176Y34749350D01*
X-7624144Y34743952D01*
X-7624147Y34743947D01*
X-7702719Y34601023D01*
X-7720424Y34568818D01*
X-7722287Y34562945D01*
X-7754276Y34462101D01*
X-7782716Y34372448D01*
X-7783402Y34366331D01*
X-7783403Y34366327D01*
X-7790863Y34299819D01*
X-7805680Y34167718D01*
X-19786600Y34167718D01*
X-19786600Y35023599D01*
X-19245682Y35023599D01*
X-19225044Y34866837D01*
X-19164536Y34720758D01*
X-19068282Y34595317D01*
X-18942841Y34499063D01*
X-18796762Y34438555D01*
X-18640000Y34417917D01*
X-18631812Y34418995D01*
X-18491426Y34437477D01*
X-18483238Y34438555D01*
X-18337159Y34499063D01*
X-18211718Y34595317D01*
X-18115464Y34720758D01*
X-18054956Y34866837D01*
X-18034318Y35023599D01*
X-16705682Y35023599D01*
X-16685044Y34866837D01*
X-16624536Y34720758D01*
X-16528282Y34595317D01*
X-16402841Y34499063D01*
X-16256762Y34438555D01*
X-16100000Y34417917D01*
X-16091812Y34418995D01*
X-15951426Y34437477D01*
X-15943238Y34438555D01*
X-15797159Y34499063D01*
X-15671718Y34595317D01*
X-15575464Y34720758D01*
X-15514956Y34866837D01*
X-15494318Y35023599D01*
X-15514956Y35180361D01*
X-15521317Y35195719D01*
X-15529260Y35214893D01*
X-15575464Y35326440D01*
X-15671718Y35451881D01*
X-15797159Y35548135D01*
X-15943238Y35608643D01*
X-16100000Y35629281D01*
X-16256762Y35608643D01*
X-16402841Y35548135D01*
X-16528282Y35451881D01*
X-16624536Y35326440D01*
X-16670740Y35214893D01*
X-16678682Y35195719D01*
X-16685044Y35180361D01*
X-16705682Y35023599D01*
X-18034318Y35023599D01*
X-18054956Y35180361D01*
X-18061317Y35195719D01*
X-18069260Y35214893D01*
X-18115464Y35326440D01*
X-18211718Y35451881D01*
X-18337159Y35548135D01*
X-18483238Y35608643D01*
X-18640000Y35629281D01*
X-18796762Y35608643D01*
X-18942841Y35548135D01*
X-19068282Y35451881D01*
X-19164536Y35326440D01*
X-19210740Y35214893D01*
X-19218682Y35195719D01*
X-19225044Y35180361D01*
X-19245682Y35023599D01*
X-19786600Y35023599D01*
X-19786600Y35823232D01*
X-7800700Y35823232D01*
X-7799493Y35817164D01*
X-7796270Y35800963D01*
X-7789067Y35764749D01*
X-7744752Y35698428D01*
X-7678431Y35654113D01*
X-7666262Y35651692D01*
X-7666261Y35651692D01*
X-7626016Y35643687D01*
X-7619948Y35642480D01*
X-5880452Y35642480D01*
X-5874384Y35643687D01*
X-5834139Y35651692D01*
X-5834138Y35651692D01*
X-5821969Y35654113D01*
X-5755648Y35698428D01*
X-5711333Y35764749D01*
X-5704129Y35800963D01*
X-5700907Y35817164D01*
X-5699700Y35823232D01*
X-5699700Y36690000D01*
X-3205682Y36690000D01*
X-3185044Y36533238D01*
X-3124536Y36387159D01*
X-3028282Y36261718D01*
X-2902841Y36165464D01*
X-2756762Y36104956D01*
X-2600000Y36084318D01*
X-2591812Y36085396D01*
X-2451426Y36103878D01*
X-2443238Y36104956D01*
X-2440290Y36106177D01*
X-1685609Y36106177D01*
X-1667020Y35964021D01*
X-1646537Y35917469D01*
X-1619912Y35856961D01*
X-1609280Y35832797D01*
X-1603503Y35825924D01*
X-1603502Y35825923D01*
X-1522810Y35729928D01*
X-1517030Y35723052D01*
X-1498857Y35710955D01*
X-1409828Y35651692D01*
X-1397687Y35643610D01*
X-1260843Y35600858D01*
X-1251871Y35600694D01*
X-1251868Y35600693D01*
X-1186537Y35599496D01*
X-1117501Y35598230D01*
X-1108467Y35600693D01*
X-987842Y35633579D01*
X-987840Y35633580D01*
X-979183Y35635940D01*
X-857009Y35710955D01*
X-850988Y35717607D01*
X-850982Y35717612D01*
X-772387Y35804443D01*
X-711844Y35841524D01*
X-640864Y35839987D01*
X-582521Y35800963D01*
X-522810Y35729928D01*
X-517030Y35723052D01*
X-498857Y35710955D01*
X-409828Y35651692D01*
X-397687Y35643610D01*
X-260843Y35600858D01*
X-251871Y35600694D01*
X-251868Y35600693D01*
X-186537Y35599496D01*
X-117501Y35598230D01*
X-108467Y35600693D01*
X12158Y35633579D01*
X12160Y35633580D01*
X20817Y35635940D01*
X142991Y35710955D01*
X149012Y35717607D01*
X149018Y35717612D01*
X216730Y35792420D01*
X277273Y35829501D01*
X348253Y35827964D01*
X407134Y35788296D01*
X435067Y35724311D01*
X454956Y35573238D01*
X515464Y35427159D01*
X611718Y35301718D01*
X737159Y35205464D01*
X883238Y35144956D01*
X913267Y35141003D01*
X978193Y35112282D01*
X1017286Y35053017D01*
X1021742Y35032533D01*
X1040456Y34890383D01*
X1043616Y34882754D01*
X1048032Y34872092D01*
X1100964Y34744304D01*
X1197218Y34618863D01*
X1322659Y34522609D01*
X1468738Y34462101D01*
X1625500Y34441463D01*
X1633688Y34442541D01*
X1774074Y34461023D01*
X1782262Y34462101D01*
X1928341Y34522609D01*
X2053782Y34618863D01*
X2150036Y34744304D01*
X2202968Y34872092D01*
X2207384Y34882754D01*
X2210544Y34890383D01*
X2231182Y35047145D01*
X2216645Y35157566D01*
X12608956Y35157566D01*
X12629594Y35000804D01*
X12690102Y34854725D01*
X12723030Y34811812D01*
X12779858Y34737753D01*
X12786356Y34729284D01*
X12792902Y34724261D01*
X12902480Y34640179D01*
X12944347Y34582841D01*
X12948569Y34511970D01*
X12913805Y34450067D01*
X12902480Y34440254D01*
X12828268Y34383309D01*
X12828264Y34383305D01*
X12821718Y34378282D01*
X12816695Y34371736D01*
X12806163Y34358010D01*
X12725464Y34252841D01*
X12664956Y34106762D01*
X12644318Y33950000D01*
X12664956Y33793238D01*
X12725464Y33647159D01*
X12741115Y33626762D01*
X12808067Y33539509D01*
X12821718Y33521718D01*
X12947159Y33425464D01*
X13093238Y33364956D01*
X13250000Y33344318D01*
X13258188Y33345396D01*
X13398574Y33363878D01*
X13406762Y33364956D01*
X13552841Y33425464D01*
X13678282Y33521718D01*
X13691934Y33539509D01*
X13758885Y33626762D01*
X13774536Y33647159D01*
X13835044Y33793238D01*
X13855682Y33950000D01*
X13835044Y34106762D01*
X13774536Y34252841D01*
X13693837Y34358010D01*
X13683305Y34371736D01*
X13678282Y34378282D01*
X13625224Y34418995D01*
X13562158Y34467387D01*
X13520291Y34524725D01*
X13516069Y34595596D01*
X13523715Y34609211D01*
X14803529Y34609211D01*
X14824167Y34452449D01*
X14884675Y34306370D01*
X14980929Y34180929D01*
X15106370Y34084675D01*
X15252449Y34024167D01*
X15409211Y34003529D01*
X15417399Y34004607D01*
X15557785Y34023089D01*
X15565973Y34024167D01*
X15712052Y34084675D01*
X15837493Y34180929D01*
X15933747Y34306370D01*
X15994255Y34452449D01*
X16014893Y34609211D01*
X15994255Y34765973D01*
X15933747Y34912052D01*
X15837493Y35037493D01*
X15712052Y35133747D01*
X15576569Y35189866D01*
X15573602Y35191095D01*
X15565973Y35194255D01*
X15504835Y35202304D01*
X15480832Y35205464D01*
X15409211Y35214893D01*
X15337590Y35205464D01*
X15313588Y35202304D01*
X15252449Y35194255D01*
X15244820Y35191095D01*
X15241853Y35189866D01*
X15106370Y35133747D01*
X14980929Y35037493D01*
X14884675Y34912052D01*
X14824167Y34765973D01*
X14803529Y34609211D01*
X13523715Y34609211D01*
X13550833Y34657499D01*
X13562158Y34667312D01*
X13636370Y34724257D01*
X13636374Y34724261D01*
X13642920Y34729284D01*
X13649419Y34737753D01*
X13706246Y34811812D01*
X13739174Y34854725D01*
X13799682Y35000804D01*
X13820320Y35157566D01*
X13799682Y35314328D01*
X13739174Y35460407D01*
X13642920Y35585848D01*
X13619869Y35603536D01*
X13581122Y35633267D01*
X13517479Y35682102D01*
X13371400Y35742610D01*
X13214638Y35763248D01*
X13057876Y35742610D01*
X12911797Y35682102D01*
X12848154Y35633267D01*
X12809408Y35603536D01*
X12786356Y35585848D01*
X12690102Y35460407D01*
X12629594Y35314328D01*
X12608956Y35157566D01*
X2216645Y35157566D01*
X2210544Y35203907D01*
X2150036Y35349986D01*
X2065307Y35460407D01*
X2058805Y35468881D01*
X2053782Y35475427D01*
X1928341Y35571681D01*
X1782262Y35632189D01*
X1752233Y35636142D01*
X1687307Y35664863D01*
X1648214Y35724128D01*
X1643758Y35744612D01*
X1625044Y35886762D01*
X1564536Y36032841D01*
X1468282Y36158282D01*
X1342841Y36254536D01*
X1196762Y36315044D01*
X1040000Y36335682D01*
X883238Y36315044D01*
X737159Y36254536D01*
X611718Y36158282D01*
X606695Y36151736D01*
X545856Y36072449D01*
X488518Y36030582D01*
X417647Y36026360D01*
X355744Y36061124D01*
X322462Y36123837D01*
X321166Y36131291D01*
X306596Y36233032D01*
X306595Y36233035D01*
X305323Y36241918D01*
X298605Y36256695D01*
X281902Y36293431D01*
X245984Y36372428D01*
X226716Y36394789D01*
X186033Y36442005D01*
X13853866Y36442005D01*
X13874504Y36285243D01*
X13935012Y36139164D01*
X14031266Y36013723D01*
X14156707Y35917469D01*
X14302786Y35856961D01*
X14459548Y35836323D01*
X14467736Y35837401D01*
X14495203Y35841017D01*
X14616310Y35856961D01*
X14762389Y35917469D01*
X14887830Y36013723D01*
X14984084Y36139164D01*
X15044592Y36285243D01*
X15065230Y36442005D01*
X15044592Y36598767D01*
X14984084Y36744846D01*
X14887830Y36870287D01*
X14762389Y36966541D01*
X14616310Y37027049D01*
X14459548Y37047687D01*
X14302786Y37027049D01*
X14156707Y36966541D01*
X14031266Y36870287D01*
X13935012Y36744846D01*
X13874504Y36598767D01*
X13853866Y36442005D01*
X186033Y36442005D01*
X158260Y36474237D01*
X158257Y36474240D01*
X152400Y36481037D01*
X32095Y36559015D01*
X-105261Y36600093D01*
X-114237Y36600148D01*
X-114238Y36600148D01*
X-174445Y36600516D01*
X-248624Y36600969D01*
X-386471Y36561572D01*
X-507720Y36485070D01*
X-584877Y36397705D01*
X-585901Y36396546D01*
X-645987Y36358727D01*
X-716980Y36359397D01*
X-775796Y36397705D01*
X-841740Y36474237D01*
X-841743Y36474240D01*
X-847600Y36481037D01*
X-967905Y36559015D01*
X-1105261Y36600093D01*
X-1114237Y36600148D01*
X-1114238Y36600148D01*
X-1174445Y36600516D01*
X-1248624Y36600969D01*
X-1386471Y36561572D01*
X-1507720Y36485070D01*
X-1602623Y36377612D01*
X-1663553Y36247837D01*
X-1664934Y36238965D01*
X-1682859Y36123837D01*
X-1685609Y36106177D01*
X-2440290Y36106177D01*
X-2297159Y36165464D01*
X-2171718Y36261718D01*
X-2075464Y36387159D01*
X-2014956Y36533238D01*
X-1994318Y36690000D01*
X-2014956Y36846762D01*
X-2075464Y36992841D01*
X-2171718Y37118282D01*
X-2193918Y37135317D01*
X-2207918Y37146059D01*
X-2297159Y37214536D01*
X-2443238Y37275044D01*
X-2600000Y37295682D01*
X-2756762Y37275044D01*
X-2902841Y37214536D01*
X-2992082Y37146059D01*
X-3006081Y37135317D01*
X-3028282Y37118282D01*
X-3124536Y36992841D01*
X-3185044Y36846762D01*
X-3205682Y36690000D01*
X-5699700Y36690000D01*
X-5699700Y37363400D01*
X2442318Y37363400D01*
X2443396Y37355212D01*
X2454827Y37268388D01*
X2462956Y37206638D01*
X2523464Y37060559D01*
X2619718Y36935118D01*
X2745159Y36838864D01*
X2891238Y36778356D01*
X3048000Y36757718D01*
X3056188Y36758796D01*
X3196574Y36777278D01*
X3204762Y36778356D01*
X3350841Y36838864D01*
X3476282Y36935118D01*
X3572536Y37060559D01*
X3630171Y37199702D01*
X3674719Y37254983D01*
X3742083Y37277404D01*
X3810874Y37259846D01*
X3859252Y37207884D01*
X3862989Y37199702D01*
X3905464Y37097159D01*
X4001718Y36971718D01*
X4127159Y36875464D01*
X4273238Y36814956D01*
X4430000Y36794318D01*
X4438188Y36795396D01*
X4578574Y36813878D01*
X4586762Y36814956D01*
X4732841Y36875464D01*
X4858282Y36971718D01*
X4954536Y37097159D01*
X5015044Y37243238D01*
X5017231Y37259846D01*
X5030994Y37364391D01*
X5035682Y37400000D01*
X5015044Y37556762D01*
X4954536Y37702841D01*
X4858282Y37828282D01*
X4732841Y37924536D01*
X4586762Y37985044D01*
X4430000Y38005682D01*
X4273238Y37985044D01*
X4127159Y37924536D01*
X4001718Y37828282D01*
X3905464Y37702841D01*
X3876661Y37633305D01*
X3847829Y37563698D01*
X3803281Y37508417D01*
X3735917Y37485996D01*
X3667126Y37503554D01*
X3618748Y37555516D01*
X3615011Y37563698D01*
X3591188Y37621211D01*
X3572536Y37666241D01*
X3476282Y37791682D01*
X3350841Y37887936D01*
X3204762Y37948444D01*
X3048000Y37969082D01*
X2891238Y37948444D01*
X2745159Y37887936D01*
X2619718Y37791682D01*
X2523464Y37666241D01*
X2462956Y37520162D01*
X2461878Y37511974D01*
X2460676Y37502841D01*
X2442318Y37363400D01*
X-5699700Y37363400D01*
X-5699700Y37562728D01*
X-5711333Y37621211D01*
X-5755648Y37687532D01*
X-5821969Y37731847D01*
X-5834138Y37734268D01*
X-5834139Y37734268D01*
X-5874384Y37742273D01*
X-5880452Y37743480D01*
X-7619948Y37743480D01*
X-7626016Y37742273D01*
X-7666261Y37734268D01*
X-7666262Y37734268D01*
X-7678431Y37731847D01*
X-7744752Y37687532D01*
X-7789067Y37621211D01*
X-7800700Y37562728D01*
X-7800700Y35823232D01*
X-19786600Y35823232D01*
X-19786600Y37563599D01*
X-19245682Y37563599D01*
X-19225044Y37406837D01*
X-19164536Y37260758D01*
X-19068282Y37135317D01*
X-19061736Y37130294D01*
X-19037551Y37111736D01*
X-18942841Y37039063D01*
X-18796762Y36978555D01*
X-18640000Y36957917D01*
X-18631812Y36958995D01*
X-18491426Y36977477D01*
X-18483238Y36978555D01*
X-18337159Y37039063D01*
X-18242449Y37111736D01*
X-18218264Y37130294D01*
X-18211718Y37135317D01*
X-18115464Y37260758D01*
X-18054956Y37406837D01*
X-18034318Y37563599D01*
X-16705682Y37563599D01*
X-16685044Y37406837D01*
X-16624536Y37260758D01*
X-16528282Y37135317D01*
X-16521736Y37130294D01*
X-16497551Y37111736D01*
X-16402841Y37039063D01*
X-16256762Y36978555D01*
X-16100000Y36957917D01*
X-16091812Y36958995D01*
X-15951426Y36977477D01*
X-15943238Y36978555D01*
X-15797159Y37039063D01*
X-15702449Y37111736D01*
X-15678264Y37130294D01*
X-15671718Y37135317D01*
X-15622085Y37200000D01*
X-15045682Y37200000D01*
X-15025044Y37043238D01*
X-14964536Y36897159D01*
X-14868282Y36771718D01*
X-14742841Y36675464D01*
X-14596762Y36614956D01*
X-14440000Y36594318D01*
X-14431812Y36595396D01*
X-14291426Y36613878D01*
X-14283238Y36614956D01*
X-14137159Y36675464D01*
X-14011718Y36771718D01*
X-13915464Y36897159D01*
X-13854956Y37043238D01*
X-13834318Y37200000D01*
X-13854956Y37356762D01*
X-13915464Y37502841D01*
X-14011718Y37628282D01*
X-14137159Y37724536D01*
X-14283238Y37785044D01*
X-14440000Y37805682D01*
X-14596762Y37785044D01*
X-14742841Y37724536D01*
X-14868282Y37628282D01*
X-14964536Y37502841D01*
X-15025044Y37356762D01*
X-15045682Y37200000D01*
X-15622085Y37200000D01*
X-15575464Y37260758D01*
X-15514956Y37406837D01*
X-15494318Y37563599D01*
X-15504637Y37641980D01*
X-15513878Y37712173D01*
X-15514956Y37720361D01*
X-15575464Y37866440D01*
X-15671718Y37991881D01*
X-15797159Y38088135D01*
X-15943238Y38148643D01*
X-16100000Y38169281D01*
X-16256762Y38148643D01*
X-16402841Y38088135D01*
X-16528282Y37991881D01*
X-16624536Y37866440D01*
X-16685044Y37720361D01*
X-16686122Y37712173D01*
X-16695363Y37641980D01*
X-16705682Y37563599D01*
X-18034318Y37563599D01*
X-18044637Y37641980D01*
X-18053878Y37712173D01*
X-18054956Y37720361D01*
X-18115464Y37866440D01*
X-18211718Y37991881D01*
X-18337159Y38088135D01*
X-18483238Y38148643D01*
X-18640000Y38169281D01*
X-18796762Y38148643D01*
X-18942841Y38088135D01*
X-19068282Y37991881D01*
X-19164536Y37866440D01*
X-19225044Y37720361D01*
X-19226122Y37712173D01*
X-19235363Y37641980D01*
X-19245682Y37563599D01*
X-19786600Y37563599D01*
X-19786600Y38610563D01*
X-296519Y38610563D01*
X-275881Y38453801D01*
X-215373Y38307722D01*
X-119119Y38182281D01*
X6322Y38086027D01*
X152401Y38025519D01*
X309163Y38004881D01*
X317351Y38005959D01*
X457737Y38024441D01*
X465925Y38025519D01*
X612004Y38086027D01*
X696418Y38150800D01*
X9147918Y38150800D01*
X9168556Y37994038D01*
X9229064Y37847959D01*
X9325318Y37722518D01*
X9450759Y37626264D01*
X9596838Y37565756D01*
X9753600Y37545118D01*
X9761788Y37546196D01*
X9893978Y37563599D01*
X16314318Y37563599D01*
X16334956Y37406837D01*
X16395464Y37260758D01*
X16491718Y37135317D01*
X16498264Y37130294D01*
X16522449Y37111736D01*
X16617159Y37039063D01*
X16763238Y36978555D01*
X16920000Y36957917D01*
X16928188Y36958995D01*
X17068574Y36977477D01*
X17076762Y36978555D01*
X17222841Y37039063D01*
X17317551Y37111736D01*
X17341736Y37130294D01*
X17348282Y37135317D01*
X17444536Y37260758D01*
X17505044Y37406837D01*
X17525682Y37563599D01*
X18854318Y37563599D01*
X18874956Y37406837D01*
X18935464Y37260758D01*
X19031718Y37135317D01*
X19038264Y37130294D01*
X19062449Y37111736D01*
X19157159Y37039063D01*
X19303238Y36978555D01*
X19460000Y36957917D01*
X19468188Y36958995D01*
X19608574Y36977477D01*
X19616762Y36978555D01*
X19762841Y37039063D01*
X19857551Y37111736D01*
X19881736Y37130294D01*
X19888282Y37135317D01*
X19984536Y37260758D01*
X20045044Y37406837D01*
X20065682Y37563599D01*
X23934318Y37563599D01*
X23954956Y37406837D01*
X24015464Y37260758D01*
X24111718Y37135317D01*
X24118264Y37130294D01*
X24142449Y37111736D01*
X24237159Y37039063D01*
X24383238Y36978555D01*
X24540000Y36957917D01*
X24548188Y36958995D01*
X24688574Y36977477D01*
X24696762Y36978555D01*
X24842841Y37039063D01*
X24937551Y37111736D01*
X24961736Y37130294D01*
X24968282Y37135317D01*
X25064536Y37260758D01*
X25125044Y37406837D01*
X25145682Y37563599D01*
X25135363Y37641980D01*
X25126122Y37712173D01*
X25125044Y37720361D01*
X25064536Y37866440D01*
X24968282Y37991881D01*
X24842841Y38088135D01*
X24696762Y38148643D01*
X24540000Y38169281D01*
X24383238Y38148643D01*
X24237159Y38088135D01*
X24111718Y37991881D01*
X24015464Y37866440D01*
X23954956Y37720361D01*
X23953878Y37712173D01*
X23944637Y37641980D01*
X23934318Y37563599D01*
X20065682Y37563599D01*
X20055363Y37641980D01*
X20046122Y37712173D01*
X20045044Y37720361D01*
X19984536Y37866440D01*
X19888282Y37991881D01*
X19762841Y38088135D01*
X19616762Y38148643D01*
X19460000Y38169281D01*
X19303238Y38148643D01*
X19157159Y38088135D01*
X19031718Y37991881D01*
X18935464Y37866440D01*
X18874956Y37720361D01*
X18873878Y37712173D01*
X18864637Y37641980D01*
X18854318Y37563599D01*
X17525682Y37563599D01*
X17515363Y37641980D01*
X17506122Y37712173D01*
X17505044Y37720361D01*
X17444536Y37866440D01*
X17348282Y37991881D01*
X17222841Y38088135D01*
X17076762Y38148643D01*
X16920000Y38169281D01*
X16763238Y38148643D01*
X16617159Y38088135D01*
X16491718Y37991881D01*
X16395464Y37866440D01*
X16334956Y37720361D01*
X16333878Y37712173D01*
X16324637Y37641980D01*
X16314318Y37563599D01*
X9893978Y37563599D01*
X9902174Y37564678D01*
X9910362Y37565756D01*
X10056441Y37626264D01*
X10181882Y37722518D01*
X10278136Y37847959D01*
X10338644Y37994038D01*
X10359282Y38150800D01*
X10338644Y38307562D01*
X10278136Y38453641D01*
X10181882Y38579082D01*
X10056441Y38675336D01*
X9910362Y38735844D01*
X9753600Y38756482D01*
X9596838Y38735844D01*
X9450759Y38675336D01*
X9325318Y38579082D01*
X9229064Y38453641D01*
X9168556Y38307562D01*
X9147918Y38150800D01*
X696418Y38150800D01*
X737445Y38182281D01*
X833699Y38307722D01*
X894207Y38453801D01*
X914845Y38610563D01*
X894207Y38767325D01*
X833699Y38913404D01*
X737445Y39038845D01*
X612004Y39135099D01*
X465925Y39195607D01*
X309163Y39216245D01*
X152401Y39195607D01*
X6322Y39135099D01*
X-119119Y39038845D01*
X-215373Y38913404D01*
X-275881Y38767325D01*
X-296519Y38610563D01*
X-19786600Y38610563D01*
X-19786600Y39523400D01*
X-19766598Y39591521D01*
X-19712942Y39638014D01*
X-19660600Y39649400D01*
X-13997278Y39649400D01*
X-13929157Y39629398D01*
G37*
%TD.AperFunction*%
%TD*%
M02*
