%TF.GenerationSoftware,KiCad,Pcbnew,8.0.4*%
%TF.CreationDate,2024-09-17T19:46:24+01:00*%
%TF.ProjectId,ADE_Main_V4,4144455f-4d61-4696-9e5f-56342e6b6963,rev?*%
%TF.SameCoordinates,Original*%
%TF.FileFunction,Soldermask,Bot*%
%TF.FilePolarity,Negative*%
%FSLAX46Y46*%
G04 Gerber Fmt 4.6, Leading zero omitted, Abs format (unit mm)*
G04 Created by KiCad (PCBNEW 8.0.4) date 2024-09-17 19:46:24*
%MOMM*%
%LPD*%
G01*
G04 APERTURE LIST*
G04 Aperture macros list*
%AMRoundRect*
0 Rectangle with rounded corners*
0 $1 Rounding radius*
0 $2 $3 $4 $5 $6 $7 $8 $9 X,Y pos of 4 corners*
0 Add a 4 corners polygon primitive as box body*
4,1,4,$2,$3,$4,$5,$6,$7,$8,$9,$2,$3,0*
0 Add four circle primitives for the rounded corners*
1,1,$1+$1,$2,$3*
1,1,$1+$1,$4,$5*
1,1,$1+$1,$6,$7*
1,1,$1+$1,$8,$9*
0 Add four rect primitives between the rounded corners*
20,1,$1+$1,$2,$3,$4,$5,0*
20,1,$1+$1,$4,$5,$6,$7,0*
20,1,$1+$1,$6,$7,$8,$9,0*
20,1,$1+$1,$8,$9,$2,$3,0*%
G04 Aperture macros list end*
%ADD10C,2.000000*%
%ADD11RoundRect,0.250000X0.325000X0.650000X-0.325000X0.650000X-0.325000X-0.650000X0.325000X-0.650000X0*%
%ADD12R,1.400000X1.200000*%
%ADD13RoundRect,0.325000X1.925000X-0.325000X1.925000X0.325000X-1.925000X0.325000X-1.925000X-0.325000X0*%
%ADD14RoundRect,0.300001X1.649999X-0.599999X1.649999X0.599999X-1.649999X0.599999X-1.649999X-0.599999X0*%
%ADD15RoundRect,0.140000X-0.170000X0.140000X-0.170000X-0.140000X0.170000X-0.140000X0.170000X0.140000X0*%
%ADD16R,1.700000X1.700000*%
%ADD17O,1.700000X1.700000*%
%ADD18RoundRect,0.140000X0.170000X-0.140000X0.170000X0.140000X-0.170000X0.140000X-0.170000X-0.140000X0*%
%ADD19RoundRect,0.250000X-0.325000X-0.650000X0.325000X-0.650000X0.325000X0.650000X-0.325000X0.650000X0*%
%ADD20R,0.700000X4.300000*%
%ADD21RoundRect,0.140000X-0.140000X-0.170000X0.140000X-0.170000X0.140000X0.170000X-0.140000X0.170000X0*%
%ADD22RoundRect,0.140000X0.140000X0.170000X-0.140000X0.170000X-0.140000X-0.170000X0.140000X-0.170000X0*%
%ADD23RoundRect,0.150000X-0.725000X-0.150000X0.725000X-0.150000X0.725000X0.150000X-0.725000X0.150000X0*%
G04 APERTURE END LIST*
D10*
%TO.C,FID3*%
X-10744200Y18745200D03*
%TD*%
D11*
%TO.C,C20*%
X5975000Y32375000D03*
X3025000Y32375000D03*
%TD*%
D12*
%TO.C,Y2*%
X11707500Y30725000D03*
X9167500Y30725000D03*
X9167500Y32925000D03*
X11707500Y32925000D03*
%TD*%
D13*
%TO.C,J1*%
X-10750000Y38400000D03*
X-10750000Y36000000D03*
X-10750000Y33500000D03*
X-10750000Y31000000D03*
X-10750000Y28500000D03*
X-10750000Y26000000D03*
X-10750000Y23500000D03*
X-10750000Y21125000D03*
D14*
X-17600000Y41600000D03*
X-17600000Y17900000D03*
%TD*%
D15*
%TO.C,C29*%
X2463800Y26009600D03*
X2463800Y25049600D03*
%TD*%
D16*
%TO.C,J15*%
X-6750200Y36692980D03*
D17*
X-6750200Y34152980D03*
X-6750200Y31612980D03*
X-6750200Y29072980D03*
X-6750200Y26532980D03*
X-6750200Y23992980D03*
X-6750200Y21452980D03*
X-6750200Y18912980D03*
%TD*%
D18*
%TO.C,C23*%
X4546600Y35207000D03*
X4546600Y36167000D03*
%TD*%
D15*
%TO.C,C15*%
X11963400Y35377000D03*
X11963400Y34417000D03*
%TD*%
D19*
%TO.C,C22*%
X17143200Y34366200D03*
X20093200Y34366200D03*
%TD*%
D20*
%TO.C,J2*%
X27000000Y23000000D03*
X26000000Y23000000D03*
X25000000Y23000000D03*
X24000000Y23000000D03*
X23000000Y23000000D03*
X22000000Y23000000D03*
X21000000Y23000000D03*
X20000000Y23000000D03*
X19000000Y23000000D03*
X18000000Y23000000D03*
X17000000Y23000000D03*
X14000000Y23000000D03*
X13000000Y23000000D03*
X12000000Y23000000D03*
X11000000Y23000000D03*
X10000000Y23000000D03*
X9000000Y23000000D03*
X8000000Y23000000D03*
%TD*%
D15*
%TO.C,C17*%
X10896600Y35377000D03*
X10896600Y34417000D03*
%TD*%
%TO.C,C14*%
X13775000Y29980000D03*
X13775000Y29020000D03*
%TD*%
D21*
%TO.C,C30*%
X-556200Y34544000D03*
X403800Y34544000D03*
%TD*%
D22*
%TO.C,C19*%
X5204400Y30683200D03*
X4244400Y30683200D03*
%TD*%
D23*
%TO.C,U4*%
X-3235000Y17925000D03*
X-3235000Y19195000D03*
X-3235000Y20465000D03*
X-3235000Y21735000D03*
X1915000Y21735000D03*
X1915000Y20465000D03*
X1915000Y19195000D03*
X1915000Y17925000D03*
%TD*%
D10*
%TO.C,FID2*%
X26365200Y33934400D03*
%TD*%
D22*
%TO.C,C28*%
X-104200Y26085800D03*
X-1064200Y26085800D03*
%TD*%
%TO.C,C27*%
X127000Y37363400D03*
X-833000Y37363400D03*
%TD*%
D19*
%TO.C,C24*%
X6043400Y35128200D03*
X8993400Y35128200D03*
%TD*%
D21*
%TO.C,C21*%
X17935000Y32588200D03*
X18895000Y32588200D03*
%TD*%
M02*
