%TF.GenerationSoftware,KiCad,Pcbnew,8.0.4*%
%TF.CreationDate,2024-09-17T19:46:24+01:00*%
%TF.ProjectId,ADE_Main_V4,4144455f-4d61-4696-9e5f-56342e6b6963,rev?*%
%TF.SameCoordinates,Original*%
%TF.FileFunction,Copper,L2,Inr*%
%TF.FilePolarity,Positive*%
%FSLAX46Y46*%
G04 Gerber Fmt 4.6, Leading zero omitted, Abs format (unit mm)*
G04 Created by KiCad (PCBNEW 8.0.4) date 2024-09-17 19:46:24*
%MOMM*%
%LPD*%
G01*
G04 APERTURE LIST*
%TA.AperFunction,ComponentPad*%
%ADD10C,0.600000*%
%TD*%
%TA.AperFunction,ComponentPad*%
%ADD11R,1.700000X1.700000*%
%TD*%
%TA.AperFunction,ComponentPad*%
%ADD12O,1.700000X1.700000*%
%TD*%
%TA.AperFunction,ViaPad*%
%ADD13C,0.800000*%
%TD*%
G04 APERTURE END LIST*
D10*
%TO.N,/UM*%
%TO.C,U3*%
X-180000Y36100000D03*
X-1180000Y36100000D03*
%TD*%
%TO.N,/UM*%
%TO.C,U1*%
X-180000Y24810000D03*
X-1180000Y24810000D03*
%TD*%
D11*
%TO.N,/RRP*%
%TO.C,J15*%
X-6750200Y36692980D03*
D12*
%TO.N,/RRM*%
X-6750200Y34152980D03*
%TO.N,/RSP*%
X-6750200Y31612980D03*
%TO.N,/RSM*%
X-6750200Y29072980D03*
%TO.N,/RTP*%
X-6750200Y26532980D03*
%TO.N,/RTM*%
X-6750200Y23992980D03*
%TO.N,/RNP*%
X-6750200Y21452980D03*
%TO.N,/RNM*%
X-6750200Y18912980D03*
%TD*%
D13*
%TO.N,GND*%
X12877800Y28778200D03*
X-16100000Y27403599D03*
X3048000Y37363400D03*
X-18640000Y32483599D03*
X12065000Y27940000D03*
X24540000Y32483599D03*
X-2540000Y39344600D03*
X-18640000Y24863599D03*
X17246600Y26085800D03*
X-18640000Y27403599D03*
X19460000Y37563599D03*
X4430000Y37400000D03*
X3200400Y19862800D03*
X-14440000Y37200000D03*
X13843000Y27762200D03*
X-14100000Y23060000D03*
X4428453Y33111500D03*
X17018000Y27711400D03*
X-13450000Y18140000D03*
X16920000Y37563599D03*
X-18640000Y29943599D03*
X390000Y17940000D03*
X9457677Y29825500D03*
X16459200Y32664400D03*
X5540000Y38930000D03*
X-13560000Y27403599D03*
X-16100000Y32483599D03*
X13868400Y25908000D03*
X-18640000Y37563599D03*
X-18640000Y22323599D03*
X-16100000Y24863599D03*
X-18640000Y19783599D03*
X1001000Y26060000D03*
X-13560000Y24863599D03*
X-16100000Y22323599D03*
X24540000Y37563599D03*
X670000Y28320000D03*
X-16100000Y29943599D03*
X-5230000Y25880000D03*
X660000Y31690000D03*
X-13560000Y40103599D03*
X-18640000Y35023599D03*
X-16100000Y19783599D03*
X1850000Y39045500D03*
X-11020000Y40103599D03*
X-13560000Y19783599D03*
X-16100000Y35023599D03*
X-16100000Y37563599D03*
X20497800Y32283400D03*
X-14520000Y29090000D03*
%TO.N,+3V3*%
X1955800Y16967200D03*
X26797000Y27305000D03*
X25298400Y26339800D03*
X11050000Y37425000D03*
X15443200Y35737800D03*
X24587200Y34823400D03*
X11277600Y28854400D03*
X-2190000Y25740000D03*
X12166600Y29514800D03*
X-1975500Y37553372D03*
%TO.N,/AVDDOUT*%
X7863900Y30124400D03*
%TO.N,/DVDDOUT*%
X9753600Y38150800D03*
%TO.N,/REF*%
X4013200Y33985200D03*
%TO.N,/ISP*%
X1040000Y35730000D03*
X-2150000Y34820000D03*
%TO.N,/INP*%
X2550000Y23540000D03*
X-2510000Y23480000D03*
%TO.N,/UR+*%
X11970000Y26540000D03*
X3524020Y28620000D03*
%TO.N,/US+*%
X10000000Y25800000D03*
X9143911Y27833911D03*
X5100000Y29720000D03*
%TO.N,/UT+*%
X8050000Y25740000D03*
%TO.N,/ADE_Reset*%
X21717000Y33197800D03*
%TO.N,/O_IN*%
X10375000Y29850000D03*
%TO.N,/SCLK*%
X13250000Y33950000D03*
X13225000Y31200000D03*
%TO.N,/MISO*%
X13214638Y35157566D03*
%TO.N,/MOSI*%
X15409211Y34609211D03*
%TO.N,/SS*%
X14459548Y36442005D03*
%TO.N,/RN*%
X-5934500Y22738843D03*
X-4520000Y22670000D03*
%TO.N,Net-(C5-Pad2)*%
X-3410000Y23230000D03*
X230000Y20824500D03*
%TO.N,Net-(C6-Pad2)*%
X260000Y33020000D03*
X-2650000Y33470000D03*
%TO.N,Net-(C13-Pad2)*%
X-700000Y29710000D03*
X-3390000Y29150000D03*
%TO.N,Net-(C16-Pad2)*%
X309163Y38610563D03*
X-2600000Y36690000D03*
%TO.N,/UM*%
X1610000Y23910000D03*
X1625500Y35047145D03*
X2277484Y22357547D03*
%TO.N,/C+*%
X-70000Y18890000D03*
%TO.N,/UR-*%
X4230000Y29490000D03*
X13040000Y26640000D03*
%TO.N,/US-*%
X11000000Y25870000D03*
X6182300Y29546200D03*
X8393411Y29123411D03*
%TO.N,/UT-*%
X9020000Y25950000D03*
%TO.N,/C-*%
X-4765656Y20033911D03*
%TD*%
%TA.AperFunction,Conductor*%
%TO.N,GND*%
G36*
X-9259161Y42182212D02*
G01*
X-9212025Y42129120D01*
X-9200000Y42075401D01*
X-9200000Y40005877D01*
X-9200045Y39954551D01*
X-9193902Y39941758D01*
X-9192773Y39936790D01*
X-9190215Y39929465D01*
X-9188006Y39924875D01*
X-9184850Y39911038D01*
X-9176006Y39899939D01*
X-9173636Y39895015D01*
X-9170084Y39889353D01*
X-9166688Y39885084D01*
X-9160547Y39872295D01*
X-9149464Y39863432D01*
X-9146293Y39859446D01*
X-9140809Y39853952D01*
X-9136827Y39850773D01*
X-9127985Y39839677D01*
X-9115207Y39833514D01*
X-9110936Y39830104D01*
X-9105286Y39826546D01*
X-9100366Y39824168D01*
X-9089285Y39815306D01*
X-9075457Y39812126D01*
X-9070876Y39809912D01*
X-9063551Y39807339D01*
X-9058580Y39806201D01*
X-9045798Y39800035D01*
X-9022787Y39800015D01*
X-9022789Y39798003D01*
X-9022723Y39797988D01*
X-9022723Y39800000D01*
X-9005877Y39800000D01*
X-8954551Y39799955D01*
X-8954555Y39795150D01*
X-8954457Y39795144D01*
X-8954457Y39800000D01*
X27281224Y39800000D01*
X27349345Y39779998D01*
X27395838Y39726342D01*
X27407221Y39674922D01*
X27447818Y34120002D01*
X27449997Y33821830D01*
X27450000Y33820909D01*
X27450000Y27811231D01*
X27429998Y27743110D01*
X27376342Y27696617D01*
X27306068Y27686513D01*
X27241488Y27716007D01*
X27234905Y27722136D01*
X27230305Y27726736D01*
X27225282Y27733282D01*
X27099841Y27829536D01*
X26953762Y27890044D01*
X26797000Y27910682D01*
X26640238Y27890044D01*
X26494159Y27829536D01*
X26368718Y27733282D01*
X26272464Y27607841D01*
X26211956Y27461762D01*
X26191318Y27305000D01*
X26211956Y27148238D01*
X26272464Y27002159D01*
X26368718Y26876718D01*
X26494159Y26780464D01*
X26640238Y26719956D01*
X26797000Y26699318D01*
X26805188Y26700396D01*
X26945574Y26718878D01*
X26953762Y26719956D01*
X27099841Y26780464D01*
X27225282Y26876718D01*
X27230305Y26883264D01*
X27234905Y26887864D01*
X27297217Y26921890D01*
X27368032Y26916825D01*
X27424868Y26874278D01*
X27449679Y26807758D01*
X27450000Y26798769D01*
X27450000Y20869636D01*
X27429998Y20801515D01*
X27376342Y20755022D01*
X27323965Y20743636D01*
X19821103Y20745780D01*
X16775964Y20746650D01*
X16707849Y20766672D01*
X16661371Y20820340D01*
X16650000Y20872650D01*
X16650000Y26339800D01*
X24692718Y26339800D01*
X24693796Y26331612D01*
X24710242Y26206695D01*
X24713356Y26183038D01*
X24773864Y26036959D01*
X24870118Y25911518D01*
X24995559Y25815264D01*
X25141638Y25754756D01*
X25298400Y25734118D01*
X25306588Y25735196D01*
X25446974Y25753678D01*
X25455162Y25754756D01*
X25601241Y25815264D01*
X25726682Y25911518D01*
X25822936Y26036959D01*
X25883444Y26183038D01*
X25886559Y26206695D01*
X25903004Y26331612D01*
X25904082Y26339800D01*
X25883444Y26496562D01*
X25822936Y26642641D01*
X25726682Y26768082D01*
X25601241Y26864336D01*
X25455162Y26924844D01*
X25298400Y26945482D01*
X25141638Y26924844D01*
X24995559Y26864336D01*
X24870118Y26768082D01*
X24773864Y26642641D01*
X24713356Y26496562D01*
X24692718Y26339800D01*
X16650000Y26339800D01*
X16650000Y26962688D01*
X16653254Y26991140D01*
X16655142Y26999284D01*
X16655143Y27000000D01*
X16654316Y27003625D01*
X16654627Y27005395D01*
X16653926Y27005334D01*
X16648992Y27061733D01*
X16636855Y27200458D01*
X16630267Y27225044D01*
X16586198Y27389516D01*
X16586197Y27389518D01*
X16584775Y27394826D01*
X16580418Y27404169D01*
X16502060Y27572210D01*
X16502057Y27572215D01*
X16499734Y27577197D01*
X16395025Y27726736D01*
X16387475Y27737519D01*
X16387473Y27737521D01*
X16384316Y27742030D01*
X16242030Y27884316D01*
X16232311Y27891122D01*
X16103583Y27981258D01*
X16077197Y27999734D01*
X16072215Y28002057D01*
X16072210Y28002060D01*
X15899808Y28082452D01*
X15899807Y28082453D01*
X15894826Y28084775D01*
X15889518Y28086197D01*
X15889516Y28086198D01*
X15705773Y28135431D01*
X15705772Y28135431D01*
X15700458Y28136855D01*
X15500000Y28154393D01*
X15299542Y28136855D01*
X15294228Y28135431D01*
X15294227Y28135431D01*
X15110484Y28086198D01*
X15110482Y28086197D01*
X15105174Y28084775D01*
X15100194Y28082453D01*
X15100192Y28082452D01*
X14927791Y28002060D01*
X14927786Y28002057D01*
X14922804Y27999734D01*
X14918297Y27996578D01*
X14918295Y27996577D01*
X14762481Y27887475D01*
X14762478Y27887473D01*
X14757970Y27884316D01*
X14615684Y27742030D01*
X14612527Y27737521D01*
X14612525Y27737519D01*
X14604975Y27726736D01*
X14500266Y27577197D01*
X14497943Y27572215D01*
X14497940Y27572210D01*
X14419582Y27404169D01*
X14415225Y27394826D01*
X14413803Y27389518D01*
X14413802Y27389516D01*
X14369733Y27225044D01*
X14363145Y27200458D01*
X14346118Y27005842D01*
X14344857Y27000358D01*
X14347988Y26986519D01*
X14347980Y26981631D01*
X14350000Y26963552D01*
X14350000Y20873379D01*
X14329998Y20805258D01*
X14276342Y20758765D01*
X14223965Y20747379D01*
X10703074Y20748385D01*
X7675964Y20749250D01*
X7607849Y20769272D01*
X7561371Y20822940D01*
X7550000Y20875250D01*
X7550000Y25112300D01*
X7570002Y25180421D01*
X7623658Y25226914D01*
X7693932Y25237018D01*
X7739000Y25221419D01*
X7740609Y25220490D01*
X7747159Y25215464D01*
X7754785Y25212305D01*
X7754787Y25212304D01*
X7831760Y25180421D01*
X7893238Y25154956D01*
X8050000Y25134318D01*
X8058188Y25135396D01*
X8198574Y25153878D01*
X8206762Y25154956D01*
X8352841Y25215464D01*
X8478282Y25311718D01*
X8545498Y25399316D01*
X8602835Y25441182D01*
X8673706Y25445404D01*
X8708457Y25431732D01*
X8710611Y25430488D01*
X8717159Y25425464D01*
X8724785Y25422305D01*
X8724787Y25422304D01*
X8831102Y25378267D01*
X8863238Y25364956D01*
X9020000Y25344318D01*
X9028188Y25345396D01*
X9168574Y25363878D01*
X9176762Y25364956D01*
X9322841Y25425464D01*
X9329394Y25430492D01*
X9329397Y25430494D01*
X9353567Y25449040D01*
X9419787Y25474641D01*
X9489336Y25460376D01*
X9530234Y25425781D01*
X9566692Y25378267D01*
X9566695Y25378264D01*
X9571718Y25371718D01*
X9697159Y25275464D01*
X9843238Y25214956D01*
X10000000Y25194318D01*
X10008188Y25195396D01*
X10148574Y25213878D01*
X10156762Y25214956D01*
X10302841Y25275464D01*
X10428282Y25371718D01*
X10433305Y25378264D01*
X10433308Y25378267D01*
X10438541Y25385087D01*
X10495879Y25426955D01*
X10566749Y25431177D01*
X10615208Y25408347D01*
X10697159Y25345464D01*
X10843238Y25284956D01*
X11000000Y25264318D01*
X11008188Y25265396D01*
X11018724Y25266783D01*
X11156762Y25284956D01*
X11302841Y25345464D01*
X11407099Y25425464D01*
X11421736Y25436695D01*
X11428282Y25441718D01*
X11524536Y25567159D01*
X11585044Y25713238D01*
X11605588Y25869287D01*
X11634310Y25934214D01*
X11693575Y25973306D01*
X11764567Y25974151D01*
X11778727Y25969250D01*
X11805605Y25958117D01*
X11805610Y25958116D01*
X11813238Y25954956D01*
X11970000Y25934318D01*
X11978188Y25935396D01*
X12118574Y25953878D01*
X12126762Y25954956D01*
X12272841Y26015464D01*
X12398282Y26111718D01*
X12403305Y26118264D01*
X12403308Y26118267D01*
X12448971Y26177777D01*
X12506309Y26219645D01*
X12577180Y26223867D01*
X12625637Y26201037D01*
X12737159Y26115464D01*
X12883238Y26054956D01*
X13040000Y26034318D01*
X13048188Y26035396D01*
X13188574Y26053878D01*
X13196762Y26054956D01*
X13342841Y26115464D01*
X13468282Y26211718D01*
X13564536Y26337159D01*
X13625044Y26483238D01*
X13645682Y26640000D01*
X13628820Y26768082D01*
X13626122Y26788574D01*
X13625044Y26796762D01*
X13564536Y26942841D01*
X13468282Y27068282D01*
X13342841Y27164536D01*
X13196762Y27225044D01*
X13172570Y27228229D01*
X13048188Y27244604D01*
X13040000Y27245682D01*
X13031812Y27244604D01*
X12907431Y27228229D01*
X12883238Y27225044D01*
X12737159Y27164536D01*
X12611718Y27068282D01*
X12606695Y27061736D01*
X12606692Y27061733D01*
X12561029Y27002223D01*
X12503691Y26960355D01*
X12432820Y26956133D01*
X12384362Y26978963D01*
X12356946Y27000000D01*
X12272841Y27064536D01*
X12126762Y27125044D01*
X11970000Y27145682D01*
X11813238Y27125044D01*
X11667159Y27064536D01*
X11541718Y26968282D01*
X11445464Y26842841D01*
X11384956Y26696762D01*
X11366141Y26553843D01*
X11364412Y26540713D01*
X11335690Y26475786D01*
X11276425Y26436694D01*
X11205433Y26435849D01*
X11191273Y26440750D01*
X11164395Y26451883D01*
X11164390Y26451884D01*
X11156762Y26455044D01*
X11000000Y26475682D01*
X10843238Y26455044D01*
X10697159Y26394536D01*
X10571718Y26298282D01*
X10566695Y26291736D01*
X10566692Y26291733D01*
X10561459Y26284913D01*
X10504121Y26243045D01*
X10433251Y26238823D01*
X10384792Y26261653D01*
X10348339Y26289624D01*
X10302841Y26324536D01*
X10156762Y26385044D01*
X10000000Y26405682D01*
X9843238Y26385044D01*
X9697159Y26324536D01*
X9690608Y26319509D01*
X9690603Y26319506D01*
X9666433Y26300960D01*
X9600213Y26275359D01*
X9530664Y26289624D01*
X9489766Y26324219D01*
X9453308Y26371733D01*
X9453304Y26371737D01*
X9448282Y26378282D01*
X9322841Y26474536D01*
X9176762Y26535044D01*
X9133702Y26540713D01*
X9080493Y26547718D01*
X9020000Y26555682D01*
X8959507Y26547718D01*
X8906299Y26540713D01*
X8863238Y26535044D01*
X8717159Y26474536D01*
X8591718Y26378282D01*
X8526483Y26293265D01*
X8524503Y26290685D01*
X8467165Y26248818D01*
X8396294Y26244596D01*
X8361543Y26258268D01*
X8359389Y26259512D01*
X8352841Y26264536D01*
X8345215Y26267695D01*
X8345213Y26267696D01*
X8214391Y26321884D01*
X8206762Y26325044D01*
X8050000Y26345682D01*
X7893238Y26325044D01*
X7885609Y26321884D01*
X7754787Y26267696D01*
X7754785Y26267695D01*
X7747159Y26264536D01*
X7740609Y26259510D01*
X7739000Y26258581D01*
X7670005Y26241843D01*
X7602913Y26265063D01*
X7559026Y26320871D01*
X7550000Y26367700D01*
X7550000Y27833911D01*
X8538229Y27833911D01*
X8558867Y27677149D01*
X8619375Y27531070D01*
X8666703Y27469391D01*
X8710440Y27412392D01*
X8715629Y27405629D01*
X8841070Y27309375D01*
X8987149Y27248867D01*
X8995337Y27247789D01*
X9019530Y27244604D01*
X9143911Y27228229D01*
X9152099Y27229307D01*
X9292485Y27247789D01*
X9300673Y27248867D01*
X9446752Y27309375D01*
X9572193Y27405629D01*
X9577383Y27412392D01*
X9621119Y27469391D01*
X9668447Y27531070D01*
X9728955Y27677149D01*
X9749593Y27833911D01*
X9728955Y27990673D01*
X9668447Y28136752D01*
X9572193Y28262193D01*
X9446752Y28358447D01*
X9300673Y28418955D01*
X9143911Y28439593D01*
X8987149Y28418955D01*
X8841070Y28358447D01*
X8715629Y28262193D01*
X8619375Y28136752D01*
X8558867Y27990673D01*
X8538229Y27833911D01*
X7550000Y27833911D01*
X7550000Y27944123D01*
X7550033Y27981258D01*
X7550033Y27981260D01*
X7550045Y27995449D01*
X7543902Y28008242D01*
X7542773Y28013210D01*
X7540215Y28020535D01*
X7538006Y28025125D01*
X7534850Y28038962D01*
X7526006Y28050061D01*
X7523636Y28054985D01*
X7520084Y28060647D01*
X7516688Y28064916D01*
X7510547Y28077705D01*
X7499464Y28086568D01*
X7496293Y28090554D01*
X7490809Y28096048D01*
X7486827Y28099227D01*
X7477985Y28110323D01*
X7465207Y28116486D01*
X7460936Y28119896D01*
X7455286Y28123454D01*
X7450366Y28125832D01*
X7439285Y28134694D01*
X7425457Y28137874D01*
X7420876Y28140088D01*
X7413551Y28142661D01*
X7408580Y28143799D01*
X7395798Y28149965D01*
X7372787Y28149985D01*
X7372789Y28151997D01*
X7372723Y28152012D01*
X7372723Y28150000D01*
X7355877Y28150000D01*
X7304551Y28150045D01*
X7304555Y28154850D01*
X7304457Y28154856D01*
X7304457Y28150000D01*
X4236076Y28150000D01*
X4233737Y28150133D01*
X4223223Y28153825D01*
X4209124Y28152256D01*
X4209123Y28152256D01*
X4195800Y28150773D01*
X4187106Y28150291D01*
X4184523Y28150000D01*
X4177454Y28150000D01*
X4177454Y28150375D01*
X4111592Y28161914D01*
X4059386Y28210029D01*
X4041480Y28278731D01*
X4051012Y28323088D01*
X4105904Y28455609D01*
X4109064Y28463238D01*
X4129702Y28620000D01*
X4113515Y28742951D01*
X4124454Y28813098D01*
X4171582Y28866197D01*
X4230171Y28883022D01*
X4230000Y28884318D01*
X4386762Y28904956D01*
X4399413Y28910196D01*
X4444032Y28928678D01*
X4532841Y28965464D01*
X4634548Y29043506D01*
X4651736Y29056695D01*
X4658282Y29061718D01*
X4663305Y29068264D01*
X4663308Y29068267D01*
X4710794Y29130153D01*
X4768132Y29172021D01*
X4839003Y29176243D01*
X4858974Y29169859D01*
X4943238Y29134956D01*
X4951426Y29133878D01*
X4995193Y29128116D01*
X5100000Y29114318D01*
X5108188Y29115396D01*
X5248574Y29133878D01*
X5256762Y29134956D01*
X5402841Y29195464D01*
X5409394Y29200492D01*
X5409397Y29200494D01*
X5486461Y29259627D01*
X5552681Y29285228D01*
X5622230Y29270963D01*
X5663127Y29236370D01*
X5729401Y29150000D01*
X5748618Y29124956D01*
X5754018Y29117918D01*
X5879459Y29021664D01*
X6025538Y28961156D01*
X6033726Y28960078D01*
X6103919Y28950837D01*
X6182300Y28940518D01*
X6190488Y28941596D01*
X6330874Y28960078D01*
X6339062Y28961156D01*
X6485141Y29021664D01*
X6610582Y29117918D01*
X6615983Y29124956D01*
X6670695Y29196259D01*
X6706836Y29243359D01*
X6767344Y29389438D01*
X6773512Y29436285D01*
X6786904Y29538012D01*
X6787982Y29546200D01*
X6770670Y29677696D01*
X6768422Y29694774D01*
X6767344Y29702962D01*
X6706836Y29849041D01*
X6622377Y29959111D01*
X6615605Y29967936D01*
X6610582Y29974482D01*
X6583534Y29995237D01*
X6547559Y30022841D01*
X6485141Y30070736D01*
X6355585Y30124400D01*
X7258218Y30124400D01*
X7278856Y29967638D01*
X7339364Y29821559D01*
X7344391Y29815008D01*
X7426152Y29708455D01*
X7435618Y29696118D01*
X7561059Y29599864D01*
X7707138Y29539356D01*
X7715324Y29538278D01*
X7715325Y29538278D01*
X7742138Y29534748D01*
X7807065Y29506025D01*
X7846156Y29446759D01*
X7847000Y29375767D01*
X7842103Y29361620D01*
X7808367Y29280173D01*
X7807289Y29271985D01*
X7798618Y29206122D01*
X7787729Y29123411D01*
X7788807Y29115223D01*
X7804867Y28993238D01*
X7808367Y28966649D01*
X7868875Y28820570D01*
X7965129Y28695129D01*
X7971675Y28690106D01*
X7979119Y28684394D01*
X8090570Y28598875D01*
X8236649Y28538367D01*
X8393411Y28517729D01*
X8401599Y28518807D01*
X8541985Y28537289D01*
X8550173Y28538367D01*
X8696252Y28598875D01*
X8807703Y28684394D01*
X8815147Y28690106D01*
X8821693Y28695129D01*
X8917947Y28820570D01*
X8978455Y28966649D01*
X8981956Y28993238D01*
X8998015Y29115223D01*
X8999093Y29123411D01*
X8988204Y29206122D01*
X8979533Y29271985D01*
X8978455Y29280173D01*
X8917947Y29426252D01*
X8831987Y29538278D01*
X8826716Y29545147D01*
X8821693Y29551693D01*
X8696252Y29647947D01*
X8550173Y29708455D01*
X8541987Y29709533D01*
X8541986Y29709533D01*
X8515173Y29713063D01*
X8450246Y29741786D01*
X8411155Y29801052D01*
X8410573Y29850000D01*
X9769318Y29850000D01*
X9789956Y29693238D01*
X9850464Y29547159D01*
X9946718Y29421718D01*
X10072159Y29325464D01*
X10218238Y29264956D01*
X10375000Y29244318D01*
X10383188Y29245396D01*
X10425672Y29250989D01*
X10531762Y29264956D01*
X10571720Y29281507D01*
X10642308Y29289096D01*
X10705795Y29257317D01*
X10742023Y29196259D01*
X10739489Y29125308D01*
X10736347Y29116882D01*
X10692556Y29011162D01*
X10671918Y28854400D01*
X10692556Y28697638D01*
X10753064Y28551559D01*
X10849318Y28426118D01*
X10974759Y28329864D01*
X11120838Y28269356D01*
X11277600Y28248718D01*
X11285788Y28249796D01*
X11426174Y28268278D01*
X11434362Y28269356D01*
X11580441Y28329864D01*
X11705882Y28426118D01*
X11802136Y28551559D01*
X11862644Y28697638D01*
X11878744Y28819928D01*
X11907467Y28884855D01*
X11966732Y28923946D01*
X12020112Y28928403D01*
X12158412Y28910196D01*
X12166600Y28909118D01*
X12174788Y28910196D01*
X12315174Y28928678D01*
X12323362Y28929756D01*
X12469441Y28990264D01*
X12594882Y29086518D01*
X12691136Y29211959D01*
X12751644Y29358038D01*
X12754774Y29381809D01*
X12771204Y29506612D01*
X12772282Y29514800D01*
X12751644Y29671562D01*
X12691136Y29817641D01*
X12594882Y29943082D01*
X12469441Y30039336D01*
X12341653Y30092268D01*
X12330991Y30096684D01*
X12323362Y30099844D01*
X12166600Y30120482D01*
X12009838Y30099844D01*
X12002209Y30096684D01*
X11991547Y30092268D01*
X11863759Y30039336D01*
X11738318Y29943082D01*
X11642064Y29817641D01*
X11581556Y29671562D01*
X11580478Y29663374D01*
X11565456Y29549272D01*
X11536733Y29484345D01*
X11477468Y29445254D01*
X11424088Y29440797D01*
X11285788Y29459004D01*
X11277600Y29460082D01*
X11269412Y29459004D01*
X11164970Y29445254D01*
X11120838Y29439444D01*
X11080880Y29422893D01*
X11010292Y29415304D01*
X10946805Y29447083D01*
X10910577Y29508141D01*
X10913111Y29579092D01*
X10916254Y29587520D01*
X10956884Y29685609D01*
X10960044Y29693238D01*
X10980682Y29850000D01*
X10960044Y30006762D01*
X10899536Y30152841D01*
X10803282Y30278282D01*
X10785556Y30291884D01*
X10684392Y30369509D01*
X10677841Y30374536D01*
X10531762Y30435044D01*
X10375000Y30455682D01*
X10218238Y30435044D01*
X10072159Y30374536D01*
X10065608Y30369509D01*
X9964445Y30291884D01*
X9946718Y30278282D01*
X9850464Y30152841D01*
X9789956Y30006762D01*
X9769318Y29850000D01*
X8410573Y29850000D01*
X8410311Y29872044D01*
X8415208Y29886191D01*
X8448944Y29967638D01*
X8469582Y30124400D01*
X8448944Y30281162D01*
X8388436Y30427241D01*
X8292182Y30552682D01*
X8166741Y30648936D01*
X8020662Y30709444D01*
X7863900Y30730082D01*
X7707138Y30709444D01*
X7561059Y30648936D01*
X7435618Y30552682D01*
X7339364Y30427241D01*
X7278856Y30281162D01*
X7258218Y30124400D01*
X6355585Y30124400D01*
X6339062Y30131244D01*
X6328854Y30132588D01*
X6247449Y30143305D01*
X6182300Y30151882D01*
X6117151Y30143305D01*
X6035747Y30132588D01*
X6025538Y30131244D01*
X5879459Y30070736D01*
X5872908Y30065709D01*
X5872903Y30065706D01*
X5795839Y30006573D01*
X5729619Y29980972D01*
X5660070Y29995237D01*
X5619172Y30029831D01*
X5616160Y30033757D01*
X5528282Y30148282D01*
X5402841Y30244536D01*
X5256762Y30305044D01*
X5100000Y30325682D01*
X4943238Y30305044D01*
X4797159Y30244536D01*
X4671718Y30148282D01*
X4666695Y30141736D01*
X4666692Y30141733D01*
X4619206Y30079847D01*
X4561868Y30037979D01*
X4490997Y30033757D01*
X4471025Y30040141D01*
X4463754Y30043153D01*
X4409299Y30065709D01*
X4394391Y30071884D01*
X4386762Y30075044D01*
X4350280Y30079847D01*
X4238188Y30094604D01*
X4230000Y30095682D01*
X4221812Y30094604D01*
X4109721Y30079847D01*
X4073238Y30075044D01*
X3927159Y30014536D01*
X3801718Y29918282D01*
X3705464Y29792841D01*
X3644956Y29646762D01*
X3624318Y29490000D01*
X3640505Y29367049D01*
X3629566Y29296902D01*
X3582438Y29243803D01*
X3523849Y29226978D01*
X3524020Y29225682D01*
X3367258Y29205044D01*
X3221179Y29144536D01*
X3095738Y29048282D01*
X3090715Y29041736D01*
X3079171Y29026691D01*
X2999484Y28922841D01*
X2938976Y28776762D01*
X2918338Y28620000D01*
X2938976Y28463238D01*
X2999484Y28317159D01*
X3067961Y28227918D01*
X3081688Y28210029D01*
X3095738Y28191718D01*
X3102284Y28186695D01*
X3131938Y28163941D01*
X3221179Y28095464D01*
X3367258Y28034956D01*
X3375446Y28033878D01*
X3399586Y28030700D01*
X3524020Y28014318D01*
X3532208Y28015396D01*
X3549170Y28017629D01*
X3680782Y28034956D01*
X3681164Y28032053D01*
X3738014Y28030700D01*
X3796810Y27990907D01*
X3824759Y27925643D01*
X3812986Y27855629D01*
X3788745Y27821588D01*
X3634088Y27666931D01*
X3632340Y27665370D01*
X3622295Y27660547D01*
X3613435Y27649467D01*
X3613434Y27649467D01*
X3605062Y27638998D01*
X3599263Y27632518D01*
X3597639Y27630482D01*
X3592636Y27625479D01*
X3588875Y27619494D01*
X3586901Y27617020D01*
X3582241Y27610462D01*
X3565306Y27589285D01*
X3562663Y27577789D01*
X3556386Y27567803D01*
X3554792Y27553705D01*
X3553340Y27540862D01*
X3551932Y27532627D01*
X3551596Y27529663D01*
X3550000Y27522723D01*
X3550000Y27515603D01*
X3549684Y27512819D01*
X3549202Y27504262D01*
X3546135Y27477134D01*
X3549859Y27466471D01*
X3550000Y27463941D01*
X3550000Y16982076D01*
X3529998Y16913955D01*
X3476342Y16867462D01*
X3423481Y16856077D01*
X2954143Y16858018D01*
X2685688Y16859129D01*
X2617650Y16879413D01*
X2571380Y16933260D01*
X2561287Y16968682D01*
X2541922Y17115774D01*
X2540844Y17123962D01*
X2480336Y17270041D01*
X2384082Y17395482D01*
X2258641Y17491736D01*
X2112562Y17552244D01*
X1955800Y17572882D01*
X1799038Y17552244D01*
X1652959Y17491736D01*
X1527518Y17395482D01*
X1431264Y17270041D01*
X1370756Y17123962D01*
X1369678Y17115774D01*
X1351108Y16974721D01*
X1322386Y16909793D01*
X1263120Y16870702D01*
X1225665Y16865168D01*
X-19130969Y16949358D01*
X-19199007Y16969642D01*
X-19245277Y17023489D01*
X-19256421Y17072755D01*
X-19294737Y18927718D01*
X-7805680Y18927718D01*
X-7805164Y18921574D01*
X-7790036Y18741426D01*
X-7788441Y18722427D01*
X-7786742Y18716502D01*
X-7751841Y18594789D01*
X-7731656Y18524394D01*
X-7728841Y18518917D01*
X-7728840Y18518914D01*
X-7640303Y18346639D01*
X-7637488Y18341162D01*
X-7509523Y18179710D01*
X-7352636Y18046189D01*
X-7172802Y17945683D01*
X-7077962Y17914867D01*
X-6982729Y17883924D01*
X-6982725Y17883923D01*
X-6976871Y17882021D01*
X-6772306Y17857629D01*
X-6766171Y17858101D01*
X-6766169Y17858101D01*
X-6710161Y17862411D01*
X-6566900Y17873434D01*
X-6560970Y17875090D01*
X-6560968Y17875090D01*
X-6374403Y17927180D01*
X-6374404Y17927180D01*
X-6368475Y17928835D01*
X-6362986Y17931608D01*
X-6362980Y17931610D01*
X-6190084Y18018947D01*
X-6184590Y18021722D01*
X-6022249Y18148556D01*
X-5887636Y18304508D01*
X-5866813Y18341162D01*
X-5801182Y18456695D01*
X-5785877Y18483636D01*
X-5720849Y18679117D01*
X-5695029Y18883506D01*
X-5694938Y18890000D01*
X-675682Y18890000D01*
X-655044Y18733238D01*
X-594536Y18587159D01*
X-498282Y18461718D01*
X-372841Y18365464D01*
X-226762Y18304956D01*
X-218574Y18303878D01*
X-148381Y18294637D01*
X-70000Y18284318D01*
X-61812Y18285396D01*
X78574Y18303878D01*
X86762Y18304956D01*
X232841Y18365464D01*
X358282Y18461718D01*
X454536Y18587159D01*
X515044Y18733238D01*
X535682Y18890000D01*
X515044Y19046762D01*
X454536Y19192841D01*
X358282Y19318282D01*
X232841Y19414536D01*
X86762Y19475044D01*
X-70000Y19495682D01*
X-226762Y19475044D01*
X-372841Y19414536D01*
X-498282Y19318282D01*
X-594536Y19192841D01*
X-655044Y19046762D01*
X-675682Y18890000D01*
X-5694938Y18890000D01*
X-5694617Y18912980D01*
X-5714720Y19118010D01*
X-5774265Y19315231D01*
X-5870982Y19497131D01*
X-5964810Y19612175D01*
X-5997294Y19652005D01*
X-5997297Y19652008D01*
X-6001189Y19656780D01*
X-6113872Y19750000D01*
X-6155175Y19784169D01*
X-6155179Y19784171D01*
X-6159925Y19788098D01*
X-6341145Y19886083D01*
X-6537946Y19947003D01*
X-6544071Y19947647D01*
X-6544072Y19947647D01*
X-6736702Y19967893D01*
X-6736704Y19967893D01*
X-6742831Y19968537D01*
X-6825234Y19961038D01*
X-6941858Y19950425D01*
X-6941861Y19950424D01*
X-6947997Y19949866D01*
X-7145628Y19891700D01*
X-7328198Y19796254D01*
X-7332999Y19792394D01*
X-7333002Y19792392D01*
X-7343229Y19784169D01*
X-7488753Y19667165D01*
X-7621176Y19509350D01*
X-7624144Y19503952D01*
X-7624147Y19503947D01*
X-7705333Y19356268D01*
X-7720424Y19328818D01*
X-7782716Y19132448D01*
X-7783402Y19126331D01*
X-7783403Y19126327D01*
X-7792327Y19046762D01*
X-7805680Y18927718D01*
X-19294737Y18927718D01*
X-19317586Y20033911D01*
X-5371338Y20033911D01*
X-5350700Y19877149D01*
X-5290192Y19731070D01*
X-5193938Y19605629D01*
X-5068497Y19509375D01*
X-4922418Y19448867D01*
X-4765656Y19428229D01*
X-4757468Y19429307D01*
X-4732667Y19432572D01*
X-4608894Y19448867D01*
X-4462815Y19509375D01*
X-4337374Y19605629D01*
X-4241120Y19731070D01*
X-4180612Y19877149D01*
X-4159974Y20033911D01*
X-4180612Y20190673D01*
X-4241120Y20336752D01*
X-4337374Y20462193D01*
X-4349646Y20471610D01*
X-4414872Y20521659D01*
X-4462815Y20558447D01*
X-4608894Y20618955D01*
X-4765656Y20639593D01*
X-4922418Y20618955D01*
X-5068497Y20558447D01*
X-5116440Y20521659D01*
X-5181665Y20471610D01*
X-5193938Y20462193D01*
X-5290192Y20336752D01*
X-5350700Y20190673D01*
X-5371338Y20033911D01*
X-19317586Y20033911D01*
X-19347203Y21467718D01*
X-7805680Y21467718D01*
X-7788441Y21262427D01*
X-7731656Y21064394D01*
X-7728841Y21058917D01*
X-7728840Y21058914D01*
X-7707953Y21018273D01*
X-7637488Y20881162D01*
X-7509523Y20719710D01*
X-7352636Y20586189D01*
X-7172802Y20485683D01*
X-7100507Y20462193D01*
X-6982729Y20423924D01*
X-6982725Y20423923D01*
X-6976871Y20422021D01*
X-6772306Y20397629D01*
X-6766171Y20398101D01*
X-6766169Y20398101D01*
X-6705570Y20402764D01*
X-6566900Y20413434D01*
X-6560970Y20415090D01*
X-6560968Y20415090D01*
X-6374403Y20467180D01*
X-6374404Y20467180D01*
X-6368475Y20468835D01*
X-6362986Y20471608D01*
X-6362980Y20471610D01*
X-6201025Y20553420D01*
X-6184590Y20561722D01*
X-6022249Y20688556D01*
X-5974705Y20743636D01*
X-5904906Y20824500D01*
X-375682Y20824500D01*
X-355044Y20667738D01*
X-294536Y20521659D01*
X-198282Y20396218D01*
X-72841Y20299964D01*
X73238Y20239456D01*
X230000Y20218818D01*
X238188Y20219896D01*
X378574Y20238378D01*
X386762Y20239456D01*
X532841Y20299964D01*
X658282Y20396218D01*
X754536Y20521659D01*
X815044Y20667738D01*
X835682Y20824500D01*
X815044Y20981262D01*
X754536Y21127341D01*
X658282Y21252782D01*
X532841Y21349036D01*
X386762Y21409544D01*
X230000Y21430182D01*
X73238Y21409544D01*
X-72841Y21349036D01*
X-198282Y21252782D01*
X-294536Y21127341D01*
X-355044Y20981262D01*
X-375682Y20824500D01*
X-5904906Y20824500D01*
X-5891660Y20839846D01*
X-5891660Y20839847D01*
X-5887636Y20844508D01*
X-5866813Y20881162D01*
X-5788924Y21018273D01*
X-5785877Y21023636D01*
X-5720849Y21219117D01*
X-5695029Y21423506D01*
X-5694617Y21452980D01*
X-5714720Y21658010D01*
X-5774265Y21855231D01*
X-5839867Y21978612D01*
X-5854186Y22048150D01*
X-5828638Y22114390D01*
X-5776833Y22154174D01*
X-5631659Y22214307D01*
X-5506218Y22310561D01*
X-5489466Y22332392D01*
X-5476447Y22349359D01*
X-5409964Y22436002D01*
X-5350821Y22578785D01*
X-5306272Y22634065D01*
X-5238909Y22656486D01*
X-5170117Y22638928D01*
X-5121739Y22586965D01*
X-5109490Y22547013D01*
X-5105044Y22513238D01*
X-5044536Y22367159D01*
X-4948282Y22241718D01*
X-4822841Y22145464D01*
X-4676762Y22084956D01*
X-4520000Y22064318D01*
X-4511812Y22065396D01*
X-4371426Y22083878D01*
X-4363238Y22084956D01*
X-4217159Y22145464D01*
X-4091718Y22241718D01*
X-3995464Y22367159D01*
X-3934956Y22513238D01*
X-3927217Y22572021D01*
X-3920077Y22626253D01*
X-3891354Y22691180D01*
X-3832089Y22730271D01*
X-3761097Y22731116D01*
X-3726905Y22713999D01*
X-3726546Y22714621D01*
X-3719393Y22710491D01*
X-3712841Y22705464D01*
X-3566762Y22644956D01*
X-3410000Y22624318D01*
X-3401812Y22625396D01*
X-3261426Y22643878D01*
X-3253238Y22644956D01*
X-3107159Y22705464D01*
X-2981718Y22801718D01*
X-2910324Y22894761D01*
X-2852987Y22936627D01*
X-2782116Y22940849D01*
X-2762152Y22934468D01*
X-2666762Y22894956D01*
X-2510000Y22874318D01*
X-2501812Y22875396D01*
X-2361426Y22893878D01*
X-2353238Y22894956D01*
X-2207159Y22955464D01*
X-2081718Y23051718D01*
X-1985464Y23177159D01*
X-1924956Y23323238D01*
X-1904318Y23480000D01*
X-1924956Y23636762D01*
X-1985464Y23782841D01*
X-2081718Y23908282D01*
X-2083957Y23910000D01*
X1004318Y23910000D01*
X1024956Y23753238D01*
X1085464Y23607159D01*
X1181718Y23481718D01*
X1307159Y23385464D01*
X1453238Y23324956D01*
X1461426Y23323878D01*
X1508444Y23317688D01*
X1610000Y23304318D01*
X1618188Y23305396D01*
X1758574Y23323878D01*
X1766762Y23324956D01*
X1774389Y23328115D01*
X1774392Y23328116D01*
X1840128Y23355345D01*
X1910718Y23362934D01*
X1974205Y23331155D01*
X2004754Y23287155D01*
X2022301Y23244793D01*
X2022304Y23244788D01*
X2025464Y23237159D01*
X2030491Y23230608D01*
X2030494Y23230603D01*
X2119991Y23113968D01*
X2145592Y23047748D01*
X2131327Y22978199D01*
X2081726Y22927403D01*
X2068249Y22920856D01*
X1974643Y22882083D01*
X1849202Y22785829D01*
X1752948Y22660388D01*
X1692440Y22514309D01*
X1671802Y22357547D01*
X1692440Y22200785D01*
X1752948Y22054706D01*
X1849202Y21929265D01*
X1974643Y21833011D01*
X2120722Y21772503D01*
X2277484Y21751865D01*
X2285672Y21752943D01*
X2426058Y21771425D01*
X2434246Y21772503D01*
X2580325Y21833011D01*
X2705766Y21929265D01*
X2802020Y22054706D01*
X2862528Y22200785D01*
X2883166Y22357547D01*
X2862528Y22514309D01*
X2802020Y22660388D01*
X2796992Y22666941D01*
X2796990Y22666944D01*
X2707493Y22783579D01*
X2681892Y22849799D01*
X2696157Y22919348D01*
X2745758Y22970144D01*
X2759237Y22976692D01*
X2762875Y22978199D01*
X2852841Y23015464D01*
X2978282Y23111718D01*
X3074536Y23237159D01*
X3135044Y23383238D01*
X3155682Y23540000D01*
X3135044Y23696762D01*
X3074536Y23842841D01*
X3006059Y23932082D01*
X2983305Y23961736D01*
X2978282Y23968282D01*
X2852841Y24064536D01*
X2706762Y24125044D01*
X2550000Y24145682D01*
X2393238Y24125044D01*
X2385611Y24121885D01*
X2385608Y24121884D01*
X2319872Y24094655D01*
X2249282Y24087066D01*
X2185795Y24118845D01*
X2155246Y24162845D01*
X2137699Y24205207D01*
X2137696Y24205212D01*
X2134536Y24212841D01*
X2038282Y24338282D01*
X2021798Y24350931D01*
X1921868Y24427609D01*
X1912841Y24434536D01*
X1766762Y24495044D01*
X1610000Y24515682D01*
X1453238Y24495044D01*
X1307159Y24434536D01*
X1298132Y24427609D01*
X1198203Y24350931D01*
X1181718Y24338282D01*
X1085464Y24212841D01*
X1024956Y24066762D01*
X1004318Y23910000D01*
X-2083957Y23910000D01*
X-2207159Y24004536D01*
X-2353238Y24065044D01*
X-2366287Y24066762D01*
X-2501812Y24084604D01*
X-2510000Y24085682D01*
X-2518188Y24084604D01*
X-2653712Y24066762D01*
X-2666762Y24065044D01*
X-2812841Y24004536D01*
X-2938282Y23908282D01*
X-3008998Y23816122D01*
X-3009675Y23815240D01*
X-3067013Y23773373D01*
X-3137884Y23769151D01*
X-3157848Y23775532D01*
X-3253238Y23815044D01*
X-3410000Y23835682D01*
X-3566762Y23815044D01*
X-3712841Y23754536D01*
X-3838282Y23658282D01*
X-3934536Y23532841D01*
X-3995044Y23386762D01*
X-3996122Y23378574D01*
X-4009923Y23273747D01*
X-4038646Y23208820D01*
X-4097911Y23169729D01*
X-4168903Y23168884D01*
X-4203095Y23186001D01*
X-4203454Y23185379D01*
X-4210607Y23189509D01*
X-4217159Y23194536D01*
X-4363238Y23255044D01*
X-4520000Y23275682D01*
X-4676762Y23255044D01*
X-4822841Y23194536D01*
X-4948282Y23098282D01*
X-5044536Y22972841D01*
X-5084899Y22875396D01*
X-5103679Y22830058D01*
X-5148228Y22774778D01*
X-5215591Y22752357D01*
X-5284383Y22769915D01*
X-5332761Y22821878D01*
X-5345010Y22861832D01*
X-5346795Y22875396D01*
X-5349456Y22895605D01*
X-5409964Y23041684D01*
X-5506218Y23167125D01*
X-5631659Y23263379D01*
X-5762772Y23317688D01*
X-5818053Y23362236D01*
X-5840474Y23429600D01*
X-5824110Y23496334D01*
X-5785877Y23563636D01*
X-5720849Y23759117D01*
X-5695029Y23963506D01*
X-5694617Y23992980D01*
X-5714720Y24198010D01*
X-5774265Y24395231D01*
X-5870982Y24577131D01*
X-5950004Y24674021D01*
X-5997294Y24732005D01*
X-5997297Y24732008D01*
X-6001189Y24736780D01*
X-6086399Y24807272D01*
X-6097163Y24816177D01*
X-1685609Y24816177D01*
X-1684445Y24807275D01*
X-1684445Y24807272D01*
X-1683186Y24797646D01*
X-1667020Y24674021D01*
X-1609280Y24542797D01*
X-1603503Y24535924D01*
X-1603502Y24535923D01*
X-1585446Y24514443D01*
X-1517030Y24433052D01*
X-1397687Y24353610D01*
X-1260843Y24310858D01*
X-1251871Y24310694D01*
X-1251868Y24310693D01*
X-1186537Y24309496D01*
X-1117501Y24308230D01*
X-1108467Y24310693D01*
X-987842Y24343579D01*
X-987840Y24343580D01*
X-979183Y24345940D01*
X-857009Y24420955D01*
X-850986Y24427609D01*
X-850982Y24427612D01*
X-772387Y24514443D01*
X-711844Y24551524D01*
X-640864Y24549987D01*
X-582521Y24510963D01*
X-517030Y24433052D01*
X-397687Y24353610D01*
X-260843Y24310858D01*
X-251871Y24310694D01*
X-251868Y24310693D01*
X-186537Y24309496D01*
X-117501Y24308230D01*
X-108467Y24310693D01*
X12158Y24343579D01*
X12160Y24343580D01*
X20817Y24345940D01*
X142991Y24420955D01*
X239200Y24527246D01*
X301710Y24656267D01*
X325496Y24797646D01*
X325647Y24810000D01*
X305323Y24951918D01*
X245984Y25082428D01*
X227598Y25103766D01*
X158260Y25184237D01*
X158257Y25184240D01*
X152400Y25191037D01*
X32095Y25269015D01*
X-105261Y25310093D01*
X-114237Y25310148D01*
X-114238Y25310148D01*
X-174445Y25310516D01*
X-248624Y25310969D01*
X-386471Y25271572D01*
X-507720Y25195070D01*
X-513662Y25188342D01*
X-513663Y25188341D01*
X-540356Y25158116D01*
X-584877Y25107705D01*
X-585901Y25106546D01*
X-645987Y25068727D01*
X-716980Y25069397D01*
X-775796Y25107705D01*
X-841740Y25184237D01*
X-841743Y25184240D01*
X-847600Y25191037D01*
X-967905Y25269015D01*
X-1105261Y25310093D01*
X-1114237Y25310148D01*
X-1114238Y25310148D01*
X-1174445Y25310516D01*
X-1248624Y25310969D01*
X-1386471Y25271572D01*
X-1507720Y25195070D01*
X-1513662Y25188342D01*
X-1513663Y25188341D01*
X-1540356Y25158116D01*
X-1602623Y25087612D01*
X-1663553Y24957837D01*
X-1664934Y24948965D01*
X-1675810Y24879111D01*
X-1685609Y24816177D01*
X-6097163Y24816177D01*
X-6155175Y24864169D01*
X-6155179Y24864171D01*
X-6159925Y24868098D01*
X-6341145Y24966083D01*
X-6537946Y25027003D01*
X-6544071Y25027647D01*
X-6544072Y25027647D01*
X-6736702Y25047893D01*
X-6736704Y25047893D01*
X-6742831Y25048537D01*
X-6829671Y25040634D01*
X-6941858Y25030425D01*
X-6941861Y25030424D01*
X-6947997Y25029866D01*
X-7145628Y24971700D01*
X-7151093Y24968843D01*
X-7172145Y24957837D01*
X-7328198Y24876254D01*
X-7332999Y24872394D01*
X-7333002Y24872392D01*
X-7483946Y24751030D01*
X-7488753Y24747165D01*
X-7621176Y24589350D01*
X-7624144Y24583952D01*
X-7624147Y24583947D01*
X-7707101Y24433052D01*
X-7720424Y24408818D01*
X-7782716Y24212448D01*
X-7783402Y24206331D01*
X-7783403Y24206327D01*
X-7799057Y24066762D01*
X-7805680Y24007718D01*
X-7805164Y24001574D01*
X-7789500Y23815044D01*
X-7788441Y23802427D01*
X-7786742Y23796502D01*
X-7738589Y23628574D01*
X-7731656Y23604394D01*
X-7728841Y23598917D01*
X-7728840Y23598914D01*
X-7641825Y23429600D01*
X-7637488Y23421162D01*
X-7509523Y23259710D01*
X-7504830Y23255716D01*
X-7504829Y23255715D01*
X-7403795Y23169729D01*
X-7352636Y23126189D01*
X-7347258Y23123183D01*
X-7347256Y23123182D01*
X-7290990Y23091736D01*
X-7172802Y23025683D01*
X-7077962Y22994867D01*
X-6982729Y22963924D01*
X-6982725Y22963923D01*
X-6976871Y22962021D01*
X-6772306Y22937629D01*
X-6766171Y22938101D01*
X-6766168Y22938101D01*
X-6666229Y22945791D01*
X-6596775Y22931074D01*
X-6546303Y22881143D01*
X-6530837Y22811851D01*
X-6531640Y22803730D01*
X-6540182Y22738843D01*
X-6539104Y22730655D01*
X-6527455Y22642170D01*
X-6538394Y22572021D01*
X-6585523Y22518923D01*
X-6653877Y22499733D01*
X-6665541Y22500414D01*
X-6742831Y22508537D01*
X-6829671Y22500634D01*
X-6941858Y22490425D01*
X-6941861Y22490424D01*
X-6947997Y22489866D01*
X-7145628Y22431700D01*
X-7328198Y22336254D01*
X-7332999Y22332394D01*
X-7333002Y22332392D01*
X-7437636Y22248264D01*
X-7488753Y22207165D01*
X-7621176Y22049350D01*
X-7624144Y22043952D01*
X-7624147Y22043947D01*
X-7717457Y21874215D01*
X-7720424Y21868818D01*
X-7782716Y21672448D01*
X-7783402Y21666331D01*
X-7783403Y21666327D01*
X-7804993Y21473843D01*
X-7805680Y21467718D01*
X-19347203Y21467718D01*
X-19452135Y26547718D01*
X-7805680Y26547718D01*
X-7805164Y26541574D01*
X-7791754Y26381884D01*
X-7788441Y26342427D01*
X-7783311Y26324536D01*
X-7740549Y26175409D01*
X-7731656Y26144394D01*
X-7728841Y26138917D01*
X-7728840Y26138914D01*
X-7643729Y25973306D01*
X-7637488Y25961162D01*
X-7509523Y25799710D01*
X-7504830Y25795716D01*
X-7504829Y25795715D01*
X-7398954Y25705609D01*
X-7352636Y25666189D01*
X-7172802Y25565683D01*
X-7081798Y25536114D01*
X-6982729Y25503924D01*
X-6982725Y25503923D01*
X-6976871Y25502021D01*
X-6772306Y25477629D01*
X-6766171Y25478101D01*
X-6766169Y25478101D01*
X-6710161Y25482411D01*
X-6566900Y25493434D01*
X-6560970Y25495090D01*
X-6560968Y25495090D01*
X-6374403Y25547180D01*
X-6374404Y25547180D01*
X-6368475Y25548835D01*
X-6362986Y25551608D01*
X-6362980Y25551610D01*
X-6190084Y25638947D01*
X-6184590Y25641722D01*
X-6058799Y25740000D01*
X-2795682Y25740000D01*
X-2775044Y25583238D01*
X-2714536Y25437159D01*
X-2618282Y25311718D01*
X-2492841Y25215464D01*
X-2346762Y25154956D01*
X-2190000Y25134318D01*
X-2181812Y25135396D01*
X-2041426Y25153878D01*
X-2033238Y25154956D01*
X-1887159Y25215464D01*
X-1761718Y25311718D01*
X-1665464Y25437159D01*
X-1604956Y25583238D01*
X-1584318Y25740000D01*
X-1604956Y25896762D01*
X-1665464Y26042841D01*
X-1761718Y26168282D01*
X-1775258Y26178672D01*
X-1818325Y26211718D01*
X-1887159Y26264536D01*
X-2020612Y26319814D01*
X-2025609Y26321884D01*
X-2033238Y26325044D01*
X-2190000Y26345682D01*
X-2346762Y26325044D01*
X-2354391Y26321884D01*
X-2359388Y26319814D01*
X-2492841Y26264536D01*
X-2561675Y26211718D01*
X-2604741Y26178672D01*
X-2618282Y26168282D01*
X-2714536Y26042841D01*
X-2775044Y25896762D01*
X-2795682Y25740000D01*
X-6058799Y25740000D01*
X-6022249Y25768556D01*
X-5984659Y25812104D01*
X-5891660Y25919846D01*
X-5891660Y25919847D01*
X-5887636Y25924508D01*
X-5866813Y25961162D01*
X-5823755Y26036959D01*
X-5785877Y26103636D01*
X-5720849Y26299117D01*
X-5695029Y26503506D01*
X-5694617Y26532980D01*
X-5714720Y26738010D01*
X-5774265Y26935231D01*
X-5870982Y27117131D01*
X-5959873Y27226122D01*
X-5997294Y27272005D01*
X-5997297Y27272008D01*
X-6001189Y27276780D01*
X-6035364Y27305052D01*
X-6155175Y27404169D01*
X-6155179Y27404171D01*
X-6159925Y27408098D01*
X-6341145Y27506083D01*
X-6537946Y27567003D01*
X-6544071Y27567647D01*
X-6544072Y27567647D01*
X-6736702Y27587893D01*
X-6736704Y27587893D01*
X-6742831Y27588537D01*
X-6817904Y27581705D01*
X-6941858Y27570425D01*
X-6941861Y27570424D01*
X-6947997Y27569866D01*
X-7145628Y27511700D01*
X-7151093Y27508843D01*
X-7161977Y27503153D01*
X-7328198Y27416254D01*
X-7332999Y27412394D01*
X-7333002Y27412392D01*
X-7466506Y27305052D01*
X-7488753Y27287165D01*
X-7621176Y27129350D01*
X-7624144Y27123952D01*
X-7624147Y27123947D01*
X-7702385Y26981631D01*
X-7720424Y26948818D01*
X-7782716Y26752448D01*
X-7783402Y26746331D01*
X-7783403Y26746327D01*
X-7804787Y26555682D01*
X-7805680Y26547718D01*
X-19452135Y26547718D01*
X-19504601Y29087718D01*
X-7805680Y29087718D01*
X-7805164Y29081574D01*
X-7790242Y28903878D01*
X-7788441Y28882427D01*
X-7786742Y28876502D01*
X-7734734Y28695129D01*
X-7731656Y28684394D01*
X-7728841Y28678917D01*
X-7728840Y28678914D01*
X-7660221Y28545396D01*
X-7637488Y28501162D01*
X-7509523Y28339710D01*
X-7504830Y28335716D01*
X-7504829Y28335715D01*
X-7425590Y28268278D01*
X-7352636Y28206189D01*
X-7347258Y28203183D01*
X-7347256Y28203182D01*
X-7317756Y28186695D01*
X-7172802Y28105683D01*
X-7086695Y28077705D01*
X-6982729Y28043924D01*
X-6982725Y28043923D01*
X-6976871Y28042021D01*
X-6772306Y28017629D01*
X-6766171Y28018101D01*
X-6766169Y28018101D01*
X-6710161Y28022411D01*
X-6566900Y28033434D01*
X-6560970Y28035090D01*
X-6560968Y28035090D01*
X-6437096Y28069676D01*
X-6368475Y28088835D01*
X-6362986Y28091608D01*
X-6362980Y28091610D01*
X-6190084Y28178947D01*
X-6184590Y28181722D01*
X-6171795Y28191718D01*
X-6068378Y28272516D01*
X-6022249Y28308556D01*
X-6003856Y28329864D01*
X-5891660Y28459846D01*
X-5891660Y28459847D01*
X-5887636Y28464508D01*
X-5866813Y28501162D01*
X-5830574Y28564956D01*
X-5785877Y28643636D01*
X-5720849Y28839117D01*
X-5695029Y29043506D01*
X-5694617Y29072980D01*
X-5702169Y29150000D01*
X-3995682Y29150000D01*
X-3975044Y28993238D01*
X-3914536Y28847159D01*
X-3818282Y28721718D01*
X-3692841Y28625464D01*
X-3546762Y28564956D01*
X-3390000Y28544318D01*
X-3381812Y28545396D01*
X-3241426Y28563878D01*
X-3233238Y28564956D01*
X-3087159Y28625464D01*
X-2961718Y28721718D01*
X-2865464Y28847159D01*
X-2804956Y28993238D01*
X-2784318Y29150000D01*
X-2801171Y29278010D01*
X-2803878Y29298574D01*
X-2804956Y29306762D01*
X-2865464Y29452841D01*
X-2961718Y29578282D01*
X-3087159Y29674536D01*
X-3172777Y29710000D01*
X-1305682Y29710000D01*
X-1285044Y29553238D01*
X-1224536Y29407159D01*
X-1128282Y29281718D01*
X-1121736Y29276695D01*
X-1110554Y29268115D01*
X-1002841Y29185464D01*
X-856762Y29124956D01*
X-848574Y29123878D01*
X-803303Y29117918D01*
X-700000Y29104318D01*
X-691812Y29105396D01*
X-551426Y29123878D01*
X-543238Y29124956D01*
X-397159Y29185464D01*
X-289446Y29268115D01*
X-278264Y29276695D01*
X-271718Y29281718D01*
X-175464Y29407159D01*
X-114956Y29553238D01*
X-94318Y29710000D01*
X-114956Y29866762D01*
X-175464Y30012841D01*
X-264240Y30128537D01*
X-266695Y30131736D01*
X-271718Y30138282D01*
X-397159Y30234536D01*
X-543238Y30295044D01*
X-700000Y30315682D01*
X-856762Y30295044D01*
X-1002841Y30234536D01*
X-1128282Y30138282D01*
X-1133305Y30131736D01*
X-1135760Y30128537D01*
X-1224536Y30012841D01*
X-1285044Y29866762D01*
X-1305682Y29710000D01*
X-3172777Y29710000D01*
X-3233238Y29735044D01*
X-3390000Y29755682D01*
X-3546762Y29735044D01*
X-3692841Y29674536D01*
X-3818282Y29578282D01*
X-3914536Y29452841D01*
X-3975044Y29306762D01*
X-3976122Y29298574D01*
X-3978829Y29278010D01*
X-3995682Y29150000D01*
X-5702169Y29150000D01*
X-5714720Y29278010D01*
X-5774265Y29475231D01*
X-5870982Y29657131D01*
X-5950479Y29754604D01*
X-5997294Y29812005D01*
X-5997297Y29812008D01*
X-6001189Y29816780D01*
X-6005938Y29820709D01*
X-6155175Y29944169D01*
X-6155179Y29944171D01*
X-6159925Y29948098D01*
X-6341145Y30046083D01*
X-6537946Y30107003D01*
X-6544071Y30107647D01*
X-6544072Y30107647D01*
X-6736702Y30127893D01*
X-6736704Y30127893D01*
X-6742831Y30128537D01*
X-6829671Y30120634D01*
X-6941858Y30110425D01*
X-6941861Y30110424D01*
X-6947997Y30109866D01*
X-7145628Y30051700D01*
X-7151093Y30048843D01*
X-7167738Y30040141D01*
X-7328198Y29956254D01*
X-7332999Y29952394D01*
X-7333002Y29952392D01*
X-7483946Y29831030D01*
X-7488753Y29827165D01*
X-7621176Y29669350D01*
X-7624144Y29663952D01*
X-7624147Y29663947D01*
X-7695174Y29534748D01*
X-7720424Y29488818D01*
X-7782716Y29292448D01*
X-7783402Y29286331D01*
X-7783403Y29286327D01*
X-7802595Y29115223D01*
X-7805680Y29087718D01*
X-19504601Y29087718D01*
X-19557067Y31627718D01*
X-7805680Y31627718D01*
X-7788441Y31422427D01*
X-7786742Y31416502D01*
X-7771799Y31364391D01*
X-7731656Y31224394D01*
X-7728841Y31218917D01*
X-7728840Y31218914D01*
X-7707953Y31178273D01*
X-7637488Y31041162D01*
X-7509523Y30879710D01*
X-7352636Y30746189D01*
X-7172802Y30645683D01*
X-7087960Y30618116D01*
X-6982729Y30583924D01*
X-6982725Y30583923D01*
X-6976871Y30582021D01*
X-6772306Y30557629D01*
X-6766171Y30558101D01*
X-6766169Y30558101D01*
X-6710161Y30562411D01*
X-6566900Y30573434D01*
X-6560970Y30575090D01*
X-6560968Y30575090D01*
X-6418184Y30614956D01*
X-6368475Y30628835D01*
X-6362986Y30631608D01*
X-6362980Y30631610D01*
X-6215152Y30706284D01*
X-6184590Y30721722D01*
X-6173889Y30730082D01*
X-6027099Y30844767D01*
X-6022249Y30848556D01*
X-5887636Y31004508D01*
X-5866813Y31041162D01*
X-5788924Y31178273D01*
X-5785877Y31183636D01*
X-5780433Y31200000D01*
X12619318Y31200000D01*
X12639956Y31043238D01*
X12700464Y30897159D01*
X12796718Y30771718D01*
X12922159Y30675464D01*
X13068238Y30614956D01*
X13225000Y30594318D01*
X13233188Y30595396D01*
X13373574Y30613878D01*
X13381762Y30614956D01*
X13527841Y30675464D01*
X13653282Y30771718D01*
X13749536Y30897159D01*
X13810044Y31043238D01*
X13830682Y31200000D01*
X13810044Y31356762D01*
X13749536Y31502841D01*
X13653282Y31628282D01*
X13527841Y31724536D01*
X13381762Y31785044D01*
X13225000Y31805682D01*
X13068238Y31785044D01*
X12922159Y31724536D01*
X12796718Y31628282D01*
X12700464Y31502841D01*
X12639956Y31356762D01*
X12619318Y31200000D01*
X-5780433Y31200000D01*
X-5720849Y31379117D01*
X-5695029Y31583506D01*
X-5694617Y31612980D01*
X-5714720Y31818010D01*
X-5774265Y32015231D01*
X-5870982Y32197131D01*
X-5944341Y32287078D01*
X-5997294Y32352005D01*
X-5997297Y32352008D01*
X-6001189Y32356780D01*
X-6099507Y32438116D01*
X-6155175Y32484169D01*
X-6155179Y32484171D01*
X-6159925Y32488098D01*
X-6341145Y32586083D01*
X-6537946Y32647003D01*
X-6544071Y32647647D01*
X-6544072Y32647647D01*
X-6736702Y32667893D01*
X-6736704Y32667893D01*
X-6742831Y32668537D01*
X-6829671Y32660634D01*
X-6941858Y32650425D01*
X-6941861Y32650424D01*
X-6947997Y32649866D01*
X-7145628Y32591700D01*
X-7328198Y32496254D01*
X-7332999Y32492394D01*
X-7333002Y32492392D01*
X-7483946Y32371030D01*
X-7488753Y32367165D01*
X-7621176Y32209350D01*
X-7624144Y32203952D01*
X-7624147Y32203947D01*
X-7630885Y32191690D01*
X-7720424Y32028818D01*
X-7782716Y31832448D01*
X-7783402Y31826331D01*
X-7783403Y31826327D01*
X-7788388Y31781884D01*
X-7805680Y31627718D01*
X-19557067Y31627718D01*
X-19609533Y34167718D01*
X-7805680Y34167718D01*
X-7805164Y34161574D01*
X-7790353Y33985200D01*
X-7788441Y33962427D01*
X-7786742Y33956502D01*
X-7736040Y33779684D01*
X-7731656Y33764394D01*
X-7728841Y33758917D01*
X-7728840Y33758914D01*
X-7656715Y33618574D01*
X-7637488Y33581162D01*
X-7509523Y33419710D01*
X-7504830Y33415716D01*
X-7504829Y33415715D01*
X-7375454Y33305609D01*
X-7352636Y33286189D01*
X-7172802Y33185683D01*
X-7115791Y33167159D01*
X-6982729Y33123924D01*
X-6982725Y33123923D01*
X-6976871Y33122021D01*
X-6772306Y33097629D01*
X-6766171Y33098101D01*
X-6766169Y33098101D01*
X-6710161Y33102411D01*
X-6566900Y33113434D01*
X-6560970Y33115090D01*
X-6560968Y33115090D01*
X-6374403Y33167180D01*
X-6374404Y33167180D01*
X-6368475Y33168835D01*
X-6362986Y33171608D01*
X-6362980Y33171610D01*
X-6190084Y33258947D01*
X-6184590Y33261722D01*
X-6022249Y33388556D01*
X-6013166Y33399078D01*
X-5951949Y33470000D01*
X-3255682Y33470000D01*
X-3235044Y33313238D01*
X-3174536Y33167159D01*
X-3078282Y33041718D01*
X-3071736Y33036695D01*
X-3042082Y33013941D01*
X-2952841Y32945464D01*
X-2806762Y32884956D01*
X-2650000Y32864318D01*
X-2641812Y32865396D01*
X-2501426Y32883878D01*
X-2493238Y32884956D01*
X-2347159Y32945464D01*
X-2257918Y33013941D01*
X-2250022Y33020000D01*
X-345682Y33020000D01*
X-325044Y32863238D01*
X-264536Y32717159D01*
X-168282Y32591718D01*
X-42841Y32495464D01*
X103238Y32434956D01*
X260000Y32414318D01*
X268188Y32415396D01*
X408574Y32433878D01*
X416762Y32434956D01*
X562841Y32495464D01*
X688282Y32591718D01*
X784536Y32717159D01*
X845044Y32863238D01*
X865682Y33020000D01*
X846308Y33167159D01*
X846122Y33168574D01*
X845044Y33176762D01*
X836330Y33197800D01*
X21111318Y33197800D01*
X21131956Y33041038D01*
X21192464Y32894959D01*
X21288718Y32769518D01*
X21414159Y32673264D01*
X21560238Y32612756D01*
X21717000Y32592118D01*
X21725188Y32593196D01*
X21727042Y32593440D01*
X21873762Y32612756D01*
X22019841Y32673264D01*
X22145282Y32769518D01*
X22241536Y32894959D01*
X22302044Y33041038D01*
X22322682Y33197800D01*
X22302044Y33354562D01*
X22241536Y33500641D01*
X22145282Y33626082D01*
X22134454Y33634391D01*
X22071940Y33682359D01*
X22019841Y33722336D01*
X21873762Y33782844D01*
X21717000Y33803482D01*
X21560238Y33782844D01*
X21414159Y33722336D01*
X21362060Y33682359D01*
X21299547Y33634391D01*
X21288718Y33626082D01*
X21192464Y33500641D01*
X21131956Y33354562D01*
X21111318Y33197800D01*
X836330Y33197800D01*
X784536Y33322841D01*
X705791Y33425464D01*
X693305Y33441736D01*
X688282Y33448282D01*
X659979Y33470000D01*
X569392Y33539509D01*
X562841Y33544536D01*
X416762Y33605044D01*
X260000Y33625682D01*
X103238Y33605044D01*
X-42841Y33544536D01*
X-49392Y33539509D01*
X-139978Y33470000D01*
X-168282Y33448282D01*
X-173305Y33441736D01*
X-185791Y33425464D01*
X-264536Y33322841D01*
X-325044Y33176762D01*
X-326122Y33168574D01*
X-326308Y33167159D01*
X-345682Y33020000D01*
X-2250022Y33020000D01*
X-2228264Y33036695D01*
X-2221718Y33041718D01*
X-2125464Y33167159D01*
X-2064956Y33313238D01*
X-2044318Y33470000D01*
X-2064956Y33626762D01*
X-2125464Y33772841D01*
X-2221718Y33898282D01*
X-2334992Y33985200D01*
X3407518Y33985200D01*
X3428156Y33828438D01*
X3488664Y33682359D01*
X3584918Y33556918D01*
X3710359Y33460664D01*
X3856438Y33400156D01*
X4013200Y33379518D01*
X4021388Y33380596D01*
X4161774Y33399078D01*
X4169962Y33400156D01*
X4316041Y33460664D01*
X4441482Y33556918D01*
X4537736Y33682359D01*
X4598244Y33828438D01*
X4618882Y33985200D01*
X4598244Y34141962D01*
X4537736Y34288041D01*
X4464638Y34383305D01*
X4446505Y34406936D01*
X4441482Y34413482D01*
X4316041Y34509736D01*
X4169962Y34570244D01*
X4013200Y34590882D01*
X3856438Y34570244D01*
X3710359Y34509736D01*
X3584918Y34413482D01*
X3579895Y34406936D01*
X3561762Y34383305D01*
X3488664Y34288041D01*
X3428156Y34141962D01*
X3407518Y33985200D01*
X-2334992Y33985200D01*
X-2347159Y33994536D01*
X-2353255Y33997061D01*
X-2401720Y34047886D01*
X-2412801Y34105367D01*
X-2469057Y34065305D01*
X-2526717Y34059452D01*
X-2641812Y34074604D01*
X-2650000Y34075682D01*
X-2806762Y34055044D01*
X-2952841Y33994536D01*
X-3078282Y33898282D01*
X-3174536Y33772841D01*
X-3235044Y33626762D01*
X-3255682Y33470000D01*
X-5951949Y33470000D01*
X-5891660Y33539846D01*
X-5891660Y33539847D01*
X-5887636Y33544508D01*
X-5883439Y33551895D01*
X-5841523Y33625682D01*
X-5785877Y33723636D01*
X-5720849Y33919117D01*
X-5695029Y34123506D01*
X-5694617Y34152980D01*
X-5714720Y34358010D01*
X-5774265Y34555231D01*
X-5870982Y34737131D01*
X-5938569Y34820000D01*
X-2755682Y34820000D01*
X-2735044Y34663238D01*
X-2674536Y34517159D01*
X-2578282Y34391718D01*
X-2452841Y34295464D01*
X-2446745Y34292939D01*
X-2398280Y34242114D01*
X-2387199Y34184633D01*
X-2330943Y34224695D01*
X-2273283Y34230548D01*
X-2158188Y34215396D01*
X-2150000Y34214318D01*
X-2141812Y34215396D01*
X-2001426Y34233878D01*
X-1993238Y34234956D01*
X-1847159Y34295464D01*
X-1721718Y34391718D01*
X-1625464Y34517159D01*
X-1564956Y34663238D01*
X-1544318Y34820000D01*
X-1564956Y34976762D01*
X-1625464Y35122841D01*
X-1721718Y35248282D01*
X-1847159Y35344536D01*
X-1993238Y35405044D01*
X-2150000Y35425682D01*
X-2306762Y35405044D01*
X-2452841Y35344536D01*
X-2578282Y35248282D01*
X-2674536Y35122841D01*
X-2735044Y34976762D01*
X-2755682Y34820000D01*
X-5938569Y34820000D01*
X-5945247Y34828188D01*
X-5997294Y34892005D01*
X-5997297Y34892008D01*
X-6001189Y34896780D01*
X-6008027Y34902437D01*
X-6155175Y35024169D01*
X-6155179Y35024171D01*
X-6159925Y35028098D01*
X-6297109Y35102273D01*
X-6335726Y35123153D01*
X-6341145Y35126083D01*
X-6537946Y35187003D01*
X-6544071Y35187647D01*
X-6544072Y35187647D01*
X-6736702Y35207893D01*
X-6736704Y35207893D01*
X-6742831Y35208537D01*
X-6811322Y35202304D01*
X-6941858Y35190425D01*
X-6941861Y35190424D01*
X-6947997Y35189866D01*
X-7145628Y35131700D01*
X-7151093Y35128843D01*
X-7161977Y35123153D01*
X-7328198Y35036254D01*
X-7332999Y35032394D01*
X-7333002Y35032392D01*
X-7474527Y34918603D01*
X-7488753Y34907165D01*
X-7621176Y34749350D01*
X-7624144Y34743952D01*
X-7624147Y34743947D01*
X-7695673Y34613840D01*
X-7720424Y34568818D01*
X-7722287Y34562945D01*
X-7754276Y34462101D01*
X-7782716Y34372448D01*
X-7783402Y34366331D01*
X-7783403Y34366327D01*
X-7790863Y34299819D01*
X-7805680Y34167718D01*
X-19609533Y34167718D01*
X-19643729Y35823232D01*
X-7800700Y35823232D01*
X-7799493Y35817164D01*
X-7796270Y35800963D01*
X-7789067Y35764749D01*
X-7744752Y35698428D01*
X-7678431Y35654113D01*
X-7666262Y35651692D01*
X-7666261Y35651692D01*
X-7626016Y35643687D01*
X-7619948Y35642480D01*
X-5880452Y35642480D01*
X-5874384Y35643687D01*
X-5834139Y35651692D01*
X-5834138Y35651692D01*
X-5821969Y35654113D01*
X-5755648Y35698428D01*
X-5711333Y35764749D01*
X-5704129Y35800963D01*
X-5700907Y35817164D01*
X-5699700Y35823232D01*
X-5699700Y36690000D01*
X-3205682Y36690000D01*
X-3185044Y36533238D01*
X-3124536Y36387159D01*
X-3028282Y36261718D01*
X-2902841Y36165464D01*
X-2756762Y36104956D01*
X-2600000Y36084318D01*
X-2591812Y36085396D01*
X-2451426Y36103878D01*
X-2443238Y36104956D01*
X-2440290Y36106177D01*
X-1685609Y36106177D01*
X-1667020Y35964021D01*
X-1646537Y35917469D01*
X-1619912Y35856961D01*
X-1609280Y35832797D01*
X-1603503Y35825924D01*
X-1603502Y35825923D01*
X-1522810Y35729928D01*
X-1517030Y35723052D01*
X-1498857Y35710955D01*
X-1409828Y35651692D01*
X-1397687Y35643610D01*
X-1260843Y35600858D01*
X-1251871Y35600694D01*
X-1251868Y35600693D01*
X-1186537Y35599496D01*
X-1117501Y35598230D01*
X-1108467Y35600693D01*
X-987842Y35633579D01*
X-987840Y35633580D01*
X-979183Y35635940D01*
X-857009Y35710955D01*
X-850988Y35717607D01*
X-850982Y35717612D01*
X-772387Y35804443D01*
X-711844Y35841524D01*
X-640864Y35839987D01*
X-582521Y35800963D01*
X-522810Y35729928D01*
X-517030Y35723052D01*
X-498857Y35710955D01*
X-409828Y35651692D01*
X-397687Y35643610D01*
X-260843Y35600858D01*
X-251871Y35600694D01*
X-251868Y35600693D01*
X-186537Y35599496D01*
X-117501Y35598230D01*
X-108467Y35600693D01*
X12158Y35633579D01*
X12160Y35633580D01*
X20817Y35635940D01*
X142991Y35710955D01*
X149012Y35717607D01*
X149018Y35717612D01*
X216730Y35792420D01*
X277273Y35829501D01*
X348253Y35827964D01*
X407134Y35788296D01*
X435067Y35724311D01*
X454956Y35573238D01*
X515464Y35427159D01*
X611718Y35301718D01*
X737159Y35205464D01*
X883238Y35144956D01*
X913267Y35141003D01*
X978193Y35112282D01*
X1017286Y35053017D01*
X1021742Y35032533D01*
X1040456Y34890383D01*
X1100964Y34744304D01*
X1197218Y34618863D01*
X1322659Y34522609D01*
X1468738Y34462101D01*
X1625500Y34441463D01*
X1633688Y34442541D01*
X1774074Y34461023D01*
X1782262Y34462101D01*
X1928341Y34522609D01*
X2053782Y34618863D01*
X2150036Y34744304D01*
X2210544Y34890383D01*
X2231182Y35047145D01*
X2216645Y35157566D01*
X12608956Y35157566D01*
X12629594Y35000804D01*
X12690102Y34854725D01*
X12720421Y34815212D01*
X12779858Y34737753D01*
X12786356Y34729284D01*
X12792902Y34724261D01*
X12902480Y34640179D01*
X12944347Y34582841D01*
X12948569Y34511970D01*
X12913805Y34450067D01*
X12902480Y34440254D01*
X12828268Y34383309D01*
X12828264Y34383305D01*
X12821718Y34378282D01*
X12816695Y34371736D01*
X12806163Y34358010D01*
X12725464Y34252841D01*
X12664956Y34106762D01*
X12644318Y33950000D01*
X12664956Y33793238D01*
X12725464Y33647159D01*
X12730491Y33640608D01*
X12808067Y33539509D01*
X12821718Y33521718D01*
X12947159Y33425464D01*
X13093238Y33364956D01*
X13250000Y33344318D01*
X13258188Y33345396D01*
X13398574Y33363878D01*
X13406762Y33364956D01*
X13552841Y33425464D01*
X13678282Y33521718D01*
X13691934Y33539509D01*
X13769509Y33640608D01*
X13774536Y33647159D01*
X13835044Y33793238D01*
X13855682Y33950000D01*
X13835044Y34106762D01*
X13774536Y34252841D01*
X13693837Y34358010D01*
X13683305Y34371736D01*
X13678282Y34378282D01*
X13584730Y34450067D01*
X13562158Y34467387D01*
X13520291Y34524725D01*
X13516069Y34595596D01*
X13550833Y34657499D01*
X13562158Y34667312D01*
X13636370Y34724257D01*
X13636374Y34724261D01*
X13642920Y34729284D01*
X13649419Y34737753D01*
X13708855Y34815212D01*
X13739174Y34854725D01*
X13799682Y35000804D01*
X13820320Y35157566D01*
X13799682Y35314328D01*
X13739174Y35460407D01*
X13642920Y35585848D01*
X13619869Y35603536D01*
X13581122Y35633267D01*
X13517479Y35682102D01*
X13371400Y35742610D01*
X13345742Y35745988D01*
X13222826Y35762170D01*
X13214638Y35763248D01*
X13206450Y35762170D01*
X13083535Y35745988D01*
X13057876Y35742610D01*
X12911797Y35682102D01*
X12848154Y35633267D01*
X12809408Y35603536D01*
X12786356Y35585848D01*
X12690102Y35460407D01*
X12629594Y35314328D01*
X12608956Y35157566D01*
X2216645Y35157566D01*
X2210544Y35203907D01*
X2150036Y35349986D01*
X2065307Y35460407D01*
X2058805Y35468881D01*
X2053782Y35475427D01*
X1928341Y35571681D01*
X1782262Y35632189D01*
X1752233Y35636142D01*
X1687307Y35664863D01*
X1648214Y35724128D01*
X1643758Y35744612D01*
X1625044Y35886762D01*
X1564536Y36032841D01*
X1468282Y36158282D01*
X1342841Y36254536D01*
X1196762Y36315044D01*
X1040000Y36335682D01*
X883238Y36315044D01*
X737159Y36254536D01*
X611718Y36158282D01*
X606695Y36151736D01*
X545856Y36072449D01*
X488518Y36030582D01*
X417647Y36026360D01*
X355744Y36061124D01*
X322462Y36123837D01*
X321166Y36131291D01*
X306596Y36233032D01*
X306595Y36233035D01*
X305323Y36241918D01*
X298605Y36256695D01*
X277744Y36302575D01*
X245984Y36372428D01*
X226716Y36394789D01*
X186033Y36442005D01*
X13853866Y36442005D01*
X13874504Y36285243D01*
X13935012Y36139164D01*
X14031266Y36013723D01*
X14156707Y35917469D01*
X14302786Y35856961D01*
X14459548Y35836323D01*
X14467736Y35837401D01*
X14495203Y35841017D01*
X14616310Y35856961D01*
X14623937Y35860120D01*
X14623940Y35860121D01*
X14665244Y35877230D01*
X14735834Y35884819D01*
X14799321Y35853040D01*
X14835548Y35791981D01*
X14837795Y35754246D01*
X14838596Y35754246D01*
X14838596Y35745988D01*
X14837518Y35737800D01*
X14858156Y35581038D01*
X14918664Y35434959D01*
X15014918Y35309518D01*
X15021464Y35304495D01*
X15044904Y35286509D01*
X15086771Y35229171D01*
X15090993Y35158300D01*
X15056229Y35096397D01*
X15044904Y35086584D01*
X14987479Y35042520D01*
X14987475Y35042516D01*
X14980929Y35037493D01*
X14884675Y34912052D01*
X14824167Y34765973D01*
X14803529Y34609211D01*
X14824167Y34452449D01*
X14884675Y34306370D01*
X14980929Y34180929D01*
X15106370Y34084675D01*
X15252449Y34024167D01*
X15409211Y34003529D01*
X15417399Y34004607D01*
X15557785Y34023089D01*
X15565973Y34024167D01*
X15712052Y34084675D01*
X15837493Y34180929D01*
X15933747Y34306370D01*
X15994255Y34452449D01*
X16014893Y34609211D01*
X15994255Y34765973D01*
X15970468Y34823400D01*
X23981518Y34823400D01*
X24002156Y34666638D01*
X24005316Y34659009D01*
X24006724Y34655609D01*
X24062664Y34520559D01*
X24158918Y34395118D01*
X24284359Y34298864D01*
X24430438Y34238356D01*
X24587200Y34217718D01*
X24595388Y34218796D01*
X24735774Y34237278D01*
X24743962Y34238356D01*
X24890041Y34298864D01*
X25015482Y34395118D01*
X25111736Y34520559D01*
X25167676Y34655609D01*
X25169084Y34659009D01*
X25172244Y34666638D01*
X25192882Y34823400D01*
X25172244Y34980162D01*
X25111736Y35126241D01*
X25015482Y35251682D01*
X24890041Y35347936D01*
X24743962Y35408444D01*
X24587200Y35429082D01*
X24430438Y35408444D01*
X24284359Y35347936D01*
X24158918Y35251682D01*
X24062664Y35126241D01*
X24002156Y34980162D01*
X23981518Y34823400D01*
X15970468Y34823400D01*
X15933747Y34912052D01*
X15837493Y35037493D01*
X15807507Y35060502D01*
X15765640Y35117840D01*
X15761418Y35188711D01*
X15796182Y35250614D01*
X15807507Y35260427D01*
X15864932Y35304491D01*
X15864936Y35304495D01*
X15871482Y35309518D01*
X15967736Y35434959D01*
X16028244Y35581038D01*
X16048882Y35737800D01*
X16028244Y35894562D01*
X15967736Y36040641D01*
X15871482Y36166082D01*
X15746041Y36262336D01*
X15599962Y36322844D01*
X15443200Y36343482D01*
X15286438Y36322844D01*
X15278811Y36319685D01*
X15278808Y36319684D01*
X15237504Y36302575D01*
X15166914Y36294986D01*
X15103427Y36326765D01*
X15067200Y36387824D01*
X15064953Y36425559D01*
X15064152Y36425559D01*
X15064152Y36433817D01*
X15065230Y36442005D01*
X15044592Y36598767D01*
X14984084Y36744846D01*
X14887830Y36870287D01*
X14762389Y36966541D01*
X14616310Y37027049D01*
X14602737Y37028836D01*
X14467736Y37046609D01*
X14459548Y37047687D01*
X14451360Y37046609D01*
X14316360Y37028836D01*
X14302786Y37027049D01*
X14156707Y36966541D01*
X14031266Y36870287D01*
X13935012Y36744846D01*
X13874504Y36598767D01*
X13853866Y36442005D01*
X186033Y36442005D01*
X158260Y36474237D01*
X158257Y36474240D01*
X152400Y36481037D01*
X32095Y36559015D01*
X-105261Y36600093D01*
X-114237Y36600148D01*
X-114238Y36600148D01*
X-174445Y36600516D01*
X-248624Y36600969D01*
X-386471Y36561572D01*
X-507720Y36485070D01*
X-584877Y36397705D01*
X-585901Y36396546D01*
X-645987Y36358727D01*
X-716980Y36359397D01*
X-775796Y36397705D01*
X-841740Y36474237D01*
X-841743Y36474240D01*
X-847600Y36481037D01*
X-967905Y36559015D01*
X-1105261Y36600093D01*
X-1114237Y36600148D01*
X-1114238Y36600148D01*
X-1174445Y36600516D01*
X-1248624Y36600969D01*
X-1386471Y36561572D01*
X-1507720Y36485070D01*
X-1602623Y36377612D01*
X-1663553Y36247837D01*
X-1664934Y36238965D01*
X-1682859Y36123837D01*
X-1685609Y36106177D01*
X-2440290Y36106177D01*
X-2297159Y36165464D01*
X-2171718Y36261718D01*
X-2075464Y36387159D01*
X-2014956Y36533238D01*
X-1994318Y36690000D01*
X-2010899Y36815944D01*
X-1999960Y36886091D01*
X-1952832Y36939190D01*
X-1902424Y36957311D01*
X-1818738Y36968328D01*
X-1672659Y37028836D01*
X-1547218Y37125090D01*
X-1450964Y37250531D01*
X-1390456Y37396610D01*
X-1386718Y37425000D01*
X10444318Y37425000D01*
X10464956Y37268238D01*
X10525464Y37122159D01*
X10621718Y36996718D01*
X10747159Y36900464D01*
X10893238Y36839956D01*
X11050000Y36819318D01*
X11058188Y36820396D01*
X11198574Y36838878D01*
X11206762Y36839956D01*
X11352841Y36900464D01*
X11478282Y36996718D01*
X11574536Y37122159D01*
X11635044Y37268238D01*
X11655682Y37425000D01*
X11635044Y37581762D01*
X11574536Y37727841D01*
X11478282Y37853282D01*
X11352841Y37949536D01*
X11206762Y38010044D01*
X11050000Y38030682D01*
X10893238Y38010044D01*
X10747159Y37949536D01*
X10621718Y37853282D01*
X10525464Y37727841D01*
X10464956Y37581762D01*
X10444318Y37425000D01*
X-1386718Y37425000D01*
X-1369818Y37553372D01*
X-1390456Y37710134D01*
X-1450964Y37856213D01*
X-1547218Y37981654D01*
X-1672659Y38077908D01*
X-1818738Y38138416D01*
X-1975500Y38159054D01*
X-2132262Y38138416D01*
X-2278341Y38077908D01*
X-2403782Y37981654D01*
X-2500036Y37856213D01*
X-2560544Y37710134D01*
X-2581182Y37553372D01*
X-2564601Y37427428D01*
X-2575540Y37357281D01*
X-2622668Y37304182D01*
X-2673076Y37286061D01*
X-2756762Y37275044D01*
X-2902841Y37214536D01*
X-3028282Y37118282D01*
X-3124536Y36992841D01*
X-3185044Y36846762D01*
X-3205682Y36690000D01*
X-5699700Y36690000D01*
X-5699700Y37562728D01*
X-5703486Y37581762D01*
X-5708912Y37609041D01*
X-5708912Y37609042D01*
X-5711333Y37621211D01*
X-5755648Y37687532D01*
X-5821969Y37731847D01*
X-5834138Y37734268D01*
X-5834139Y37734268D01*
X-5874384Y37742273D01*
X-5880452Y37743480D01*
X-7619948Y37743480D01*
X-7626016Y37742273D01*
X-7666261Y37734268D01*
X-7666262Y37734268D01*
X-7678431Y37731847D01*
X-7744752Y37687532D01*
X-7789067Y37621211D01*
X-7791488Y37609042D01*
X-7791488Y37609041D01*
X-7796914Y37581762D01*
X-7800700Y37562728D01*
X-7800700Y35823232D01*
X-19643729Y35823232D01*
X-19701304Y38610563D01*
X-296519Y38610563D01*
X-275881Y38453801D01*
X-215373Y38307722D01*
X-119119Y38182281D01*
X6322Y38086027D01*
X152401Y38025519D01*
X309163Y38004881D01*
X317351Y38005959D01*
X457737Y38024441D01*
X465925Y38025519D01*
X612004Y38086027D01*
X696418Y38150800D01*
X9147918Y38150800D01*
X9168556Y37994038D01*
X9229064Y37847959D01*
X9325318Y37722518D01*
X9450759Y37626264D01*
X9596838Y37565756D01*
X9753600Y37545118D01*
X9761788Y37546196D01*
X9902174Y37564678D01*
X9910362Y37565756D01*
X10056441Y37626264D01*
X10181882Y37722518D01*
X10278136Y37847959D01*
X10338644Y37994038D01*
X10359282Y38150800D01*
X10338644Y38307562D01*
X10278136Y38453641D01*
X10181882Y38579082D01*
X10056441Y38675336D01*
X9910362Y38735844D01*
X9753600Y38756482D01*
X9596838Y38735844D01*
X9450759Y38675336D01*
X9325318Y38579082D01*
X9229064Y38453641D01*
X9168556Y38307562D01*
X9147918Y38150800D01*
X696418Y38150800D01*
X737445Y38182281D01*
X833699Y38307722D01*
X894207Y38453801D01*
X914845Y38610563D01*
X894207Y38767325D01*
X833699Y38913404D01*
X737445Y39038845D01*
X612004Y39135099D01*
X465925Y39195607D01*
X309163Y39216245D01*
X152401Y39195607D01*
X6322Y39135099D01*
X-119119Y39038845D01*
X-215373Y38913404D01*
X-275881Y38767325D01*
X-296519Y38610563D01*
X-19701304Y38610563D01*
X-19770252Y41948516D01*
X-19751661Y42017035D01*
X-19698977Y42064626D01*
X-19645798Y42077109D01*
X-10819081Y42183426D01*
X-9327518Y42201392D01*
X-9259161Y42182212D01*
G37*
%TD.AperFunction*%
%TD*%
M02*
