%TF.GenerationSoftware,KiCad,Pcbnew,8.0.5*%
%TF.CreationDate,2024-10-18T11:15:47+01:00*%
%TF.ProjectId,LEXI-R422-Rev 3,4c455849-2d52-4343-9232-2d5265762033,rev?*%
%TF.SameCoordinates,Original*%
%TF.FileFunction,Paste,Top*%
%TF.FilePolarity,Positive*%
%FSLAX46Y46*%
G04 Gerber Fmt 4.6, Leading zero omitted, Abs format (unit mm)*
G04 Created by KiCad (PCBNEW 8.0.5) date 2024-10-18 11:15:47*
%MOMM*%
%LPD*%
G01*
G04 APERTURE LIST*
G04 Aperture macros list*
%AMRoundRect*
0 Rectangle with rounded corners*
0 $1 Rounding radius*
0 $2 $3 $4 $5 $6 $7 $8 $9 X,Y pos of 4 corners*
0 Add a 4 corners polygon primitive as box body*
4,1,4,$2,$3,$4,$5,$6,$7,$8,$9,$2,$3,0*
0 Add four circle primitives for the rounded corners*
1,1,$1+$1,$2,$3*
1,1,$1+$1,$4,$5*
1,1,$1+$1,$6,$7*
1,1,$1+$1,$8,$9*
0 Add four rect primitives between the rounded corners*
20,1,$1+$1,$2,$3,$4,$5,0*
20,1,$1+$1,$4,$5,$6,$7,0*
20,1,$1+$1,$6,$7,$8,$9,0*
20,1,$1+$1,$8,$9,$2,$3,0*%
G04 Aperture macros list end*
%ADD10C,0.010000*%
%ADD11RoundRect,0.225000X0.250000X-0.225000X0.250000X0.225000X-0.250000X0.225000X-0.250000X-0.225000X0*%
%ADD12RoundRect,0.250001X-0.837499X-1.399999X0.837499X-1.399999X0.837499X1.399999X-0.837499X1.399999X0*%
%ADD13RoundRect,0.225000X-0.225000X-0.250000X0.225000X-0.250000X0.225000X0.250000X-0.225000X0.250000X0*%
%ADD14RoundRect,0.150000X-0.587500X-0.150000X0.587500X-0.150000X0.587500X0.150000X-0.587500X0.150000X0*%
%ADD15R,1.150000X0.650000*%
%ADD16R,1.300000X0.450000*%
%ADD17R,1.700000X1.400000*%
%ADD18R,0.800000X0.540000*%
%ADD19RoundRect,0.200000X-0.200000X-0.275000X0.200000X-0.275000X0.200000X0.275000X-0.200000X0.275000X0*%
%ADD20RoundRect,0.150000X0.587500X0.150000X-0.587500X0.150000X-0.587500X-0.150000X0.587500X-0.150000X0*%
%ADD21RoundRect,0.200000X0.200000X0.275000X-0.200000X0.275000X-0.200000X-0.275000X0.200000X-0.275000X0*%
%ADD22R,0.750000X0.650000*%
%ADD23RoundRect,0.062500X-0.187500X-0.062500X0.187500X-0.062500X0.187500X0.062500X-0.187500X0.062500X0*%
%ADD24RoundRect,0.225000X0.225000X0.250000X-0.225000X0.250000X-0.225000X-0.250000X0.225000X-0.250000X0*%
%ADD25RoundRect,0.200000X0.275000X-0.200000X0.275000X0.200000X-0.275000X0.200000X-0.275000X-0.200000X0*%
%ADD26RoundRect,0.225000X-0.250000X0.225000X-0.250000X-0.225000X0.250000X-0.225000X0.250000X0.225000X0*%
%ADD27C,0.500000*%
%ADD28RoundRect,0.243750X-0.243750X-0.456250X0.243750X-0.456250X0.243750X0.456250X-0.243750X0.456250X0*%
G04 APERTURE END LIST*
D10*
%TO.C,D1*%
X46900000Y1176111D02*
X46598454Y1176111D01*
X46598454Y1925000D01*
X46900000Y1925000D01*
X46900000Y1176111D01*
G36*
X46900000Y1176111D02*
G01*
X46598454Y1176111D01*
X46598454Y1925000D01*
X46900000Y1925000D01*
X46900000Y1176111D01*
G37*
X46900000Y-725920D02*
X46599445Y-725920D01*
X46599445Y25000D01*
X46900000Y25000D01*
X46900000Y-725920D01*
G36*
X46900000Y-725920D02*
G01*
X46599445Y-725920D01*
X46599445Y25000D01*
X46900000Y25000D01*
X46900000Y-725920D01*
G37*
X47550000Y-726250D02*
X47249858Y-726250D01*
X47249858Y25000D01*
X47550000Y25000D01*
X47550000Y-726250D01*
G36*
X47550000Y-726250D02*
G01*
X47249858Y-726250D01*
X47249858Y25000D01*
X47550000Y25000D01*
X47550000Y-726250D01*
G37*
X47550000Y1175076D02*
X47249980Y1175076D01*
X47249980Y1925000D01*
X47550000Y1925000D01*
X47550000Y1175076D01*
G36*
X47550000Y1175076D02*
G01*
X47249980Y1175076D01*
X47249980Y1925000D01*
X47550000Y1925000D01*
X47550000Y1175076D01*
G37*
X48200000Y1175043D02*
X47900037Y1175043D01*
X47900037Y1925000D01*
X48200000Y1925000D01*
X48200000Y1175043D01*
G36*
X48200000Y1175043D02*
G01*
X47900037Y1175043D01*
X47900037Y1925000D01*
X48200000Y1925000D01*
X48200000Y1175043D01*
G37*
X48200000Y-726090D02*
X47900413Y-726090D01*
X47900413Y25000D01*
X48200000Y25000D01*
X48200000Y-726090D01*
G36*
X48200000Y-726090D02*
G01*
X47900413Y-726090D01*
X47900413Y25000D01*
X48200000Y25000D01*
X48200000Y-726090D01*
G37*
%TD*%
D11*
%TO.C,C1*%
X48400000Y5625000D03*
X48400000Y7175000D03*
%TD*%
%TO.C,C2*%
X46800000Y5625000D03*
X46800000Y7175000D03*
%TD*%
%TO.C,C3*%
X45200000Y5625000D03*
X45200000Y7175000D03*
%TD*%
%TO.C,C4*%
X49850000Y2575000D03*
X49850000Y4125000D03*
%TD*%
D12*
%TO.C,C6*%
X37412500Y400000D03*
X43787500Y400000D03*
%TD*%
D11*
%TO.C,C7*%
X37500000Y5950000D03*
X37500000Y7500000D03*
%TD*%
D13*
%TO.C,C8*%
X31250000Y8174800D03*
X32800000Y8174800D03*
%TD*%
%TO.C,C9*%
X39725000Y5500000D03*
X41275000Y5500000D03*
%TD*%
%TO.C,C10*%
X31250000Y6600000D03*
X32800000Y6600000D03*
%TD*%
%TO.C,C11*%
X39725000Y7500000D03*
X41275000Y7500000D03*
%TD*%
D11*
%TO.C,C12*%
X35500000Y5950000D03*
X35500000Y7500000D03*
%TD*%
D14*
%TO.C,Q8*%
X62725000Y20550000D03*
X62725000Y18650000D03*
X64600000Y19600000D03*
%TD*%
D15*
%TO.C,J11*%
X55295000Y12745000D03*
X55295000Y15285000D03*
X55295000Y17825000D03*
X55295000Y11475000D03*
X55295000Y14015000D03*
X55295000Y16555000D03*
D16*
X53125000Y9230000D03*
X51125000Y9230000D03*
X53125000Y21770000D03*
X51125000Y21770000D03*
D17*
X41565000Y21605000D03*
X41565000Y9395000D03*
D18*
X42145000Y12960000D03*
X42145000Y18040000D03*
%TD*%
D19*
%TO.C,R6*%
X66150000Y1800000D03*
X67800000Y1800000D03*
%TD*%
D20*
%TO.C,Q5*%
X66337500Y7650000D03*
X66337500Y9550000D03*
X64462500Y8600000D03*
%TD*%
D21*
%TO.C,R7*%
X62125000Y15900000D03*
X60475000Y15900000D03*
%TD*%
D22*
%TO.C,U1*%
X26450000Y6550000D03*
X26450000Y5750000D03*
D23*
X25500000Y6900000D03*
X25500000Y6400000D03*
X25500000Y5900000D03*
X25500000Y5400000D03*
X27400000Y5400000D03*
X27400000Y5900000D03*
X27400000Y6400000D03*
X27400000Y6900000D03*
%TD*%
D24*
%TO.C,C16*%
X58875000Y21090000D03*
X57325000Y21090000D03*
%TD*%
D13*
%TO.C,C17*%
X66025000Y11880000D03*
X67575000Y11880000D03*
%TD*%
D19*
%TO.C,R8*%
X66575000Y5800000D03*
X68225000Y5800000D03*
%TD*%
D25*
%TO.C,R9*%
X57600000Y11950000D03*
X57600000Y13600000D03*
%TD*%
D14*
%TO.C,Q1*%
X58775000Y19330000D03*
X58775000Y17430000D03*
X60650000Y18380000D03*
%TD*%
D21*
%TO.C,R2*%
X68025000Y18400000D03*
X66375000Y18400000D03*
%TD*%
D14*
%TO.C,Q2*%
X62800000Y5500000D03*
X62800000Y3600000D03*
X64675000Y4550000D03*
%TD*%
%TO.C,Q6*%
X60462500Y9600000D03*
X60462500Y7700000D03*
X62337500Y8650000D03*
%TD*%
D26*
%TO.C,C15*%
X43000000Y7400000D03*
X43000000Y5850000D03*
%TD*%
D27*
%TO.C,TP1*%
X26550000Y15790000D03*
%TD*%
D28*
%TO.C,D2*%
X66662500Y20800000D03*
X68537500Y20800000D03*
%TD*%
D14*
%TO.C,Q4*%
X62262500Y14350000D03*
X62262500Y12450000D03*
X64137500Y13400000D03*
%TD*%
D25*
%TO.C,R5*%
X66910000Y14835000D03*
X66910000Y16485000D03*
%TD*%
D20*
%TO.C,Q3*%
X54137500Y250000D03*
X54137500Y2150000D03*
X52262500Y1200000D03*
%TD*%
M02*
