%TF.GenerationSoftware,KiCad,Pcbnew,8.0.5*%
%TF.CreationDate,2024-10-18T11:15:47+01:00*%
%TF.ProjectId,LEXI-R422-Rev 3,4c455849-2d52-4343-9232-2d5265762033,rev?*%
%TF.SameCoordinates,Original*%
%TF.FileFunction,Soldermask,Bot*%
%TF.FilePolarity,Negative*%
%FSLAX46Y46*%
G04 Gerber Fmt 4.6, Leading zero omitted, Abs format (unit mm)*
G04 Created by KiCad (PCBNEW 8.0.5) date 2024-10-18 11:15:47*
%MOMM*%
%LPD*%
G01*
G04 APERTURE LIST*
G04 Aperture macros list*
%AMRoundRect*
0 Rectangle with rounded corners*
0 $1 Rounding radius*
0 $2 $3 $4 $5 $6 $7 $8 $9 X,Y pos of 4 corners*
0 Add a 4 corners polygon primitive as box body*
4,1,4,$2,$3,$4,$5,$6,$7,$8,$9,$2,$3,0*
0 Add four circle primitives for the rounded corners*
1,1,$1+$1,$2,$3*
1,1,$1+$1,$4,$5*
1,1,$1+$1,$6,$7*
1,1,$1+$1,$8,$9*
0 Add four rect primitives between the rounded corners*
20,1,$1+$1,$2,$3,$4,$5,0*
20,1,$1+$1,$4,$5,$6,$7,0*
20,1,$1+$1,$6,$7,$8,$9,0*
20,1,$1+$1,$8,$9,$2,$3,0*%
%AMRotRect*
0 Rectangle, with rotation*
0 The origin of the aperture is its center*
0 $1 length*
0 $2 width*
0 $3 Rotation angle, in degrees counterclockwise*
0 Add horizontal line*
21,1,$1,$2,0,0,$3*%
G04 Aperture macros list end*
%ADD10R,2.400000X2.400000*%
%ADD11C,2.400000*%
%ADD12C,2.500000*%
%ADD13RoundRect,0.250001X1.399999X-0.837499X1.399999X0.837499X-1.399999X0.837499X-1.399999X-0.837499X0*%
%ADD14R,1.000000X1.000000*%
%ADD15R,1.050000X2.200000*%
%ADD16R,3.150000X1.000000*%
%ADD17R,0.600000X0.600000*%
%ADD18RotRect,5.100000X5.100000X170.000000*%
%ADD19C,2.000000*%
%ADD20RoundRect,0.200000X-0.200000X-0.275000X0.200000X-0.275000X0.200000X0.275000X-0.200000X0.275000X0*%
%ADD21R,0.950000X1.200000*%
%ADD22RoundRect,0.225000X-0.250000X0.225000X-0.250000X-0.225000X0.250000X-0.225000X0.250000X0.225000X0*%
%ADD23RotRect,5.100000X5.100000X165.000000*%
%ADD24RotRect,5.100000X5.100000X125.000000*%
G04 APERTURE END LIST*
D10*
%TO.C,BT1*%
X11750000Y19500000D03*
D11*
X11750000Y-1500000D03*
X15500000Y-1500000D03*
X8000000Y-1500000D03*
%TD*%
D12*
%TO.C,H1*%
X27330400Y-863600D03*
%TD*%
D13*
%TO.C,C5*%
X30060000Y3292500D03*
X30060000Y9667500D03*
%TD*%
D14*
%TO.C,J12*%
X27875000Y18150000D03*
D15*
X29350000Y19650000D03*
D14*
X27875000Y21150000D03*
D15*
X26400000Y19650000D03*
%TD*%
D16*
%TO.C,J3*%
X66350000Y19840000D03*
X66350000Y17300000D03*
X66350000Y14760000D03*
X66350000Y12220000D03*
X66350000Y9680000D03*
X66350000Y7140000D03*
X66350000Y4600000D03*
X66350000Y2060000D03*
X61300000Y19840000D03*
X61300000Y17300000D03*
X61300000Y14760000D03*
X61300000Y12220000D03*
X61300000Y9680000D03*
X61300000Y7140000D03*
X61300000Y4600000D03*
X61300000Y2060000D03*
%TD*%
D17*
%TO.C,M1*%
X37700000Y17050000D03*
X37700000Y16150000D03*
X37700000Y15250000D03*
X37700000Y14350000D03*
X37700000Y13450000D03*
X37700000Y12550000D03*
X37700000Y11650000D03*
X37700000Y10750000D03*
X37700000Y9850000D03*
X37700000Y8950000D03*
X37700000Y8050000D03*
X37700000Y7150000D03*
X37700000Y6250000D03*
X38600000Y17950000D03*
X38600000Y5350000D03*
X39500000Y17950000D03*
X39500000Y16150000D03*
X39500000Y14350000D03*
X39500000Y13450000D03*
X39500000Y12550000D03*
X39500000Y11650000D03*
X39500000Y10750000D03*
X39500000Y9850000D03*
X39500000Y8950000D03*
X39500000Y7150000D03*
X39500000Y5350000D03*
X40400000Y17950000D03*
X40400000Y5350000D03*
X41300000Y17950000D03*
X41300000Y16150000D03*
X41300000Y14350000D03*
X41300000Y13450000D03*
X41300000Y12550000D03*
X41300000Y11650000D03*
X41300000Y10750000D03*
X41300000Y9850000D03*
X41300000Y8950000D03*
X41300000Y7150000D03*
X41300000Y5350000D03*
X42200000Y17950000D03*
X42200000Y16150000D03*
X42200000Y14350000D03*
X42200000Y13450000D03*
X42200000Y12550000D03*
X42200000Y11650000D03*
X42200000Y10750000D03*
X42200000Y9850000D03*
X42200000Y8950000D03*
X42200000Y7150000D03*
X42200000Y5350000D03*
X43100000Y17950000D03*
X43100000Y16150000D03*
X43100000Y14350000D03*
X43100000Y13450000D03*
X43100000Y12550000D03*
X43100000Y11650000D03*
X43100000Y10750000D03*
X43100000Y9850000D03*
X43100000Y8950000D03*
X43100000Y7150000D03*
X43100000Y5350000D03*
X44000000Y17950000D03*
X44000000Y16150000D03*
X44000000Y14350000D03*
X44000000Y13450000D03*
X44000000Y12550000D03*
X44000000Y11650000D03*
X44000000Y10750000D03*
X44000000Y9850000D03*
X44000000Y8950000D03*
X44000000Y7150000D03*
X44000000Y5350000D03*
X44900000Y17950000D03*
X44900000Y16150000D03*
X44900000Y14350000D03*
X44900000Y13450000D03*
X44900000Y12550000D03*
X44900000Y11650000D03*
X44900000Y10750000D03*
X44900000Y9850000D03*
X44900000Y8950000D03*
X44900000Y7150000D03*
X44900000Y5350000D03*
X45800000Y17950000D03*
X45800000Y16150000D03*
X45800000Y14350000D03*
X45800000Y13450000D03*
X45800000Y12550000D03*
X45800000Y11650000D03*
X45800000Y10750000D03*
X45800000Y9850000D03*
X45800000Y8950000D03*
X45800000Y7150000D03*
X45800000Y5350000D03*
X46700000Y17950000D03*
X46700000Y16150000D03*
X46700000Y14350000D03*
X46700000Y13450000D03*
X46700000Y12550000D03*
X46700000Y11650000D03*
X46700000Y10750000D03*
X46700000Y9850000D03*
X46700000Y8950000D03*
X46700000Y7150000D03*
X46700000Y5350000D03*
X47600000Y17950000D03*
X47600000Y5350000D03*
X48500000Y17950000D03*
X48500000Y16150000D03*
X48500000Y14350000D03*
X48500000Y13450000D03*
X48500000Y12550000D03*
X48500000Y11650000D03*
X48500000Y10750000D03*
X48500000Y9850000D03*
X48500000Y8950000D03*
X48500000Y7150000D03*
X48500000Y5350000D03*
X49400000Y17950000D03*
X49400000Y5350000D03*
X50300000Y17050000D03*
X50300000Y16150000D03*
X50300000Y15250000D03*
X50300000Y14350000D03*
X50300000Y13450000D03*
X50300000Y12550000D03*
X50300000Y11650000D03*
X50300000Y10750000D03*
X50300000Y9850000D03*
X50300000Y8950000D03*
X50300000Y8050000D03*
X50300000Y7150000D03*
X50300000Y6250000D03*
%TD*%
D18*
%TO.C,J5*%
X17897600Y19431000D03*
%TD*%
D19*
%TO.C,FID2*%
X66776600Y-1092200D03*
%TD*%
D20*
%TO.C,R4*%
X31400000Y16150000D03*
X33050000Y16150000D03*
%TD*%
%TO.C,R1*%
X42150000Y21200000D03*
X43800000Y21200000D03*
%TD*%
D21*
%TO.C,FB1*%
X34400000Y7150000D03*
X34400000Y4850000D03*
%TD*%
D16*
%TO.C,J2*%
X17700000Y1970000D03*
X17700000Y4510000D03*
X17700000Y7050000D03*
X17700000Y9590000D03*
X17700000Y12130000D03*
X22750000Y1970000D03*
X22750000Y4510000D03*
X22750000Y7050000D03*
X22750000Y9590000D03*
X22750000Y12130000D03*
%TD*%
D22*
%TO.C,C13*%
X29875000Y16150000D03*
X29875000Y14600000D03*
%TD*%
D23*
%TO.C,J6*%
X71805800Y19227800D03*
%TD*%
D24*
%TO.C,J4*%
X7467600Y7950200D03*
%TD*%
D19*
%TO.C,FID3*%
X6197600Y13309600D03*
%TD*%
D22*
%TO.C,C14*%
X34500000Y16150000D03*
X34500000Y14600000D03*
%TD*%
M02*
