%TF.GenerationSoftware,KiCad,Pcbnew,8.0.5*%
%TF.CreationDate,2024-10-16T14:27:48+03:00*%
%TF.ProjectId,LEXI-R422-Rev 3,4c455849-2d52-4343-9232-2d5265762033,rev?*%
%TF.SameCoordinates,Original*%
%TF.FileFunction,Drillmap*%
%TF.FilePolarity,Positive*%
%FSLAX45Y45*%
G04 Gerber Fmt 4.5, Leading zero omitted, Abs format (unit mm)*
G04 Created by KiCad (PCBNEW 8.0.5) date 2024-10-16 14:27:48*
%MOMM*%
%LPD*%
G01*
G04 APERTURE LIST*
%ADD10C,0.050000*%
%ADD11C,0.200000*%
%ADD12C,0.100000*%
%ADD13C,0.120000*%
G04 APERTURE END LIST*
D10*
X7500000Y-300000D02*
X300000Y-300000D01*
X300000Y2250000D02*
X300000Y-300000D01*
X7500000Y-300000D02*
X7500000Y2250000D01*
X7500000Y2250000D02*
X300000Y2250000D01*
D11*
D12*
X2674000Y1758000D02*
X2694000Y1738000D01*
X2694000Y1758000D02*
X2674000Y1738000D01*
X2703000Y1706000D02*
X2723000Y1686000D01*
X2723000Y1706000D02*
X2703000Y1686000D01*
X2725000Y1654000D02*
X2745000Y1634000D01*
X2745000Y1654000D02*
X2725000Y1634000D01*
X2764000Y1607000D02*
X2784000Y1587000D01*
X2784000Y1607000D02*
X2764000Y1587000D01*
X2812000Y1570000D02*
X2832000Y1550000D01*
X2832000Y1570000D02*
X2812000Y1550000D01*
X2864000Y1545000D02*
X2884000Y1525000D01*
X2884000Y1545000D02*
X2864000Y1525000D01*
X2882000Y1757000D02*
X2902000Y1737000D01*
X2902000Y1757000D02*
X2882000Y1737000D01*
X2924000Y1722000D02*
X2944000Y1702000D01*
X2944000Y1722000D02*
X2924000Y1702000D01*
X2989000Y1722000D02*
X3009000Y1702000D01*
X3009000Y1722000D02*
X2989000Y1702000D01*
X3049000Y1725000D02*
X3069000Y1705000D01*
X3069000Y1725000D02*
X3049000Y1705000D01*
X3110000Y1730000D02*
X3130000Y1710000D01*
X3130000Y1730000D02*
X3110000Y1710000D01*
X3110000Y1510000D02*
X3130000Y1490000D01*
X3130000Y1510000D02*
X3110000Y1490000D01*
X3170000Y1730000D02*
X3190000Y1710000D01*
X3190000Y1730000D02*
X3170000Y1710000D01*
X3170000Y1510000D02*
X3190000Y1490000D01*
X3190000Y1510000D02*
X3170000Y1490000D01*
X3230000Y1730000D02*
X3250000Y1710000D01*
X3250000Y1730000D02*
X3230000Y1710000D01*
X3230000Y1510000D02*
X3250000Y1490000D01*
X3250000Y1510000D02*
X3230000Y1490000D01*
X3290000Y1730000D02*
X3310000Y1710000D01*
X3310000Y1730000D02*
X3290000Y1710000D01*
X3290000Y1510000D02*
X3310000Y1490000D01*
X3310000Y1510000D02*
X3290000Y1490000D01*
X3350000Y1730000D02*
X3370000Y1710000D01*
X3370000Y1730000D02*
X3350000Y1710000D01*
X3350000Y1510000D02*
X3370000Y1490000D01*
X3370000Y1510000D02*
X3350000Y1490000D01*
X3410000Y1730000D02*
X3430000Y1710000D01*
X3430000Y1730000D02*
X3410000Y1710000D01*
X3470000Y1730000D02*
X3490000Y1710000D01*
X3490000Y1730000D02*
X3470000Y1710000D01*
X3530000Y1710000D02*
X3550000Y1690000D01*
X3550000Y1710000D02*
X3530000Y1690000D01*
X3530000Y1530000D02*
X3550000Y1510000D01*
X3550000Y1530000D02*
X3530000Y1510000D01*
X3590000Y1710000D02*
X3610000Y1690000D01*
X3610000Y1710000D02*
X3590000Y1690000D01*
X3590000Y1530000D02*
X3610000Y1510000D01*
X3610000Y1530000D02*
X3590000Y1510000D01*
X3650000Y1710000D02*
X3670000Y1690000D01*
X3670000Y1710000D02*
X3650000Y1690000D01*
X3650000Y1530000D02*
X3670000Y1510000D01*
X3670000Y1530000D02*
X3650000Y1510000D01*
X5670000Y1630000D02*
X5690000Y1610000D01*
X5690000Y1630000D02*
X5670000Y1610000D01*
X5690000Y1850000D02*
X5710000Y1830000D01*
X5710000Y1850000D02*
X5690000Y1830000D01*
X6770000Y1070000D02*
X6790000Y1050000D01*
X6790000Y1070000D02*
X6770000Y1050000D01*
X2657500Y665000D02*
G75*
G02*
X2632500Y665000I-12500J0D01*
G01*
X2632500Y665000D02*
G75*
G02*
X2657500Y665000I12500J0D01*
G01*
X2657500Y565000D02*
G75*
G02*
X2632500Y565000I-12500J0D01*
G01*
X2632500Y565000D02*
G75*
G02*
X2657500Y565000I12500J0D01*
G01*
X495300Y2074634D02*
X495300Y2044634D01*
X480300Y2059634D02*
X510300Y2059634D01*
X495300Y1947634D02*
X495300Y1917634D01*
X480300Y1932634D02*
X510300Y1932634D01*
X495300Y1820634D02*
X495300Y1790634D01*
X480300Y1805634D02*
X510300Y1805634D01*
X495300Y1693634D02*
X495300Y1663634D01*
X480300Y1678634D02*
X510300Y1678634D01*
X495300Y1566634D02*
X495300Y1536634D01*
X480300Y1551634D02*
X510300Y1551634D01*
X495300Y1185634D02*
X495300Y1155634D01*
X480300Y1170634D02*
X510300Y1170634D01*
X495300Y423634D02*
X495300Y393634D01*
X480300Y408634D02*
X510300Y408634D01*
X495300Y169634D02*
X495300Y139634D01*
X480300Y154634D02*
X510300Y154634D01*
X495300Y42634D02*
X495300Y12634D01*
X480300Y27634D02*
X510300Y27634D01*
X495300Y-84366D02*
X495300Y-114366D01*
X480300Y-99366D02*
X510300Y-99366D01*
X622300Y2074634D02*
X622300Y2044634D01*
X607300Y2059634D02*
X637300Y2059634D01*
X622300Y1947634D02*
X622300Y1917634D01*
X607300Y1932634D02*
X637300Y1932634D01*
X622300Y1820634D02*
X622300Y1790634D01*
X607300Y1805634D02*
X637300Y1805634D01*
X622300Y1693634D02*
X622300Y1663634D01*
X607300Y1678634D02*
X637300Y1678634D01*
X622300Y1566634D02*
X622300Y1536634D01*
X607300Y1551634D02*
X637300Y1551634D01*
X622300Y1185634D02*
X622300Y1155634D01*
X607300Y1170634D02*
X637300Y1170634D01*
X622300Y42634D02*
X622300Y12634D01*
X607300Y27634D02*
X637300Y27634D01*
X749300Y2074634D02*
X749300Y2044634D01*
X734300Y2059634D02*
X764300Y2059634D01*
X749300Y1947634D02*
X749300Y1917634D01*
X734300Y1932634D02*
X764300Y1932634D01*
X749300Y1820634D02*
X749300Y1790634D01*
X734300Y1805634D02*
X764300Y1805634D01*
X749300Y1693634D02*
X749300Y1663634D01*
X734300Y1678634D02*
X764300Y1678634D01*
X749300Y1566634D02*
X749300Y1536634D01*
X734300Y1551634D02*
X764300Y1551634D01*
X749300Y1439634D02*
X749300Y1409634D01*
X734300Y1424634D02*
X764300Y1424634D01*
X749300Y169634D02*
X749300Y139634D01*
X734300Y154634D02*
X764300Y154634D01*
X876300Y2074634D02*
X876300Y2044634D01*
X861300Y2059634D02*
X891300Y2059634D01*
X876300Y1947634D02*
X876300Y1917634D01*
X861300Y1932634D02*
X891300Y1932634D01*
X876300Y1820634D02*
X876300Y1790634D01*
X861300Y1805634D02*
X891300Y1805634D01*
X876300Y1693634D02*
X876300Y1663634D01*
X861300Y1678634D02*
X891300Y1678634D01*
X876300Y1566634D02*
X876300Y1536634D01*
X861300Y1551634D02*
X891300Y1551634D01*
X876300Y1439634D02*
X876300Y1409634D01*
X861300Y1424634D02*
X891300Y1424634D01*
X876300Y1312634D02*
X876300Y1282634D01*
X861300Y1297634D02*
X891300Y1297634D01*
X876300Y423634D02*
X876300Y393634D01*
X861300Y408634D02*
X891300Y408634D01*
X876300Y296634D02*
X876300Y266634D01*
X861300Y281634D02*
X891300Y281634D01*
X876300Y169634D02*
X876300Y139634D01*
X861300Y154634D02*
X891300Y154634D01*
X1003300Y1693634D02*
X1003300Y1663634D01*
X988300Y1678634D02*
X1018300Y1678634D01*
X1003300Y1566634D02*
X1003300Y1536634D01*
X988300Y1551634D02*
X1018300Y1551634D01*
X1003300Y1439634D02*
X1003300Y1409634D01*
X988300Y1424634D02*
X1018300Y1424634D01*
X1003300Y1312634D02*
X1003300Y1282634D01*
X988300Y1297634D02*
X1018300Y1297634D01*
X1003300Y1185634D02*
X1003300Y1155634D01*
X988300Y1170634D02*
X1018300Y1170634D01*
X1003300Y423634D02*
X1003300Y393634D01*
X988300Y408634D02*
X1018300Y408634D01*
X1003300Y296634D02*
X1003300Y266634D01*
X988300Y281634D02*
X1018300Y281634D01*
X1003300Y169634D02*
X1003300Y139634D01*
X988300Y154634D02*
X1018300Y154634D01*
X1003300Y42634D02*
X1003300Y12634D01*
X988300Y27634D02*
X1018300Y27634D01*
X1130300Y1693634D02*
X1130300Y1663634D01*
X1115300Y1678634D02*
X1145300Y1678634D01*
X1130300Y1566634D02*
X1130300Y1536634D01*
X1115300Y1551634D02*
X1145300Y1551634D01*
X1130300Y1439634D02*
X1130300Y1409634D01*
X1115300Y1424634D02*
X1145300Y1424634D01*
X1130300Y1312634D02*
X1130300Y1282634D01*
X1115300Y1297634D02*
X1145300Y1297634D01*
X1130300Y1185634D02*
X1130300Y1155634D01*
X1115300Y1170634D02*
X1145300Y1170634D01*
X1130300Y1058634D02*
X1130300Y1028634D01*
X1115300Y1043634D02*
X1145300Y1043634D01*
X1130300Y931634D02*
X1130300Y901634D01*
X1115300Y916634D02*
X1145300Y916634D01*
X1130300Y550634D02*
X1130300Y520634D01*
X1115300Y535634D02*
X1145300Y535634D01*
X1130300Y423634D02*
X1130300Y393634D01*
X1115300Y408634D02*
X1145300Y408634D01*
X1130300Y296634D02*
X1130300Y266634D01*
X1115300Y281634D02*
X1145300Y281634D01*
X1130300Y169634D02*
X1130300Y139634D01*
X1115300Y154634D02*
X1145300Y154634D01*
X1257300Y1693634D02*
X1257300Y1663634D01*
X1242300Y1678634D02*
X1272300Y1678634D01*
X1257300Y1566634D02*
X1257300Y1536634D01*
X1242300Y1551634D02*
X1272300Y1551634D01*
X1257300Y1439634D02*
X1257300Y1409634D01*
X1242300Y1424634D02*
X1272300Y1424634D01*
X1257300Y1312634D02*
X1257300Y1282634D01*
X1242300Y1297634D02*
X1272300Y1297634D01*
X1257300Y1185634D02*
X1257300Y1155634D01*
X1242300Y1170634D02*
X1272300Y1170634D01*
X1257300Y1058634D02*
X1257300Y1028634D01*
X1242300Y1043634D02*
X1272300Y1043634D01*
X1257300Y931634D02*
X1257300Y901634D01*
X1242300Y916634D02*
X1272300Y916634D01*
X1257300Y804634D02*
X1257300Y774634D01*
X1242300Y789634D02*
X1272300Y789634D01*
X1257300Y677634D02*
X1257300Y647634D01*
X1242300Y662634D02*
X1272300Y662634D01*
X1257300Y550634D02*
X1257300Y520634D01*
X1242300Y535634D02*
X1272300Y535634D01*
X1257300Y423634D02*
X1257300Y393634D01*
X1242300Y408634D02*
X1272300Y408634D01*
X1257300Y296634D02*
X1257300Y266634D01*
X1242300Y281634D02*
X1272300Y281634D01*
X1257300Y169634D02*
X1257300Y139634D01*
X1242300Y154634D02*
X1272300Y154634D01*
X1384300Y2074634D02*
X1384300Y2044634D01*
X1369300Y2059634D02*
X1399300Y2059634D01*
X1384300Y1947634D02*
X1384300Y1917634D01*
X1369300Y1932634D02*
X1399300Y1932634D01*
X1384300Y1820634D02*
X1384300Y1790634D01*
X1369300Y1805634D02*
X1399300Y1805634D01*
X1384300Y1693634D02*
X1384300Y1663634D01*
X1369300Y1678634D02*
X1399300Y1678634D01*
X1384300Y1566634D02*
X1384300Y1536634D01*
X1369300Y1551634D02*
X1399300Y1551634D01*
X1384300Y1439634D02*
X1384300Y1409634D01*
X1369300Y1424634D02*
X1399300Y1424634D01*
X1384300Y1312634D02*
X1384300Y1282634D01*
X1369300Y1297634D02*
X1399300Y1297634D01*
X1384300Y1185634D02*
X1384300Y1155634D01*
X1369300Y1170634D02*
X1399300Y1170634D01*
X1384300Y1058634D02*
X1384300Y1028634D01*
X1369300Y1043634D02*
X1399300Y1043634D01*
X1384300Y931634D02*
X1384300Y901634D01*
X1369300Y916634D02*
X1399300Y916634D01*
X1384300Y804634D02*
X1384300Y774634D01*
X1369300Y789634D02*
X1399300Y789634D01*
X1384300Y677634D02*
X1384300Y647634D01*
X1369300Y662634D02*
X1399300Y662634D01*
X1384300Y550634D02*
X1384300Y520634D01*
X1369300Y535634D02*
X1399300Y535634D01*
X1384300Y423634D02*
X1384300Y393634D01*
X1369300Y408634D02*
X1399300Y408634D01*
X1384300Y296634D02*
X1384300Y266634D01*
X1369300Y281634D02*
X1399300Y281634D01*
X1384300Y169634D02*
X1384300Y139634D01*
X1369300Y154634D02*
X1399300Y154634D01*
X1384300Y42634D02*
X1384300Y12634D01*
X1369300Y27634D02*
X1399300Y27634D01*
X1511300Y1566634D02*
X1511300Y1536634D01*
X1496300Y1551634D02*
X1526300Y1551634D01*
X1511300Y1439634D02*
X1511300Y1409634D01*
X1496300Y1424634D02*
X1526300Y1424634D01*
X1511300Y1312634D02*
X1511300Y1282634D01*
X1496300Y1297634D02*
X1526300Y1297634D01*
X1511300Y1185634D02*
X1511300Y1155634D01*
X1496300Y1170634D02*
X1526300Y1170634D01*
X1511300Y1058634D02*
X1511300Y1028634D01*
X1496300Y1043634D02*
X1526300Y1043634D01*
X1511300Y931634D02*
X1511300Y901634D01*
X1496300Y916634D02*
X1526300Y916634D01*
X1511300Y804634D02*
X1511300Y774634D01*
X1496300Y789634D02*
X1526300Y789634D01*
X1511300Y677634D02*
X1511300Y647634D01*
X1496300Y662634D02*
X1526300Y662634D01*
X1511300Y550634D02*
X1511300Y520634D01*
X1496300Y535634D02*
X1526300Y535634D01*
X1511300Y423634D02*
X1511300Y393634D01*
X1496300Y408634D02*
X1526300Y408634D01*
X1511300Y296634D02*
X1511300Y266634D01*
X1496300Y281634D02*
X1526300Y281634D01*
X1511300Y169634D02*
X1511300Y139634D01*
X1496300Y154634D02*
X1526300Y154634D01*
X1638300Y1566634D02*
X1638300Y1536634D01*
X1623300Y1551634D02*
X1653300Y1551634D01*
X1638300Y1439634D02*
X1638300Y1409634D01*
X1623300Y1424634D02*
X1653300Y1424634D01*
X1765300Y1566634D02*
X1765300Y1536634D01*
X1750300Y1551634D02*
X1780300Y1551634D01*
X1765300Y1439634D02*
X1765300Y1409634D01*
X1750300Y1424634D02*
X1780300Y1424634D01*
X1765300Y42634D02*
X1765300Y12634D01*
X1750300Y27634D02*
X1780300Y27634D01*
X1765300Y-84366D02*
X1765300Y-114366D01*
X1750300Y-99366D02*
X1780300Y-99366D01*
X1892300Y1566634D02*
X1892300Y1536634D01*
X1877300Y1551634D02*
X1907300Y1551634D01*
X1892300Y1439634D02*
X1892300Y1409634D01*
X1877300Y1424634D02*
X1907300Y1424634D01*
X1892300Y42634D02*
X1892300Y12634D01*
X1877300Y27634D02*
X1907300Y27634D01*
X1892300Y-84366D02*
X1892300Y-114366D01*
X1877300Y-99366D02*
X1907300Y-99366D01*
X2019300Y1566634D02*
X2019300Y1536634D01*
X2004300Y1551634D02*
X2034300Y1551634D01*
X2019300Y1439634D02*
X2019300Y1409634D01*
X2004300Y1424634D02*
X2034300Y1424634D01*
X2019300Y1312634D02*
X2019300Y1282634D01*
X2004300Y1297634D02*
X2034300Y1297634D01*
X2019300Y1185634D02*
X2019300Y1155634D01*
X2004300Y1170634D02*
X2034300Y1170634D01*
X2019300Y1058634D02*
X2019300Y1028634D01*
X2004300Y1043634D02*
X2034300Y1043634D01*
X2019300Y931634D02*
X2019300Y901634D01*
X2004300Y916634D02*
X2034300Y916634D01*
X2019300Y804634D02*
X2019300Y774634D01*
X2004300Y789634D02*
X2034300Y789634D01*
X2019300Y677634D02*
X2019300Y647634D01*
X2004300Y662634D02*
X2034300Y662634D01*
X2019300Y550634D02*
X2019300Y520634D01*
X2004300Y535634D02*
X2034300Y535634D01*
X2019300Y423634D02*
X2019300Y393634D01*
X2004300Y408634D02*
X2034300Y408634D01*
X2019300Y296634D02*
X2019300Y266634D01*
X2004300Y281634D02*
X2034300Y281634D01*
X2019300Y169634D02*
X2019300Y139634D01*
X2004300Y154634D02*
X2034300Y154634D01*
X2019300Y42634D02*
X2019300Y12634D01*
X2004300Y27634D02*
X2034300Y27634D01*
X2019300Y-84366D02*
X2019300Y-114366D01*
X2004300Y-99366D02*
X2034300Y-99366D01*
X2146300Y1947634D02*
X2146300Y1917634D01*
X2131300Y1932634D02*
X2161300Y1932634D01*
X2146300Y1820634D02*
X2146300Y1790634D01*
X2131300Y1805634D02*
X2161300Y1805634D01*
X2146300Y1693634D02*
X2146300Y1663634D01*
X2131300Y1678634D02*
X2161300Y1678634D01*
X2146300Y1566634D02*
X2146300Y1536634D01*
X2131300Y1551634D02*
X2161300Y1551634D01*
X2146300Y1439634D02*
X2146300Y1409634D01*
X2131300Y1424634D02*
X2161300Y1424634D01*
X2146300Y42634D02*
X2146300Y12634D01*
X2131300Y27634D02*
X2161300Y27634D01*
X2146300Y-84366D02*
X2146300Y-114366D01*
X2131300Y-99366D02*
X2161300Y-99366D01*
X2273300Y1947634D02*
X2273300Y1917634D01*
X2258300Y1932634D02*
X2288300Y1932634D01*
X2273300Y1820634D02*
X2273300Y1790634D01*
X2258300Y1805634D02*
X2288300Y1805634D01*
X2273300Y1693634D02*
X2273300Y1663634D01*
X2258300Y1678634D02*
X2288300Y1678634D01*
X2273300Y1566634D02*
X2273300Y1536634D01*
X2258300Y1551634D02*
X2288300Y1551634D01*
X2273300Y1439634D02*
X2273300Y1409634D01*
X2258300Y1424634D02*
X2288300Y1424634D01*
X2273300Y42634D02*
X2273300Y12634D01*
X2258300Y27634D02*
X2288300Y27634D01*
X2273300Y-84366D02*
X2273300Y-114366D01*
X2258300Y-99366D02*
X2288300Y-99366D01*
X2400300Y1947634D02*
X2400300Y1917634D01*
X2385300Y1932634D02*
X2415300Y1932634D01*
X2400300Y1820634D02*
X2400300Y1790634D01*
X2385300Y1805634D02*
X2415300Y1805634D01*
X2400300Y1693634D02*
X2400300Y1663634D01*
X2385300Y1678634D02*
X2415300Y1678634D01*
X2400300Y1566634D02*
X2400300Y1536634D01*
X2385300Y1551634D02*
X2415300Y1551634D01*
X2400300Y1439634D02*
X2400300Y1409634D01*
X2385300Y1424634D02*
X2415300Y1424634D01*
X2400300Y42634D02*
X2400300Y12634D01*
X2385300Y27634D02*
X2415300Y27634D01*
X2400300Y-84366D02*
X2400300Y-114366D01*
X2385300Y-99366D02*
X2415300Y-99366D01*
X2527300Y1693634D02*
X2527300Y1663634D01*
X2512300Y1678634D02*
X2542300Y1678634D01*
X2527300Y1566634D02*
X2527300Y1536634D01*
X2512300Y1551634D02*
X2542300Y1551634D01*
X2527300Y1439634D02*
X2527300Y1409634D01*
X2512300Y1424634D02*
X2542300Y1424634D01*
X2527300Y1312634D02*
X2527300Y1282634D01*
X2512300Y1297634D02*
X2542300Y1297634D01*
X2527300Y1185634D02*
X2527300Y1155634D01*
X2512300Y1170634D02*
X2542300Y1170634D01*
X2527300Y1058634D02*
X2527300Y1028634D01*
X2512300Y1043634D02*
X2542300Y1043634D01*
X2527300Y169634D02*
X2527300Y139634D01*
X2512300Y154634D02*
X2542300Y154634D01*
X2527300Y42634D02*
X2527300Y12634D01*
X2512300Y27634D02*
X2542300Y27634D01*
X2654300Y1439634D02*
X2654300Y1409634D01*
X2639300Y1424634D02*
X2669300Y1424634D01*
X2654300Y1312634D02*
X2654300Y1282634D01*
X2639300Y1297634D02*
X2669300Y1297634D01*
X2654300Y1185634D02*
X2654300Y1155634D01*
X2639300Y1170634D02*
X2669300Y1170634D01*
X2654300Y1058634D02*
X2654300Y1028634D01*
X2639300Y1043634D02*
X2669300Y1043634D01*
X2781300Y1312634D02*
X2781300Y1282634D01*
X2766300Y1297634D02*
X2796300Y1297634D01*
X2781300Y1185634D02*
X2781300Y1155634D01*
X2766300Y1170634D02*
X2796300Y1170634D01*
X2908300Y1312634D02*
X2908300Y1282634D01*
X2893300Y1297634D02*
X2923300Y1297634D01*
X2908300Y1185634D02*
X2908300Y1155634D01*
X2893300Y1170634D02*
X2923300Y1170634D01*
X3035300Y1312634D02*
X3035300Y1282634D01*
X3020300Y1297634D02*
X3050300Y1297634D01*
X3035300Y1185634D02*
X3035300Y1155634D01*
X3020300Y1170634D02*
X3050300Y1170634D01*
X3035300Y-84366D02*
X3035300Y-114366D01*
X3020300Y-99366D02*
X3050300Y-99366D01*
X3162300Y2074634D02*
X3162300Y2044634D01*
X3147300Y2059634D02*
X3177300Y2059634D01*
X3162300Y1947634D02*
X3162300Y1917634D01*
X3147300Y1932634D02*
X3177300Y1932634D01*
X3162300Y1312634D02*
X3162300Y1282634D01*
X3147300Y1297634D02*
X3177300Y1297634D01*
X3162300Y1185634D02*
X3162300Y1155634D01*
X3147300Y1170634D02*
X3177300Y1170634D01*
X3162300Y-84366D02*
X3162300Y-114366D01*
X3147300Y-99366D02*
X3177300Y-99366D01*
X3289300Y2074634D02*
X3289300Y2044634D01*
X3274300Y2059634D02*
X3304300Y2059634D01*
X3289300Y1947634D02*
X3289300Y1917634D01*
X3274300Y1932634D02*
X3304300Y1932634D01*
X3289300Y1312634D02*
X3289300Y1282634D01*
X3274300Y1297634D02*
X3304300Y1297634D01*
X3289300Y1185634D02*
X3289300Y1155634D01*
X3274300Y1170634D02*
X3304300Y1170634D01*
X3289300Y1058634D02*
X3289300Y1028634D01*
X3274300Y1043634D02*
X3304300Y1043634D01*
X3416300Y2074634D02*
X3416300Y2044634D01*
X3401300Y2059634D02*
X3431300Y2059634D01*
X3416300Y1947634D02*
X3416300Y1917634D01*
X3401300Y1932634D02*
X3431300Y1932634D01*
X3416300Y1312634D02*
X3416300Y1282634D01*
X3401300Y1297634D02*
X3431300Y1297634D01*
X3416300Y1185634D02*
X3416300Y1155634D01*
X3401300Y1170634D02*
X3431300Y1170634D01*
X3416300Y1058634D02*
X3416300Y1028634D01*
X3401300Y1043634D02*
X3431300Y1043634D01*
X3416300Y931634D02*
X3416300Y901634D01*
X3401300Y916634D02*
X3431300Y916634D01*
X3543300Y2074634D02*
X3543300Y2044634D01*
X3528300Y2059634D02*
X3558300Y2059634D01*
X3543300Y1947634D02*
X3543300Y1917634D01*
X3528300Y1932634D02*
X3558300Y1932634D01*
X3543300Y1312634D02*
X3543300Y1282634D01*
X3528300Y1297634D02*
X3558300Y1297634D01*
X3543300Y1185634D02*
X3543300Y1155634D01*
X3528300Y1170634D02*
X3558300Y1170634D01*
X3670300Y2074634D02*
X3670300Y2044634D01*
X3655300Y2059634D02*
X3685300Y2059634D01*
X3670300Y1947634D02*
X3670300Y1917634D01*
X3655300Y1932634D02*
X3685300Y1932634D01*
X3797300Y2074634D02*
X3797300Y2044634D01*
X3782300Y2059634D02*
X3812300Y2059634D01*
X3797300Y1947634D02*
X3797300Y1917634D01*
X3782300Y1932634D02*
X3812300Y1932634D01*
X3924300Y2074634D02*
X3924300Y2044634D01*
X3909300Y2059634D02*
X3939300Y2059634D01*
X3924300Y1947634D02*
X3924300Y1917634D01*
X3909300Y1932634D02*
X3939300Y1932634D01*
X4051300Y169634D02*
X4051300Y139634D01*
X4036300Y154634D02*
X4066300Y154634D01*
X4178300Y423634D02*
X4178300Y393634D01*
X4163300Y408634D02*
X4193300Y408634D01*
X4178300Y296634D02*
X4178300Y266634D01*
X4163300Y281634D02*
X4193300Y281634D01*
X4178300Y169634D02*
X4178300Y139634D01*
X4163300Y154634D02*
X4193300Y154634D01*
X4178300Y-84366D02*
X4178300Y-114366D01*
X4163300Y-99366D02*
X4193300Y-99366D01*
X4813300Y2074634D02*
X4813300Y2044634D01*
X4798300Y2059634D02*
X4828300Y2059634D01*
X4813300Y1947634D02*
X4813300Y1917634D01*
X4798300Y1932634D02*
X4828300Y1932634D01*
X4870000Y255000D02*
X4870000Y225000D01*
X4855000Y240000D02*
X4885000Y240000D01*
X4940300Y169634D02*
X4940300Y139634D01*
X4925300Y154634D02*
X4955300Y154634D01*
X4940300Y-84366D02*
X4940300Y-114366D01*
X4925300Y-99366D02*
X4955300Y-99366D01*
X5067300Y169634D02*
X5067300Y139634D01*
X5052300Y154634D02*
X5082300Y154634D01*
X5067300Y-84366D02*
X5067300Y-114366D01*
X5052300Y-99366D02*
X5082300Y-99366D01*
X5140000Y1035000D02*
X5140000Y1005000D01*
X5125000Y1020000D02*
X5155000Y1020000D01*
X5194300Y1947634D02*
X5194300Y1917634D01*
X5179300Y1932634D02*
X5209300Y1932634D01*
X5194300Y1820634D02*
X5194300Y1790634D01*
X5179300Y1805634D02*
X5209300Y1805634D01*
X5194300Y1693634D02*
X5194300Y1663634D01*
X5179300Y1678634D02*
X5209300Y1678634D01*
X5194300Y-84366D02*
X5194300Y-114366D01*
X5179300Y-99366D02*
X5209300Y-99366D01*
X5321300Y-84366D02*
X5321300Y-114366D01*
X5306300Y-99366D02*
X5336300Y-99366D01*
X5448300Y-84366D02*
X5448300Y-114366D01*
X5433300Y-99366D02*
X5463300Y-99366D01*
X5575300Y550634D02*
X5575300Y520634D01*
X5560300Y535634D02*
X5590300Y535634D01*
X5575300Y169634D02*
X5575300Y139634D01*
X5560300Y154634D02*
X5590300Y154634D01*
X5575300Y-84366D02*
X5575300Y-114366D01*
X5560300Y-99366D02*
X5590300Y-99366D01*
X5630000Y745000D02*
X5630000Y715000D01*
X5615000Y730000D02*
X5645000Y730000D01*
X5702300Y169634D02*
X5702300Y139634D01*
X5687300Y154634D02*
X5717300Y154634D01*
X5702300Y-84366D02*
X5702300Y-114366D01*
X5687300Y-99366D02*
X5717300Y-99366D01*
X5829300Y550634D02*
X5829300Y520634D01*
X5814300Y535634D02*
X5844300Y535634D01*
X5829300Y169634D02*
X5829300Y139634D01*
X5814300Y154634D02*
X5844300Y154634D01*
X5829300Y-84366D02*
X5829300Y-114366D01*
X5814300Y-99366D02*
X5844300Y-99366D01*
X5880000Y1875000D02*
X5880000Y1845000D01*
X5865000Y1860000D02*
X5895000Y1860000D01*
X5956300Y-84366D02*
X5956300Y-114366D01*
X5941300Y-99366D02*
X5971300Y-99366D01*
X6083300Y-84366D02*
X6083300Y-114366D01*
X6068300Y-99366D02*
X6098300Y-99366D01*
X6210300Y-84366D02*
X6210300Y-114366D01*
X6195300Y-99366D02*
X6225300Y-99366D01*
X6337300Y-84366D02*
X6337300Y-114366D01*
X6322300Y-99366D02*
X6352300Y-99366D01*
X6464300Y-84366D02*
X6464300Y-114366D01*
X6449300Y-99366D02*
X6479300Y-99366D01*
X6845300Y42634D02*
X6845300Y12634D01*
X6830300Y27634D02*
X6860300Y27634D01*
X6845300Y-84366D02*
X6845300Y-114366D01*
X6830300Y-99366D02*
X6860300Y-99366D01*
X6972300Y169634D02*
X6972300Y139634D01*
X6957300Y154634D02*
X6987300Y154634D01*
X6972300Y42634D02*
X6972300Y12634D01*
X6957300Y27634D02*
X6987300Y27634D01*
X6972300Y-84366D02*
X6972300Y-114366D01*
X6957300Y-99366D02*
X6987300Y-99366D01*
X7099300Y169634D02*
X7099300Y139634D01*
X7084300Y154634D02*
X7114300Y154634D01*
X7099300Y42634D02*
X7099300Y12634D01*
X7084300Y27634D02*
X7114300Y27634D01*
X7099300Y-84366D02*
X7099300Y-114366D01*
X7084300Y-99366D02*
X7114300Y-99366D01*
X7226300Y1439634D02*
X7226300Y1409634D01*
X7211300Y1424634D02*
X7241300Y1424634D01*
X7226300Y1312634D02*
X7226300Y1282634D01*
X7211300Y1297634D02*
X7241300Y1297634D01*
X7226300Y1185634D02*
X7226300Y1155634D01*
X7211300Y1170634D02*
X7241300Y1170634D01*
X7226300Y1058634D02*
X7226300Y1028634D01*
X7211300Y1043634D02*
X7241300Y1043634D01*
X7226300Y931634D02*
X7226300Y901634D01*
X7211300Y916634D02*
X7241300Y916634D01*
X7226300Y804634D02*
X7226300Y774634D01*
X7211300Y789634D02*
X7241300Y789634D01*
X7226300Y677634D02*
X7226300Y647634D01*
X7211300Y662634D02*
X7241300Y662634D01*
X7226300Y423634D02*
X7226300Y393634D01*
X7211300Y408634D02*
X7241300Y408634D01*
X7226300Y296634D02*
X7226300Y266634D01*
X7211300Y281634D02*
X7241300Y281634D01*
X7226300Y169634D02*
X7226300Y139634D01*
X7211300Y154634D02*
X7241300Y154634D01*
X7226300Y42634D02*
X7226300Y12634D01*
X7211300Y27634D02*
X7241300Y27634D01*
X7226300Y-84366D02*
X7226300Y-114366D01*
X7211300Y-99366D02*
X7241300Y-99366D01*
X7353300Y1439634D02*
X7353300Y1409634D01*
X7338300Y1424634D02*
X7368300Y1424634D01*
X7353300Y1312634D02*
X7353300Y1282634D01*
X7338300Y1297634D02*
X7368300Y1297634D01*
X7353300Y1185634D02*
X7353300Y1155634D01*
X7338300Y1170634D02*
X7368300Y1170634D01*
X7353300Y1058634D02*
X7353300Y1028634D01*
X7338300Y1043634D02*
X7368300Y1043634D01*
X7353300Y931634D02*
X7353300Y901634D01*
X7338300Y916634D02*
X7368300Y916634D01*
X7353300Y804634D02*
X7353300Y774634D01*
X7338300Y789634D02*
X7368300Y789634D01*
X7353300Y677634D02*
X7353300Y647634D01*
X7338300Y662634D02*
X7368300Y662634D01*
X7353300Y550634D02*
X7353300Y520634D01*
X7338300Y535634D02*
X7368300Y535634D01*
X7353300Y423634D02*
X7353300Y393634D01*
X7338300Y408634D02*
X7368300Y408634D01*
X7353300Y296634D02*
X7353300Y266634D01*
X7338300Y281634D02*
X7368300Y281634D01*
X7353300Y169634D02*
X7353300Y139634D01*
X7338300Y154634D02*
X7368300Y154634D01*
X7353300Y42634D02*
X7353300Y12634D01*
X7338300Y27634D02*
X7368300Y27634D01*
X7353300Y-84366D02*
X7353300Y-114366D01*
X7338300Y-99366D02*
X7368300Y-99366D01*
X2284902Y2114378D02*
X2284902Y2142662D01*
X2256618Y2142662D01*
X2256618Y2114378D01*
X2284902Y2114378D01*
X2289142Y1085858D02*
X2289142Y1114142D01*
X2260858Y1114142D01*
X2260858Y1085858D01*
X2289142Y1085858D01*
X2289142Y825858D02*
X2289142Y854142D01*
X2260858Y854142D01*
X2260858Y825858D01*
X2289142Y825858D01*
X2289142Y565858D02*
X2289142Y594142D01*
X2260858Y594142D01*
X2260858Y565858D01*
X2289142Y565858D01*
X2289142Y285858D02*
X2289142Y314142D01*
X2260858Y314142D01*
X2260858Y285858D01*
X2289142Y285858D01*
X2454142Y845858D02*
X2454142Y874142D01*
X2425858Y874142D01*
X2425858Y845858D01*
X2454142Y845858D01*
X2514142Y465858D02*
X2514142Y494142D01*
X2485858Y494142D01*
X2485858Y465858D01*
X2514142Y465858D01*
X2794142Y825858D02*
X2794142Y854142D01*
X2765858Y854142D01*
X2765858Y825858D01*
X2794142Y825858D01*
X2934142Y705858D02*
X2934142Y734142D01*
X2905858Y734142D01*
X2905858Y705858D01*
X2934142Y705858D01*
X2974142Y585858D02*
X2974142Y614142D01*
X2945858Y614142D01*
X2945858Y585858D01*
X2974142Y585858D01*
X3434142Y-19142D02*
X3434142Y9142D01*
X3405858Y9142D01*
X3405858Y-19142D01*
X3434142Y-19142D01*
X3554142Y65858D02*
X3554142Y94142D01*
X3525858Y94142D01*
X3525858Y65858D01*
X3554142Y65858D01*
X3574142Y-174142D02*
X3574142Y-145858D01*
X3545858Y-145858D01*
X3545858Y-174142D01*
X3574142Y-174142D01*
X3634142Y425858D02*
X3634142Y454142D01*
X3605858Y454142D01*
X3605858Y425858D01*
X3634142Y425858D01*
X3674142Y885858D02*
X3674142Y914142D01*
X3645858Y914142D01*
X3645858Y885858D01*
X3674142Y885858D01*
X3694142Y285858D02*
X3694142Y314142D01*
X3665858Y314142D01*
X3665858Y285858D01*
X3694142Y285858D01*
X3774142Y445858D02*
X3774142Y474142D01*
X3745858Y474142D01*
X3745858Y445858D01*
X3774142Y445858D01*
X3994142Y405858D02*
X3994142Y434142D01*
X3965858Y434142D01*
X3965858Y405858D01*
X3994142Y405858D01*
X4144142Y1895858D02*
X4144142Y1924142D01*
X4115858Y1924142D01*
X4115858Y1895858D01*
X4144142Y1895858D01*
X4294142Y1885858D02*
X4294142Y1914142D01*
X4265858Y1914142D01*
X4265858Y1885858D01*
X4294142Y1885858D01*
X4414142Y445858D02*
X4414142Y474142D01*
X4385858Y474142D01*
X4385858Y445858D01*
X4414142Y445858D01*
X4494142Y1925858D02*
X4494142Y1954142D01*
X4465858Y1954142D01*
X4465858Y1925858D01*
X4494142Y1925858D01*
X4534142Y385858D02*
X4534142Y414142D01*
X4505858Y414142D01*
X4505858Y385858D01*
X4534142Y385858D01*
X4614142Y1925858D02*
X4614142Y1954142D01*
X4585858Y1954142D01*
X4585858Y1925858D01*
X4614142Y1925858D01*
X4674142Y385858D02*
X4674142Y414142D01*
X4645858Y414142D01*
X4645858Y385858D01*
X4674142Y385858D01*
X4769851Y828574D02*
X4769851Y856859D01*
X4741566Y856859D01*
X4741566Y828574D01*
X4769851Y828574D01*
X4814142Y405858D02*
X4814142Y434142D01*
X4785858Y434142D01*
X4785858Y405858D01*
X4814142Y405858D01*
X5094142Y505858D02*
X5094142Y534142D01*
X5065858Y534142D01*
X5065858Y505858D01*
X5094142Y505858D01*
X5139142Y755858D02*
X5139142Y784142D01*
X5110858Y784142D01*
X5110858Y755858D01*
X5139142Y755858D01*
X5281642Y1395858D02*
X5281642Y1424142D01*
X5253358Y1424142D01*
X5253358Y1395858D01*
X5281642Y1395858D01*
X5459142Y770858D02*
X5459142Y799142D01*
X5430858Y799142D01*
X5430858Y770858D01*
X5459142Y770858D01*
X5594142Y1885858D02*
X5594142Y1914142D01*
X5565858Y1914142D01*
X5565858Y1885858D01*
X5594142Y1885858D01*
X5599142Y998356D02*
X5599142Y1026641D01*
X5570858Y1026641D01*
X5570858Y998356D01*
X5599142Y998356D01*
X5629355Y899400D02*
X5629355Y927684D01*
X5601070Y927684D01*
X5601070Y899400D01*
X5629355Y899400D01*
X5681642Y1485858D02*
X5681642Y1514142D01*
X5653358Y1514142D01*
X5653358Y1485858D01*
X5681642Y1485858D01*
X5706142Y1713858D02*
X5706142Y1742142D01*
X5677858Y1742142D01*
X5677858Y1713858D01*
X5706142Y1713858D01*
X5804142Y1000858D02*
X5804142Y1029142D01*
X5775858Y1029142D01*
X5775858Y1000858D01*
X5804142Y1000858D01*
X5804142Y898358D02*
X5804142Y926642D01*
X5775858Y926642D01*
X5775858Y898358D01*
X5804142Y898358D01*
X5886642Y1469713D02*
X5886642Y1497998D01*
X5858358Y1497998D01*
X5858358Y1469713D01*
X5886642Y1469713D01*
X5914142Y1565858D02*
X5914142Y1594142D01*
X5885858Y1594142D01*
X5885858Y1565858D01*
X5914142Y1565858D01*
X5929031Y1138356D02*
X5929031Y1166641D01*
X5900747Y1166641D01*
X5900747Y1138356D01*
X5929031Y1138356D01*
X5934142Y625858D02*
X5934142Y654142D01*
X5905858Y654142D01*
X5905858Y625858D01*
X5934142Y625858D01*
X5954142Y1325858D02*
X5954142Y1354142D01*
X5925858Y1354142D01*
X5925858Y1325858D01*
X5954142Y1325858D01*
X6014142Y1085858D02*
X6014142Y1114142D01*
X5985858Y1114142D01*
X5985858Y1085858D01*
X6014142Y1085858D01*
X6254142Y1065858D02*
X6254142Y1094142D01*
X6225858Y1094142D01*
X6225858Y1065858D01*
X6254142Y1065858D01*
X6375785Y1609358D02*
X6375785Y1637642D01*
X6347501Y1637642D01*
X6347501Y1609358D01*
X6375785Y1609358D01*
X6438758Y2072781D02*
X6438758Y2101065D01*
X6410473Y2101065D01*
X6410473Y2072781D01*
X6438758Y2072781D01*
X6467424Y1566753D02*
X6467424Y1595037D01*
X6439139Y1595037D01*
X6439139Y1566753D01*
X6467424Y1566753D01*
X6494142Y81858D02*
X6494142Y110142D01*
X6465858Y110142D01*
X6465858Y81858D01*
X6494142Y81858D01*
X6739142Y1335858D02*
X6739142Y1364142D01*
X6710858Y1364142D01*
X6710858Y1335858D01*
X6739142Y1335858D01*
X6864142Y313358D02*
X6864142Y341642D01*
X6835858Y341642D01*
X6835858Y313358D01*
X6864142Y313358D01*
X6880142Y1464858D02*
X6880142Y1493142D01*
X6851858Y1493142D01*
X6851858Y1464858D01*
X6880142Y1464858D01*
X6914142Y705858D02*
X6914142Y734142D01*
X6885858Y734142D01*
X6885858Y705858D01*
X6914142Y705858D01*
X6941642Y945858D02*
X6941642Y974142D01*
X6913358Y974142D01*
X6913358Y945858D01*
X6941642Y945858D01*
X6954142Y1585858D02*
X6954142Y1614142D01*
X6925858Y1614142D01*
X6925858Y1585858D01*
X6954142Y1585858D01*
D13*
X800000Y-210000D02*
X860000Y-150000D01*
X800000Y-90000D01*
X740000Y-150000D01*
X800000Y-210000D01*
X1175000Y1890000D02*
X1235000Y1950000D01*
X1175000Y2010000D01*
X1115000Y1950000D01*
X1175000Y1890000D01*
X1175000Y-210000D02*
X1235000Y-150000D01*
X1175000Y-90000D01*
X1115000Y-150000D01*
X1175000Y-210000D01*
X1550000Y-210000D02*
X1610000Y-150000D01*
X1550000Y-90000D01*
X1490000Y-150000D01*
X1550000Y-210000D01*
D11*
X558277Y-613984D02*
X558277Y-413984D01*
X558277Y-413984D02*
X605896Y-413984D01*
X605896Y-413984D02*
X634467Y-423508D01*
X634467Y-423508D02*
X653515Y-442555D01*
X653515Y-442555D02*
X663039Y-461603D01*
X663039Y-461603D02*
X672563Y-499698D01*
X672563Y-499698D02*
X672563Y-528270D01*
X672563Y-528270D02*
X663039Y-566365D01*
X663039Y-566365D02*
X653515Y-585412D01*
X653515Y-585412D02*
X634467Y-604460D01*
X634467Y-604460D02*
X605896Y-613984D01*
X605896Y-613984D02*
X558277Y-613984D01*
X758277Y-613984D02*
X758277Y-480650D01*
X758277Y-518746D02*
X767801Y-499698D01*
X767801Y-499698D02*
X777324Y-490174D01*
X777324Y-490174D02*
X796372Y-480650D01*
X796372Y-480650D02*
X815420Y-480650D01*
X882086Y-613984D02*
X882086Y-480650D01*
X882086Y-413984D02*
X872562Y-423508D01*
X872562Y-423508D02*
X882086Y-433031D01*
X882086Y-433031D02*
X891610Y-423508D01*
X891610Y-423508D02*
X882086Y-413984D01*
X882086Y-413984D02*
X882086Y-433031D01*
X1005896Y-613984D02*
X986848Y-604460D01*
X986848Y-604460D02*
X977324Y-585412D01*
X977324Y-585412D02*
X977324Y-413984D01*
X1110658Y-613984D02*
X1091610Y-604460D01*
X1091610Y-604460D02*
X1082086Y-585412D01*
X1082086Y-585412D02*
X1082086Y-413984D01*
X1339229Y-613984D02*
X1339229Y-413984D01*
X1339229Y-413984D02*
X1405896Y-556841D01*
X1405896Y-556841D02*
X1472562Y-413984D01*
X1472562Y-413984D02*
X1472562Y-613984D01*
X1653515Y-613984D02*
X1653515Y-509222D01*
X1653515Y-509222D02*
X1643991Y-490174D01*
X1643991Y-490174D02*
X1624943Y-480650D01*
X1624943Y-480650D02*
X1586848Y-480650D01*
X1586848Y-480650D02*
X1567801Y-490174D01*
X1653515Y-604460D02*
X1634467Y-613984D01*
X1634467Y-613984D02*
X1586848Y-613984D01*
X1586848Y-613984D02*
X1567801Y-604460D01*
X1567801Y-604460D02*
X1558277Y-585412D01*
X1558277Y-585412D02*
X1558277Y-566365D01*
X1558277Y-566365D02*
X1567801Y-547317D01*
X1567801Y-547317D02*
X1586848Y-537793D01*
X1586848Y-537793D02*
X1634467Y-537793D01*
X1634467Y-537793D02*
X1653515Y-528270D01*
X1748753Y-480650D02*
X1748753Y-680650D01*
X1748753Y-490174D02*
X1767801Y-480650D01*
X1767801Y-480650D02*
X1805896Y-480650D01*
X1805896Y-480650D02*
X1824943Y-490174D01*
X1824943Y-490174D02*
X1834467Y-499698D01*
X1834467Y-499698D02*
X1843991Y-518746D01*
X1843991Y-518746D02*
X1843991Y-575889D01*
X1843991Y-575889D02*
X1834467Y-594936D01*
X1834467Y-594936D02*
X1824943Y-604460D01*
X1824943Y-604460D02*
X1805896Y-613984D01*
X1805896Y-613984D02*
X1767801Y-613984D01*
X1767801Y-613984D02*
X1748753Y-604460D01*
X1929705Y-594936D02*
X1939229Y-604460D01*
X1939229Y-604460D02*
X1929705Y-613984D01*
X1929705Y-613984D02*
X1920182Y-604460D01*
X1920182Y-604460D02*
X1929705Y-594936D01*
X1929705Y-594936D02*
X1929705Y-613984D01*
X1929705Y-490174D02*
X1939229Y-499698D01*
X1939229Y-499698D02*
X1929705Y-509222D01*
X1929705Y-509222D02*
X1920182Y-499698D01*
X1920182Y-499698D02*
X1929705Y-490174D01*
X1929705Y-490174D02*
X1929705Y-509222D01*
D12*
X277500Y-932500D02*
X297500Y-952500D01*
X297500Y-932500D02*
X277500Y-952500D01*
D11*
X596372Y-833984D02*
X615420Y-833984D01*
X615420Y-833984D02*
X634467Y-843508D01*
X634467Y-843508D02*
X643991Y-853031D01*
X643991Y-853031D02*
X653515Y-872079D01*
X653515Y-872079D02*
X663039Y-910174D01*
X663039Y-910174D02*
X663039Y-957793D01*
X663039Y-957793D02*
X653515Y-995888D01*
X653515Y-995888D02*
X643991Y-1014936D01*
X643991Y-1014936D02*
X634467Y-1024460D01*
X634467Y-1024460D02*
X615420Y-1033984D01*
X615420Y-1033984D02*
X596372Y-1033984D01*
X596372Y-1033984D02*
X577324Y-1024460D01*
X577324Y-1024460D02*
X567801Y-1014936D01*
X567801Y-1014936D02*
X558277Y-995888D01*
X558277Y-995888D02*
X548753Y-957793D01*
X548753Y-957793D02*
X548753Y-910174D01*
X548753Y-910174D02*
X558277Y-872079D01*
X558277Y-872079D02*
X567801Y-853031D01*
X567801Y-853031D02*
X577324Y-843508D01*
X577324Y-843508D02*
X596372Y-833984D01*
X748753Y-1014936D02*
X758277Y-1024460D01*
X758277Y-1024460D02*
X748753Y-1033984D01*
X748753Y-1033984D02*
X739229Y-1024460D01*
X739229Y-1024460D02*
X748753Y-1014936D01*
X748753Y-1014936D02*
X748753Y-1033984D01*
X834467Y-853031D02*
X843991Y-843508D01*
X843991Y-843508D02*
X863039Y-833984D01*
X863039Y-833984D02*
X910658Y-833984D01*
X910658Y-833984D02*
X929705Y-843508D01*
X929705Y-843508D02*
X939229Y-853031D01*
X939229Y-853031D02*
X948753Y-872079D01*
X948753Y-872079D02*
X948753Y-891127D01*
X948753Y-891127D02*
X939229Y-919698D01*
X939229Y-919698D02*
X824943Y-1033984D01*
X824943Y-1033984D02*
X948753Y-1033984D01*
X1072563Y-833984D02*
X1091610Y-833984D01*
X1091610Y-833984D02*
X1110658Y-843508D01*
X1110658Y-843508D02*
X1120182Y-853031D01*
X1120182Y-853031D02*
X1129705Y-872079D01*
X1129705Y-872079D02*
X1139229Y-910174D01*
X1139229Y-910174D02*
X1139229Y-957793D01*
X1139229Y-957793D02*
X1129705Y-995888D01*
X1129705Y-995888D02*
X1120182Y-1014936D01*
X1120182Y-1014936D02*
X1110658Y-1024460D01*
X1110658Y-1024460D02*
X1091610Y-1033984D01*
X1091610Y-1033984D02*
X1072563Y-1033984D01*
X1072563Y-1033984D02*
X1053515Y-1024460D01*
X1053515Y-1024460D02*
X1043991Y-1014936D01*
X1043991Y-1014936D02*
X1034467Y-995888D01*
X1034467Y-995888D02*
X1024943Y-957793D01*
X1024943Y-957793D02*
X1024943Y-910174D01*
X1024943Y-910174D02*
X1034467Y-872079D01*
X1034467Y-872079D02*
X1043991Y-853031D01*
X1043991Y-853031D02*
X1053515Y-843508D01*
X1053515Y-843508D02*
X1072563Y-833984D01*
X1263039Y-833984D02*
X1282086Y-833984D01*
X1282086Y-833984D02*
X1301134Y-843508D01*
X1301134Y-843508D02*
X1310658Y-853031D01*
X1310658Y-853031D02*
X1320182Y-872079D01*
X1320182Y-872079D02*
X1329705Y-910174D01*
X1329705Y-910174D02*
X1329705Y-957793D01*
X1329705Y-957793D02*
X1320182Y-995888D01*
X1320182Y-995888D02*
X1310658Y-1014936D01*
X1310658Y-1014936D02*
X1301134Y-1024460D01*
X1301134Y-1024460D02*
X1282086Y-1033984D01*
X1282086Y-1033984D02*
X1263039Y-1033984D01*
X1263039Y-1033984D02*
X1243991Y-1024460D01*
X1243991Y-1024460D02*
X1234467Y-1014936D01*
X1234467Y-1014936D02*
X1224944Y-995888D01*
X1224944Y-995888D02*
X1215420Y-957793D01*
X1215420Y-957793D02*
X1215420Y-910174D01*
X1215420Y-910174D02*
X1224944Y-872079D01*
X1224944Y-872079D02*
X1234467Y-853031D01*
X1234467Y-853031D02*
X1243991Y-843508D01*
X1243991Y-843508D02*
X1263039Y-833984D01*
X1415420Y-1033984D02*
X1415420Y-900650D01*
X1415420Y-919698D02*
X1424943Y-910174D01*
X1424943Y-910174D02*
X1443991Y-900650D01*
X1443991Y-900650D02*
X1472563Y-900650D01*
X1472563Y-900650D02*
X1491610Y-910174D01*
X1491610Y-910174D02*
X1501134Y-929222D01*
X1501134Y-929222D02*
X1501134Y-1033984D01*
X1501134Y-929222D02*
X1510658Y-910174D01*
X1510658Y-910174D02*
X1529705Y-900650D01*
X1529705Y-900650D02*
X1558277Y-900650D01*
X1558277Y-900650D02*
X1577324Y-910174D01*
X1577324Y-910174D02*
X1586848Y-929222D01*
X1586848Y-929222D02*
X1586848Y-1033984D01*
X1682086Y-1033984D02*
X1682086Y-900650D01*
X1682086Y-919698D02*
X1691610Y-910174D01*
X1691610Y-910174D02*
X1710658Y-900650D01*
X1710658Y-900650D02*
X1739229Y-900650D01*
X1739229Y-900650D02*
X1758277Y-910174D01*
X1758277Y-910174D02*
X1767801Y-929222D01*
X1767801Y-929222D02*
X1767801Y-1033984D01*
X1767801Y-929222D02*
X1777324Y-910174D01*
X1777324Y-910174D02*
X1796372Y-900650D01*
X1796372Y-900650D02*
X1824943Y-900650D01*
X1824943Y-900650D02*
X1843991Y-910174D01*
X1843991Y-910174D02*
X1853515Y-929222D01*
X1853515Y-929222D02*
X1853515Y-1033984D01*
X2243991Y-824460D02*
X2072563Y-1081603D01*
X2501134Y-833984D02*
X2520182Y-833984D01*
X2520182Y-833984D02*
X2539229Y-843508D01*
X2539229Y-843508D02*
X2548753Y-853031D01*
X2548753Y-853031D02*
X2558277Y-872079D01*
X2558277Y-872079D02*
X2567801Y-910174D01*
X2567801Y-910174D02*
X2567801Y-957793D01*
X2567801Y-957793D02*
X2558277Y-995888D01*
X2558277Y-995888D02*
X2548753Y-1014936D01*
X2548753Y-1014936D02*
X2539229Y-1024460D01*
X2539229Y-1024460D02*
X2520182Y-1033984D01*
X2520182Y-1033984D02*
X2501134Y-1033984D01*
X2501134Y-1033984D02*
X2482087Y-1024460D01*
X2482087Y-1024460D02*
X2472563Y-1014936D01*
X2472563Y-1014936D02*
X2463039Y-995888D01*
X2463039Y-995888D02*
X2453515Y-957793D01*
X2453515Y-957793D02*
X2453515Y-910174D01*
X2453515Y-910174D02*
X2463039Y-872079D01*
X2463039Y-872079D02*
X2472563Y-853031D01*
X2472563Y-853031D02*
X2482087Y-843508D01*
X2482087Y-843508D02*
X2501134Y-833984D01*
X2653515Y-1014936D02*
X2663039Y-1024460D01*
X2663039Y-1024460D02*
X2653515Y-1033984D01*
X2653515Y-1033984D02*
X2643991Y-1024460D01*
X2643991Y-1024460D02*
X2653515Y-1014936D01*
X2653515Y-1014936D02*
X2653515Y-1033984D01*
X2786848Y-833984D02*
X2805896Y-833984D01*
X2805896Y-833984D02*
X2824944Y-843508D01*
X2824944Y-843508D02*
X2834467Y-853031D01*
X2834467Y-853031D02*
X2843991Y-872079D01*
X2843991Y-872079D02*
X2853515Y-910174D01*
X2853515Y-910174D02*
X2853515Y-957793D01*
X2853515Y-957793D02*
X2843991Y-995888D01*
X2843991Y-995888D02*
X2834467Y-1014936D01*
X2834467Y-1014936D02*
X2824944Y-1024460D01*
X2824944Y-1024460D02*
X2805896Y-1033984D01*
X2805896Y-1033984D02*
X2786848Y-1033984D01*
X2786848Y-1033984D02*
X2767801Y-1024460D01*
X2767801Y-1024460D02*
X2758277Y-1014936D01*
X2758277Y-1014936D02*
X2748753Y-995888D01*
X2748753Y-995888D02*
X2739229Y-957793D01*
X2739229Y-957793D02*
X2739229Y-910174D01*
X2739229Y-910174D02*
X2748753Y-872079D01*
X2748753Y-872079D02*
X2758277Y-853031D01*
X2758277Y-853031D02*
X2767801Y-843508D01*
X2767801Y-843508D02*
X2786848Y-833984D01*
X2977325Y-833984D02*
X2996372Y-833984D01*
X2996372Y-833984D02*
X3015420Y-843508D01*
X3015420Y-843508D02*
X3024944Y-853031D01*
X3024944Y-853031D02*
X3034467Y-872079D01*
X3034467Y-872079D02*
X3043991Y-910174D01*
X3043991Y-910174D02*
X3043991Y-957793D01*
X3043991Y-957793D02*
X3034467Y-995888D01*
X3034467Y-995888D02*
X3024944Y-1014936D01*
X3024944Y-1014936D02*
X3015420Y-1024460D01*
X3015420Y-1024460D02*
X2996372Y-1033984D01*
X2996372Y-1033984D02*
X2977325Y-1033984D01*
X2977325Y-1033984D02*
X2958277Y-1024460D01*
X2958277Y-1024460D02*
X2948753Y-1014936D01*
X2948753Y-1014936D02*
X2939229Y-995888D01*
X2939229Y-995888D02*
X2929706Y-957793D01*
X2929706Y-957793D02*
X2929706Y-910174D01*
X2929706Y-910174D02*
X2939229Y-872079D01*
X2939229Y-872079D02*
X2948753Y-853031D01*
X2948753Y-853031D02*
X2958277Y-843508D01*
X2958277Y-843508D02*
X2977325Y-833984D01*
X3110658Y-833984D02*
X3243991Y-833984D01*
X3243991Y-833984D02*
X3158277Y-1033984D01*
X3329706Y-1033984D02*
X3367801Y-1033984D01*
X3367801Y-1033984D02*
X3386848Y-1024460D01*
X3386848Y-1024460D02*
X3396372Y-1014936D01*
X3396372Y-1014936D02*
X3415420Y-986365D01*
X3415420Y-986365D02*
X3424944Y-948269D01*
X3424944Y-948269D02*
X3424944Y-872079D01*
X3424944Y-872079D02*
X3415420Y-853031D01*
X3415420Y-853031D02*
X3405896Y-843508D01*
X3405896Y-843508D02*
X3386848Y-833984D01*
X3386848Y-833984D02*
X3348753Y-833984D01*
X3348753Y-833984D02*
X3329706Y-843508D01*
X3329706Y-843508D02*
X3320182Y-853031D01*
X3320182Y-853031D02*
X3310658Y-872079D01*
X3310658Y-872079D02*
X3310658Y-919698D01*
X3310658Y-919698D02*
X3320182Y-938746D01*
X3320182Y-938746D02*
X3329706Y-948269D01*
X3329706Y-948269D02*
X3348753Y-957793D01*
X3348753Y-957793D02*
X3386848Y-957793D01*
X3386848Y-957793D02*
X3405896Y-948269D01*
X3405896Y-948269D02*
X3415420Y-938746D01*
X3415420Y-938746D02*
X3424944Y-919698D01*
X3501134Y-833984D02*
X3501134Y-872079D01*
X3577325Y-833984D02*
X3577325Y-872079D01*
X3872563Y-1110174D02*
X3863039Y-1100650D01*
X3863039Y-1100650D02*
X3843991Y-1072079D01*
X3843991Y-1072079D02*
X3834468Y-1053031D01*
X3834468Y-1053031D02*
X3824944Y-1024460D01*
X3824944Y-1024460D02*
X3815420Y-976841D01*
X3815420Y-976841D02*
X3815420Y-938746D01*
X3815420Y-938746D02*
X3824944Y-891127D01*
X3824944Y-891127D02*
X3834468Y-862555D01*
X3834468Y-862555D02*
X3843991Y-843508D01*
X3843991Y-843508D02*
X3863039Y-814936D01*
X3863039Y-814936D02*
X3872563Y-805412D01*
X3929706Y-833984D02*
X4053515Y-833984D01*
X4053515Y-833984D02*
X3986848Y-910174D01*
X3986848Y-910174D02*
X4015420Y-910174D01*
X4015420Y-910174D02*
X4034468Y-919698D01*
X4034468Y-919698D02*
X4043991Y-929222D01*
X4043991Y-929222D02*
X4053515Y-948269D01*
X4053515Y-948269D02*
X4053515Y-995888D01*
X4053515Y-995888D02*
X4043991Y-1014936D01*
X4043991Y-1014936D02*
X4034468Y-1024460D01*
X4034468Y-1024460D02*
X4015420Y-1033984D01*
X4015420Y-1033984D02*
X3958277Y-1033984D01*
X3958277Y-1033984D02*
X3939229Y-1024460D01*
X3939229Y-1024460D02*
X3929706Y-1014936D01*
X4243991Y-1033984D02*
X4129706Y-1033984D01*
X4186848Y-1033984D02*
X4186848Y-833984D01*
X4186848Y-833984D02*
X4167801Y-862555D01*
X4167801Y-862555D02*
X4148753Y-881603D01*
X4148753Y-881603D02*
X4129706Y-891127D01*
X4482087Y-1033984D02*
X4482087Y-833984D01*
X4567801Y-1033984D02*
X4567801Y-929222D01*
X4567801Y-929222D02*
X4558277Y-910174D01*
X4558277Y-910174D02*
X4539230Y-900650D01*
X4539230Y-900650D02*
X4510658Y-900650D01*
X4510658Y-900650D02*
X4491611Y-910174D01*
X4491611Y-910174D02*
X4482087Y-919698D01*
X4691611Y-1033984D02*
X4672563Y-1024460D01*
X4672563Y-1024460D02*
X4663039Y-1014936D01*
X4663039Y-1014936D02*
X4653515Y-995888D01*
X4653515Y-995888D02*
X4653515Y-938746D01*
X4653515Y-938746D02*
X4663039Y-919698D01*
X4663039Y-919698D02*
X4672563Y-910174D01*
X4672563Y-910174D02*
X4691611Y-900650D01*
X4691611Y-900650D02*
X4720182Y-900650D01*
X4720182Y-900650D02*
X4739230Y-910174D01*
X4739230Y-910174D02*
X4748753Y-919698D01*
X4748753Y-919698D02*
X4758277Y-938746D01*
X4758277Y-938746D02*
X4758277Y-995888D01*
X4758277Y-995888D02*
X4748753Y-1014936D01*
X4748753Y-1014936D02*
X4739230Y-1024460D01*
X4739230Y-1024460D02*
X4720182Y-1033984D01*
X4720182Y-1033984D02*
X4691611Y-1033984D01*
X4872563Y-1033984D02*
X4853515Y-1024460D01*
X4853515Y-1024460D02*
X4843992Y-1005412D01*
X4843992Y-1005412D02*
X4843992Y-833984D01*
X5024944Y-1024460D02*
X5005896Y-1033984D01*
X5005896Y-1033984D02*
X4967801Y-1033984D01*
X4967801Y-1033984D02*
X4948753Y-1024460D01*
X4948753Y-1024460D02*
X4939230Y-1005412D01*
X4939230Y-1005412D02*
X4939230Y-929222D01*
X4939230Y-929222D02*
X4948753Y-910174D01*
X4948753Y-910174D02*
X4967801Y-900650D01*
X4967801Y-900650D02*
X5005896Y-900650D01*
X5005896Y-900650D02*
X5024944Y-910174D01*
X5024944Y-910174D02*
X5034468Y-929222D01*
X5034468Y-929222D02*
X5034468Y-948269D01*
X5034468Y-948269D02*
X4939230Y-967317D01*
X5110658Y-1024460D02*
X5129706Y-1033984D01*
X5129706Y-1033984D02*
X5167801Y-1033984D01*
X5167801Y-1033984D02*
X5186849Y-1024460D01*
X5186849Y-1024460D02*
X5196373Y-1005412D01*
X5196373Y-1005412D02*
X5196373Y-995888D01*
X5196373Y-995888D02*
X5186849Y-976841D01*
X5186849Y-976841D02*
X5167801Y-967317D01*
X5167801Y-967317D02*
X5139230Y-967317D01*
X5139230Y-967317D02*
X5120182Y-957793D01*
X5120182Y-957793D02*
X5110658Y-938746D01*
X5110658Y-938746D02*
X5110658Y-929222D01*
X5110658Y-929222D02*
X5120182Y-910174D01*
X5120182Y-910174D02*
X5139230Y-900650D01*
X5139230Y-900650D02*
X5167801Y-900650D01*
X5167801Y-900650D02*
X5186849Y-910174D01*
X5263039Y-1110174D02*
X5272563Y-1100650D01*
X5272563Y-1100650D02*
X5291611Y-1072079D01*
X5291611Y-1072079D02*
X5301134Y-1053031D01*
X5301134Y-1053031D02*
X5310658Y-1024460D01*
X5310658Y-1024460D02*
X5320182Y-976841D01*
X5320182Y-976841D02*
X5320182Y-938746D01*
X5320182Y-938746D02*
X5310658Y-891127D01*
X5310658Y-891127D02*
X5301134Y-862555D01*
X5301134Y-862555D02*
X5291611Y-843508D01*
X5291611Y-843508D02*
X5272563Y-814936D01*
X5272563Y-814936D02*
X5263039Y-805412D01*
D12*
X297500Y-1206500D02*
G75*
G02*
X272500Y-1206500I-12500J0D01*
G01*
X272500Y-1206500D02*
G75*
G02*
X297500Y-1206500I12500J0D01*
G01*
D11*
X596372Y-1097984D02*
X615420Y-1097984D01*
X615420Y-1097984D02*
X634467Y-1107508D01*
X634467Y-1107508D02*
X643991Y-1117031D01*
X643991Y-1117031D02*
X653515Y-1136079D01*
X653515Y-1136079D02*
X663039Y-1174174D01*
X663039Y-1174174D02*
X663039Y-1221793D01*
X663039Y-1221793D02*
X653515Y-1259889D01*
X653515Y-1259889D02*
X643991Y-1278936D01*
X643991Y-1278936D02*
X634467Y-1288460D01*
X634467Y-1288460D02*
X615420Y-1297984D01*
X615420Y-1297984D02*
X596372Y-1297984D01*
X596372Y-1297984D02*
X577324Y-1288460D01*
X577324Y-1288460D02*
X567801Y-1278936D01*
X567801Y-1278936D02*
X558277Y-1259889D01*
X558277Y-1259889D02*
X548753Y-1221793D01*
X548753Y-1221793D02*
X548753Y-1174174D01*
X548753Y-1174174D02*
X558277Y-1136079D01*
X558277Y-1136079D02*
X567801Y-1117031D01*
X567801Y-1117031D02*
X577324Y-1107508D01*
X577324Y-1107508D02*
X596372Y-1097984D01*
X748753Y-1278936D02*
X758277Y-1288460D01*
X758277Y-1288460D02*
X748753Y-1297984D01*
X748753Y-1297984D02*
X739229Y-1288460D01*
X739229Y-1288460D02*
X748753Y-1278936D01*
X748753Y-1278936D02*
X748753Y-1297984D01*
X834467Y-1117031D02*
X843991Y-1107508D01*
X843991Y-1107508D02*
X863039Y-1097984D01*
X863039Y-1097984D02*
X910658Y-1097984D01*
X910658Y-1097984D02*
X929705Y-1107508D01*
X929705Y-1107508D02*
X939229Y-1117031D01*
X939229Y-1117031D02*
X948753Y-1136079D01*
X948753Y-1136079D02*
X948753Y-1155127D01*
X948753Y-1155127D02*
X939229Y-1183698D01*
X939229Y-1183698D02*
X824943Y-1297984D01*
X824943Y-1297984D02*
X948753Y-1297984D01*
X1129705Y-1097984D02*
X1034467Y-1097984D01*
X1034467Y-1097984D02*
X1024943Y-1193222D01*
X1024943Y-1193222D02*
X1034467Y-1183698D01*
X1034467Y-1183698D02*
X1053515Y-1174174D01*
X1053515Y-1174174D02*
X1101134Y-1174174D01*
X1101134Y-1174174D02*
X1120182Y-1183698D01*
X1120182Y-1183698D02*
X1129705Y-1193222D01*
X1129705Y-1193222D02*
X1139229Y-1212270D01*
X1139229Y-1212270D02*
X1139229Y-1259889D01*
X1139229Y-1259889D02*
X1129705Y-1278936D01*
X1129705Y-1278936D02*
X1120182Y-1288460D01*
X1120182Y-1288460D02*
X1101134Y-1297984D01*
X1101134Y-1297984D02*
X1053515Y-1297984D01*
X1053515Y-1297984D02*
X1034467Y-1288460D01*
X1034467Y-1288460D02*
X1024943Y-1278936D01*
X1263039Y-1097984D02*
X1282086Y-1097984D01*
X1282086Y-1097984D02*
X1301134Y-1107508D01*
X1301134Y-1107508D02*
X1310658Y-1117031D01*
X1310658Y-1117031D02*
X1320182Y-1136079D01*
X1320182Y-1136079D02*
X1329705Y-1174174D01*
X1329705Y-1174174D02*
X1329705Y-1221793D01*
X1329705Y-1221793D02*
X1320182Y-1259889D01*
X1320182Y-1259889D02*
X1310658Y-1278936D01*
X1310658Y-1278936D02*
X1301134Y-1288460D01*
X1301134Y-1288460D02*
X1282086Y-1297984D01*
X1282086Y-1297984D02*
X1263039Y-1297984D01*
X1263039Y-1297984D02*
X1243991Y-1288460D01*
X1243991Y-1288460D02*
X1234467Y-1278936D01*
X1234467Y-1278936D02*
X1224944Y-1259889D01*
X1224944Y-1259889D02*
X1215420Y-1221793D01*
X1215420Y-1221793D02*
X1215420Y-1174174D01*
X1215420Y-1174174D02*
X1224944Y-1136079D01*
X1224944Y-1136079D02*
X1234467Y-1117031D01*
X1234467Y-1117031D02*
X1243991Y-1107508D01*
X1243991Y-1107508D02*
X1263039Y-1097984D01*
X1415420Y-1297984D02*
X1415420Y-1164650D01*
X1415420Y-1183698D02*
X1424943Y-1174174D01*
X1424943Y-1174174D02*
X1443991Y-1164650D01*
X1443991Y-1164650D02*
X1472563Y-1164650D01*
X1472563Y-1164650D02*
X1491610Y-1174174D01*
X1491610Y-1174174D02*
X1501134Y-1193222D01*
X1501134Y-1193222D02*
X1501134Y-1297984D01*
X1501134Y-1193222D02*
X1510658Y-1174174D01*
X1510658Y-1174174D02*
X1529705Y-1164650D01*
X1529705Y-1164650D02*
X1558277Y-1164650D01*
X1558277Y-1164650D02*
X1577324Y-1174174D01*
X1577324Y-1174174D02*
X1586848Y-1193222D01*
X1586848Y-1193222D02*
X1586848Y-1297984D01*
X1682086Y-1297984D02*
X1682086Y-1164650D01*
X1682086Y-1183698D02*
X1691610Y-1174174D01*
X1691610Y-1174174D02*
X1710658Y-1164650D01*
X1710658Y-1164650D02*
X1739229Y-1164650D01*
X1739229Y-1164650D02*
X1758277Y-1174174D01*
X1758277Y-1174174D02*
X1767801Y-1193222D01*
X1767801Y-1193222D02*
X1767801Y-1297984D01*
X1767801Y-1193222D02*
X1777324Y-1174174D01*
X1777324Y-1174174D02*
X1796372Y-1164650D01*
X1796372Y-1164650D02*
X1824943Y-1164650D01*
X1824943Y-1164650D02*
X1843991Y-1174174D01*
X1843991Y-1174174D02*
X1853515Y-1193222D01*
X1853515Y-1193222D02*
X1853515Y-1297984D01*
X2243991Y-1088460D02*
X2072563Y-1345603D01*
X2501134Y-1097984D02*
X2520182Y-1097984D01*
X2520182Y-1097984D02*
X2539229Y-1107508D01*
X2539229Y-1107508D02*
X2548753Y-1117031D01*
X2548753Y-1117031D02*
X2558277Y-1136079D01*
X2558277Y-1136079D02*
X2567801Y-1174174D01*
X2567801Y-1174174D02*
X2567801Y-1221793D01*
X2567801Y-1221793D02*
X2558277Y-1259889D01*
X2558277Y-1259889D02*
X2548753Y-1278936D01*
X2548753Y-1278936D02*
X2539229Y-1288460D01*
X2539229Y-1288460D02*
X2520182Y-1297984D01*
X2520182Y-1297984D02*
X2501134Y-1297984D01*
X2501134Y-1297984D02*
X2482087Y-1288460D01*
X2482087Y-1288460D02*
X2472563Y-1278936D01*
X2472563Y-1278936D02*
X2463039Y-1259889D01*
X2463039Y-1259889D02*
X2453515Y-1221793D01*
X2453515Y-1221793D02*
X2453515Y-1174174D01*
X2453515Y-1174174D02*
X2463039Y-1136079D01*
X2463039Y-1136079D02*
X2472563Y-1117031D01*
X2472563Y-1117031D02*
X2482087Y-1107508D01*
X2482087Y-1107508D02*
X2501134Y-1097984D01*
X2653515Y-1278936D02*
X2663039Y-1288460D01*
X2663039Y-1288460D02*
X2653515Y-1297984D01*
X2653515Y-1297984D02*
X2643991Y-1288460D01*
X2643991Y-1288460D02*
X2653515Y-1278936D01*
X2653515Y-1278936D02*
X2653515Y-1297984D01*
X2786848Y-1097984D02*
X2805896Y-1097984D01*
X2805896Y-1097984D02*
X2824944Y-1107508D01*
X2824944Y-1107508D02*
X2834467Y-1117031D01*
X2834467Y-1117031D02*
X2843991Y-1136079D01*
X2843991Y-1136079D02*
X2853515Y-1174174D01*
X2853515Y-1174174D02*
X2853515Y-1221793D01*
X2853515Y-1221793D02*
X2843991Y-1259889D01*
X2843991Y-1259889D02*
X2834467Y-1278936D01*
X2834467Y-1278936D02*
X2824944Y-1288460D01*
X2824944Y-1288460D02*
X2805896Y-1297984D01*
X2805896Y-1297984D02*
X2786848Y-1297984D01*
X2786848Y-1297984D02*
X2767801Y-1288460D01*
X2767801Y-1288460D02*
X2758277Y-1278936D01*
X2758277Y-1278936D02*
X2748753Y-1259889D01*
X2748753Y-1259889D02*
X2739229Y-1221793D01*
X2739229Y-1221793D02*
X2739229Y-1174174D01*
X2739229Y-1174174D02*
X2748753Y-1136079D01*
X2748753Y-1136079D02*
X2758277Y-1117031D01*
X2758277Y-1117031D02*
X2767801Y-1107508D01*
X2767801Y-1107508D02*
X2786848Y-1097984D01*
X2977325Y-1097984D02*
X2996372Y-1097984D01*
X2996372Y-1097984D02*
X3015420Y-1107508D01*
X3015420Y-1107508D02*
X3024944Y-1117031D01*
X3024944Y-1117031D02*
X3034467Y-1136079D01*
X3034467Y-1136079D02*
X3043991Y-1174174D01*
X3043991Y-1174174D02*
X3043991Y-1221793D01*
X3043991Y-1221793D02*
X3034467Y-1259889D01*
X3034467Y-1259889D02*
X3024944Y-1278936D01*
X3024944Y-1278936D02*
X3015420Y-1288460D01*
X3015420Y-1288460D02*
X2996372Y-1297984D01*
X2996372Y-1297984D02*
X2977325Y-1297984D01*
X2977325Y-1297984D02*
X2958277Y-1288460D01*
X2958277Y-1288460D02*
X2948753Y-1278936D01*
X2948753Y-1278936D02*
X2939229Y-1259889D01*
X2939229Y-1259889D02*
X2929706Y-1221793D01*
X2929706Y-1221793D02*
X2929706Y-1174174D01*
X2929706Y-1174174D02*
X2939229Y-1136079D01*
X2939229Y-1136079D02*
X2948753Y-1117031D01*
X2948753Y-1117031D02*
X2958277Y-1107508D01*
X2958277Y-1107508D02*
X2977325Y-1097984D01*
X3139229Y-1297984D02*
X3177325Y-1297984D01*
X3177325Y-1297984D02*
X3196372Y-1288460D01*
X3196372Y-1288460D02*
X3205896Y-1278936D01*
X3205896Y-1278936D02*
X3224944Y-1250365D01*
X3224944Y-1250365D02*
X3234467Y-1212270D01*
X3234467Y-1212270D02*
X3234467Y-1136079D01*
X3234467Y-1136079D02*
X3224944Y-1117031D01*
X3224944Y-1117031D02*
X3215420Y-1107508D01*
X3215420Y-1107508D02*
X3196372Y-1097984D01*
X3196372Y-1097984D02*
X3158277Y-1097984D01*
X3158277Y-1097984D02*
X3139229Y-1107508D01*
X3139229Y-1107508D02*
X3129706Y-1117031D01*
X3129706Y-1117031D02*
X3120182Y-1136079D01*
X3120182Y-1136079D02*
X3120182Y-1183698D01*
X3120182Y-1183698D02*
X3129706Y-1202746D01*
X3129706Y-1202746D02*
X3139229Y-1212270D01*
X3139229Y-1212270D02*
X3158277Y-1221793D01*
X3158277Y-1221793D02*
X3196372Y-1221793D01*
X3196372Y-1221793D02*
X3215420Y-1212270D01*
X3215420Y-1212270D02*
X3224944Y-1202746D01*
X3224944Y-1202746D02*
X3234467Y-1183698D01*
X3348753Y-1183698D02*
X3329706Y-1174174D01*
X3329706Y-1174174D02*
X3320182Y-1164650D01*
X3320182Y-1164650D02*
X3310658Y-1145603D01*
X3310658Y-1145603D02*
X3310658Y-1136079D01*
X3310658Y-1136079D02*
X3320182Y-1117031D01*
X3320182Y-1117031D02*
X3329706Y-1107508D01*
X3329706Y-1107508D02*
X3348753Y-1097984D01*
X3348753Y-1097984D02*
X3386848Y-1097984D01*
X3386848Y-1097984D02*
X3405896Y-1107508D01*
X3405896Y-1107508D02*
X3415420Y-1117031D01*
X3415420Y-1117031D02*
X3424944Y-1136079D01*
X3424944Y-1136079D02*
X3424944Y-1145603D01*
X3424944Y-1145603D02*
X3415420Y-1164650D01*
X3415420Y-1164650D02*
X3405896Y-1174174D01*
X3405896Y-1174174D02*
X3386848Y-1183698D01*
X3386848Y-1183698D02*
X3348753Y-1183698D01*
X3348753Y-1183698D02*
X3329706Y-1193222D01*
X3329706Y-1193222D02*
X3320182Y-1202746D01*
X3320182Y-1202746D02*
X3310658Y-1221793D01*
X3310658Y-1221793D02*
X3310658Y-1259889D01*
X3310658Y-1259889D02*
X3320182Y-1278936D01*
X3320182Y-1278936D02*
X3329706Y-1288460D01*
X3329706Y-1288460D02*
X3348753Y-1297984D01*
X3348753Y-1297984D02*
X3386848Y-1297984D01*
X3386848Y-1297984D02*
X3405896Y-1288460D01*
X3405896Y-1288460D02*
X3415420Y-1278936D01*
X3415420Y-1278936D02*
X3424944Y-1259889D01*
X3424944Y-1259889D02*
X3424944Y-1221793D01*
X3424944Y-1221793D02*
X3415420Y-1202746D01*
X3415420Y-1202746D02*
X3405896Y-1193222D01*
X3405896Y-1193222D02*
X3386848Y-1183698D01*
X3501134Y-1097984D02*
X3501134Y-1136079D01*
X3577325Y-1097984D02*
X3577325Y-1136079D01*
X3872563Y-1374174D02*
X3863039Y-1364650D01*
X3863039Y-1364650D02*
X3843991Y-1336079D01*
X3843991Y-1336079D02*
X3834468Y-1317031D01*
X3834468Y-1317031D02*
X3824944Y-1288460D01*
X3824944Y-1288460D02*
X3815420Y-1240841D01*
X3815420Y-1240841D02*
X3815420Y-1202746D01*
X3815420Y-1202746D02*
X3824944Y-1155127D01*
X3824944Y-1155127D02*
X3834468Y-1126555D01*
X3834468Y-1126555D02*
X3843991Y-1107508D01*
X3843991Y-1107508D02*
X3863039Y-1078936D01*
X3863039Y-1078936D02*
X3872563Y-1069412D01*
X3939229Y-1117031D02*
X3948753Y-1107508D01*
X3948753Y-1107508D02*
X3967801Y-1097984D01*
X3967801Y-1097984D02*
X4015420Y-1097984D01*
X4015420Y-1097984D02*
X4034468Y-1107508D01*
X4034468Y-1107508D02*
X4043991Y-1117031D01*
X4043991Y-1117031D02*
X4053515Y-1136079D01*
X4053515Y-1136079D02*
X4053515Y-1155127D01*
X4053515Y-1155127D02*
X4043991Y-1183698D01*
X4043991Y-1183698D02*
X3929706Y-1297984D01*
X3929706Y-1297984D02*
X4053515Y-1297984D01*
X4291611Y-1297984D02*
X4291611Y-1097984D01*
X4377325Y-1297984D02*
X4377325Y-1193222D01*
X4377325Y-1193222D02*
X4367801Y-1174174D01*
X4367801Y-1174174D02*
X4348753Y-1164650D01*
X4348753Y-1164650D02*
X4320182Y-1164650D01*
X4320182Y-1164650D02*
X4301134Y-1174174D01*
X4301134Y-1174174D02*
X4291611Y-1183698D01*
X4501134Y-1297984D02*
X4482087Y-1288460D01*
X4482087Y-1288460D02*
X4472563Y-1278936D01*
X4472563Y-1278936D02*
X4463039Y-1259889D01*
X4463039Y-1259889D02*
X4463039Y-1202746D01*
X4463039Y-1202746D02*
X4472563Y-1183698D01*
X4472563Y-1183698D02*
X4482087Y-1174174D01*
X4482087Y-1174174D02*
X4501134Y-1164650D01*
X4501134Y-1164650D02*
X4529706Y-1164650D01*
X4529706Y-1164650D02*
X4548753Y-1174174D01*
X4548753Y-1174174D02*
X4558277Y-1183698D01*
X4558277Y-1183698D02*
X4567801Y-1202746D01*
X4567801Y-1202746D02*
X4567801Y-1259889D01*
X4567801Y-1259889D02*
X4558277Y-1278936D01*
X4558277Y-1278936D02*
X4548753Y-1288460D01*
X4548753Y-1288460D02*
X4529706Y-1297984D01*
X4529706Y-1297984D02*
X4501134Y-1297984D01*
X4682087Y-1297984D02*
X4663039Y-1288460D01*
X4663039Y-1288460D02*
X4653515Y-1269412D01*
X4653515Y-1269412D02*
X4653515Y-1097984D01*
X4834468Y-1288460D02*
X4815420Y-1297984D01*
X4815420Y-1297984D02*
X4777325Y-1297984D01*
X4777325Y-1297984D02*
X4758277Y-1288460D01*
X4758277Y-1288460D02*
X4748753Y-1269412D01*
X4748753Y-1269412D02*
X4748753Y-1193222D01*
X4748753Y-1193222D02*
X4758277Y-1174174D01*
X4758277Y-1174174D02*
X4777325Y-1164650D01*
X4777325Y-1164650D02*
X4815420Y-1164650D01*
X4815420Y-1164650D02*
X4834468Y-1174174D01*
X4834468Y-1174174D02*
X4843992Y-1193222D01*
X4843992Y-1193222D02*
X4843992Y-1212270D01*
X4843992Y-1212270D02*
X4748753Y-1231317D01*
X4920182Y-1288460D02*
X4939230Y-1297984D01*
X4939230Y-1297984D02*
X4977325Y-1297984D01*
X4977325Y-1297984D02*
X4996373Y-1288460D01*
X4996373Y-1288460D02*
X5005896Y-1269412D01*
X5005896Y-1269412D02*
X5005896Y-1259889D01*
X5005896Y-1259889D02*
X4996373Y-1240841D01*
X4996373Y-1240841D02*
X4977325Y-1231317D01*
X4977325Y-1231317D02*
X4948753Y-1231317D01*
X4948753Y-1231317D02*
X4929706Y-1221793D01*
X4929706Y-1221793D02*
X4920182Y-1202746D01*
X4920182Y-1202746D02*
X4920182Y-1193222D01*
X4920182Y-1193222D02*
X4929706Y-1174174D01*
X4929706Y-1174174D02*
X4948753Y-1164650D01*
X4948753Y-1164650D02*
X4977325Y-1164650D01*
X4977325Y-1164650D02*
X4996373Y-1174174D01*
X5072563Y-1374174D02*
X5082087Y-1364650D01*
X5082087Y-1364650D02*
X5101134Y-1336079D01*
X5101134Y-1336079D02*
X5110658Y-1317031D01*
X5110658Y-1317031D02*
X5120182Y-1288460D01*
X5120182Y-1288460D02*
X5129706Y-1240841D01*
X5129706Y-1240841D02*
X5129706Y-1202746D01*
X5129706Y-1202746D02*
X5120182Y-1155127D01*
X5120182Y-1155127D02*
X5110658Y-1126555D01*
X5110658Y-1126555D02*
X5101134Y-1107508D01*
X5101134Y-1107508D02*
X5082087Y-1078936D01*
X5082087Y-1078936D02*
X5072563Y-1069412D01*
D12*
X282500Y-1455500D02*
X282500Y-1485500D01*
X267500Y-1470500D02*
X297500Y-1470500D01*
D11*
X596372Y-1361984D02*
X615420Y-1361984D01*
X615420Y-1361984D02*
X634467Y-1371508D01*
X634467Y-1371508D02*
X643991Y-1381031D01*
X643991Y-1381031D02*
X653515Y-1400079D01*
X653515Y-1400079D02*
X663039Y-1438174D01*
X663039Y-1438174D02*
X663039Y-1485793D01*
X663039Y-1485793D02*
X653515Y-1523888D01*
X653515Y-1523888D02*
X643991Y-1542936D01*
X643991Y-1542936D02*
X634467Y-1552460D01*
X634467Y-1552460D02*
X615420Y-1561984D01*
X615420Y-1561984D02*
X596372Y-1561984D01*
X596372Y-1561984D02*
X577324Y-1552460D01*
X577324Y-1552460D02*
X567801Y-1542936D01*
X567801Y-1542936D02*
X558277Y-1523888D01*
X558277Y-1523888D02*
X548753Y-1485793D01*
X548753Y-1485793D02*
X548753Y-1438174D01*
X548753Y-1438174D02*
X558277Y-1400079D01*
X558277Y-1400079D02*
X567801Y-1381031D01*
X567801Y-1381031D02*
X577324Y-1371508D01*
X577324Y-1371508D02*
X596372Y-1361984D01*
X748753Y-1542936D02*
X758277Y-1552460D01*
X758277Y-1552460D02*
X748753Y-1561984D01*
X748753Y-1561984D02*
X739229Y-1552460D01*
X739229Y-1552460D02*
X748753Y-1542936D01*
X748753Y-1542936D02*
X748753Y-1561984D01*
X824943Y-1361984D02*
X948753Y-1361984D01*
X948753Y-1361984D02*
X882086Y-1438174D01*
X882086Y-1438174D02*
X910658Y-1438174D01*
X910658Y-1438174D02*
X929705Y-1447698D01*
X929705Y-1447698D02*
X939229Y-1457222D01*
X939229Y-1457222D02*
X948753Y-1476269D01*
X948753Y-1476269D02*
X948753Y-1523888D01*
X948753Y-1523888D02*
X939229Y-1542936D01*
X939229Y-1542936D02*
X929705Y-1552460D01*
X929705Y-1552460D02*
X910658Y-1561984D01*
X910658Y-1561984D02*
X853515Y-1561984D01*
X853515Y-1561984D02*
X834467Y-1552460D01*
X834467Y-1552460D02*
X824943Y-1542936D01*
X1072563Y-1361984D02*
X1091610Y-1361984D01*
X1091610Y-1361984D02*
X1110658Y-1371508D01*
X1110658Y-1371508D02*
X1120182Y-1381031D01*
X1120182Y-1381031D02*
X1129705Y-1400079D01*
X1129705Y-1400079D02*
X1139229Y-1438174D01*
X1139229Y-1438174D02*
X1139229Y-1485793D01*
X1139229Y-1485793D02*
X1129705Y-1523888D01*
X1129705Y-1523888D02*
X1120182Y-1542936D01*
X1120182Y-1542936D02*
X1110658Y-1552460D01*
X1110658Y-1552460D02*
X1091610Y-1561984D01*
X1091610Y-1561984D02*
X1072563Y-1561984D01*
X1072563Y-1561984D02*
X1053515Y-1552460D01*
X1053515Y-1552460D02*
X1043991Y-1542936D01*
X1043991Y-1542936D02*
X1034467Y-1523888D01*
X1034467Y-1523888D02*
X1024943Y-1485793D01*
X1024943Y-1485793D02*
X1024943Y-1438174D01*
X1024943Y-1438174D02*
X1034467Y-1400079D01*
X1034467Y-1400079D02*
X1043991Y-1381031D01*
X1043991Y-1381031D02*
X1053515Y-1371508D01*
X1053515Y-1371508D02*
X1072563Y-1361984D01*
X1263039Y-1361984D02*
X1282086Y-1361984D01*
X1282086Y-1361984D02*
X1301134Y-1371508D01*
X1301134Y-1371508D02*
X1310658Y-1381031D01*
X1310658Y-1381031D02*
X1320182Y-1400079D01*
X1320182Y-1400079D02*
X1329705Y-1438174D01*
X1329705Y-1438174D02*
X1329705Y-1485793D01*
X1329705Y-1485793D02*
X1320182Y-1523888D01*
X1320182Y-1523888D02*
X1310658Y-1542936D01*
X1310658Y-1542936D02*
X1301134Y-1552460D01*
X1301134Y-1552460D02*
X1282086Y-1561984D01*
X1282086Y-1561984D02*
X1263039Y-1561984D01*
X1263039Y-1561984D02*
X1243991Y-1552460D01*
X1243991Y-1552460D02*
X1234467Y-1542936D01*
X1234467Y-1542936D02*
X1224944Y-1523888D01*
X1224944Y-1523888D02*
X1215420Y-1485793D01*
X1215420Y-1485793D02*
X1215420Y-1438174D01*
X1215420Y-1438174D02*
X1224944Y-1400079D01*
X1224944Y-1400079D02*
X1234467Y-1381031D01*
X1234467Y-1381031D02*
X1243991Y-1371508D01*
X1243991Y-1371508D02*
X1263039Y-1361984D01*
X1415420Y-1561984D02*
X1415420Y-1428650D01*
X1415420Y-1447698D02*
X1424943Y-1438174D01*
X1424943Y-1438174D02*
X1443991Y-1428650D01*
X1443991Y-1428650D02*
X1472563Y-1428650D01*
X1472563Y-1428650D02*
X1491610Y-1438174D01*
X1491610Y-1438174D02*
X1501134Y-1457222D01*
X1501134Y-1457222D02*
X1501134Y-1561984D01*
X1501134Y-1457222D02*
X1510658Y-1438174D01*
X1510658Y-1438174D02*
X1529705Y-1428650D01*
X1529705Y-1428650D02*
X1558277Y-1428650D01*
X1558277Y-1428650D02*
X1577324Y-1438174D01*
X1577324Y-1438174D02*
X1586848Y-1457222D01*
X1586848Y-1457222D02*
X1586848Y-1561984D01*
X1682086Y-1561984D02*
X1682086Y-1428650D01*
X1682086Y-1447698D02*
X1691610Y-1438174D01*
X1691610Y-1438174D02*
X1710658Y-1428650D01*
X1710658Y-1428650D02*
X1739229Y-1428650D01*
X1739229Y-1428650D02*
X1758277Y-1438174D01*
X1758277Y-1438174D02*
X1767801Y-1457222D01*
X1767801Y-1457222D02*
X1767801Y-1561984D01*
X1767801Y-1457222D02*
X1777324Y-1438174D01*
X1777324Y-1438174D02*
X1796372Y-1428650D01*
X1796372Y-1428650D02*
X1824943Y-1428650D01*
X1824943Y-1428650D02*
X1843991Y-1438174D01*
X1843991Y-1438174D02*
X1853515Y-1457222D01*
X1853515Y-1457222D02*
X1853515Y-1561984D01*
X2243991Y-1352460D02*
X2072563Y-1609603D01*
X2501134Y-1361984D02*
X2520182Y-1361984D01*
X2520182Y-1361984D02*
X2539229Y-1371508D01*
X2539229Y-1371508D02*
X2548753Y-1381031D01*
X2548753Y-1381031D02*
X2558277Y-1400079D01*
X2558277Y-1400079D02*
X2567801Y-1438174D01*
X2567801Y-1438174D02*
X2567801Y-1485793D01*
X2567801Y-1485793D02*
X2558277Y-1523888D01*
X2558277Y-1523888D02*
X2548753Y-1542936D01*
X2548753Y-1542936D02*
X2539229Y-1552460D01*
X2539229Y-1552460D02*
X2520182Y-1561984D01*
X2520182Y-1561984D02*
X2501134Y-1561984D01*
X2501134Y-1561984D02*
X2482087Y-1552460D01*
X2482087Y-1552460D02*
X2472563Y-1542936D01*
X2472563Y-1542936D02*
X2463039Y-1523888D01*
X2463039Y-1523888D02*
X2453515Y-1485793D01*
X2453515Y-1485793D02*
X2453515Y-1438174D01*
X2453515Y-1438174D02*
X2463039Y-1400079D01*
X2463039Y-1400079D02*
X2472563Y-1381031D01*
X2472563Y-1381031D02*
X2482087Y-1371508D01*
X2482087Y-1371508D02*
X2501134Y-1361984D01*
X2653515Y-1542936D02*
X2663039Y-1552460D01*
X2663039Y-1552460D02*
X2653515Y-1561984D01*
X2653515Y-1561984D02*
X2643991Y-1552460D01*
X2643991Y-1552460D02*
X2653515Y-1542936D01*
X2653515Y-1542936D02*
X2653515Y-1561984D01*
X2786848Y-1361984D02*
X2805896Y-1361984D01*
X2805896Y-1361984D02*
X2824944Y-1371508D01*
X2824944Y-1371508D02*
X2834467Y-1381031D01*
X2834467Y-1381031D02*
X2843991Y-1400079D01*
X2843991Y-1400079D02*
X2853515Y-1438174D01*
X2853515Y-1438174D02*
X2853515Y-1485793D01*
X2853515Y-1485793D02*
X2843991Y-1523888D01*
X2843991Y-1523888D02*
X2834467Y-1542936D01*
X2834467Y-1542936D02*
X2824944Y-1552460D01*
X2824944Y-1552460D02*
X2805896Y-1561984D01*
X2805896Y-1561984D02*
X2786848Y-1561984D01*
X2786848Y-1561984D02*
X2767801Y-1552460D01*
X2767801Y-1552460D02*
X2758277Y-1542936D01*
X2758277Y-1542936D02*
X2748753Y-1523888D01*
X2748753Y-1523888D02*
X2739229Y-1485793D01*
X2739229Y-1485793D02*
X2739229Y-1438174D01*
X2739229Y-1438174D02*
X2748753Y-1400079D01*
X2748753Y-1400079D02*
X2758277Y-1381031D01*
X2758277Y-1381031D02*
X2767801Y-1371508D01*
X2767801Y-1371508D02*
X2786848Y-1361984D01*
X3043991Y-1561984D02*
X2929706Y-1561984D01*
X2986848Y-1561984D02*
X2986848Y-1361984D01*
X2986848Y-1361984D02*
X2967801Y-1390555D01*
X2967801Y-1390555D02*
X2948753Y-1409603D01*
X2948753Y-1409603D02*
X2929706Y-1419127D01*
X3234467Y-1561984D02*
X3120182Y-1561984D01*
X3177325Y-1561984D02*
X3177325Y-1361984D01*
X3177325Y-1361984D02*
X3158277Y-1390555D01*
X3158277Y-1390555D02*
X3139229Y-1409603D01*
X3139229Y-1409603D02*
X3120182Y-1419127D01*
X3348753Y-1447698D02*
X3329706Y-1438174D01*
X3329706Y-1438174D02*
X3320182Y-1428650D01*
X3320182Y-1428650D02*
X3310658Y-1409603D01*
X3310658Y-1409603D02*
X3310658Y-1400079D01*
X3310658Y-1400079D02*
X3320182Y-1381031D01*
X3320182Y-1381031D02*
X3329706Y-1371508D01*
X3329706Y-1371508D02*
X3348753Y-1361984D01*
X3348753Y-1361984D02*
X3386848Y-1361984D01*
X3386848Y-1361984D02*
X3405896Y-1371508D01*
X3405896Y-1371508D02*
X3415420Y-1381031D01*
X3415420Y-1381031D02*
X3424944Y-1400079D01*
X3424944Y-1400079D02*
X3424944Y-1409603D01*
X3424944Y-1409603D02*
X3415420Y-1428650D01*
X3415420Y-1428650D02*
X3405896Y-1438174D01*
X3405896Y-1438174D02*
X3386848Y-1447698D01*
X3386848Y-1447698D02*
X3348753Y-1447698D01*
X3348753Y-1447698D02*
X3329706Y-1457222D01*
X3329706Y-1457222D02*
X3320182Y-1466746D01*
X3320182Y-1466746D02*
X3310658Y-1485793D01*
X3310658Y-1485793D02*
X3310658Y-1523888D01*
X3310658Y-1523888D02*
X3320182Y-1542936D01*
X3320182Y-1542936D02*
X3329706Y-1552460D01*
X3329706Y-1552460D02*
X3348753Y-1561984D01*
X3348753Y-1561984D02*
X3386848Y-1561984D01*
X3386848Y-1561984D02*
X3405896Y-1552460D01*
X3405896Y-1552460D02*
X3415420Y-1542936D01*
X3415420Y-1542936D02*
X3424944Y-1523888D01*
X3424944Y-1523888D02*
X3424944Y-1485793D01*
X3424944Y-1485793D02*
X3415420Y-1466746D01*
X3415420Y-1466746D02*
X3405896Y-1457222D01*
X3405896Y-1457222D02*
X3386848Y-1447698D01*
X3501134Y-1361984D02*
X3501134Y-1400079D01*
X3577325Y-1361984D02*
X3577325Y-1400079D01*
X3872563Y-1638174D02*
X3863039Y-1628650D01*
X3863039Y-1628650D02*
X3843991Y-1600079D01*
X3843991Y-1600079D02*
X3834468Y-1581031D01*
X3834468Y-1581031D02*
X3824944Y-1552460D01*
X3824944Y-1552460D02*
X3815420Y-1504841D01*
X3815420Y-1504841D02*
X3815420Y-1466746D01*
X3815420Y-1466746D02*
X3824944Y-1419127D01*
X3824944Y-1419127D02*
X3834468Y-1390555D01*
X3834468Y-1390555D02*
X3843991Y-1371508D01*
X3843991Y-1371508D02*
X3863039Y-1342936D01*
X3863039Y-1342936D02*
X3872563Y-1333412D01*
X3939229Y-1381031D02*
X3948753Y-1371508D01*
X3948753Y-1371508D02*
X3967801Y-1361984D01*
X3967801Y-1361984D02*
X4015420Y-1361984D01*
X4015420Y-1361984D02*
X4034468Y-1371508D01*
X4034468Y-1371508D02*
X4043991Y-1381031D01*
X4043991Y-1381031D02*
X4053515Y-1400079D01*
X4053515Y-1400079D02*
X4053515Y-1419127D01*
X4053515Y-1419127D02*
X4043991Y-1447698D01*
X4043991Y-1447698D02*
X3929706Y-1561984D01*
X3929706Y-1561984D02*
X4053515Y-1561984D01*
X4234468Y-1361984D02*
X4139229Y-1361984D01*
X4139229Y-1361984D02*
X4129706Y-1457222D01*
X4129706Y-1457222D02*
X4139229Y-1447698D01*
X4139229Y-1447698D02*
X4158277Y-1438174D01*
X4158277Y-1438174D02*
X4205896Y-1438174D01*
X4205896Y-1438174D02*
X4224944Y-1447698D01*
X4224944Y-1447698D02*
X4234468Y-1457222D01*
X4234468Y-1457222D02*
X4243991Y-1476269D01*
X4243991Y-1476269D02*
X4243991Y-1523888D01*
X4243991Y-1523888D02*
X4234468Y-1542936D01*
X4234468Y-1542936D02*
X4224944Y-1552460D01*
X4224944Y-1552460D02*
X4205896Y-1561984D01*
X4205896Y-1561984D02*
X4158277Y-1561984D01*
X4158277Y-1561984D02*
X4139229Y-1552460D01*
X4139229Y-1552460D02*
X4129706Y-1542936D01*
X4310658Y-1361984D02*
X4434468Y-1361984D01*
X4434468Y-1361984D02*
X4367801Y-1438174D01*
X4367801Y-1438174D02*
X4396372Y-1438174D01*
X4396372Y-1438174D02*
X4415420Y-1447698D01*
X4415420Y-1447698D02*
X4424944Y-1457222D01*
X4424944Y-1457222D02*
X4434468Y-1476269D01*
X4434468Y-1476269D02*
X4434468Y-1523888D01*
X4434468Y-1523888D02*
X4424944Y-1542936D01*
X4424944Y-1542936D02*
X4415420Y-1552460D01*
X4415420Y-1552460D02*
X4396372Y-1561984D01*
X4396372Y-1561984D02*
X4339230Y-1561984D01*
X4339230Y-1561984D02*
X4320182Y-1552460D01*
X4320182Y-1552460D02*
X4310658Y-1542936D01*
X4672563Y-1561984D02*
X4672563Y-1361984D01*
X4758277Y-1561984D02*
X4758277Y-1457222D01*
X4758277Y-1457222D02*
X4748753Y-1438174D01*
X4748753Y-1438174D02*
X4729706Y-1428650D01*
X4729706Y-1428650D02*
X4701134Y-1428650D01*
X4701134Y-1428650D02*
X4682087Y-1438174D01*
X4682087Y-1438174D02*
X4672563Y-1447698D01*
X4882087Y-1561984D02*
X4863039Y-1552460D01*
X4863039Y-1552460D02*
X4853515Y-1542936D01*
X4853515Y-1542936D02*
X4843992Y-1523888D01*
X4843992Y-1523888D02*
X4843992Y-1466746D01*
X4843992Y-1466746D02*
X4853515Y-1447698D01*
X4853515Y-1447698D02*
X4863039Y-1438174D01*
X4863039Y-1438174D02*
X4882087Y-1428650D01*
X4882087Y-1428650D02*
X4910658Y-1428650D01*
X4910658Y-1428650D02*
X4929706Y-1438174D01*
X4929706Y-1438174D02*
X4939230Y-1447698D01*
X4939230Y-1447698D02*
X4948753Y-1466746D01*
X4948753Y-1466746D02*
X4948753Y-1523888D01*
X4948753Y-1523888D02*
X4939230Y-1542936D01*
X4939230Y-1542936D02*
X4929706Y-1552460D01*
X4929706Y-1552460D02*
X4910658Y-1561984D01*
X4910658Y-1561984D02*
X4882087Y-1561984D01*
X5063039Y-1561984D02*
X5043992Y-1552460D01*
X5043992Y-1552460D02*
X5034468Y-1533412D01*
X5034468Y-1533412D02*
X5034468Y-1361984D01*
X5215420Y-1552460D02*
X5196373Y-1561984D01*
X5196373Y-1561984D02*
X5158277Y-1561984D01*
X5158277Y-1561984D02*
X5139230Y-1552460D01*
X5139230Y-1552460D02*
X5129706Y-1533412D01*
X5129706Y-1533412D02*
X5129706Y-1457222D01*
X5129706Y-1457222D02*
X5139230Y-1438174D01*
X5139230Y-1438174D02*
X5158277Y-1428650D01*
X5158277Y-1428650D02*
X5196373Y-1428650D01*
X5196373Y-1428650D02*
X5215420Y-1438174D01*
X5215420Y-1438174D02*
X5224944Y-1457222D01*
X5224944Y-1457222D02*
X5224944Y-1476269D01*
X5224944Y-1476269D02*
X5129706Y-1495317D01*
X5301134Y-1552460D02*
X5320182Y-1561984D01*
X5320182Y-1561984D02*
X5358277Y-1561984D01*
X5358277Y-1561984D02*
X5377325Y-1552460D01*
X5377325Y-1552460D02*
X5386849Y-1533412D01*
X5386849Y-1533412D02*
X5386849Y-1523888D01*
X5386849Y-1523888D02*
X5377325Y-1504841D01*
X5377325Y-1504841D02*
X5358277Y-1495317D01*
X5358277Y-1495317D02*
X5329706Y-1495317D01*
X5329706Y-1495317D02*
X5310658Y-1485793D01*
X5310658Y-1485793D02*
X5301134Y-1466746D01*
X5301134Y-1466746D02*
X5301134Y-1457222D01*
X5301134Y-1457222D02*
X5310658Y-1438174D01*
X5310658Y-1438174D02*
X5329706Y-1428650D01*
X5329706Y-1428650D02*
X5358277Y-1428650D01*
X5358277Y-1428650D02*
X5377325Y-1438174D01*
X5453515Y-1638174D02*
X5463039Y-1628650D01*
X5463039Y-1628650D02*
X5482087Y-1600079D01*
X5482087Y-1600079D02*
X5491611Y-1581031D01*
X5491611Y-1581031D02*
X5501134Y-1552460D01*
X5501134Y-1552460D02*
X5510658Y-1504841D01*
X5510658Y-1504841D02*
X5510658Y-1466746D01*
X5510658Y-1466746D02*
X5501134Y-1419127D01*
X5501134Y-1419127D02*
X5491611Y-1390555D01*
X5491611Y-1390555D02*
X5482087Y-1371508D01*
X5482087Y-1371508D02*
X5463039Y-1342936D01*
X5463039Y-1342936D02*
X5453515Y-1333412D01*
D12*
X291642Y-1748642D02*
X291642Y-1720358D01*
X263358Y-1720358D01*
X263358Y-1748642D01*
X291642Y-1748642D01*
D11*
X596372Y-1625984D02*
X615420Y-1625984D01*
X615420Y-1625984D02*
X634467Y-1635508D01*
X634467Y-1635508D02*
X643991Y-1645031D01*
X643991Y-1645031D02*
X653515Y-1664079D01*
X653515Y-1664079D02*
X663039Y-1702174D01*
X663039Y-1702174D02*
X663039Y-1749793D01*
X663039Y-1749793D02*
X653515Y-1787888D01*
X653515Y-1787888D02*
X643991Y-1806936D01*
X643991Y-1806936D02*
X634467Y-1816460D01*
X634467Y-1816460D02*
X615420Y-1825984D01*
X615420Y-1825984D02*
X596372Y-1825984D01*
X596372Y-1825984D02*
X577324Y-1816460D01*
X577324Y-1816460D02*
X567801Y-1806936D01*
X567801Y-1806936D02*
X558277Y-1787888D01*
X558277Y-1787888D02*
X548753Y-1749793D01*
X548753Y-1749793D02*
X548753Y-1702174D01*
X548753Y-1702174D02*
X558277Y-1664079D01*
X558277Y-1664079D02*
X567801Y-1645031D01*
X567801Y-1645031D02*
X577324Y-1635508D01*
X577324Y-1635508D02*
X596372Y-1625984D01*
X748753Y-1806936D02*
X758277Y-1816460D01*
X758277Y-1816460D02*
X748753Y-1825984D01*
X748753Y-1825984D02*
X739229Y-1816460D01*
X739229Y-1816460D02*
X748753Y-1806936D01*
X748753Y-1806936D02*
X748753Y-1825984D01*
X929705Y-1692650D02*
X929705Y-1825984D01*
X882086Y-1616460D02*
X834467Y-1759317D01*
X834467Y-1759317D02*
X958277Y-1759317D01*
X1072563Y-1625984D02*
X1091610Y-1625984D01*
X1091610Y-1625984D02*
X1110658Y-1635508D01*
X1110658Y-1635508D02*
X1120182Y-1645031D01*
X1120182Y-1645031D02*
X1129705Y-1664079D01*
X1129705Y-1664079D02*
X1139229Y-1702174D01*
X1139229Y-1702174D02*
X1139229Y-1749793D01*
X1139229Y-1749793D02*
X1129705Y-1787888D01*
X1129705Y-1787888D02*
X1120182Y-1806936D01*
X1120182Y-1806936D02*
X1110658Y-1816460D01*
X1110658Y-1816460D02*
X1091610Y-1825984D01*
X1091610Y-1825984D02*
X1072563Y-1825984D01*
X1072563Y-1825984D02*
X1053515Y-1816460D01*
X1053515Y-1816460D02*
X1043991Y-1806936D01*
X1043991Y-1806936D02*
X1034467Y-1787888D01*
X1034467Y-1787888D02*
X1024943Y-1749793D01*
X1024943Y-1749793D02*
X1024943Y-1702174D01*
X1024943Y-1702174D02*
X1034467Y-1664079D01*
X1034467Y-1664079D02*
X1043991Y-1645031D01*
X1043991Y-1645031D02*
X1053515Y-1635508D01*
X1053515Y-1635508D02*
X1072563Y-1625984D01*
X1263039Y-1625984D02*
X1282086Y-1625984D01*
X1282086Y-1625984D02*
X1301134Y-1635508D01*
X1301134Y-1635508D02*
X1310658Y-1645031D01*
X1310658Y-1645031D02*
X1320182Y-1664079D01*
X1320182Y-1664079D02*
X1329705Y-1702174D01*
X1329705Y-1702174D02*
X1329705Y-1749793D01*
X1329705Y-1749793D02*
X1320182Y-1787888D01*
X1320182Y-1787888D02*
X1310658Y-1806936D01*
X1310658Y-1806936D02*
X1301134Y-1816460D01*
X1301134Y-1816460D02*
X1282086Y-1825984D01*
X1282086Y-1825984D02*
X1263039Y-1825984D01*
X1263039Y-1825984D02*
X1243991Y-1816460D01*
X1243991Y-1816460D02*
X1234467Y-1806936D01*
X1234467Y-1806936D02*
X1224944Y-1787888D01*
X1224944Y-1787888D02*
X1215420Y-1749793D01*
X1215420Y-1749793D02*
X1215420Y-1702174D01*
X1215420Y-1702174D02*
X1224944Y-1664079D01*
X1224944Y-1664079D02*
X1234467Y-1645031D01*
X1234467Y-1645031D02*
X1243991Y-1635508D01*
X1243991Y-1635508D02*
X1263039Y-1625984D01*
X1415420Y-1825984D02*
X1415420Y-1692650D01*
X1415420Y-1711698D02*
X1424943Y-1702174D01*
X1424943Y-1702174D02*
X1443991Y-1692650D01*
X1443991Y-1692650D02*
X1472563Y-1692650D01*
X1472563Y-1692650D02*
X1491610Y-1702174D01*
X1491610Y-1702174D02*
X1501134Y-1721222D01*
X1501134Y-1721222D02*
X1501134Y-1825984D01*
X1501134Y-1721222D02*
X1510658Y-1702174D01*
X1510658Y-1702174D02*
X1529705Y-1692650D01*
X1529705Y-1692650D02*
X1558277Y-1692650D01*
X1558277Y-1692650D02*
X1577324Y-1702174D01*
X1577324Y-1702174D02*
X1586848Y-1721222D01*
X1586848Y-1721222D02*
X1586848Y-1825984D01*
X1682086Y-1825984D02*
X1682086Y-1692650D01*
X1682086Y-1711698D02*
X1691610Y-1702174D01*
X1691610Y-1702174D02*
X1710658Y-1692650D01*
X1710658Y-1692650D02*
X1739229Y-1692650D01*
X1739229Y-1692650D02*
X1758277Y-1702174D01*
X1758277Y-1702174D02*
X1767801Y-1721222D01*
X1767801Y-1721222D02*
X1767801Y-1825984D01*
X1767801Y-1721222D02*
X1777324Y-1702174D01*
X1777324Y-1702174D02*
X1796372Y-1692650D01*
X1796372Y-1692650D02*
X1824943Y-1692650D01*
X1824943Y-1692650D02*
X1843991Y-1702174D01*
X1843991Y-1702174D02*
X1853515Y-1721222D01*
X1853515Y-1721222D02*
X1853515Y-1825984D01*
X2243991Y-1616460D02*
X2072563Y-1873603D01*
X2501134Y-1625984D02*
X2520182Y-1625984D01*
X2520182Y-1625984D02*
X2539229Y-1635508D01*
X2539229Y-1635508D02*
X2548753Y-1645031D01*
X2548753Y-1645031D02*
X2558277Y-1664079D01*
X2558277Y-1664079D02*
X2567801Y-1702174D01*
X2567801Y-1702174D02*
X2567801Y-1749793D01*
X2567801Y-1749793D02*
X2558277Y-1787888D01*
X2558277Y-1787888D02*
X2548753Y-1806936D01*
X2548753Y-1806936D02*
X2539229Y-1816460D01*
X2539229Y-1816460D02*
X2520182Y-1825984D01*
X2520182Y-1825984D02*
X2501134Y-1825984D01*
X2501134Y-1825984D02*
X2482087Y-1816460D01*
X2482087Y-1816460D02*
X2472563Y-1806936D01*
X2472563Y-1806936D02*
X2463039Y-1787888D01*
X2463039Y-1787888D02*
X2453515Y-1749793D01*
X2453515Y-1749793D02*
X2453515Y-1702174D01*
X2453515Y-1702174D02*
X2463039Y-1664079D01*
X2463039Y-1664079D02*
X2472563Y-1645031D01*
X2472563Y-1645031D02*
X2482087Y-1635508D01*
X2482087Y-1635508D02*
X2501134Y-1625984D01*
X2653515Y-1806936D02*
X2663039Y-1816460D01*
X2663039Y-1816460D02*
X2653515Y-1825984D01*
X2653515Y-1825984D02*
X2643991Y-1816460D01*
X2643991Y-1816460D02*
X2653515Y-1806936D01*
X2653515Y-1806936D02*
X2653515Y-1825984D01*
X2786848Y-1625984D02*
X2805896Y-1625984D01*
X2805896Y-1625984D02*
X2824944Y-1635508D01*
X2824944Y-1635508D02*
X2834467Y-1645031D01*
X2834467Y-1645031D02*
X2843991Y-1664079D01*
X2843991Y-1664079D02*
X2853515Y-1702174D01*
X2853515Y-1702174D02*
X2853515Y-1749793D01*
X2853515Y-1749793D02*
X2843991Y-1787888D01*
X2843991Y-1787888D02*
X2834467Y-1806936D01*
X2834467Y-1806936D02*
X2824944Y-1816460D01*
X2824944Y-1816460D02*
X2805896Y-1825984D01*
X2805896Y-1825984D02*
X2786848Y-1825984D01*
X2786848Y-1825984D02*
X2767801Y-1816460D01*
X2767801Y-1816460D02*
X2758277Y-1806936D01*
X2758277Y-1806936D02*
X2748753Y-1787888D01*
X2748753Y-1787888D02*
X2739229Y-1749793D01*
X2739229Y-1749793D02*
X2739229Y-1702174D01*
X2739229Y-1702174D02*
X2748753Y-1664079D01*
X2748753Y-1664079D02*
X2758277Y-1645031D01*
X2758277Y-1645031D02*
X2767801Y-1635508D01*
X2767801Y-1635508D02*
X2786848Y-1625984D01*
X3043991Y-1825984D02*
X2929706Y-1825984D01*
X2986848Y-1825984D02*
X2986848Y-1625984D01*
X2986848Y-1625984D02*
X2967801Y-1654555D01*
X2967801Y-1654555D02*
X2948753Y-1673603D01*
X2948753Y-1673603D02*
X2929706Y-1683127D01*
X3224944Y-1625984D02*
X3129706Y-1625984D01*
X3129706Y-1625984D02*
X3120182Y-1721222D01*
X3120182Y-1721222D02*
X3129706Y-1711698D01*
X3129706Y-1711698D02*
X3148753Y-1702174D01*
X3148753Y-1702174D02*
X3196372Y-1702174D01*
X3196372Y-1702174D02*
X3215420Y-1711698D01*
X3215420Y-1711698D02*
X3224944Y-1721222D01*
X3224944Y-1721222D02*
X3234467Y-1740269D01*
X3234467Y-1740269D02*
X3234467Y-1787888D01*
X3234467Y-1787888D02*
X3224944Y-1806936D01*
X3224944Y-1806936D02*
X3215420Y-1816460D01*
X3215420Y-1816460D02*
X3196372Y-1825984D01*
X3196372Y-1825984D02*
X3148753Y-1825984D01*
X3148753Y-1825984D02*
X3129706Y-1816460D01*
X3129706Y-1816460D02*
X3120182Y-1806936D01*
X3301134Y-1625984D02*
X3434467Y-1625984D01*
X3434467Y-1625984D02*
X3348753Y-1825984D01*
X3501134Y-1625984D02*
X3501134Y-1664079D01*
X3577325Y-1625984D02*
X3577325Y-1664079D01*
X3872563Y-1902174D02*
X3863039Y-1892650D01*
X3863039Y-1892650D02*
X3843991Y-1864079D01*
X3843991Y-1864079D02*
X3834468Y-1845031D01*
X3834468Y-1845031D02*
X3824944Y-1816460D01*
X3824944Y-1816460D02*
X3815420Y-1768841D01*
X3815420Y-1768841D02*
X3815420Y-1730746D01*
X3815420Y-1730746D02*
X3824944Y-1683127D01*
X3824944Y-1683127D02*
X3834468Y-1654555D01*
X3834468Y-1654555D02*
X3843991Y-1635508D01*
X3843991Y-1635508D02*
X3863039Y-1606936D01*
X3863039Y-1606936D02*
X3872563Y-1597412D01*
X4043991Y-1625984D02*
X3948753Y-1625984D01*
X3948753Y-1625984D02*
X3939229Y-1721222D01*
X3939229Y-1721222D02*
X3948753Y-1711698D01*
X3948753Y-1711698D02*
X3967801Y-1702174D01*
X3967801Y-1702174D02*
X4015420Y-1702174D01*
X4015420Y-1702174D02*
X4034468Y-1711698D01*
X4034468Y-1711698D02*
X4043991Y-1721222D01*
X4043991Y-1721222D02*
X4053515Y-1740269D01*
X4053515Y-1740269D02*
X4053515Y-1787888D01*
X4053515Y-1787888D02*
X4043991Y-1806936D01*
X4043991Y-1806936D02*
X4034468Y-1816460D01*
X4034468Y-1816460D02*
X4015420Y-1825984D01*
X4015420Y-1825984D02*
X3967801Y-1825984D01*
X3967801Y-1825984D02*
X3948753Y-1816460D01*
X3948753Y-1816460D02*
X3939229Y-1806936D01*
X4234468Y-1625984D02*
X4139229Y-1625984D01*
X4139229Y-1625984D02*
X4129706Y-1721222D01*
X4129706Y-1721222D02*
X4139229Y-1711698D01*
X4139229Y-1711698D02*
X4158277Y-1702174D01*
X4158277Y-1702174D02*
X4205896Y-1702174D01*
X4205896Y-1702174D02*
X4224944Y-1711698D01*
X4224944Y-1711698D02*
X4234468Y-1721222D01*
X4234468Y-1721222D02*
X4243991Y-1740269D01*
X4243991Y-1740269D02*
X4243991Y-1787888D01*
X4243991Y-1787888D02*
X4234468Y-1806936D01*
X4234468Y-1806936D02*
X4224944Y-1816460D01*
X4224944Y-1816460D02*
X4205896Y-1825984D01*
X4205896Y-1825984D02*
X4158277Y-1825984D01*
X4158277Y-1825984D02*
X4139229Y-1816460D01*
X4139229Y-1816460D02*
X4129706Y-1806936D01*
X4482087Y-1825984D02*
X4482087Y-1625984D01*
X4567801Y-1825984D02*
X4567801Y-1721222D01*
X4567801Y-1721222D02*
X4558277Y-1702174D01*
X4558277Y-1702174D02*
X4539230Y-1692650D01*
X4539230Y-1692650D02*
X4510658Y-1692650D01*
X4510658Y-1692650D02*
X4491611Y-1702174D01*
X4491611Y-1702174D02*
X4482087Y-1711698D01*
X4691611Y-1825984D02*
X4672563Y-1816460D01*
X4672563Y-1816460D02*
X4663039Y-1806936D01*
X4663039Y-1806936D02*
X4653515Y-1787888D01*
X4653515Y-1787888D02*
X4653515Y-1730746D01*
X4653515Y-1730746D02*
X4663039Y-1711698D01*
X4663039Y-1711698D02*
X4672563Y-1702174D01*
X4672563Y-1702174D02*
X4691611Y-1692650D01*
X4691611Y-1692650D02*
X4720182Y-1692650D01*
X4720182Y-1692650D02*
X4739230Y-1702174D01*
X4739230Y-1702174D02*
X4748753Y-1711698D01*
X4748753Y-1711698D02*
X4758277Y-1730746D01*
X4758277Y-1730746D02*
X4758277Y-1787888D01*
X4758277Y-1787888D02*
X4748753Y-1806936D01*
X4748753Y-1806936D02*
X4739230Y-1816460D01*
X4739230Y-1816460D02*
X4720182Y-1825984D01*
X4720182Y-1825984D02*
X4691611Y-1825984D01*
X4872563Y-1825984D02*
X4853515Y-1816460D01*
X4853515Y-1816460D02*
X4843992Y-1797412D01*
X4843992Y-1797412D02*
X4843992Y-1625984D01*
X5024944Y-1816460D02*
X5005896Y-1825984D01*
X5005896Y-1825984D02*
X4967801Y-1825984D01*
X4967801Y-1825984D02*
X4948753Y-1816460D01*
X4948753Y-1816460D02*
X4939230Y-1797412D01*
X4939230Y-1797412D02*
X4939230Y-1721222D01*
X4939230Y-1721222D02*
X4948753Y-1702174D01*
X4948753Y-1702174D02*
X4967801Y-1692650D01*
X4967801Y-1692650D02*
X5005896Y-1692650D01*
X5005896Y-1692650D02*
X5024944Y-1702174D01*
X5024944Y-1702174D02*
X5034468Y-1721222D01*
X5034468Y-1721222D02*
X5034468Y-1740269D01*
X5034468Y-1740269D02*
X4939230Y-1759317D01*
X5110658Y-1816460D02*
X5129706Y-1825984D01*
X5129706Y-1825984D02*
X5167801Y-1825984D01*
X5167801Y-1825984D02*
X5186849Y-1816460D01*
X5186849Y-1816460D02*
X5196373Y-1797412D01*
X5196373Y-1797412D02*
X5196373Y-1787888D01*
X5196373Y-1787888D02*
X5186849Y-1768841D01*
X5186849Y-1768841D02*
X5167801Y-1759317D01*
X5167801Y-1759317D02*
X5139230Y-1759317D01*
X5139230Y-1759317D02*
X5120182Y-1749793D01*
X5120182Y-1749793D02*
X5110658Y-1730746D01*
X5110658Y-1730746D02*
X5110658Y-1721222D01*
X5110658Y-1721222D02*
X5120182Y-1702174D01*
X5120182Y-1702174D02*
X5139230Y-1692650D01*
X5139230Y-1692650D02*
X5167801Y-1692650D01*
X5167801Y-1692650D02*
X5186849Y-1702174D01*
X5263039Y-1902174D02*
X5272563Y-1892650D01*
X5272563Y-1892650D02*
X5291611Y-1864079D01*
X5291611Y-1864079D02*
X5301134Y-1845031D01*
X5301134Y-1845031D02*
X5310658Y-1816460D01*
X5310658Y-1816460D02*
X5320182Y-1768841D01*
X5320182Y-1768841D02*
X5320182Y-1730746D01*
X5320182Y-1730746D02*
X5310658Y-1683127D01*
X5310658Y-1683127D02*
X5301134Y-1654555D01*
X5301134Y-1654555D02*
X5291611Y-1635508D01*
X5291611Y-1635508D02*
X5272563Y-1606936D01*
X5272563Y-1606936D02*
X5263039Y-1597412D01*
D13*
X237500Y-2058500D02*
X297500Y-1998500D01*
X237500Y-1938500D01*
X177500Y-1998500D01*
X237500Y-2058500D01*
D11*
X663039Y-2089984D02*
X548753Y-2089984D01*
X605896Y-2089984D02*
X605896Y-1889984D01*
X605896Y-1889984D02*
X586848Y-1918555D01*
X586848Y-1918555D02*
X567801Y-1937603D01*
X567801Y-1937603D02*
X548753Y-1947127D01*
X748753Y-2070936D02*
X758277Y-2080460D01*
X758277Y-2080460D02*
X748753Y-2089984D01*
X748753Y-2089984D02*
X739229Y-2080460D01*
X739229Y-2080460D02*
X748753Y-2070936D01*
X748753Y-2070936D02*
X748753Y-2089984D01*
X834467Y-1909031D02*
X843991Y-1899508D01*
X843991Y-1899508D02*
X863039Y-1889984D01*
X863039Y-1889984D02*
X910658Y-1889984D01*
X910658Y-1889984D02*
X929705Y-1899508D01*
X929705Y-1899508D02*
X939229Y-1909031D01*
X939229Y-1909031D02*
X948753Y-1928079D01*
X948753Y-1928079D02*
X948753Y-1947127D01*
X948753Y-1947127D02*
X939229Y-1975698D01*
X939229Y-1975698D02*
X824943Y-2089984D01*
X824943Y-2089984D02*
X948753Y-2089984D01*
X1072563Y-1889984D02*
X1091610Y-1889984D01*
X1091610Y-1889984D02*
X1110658Y-1899508D01*
X1110658Y-1899508D02*
X1120182Y-1909031D01*
X1120182Y-1909031D02*
X1129705Y-1928079D01*
X1129705Y-1928079D02*
X1139229Y-1966174D01*
X1139229Y-1966174D02*
X1139229Y-2013793D01*
X1139229Y-2013793D02*
X1129705Y-2051888D01*
X1129705Y-2051888D02*
X1120182Y-2070936D01*
X1120182Y-2070936D02*
X1110658Y-2080460D01*
X1110658Y-2080460D02*
X1091610Y-2089984D01*
X1091610Y-2089984D02*
X1072563Y-2089984D01*
X1072563Y-2089984D02*
X1053515Y-2080460D01*
X1053515Y-2080460D02*
X1043991Y-2070936D01*
X1043991Y-2070936D02*
X1034467Y-2051888D01*
X1034467Y-2051888D02*
X1024943Y-2013793D01*
X1024943Y-2013793D02*
X1024943Y-1966174D01*
X1024943Y-1966174D02*
X1034467Y-1928079D01*
X1034467Y-1928079D02*
X1043991Y-1909031D01*
X1043991Y-1909031D02*
X1053515Y-1899508D01*
X1053515Y-1899508D02*
X1072563Y-1889984D01*
X1263039Y-1889984D02*
X1282086Y-1889984D01*
X1282086Y-1889984D02*
X1301134Y-1899508D01*
X1301134Y-1899508D02*
X1310658Y-1909031D01*
X1310658Y-1909031D02*
X1320182Y-1928079D01*
X1320182Y-1928079D02*
X1329705Y-1966174D01*
X1329705Y-1966174D02*
X1329705Y-2013793D01*
X1329705Y-2013793D02*
X1320182Y-2051888D01*
X1320182Y-2051888D02*
X1310658Y-2070936D01*
X1310658Y-2070936D02*
X1301134Y-2080460D01*
X1301134Y-2080460D02*
X1282086Y-2089984D01*
X1282086Y-2089984D02*
X1263039Y-2089984D01*
X1263039Y-2089984D02*
X1243991Y-2080460D01*
X1243991Y-2080460D02*
X1234467Y-2070936D01*
X1234467Y-2070936D02*
X1224944Y-2051888D01*
X1224944Y-2051888D02*
X1215420Y-2013793D01*
X1215420Y-2013793D02*
X1215420Y-1966174D01*
X1215420Y-1966174D02*
X1224944Y-1928079D01*
X1224944Y-1928079D02*
X1234467Y-1909031D01*
X1234467Y-1909031D02*
X1243991Y-1899508D01*
X1243991Y-1899508D02*
X1263039Y-1889984D01*
X1415420Y-2089984D02*
X1415420Y-1956650D01*
X1415420Y-1975698D02*
X1424943Y-1966174D01*
X1424943Y-1966174D02*
X1443991Y-1956650D01*
X1443991Y-1956650D02*
X1472563Y-1956650D01*
X1472563Y-1956650D02*
X1491610Y-1966174D01*
X1491610Y-1966174D02*
X1501134Y-1985222D01*
X1501134Y-1985222D02*
X1501134Y-2089984D01*
X1501134Y-1985222D02*
X1510658Y-1966174D01*
X1510658Y-1966174D02*
X1529705Y-1956650D01*
X1529705Y-1956650D02*
X1558277Y-1956650D01*
X1558277Y-1956650D02*
X1577324Y-1966174D01*
X1577324Y-1966174D02*
X1586848Y-1985222D01*
X1586848Y-1985222D02*
X1586848Y-2089984D01*
X1682086Y-2089984D02*
X1682086Y-1956650D01*
X1682086Y-1975698D02*
X1691610Y-1966174D01*
X1691610Y-1966174D02*
X1710658Y-1956650D01*
X1710658Y-1956650D02*
X1739229Y-1956650D01*
X1739229Y-1956650D02*
X1758277Y-1966174D01*
X1758277Y-1966174D02*
X1767801Y-1985222D01*
X1767801Y-1985222D02*
X1767801Y-2089984D01*
X1767801Y-1985222D02*
X1777324Y-1966174D01*
X1777324Y-1966174D02*
X1796372Y-1956650D01*
X1796372Y-1956650D02*
X1824943Y-1956650D01*
X1824943Y-1956650D02*
X1843991Y-1966174D01*
X1843991Y-1966174D02*
X1853515Y-1985222D01*
X1853515Y-1985222D02*
X1853515Y-2089984D01*
X2243991Y-1880460D02*
X2072563Y-2137603D01*
X2501134Y-1889984D02*
X2520182Y-1889984D01*
X2520182Y-1889984D02*
X2539229Y-1899508D01*
X2539229Y-1899508D02*
X2548753Y-1909031D01*
X2548753Y-1909031D02*
X2558277Y-1928079D01*
X2558277Y-1928079D02*
X2567801Y-1966174D01*
X2567801Y-1966174D02*
X2567801Y-2013793D01*
X2567801Y-2013793D02*
X2558277Y-2051888D01*
X2558277Y-2051888D02*
X2548753Y-2070936D01*
X2548753Y-2070936D02*
X2539229Y-2080460D01*
X2539229Y-2080460D02*
X2520182Y-2089984D01*
X2520182Y-2089984D02*
X2501134Y-2089984D01*
X2501134Y-2089984D02*
X2482087Y-2080460D01*
X2482087Y-2080460D02*
X2472563Y-2070936D01*
X2472563Y-2070936D02*
X2463039Y-2051888D01*
X2463039Y-2051888D02*
X2453515Y-2013793D01*
X2453515Y-2013793D02*
X2453515Y-1966174D01*
X2453515Y-1966174D02*
X2463039Y-1928079D01*
X2463039Y-1928079D02*
X2472563Y-1909031D01*
X2472563Y-1909031D02*
X2482087Y-1899508D01*
X2482087Y-1899508D02*
X2501134Y-1889984D01*
X2653515Y-2070936D02*
X2663039Y-2080460D01*
X2663039Y-2080460D02*
X2653515Y-2089984D01*
X2653515Y-2089984D02*
X2643991Y-2080460D01*
X2643991Y-2080460D02*
X2653515Y-2070936D01*
X2653515Y-2070936D02*
X2653515Y-2089984D01*
X2786848Y-1889984D02*
X2805896Y-1889984D01*
X2805896Y-1889984D02*
X2824944Y-1899508D01*
X2824944Y-1899508D02*
X2834467Y-1909031D01*
X2834467Y-1909031D02*
X2843991Y-1928079D01*
X2843991Y-1928079D02*
X2853515Y-1966174D01*
X2853515Y-1966174D02*
X2853515Y-2013793D01*
X2853515Y-2013793D02*
X2843991Y-2051888D01*
X2843991Y-2051888D02*
X2834467Y-2070936D01*
X2834467Y-2070936D02*
X2824944Y-2080460D01*
X2824944Y-2080460D02*
X2805896Y-2089984D01*
X2805896Y-2089984D02*
X2786848Y-2089984D01*
X2786848Y-2089984D02*
X2767801Y-2080460D01*
X2767801Y-2080460D02*
X2758277Y-2070936D01*
X2758277Y-2070936D02*
X2748753Y-2051888D01*
X2748753Y-2051888D02*
X2739229Y-2013793D01*
X2739229Y-2013793D02*
X2739229Y-1966174D01*
X2739229Y-1966174D02*
X2748753Y-1928079D01*
X2748753Y-1928079D02*
X2758277Y-1909031D01*
X2758277Y-1909031D02*
X2767801Y-1899508D01*
X2767801Y-1899508D02*
X2786848Y-1889984D01*
X3024944Y-1956650D02*
X3024944Y-2089984D01*
X2977325Y-1880460D02*
X2929706Y-2023317D01*
X2929706Y-2023317D02*
X3053515Y-2023317D01*
X3110658Y-1889984D02*
X3243991Y-1889984D01*
X3243991Y-1889984D02*
X3158277Y-2089984D01*
X3310658Y-1909031D02*
X3320182Y-1899508D01*
X3320182Y-1899508D02*
X3339229Y-1889984D01*
X3339229Y-1889984D02*
X3386848Y-1889984D01*
X3386848Y-1889984D02*
X3405896Y-1899508D01*
X3405896Y-1899508D02*
X3415420Y-1909031D01*
X3415420Y-1909031D02*
X3424944Y-1928079D01*
X3424944Y-1928079D02*
X3424944Y-1947127D01*
X3424944Y-1947127D02*
X3415420Y-1975698D01*
X3415420Y-1975698D02*
X3301134Y-2089984D01*
X3301134Y-2089984D02*
X3424944Y-2089984D01*
X3501134Y-1889984D02*
X3501134Y-1928079D01*
X3577325Y-1889984D02*
X3577325Y-1928079D01*
X3872563Y-2166174D02*
X3863039Y-2156650D01*
X3863039Y-2156650D02*
X3843991Y-2128079D01*
X3843991Y-2128079D02*
X3834468Y-2109031D01*
X3834468Y-2109031D02*
X3824944Y-2080460D01*
X3824944Y-2080460D02*
X3815420Y-2032841D01*
X3815420Y-2032841D02*
X3815420Y-1994746D01*
X3815420Y-1994746D02*
X3824944Y-1947127D01*
X3824944Y-1947127D02*
X3834468Y-1918555D01*
X3834468Y-1918555D02*
X3843991Y-1899508D01*
X3843991Y-1899508D02*
X3863039Y-1870936D01*
X3863039Y-1870936D02*
X3872563Y-1861412D01*
X4034468Y-1956650D02*
X4034468Y-2089984D01*
X3986848Y-1880460D02*
X3939229Y-2023317D01*
X3939229Y-2023317D02*
X4063039Y-2023317D01*
X4291611Y-2089984D02*
X4291611Y-1889984D01*
X4377325Y-2089984D02*
X4377325Y-1985222D01*
X4377325Y-1985222D02*
X4367801Y-1966174D01*
X4367801Y-1966174D02*
X4348753Y-1956650D01*
X4348753Y-1956650D02*
X4320182Y-1956650D01*
X4320182Y-1956650D02*
X4301134Y-1966174D01*
X4301134Y-1966174D02*
X4291611Y-1975698D01*
X4501134Y-2089984D02*
X4482087Y-2080460D01*
X4482087Y-2080460D02*
X4472563Y-2070936D01*
X4472563Y-2070936D02*
X4463039Y-2051888D01*
X4463039Y-2051888D02*
X4463039Y-1994746D01*
X4463039Y-1994746D02*
X4472563Y-1975698D01*
X4472563Y-1975698D02*
X4482087Y-1966174D01*
X4482087Y-1966174D02*
X4501134Y-1956650D01*
X4501134Y-1956650D02*
X4529706Y-1956650D01*
X4529706Y-1956650D02*
X4548753Y-1966174D01*
X4548753Y-1966174D02*
X4558277Y-1975698D01*
X4558277Y-1975698D02*
X4567801Y-1994746D01*
X4567801Y-1994746D02*
X4567801Y-2051888D01*
X4567801Y-2051888D02*
X4558277Y-2070936D01*
X4558277Y-2070936D02*
X4548753Y-2080460D01*
X4548753Y-2080460D02*
X4529706Y-2089984D01*
X4529706Y-2089984D02*
X4501134Y-2089984D01*
X4682087Y-2089984D02*
X4663039Y-2080460D01*
X4663039Y-2080460D02*
X4653515Y-2061412D01*
X4653515Y-2061412D02*
X4653515Y-1889984D01*
X4834468Y-2080460D02*
X4815420Y-2089984D01*
X4815420Y-2089984D02*
X4777325Y-2089984D01*
X4777325Y-2089984D02*
X4758277Y-2080460D01*
X4758277Y-2080460D02*
X4748753Y-2061412D01*
X4748753Y-2061412D02*
X4748753Y-1985222D01*
X4748753Y-1985222D02*
X4758277Y-1966174D01*
X4758277Y-1966174D02*
X4777325Y-1956650D01*
X4777325Y-1956650D02*
X4815420Y-1956650D01*
X4815420Y-1956650D02*
X4834468Y-1966174D01*
X4834468Y-1966174D02*
X4843992Y-1985222D01*
X4843992Y-1985222D02*
X4843992Y-2004269D01*
X4843992Y-2004269D02*
X4748753Y-2023317D01*
X4920182Y-2080460D02*
X4939230Y-2089984D01*
X4939230Y-2089984D02*
X4977325Y-2089984D01*
X4977325Y-2089984D02*
X4996373Y-2080460D01*
X4996373Y-2080460D02*
X5005896Y-2061412D01*
X5005896Y-2061412D02*
X5005896Y-2051888D01*
X5005896Y-2051888D02*
X4996373Y-2032841D01*
X4996373Y-2032841D02*
X4977325Y-2023317D01*
X4977325Y-2023317D02*
X4948753Y-2023317D01*
X4948753Y-2023317D02*
X4929706Y-2013793D01*
X4929706Y-2013793D02*
X4920182Y-1994746D01*
X4920182Y-1994746D02*
X4920182Y-1985222D01*
X4920182Y-1985222D02*
X4929706Y-1966174D01*
X4929706Y-1966174D02*
X4948753Y-1956650D01*
X4948753Y-1956650D02*
X4977325Y-1956650D01*
X4977325Y-1956650D02*
X4996373Y-1966174D01*
X5072563Y-2166174D02*
X5082087Y-2156650D01*
X5082087Y-2156650D02*
X5101134Y-2128079D01*
X5101134Y-2128079D02*
X5110658Y-2109031D01*
X5110658Y-2109031D02*
X5120182Y-2080460D01*
X5120182Y-2080460D02*
X5129706Y-2032841D01*
X5129706Y-2032841D02*
X5129706Y-1994746D01*
X5129706Y-1994746D02*
X5120182Y-1947127D01*
X5120182Y-1947127D02*
X5110658Y-1918555D01*
X5110658Y-1918555D02*
X5101134Y-1899508D01*
X5101134Y-1899508D02*
X5082087Y-1870936D01*
X5082087Y-1870936D02*
X5072563Y-1861412D01*
M02*
