M48
; DRILL file {KiCad 8.0.4} date 2024-09-17T19:17:51+0100
; FORMAT={-:-/ absolute / inch / decimal}
; #@! TF.CreationDate,2024-09-17T19:17:51+01:00
; #@! TF.GenerationSoftware,Kicad,Pcbnew,8.0.4
; #@! TF.FileFunction,Plated,1,4,PTH
FMAT,2
INCH
; #@! TA.AperFunction,Plated,PTH,ComponentDrill
T1C0.0098
; #@! TA.AperFunction,Plated,PTH,ViaDrill
T2C0.0157
; #@! TA.AperFunction,Plated,PTH,ComponentDrill
T3C0.0394
%
G90
G05
T1
X-0.0465Y1.4213
X-0.0465Y0.9768
X-0.0071Y1.4213
X-0.0071Y0.9768
T2
X-0.7339Y1.5283
X-0.7339Y1.4283
X-0.7339Y1.3283
X-0.7339Y1.2283
X-0.7339Y1.1283
X-0.7339Y1.0283
X-0.7339Y0.9283
X-0.7339Y0.8283
X-0.6339Y1.5283
X-0.6339Y1.4283
X-0.6339Y1.3283
X-0.6339Y1.2283
X-0.6339Y1.1283
X-0.6339Y1.0283
X-0.6339Y0.9283
X-0.6339Y0.8283
X-0.5717Y1.1453
X-0.5685Y1.4646
X-0.5551Y0.9079
X-0.5339Y1.6283
X-0.5295Y0.7142
X-0.4339Y1.6283
X-0.2339Y1.5283
X-0.2336Y0.8952
X-0.2134Y0.6909
X-0.2059Y1.0189
X-0.1876Y0.7887
X-0.178Y0.8925
X-0.1343Y0.9146
X-0.1339Y1.2283
X-0.1335Y1.1476
X-0.113Y1.549
X-0.1043Y1.3177
X-0.1024Y1.4445
X-0.0988Y0.9244
X-0.0862Y1.0134
X-0.0846Y1.3709
X-0.0778Y1.4785
X-0.0339Y1.2283
X-0.0276Y1.1697
X-0.0028Y0.7437
X0.0091Y0.8199
X0.0102Y1.3
X0.0122Y1.5201
X0.0154Y0.7063
X0.026Y1.2476
X0.0264Y1.115
X0.0394Y1.026
X0.0409Y1.4067
X0.0634Y0.9413
X0.064Y1.3798
X0.0728Y1.5372
X0.0897Y0.8802
X0.1004Y0.9268
X0.135Y1.47
X0.1387Y1.1268
X0.158Y1.338
X0.1665Y1.161
X0.1743Y1.3036
X0.1744Y1.4724
X0.2008Y1.1701
X0.2181Y1.5327
X0.2434Y1.1632
X0.3096Y1.186
X0.3169Y1.0134
X0.3304Y1.1466
X0.3551Y1.0217
X0.36Y1.0958
X0.3723Y1.1742
X0.384Y1.502
X0.3937Y1.0157
X0.4085Y1.1752
X0.4163Y1.1329
X0.4331Y1.0185
X0.435Y1.4734
X0.466Y1.344
X0.466Y1.106
X0.467Y1.168
X0.4713Y1.0449
X0.489Y1.4429
X0.496Y1.253
X0.51Y1.139
X0.5134Y1.0488
X0.54Y1.1
X0.546Y1.232
X0.546Y1.018
X0.5602Y1.4039
X0.648Y1.116
X0.676Y1.021
X0.7335Y1.0614
X0.7661Y1.3283
X0.768Y1.376
X0.7736Y1.1972
X0.8098Y1.0819
X0.861Y1.514
X0.8661Y1.1283
X0.921Y1.029
X0.923Y1.162
X0.9661Y1.5283
X0.9661Y1.4283
X0.9661Y1.3283
X0.9661Y1.2283
X0.978Y1.022
X1.016Y1.028
X1.017Y1.383
X1.037Y1.228
X1.044Y1.323
X1.047Y1.543
X1.06Y1.031
T3
X-0.2658Y1.4446
X-0.2658Y1.3446
X-0.2658Y1.2446
X-0.2658Y1.1446
X-0.2658Y1.0446
X-0.2658Y0.9446
X-0.2658Y0.8446
X-0.2658Y0.7446
M30
