%TF.GenerationSoftware,KiCad,Pcbnew,8.0.4*%
%TF.CreationDate,2024-09-17T19:17:59+01:00*%
%TF.ProjectId,ADE_Aux_V4,4144455f-4175-4785-9f56-342e6b696361,rev?*%
%TF.SameCoordinates,Original*%
%TF.FileFunction,Copper,L2,Inr*%
%TF.FilePolarity,Positive*%
%FSLAX46Y46*%
G04 Gerber Fmt 4.6, Leading zero omitted, Abs format (unit mm)*
G04 Created by KiCad (PCBNEW 8.0.4) date 2024-09-17 19:17:59*
%MOMM*%
%LPD*%
G01*
G04 APERTURE LIST*
%TA.AperFunction,ComponentPad*%
%ADD10C,0.600000*%
%TD*%
%TA.AperFunction,ComponentPad*%
%ADD11R,1.700000X1.700000*%
%TD*%
%TA.AperFunction,ComponentPad*%
%ADD12O,1.700000X1.700000*%
%TD*%
%TA.AperFunction,ViaPad*%
%ADD13C,0.800000*%
%TD*%
%TA.AperFunction,Conductor*%
%ADD14C,0.250000*%
%TD*%
G04 APERTURE END LIST*
D10*
%TO.N,/UM*%
%TO.C,U3*%
X-180000Y36100000D03*
X-1180000Y36100000D03*
%TD*%
%TO.N,/UM*%
%TO.C,U1*%
X-180000Y24810000D03*
X-1180000Y24810000D03*
%TD*%
D11*
%TO.N,/RRP*%
%TO.C,J15*%
X-6750200Y36692980D03*
D12*
%TO.N,/RRM*%
X-6750200Y34152980D03*
%TO.N,/RSP*%
X-6750200Y31612980D03*
%TO.N,/RSM*%
X-6750200Y29072980D03*
%TO.N,/RTP*%
X-6750200Y26532980D03*
%TO.N,/RTM*%
X-6750200Y23992980D03*
%TO.N,/RNP*%
X-6750200Y21452980D03*
%TO.N,/RNM*%
X-6750200Y18912980D03*
%TD*%
D13*
%TO.N,GND*%
X-11020000Y41360000D03*
X26593800Y39192200D03*
X-18640000Y36280000D03*
X-16100000Y33740000D03*
X16459200Y28346400D03*
X-5940000Y38820000D03*
X4430000Y37400000D03*
X-3400000Y31200000D03*
X-14440000Y37200000D03*
X-14100000Y23060000D03*
X-18640000Y28660000D03*
X24540000Y33740000D03*
X-18640000Y26120000D03*
X26339800Y31191200D03*
X4428453Y33111500D03*
X17170400Y25933400D03*
X-16100000Y36280000D03*
X-13450000Y18140000D03*
X-16100000Y23580000D03*
X24540000Y38820000D03*
X390000Y17940000D03*
X9457677Y29825500D03*
X13716000Y27940000D03*
X-16100000Y38820000D03*
X5540000Y38930000D03*
X-13560000Y41360000D03*
X-18640000Y31200000D03*
X22000000Y28660000D03*
X24540000Y36280000D03*
X-16100000Y31200000D03*
X-18640000Y21040000D03*
X-2870200Y39344600D03*
X12598400Y31826200D03*
X-16100000Y26120000D03*
X13868400Y25857200D03*
X24540000Y31200000D03*
X11836400Y28092400D03*
X-18640000Y33740000D03*
X12954000Y28930600D03*
X1001000Y26060000D03*
X3429000Y37338000D03*
X670000Y28320000D03*
X-16100000Y21040000D03*
X19460000Y33740000D03*
X11836400Y34137600D03*
X-5230000Y25880000D03*
X660000Y31690000D03*
X-18640000Y38820000D03*
X-16100000Y28660000D03*
X-860000Y31200000D03*
X1850000Y39045500D03*
X-18640000Y23580000D03*
X26517600Y33604200D03*
X-14520000Y29090000D03*
%TO.N,+3V3*%
X19507200Y34950400D03*
X11861800Y29667200D03*
X11050000Y37425000D03*
X10575000Y28775000D03*
X-2190000Y25740000D03*
X26924000Y26187400D03*
X25806400Y26111200D03*
X-5420000Y17550000D03*
X-1975500Y37553372D03*
X25831800Y35128200D03*
X23444200Y29514800D03*
%TO.N,/AVDDOUT*%
X7863900Y30124400D03*
%TO.N,/DVDDOUT*%
X9753600Y38150800D03*
%TO.N,/REF*%
X4013200Y33985200D03*
%TO.N,/ISP*%
X1040000Y35730000D03*
X-2150000Y34820000D03*
%TO.N,/INP*%
X2550000Y23540000D03*
X-2510000Y23480000D03*
%TO.N,/UR+*%
X11970000Y26540000D03*
X3524020Y28620000D03*
%TO.N,/US+*%
X10000000Y25800000D03*
X9143911Y27833911D03*
X5100000Y29720000D03*
%TO.N,/UT+*%
X8050000Y25740000D03*
%TO.N,/ADE_Reset*%
X21869400Y38455600D03*
X24841200Y25958800D03*
%TO.N,/O_IN*%
X10375000Y29850000D03*
%TO.N,/SCLK*%
X20570000Y27480000D03*
%TO.N,/MOSI*%
X14230000Y35660000D03*
X18630000Y26960000D03*
X19650000Y30410000D03*
%TO.N,/SS*%
X12420000Y36650000D03*
X13868400Y31292800D03*
%TO.N,/RN*%
X-5934500Y22738843D03*
X-4520000Y22670000D03*
%TO.N,Net-(C5-Pad2)*%
X-3410000Y23230000D03*
X230000Y20824500D03*
%TO.N,Net-(C6-Pad2)*%
X260000Y33020000D03*
X-2650000Y33470000D03*
%TO.N,Net-(C13-Pad2)*%
X-700000Y29710000D03*
X-3390000Y29150000D03*
%TO.N,Net-(C16-Pad2)*%
X309163Y38610563D03*
X-2600000Y36690000D03*
%TO.N,/UM*%
X1610000Y23910000D03*
X1625500Y35047145D03*
X2277484Y22357547D03*
%TO.N,/C+*%
X-70000Y18890000D03*
%TO.N,/UR-*%
X4230000Y29490000D03*
X13040000Y26640000D03*
%TO.N,/US-*%
X11000000Y25870000D03*
X6182300Y29546200D03*
X8393411Y29123411D03*
%TO.N,/UT-*%
X9020000Y25950000D03*
%TO.N,/C-*%
X-4765656Y20033911D03*
%TO.N,/SYN*%
X23393400Y26136600D03*
%TD*%
D14*
%TO.N,/ADE_Reset*%
X21869400Y38455600D02*
X22529800Y37795200D01*
X22529800Y32131000D02*
X24841200Y29819600D01*
X24841200Y29819600D02*
X24841200Y25958800D01*
X22529800Y37795200D02*
X22529800Y32131000D01*
%TO.N,/SS*%
X13868400Y33782000D02*
X12522200Y35128200D01*
X13868400Y31292800D02*
X13868400Y33782000D01*
X12522200Y35128200D02*
X12496800Y35128200D01*
X12420000Y35205000D02*
X12420000Y36650000D01*
X12496800Y35128200D02*
X12420000Y35205000D01*
%TD*%
%TA.AperFunction,Conductor*%
%TO.N,GND*%
G36*
X-9257879Y42279998D02*
G01*
X-9211386Y42226342D01*
X-9200000Y42174000D01*
X-9200000Y40005877D01*
X-9200045Y39954551D01*
X-9193902Y39941758D01*
X-9192773Y39936790D01*
X-9190215Y39929465D01*
X-9188006Y39924875D01*
X-9184850Y39911038D01*
X-9176006Y39899939D01*
X-9173636Y39895015D01*
X-9170084Y39889353D01*
X-9166688Y39885084D01*
X-9160547Y39872295D01*
X-9149464Y39863432D01*
X-9146293Y39859446D01*
X-9140809Y39853952D01*
X-9136827Y39850773D01*
X-9127985Y39839677D01*
X-9115207Y39833514D01*
X-9110936Y39830104D01*
X-9105286Y39826546D01*
X-9100366Y39824168D01*
X-9089285Y39815306D01*
X-9075457Y39812126D01*
X-9070876Y39809912D01*
X-9063551Y39807339D01*
X-9058580Y39806201D01*
X-9045798Y39800035D01*
X-9022787Y39800015D01*
X-9022789Y39798003D01*
X-9022723Y39797988D01*
X-9022723Y39800000D01*
X-9005877Y39800000D01*
X-8954551Y39799955D01*
X-8954555Y39795150D01*
X-8954457Y39795144D01*
X-8954457Y39800000D01*
X27324000Y39800000D01*
X27392121Y39779998D01*
X27438614Y39726342D01*
X27450000Y39674000D01*
X27450000Y26796203D01*
X27429998Y26728082D01*
X27376342Y26681589D01*
X27306068Y26671485D01*
X27247295Y26696241D01*
X27233393Y26706909D01*
X27233390Y26706911D01*
X27226841Y26711936D01*
X27080762Y26772444D01*
X26924000Y26793082D01*
X26767238Y26772444D01*
X26621159Y26711936D01*
X26614608Y26706909D01*
X26503616Y26621742D01*
X26495718Y26615682D01*
X26490695Y26609136D01*
X26435928Y26537762D01*
X26378590Y26495895D01*
X26307719Y26491673D01*
X26245816Y26526437D01*
X26243296Y26529345D01*
X26239705Y26532936D01*
X26234682Y26539482D01*
X26109241Y26635736D01*
X25963162Y26696244D01*
X25806400Y26716882D01*
X25649638Y26696244D01*
X25503559Y26635736D01*
X25378781Y26539990D01*
X25378778Y26539989D01*
X25378118Y26539482D01*
X25378039Y26539585D01*
X25319483Y26507610D01*
X25248668Y26512675D01*
X25191832Y26555222D01*
X25167021Y26621742D01*
X25166700Y26630731D01*
X25166700Y29799887D01*
X25167179Y29810868D01*
X25169503Y29837430D01*
X25169503Y29837432D01*
X25170463Y29848407D01*
X25160708Y29884817D01*
X25158333Y29895528D01*
X25155475Y29911736D01*
X25151788Y29932645D01*
X25146278Y29942189D01*
X25145086Y29945465D01*
X25143607Y29948636D01*
X25140754Y29959284D01*
X25119140Y29990152D01*
X25113236Y29999421D01*
X25099907Y30022508D01*
X25099904Y30022512D01*
X25094394Y30032055D01*
X25065523Y30056280D01*
X25057418Y30063708D01*
X22892205Y32228921D01*
X22858179Y32291233D01*
X22855300Y32318016D01*
X22855300Y35128200D01*
X25226118Y35128200D01*
X25246756Y34971438D01*
X25307264Y34825359D01*
X25403518Y34699918D01*
X25528959Y34603664D01*
X25675038Y34543156D01*
X25831800Y34522518D01*
X25839988Y34523596D01*
X25980374Y34542078D01*
X25988562Y34543156D01*
X26134641Y34603664D01*
X26260082Y34699918D01*
X26356336Y34825359D01*
X26416844Y34971438D01*
X26437482Y35128200D01*
X26416844Y35284962D01*
X26356336Y35431041D01*
X26260082Y35556482D01*
X26248188Y35565609D01*
X26205460Y35598395D01*
X26134641Y35652736D01*
X25988562Y35713244D01*
X25831800Y35733882D01*
X25675038Y35713244D01*
X25528959Y35652736D01*
X25458140Y35598395D01*
X25415413Y35565609D01*
X25403518Y35556482D01*
X25307264Y35431041D01*
X25246756Y35284962D01*
X25226118Y35128200D01*
X22855300Y35128200D01*
X22855300Y37775490D01*
X22855780Y37786472D01*
X22858103Y37813020D01*
X22858103Y37813022D01*
X22859064Y37824007D01*
X22849308Y37860415D01*
X22846930Y37871142D01*
X22846338Y37874501D01*
X22840388Y37908245D01*
X22834877Y37917790D01*
X22833685Y37921066D01*
X22832208Y37924234D01*
X22829354Y37934884D01*
X22807745Y37965744D01*
X22801839Y37975015D01*
X22788507Y37998106D01*
X22782994Y38007655D01*
X22754117Y38031885D01*
X22746015Y38039311D01*
X22502109Y38283217D01*
X22468083Y38345529D01*
X22466282Y38388758D01*
X22474004Y38447412D01*
X22475082Y38455600D01*
X22454444Y38612362D01*
X22393936Y38758441D01*
X22297682Y38883882D01*
X22172241Y38980136D01*
X22026162Y39040644D01*
X21869400Y39061282D01*
X21712638Y39040644D01*
X21566559Y38980136D01*
X21441118Y38883882D01*
X21344864Y38758441D01*
X21284356Y38612362D01*
X21263718Y38455600D01*
X21284356Y38298838D01*
X21344864Y38152759D01*
X21441118Y38027318D01*
X21566559Y37931064D01*
X21712638Y37870556D01*
X21869400Y37849918D01*
X21936243Y37858718D01*
X22006390Y37847779D01*
X22041783Y37822891D01*
X22167395Y37697279D01*
X22201421Y37634967D01*
X22204300Y37608184D01*
X22204300Y32150710D01*
X22203820Y32139728D01*
X22200536Y32102193D01*
X22203390Y32091544D01*
X22210291Y32065790D01*
X22212670Y32055058D01*
X22219212Y32017955D01*
X22224723Y32008410D01*
X22225915Y32005134D01*
X22227392Y32001966D01*
X22230246Y31991316D01*
X22236570Y31982285D01*
X22251855Y31960456D01*
X22257761Y31951185D01*
X22271093Y31928094D01*
X22276606Y31918545D01*
X22285051Y31911459D01*
X22305482Y31894315D01*
X22313585Y31886889D01*
X24478795Y29721678D01*
X24512821Y29659366D01*
X24515700Y29632583D01*
X24515700Y26528086D01*
X24495698Y26459965D01*
X24466404Y26428123D01*
X24426751Y26397696D01*
X24412918Y26387082D01*
X24407895Y26380536D01*
X24406038Y26378116D01*
X24316664Y26261641D01*
X24256156Y26115562D01*
X24235518Y25958800D01*
X24256156Y25802038D01*
X24316664Y25655959D01*
X24412918Y25530518D01*
X24419464Y25525495D01*
X24424386Y25521718D01*
X24538359Y25434264D01*
X24657083Y25385087D01*
X24673548Y25378267D01*
X24684438Y25373756D01*
X24841200Y25353118D01*
X24849388Y25354196D01*
X24989774Y25372678D01*
X24997962Y25373756D01*
X25008853Y25378267D01*
X25025317Y25385087D01*
X25144041Y25434264D01*
X25258014Y25521718D01*
X25262936Y25525495D01*
X25269482Y25530518D01*
X25274505Y25537064D01*
X25274509Y25537068D01*
X25306642Y25578944D01*
X25363980Y25620812D01*
X25434851Y25625033D01*
X25483308Y25602203D01*
X25503559Y25586664D01*
X25588187Y25551610D01*
X25638142Y25530918D01*
X25649638Y25526156D01*
X25806400Y25505518D01*
X25814588Y25506596D01*
X25850532Y25511328D01*
X25963162Y25526156D01*
X25974659Y25530918D01*
X26024613Y25551610D01*
X26109241Y25586664D01*
X26208547Y25662864D01*
X26228136Y25677895D01*
X26234682Y25682918D01*
X26294472Y25760838D01*
X26351810Y25802705D01*
X26422681Y25806927D01*
X26484584Y25772163D01*
X26487104Y25769255D01*
X26490695Y25765664D01*
X26495718Y25759118D01*
X26621159Y25662864D01*
X26767238Y25602356D01*
X26924000Y25581718D01*
X26932188Y25582796D01*
X26935546Y25583238D01*
X27080762Y25602356D01*
X27226841Y25662864D01*
X27233390Y25667889D01*
X27233393Y25667891D01*
X27247295Y25678559D01*
X27313515Y25704160D01*
X27383064Y25689896D01*
X27433861Y25640295D01*
X27450000Y25578597D01*
X27450000Y20876000D01*
X27429998Y20807879D01*
X27376342Y20761386D01*
X27324000Y20750000D01*
X16776000Y20750000D01*
X16707879Y20770002D01*
X16661386Y20823658D01*
X16650000Y20876000D01*
X16650000Y26136600D01*
X22787718Y26136600D01*
X22788796Y26128412D01*
X22798609Y26053878D01*
X22808356Y25979838D01*
X22868864Y25833759D01*
X22965118Y25708318D01*
X23090559Y25612064D01*
X23236638Y25551556D01*
X23393400Y25530918D01*
X23401588Y25531996D01*
X23541974Y25550478D01*
X23550162Y25551556D01*
X23696241Y25612064D01*
X23821682Y25708318D01*
X23917936Y25833759D01*
X23978444Y25979838D01*
X23988192Y26053878D01*
X23998004Y26128412D01*
X23999082Y26136600D01*
X23978444Y26293362D01*
X23917936Y26439441D01*
X23840775Y26540000D01*
X23826705Y26558336D01*
X23821682Y26564882D01*
X23696241Y26661136D01*
X23564261Y26715804D01*
X23557791Y26718484D01*
X23550162Y26721644D01*
X23393400Y26742282D01*
X23236638Y26721644D01*
X23229009Y26718484D01*
X23222539Y26715804D01*
X23090559Y26661136D01*
X22965118Y26564882D01*
X22960095Y26558336D01*
X22946025Y26540000D01*
X22868864Y26439441D01*
X22808356Y26293362D01*
X22787718Y26136600D01*
X16650000Y26136600D01*
X16650000Y26960000D01*
X18024318Y26960000D01*
X18044956Y26803238D01*
X18105464Y26657159D01*
X18201718Y26531718D01*
X18327159Y26435464D01*
X18473238Y26374956D01*
X18630000Y26354318D01*
X18638188Y26355396D01*
X18778574Y26373878D01*
X18786762Y26374956D01*
X18932841Y26435464D01*
X19058282Y26531718D01*
X19154536Y26657159D01*
X19215044Y26803238D01*
X19235682Y26960000D01*
X19215044Y27116762D01*
X19211614Y27125044D01*
X19198818Y27155934D01*
X19154536Y27262841D01*
X19058282Y27388282D01*
X18938752Y27480000D01*
X19964318Y27480000D01*
X19984956Y27323238D01*
X20045464Y27177159D01*
X20141718Y27051718D01*
X20267159Y26955464D01*
X20413238Y26894956D01*
X20570000Y26874318D01*
X20578188Y26875396D01*
X20718574Y26893878D01*
X20726762Y26894956D01*
X20872841Y26955464D01*
X20998282Y27051718D01*
X21094536Y27177159D01*
X21155044Y27323238D01*
X21175682Y27480000D01*
X21155044Y27636762D01*
X21094536Y27782841D01*
X20998282Y27908282D01*
X20872841Y28004536D01*
X20726762Y28065044D01*
X20570000Y28085682D01*
X20413238Y28065044D01*
X20267159Y28004536D01*
X20141718Y27908282D01*
X20045464Y27782841D01*
X19984956Y27636762D01*
X19964318Y27480000D01*
X18938752Y27480000D01*
X18932841Y27484536D01*
X18786762Y27545044D01*
X18630000Y27565682D01*
X18473238Y27545044D01*
X18327159Y27484536D01*
X18201718Y27388282D01*
X18105464Y27262841D01*
X18061182Y27155934D01*
X18048387Y27125044D01*
X18044956Y27116762D01*
X18024318Y26960000D01*
X16650000Y26960000D01*
X16650000Y26962688D01*
X16653254Y26991140D01*
X16655142Y26999284D01*
X16655143Y27000000D01*
X16654316Y27003625D01*
X16654627Y27005395D01*
X16653926Y27005334D01*
X16648992Y27061733D01*
X16636855Y27200458D01*
X16630267Y27225044D01*
X16586198Y27389516D01*
X16586197Y27389518D01*
X16584775Y27394826D01*
X16580418Y27404169D01*
X16502060Y27572210D01*
X16502057Y27572215D01*
X16499734Y27577197D01*
X16384316Y27742030D01*
X16242030Y27884316D01*
X16077197Y27999734D01*
X16072215Y28002057D01*
X16072210Y28002060D01*
X15899808Y28082452D01*
X15899807Y28082453D01*
X15894826Y28084775D01*
X15889518Y28086197D01*
X15889516Y28086198D01*
X15705773Y28135431D01*
X15705772Y28135431D01*
X15700458Y28136855D01*
X15500000Y28154393D01*
X15299542Y28136855D01*
X15294228Y28135431D01*
X15294227Y28135431D01*
X15110484Y28086198D01*
X15110482Y28086197D01*
X15105174Y28084775D01*
X15100194Y28082453D01*
X15100192Y28082452D01*
X14927791Y28002060D01*
X14927786Y28002057D01*
X14922804Y27999734D01*
X14918297Y27996578D01*
X14918295Y27996577D01*
X14762481Y27887475D01*
X14762478Y27887473D01*
X14757970Y27884316D01*
X14615684Y27742030D01*
X14500266Y27577197D01*
X14497943Y27572215D01*
X14497940Y27572210D01*
X14419582Y27404169D01*
X14415225Y27394826D01*
X14413803Y27389518D01*
X14413802Y27389516D01*
X14369733Y27225044D01*
X14363145Y27200458D01*
X14346118Y27005842D01*
X14344857Y27000358D01*
X14347988Y26986519D01*
X14347980Y26981631D01*
X14350000Y26963552D01*
X14350000Y20876000D01*
X14329998Y20807879D01*
X14276342Y20761386D01*
X14224000Y20750000D01*
X7676000Y20750000D01*
X7607879Y20770002D01*
X7561386Y20823658D01*
X7550000Y20876000D01*
X7550000Y25112300D01*
X7570002Y25180421D01*
X7623658Y25226914D01*
X7693932Y25237018D01*
X7739000Y25221419D01*
X7740609Y25220490D01*
X7747159Y25215464D01*
X7754785Y25212305D01*
X7754787Y25212304D01*
X7831760Y25180421D01*
X7893238Y25154956D01*
X8050000Y25134318D01*
X8058188Y25135396D01*
X8198574Y25153878D01*
X8206762Y25154956D01*
X8352841Y25215464D01*
X8478282Y25311718D01*
X8545498Y25399316D01*
X8602835Y25441182D01*
X8673706Y25445404D01*
X8708457Y25431732D01*
X8710611Y25430488D01*
X8717159Y25425464D01*
X8724785Y25422305D01*
X8724787Y25422304D01*
X8831102Y25378267D01*
X8863238Y25364956D01*
X9020000Y25344318D01*
X9028188Y25345396D01*
X9168574Y25363878D01*
X9176762Y25364956D01*
X9322841Y25425464D01*
X9329394Y25430492D01*
X9329397Y25430494D01*
X9353567Y25449040D01*
X9419787Y25474641D01*
X9489336Y25460376D01*
X9530234Y25425781D01*
X9566692Y25378267D01*
X9566695Y25378264D01*
X9571718Y25371718D01*
X9697159Y25275464D01*
X9843238Y25214956D01*
X10000000Y25194318D01*
X10008188Y25195396D01*
X10148574Y25213878D01*
X10156762Y25214956D01*
X10302841Y25275464D01*
X10428282Y25371718D01*
X10433305Y25378264D01*
X10433308Y25378267D01*
X10438541Y25385087D01*
X10495879Y25426955D01*
X10566749Y25431177D01*
X10615208Y25408347D01*
X10697159Y25345464D01*
X10843238Y25284956D01*
X11000000Y25264318D01*
X11008188Y25265396D01*
X11018724Y25266783D01*
X11156762Y25284956D01*
X11302841Y25345464D01*
X11407099Y25425464D01*
X11421736Y25436695D01*
X11428282Y25441718D01*
X11524536Y25567159D01*
X11585044Y25713238D01*
X11605588Y25869287D01*
X11634310Y25934214D01*
X11693575Y25973306D01*
X11764567Y25974151D01*
X11778727Y25969250D01*
X11805605Y25958117D01*
X11805610Y25958116D01*
X11813238Y25954956D01*
X11970000Y25934318D01*
X11978188Y25935396D01*
X12118574Y25953878D01*
X12126762Y25954956D01*
X12272841Y26015464D01*
X12398282Y26111718D01*
X12403305Y26118264D01*
X12403308Y26118267D01*
X12448971Y26177777D01*
X12506309Y26219645D01*
X12577180Y26223867D01*
X12625637Y26201037D01*
X12737159Y26115464D01*
X12883238Y26054956D01*
X13040000Y26034318D01*
X13048188Y26035396D01*
X13188574Y26053878D01*
X13196762Y26054956D01*
X13342841Y26115464D01*
X13468282Y26211718D01*
X13564536Y26337159D01*
X13625044Y26483238D01*
X13626155Y26491673D01*
X13644604Y26631812D01*
X13645682Y26640000D01*
X13634933Y26721644D01*
X13626122Y26788574D01*
X13625044Y26796762D01*
X13564536Y26942841D01*
X13468282Y27068282D01*
X13342841Y27164536D01*
X13196762Y27225044D01*
X13172570Y27228229D01*
X13048188Y27244604D01*
X13040000Y27245682D01*
X13031812Y27244604D01*
X12907431Y27228229D01*
X12883238Y27225044D01*
X12737159Y27164536D01*
X12611718Y27068282D01*
X12606695Y27061736D01*
X12606692Y27061733D01*
X12561029Y27002223D01*
X12503691Y26960355D01*
X12432820Y26956133D01*
X12384362Y26978963D01*
X12356946Y27000000D01*
X12272841Y27064536D01*
X12126762Y27125044D01*
X11970000Y27145682D01*
X11813238Y27125044D01*
X11667159Y27064536D01*
X11541718Y26968282D01*
X11445464Y26842841D01*
X11384956Y26696762D01*
X11364534Y26541636D01*
X11364412Y26540713D01*
X11335690Y26475786D01*
X11276425Y26436694D01*
X11205433Y26435849D01*
X11191273Y26440750D01*
X11164395Y26451883D01*
X11164390Y26451884D01*
X11156762Y26455044D01*
X11000000Y26475682D01*
X10843238Y26455044D01*
X10697159Y26394536D01*
X10571718Y26298282D01*
X10566695Y26291736D01*
X10566692Y26291733D01*
X10561459Y26284913D01*
X10504121Y26243045D01*
X10433251Y26238823D01*
X10384792Y26261653D01*
X10348339Y26289624D01*
X10302841Y26324536D01*
X10156762Y26385044D01*
X10000000Y26405682D01*
X9843238Y26385044D01*
X9697159Y26324536D01*
X9690608Y26319509D01*
X9690603Y26319506D01*
X9666433Y26300960D01*
X9600213Y26275359D01*
X9530664Y26289624D01*
X9489766Y26324219D01*
X9453308Y26371733D01*
X9453304Y26371737D01*
X9448282Y26378282D01*
X9430268Y26392105D01*
X9352362Y26451884D01*
X9322841Y26474536D01*
X9176762Y26535044D01*
X9142270Y26539585D01*
X9080493Y26547718D01*
X9020000Y26555682D01*
X8959507Y26547718D01*
X8897731Y26539585D01*
X8863238Y26535044D01*
X8717159Y26474536D01*
X8687638Y26451884D01*
X8609733Y26392105D01*
X8591718Y26378282D01*
X8526483Y26293265D01*
X8524503Y26290685D01*
X8467165Y26248818D01*
X8396294Y26244596D01*
X8361543Y26258268D01*
X8359389Y26259512D01*
X8352841Y26264536D01*
X8345215Y26267695D01*
X8345213Y26267696D01*
X8214391Y26321884D01*
X8206762Y26325044D01*
X8050000Y26345682D01*
X7893238Y26325044D01*
X7885609Y26321884D01*
X7754787Y26267696D01*
X7754785Y26267695D01*
X7747159Y26264536D01*
X7740609Y26259510D01*
X7739000Y26258581D01*
X7670005Y26241843D01*
X7602913Y26265063D01*
X7559026Y26320871D01*
X7550000Y26367700D01*
X7550000Y27833911D01*
X8538229Y27833911D01*
X8558867Y27677149D01*
X8619375Y27531070D01*
X8664845Y27471812D01*
X8710440Y27412392D01*
X8715629Y27405629D01*
X8841070Y27309375D01*
X8987149Y27248867D01*
X8995337Y27247789D01*
X9019530Y27244604D01*
X9143911Y27228229D01*
X9152099Y27229307D01*
X9292485Y27247789D01*
X9300673Y27248867D01*
X9446752Y27309375D01*
X9572193Y27405629D01*
X9577383Y27412392D01*
X9622977Y27471812D01*
X9668447Y27531070D01*
X9728955Y27677149D01*
X9749593Y27833911D01*
X9728955Y27990673D01*
X9668447Y28136752D01*
X9572193Y28262193D01*
X9446752Y28358447D01*
X9300673Y28418955D01*
X9143911Y28439593D01*
X8987149Y28418955D01*
X8841070Y28358447D01*
X8715629Y28262193D01*
X8619375Y28136752D01*
X8558867Y27990673D01*
X8538229Y27833911D01*
X7550000Y27833911D01*
X7550000Y27944123D01*
X7550033Y27981258D01*
X7550033Y27981260D01*
X7550045Y27995449D01*
X7543902Y28008242D01*
X7542773Y28013210D01*
X7540215Y28020535D01*
X7538006Y28025125D01*
X7534850Y28038962D01*
X7526006Y28050061D01*
X7523636Y28054985D01*
X7520084Y28060647D01*
X7516688Y28064916D01*
X7510547Y28077705D01*
X7499464Y28086568D01*
X7496293Y28090554D01*
X7490809Y28096048D01*
X7486827Y28099227D01*
X7477985Y28110323D01*
X7465207Y28116486D01*
X7460936Y28119896D01*
X7455286Y28123454D01*
X7450366Y28125832D01*
X7439285Y28134694D01*
X7425457Y28137874D01*
X7420876Y28140088D01*
X7413551Y28142661D01*
X7408580Y28143799D01*
X7395798Y28149965D01*
X7372787Y28149985D01*
X7372789Y28151997D01*
X7372723Y28152012D01*
X7372723Y28150000D01*
X7355877Y28150000D01*
X7304551Y28150045D01*
X7304555Y28154850D01*
X7304457Y28154856D01*
X7304457Y28150000D01*
X4236076Y28150000D01*
X4233737Y28150133D01*
X4223223Y28153825D01*
X4209124Y28152256D01*
X4209123Y28152256D01*
X4195800Y28150773D01*
X4187106Y28150291D01*
X4184523Y28150000D01*
X4177454Y28150000D01*
X4177454Y28150375D01*
X4111592Y28161914D01*
X4059386Y28210029D01*
X4041480Y28278731D01*
X4051012Y28323088D01*
X4105904Y28455609D01*
X4109064Y28463238D01*
X4110239Y28472159D01*
X4128624Y28611812D01*
X4129702Y28620000D01*
X4113515Y28742951D01*
X4124454Y28813098D01*
X4171582Y28866197D01*
X4230171Y28883022D01*
X4230000Y28884318D01*
X4386762Y28904956D01*
X4399413Y28910196D01*
X4444032Y28928678D01*
X4532841Y28965464D01*
X4634548Y29043506D01*
X4651736Y29056695D01*
X4658282Y29061718D01*
X4663305Y29068264D01*
X4663308Y29068267D01*
X4710794Y29130153D01*
X4768132Y29172021D01*
X4839003Y29176243D01*
X4858974Y29169859D01*
X4943238Y29134956D01*
X4951426Y29133878D01*
X4995193Y29128116D01*
X5100000Y29114318D01*
X5108188Y29115396D01*
X5248574Y29133878D01*
X5256762Y29134956D01*
X5402841Y29195464D01*
X5409394Y29200492D01*
X5409397Y29200494D01*
X5486461Y29259627D01*
X5552681Y29285228D01*
X5622230Y29270963D01*
X5663127Y29236370D01*
X5714162Y29169859D01*
X5748618Y29124956D01*
X5754018Y29117918D01*
X5879459Y29021664D01*
X6025538Y28961156D01*
X6033726Y28960078D01*
X6103919Y28950837D01*
X6182300Y28940518D01*
X6190488Y28941596D01*
X6330874Y28960078D01*
X6339062Y28961156D01*
X6485141Y29021664D01*
X6610582Y29117918D01*
X6615983Y29124956D01*
X6670085Y29195464D01*
X6706836Y29243359D01*
X6767344Y29389438D01*
X6787982Y29546200D01*
X6773130Y29659012D01*
X6768422Y29694774D01*
X6767344Y29702962D01*
X6706836Y29849041D01*
X6622244Y29959284D01*
X6615605Y29967936D01*
X6610582Y29974482D01*
X6583534Y29995237D01*
X6547559Y30022841D01*
X6485141Y30070736D01*
X6355585Y30124400D01*
X7258218Y30124400D01*
X7278856Y29967638D01*
X7339364Y29821559D01*
X7356373Y29799392D01*
X7426152Y29708455D01*
X7435618Y29696118D01*
X7561059Y29599864D01*
X7707138Y29539356D01*
X7715324Y29538278D01*
X7715325Y29538278D01*
X7742138Y29534748D01*
X7807065Y29506025D01*
X7846156Y29446759D01*
X7847000Y29375767D01*
X7842103Y29361620D01*
X7808367Y29280173D01*
X7807289Y29271985D01*
X7799092Y29209723D01*
X7787729Y29123411D01*
X7788807Y29115223D01*
X7804867Y28993238D01*
X7808367Y28966649D01*
X7868875Y28820570D01*
X7965129Y28695129D01*
X8090570Y28598875D01*
X8236649Y28538367D01*
X8393411Y28517729D01*
X8401599Y28518807D01*
X8541985Y28537289D01*
X8550173Y28538367D01*
X8696252Y28598875D01*
X8821693Y28695129D01*
X8917947Y28820570D01*
X8978455Y28966649D01*
X8981956Y28993238D01*
X8998015Y29115223D01*
X8999093Y29123411D01*
X8987730Y29209723D01*
X8979533Y29271985D01*
X8978455Y29280173D01*
X8917947Y29426252D01*
X8831987Y29538278D01*
X8826716Y29545147D01*
X8821693Y29551693D01*
X8696252Y29647947D01*
X8550173Y29708455D01*
X8541987Y29709533D01*
X8541986Y29709533D01*
X8515173Y29713063D01*
X8450246Y29741786D01*
X8411155Y29801052D01*
X8410573Y29850000D01*
X9769318Y29850000D01*
X9789956Y29693238D01*
X9850464Y29547159D01*
X9946718Y29421718D01*
X9953264Y29416695D01*
X10072159Y29325464D01*
X10071260Y29324292D01*
X10114028Y29279437D01*
X10127462Y29209723D01*
X10101996Y29144999D01*
X10050464Y29077841D01*
X9989956Y28931762D01*
X9988878Y28923574D01*
X9987777Y28915211D01*
X9969318Y28775000D01*
X9989956Y28618238D01*
X10050464Y28472159D01*
X10146718Y28346718D01*
X10153264Y28341695D01*
X10177513Y28323088D01*
X10272159Y28250464D01*
X10418238Y28189956D01*
X10575000Y28169318D01*
X10583188Y28170396D01*
X10723574Y28188878D01*
X10731762Y28189956D01*
X10877841Y28250464D01*
X10972487Y28323088D01*
X10996736Y28341695D01*
X11003282Y28346718D01*
X11099536Y28472159D01*
X11160044Y28618238D01*
X11180682Y28775000D01*
X11162223Y28915211D01*
X11161122Y28923574D01*
X11160044Y28931762D01*
X11099536Y29077841D01*
X11003282Y29203282D01*
X10983738Y29218279D01*
X10877841Y29299536D01*
X10878740Y29300708D01*
X10835972Y29345563D01*
X10822538Y29415277D01*
X10848004Y29480001D01*
X10877642Y29518626D01*
X10899536Y29547159D01*
X10949259Y29667200D01*
X11256118Y29667200D01*
X11276756Y29510438D01*
X11337264Y29364359D01*
X11433518Y29238918D01*
X11440064Y29233895D01*
X11458708Y29219589D01*
X11558959Y29142664D01*
X11705038Y29082156D01*
X11861800Y29061518D01*
X11869988Y29062596D01*
X12010374Y29081078D01*
X12018562Y29082156D01*
X12164641Y29142664D01*
X12264892Y29219589D01*
X12283536Y29233895D01*
X12290082Y29238918D01*
X12386336Y29364359D01*
X12446844Y29510438D01*
X12447418Y29514800D01*
X22838518Y29514800D01*
X22839596Y29506612D01*
X22856027Y29381809D01*
X22859156Y29358038D01*
X22919664Y29211959D01*
X23015918Y29086518D01*
X23022464Y29081495D01*
X23027226Y29077841D01*
X23141359Y28990264D01*
X23287438Y28929756D01*
X23444200Y28909118D01*
X23452388Y28910196D01*
X23592774Y28928678D01*
X23600962Y28929756D01*
X23747041Y28990264D01*
X23861174Y29077841D01*
X23865936Y29081495D01*
X23872482Y29086518D01*
X23968736Y29211959D01*
X24029244Y29358038D01*
X24032374Y29381809D01*
X24048804Y29506612D01*
X24049882Y29514800D01*
X24029244Y29671562D01*
X23968736Y29817641D01*
X23872482Y29943082D01*
X23747041Y30039336D01*
X23619253Y30092268D01*
X23608591Y30096684D01*
X23600962Y30099844D01*
X23444200Y30120482D01*
X23287438Y30099844D01*
X23279809Y30096684D01*
X23269147Y30092268D01*
X23141359Y30039336D01*
X23015918Y29943082D01*
X22919664Y29817641D01*
X22859156Y29671562D01*
X22838518Y29514800D01*
X12447418Y29514800D01*
X12467482Y29667200D01*
X12446844Y29823962D01*
X12386336Y29970041D01*
X12308189Y30071884D01*
X12295105Y30088936D01*
X12290082Y30095482D01*
X12282993Y30100922D01*
X12225274Y30145211D01*
X12164641Y30191736D01*
X12018562Y30252244D01*
X11861800Y30272882D01*
X11705038Y30252244D01*
X11558959Y30191736D01*
X11498326Y30145211D01*
X11440608Y30100922D01*
X11433518Y30095482D01*
X11428495Y30088936D01*
X11415411Y30071884D01*
X11337264Y29970041D01*
X11276756Y29823962D01*
X11256118Y29667200D01*
X10949259Y29667200D01*
X10960044Y29693238D01*
X10980682Y29850000D01*
X10960044Y30006762D01*
X10899536Y30152841D01*
X10803282Y30278282D01*
X10785556Y30291884D01*
X10684392Y30369509D01*
X10677841Y30374536D01*
X10592223Y30410000D01*
X19044318Y30410000D01*
X19064956Y30253238D01*
X19125464Y30107159D01*
X19153412Y30070736D01*
X19211345Y29995237D01*
X19221718Y29981718D01*
X19347159Y29885464D01*
X19493238Y29824956D01*
X19650000Y29804318D01*
X19658188Y29805396D01*
X19798574Y29823878D01*
X19806762Y29824956D01*
X19952841Y29885464D01*
X20078282Y29981718D01*
X20088656Y29995237D01*
X20146588Y30070736D01*
X20174536Y30107159D01*
X20235044Y30253238D01*
X20255682Y30410000D01*
X20235044Y30566762D01*
X20174536Y30712841D01*
X20078282Y30838282D01*
X19952841Y30934536D01*
X19806762Y30995044D01*
X19650000Y31015682D01*
X19493238Y30995044D01*
X19347159Y30934536D01*
X19221718Y30838282D01*
X19125464Y30712841D01*
X19064956Y30566762D01*
X19044318Y30410000D01*
X10592223Y30410000D01*
X10531762Y30435044D01*
X10375000Y30455682D01*
X10218238Y30435044D01*
X10072159Y30374536D01*
X10065608Y30369509D01*
X9964445Y30291884D01*
X9946718Y30278282D01*
X9850464Y30152841D01*
X9789956Y30006762D01*
X9769318Y29850000D01*
X8410573Y29850000D01*
X8410311Y29872044D01*
X8415208Y29886191D01*
X8448944Y29967638D01*
X8469582Y30124400D01*
X8448944Y30281162D01*
X8388436Y30427241D01*
X8292182Y30552682D01*
X8166741Y30648936D01*
X8020662Y30709444D01*
X7863900Y30730082D01*
X7707138Y30709444D01*
X7561059Y30648936D01*
X7435618Y30552682D01*
X7339364Y30427241D01*
X7278856Y30281162D01*
X7258218Y30124400D01*
X6355585Y30124400D01*
X6339062Y30131244D01*
X6328854Y30132588D01*
X6247449Y30143305D01*
X6182300Y30151882D01*
X6117151Y30143305D01*
X6035747Y30132588D01*
X6025538Y30131244D01*
X5879459Y30070736D01*
X5872908Y30065709D01*
X5872903Y30065706D01*
X5795839Y30006573D01*
X5729619Y29980972D01*
X5660070Y29995237D01*
X5619172Y30029831D01*
X5617466Y30032055D01*
X5528282Y30148282D01*
X5402841Y30244536D01*
X5256762Y30305044D01*
X5100000Y30325682D01*
X4943238Y30305044D01*
X4797159Y30244536D01*
X4671718Y30148282D01*
X4666695Y30141736D01*
X4666692Y30141733D01*
X4619206Y30079847D01*
X4561868Y30037979D01*
X4490997Y30033757D01*
X4471025Y30040141D01*
X4463754Y30043153D01*
X4423289Y30059914D01*
X4394391Y30071884D01*
X4386762Y30075044D01*
X4350280Y30079847D01*
X4238188Y30094604D01*
X4230000Y30095682D01*
X4221812Y30094604D01*
X4109721Y30079847D01*
X4073238Y30075044D01*
X3927159Y30014536D01*
X3801718Y29918282D01*
X3705464Y29792841D01*
X3644956Y29646762D01*
X3624318Y29490000D01*
X3640505Y29367049D01*
X3629566Y29296902D01*
X3582438Y29243803D01*
X3523849Y29226978D01*
X3524020Y29225682D01*
X3367258Y29205044D01*
X3221179Y29144536D01*
X3154099Y29093064D01*
X3112988Y29061518D01*
X3095738Y29048282D01*
X3090715Y29041736D01*
X3079171Y29026691D01*
X2999484Y28922841D01*
X2938976Y28776762D01*
X2918338Y28620000D01*
X2919416Y28611812D01*
X2937802Y28472159D01*
X2938976Y28463238D01*
X2999484Y28317159D01*
X3067961Y28227918D01*
X3081688Y28210029D01*
X3095738Y28191718D01*
X3102284Y28186695D01*
X3123525Y28170396D01*
X3221179Y28095464D01*
X3367258Y28034956D01*
X3375446Y28033878D01*
X3399586Y28030700D01*
X3524020Y28014318D01*
X3532208Y28015396D01*
X3549170Y28017629D01*
X3680782Y28034956D01*
X3681164Y28032053D01*
X3738014Y28030700D01*
X3796810Y27990907D01*
X3824759Y27925643D01*
X3812986Y27855629D01*
X3788745Y27821588D01*
X3634088Y27666931D01*
X3632340Y27665370D01*
X3622295Y27660547D01*
X3613435Y27649467D01*
X3613434Y27649467D01*
X3605062Y27638998D01*
X3599263Y27632518D01*
X3597639Y27630482D01*
X3592636Y27625479D01*
X3588875Y27619494D01*
X3586901Y27617020D01*
X3582241Y27610462D01*
X3565306Y27589285D01*
X3562663Y27577789D01*
X3556386Y27567803D01*
X3553456Y27541884D01*
X3553340Y27540862D01*
X3551932Y27532627D01*
X3551596Y27529663D01*
X3550000Y27522723D01*
X3550000Y27515603D01*
X3549684Y27512819D01*
X3549202Y27504262D01*
X3546135Y27477134D01*
X3549859Y27466471D01*
X3550000Y27463941D01*
X3550000Y16826000D01*
X3529998Y16757879D01*
X3476342Y16711386D01*
X3424000Y16700000D01*
X-5353391Y16700000D01*
X-5421512Y16720002D01*
X-5423374Y16722151D01*
X-5467194Y16701505D01*
X-5486609Y16700000D01*
X-19674000Y16700000D01*
X-19742121Y16720002D01*
X-19788614Y16773658D01*
X-19800000Y16826000D01*
X-19800000Y17550000D01*
X-6025682Y17550000D01*
X-6005044Y17393238D01*
X-5944536Y17247159D01*
X-5848282Y17121718D01*
X-5722841Y17025464D01*
X-5576762Y16964956D01*
X-5568574Y16963878D01*
X-5470163Y16950922D01*
X-5418314Y16927985D01*
X-5388889Y16946896D01*
X-5369837Y16950922D01*
X-5271426Y16963878D01*
X-5263238Y16964956D01*
X-5117159Y17025464D01*
X-4991718Y17121718D01*
X-4895464Y17247159D01*
X-4834956Y17393238D01*
X-4814318Y17550000D01*
X-4834956Y17706762D01*
X-4895464Y17852841D01*
X-4991718Y17978282D01*
X-5117159Y18074536D01*
X-5263238Y18135044D01*
X-5420000Y18155682D01*
X-5576762Y18135044D01*
X-5722841Y18074536D01*
X-5763702Y18043182D01*
X-5823126Y17997585D01*
X-5854062Y17985626D01*
X-5864583Y17957038D01*
X-5944536Y17852841D01*
X-6005044Y17706762D01*
X-6025682Y17550000D01*
X-19800000Y17550000D01*
X-19800000Y18927718D01*
X-7805680Y18927718D01*
X-7805164Y18921574D01*
X-7790036Y18741426D01*
X-7788441Y18722427D01*
X-7786742Y18716502D01*
X-7751841Y18594789D01*
X-7731656Y18524394D01*
X-7728841Y18518917D01*
X-7728840Y18518914D01*
X-7640303Y18346639D01*
X-7637488Y18341162D01*
X-7509523Y18179710D01*
X-7504830Y18175716D01*
X-7504829Y18175715D01*
X-7454676Y18133032D01*
X-7352636Y18046189D01*
X-7172802Y17945683D01*
X-7077962Y17914867D01*
X-6982729Y17883924D01*
X-6982725Y17883923D01*
X-6976871Y17882021D01*
X-6772306Y17857629D01*
X-6766171Y17858101D01*
X-6766169Y17858101D01*
X-6710161Y17862411D01*
X-6566900Y17873434D01*
X-6560970Y17875090D01*
X-6560968Y17875090D01*
X-6374403Y17927180D01*
X-6374404Y17927180D01*
X-6368475Y17928835D01*
X-6362986Y17931608D01*
X-6362980Y17931610D01*
X-6190084Y18018947D01*
X-6184590Y18021722D01*
X-6148162Y18050182D01*
X-6042119Y18133032D01*
X-6011125Y18145326D01*
X-6001589Y18171852D01*
X-5995212Y18179879D01*
X-5891660Y18299846D01*
X-5891660Y18299847D01*
X-5887636Y18304508D01*
X-5866813Y18341162D01*
X-5801182Y18456695D01*
X-5785877Y18483636D01*
X-5720849Y18679117D01*
X-5695029Y18883506D01*
X-5694938Y18890000D01*
X-675682Y18890000D01*
X-655044Y18733238D01*
X-594536Y18587159D01*
X-498282Y18461718D01*
X-372841Y18365464D01*
X-226762Y18304956D01*
X-218574Y18303878D01*
X-148381Y18294637D01*
X-70000Y18284318D01*
X-61812Y18285396D01*
X78574Y18303878D01*
X86762Y18304956D01*
X232841Y18365464D01*
X358282Y18461718D01*
X454536Y18587159D01*
X515044Y18733238D01*
X535682Y18890000D01*
X515044Y19046762D01*
X454536Y19192841D01*
X358282Y19318282D01*
X232841Y19414536D01*
X86762Y19475044D01*
X-70000Y19495682D01*
X-226762Y19475044D01*
X-372841Y19414536D01*
X-498282Y19318282D01*
X-594536Y19192841D01*
X-655044Y19046762D01*
X-675682Y18890000D01*
X-5694938Y18890000D01*
X-5694617Y18912980D01*
X-5714720Y19118010D01*
X-5774265Y19315231D01*
X-5870982Y19497131D01*
X-5964810Y19612175D01*
X-5997294Y19652005D01*
X-5997297Y19652008D01*
X-6001189Y19656780D01*
X-6113872Y19750000D01*
X-6155175Y19784169D01*
X-6155179Y19784171D01*
X-6159925Y19788098D01*
X-6341145Y19886083D01*
X-6537946Y19947003D01*
X-6544071Y19947647D01*
X-6544072Y19947647D01*
X-6736702Y19967893D01*
X-6736704Y19967893D01*
X-6742831Y19968537D01*
X-6825234Y19961038D01*
X-6941858Y19950425D01*
X-6941861Y19950424D01*
X-6947997Y19949866D01*
X-7145628Y19891700D01*
X-7328198Y19796254D01*
X-7332999Y19792394D01*
X-7333002Y19792392D01*
X-7343229Y19784169D01*
X-7488753Y19667165D01*
X-7621176Y19509350D01*
X-7624144Y19503952D01*
X-7624147Y19503947D01*
X-7705333Y19356268D01*
X-7720424Y19328818D01*
X-7782716Y19132448D01*
X-7783402Y19126331D01*
X-7783403Y19126327D01*
X-7792327Y19046762D01*
X-7805680Y18927718D01*
X-19800000Y18927718D01*
X-19800000Y20033911D01*
X-5371338Y20033911D01*
X-5350700Y19877149D01*
X-5290192Y19731070D01*
X-5193938Y19605629D01*
X-5068497Y19509375D01*
X-4922418Y19448867D01*
X-4765656Y19428229D01*
X-4757468Y19429307D01*
X-4732667Y19432572D01*
X-4608894Y19448867D01*
X-4462815Y19509375D01*
X-4337374Y19605629D01*
X-4241120Y19731070D01*
X-4180612Y19877149D01*
X-4159974Y20033911D01*
X-4180612Y20190673D01*
X-4241120Y20336752D01*
X-4337374Y20462193D01*
X-4349646Y20471610D01*
X-4414872Y20521659D01*
X-4462815Y20558447D01*
X-4608894Y20618955D01*
X-4765656Y20639593D01*
X-4922418Y20618955D01*
X-5068497Y20558447D01*
X-5116440Y20521659D01*
X-5181665Y20471610D01*
X-5193938Y20462193D01*
X-5290192Y20336752D01*
X-5350700Y20190673D01*
X-5371338Y20033911D01*
X-19800000Y20033911D01*
X-19800000Y21467718D01*
X-7805680Y21467718D01*
X-7788441Y21262427D01*
X-7731656Y21064394D01*
X-7728841Y21058917D01*
X-7728840Y21058914D01*
X-7707953Y21018273D01*
X-7637488Y20881162D01*
X-7509523Y20719710D01*
X-7352636Y20586189D01*
X-7172802Y20485683D01*
X-7100507Y20462193D01*
X-6982729Y20423924D01*
X-6982725Y20423923D01*
X-6976871Y20422021D01*
X-6772306Y20397629D01*
X-6766171Y20398101D01*
X-6766169Y20398101D01*
X-6705570Y20402764D01*
X-6566900Y20413434D01*
X-6560970Y20415090D01*
X-6560968Y20415090D01*
X-6374403Y20467180D01*
X-6374404Y20467180D01*
X-6368475Y20468835D01*
X-6362986Y20471608D01*
X-6362980Y20471610D01*
X-6201025Y20553420D01*
X-6184590Y20561722D01*
X-6022249Y20688556D01*
X-5904906Y20824500D01*
X-375682Y20824500D01*
X-355044Y20667738D01*
X-294536Y20521659D01*
X-198282Y20396218D01*
X-72841Y20299964D01*
X73238Y20239456D01*
X230000Y20218818D01*
X238188Y20219896D01*
X378574Y20238378D01*
X386762Y20239456D01*
X532841Y20299964D01*
X658282Y20396218D01*
X754536Y20521659D01*
X815044Y20667738D01*
X835682Y20824500D01*
X815044Y20981262D01*
X754536Y21127341D01*
X658282Y21252782D01*
X532841Y21349036D01*
X386762Y21409544D01*
X230000Y21430182D01*
X73238Y21409544D01*
X-72841Y21349036D01*
X-198282Y21252782D01*
X-294536Y21127341D01*
X-355044Y20981262D01*
X-375682Y20824500D01*
X-5904906Y20824500D01*
X-5887636Y20844508D01*
X-5866813Y20881162D01*
X-5788924Y21018273D01*
X-5785877Y21023636D01*
X-5720849Y21219117D01*
X-5695029Y21423506D01*
X-5694617Y21452980D01*
X-5714720Y21658010D01*
X-5774265Y21855231D01*
X-5839867Y21978612D01*
X-5854186Y22048150D01*
X-5828638Y22114390D01*
X-5776833Y22154174D01*
X-5631659Y22214307D01*
X-5506218Y22310561D01*
X-5489466Y22332392D01*
X-5476447Y22349359D01*
X-5409964Y22436002D01*
X-5350821Y22578785D01*
X-5306272Y22634065D01*
X-5238909Y22656486D01*
X-5170117Y22638928D01*
X-5121739Y22586965D01*
X-5109490Y22547013D01*
X-5105044Y22513238D01*
X-5044536Y22367159D01*
X-4948282Y22241718D01*
X-4822841Y22145464D01*
X-4676762Y22084956D01*
X-4520000Y22064318D01*
X-4511812Y22065396D01*
X-4371426Y22083878D01*
X-4363238Y22084956D01*
X-4217159Y22145464D01*
X-4091718Y22241718D01*
X-3995464Y22367159D01*
X-3934956Y22513238D01*
X-3927217Y22572021D01*
X-3920077Y22626253D01*
X-3891354Y22691180D01*
X-3832089Y22730271D01*
X-3761097Y22731116D01*
X-3726905Y22713999D01*
X-3726546Y22714621D01*
X-3719393Y22710491D01*
X-3712841Y22705464D01*
X-3566762Y22644956D01*
X-3410000Y22624318D01*
X-3401812Y22625396D01*
X-3261426Y22643878D01*
X-3253238Y22644956D01*
X-3107159Y22705464D01*
X-2981718Y22801718D01*
X-2910324Y22894761D01*
X-2852987Y22936627D01*
X-2782116Y22940849D01*
X-2762152Y22934468D01*
X-2666762Y22894956D01*
X-2510000Y22874318D01*
X-2501812Y22875396D01*
X-2361426Y22893878D01*
X-2353238Y22894956D01*
X-2207159Y22955464D01*
X-2081718Y23051718D01*
X-1985464Y23177159D01*
X-1924956Y23323238D01*
X-1904318Y23480000D01*
X-1924956Y23636762D01*
X-1985464Y23782841D01*
X-2081718Y23908282D01*
X-2083957Y23910000D01*
X1004318Y23910000D01*
X1024956Y23753238D01*
X1085464Y23607159D01*
X1181718Y23481718D01*
X1307159Y23385464D01*
X1453238Y23324956D01*
X1461426Y23323878D01*
X1508444Y23317688D01*
X1610000Y23304318D01*
X1618188Y23305396D01*
X1758574Y23323878D01*
X1766762Y23324956D01*
X1774389Y23328115D01*
X1774392Y23328116D01*
X1840128Y23355345D01*
X1910718Y23362934D01*
X1974205Y23331155D01*
X2004754Y23287155D01*
X2022301Y23244793D01*
X2022304Y23244788D01*
X2025464Y23237159D01*
X2030491Y23230608D01*
X2030494Y23230603D01*
X2119991Y23113968D01*
X2145592Y23047748D01*
X2131327Y22978199D01*
X2081726Y22927403D01*
X2068249Y22920856D01*
X1974643Y22882083D01*
X1849202Y22785829D01*
X1752948Y22660388D01*
X1692440Y22514309D01*
X1671802Y22357547D01*
X1692440Y22200785D01*
X1752948Y22054706D01*
X1849202Y21929265D01*
X1974643Y21833011D01*
X2120722Y21772503D01*
X2277484Y21751865D01*
X2285672Y21752943D01*
X2426058Y21771425D01*
X2434246Y21772503D01*
X2580325Y21833011D01*
X2705766Y21929265D01*
X2802020Y22054706D01*
X2862528Y22200785D01*
X2883166Y22357547D01*
X2862528Y22514309D01*
X2802020Y22660388D01*
X2796992Y22666941D01*
X2796990Y22666944D01*
X2707493Y22783579D01*
X2681892Y22849799D01*
X2696157Y22919348D01*
X2745758Y22970144D01*
X2759237Y22976692D01*
X2762875Y22978199D01*
X2852841Y23015464D01*
X2978282Y23111718D01*
X3074536Y23237159D01*
X3135044Y23383238D01*
X3155682Y23540000D01*
X3135044Y23696762D01*
X3074536Y23842841D01*
X3006059Y23932082D01*
X2983305Y23961736D01*
X2978282Y23968282D01*
X2852841Y24064536D01*
X2706762Y24125044D01*
X2550000Y24145682D01*
X2393238Y24125044D01*
X2385611Y24121885D01*
X2385608Y24121884D01*
X2319872Y24094655D01*
X2249282Y24087066D01*
X2185795Y24118845D01*
X2155246Y24162845D01*
X2137699Y24205207D01*
X2137696Y24205212D01*
X2134536Y24212841D01*
X2038282Y24338282D01*
X2021798Y24350931D01*
X1921868Y24427609D01*
X1912841Y24434536D01*
X1766762Y24495044D01*
X1610000Y24515682D01*
X1453238Y24495044D01*
X1307159Y24434536D01*
X1298132Y24427609D01*
X1198203Y24350931D01*
X1181718Y24338282D01*
X1085464Y24212841D01*
X1024956Y24066762D01*
X1004318Y23910000D01*
X-2083957Y23910000D01*
X-2207159Y24004536D01*
X-2353238Y24065044D01*
X-2366287Y24066762D01*
X-2501812Y24084604D01*
X-2510000Y24085682D01*
X-2518188Y24084604D01*
X-2653712Y24066762D01*
X-2666762Y24065044D01*
X-2812841Y24004536D01*
X-2938282Y23908282D01*
X-3008998Y23816122D01*
X-3009675Y23815240D01*
X-3067013Y23773373D01*
X-3137884Y23769151D01*
X-3157848Y23775532D01*
X-3253238Y23815044D01*
X-3410000Y23835682D01*
X-3566762Y23815044D01*
X-3712841Y23754536D01*
X-3838282Y23658282D01*
X-3934536Y23532841D01*
X-3995044Y23386762D01*
X-3996122Y23378574D01*
X-4009923Y23273747D01*
X-4038646Y23208820D01*
X-4097911Y23169729D01*
X-4168903Y23168884D01*
X-4203095Y23186001D01*
X-4203454Y23185379D01*
X-4210607Y23189509D01*
X-4217159Y23194536D01*
X-4363238Y23255044D01*
X-4520000Y23275682D01*
X-4676762Y23255044D01*
X-4822841Y23194536D01*
X-4948282Y23098282D01*
X-5044536Y22972841D01*
X-5084899Y22875396D01*
X-5103679Y22830058D01*
X-5148228Y22774778D01*
X-5215591Y22752357D01*
X-5284383Y22769915D01*
X-5332761Y22821878D01*
X-5345010Y22861832D01*
X-5346795Y22875396D01*
X-5349456Y22895605D01*
X-5409964Y23041684D01*
X-5506218Y23167125D01*
X-5631659Y23263379D01*
X-5762772Y23317688D01*
X-5818053Y23362236D01*
X-5840474Y23429600D01*
X-5824110Y23496334D01*
X-5785877Y23563636D01*
X-5720849Y23759117D01*
X-5695029Y23963506D01*
X-5694617Y23992980D01*
X-5714720Y24198010D01*
X-5774265Y24395231D01*
X-5870982Y24577131D01*
X-5950004Y24674021D01*
X-5997294Y24732005D01*
X-5997297Y24732008D01*
X-6001189Y24736780D01*
X-6086399Y24807272D01*
X-6097163Y24816177D01*
X-1685609Y24816177D01*
X-1684445Y24807275D01*
X-1684445Y24807272D01*
X-1683186Y24797646D01*
X-1667020Y24674021D01*
X-1609280Y24542797D01*
X-1603503Y24535924D01*
X-1603502Y24535923D01*
X-1585446Y24514443D01*
X-1517030Y24433052D01*
X-1397687Y24353610D01*
X-1260843Y24310858D01*
X-1251871Y24310694D01*
X-1251868Y24310693D01*
X-1186537Y24309496D01*
X-1117501Y24308230D01*
X-1108467Y24310693D01*
X-987842Y24343579D01*
X-987840Y24343580D01*
X-979183Y24345940D01*
X-857009Y24420955D01*
X-850986Y24427609D01*
X-850982Y24427612D01*
X-772387Y24514443D01*
X-711844Y24551524D01*
X-640864Y24549987D01*
X-582521Y24510963D01*
X-517030Y24433052D01*
X-397687Y24353610D01*
X-260843Y24310858D01*
X-251871Y24310694D01*
X-251868Y24310693D01*
X-186537Y24309496D01*
X-117501Y24308230D01*
X-108467Y24310693D01*
X12158Y24343579D01*
X12160Y24343580D01*
X20817Y24345940D01*
X142991Y24420955D01*
X239200Y24527246D01*
X301710Y24656267D01*
X325496Y24797646D01*
X325647Y24810000D01*
X305323Y24951918D01*
X245984Y25082428D01*
X227598Y25103766D01*
X158260Y25184237D01*
X158257Y25184240D01*
X152400Y25191037D01*
X32095Y25269015D01*
X-105261Y25310093D01*
X-114237Y25310148D01*
X-114238Y25310148D01*
X-174445Y25310516D01*
X-248624Y25310969D01*
X-386471Y25271572D01*
X-507720Y25195070D01*
X-513662Y25188342D01*
X-513663Y25188341D01*
X-540356Y25158116D01*
X-584877Y25107705D01*
X-585901Y25106546D01*
X-645987Y25068727D01*
X-716980Y25069397D01*
X-775796Y25107705D01*
X-841740Y25184237D01*
X-841743Y25184240D01*
X-847600Y25191037D01*
X-967905Y25269015D01*
X-1105261Y25310093D01*
X-1114237Y25310148D01*
X-1114238Y25310148D01*
X-1174445Y25310516D01*
X-1248624Y25310969D01*
X-1386471Y25271572D01*
X-1507720Y25195070D01*
X-1513662Y25188342D01*
X-1513663Y25188341D01*
X-1540356Y25158116D01*
X-1602623Y25087612D01*
X-1663553Y24957837D01*
X-1664934Y24948965D01*
X-1675810Y24879111D01*
X-1685609Y24816177D01*
X-6097163Y24816177D01*
X-6155175Y24864169D01*
X-6155179Y24864171D01*
X-6159925Y24868098D01*
X-6341145Y24966083D01*
X-6537946Y25027003D01*
X-6544071Y25027647D01*
X-6544072Y25027647D01*
X-6736702Y25047893D01*
X-6736704Y25047893D01*
X-6742831Y25048537D01*
X-6829671Y25040634D01*
X-6941858Y25030425D01*
X-6941861Y25030424D01*
X-6947997Y25029866D01*
X-7145628Y24971700D01*
X-7151093Y24968843D01*
X-7172145Y24957837D01*
X-7328198Y24876254D01*
X-7332999Y24872394D01*
X-7333002Y24872392D01*
X-7483946Y24751030D01*
X-7488753Y24747165D01*
X-7621176Y24589350D01*
X-7624144Y24583952D01*
X-7624147Y24583947D01*
X-7707101Y24433052D01*
X-7720424Y24408818D01*
X-7782716Y24212448D01*
X-7783402Y24206331D01*
X-7783403Y24206327D01*
X-7799057Y24066762D01*
X-7805680Y24007718D01*
X-7805164Y24001574D01*
X-7789500Y23815044D01*
X-7788441Y23802427D01*
X-7786742Y23796502D01*
X-7738589Y23628574D01*
X-7731656Y23604394D01*
X-7728841Y23598917D01*
X-7728840Y23598914D01*
X-7641825Y23429600D01*
X-7637488Y23421162D01*
X-7509523Y23259710D01*
X-7504830Y23255716D01*
X-7504829Y23255715D01*
X-7403795Y23169729D01*
X-7352636Y23126189D01*
X-7347258Y23123183D01*
X-7347256Y23123182D01*
X-7290990Y23091736D01*
X-7172802Y23025683D01*
X-7077962Y22994867D01*
X-6982729Y22963924D01*
X-6982725Y22963923D01*
X-6976871Y22962021D01*
X-6772306Y22937629D01*
X-6766171Y22938101D01*
X-6766168Y22938101D01*
X-6666229Y22945791D01*
X-6596775Y22931074D01*
X-6546303Y22881143D01*
X-6530837Y22811851D01*
X-6531640Y22803730D01*
X-6540182Y22738843D01*
X-6539104Y22730655D01*
X-6527455Y22642170D01*
X-6538394Y22572021D01*
X-6585523Y22518923D01*
X-6653877Y22499733D01*
X-6665541Y22500414D01*
X-6742831Y22508537D01*
X-6829671Y22500634D01*
X-6941858Y22490425D01*
X-6941861Y22490424D01*
X-6947997Y22489866D01*
X-7145628Y22431700D01*
X-7328198Y22336254D01*
X-7332999Y22332394D01*
X-7333002Y22332392D01*
X-7437636Y22248264D01*
X-7488753Y22207165D01*
X-7621176Y22049350D01*
X-7624144Y22043952D01*
X-7624147Y22043947D01*
X-7717457Y21874215D01*
X-7720424Y21868818D01*
X-7782716Y21672448D01*
X-7783402Y21666331D01*
X-7783403Y21666327D01*
X-7804993Y21473843D01*
X-7805680Y21467718D01*
X-19800000Y21467718D01*
X-19800000Y26547718D01*
X-7805680Y26547718D01*
X-7805164Y26541574D01*
X-7791754Y26381884D01*
X-7788441Y26342427D01*
X-7783311Y26324536D01*
X-7741228Y26177777D01*
X-7731656Y26144394D01*
X-7728841Y26138917D01*
X-7728840Y26138914D01*
X-7641645Y25969250D01*
X-7637488Y25961162D01*
X-7509523Y25799710D01*
X-7504830Y25795716D01*
X-7504829Y25795715D01*
X-7373500Y25683946D01*
X-7352636Y25666189D01*
X-7347258Y25663183D01*
X-7347256Y25663182D01*
X-7334332Y25655959D01*
X-7172802Y25565683D01*
X-7084734Y25537068D01*
X-6982729Y25503924D01*
X-6982725Y25503923D01*
X-6976871Y25502021D01*
X-6772306Y25477629D01*
X-6766171Y25478101D01*
X-6766169Y25478101D01*
X-6710161Y25482411D01*
X-6566900Y25493434D01*
X-6560970Y25495090D01*
X-6560968Y25495090D01*
X-6374403Y25547180D01*
X-6374404Y25547180D01*
X-6368475Y25548835D01*
X-6362986Y25551608D01*
X-6362980Y25551610D01*
X-6190084Y25638947D01*
X-6184590Y25641722D01*
X-6137440Y25678559D01*
X-6082573Y25721426D01*
X-6058799Y25740000D01*
X-2795682Y25740000D01*
X-2775044Y25583238D01*
X-2714536Y25437159D01*
X-2618282Y25311718D01*
X-2492841Y25215464D01*
X-2346762Y25154956D01*
X-2190000Y25134318D01*
X-2181812Y25135396D01*
X-2041426Y25153878D01*
X-2033238Y25154956D01*
X-1887159Y25215464D01*
X-1761718Y25311718D01*
X-1665464Y25437159D01*
X-1604956Y25583238D01*
X-1584318Y25740000D01*
X-1604956Y25896762D01*
X-1665464Y26042841D01*
X-1761718Y26168282D01*
X-1775258Y26178672D01*
X-1818325Y26211718D01*
X-1887159Y26264536D01*
X-2020612Y26319814D01*
X-2025609Y26321884D01*
X-2033238Y26325044D01*
X-2190000Y26345682D01*
X-2346762Y26325044D01*
X-2354391Y26321884D01*
X-2359388Y26319814D01*
X-2492841Y26264536D01*
X-2561675Y26211718D01*
X-2604741Y26178672D01*
X-2618282Y26168282D01*
X-2714536Y26042841D01*
X-2775044Y25896762D01*
X-2795682Y25740000D01*
X-6058799Y25740000D01*
X-6022249Y25768556D01*
X-5992772Y25802705D01*
X-5891660Y25919846D01*
X-5891660Y25919847D01*
X-5887636Y25924508D01*
X-5866813Y25961162D01*
X-5824643Y26035396D01*
X-5785877Y26103636D01*
X-5720849Y26299117D01*
X-5695029Y26503506D01*
X-5694617Y26532980D01*
X-5714720Y26738010D01*
X-5774265Y26935231D01*
X-5870982Y27117131D01*
X-5959873Y27226122D01*
X-5997294Y27272005D01*
X-5997297Y27272008D01*
X-6001189Y27276780D01*
X-6035364Y27305052D01*
X-6155175Y27404169D01*
X-6155179Y27404171D01*
X-6159925Y27408098D01*
X-6341145Y27506083D01*
X-6537946Y27567003D01*
X-6544071Y27567647D01*
X-6544072Y27567647D01*
X-6736702Y27587893D01*
X-6736704Y27587893D01*
X-6742831Y27588537D01*
X-6817904Y27581705D01*
X-6941858Y27570425D01*
X-6941861Y27570424D01*
X-6947997Y27569866D01*
X-7145628Y27511700D01*
X-7151093Y27508843D01*
X-7161977Y27503153D01*
X-7328198Y27416254D01*
X-7332999Y27412394D01*
X-7333002Y27412392D01*
X-7466506Y27305052D01*
X-7488753Y27287165D01*
X-7621176Y27129350D01*
X-7624144Y27123952D01*
X-7624147Y27123947D01*
X-7702385Y26981631D01*
X-7720424Y26948818D01*
X-7782716Y26752448D01*
X-7783402Y26746331D01*
X-7783403Y26746327D01*
X-7796369Y26630731D01*
X-7805680Y26547718D01*
X-19800000Y26547718D01*
X-19800000Y29087718D01*
X-7805680Y29087718D01*
X-7805164Y29081574D01*
X-7790242Y28903878D01*
X-7788441Y28882427D01*
X-7786742Y28876502D01*
X-7734734Y28695129D01*
X-7731656Y28684394D01*
X-7728841Y28678917D01*
X-7728840Y28678914D01*
X-7660221Y28545396D01*
X-7637488Y28501162D01*
X-7509523Y28339710D01*
X-7352636Y28206189D01*
X-7347258Y28203183D01*
X-7347256Y28203182D01*
X-7323591Y28189956D01*
X-7172802Y28105683D01*
X-7086695Y28077705D01*
X-6982729Y28043924D01*
X-6982725Y28043923D01*
X-6976871Y28042021D01*
X-6772306Y28017629D01*
X-6766171Y28018101D01*
X-6766169Y28018101D01*
X-6710161Y28022411D01*
X-6566900Y28033434D01*
X-6560970Y28035090D01*
X-6560968Y28035090D01*
X-6437096Y28069676D01*
X-6368475Y28088835D01*
X-6362986Y28091608D01*
X-6362980Y28091610D01*
X-6190084Y28178947D01*
X-6184590Y28181722D01*
X-6175430Y28188878D01*
X-6096604Y28250464D01*
X-6022249Y28308556D01*
X-5989308Y28346718D01*
X-5891660Y28459846D01*
X-5891660Y28459847D01*
X-5887636Y28464508D01*
X-5883289Y28472159D01*
X-5830574Y28564956D01*
X-5785877Y28643636D01*
X-5720849Y28839117D01*
X-5695029Y29043506D01*
X-5694617Y29072980D01*
X-5702169Y29150000D01*
X-3995682Y29150000D01*
X-3975044Y28993238D01*
X-3914536Y28847159D01*
X-3818282Y28721718D01*
X-3692841Y28625464D01*
X-3546762Y28564956D01*
X-3390000Y28544318D01*
X-3381812Y28545396D01*
X-3241426Y28563878D01*
X-3233238Y28564956D01*
X-3087159Y28625464D01*
X-2961718Y28721718D01*
X-2865464Y28847159D01*
X-2804956Y28993238D01*
X-2784318Y29150000D01*
X-2801359Y29279437D01*
X-2803878Y29298574D01*
X-2804956Y29306762D01*
X-2865464Y29452841D01*
X-2961718Y29578282D01*
X-3087159Y29674536D01*
X-3172777Y29710000D01*
X-1305682Y29710000D01*
X-1285044Y29553238D01*
X-1224536Y29407159D01*
X-1205084Y29381809D01*
X-1142853Y29300708D01*
X-1128282Y29281718D01*
X-1002841Y29185464D01*
X-856762Y29124956D01*
X-848574Y29123878D01*
X-803303Y29117918D01*
X-700000Y29104318D01*
X-691812Y29105396D01*
X-551426Y29123878D01*
X-543238Y29124956D01*
X-397159Y29185464D01*
X-271718Y29281718D01*
X-257146Y29300708D01*
X-194916Y29381809D01*
X-175464Y29407159D01*
X-114956Y29553238D01*
X-94318Y29710000D01*
X-114956Y29866762D01*
X-175464Y30012841D01*
X-264240Y30128537D01*
X-266695Y30131736D01*
X-271718Y30138282D01*
X-397159Y30234536D01*
X-543238Y30295044D01*
X-700000Y30315682D01*
X-856762Y30295044D01*
X-1002841Y30234536D01*
X-1128282Y30138282D01*
X-1133305Y30131736D01*
X-1135760Y30128537D01*
X-1224536Y30012841D01*
X-1285044Y29866762D01*
X-1305682Y29710000D01*
X-3172777Y29710000D01*
X-3233238Y29735044D01*
X-3390000Y29755682D01*
X-3546762Y29735044D01*
X-3692841Y29674536D01*
X-3818282Y29578282D01*
X-3914536Y29452841D01*
X-3975044Y29306762D01*
X-3976122Y29298574D01*
X-3978641Y29279437D01*
X-3995682Y29150000D01*
X-5702169Y29150000D01*
X-5714720Y29278010D01*
X-5774265Y29475231D01*
X-5870982Y29657131D01*
X-5950479Y29754604D01*
X-5997294Y29812005D01*
X-5997297Y29812008D01*
X-6001189Y29816780D01*
X-6005938Y29820709D01*
X-6155175Y29944169D01*
X-6155179Y29944171D01*
X-6159925Y29948098D01*
X-6341145Y30046083D01*
X-6537946Y30107003D01*
X-6544071Y30107647D01*
X-6544072Y30107647D01*
X-6736702Y30127893D01*
X-6736704Y30127893D01*
X-6742831Y30128537D01*
X-6829671Y30120634D01*
X-6941858Y30110425D01*
X-6941861Y30110424D01*
X-6947997Y30109866D01*
X-7145628Y30051700D01*
X-7151093Y30048843D01*
X-7167738Y30040141D01*
X-7328198Y29956254D01*
X-7332999Y29952394D01*
X-7333002Y29952392D01*
X-7475986Y29837430D01*
X-7488753Y29827165D01*
X-7621176Y29669350D01*
X-7624144Y29663952D01*
X-7624147Y29663947D01*
X-7695174Y29534748D01*
X-7720424Y29488818D01*
X-7782716Y29292448D01*
X-7783402Y29286331D01*
X-7783403Y29286327D01*
X-7802595Y29115223D01*
X-7805680Y29087718D01*
X-19800000Y29087718D01*
X-19800000Y31627718D01*
X-7805680Y31627718D01*
X-7788441Y31422427D01*
X-7731656Y31224394D01*
X-7728841Y31218917D01*
X-7728840Y31218914D01*
X-7682327Y31128409D01*
X-7637488Y31041162D01*
X-7509523Y30879710D01*
X-7504830Y30875716D01*
X-7504829Y30875715D01*
X-7485770Y30859495D01*
X-7352636Y30746189D01*
X-7347258Y30743183D01*
X-7347256Y30743182D01*
X-7303892Y30718947D01*
X-7172802Y30645683D01*
X-7077962Y30614867D01*
X-6982729Y30583924D01*
X-6982725Y30583923D01*
X-6976871Y30582021D01*
X-6772306Y30557629D01*
X-6766171Y30558101D01*
X-6766169Y30558101D01*
X-6710161Y30562411D01*
X-6566900Y30573434D01*
X-6560970Y30575090D01*
X-6560968Y30575090D01*
X-6374403Y30627180D01*
X-6374404Y30627180D01*
X-6368475Y30628835D01*
X-6362986Y30631608D01*
X-6362980Y30631610D01*
X-6212238Y30707756D01*
X-6184590Y30721722D01*
X-6173889Y30730082D01*
X-6027099Y30844767D01*
X-6022249Y30848556D01*
X-6012806Y30859495D01*
X-5891660Y30999846D01*
X-5891660Y30999847D01*
X-5887636Y31004508D01*
X-5881900Y31014604D01*
X-5849144Y31072266D01*
X-5785877Y31183636D01*
X-5720849Y31379117D01*
X-5695029Y31583506D01*
X-5694617Y31612980D01*
X-5714720Y31818010D01*
X-5774265Y32015231D01*
X-5870982Y32197131D01*
X-5947730Y32291233D01*
X-5997294Y32352005D01*
X-5997297Y32352008D01*
X-6001189Y32356780D01*
X-6099507Y32438116D01*
X-6155175Y32484169D01*
X-6155179Y32484171D01*
X-6159925Y32488098D01*
X-6341145Y32586083D01*
X-6537946Y32647003D01*
X-6544071Y32647647D01*
X-6544072Y32647647D01*
X-6736702Y32667893D01*
X-6736704Y32667893D01*
X-6742831Y32668537D01*
X-6829671Y32660634D01*
X-6941858Y32650425D01*
X-6941861Y32650424D01*
X-6947997Y32649866D01*
X-7145628Y32591700D01*
X-7328198Y32496254D01*
X-7332999Y32492394D01*
X-7333002Y32492392D01*
X-7483946Y32371030D01*
X-7488753Y32367165D01*
X-7621176Y32209350D01*
X-7624144Y32203952D01*
X-7624147Y32203947D01*
X-7717457Y32034215D01*
X-7720424Y32028818D01*
X-7782716Y31832448D01*
X-7783402Y31826331D01*
X-7783403Y31826327D01*
X-7787033Y31793965D01*
X-7805680Y31627718D01*
X-19800000Y31627718D01*
X-19800000Y34167718D01*
X-7805680Y34167718D01*
X-7805164Y34161574D01*
X-7790353Y33985200D01*
X-7788441Y33962427D01*
X-7786742Y33956502D01*
X-7750020Y33828438D01*
X-7731656Y33764394D01*
X-7728841Y33758917D01*
X-7728840Y33758914D01*
X-7689496Y33682359D01*
X-7637488Y33581162D01*
X-7509523Y33419710D01*
X-7504830Y33415716D01*
X-7504829Y33415715D01*
X-7375454Y33305609D01*
X-7352636Y33286189D01*
X-7172802Y33185683D01*
X-7115791Y33167159D01*
X-6982729Y33123924D01*
X-6982725Y33123923D01*
X-6976871Y33122021D01*
X-6772306Y33097629D01*
X-6766171Y33098101D01*
X-6766169Y33098101D01*
X-6710161Y33102411D01*
X-6566900Y33113434D01*
X-6560970Y33115090D01*
X-6560968Y33115090D01*
X-6374403Y33167180D01*
X-6374404Y33167180D01*
X-6368475Y33168835D01*
X-6362986Y33171608D01*
X-6362980Y33171610D01*
X-6190084Y33258947D01*
X-6184590Y33261722D01*
X-6022249Y33388556D01*
X-6013166Y33399078D01*
X-5951949Y33470000D01*
X-3255682Y33470000D01*
X-3235044Y33313238D01*
X-3174536Y33167159D01*
X-3078282Y33041718D01*
X-3071736Y33036695D01*
X-3042082Y33013941D01*
X-2952841Y32945464D01*
X-2806762Y32884956D01*
X-2650000Y32864318D01*
X-2641812Y32865396D01*
X-2501426Y32883878D01*
X-2493238Y32884956D01*
X-2347159Y32945464D01*
X-2257918Y33013941D01*
X-2250022Y33020000D01*
X-345682Y33020000D01*
X-325044Y32863238D01*
X-264536Y32717159D01*
X-168282Y32591718D01*
X-42841Y32495464D01*
X103238Y32434956D01*
X260000Y32414318D01*
X268188Y32415396D01*
X408574Y32433878D01*
X416762Y32434956D01*
X562841Y32495464D01*
X688282Y32591718D01*
X784536Y32717159D01*
X845044Y32863238D01*
X865682Y33020000D01*
X846308Y33167159D01*
X846122Y33168574D01*
X845044Y33176762D01*
X784536Y33322841D01*
X688282Y33448282D01*
X659979Y33470000D01*
X569392Y33539509D01*
X562841Y33544536D01*
X416762Y33605044D01*
X260000Y33625682D01*
X103238Y33605044D01*
X-42841Y33544536D01*
X-49392Y33539509D01*
X-139978Y33470000D01*
X-168282Y33448282D01*
X-264536Y33322841D01*
X-325044Y33176762D01*
X-326122Y33168574D01*
X-326308Y33167159D01*
X-345682Y33020000D01*
X-2250022Y33020000D01*
X-2228264Y33036695D01*
X-2221718Y33041718D01*
X-2125464Y33167159D01*
X-2064956Y33313238D01*
X-2044318Y33470000D01*
X-2064956Y33626762D01*
X-2125464Y33772841D01*
X-2221718Y33898282D01*
X-2334992Y33985200D01*
X3407518Y33985200D01*
X3428156Y33828438D01*
X3488664Y33682359D01*
X3584918Y33556918D01*
X3710359Y33460664D01*
X3856438Y33400156D01*
X4013200Y33379518D01*
X4021388Y33380596D01*
X4161774Y33399078D01*
X4169962Y33400156D01*
X4316041Y33460664D01*
X4441482Y33556918D01*
X4537736Y33682359D01*
X4598244Y33828438D01*
X4618882Y33985200D01*
X4598244Y34141962D01*
X4537736Y34288041D01*
X4441482Y34413482D01*
X4316041Y34509736D01*
X4169962Y34570244D01*
X4013200Y34590882D01*
X3856438Y34570244D01*
X3710359Y34509736D01*
X3584918Y34413482D01*
X3488664Y34288041D01*
X3428156Y34141962D01*
X3407518Y33985200D01*
X-2334992Y33985200D01*
X-2347159Y33994536D01*
X-2353255Y33997061D01*
X-2401720Y34047886D01*
X-2412801Y34105367D01*
X-2469057Y34065305D01*
X-2526717Y34059452D01*
X-2641812Y34074604D01*
X-2650000Y34075682D01*
X-2806762Y34055044D01*
X-2952841Y33994536D01*
X-3078282Y33898282D01*
X-3174536Y33772841D01*
X-3235044Y33626762D01*
X-3255682Y33470000D01*
X-5951949Y33470000D01*
X-5891660Y33539846D01*
X-5891660Y33539847D01*
X-5887636Y33544508D01*
X-5883439Y33551895D01*
X-5788924Y33718273D01*
X-5785877Y33723636D01*
X-5720849Y33919117D01*
X-5695029Y34123506D01*
X-5694617Y34152980D01*
X-5714720Y34358010D01*
X-5774265Y34555231D01*
X-5870982Y34737131D01*
X-5938569Y34820000D01*
X-2755682Y34820000D01*
X-2735044Y34663238D01*
X-2674536Y34517159D01*
X-2578282Y34391718D01*
X-2452841Y34295464D01*
X-2446745Y34292939D01*
X-2398280Y34242114D01*
X-2387199Y34184633D01*
X-2330943Y34224695D01*
X-2273283Y34230548D01*
X-2158188Y34215396D01*
X-2150000Y34214318D01*
X-2141812Y34215396D01*
X-2001426Y34233878D01*
X-1993238Y34234956D01*
X-1847159Y34295464D01*
X-1754808Y34366327D01*
X-1728264Y34386695D01*
X-1721718Y34391718D01*
X-1625464Y34517159D01*
X-1564956Y34663238D01*
X-1544318Y34820000D01*
X-1564956Y34976762D01*
X-1625464Y35122841D01*
X-1721718Y35248282D01*
X-1847159Y35344536D01*
X-1993238Y35405044D01*
X-2150000Y35425682D01*
X-2306762Y35405044D01*
X-2452841Y35344536D01*
X-2578282Y35248282D01*
X-2674536Y35122841D01*
X-2735044Y34976762D01*
X-2755682Y34820000D01*
X-5938569Y34820000D01*
X-5963244Y34850255D01*
X-5997294Y34892005D01*
X-5997297Y34892008D01*
X-6001189Y34896780D01*
X-6008027Y34902437D01*
X-6155175Y35024169D01*
X-6155179Y35024171D01*
X-6159925Y35028098D01*
X-6306151Y35107162D01*
X-6335726Y35123153D01*
X-6341145Y35126083D01*
X-6537946Y35187003D01*
X-6544071Y35187647D01*
X-6544072Y35187647D01*
X-6736702Y35207893D01*
X-6736704Y35207893D01*
X-6742831Y35208537D01*
X-6811322Y35202304D01*
X-6941858Y35190425D01*
X-6941861Y35190424D01*
X-6947997Y35189866D01*
X-7145628Y35131700D01*
X-7151093Y35128843D01*
X-7161977Y35123153D01*
X-7328198Y35036254D01*
X-7332999Y35032394D01*
X-7333002Y35032392D01*
X-7445163Y34942212D01*
X-7488753Y34907165D01*
X-7621176Y34749350D01*
X-7624144Y34743952D01*
X-7624147Y34743947D01*
X-7689313Y34625409D01*
X-7720424Y34568818D01*
X-7722287Y34562945D01*
X-7754276Y34462101D01*
X-7782716Y34372448D01*
X-7783402Y34366331D01*
X-7783403Y34366327D01*
X-7791351Y34295464D01*
X-7805680Y34167718D01*
X-19800000Y34167718D01*
X-19800000Y35823232D01*
X-7800700Y35823232D01*
X-7799493Y35817164D01*
X-7796270Y35800963D01*
X-7789067Y35764749D01*
X-7744752Y35698428D01*
X-7678431Y35654113D01*
X-7666262Y35651692D01*
X-7666261Y35651692D01*
X-7626016Y35643687D01*
X-7619948Y35642480D01*
X-5880452Y35642480D01*
X-5874384Y35643687D01*
X-5834139Y35651692D01*
X-5834138Y35651692D01*
X-5821969Y35654113D01*
X-5755648Y35698428D01*
X-5711333Y35764749D01*
X-5704129Y35800963D01*
X-5700907Y35817164D01*
X-5699700Y35823232D01*
X-5699700Y36690000D01*
X-3205682Y36690000D01*
X-3185044Y36533238D01*
X-3124536Y36387159D01*
X-3028282Y36261718D01*
X-2902841Y36165464D01*
X-2756762Y36104956D01*
X-2600000Y36084318D01*
X-2591812Y36085396D01*
X-2451426Y36103878D01*
X-2443238Y36104956D01*
X-2440290Y36106177D01*
X-1685609Y36106177D01*
X-1684445Y36097275D01*
X-1684445Y36097272D01*
X-1681199Y36072449D01*
X-1667020Y35964021D01*
X-1609280Y35832797D01*
X-1603503Y35825924D01*
X-1603502Y35825923D01*
X-1522810Y35729928D01*
X-1517030Y35723052D01*
X-1495531Y35708741D01*
X-1409828Y35651692D01*
X-1397687Y35643610D01*
X-1260843Y35600858D01*
X-1251871Y35600694D01*
X-1251868Y35600693D01*
X-1186537Y35599496D01*
X-1117501Y35598230D01*
X-1108467Y35600693D01*
X-987842Y35633579D01*
X-987840Y35633580D01*
X-979183Y35635940D01*
X-857009Y35710955D01*
X-850988Y35717607D01*
X-850982Y35717612D01*
X-772387Y35804443D01*
X-711844Y35841524D01*
X-640864Y35839987D01*
X-582521Y35800963D01*
X-522810Y35729928D01*
X-517030Y35723052D01*
X-495531Y35708741D01*
X-409828Y35651692D01*
X-397687Y35643610D01*
X-260843Y35600858D01*
X-251871Y35600694D01*
X-251868Y35600693D01*
X-186537Y35599496D01*
X-117501Y35598230D01*
X-108467Y35600693D01*
X12158Y35633579D01*
X12160Y35633580D01*
X20817Y35635940D01*
X142991Y35710955D01*
X149012Y35717607D01*
X149018Y35717612D01*
X216730Y35792420D01*
X277273Y35829501D01*
X348253Y35827964D01*
X407134Y35788296D01*
X435067Y35724311D01*
X454956Y35573238D01*
X515464Y35427159D01*
X611718Y35301718D01*
X618264Y35296695D01*
X633555Y35284962D01*
X737159Y35205464D01*
X883238Y35144956D01*
X913267Y35141003D01*
X978193Y35112282D01*
X1017286Y35053017D01*
X1021742Y35032533D01*
X1040456Y34890383D01*
X1100964Y34744304D01*
X1197218Y34618863D01*
X1322659Y34522609D01*
X1468738Y34462101D01*
X1625500Y34441463D01*
X1633688Y34442541D01*
X1774074Y34461023D01*
X1782262Y34462101D01*
X1928341Y34522609D01*
X2053782Y34618863D01*
X2150036Y34744304D01*
X2210544Y34890383D01*
X2231182Y35047145D01*
X2210544Y35203907D01*
X2150036Y35349986D01*
X2053782Y35475427D01*
X1928341Y35571681D01*
X1782262Y35632189D01*
X1752233Y35636142D01*
X1687307Y35664863D01*
X1648214Y35724128D01*
X1643758Y35744612D01*
X1625044Y35886762D01*
X1564536Y36032841D01*
X1468282Y36158282D01*
X1342841Y36254536D01*
X1196762Y36315044D01*
X1040000Y36335682D01*
X883238Y36315044D01*
X737159Y36254536D01*
X611718Y36158282D01*
X606695Y36151736D01*
X545856Y36072449D01*
X488518Y36030582D01*
X417647Y36026360D01*
X355744Y36061124D01*
X322462Y36123837D01*
X321166Y36131291D01*
X306596Y36233032D01*
X306595Y36233035D01*
X305323Y36241918D01*
X298605Y36256695D01*
X286179Y36284023D01*
X245984Y36372428D01*
X226716Y36394789D01*
X158260Y36474237D01*
X158257Y36474240D01*
X152400Y36481037D01*
X32095Y36559015D01*
X-105261Y36600093D01*
X-114237Y36600148D01*
X-114238Y36600148D01*
X-174445Y36600516D01*
X-248624Y36600969D01*
X-386471Y36561572D01*
X-507720Y36485070D01*
X-584877Y36397705D01*
X-585901Y36396546D01*
X-645987Y36358727D01*
X-716980Y36359397D01*
X-775796Y36397705D01*
X-841740Y36474237D01*
X-841743Y36474240D01*
X-847600Y36481037D01*
X-967905Y36559015D01*
X-1105261Y36600093D01*
X-1114237Y36600148D01*
X-1114238Y36600148D01*
X-1174445Y36600516D01*
X-1248624Y36600969D01*
X-1386471Y36561572D01*
X-1507720Y36485070D01*
X-1602623Y36377612D01*
X-1663553Y36247837D01*
X-1668402Y36216695D01*
X-1682859Y36123837D01*
X-1685609Y36106177D01*
X-2440290Y36106177D01*
X-2297159Y36165464D01*
X-2171718Y36261718D01*
X-2075464Y36387159D01*
X-2014956Y36533238D01*
X-1999584Y36650000D01*
X11814318Y36650000D01*
X11834956Y36493238D01*
X11895464Y36347159D01*
X11991718Y36221718D01*
X11998264Y36216695D01*
X12045204Y36180677D01*
X12087071Y36123339D01*
X12094500Y36080714D01*
X12094500Y35224710D01*
X12094020Y35213728D01*
X12093021Y35202304D01*
X12090736Y35176193D01*
X12100166Y35141003D01*
X12100491Y35139790D01*
X12102870Y35129058D01*
X12109412Y35091955D01*
X12114923Y35082410D01*
X12116115Y35079134D01*
X12117592Y35075966D01*
X12120446Y35065316D01*
X12128147Y35054318D01*
X12142055Y35034456D01*
X12147961Y35025185D01*
X12148548Y35024169D01*
X12166806Y34992545D01*
X12182202Y34979626D01*
X12195682Y34968315D01*
X12203785Y34960889D01*
X12252689Y34911985D01*
X12260116Y34903881D01*
X12284345Y34875006D01*
X12293894Y34869493D01*
X12316985Y34856161D01*
X12326256Y34850255D01*
X12357115Y34828647D01*
X12356347Y34827551D01*
X12376948Y34813126D01*
X13505995Y33684078D01*
X13540021Y33621766D01*
X13542900Y33594983D01*
X13542900Y31862086D01*
X13522898Y31793965D01*
X13493604Y31762123D01*
X13440118Y31721082D01*
X13343864Y31595641D01*
X13283356Y31449562D01*
X13262718Y31292800D01*
X13283356Y31136038D01*
X13343864Y30989959D01*
X13440118Y30864518D01*
X13565559Y30768264D01*
X13711638Y30707756D01*
X13868400Y30687118D01*
X13876588Y30688196D01*
X14016974Y30706678D01*
X14025162Y30707756D01*
X14171241Y30768264D01*
X14296682Y30864518D01*
X14392936Y30989959D01*
X14453444Y31136038D01*
X14474082Y31292800D01*
X14453444Y31449562D01*
X14392936Y31595641D01*
X14296682Y31721082D01*
X14243196Y31762123D01*
X14201329Y31819461D01*
X14193900Y31862086D01*
X14193900Y33762287D01*
X14194379Y33773268D01*
X14196703Y33799830D01*
X14196703Y33799832D01*
X14197663Y33810807D01*
X14187908Y33847217D01*
X14185533Y33857928D01*
X14180901Y33884194D01*
X14178988Y33895045D01*
X14173478Y33904589D01*
X14172286Y33907865D01*
X14170807Y33911036D01*
X14167954Y33921684D01*
X14146340Y33952552D01*
X14140436Y33961821D01*
X14127107Y33984908D01*
X14127104Y33984912D01*
X14121594Y33994455D01*
X14092724Y34018680D01*
X14084621Y34026106D01*
X13160326Y34950400D01*
X18901518Y34950400D01*
X18922156Y34793638D01*
X18982664Y34647559D01*
X19078918Y34522118D01*
X19204359Y34425864D01*
X19350438Y34365356D01*
X19507200Y34344718D01*
X19515388Y34345796D01*
X19655774Y34364278D01*
X19663962Y34365356D01*
X19810041Y34425864D01*
X19935482Y34522118D01*
X20031736Y34647559D01*
X20092244Y34793638D01*
X20112882Y34950400D01*
X20092244Y35107162D01*
X20031736Y35253241D01*
X19951997Y35357159D01*
X19940505Y35372136D01*
X19935482Y35378682D01*
X19905245Y35401884D01*
X19816592Y35469909D01*
X19810041Y35474936D01*
X19663962Y35535444D01*
X19507200Y35556082D01*
X19350438Y35535444D01*
X19204359Y35474936D01*
X19197808Y35469909D01*
X19109156Y35401884D01*
X19078918Y35378682D01*
X19073895Y35372136D01*
X19062403Y35357159D01*
X18982664Y35253241D01*
X18922156Y35107162D01*
X18901518Y34950400D01*
X13160326Y34950400D01*
X12782405Y35328321D01*
X12748380Y35390633D01*
X12745500Y35417416D01*
X12745500Y35660000D01*
X13624318Y35660000D01*
X13644956Y35503238D01*
X13705464Y35357159D01*
X13727592Y35328321D01*
X13791058Y35245611D01*
X13801718Y35231718D01*
X13808264Y35226695D01*
X13825163Y35213728D01*
X13927159Y35135464D01*
X14073238Y35074956D01*
X14230000Y35054318D01*
X14238188Y35055396D01*
X14378574Y35073878D01*
X14386762Y35074956D01*
X14532841Y35135464D01*
X14634837Y35213728D01*
X14651736Y35226695D01*
X14658282Y35231718D01*
X14668943Y35245611D01*
X14732408Y35328321D01*
X14754536Y35357159D01*
X14815044Y35503238D01*
X14835682Y35660000D01*
X14815044Y35816762D01*
X14754536Y35962841D01*
X14658282Y36088282D01*
X14532841Y36184536D01*
X14386762Y36245044D01*
X14348457Y36250087D01*
X14238188Y36264604D01*
X14230000Y36265682D01*
X14221812Y36264604D01*
X14111544Y36250087D01*
X14073238Y36245044D01*
X13927159Y36184536D01*
X13801718Y36088282D01*
X13705464Y35962841D01*
X13644956Y35816762D01*
X13624318Y35660000D01*
X12745500Y35660000D01*
X12745500Y36080714D01*
X12765502Y36148835D01*
X12794796Y36180677D01*
X12841736Y36216695D01*
X12848282Y36221718D01*
X12944536Y36347159D01*
X13005044Y36493238D01*
X13025682Y36650000D01*
X13005044Y36806762D01*
X12944536Y36952841D01*
X12848282Y37078282D01*
X12722841Y37174536D01*
X12576762Y37235044D01*
X12420000Y37255682D01*
X12263238Y37235044D01*
X12117159Y37174536D01*
X11991718Y37078282D01*
X11895464Y36952841D01*
X11834956Y36806762D01*
X11814318Y36650000D01*
X-1999584Y36650000D01*
X-1994318Y36690000D01*
X-2010899Y36815944D01*
X-1999960Y36886091D01*
X-1952832Y36939190D01*
X-1902424Y36957311D01*
X-1818738Y36968328D01*
X-1672659Y37028836D01*
X-1547218Y37125090D01*
X-1450964Y37250531D01*
X-1390456Y37396610D01*
X-1386718Y37425000D01*
X10444318Y37425000D01*
X10464956Y37268238D01*
X10525464Y37122159D01*
X10621718Y36996718D01*
X10747159Y36900464D01*
X10893238Y36839956D01*
X11050000Y36819318D01*
X11058188Y36820396D01*
X11198574Y36838878D01*
X11206762Y36839956D01*
X11352841Y36900464D01*
X11478282Y36996718D01*
X11574536Y37122159D01*
X11635044Y37268238D01*
X11655682Y37425000D01*
X11635044Y37581762D01*
X11574536Y37727841D01*
X11478282Y37853282D01*
X11460629Y37866828D01*
X11420798Y37897391D01*
X11352841Y37949536D01*
X11206762Y38010044D01*
X11050000Y38030682D01*
X10893238Y38010044D01*
X10747159Y37949536D01*
X10679202Y37897391D01*
X10639372Y37866828D01*
X10621718Y37853282D01*
X10525464Y37727841D01*
X10464956Y37581762D01*
X10444318Y37425000D01*
X-1386718Y37425000D01*
X-1369818Y37553372D01*
X-1390456Y37710134D01*
X-1450964Y37856213D01*
X-1547218Y37981654D01*
X-1672659Y38077908D01*
X-1818738Y38138416D01*
X-1975500Y38159054D01*
X-2132262Y38138416D01*
X-2278341Y38077908D01*
X-2403782Y37981654D01*
X-2500036Y37856213D01*
X-2560544Y37710134D01*
X-2581182Y37553372D01*
X-2564601Y37427428D01*
X-2575540Y37357281D01*
X-2622668Y37304182D01*
X-2673076Y37286061D01*
X-2756762Y37275044D01*
X-2902841Y37214536D01*
X-3028282Y37118282D01*
X-3124536Y36992841D01*
X-3185044Y36846762D01*
X-3205682Y36690000D01*
X-5699700Y36690000D01*
X-5699700Y37562728D01*
X-5703486Y37581762D01*
X-5708912Y37609041D01*
X-5708912Y37609042D01*
X-5711333Y37621211D01*
X-5755648Y37687532D01*
X-5821969Y37731847D01*
X-5834138Y37734268D01*
X-5834139Y37734268D01*
X-5874384Y37742273D01*
X-5880452Y37743480D01*
X-7619948Y37743480D01*
X-7626016Y37742273D01*
X-7666261Y37734268D01*
X-7666262Y37734268D01*
X-7678431Y37731847D01*
X-7744752Y37687532D01*
X-7789067Y37621211D01*
X-7791488Y37609042D01*
X-7791488Y37609041D01*
X-7796914Y37581762D01*
X-7800700Y37562728D01*
X-7800700Y35823232D01*
X-19800000Y35823232D01*
X-19800000Y38610563D01*
X-296519Y38610563D01*
X-275881Y38453801D01*
X-215373Y38307722D01*
X-119119Y38182281D01*
X6322Y38086027D01*
X152401Y38025519D01*
X309163Y38004881D01*
X317351Y38005959D01*
X457737Y38024441D01*
X465925Y38025519D01*
X612004Y38086027D01*
X696418Y38150800D01*
X9147918Y38150800D01*
X9148996Y38142612D01*
X9163109Y38035416D01*
X9168556Y37994038D01*
X9229064Y37847959D01*
X9325318Y37722518D01*
X9450759Y37626264D01*
X9596838Y37565756D01*
X9753600Y37545118D01*
X9761788Y37546196D01*
X9902174Y37564678D01*
X9910362Y37565756D01*
X10056441Y37626264D01*
X10181882Y37722518D01*
X10278136Y37847959D01*
X10338644Y37994038D01*
X10344092Y38035416D01*
X10358204Y38142612D01*
X10359282Y38150800D01*
X10338644Y38307562D01*
X10278136Y38453641D01*
X10181882Y38579082D01*
X10056441Y38675336D01*
X9910362Y38735844D01*
X9753600Y38756482D01*
X9596838Y38735844D01*
X9450759Y38675336D01*
X9325318Y38579082D01*
X9229064Y38453641D01*
X9168556Y38307562D01*
X9147918Y38150800D01*
X696418Y38150800D01*
X737445Y38182281D01*
X833699Y38307722D01*
X894207Y38453801D01*
X914845Y38610563D01*
X894207Y38767325D01*
X833699Y38913404D01*
X737445Y39038845D01*
X612004Y39135099D01*
X465925Y39195607D01*
X309163Y39216245D01*
X152401Y39195607D01*
X6322Y39135099D01*
X-119119Y39038845D01*
X-215373Y38913404D01*
X-275881Y38767325D01*
X-296519Y38610563D01*
X-19800000Y38610563D01*
X-19800000Y42174000D01*
X-19779998Y42242121D01*
X-19726342Y42288614D01*
X-19674000Y42300000D01*
X-9326000Y42300000D01*
X-9257879Y42279998D01*
G37*
%TD.AperFunction*%
%TD*%
M02*
