%TF.GenerationSoftware,KiCad,Pcbnew,8.0.5*%
%TF.CreationDate,2025-03-27T16:47:24+00:00*%
%TF.ProjectId,BG95V4_4902-30029-07,42473935-5634-45f3-9439-30322d333030,rev?*%
%TF.SameCoordinates,Original*%
%TF.FileFunction,Drillmap*%
%TF.FilePolarity,Positive*%
%FSLAX45Y45*%
G04 Gerber Fmt 4.5, Leading zero omitted, Abs format (unit mm)*
G04 Created by KiCad (PCBNEW 8.0.5) date 2025-03-27 16:47:24*
%MOMM*%
%LPD*%
G01*
G04 APERTURE LIST*
%ADD10C,0.050000*%
%ADD11C,0.200000*%
%ADD12C,0.100000*%
%ADD13C,0.120000*%
G04 APERTURE END LIST*
D10*
X400000Y2250000D02*
X400000Y-300000D01*
X7500000Y-300000D02*
X400000Y-300000D01*
X7500000Y-300000D02*
X7500000Y2250000D01*
X7500000Y2250000D02*
X400000Y2250000D01*
D11*
D12*
X558300Y2119539D02*
X588300Y2089539D01*
X588300Y2119539D02*
X558300Y2089539D01*
X558300Y1979539D02*
X588300Y1949539D01*
X588300Y1979539D02*
X558300Y1949539D01*
X558300Y1839539D02*
X588300Y1809539D01*
X588300Y1839539D02*
X558300Y1809539D01*
X558300Y1699539D02*
X588300Y1669539D01*
X588300Y1699539D02*
X558300Y1669539D01*
X558300Y1559539D02*
X588300Y1529539D01*
X588300Y1559539D02*
X558300Y1529539D01*
X558300Y1139539D02*
X588300Y1109539D01*
X588300Y1139539D02*
X558300Y1109539D01*
X558300Y439539D02*
X588300Y409539D01*
X588300Y439539D02*
X558300Y409539D01*
X558300Y159539D02*
X588300Y129539D01*
X588300Y159539D02*
X558300Y129539D01*
X558300Y19539D02*
X588300Y-10461D01*
X588300Y19539D02*
X558300Y-10461D01*
X558300Y-120461D02*
X588300Y-150461D01*
X588300Y-120461D02*
X558300Y-150461D01*
X698300Y2119539D02*
X728300Y2089539D01*
X728300Y2119539D02*
X698300Y2089539D01*
X698300Y1979539D02*
X728300Y1949539D01*
X728300Y1979539D02*
X698300Y1949539D01*
X698300Y1839539D02*
X728300Y1809539D01*
X728300Y1839539D02*
X698300Y1809539D01*
X698300Y1699539D02*
X728300Y1669539D01*
X728300Y1699539D02*
X698300Y1669539D01*
X698300Y1559539D02*
X728300Y1529539D01*
X728300Y1559539D02*
X698300Y1529539D01*
X698300Y159539D02*
X728300Y129539D01*
X728300Y159539D02*
X698300Y129539D01*
X838300Y2119539D02*
X868300Y2089539D01*
X868300Y2119539D02*
X838300Y2089539D01*
X838300Y1979539D02*
X868300Y1949539D01*
X868300Y1979539D02*
X838300Y1949539D01*
X838300Y1839539D02*
X868300Y1809539D01*
X868300Y1839539D02*
X838300Y1809539D01*
X838300Y1699539D02*
X868300Y1669539D01*
X868300Y1699539D02*
X838300Y1669539D01*
X838300Y1559539D02*
X868300Y1529539D01*
X868300Y1559539D02*
X838300Y1529539D01*
X838300Y1419539D02*
X868300Y1389539D01*
X868300Y1419539D02*
X838300Y1389539D01*
X838300Y1279539D02*
X868300Y1249539D01*
X868300Y1279539D02*
X838300Y1249539D01*
X838300Y299539D02*
X868300Y269539D01*
X868300Y299539D02*
X838300Y269539D01*
X838300Y159539D02*
X868300Y129539D01*
X868300Y159539D02*
X838300Y129539D01*
X978300Y1699539D02*
X1008300Y1669539D01*
X1008300Y1699539D02*
X978300Y1669539D01*
X978300Y1559539D02*
X1008300Y1529539D01*
X1008300Y1559539D02*
X978300Y1529539D01*
X978300Y1419539D02*
X1008300Y1389539D01*
X1008300Y1419539D02*
X978300Y1389539D01*
X978300Y1279539D02*
X1008300Y1249539D01*
X1008300Y1279539D02*
X978300Y1249539D01*
X978300Y439539D02*
X1008300Y409539D01*
X1008300Y439539D02*
X978300Y409539D01*
X978300Y19539D02*
X1008300Y-10461D01*
X1008300Y19539D02*
X978300Y-10461D01*
X1118300Y1279539D02*
X1148300Y1249539D01*
X1148300Y1279539D02*
X1118300Y1249539D01*
X1118300Y1139539D02*
X1148300Y1109539D01*
X1148300Y1139539D02*
X1118300Y1109539D01*
X1118300Y999539D02*
X1148300Y969539D01*
X1148300Y999539D02*
X1118300Y969539D01*
X1118300Y579539D02*
X1148300Y549539D01*
X1148300Y579539D02*
X1118300Y549539D01*
X1258300Y1139539D02*
X1288300Y1109539D01*
X1288300Y1139539D02*
X1258300Y1109539D01*
X1258300Y999539D02*
X1288300Y969539D01*
X1288300Y999539D02*
X1258300Y969539D01*
X1258300Y859539D02*
X1288300Y829539D01*
X1288300Y859539D02*
X1258300Y829539D01*
X1398300Y1839539D02*
X1428300Y1809539D01*
X1428300Y1839539D02*
X1398300Y1809539D01*
X1398300Y1699539D02*
X1428300Y1669539D01*
X1428300Y1699539D02*
X1398300Y1669539D01*
X1398300Y1139539D02*
X1428300Y1109539D01*
X1428300Y1139539D02*
X1398300Y1109539D01*
X1398300Y999539D02*
X1428300Y969539D01*
X1428300Y999539D02*
X1398300Y969539D01*
X1818300Y-120461D02*
X1848300Y-150461D01*
X1848300Y-120461D02*
X1818300Y-150461D01*
X1958300Y-120461D02*
X1988300Y-150461D01*
X1988300Y-120461D02*
X1958300Y-150461D01*
X2098300Y-120461D02*
X2128300Y-150461D01*
X2128300Y-120461D02*
X2098300Y-150461D01*
X2238300Y1979539D02*
X2268300Y1949539D01*
X2268300Y1979539D02*
X2238300Y1949539D01*
X2238300Y1839539D02*
X2268300Y1809539D01*
X2268300Y1839539D02*
X2238300Y1809539D01*
X2238300Y1699539D02*
X2268300Y1669539D01*
X2268300Y1699539D02*
X2238300Y1669539D01*
X2238300Y19539D02*
X2268300Y-10461D01*
X2268300Y19539D02*
X2238300Y-10461D01*
X2238300Y-120461D02*
X2268300Y-150461D01*
X2268300Y-120461D02*
X2238300Y-150461D01*
X2378300Y2119539D02*
X2408300Y2089539D01*
X2408300Y2119539D02*
X2378300Y2089539D01*
X2378300Y1979539D02*
X2408300Y1949539D01*
X2408300Y1979539D02*
X2378300Y1949539D01*
X2378300Y1839539D02*
X2408300Y1809539D01*
X2408300Y1839539D02*
X2378300Y1809539D01*
X2378300Y1699539D02*
X2408300Y1669539D01*
X2408300Y1699539D02*
X2378300Y1669539D01*
X2378300Y1559539D02*
X2408300Y1529539D01*
X2408300Y1559539D02*
X2378300Y1529539D01*
X2378300Y19539D02*
X2408300Y-10461D01*
X2408300Y19539D02*
X2378300Y-10461D01*
X2378300Y-120461D02*
X2408300Y-150461D01*
X2408300Y-120461D02*
X2378300Y-150461D01*
X2474200Y2090180D02*
X2504200Y2060180D01*
X2504200Y2090180D02*
X2474200Y2060180D01*
X2474200Y1907300D02*
X2504200Y1877300D01*
X2504200Y1907300D02*
X2474200Y1877300D01*
X2476740Y2001280D02*
X2506740Y1971280D01*
X2506740Y2001280D02*
X2476740Y1971280D01*
X2499600Y1820940D02*
X2529600Y1790940D01*
X2529600Y1820940D02*
X2499600Y1790940D01*
X2518300Y1699539D02*
X2548300Y1669539D01*
X2548300Y1699539D02*
X2518300Y1669539D01*
X2518300Y1559539D02*
X2548300Y1529539D01*
X2548300Y1559539D02*
X2518300Y1529539D01*
X2527540Y2174000D02*
X2557540Y2144000D01*
X2557540Y2174000D02*
X2527540Y2144000D01*
X2588500Y1793000D02*
X2618500Y1763000D01*
X2618500Y1793000D02*
X2588500Y1763000D01*
X2596120Y1627900D02*
X2626120Y1597900D01*
X2626120Y1627900D02*
X2596120Y1597900D01*
X2618980Y2186700D02*
X2648980Y2156700D01*
X2648980Y2186700D02*
X2618980Y2156700D01*
X2618980Y1711720D02*
X2648980Y1681720D01*
X2648980Y1711720D02*
X2618980Y1681720D01*
X2624060Y1539000D02*
X2654060Y1509000D01*
X2654060Y1539000D02*
X2624060Y1509000D01*
X2819640Y1732040D02*
X2849640Y1702040D01*
X2849640Y1732040D02*
X2819640Y1702040D01*
X2822180Y2189240D02*
X2852180Y2159240D01*
X2852180Y2189240D02*
X2822180Y2159240D01*
X2822180Y1533920D02*
X2852180Y1503920D01*
X2852180Y1533920D02*
X2822180Y1503920D01*
X2837420Y1798080D02*
X2867420Y1768080D01*
X2867420Y1798080D02*
X2837420Y1768080D01*
X2903460Y1528840D02*
X2933460Y1498840D01*
X2933460Y1528840D02*
X2903460Y1498840D01*
X2906000Y2186700D02*
X2936000Y2156700D01*
X2936000Y2186700D02*
X2906000Y2156700D01*
X2913620Y1737120D02*
X2943620Y1707120D01*
X2943620Y1737120D02*
X2913620Y1707120D01*
X2938300Y1419539D02*
X2968300Y1389539D01*
X2968300Y1419539D02*
X2938300Y1389539D01*
X2938300Y-120461D02*
X2968300Y-150461D01*
X2968300Y-120461D02*
X2938300Y-150461D01*
X2964420Y1838720D02*
X2994420Y1808720D01*
X2994420Y1838720D02*
X2964420Y1808720D01*
X2969500Y2125740D02*
X2999500Y2095740D01*
X2999500Y2125740D02*
X2969500Y2095740D01*
X2969500Y1940320D02*
X2999500Y1910320D01*
X2999500Y1940320D02*
X2969500Y1910320D01*
X2972040Y2034300D02*
X3002040Y2004300D01*
X3002040Y2034300D02*
X2972040Y2004300D01*
X2987280Y1533920D02*
X3017280Y1503920D01*
X3017280Y1533920D02*
X2987280Y1503920D01*
X2997440Y1734580D02*
X3027440Y1704580D01*
X3027440Y1734580D02*
X2997440Y1704580D01*
X3076180Y1732040D02*
X3106180Y1702040D01*
X3106180Y1732040D02*
X3076180Y1702040D01*
X3078300Y2119539D02*
X3108300Y2089539D01*
X3108300Y2119539D02*
X3078300Y2089539D01*
X3078300Y1979539D02*
X3108300Y1949539D01*
X3108300Y1979539D02*
X3078300Y1949539D01*
X3078300Y1839539D02*
X3108300Y1809539D01*
X3108300Y1839539D02*
X3078300Y1809539D01*
X3078300Y-120461D02*
X3108300Y-150461D01*
X3108300Y-120461D02*
X3078300Y-150461D01*
X3083800Y1528840D02*
X3113800Y1498840D01*
X3113800Y1528840D02*
X3083800Y1498840D01*
X3152380Y1729500D02*
X3182380Y1699500D01*
X3182380Y1729500D02*
X3152380Y1699500D01*
X3218300Y2119539D02*
X3248300Y2089539D01*
X3248300Y2119539D02*
X3218300Y2089539D01*
X3218300Y1979539D02*
X3248300Y1949539D01*
X3248300Y1979539D02*
X3218300Y1949539D01*
X3218300Y-120461D02*
X3248300Y-150461D01*
X3248300Y-120461D02*
X3218300Y-150461D01*
X3309860Y1539000D02*
X3339860Y1509000D01*
X3339860Y1539000D02*
X3309860Y1509000D01*
X3358300Y2119539D02*
X3388300Y2089539D01*
X3388300Y2119539D02*
X3358300Y2089539D01*
X3358300Y1979539D02*
X3388300Y1949539D01*
X3388300Y1979539D02*
X3358300Y1949539D01*
X4338300Y-120461D02*
X4368300Y-150461D01*
X4368300Y-120461D02*
X4338300Y-150461D01*
X4478300Y999539D02*
X4508300Y969539D01*
X4508300Y999539D02*
X4478300Y969539D01*
X4478300Y-120461D02*
X4508300Y-150461D01*
X4508300Y-120461D02*
X4478300Y-150461D01*
X4618300Y-120461D02*
X4648300Y-150461D01*
X4648300Y-120461D02*
X4618300Y-150461D01*
X4758300Y1279539D02*
X4788300Y1249539D01*
X4788300Y1279539D02*
X4758300Y1249539D01*
X4758300Y-120461D02*
X4788300Y-150461D01*
X4788300Y-120461D02*
X4758300Y-150461D01*
X4898300Y-120461D02*
X4928300Y-150461D01*
X4928300Y-120461D02*
X4898300Y-150461D01*
X5038300Y-120461D02*
X5068300Y-150461D01*
X5068300Y-120461D02*
X5038300Y-150461D01*
X5178300Y1699539D02*
X5208300Y1669539D01*
X5208300Y1699539D02*
X5178300Y1669539D01*
X5178300Y-120461D02*
X5208300Y-150461D01*
X5208300Y-120461D02*
X5178300Y-150461D01*
X5318300Y-120461D02*
X5348300Y-150461D01*
X5348300Y-120461D02*
X5318300Y-150461D01*
X5458300Y-120461D02*
X5488300Y-150461D01*
X5488300Y-120461D02*
X5458300Y-150461D01*
X5598300Y-120461D02*
X5628300Y-150461D01*
X5628300Y-120461D02*
X5598300Y-150461D01*
X5738300Y2119539D02*
X5768300Y2089539D01*
X5768300Y2119539D02*
X5738300Y2089539D01*
X5738300Y-120461D02*
X5768300Y-150461D01*
X5768300Y-120461D02*
X5738300Y-150461D01*
X5878300Y-120461D02*
X5908300Y-150461D01*
X5908300Y-120461D02*
X5878300Y-150461D01*
X6018300Y-120461D02*
X6048300Y-150461D01*
X6048300Y-120461D02*
X6018300Y-150461D01*
X6158300Y-120461D02*
X6188300Y-150461D01*
X6188300Y-120461D02*
X6158300Y-150461D01*
X6298300Y-120461D02*
X6328300Y-150461D01*
X6328300Y-120461D02*
X6298300Y-150461D01*
X6438300Y-120461D02*
X6468300Y-150461D01*
X6468300Y-120461D02*
X6438300Y-150461D01*
X6858300Y19539D02*
X6888300Y-10461D01*
X6888300Y19539D02*
X6858300Y-10461D01*
X6858300Y-120461D02*
X6888300Y-150461D01*
X6888300Y-120461D02*
X6858300Y-150461D01*
X6998300Y1559539D02*
X7028300Y1529539D01*
X7028300Y1559539D02*
X6998300Y1529539D01*
X6998300Y1139539D02*
X7028300Y1109539D01*
X7028300Y1139539D02*
X6998300Y1109539D01*
X6998300Y999539D02*
X7028300Y969539D01*
X7028300Y999539D02*
X6998300Y969539D01*
X6998300Y859539D02*
X7028300Y829539D01*
X7028300Y859539D02*
X6998300Y829539D01*
X6998300Y719539D02*
X7028300Y689539D01*
X7028300Y719539D02*
X6998300Y689539D01*
X6998300Y579539D02*
X7028300Y549539D01*
X7028300Y579539D02*
X6998300Y549539D01*
X6998300Y439539D02*
X7028300Y409539D01*
X7028300Y439539D02*
X6998300Y409539D01*
X6998300Y299539D02*
X7028300Y269539D01*
X7028300Y299539D02*
X6998300Y269539D01*
X6998300Y159539D02*
X7028300Y129539D01*
X7028300Y159539D02*
X6998300Y129539D01*
X6998300Y19539D02*
X7028300Y-10461D01*
X7028300Y19539D02*
X6998300Y-10461D01*
X6998300Y-120461D02*
X7028300Y-150461D01*
X7028300Y-120461D02*
X6998300Y-150461D01*
X7138300Y1559539D02*
X7168300Y1529539D01*
X7168300Y1559539D02*
X7138300Y1529539D01*
X7138300Y1419539D02*
X7168300Y1389539D01*
X7168300Y1419539D02*
X7138300Y1389539D01*
X7138300Y1279539D02*
X7168300Y1249539D01*
X7168300Y1279539D02*
X7138300Y1249539D01*
X7138300Y1139539D02*
X7168300Y1109539D01*
X7168300Y1139539D02*
X7138300Y1109539D01*
X7138300Y999539D02*
X7168300Y969539D01*
X7168300Y999539D02*
X7138300Y969539D01*
X7138300Y859539D02*
X7168300Y829539D01*
X7168300Y859539D02*
X7138300Y829539D01*
X7138300Y719539D02*
X7168300Y689539D01*
X7168300Y719539D02*
X7138300Y689539D01*
X7138300Y439539D02*
X7168300Y409539D01*
X7168300Y439539D02*
X7138300Y409539D01*
X7138300Y299539D02*
X7168300Y269539D01*
X7168300Y299539D02*
X7138300Y269539D01*
X7138300Y159539D02*
X7168300Y129539D01*
X7168300Y159539D02*
X7138300Y129539D01*
X7138300Y19539D02*
X7168300Y-10461D01*
X7168300Y19539D02*
X7138300Y-10461D01*
X7138300Y-120461D02*
X7168300Y-150461D01*
X7168300Y-120461D02*
X7138300Y-150461D01*
X7278300Y1419539D02*
X7308300Y1389539D01*
X7308300Y1419539D02*
X7278300Y1389539D01*
X7278300Y1279539D02*
X7308300Y1249539D01*
X7308300Y1279539D02*
X7278300Y1249539D01*
X7278300Y1139539D02*
X7308300Y1109539D01*
X7308300Y1139539D02*
X7278300Y1109539D01*
X7278300Y999539D02*
X7308300Y969539D01*
X7308300Y999539D02*
X7278300Y969539D01*
X7278300Y859539D02*
X7308300Y829539D01*
X7308300Y859539D02*
X7278300Y829539D01*
X7278300Y719539D02*
X7308300Y689539D01*
X7308300Y719539D02*
X7278300Y689539D01*
X7278300Y579539D02*
X7308300Y549539D01*
X7308300Y579539D02*
X7278300Y549539D01*
X7278300Y439539D02*
X7308300Y409539D01*
X7308300Y439539D02*
X7278300Y409539D01*
X7278300Y299539D02*
X7308300Y269539D01*
X7308300Y299539D02*
X7278300Y269539D01*
X7278300Y159539D02*
X7308300Y129539D01*
X7308300Y159539D02*
X7278300Y129539D01*
X7278300Y19539D02*
X7308300Y-10461D01*
X7308300Y19539D02*
X7278300Y-10461D01*
X7278300Y-120461D02*
X7308300Y-150461D01*
X7308300Y-120461D02*
X7278300Y-150461D01*
X1559240Y723900D02*
G75*
G02*
X1519240Y723900I-20000J0D01*
G01*
X1519240Y723900D02*
G75*
G02*
X1559240Y723900I20000J0D01*
G01*
X1561780Y530860D02*
G75*
G02*
X1521780Y530860I-20000J0D01*
G01*
X1521780Y530860D02*
G75*
G02*
X1561780Y530860I20000J0D01*
G01*
X1932620Y1483360D02*
G75*
G02*
X1892620Y1483360I-20000J0D01*
G01*
X1892620Y1483360D02*
G75*
G02*
X1932620Y1483360I20000J0D01*
G01*
X2060000Y47500D02*
G75*
G02*
X2020000Y47500I-20000J0D01*
G01*
X2020000Y47500D02*
G75*
G02*
X2060000Y47500I20000J0D01*
G01*
X2560000Y381000D02*
G75*
G02*
X2520000Y381000I-20000J0D01*
G01*
X2520000Y381000D02*
G75*
G02*
X2560000Y381000I20000J0D01*
G01*
X2840000Y1190000D02*
G75*
G02*
X2800000Y1190000I-20000J0D01*
G01*
X2800000Y1190000D02*
G75*
G02*
X2840000Y1190000I20000J0D01*
G01*
X3116260Y33020D02*
G75*
G02*
X3076260Y33020I-20000J0D01*
G01*
X3076260Y33020D02*
G75*
G02*
X3116260Y33020I20000J0D01*
G01*
X3278000Y990000D02*
G75*
G02*
X3238000Y990000I-20000J0D01*
G01*
X3238000Y990000D02*
G75*
G02*
X3278000Y990000I20000J0D01*
G01*
X3471000Y196000D02*
G75*
G02*
X3431000Y196000I-20000J0D01*
G01*
X3431000Y196000D02*
G75*
G02*
X3471000Y196000I20000J0D01*
G01*
X3576000Y-127000D02*
G75*
G02*
X3536000Y-127000I-20000J0D01*
G01*
X3536000Y-127000D02*
G75*
G02*
X3576000Y-127000I20000J0D01*
G01*
X3639500Y1663700D02*
G75*
G02*
X3599500Y1663700I-20000J0D01*
G01*
X3599500Y1663700D02*
G75*
G02*
X3639500Y1663700I20000J0D01*
G01*
X3639500Y1549400D02*
G75*
G02*
X3599500Y1549400I-20000J0D01*
G01*
X3599500Y1549400D02*
G75*
G02*
X3639500Y1549400I20000J0D01*
G01*
X3639500Y1447800D02*
G75*
G02*
X3599500Y1447800I-20000J0D01*
G01*
X3599500Y1447800D02*
G75*
G02*
X3639500Y1447800I20000J0D01*
G01*
X3639500Y1333500D02*
G75*
G02*
X3599500Y1333500I-20000J0D01*
G01*
X3599500Y1333500D02*
G75*
G02*
X3639500Y1333500I20000J0D01*
G01*
X3940000Y570000D02*
G75*
G02*
X3900000Y570000I-20000J0D01*
G01*
X3900000Y570000D02*
G75*
G02*
X3940000Y570000I20000J0D01*
G01*
X3957000Y1651000D02*
G75*
G02*
X3917000Y1651000I-20000J0D01*
G01*
X3917000Y1651000D02*
G75*
G02*
X3957000Y1651000I20000J0D01*
G01*
X4033000Y72000D02*
G75*
G02*
X3993000Y72000I-20000J0D01*
G01*
X3993000Y72000D02*
G75*
G02*
X4033000Y72000I20000J0D01*
G01*
X4174000Y71999D02*
G75*
G02*
X4134000Y71999I-20000J0D01*
G01*
X4134000Y71999D02*
G75*
G02*
X4174000Y71999I20000J0D01*
G01*
X4260000Y1325000D02*
G75*
G02*
X4220000Y1325000I-20000J0D01*
G01*
X4220000Y1325000D02*
G75*
G02*
X4260000Y1325000I20000J0D01*
G01*
X4287500Y1060000D02*
G75*
G02*
X4247500Y1060000I-20000J0D01*
G01*
X4247500Y1060000D02*
G75*
G02*
X4287500Y1060000I20000J0D01*
G01*
X4327000Y53000D02*
G75*
G02*
X4287000Y53000I-20000J0D01*
G01*
X4287000Y53000D02*
G75*
G02*
X4327000Y53000I20000J0D01*
G01*
X4518340Y2123440D02*
G75*
G02*
X4478340Y2123440I-20000J0D01*
G01*
X4478340Y2123440D02*
G75*
G02*
X4518340Y2123440I20000J0D01*
G01*
X4635180Y2118360D02*
G75*
G02*
X4595180Y2118360I-20000J0D01*
G01*
X4595180Y2118360D02*
G75*
G02*
X4635180Y2118360I20000J0D01*
G01*
X4743398Y1049102D02*
G75*
G02*
X4703398Y1049102I-20000J0D01*
G01*
X4703398Y1049102D02*
G75*
G02*
X4743398Y1049102I20000J0D01*
G01*
X4896800Y304800D02*
G75*
G02*
X4856800Y304800I-20000J0D01*
G01*
X4856800Y304800D02*
G75*
G02*
X4896800Y304800I20000J0D01*
G01*
X4963000Y1315000D02*
G75*
G02*
X4923000Y1315000I-20000J0D01*
G01*
X4923000Y1315000D02*
G75*
G02*
X4963000Y1315000I20000J0D01*
G01*
X5097500Y385000D02*
G75*
G02*
X5057500Y385000I-20000J0D01*
G01*
X5057500Y385000D02*
G75*
G02*
X5097500Y385000I20000J0D01*
G01*
X5200000Y295000D02*
G75*
G02*
X5160000Y295000I-20000J0D01*
G01*
X5160000Y295000D02*
G75*
G02*
X5200000Y295000I20000J0D01*
G01*
X5211760Y2123440D02*
G75*
G02*
X5171760Y2123440I-20000J0D01*
G01*
X5171760Y2123440D02*
G75*
G02*
X5211760Y2123440I20000J0D01*
G01*
X5389560Y1673860D02*
G75*
G02*
X5349560Y1673860I-20000J0D01*
G01*
X5349560Y1673860D02*
G75*
G02*
X5389560Y1673860I20000J0D01*
G01*
X5445000Y674000D02*
G75*
G02*
X5405000Y674000I-20000J0D01*
G01*
X5405000Y674000D02*
G75*
G02*
X5445000Y674000I20000J0D01*
G01*
X5508940Y1318260D02*
G75*
G02*
X5468940Y1318260I-20000J0D01*
G01*
X5468940Y1318260D02*
G75*
G02*
X5508940Y1318260I20000J0D01*
G01*
X5816000Y83000D02*
G75*
G02*
X5776000Y83000I-20000J0D01*
G01*
X5776000Y83000D02*
G75*
G02*
X5816000Y83000I20000J0D01*
G01*
X5855000Y1462500D02*
G75*
G02*
X5815000Y1462500I-20000J0D01*
G01*
X5815000Y1462500D02*
G75*
G02*
X5855000Y1462500I20000J0D01*
G01*
X5863229Y364421D02*
G75*
G02*
X5823229Y364421I-20000J0D01*
G01*
X5823229Y364421D02*
G75*
G02*
X5863229Y364421I20000J0D01*
G01*
X5917500Y1335000D02*
G75*
G02*
X5877500Y1335000I-20000J0D01*
G01*
X5877500Y1335000D02*
G75*
G02*
X5917500Y1335000I20000J0D01*
G01*
X5932550Y1965960D02*
G75*
G02*
X5892550Y1965960I-20000J0D01*
G01*
X5892550Y1965960D02*
G75*
G02*
X5932550Y1965960I20000J0D01*
G01*
X5948360Y1838960D02*
G75*
G02*
X5908360Y1838960I-20000J0D01*
G01*
X5908360Y1838960D02*
G75*
G02*
X5948360Y1838960I20000J0D01*
G01*
X5971220Y876300D02*
G75*
G02*
X5931220Y876300I-20000J0D01*
G01*
X5931220Y876300D02*
G75*
G02*
X5971220Y876300I20000J0D01*
G01*
X6034720Y1094740D02*
G75*
G02*
X5994720Y1094740I-20000J0D01*
G01*
X5994720Y1094740D02*
G75*
G02*
X6034720Y1094740I20000J0D01*
G01*
X6347500Y1612500D02*
G75*
G02*
X6307500Y1612500I-20000J0D01*
G01*
X6307500Y1612500D02*
G75*
G02*
X6347500Y1612500I20000J0D01*
G01*
X6372500Y1430000D02*
G75*
G02*
X6332500Y1430000I-20000J0D01*
G01*
X6332500Y1430000D02*
G75*
G02*
X6372500Y1430000I20000J0D01*
G01*
X6425000Y1127500D02*
G75*
G02*
X6385000Y1127500I-20000J0D01*
G01*
X6385000Y1127500D02*
G75*
G02*
X6425000Y1127500I20000J0D01*
G01*
X6425000Y755000D02*
G75*
G02*
X6385000Y755000I-20000J0D01*
G01*
X6385000Y755000D02*
G75*
G02*
X6425000Y755000I20000J0D01*
G01*
X6482500Y1602500D02*
G75*
G02*
X6442500Y1602500I-20000J0D01*
G01*
X6442500Y1602500D02*
G75*
G02*
X6482500Y1602500I20000J0D01*
G01*
X6745000Y1350000D02*
G75*
G02*
X6705000Y1350000I-20000J0D01*
G01*
X6705000Y1350000D02*
G75*
G02*
X6745000Y1350000I20000J0D01*
G01*
X6802500Y1610000D02*
G75*
G02*
X6762500Y1610000I-20000J0D01*
G01*
X6762500Y1610000D02*
G75*
G02*
X6802500Y1610000I20000J0D01*
G01*
X6870000Y327500D02*
G75*
G02*
X6830000Y327500I-20000J0D01*
G01*
X6830000Y327500D02*
G75*
G02*
X6870000Y327500I20000J0D01*
G01*
X6887500Y1350000D02*
G75*
G02*
X6847500Y1350000I-20000J0D01*
G01*
X6847500Y1350000D02*
G75*
G02*
X6887500Y1350000I20000J0D01*
G01*
D13*
X800000Y-90000D02*
X800000Y-210000D01*
X740000Y-150000D02*
X860000Y-150000D01*
X1175000Y2010000D02*
X1175000Y1890000D01*
X1115000Y1950000D02*
X1235000Y1950000D01*
X1175000Y-90000D02*
X1175000Y-210000D01*
X1115000Y-150000D02*
X1235000Y-150000D01*
X1550000Y-90000D02*
X1550000Y-210000D01*
X1490000Y-150000D02*
X1610000Y-150000D01*
D11*
X658277Y-613984D02*
X658277Y-413984D01*
X658277Y-413984D02*
X705896Y-413984D01*
X705896Y-413984D02*
X734467Y-423508D01*
X734467Y-423508D02*
X753515Y-442555D01*
X753515Y-442555D02*
X763039Y-461603D01*
X763039Y-461603D02*
X772562Y-499698D01*
X772562Y-499698D02*
X772562Y-528270D01*
X772562Y-528270D02*
X763039Y-566365D01*
X763039Y-566365D02*
X753515Y-585412D01*
X753515Y-585412D02*
X734467Y-604460D01*
X734467Y-604460D02*
X705896Y-613984D01*
X705896Y-613984D02*
X658277Y-613984D01*
X858277Y-613984D02*
X858277Y-480650D01*
X858277Y-518746D02*
X867801Y-499698D01*
X867801Y-499698D02*
X877324Y-490174D01*
X877324Y-490174D02*
X896372Y-480650D01*
X896372Y-480650D02*
X915420Y-480650D01*
X982086Y-613984D02*
X982086Y-480650D01*
X982086Y-413984D02*
X972562Y-423508D01*
X972562Y-423508D02*
X982086Y-433031D01*
X982086Y-433031D02*
X991610Y-423508D01*
X991610Y-423508D02*
X982086Y-413984D01*
X982086Y-413984D02*
X982086Y-433031D01*
X1105896Y-613984D02*
X1086848Y-604460D01*
X1086848Y-604460D02*
X1077324Y-585412D01*
X1077324Y-585412D02*
X1077324Y-413984D01*
X1210658Y-613984D02*
X1191610Y-604460D01*
X1191610Y-604460D02*
X1182086Y-585412D01*
X1182086Y-585412D02*
X1182086Y-413984D01*
X1439229Y-613984D02*
X1439229Y-413984D01*
X1439229Y-413984D02*
X1505896Y-556841D01*
X1505896Y-556841D02*
X1572562Y-413984D01*
X1572562Y-413984D02*
X1572562Y-613984D01*
X1753515Y-613984D02*
X1753515Y-509222D01*
X1753515Y-509222D02*
X1743991Y-490174D01*
X1743991Y-490174D02*
X1724943Y-480650D01*
X1724943Y-480650D02*
X1686848Y-480650D01*
X1686848Y-480650D02*
X1667801Y-490174D01*
X1753515Y-604460D02*
X1734467Y-613984D01*
X1734467Y-613984D02*
X1686848Y-613984D01*
X1686848Y-613984D02*
X1667801Y-604460D01*
X1667801Y-604460D02*
X1658277Y-585412D01*
X1658277Y-585412D02*
X1658277Y-566365D01*
X1658277Y-566365D02*
X1667801Y-547317D01*
X1667801Y-547317D02*
X1686848Y-537793D01*
X1686848Y-537793D02*
X1734467Y-537793D01*
X1734467Y-537793D02*
X1753515Y-528270D01*
X1848753Y-480650D02*
X1848753Y-680650D01*
X1848753Y-490174D02*
X1867801Y-480650D01*
X1867801Y-480650D02*
X1905896Y-480650D01*
X1905896Y-480650D02*
X1924943Y-490174D01*
X1924943Y-490174D02*
X1934467Y-499698D01*
X1934467Y-499698D02*
X1943991Y-518746D01*
X1943991Y-518746D02*
X1943991Y-575889D01*
X1943991Y-575889D02*
X1934467Y-594936D01*
X1934467Y-594936D02*
X1924943Y-604460D01*
X1924943Y-604460D02*
X1905896Y-613984D01*
X1905896Y-613984D02*
X1867801Y-613984D01*
X1867801Y-613984D02*
X1848753Y-604460D01*
X2029705Y-594936D02*
X2039229Y-604460D01*
X2039229Y-604460D02*
X2029705Y-613984D01*
X2029705Y-613984D02*
X2020182Y-604460D01*
X2020182Y-604460D02*
X2029705Y-594936D01*
X2029705Y-594936D02*
X2029705Y-613984D01*
X2029705Y-490174D02*
X2039229Y-499698D01*
X2039229Y-499698D02*
X2029705Y-509222D01*
X2029705Y-509222D02*
X2020182Y-499698D01*
X2020182Y-499698D02*
X2029705Y-490174D01*
X2029705Y-490174D02*
X2029705Y-509222D01*
D12*
X367500Y-927500D02*
X397500Y-957500D01*
X397500Y-927500D02*
X367500Y-957500D01*
D11*
X696372Y-833984D02*
X715420Y-833984D01*
X715420Y-833984D02*
X734467Y-843508D01*
X734467Y-843508D02*
X743991Y-853031D01*
X743991Y-853031D02*
X753515Y-872079D01*
X753515Y-872079D02*
X763039Y-910174D01*
X763039Y-910174D02*
X763039Y-957793D01*
X763039Y-957793D02*
X753515Y-995888D01*
X753515Y-995888D02*
X743991Y-1014936D01*
X743991Y-1014936D02*
X734467Y-1024460D01*
X734467Y-1024460D02*
X715420Y-1033984D01*
X715420Y-1033984D02*
X696372Y-1033984D01*
X696372Y-1033984D02*
X677324Y-1024460D01*
X677324Y-1024460D02*
X667801Y-1014936D01*
X667801Y-1014936D02*
X658277Y-995888D01*
X658277Y-995888D02*
X648753Y-957793D01*
X648753Y-957793D02*
X648753Y-910174D01*
X648753Y-910174D02*
X658277Y-872079D01*
X658277Y-872079D02*
X667801Y-853031D01*
X667801Y-853031D02*
X677324Y-843508D01*
X677324Y-843508D02*
X696372Y-833984D01*
X848753Y-1014936D02*
X858277Y-1024460D01*
X858277Y-1024460D02*
X848753Y-1033984D01*
X848753Y-1033984D02*
X839229Y-1024460D01*
X839229Y-1024460D02*
X848753Y-1014936D01*
X848753Y-1014936D02*
X848753Y-1033984D01*
X924943Y-833984D02*
X1048753Y-833984D01*
X1048753Y-833984D02*
X982086Y-910174D01*
X982086Y-910174D02*
X1010658Y-910174D01*
X1010658Y-910174D02*
X1029705Y-919698D01*
X1029705Y-919698D02*
X1039229Y-929222D01*
X1039229Y-929222D02*
X1048753Y-948269D01*
X1048753Y-948269D02*
X1048753Y-995888D01*
X1048753Y-995888D02*
X1039229Y-1014936D01*
X1039229Y-1014936D02*
X1029705Y-1024460D01*
X1029705Y-1024460D02*
X1010658Y-1033984D01*
X1010658Y-1033984D02*
X953515Y-1033984D01*
X953515Y-1033984D02*
X934467Y-1024460D01*
X934467Y-1024460D02*
X924943Y-1014936D01*
X1172563Y-833984D02*
X1191610Y-833984D01*
X1191610Y-833984D02*
X1210658Y-843508D01*
X1210658Y-843508D02*
X1220182Y-853031D01*
X1220182Y-853031D02*
X1229705Y-872079D01*
X1229705Y-872079D02*
X1239229Y-910174D01*
X1239229Y-910174D02*
X1239229Y-957793D01*
X1239229Y-957793D02*
X1229705Y-995888D01*
X1229705Y-995888D02*
X1220182Y-1014936D01*
X1220182Y-1014936D02*
X1210658Y-1024460D01*
X1210658Y-1024460D02*
X1191610Y-1033984D01*
X1191610Y-1033984D02*
X1172563Y-1033984D01*
X1172563Y-1033984D02*
X1153515Y-1024460D01*
X1153515Y-1024460D02*
X1143991Y-1014936D01*
X1143991Y-1014936D02*
X1134467Y-995888D01*
X1134467Y-995888D02*
X1124944Y-957793D01*
X1124944Y-957793D02*
X1124944Y-910174D01*
X1124944Y-910174D02*
X1134467Y-872079D01*
X1134467Y-872079D02*
X1143991Y-853031D01*
X1143991Y-853031D02*
X1153515Y-843508D01*
X1153515Y-843508D02*
X1172563Y-833984D01*
X1363039Y-833984D02*
X1382086Y-833984D01*
X1382086Y-833984D02*
X1401134Y-843508D01*
X1401134Y-843508D02*
X1410658Y-853031D01*
X1410658Y-853031D02*
X1420182Y-872079D01*
X1420182Y-872079D02*
X1429705Y-910174D01*
X1429705Y-910174D02*
X1429705Y-957793D01*
X1429705Y-957793D02*
X1420182Y-995888D01*
X1420182Y-995888D02*
X1410658Y-1014936D01*
X1410658Y-1014936D02*
X1401134Y-1024460D01*
X1401134Y-1024460D02*
X1382086Y-1033984D01*
X1382086Y-1033984D02*
X1363039Y-1033984D01*
X1363039Y-1033984D02*
X1343991Y-1024460D01*
X1343991Y-1024460D02*
X1334467Y-1014936D01*
X1334467Y-1014936D02*
X1324944Y-995888D01*
X1324944Y-995888D02*
X1315420Y-957793D01*
X1315420Y-957793D02*
X1315420Y-910174D01*
X1315420Y-910174D02*
X1324944Y-872079D01*
X1324944Y-872079D02*
X1334467Y-853031D01*
X1334467Y-853031D02*
X1343991Y-843508D01*
X1343991Y-843508D02*
X1363039Y-833984D01*
X1515420Y-1033984D02*
X1515420Y-900650D01*
X1515420Y-919698D02*
X1524943Y-910174D01*
X1524943Y-910174D02*
X1543991Y-900650D01*
X1543991Y-900650D02*
X1572563Y-900650D01*
X1572563Y-900650D02*
X1591610Y-910174D01*
X1591610Y-910174D02*
X1601134Y-929222D01*
X1601134Y-929222D02*
X1601134Y-1033984D01*
X1601134Y-929222D02*
X1610658Y-910174D01*
X1610658Y-910174D02*
X1629705Y-900650D01*
X1629705Y-900650D02*
X1658277Y-900650D01*
X1658277Y-900650D02*
X1677324Y-910174D01*
X1677324Y-910174D02*
X1686848Y-929222D01*
X1686848Y-929222D02*
X1686848Y-1033984D01*
X1782086Y-1033984D02*
X1782086Y-900650D01*
X1782086Y-919698D02*
X1791610Y-910174D01*
X1791610Y-910174D02*
X1810658Y-900650D01*
X1810658Y-900650D02*
X1839229Y-900650D01*
X1839229Y-900650D02*
X1858277Y-910174D01*
X1858277Y-910174D02*
X1867801Y-929222D01*
X1867801Y-929222D02*
X1867801Y-1033984D01*
X1867801Y-929222D02*
X1877324Y-910174D01*
X1877324Y-910174D02*
X1896372Y-900650D01*
X1896372Y-900650D02*
X1924943Y-900650D01*
X1924943Y-900650D02*
X1943991Y-910174D01*
X1943991Y-910174D02*
X1953515Y-929222D01*
X1953515Y-929222D02*
X1953515Y-1033984D01*
X2343991Y-824460D02*
X2172563Y-1081603D01*
X2601134Y-833984D02*
X2620182Y-833984D01*
X2620182Y-833984D02*
X2639229Y-843508D01*
X2639229Y-843508D02*
X2648753Y-853031D01*
X2648753Y-853031D02*
X2658277Y-872079D01*
X2658277Y-872079D02*
X2667801Y-910174D01*
X2667801Y-910174D02*
X2667801Y-957793D01*
X2667801Y-957793D02*
X2658277Y-995888D01*
X2658277Y-995888D02*
X2648753Y-1014936D01*
X2648753Y-1014936D02*
X2639229Y-1024460D01*
X2639229Y-1024460D02*
X2620182Y-1033984D01*
X2620182Y-1033984D02*
X2601134Y-1033984D01*
X2601134Y-1033984D02*
X2582087Y-1024460D01*
X2582087Y-1024460D02*
X2572563Y-1014936D01*
X2572563Y-1014936D02*
X2563039Y-995888D01*
X2563039Y-995888D02*
X2553515Y-957793D01*
X2553515Y-957793D02*
X2553515Y-910174D01*
X2553515Y-910174D02*
X2563039Y-872079D01*
X2563039Y-872079D02*
X2572563Y-853031D01*
X2572563Y-853031D02*
X2582087Y-843508D01*
X2582087Y-843508D02*
X2601134Y-833984D01*
X2753515Y-1014936D02*
X2763039Y-1024460D01*
X2763039Y-1024460D02*
X2753515Y-1033984D01*
X2753515Y-1033984D02*
X2743991Y-1024460D01*
X2743991Y-1024460D02*
X2753515Y-1014936D01*
X2753515Y-1014936D02*
X2753515Y-1033984D01*
X2886848Y-833984D02*
X2905896Y-833984D01*
X2905896Y-833984D02*
X2924944Y-843508D01*
X2924944Y-843508D02*
X2934467Y-853031D01*
X2934467Y-853031D02*
X2943991Y-872079D01*
X2943991Y-872079D02*
X2953515Y-910174D01*
X2953515Y-910174D02*
X2953515Y-957793D01*
X2953515Y-957793D02*
X2943991Y-995888D01*
X2943991Y-995888D02*
X2934467Y-1014936D01*
X2934467Y-1014936D02*
X2924944Y-1024460D01*
X2924944Y-1024460D02*
X2905896Y-1033984D01*
X2905896Y-1033984D02*
X2886848Y-1033984D01*
X2886848Y-1033984D02*
X2867801Y-1024460D01*
X2867801Y-1024460D02*
X2858277Y-1014936D01*
X2858277Y-1014936D02*
X2848753Y-995888D01*
X2848753Y-995888D02*
X2839229Y-957793D01*
X2839229Y-957793D02*
X2839229Y-910174D01*
X2839229Y-910174D02*
X2848753Y-872079D01*
X2848753Y-872079D02*
X2858277Y-853031D01*
X2858277Y-853031D02*
X2867801Y-843508D01*
X2867801Y-843508D02*
X2886848Y-833984D01*
X3143991Y-1033984D02*
X3029706Y-1033984D01*
X3086848Y-1033984D02*
X3086848Y-833984D01*
X3086848Y-833984D02*
X3067801Y-862555D01*
X3067801Y-862555D02*
X3048753Y-881603D01*
X3048753Y-881603D02*
X3029706Y-891127D01*
X3334467Y-1033984D02*
X3220182Y-1033984D01*
X3277325Y-1033984D02*
X3277325Y-833984D01*
X3277325Y-833984D02*
X3258277Y-862555D01*
X3258277Y-862555D02*
X3239229Y-881603D01*
X3239229Y-881603D02*
X3220182Y-891127D01*
X3448753Y-919698D02*
X3429706Y-910174D01*
X3429706Y-910174D02*
X3420182Y-900650D01*
X3420182Y-900650D02*
X3410658Y-881603D01*
X3410658Y-881603D02*
X3410658Y-872079D01*
X3410658Y-872079D02*
X3420182Y-853031D01*
X3420182Y-853031D02*
X3429706Y-843508D01*
X3429706Y-843508D02*
X3448753Y-833984D01*
X3448753Y-833984D02*
X3486848Y-833984D01*
X3486848Y-833984D02*
X3505896Y-843508D01*
X3505896Y-843508D02*
X3515420Y-853031D01*
X3515420Y-853031D02*
X3524944Y-872079D01*
X3524944Y-872079D02*
X3524944Y-881603D01*
X3524944Y-881603D02*
X3515420Y-900650D01*
X3515420Y-900650D02*
X3505896Y-910174D01*
X3505896Y-910174D02*
X3486848Y-919698D01*
X3486848Y-919698D02*
X3448753Y-919698D01*
X3448753Y-919698D02*
X3429706Y-929222D01*
X3429706Y-929222D02*
X3420182Y-938746D01*
X3420182Y-938746D02*
X3410658Y-957793D01*
X3410658Y-957793D02*
X3410658Y-995888D01*
X3410658Y-995888D02*
X3420182Y-1014936D01*
X3420182Y-1014936D02*
X3429706Y-1024460D01*
X3429706Y-1024460D02*
X3448753Y-1033984D01*
X3448753Y-1033984D02*
X3486848Y-1033984D01*
X3486848Y-1033984D02*
X3505896Y-1024460D01*
X3505896Y-1024460D02*
X3515420Y-1014936D01*
X3515420Y-1014936D02*
X3524944Y-995888D01*
X3524944Y-995888D02*
X3524944Y-957793D01*
X3524944Y-957793D02*
X3515420Y-938746D01*
X3515420Y-938746D02*
X3505896Y-929222D01*
X3505896Y-929222D02*
X3486848Y-919698D01*
X3601134Y-833984D02*
X3601134Y-872079D01*
X3677325Y-833984D02*
X3677325Y-872079D01*
X3972563Y-1110174D02*
X3963039Y-1100650D01*
X3963039Y-1100650D02*
X3943991Y-1072079D01*
X3943991Y-1072079D02*
X3934468Y-1053031D01*
X3934468Y-1053031D02*
X3924944Y-1024460D01*
X3924944Y-1024460D02*
X3915420Y-976841D01*
X3915420Y-976841D02*
X3915420Y-938746D01*
X3915420Y-938746D02*
X3924944Y-891127D01*
X3924944Y-891127D02*
X3934468Y-862555D01*
X3934468Y-862555D02*
X3943991Y-843508D01*
X3943991Y-843508D02*
X3963039Y-814936D01*
X3963039Y-814936D02*
X3972563Y-805412D01*
X4153515Y-1033984D02*
X4039229Y-1033984D01*
X4096372Y-1033984D02*
X4096372Y-833984D01*
X4096372Y-833984D02*
X4077325Y-862555D01*
X4077325Y-862555D02*
X4058277Y-881603D01*
X4058277Y-881603D02*
X4039229Y-891127D01*
X4334468Y-833984D02*
X4239230Y-833984D01*
X4239230Y-833984D02*
X4229706Y-929222D01*
X4229706Y-929222D02*
X4239230Y-919698D01*
X4239230Y-919698D02*
X4258277Y-910174D01*
X4258277Y-910174D02*
X4305896Y-910174D01*
X4305896Y-910174D02*
X4324944Y-919698D01*
X4324944Y-919698D02*
X4334468Y-929222D01*
X4334468Y-929222D02*
X4343991Y-948269D01*
X4343991Y-948269D02*
X4343991Y-995888D01*
X4343991Y-995888D02*
X4334468Y-1014936D01*
X4334468Y-1014936D02*
X4324944Y-1024460D01*
X4324944Y-1024460D02*
X4305896Y-1033984D01*
X4305896Y-1033984D02*
X4258277Y-1033984D01*
X4258277Y-1033984D02*
X4239230Y-1024460D01*
X4239230Y-1024460D02*
X4229706Y-1014936D01*
X4515420Y-900650D02*
X4515420Y-1033984D01*
X4467801Y-824460D02*
X4420182Y-967317D01*
X4420182Y-967317D02*
X4543991Y-967317D01*
X4772563Y-1033984D02*
X4772563Y-833984D01*
X4858277Y-1033984D02*
X4858277Y-929222D01*
X4858277Y-929222D02*
X4848753Y-910174D01*
X4848753Y-910174D02*
X4829706Y-900650D01*
X4829706Y-900650D02*
X4801134Y-900650D01*
X4801134Y-900650D02*
X4782087Y-910174D01*
X4782087Y-910174D02*
X4772563Y-919698D01*
X4982087Y-1033984D02*
X4963039Y-1024460D01*
X4963039Y-1024460D02*
X4953515Y-1014936D01*
X4953515Y-1014936D02*
X4943992Y-995888D01*
X4943992Y-995888D02*
X4943992Y-938746D01*
X4943992Y-938746D02*
X4953515Y-919698D01*
X4953515Y-919698D02*
X4963039Y-910174D01*
X4963039Y-910174D02*
X4982087Y-900650D01*
X4982087Y-900650D02*
X5010658Y-900650D01*
X5010658Y-900650D02*
X5029706Y-910174D01*
X5029706Y-910174D02*
X5039230Y-919698D01*
X5039230Y-919698D02*
X5048753Y-938746D01*
X5048753Y-938746D02*
X5048753Y-995888D01*
X5048753Y-995888D02*
X5039230Y-1014936D01*
X5039230Y-1014936D02*
X5029706Y-1024460D01*
X5029706Y-1024460D02*
X5010658Y-1033984D01*
X5010658Y-1033984D02*
X4982087Y-1033984D01*
X5163039Y-1033984D02*
X5143992Y-1024460D01*
X5143992Y-1024460D02*
X5134468Y-1005412D01*
X5134468Y-1005412D02*
X5134468Y-833984D01*
X5315420Y-1024460D02*
X5296373Y-1033984D01*
X5296373Y-1033984D02*
X5258277Y-1033984D01*
X5258277Y-1033984D02*
X5239230Y-1024460D01*
X5239230Y-1024460D02*
X5229706Y-1005412D01*
X5229706Y-1005412D02*
X5229706Y-929222D01*
X5229706Y-929222D02*
X5239230Y-910174D01*
X5239230Y-910174D02*
X5258277Y-900650D01*
X5258277Y-900650D02*
X5296373Y-900650D01*
X5296373Y-900650D02*
X5315420Y-910174D01*
X5315420Y-910174D02*
X5324944Y-929222D01*
X5324944Y-929222D02*
X5324944Y-948269D01*
X5324944Y-948269D02*
X5229706Y-967317D01*
X5401134Y-1024460D02*
X5420182Y-1033984D01*
X5420182Y-1033984D02*
X5458277Y-1033984D01*
X5458277Y-1033984D02*
X5477325Y-1024460D01*
X5477325Y-1024460D02*
X5486849Y-1005412D01*
X5486849Y-1005412D02*
X5486849Y-995888D01*
X5486849Y-995888D02*
X5477325Y-976841D01*
X5477325Y-976841D02*
X5458277Y-967317D01*
X5458277Y-967317D02*
X5429706Y-967317D01*
X5429706Y-967317D02*
X5410658Y-957793D01*
X5410658Y-957793D02*
X5401134Y-938746D01*
X5401134Y-938746D02*
X5401134Y-929222D01*
X5401134Y-929222D02*
X5410658Y-910174D01*
X5410658Y-910174D02*
X5429706Y-900650D01*
X5429706Y-900650D02*
X5458277Y-900650D01*
X5458277Y-900650D02*
X5477325Y-910174D01*
X5553515Y-1110174D02*
X5563039Y-1100650D01*
X5563039Y-1100650D02*
X5582087Y-1072079D01*
X5582087Y-1072079D02*
X5591611Y-1053031D01*
X5591611Y-1053031D02*
X5601134Y-1024460D01*
X5601134Y-1024460D02*
X5610658Y-976841D01*
X5610658Y-976841D02*
X5610658Y-938746D01*
X5610658Y-938746D02*
X5601134Y-891127D01*
X5601134Y-891127D02*
X5591611Y-862555D01*
X5591611Y-862555D02*
X5582087Y-843508D01*
X5582087Y-843508D02*
X5563039Y-814936D01*
X5563039Y-814936D02*
X5553515Y-805412D01*
D12*
X397500Y-1206500D02*
G75*
G02*
X357500Y-1206500I-20000J0D01*
G01*
X357500Y-1206500D02*
G75*
G02*
X397500Y-1206500I20000J0D01*
G01*
D11*
X696372Y-1097984D02*
X715420Y-1097984D01*
X715420Y-1097984D02*
X734467Y-1107508D01*
X734467Y-1107508D02*
X743991Y-1117031D01*
X743991Y-1117031D02*
X753515Y-1136079D01*
X753515Y-1136079D02*
X763039Y-1174174D01*
X763039Y-1174174D02*
X763039Y-1221793D01*
X763039Y-1221793D02*
X753515Y-1259889D01*
X753515Y-1259889D02*
X743991Y-1278936D01*
X743991Y-1278936D02*
X734467Y-1288460D01*
X734467Y-1288460D02*
X715420Y-1297984D01*
X715420Y-1297984D02*
X696372Y-1297984D01*
X696372Y-1297984D02*
X677324Y-1288460D01*
X677324Y-1288460D02*
X667801Y-1278936D01*
X667801Y-1278936D02*
X658277Y-1259889D01*
X658277Y-1259889D02*
X648753Y-1221793D01*
X648753Y-1221793D02*
X648753Y-1174174D01*
X648753Y-1174174D02*
X658277Y-1136079D01*
X658277Y-1136079D02*
X667801Y-1117031D01*
X667801Y-1117031D02*
X677324Y-1107508D01*
X677324Y-1107508D02*
X696372Y-1097984D01*
X848753Y-1278936D02*
X858277Y-1288460D01*
X858277Y-1288460D02*
X848753Y-1297984D01*
X848753Y-1297984D02*
X839229Y-1288460D01*
X839229Y-1288460D02*
X848753Y-1278936D01*
X848753Y-1278936D02*
X848753Y-1297984D01*
X1029705Y-1164650D02*
X1029705Y-1297984D01*
X982086Y-1088460D02*
X934467Y-1231317D01*
X934467Y-1231317D02*
X1058277Y-1231317D01*
X1172563Y-1097984D02*
X1191610Y-1097984D01*
X1191610Y-1097984D02*
X1210658Y-1107508D01*
X1210658Y-1107508D02*
X1220182Y-1117031D01*
X1220182Y-1117031D02*
X1229705Y-1136079D01*
X1229705Y-1136079D02*
X1239229Y-1174174D01*
X1239229Y-1174174D02*
X1239229Y-1221793D01*
X1239229Y-1221793D02*
X1229705Y-1259889D01*
X1229705Y-1259889D02*
X1220182Y-1278936D01*
X1220182Y-1278936D02*
X1210658Y-1288460D01*
X1210658Y-1288460D02*
X1191610Y-1297984D01*
X1191610Y-1297984D02*
X1172563Y-1297984D01*
X1172563Y-1297984D02*
X1153515Y-1288460D01*
X1153515Y-1288460D02*
X1143991Y-1278936D01*
X1143991Y-1278936D02*
X1134467Y-1259889D01*
X1134467Y-1259889D02*
X1124944Y-1221793D01*
X1124944Y-1221793D02*
X1124944Y-1174174D01*
X1124944Y-1174174D02*
X1134467Y-1136079D01*
X1134467Y-1136079D02*
X1143991Y-1117031D01*
X1143991Y-1117031D02*
X1153515Y-1107508D01*
X1153515Y-1107508D02*
X1172563Y-1097984D01*
X1363039Y-1097984D02*
X1382086Y-1097984D01*
X1382086Y-1097984D02*
X1401134Y-1107508D01*
X1401134Y-1107508D02*
X1410658Y-1117031D01*
X1410658Y-1117031D02*
X1420182Y-1136079D01*
X1420182Y-1136079D02*
X1429705Y-1174174D01*
X1429705Y-1174174D02*
X1429705Y-1221793D01*
X1429705Y-1221793D02*
X1420182Y-1259889D01*
X1420182Y-1259889D02*
X1410658Y-1278936D01*
X1410658Y-1278936D02*
X1401134Y-1288460D01*
X1401134Y-1288460D02*
X1382086Y-1297984D01*
X1382086Y-1297984D02*
X1363039Y-1297984D01*
X1363039Y-1297984D02*
X1343991Y-1288460D01*
X1343991Y-1288460D02*
X1334467Y-1278936D01*
X1334467Y-1278936D02*
X1324944Y-1259889D01*
X1324944Y-1259889D02*
X1315420Y-1221793D01*
X1315420Y-1221793D02*
X1315420Y-1174174D01*
X1315420Y-1174174D02*
X1324944Y-1136079D01*
X1324944Y-1136079D02*
X1334467Y-1117031D01*
X1334467Y-1117031D02*
X1343991Y-1107508D01*
X1343991Y-1107508D02*
X1363039Y-1097984D01*
X1515420Y-1297984D02*
X1515420Y-1164650D01*
X1515420Y-1183698D02*
X1524943Y-1174174D01*
X1524943Y-1174174D02*
X1543991Y-1164650D01*
X1543991Y-1164650D02*
X1572563Y-1164650D01*
X1572563Y-1164650D02*
X1591610Y-1174174D01*
X1591610Y-1174174D02*
X1601134Y-1193222D01*
X1601134Y-1193222D02*
X1601134Y-1297984D01*
X1601134Y-1193222D02*
X1610658Y-1174174D01*
X1610658Y-1174174D02*
X1629705Y-1164650D01*
X1629705Y-1164650D02*
X1658277Y-1164650D01*
X1658277Y-1164650D02*
X1677324Y-1174174D01*
X1677324Y-1174174D02*
X1686848Y-1193222D01*
X1686848Y-1193222D02*
X1686848Y-1297984D01*
X1782086Y-1297984D02*
X1782086Y-1164650D01*
X1782086Y-1183698D02*
X1791610Y-1174174D01*
X1791610Y-1174174D02*
X1810658Y-1164650D01*
X1810658Y-1164650D02*
X1839229Y-1164650D01*
X1839229Y-1164650D02*
X1858277Y-1174174D01*
X1858277Y-1174174D02*
X1867801Y-1193222D01*
X1867801Y-1193222D02*
X1867801Y-1297984D01*
X1867801Y-1193222D02*
X1877324Y-1174174D01*
X1877324Y-1174174D02*
X1896372Y-1164650D01*
X1896372Y-1164650D02*
X1924943Y-1164650D01*
X1924943Y-1164650D02*
X1943991Y-1174174D01*
X1943991Y-1174174D02*
X1953515Y-1193222D01*
X1953515Y-1193222D02*
X1953515Y-1297984D01*
X2343991Y-1088460D02*
X2172563Y-1345603D01*
X2601134Y-1097984D02*
X2620182Y-1097984D01*
X2620182Y-1097984D02*
X2639229Y-1107508D01*
X2639229Y-1107508D02*
X2648753Y-1117031D01*
X2648753Y-1117031D02*
X2658277Y-1136079D01*
X2658277Y-1136079D02*
X2667801Y-1174174D01*
X2667801Y-1174174D02*
X2667801Y-1221793D01*
X2667801Y-1221793D02*
X2658277Y-1259889D01*
X2658277Y-1259889D02*
X2648753Y-1278936D01*
X2648753Y-1278936D02*
X2639229Y-1288460D01*
X2639229Y-1288460D02*
X2620182Y-1297984D01*
X2620182Y-1297984D02*
X2601134Y-1297984D01*
X2601134Y-1297984D02*
X2582087Y-1288460D01*
X2582087Y-1288460D02*
X2572563Y-1278936D01*
X2572563Y-1278936D02*
X2563039Y-1259889D01*
X2563039Y-1259889D02*
X2553515Y-1221793D01*
X2553515Y-1221793D02*
X2553515Y-1174174D01*
X2553515Y-1174174D02*
X2563039Y-1136079D01*
X2563039Y-1136079D02*
X2572563Y-1117031D01*
X2572563Y-1117031D02*
X2582087Y-1107508D01*
X2582087Y-1107508D02*
X2601134Y-1097984D01*
X2753515Y-1278936D02*
X2763039Y-1288460D01*
X2763039Y-1288460D02*
X2753515Y-1297984D01*
X2753515Y-1297984D02*
X2743991Y-1288460D01*
X2743991Y-1288460D02*
X2753515Y-1278936D01*
X2753515Y-1278936D02*
X2753515Y-1297984D01*
X2886848Y-1097984D02*
X2905896Y-1097984D01*
X2905896Y-1097984D02*
X2924944Y-1107508D01*
X2924944Y-1107508D02*
X2934467Y-1117031D01*
X2934467Y-1117031D02*
X2943991Y-1136079D01*
X2943991Y-1136079D02*
X2953515Y-1174174D01*
X2953515Y-1174174D02*
X2953515Y-1221793D01*
X2953515Y-1221793D02*
X2943991Y-1259889D01*
X2943991Y-1259889D02*
X2934467Y-1278936D01*
X2934467Y-1278936D02*
X2924944Y-1288460D01*
X2924944Y-1288460D02*
X2905896Y-1297984D01*
X2905896Y-1297984D02*
X2886848Y-1297984D01*
X2886848Y-1297984D02*
X2867801Y-1288460D01*
X2867801Y-1288460D02*
X2858277Y-1278936D01*
X2858277Y-1278936D02*
X2848753Y-1259889D01*
X2848753Y-1259889D02*
X2839229Y-1221793D01*
X2839229Y-1221793D02*
X2839229Y-1174174D01*
X2839229Y-1174174D02*
X2848753Y-1136079D01*
X2848753Y-1136079D02*
X2858277Y-1117031D01*
X2858277Y-1117031D02*
X2867801Y-1107508D01*
X2867801Y-1107508D02*
X2886848Y-1097984D01*
X3143991Y-1297984D02*
X3029706Y-1297984D01*
X3086848Y-1297984D02*
X3086848Y-1097984D01*
X3086848Y-1097984D02*
X3067801Y-1126555D01*
X3067801Y-1126555D02*
X3048753Y-1145603D01*
X3048753Y-1145603D02*
X3029706Y-1155127D01*
X3324944Y-1097984D02*
X3229706Y-1097984D01*
X3229706Y-1097984D02*
X3220182Y-1193222D01*
X3220182Y-1193222D02*
X3229706Y-1183698D01*
X3229706Y-1183698D02*
X3248753Y-1174174D01*
X3248753Y-1174174D02*
X3296372Y-1174174D01*
X3296372Y-1174174D02*
X3315420Y-1183698D01*
X3315420Y-1183698D02*
X3324944Y-1193222D01*
X3324944Y-1193222D02*
X3334467Y-1212270D01*
X3334467Y-1212270D02*
X3334467Y-1259889D01*
X3334467Y-1259889D02*
X3324944Y-1278936D01*
X3324944Y-1278936D02*
X3315420Y-1288460D01*
X3315420Y-1288460D02*
X3296372Y-1297984D01*
X3296372Y-1297984D02*
X3248753Y-1297984D01*
X3248753Y-1297984D02*
X3229706Y-1288460D01*
X3229706Y-1288460D02*
X3220182Y-1278936D01*
X3401134Y-1097984D02*
X3534467Y-1097984D01*
X3534467Y-1097984D02*
X3448753Y-1297984D01*
X3601134Y-1097984D02*
X3601134Y-1136079D01*
X3677325Y-1097984D02*
X3677325Y-1136079D01*
X3972563Y-1374174D02*
X3963039Y-1364650D01*
X3963039Y-1364650D02*
X3943991Y-1336079D01*
X3943991Y-1336079D02*
X3934468Y-1317031D01*
X3934468Y-1317031D02*
X3924944Y-1288460D01*
X3924944Y-1288460D02*
X3915420Y-1240841D01*
X3915420Y-1240841D02*
X3915420Y-1202746D01*
X3915420Y-1202746D02*
X3924944Y-1155127D01*
X3924944Y-1155127D02*
X3934468Y-1126555D01*
X3934468Y-1126555D02*
X3943991Y-1107508D01*
X3943991Y-1107508D02*
X3963039Y-1078936D01*
X3963039Y-1078936D02*
X3972563Y-1069412D01*
X4134468Y-1164650D02*
X4134468Y-1297984D01*
X4086848Y-1088460D02*
X4039229Y-1231317D01*
X4039229Y-1231317D02*
X4163039Y-1231317D01*
X4248753Y-1297984D02*
X4286849Y-1297984D01*
X4286849Y-1297984D02*
X4305896Y-1288460D01*
X4305896Y-1288460D02*
X4315420Y-1278936D01*
X4315420Y-1278936D02*
X4334468Y-1250365D01*
X4334468Y-1250365D02*
X4343991Y-1212270D01*
X4343991Y-1212270D02*
X4343991Y-1136079D01*
X4343991Y-1136079D02*
X4334468Y-1117031D01*
X4334468Y-1117031D02*
X4324944Y-1107508D01*
X4324944Y-1107508D02*
X4305896Y-1097984D01*
X4305896Y-1097984D02*
X4267801Y-1097984D01*
X4267801Y-1097984D02*
X4248753Y-1107508D01*
X4248753Y-1107508D02*
X4239230Y-1117031D01*
X4239230Y-1117031D02*
X4229706Y-1136079D01*
X4229706Y-1136079D02*
X4229706Y-1183698D01*
X4229706Y-1183698D02*
X4239230Y-1202746D01*
X4239230Y-1202746D02*
X4248753Y-1212270D01*
X4248753Y-1212270D02*
X4267801Y-1221793D01*
X4267801Y-1221793D02*
X4305896Y-1221793D01*
X4305896Y-1221793D02*
X4324944Y-1212270D01*
X4324944Y-1212270D02*
X4334468Y-1202746D01*
X4334468Y-1202746D02*
X4343991Y-1183698D01*
X4582087Y-1297984D02*
X4582087Y-1097984D01*
X4667801Y-1297984D02*
X4667801Y-1193222D01*
X4667801Y-1193222D02*
X4658277Y-1174174D01*
X4658277Y-1174174D02*
X4639230Y-1164650D01*
X4639230Y-1164650D02*
X4610658Y-1164650D01*
X4610658Y-1164650D02*
X4591611Y-1174174D01*
X4591611Y-1174174D02*
X4582087Y-1183698D01*
X4791611Y-1297984D02*
X4772563Y-1288460D01*
X4772563Y-1288460D02*
X4763039Y-1278936D01*
X4763039Y-1278936D02*
X4753515Y-1259889D01*
X4753515Y-1259889D02*
X4753515Y-1202746D01*
X4753515Y-1202746D02*
X4763039Y-1183698D01*
X4763039Y-1183698D02*
X4772563Y-1174174D01*
X4772563Y-1174174D02*
X4791611Y-1164650D01*
X4791611Y-1164650D02*
X4820182Y-1164650D01*
X4820182Y-1164650D02*
X4839230Y-1174174D01*
X4839230Y-1174174D02*
X4848753Y-1183698D01*
X4848753Y-1183698D02*
X4858277Y-1202746D01*
X4858277Y-1202746D02*
X4858277Y-1259889D01*
X4858277Y-1259889D02*
X4848753Y-1278936D01*
X4848753Y-1278936D02*
X4839230Y-1288460D01*
X4839230Y-1288460D02*
X4820182Y-1297984D01*
X4820182Y-1297984D02*
X4791611Y-1297984D01*
X4972563Y-1297984D02*
X4953515Y-1288460D01*
X4953515Y-1288460D02*
X4943992Y-1269412D01*
X4943992Y-1269412D02*
X4943992Y-1097984D01*
X5124944Y-1288460D02*
X5105896Y-1297984D01*
X5105896Y-1297984D02*
X5067801Y-1297984D01*
X5067801Y-1297984D02*
X5048753Y-1288460D01*
X5048753Y-1288460D02*
X5039230Y-1269412D01*
X5039230Y-1269412D02*
X5039230Y-1193222D01*
X5039230Y-1193222D02*
X5048753Y-1174174D01*
X5048753Y-1174174D02*
X5067801Y-1164650D01*
X5067801Y-1164650D02*
X5105896Y-1164650D01*
X5105896Y-1164650D02*
X5124944Y-1174174D01*
X5124944Y-1174174D02*
X5134468Y-1193222D01*
X5134468Y-1193222D02*
X5134468Y-1212270D01*
X5134468Y-1212270D02*
X5039230Y-1231317D01*
X5210658Y-1288460D02*
X5229706Y-1297984D01*
X5229706Y-1297984D02*
X5267801Y-1297984D01*
X5267801Y-1297984D02*
X5286849Y-1288460D01*
X5286849Y-1288460D02*
X5296373Y-1269412D01*
X5296373Y-1269412D02*
X5296373Y-1259889D01*
X5296373Y-1259889D02*
X5286849Y-1240841D01*
X5286849Y-1240841D02*
X5267801Y-1231317D01*
X5267801Y-1231317D02*
X5239230Y-1231317D01*
X5239230Y-1231317D02*
X5220182Y-1221793D01*
X5220182Y-1221793D02*
X5210658Y-1202746D01*
X5210658Y-1202746D02*
X5210658Y-1193222D01*
X5210658Y-1193222D02*
X5220182Y-1174174D01*
X5220182Y-1174174D02*
X5239230Y-1164650D01*
X5239230Y-1164650D02*
X5267801Y-1164650D01*
X5267801Y-1164650D02*
X5286849Y-1174174D01*
X5363039Y-1374174D02*
X5372563Y-1364650D01*
X5372563Y-1364650D02*
X5391611Y-1336079D01*
X5391611Y-1336079D02*
X5401134Y-1317031D01*
X5401134Y-1317031D02*
X5410658Y-1288460D01*
X5410658Y-1288460D02*
X5420182Y-1240841D01*
X5420182Y-1240841D02*
X5420182Y-1202746D01*
X5420182Y-1202746D02*
X5410658Y-1155127D01*
X5410658Y-1155127D02*
X5401134Y-1126555D01*
X5401134Y-1126555D02*
X5391611Y-1107508D01*
X5391611Y-1107508D02*
X5372563Y-1078936D01*
X5372563Y-1078936D02*
X5363039Y-1069412D01*
D13*
X337500Y-1410500D02*
X337500Y-1530500D01*
X277500Y-1470500D02*
X397500Y-1470500D01*
D11*
X763039Y-1561984D02*
X648753Y-1561984D01*
X705896Y-1561984D02*
X705896Y-1361984D01*
X705896Y-1361984D02*
X686848Y-1390555D01*
X686848Y-1390555D02*
X667801Y-1409603D01*
X667801Y-1409603D02*
X648753Y-1419127D01*
X848753Y-1542936D02*
X858277Y-1552460D01*
X858277Y-1552460D02*
X848753Y-1561984D01*
X848753Y-1561984D02*
X839229Y-1552460D01*
X839229Y-1552460D02*
X848753Y-1542936D01*
X848753Y-1542936D02*
X848753Y-1561984D01*
X934467Y-1381031D02*
X943991Y-1371508D01*
X943991Y-1371508D02*
X963039Y-1361984D01*
X963039Y-1361984D02*
X1010658Y-1361984D01*
X1010658Y-1361984D02*
X1029705Y-1371508D01*
X1029705Y-1371508D02*
X1039229Y-1381031D01*
X1039229Y-1381031D02*
X1048753Y-1400079D01*
X1048753Y-1400079D02*
X1048753Y-1419127D01*
X1048753Y-1419127D02*
X1039229Y-1447698D01*
X1039229Y-1447698D02*
X924943Y-1561984D01*
X924943Y-1561984D02*
X1048753Y-1561984D01*
X1172563Y-1361984D02*
X1191610Y-1361984D01*
X1191610Y-1361984D02*
X1210658Y-1371508D01*
X1210658Y-1371508D02*
X1220182Y-1381031D01*
X1220182Y-1381031D02*
X1229705Y-1400079D01*
X1229705Y-1400079D02*
X1239229Y-1438174D01*
X1239229Y-1438174D02*
X1239229Y-1485793D01*
X1239229Y-1485793D02*
X1229705Y-1523888D01*
X1229705Y-1523888D02*
X1220182Y-1542936D01*
X1220182Y-1542936D02*
X1210658Y-1552460D01*
X1210658Y-1552460D02*
X1191610Y-1561984D01*
X1191610Y-1561984D02*
X1172563Y-1561984D01*
X1172563Y-1561984D02*
X1153515Y-1552460D01*
X1153515Y-1552460D02*
X1143991Y-1542936D01*
X1143991Y-1542936D02*
X1134467Y-1523888D01*
X1134467Y-1523888D02*
X1124944Y-1485793D01*
X1124944Y-1485793D02*
X1124944Y-1438174D01*
X1124944Y-1438174D02*
X1134467Y-1400079D01*
X1134467Y-1400079D02*
X1143991Y-1381031D01*
X1143991Y-1381031D02*
X1153515Y-1371508D01*
X1153515Y-1371508D02*
X1172563Y-1361984D01*
X1363039Y-1361984D02*
X1382086Y-1361984D01*
X1382086Y-1361984D02*
X1401134Y-1371508D01*
X1401134Y-1371508D02*
X1410658Y-1381031D01*
X1410658Y-1381031D02*
X1420182Y-1400079D01*
X1420182Y-1400079D02*
X1429705Y-1438174D01*
X1429705Y-1438174D02*
X1429705Y-1485793D01*
X1429705Y-1485793D02*
X1420182Y-1523888D01*
X1420182Y-1523888D02*
X1410658Y-1542936D01*
X1410658Y-1542936D02*
X1401134Y-1552460D01*
X1401134Y-1552460D02*
X1382086Y-1561984D01*
X1382086Y-1561984D02*
X1363039Y-1561984D01*
X1363039Y-1561984D02*
X1343991Y-1552460D01*
X1343991Y-1552460D02*
X1334467Y-1542936D01*
X1334467Y-1542936D02*
X1324944Y-1523888D01*
X1324944Y-1523888D02*
X1315420Y-1485793D01*
X1315420Y-1485793D02*
X1315420Y-1438174D01*
X1315420Y-1438174D02*
X1324944Y-1400079D01*
X1324944Y-1400079D02*
X1334467Y-1381031D01*
X1334467Y-1381031D02*
X1343991Y-1371508D01*
X1343991Y-1371508D02*
X1363039Y-1361984D01*
X1515420Y-1561984D02*
X1515420Y-1428650D01*
X1515420Y-1447698D02*
X1524943Y-1438174D01*
X1524943Y-1438174D02*
X1543991Y-1428650D01*
X1543991Y-1428650D02*
X1572563Y-1428650D01*
X1572563Y-1428650D02*
X1591610Y-1438174D01*
X1591610Y-1438174D02*
X1601134Y-1457222D01*
X1601134Y-1457222D02*
X1601134Y-1561984D01*
X1601134Y-1457222D02*
X1610658Y-1438174D01*
X1610658Y-1438174D02*
X1629705Y-1428650D01*
X1629705Y-1428650D02*
X1658277Y-1428650D01*
X1658277Y-1428650D02*
X1677324Y-1438174D01*
X1677324Y-1438174D02*
X1686848Y-1457222D01*
X1686848Y-1457222D02*
X1686848Y-1561984D01*
X1782086Y-1561984D02*
X1782086Y-1428650D01*
X1782086Y-1447698D02*
X1791610Y-1438174D01*
X1791610Y-1438174D02*
X1810658Y-1428650D01*
X1810658Y-1428650D02*
X1839229Y-1428650D01*
X1839229Y-1428650D02*
X1858277Y-1438174D01*
X1858277Y-1438174D02*
X1867801Y-1457222D01*
X1867801Y-1457222D02*
X1867801Y-1561984D01*
X1867801Y-1457222D02*
X1877324Y-1438174D01*
X1877324Y-1438174D02*
X1896372Y-1428650D01*
X1896372Y-1428650D02*
X1924943Y-1428650D01*
X1924943Y-1428650D02*
X1943991Y-1438174D01*
X1943991Y-1438174D02*
X1953515Y-1457222D01*
X1953515Y-1457222D02*
X1953515Y-1561984D01*
X2343991Y-1352460D02*
X2172563Y-1609603D01*
X2601134Y-1361984D02*
X2620182Y-1361984D01*
X2620182Y-1361984D02*
X2639229Y-1371508D01*
X2639229Y-1371508D02*
X2648753Y-1381031D01*
X2648753Y-1381031D02*
X2658277Y-1400079D01*
X2658277Y-1400079D02*
X2667801Y-1438174D01*
X2667801Y-1438174D02*
X2667801Y-1485793D01*
X2667801Y-1485793D02*
X2658277Y-1523888D01*
X2658277Y-1523888D02*
X2648753Y-1542936D01*
X2648753Y-1542936D02*
X2639229Y-1552460D01*
X2639229Y-1552460D02*
X2620182Y-1561984D01*
X2620182Y-1561984D02*
X2601134Y-1561984D01*
X2601134Y-1561984D02*
X2582087Y-1552460D01*
X2582087Y-1552460D02*
X2572563Y-1542936D01*
X2572563Y-1542936D02*
X2563039Y-1523888D01*
X2563039Y-1523888D02*
X2553515Y-1485793D01*
X2553515Y-1485793D02*
X2553515Y-1438174D01*
X2553515Y-1438174D02*
X2563039Y-1400079D01*
X2563039Y-1400079D02*
X2572563Y-1381031D01*
X2572563Y-1381031D02*
X2582087Y-1371508D01*
X2582087Y-1371508D02*
X2601134Y-1361984D01*
X2753515Y-1542936D02*
X2763039Y-1552460D01*
X2763039Y-1552460D02*
X2753515Y-1561984D01*
X2753515Y-1561984D02*
X2743991Y-1552460D01*
X2743991Y-1552460D02*
X2753515Y-1542936D01*
X2753515Y-1542936D02*
X2753515Y-1561984D01*
X2886848Y-1361984D02*
X2905896Y-1361984D01*
X2905896Y-1361984D02*
X2924944Y-1371508D01*
X2924944Y-1371508D02*
X2934467Y-1381031D01*
X2934467Y-1381031D02*
X2943991Y-1400079D01*
X2943991Y-1400079D02*
X2953515Y-1438174D01*
X2953515Y-1438174D02*
X2953515Y-1485793D01*
X2953515Y-1485793D02*
X2943991Y-1523888D01*
X2943991Y-1523888D02*
X2934467Y-1542936D01*
X2934467Y-1542936D02*
X2924944Y-1552460D01*
X2924944Y-1552460D02*
X2905896Y-1561984D01*
X2905896Y-1561984D02*
X2886848Y-1561984D01*
X2886848Y-1561984D02*
X2867801Y-1552460D01*
X2867801Y-1552460D02*
X2858277Y-1542936D01*
X2858277Y-1542936D02*
X2848753Y-1523888D01*
X2848753Y-1523888D02*
X2839229Y-1485793D01*
X2839229Y-1485793D02*
X2839229Y-1438174D01*
X2839229Y-1438174D02*
X2848753Y-1400079D01*
X2848753Y-1400079D02*
X2858277Y-1381031D01*
X2858277Y-1381031D02*
X2867801Y-1371508D01*
X2867801Y-1371508D02*
X2886848Y-1361984D01*
X3124944Y-1428650D02*
X3124944Y-1561984D01*
X3077325Y-1352460D02*
X3029706Y-1495317D01*
X3029706Y-1495317D02*
X3153515Y-1495317D01*
X3210658Y-1361984D02*
X3343991Y-1361984D01*
X3343991Y-1361984D02*
X3258277Y-1561984D01*
X3410658Y-1381031D02*
X3420182Y-1371508D01*
X3420182Y-1371508D02*
X3439229Y-1361984D01*
X3439229Y-1361984D02*
X3486848Y-1361984D01*
X3486848Y-1361984D02*
X3505896Y-1371508D01*
X3505896Y-1371508D02*
X3515420Y-1381031D01*
X3515420Y-1381031D02*
X3524944Y-1400079D01*
X3524944Y-1400079D02*
X3524944Y-1419127D01*
X3524944Y-1419127D02*
X3515420Y-1447698D01*
X3515420Y-1447698D02*
X3401134Y-1561984D01*
X3401134Y-1561984D02*
X3524944Y-1561984D01*
X3601134Y-1361984D02*
X3601134Y-1400079D01*
X3677325Y-1361984D02*
X3677325Y-1400079D01*
X3972563Y-1638174D02*
X3963039Y-1628650D01*
X3963039Y-1628650D02*
X3943991Y-1600079D01*
X3943991Y-1600079D02*
X3934468Y-1581031D01*
X3934468Y-1581031D02*
X3924944Y-1552460D01*
X3924944Y-1552460D02*
X3915420Y-1504841D01*
X3915420Y-1504841D02*
X3915420Y-1466746D01*
X3915420Y-1466746D02*
X3924944Y-1419127D01*
X3924944Y-1419127D02*
X3934468Y-1390555D01*
X3934468Y-1390555D02*
X3943991Y-1371508D01*
X3943991Y-1371508D02*
X3963039Y-1342936D01*
X3963039Y-1342936D02*
X3972563Y-1333412D01*
X4134468Y-1428650D02*
X4134468Y-1561984D01*
X4086848Y-1352460D02*
X4039229Y-1495317D01*
X4039229Y-1495317D02*
X4163039Y-1495317D01*
X4391611Y-1561984D02*
X4391611Y-1361984D01*
X4477325Y-1561984D02*
X4477325Y-1457222D01*
X4477325Y-1457222D02*
X4467801Y-1438174D01*
X4467801Y-1438174D02*
X4448753Y-1428650D01*
X4448753Y-1428650D02*
X4420182Y-1428650D01*
X4420182Y-1428650D02*
X4401134Y-1438174D01*
X4401134Y-1438174D02*
X4391611Y-1447698D01*
X4601134Y-1561984D02*
X4582087Y-1552460D01*
X4582087Y-1552460D02*
X4572563Y-1542936D01*
X4572563Y-1542936D02*
X4563039Y-1523888D01*
X4563039Y-1523888D02*
X4563039Y-1466746D01*
X4563039Y-1466746D02*
X4572563Y-1447698D01*
X4572563Y-1447698D02*
X4582087Y-1438174D01*
X4582087Y-1438174D02*
X4601134Y-1428650D01*
X4601134Y-1428650D02*
X4629706Y-1428650D01*
X4629706Y-1428650D02*
X4648753Y-1438174D01*
X4648753Y-1438174D02*
X4658277Y-1447698D01*
X4658277Y-1447698D02*
X4667801Y-1466746D01*
X4667801Y-1466746D02*
X4667801Y-1523888D01*
X4667801Y-1523888D02*
X4658277Y-1542936D01*
X4658277Y-1542936D02*
X4648753Y-1552460D01*
X4648753Y-1552460D02*
X4629706Y-1561984D01*
X4629706Y-1561984D02*
X4601134Y-1561984D01*
X4782087Y-1561984D02*
X4763039Y-1552460D01*
X4763039Y-1552460D02*
X4753515Y-1533412D01*
X4753515Y-1533412D02*
X4753515Y-1361984D01*
X4934468Y-1552460D02*
X4915420Y-1561984D01*
X4915420Y-1561984D02*
X4877325Y-1561984D01*
X4877325Y-1561984D02*
X4858277Y-1552460D01*
X4858277Y-1552460D02*
X4848753Y-1533412D01*
X4848753Y-1533412D02*
X4848753Y-1457222D01*
X4848753Y-1457222D02*
X4858277Y-1438174D01*
X4858277Y-1438174D02*
X4877325Y-1428650D01*
X4877325Y-1428650D02*
X4915420Y-1428650D01*
X4915420Y-1428650D02*
X4934468Y-1438174D01*
X4934468Y-1438174D02*
X4943992Y-1457222D01*
X4943992Y-1457222D02*
X4943992Y-1476269D01*
X4943992Y-1476269D02*
X4848753Y-1495317D01*
X5020182Y-1552460D02*
X5039230Y-1561984D01*
X5039230Y-1561984D02*
X5077325Y-1561984D01*
X5077325Y-1561984D02*
X5096373Y-1552460D01*
X5096373Y-1552460D02*
X5105896Y-1533412D01*
X5105896Y-1533412D02*
X5105896Y-1523888D01*
X5105896Y-1523888D02*
X5096373Y-1504841D01*
X5096373Y-1504841D02*
X5077325Y-1495317D01*
X5077325Y-1495317D02*
X5048753Y-1495317D01*
X5048753Y-1495317D02*
X5029706Y-1485793D01*
X5029706Y-1485793D02*
X5020182Y-1466746D01*
X5020182Y-1466746D02*
X5020182Y-1457222D01*
X5020182Y-1457222D02*
X5029706Y-1438174D01*
X5029706Y-1438174D02*
X5048753Y-1428650D01*
X5048753Y-1428650D02*
X5077325Y-1428650D01*
X5077325Y-1428650D02*
X5096373Y-1438174D01*
X5172563Y-1638174D02*
X5182087Y-1628650D01*
X5182087Y-1628650D02*
X5201134Y-1600079D01*
X5201134Y-1600079D02*
X5210658Y-1581031D01*
X5210658Y-1581031D02*
X5220182Y-1552460D01*
X5220182Y-1552460D02*
X5229706Y-1504841D01*
X5229706Y-1504841D02*
X5229706Y-1466746D01*
X5229706Y-1466746D02*
X5220182Y-1419127D01*
X5220182Y-1419127D02*
X5210658Y-1390555D01*
X5210658Y-1390555D02*
X5201134Y-1371508D01*
X5201134Y-1371508D02*
X5182087Y-1342936D01*
X5182087Y-1342936D02*
X5172563Y-1333412D01*
M02*
